<svg width="28" height="28" viewBox="0 0 28 28" fill="none" xmlns="http://www.w3.org/2000/svg">
<circle cx="14" cy="14" r="14" fill="white"/>
<path opacity="0.5" fill-rule="evenodd" clip-rule="evenodd" d="M11.7071 13.7071C12.0976 13.3166 12.0976 12.6834 11.7071 12.2929L11.4142 12H20C20.5523 12 21 11.5523 21 11C21 10.4477 20.5523 10 20 10H11.4142L11.7071 9.70711C12.0976 9.31658 12.0976 8.68342 11.7071 8.29289C11.3166 7.90237 10.6834 7.90237 10.2929 8.29289L8.29289 10.2929C7.90237 10.6834 7.90237 11.3166 8.29289 11.7071L10.2929 13.7071C10.6834 14.0976 11.3166 14.0976 11.7071 13.7071ZM16.3012 14.2929C15.9107 14.6834 15.9107 15.3166 16.3012 15.7071L16.5941 16H8C7.44772 16 7 16.4477 7 17C7 17.5523 7.44772 18 8 18H16.5941L16.3012 18.2929C15.9107 18.6834 15.9107 19.3166 16.3012 19.7071C16.6917 20.0976 17.3249 20.0976 17.7154 19.7071L19.7154 17.7071C20.106 17.3166 20.106 16.6834 19.7154 16.2929L17.7154 14.2929C17.3249 13.9024 16.6917 13.9024 16.3012 14.2929Z" fill="#111111"/>
</svg>
