<svg width="40" height="16" xmlns="http://www.w3.org/2000/svg" style="margin: 0 10px;">
    <path d="M0 1.994C0 .893.898 0 1.99 0h16.018C19.108 0 20 .894 20 1.994v12.011A1.997 1.997 0 0118.009 16H1.99C.89 15.999 0 15.105 0 14.005V1.994zM2 14V5.62l7.427 5.2c.086.051.157.072.228.1.052.018.1.048.155.058.063.012.126.004.19.004.063 0 .127.008.19-.004.054-.01.102-.04.155-.059.07-.027.141-.048.205-.09L18 5.62V14H2zM18 2v1.178l-8 5.601-8-5.601V2h16z" fill="#111" fill-rule="evenodd" opacity=".3"/>
</svg>
