<?xml version="1.0" encoding="utf-8"?>
<svg width="137px" height="24px" viewBox="0 0 137 24" version="1.1" xmlns:xlink="http://www.w3.org/1999/xlink" xmlns="http://www.w3.org/2000/svg">
  <g id="social">
    <path d="M133.368 9.62875L133.368 5.99011L130.773 5.99011L130.773 9.62875L127.038 9.62875L127.038 12.2278L130.773 12.2278C130.773 12.2278 130.773 14.4465 130.773 15.3821C130.773 16.3178 130.773 15.9704 130.773 15.9704L133.368 15.9704L133.368 12.2278L137 12.2278L137 9.62875L133.368 9.62875L133.368 9.62875ZM114.481 9.42084L114.481 13.5793C114.481 13.5793 121.534 13.5793 121.534 13.5793C121.534 13.5793 117.879 17.7377 114.481 17.7377C111.042 17.7377 108.359 14.945 108.359 11.5001C108.359 8.05511 111.042 5.2624 114.481 5.2624C116.299 5.2624 117.474 5.90259 118.551 6.79489C119.413 5.93118 119.341 5.80809 121.534 3.73293C119.672 2.03504 117.197 1 114.481 1C108.693 1 104 5.70101 104 11.5001C104 17.299 108.693 22.0001 114.481 22.0001C122.763 22.0001 125.055 14.4256 124.622 9.42084C124.602 9.1968 124.577 9.63643 124.547 9.42084C122.499 9.42084 114.481 9.42084 114.481 9.42084L114.481 9.42084Z" id="GooglePlus" fill="#697B6B" fill-opacity="1" fill-rule="evenodd" stroke="none" />
    <path d="M80 4.36764C79.1182 4.76923 78.1687 5.04081 77.1727 5.16215C78.1898 4.5381 78.9702 3.54857 79.3379 2.36981C78.3856 2.94763 77.3333 3.368 76.2092 3.59335C75.3133 2.6125 74.0328 2 72.6156 2C69.8982 2 67.6936 4.26074 67.6936 7.04875C67.6936 7.44456 67.7359 7.82882 67.8204 8.19863C63.7281 7.98772 60.1007 5.97978 57.6707 2.92163C57.2467 3.66992 57.0044 4.5381 57.0044 5.46262C57.0044 7.21343 57.8736 8.75912 59.1949 9.66486C58.3892 9.6403 57.6285 9.41062 56.9636 9.03503L56.9636 9.09715C56.9636 11.5442 58.661 13.5854 60.915 14.0477C60.5022 14.1661 60.0669 14.2254 59.6175 14.2254C59.3006 14.2254 58.9907 14.195 58.6906 14.1358C59.3175 16.1408 61.1347 17.6013 63.29 17.6403C61.6052 18.9953 59.4809 19.8028 57.1749 19.8028C56.7776 19.8028 56.3846 19.7797 56 19.7335C58.1793 21.1636 60.7684 22 63.5478 22C72.6057 22 77.5573 14.3077 77.5573 7.63525C77.5573 7.41567 77.5531 7.1961 77.5446 6.98086C78.5068 6.26869 79.3421 5.38028 80 4.36764" id="Twitter" fill="#697B6B" fill-opacity="1" fill-rule="evenodd" stroke="none" />
    <path d="M12.8192 24L1.32462 24C0.592836 24 0 23.4068 0 22.6753L0 1.32461C0 0.592925 0.592929 0 1.32462 0L22.6755 0C23.407 0 24 0.592925 24 1.32461L24 22.6753C24 23.4069 23.4069 24 22.6755 24L16.5597 24L16.5597 14.7059L19.6793 14.7059L20.1464 11.0838L16.5597 11.0838L16.5597 8.77132C16.5597 7.72264 16.8509 7.00801 18.3546 7.00801L20.2727 7.00717L20.2727 3.76755C19.9409 3.7234 18.8024 3.62479 17.4778 3.62479C14.7124 3.62479 12.8192 5.31276 12.8192 8.4126L12.8192 11.0838L9.69156 11.0838L9.69156 14.7059L12.8192 14.7059L12.8192 24L12.8192 24Z" id="Facebook" fill="#697B6B" fill-opacity="1" fill-rule="evenodd" stroke="none" />
  </g>
</svg>
