<svg xmlns="http://www.w3.org/2000/svg" xmlns:xlink="http://www.w3.org/1999/xlink" class="hide">
    <path id="dropdown-arrow-down" d="M4 2.577L1.716.293a1.01 1.01 0 0 0-1.423 0 1.01 1.01 0 0 0 0 1.423l2.991 2.99C3.481 4.903 3.741 5 4 5c.26.001.52-.096.716-.293l2.991-2.99a1.01 1.01 0 0 0 0-1.423 1.01 1.01 0 0 0-1.423 0L4 2.577z" />
    <path id="envelope-small" d="M12 1L6 3.988 0 1a1 1 0 0 1 1-1h10a1 1 0 0 1 1 1zm0 1.894V9a1 1 0 0 1-1 1H1a1 1 0 0 1-1-1V3l6 3 6-3.106z" />
    <path id="handset" d="M3.327 2.868c-.27-.447-.792-1.305-1.097-1.8-.566.256-1.265 1.17-1.229 1.837.125 2.204 2.03 5.008 4.62 6.778 2.582 1.764 4.545 1.724 5.292.096-.511-.304-1.343-.794-1.76-1.037-.05.058-.11.128-.176.21l-.028.034-.026.033-.19.242H8.73a6.186 6.186 0 0 1-.297.368c-.476.48-.936.64-1.56.412-1.67-.627-4.88-3.775-4.946-5.331l-.001-.05c.002-.423.197-.724.525-1.045.04-.038.008-.012.331-.28l.246-.206.044-.037.042-.037c.088-.076.157-.137.212-.187z" fill-rule="nonzero" stroke="#000" stroke-width="2" />
    <path id="mobile-menu" d="M1 0h18a1 1 0 1 1 0 2H1a1 1 0 1 1 0-2zm0 6h18a1 1 0 1 1 0 2H1a1 1 0 1 1 0-2zm0 6h18a1 1 0 1 1 0 2H1a1 1 0 1 1 0-2z" fill="#61CE70" fill-rule="evenodd"/>
    <path id="close-icon" d="M.293 1.707A1 1 0 0 1 1.707.293L6 4.586 10.293.293a1 1 0 0 1 1.414 1.414L7.414 6l4.293 4.293a1 1 0 0 1-1.414 1.414L6 7.414l-4.293 4.293a1 1 0 0 1-1.414-1.414L4.586 6 .293 1.707z" />
    <g id="photo-cam-icon"><path d="M51.195 42.884C50.535 43.624 49.46 44 48 44H6c-1.46 0-2.535-.376-3.196-1.116C1.817 41.778 2 40.011 2 40v-2l-.003-23.078c-.002-.017-.113-1.719.934-2.844C3.596 11.363 4.63 11 6.001 11h7l.1-.006c.105-.01 2.585-.288 3.781-2.523.927-1.733 2.932-4.888 2.93-4.888C19.86 3.518 20.99 2 23 2h8c2.01 0 3.14 1.518 3.188 1.583-.002 0 2.003 3.155 2.93 4.888 1.196 2.235 3.675 2.513 3.78 2.523L41 11h7c1.371 0 2.403.363 3.07 1.078 1.045 1.125.934 2.827.933 2.844L52 38v2c.001.011.183 1.778-.805 2.884m1.355-32.149C51.491 9.585 49.96 9 48 9h-6.936c-.242-.037-1.549-.288-2.182-1.472-.966-1.804-2.955-4.933-3.039-5.065C35.746 2.323 34.065 0 31 0h-8c-3.066 0-4.746 2.323-4.844 2.463-.084.132-2.073 3.261-3.038 5.065-.633 1.184-1.94 1.435-2.183 1.472H6c-1.96 0-3.492.584-4.55 1.735C-.19 12.516.026 14.702 0 15v24.95c.041.62-.154 2.605 1.295 4.246C2.351 45.393 3.935 46 6 46h42c2.065 0 3.648-.607 4.704-1.804 1.45-1.64 1.254-3.626 1.296-4.247V15c-.028-.298.19-2.484-1.45-4.265"/><path d="M27 16c-5.514 0-10 4.486-10 10s4.486 10 10 10 10-4.486 10-10-4.486-10-10-10m0 22c-6.617 0-12-5.383-12-12s5.383-12 12-12 12 5.383 12 12-5.383 12-12 12"/></g>
    <path id="theme-moon-icon" d="M11.6302 2.50491C11.8179 2.1759 12.1752 1.98103 12.5535 2.00146C17.8257 2.28628 22.0125 6.65055 22.0125 11.9934C22.0125 17.5199 17.5323 22 12.0058 22C8.52905 22 5.46703 20.226 3.67496 17.5385C3.46482 17.2234 3.45062 16.8166 3.63828 16.4876C3.82593 16.1586 4.18327 15.9637 4.56148 15.9842C4.70694 15.992 4.85354 15.996 5.00116 15.996C9.42238 15.996 13.0065 12.4119 13.0065 7.99069C13.0065 6.3487 12.5132 4.82495 11.6669 3.55583C11.4568 3.24069 11.4426 2.83393 11.6302 2.50491ZM14.3152 4.32604C14.7623 5.46142 15.0078 6.69799 15.0078 7.99069C15.0078 12.982 11.3535 17.1197 6.57433 17.8744C8.00211 19.1938 9.91009 19.9987 12.0058 19.9987C16.427 19.9987 20.0111 16.4146 20.0111 11.9934C20.0111 8.3751 17.6103 5.31711 14.3152 4.32604Z"/>
    <path id="theme-sun-icon" d="M10 .5a.5.5 0 0 1 .5-.5h1a.5.5 0 0 1 .5.5v1.996c0 .3-.264.532-.564.516a8.282 8.282 0 0 0-.872 0A.529.529 0 0 1 10 2.496V.5Zm6.34 4.543a.528.528 0 0 1-.034-.763l1.412-1.412a.5.5 0 0 1 .707 0l.707.707a.515.515 0 0 1 0 .707L17.72 5.694a.528.528 0 0 1-.763-.034 8.06 8.06 0 0 0-.617-.617ZM19.504 10c-.3 0-.532.264-.516.564.015.29.015.582 0 .872-.016.3.216.564.516.564H21.5a.5.5 0 0 0 .5-.5v-1a.5.5 0 0 0-.5-.5h-1.996Zm-2.547 6.34a.528.528 0 0 1 .764-.034l1.41 1.412a.515.515 0 0 1 0 .707l-.706.707a.5.5 0 0 1-.707 0l-1.412-1.412a.528.528 0 0 1 .034-.763c.217-.195.422-.4.617-.617ZM12 19.504c0-.3-.264-.532-.564-.516-.29.015-.582.015-.872 0a.528.528 0 0 0-.564.516V21.5a.5.5 0 0 0 .5.5h1a.5.5 0 0 0 .5-.5v-1.996Zm-6.34-2.547c.224.2.246.55.034.764l-1.412 1.41a.515.515 0 0 1-.707 0l-.707-.706a.5.5 0 0 1 0-.707l1.412-1.412a.528.528 0 0 1 .763.034c.194.217.4.422.617.617ZM2.496 12c.3 0 .532-.264.516-.564a8.282 8.282 0 0 1 0-.872.529.529 0 0 0-.516-.564H.5a.5.5 0 0 0-.5.5v1a.5.5 0 0 0 .5.5h1.996Zm2.547-6.34a.528.528 0 0 1-.763.034L2.868 4.282a.5.5 0 0 1 0-.707l.707-.707a.5.5 0 0 1 .707 0L5.694 4.28a.528.528 0 0 1-.034.763 8.05 8.05 0 0 0-.617.617ZM15 11a4 4 0 1 1-8 0 4 4 0 0 1 8 0Zm2 0a6 6 0 1 1-12 0 6 6 0 0 1 12 0Z" />
    <path id="user-icon" d="M18.9913 17.909C18.4113 18.368 15.6053 19 10.9993 19C6.3933 19 3.5883 18.369 3.0073 17.909C2.9843 17.534 2.9473 15.703 4.2733 14.221C4.9183 13.5 5.7933 12.958 6.8833 12.589C7.8023 13.693 9.1763 14.25 10.9993 14.25C12.8223 14.25 14.1963 13.693 15.1153 12.589C16.2043 12.958 17.0803 13.5 17.7243 14.221C19.0553 15.709 19.0143 17.548 18.9913 17.909ZM10.9993 3C12.8173 3 14.4993 3.56 14.4993 7.625C14.4993 11.69 12.8173 12.25 10.9993 12.25C9.1813 12.25 7.4993 11.69 7.4993 7.625C7.4993 3.56 9.1813 3 10.9993 3ZM19.2423 12.918C18.4223 11.99 17.3403 11.3 16.0383 10.815C16.3343 9.92 16.4993 8.869 16.4993 7.625C16.4993 3.229 14.6483 1 10.9993 1C7.3493 1 5.4993 3.229 5.4993 7.625C5.4993 8.869 5.6643 9.92 5.9593 10.815C4.6583 11.3 3.5763 11.99 2.7563 12.918C0.828303 15.098 0.979303 17.714 1.0203 18.156C1.1163 20.834 8.2203 21 10.9993 21C19.1143 21 20.9213 19.471 20.9773 18.159C21.0183 17.726 21.1743 15.103 19.2423 12.918Z"/>
    <path id="favorite-icon" d="M9.777 0c-1.03 0-2.004.35-2.775.993A4.287 4.287 0 0 0 4.222 0C1.893 0 0 1.804 0 4.034c0 1.082.44 2.097 1.24 2.858l5.07 4.834c.38.364.996.367 1.38 0l5.068-4.833A3.933 3.933 0 0 0 14 4.035C14 1.795 12.098 0 9.777 0"/>
    <path id="contact-icon" d="M3.138 0c.11 0 .377.035.514.346l1.26 2.694a.58.58 0 0 1-.134.712L3.416 5.155a17.025 17.025 0 0 0 5.2 5.448l1.504-1.505a.582.582 0 0 1 .69-.113l2.849 1.244c.268.138.416.46.302.744-.374 1.252-.518 2.387-1.785 2.699-.433.119-1.079.329-1.468.329-.387 0-.756-.115-1.07-.331-2.805-1.815-5.42-3.231-7.748-6.931C.28 4.17-.286 3.642.133 2.484.495 1.544.663.851 1.622.513 1.802.447 2.956 0 3.138 0"/>
</svg>
