<?xml version="1.0" encoding="utf-8"?>
<svg width="28px" height="28px" viewBox="0 0 28 28" version="1.1" xmlns:xlink="http://www.w3.org/1999/xlink" xmlns="http://www.w3.org/2000/svg">
  <g id="like">
    <path d="M14 28C21.732 28 28 21.732 28 14C28 6.26801 21.732 0 14 0C6.26801 0 0 6.26801 0 14C0 21.732 6.26801 28 14 28Z" id="like" fill="#FFFFFF" fill-rule="evenodd" stroke="none" />
    <path d="M14.0016 8.99298C14.7731 8.35024 15.7477 8 16.7767 8C19.0976 8 21 9.79547 21 12.0349C20.9969 13.1187 20.5559 14.1334 19.7579 14.8931L14.6899 19.7261C14.3057 20.0928 13.6897 20.0898 13.3093 19.7261L8.24056 14.8924C7.44022 14.1312 7 13.1157 7 12.0342C7 9.80372 8.89233 8 11.2226 8C12.2624 8 13.2386 8.35024 14.0016 8.99298ZM15.2817 10.5296C15.6932 10.1868 16.2147 10 16.7767 10C18.0225 10 19 10.9304 19 12.0349C18.9985 12.5649 18.7836 13.0593 18.3788 13.4446L13.9996 17.6207L9.6208 13.445C9.2137 13.0578 9 12.5653 9 12.0342C9 10.931 9.97518 10 11.2226 10C11.7939 10 12.3131 10.1857 12.713 10.5226C13.4544 11.1471 14.5369 11.1501 15.2817 10.5296Z" id="Combined-Shape" fill="#111111" fill-opacity="0.5" fill-rule="evenodd" stroke="none" />
  </g>
</svg>