<svg width="200" height="36" viewBox="0 0 200 36" fill="none" xmlns="http://www.w3.org/2000/svg">
<path d="M0.984375 28V24.9238L3.70898 24.3965V6.02734L0.984375 5.5V2.40625H13.1133C15.082 2.40625 16.7695 2.71094 18.1758 3.32031C19.582 3.92969 20.6602 4.80273 21.4102 5.93945C22.1719 7.07617 22.5527 8.44141 22.5527 10.0352C22.5527 11.5352 22.1777 12.877 21.4277 14.0605C20.6777 15.2441 19.6348 16.1758 18.2988 16.8555C16.9629 17.5352 15.4219 17.8809 13.6758 17.8926H8.8418V24.3965L11.584 24.9238V28H0.984375ZM17.4551 28L13.1484 16.9434L17.7715 15.8008L21.498 24.4141L23.6777 24.9238V28H17.4551ZM8.8418 13.9375H13.0254C14.502 13.9375 15.6035 13.627 16.3301 13.0059C17.0684 12.373 17.4375 11.459 17.4375 10.2637C17.4375 9.08008 17.0742 8.13672 16.3477 7.43359C15.6211 6.71875 14.543 6.36133 13.1133 6.36133H8.8418V13.9375ZM34.9629 28.3691C33.1465 28.3691 31.5586 27.9707 30.1992 27.1738C28.8398 26.3652 27.7852 25.2578 27.0352 23.8516C26.2969 22.4453 25.9277 20.8398 25.9277 19.0352V18.332C25.9277 16.4453 26.2793 14.7754 26.9824 13.3223C27.6855 11.8574 28.6758 10.709 29.9531 9.87695C31.2422 9.0332 32.7598 8.61719 34.5059 8.62891C36.2285 8.62891 37.6758 8.96875 38.8477 9.64844C40.0195 10.3281 40.9102 11.3066 41.5195 12.584C42.1289 13.8613 42.4336 15.4082 42.4336 17.2246V20.0195H31.2539L31.2188 20.125C31.2891 20.957 31.4941 21.7012 31.834 22.3574C32.1855 23.002 32.6777 23.5117 33.3105 23.8867C33.9434 24.25 34.7109 24.4316 35.6133 24.4316C36.5508 24.4316 37.4238 24.3145 38.2324 24.0801C39.0527 23.834 39.8496 23.4766 40.623 23.0078L42.0117 26.1719C41.2266 26.8047 40.2363 27.332 39.041 27.7539C37.8574 28.1641 36.498 28.3691 34.9629 28.3691ZM31.2891 16.627H37.6348V16.1699C37.6348 15.3965 37.5293 14.7344 37.3184 14.1836C37.1191 13.6211 36.791 13.1875 36.334 12.8828C35.8887 12.5781 35.3086 12.4258 34.5938 12.4258C33.9141 12.4258 33.3398 12.6074 32.8711 12.9707C32.4023 13.3223 32.0332 13.8086 31.7637 14.4297C31.5059 15.0508 31.3301 15.7539 31.2363 16.5391L31.2891 16.627ZM51.2051 28.3691C49.3184 28.3691 47.8184 27.8652 46.7051 26.8574C45.5918 25.8379 45.0352 24.4551 45.0352 22.709C45.0352 21.5137 45.3574 20.4648 46.002 19.5625C46.6582 18.6602 47.6191 17.9512 48.8848 17.4355C50.1621 16.9199 51.7324 16.6621 53.5957 16.6621H56.1094V15.2559C56.1094 14.3418 55.8398 13.6035 55.3008 13.041C54.7734 12.4668 53.9766 12.1797 52.9102 12.1797C52.3594 12.1797 51.8672 12.25 51.4336 12.3906C51 12.5195 50.6016 12.707 50.2383 12.9531L49.834 15.4668H46.1426L46.0723 10.5273C47.0684 9.96484 48.1465 9.50781 49.3066 9.15625C50.4668 8.80469 51.7617 8.62891 53.1914 8.62891C55.6758 8.62891 57.6387 9.20898 59.0801 10.3691C60.5215 11.5176 61.2422 13.1641 61.2422 15.3086V23.1484C61.2422 23.4062 61.2422 23.6641 61.2422 23.9219C61.2539 24.168 61.2773 24.4082 61.3125 24.6426L63.2988 24.9238V28H56.9355C56.8066 27.6719 56.6777 27.3203 56.5488 26.9453C56.4199 26.5703 56.3262 26.1953 56.2676 25.8203C55.6582 26.5938 54.9375 27.2148 54.1055 27.6836C53.2852 28.1406 52.3184 28.3691 51.2051 28.3691ZM52.5762 24.5723C53.291 24.5723 53.9707 24.4141 54.6152 24.0977C55.2598 23.7695 55.7578 23.3418 56.1094 22.8145V19.8086H53.5781C52.4531 19.8086 51.5977 20.0664 51.0117 20.582C50.4375 21.0977 50.1504 21.7188 50.1504 22.4453C50.1504 23.125 50.3613 23.6523 50.7832 24.0273C51.2168 24.3906 51.8145 24.5723 52.5762 24.5723ZM64.8457 28V24.9238L67.3242 24.3965V4.19922L64.582 3.67188V0.578125H72.457V24.3965L74.9355 24.9238V28H64.8457ZM84.0938 28.3691C82.3242 28.3691 80.959 27.8828 79.998 26.9102C79.0488 25.9375 78.5742 24.3965 78.5742 22.2871V12.584H75.9551V8.98047H78.5742V4.32227H83.6895V8.98047H87.1875V12.584H83.6895V22.2695C83.6895 23.0078 83.8418 23.5352 84.1465 23.8516C84.4629 24.168 84.8906 24.3262 85.4297 24.3262C85.7227 24.3262 86.0273 24.3086 86.3438 24.2734C86.6719 24.2266 86.9531 24.1797 87.1875 24.1328L87.627 27.8418C87.0996 27.9941 86.5254 28.1172 85.9043 28.2109C85.2949 28.3164 84.6914 28.3691 84.0938 28.3691ZM94.834 35.6816C94.3887 35.6816 93.9141 35.6406 93.4102 35.5586C92.918 35.4883 92.4492 35.3887 92.0039 35.2598L92.584 31.498C92.8066 31.5449 93.0527 31.5801 93.3223 31.6035C93.5918 31.627 93.8262 31.6387 94.0254 31.6387C94.7637 31.6387 95.4023 31.4453 95.9414 31.0586C96.4805 30.6719 96.873 30.1152 97.1191 29.3887L97.541 28.2109L91.1777 12.4082L88.8398 12.0742V8.98047H98.9297V12.0742L96.6094 12.4258L99.5977 20.8105L99.9668 21.8477H100.072L103.605 12.3906L101.338 12.0742V8.98047H110.742V12.0742L108.598 12.373L101.338 30.8301C100.986 31.709 100.535 32.5117 99.9844 33.2383C99.4453 33.9766 98.7539 34.5684 97.9102 35.0137C97.0781 35.459 96.0527 35.6816 94.834 35.6816ZM120.867 28V24.9238L123.592 24.3965V6.02734L120.867 5.5V2.40625H131.467V5.5L128.725 6.02734V13.4102H139.166V6.02734L136.424 5.5V2.40625H139.166H144.281H147.023V5.5L144.281 6.02734V24.3965L147.023 24.9238V28H136.424V24.9238L139.166 24.3965V17.3652H128.725V24.3965L131.467 24.9238V28H120.867ZM158.221 28.3691C156.404 28.3691 154.816 27.9707 153.457 27.1738C152.098 26.3652 151.043 25.2578 150.293 23.8516C149.555 22.4453 149.186 20.8398 149.186 19.0352V18.332C149.186 16.4453 149.537 14.7754 150.24 13.3223C150.943 11.8574 151.934 10.709 153.211 9.87695C154.5 9.0332 156.018 8.61719 157.764 8.62891C159.486 8.62891 160.934 8.96875 162.105 9.64844C163.277 10.3281 164.168 11.3066 164.777 12.584C165.387 13.8613 165.691 15.4082 165.691 17.2246V20.0195H154.512L154.477 20.125C154.547 20.957 154.752 21.7012 155.092 22.3574C155.443 23.002 155.936 23.5117 156.568 23.8867C157.201 24.25 157.969 24.4316 158.871 24.4316C159.809 24.4316 160.682 24.3145 161.49 24.0801C162.311 23.834 163.107 23.4766 163.881 23.0078L165.27 26.1719C164.484 26.8047 163.494 27.332 162.299 27.7539C161.115 28.1641 159.756 28.3691 158.221 28.3691ZM154.547 16.627H160.893V16.1699C160.893 15.3965 160.787 14.7344 160.576 14.1836C160.377 13.6211 160.049 13.1875 159.592 12.8828C159.146 12.5781 158.566 12.4258 157.852 12.4258C157.172 12.4258 156.598 12.6074 156.129 12.9707C155.66 13.3223 155.291 13.8086 155.021 14.4297C154.764 15.0508 154.588 15.7539 154.494 16.5391L154.547 16.627ZM168.451 28V24.9238L170.912 24.3965V12.6016L168.188 12.0742V8.98047H175.693L175.887 11.3359L175.922 11.7578C176.391 10.7266 176.971 9.94727 177.662 9.41992C178.354 8.89258 179.18 8.62891 180.141 8.62891C180.445 8.62891 180.779 8.6582 181.143 8.7168C181.506 8.76367 181.828 8.82812 182.109 8.91016L181.564 13.6387L179.016 13.498C178.289 13.4629 177.697 13.5859 177.24 13.8672C176.795 14.1484 176.396 14.5527 176.045 15.0801V24.3965L178.506 24.9238V28H168.451ZM192.393 28.3691C190.576 28.3691 188.988 27.9707 187.629 27.1738C186.27 26.3652 185.215 25.2578 184.465 23.8516C183.727 22.4453 183.357 20.8398 183.357 19.0352V18.332C183.357 16.4453 183.709 14.7754 184.412 13.3223C185.115 11.8574 186.105 10.709 187.383 9.87695C188.672 9.0332 190.189 8.61719 191.936 8.62891C193.658 8.62891 195.105 8.96875 196.277 9.64844C197.449 10.3281 198.34 11.3066 198.949 12.584C199.559 13.8613 199.863 15.4082 199.863 17.2246V20.0195H188.684L188.648 20.125C188.719 20.957 188.924 21.7012 189.264 22.3574C189.615 23.002 190.107 23.5117 190.74 23.8867C191.373 24.25 192.141 24.4316 193.043 24.4316C193.98 24.4316 194.854 24.3145 195.662 24.0801C196.482 23.834 197.279 23.4766 198.053 23.0078L199.441 26.1719C198.656 26.8047 197.666 27.332 196.471 27.7539C195.287 28.1641 193.928 28.3691 192.393 28.3691ZM188.719 16.627H195.064V16.1699C195.064 15.3965 194.959 14.7344 194.748 14.1836C194.549 13.6211 194.221 13.1875 193.764 12.8828C193.318 12.5781 192.738 12.4258 192.023 12.4258C191.344 12.4258 190.77 12.6074 190.301 12.9707C189.832 13.3223 189.463 13.8086 189.193 14.4297C188.936 15.0508 188.76 15.7539 188.666 16.5391L188.719 16.627Z" fill="white"/>
</svg>
