<svg width="40" height="22" xmlns="http://www.w3.org/2000/svg" style="margin: 0 10px;">
  <path d="M9.096 21.784c-.315-.16-.82-.454-1.467-.89a23.567 23.567 0 01-3.2-2.614C1.419 15.358 0 12.964 0 10 0 4.12 4.4 0 10 0s10 4.12 10 10c0 2.964-1.418 5.358-4.428 8.28a23.551 23.551 0 01-3.2 2.613c-.647.438-1.154.732-1.468.891a2 2 0 01-1.808 0zM10 20s1.943-.984 4.179-3.155C16.561 14.532 18 12.5 18 10c0-5-3.747-8-8-8s-8 3-8 8c0 2.5 1.439 4.532 3.822 6.845C8.058 19.016 10 20 10 20zm0-6c-2.206 0-4-1.794-4-4s1.794-4 4-4 4 1.794 4 4-1.794 4-4 4zm0-6c-1.103 0-2 .897-2 2s.897 2 2 2 2-.897 2-2-.897-2-2-2z" fill="#157ED2" fill-rule="evenodd"/>
</svg>
