<?xml version="1.0" encoding="UTF-8"?>
<svg xmlns="http://www.w3.org/2000/svg" xmlns:xlink="http://www.w3.org/1999/xlink" width="40px" height="40px" viewBox="0 0 40 40" version="1.1">
<g id="surface1">
<path style=" stroke:none;fill-rule:nonzero;fill:rgb(100%,100%,100%);fill-opacity:1;" d="M 19.210938 0 L 20.789062 0 C 26.003906 0.253906 31.101562 2.535156 34.640625 6.390625 C 37.878906 9.855469 39.765625 14.484375 40 19.214844 L 40 20.804688 C 39.730469 26.601562 36.890625 32.238281 32.269531 35.773438 C 29 38.339844 24.933594 39.78125 20.796875 40 L 19.199219 40 C 13.390625 39.734375 7.738281 36.890625 4.210938 32.246094 C 1.628906 29 0.234375 24.921875 0 20.800781 L 0 19.214844 C 0.234375 15.195312 1.546875 11.203125 4.019531 8.003906 C 7.539062 3.21875 13.289062 0.269531 19.210938 0 M 18.050781 16.386719 C 19.121094 17.679688 20.40625 18.78125 21.558594 20 C 20.40625 21.21875 19.125 22.320312 18.050781 23.613281 C 18.050781 23.816406 18.046875 24.214844 18.039062 24.421875 C 19.300781 25.980469 20.535156 23.726562 21.480469 22.953125 C 22.285156 21.871094 24.050781 21.121094 23.953125 19.621094 C 22.625 18.101562 21.144531 16.710938 19.695312 15.304688 C 19.023438 14.445312 17.609375 15.445312 18.050781 16.386719 Z M 18.050781 16.386719 "/>
</g>
</svg>
