<?xml version="1.0" encoding="UTF-8"?>
<svg width="28px" height="28px" viewBox="0 0 28 28" version="1.1" xmlns="http://www.w3.org/2000/svg" xmlns:xlink="http://www.w3.org/1999/xlink">
    <title>phone</title>
    <g id="Design" stroke="none" stroke-width="1" fill="none" fill-rule="evenodd">
        <g id="Index-\-≥1200px" transform="translate(-741.000000, -1799.000000)" fill="#4A90E2">
            <g id="Recently" transform="translate(0.000000, 824.000000)">
                <g id="card" transform="translate(528.000000, 582.000000)">
                    <path d="M227,393 C234.731986,393 241,399.268014 241,407 C241,414.731986 234.731986,421 227,421 C219.268014,421 213,414.731986 213,407 C213,399.268014 219.268014,393 227,393 Z M223.138294,400 C222.956479,400 221.802658,400.447 221.621842,400.513 C220.662822,400.851 220.494993,401.544 220.133362,402.484 C219.713791,403.642 220.280212,404.17 221.889569,406.739 C224.218191,410.439 226.832521,411.855 229.638655,413.67 C229.952335,413.886 230.320958,414.001 230.707563,414.001 C231.097166,414.001 231.742506,413.791 232.176064,413.672 C233.44277,413.36 233.586623,412.225 233.961241,410.973 C234.075124,410.689 233.927275,410.367 233.65855,410.229 L233.65855,410.229 C233.647638,410.224092 233.472797,410.147057 230.809459,408.985 C230.599674,408.87 230.321957,408.9 230.120163,409.098 L230.120163,409.098 L228.616699,410.603 C226.423938,409.139 224.661738,407.255 223.41601,405.155 L223.41601,405.155 L224.777619,403.752 C224.988404,403.572 225.036355,403.268 224.911483,403.04 L224.911483,403.04 L223.651769,400.346 C223.514909,400.035 223.247182,400 223.138294,400 Z" id="phone"></path>
                </g>
            </g>
        </g>
    </g>
</svg>