<svg width="135" height="40" xmlns="http://www.w3.org/2000/svg"><defs><linearGradient x1="91.683%" y1="4.677%" x2="-38.413%" y2="71.806%" id="a"><stop stop-color="#00A1FF" offset="0%"/><stop stop-color="#00BEFF" offset="26.01%"/><stop stop-color="#00D2FF" offset="51.22%"/><stop stop-color="#00DFFF" offset="76.04%"/><stop stop-color="#00E3FF" offset="100%"/></linearGradient><linearGradient x1="107.998%" y1="49.535%" x2="-130.395%" y2="49.535%" id="b"><stop stop-color="#FFE000" offset="0%"/><stop stop-color="#FFBD00" offset="40.87%"/><stop stop-color="orange" offset="77.54%"/><stop stop-color="#FF9C00" offset="100%"/></linearGradient><linearGradient x1="86.472%" y1="17.638%" x2="-50.626%" y2="195.596%" id="c"><stop stop-color="#FF3A44" offset="0%"/><stop stop-color="#C31162" offset="100%"/></linearGradient><linearGradient x1="-19.128%" y1="-53.645%" x2="42.092%" y2="24.959%" id="d"><stop stop-color="#32A071" offset="0%"/><stop stop-color="#2DA771" offset="6.85%"/><stop stop-color="#15CF74" offset="47.62%"/><stop stop-color="#06E775" offset="80.09%"/><stop stop-color="#00F076" offset="100%"/></linearGradient></defs><g fill="none" fill-rule="evenodd"><path d="M5 .5A4.5 4.5 0 0 0 .5 5v30A4.5 4.5 0 0 0 5 39.5h125a4.5 4.5 0 0 0 4.5-4.5V5A4.5 4.5 0 0 0 130 .5H5z" stroke="#A6A6A6" fill="#000"/><path d="M106.734 30.833h1.87v-12.5h-1.87v12.5zm16.849-7.998l-2.145 5.42h-.065l-2.224-5.42h-2.016l3.337 7.575-1.902 4.214h1.951l5.143-11.789h-2.079zm-10.61 6.578c-.612 0-1.467-.305-1.467-1.062 0-.964 1.064-1.334 1.984-1.334.822 0 1.209.177 1.708.418a2.265 2.265 0 0 1-2.225 1.978zm.226-6.85c-1.354 0-2.757.594-3.337 1.913l1.66.691c.355-.69 1.016-.917 1.71-.917.966 0 1.95.58 1.966 1.61v.127c-.339-.193-1.064-.482-1.95-.482-1.79 0-3.612.981-3.612 2.814 0 1.673 1.467 2.751 3.112 2.751 1.257 0 1.95-.563 2.386-1.223h.064v.965h1.807V26.02c0-2.219-1.662-3.457-3.806-3.457zm-11.56 1.794h-2.66v-4.285h2.66c1.398 0 2.193 1.155 2.193 2.142 0 .97-.795 2.143-2.194 2.143zm-.049-6.025h-4.482v12.501h1.87v-4.736h2.612c2.073 0 4.111-1.498 4.111-3.883s-2.038-3.882-4.111-3.882zM77.148 29.415c-1.292 0-2.374-1.079-2.374-2.56 0-1.499 1.082-2.595 2.374-2.595 1.276 0 2.278 1.096 2.278 2.594 0 1.482-1.002 2.561-2.278 2.561zm2.148-5.88h-.065c-.42-.499-1.227-.95-2.245-.95-2.132 0-4.086 1.868-4.086 4.27 0 2.383 1.954 4.236 4.086 4.236 1.018 0 1.825-.45 2.245-.967h.065v.613c0 1.627-.872 2.497-2.277 2.497-1.147 0-1.858-.822-2.148-1.515l-1.632.677c.468 1.128 1.712 2.513 3.78 2.513 2.196 0 4.054-1.289 4.054-4.43v-7.637h-1.777v.693zm3.069 7.298h1.874V18.331h-1.874v12.502zM87 26.71c-.05-1.643 1.275-2.48 2.228-2.48.743 0 1.373.37 1.583.901l-3.811 1.58zm5.813-1.418c-.355-.95-1.438-2.706-3.65-2.706-2.197 0-4.021 1.723-4.021 4.253 0 2.384 1.808 4.253 4.231 4.253 1.954 0 3.085-1.192 3.553-1.885l-1.453-.967c-.485.71-1.147 1.176-2.1 1.176-.953 0-1.632-.435-2.067-1.288l5.702-2.353-.195-.483zm-45.422-1.4v1.803h4.33c-.13 1.015-.47 1.756-.986 2.271-.63.63-1.615 1.322-3.344 1.322-2.664 0-4.747-2.143-4.747-4.8 0-2.66 2.083-4.802 4.747-4.802 1.438 0 2.488.564 3.263 1.29L51.93 19.7c-1.082-1.03-2.52-1.82-4.539-1.82-3.65 0-6.718 2.964-6.718 6.605 0 3.641 3.068 6.605 6.718 6.605 1.97 0 3.457-.645 4.62-1.853 1.195-1.192 1.566-2.867 1.566-4.22a5.9 5.9 0 0 0-.096-1.128h-6.09zM58.5 29.414c-1.292 0-2.407-1.063-2.407-2.577 0-1.53 1.115-2.578 2.407-2.578s2.406 1.047 2.406 2.578c0 1.514-1.114 2.577-2.406 2.577zm0-6.83c-2.358 0-4.28 1.788-4.28 4.253 0 2.45 1.922 4.253 4.28 4.253 2.358 0 4.28-1.804 4.28-4.253 0-2.465-1.922-4.253-4.28-4.253zm9.337 6.83c-1.293 0-2.406-1.063-2.406-2.577 0-1.53 1.113-2.578 2.406-2.578 1.292 0 2.406 1.047 2.406 2.578 0 1.514-1.114 2.577-2.406 2.577zm0-6.83c-2.358 0-4.28 1.788-4.28 4.253 0 2.45 1.922 4.253 4.28 4.253 2.357 0 4.28-1.804 4.28-4.253 0-2.465-1.923-4.253-4.28-4.253z" fill="#FFF"/><g fill="#FFF"><path d="M79.369 7.472v3.724l.023.87-2.83-4.594h-1.11v6.388h.985V9.904l-.024-.87 2.967 4.826h.976V7.472zM73.552 10.666c0 .687-.219 1.26-.65 1.702a2.132 2.132 0 0 1-1.583.665 2.136 2.136 0 0 1-1.585-.665c-.43-.442-.648-1.015-.648-1.702s.218-1.26.648-1.702c.43-.441.963-.664 1.585-.664s1.154.223 1.583.664c.431.442.65 1.015.65 1.702m-2.233-3.332c-.917 0-1.693.325-2.309.968-.615.641-.927 1.436-.927 2.364 0 .929.312 1.724.927 2.364.615.643 1.392.968 2.309.968.915 0 1.693-.325 2.308-.968.616-.64.927-1.436.927-2.364 0-.922-.312-1.716-.931-2.36-.62-.646-1.395-.972-2.304-.972M61.329 8.438h1.704v5.422h.985V8.438h1.704v-.966h-4.393zM59.557 13.86h.987V7.47h-.987zM52.334 8.438h1.704v5.422h.987V8.438h1.703v-.966h-4.394zM47.957 13.86h3.764v-.965h-2.777V11.14h2.504v-.95h-2.504V8.439h2.777V7.47h-3.764zM46.976 10.347h-3.141v.95h2.203c-.057.454-.214.815-.47 1.076-.433.438-.982.66-1.632.66a2.21 2.21 0 0 1-1.594-.658c-.447-.436-.672-1.01-.672-1.708 0-.7.225-1.274.672-1.71a2.215 2.215 0 0 1 1.594-.657c.684 0 1.205.227 1.592.696l.072.087.68-.69-.06-.073a2.63 2.63 0 0 0-.992-.719 3.226 3.226 0 0 0-1.292-.268c-.903 0-1.683.323-2.315.958-.633.636-.954 1.435-.954 2.376 0 .94.32 1.738.954 2.374.632.634 1.41.957 2.315.957.945 0 1.723-.318 2.313-.945.522-.53.787-1.249.787-2.136 0-.157-.015-.32-.044-.484l-.016-.086z"/></g><path d="M.464.398C.172.705 0 1.183 0 1.803v22.115c0 .62.172 1.097.464 1.405l.073.072 12.421-12.388v-.293L.538.324.463.399z" fill="url(#a)" transform="translate(9 7)"/><path d="M12.958 12.714v.293l4.14 4.13.095-.052 4.904-2.781c1.402-.793 1.402-2.093 0-2.887l-4.904-2.78-.094-.053-4.14 4.13z" fill="url(#b)" transform="translate(9 7)"/><path d="M.464 25.323c.461.488 1.224.548 2.083.062l14.646-8.3-4.235-4.224L.464 25.323z" fill="url(#c)" transform="translate(9 7)"/><path d="M.464.398L12.958 12.86l4.235-4.225L2.547.336C2.144.108 1.762 0 1.424 0 1.04 0 .709.139.464.398" fill="url(#d)" transform="translate(9 7)"/></g></svg>
