<?xml version="1.0" encoding="UTF-8"?>
<svg xmlns="http://www.w3.org/2000/svg" xmlns:xlink="http://www.w3.org/1999/xlink" width="40px" height="40px" viewBox="0 0 40 40" version="1.1">
<g id="surface1">
<path style=" stroke:none;fill-rule:nonzero;fill:rgb(100%,100%,100%);fill-opacity:1;" d="M 19.230469 0 L 20.78125 0 C 25.988281 0.25 31.085938 2.523438 34.625 6.375 C 37.878906 9.851562 39.773438 14.496094 40 19.238281 L 40 20.789062 C 39.734375 26.699219 36.78125 32.445312 32.015625 35.96875 C 28.785156 38.425781 24.804688 39.789062 20.765625 40 L 19.214844 40 C 13.398438 39.738281 7.734375 36.890625 4.203125 32.238281 C 1.621094 28.984375 0.226562 24.894531 0 20.765625 L 0 19.214844 C 0.234375 15.199219 1.539062 11.210938 4.015625 8.011719 C 7.539062 3.214844 13.304688 0.261719 19.230469 0 M 20.308594 15.300781 C 18.855469 16.699219 17.378906 18.101562 16.046875 19.621094 C 16.046875 19.808594 16.050781 20.191406 16.050781 20.386719 C 17.371094 21.898438 18.84375 23.28125 20.285156 24.683594 C 20.941406 25.546875 22.355469 24.546875 21.949219 23.621094 C 20.878906 22.324219 19.59375 21.21875 18.441406 20 C 19.566406 18.789062 20.863281 17.734375 21.878906 16.429688 C 22.453125 15.554688 20.96875 14.378906 20.308594 15.300781 Z M 20.308594 15.300781 "/>
</g>
</svg>
