<svg width="28" height="28" viewBox="0 0 28 28" fill="none" xmlns="http://www.w3.org/2000/svg">
<circle cx="14" cy="14" r="14" fill="#222222"/>
<path fill-rule="evenodd" clip-rule="evenodd" d="M18 8V11.999H20C20.552 11.999 21 12.447 21 12.999V18.999C21 19.551 20.552 19.999 20 19.999H18C18 20.552 17.552 20.999 17 20.999H11C10.448 20.999 10 20.552 10 19.999H8C7.448 19.999 7 19.551 7 18.999V12.999C7 12.447 7.448 11.999 8 11.999H10V8C10 7.448 10.448 7 11 7H17C17.552 7 18 7.448 18 8ZM18 17.999H19V13.999H9V17.999H10V16.999C10 16.447 10.448 15.999 11 15.999H17C17.552 15.999 18 16.447 18 16.999V17.999ZM12 18.999H16V17.999H12V18.999ZM16 11.999H12V9H16V11.999Z" fill="white" fill-opacity="0.5"/>
</svg>
