<?xml version="1.0" encoding="utf-8"?>
<svg width="28px" height="28px" viewBox="0 0 28 28" version="1.1" xmlns:xlink="http://www.w3.org/1999/xlink" xmlns="http://www.w3.org/2000/svg">
  <g id="print">
    <path d="M14 28C21.732 28 28 21.732 28 14C28 6.26801 21.732 0 14 0C6.26801 0 0 6.26801 0 14C0 21.732 6.26801 28 14 28Z" id="like" fill="#FFFFFF" fill-rule="evenodd" stroke="none" />
    <path d="M18 8L18 11.999L20 11.999C20.552 11.999 21 12.447 21 12.999L21 18.999C21 19.551 20.552 19.999 20 19.999L18 19.999C18 20.552 17.552 20.999 17 20.999L11 20.999C10.448 20.999 10 20.552 10 19.999L8 19.999C7.448 19.999 7 19.551 7 18.999L7 12.999C7 12.447 7.448 11.999 8 11.999L10 11.999L10 8C10 7.448 10.448 7 11 7L17 7C17.552 7 18 7.448 18 8ZM16 11.999L12 11.999L12 9L16 9L16 11.999ZM18 17.999L19 17.999L19 13.999L9 13.999L9 17.999L10 17.999L10 16.999C10 16.447 10.448 15.999 11 15.999L17 15.999C17.552 15.999 18 16.447 18 16.999L18 17.999ZM12 18.999L16 18.999L16 17.999L12 17.999L12 18.999Z" id="Combined-Shape" fill="#111111" fill-opacity="0.5019608" fill-rule="evenodd" stroke="none" />
  </g>
</svg>