<svg width="54" height="22" xmlns="http://www.w3.org/2000/svg"><path d="M16.718 18.658A5.002 5.002 0 0 1 7 17a5 5 0 0 1 9.99-.332 11761.814 11761.814 0 0 0 12.612.545c2.65.112 5.127.214 7.425.306.075.735.31 1.423.67 2.029a3916.893 3916.893 0 0 1-11.302-.47c-2.103-.089-5.803-.25-9.677-.42zm31.33 1.277a5 5 0 1 1 .86-1.973c.405.014.796.027 1.173.038.133.004.722-.12 1.156-.294.44-.177.621-.341.621-.339 0-.48.017-.883.072-1.937l.013-.24c.083-1.605.077-2.44-.033-2.767-.186-.554-.675-.866-1.868-1.237a58.511 58.511 0 0 0-.438-.133c-.229-.07-.382-.117-.538-.17-1.492-.5-3.611-1.017-6.745-1.682-.883-.187-3.794-.79-4.145-.864-.64-.134-1.287-.493-2.34-1.213-.278-.19-1.372-.957-1.319-.92a43.878 43.878 0 0 0-1.49-1.003c-1.82-1.162-3.494-1.966-5.28-2.435-5.089-1.337-12.116-.634-13.68 1.335-1.497 1.887-2.115 2.542-2.873 2.948-.437.233-.83.338-1.5.44l-.547.08c-.256.039-1.053.043-2.625.032l-.952-.008a189.13 189.13 0 0 0-1.484-.013C2.93 7.586 2 10.123 2 12.95c0 1.031.134 1.952.36 2.588.081.232.169.405.244.507.357.014 1.238.051 2.468.104a5.033 5.033 0 0 0 .062 2.004c-1.62-.07-2.65-.114-2.702-.114C.792 18.04 0 15.802 0 12.951c0-3.872 1.28-7.357 4.076-7.37.142-.001.492.002 1.513.012l.947.008c1.285.009 2.226.004 2.317-.01l.54-.079c.463-.07.668-.125.857-.226.42-.225.942-.779 2.251-2.429C14.696.093 22.48-.686 28.255.832c2.014.529 3.869 1.418 5.848 2.684.493.315.97.638 1.558 1.047-.044-.03 1.038.728 1.303.91.834.57 1.332.846 1.623.907.347.073 3.26.676 4.15.865 3.205.68 5.378 1.21 6.965 1.742.132.045.27.088.482.152l.452.138c1.758.546 2.716 1.157 3.17 2.51.229.681.235 1.553.134 3.506l-.012.242c-.054 1.015-.07 1.402-.07 1.832 0 1.74-2.337 2.679-3.839 2.632-.619-.019-1.276-.04-1.97-.064zM44 20a3 3 0 1 0 0-6 3 3 0 0 0 0 6zm-32 0a3 3 0 1 0 0-6 3 3 0 0 0 0 6z" fill="#979797" fill-rule="nonzero"/></svg>
