<svg width="53" height="24" xmlns="http://www.w3.org/2000/svg"><path d="M19 19a5 5 0 1 1-.416-2h18.832A4.983 4.983 0 0 0 37 19H19zm30 0a5 5 0 1 1-.416-2h1.488c.296 0 .847-.349.847-.633 0-2.01-.699-5.296-1.314-5.798-.72-.588-2.633-.972-6.527-1.407l-.911-.1c-2.58-.286-3.795-.456-4.902-.733-.64-.161-1.189-.624-1.873-1.427-.234-.274-.476-.58-.806-1.012.037.049-.637-.839-.829-1.086C32.267 2.88 31.236 2 30.359 2h-7.031a3.615 3.615 0 0 0-.197.447c-.189.5-.341 1.049-.657 2.298l-.032.127C21.562 8.355 21.32 9 20 9H2.868c-.405 2.883-.656 5.074-.752 6.564A15.746 15.746 0 0 0 2.075 17h5.341A4.983 4.983 0 0 0 7 19H1.353C.024 19-.056 18.15.12 15.435c.11-1.698.406-4.22.89-7.578A1 1 0 0 1 2 7h17.694c.052-.098.111-.233.174-.4.182-.48.335-1.03.635-2.217l.032-.128C21.443.66 21.691 0 23.038 0h7.32c1.75 0 3.1 1.155 4.98 3.578 2.054 2.65 2.13 2.74 2.413 2.81.985.247 2.154.41 4.636.685l.913.102c4.44.496 6.398.888 7.57 1.845 1.26 1.028 2.05 4.738 2.05 7.347 0 1.63-1.585 2.633-2.848 2.633H49zm-5 3a3 3 0 1 0 0-6 3 3 0 0 0 0 6zm-30 0a3 3 0 1 0 0-6 3 3 0 0 0 0 6z" fill="#979797" fill-rule="nonzero"/></svg>
