<svg width="51" height="24" xmlns="http://www.w3.org/2000/svg"><path d="M15.994 19.254a5 5 0 1 1-.31-2.007c5.715.12 12.45.27 18.497.414a5.005 5.005 0 0 0-.138 1.997c-5.9-.141-12.443-.286-18.05-.404zm29.913.712A5.002 5.002 0 0 1 36 19a5 5 0 0 1 9.893-1.036L47.08 18c.133.004.722-.12 1.156-.294.44-.177.621-.341.621-.339v-4.262c0-.414-.276-.619-1.447-1.02l-.129-.043a16.297 16.297 0 0 1-.589-.21c-2.269-.867-4.203-1.42-8.553-2.503-.558-.139-1.177-.486-2.164-1.149-.196-.131-2.045-1.413-2.652-1.813-1.926-1.269-3.49-2.076-4.958-2.461a7.84 7.84 0 0 0-.549-.124c-5.138-.961-9.482-1.365-16.569-1.365C7.581 2.417 2 7.645 2 9.951c0 1.17.164 3.146.406 4.753.13.868.276 1.589.423 2.08.025.082.05.156.072.22.358.004.866.012 1.504.022A4.984 4.984 0 0 0 4 19.02c-.792-.013-1.332-.02-1.568-.02C.74 19 0 14.077 0 9.95 0 6.51 6.504.418 11.248.418c7.21 0 11.677.415 16.937 1.399.228.043.457.094.689.155 1.724.453 3.459 1.347 5.55 2.726.631.416 2.49 1.704 2.667 1.823.788.53 1.282.806 1.532.868 4.425 1.103 6.418 1.672 8.784 2.576.138.053.271.1.521.185l.13.044c1.935.662 2.8 1.303 2.8 2.912v4.262c0 1.74-2.337 2.679-3.839 2.632l-1.112-.033zM41 22a3 3 0 1 0 0-6 3 3 0 0 0 0 6zm-30 0a3 3 0 1 0 0-6 3 3 0 0 0 0 6z" fill="#979797" fill-rule="nonzero"/></svg>
