<svg width="56" height="27" xmlns="http://www.w3.org/2000/svg"><path d="M19.584 24A5.001 5.001 0 1 1 20 22h20c0 .711.148 1.387.416 2H19.584zm32 0A5.001 5.001 0 1 1 52 22h1.072c.296 0 .847-.349.847-.633 0-.302-.003-.197.041-1.51.03-.868.042-1.468.04-2.081-.008-1.796-.208-3.054-.395-3.207-.853-.697-1.126-.918-1.488-1.206l-.069-.054c-.732-.58-1.251-.975-4.141-3.152-.36-.27-.638-.72-1.215-1.8a90.587 90.587 0 0 1-.323-.612l-.347-.66a67.262 67.262 0 0 0-.752-1.398c-.779-1.4-1.444-2.413-2.046-3.058-.407-.437-.72-.629-.865-.629H3.83c-.105.323-.217.808-.33 1.432-.233 1.283-.46 3.104-.67 5.302-.368 3.886-.656 8.775-.716 11.852C2.101 21.275 4.234 22 5.353 22H8c0 .711.148 1.387.416 2H5.353c-.458 0-1.627-.195-2.534-.503-1.652-.561-2.733-1.485-2.704-2.95.06-3.129.351-8.067.725-12.002C1.45 2.11 1.833 0 3.324 0H42.36c.827 0 1.578.461 2.328 1.265.74.793 1.48 1.917 2.331 3.45.24.43.475.87.774 1.438.084.16.18.34.348.663.133.253.227.433.316.599.375.701.646 1.139.654 1.145 2.908 2.19 3.43 2.586 4.18 3.181l.071.057c.372.295.648.52 1.509 1.222.88.719 1.119 2.217 1.13 4.747.002.644-.011 1.266-.041 2.158-.042 1.261-.04 1.175-.04 1.442 0 1.63-1.585 2.633-2.847 2.633h-1.488zM47 25a3 3 0 1 0 0-6 3 3 0 0 0 0 6zm-32 0a3 3 0 1 0 0-6 3 3 0 0 0 0 6z" fill="#979797" fill-rule="nonzero"/></svg>
