<svg xmlns="http://www.w3.org/2000/svg" viewBox="0 0 24 24"><defs><style>.a{fill:none;stroke:currentColor;stroke-linecap:round;stroke-linejoin:round;stroke-width:1.5px;}</style></defs><title>3d-print-candy</title><line class="a" x1="0.75" y1="2.25" x2="9.75" y2="2.25"/><line class="a" x1="14.25" y1="2.25" x2="23.25" y2="2.25"/><path class="a" d="M9.75,3a2.25,2.25,0,0,0,4.5,0V.75H9.75Z"/><line class="a" x1="12" y1="5.25" x2="12" y2="8.25"/><path class="a" d="M19.5,15.75A7.5,7.5,0,1,1,12,8.25"/><path class="a" d="M16.482,9.736a7.54,7.54,0,0,1,2.268,2.74"/><path class="a" d="M7.626,16.626c1.5-1.5,4.125,2.625,6,.75s-1.875-4.875,0-6.75"/><path class="a" d="M16.792,14.5c-1.5,1.5-4.125-2.625-6-.75s1.875,4.875,0,6.75"/></svg>