<svg xmlns="http://www.w3.org/2000/svg" viewBox="0 0 24 24"><defs><style>.a{fill:none;stroke:currentColor;stroke-linecap:round;stroke-linejoin:round;stroke-width:1.5px;}</style></defs><title>3d-print-triangle-1</title><path class="a" d="M9.75,20.25h-6a3,3,0,0,1-3-3V3.75a3,3,0,0,1,3-3h13.5a3,3,0,0,1,3,3v9"/><line class="a" x1="0.75" y1="17.25" x2="9.75" y2="17.25"/><path class="a" d="M14.25.75v3a1.5,1.5,0,0,1-1.5,1.5H8.25"/><polygon class="a" points="8.25 5.25 8.25 8.25 6.75 9.75 5.25 8.25 5.25 5.25 8.25 5.25"/><line class="a" x1="17.25" y1="5.25" x2="20.25" y2="5.25"/><polyline class="a" points="5.25 17.25 10.5 9.75 12.598 12.747"/><line class="a" x1="0.75" y1="5.25" x2="2.25" y2="5.25"/><path class="a" d="M20.25,23.25a3,3,0,0,0,3-3v-1.5a3,3,0,0,0-3-3Z"/><path class="a" d="M12.75,17.25a1.5,1.5,0,0,1,1.5-1.5l1.135.005a1.873,1.873,0,0,1-.008,3.745,1.873,1.873,0,0,1,.008,3.746l-1.135,0a1.5,1.5,0,0,1-1.5-1.5"/></svg>