<svg xmlns="http://www.w3.org/2000/svg" viewBox="0 0 24 24"><defs><style>.a{fill:none;stroke:currentColor;stroke-linecap:round;stroke-linejoin:round;stroke-width:1.5px;}</style></defs><title>3d-print-monitor-1</title><polygon class="a" points="15.75 23.25 8.25 23.25 9 18.75 15 18.75 15.75 23.25"/><line class="a" x1="6" y1="23.25" x2="18" y2="23.25"/><line class="a" x1="0.75" y1="15.75" x2="23.25" y2="15.75"/><path class="a" d="M20.25,3.75a3,3,0,0,1,3,3v9a3,3,0,0,1-3,3H3.75a3,3,0,0,1-3-3v-9a3,3,0,0,1,3-3"/><polygon class="a" points="12 6.75 6.75 3.75 6.75 9.75 12 12.75 12 6.75"/><polygon class="a" points="12 6.75 17.25 3.75 17.25 9.75 12 12.75 12 6.75"/><polyline class="a" points="17.25 3.75 12 0.75 6.75 3.75"/></svg>