<svg xmlns="http://www.w3.org/2000/svg" viewBox="0 0 24 24"><defs><style>.a{fill:none;stroke:currentColor;stroke-linecap:round;stroke-linejoin:round;stroke-width:1.5px;}</style></defs><title>3d-print-settings</title><circle class="a" cx="17.25" cy="16.5" r="1.5"/><path class="a" d="M18.524,10.7l.442,1.452a.993.993,0,0,0,1.174.681l1.472-.341a1.339,1.339,0,0,1,1.275,2.218l-1.031,1.111a1,1,0,0,0,0,1.362l1.031,1.111a1.339,1.339,0,0,1-1.275,2.219l-1.472-.342a1,1,0,0,0-1.174.681L18.524,22.3a1.33,1.33,0,0,1-2.548,0l-.442-1.453a1,1,0,0,0-1.174-.681l-1.472.342a1.339,1.339,0,0,1-1.275-2.219l1.031-1.111a1,1,0,0,0,0-1.362l-1.031-1.111a1.339,1.339,0,0,1,1.275-2.218l1.472.341a.993.993,0,0,0,1.174-.681l.442-1.452A1.33,1.33,0,0,1,18.524,10.7Z"/><path class="a" d="M8.25,20.25H3.75a3,3,0,0,1-3-3V3.75a3,3,0,0,1,3-3h13.5a3,3,0,0,1,3,3v4.5"/><line class="a" x1="0.75" y1="17.25" x2="8.25" y2="17.25"/><path class="a" d="M14.25.75v3a1.5,1.5,0,0,1-1.5,1.5H8.25"/><polygon class="a" points="8.25 5.25 8.25 8.25 6.75 9.75 5.25 8.25 5.25 5.25 8.25 5.25"/><line class="a" x1="17.25" y1="5.25" x2="20.25" y2="5.25"/><line class="a" x1="0.75" y1="5.25" x2="2.25" y2="5.25"/></svg>