<svg xmlns="http://www.w3.org/2000/svg" viewBox="0 0 24 24"><defs><style>.a{fill:none;stroke:currentColor;stroke-linecap:round;stroke-linejoin:round;stroke-width:1.5px;}</style></defs><title>3d-print-fail</title><circle class="a" cx="17.25" cy="17.248" r="6"/><line class="a" x1="19.5" y1="14.997" x2="15" y2="19.497"/><line class="a" x1="15" y1="14.997" x2="19.5" y2="19.497"/><path class="a" d="M9,20.25H3.75a3,3,0,0,1-3-3V3.75a3,3,0,0,1,3-3h13.5a3,3,0,0,1,3,3v4.5"/><line class="a" x1="0.75" y1="17.25" x2="8.25" y2="17.25"/><path class="a" d="M14.25.75v3a1.5,1.5,0,0,1-1.5,1.5H8.25"/><polygon class="a" points="8.25 5.25 8.25 8.25 6.75 9.75 5.25 8.25 5.25 5.25 8.25 5.25"/><line class="a" x1="17.25" y1="5.25" x2="20.25" y2="5.25"/><line class="a" x1="0.75" y1="5.25" x2="2.25" y2="5.25"/></svg>