<svg xmlns="http://www.w3.org/2000/svg" viewBox="0 0 24 24"><defs><style>.a{fill:none;stroke:currentColor;stroke-linecap:round;stroke-linejoin:round;stroke-width:1.5px;}</style></defs><title>3d-print-monitor</title><polygon class="a" points="6.75 23.25 0.75 21 0.75 13.5 6.75 15.75 6.75 23.25"/><polyline class="a" points="8.999 14.907 6.75 15.75 6.75 23.25 12.75 21 12.75 15.751"/><path class="a" d="M9.75,2.25a1.5,1.5,0,0,1,1.5-1.5h10.5a1.5,1.5,0,0,1,1.5,1.5v6a1.5,1.5,0,0,1-1.5,1.5H11.25a1.5,1.5,0,0,1-1.5-1.5"/><polygon class="a" points="18.75 12.75 14.25 12.75 15 9.75 18 9.75 18.75 12.75"/><line class="a" x1="12.75" y1="12.75" x2="20.25" y2="12.75"/><polyline class="a" points="0.75 8.25 3.75 11.25 6.75 8.25"/><path class="a" d="M3.75,11.25V7.5A2.25,2.25,0,0,1,6,5.25h6.75"/></svg>