<svg xmlns="http://www.w3.org/2000/svg" viewBox="0 0 24 24"><defs><style>.a{fill:none;stroke:currentColor;stroke-linecap:round;stroke-linejoin:round;stroke-width:1.5px;}</style></defs><title>ac-cool</title><rect class="a" x="0.75" y="0.75" width="22.5" height="10.5" rx="3" ry="3"/><line class="a" x1="5.25" y1="3.75" x2="18.75" y2="3.75"/><path class="a" d="M18.75,8.25H5.25a1.5,1.5,0,0,0-1.5,1.5v1.5h16.5V9.75A1.5,1.5,0,0,0,18.75,8.25Z"/><path class="a" d="M5.25,14.25s-1.5,0-1.5,2.25,1.5,2.25,1.5,4.5-1.5,2.25-1.5,2.25"/><path class="a" d="M20.25,14.25s-1.5,0-1.5,2.25,1.5,2.25,1.5,4.5-1.5,2.25-1.5,2.25"/><line class="a" x1="12" y1="15.75" x2="12" y2="21.75"/><line class="a" x1="9.402" y1="17.25" x2="14.598" y2="20.25"/><line class="a" x1="9.402" y1="20.25" x2="14.598" y2="17.25"/></svg>