<svg xmlns="http://www.w3.org/2000/svg" viewBox="0 0 24 24"><defs><style>.a{fill:none;stroke:currentColor;stroke-linecap:round;stroke-linejoin:round;stroke-width:1.5px;}</style></defs><title>ac-heat</title><path class="a" d="M2.25,12.75a1.5,1.5,0,0,1-1.5-1.5V3.75a3,3,0,0,1,3-3h16.5a3,3,0,0,1,3,3v7.5a1.5,1.5,0,0,1-1.5,1.5"/><line class="a" x1="0.75" y1="9.75" x2="23.25" y2="9.75"/><path class="a" d="M19.5,4.125a.375.375,0,1,1-.375.375.375.375,0,0,1,.375-.375"/><path class="a" d="M5.25,14.25v3a3,3,0,0,1-3,3"/><path class="a" d="M9.75,14.25v7.5a1.5,1.5,0,0,1-1.5,1.5"/><path class="a" d="M18.75,14.25v3a3,3,0,0,0,3,3"/><path class="a" d="M14.25,14.25v7.5a1.5,1.5,0,0,0,1.5,1.5"/></svg>