<svg id="Regular" xmlns="http://www.w3.org/2000/svg" viewBox="0 0 24 24"><defs><style>.cls-1{fill:none;stroke:currentColor;stroke-linecap:round;stroke-linejoin:round;stroke-width:1.5px;}</style></defs><title>accessories-necklace-pendant</title><path class="cls-1" d="M21.588,17.181a1.506,1.506,0,0,0-1.542,1.543l.022,1.344-1.344-.022a1.506,1.506,0,0,0-1.543,1.542,1.633,1.633,0,0,0,1.595,1.595l4,.067a.46.46,0,0,0,.47-.47l-.067-4A1.633,1.633,0,0,0,21.588,17.181Z"/><circle class="cls-1" cx="10.5" cy="3" r="2.25"/><circle class="cls-1" cx="5.197" cy="5.197" r="2.25"/><circle class="cls-1" cx="3" cy="10.5" r="2.25"/><circle class="cls-1" cx="5.197" cy="15.803" r="2.25"/><circle class="cls-1" cx="10.5" cy="18" r="2.25"/><circle class="cls-1" cx="15.803" cy="15.803" r="2.25"/><circle class="cls-1" cx="18" cy="10.5" r="2.25"/><circle class="cls-1" cx="15.803" cy="5.197" r="2.25"/><line class="cls-1" x1="17.394" y1="17.394" x2="20.068" y2="20.068"/></svg>