<svg id="Regular" xmlns="http://www.w3.org/2000/svg" viewBox="0 0 24 24"><defs><style>.cls-1{fill:none;stroke:currentColor;stroke-linecap:round;stroke-linejoin:round;stroke-width:1.5px;}</style></defs><title>accessories-ribbon-tie</title><path class="cls-1" d="M22.022,6.884a1.5,1.5,0,0,0-2.042-.64L13.752,9.566a3,3,0,0,1,0,4.869l6.228,3.321a1.5,1.5,0,0,0,2.042-.64,11.271,11.271,0,0,0,0-10.232Z"/><path class="cls-1" d="M1.978,6.884a1.5,1.5,0,0,1,2.042-.64l6.228,3.322a3,3,0,0,0,0,4.869L4.02,17.756a1.5,1.5,0,0,1-2.042-.64,11.271,11.271,0,0,1,0-10.232Z"/><circle class="cls-1" cx="12" cy="12" r="3"/><line class="cls-1" x1="15" y1="12" x2="17.25" y2="12"/><line class="cls-1" x1="6.75" y1="12" x2="9" y2="12"/></svg>