<svg id="Regular" xmlns="http://www.w3.org/2000/svg" viewBox="0 0 24 24"><defs><style>.cls-1{fill:none;stroke:currentColor;stroke-linecap:round;stroke-linejoin:round;stroke-width:1.5px;}</style></defs><title>accessories-umbrella</title><path class="cls-1" d="M16.64,6.711l4.04-4.039A1.5,1.5,0,0,1,22.8,4.793l-.53.53"/><path class="cls-1" d="M2.259,21.092C-.366,18.467,11.337,1.408,11.337,1.408a7.29,7.29,0,0,0,5.3,5.3,7.289,7.289,0,0,0,5.3,5.3S4.884,23.717,2.259,21.092Z"/><line class="cls-1" x1="2.259" y1="21.092" x2="0.759" y2="22.592"/><path class="cls-1" d="M2.259,21.092A156.049,156.049,0,0,1,14.122,5.533"/><path class="cls-1" d="M2.259,21.092A155.942,155.942,0,0,0,17.819,9.229"/></svg>