<svg id="Regular" xmlns="http://www.w3.org/2000/svg" viewBox="0 0 24 24"><defs><style>.cls-1{fill:none;stroke:currentColor;stroke-linecap:round;stroke-linejoin:round;stroke-width:1.5px;}</style></defs><title>accessories-watch</title><circle class="cls-1" cx="10.5" cy="12" r="6.75"/><path class="cls-1" d="M15.75,2.25A13.7,13.7,0,0,1,20.25,12a13.7,13.7,0,0,1-4.5,9.75H5.25A13.7,13.7,0,0,1,.75,12a13.7,13.7,0,0,1,4.5-9.75Z"/><line class="cls-1" x1="20.25" y1="12" x2="23.25" y2="12"/><line class="cls-1" x1="23.25" y1="10.5" x2="23.25" y2="13.5"/><line class="cls-1" x1="5.25" y1="2.25" x2="5.25" y2="0.75"/><line class="cls-1" x1="15.75" y1="2.25" x2="15.75" y2="0.75"/><line class="cls-1" x1="5.25" y1="23.25" x2="5.25" y2="21.75"/><line class="cls-1" x1="15.75" y1="23.25" x2="15.75" y2="21.75"/><polyline class="cls-1" points="8.25 9.75 10.5 12 12.75 10.5"/></svg>