<svg id="Regular" xmlns="http://www.w3.org/2000/svg" viewBox="0 0 24 24"><defs><style>.cls-1{fill:none;stroke:currentColor;stroke-linecap:round;stroke-linejoin:round;stroke-width:1.5px;}</style></defs><title>accessories-earrings-oriental</title><path class="cls-1" d="M9.75,18.75a4.5,4.5,0,0,1-9,0c0-2.485,4.5-10.5,4.5-10.5S9.75,16.265,9.75,18.75Z"/><circle class="cls-1" cx="5.25" cy="3" r="2.25"/><line class="cls-1" x1="5.25" y1="5.25" x2="5.25" y2="8.25"/><path class="cls-1" d="M5.25,19.125a.375.375,0,1,1-.375.375.375.375,0,0,1,.375-.375"/><path class="cls-1" d="M23.25,18.75a4.5,4.5,0,0,1-9,0c0-2.485,4.5-10.5,4.5-10.5S23.25,16.265,23.25,18.75Z"/><circle class="cls-1" cx="18.75" cy="3" r="2.25"/><line class="cls-1" x1="18.75" y1="5.25" x2="18.75" y2="8.25"/><path class="cls-1" d="M18.75,19.125a.375.375,0,1,1-.375.375.375.375,0,0,1,.375-.375"/></svg>