<svg xmlns="http://www.w3.org/2000/svg" viewBox="0 0 24 24"><defs><style>.a{fill:none;stroke:currentColor;stroke-linecap:round;stroke-linejoin:round;stroke-width:1.5px;}</style></defs><title>accounting-coins-bill</title><ellipse class="a" cx="6.75" cy="14.25" rx="6" ry="3"/><path class="a" d="M.75,14.25v6c0,1.657,2.686,3,6,3s6-1.343,6-3v-6"/><path class="a" d="M12.75,17.25c0,1.657-2.686,3-6,3s-6-1.343-6-3"/><path class="a" d="M15.75,15.75h6a1.5,1.5,0,0,0,1.5-1.5v-12a1.5,1.5,0,0,0-1.5-1.5H2.25a1.5,1.5,0,0,0-1.5,1.5V9.757"/><path class="a" d="M9,8.25a3,3,0,1,1,4.979,2.255"/><path class="a" d="M4.5,4.125a.375.375,0,1,1-.375.375A.375.375,0,0,1,4.5,4.125"/><path class="a" d="M19.5,11.625a.375.375,0,1,1-.375.375.375.375,0,0,1,.375-.375"/></svg>