<svg xmlns="http://www.w3.org/2000/svg" viewBox="0 0 24 24"><defs><style>.a{fill:none;stroke:currentColor;stroke-linecap:round;stroke-linejoin:round;stroke-width:1.5px;}</style></defs><title>accounting-invoice-mail</title><path class="a" d="M19.5,12.88V2.25A1.5,1.5,0,0,0,18,.75H6a1.5,1.5,0,0,0-1.5,1.5V12.88"/><path class="a" d="M21.284,11.465a.75.75,0,0,1,1.216.587v9.7a1.5,1.5,0,0,1-1.5,1.5H3a1.5,1.5,0,0,1-1.5-1.5v-9.7a.75.75,0,0,1,1.216-.587l7.431,5.894a3,3,0,0,0,3.706,0Z"/><line class="a" x1="15.808" y1="15.808" x2="18.75" y2="18.75"/><line class="a" x1="8.192" y1="15.808" x2="5.25" y2="18.75"/><path class="a" d="M12.2,10.094a2.224,2.224,0,0,0,1.858.875c1.139,0,2.063-.693,2.063-1.547S15.2,7.876,14.062,7.876,12,7.183,12,6.328s.924-1.547,2.062-1.547a2.221,2.221,0,0,1,1.858.875"/><line class="a" x1="14.062" y1="10.969" x2="14.062" y2="12"/><line class="a" x1="14.062" y1="3.75" x2="14.062" y2="4.781"/><line class="a" x1="7.5" y1="4.5" x2="9" y2="4.5"/><line class="a" x1="7.5" y1="7.5" x2="9" y2="7.5"/><line class="a" x1="7.5" y1="10.5" x2="9" y2="10.5"/></svg>