<svg xmlns="http://www.w3.org/2000/svg" viewBox="0 0 24 24"><defs><style>.a{fill:none;stroke:currentColor;stroke-linecap:round;stroke-linejoin:round;stroke-width:1.5px;}</style></defs><title>accounting-calculator</title><rect class="a" x="3.75" y="0.75" width="16.5" height="22.5" rx="1.5" ry="1.5"/><rect class="a" x="6.75" y="3.75" width="10.5" height="4.5" rx="0.75" ry="0.75"/><path class="a" d="M7.875,12a.375.375,0,1,1-.375.375A.375.375,0,0,1,7.875,12"/><path class="a" d="M12.156,12a.375.375,0,1,1-.375.375A.375.375,0,0,1,12.156,12"/><path class="a" d="M16.125,12a.375.375,0,1,1-.375.375A.375.375,0,0,1,16.125,12"/><path class="a" d="M7.875,15.75a.375.375,0,1,1-.375.375.375.375,0,0,1,.375-.375"/><path class="a" d="M12.156,15.75a.375.375,0,1,1-.375.375.375.375,0,0,1,.375-.375"/><path class="a" d="M16.125,15.75a.375.375,0,1,1-.375.375.375.375,0,0,1,.375-.375"/><path class="a" d="M7.875,19.5a.375.375,0,1,1-.375.375.375.375,0,0,1,.375-.375"/><path class="a" d="M12.156,19.5a.375.375,0,1,1-.375.375.375.375,0,0,1,.375-.375"/><path class="a" d="M16.125,19.5a.375.375,0,1,1-.375.375.375.375,0,0,1,.375-.375"/></svg>