<svg xmlns="http://www.w3.org/2000/svg" viewBox="0 0 24 24"><defs><style>.a{fill:none;stroke:currentColor;stroke-linecap:round;stroke-linejoin:round;stroke-width:1.5px;}</style></defs><title>accounting-abacus</title><rect class="a" x="1.5" y="0.75" width="21" height="22.5" rx="1.5" ry="1.5"/><line class="a" x1="7.5" y1="0.75" x2="7.5" y2="3.75"/><line class="a" x1="7.5" y1="6.75" x2="7.5" y2="12.75"/><line class="a" x1="7.5" y1="20.25" x2="7.5" y2="23.25"/><rect class="a" x="5.25" y="3.75" width="4.5" height="3" rx="1.5" ry="1.5"/><rect class="a" x="5.25" y="12.75" width="4.5" height="3" rx="1.5" ry="1.5"/><rect class="a" x="5.25" y="17.25" width="4.5" height="3" rx="1.5" ry="1.5"/><line class="a" x1="16.5" y1="23.25" x2="16.5" y2="20.25"/><line class="a" x1="16.5" y1="17.25" x2="16.5" y2="11.25"/><line class="a" x1="16.5" y1="3.75" x2="16.5" y2="0.75"/><rect class="a" x="14.25" y="17.25" width="4.5" height="3" rx="1.5" ry="1.5"/><rect class="a" x="14.25" y="8.25" width="4.5" height="3" rx="1.5" ry="1.5"/><rect class="a" x="14.25" y="3.75" width="4.5" height="3" rx="1.5" ry="1.5"/><line class="a" x1="16.5" y1="6.75" x2="16.5" y2="8.25"/><line class="a" x1="7.5" y1="15.75" x2="7.5" y2="17.25"/></svg>