<svg xmlns="http://www.w3.org/2000/svg" viewBox="0 0 24 24"><defs><style>.a{fill:none;stroke:currentColor;stroke-linecap:round;stroke-linejoin:round;stroke-width:1.5px;}</style></defs><title>accounting-calculator-2</title><path class="a" d="M15.375,17.25a.375.375,0,1,1-.375.375.375.375,0,0,1,.375-.375"/><path class="a" d="M19.125,17.25a.375.375,0,1,1-.375.375.375.375,0,0,1,.375-.375"/><path class="a" d="M15.375,20.25a.375.375,0,1,1-.375.375.375.375,0,0,1,.375-.375"/><path class="a" d="M19.125,20.25a.375.375,0,1,1-.375.375.375.375,0,0,1,.375-.375"/><path class="a" d="M20.25,13.75c0,.353-.214.5-.429.5H14.679c-.215,0-.428-.164-.428-.518V11.75c0-.354.214-.5.429-.5h5.142c.215,0,.429.146.429.5Z"/><rect class="a" x="11.25" y="8.25" width="12" height="15" rx="1.16" ry="1.16"/><path class="a" d="M4.125,3.75a.375.375,0,1,1-.375.375.375.375,0,0,1,.375-.375"/><path class="a" d="M8.25,12.75h-6a1.5,1.5,0,0,1-1.5-1.5v-9A1.5,1.5,0,0,1,2.25.75h16.5a1.5,1.5,0,0,1,1.5,1.5v3"/><path class="a" d="M7.905,8.256a3,3,0,1,1,5.267-2.87"/></svg>