<svg xmlns="http://www.w3.org/2000/svg" viewBox="0 0 24 24"><defs><style>.a{fill:none;stroke:currentColor;stroke-linecap:round;stroke-linejoin:round;stroke-width:1.5px;}</style></defs><title>accounting-invoice-hand</title><path class="a" d="M6.214,9.344a2.221,2.221,0,0,0,1.858.875c1.139,0,2.063-.693,2.063-1.547S9.211,7.126,8.072,7.126,6.01,6.433,6.01,5.578s.924-1.547,2.062-1.547a2.221,2.221,0,0,1,1.858.875"/><line class="a" x1="8.072" y1="10.219" x2="8.072" y2="11.25"/><line class="a" x1="8.072" y1="3" x2="8.072" y2="4.031"/><path class="a" d="M23.25,20.986,21.76,18.75V13.5c0-2-3.8-4.139-5.25-5.25"/><path class="a" d="M18.44,14.794,14.792,11.87a1.3,1.3,0,0,0-1.843,1.843L16.482,17.7v2.5c0,1.181,1.688,3.045,1.688,3.045"/><path class="a" d="M13.51,23.25H2.134A1.375,1.375,0,0,1,.76,21.875V2.125A1.375,1.375,0,0,1,2.134.75h13A1.376,1.376,0,0,1,16.51,2.125V13.247"/><path class="a" d="M10.51,14.25h-6a.75.75,0,0,0-.75.75v4.5a.75.75,0,0,0,.75.75h9"/><line class="a" x1="3.76" y1="17.25" x2="12.01" y2="17.25"/><line class="a" x1="8.26" y1="14.25" x2="8.26" y2="20.25"/></svg>