<svg xmlns="http://www.w3.org/2000/svg" viewBox="0 0 24 24"><defs><style>.a{fill:none;stroke:currentColor;stroke-linecap:round;stroke-linejoin:round;stroke-width:1.5px;}</style></defs><title>accounting-calculator-1</title><path class="a" d="M19.652,23.25H4.348A1.347,1.347,0,0,1,3,21.9V5.25H21V21.9A1.347,1.347,0,0,1,19.652,23.25Z"/><line class="a" x1="12" y1="5.25" x2="12" y2="23.25"/><line class="a" x1="3" y1="14.25" x2="21" y2="14.25"/><line class="a" x1="7.5" y1="8.25" x2="7.5" y2="11.25"/><line class="a" x1="6" y1="9.75" x2="9" y2="9.75"/><line class="a" x1="9" y1="17.25" x2="6" y2="20.25"/><line class="a" x1="6" y1="17.25" x2="9" y2="20.25"/><line class="a" x1="15" y1="9.75" x2="18" y2="9.75"/><line class="a" x1="15" y1="17.25" x2="18" y2="17.25"/><line class="a" x1="15" y1="20.25" x2="18" y2="20.25"/><path class="a" d="M21,5.25H3v-3A1.5,1.5,0,0,1,4.5.75h15A1.5,1.5,0,0,1,21,2.25Z"/></svg>