<svg xmlns="http://www.w3.org/2000/svg" viewBox="0 0 24 24"><defs><style>.a{fill:none;stroke:currentColor;stroke-linecap:round;stroke-linejoin:round;stroke-width:1.5px;}</style></defs><title>accounting-bill-stack-1</title><path class="a" d="M13.5,11.25H11.467a1.342,1.342,0,0,0-.5,2.587l2.064.826a1.342,1.342,0,0,1-.5,2.587H10.5"/><line class="a" x1="12" y1="11.25" x2="12" y2="9.75"/><line class="a" x1="12" y1="18.75" x2="12" y2="17.25"/><polygon class="a" points="6.75 21.75 6.75 6.75 9 2.25 15 2.25 17.25 6.75 17.25 21.75 6.75 21.75"/><polyline class="a" points="15 2.25 20.25 2.25 23.25 6.75 17.25 6.75"/><polyline class="a" points="6.75 6.75 0.75 6.75 3.75 2.25 9 2.25"/><line class="a" x1="0.75" y1="10.5" x2="6.75" y2="10.5"/><line class="a" x1="17.25" y1="10.5" x2="23.25" y2="10.5"/><line class="a" x1="0.75" y1="14.25" x2="6.75" y2="14.25"/><line class="a" x1="17.25" y1="14.25" x2="23.25" y2="14.25"/><line class="a" x1="0.75" y1="18" x2="6.75" y2="18"/><line class="a" x1="17.25" y1="18" x2="23.25" y2="18"/><polyline class="a" points="6.75 21.75 0.75 21.75 0.75 6.75"/><polyline class="a" points="17.25 21.75 23.25 21.75 23.25 6.75"/><line class="a" x1="17.25" y1="6.75" x2="6.75" y2="6.75"/></svg>