<svg xmlns="http://www.w3.org/2000/svg" viewBox="0 0 24 24"><defs><style>.a{fill:none;stroke:currentColor;stroke-linecap:round;stroke-linejoin:round;stroke-width:1.5px;}</style></defs><title>accounting-invoice</title><path class="a" d="M21.75,21.75a1.5,1.5,0,0,1-1.5,1.5H3.75a1.5,1.5,0,0,1-1.5-1.5V2.25A1.5,1.5,0,0,1,3.75.75H14.379a1.5,1.5,0,0,1,1.06.439l5.872,5.872a1.5,1.5,0,0,1,.439,1.06Z"/><path class="a" d="M21.75,8.25h-6a1.5,1.5,0,0,1-1.5-1.5v-6"/><path class="a" d="M5.642,9.344a2.221,2.221,0,0,0,1.858.875c1.139,0,2.063-.693,2.063-1.547S8.639,7.126,7.5,7.126,5.438,6.433,5.438,5.578,6.361,4.031,7.5,4.031a2.221,2.221,0,0,1,1.858.875"/><line class="a" x1="7.5" y1="10.219" x2="7.5" y2="11.25"/><line class="a" x1="7.5" y1="3" x2="7.5" y2="4.031"/><rect class="a" x="5.25" y="14.25" width="13.5" height="6" rx="0.5" ry="0.5"/><line class="a" x1="5.25" y1="17.25" x2="18.75" y2="17.25"/><line class="a" x1="9.75" y1="14.25" x2="9.75" y2="20.25"/><line class="a" x1="14.25" y1="14.25" x2="14.25" y2="20.25"/></svg>