<svg xmlns="http://www.w3.org/2000/svg" viewBox="0 0 24 24"><defs><style>.a{fill:none;stroke:currentColor;stroke-linecap:round;stroke-linejoin:round;stroke-width:1.5px;}</style></defs><title>accounting-bill-stack</title><line class="a" x1="0.75" y1="17.5" x2="7.5" y2="17.5"/><line class="a" x1="7.5" y1="6.25" x2="0.75" y2="6.25"/><line class="a" x1="23.25" y1="6.25" x2="16.5" y2="6.25"/><line class="a" x1="16.5" y1="17.5" x2="23.25" y2="17.5"/><line class="a" x1="0.75" y1="13.75" x2="7.5" y2="13.75"/><line class="a" x1="0.75" y1="10" x2="7.5" y2="10"/><line class="a" x1="16.5" y1="13.75" x2="23.25" y2="13.75"/><line class="a" x1="16.5" y1="10" x2="23.25" y2="10"/><rect class="a" x="7.5" y="4.75" width="9" height="14.25" rx="1" ry="1"/><path class="a" d="M10.142,14.094A2.221,2.221,0,0,0,12,14.969c1.139,0,2.063-.693,2.063-1.547S13.139,11.876,12,11.876s-2.062-.693-2.062-1.548S10.861,8.781,12,8.781a2.221,2.221,0,0,1,1.858.875"/><line class="a" x1="12" y1="14.969" x2="12" y2="16"/><line class="a" x1="12" y1="7.75" x2="12" y2="8.781"/></svg>