<svg xmlns="http://www.w3.org/2000/svg" viewBox="0 0 24 24"><defs><style>.a{fill:none;stroke:currentColor;stroke-linecap:round;stroke-linejoin:round;stroke-width:1.5px;}</style></defs><title>ads-window</title><rect class="a" x="0.75" y="0.75" width="22.5" height="22.5" rx="1" ry="1"/><line class="a" x1="20.25" y1="6.75" x2="17.25" y2="3.75"/><line class="a" x1="20.25" y1="3.75" x2="17.25" y2="6.75"/><path class="a" d="M20.25,10.5h-1.5a1.5,1.5,0,0,0-1.5,1.5c0,2.25,3,2.25,3,4.5a1.5,1.5,0,0,1-1.5,1.5h-1.5"/><path class="a" d="M5.25,18V12a1.5,1.5,0,0,1,3,0v6"/><line class="a" x1="5.25" y1="15" x2="8.25" y2="15"/><path class="a" d="M11.25,18a3,3,0,0,0,3-3V13.5a3,3,0,0,0-3-3Z"/></svg>