<svg xmlns="http://www.w3.org/2000/svg" viewBox="0 0 24 24"><defs><style>.a{fill:none;stroke:currentColor;stroke-linecap:round;stroke-linejoin:round;stroke-width:1.5px;}</style></defs><title>adventure-car-1</title><circle class="a" cx="18" cy="16.75" r="2.25"/><circle class="a" cx="3" cy="16.75" r="2.25"/><path class="a" d="M20.25,16.75h1.5a1.5,1.5,0,0,0,1.5-1.5v-1.8a1.493,1.493,0,0,0-.259-.841c-1.167-1.721-5.972-8.1-16.475-8.579A1.5,1.5,0,0,0,4.983,5.2L3.75,10.75"/><path class="a" d="M2.079,14.7.828,12.729A1.5,1.5,0,0,1,2.25,10.75h1.5l3,2.25H15l4.874-3.878"/><line class="a" x1="5.25" y1="16.75" x2="15.75" y2="16.75"/><line class="a" x1="9" y1="13" x2="7.5" y2="8.5"/><line class="a" x1="15" y1="9.25" x2="12.75" y2="10.75"/><line class="a" x1="15.642" y1="12.489" x2="13.875" y2="10"/></svg>