<svg xmlns="http://www.w3.org/2000/svg" viewBox="0 0 24 24"><defs><style>.a{fill:none;stroke:currentColor;stroke-linecap:round;stroke-linejoin:round;stroke-width:1.5px;}</style></defs><title>adventure-car-truck-1</title><path class="a" d="M3,19.5V21a2.25,2.25,0,0,0,4.5,0V19.5"/><path class="a" d="M16.5,19.5V21A2.25,2.25,0,0,0,21,21V19.5"/><path class="a" d="M4.5,13.875a.375.375,0,0,1,.375.375"/><path class="a" d="M4.125,14.25a.375.375,0,0,1,.375-.375"/><path class="a" d="M4.5,14.625a.375.375,0,0,1-.375-.375"/><path class="a" d="M4.875,14.25a.375.375,0,0,1-.375.375"/><path class="a" d="M19.5,13.875a.375.375,0,0,1,.375.375"/><path class="a" d="M19.125,14.25a.375.375,0,0,1,.375-.375"/><path class="a" d="M19.5,14.625a.375.375,0,0,1-.375-.375"/><path class="a" d="M19.875,14.25a.375.375,0,0,1-.375.375"/><line class="a" x1="9" y1="14.25" x2="15" y2="14.25"/><path class="a" d="M19.5,8.25H4.5L2.379,10.371A3,3,0,0,0,1.5,12.493V15.75A1.5,1.5,0,0,0,3,17.25H21a1.5,1.5,0,0,0,1.5-1.5V12.493a3,3,0,0,0-.879-2.122Z"/><path class="a" d="M19.5,2.25A1.5,1.5,0,0,0,18,.75H6a1.5,1.5,0,0,0-1.5,1.5v6h15Z"/><line class="a" x1="12" y1="0.75" x2="12" y2="8.25"/><path class="a" d="M1.5,6.75A1.5,1.5,0,0,0,3,8.25H4.5V3.75H3a1.5,1.5,0,0,0-1.5,1.5Z"/><path class="a" d="M22.5,6.75A1.5,1.5,0,0,1,21,8.25H19.5V3.75H21a1.5,1.5,0,0,1,1.5,1.5Z"/><line class="a" x1="1.77" y1="11.25" x2="22.23" y2="11.25"/></svg>