<svg xmlns="http://www.w3.org/2000/svg" viewBox="0 0 24 24"><defs><style>.a{fill:none;stroke:currentColor;stroke-linecap:round;stroke-linejoin:round;stroke-width:1.5px;}</style></defs><title>adventure-car-atv-1</title><circle class="a" cx="18.941" cy="18.25" r="2.25"/><circle class="a" cx="5.059" cy="18.25" r="2.25"/><path class="a" d="M23.25,15.25a5.251,5.251,0,0,0-8.618,0H9.368a5.251,5.251,0,0,0-8.618,0"/><path class="a" d="M2.059,13.941V9.25a1.5,1.5,0,0,1,1.5-1.5h1.5L7.309,10h7.882V6.25H18.32a1.5,1.5,0,0,1,1.06.439L21.5,8.811a1.5,1.5,0,0,1,.439,1.06v4.071"/><polyline class="a" points="13.691 2.5 15.941 2.5 17.441 6.25"/><line class="a" x1="7.309" y1="4.75" x2="7.309" y2="10"/></svg>