<svg xmlns="http://www.w3.org/2000/svg" viewBox="0 0 24 24"><defs><style>.a{fill:none;stroke:currentColor;stroke-linecap:round;stroke-linejoin:round;stroke-width:1.5px;}</style></defs><title>adventure-car-convertible</title><circle class="a" cx="18" cy="16.5" r="2.25"/><circle class="a" cx="6" cy="16.5" r="2.25"/><line class="a" x1="15.75" y1="16.5" x2="8.25" y2="16.5"/><path class="a" d="M20.25,16.5h1.5a1.5,1.5,0,0,0,1.5-1.5V11.73a1.5,1.5,0,0,0-1.206-1.471L15.75,9v1.5a1.5,1.5,0,0,1-1.5,1.5H9.8a1.5,1.5,0,0,1-1.248-.668L7.5,9H3.75a1.5,1.5,0,0,0-1.5,1.5v6"/><line class="a" x1="0.75" y1="16.5" x2="3.75" y2="16.5"/><line class="a" x1="7.5" y1="9" x2="7.5" y2="6"/><polyline class="a" points="15.75 9 14.25 4.5 12.75 4.5"/></svg>