<svg xmlns="http://www.w3.org/2000/svg" viewBox="0 0 24 24"><defs><style>.a{fill:none;stroke:currentColor;stroke-linecap:round;stroke-linejoin:round;stroke-width:1.5px;}</style></defs><title>adventure-car-atv</title><circle class="a" cx="16.5" cy="16.25" r="1.5"/><circle class="a" cx="7.5" cy="16.25" r="1.5"/><line class="a" x1="15" y1="16.25" x2="9" y2="16.25"/><line class="a" x1="0.75" y1="16.25" x2="6" y2="16.25"/><line class="a" x1="18" y1="16.25" x2="23.25" y2="16.25"/><line class="a" x1="15.75" y1="11" x2="13.5" y2="6.5"/><line class="a" x1="7.661" y1="11" x2="6.75" y2="8.75"/><path class="a" d="M1.5,16.25V12.5A1.5,1.5,0,0,1,3,11H7.661a2.621,2.621,0,0,0,2.464,1.5,2.811,2.811,0,0,0,1.9-.711A3,3,0,0,1,14.057,11H20.25a1.5,1.5,0,0,1,1.5,1.5v3.75"/></svg>