<svg xmlns="http://www.w3.org/2000/svg" viewBox="0 0 24 24"><defs><style>.a{fill:none;stroke:currentColor;stroke-linecap:round;stroke-linejoin:round;stroke-width:1.5px;}</style></defs><title>adventure-car-truck</title><circle class="a" cx="6.75" cy="18" r="2.25"/><circle class="a" cx="18.75" cy="18" r="2.25"/><path class="a" d="M2.441,15a5.251,5.251,0,0,1,8.618,0h3.382a5.251,5.251,0,0,1,8.618,0"/><path class="a" d="M21.75,13.691V11.25a1.5,1.5,0,0,0-1.5-1.5H3.75v3.942"/><path class="a" d="M17.25,9.75,16.061,5.588A1.5,1.5,0,0,0,14.619,4.5h-7a1.5,1.5,0,0,0-1.3.756L3.75,9.75"/><line class="a" x1="0.75" y1="7.5" x2="0.75" y2="12.75"/><line class="a" x1="9.75" y1="4.5" x2="9.75" y2="9.75"/></svg>