<svg xmlns="http://www.w3.org/2000/svg" viewBox="0 0 24 24"><defs><style>.a{fill:none;stroke:currentColor;stroke-linecap:round;stroke-linejoin:round;stroke-width:1.5px;}</style></defs><title>adventure-car-4</title><rect class="a" x="0.75" y="14.25" width="6" height="9" rx="1" ry="1"/><path class="a" d="M21.392,11.25a.751.751,0,0,0,.7-1.029l-.9-2.25a.751.751,0,0,0-.7-.471H3.508a.751.751,0,0,0-.7.471l-.9,2.25a.751.751,0,0,0,.7,1.029H7.234a1.5,1.5,0,0,1,1.393.943l.746,2.614a1.5,1.5,0,0,0,1.393.943h2.468a1.5,1.5,0,0,0,1.393-.943l.746-2.614a1.5,1.5,0,0,1,1.393-.943Z"/><path class="a" d="M5.25,7.5,6.439,4.088A1.5,1.5,0,0,1,7.881,3h8.238a1.5,1.5,0,0,1,1.442,1.088L18.75,7.5"/><line class="a" x1="15" y1="3" x2="15" y2="0.75"/><line class="a" x1="6.75" y1="19.5" x2="10.5" y2="15.75"/><line class="a" x1="17.25" y1="19.5" x2="13.5" y2="15.75"/><line class="a" x1="0.75" y1="17.25" x2="6.75" y2="17.25"/><line class="a" x1="0.75" y1="20.25" x2="6.75" y2="20.25"/><rect class="a" x="17.25" y="14.25" width="6" height="9" rx="1" ry="1" transform="translate(40.5 37.5) rotate(180)"/><line class="a" x1="23.25" y1="17.25" x2="17.25" y2="17.25"/><line class="a" x1="23.25" y1="20.25" x2="17.25" y2="20.25"/></svg>