<svg id="Regular" xmlns="http://www.w3.org/2000/svg" viewBox="0 0 24 24"><defs><style>.cls-1{fill:none;stroke:#000;stroke-linecap:round;stroke-linejoin:round;stroke-width:1.5px;}</style></defs><title>advertising-technorati</title><path class="cls-1" d="M9.08,19.51a14.43,14.43,0,0,0,2.92.3,13.26,13.26,0,0,0,7.26-2.05,8.32,8.32,0,0,0,4-6.91,8.32,8.32,0,0,0-4-6.91A13.27,13.27,0,0,0,12,1.87,13.27,13.27,0,0,0,4.75,3.93a8.32,8.32,0,0,0-4,6.91,8.32,8.32,0,0,0,4,6.89L3,22.13ZM12,6.38c3.73,0,6.75,2,6.75,4.46s-3,4.46-6.75,4.46-6.75-2-6.75-4.46S8.27,6.38,12,6.38Z"/></svg>