<svg id="Regular" xmlns="http://www.w3.org/2000/svg" viewBox="0 0 24 24"><defs><style>.cls-1{fill:none;stroke:currentColor;stroke-linecap:round;stroke-linejoin:round;stroke-width:1.5px;}</style></defs><title>agriculture-machine-seeder</title><path class="cls-1" d="M23.25,17H.75V15.9a1.5,1.5,0,0,1,1.1-1.446C5.234,13.517,8.617,12.5,12,12.5s6.766,1.017,10.15,1.95a1.5,1.5,0,0,1,1.1,1.446Z"/><line class="cls-1" x1="12" y1="10.25" x2="12" y2="17"/><line class="cls-1" x1="6.931" y1="13.124" x2="7.5" y2="5"/><line class="cls-1" x1="17.069" y1="13.124" x2="16.5" y2="5"/><path class="cls-1" d="M8.5,2h7a1,1,0,0,1,1,1V5a0,0,0,0,1,0,0h-9a0,0,0,0,1,0,0V3A1,1,0,0,1,8.5,2Z"/><line class="cls-1" x1="2.25" y1="20" x2="1.5" y2="22.25"/><line class="cls-1" x1="5.25" y1="20" x2="6" y2="22.25"/><line class="cls-1" x1="21.75" y1="20" x2="22.5" y2="22.25"/><line class="cls-1" x1="18.75" y1="20" x2="18" y2="22.25"/></svg>