<svg id="Regular" xmlns="http://www.w3.org/2000/svg" viewBox="0 0 24 24"><defs><style>.cls-1{fill:none;stroke:currentColor;stroke-linecap:round;stroke-linejoin:round;stroke-width:1.5px;}</style></defs><title>agriculture-machine-rottary-tiller</title><path class="cls-1" d="M3.75,19.75a1.5,1.5,0,0,1-3,0v-3a1.5,1.5,0,0,1,3,0Z"/><path class="cls-1" d="M23.25,19.75a1.5,1.5,0,0,1-3,0v-3a1.5,1.5,0,0,1,3,0Z"/><path class="cls-1" d="M6.75,14.5V11.8a3,3,0,0,1,1.4-2.54C9.3,8.535,11.555,7.282,12,5.5"/><path class="cls-1" d="M17.25,14.5V11.8a3,3,0,0,0-1.4-2.54C14.7,8.535,12.446,7.282,12,5.5"/><line class="cls-1" x1="12" y1="5.5" x2="12" y2="14.5"/><path class="cls-1" d="M4.5,9.25,1.478,7.437A1.5,1.5,0,0,1,.75,6.151V4a1.5,1.5,0,0,1,1.5-1.5h19.5A1.5,1.5,0,0,1,23.25,4V6.151a1.5,1.5,0,0,1-.728,1.286L19.5,9.25"/><line class="cls-1" x1="3.75" y1="18.25" x2="20.25" y2="18.25"/><line class="cls-1" x1="7.5" y1="16.75" x2="7.5" y2="19.75"/><line class="cls-1" x1="10.5" y1="16.75" x2="10.5" y2="19.75"/><line class="cls-1" x1="13.5" y1="16.75" x2="13.5" y2="19.75"/><line class="cls-1" x1="16.5" y1="16.75" x2="16.5" y2="19.75"/><line class="cls-1" x1="2.25" y1="15.25" x2="2.25" y2="11.5"/><line class="cls-1" x1="21.75" y1="15.25" x2="21.75" y2="11.5"/></svg>