<svg id="Regular" xmlns="http://www.w3.org/2000/svg" viewBox="0 0 24 24"><defs><style>.cls-1{fill:none;stroke:currentColor;stroke-linecap:round;stroke-linejoin:round;stroke-width:1.5px;}</style></defs><title>agriculture-machine-plow-2</title><line class="cls-1" x1="0.75" y1="15.75" x2="23.25" y2="15.75"/><polyline class="cls-1" points="6.75 15.75 12 11.25 17.25 15.75"/><polyline class="cls-1" points="3.75 15.75 3.75 21 5.25 23.25"/><polyline class="cls-1" points="9 15.75 9 21 10.5 23.25"/><polyline class="cls-1" points="14.25 15.75 14.25 21 15.75 23.25"/><polyline class="cls-1" points="19.5 15.75 19.5 21 21 23.25"/><line class="cls-1" x1="12" y1="11.25" x2="12" y2="7.5"/><path class="cls-1" d="M22.165,10.421a1.5,1.5,0,0,1-1.342.829H3.177a1.5,1.5,0,0,1-1.342-.829L.908,8.567A1.5,1.5,0,0,1,.75,7.9V6a1.5,1.5,0,0,1,1.5-1.5h19.5A1.5,1.5,0,0,1,23.25,6V7.9a1.5,1.5,0,0,1-.158.671Z"/><path class="cls-1" d="M8.25,4.5a3.75,3.75,0,0,1,7.5,0"/><line class="cls-1" x1="5.25" y1="8.25" x2="0.795" y2="8.25"/><line class="cls-1" x1="23.208" y1="8.25" x2="18.75" y2="8.25"/></svg>