<svg id="Regular" xmlns="http://www.w3.org/2000/svg" viewBox="0 0 24 24"><defs><style>.cls-1{fill:none;stroke:currentColor;stroke-linecap:round;stroke-linejoin:round;stroke-width:1.5px;}</style></defs><title>agriculture-machine-plow-4</title><line class="cls-1" x1="6.931" y1="16.5" x2="7.5" y2="10.5"/><line class="cls-1" x1="17.069" y1="16.5" x2="16.5" y2="10.5"/><path class="cls-1" d="M8.5,7.5h7a1,1,0,0,1,1,1v2a0,0,0,0,1,0,0h-9a0,0,0,0,1,0,0v-2A1,1,0,0,1,8.5,7.5Z"/><polyline class="cls-1" points="0.75 23.25 0.75 21 6.75 21 6.75 23.25"/><path class="cls-1" d="M3,21l1.158-3.474A1.5,1.5,0,0,1,5.581,16.5H18.419a1.5,1.5,0,0,1,1.423,1.026L21,21"/><line class="cls-1" x1="3.75" y1="23.25" x2="3.75" y2="21"/><polyline class="cls-1" points="9 23.25 9 21 15 21 15 23.25"/><line class="cls-1" x1="12" y1="21" x2="12" y2="23.25"/><polyline class="cls-1" points="17.25 23.25 17.25 21 23.25 21 23.25 23.25"/><line class="cls-1" x1="20.25" y1="21" x2="20.25" y2="23.25"/><path class="cls-1" d="M12.75,7.5A3.75,3.75,0,0,0,9,3.75H5.25v-3H9A6.75,6.75,0,0,1,15.75,7.5v.032"/></svg>