<svg id="Regular" xmlns="http://www.w3.org/2000/svg" viewBox="0 0 24 24"><defs><style>.cls-1{fill:none;stroke:currentColor;stroke-linecap:round;stroke-linejoin:round;stroke-width:1.5px;}</style></defs><title>agriculture-machine-harraw</title><line class="cls-1" x1="0.75" y1="8.25" x2="23.25" y2="8.25"/><line class="cls-1" x1="19.5" y1="2.25" x2="4.5" y2="8.25"/><path class="cls-1" d="M22.5,8.25h-3v-6a1.5,1.5,0,0,1,3,0Z"/><line class="cls-1" x1="23.25" y1="11.25" x2="0.75" y2="11.25"/><path class="cls-1" d="M3,11.25v5.377a7.589,7.589,0,0,0,3.75,6.54s-4.5.75-6-2.25"/><path class="cls-1" d="M11.25,11.25v5.377A7.589,7.589,0,0,0,15,23.167s-4.5.75-6-2.25"/><path class="cls-1" d="M19.5,11.25v5.377a7.589,7.589,0,0,0,3.75,6.54s-4.5.75-6-2.25"/></svg>