<svg id="Regular" xmlns="http://www.w3.org/2000/svg" viewBox="0 0 24 24"><defs><style>.cls-1{fill:none;stroke:currentColor;stroke-linecap:round;stroke-linejoin:round;stroke-width:1.5px;}</style></defs><title>agriculture-machine-seeder-2</title><path class="cls-1" d="M3,22.421H2.25a1.5,1.5,0,0,1-1.5-1.5v-4.5a1.5,1.5,0,0,1,1.5-1.5H3"/><path class="cls-1" d="M4.3,21.672a1.5,1.5,0,0,1-1.3.749"/><path class="cls-1" d="M21,22.421h.75a1.5,1.5,0,0,0,1.5-1.5v-4.5a1.5,1.5,0,0,0-1.5-1.5H21"/><path class="cls-1" d="M19.7,21.672a1.5,1.5,0,0,0,1.3.749"/><polygon class="cls-1" points="20.25 18.671 3.75 18.671 6 12.671 18 12.671 20.25 18.671"/><path class="cls-1" d="M2.25,14.921V5.17L.908,3.671A1.5,1.5,0,0,1,2.25,1.5h19.5a1.5,1.5,0,0,1,1.342,2.171L21.75,5.17v9.751"/><line class="cls-1" x1="8.25" y1="12.671" x2="8.25" y2="6.671"/><line class="cls-1" x1="8.25" y1="20.921" x2="8.25" y2="18.671"/><line class="cls-1" x1="12" y1="12.671" x2="12" y2="6.671"/><line class="cls-1" x1="12" y1="20.921" x2="12" y2="18.671"/><line class="cls-1" x1="15.75" y1="12.671" x2="15.75" y2="6.671"/><line class="cls-1" x1="15.75" y1="20.921" x2="15.75" y2="18.671"/><path class="cls-1" d="M5.25,10.421V8.171a1.5,1.5,0,0,1,1.5-1.5h10.5a1.5,1.5,0,0,1,1.5,1.5v2.25"/></svg>