<svg id="Regular" xmlns="http://www.w3.org/2000/svg" viewBox="0 0 24 24"><defs><style>.cls-1{fill:none;stroke:currentColor;stroke-linecap:round;stroke-linejoin:round;stroke-width:1.5px;}</style></defs><title>agriculture-machine-seeder-3</title><line class="cls-1" x1="7.681" y1="9" x2="8.25" y2="4.5"/><line class="cls-1" x1="16.319" y1="9" x2="15.75" y2="4.5"/><path class="cls-1" d="M9.25,1.5h5.5a1,1,0,0,1,1,1v2a0,0,0,0,1,0,0H8.25a0,0,0,0,1,0,0v-2A1,1,0,0,1,9.25,1.5Z"/><path class="cls-1" d="M2.25,12l.566,3.962A1.5,1.5,0,0,0,4.3,17.25h.4a1.5,1.5,0,0,0,1.485-1.288L6.75,12Z"/><line class="cls-1" x1="2.25" y1="20.25" x2="21.75" y2="20.25"/><line class="cls-1" x1="4.5" y1="17.25" x2="4.5" y2="22.5"/><path class="cls-1" d="M9.75,12l.566,3.962A1.5,1.5,0,0,0,11.8,17.25h.4a1.5,1.5,0,0,0,1.485-1.288L14.25,12Z"/><line class="cls-1" x1="12" y1="17.25" x2="12" y2="22.5"/><path class="cls-1" d="M17.25,12l.566,3.962A1.5,1.5,0,0,0,19.3,17.25h.4a1.5,1.5,0,0,0,1.485-1.288L21.75,12Z"/><line class="cls-1" x1="19.5" y1="17.25" x2="19.5" y2="22.5"/></svg>