<svg id="Regular" xmlns="http://www.w3.org/2000/svg" viewBox="0 0 24 24"><defs><style>.cls-1{fill:none;stroke:currentColor;stroke-linecap:round;stroke-linejoin:round;stroke-width:1.5px;}</style></defs><title>agriculture-machine-disk-plow</title><line class="cls-1" x1="0.75" y1="8.25" x2="23.25" y2="8.25"/><line class="cls-1" x1="10.5" y1="2.25" x2="2.25" y2="8.25"/><line class="cls-1" x1="13.5" y1="2.25" x2="21.75" y2="8.25"/><line class="cls-1" x1="12.75" y1="11.25" x2="9.233" y2="16.976"/><path class="cls-1" d="M13.5,22.938a3.75,3.75,0,1,1,0-6.874"/><line class="cls-1" x1="5.25" y1="11.25" x2="1.733" y2="16.976"/><path class="cls-1" d="M6,22.938a3.75,3.75,0,1,1,0-6.875"/><line class="cls-1" x1="20.25" y1="11.25" x2="16.733" y2="16.976"/><circle class="cls-1" cx="19.5" cy="19.5" r="3.75"/><path class="cls-1" d="M13.5,8.25h-3v-6a1.5,1.5,0,0,1,3,0Z"/><line class="cls-1" x1="23.25" y1="11.25" x2="0.75" y2="11.25"/></svg>