<svg id="Regular" xmlns="http://www.w3.org/2000/svg" viewBox="0 0 24 24"><defs><style>.cls-1{fill:none;stroke:currentColor;stroke-linecap:round;stroke-linejoin:round;stroke-width:1.5px;}</style></defs><title>agriculture-machine-plow-3</title><path class="cls-1" d="M3.747,22.874h-3v-9.75a1.5,1.5,0,0,1,3,0Z"/><path class="cls-1" d="M23.247,22.874h-3v-9.75a1.5,1.5,0,0,1,3,0Z"/><line class="cls-1" x1="6.928" y1="10.124" x2="7.497" y2="4.124"/><line class="cls-1" x1="17.067" y1="10.124" x2="16.497" y2="4.124"/><path class="cls-1" d="M8.5,1.124h7a1,1,0,0,1,1,1v2a0,0,0,0,1,0,0h-9a0,0,0,0,1,0,0v-2A1,1,0,0,1,8.5,1.124Z"/><line class="cls-1" x1="3.747" y1="13.124" x2="20.247" y2="13.124"/><line class="cls-1" x1="3.747" y1="20.624" x2="20.247" y2="20.624"/><line class="cls-1" x1="7.497" y1="13.124" x2="7.497" y2="15.374"/><line class="cls-1" x1="11.997" y1="13.124" x2="11.997" y2="15.374"/><line class="cls-1" x1="16.497" y1="13.124" x2="16.497" y2="15.374"/><line class="cls-1" x1="7.497" y1="20.624" x2="7.497" y2="22.874"/><line class="cls-1" x1="11.997" y1="20.624" x2="11.997" y2="22.874"/><line class="cls-1" x1="16.497" y1="20.624" x2="16.497" y2="22.874"/><line class="cls-1" x1="3.747" y1="17.624" x2="20.247" y2="17.624"/></svg>