<svg id="Regular" xmlns="http://www.w3.org/2000/svg" viewBox="0 0 24 24"><defs><style>.cls-1{fill:none;stroke:currentColor;stroke-linecap:round;stroke-linejoin:round;stroke-width:1.5px;}</style></defs><title>agriculture-machine-seeder-1</title><line class="cls-1" x1="7.668" y1="12.5" x2="8.25" y2="6.5"/><line class="cls-1" x1="16.332" y1="12.5" x2="15.75" y2="6.5"/><path class="cls-1" d="M9.25,3.5h5.5a1,1,0,0,1,1,1v2a0,0,0,0,1,0,0H8.25a0,0,0,0,1,0,0v-2A1,1,0,0,1,9.25,3.5Z"/><rect class="cls-1" x="6.75" y="12.5" width="3" height="7.5" rx="0.5" ry="0.5"/><line class="cls-1" x1="6.75" y1="16.25" x2="9.75" y2="16.25"/><rect class="cls-1" x="14.25" y="12.5" width="3" height="7.5" rx="0.5" ry="0.5"/><line class="cls-1" x1="14.25" y1="16.25" x2="17.25" y2="16.25"/><line class="cls-1" x1="9.75" y1="14.75" x2="14.25" y2="14.75"/><line class="cls-1" x1="6.75" y1="13.25" x2="0.75" y2="13.25"/><line class="cls-1" x1="23.25" y1="13.25" x2="17.25" y2="13.25"/><path class="cls-1" d="M2.625,16.25A.375.375,0,0,1,3,16.625"/><path class="cls-1" d="M2.25,16.625a.375.375,0,0,1,.375-.375"/><path class="cls-1" d="M2.625,17a.375.375,0,0,1-.375-.375"/><path class="cls-1" d="M3,16.625A.375.375,0,0,1,2.625,17"/><path class="cls-1" d="M2.625,19.25A.375.375,0,0,1,3,19.625"/><path class="cls-1" d="M2.25,19.625a.375.375,0,0,1,.375-.375"/><path class="cls-1" d="M2.625,20a.375.375,0,0,1-.375-.375"/><path class="cls-1" d="M3,19.625A.375.375,0,0,1,2.625,20"/><path class="cls-1" d="M21.375,16.25a.375.375,0,0,1,.375.375"/><path class="cls-1" d="M21,16.625a.375.375,0,0,1,.375-.375"/><path class="cls-1" d="M21.375,17A.375.375,0,0,1,21,16.625"/><path class="cls-1" d="M21.75,16.625a.375.375,0,0,1-.375.375"/><path class="cls-1" d="M21.375,19.25a.375.375,0,0,1,.375.375"/><path class="cls-1" d="M21,19.625a.375.375,0,0,1,.375-.375"/><path class="cls-1" d="M21.375,20A.375.375,0,0,1,21,19.625"/><path class="cls-1" d="M21.75,19.625a.375.375,0,0,1-.375.375"/></svg>