<svg id="Regular" xmlns="http://www.w3.org/2000/svg" viewBox="0 0 24 24"><defs><style>.cls-1{fill:none;stroke:currentColor;stroke-linecap:round;stroke-linejoin:round;stroke-width:1.5px;}</style></defs><title>agriculture-machine</title><path class="cls-1" d="M17.653,18.75h-3.4V12a1.5,1.5,0,0,1,1.5-1.5h3a1.5,1.5,0,0,1,1.5,1.5v5.25"/><polyline class="cls-1" points="14.25 15 4.5 15 0.75 18.75 14.25 18.75"/><path class="cls-1" d="M15.75,10.5V7.1a14.21,14.21,0,0,0-1.035-5.323.75.75,0,0,1,.7-1.031H19.09a.751.751,0,0,1,.7,1.031A14.21,14.21,0,0,0,18.75,7.1v3.4"/><line class="cls-1" x1="4.5" y1="18.75" x2="4.5" y2="23.25"/><circle class="cls-1" cx="20.25" cy="20.25" r="3"/></svg>