<svg id="Regular" xmlns="http://www.w3.org/2000/svg" viewBox="0 0 24 24"><defs><style>.cls-1{fill:none;stroke:currentColor;stroke-linecap:round;stroke-linejoin:round;stroke-width:1.5px;}</style></defs><title>agriculture-machine-tractor-2</title><circle class="cls-1" cx="15.375" cy="19.125" r="3.375"/><path class="cls-1" d="M15.375,19.5a.375.375,0,0,0,.375-.375"/><path class="cls-1" d="M15,19.125a.375.375,0,0,0,.375.375"/><path class="cls-1" d="M15.375,18.75a.375.375,0,0,0-.375.375"/><path class="cls-1" d="M15.75,19.125a.375.375,0,0,0-.375-.375"/><circle class="cls-1" cx="4.125" cy="19.125" r="3.375"/><path class="cls-1" d="M4.125,19.5a.375.375,0,0,0,.375-.375"/><path class="cls-1" d="M3.75,19.125a.375.375,0,0,0,.375.375"/><path class="cls-1" d="M4.125,18.75a.375.375,0,0,0-.375.375"/><path class="cls-1" d="M4.5,19.125a.375.375,0,0,0-.375-.375"/><line class="cls-1" x1="12.021" y1="19.5" x2="7.479" y2="19.5"/><path class="cls-1" d="M18.729,19.5H21.75a1.5,1.5,0,0,0,1.5-1.5V12a1.5,1.5,0,0,0-1.5-1.5H16.5a1.5,1.5,0,0,0-1.2.6l-1.8,2.4v2.25"/><polyline class="cls-1" points="2.25 12.75 2.25 4.5 10.5 4.5 8.25 12.75"/><polyline class="cls-1" points="0.75 12.75 8.25 12.75 9.75 15.75 13.5 15.75"/><path class="cls-1" d="M1.75,1.5h8.5a1,1,0,0,1,1,1v2a0,0,0,0,1,0,0H.75a0,0,0,0,1,0,0v-2A1,1,0,0,1,1.75,1.5Z"/></svg>