<svg id="Regular" xmlns="http://www.w3.org/2000/svg" viewBox="0 0 24 24"><defs><style>.cls-1,.cls-2{fill:none;stroke:currentColor;stroke-linecap:round;stroke-linejoin:round;stroke-width:1.5px;}.cls-2{fill-rule:evenodd;}</style></defs><title>agriculture-machine-tractor</title><path class="cls-1" d="M9.5.757H18a1,1,0,0,1,1,1v2a0,0,0,0,1,0,0H8.5a0,0,0,0,1,0,0v-2a1,1,0,0,1,1-1Z"/><circle class="cls-1" cx="17.499" cy="18.007" r="5.25"/><circle class="cls-1" cx="17.499" cy="18.007" r="2.25"/><circle class="cls-1" cx="4.125" cy="19.882" r="3.375"/><path class="cls-1" d="M4.125,20.257a.375.375,0,0,1-.375-.375"/><path class="cls-1" d="M4.5,19.882a.375.375,0,0,1-.375.375"/><path class="cls-1" d="M4.125,19.507a.375.375,0,0,1,.375.375"/><path class="cls-1" d="M3.75,19.882a.375.375,0,0,1,.375-.375"/><line class="cls-1" x1="7.479" y1="20.257" x2="12.754" y2="20.257"/><path class="cls-2" d="M2.25,17.077V12.39a1.5,1.5,0,0,1,1.09-1.443l3.683-1.19L7,14.257h3l.5-.755a8.407,8.407,0,0,1,12.747-1.47"/><line class="cls-1" x1="7.023" y1="9.757" x2="9.249" y2="3.757"/><line class="cls-1" x1="20.743" y1="10.408" x2="18.249" y2="3.757"/></svg>