<svg id="Regular" xmlns="http://www.w3.org/2000/svg" viewBox="0 0 24 24"><defs><style>.cls-1{fill:none;stroke:currentColor;stroke-linecap:round;stroke-linejoin:round;stroke-width:1.5px;}</style></defs><title>agriculture-machine-plow-1</title><line class="cls-1" x1="5.25" y1="11.25" x2="3.391" y2="16.319"/><line class="cls-1" x1="0.75" y1="8.25" x2="23.25" y2="8.25"/><line class="cls-1" x1="10.5" y1="2.25" x2="2.25" y2="8.25"/><line class="cls-1" x1="13.5" y1="2.25" x2="21.75" y2="8.25"/><path class="cls-1" d="M13.5,8.25h-3v-6a1.5,1.5,0,0,1,3,0Z"/><line class="cls-1" x1="23.25" y1="11.25" x2="0.75" y2="11.25"/><path class="cls-1" d="M8.25,23.25H4.5V21L.75,18.75C1.464,17,3.868,15.824,6,15.585"/><line class="cls-1" x1="11.25" y1="11.25" x2="9.391" y2="16.319"/><line class="cls-1" x1="17.25" y1="11.25" x2="15.391" y2="16.319"/><path class="cls-1" d="M14.25,23.25H10.5V21L6.75,18.75C7.464,17,9.868,15.824,12,15.585"/><path class="cls-1" d="M16.5,21l-3.75-2.25c.992-2.439,5.25-3.75,7.5-3-.583,3.3.625,6.2,3,7.5H16.5Z"/></svg>