<svg xmlns="http://www.w3.org/2000/svg" viewBox="0 0 24 24"><defs><style>.a{fill:none;stroke:currentColor;stroke-linecap:round;stroke-linejoin:round;stroke-width:1.5px;}</style></defs><title>aircraft-military-plane-2</title><path class="a" d="M9.531,18c-1.463.143-3.4.693-4.169,2.238a1.089,1.089,0,0,0,.026,1.011.952.952,0,0,0,.825.5h3.6"/><path class="a" d="M14.469,18c1.463.143,3.4.693,4.169,2.238a1.089,1.089,0,0,1-.026,1.011.952.952,0,0,1-.825.5h-3.6"/><path class="a" d="M9.125,8.25H3a1.5,1.5,0,0,0-1.5,1.5v1.759a1.5,1.5,0,0,0,1.219,1.473L9.375,14.25"/><path class="a" d="M14.875,8.25H21a1.5,1.5,0,0,1,1.5,1.5v1.759a1.5,1.5,0,0,1-1.219,1.473L14.625,14.25"/><line class="a" x1="12" y1="5.25" x2="12" y2="0.75"/><line class="a" x1="7.5" y1="2.25" x2="16.5" y2="2.25"/><path class="a" d="M14.344,21a2.346,2.346,0,0,1-4.688,0L9.125,8.247a2.877,2.877,0,1,1,5.75,0Z"/><line class="a" x1="12" y1="8.25" x2="12" y2="9.75"/></svg>