<svg xmlns="http://www.w3.org/2000/svg" viewBox="0 0 24 24"><defs><style>.a{fill:none;stroke:currentColor;stroke-linecap:round;stroke-linejoin:round;stroke-width:1.5px;}</style></defs><title>aircraft-plane-water</title><path class="a" d="M.75,21.75a5.511,5.511,0,0,0,4.5-1.5,4.547,4.547,0,0,0,6.75,0,4.547,4.547,0,0,0,6.75,0,5.511,5.511,0,0,0,4.5,1.5"/><path class="a" d="M23.122,19.356A1.5,1.5,0,0,0,21.75,17.25H2.25A1.5,1.5,0,0,0,.878,19.356"/><line class="a" x1="18" y1="17.25" x2="16.5" y2="14.25"/><line class="a" x1="6" y1="17.25" x2="7.5" y2="14.25"/><path class="a" d="M7.5,8.25H5.625L4.954,6.908A3,3,0,0,0,2.271,5.25H1.5A.75.75,0,0,0,.808,6.288L3.356,12.4A3,3,0,0,0,6.125,14.25H16.5c2.25,0,5.25-3,5.25-6h-6a1.5,1.5,0,0,1-1.5-1.5v-3C10.5,3.75,7.5,8.25,7.5,8.25Z"/><line class="a" x1="21.75" y1="8.25" x2="23.25" y2="8.25"/><line class="a" x1="23.25" y1="5.25" x2="23.25" y2="2.25"/><line class="a" x1="23.25" y1="14.25" x2="23.25" y2="11.25"/><path class="a" d="M18.75,8.25a4.5,4.5,0,0,0-4.5-4.5"/><line class="a" x1="8.25" y1="11.25" x2="15.75" y2="11.25"/></svg>