<svg xmlns="http://www.w3.org/2000/svg" viewBox="0 0 24 24"><defs><style>.a{fill:none;stroke:currentColor;stroke-linecap:round;stroke-linejoin:round;stroke-width:1.5px;}</style></defs><title>aircraft-propeller</title><path class="a" d="M15.75,23.25a2.25,2.25,0,1,1,1.614-3.817A3,3,0,1,1,20.25,23.25Z"/><path class="a" d="M11.9,9.75H17.25v-6h-12l-1.8-2.4a1.5,1.5,0,0,0-2.7.9V6A3.75,3.75,0,0,0,4.5,9.75H6"/><line class="a" x1="23.25" y1="6.75" x2="21" y2="6.75"/><path class="a" d="M17.25,9.75a4,4,0,0,0,3.75-3,4,4,0,0,0-3.75-3"/><line class="a" x1="23.25" y1="3.75" x2="23.25" y2="0.75"/><line class="a" x1="23.25" y1="12.75" x2="23.25" y2="9.75"/><path class="a" d="M6,9.75l-.671,2.665A.75.75,0,0,0,6,13.5c4.558,0,5.882-3.269,6.75-6"/><path class="a" d="M9.75,3.75a3,3,0,0,1,6,0Z"/></svg>