<svg xmlns="http://www.w3.org/2000/svg" viewBox="0 0 24 24"><defs><style>.a{fill:none;stroke:currentColor;stroke-linecap:round;stroke-linejoin:round;stroke-width:1.5px;}</style></defs><title>aircraft-chopper-2</title><path class="a" d="M5.316,7.5H14.7a8.567,8.567,0,0,1,8.286,6.381,7.32,7.32,0,0,1,.266,1.869A2.2,2.2,0,0,1,21,18H12.75a2.127,2.127,0,0,1-2-1.412l-1.22-3.416a2.252,2.252,0,0,0-1.634-1.44l-4.383-.969A2.249,2.249,0,0,1,1.887,9.356L.848,6.586A1.544,1.544,0,0,1,3.529,5.118Z"/><line class="a" x1="14.25" y1="7.5" x2="14.25" y2="1.5"/><line class="a" x1="23.25" y1="3" x2="5.25" y2="3"/><path class="a" d="M15.75,10.5V7.564A8.569,8.569,0,0,1,22.873,13.5H18.75A3,3,0,0,1,15.75,10.5Z"/><path class="a" d="M23.25,21a1.5,1.5,0,0,1-1.5,1.5H11.25A1.5,1.5,0,0,1,9.75,21"/><line class="a" x1="21" y1="22.5" x2="18.75" y2="18"/><line class="a" x1="12" y1="22.5" x2="14.25" y2="18"/></svg>