<svg xmlns="http://www.w3.org/2000/svg" viewBox="0 0 24 24"><defs><style>.a{fill:none;stroke:currentColor;stroke-linecap:round;stroke-linejoin:round;stroke-width:1.5px;}</style></defs><title>aircraft-chopper</title><path class="a" d="M17.25,12.942V10.5a5.25,5.25,0,0,0-10.5,0v2.442"/><line class="a" x1="12" y1="5.25" x2="12" y2="0.75"/><line class="a" x1="0.75" y1="2.25" x2="23.25" y2="2.25"/><path class="a" d="M17.2,19.325a4.5,4.5,0,0,1,2.3,3.925"/><line class="a" x1="17.25" y1="23.25" x2="21" y2="23.25"/><path class="a" d="M6.8,19.325A4.5,4.5,0,0,0,4.5,23.25"/><line class="a" x1="6.75" y1="23.25" x2="3" y2="23.25"/><line class="a" x1="12" y1="12.75" x2="12" y2="5.25"/><path class="a" d="M19.5,16.125A3.375,3.375,0,0,1,16.125,19.5H7.875a3.375,3.375,0,0,1,0-6.75h8.25A3.375,3.375,0,0,1,19.5,16.125Z"/><path class="a" d="M15.375,15.75a.375.375,0,0,1,.375.375"/><path class="a" d="M15,16.125a.375.375,0,0,1,.375-.375"/><path class="a" d="M15.375,16.5A.375.375,0,0,1,15,16.125"/><path class="a" d="M15.75,16.125a.375.375,0,0,1-.375.375"/><path class="a" d="M8.625,15.75a.375.375,0,0,0-.375.375"/><path class="a" d="M9,16.125a.375.375,0,0,0-.375-.375"/><path class="a" d="M8.625,16.5A.375.375,0,0,0,9,16.125"/><path class="a" d="M8.25,16.125a.375.375,0,0,0,.375.375"/></svg>