<svg xmlns="http://www.w3.org/2000/svg" viewBox="0 0 24 24"><defs><style>.a{fill:none;stroke:currentColor;stroke-linecap:round;stroke-linejoin:round;stroke-width:1.5px;}</style></defs><title>aircraft-chopper-1</title><polyline class="a" points="22.928 21.75 21.428 23.25 7.928 23.25"/><path class="a" d="M4.513,7.421a1.5,1.5,0,0,0,1.342.829h8.823c2.25,0,8.25,1.5,8.25,6.75a5.249,5.249,0,0,1-5.25,5.25h-2.25c-4.247,0-5.863-3.381-6.446-5.357A3,3,0,0,0,7.157,12.93l-3.2-1.2A3,3,0,0,1,2.2,9.973L1.165,7.217A1.456,1.456,0,0,1,3.83,6.055Z"/><line class="a" x1="13.928" y1="8.25" x2="13.928" y2="0.75"/><line class="a" x1="22.928" y1="2.25" x2="4.928" y2="2.25"/><path class="a" d="M22.885,14.25H18.428a3,3,0,0,1-3-3V8.294"/><line class="a" x1="18.415" y1="20.199" x2="19.178" y2="23.25"/><line class="a" x1="11.927" y1="19.253" x2="10.928" y2="23.25"/><line class="a" x1="12.428" y1="11.25" x2="10.928" y2="11.25"/></svg>