<svg xmlns="http://www.w3.org/2000/svg" viewBox="0 0 24 24"><defs><style>.a{fill:none;stroke:currentColor;stroke-linecap:round;stroke-linejoin:round;stroke-width:1.5px;}</style></defs><title>aircraft-propeller-2</title><path class="a" d="M15.75,23.25a2.25,2.25,0,1,1,1.614-3.817A3,3,0,1,1,20.25,23.25Z"/><path class="a" d="M17.25,9.75v-6h-12l-1.8-2.4a1.5,1.5,0,0,0-2.7.9V4.719A3,3,0,0,0,2.636,7.5L7.177,9.321A6.01,6.01,0,0,0,9.4,9.75Z"/><line class="a" x1="23.25" y1="6.75" x2="20.25" y2="6.75"/><line class="a" x1="23.25" y1="3.75" x2="23.25" y2="0.75"/><line class="a" x1="23.25" y1="12.75" x2="23.25" y2="9.75"/><path class="a" d="M9.75,3.75a3,3,0,0,1,6,0Z"/><path class="a" d="M17.25,3.75h1.5a1.5,1.5,0,0,1,1.5,1.5v3a1.5,1.5,0,0,1-1.5,1.5h-1.5"/></svg>