<svg xmlns="http://www.w3.org/2000/svg" viewBox="0 0 24 24"><defs><style>.a{fill:none;stroke:currentColor;stroke-linecap:round;stroke-linejoin:round;stroke-width:1.5px;}</style></defs><title>aircraft-military-plane</title><line class="a" x1="12" y1="5.25" x2="12" y2="9.75"/><line class="a" x1="6" y1="20.25" x2="6" y2="23.25"/><line class="a" x1="9" y1="17.25" x2="9" y2="14.25"/><path class="a" d="M22.042,18.414,15,9.75V5.25C15,3,13.657.75,12,.75S9,3,9,5.25v4.5L1.958,18.414A2.046,2.046,0,0,0,3.546,21.75H10.5a1.5,1.5,0,0,0,3,0h6.954a2.046,2.046,0,0,0,1.588-3.336Z"/><line class="a" x1="18" y1="20.25" x2="18" y2="23.25"/><line class="a" x1="15" y1="17.25" x2="15" y2="14.25"/></svg>