<svg xmlns="http://www.w3.org/2000/svg" viewBox="0 0 24 24"><defs><style>.a{fill:none;stroke:currentColor;stroke-linecap:round;stroke-linejoin:round;stroke-width:1.5px;}</style></defs><title>aircraft-propeller-1</title><path class="a" d="M15.75,22.5a2.25,2.25,0,1,1,1.614-3.817A3,3,0,1,1,20.25,22.5Z"/><line class="a" x1="23.25" y1="7.5" x2="20.25" y2="7.5"/><line class="a" x1="23.25" y1="4.5" x2="23.25" y2="1.5"/><line class="a" x1="23.25" y1="13.5" x2="23.25" y2="10.5"/><path class="a" d="M17.25,4.5h1.5A1.5,1.5,0,0,1,20.25,6V9a1.5,1.5,0,0,1-1.5,1.5h-1.5"/><line class="a" x1="16.5" y1="1.5" x2="11.25" y2="1.5"/><line class="a" x1="14.25" y1="8.25" x2="9" y2="8.25"/><line class="a" x1="14.25" y1="1.5" x2="12" y2="8.25"/><path class="a" d="M6.75,9.9,2.636,8.254A3,3,0,0,1,.75,5.469V3a1.5,1.5,0,0,1,2.7-.9l1.8,2.4h12v6h-3"/><line class="a" x1="15.75" y1="10.5" x2="15.75" y2="12.75"/><circle class="a" cx="15.75" cy="14.25" r="1.5"/></svg>