<svg xmlns="http://www.w3.org/2000/svg" viewBox="0 0 24 24"><defs><style>.a{fill:none;stroke:currentColor;stroke-linecap:round;stroke-linejoin:round;stroke-width:1.5px;}</style></defs><title>aircraft-hot-air-balloon-1</title><path class="a" d="M12.75,18.75v1.5a1.5,1.5,0,0,0,1.5,1.5h3a1.5,1.5,0,0,0,1.5-1.5V17.406"/><ellipse class="a" cx="12.75" cy="11.25" rx="10.5" ry="7.5"/><path class="a" d="M3.708,7.434.9,3.5A.79.79,0,0,1,1.54,2.25H3.87a2.293,2.293,0,0,1,1.18.327l3.173,1.9"/><path class="a" d="M3.708,15.066.9,19A.79.79,0,0,0,1.54,20.25H3.87a2.293,2.293,0,0,0,1.18-.327l3.173-1.9"/><line class="a" x1="0.75" y1="11.25" x2="6.75" y2="11.25"/></svg>