<svg xmlns="http://www.w3.org/2000/svg" viewBox="0 0 24 24"><defs><style>.a{fill:none;stroke:currentColor;stroke-linecap:round;stroke-linejoin:round;stroke-width:1.5px;}</style></defs><title>airport</title><path class="a" d="M18.585,5.25H5.415a.751.751,0,0,0-.736.9l1.08,5.4A1.5,1.5,0,0,0,7.23,12.75H9L6.944,22.342a.751.751,0,0,0,.734.908h8.644a.751.751,0,0,0,.734-.908L15,12.75h1.77a1.5,1.5,0,0,0,1.471-1.206l1.08-5.4A.751.751,0,0,0,18.585,5.25Z"/><line class="a" x1="12" y1="5.25" x2="12" y2="0.75"/><line class="a" x1="16.5" y1="5.25" x2="16.5" y2="2.25"/><line class="a" x1="7.5" y1="5.25" x2="7.5" y2="2.25"/><line class="a" x1="5.1" y1="8.25" x2="18.897" y2="8.25"/><line class="a" x1="9" y1="12.75" x2="15" y2="12.75"/><line class="a" x1="9" y1="8.25" x2="9" y2="12.75"/><line class="a" x1="15" y1="8.25" x2="15" y2="12.75"/></svg>