<svg xmlns="http://www.w3.org/2000/svg" viewBox="0 0 24 24"><defs><style>.a{fill:none;stroke:currentColor;stroke-linecap:round;stroke-linejoin:round;stroke-width:1.5px;}</style></defs><title>allowances-no-skates</title><circle class="a" cx="12" cy="12" r="11.25"/><line class="a" x1="4.045" y1="4.046" x2="19.955" y2="19.955"/><polyline class="a" points="15.75 11.25 15.75 5.25 10.5 5.25 10.5 6"/><path class="a" d="M12.75,15.75H8.25a1.5,1.5,0,0,1-1.5-1.5,3,3,0,0,1,1.335-2.5"/><line class="a" x1="12" y1="8.25" x2="12.75" y2="8.25"/><path class="a" d="M7.5,18.375a.375.375,0,1,1-.375.375.375.375,0,0,1,.375-.375"/><path class="a" d="M11.25,18.375a.375.375,0,1,1-.375.375.375.375,0,0,1,.375-.375"/><path class="a" d="M15,18.375a.375.375,0,1,1-.375.375A.375.375,0,0,1,15,18.375"/></svg>