<svg xmlns="http://www.w3.org/2000/svg" viewBox="0 0 24 24"><defs><style>.a{fill:none;stroke:currentColor;stroke-linecap:round;stroke-linejoin:round;stroke-width:1.5px;}</style></defs><title>allowances-no-bikinis</title><circle class="a" cx="12" cy="12" r="11.25"/><line class="a" x1="4.045" y1="4.046" x2="19.955" y2="19.955"/><path class="a" d="M8.094,12.531A2.969,2.969,0,0,1,5.131,9.758"/><path class="a" d="M16.406,12.531a2.968,2.968,0,0,0,2.969-2.968C19.375,7.923,17,6,17,6L14.125,8.875"/><line class="a" x1="7.5" y1="4.5" x2="7.5" y2="3.625"/><line class="a" x1="17" y1="6" x2="17" y2="3.625"/><path class="a" d="M14.067,18.608a3.887,3.887,0,0,0-.706,1.432,1.188,1.188,0,0,1-1.15.9h-.3a1.186,1.186,0,0,1-1.15-.9,4.655,4.655,0,0,0-4.639-3.259.422.422,0,0,1-.4-.553L6.125,15H11.25"/><line class="a" x1="18" y1="15" x2="18.221" y2="15.678"/></svg>