<svg xmlns="http://www.w3.org/2000/svg" viewBox="0 0 24 24"><defs><style>.a{fill:none;stroke:currentColor;stroke-linecap:round;stroke-linejoin:round;stroke-width:1.5px;}</style></defs><title>allowances-no-climbing</title><circle class="a" cx="13.5" cy="3.75" r="2.625"/><path class="a" d="M8.282,12.545a1.5,1.5,0,1,0,1.436,2.634"/><path class="a" d="M18,14.25V11.408a2.891,2.891,0,0,1,.308.157,4.305,4.305,0,0,1,1.942,3.51v.287a1.5,1.5,0,1,0,3,0v-.287a7.279,7.279,0,0,0-3.41-6.089A4.641,4.641,0,0,0,15.157,8.8"/><path class="a" d="M11.127,17.171a4.367,4.367,0,0,0-.582,3.443,1.5,1.5,0,0,0,2.91-.727,1.359,1.359,0,0,1,1.091-1.666"/><polyline class="a" points="9 23.25 5.25 23.25 5.25 18.75 0.75 18.75"/><line class="a" x1="0.75" y1="0.75" x2="23.25" y2="23.25"/></svg>