<svg xmlns="http://www.w3.org/2000/svg" viewBox="0 0 24 24"><defs><style>.a{fill:none;stroke:currentColor;stroke-linecap:round;stroke-linejoin:round;stroke-width:1.5px;}</style></defs><title>allowances-no-umbrellas</title><line class="a" x1="12" y1="3.75" x2="12" y2="5.25"/><circle class="a" cx="12" cy="12" r="11.25"/><line class="a" x1="4.045" y1="4.046" x2="19.955" y2="19.955"/><path class="a" d="M9.629,5.679A6.725,6.725,0,0,1,18.7,11.546a2.252,2.252,0,0,0-3.8-1.138"/><path class="a" d="M5.908,10.408A2.237,2.237,0,0,0,5.3,11.546,6.809,6.809,0,0,1,5.7,9.64"/><path class="a" d="M5.25,12a2.27,2.27,0,0,1,.046-.454C5.285,11.7,5.25,11.845,5.25,12Z"/><path class="a" d="M18.75,12c0-.155-.035-.3-.046-.454A2.27,2.27,0,0,1,18.75,12Z"/><path class="a" d="M9,18.75a1.5,1.5,0,0,0,3,0v-3"/></svg>