<svg xmlns="http://www.w3.org/2000/svg" viewBox="0 0 24 24"><defs><style>.a{fill:none;stroke:currentColor;stroke-linecap:round;stroke-linejoin:round;stroke-width:1.5px;}</style></defs><title>allowances-no-pushing</title><line class="a" x1="0.75" y1="2.187" x2="20.25" y2="21.687"/><circle class="a" cx="12" cy="4.437" r="2.625"/><line class="a" x1="14.25" y1="11.937" x2="17.25" y2="11.937"/><path class="a" d="M5.854,12.687,1.723,19.4a1.5,1.5,0,1,0,2.554,1.573l1.869-3.036h2.1a2.252,2.252,0,0,1,2.25,2.25,1.5,1.5,0,0,0,3,0,5.256,5.256,0,0,0-5.25-5.25H7.992"/><line class="a" x1="17.25" y1="8.937" x2="12" y2="8.937"/><path class="a" d="M17.25,14.187v-9a1.5,1.5,0,0,1,1.5-1.5h3a1.5,1.5,0,0,1,1.5,1.5v12"/></svg>