<svg id="Regular" xmlns="http://www.w3.org/2000/svg" viewBox="0 0 24 24"><defs><style>.cls-1{fill:none;stroke:currentColor;stroke-linecap:round;stroke-linejoin:round;stroke-width:1.5px;}</style></defs><title>ambulance-call</title><path class="cls-1" d="M5.557,16.737l1.706,1.706a30.019,30.019,0,0,0,5.107,4.1l.01.006a4.5,4.5,0,0,0,5.6-.614l.629-.63a1.5,1.5,0,0,0,0-2.121l-2.651-2.652a1.5,1.5,0,0,0-2.122,0h0a1.5,1.5,0,0,1-2.121,0L7.471,12.287a1.5,1.5,0,0,1,0-2.121h0a1.5,1.5,0,0,0,0-2.122L4.819,5.393a1.5,1.5,0,0,0-2.121,0l-.63.629a4.5,4.5,0,0,0-.614,5.6l.006.01A30.019,30.019,0,0,0,5.557,16.737Z"/><path class="cls-1" d="M23.25,4.5a.75.75,0,0,0-.75-.75H20.25V1.5A.75.75,0,0,0,19.5.75h-3a.75.75,0,0,0-.75.75V3.75H13.5a.75.75,0,0,0-.75.75v3a.75.75,0,0,0,.75.75h2.25V10.5a.75.75,0,0,0,.75.75h3a.75.75,0,0,0,.75-.75V8.25H22.5a.75.75,0,0,0,.75-.75Z"/></svg>