<svg id="Regular" xmlns="http://www.w3.org/2000/svg" viewBox="0 0 24 24"><defs><style>.cls-1{fill:none;stroke:currentColor;stroke-linecap:round;stroke-linejoin:round;stroke-width:1.5px;}</style></defs><title>ambulance-car</title><path class="cls-1" d="M8.25,18.75v-9a1.5,1.5,0,0,1,1.5-1.5h12a1.5,1.5,0,0,1,1.5,1.5v10.5a1.5,1.5,0,0,1-1.5,1.5h-.878"/><path class="cls-1" d="M8.25,18.878V9.75H4.921a1.5,1.5,0,0,0-1.455,1.136L3,13.5,1.418,14.555A1.5,1.5,0,0,0,.75,15.8V20.25a1.5,1.5,0,0,0,1.5,1.5H5.378"/><circle class="cls-1" cx="7.5" cy="21" r="2.25"/><circle class="cls-1" cx="18.75" cy="21" r="2.25"/><line class="cls-1" x1="9.622" y1="21.75" x2="16.628" y2="21.75"/><path class="cls-1" d="M16.5,7.5a2.25,2.25,0,0,0-4.5,0v.75h4.5Z"/><line class="cls-1" x1="15.75" y1="12" x2="15.75" y2="16.5"/><line class="cls-1" x1="13.5" y1="14.25" x2="18" y2="14.25"/><line class="cls-1" x1="14.25" y1="2.25" x2="14.25" y2="0.75"/><line class="cls-1" x1="18" y1="3.75" x2="18.75" y2="2.25"/><line class="cls-1" x1="10.5" y1="3.75" x2="9.75" y2="2.25"/></svg>