<svg id="Regular" xmlns="http://www.w3.org/2000/svg" viewBox="0 0 24 24"><defs><style>.cls-1{fill:none;stroke:currentColor;stroke-linecap:round;stroke-linejoin:round;stroke-width:1.5px;}</style></defs><title>ambulance-helicopter</title><polyline class="cls-1" points="1.145 21.75 2.645 23.25 16.145 23.25"/><path class="cls-1" d="M19.559,7.421a1.5,1.5,0,0,1-1.341.829H9.4c-2.25,0-8.25,1.5-8.25,6.75A5.249,5.249,0,0,0,6.4,20.25h2.25c4.246,0,5.863-3.381,6.445-5.357a3.006,3.006,0,0,1,1.825-1.963l3.2-1.2a3,3,0,0,0,1.756-1.756l1.033-2.756a1.455,1.455,0,0,0-2.664-1.162Z"/><line class="cls-1" x1="10.145" y1="8.25" x2="10.145" y2="0.75"/><line class="cls-1" x1="1.145" y1="2.25" x2="19.145" y2="2.25"/><line class="cls-1" x1="5.658" y1="20.199" x2="4.895" y2="23.25"/><line class="cls-1" x1="12.146" y1="19.253" x2="13.145" y2="23.25"/><line class="cls-1" x1="8.645" y1="12" x2="8.645" y2="16.5"/><line class="cls-1" x1="6.395" y1="14.25" x2="10.895" y2="14.25"/></svg>