<svg id="Regular" xmlns="http://www.w3.org/2000/svg" viewBox="0 0 24 24"><defs><style>.cls-1{fill:none;stroke:currentColor;stroke-linecap:round;stroke-linejoin:round;stroke-width:1.5px;}</style></defs><title>ambulance-human</title><circle class="cls-1" cx="6.75" cy="7.5" r="2.25"/><path class="cls-1" d="M6.75,10.5a3,3,0,0,0-3,3v2.25h1.5v3h3v-3h1.5V13.5A3,3,0,0,0,6.75,10.5Z"/><line class="cls-1" x1="3.75" y1="2.25" x2="3.75" y2="0.75"/><line class="cls-1" x1="9.75" y1="2.25" x2="9.75" y2="0.75"/><line class="cls-1" x1="3.75" y1="23.25" x2="3.75" y2="21.75"/><line class="cls-1" x1="9.75" y1="23.25" x2="9.75" y2="21.75"/><path class="cls-1" d="M23.25,5.25a.75.75,0,0,0-.75-.75H21V3a.75.75,0,0,0-.75-.75h-1.5A.75.75,0,0,0,18,3V4.5H16.5a.75.75,0,0,0-.75.75v1.5a.75.75,0,0,0,.75.75H18V9a.75.75,0,0,0,.75.75h1.5A.75.75,0,0,0,21,9V7.5h1.5a.75.75,0,0,0,.75-.75Z"/><rect class="cls-1" x="0.75" y="2.25" width="12" height="19.5" rx="0.5" ry="0.5"/></svg>