<svg id="Regular" xmlns="http://www.w3.org/2000/svg" viewBox="0 0 24 24"><defs><style>.cls-1{fill:none;stroke:currentColor;stroke-linecap:round;stroke-linejoin:round;stroke-width:1.5px;}</style></defs><title>american-football-ball-1</title><path class="cls-1" d="M23.248,3.85a2.991,2.991,0,0,0-3.1-3.1C16.478.89,10.259,1.8,6.031,6.031S.891,16.474.752,20.15a2.991,2.991,0,0,0,3.1,3.1c3.675-.138,9.894-1.05,14.122-5.279S23.109,7.526,23.248,3.85Z"/><line class="cls-1" x1="15.75" y1="8.25" x2="8.25" y2="15.75"/><line class="cls-1" x1="10.875" y1="10.875" x2="13.125" y2="13.125"/><line class="cls-1" x1="8.25" y1="13.5" x2="10.5" y2="15.75"/><line class="cls-1" x1="13.5" y1="8.25" x2="15.75" y2="10.5"/><line class="cls-1" x1="1.426" y1="14.926" x2="9.074" y2="22.574"/><line class="cls-1" x1="22.574" y1="9.074" x2="14.926" y2="1.426"/></svg>