<svg id="Regular" xmlns="http://www.w3.org/2000/svg" viewBox="0 0 24 24"><defs><style>.cls-1{fill:none;stroke:currentColor;stroke-linecap:round;stroke-linejoin:round;stroke-width:1.5px;}</style></defs><title>american-football-helmet</title><path class="cls-1" d="M10.737,18.379l2.47,2.822a6,6,0,0,0,4.516,2.049H20.25a3,3,0,0,0,3-3v-1.5a1.5,1.5,0,0,0-1.5-1.5H11.25"/><circle class="cls-1" cx="9.75" cy="17.25" r="1.5"/><path class="cls-1" d="M9.75,15.75v-1.5a6,6,0,0,1,6-6h6.881"/><path class="cls-1" d="M11.187,23.221A11.251,11.251,0,1,1,22.631,8.25a2.249,2.249,0,0,1-2.12,3H15.75a3,3,0,0,0-3,3"/><path class="cls-1" d="M15.75,17.25v3a2.989,2.989,0,0,1-.984,2.221"/><path class="cls-1" d="M20.25,17.25v3a3,3,0,0,1-2.8,2.994"/></svg>