<svg id="Regular" xmlns="http://www.w3.org/2000/svg" viewBox="0 0 24 24"><defs><style>.cls-1{fill:none;stroke:currentColor;stroke-linecap:round;stroke-linejoin:round;stroke-width:1.5px;}</style></defs><title>american-football-run-ball</title><circle class="cls-1" cx="8.249" cy="3.375" r="2.625"/><path class="cls-1" d="M18.257,8.408a.764.764,0,0,1-.35.473,1.5,1.5,0,0,0,1.541,2.573,3.77,3.77,0,0,0-3.625-6.6l-9.195,4.6a1.537,1.537,0,0,1-.968.13L2.919,9.029a1.484,1.484,0,0,0-1.765,1.177A1.5,1.5,0,0,0,2.33,11.971l2.739.548a4.485,4.485,0,0,0,.879.086,4.548,4.548,0,0,0,2.019-.473l1.842-.922,1.433,2.721L8.1,15.557a2.991,2.991,0,0,0-1.6,2.276l-.489,3.722a1.5,1.5,0,0,0,1.292,1.682,1.444,1.444,0,0,0,.2.013,1.5,1.5,0,0,0,1.485-1.3l.49-3.722,3.3-1.708a1.55,1.55,0,0,0,.141-.113l3.557,2.134a1.5,1.5,0,0,0,1.443.056l4.5-2.25a1.5,1.5,0,0,0-1.341-2.684l-3.764,1.883-.8-.481"/><path class="cls-1" d="M17.731,11.331c-2.946,2.924-6.021.033-6.021.033s.311-2.778,2.657-3.641a4.316,4.316,0,0,1,3.9.675"/></svg>