<svg id="Regular" xmlns="http://www.w3.org/2000/svg" viewBox="0 0 24 24"><defs><style>.cls-1{fill:none;stroke:currentColor;stroke-linecap:round;stroke-linejoin:round;stroke-width:1.5px;}</style></defs><title>american-football-run-ball-1</title><circle class="cls-1" cx="7.624" cy="3.375" r="2.625"/><path class="cls-1" d="M7.613,10.772a1.5,1.5,0,0,1-1.533,2.57l-3-1.5h0a1.5,1.5,0,0,1,.211-2.769l8.821-2.836a4.458,4.458,0,0,1,4.608.7l1.15.959a1.5,1.5,0,1,1-1.922,2.3L14.8,9.24a1.488,1.488,0,0,0-1.56-.224c-.046.021-.094.038-.141.054l-1.71.55,2.3,4.358,2.426,1.691,3.9-.648a1.5,1.5,0,1,1,.493,2.958l-4.5.75a1.459,1.459,0,0,1-.246.021,1.5,1.5,0,0,1-.859-.27l-2.964-2.066a1.378,1.378,0,0,1-.125.1L8.5,18.223,8.01,21.945a1.5,1.5,0,0,1-1.485,1.3,1.455,1.455,0,0,1-.2-.013,1.5,1.5,0,0,1-1.292-1.682l.487-3.722A3.02,3.02,0,0,1,6.03,16.52"/><path class="cls-1" d="M7.613,10.772A4.476,4.476,0,0,1,9.751,8.25,4.161,4.161,0,0,1,12,11.625,4.161,4.161,0,0,1,9.751,15a4.7,4.7,0,0,1-1.926-1.953"/></svg>