<svg id="Regular" xmlns="http://www.w3.org/2000/svg" viewBox="0 0 24 24"><defs><style>.cls-1{fill:none;stroke:currentColor;stroke-linecap:round;stroke-linejoin:round;stroke-width:1.5px;}</style></defs><title>amphibian-foot</title><ellipse class="cls-1" cx="12" cy="18.75" rx="4.5" ry="3.75"/><circle class="cls-1" cx="7.5" cy="3" r="1.5"/><circle class="cls-1" cx="2.25" cy="9" r="1.5"/><circle class="cls-1" cx="16.5" cy="3" r="1.5"/><circle class="cls-1" cx="21.75" cy="9" r="1.5"/><line class="cls-1" x1="2.909" y1="10.348" x2="7.565" y2="18.109"/><line class="cls-1" x1="21.091" y1="10.348" x2="16.435" y2="18.109"/><path class="cls-1" d="M8.885,3.577a3.736,3.736,0,0,0,6.23,0"/><path class="cls-1" d="M16.5,4.5a3.851,3.851,0,0,0,.75,3c1.594,1.875,3,1.5,3,1.5"/><path class="cls-1" d="M7.5,4.5a3.851,3.851,0,0,1-.75,3c-1.594,1.875-3,1.5-3,1.5"/><line class="cls-1" x1="10.534" y1="15.204" x2="9.75" y2="10.5"/><line class="cls-1" x1="13.466" y1="15.204" x2="14.25" y2="10.5"/></svg>