<svg id="Regular" xmlns="http://www.w3.org/2000/svg" viewBox="0 0 24 24"><defs><style>.cls-1{fill:none;stroke:currentColor;stroke-linecap:round;stroke-linejoin:round;stroke-width:1.5px;}</style></defs><title>amphibian-chameleon-1</title><path class="cls-1" d="M2.313,6.75l2.25-1.5s.75-4.5,3.75-4.5,3.75,4.5,3.75,4.5l2.25,1.5"/><line class="cls-1" x1="4.563" y1="8.25" x2="3.063" y2="9.75"/><line class="cls-1" x1="12.063" y1="8.25" x2="13.563" y2="9.75"/><path class="cls-1" d="M4.563,11.25a20.755,20.755,0,0,0-.75,6c0,3.75,2.25,6,6.75,6A8.362,8.362,0,0,0,18.813,18c1.5-3.75.75-6,.75-6"/><path class="cls-1" d="M12.063,11.25s1.5,4.5,0,8.25"/><path class="cls-1" d="M16.563,9.75s3-3,5.25-.75c3.4,3.4,0,11.25-2.25,13.5"/><path class="cls-1" d="M.75,13.5a2.117,2.117,0,0,0,3.408-.487"/><path class="cls-1" d="M.75,17.333a2.078,2.078,0,0,0,3.072-.074"/><path class="cls-1" d="M12.529,13.279c1.057,1.057,2.222,1.22,3.221.221"/><path class="cls-1" d="M12.637,17.22a2.044,2.044,0,0,0,3.113.113"/><line class="cls-1" x1="6.75" y1="5.25" x2="6.75" y2="6"/><line class="cls-1" x1="9.75" y1="5.25" x2="9.75" y2="6"/></svg>