<svg id="Regular" xmlns="http://www.w3.org/2000/svg" viewBox="0 0 24 24"><defs><style>.cls-1{fill:none;stroke:currentColor;stroke-linecap:round;stroke-linejoin:round;stroke-width:1.5px;}</style></defs><title>amphibian-frog-1</title><path class="cls-1" d="M4.5,16.25a18.2,18.2,0,0,0,7.5,1.5,24.756,24.756,0,0,0,8.25-1.5"/><path class="cls-1" d="M13.5,13.25A2.619,2.619,0,0,1,15,12.5"/><path class="cls-1" d="M10.5,13.25A2.619,2.619,0,0,0,9,12.5"/><path class="cls-1" d="M18.75,4.625A.375.375,0,0,1,19.125,5"/><path class="cls-1" d="M18.375,5a.375.375,0,0,1,.375-.375"/><path class="cls-1" d="M18.75,5.375A.375.375,0,0,1,18.375,5"/><path class="cls-1" d="M19.125,5a.375.375,0,0,1-.375.375"/><path class="cls-1" d="M5.25,4.625A.375.375,0,0,1,5.625,5"/><path class="cls-1" d="M4.875,5a.375.375,0,0,1,.375-.375"/><path class="cls-1" d="M5.25,5.375A.375.375,0,0,1,4.875,5"/><path class="cls-1" d="M5.625,5a.375.375,0,0,1-.375.375"/><path class="cls-1" d="M21.706,13.441c.026-.311.044-.623.044-.941a11.124,11.124,0,0,0-.907-4.4,3.733,3.733,0,1,0-5.09-5.289,9.11,9.11,0,0,0-7.506,0,3.7,3.7,0,0,0-3-1.559A3.741,3.741,0,0,0,3.157,8.1a11.124,11.124,0,0,0-.907,4.4c0,.318.018.63.044.941A4.488,4.488,0,0,0,.75,16.625C.75,20.146,5.787,23,12,23s11.25-2.854,11.25-6.375A4.488,4.488,0,0,0,21.706,13.441Z"/></svg>