<svg id="Regular" xmlns="http://www.w3.org/2000/svg" viewBox="0 0 24 24"><defs><style>.cls-1{fill:none;stroke:currentColor;stroke-linecap:round;stroke-linejoin:round;stroke-width:1.5px;}</style></defs><title>amphibian-chameleon</title><path class="cls-1" d="M18.75,16c-3.75-.75-4.5,4.5-.75,4.5s5.25-3,5.25-6.75A8.3,8.3,0,0,0,15,5.5C9.75,5.5,8.25,7,8.25,7a2.664,2.664,0,0,0-1.5-2.25C2.25,5.5.75,10,.75,10s.75,3.75,6.75,3.75L3.75,17.5h4.5S12,16,12,13.75A2.2,2.2,0,0,0,9.75,11.5"/><path class="cls-1" d="M5.625,8.5A.375.375,0,0,1,6,8.875"/><path class="cls-1" d="M5.25,8.875A.375.375,0,0,1,5.625,8.5"/><path class="cls-1" d="M5.625,9.25a.375.375,0,0,1-.375-.375"/><path class="cls-1" d="M6,8.875a.375.375,0,0,1-.375.375"/><line class="cls-1" x1="0.75" y1="17.5" x2="13.5" y2="17.5"/><line class="cls-1" x1="12" y1="13.75" x2="15.75" y2="13.75"/></svg>