<svg id="Regular" xmlns="http://www.w3.org/2000/svg" viewBox="0 0 24 24"><defs><style>.cls-1{fill:none;stroke:currentColor;stroke-linecap:round;stroke-linejoin:round;stroke-width:1.5px;}</style></defs><title>amphibian-chameleon-2</title><path class="cls-1" d="M6.75,5.25c-.735,0-.731,0-1.5,0a4.791,4.791,0,0,0-4.5,4.5c0,2.071,2.015,3,4.5,3,6.75,0,13.5-.75,13.5,1.5s-3,2.25-3,2.25"/><path class="cls-1" d="M15.992,12.755A4.569,4.569,0,0,0,11.25,15.75c-.75,3,1.5,4.5,4.5,4.5,3.75,0,7.5-1.5,7.5-8.25,0-4.38-3.158-5.918-8.245-6.458"/><path class="cls-1" d="M5.625,8.25A.375.375,0,0,1,6,8.625"/><path class="cls-1" d="M5.25,8.625a.375.375,0,0,1,.375-.375"/><path class="cls-1" d="M5.625,9a.375.375,0,0,1-.375-.375"/><path class="cls-1" d="M6,8.625A.375.375,0,0,1,5.625,9"/><path class="cls-1" d="M6.746,12.739c.3.753,1.016,3.842-3,4.511"/><line class="cls-1" x1="9" y1="5.25" x2="11.25" y2="3.75"/><line class="cls-1" x1="10.5" y1="6.75" x2="12.75" y2="6.75"/><line class="cls-1" x1="9" y1="8.25" x2="11.25" y2="9.75"/></svg>