<svg id="Regular" xmlns="http://www.w3.org/2000/svg" viewBox="0 0 24 24"><defs><style>.cls-1{fill:none;stroke:currentColor;stroke-linecap:round;stroke-linejoin:round;stroke-width:1.5px;}</style></defs><title>amphibian-frog</title><path class="cls-1" d="M22.707,16.5a8.55,8.55,0,0,0,.543-3,8.78,8.78,0,0,0-1.774-5.241,4.134,4.134,0,0,0,1.607-4.573A4.043,4.043,0,0,0,20.363.93a4.132,4.132,0,0,0-5.288,3.2,12.7,12.7,0,0,0-6.15,0A4.132,4.132,0,0,0,3.637.93,4.043,4.043,0,0,0,.917,3.686,4.134,4.134,0,0,0,2.524,8.259,8.78,8.78,0,0,0,.75,13.5a8.565,8.565,0,0,0,.542,3l9.546-4.011a3,3,0,0,1,2.324,0Z"/><path class="cls-1" d="M2.517,18.748A11.74,11.74,0,0,0,12,23.25a11.738,11.738,0,0,0,9.481-4.5"/><circle class="cls-1" cx="19.125" cy="4.875" r="1.5"/><circle class="cls-1" cx="4.875" cy="4.875" r="1.5"/></svg>