<svg id="Regular" xmlns="http://www.w3.org/2000/svg" viewBox="0 0 24 24"><defs><style>.cls-1{fill:none;stroke:currentColor;stroke-linecap:round;stroke-linejoin:round;stroke-width:1.5px;}</style></defs><title>amusement-park-electric-cars</title><path class="cls-1" d="M23.25,21.75a1.5,1.5,0,0,1-1.5,1.5H2.25a1.5,1.5,0,0,1,0-3h19.5A1.5,1.5,0,0,1,23.25,21.75Z"/><path class="cls-1" d="M2.25,20.25v-4.5a3,3,0,0,1,3-3h1.5L9,16.5h6.75V12.75l1.975.988A7.28,7.28,0,0,1,21.75,20.25"/><polyline class="cls-1" points="5.25 12.75 5.25 0.75 0.75 6 5.25 6"/><line class="cls-1" x1="15.75" y1="16.5" x2="12.75" y2="13.5"/></svg>