<svg id="Regular" xmlns="http://www.w3.org/2000/svg" viewBox="0 0 24 24"><defs><style>.cls-1{fill:none;stroke:currentColor;stroke-linecap:round;stroke-linejoin:round;stroke-width:1.5px;}</style></defs><title>amusement-park-disneyland</title><polyline class="cls-1" points="8.75 21 8.75 15.75 14.75 15.75 14.75 21"/><line class="cls-1" x1="17.75" y1="18" x2="17.75" y2="23.25"/><line class="cls-1" x1="22.25" y1="23.25" x2="22.25" y2="18"/><polyline class="cls-1" points="22.25 18 20 13.5 17.75 18"/><polyline class="cls-1" points="8.75 15.75 11.75 9.75 14.75 15.75"/><line class="cls-1" x1="11.75" y1="9.75" x2="11.75" y2="6.75"/><line class="cls-1" x1="20" y1="13.5" x2="20" y2="10.5"/><line class="cls-1" x1="1.25" y1="18" x2="1.25" y2="23.25"/><line class="cls-1" x1="5.75" y1="23.25" x2="5.75" y2="18"/><polyline class="cls-1" points="5.75 18 3.5 13.5 1.25 18"/><line class="cls-1" x1="3.5" y1="13.5" x2="3.5" y2="10.5"/><line class="cls-1" x1="5.75" y1="21" x2="17.75" y2="21"/><line class="cls-1" x1="17" y1="3.556" x2="23" y2="3.556"/><line class="cls-1" x1="21.5" y1="0.75" x2="18.5" y2="6.362"/><line class="cls-1" x1="18.5" y1="0.75" x2="21.5" y2="6.362"/><line class="cls-1" x1="1.25" y1="5.444" x2="7.25" y2="5.444"/><line class="cls-1" x1="5.75" y1="2.638" x2="2.75" y2="8.25"/><line class="cls-1" x1="2.75" y1="2.638" x2="5.75" y2="8.25"/></svg>