<svg id="Regular" xmlns="http://www.w3.org/2000/svg" viewBox="0 0 24 24"><defs><style>.cls-1{fill:none;stroke:currentColor;stroke-linecap:round;stroke-linejoin:round;stroke-width:1.5px;}</style></defs><title>amusement-park-castle</title><polyline class="cls-1" points="9 16.5 9 9.75 15 9.75 15 16.5"/><line class="cls-1" x1="18" y1="12" x2="18" y2="16.5"/><line class="cls-1" x1="22.5" y1="16.5" x2="22.5" y2="12"/><polyline class="cls-1" points="22.5 12 20.25 7.5 18 12"/><polyline class="cls-1" points="9 9.75 12 3.75 15 9.75"/><line class="cls-1" x1="12" y1="3.75" x2="12" y2="0.75"/><line class="cls-1" x1="20.25" y1="7.5" x2="20.25" y2="4.5"/><line class="cls-1" x1="1.5" y1="12" x2="1.5" y2="16.5"/><line class="cls-1" x1="6" y1="16.5" x2="6" y2="12"/><polyline class="cls-1" points="6 12 3.75 7.5 1.5 12"/><line class="cls-1" x1="3.75" y1="7.5" x2="3.75" y2="4.5"/><path class="cls-1" d="M.75,16.5v6.75h9v-1.5a2.25,2.25,0,0,1,4.5,0v1.5h9V16.5Z"/><line class="cls-1" x1="23.25" y1="20.25" x2="13.673" y2="20.25"/><line class="cls-1" x1="10.327" y1="20.25" x2="0.75" y2="20.25"/></svg>