<svg id="Regular" xmlns="http://www.w3.org/2000/svg" viewBox="0 0 24 24"><defs><style>.cls-1{fill:none;stroke:currentColor;stroke-linecap:round;stroke-linejoin:round;stroke-width:1.5px;}</style></defs><title>amusement-park-merry-go-round-toys</title><line class="cls-1" x1="12" y1="10.5" x2="12" y2="23.25"/><path class="cls-1" d="M21.672,6.277a1.5,1.5,0,0,1,.73,1.579A2.866,2.866,0,0,1,19.5,10.5a4.425,4.425,0,0,1-3.75-2.25A4.425,4.425,0,0,1,12,10.5,4.425,4.425,0,0,1,8.25,8.25,4.425,4.425,0,0,1,4.5,10.5,2.866,2.866,0,0,1,1.6,7.856a1.5,1.5,0,0,1,.73-1.579L12,.75Z"/><line class="cls-1" x1="12" y1="0.75" x2="8.25" y2="8.25"/><line class="cls-1" x1="12" y1="0.75" x2="15.75" y2="8.25"/><path class="cls-1" d="M8.466,19.623a.776.776,0,0,1-.775.627H4.309a.776.776,0,0,1-.775-.627l-.523-3a.727.727,0,0,1,.175-.608.8.8,0,0,1,.6-.265h4.43a.8.8,0,0,1,.6.265.727.727,0,0,1,.175.608Z"/><line class="cls-1" x1="6" y1="15.75" x2="6" y2="10.198"/><line class="cls-1" x1="6" y1="23.25" x2="6" y2="20.25"/><path class="cls-1" d="M20.466,19.623a.776.776,0,0,1-.775.627H16.309a.776.776,0,0,1-.775-.627l-.523-3a.727.727,0,0,1,.175-.608.8.8,0,0,1,.6-.265h4.43a.8.8,0,0,1,.6.265.727.727,0,0,1,.175.608Z"/><line class="cls-1" x1="18" y1="15.75" x2="18" y2="10.198"/><line class="cls-1" x1="18" y1="23.25" x2="18" y2="20.25"/><line class="cls-1" x1="1.5" y1="23.25" x2="22.5" y2="23.25"/></svg>