<svg id="Regular" xmlns="http://www.w3.org/2000/svg" viewBox="0 0 24 24"><defs><style>.cls-1{fill:none;stroke:currentColor;stroke-linecap:round;stroke-linejoin:round;stroke-width:1.5px;}</style></defs><title>amusement-park-strength-meter</title><path class="cls-1" d="M.737,23.25V4.5a3.75,3.75,0,0,1,7.5,0V23.25"/><line class="cls-1" x1="4.487" y1="5.25" x2="4.487" y2="23.25"/><line class="cls-1" x1="2.987" y1="8.25" x2="5.987" y2="8.25"/><line class="cls-1" x1="2.987" y1="13.5" x2="5.987" y2="13.5"/><line class="cls-1" x1="2.987" y1="18.75" x2="5.987" y2="18.75"/><line class="cls-1" x1="0.737" y1="23.25" x2="23.237" y2="23.25"/><rect class="cls-1" x="13.784" y="11.55" width="4.5" height="6" rx="0.5" ry="0.5" transform="translate(-5.517 12.466) rotate(-36.7)"/><line class="cls-1" x1="17.838" y1="13.205" x2="23.25" y2="9.171"/><path class="cls-1" d="M13.487,23.25l.608-2.432a.749.749,0,0,1,.727-.568H18.9a.751.751,0,0,1,.728.568l.608,2.432"/><line class="cls-1" x1="14.237" y1="8.25" x2="13.487" y2="6.75"/><line class="cls-1" x1="18.737" y1="8.25" x2="19.487" y2="6.75"/></svg>