<svg id="Regular" xmlns="http://www.w3.org/2000/svg" viewBox="0 0 24 24"><defs><style>.cls-1{fill:none;stroke:currentColor;stroke-linecap:round;stroke-linejoin:round;stroke-width:1.5px;}</style></defs><title>amusement-park-speed-machine</title><line class="cls-1" x1="2.25" y1="0.75" x2="21.75" y2="0.75"/><line class="cls-1" x1="12" y1="7.5" x2="12" y2="0.75"/><path class="cls-1" d="M15,14.25H9V10.5a3,3,0,0,1,6,0Z"/><path class="cls-1" d="M16.5,15.75a1.5,1.5,0,0,1-1.5,1.5H9a1.5,1.5,0,0,1,0-3h6A1.5,1.5,0,0,1,16.5,15.75Z"/><line class="cls-1" x1="12" y1="17.25" x2="12" y2="23.25"/><path class="cls-1" d="M1.125,15a.375.375,0,0,1,.375.375"/><path class="cls-1" d="M.75,15.375A.375.375,0,0,1,1.125,15"/><path class="cls-1" d="M1.125,15.75a.375.375,0,0,1-.375-.375"/><path class="cls-1" d="M1.5,15.375a.375.375,0,0,1-.375.375"/><path class="cls-1" d="M1.125,9.75a.375.375,0,0,1,.375.375"/><path class="cls-1" d="M.75,10.125a.375.375,0,0,1,.375-.375"/><path class="cls-1" d="M1.125,10.5a.375.375,0,0,1-.375-.375"/><path class="cls-1" d="M1.5,10.125a.375.375,0,0,1-.375.375"/><path class="cls-1" d="M1.125,4.5a.375.375,0,0,1,.375.375"/><path class="cls-1" d="M.75,4.875A.375.375,0,0,1,1.125,4.5"/><path class="cls-1" d="M1.125,5.25A.375.375,0,0,1,.75,4.875"/><path class="cls-1" d="M1.5,4.875a.375.375,0,0,1-.375.375"/><path class="cls-1" d="M22.875,15a.375.375,0,0,1,.375.375"/><path class="cls-1" d="M22.5,15.375A.375.375,0,0,1,22.875,15"/><path class="cls-1" d="M22.875,15.75a.375.375,0,0,1-.375-.375"/><path class="cls-1" d="M23.25,15.375a.375.375,0,0,1-.375.375"/><path class="cls-1" d="M22.875,9.75a.375.375,0,0,1,.375.375"/><path class="cls-1" d="M22.5,10.125a.375.375,0,0,1,.375-.375"/><path class="cls-1" d="M22.875,10.5a.375.375,0,0,1-.375-.375"/><path class="cls-1" d="M23.25,10.125a.375.375,0,0,1-.375.375"/><path class="cls-1" d="M22.875,4.5a.375.375,0,0,1,.375.375"/><path class="cls-1" d="M22.5,4.875a.375.375,0,0,1,.375-.375"/><path class="cls-1" d="M22.875,5.25a.375.375,0,0,1-.375-.375"/><path class="cls-1" d="M23.25,4.875a.375.375,0,0,1-.375.375"/><line class="cls-1" x1="19.5" y1="0.75" x2="19.5" y2="23.25"/><line class="cls-1" x1="4.5" y1="0.75" x2="4.5" y2="23.25"/><path class="cls-1" d="M19.5,18.75h.75a3,3,0,0,1,3,3v1.5"/><path class="cls-1" d="M4.5,18.75H3.75a3,3,0,0,0-3,3v1.5"/><line class="cls-1" x1="0.75" y1="23.25" x2="23.25" y2="23.25"/></svg>