<svg id="Regular" xmlns="http://www.w3.org/2000/svg" viewBox="0 0 24 24"><defs><style>.cls-1{fill:none;stroke:currentColor;stroke-linecap:round;stroke-linejoin:round;stroke-width:1.5px;}</style></defs><title>amusement-park-balloon</title><path class="cls-1" d="M9.75,13.5a2.25,2.25,0,0,1-4.5,0v-3a2.25,2.25,0,0,1,4.5,0Z"/><path class="cls-1" d="M9.75,6a2.25,2.25,0,0,1-4.5,0V3a2.25,2.25,0,0,1,4.5,0Z"/><path class="cls-1" d="M8.385,21.786a2.289,2.289,0,0,1-2.961,1.3,2.289,2.289,0,0,1-1.206-3l1.17-2.868a2.251,2.251,0,1,1,4.167,1.7Z"/><path class="cls-1" d="M18.888,21.786a2.251,2.251,0,1,0,4.167-1.7l-1.171-2.869a2.251,2.251,0,1,0-4.166,1.7Z"/><path class="cls-1" d="M18.888,9.714a2.251,2.251,0,1,1,4.167,1.7l-1.171,2.869a2.251,2.251,0,1,1-4.166-1.7Z"/><path class="cls-1" d="M15.7,13.5a2.367,2.367,0,0,1,2.469,2.25A2.367,2.367,0,0,1,15.7,18H11.586a2.366,2.366,0,0,1-2.468-2.25,2.366,2.366,0,0,1,2.468-2.25Z"/><circle class="cls-1" cx="3.282" cy="8.25" r="2.532"/></svg>