<svg id="Regular" xmlns="http://www.w3.org/2000/svg" viewBox="0 0 24 24"><defs><style>.cls-1{fill:none;stroke:currentColor;stroke-linecap:round;stroke-linejoin:round;stroke-width:1.5px;}</style></defs><title>amusement-park-rollercoaster</title><path class="cls-1" d="M23.25,18.75c-1.234,0-2.559-.313-4.032-2.437L17.237,13.34A6.474,6.474,0,0,0,12,10.5a6.474,6.474,0,0,0-5.237,2.84L4.782,16.313C3.309,18.437,1.984,18.75.75,18.75"/><line class="cls-1" x1="7.5" y1="12.431" x2="7.5" y2="18.75"/><line class="cls-1" x1="10.5" y1="10.713" x2="10.5" y2="18.75"/><line class="cls-1" x1="13.5" y1="10.713" x2="13.5" y2="18.75"/><line class="cls-1" x1="16.5" y1="12.43" x2="16.5" y2="18.75"/><rect class="cls-1" x="9" y="4.5" width="6" height="3.75" rx="1.875" ry="1.875"/><rect class="cls-1" x="1.234" y="7.63" width="6" height="3.75" rx="1.875" ry="1.875" transform="translate(-5.124 4.955) rotate(-40.057)"/></svg>