<svg xmlns="http://www.w3.org/2000/svg" viewBox="0 0 24 24"><defs><style>.a{fill:none;stroke:currentColor;stroke-linecap:round;stroke-linejoin:round;stroke-width:1.5px;}</style></defs><title>analytics-bars-3d</title><path class="a" d="M6.75,11.25V21.735a1.2,1.2,0,0,1-.532,1h0a3.1,3.1,0,0,1-3.436,0h0a1.2,1.2,0,0,1-.532-1V11.25"/><ellipse class="a" cx="4.5" cy="11.25" rx="2.25" ry="1.5"/><path class="a" d="M14.25,6.75V21.735a1.2,1.2,0,0,1-.532,1h0a3.1,3.1,0,0,1-3.436,0h0a1.2,1.2,0,0,1-.532-1V6.75"/><ellipse class="a" cx="12" cy="6.75" rx="2.25" ry="1.5"/><path class="a" d="M21.75,2.25V21.735a1.2,1.2,0,0,1-.532,1h0a3.1,3.1,0,0,1-3.436,0h0a1.2,1.2,0,0,1-.532-1V2.25"/><ellipse class="a" cx="19.5" cy="2.25" rx="2.25" ry="1.5"/></svg>