<svg xmlns="http://www.w3.org/2000/svg" viewBox="0 0 24 24"><defs><style>.a{fill:none;stroke:currentColor;stroke-linecap:round;stroke-linejoin:round;stroke-width:1.5px;}</style></defs><title>analytics-bars-horizontal</title><polyline class="a" points="0.75 0.75 0.75 23.25 23.25 23.25"/><path class="a" d="M13.5,6.75H.75v-3H13.5a.766.766,0,0,1,.767.767V5.983A.767.767,0,0,1,13.5,6.75Z"/><path class="a" d="M13.5,12.75H.75v-3H13.5a.766.766,0,0,1,.767.767v1.466A.767.767,0,0,1,13.5,12.75Z"/><path class="a" d="M19.483,18.75H.75v-3H19.483a.766.766,0,0,1,.767.767v1.466A.767.767,0,0,1,19.483,18.75Z"/></svg>