<svg xmlns="http://www.w3.org/2000/svg" viewBox="0 0 24 24"><defs><style>.a{fill:none;stroke:currentColor;stroke-linecap:round;stroke-linejoin:round;stroke-width:1.5px;}</style></defs><title>analytics-mountain</title><polyline class="a" points="0.75 0.75 0.75 23.25 23.25 23.25"/><path class="a" d="M14.15,17.358a5.493,5.493,0,0,0,1.487,1.623l.713.519"/><path class="a" d="M3.75,19.5l.713-.519A5.385,5.385,0,0,0,6.7,14.939L7.1,7.96A2.921,2.921,0,0,1,10.05,5.25h0c.046,0,.092,0,.137,0"/><path class="a" d="M9.15,19.5l.713-.519A5.385,5.385,0,0,0,12.1,14.939l.4-6.979A2.921,2.921,0,0,1,15.45,5.25h0a2.921,2.921,0,0,1,2.955,2.71l.4,6.979a5.385,5.385,0,0,0,2.232,4.042l.713.519"/></svg>