<svg id="Regular" xmlns="http://www.w3.org/2000/svg" viewBox="0 0 24 24"><defs><style>.cls-1{fill:none;stroke:currentColor;stroke-linecap:round;stroke-linejoin:round;stroke-width:1.5px;}</style></defs><title>animal-products-cheese</title><path class="cls-1" d="M.75,11.351,12.268,1.232A1.51,1.51,0,0,1,13.393.857c4.4.405,7.909,2.519,9.857,7.494"/><path class="cls-1" d="M.75,11.351v4.062a1.5,1.5,0,0,0,.9,1.375,2.251,2.251,0,0,1-.425,4.263.6.6,0,0,0-.475.587,1.5,1.5,0,0,0,1.7,1.487l19.5-2.6a1.5,1.5,0,0,0,1.3-1.487V8.351Z"/><circle class="cls-1" cx="10.875" cy="17.726" r="1.875"/><circle class="cls-1" cx="18.375" cy="13.226" r="1.875"/><path class="cls-1" d="M6.375,13.6A.375.375,0,1,1,6,13.976a.375.375,0,0,1,.375-.375"/><path class="cls-1" d="M16.875,18.1a.375.375,0,1,1-.375.375.375.375,0,0,1,.375-.375"/><path class="cls-1" d="M13.125,12.851a.375.375,0,1,1-.375.375.375.375,0,0,1,.375-.375"/></svg>