<svg id="Regular" xmlns="http://www.w3.org/2000/svg" viewBox="0 0 24 24"><defs><style>.cls-1{fill:none;stroke:currentColor;stroke-linecap:round;stroke-linejoin:round;stroke-width:1.5px;}</style></defs><title>animal-products-turkey</title><path class="cls-1" d="M21.75,19.87c0,1.656-4.365,3-9.75,3s-9.75-1.344-9.75-3"/><line class="cls-1" x1="0.75" y1="19.87" x2="23.25" y2="19.87"/><path class="cls-1" d="M12.129,15.991a3,3,0,0,1,0-4.243c1.171-1.171,4.131-2.232,5.3-1.06s.111,4.131-1.061,5.3"/><line class="cls-1" x1="17.432" y1="10.688" x2="20.614" y2="7.506"/><circle class="cls-1" cx="21.675" cy="6.445" r="1.5"/><path class="cls-1" d="M20.25,19.87a7.209,7.209,0,0,0-2.78-5.615"/><path class="cls-1" d="M11.648,12.377c-4.393.168-7.9,3.458-7.9,7.493"/><path class="cls-1" d="M11.861,1.12C13.3,3.993,8.959,5,11.111,7.87"/><path class="cls-1" d="M7.361,1.12C8.8,3.993,4.459,5,6.611,7.87"/></svg>