<svg id="Regular" xmlns="http://www.w3.org/2000/svg" viewBox="0 0 24 24"><defs><style>.cls-1{fill:none;stroke:currentColor;stroke-linecap:round;stroke-linejoin:round;stroke-width:1.5px;}</style></defs><title>animal-print-two-fingers</title><path class="cls-1" d="M3.029,19.85a3.7,3.7,0,0,0,4.2,3.116,3.7,3.7,0,0,0,3.24-4.1s-1.7-7.119-2.083-10.006a22.551,22.551,0,0,1,.824-6.892A.75.75,0,0,0,8.177,1.1C5.755,2.153,1.1,5.261,2.168,13.353Z"/><path class="cls-1" d="M21.2,19.85a3.752,3.752,0,0,1-7.435-.986s1.7-7.119,2.083-10.006a22.52,22.52,0,0,0-.825-6.892A.75.75,0,0,1,16.053,1.1c2.422,1.053,7.082,4.161,6.01,12.253Z"/></svg>