<svg id="Regular" xmlns="http://www.w3.org/2000/svg" viewBox="0 0 24 24"><defs><style>.cls-1{fill:none;stroke:currentColor;stroke-linecap:round;stroke-linejoin:round;stroke-width:1.5px;}</style></defs><title>animal-print-bird-3</title><path class="cls-1" d="M20.443,8.132a1.876,1.876,0,0,0-2.625-.374l-3.871,2.906V4.875a1.875,1.875,0,0,0-3.75,0v5.789L6.327,7.758a1.875,1.875,0,0,0-2.251,3l6.121,4.6v3.772a1.875,1.875,0,0,0,3.75,0V15.353l6.122-4.6A1.876,1.876,0,0,0,20.443,8.132Z"/><line class="cls-1" x1="12.072" y1="3" x2="12.072" y2="0.75"/><line class="cls-1" x1="12.072" y1="21" x2="12.072" y2="22.625"/><line class="cls-1" x1="20.443" y1="8.132" x2="21.76" y2="7.25"/><line class="cls-1" x1="3.702" y1="8.132" x2="2.51" y2="7.062"/></svg>