<svg id="Regular" xmlns="http://www.w3.org/2000/svg" viewBox="0 0 24 24"><defs><style>.cls-1{fill:none;stroke:currentColor;stroke-linecap:round;stroke-linejoin:round;stroke-width:1.5px;}</style></defs><title>animal-print-paw-2</title><path class="cls-1" d="M12.01,11.25a4.5,4.5,0,0,0-4.5,4.5V21a2.25,2.25,0,0,0,4.5,0,2.25,2.25,0,0,0,4.5,0V15.75A4.5,4.5,0,0,0,12.01,11.25Z"/><path class="cls-1" d="M2.26,8.25a1.5,1.5,0,0,1,3,0v3a1.5,1.5,0,0,1-3,0Z"/><path class="cls-1" d="M18.76,8.25a1.5,1.5,0,0,1,3,0v3a1.5,1.5,0,0,1-3,0Z"/><path class="cls-1" d="M13.51,3.75a1.5,1.5,0,0,1,3,0v3a1.5,1.5,0,0,1-3,0Z"/><path class="cls-1" d="M7.51,3.75a1.5,1.5,0,0,1,3,0v3a1.5,1.5,0,0,1-3,0Z"/><line class="cls-1" x1="3.76" y1="6.75" x2="3.76" y2="5.25"/><line class="cls-1" x1="9.01" y1="2.25" x2="9.01" y2="0.75"/><line class="cls-1" x1="15.01" y1="2.25" x2="15.01" y2="0.75"/><line class="cls-1" x1="20.26" y1="6.75" x2="20.26" y2="5.25"/></svg>