<svg id="Regular" xmlns="http://www.w3.org/2000/svg" viewBox="0 0 24 24"><defs><style>.cls-1{fill:none;stroke:currentColor;stroke-linecap:round;stroke-linejoin:round;stroke-width:1.5px;}</style></defs><title>animal-print-paw</title><path class="cls-1" d="M16.482,14.79a4.2,4.2,0,0,0-2.034-3.114,4.736,4.736,0,0,0-4.876,0A4.2,4.2,0,0,0,7.538,14.79a2.181,2.181,0,0,1-1.161,1.638,3.445,3.445,0,0,0-1.7,4.1,3.574,3.574,0,0,0,2.5,2.325,3.959,3.959,0,0,0,3.474-.667,2.244,2.244,0,0,1,2.718,0,3.959,3.959,0,0,0,3.474.667,3.574,3.574,0,0,0,2.5-2.325,3.445,3.445,0,0,0-1.7-4.1A2.181,2.181,0,0,1,16.482,14.79Z"/><ellipse class="cls-1" cx="8.26" cy="5.75" rx="2.25" ry="3"/><ellipse class="cls-1" cx="3.01" cy="11.75" rx="2.25" ry="3"/><ellipse class="cls-1" cx="15.76" cy="5.75" rx="2.25" ry="3"/><ellipse class="cls-1" cx="21.01" cy="11.75" rx="2.25" ry="3"/><line class="cls-1" x1="3.01" y1="8.75" x2="3.01" y2="7.25"/><line class="cls-1" x1="8.26" y1="2.75" x2="8.26" y2="1.25"/><line class="cls-1" x1="15.76" y1="2.75" x2="15.76" y2="1.25"/><line class="cls-1" x1="21.01" y1="8.75" x2="21.01" y2="7.25"/></svg>