<svg id="Regular" xmlns="http://www.w3.org/2000/svg" viewBox="0 0 24 24"><defs><style>.cls-1{fill:none;stroke:currentColor;stroke-linecap:round;stroke-linejoin:round;stroke-width:1.5px;}</style></defs><title>animal-print-bird</title><path class="cls-1" d="M16.784,12.9a.75.75,0,0,0-1.13-.693c-1.286.759-3.229,2.209-3.681,4.224Q10.938,21.044,13.4,21.6c1.639.368,2.328-2.706,2.9-5.267A22.455,22.455,0,0,0,16.784,12.9Z"/><path class="cls-1" d="M19.815,13.582a.75.75,0,0,1,1.318-.143c.838,1.235,1.976,3.376,1.524,5.391q-1.033,4.61-3.492,4.059c-1.64-.368-.95-3.442-.376-6A22.429,22.429,0,0,1,19.815,13.582Z"/><path class="cls-1" d="M5.069,1.986A.75.75,0,0,0,3.8,1.591c-1.06,1.051-2.59,2.932-2.535,5q.128,4.724,2.646,4.656C5.594,11.2,5.51,8.049,5.44,5.425A22.308,22.308,0,0,0,5.069,1.986Z"/><path class="cls-1" d="M8.175,1.9a.75.75,0,0,1,1.242-.462c1.115.992,2.743,2.789,2.8,4.853q.126,4.723-2.393,4.791c-1.679.045-1.764-3.1-1.834-5.728A22.337,22.337,0,0,1,8.175,1.9Z"/></svg>