<svg id="Regular" xmlns="http://www.w3.org/2000/svg" viewBox="0 0 24 24"><defs><style>.cls-1{fill:none;stroke:currentColor;stroke-linecap:round;stroke-linejoin:round;stroke-width:1.5px;}</style></defs><title>animal-print-paw-1</title><path class="cls-1" d="M12.01,11.25c-4.556,0-8.25,3.022-8.25,6.75a5.616,5.616,0,0,0,.473,2.251,3.016,3.016,0,0,0,3.981,1.432A10.118,10.118,0,0,1,12.01,21a10.118,10.118,0,0,1,3.8.683,3.016,3.016,0,0,0,3.981-1.432A5.616,5.616,0,0,0,20.26,18C20.26,14.272,16.566,11.25,12.01,11.25Z"/><ellipse class="cls-1" cx="8.629" cy="6.005" rx="1.875" ry="2.25" transform="translate(-0.649 1.062) rotate(-6.787)"/><ellipse class="cls-1" cx="2.678" cy="9.714" rx="1.875" ry="2.25" transform="translate(-3.003 1.392) rotate(-18.905)"/><ellipse class="cls-1" cx="15.391" cy="6.005" rx="2.25" ry="1.875" transform="translate(7.61 20.578) rotate(-83.213)"/><ellipse class="cls-1" cx="21.342" cy="9.714" rx="2.25" ry="1.875" transform="translate(5.237 26.757) rotate(-71.095)"/><line class="cls-1" x1="1.629" y1="7.737" x2="0.76" y2="6"/><line class="cls-1" x1="7.653" y1="4.036" x2="6.76" y2="2.25"/><line class="cls-1" x1="16.367" y1="4.036" x2="17.26" y2="2.25"/><line class="cls-1" x1="22.391" y1="7.737" x2="23.26" y2="6"/></svg>