<svg xmlns="http://www.w3.org/2000/svg" viewBox="0 0 24 24"><defs><style>.a{fill:none;stroke:currentColor;stroke-linecap:round;stroke-linejoin:round;stroke-width:1.5px;}</style></defs><title>ankle-tracker</title><line class="a" x1="12" y1="13.5" x2="12" y2="16.5"/><line class="a" x1="12" y1="0.75" x2="12" y2="4.5"/><path class="a" d="M12,16.5l5.414,3.61a3,3,0,0,1,1.336,2.5v.644"/><path class="a" d="M12,16.5,6.586,20.11a3,3,0,0,0-1.336,2.5v.644"/><line class="a" x1="12" y1="16.5" x2="12" y2="23.25"/><path class="a" d="M19.837,7.7a2.249,2.249,0,0,1,0,2.6"/><path class="a" d="M21,4.691a5.251,5.251,0,0,1,0,8.618"/><path class="a" d="M4.163,7.7a2.249,2.249,0,0,0,0,2.6"/><path class="a" d="M3,4.691a5.251,5.251,0,0,0,0,8.618"/><circle class="a" cx="12" cy="9" r="1.5"/><rect class="a" x="7.5" y="4.5" width="9" height="9" rx="1.5" ry="1.5"/></svg>