<svg xmlns="http://www.w3.org/2000/svg" viewBox="0 0 24 24"><defs><style>.a{fill:none;stroke:currentColor;stroke-linecap:round;stroke-linejoin:round;stroke-width:1.5px;}</style></defs><title>antique-mace</title><path class="a" d="M4.6,22.7c-.912.912-3.713.413-3.713.413s-.5-2.8.413-3.713a2.333,2.333,0,0,1,3.3,3.3Z"/><line class="a" x1="20.614" y1="3.386" x2="18.493" y2="5.507"/><line class="a" x1="23.25" y1="9.75" x2="20.249" y2="9.75"/><line class="a" x1="20.614" y1="16.114" x2="18.493" y2="13.993"/><line class="a" x1="14.25" y1="18.75" x2="14.25" y2="15.749"/><line class="a" x1="5.25" y1="9.75" x2="8.251" y2="9.75"/><line class="a" x1="7.886" y1="3.386" x2="10.007" y2="5.507"/><line class="a" x1="14.25" y1="0.75" x2="14.25" y2="3.751"/><circle class="a" cx="14.25" cy="9.75" r="6"/><line class="a" x1="3.15" y1="18.729" x2="9.08" y2="12.798"/><line class="a" x1="11.202" y1="14.92" x2="5.271" y2="20.85"/><line class="a" x1="15.75" y1="8.25" x2="16.5" y2="7.5"/><line class="a" x1="15.75" y1="11.25" x2="16.5" y2="12"/><line class="a" x1="12.75" y1="11.25" x2="12" y2="12"/><line class="a" x1="12.75" y1="8.25" x2="12" y2="7.5"/></svg>