<svg xmlns="http://www.w3.org/2000/svg" viewBox="0 0 24 24"><defs><style>.a{fill:none;stroke:currentColor;stroke-linecap:round;stroke-linejoin:round;stroke-width:1.5px;}</style></defs><title>antique-shuriken</title><path class="a" d="M9.724,19.284a5.088,5.088,0,0,1,4.55,0l7.745,3.873a.848.848,0,0,0,1.138-1.138l-3.873-7.745a5.088,5.088,0,0,1,0-4.55L23.156,1.98A.847.847,0,0,0,22.019.843L14.275,4.715a5.09,5.09,0,0,1-4.551,0L1.981.843A.848.848,0,0,0,.843,1.981L4.715,9.725a5.088,5.088,0,0,1,0,4.55L.844,22.018a.848.848,0,0,0,1.137,1.138Z"/><circle class="a" cx="12" cy="11.999" r="2.12"/></svg>