<svg xmlns="http://www.w3.org/2000/svg" viewBox="0 0 24 24"><defs><style>.a{fill:none;stroke:currentColor;stroke-linecap:round;stroke-linejoin:round;stroke-width:1.5px;}</style></defs><title>antique-battering-ram</title><circle class="a" cx="6.75" cy="18" r="3"/><circle class="a" cx="17.25" cy="18" r="3"/><path class="a" d="M3.75,18H1.5a.75.75,0,0,1-.75-.75v-1.5A.75.75,0,0,1,1.5,15h21a.75.75,0,0,1,.75.75v1.5a.75.75,0,0,1-.75.75H20.25"/><line class="a" x1="9.75" y1="18" x2="14.25" y2="18"/><path class="a" d="M8.25,12.733V3.75A.75.75,0,0,0,7.5,3H6a.75.75,0,0,0-.75.75v8.983"/><path class="a" d="M18.75,12.733V3.75A.75.75,0,0,0,18,3H16.5a.75.75,0,0,0-.75.75v8.983"/><path class="a" d="M1.25,6h4a0,0,0,0,1,0,0v6a0,0,0,0,1,0,0h-4a.5.5,0,0,1-.5-.5v-5A.5.5,0,0,1,1.25,6Z"/><path class="a" d="M18.75,6h2.5a2,2,0,0,1,2,2v2a2,2,0,0,1-2,2h-2.5a0,0,0,0,1,0,0V6A0,0,0,0,1,18.75,6Z"/><rect class="a" x="8.25" y="6" width="7.5" height="6"/></svg>