<svg xmlns="http://www.w3.org/2000/svg" viewBox="0 0 24 24"><defs><style>.a{fill:none;stroke:currentColor;stroke-linecap:round;stroke-linejoin:round;stroke-width:1.5px;}</style></defs><title>antique-sling</title><path class="a" d="M21,.75A2.25,2.25,0,0,0,18.75,3V7.629a3,3,0,0,1-.879,2.121l-.31.311a1.5,1.5,0,0,1-2.122,0l-.31-.311a3,3,0,0,1-.879-2.121V3a2.25,2.25,0,0,0-4.5,0V7.393a7.5,7.5,0,0,0,2.2,5.3l2.3,2.3v6a2.25,2.25,0,0,0,4.5,0V15l2.3-2.3a7.5,7.5,0,0,0,2.2-5.3V3A2.25,2.25,0,0,0,21,.75Z"/><path class="a" d="M6.081,17.94a5.394,5.394,0,0,1-1.568-3.312,5.608,5.608,0,0,1-.009-.593,1.244,1.244,0,0,0-2.182-.814,5.984,5.984,0,0,0,7.433,9.21,1.247,1.247,0,0,0-.249-2.292A7.027,7.027,0,0,1,6.081,17.94Z"/><path class="a" d="M3.707,12.879C6.653,10.634,6,6.741,6,5.25A4.674,4.674,0,0,1,6.57,3"/><path class="a" d="M9.506,20.139a13.568,13.568,0,0,0,2.1-2.889"/></svg>