<svg xmlns="http://www.w3.org/2000/svg" viewBox="0 0 24 24"><defs><style>.a{fill:none;stroke:currentColor;stroke-linecap:round;stroke-linejoin:round;stroke-width:1.5px;}</style></defs><title>antique-swords</title><path class="a" d="M19.057,9.222,14.778,4.943l-13.4,13.4a.759.759,0,0,0-.217.451l-.4,3.611a.757.757,0,0,0,.836.836l3.611-.4a.759.759,0,0,0,.451-.217Z"/><path class="a" d="M15.313,5.477l4.063-4.062a2.269,2.269,0,0,1,3.209,3.209L18.523,8.687Z"/><line class="a" x1="13.513" y1="3.678" x2="20.322" y2="10.487"/><line class="a" x1="5.466" y1="18.534" x2="16.918" y2="7.082"/><path class="a" d="M8.687,5.477,4.624,1.415A2.269,2.269,0,0,0,1.415,4.624L5.477,8.687Z"/><line class="a" x1="10.487" y1="3.678" x2="3.678" y2="10.487"/><line class="a" x1="9.73" y1="9.73" x2="7.082" y2="7.082"/><polyline class="a" points="12 7.72 9.222 4.943 4.943 9.222 7.72 12"/><path class="a" d="M12,16.28l6.346,6.346a.759.759,0,0,0,.451.217l3.611.4a.757.757,0,0,0,.836-.836l-.4-3.611a.759.759,0,0,0-.217-.451L16.28,12"/><line class="a" x1="18.534" y1="18.534" x2="14.14" y2="14.14"/></svg>