<svg xmlns="http://www.w3.org/2000/svg" viewBox="0 0 24 24"><defs><style>.a{fill:none;stroke:currentColor;stroke-linecap:round;stroke-linejoin:round;stroke-width:1.5px;}</style></defs><title>antique-axe</title><path class="a" d="M12.03,14.1a7.689,7.689,0,0,1,1.284,3.93.748.748,0,0,0,.732.715,8.99,8.99,0,0,0,9.2-9.2.751.751,0,0,0-.716-.732A7.684,7.684,0,0,1,18.6,7.522"/><path class="a" d="M16.48,5.4a7.69,7.69,0,0,1-1.288-3.935A.75.75,0,0,0,14.46.752a8.99,8.99,0,0,0-9.2,9.2.749.749,0,0,0,.715.732,7.684,7.684,0,0,1,3.933,1.286"/><path class="a" d="M17.435,4.444a1.5,1.5,0,0,1,2.121,2.121L3.311,22.811a1.5,1.5,0,0,1-2.122-2.122Z"/><path class="a" d="M8.432,11.2A6,6,0,0,1,15.71,3.925"/><path class="a" d="M12.8,15.568A6,6,0,0,0,20.075,8.29"/></svg>