<svg xmlns="http://www.w3.org/2000/svg" viewBox="0 0 24 24"><defs><style>.a{fill:none;stroke:currentColor;stroke-linecap:round;stroke-linejoin:round;stroke-width:1.5px;}</style></defs><title>antique-axe-1</title><path class="a" d="M12.524,12.966a4.642,4.642,0,1,0,5.934-7.138"/><path class="a" d="M9.412,8.347A10.033,10.033,0,0,0,8.1,7.433a7.544,7.544,0,0,1,4.132-4.972,10.053,10.053,0,0,0,1.133,1.127,9.981,9.981,0,0,0,8.3,2.147.773.773,0,0,1,.844.432,7.7,7.7,0,0,1-8.928,10.741.771.771,0,0,1-.575-.754A10.05,10.05,0,0,0,9.412,8.347Z"/><path class="a" d="M15.32,4.868l1.311-1.577a1.547,1.547,0,1,0-2.373-1.984L12.8,3.065"/><path class="a" d="M11.019,10.043,5.258,16.975c-.989,1.189-.2,3.867-.1,4.958s-4.194,2.121-4.35.4c-.3-3.273.594-5.554,1.583-6.743L8.8,7.878"/></svg>