<svg xmlns="http://www.w3.org/2000/svg" viewBox="0 0 24 24"><defs><style>.a{fill:none;stroke:currentColor;stroke-linecap:round;stroke-linejoin:round;stroke-width:1.5px;}</style></defs><title>antique-armor</title><path class="a" d="M21,23.25V.75H12.75a1.5,1.5,0,0,0-1.5,1.5v4.5H21"/><path class="a" d="M11.25,2.25H3l1.5,3L3,8.25H9.75a1.5,1.5,0,0,0,1.5-1.5Z"/><path class="a" d="M18,23.25H15l1.405-5.619a.754.754,0,0,0-.163-.676L11.814,11.9a.749.749,0,0,0-1.128,0l-4.428,5.06a.754.754,0,0,0-.163.676L7.5,23.25H3.75"/><line class="a" x1="11.25" y1="15.75" x2="11.25" y2="20.25"/><line class="a" x1="9" y1="18" x2="13.5" y2="18"/><line class="a" x1="7.5" y1="23.25" x2="15" y2="23.25"/></svg>