<svg xmlns="http://www.w3.org/2000/svg" viewBox="0 0 24 24"><defs><style>.a{fill:none;stroke:currentColor;stroke-linecap:round;stroke-linejoin:round;stroke-width:1.5px;}</style></defs><title>antique-sling-1</title><path class="a" d="M12,15.75V10.682l6.091-6.091a2.25,2.25,0,0,0-3.182-3.182L9.75,6.568,4.591,1.409A2.25,2.25,0,0,0,1.409,4.591L7.5,10.682V15"/><path class="a" d="M7.5,21a2.25,2.25,0,0,0,4.372.75"/><path class="a" d="M3.75,3.75v9a6,6,0,0,0,6,6h8.918"/><path class="a" d="M15.75,3.75v7.141A2.609,2.609,0,0,0,18.36,13.5"/><path class="a" d="M21.749,21.75a1.5,1.5,0,0,1-.9-.3A7.16,7.16,0,0,1,18,15.75a7.074,7.074,0,0,1,2.849-5.7,1.5,1.5,0,0,1,1.8,2.4,4.124,4.124,0,0,0,0,6.6,1.5,1.5,0,0,1-.9,2.7Z"/></svg>