<svg xmlns="http://www.w3.org/2000/svg" viewBox="0 0 24 24"><defs><style>.a{fill:none;stroke:currentColor;stroke-linecap:round;stroke-linejoin:round;stroke-width:1.5px;}</style></defs><title>antique-sword-1</title><path class="a" d="M3.4,12.919s0,2.2,2.744,4.938S11.081,20.6,11.081,20.6"/><line class="a" x1="17.665" y1="6.335" x2="10.532" y2="13.468"/><path class="a" d="M1.205,20.6A1.551,1.551,0,0,0,3.4,22.8l4.578-4.577a3.1,3.1,0,0,1,2.2-.909h.909l10.3-10.3a.776.776,0,0,0,.187-.3L23.21,1.771A.775.775,0,0,0,22.229.79L17.29,2.436a.776.776,0,0,0-.3.187l-10.3,10.3v.909a3.1,3.1,0,0,1-.909,2.2Z"/></svg>