<svg xmlns="http://www.w3.org/2000/svg" viewBox="0 0 24 24"><defs><style>.a{fill:none;stroke:currentColor;stroke-linecap:round;stroke-linejoin:round;stroke-width:1.5px;}</style></defs><title>antique-catapult</title><circle class="a" cx="6.75" cy="20.25" r="3"/><circle class="a" cx="17.25" cy="20.25" r="3"/><path class="a" d="M3.75,20.25H1.5a.75.75,0,0,1-.75-.75V18a.75.75,0,0,1,.75-.75h21a.75.75,0,0,1,.75.75v1.5a.75.75,0,0,1-.75.75H20.25"/><line class="a" x1="9.75" y1="20.25" x2="14.25" y2="20.25"/><polyline class="a" points="12.75 17.25 17.25 9.75 21.75 17.25"/><line class="a" x1="17.25" y1="17.25" x2="17.25" y2="8.25"/><line class="a" x1="13.875" y1="15.375" x2="9" y2="10.491"/><path class="a" d="M9.012,10.5A3,3,0,1,1,4.77,6.262Z"/><circle class="a" cx="16.125" cy="2.625" r="1.875"/><path class="a" d="M12,4.5A10.789,10.789,0,0,0,9.75,6"/></svg>