<svg xmlns="http://www.w3.org/2000/svg" viewBox="0 0 24 24"><defs><style>.a{fill:none;stroke:currentColor;stroke-linecap:round;stroke-linejoin:round;stroke-width:1.5px;}</style></defs><title>antique-catapult-1</title><path class="a" d="M22.3,18.341a1.5,1.5,0,0,1,.955,1.4v.512a1.5,1.5,0,0,1-1.5,1.5H2.25a1.5,1.5,0,0,1-1.5-1.5v-.512a1.5,1.5,0,0,1,.955-1.4A28.874,28.874,0,0,1,12,16.5,28.874,28.874,0,0,1,22.3,18.341Z"/><path class="a" d="M12.75,16.5V3.75a1.5,1.5,0,0,1,3,0V16.733"/><line class="a" x1="15.75" y1="6.75" x2="21.84" y2="18.169"/><polyline class="a" points="12.75 16.5 3.711 10.989 2.219 18.148"/><path class="a" d="M8.9,9.307a4.466,4.466,0,0,1-7.37-5.046Z"/></svg>