<svg xmlns="http://www.w3.org/2000/svg" viewBox="0 0 24 24"><defs><style>.a{fill:none;stroke:currentColor;stroke-linecap:round;stroke-linejoin:round;stroke-width:1.5px;}</style></defs><title>antique-mace-double</title><circle class="a" cx="17.25" cy="3" r="2.25"/><path class="a" d="M17.25,5.25a2.249,2.249,0,0,1-2.222-1.9L3.459,17.55a2.535,2.535,0,0,1,2.326,1.895l11.569-14.2C17.32,5.249,17.285,5.25,17.25,5.25Z"/><path class="a" d="M4.932,18.117a2.546,2.546,0,0,1-.315,4.166,3.089,3.089,0,0,1-.949.365l-2.918.6V20.271a3.091,3.091,0,0,1,.166-1,2.546,2.546,0,0,1,4.016-1.15Z"/><circle class="a" cx="19.5" cy="19.5" r="3"/><line class="a" x1="18.125" y1="5.072" x2="19.5" y2="16.5"/><line class="a" x1="21.621" y1="17.379" x2="23.25" y2="15.75"/><line class="a" x1="21.621" y1="21.621" x2="23.25" y2="23.25"/><line class="a" x1="17.379" y1="21.621" x2="15.75" y2="23.25"/><line class="a" x1="17.379" y1="17.379" x2="15.75" y2="15.75"/></svg>