<svg id="Regular" xmlns="http://www.w3.org/2000/svg" viewBox="0 0 24 24"><defs><style>.cls-1{fill:none;stroke:currentColor;stroke-linecap:round;stroke-linejoin:round;stroke-width:1.5px;}</style></defs><title>appliances-vitamix</title><path class="cls-1" d="M14.3,15.75H6.8a1.5,1.5,0,0,0-1.474,1.223l-.847,4.5A1.5,1.5,0,0,0,5.952,23.25h9.194a1.5,1.5,0,0,0,1.474-1.777l-.847-4.5A1.5,1.5,0,0,0,14.3,15.75Z"/><polygon class="cls-1" points="4.549 3.75 6.799 15.75 14.299 15.75 16.549 3.75 4.549 3.75"/><path class="cls-1" d="M15.986,6.75h2.063a1.5,1.5,0,0,1,1.5,1.5v4.5"/><circle class="cls-1" cx="10.549" cy="19.5" r="1.5"/><path class="cls-1" d="M5.634,1.579,4.549,3.75h12L15.463,1.579A1.5,1.5,0,0,0,14.122.75H6.976A1.5,1.5,0,0,0,5.634,1.579Z"/><line class="cls-1" x1="9.049" y1="15.75" x2="9.049" y2="8.25"/><line class="cls-1" x1="12.049" y1="15.75" x2="12.049" y2="8.25"/></svg>