<svg id="Regular" xmlns="http://www.w3.org/2000/svg" viewBox="0 0 24 24"><defs><style>.cls-1{fill:none;stroke:currentColor;stroke-linecap:round;stroke-linejoin:round;stroke-width:1.5px;}</style></defs><title>appliances-mixer</title><path class="cls-1" d="M20.25,10.875a1.5,1.5,0,0,1-1.5,1.5H5.25a1.5,1.5,0,0,1-1.5-1.5v-3a4.5,4.5,0,0,1,4.5-4.5h4.5A7.5,7.5,0,0,1,20.25,10.875Z"/><line class="cls-1" x1="9" y1="3.375" x2="8.25" y2="1.125"/><polyline class="cls-1" points="12 6.375 12 9.375 16.5 9.375"/><line class="cls-1" x1="6.75" y1="7.125" x2="8.25" y2="7.125"/><line class="cls-1" x1="6.75" y1="9.375" x2="8.25" y2="9.375"/><line class="cls-1" x1="7.5" y1="12.375" x2="7.5" y2="22.875"/><path class="cls-1" d="M10.5,19.875a3,3,0,0,1-6,0c0-1.657,1.343-5.25,3-5.25S10.5,18.218,10.5,19.875Z"/></svg>