<svg id="Regular" xmlns="http://www.w3.org/2000/svg" viewBox="0 0 24 24"><defs><style>.cls-1{fill:none;stroke:currentColor;stroke-linecap:round;stroke-linejoin:round;stroke-width:1.5px;}</style></defs><title>appliances-stand-alone-mixer</title><path class="cls-1" d="M2.25,5.25v1.5a1.5,1.5,0,0,0,1.5,1.5h7.5a1.5,1.5,0,0,1,1.5,1.5v13.5h9a1.5,1.5,0,0,0,1.5-1.5V2.25a1.5,1.5,0,0,0-1.5-1.5h-15A4.5,4.5,0,0,0,2.25,5.25Z"/><line class="cls-1" x1="6.75" y1="8.25" x2="6.75" y2="18.75"/><rect class="cls-1" x="3.75" y="11.25" width="6" height="7.5" rx="1.809" ry="1.809"/><line class="cls-1" x1="0.75" y1="23.25" x2="12.75" y2="23.25"/><circle class="cls-1" cx="18" cy="16.5" r="2.25"/><line class="cls-1" x1="14.25" y1="3.75" x2="14.25" y2="5.25"/><line class="cls-1" x1="17.25" y1="3.75" x2="17.25" y2="5.25"/><line class="cls-1" x1="20.25" y1="3.75" x2="20.25" y2="5.25"/></svg>