<svg id="Regular" xmlns="http://www.w3.org/2000/svg" viewBox="0 0 24 24"><defs><style>.cls-1{fill:none;stroke:currentColor;stroke-linecap:round;stroke-linejoin:round;stroke-width:1.5px;}</style></defs><title>appliances-blender</title><path class="cls-1" d="M15.75,20.25l-1.8-2.4a1.5,1.5,0,0,0-1.2-.6H8.25a1.5,1.5,0,0,0-1.2.6l-1.8,2.4v1.5a1.5,1.5,0,0,0,1.5,1.5h7.5a1.5,1.5,0,0,0,1.5-1.5Z"/><line class="cls-1" x1="5.25" y1="20.25" x2="15.75" y2="20.25"/><path class="cls-1" d="M14.414,12.936a1.5,1.5,0,0,1-1.488,1.314H8.074a1.5,1.5,0,0,1-1.488-1.314l-1.125-9A1.5,1.5,0,0,1,6.949,2.25h7.1a1.5,1.5,0,0,1,1.488,1.686Z"/><line class="cls-1" x1="10.5" y1="2.25" x2="10.5" y2="0.75"/><path class="cls-1" d="M5.625,5.25H17.25a1.5,1.5,0,0,1,1.5,1.5v3a1.5,1.5,0,0,1-1.5,1.5H14.625"/></svg>