<svg id="Regular" xmlns="http://www.w3.org/2000/svg" viewBox="0 0 24 24"><defs><style>.cls-1{fill:none;stroke:currentColor;stroke-linecap:round;stroke-linejoin:round;stroke-width:1.5px;}</style></defs><title>appliances-rice-cooker</title><path class="cls-1" d="M21.75,20.25H2.25V10.5A9.75,9.75,0,0,1,12,.75h0a9.75,9.75,0,0,1,9.75,9.75Z"/><path class="cls-1" d="M18.75,23.25H5.25a3,3,0,0,1-3-3h19.5A3,3,0,0,1,18.75,23.25Z"/><path class="cls-1" d="M14.25,14.25H9.75a1.5,1.5,0,0,0-1.5,1.5v4.5h7.5v-4.5A1.5,1.5,0,0,0,14.25,14.25Z"/><line class="cls-1" x1="11.25" y1="17.25" x2="12.75" y2="17.25"/><line class="cls-1" x1="2.278" y1="9.75" x2="21.722" y2="9.75"/><path class="cls-1" d="M17.25,6.75c-.485-1.718-3.059-3-5.25-3s-4.765,1.282-5.25,3Z"/></svg>