<svg id="Regular" xmlns="http://www.w3.org/2000/svg" viewBox="0 0 24 24"><defs><style>.cls-1{fill:none;stroke:currentColor;stroke-linecap:round;stroke-linejoin:round;stroke-width:1.5px;}</style></defs><title>appliances-slow-cooker</title><path class="cls-1" d="M3.75,12.75h16.5a0,0,0,0,1,0,0v8.5a2,2,0,0,1-2,2H5.75a2,2,0,0,1-2-2v-8.5A0,0,0,0,1,3.75,12.75Z"/><line class="cls-1" x1="20.25" y1="14.25" x2="23.25" y2="14.25"/><line class="cls-1" x1="3.75" y1="14.25" x2="0.75" y2="14.25"/><path class="cls-1" d="M3.75,12.75c0-3.314,3.694-4.5,8.25-4.5s8.25,1.186,8.25,4.5"/><line class="cls-1" x1="14.25" y1="18.75" x2="15.75" y2="18.75"/><line class="cls-1" x1="12" y1="5.25" x2="12" y2="8.25"/><path class="cls-1" d="M18.75.75c1.437,2.873-2.151,2.381,0,5.25"/><path class="cls-1" d="M5.206.75c1.437,2.873-2.151,2.381,0,5.25"/></svg>