<svg id="Regular" xmlns="http://www.w3.org/2000/svg" viewBox="0 0 24 24"><defs><style>.cls-1{fill:none;stroke:currentColor;stroke-linecap:round;stroke-linejoin:round;stroke-width:1.5px;}</style></defs><title>appliances-stove</title><rect class="cls-1" x="6.75" y="11.25" width="16.5" height="10.5" rx="1" ry="1"/><line class="cls-1" x1="9.75" y1="21.75" x2="9.75" y2="23.25"/><line class="cls-1" x1="20.25" y1="21.75" x2="20.25" y2="23.25"/><line class="cls-1" x1="12.75" y1="14.25" x2="17.25" y2="14.25"/><path class="cls-1" d="M.75.75h6a1.5,1.5,0,0,1,1.5,1.5v4.5a1.5,1.5,0,0,0,1.5,1.5h10.5a1.5,1.5,0,0,0,1.5-1.5v-3a1.5,1.5,0,0,0-1.5-1.5h-12"/><line class="cls-1" x1="12.75" y1="2.25" x2="12.75" y2="8.25"/><line class="cls-1" x1="17.25" y1="2.25" x2="17.25" y2="8.25"/></svg>