<svg id="Regular" xmlns="http://www.w3.org/2000/svg" viewBox="0 0 24 24"><defs><style>.cls-1{fill:none;stroke:currentColor;stroke-linecap:round;stroke-linejoin:round;stroke-width:1.5px;}</style></defs><title>appliances-food-processor</title><rect class="cls-1" x="3.75" y="12.75" width="16.5" height="9" rx="1" ry="1"/><path class="cls-1" d="M7.25,5.25h9.5a2,2,0,0,1,2,2v5.5a0,0,0,0,1,0,0H5.25a0,0,0,0,1,0,0V7.25A2,2,0,0,1,7.25,5.25Z"/><line class="cls-1" x1="8.25" y1="0.75" x2="15.75" y2="0.75"/><line class="cls-1" x1="9.75" y1="0.75" x2="9.75" y2="5.25"/><line class="cls-1" x1="14.25" y1="0.75" x2="14.25" y2="5.25"/><line class="cls-1" x1="5.25" y1="21.75" x2="5.25" y2="23.25"/><line class="cls-1" x1="18.75" y1="21.75" x2="18.75" y2="23.25"/><circle class="cls-1" cx="12" cy="17.25" r="1.5"/><line class="cls-1" x1="5.25" y1="8.25" x2="18.75" y2="8.25"/></svg>