<svg id="Regular" xmlns="http://www.w3.org/2000/svg" viewBox="0 0 24 24"><defs><style>.cls-1{fill:none;stroke:currentColor;stroke-linecap:round;stroke-linejoin:round;stroke-width:1.5px;}</style></defs><title>archery-person</title><circle class="cls-1" cx="8.25" cy="3.375" r="2.625"/><line class="cls-1" x1="8.25" y1="17.25" x2="8.25" y2="21.75"/><path class="cls-1" d="M5.243,13.5l.007,8.25a1.5,1.5,0,0,0,3,0,1.5,1.5,0,0,0,3,0V10.5h6a1.5,1.5,0,0,0,0-3h-6"/><path class="cls-1" d="M15.75.75s6,2.25,6,8.25-6,8.25-6,8.25"/><path class="cls-1" d="M6.75,10.5h-3a1.5,1.5,0,0,1,0-3h3a1.5,1.5,0,0,1,0,3Z"/></svg>