<svg xmlns="http://www.w3.org/2000/svg" viewBox="0 0 24 24"><defs><style>.a{fill:none;stroke:currentColor;stroke-linecap:round;stroke-linejoin:round;stroke-width:1.5px;}</style></defs><title>architecture-fence-1</title><path class="a" d="M5.25,19.5a.75.75,0,0,1-.75.75h-3a.75.75,0,0,1-.75-.75V5.25a2.25,2.25,0,0,1,4.5,0Z"/><path class="a" d="M14.25,19.5a.75.75,0,0,1-.75.75h-3a.75.75,0,0,1-.75-.75V5.25a2.25,2.25,0,0,1,4.5,0Z"/><path class="a" d="M23.25,19.5a.75.75,0,0,1-.75.75h-3a.75.75,0,0,1-.75-.75V5.25a2.25,2.25,0,0,1,4.5,0Z"/><line class="a" x1="5.25" y1="8.25" x2="9.75" y2="8.25"/><line class="a" x1="14.25" y1="8.25" x2="18.75" y2="8.25"/><line class="a" x1="5.25" y1="17.25" x2="9.75" y2="17.25"/><line class="a" x1="14.25" y1="17.25" x2="18.75" y2="17.25"/></svg>