<svg xmlns="http://www.w3.org/2000/svg" viewBox="0 0 24 24"><defs><style>.a{fill:none;stroke:currentColor;stroke-linecap:round;stroke-linejoin:round;stroke-width:1.5px;}</style></defs><title>architecture-well</title><path class="a" d="M4.75,18h14.5a1,1,0,0,1,1,1v3.5a0,0,0,0,1,0,0H3.75a0,0,0,0,1,0,0V19A1,1,0,0,1,4.75,18Z"/><line class="a" x1="5.25" y1="18" x2="5.25" y2="6"/><line class="a" x1="18.75" y1="18" x2="18.75" y2="6"/><path class="a" d="M20.671,5.013A.749.749,0,0,1,19.959,6H4.041a.749.749,0,0,1-.712-.987l.829-2.487A1.5,1.5,0,0,1,5.581,1.5H18.419a1.5,1.5,0,0,1,1.423,1.026Z"/><line class="a" x1="12" y1="6" x2="12" y2="10.5"/><polygon class="a" points="9.75 10.5 14.25 10.5 13.5 15 10.5 15 9.75 10.5"/><line class="a" x1="0.75" y1="22.5" x2="23.25" y2="22.5"/></svg>