<svg xmlns="http://www.w3.org/2000/svg" viewBox="0 0 24 24"><defs><style>.a{fill:none;stroke:currentColor;stroke-linecap:round;stroke-linejoin:round;stroke-width:1.5px;}</style></defs><title>architecture-fence-2</title><path class="a" d="M7.5,20.75h-3A1.5,1.5,0,0,1,3,19.25V5.75L4.607,3.072a.75.75,0,0,1,1.286,0L7.5,5.75Z"/><path class="a" d="M12,20.75H7.5v-15L9.107,3.072a.75.75,0,0,1,1.286,0L12,5.75Z"/><path class="a" d="M16.5,20.75H12v-15l1.607-2.678a.75.75,0,0,1,1.286,0L16.5,5.75Z"/><path class="a" d="M21,19.25a1.5,1.5,0,0,1-1.5,1.5h-3v-15l1.607-2.678a.75.75,0,0,1,1.286,0L21,5.75Z"/><line class="a" x1="0.75" y1="8.75" x2="23.25" y2="8.75"/><line class="a" x1="0.75" y1="16.25" x2="23.25" y2="16.25"/></svg>