<svg id="Regular" xmlns="http://www.w3.org/2000/svg" viewBox="0 0 24 24"><defs><style>.cls-1{fill:none;stroke:currentColor;stroke-linecap:round;stroke-linejoin:round;stroke-width:1.5px;}</style></defs><title>archery-bow-1</title><line class="cls-1" x1="23.25" y1="0.75" x2="7.5" y2="16.5"/><polygon class="cls-1" points="0.75 20.25 4.5 16.5 7.5 16.5 7.5 19.5 3.75 23.25 3.75 20.25 0.75 20.25"/><circle class="cls-1" cx="3" cy="3" r="2.25"/><polyline class="cls-1" points="19.5 0.75 23.25 0.75 23.25 4.5"/><line class="cls-1" x1="3" y1="5.25" x2="3" y2="14.25"/><circle class="cls-1" cx="21" cy="21" r="2.25"/><path class="cls-1" d="M21,18.75V9.565a.748.748,0,0,0-.52-.713,8.789,8.789,0,0,1-5.332-5.331A.747.747,0,0,0,14.435,3H5.25"/><line class="cls-1" x1="18.75" y1="21" x2="9.75" y2="21"/></svg>