<svg xmlns="http://www.w3.org/2000/svg" viewBox="0 0 24 24"><defs><style>.a{fill:none;stroke:currentColor;stroke-linecap:round;stroke-linejoin:round;stroke-width:1.5px;}</style></defs><title>architecture-fence</title><path class="a" d="M5.25,19.542a1.5,1.5,0,0,1-1.5,1.5H2.25a1.5,1.5,0,0,1-1.5-1.5V6.042L2.357,3.364a.75.75,0,0,1,1.286,0L5.25,6.042Z"/><path class="a" d="M14.25,19.542a1.5,1.5,0,0,1-1.5,1.5h-1.5a1.5,1.5,0,0,1-1.5-1.5V6.042l1.607-2.678a.75.75,0,0,1,1.286,0L14.25,6.042Z"/><path class="a" d="M23.25,19.542a1.5,1.5,0,0,1-1.5,1.5h-1.5a1.5,1.5,0,0,1-1.5-1.5V6.042l1.607-2.678a.75.75,0,0,1,1.286,0L23.25,6.042Z"/><line class="a" x1="5.25" y1="9.042" x2="9.75" y2="9.042"/><line class="a" x1="14.25" y1="9.042" x2="18.75" y2="9.042"/><line class="a" x1="5.25" y1="18.042" x2="9.75" y2="18.042"/><line class="a" x1="14.25" y1="18.042" x2="18.75" y2="18.042"/></svg>