<svg xmlns="http://www.w3.org/2000/svg" viewBox="0 0 24 24"><defs><style>.a{fill:none;stroke:currentColor;stroke-linecap:round;stroke-linejoin:round;stroke-width:1.5px;}</style></defs><title>architecture-door-retro</title><path class="a" d="M19.5,9.75a9,9,0,0,0-18,0v12A1.5,1.5,0,0,0,3,23.25H18a1.5,1.5,0,0,0,1.5-1.5Z"/><line class="a" x1="7.5" y1="1.262" x2="7.5" y2="23.25"/><line class="a" x1="13.5" y1="1.262" x2="13.5" y2="23.25"/><path class="a" d="M4.5,13.125a.375.375,0,0,1,.375.375"/><path class="a" d="M4.125,13.5a.375.375,0,0,1,.375-.375"/><path class="a" d="M4.5,13.875a.375.375,0,0,1-.375-.375"/><path class="a" d="M4.875,13.5a.375.375,0,0,1-.375.375"/><line class="a" x1="18" y1="18.75" x2="22.5" y2="18.75"/><line class="a" x1="18" y1="11.25" x2="22.5" y2="11.25"/></svg>