<svg id="Regular" xmlns="http://www.w3.org/2000/svg" viewBox="0 0 24 24"><defs><style>.cls-1{fill:none;stroke:currentColor;stroke-linecap:round;stroke-linejoin:round;stroke-width:1.5px;}</style></defs><title>armadillo</title><path class="cls-1" d="M19.5,13.091c0,2.659-1.5,2.659-6.75,2.659S6,15.75,6,13.091A6.927,6.927,0,0,1,12.75,6,6.927,6.927,0,0,1,19.5,13.091Z"/><path class="cls-1" d="M6.408,10.657C4.133,9.663.75,10.361.75,12.75.75,15,6,15,6,15h.625"/><path class="cls-1" d="M6.921,9.513,6.75,9S6,6.75,4.5,6.75c-.75,0-.75,3-.75,3v.489"/><path class="cls-1" d="M19.381,14.155c0,3,3.869,3.1,3.869,3.1"/><line class="cls-1" x1="8.297" y1="15.608" x2="7.5" y2="18"/><line class="cls-1" x1="10.5" y1="15.75" x2="10.5" y2="18"/><line class="cls-1" x1="15" y1="15.75" x2="15" y2="18"/><line class="cls-1" x1="17.203" y1="15.608" x2="18" y2="18"/></svg>