<svg id="Regular" xmlns="http://www.w3.org/2000/svg" viewBox="0 0 24 24"><defs><style>.cls-1{fill:none;stroke:currentColor;stroke-linecap:round;stroke-linejoin:round;stroke-width:1.5px;}</style></defs><title>armchair-2</title><path class="cls-1" d="M19.5,15.75a1.5,1.5,0,0,1-1.5,1.5H10.722a4.5,4.5,0,0,1-4.465-3.941L5.486,5.988A2.5,2.5,0,0,0,3,3.75a1.5,1.5,0,0,1,0-3A6.045,6.045,0,0,1,9.025,6.311L9.5,12.28a2.249,2.249,0,0,0,2.232,1.97H18A1.5,1.5,0,0,1,19.5,15.75Z"/><line class="cls-1" x1="9.301" y1="9.75" x2="17.25" y2="9.75"/><path class="cls-1" d="M19.5,15.825a3.75,3.75,0,0,1-.748,7.425H5.25"/></svg>