<svg xmlns="http://www.w3.org/2000/svg" viewBox="0 0 24 24"><defs><style>.a{fill:none;stroke:currentColor;stroke-linecap:round;stroke-linejoin:round;stroke-width:1.5px;}</style></defs><title>army-woman</title><line class="a" x1="3.957" y1="17.25" x2="20.043" y2="17.25"/><line class="a" x1="2.19" y1="20.25" x2="21.81" y2="20.25"/><path class="a" d="M17.25,6V2.25a1.5,1.5,0,0,0-1.5-1.5H8.25a1.5,1.5,0,0,0-1.5,1.5V6a5.25,5.25,0,0,0,10.5,0Z"/><line class="a" x1="6.804" y1="6.75" x2="17.196" y2="6.75"/><line class="a" x1="6.75" y1="3.75" x2="17.25" y2="3.75"/><path class="a" d="M22.473,23.25a10.5,10.5,0,0,0-20.946,0"/><path class="a" d="M6.8,6.75S6.75,10.5,3.75,12"/><path class="a" d="M17.2,6.75S17.25,10.5,20.25,12"/></svg>