<svg xmlns="http://www.w3.org/2000/svg" viewBox="0 0 24 24"><defs><style>.a{fill:none;stroke:currentColor;stroke-linecap:round;stroke-linejoin:round;stroke-width:1.5px;}</style></defs><title>army-sword-fight</title><path class="a" d="M23.05,9.725A11.264,11.264,0,0,0,14.275.95"/><path class="a" d="M9.775.95A11.264,11.264,0,0,0,1,9.725"/><path class="a" d="M1,14.225A11.264,11.264,0,0,0,9.775,23"/><path class="a" d="M14.275,23a11.264,11.264,0,0,0,8.775-8.775"/><path class="a" d="M12.025,4.1a.375.375,0,0,1,.375.375"/><path class="a" d="M11.65,4.475a.375.375,0,0,1,.375-.375"/><path class="a" d="M12.025,4.85a.375.375,0,0,1-.375-.375"/><path class="a" d="M12.4,4.475a.375.375,0,0,1-.375.375"/><path class="a" d="M12.025,19.1a.375.375,0,0,1,.375.375"/><path class="a" d="M11.65,19.475a.375.375,0,0,1,.375-.375"/><path class="a" d="M12.025,19.85a.375.375,0,0,1-.375-.375"/><path class="a" d="M12.4,19.475a.375.375,0,0,1-.375.375"/><path class="a" d="M4.525,11.6a.375.375,0,0,1,.375.375"/><path class="a" d="M4.15,11.975a.375.375,0,0,1,.375-.375"/><path class="a" d="M4.525,12.35a.375.375,0,0,1-.375-.375"/><path class="a" d="M4.9,11.975a.375.375,0,0,1-.375.375"/><path class="a" d="M19.525,11.6a.375.375,0,0,1,.375.375"/><path class="a" d="M19.15,11.975a.375.375,0,0,1,.375-.375"/><path class="a" d="M19.525,12.35a.375.375,0,0,1-.375-.375"/><path class="a" d="M19.9,11.975a.375.375,0,0,1-.375.375"/><line class="a" x1="6.775" y1="6.725" x2="17.275" y2="17.225"/><line class="a" x1="13.525" y1="16.475" x2="16.525" y2="13.475"/><line class="a" x1="17.275" y1="6.725" x2="6.775" y2="17.225"/><line class="a" x1="10.525" y1="16.475" x2="7.525" y2="13.475"/></svg>