<svg xmlns="http://www.w3.org/2000/svg" viewBox="0 0 24 24"><defs><style>.a{fill:none;stroke:currentColor;stroke-linecap:round;stroke-linejoin:round;stroke-width:1.5px;}</style></defs><title>army-arrow</title><line class="a" x1="18.682" y1="4.962" x2="6.485" y2="17.16"/><path class="a" d="M19.055,2.161a1.5,1.5,0,0,0-.666,2.508l.587.587a1.5,1.5,0,0,0,2.508-.666L22.4,1.25Z"/><path class="a" d="M5.752,22.135a.75.75,0,0,1-1.242-.293l-.677-2.03L1.8,19.135a.751.751,0,0,1-.294-1.242l.733-.733A3,3,0,1,1,6.485,21.4Z"/><line class="a" x1="5.107" y1="4.962" x2="17.305" y2="17.16"/><path class="a" d="M4.735,2.161A1.5,1.5,0,0,1,5.4,4.669l-.587.587A1.5,1.5,0,0,1,2.306,4.59L1.4,1.25Z"/><path class="a" d="M18.038,22.135a.75.75,0,0,0,1.242-.293l.676-2.03,2.031-.677a.75.75,0,0,0,.293-1.242l-.733-.733A3,3,0,0,0,17.305,21.4Z"/></svg>