<svg xmlns="http://www.w3.org/2000/svg" viewBox="0 0 24 24"><defs><style>.a{fill:none;stroke:currentColor;stroke-linecap:round;stroke-linejoin:round;stroke-width:1.5px;}</style></defs><title>army-dog-tag</title><rect class="a" x="7" y="8.25" width="10.5" height="15" rx="3" ry="3"/><line class="a" x1="11.5" y1="17.25" x2="13" y2="17.25"/><line class="a" x1="7" y1="17.25" x2="8.5" y2="17.25"/><line class="a" x1="16" y1="17.25" x2="17.5" y2="17.25"/><path class="a" d="M12.25,11.625a.375.375,0,0,1,.375.375"/><path class="a" d="M11.875,12a.375.375,0,0,1,.375-.375"/><path class="a" d="M12.25,12.375A.375.375,0,0,1,11.875,12"/><path class="a" d="M12.625,12a.375.375,0,0,1-.375.375"/><line class="a" x1="4" y1="0.75" x2="5.5" y2="2.25"/><line class="a" x1="7.75" y1="4.5" x2="9.25" y2="6"/><line class="a" x1="20.5" y1="0.75" x2="19" y2="2.25"/><line class="a" x1="16.75" y1="4.5" x2="15.25" y2="6"/></svg>