<svg xmlns="http://www.w3.org/2000/svg" viewBox="0 0 24 24"><defs><style>.a{fill:none;stroke:currentColor;stroke-linecap:round;stroke-linejoin:round;stroke-width:1.5px;}</style></defs><title>army-symbol-artillery-1</title><rect class="a" x="0.75" y="4.25" width="22.5" height="15" rx="1.5" ry="1.5"/><path class="a" d="M15.75,8.75H8.25a3,3,0,0,0,0,6h7.5a3,3,0,0,0,0-6Z"/><path class="a" d="M12,11.375a.375.375,0,0,1,.375.375"/><path class="a" d="M11.625,11.75A.375.375,0,0,1,12,11.375"/><path class="a" d="M12,12.125a.375.375,0,0,1-.375-.375"/><path class="a" d="M12.375,11.75a.375.375,0,0,1-.375.375"/></svg>