<svg xmlns="http://www.w3.org/2000/svg" viewBox="0 0 24 24"><defs><style>.a{fill:none;stroke:currentColor;stroke-linecap:round;stroke-linejoin:round;stroke-width:1.5px;}</style></defs><title>army-dog-tag-1</title><path class="a" d="M17.972,4.9a2.993,2.993,0,0,1,1.319,2.482V19.618a3.011,3.011,0,0,1-2.27,2.912,17.741,17.741,0,0,1-5.25.72,17.73,17.73,0,0,1-5.25-.72A3.011,3.011,0,0,1,4.25,19.618V7.382A3.011,3.011,0,0,1,6.521,4.47a17.658,17.658,0,0,1,4.309-.7"/><line class="a" x1="11.771" y1="7.5" x2="17.771" y2="0.75"/><line class="a" x1="8.646" y1="3.984" x2="5.771" y2="0.75"/><line class="a" x1="12.521" y1="11.25" x2="12.521" y2="18.75"/><line class="a" x1="9.521" y1="18.75" x2="9.521" y2="15.75"/><line class="a" x1="9.521" y1="12.75" x2="9.521" y2="11.25"/></svg>