<svg xmlns="http://www.w3.org/2000/svg" viewBox="0 0 24 24"><defs><style>.a{fill:none;stroke:currentColor;stroke-linecap:round;stroke-linejoin:round;stroke-width:1.5px;}</style></defs><title>army-arrow-shield</title><path class="a" d="M3.118,2.561A1.487,1.487,0,0,0,2.25,3.923v7.614A11.907,11.907,0,0,0,9.882,22.65l1.041.4a3,3,0,0,0,2.154,0l1.041-.4A11.907,11.907,0,0,0,21.75,11.537V3.923a1.487,1.487,0,0,0-.868-1.362A21.7,21.7,0,0,0,12,.75,21.7,21.7,0,0,0,3.118,2.561Z"/><polyline class="a" points="10.5 7.5 12 5.25 13.5 7.5"/><polyline class="a" points="9.75 18 12 15 14.25 18"/><line class="a" x1="12" y1="5.25" x2="12" y2="15"/><polyline class="a" points="6.75 11.25 8.25 9.75 8.25 14.25"/><polyline class="a" points="17.25 11.25 15.75 9.75 15.75 14.25"/></svg>