<svg id="Regular" xmlns="http://www.w3.org/2000/svg" viewBox="0 0 24 24"><defs><style>.cls-1{fill:none;stroke:currentColor;stroke-linecap:round;stroke-linejoin:round;stroke-width:1.5px;}</style></defs><title>arrow-thick-circle-bottom-right-corner-1</title><circle class="cls-1" cx="12" cy="12" r="11.25"/><path class="cls-1" d="M8.132,6.231a.75.75,0,0,1,1.061,0L13.966,11V8.572a.75.75,0,0,1,.75-.75H16.4a.75.75,0,0,1,.75.75v8.046a.75.75,0,0,1-.75.75H8.352a.75.75,0,0,1-.75-.75V14.936a.75.75,0,0,1,.75-.75h2.432L6.011,9.413a.75.75,0,0,1,0-1.061Z"/></svg>