<svg id="Regular" xmlns="http://www.w3.org/2000/svg" viewBox="0 0 24 24"><defs><style>.cls-1{fill:none;stroke:currentColor;stroke-linecap:round;stroke-linejoin:round;stroke-width:1.5px;}</style></defs><title>arrow-dot-up</title><rect class="cls-1" x="0.75" y="0.75" width="22.5" height="22.5" rx="2" ry="2" transform="translate(24 0) rotate(90)"/><path class="cls-1" d="M11.625,4.5A.375.375,0,1,1,12,4.875a.375.375,0,0,1-.375-.375"/><path class="cls-1" d="M13.5,7.875a.375.375,0,1,1,.375.375.375.375,0,0,1-.375-.375"/><path class="cls-1" d="M13.5,11.625a.375.375,0,1,1,.375.375.375.375,0,0,1-.375-.375"/><path class="cls-1" d="M17.25,11.625a.375.375,0,1,1,.375.375.375.375,0,0,1-.375-.375"/><path class="cls-1" d="M9.75,7.875a.375.375,0,1,1,.375.375.375.375,0,0,1-.375-.375"/><path class="cls-1" d="M9.75,11.625a.375.375,0,1,1,.375.375.375.375,0,0,1-.375-.375"/><path class="cls-1" d="M13.5,15.375a.375.375,0,1,1,.375.375.375.375,0,0,1-.375-.375"/><path class="cls-1" d="M9.75,15.375a.375.375,0,1,1,.375.375.375.375,0,0,1-.375-.375"/><path class="cls-1" d="M13.5,19.125a.375.375,0,1,1,.375.375.375.375,0,0,1-.375-.375"/><path class="cls-1" d="M9.75,19.125a.375.375,0,1,1,.375.375.375.375,0,0,1-.375-.375"/><path class="cls-1" d="M6,11.625A.375.375,0,1,1,6.375,12,.375.375,0,0,1,6,11.625"/></svg>