<svg id="Regular" xmlns="http://www.w3.org/2000/svg" viewBox="0 0 24 24"><defs><style>.cls-1{fill:none;stroke:currentColor;stroke-linecap:round;stroke-linejoin:round;stroke-width:1.5px;fill-rule:evenodd;}</style></defs><title>arrow-double-up</title><path class="cls-1" d="M11.75,7.222l-7.1,4.517A.751.751,0,0,1,3.5,11.106V6.545A1.5,1.5,0,0,1,4.2,5.28L10.945.985a1.5,1.5,0,0,1,1.61,0l6.75,4.3A1.5,1.5,0,0,1,20,6.545v4.561a.751.751,0,0,1-1.153.633Z"/><path class="cls-1" d="M11.75,18.616l-7.1,4.517A.751.751,0,0,1,3.5,22.5V17.94a1.5,1.5,0,0,1,.7-1.266l6.75-4.295a1.5,1.5,0,0,1,1.61,0l6.75,4.3A1.5,1.5,0,0,1,20,17.94V22.5a.751.751,0,0,1-1.153.633Z"/></svg>