<svg id="Regular" xmlns="http://www.w3.org/2000/svg" viewBox="0 0 24 24"><defs><style>.cls-1{fill:none;stroke:currentColor;stroke-linecap:round;stroke-linejoin:round;stroke-width:1.5px;}</style></defs><title>arrow-dot-right-1</title><path class="cls-1" d="M21.375,11.375A.375.375,0,1,1,21,11.75a.375.375,0,0,1,.375-.375"/><path class="cls-1" d="M18,13.25a.375.375,0,1,1-.375.375A.375.375,0,0,1,18,13.25"/><path class="cls-1" d="M14.25,13.25a.375.375,0,1,1-.375.375.375.375,0,0,1,.375-.375"/><path class="cls-1" d="M11.25,17a.375.375,0,1,1-.375.375A.375.375,0,0,1,11.25,17"/><path class="cls-1" d="M11.25,20.75a.375.375,0,1,1-.375.375.375.375,0,0,1,.375-.375"/><path class="cls-1" d="M15,17a.375.375,0,1,1-.375.375A.375.375,0,0,1,15,17"/><path class="cls-1" d="M18,9.5a.375.375,0,1,1-.375.375A.375.375,0,0,1,18,9.5"/><path class="cls-1" d="M14.25,9.5a.375.375,0,1,1-.375.375A.375.375,0,0,1,14.25,9.5"/><path class="cls-1" d="M10.5,13.25a.375.375,0,1,1-.375.375.375.375,0,0,1,.375-.375"/><path class="cls-1" d="M10.5,9.5a.375.375,0,1,1-.375.375A.375.375,0,0,1,10.5,9.5"/><path class="cls-1" d="M6.75,13.25a.375.375,0,1,1-.375.375.375.375,0,0,1,.375-.375"/><path class="cls-1" d="M6.75,9.5a.375.375,0,1,1-.375.375A.375.375,0,0,1,6.75,9.5"/><path class="cls-1" d="M3,13.25a.375.375,0,1,1-.375.375A.375.375,0,0,1,3,13.25"/><path class="cls-1" d="M3,9.5a.375.375,0,1,1-.375.375A.375.375,0,0,1,3,9.5"/><path class="cls-1" d="M11.25,5.75a.375.375,0,1,1-.375.375.375.375,0,0,1,.375-.375"/><path class="cls-1" d="M11.25,2a.375.375,0,1,1-.375.375A.375.375,0,0,1,11.25,2"/><path class="cls-1" d="M15,5.75a.375.375,0,1,1-.375.375A.375.375,0,0,1,15,5.75"/></svg>