<svg id="Regular" xmlns="http://www.w3.org/2000/svg" viewBox="0 0 24 24"><defs><style>.cls-1{fill:none;stroke:currentColor;stroke-linecap:round;stroke-linejoin:round;stroke-width:1.5px;}</style></defs><title>arrow-thick-circle-bottom-left-corner-1</title><circle class="cls-1" cx="12" cy="12" r="11.25"/><path class="cls-1" d="M15.868,6.231a.75.75,0,0,0-1.061,0L10.034,11V8.572a.75.75,0,0,0-.75-.75H7.6a.75.75,0,0,0-.75.75v8.046a.75.75,0,0,0,.75.75h8.046a.75.75,0,0,0,.75-.75V14.936a.75.75,0,0,0-.75-.75H13.216l4.773-4.773a.75.75,0,0,0,0-1.061Z"/></svg>