<svg id="Regular" xmlns="http://www.w3.org/2000/svg" viewBox="0 0 24 24"><defs><style>.cls-1{fill:none;stroke:currentColor;stroke-linecap:round;stroke-linejoin:round;stroke-width:1.5px;}</style></defs><title>arrow-thick-circle-up-1</title><circle class="cls-1" cx="12" cy="12" r="11.25"/><path class="cls-1" d="M13.5,18.75a.75.75,0,0,0,.75-.75V11.25l1.72,1.72a.749.749,0,0,0,1.06,0l1.19-1.19a.749.749,0,0,0,0-1.06L12.53,5.03a.749.749,0,0,0-1.06,0L5.78,10.72a.749.749,0,0,0,0,1.06l1.19,1.19a.749.749,0,0,0,1.06,0l1.72-1.72V18a.75.75,0,0,0,.75.75Z"/></svg>