<svg id="Regular" xmlns="http://www.w3.org/2000/svg" viewBox="0 0 24 24"><defs><style>.cls-1{fill:none;stroke:currentColor;stroke-linecap:round;stroke-linejoin:round;stroke-width:1.5px;fill-rule:evenodd;}</style></defs><title>arrow-double-down-1</title><path class="cls-1" d="M5.461,14.59,12,18.752l6.538-4.162c.667-.424,1.711-.08,1.711.565v2.411a1.372,1.372,0,0,1-.7,1.129L12.68,23.064a1.332,1.332,0,0,1-1.358,0L4.454,18.7a1.372,1.372,0,0,1-.7-1.129V15.155C3.75,14.51,4.794,14.166,5.461,14.59Z"/><path class="cls-1" d="M5.461,6.187,12,10.349l6.539-4.162c.667-.424,1.711-.08,1.711.564V8.522a1.371,1.371,0,0,1-.7,1.129l-6.867,4.37a1.337,1.337,0,0,1-1.358,0L4.454,9.651a1.371,1.371,0,0,1-.7-1.129V6.751C3.75,6.107,4.794,5.763,5.461,6.187Z"/><polyline class="cls-1" points="4.5 0.75 12 6 19.5 0.75"/></svg>