<svg id="Regular" xmlns="http://www.w3.org/2000/svg" viewBox="0 0 24 24"><defs><style>.cls-1{fill:none;stroke:currentColor;stroke-linecap:round;stroke-linejoin:round;stroke-width:1.5px;fill-rule:evenodd;}</style></defs><title>arrow-double-right-1</title><path class="cls-1" d="M14.59,18.289l4.162-6.54L14.59,5.211c-.424-.667-.08-1.711.565-1.711h2.411a1.372,1.372,0,0,1,1.129.7l4.369,6.866a1.332,1.332,0,0,1,0,1.358L18.7,19.3a1.372,1.372,0,0,1-1.129.7H15.155C14.51,20,14.166,18.956,14.59,18.289Z"/><path class="cls-1" d="M6.187,18.289l4.162-6.539L6.187,5.211c-.424-.667-.08-1.711.564-1.711H8.522a1.371,1.371,0,0,1,1.129.7l4.37,6.867a1.337,1.337,0,0,1,0,1.358L9.651,19.3a1.371,1.371,0,0,1-1.129.7H6.751C6.107,20,5.763,18.956,6.187,18.289Z"/><polyline class="cls-1" points="0.75 19.25 6 11.75 0.75 4.25"/></svg>