<svg id="Regular" xmlns="http://www.w3.org/2000/svg" viewBox="0 0 24 24"><defs><style>.cls-1{fill:none;stroke:currentColor;stroke-linecap:round;stroke-linejoin:round;stroke-width:1.5px;}</style></defs><title>arrow-dot-corner-down-left</title><rect class="cls-1" x="0.75" y="0.75" width="22.5" height="22.5" rx="2" ry="2"/><path class="cls-1" d="M7.765,7.235a.375.375,0,1,1-.53,0,.374.374,0,0,1,.53,0"/><path class="cls-1" d="M8.515,12.485a.375.375,0,1,1-.53,0,.374.374,0,0,1,.53,0"/><path class="cls-1" d="M11.515,15.485a.375.375,0,1,1-.53,0,.374.374,0,0,1,.53,0"/><path class="cls-1" d="M10.765,10.235a.375.375,0,1,1-.53,0,.374.374,0,0,1,.53,0"/><path class="cls-1" d="M13.765,13.235a.375.375,0,1,1-.53,0,.374.374,0,0,1,.53,0"/><path class="cls-1" d="M13.015,7.985a.375.375,0,1,1-.53,0,.374.374,0,0,1,.53,0"/><path class="cls-1" d="M16.015,10.985a.375.375,0,1,1-.53,0,.374.374,0,0,1,.53,0"/><path class="cls-1" d="M15.265,5.735a.375.375,0,1,1-.53,0,.374.374,0,0,1,.53,0"/><path class="cls-1" d="M18.265,8.735a.375.375,0,1,1-.53,0,.374.374,0,0,1,.53,0"/><path class="cls-1" d="M7.765,16.235a.375.375,0,1,1-.53,0,.374.374,0,0,1,.53,0"/><path class="cls-1" d="M16.765,16.235a.375.375,0,1,1-.53,0,.374.374,0,0,1,.53,0"/></svg>