<svg id="Regular" xmlns="http://www.w3.org/2000/svg" viewBox="0 0 24 24"><defs><style>.cls-1{fill:none;stroke:currentColor;stroke-linecap:round;stroke-linejoin:round;stroke-width:1.5px;}</style></defs><title>arrow-dot-down</title><rect class="cls-1" x="0.75" y="0.75" width="22.5" height="22.5" rx="2" ry="2" transform="translate(0 24) rotate(-90)"/><path class="cls-1" d="M12.375,19.5A.375.375,0,1,1,12,19.125a.375.375,0,0,1,.375.375"/><path class="cls-1" d="M10.5,16.125a.375.375,0,1,1-.375-.375.375.375,0,0,1,.375.375"/><path class="cls-1" d="M10.5,12.375A.375.375,0,1,1,10.125,12a.375.375,0,0,1,.375.375"/><path class="cls-1" d="M6.75,12.375A.375.375,0,1,1,6.375,12a.375.375,0,0,1,.375.375"/><path class="cls-1" d="M14.25,16.125a.375.375,0,1,1-.375-.375.375.375,0,0,1,.375.375"/><path class="cls-1" d="M14.25,12.375A.375.375,0,1,1,13.875,12a.375.375,0,0,1,.375.375"/><path class="cls-1" d="M10.5,8.625a.375.375,0,1,1-.375-.375.375.375,0,0,1,.375.375"/><path class="cls-1" d="M14.25,8.625a.375.375,0,1,1-.375-.375.375.375,0,0,1,.375.375"/><path class="cls-1" d="M10.5,4.875a.375.375,0,1,1-.375-.375.375.375,0,0,1,.375.375"/><path class="cls-1" d="M14.25,4.875a.375.375,0,1,1-.375-.375.375.375,0,0,1,.375.375"/><path class="cls-1" d="M18,12.375A.375.375,0,1,1,17.625,12a.375.375,0,0,1,.375.375"/></svg>