<svg id="Regular" xmlns="http://www.w3.org/2000/svg" viewBox="0 0 24 24"><defs><style>.cls-1{fill:none;stroke:currentColor;stroke-linecap:round;stroke-linejoin:round;stroke-width:1.5px;}</style></defs><title>arrow-thick-dot-left</title><path class="cls-1" d="M2.875,11.5a.375.375,0,1,1-.375.375.375.375,0,0,1,.375-.375"/><path class="cls-1" d="M5.875,7a.375.375,0,1,1-.375.375A.375.375,0,0,1,5.875,7"/><path class="cls-1" d="M8.875,20.5a.375.375,0,1,1,.375-.375.375.375,0,0,1-.375.375"/><path class="cls-1" d="M8.875,11.5a.375.375,0,1,1-.375.375.375.375,0,0,1,.375-.375"/><path class="cls-1" d="M14.875,11.5a.375.375,0,1,1-.375.375.375.375,0,0,1,.375-.375"/><path class="cls-1" d="M20.875,11.5a.375.375,0,1,1-.375.375.375.375,0,0,1,.375-.375"/><path class="cls-1" d="M5.875,16.75a.375.375,0,1,1,.375-.375.375.375,0,0,1-.375.375"/><path class="cls-1" d="M8.875,3.25a.375.375,0,1,1-.375.375.375.375,0,0,1,.375-.375"/></svg>