<svg id="Regular" xmlns="http://www.w3.org/2000/svg" viewBox="0 0 24 24"><defs><style>.cls-1{fill:none;stroke:currentColor;stroke-linecap:round;stroke-linejoin:round;stroke-width:1.5px;}</style></defs><title>arrow-thick-circle-bottom-left-corner-2</title><circle class="cls-1" cx="12" cy="12" r="11.25"/><path class="cls-1" d="M16.826,7.174a2.249,2.249,0,0,0-3.182,0L9.932,10.886V9.3A1.591,1.591,0,0,0,8.341,7.7h0A1.591,1.591,0,0,0,6.75,9.3V16.5a.75.75,0,0,0,.75.75h7.205A1.591,1.591,0,0,0,16.3,15.659h0a1.591,1.591,0,0,0-1.591-1.591H13.114l3.712-3.712a2.249,2.249,0,0,0,0-3.182Z"/></svg>