<svg id="Regular" xmlns="http://www.w3.org/2000/svg" viewBox="0 0 24 24"><defs><style>.cls-1{fill:none;stroke:currentColor;stroke-linecap:round;stroke-linejoin:round;stroke-width:1.5px;}</style></defs><title>arrow-thick-down-3</title><path class="cls-1" d="M20.25,10.757a.75.75,0,0,0-1.28-.53l-4.72,4.72V1.5A.75.75,0,0,0,13.5.75h-3a.75.75,0,0,0-.75.75V14.947l-4.72-4.72a.75.75,0,0,0-1.28.53v3.932a1.5,1.5,0,0,0,.439,1.061l7.281,7.28a.749.749,0,0,0,1.06,0l7.281-7.28a1.5,1.5,0,0,0,.439-1.061Z"/></svg>