<svg id="Regular" xmlns="http://www.w3.org/2000/svg" viewBox="0 0 24 24"><defs><style>.cls-1{fill:none;stroke:currentColor;stroke-linecap:round;stroke-linejoin:round;stroke-width:1.5px;fill-rule:evenodd;}</style></defs><title>arrow-double-left</title><path class="cls-1" d="M7.222,11.75l4.517,7.1A.751.751,0,0,1,11.106,20H6.545a1.5,1.5,0,0,1-1.265-.7L.985,12.555a1.5,1.5,0,0,1,0-1.61L5.28,4.2a1.5,1.5,0,0,1,1.265-.7h4.561a.751.751,0,0,1,.633,1.153Z"/><path class="cls-1" d="M18.616,11.75l4.517,7.1A.751.751,0,0,1,22.5,20H17.94a1.5,1.5,0,0,1-1.266-.7l-4.295-6.75a1.5,1.5,0,0,1,0-1.61l4.3-6.75a1.5,1.5,0,0,1,1.266-.7H22.5a.751.751,0,0,1,.633,1.153Z"/></svg>