<svg id="Regular" xmlns="http://www.w3.org/2000/svg" viewBox="0 0 24 24"><defs><style>.cls-1{fill:none;stroke:currentColor;stroke-linecap:round;stroke-linejoin:round;stroke-width:1.5px;}</style></defs><title>arrow-thick-right-bottom-corner-4</title><rect class="cls-1" x="0.75" y="0.75" width="22.5" height="22.5" rx="3" ry="3" transform="translate(0 24) rotate(-90)"/><path class="cls-1" d="M8.765,5.583l5.471,5.471V6.5a.75.75,0,0,1,1.28-.53l1.3,1.3a1.5,1.5,0,0,1,.439,1.06V16.5a.75.75,0,0,1-.75.75H8.325a1.5,1.5,0,0,1-1.06-.439L5.97,15.516a.75.75,0,0,1,.53-1.28h4.554L5.583,8.765a.75.75,0,0,1,0-1.061L7.7,5.583A.75.75,0,0,1,8.765,5.583Z"/></svg>