<svg id="Regular" xmlns="http://www.w3.org/2000/svg" viewBox="0 0 24 24"><defs><style>.cls-1{fill:none;stroke:currentColor;stroke-linecap:round;stroke-linejoin:round;stroke-width:1.5px;}</style></defs><title>arrow-thick-circle-left-2</title><circle class="cls-1" cx="12" cy="12" r="11.25"/><path class="cls-1" d="M18.75,12A2.25,2.25,0,0,0,16.5,9.75H11.25l1.125-1.125a1.592,1.592,0,0,0,0-2.25h0a1.592,1.592,0,0,0-2.25,0L5.03,11.47a.749.749,0,0,0,0,1.06l5.1,5.1a1.592,1.592,0,0,0,2.25,0h0a1.592,1.592,0,0,0,0-2.25L11.25,14.25H16.5A2.25,2.25,0,0,0,18.75,12Z"/></svg>