<svg id="Regular" xmlns="http://www.w3.org/2000/svg" viewBox="0 0 24 24"><defs><style>.cls-1{fill:none;stroke:currentColor;stroke-linecap:round;stroke-linejoin:round;stroke-width:1.5px;}</style></defs><title>arrow-thick-right-bottom-corner-3</title><path class="cls-1" d="M3.81,6.341,5.931,4.22a.75.75,0,0,1,1.061,0L16.5,13.728V7.16a.75.75,0,0,1,1.28-.53l2.781,2.78A1.5,1.5,0,0,1,21,10.471V20.66a.75.75,0,0,1-.75.75H10.061A1.5,1.5,0,0,1,9,20.971L6.22,18.19a.75.75,0,0,1,.53-1.28h6.568L3.81,7.4A.75.75,0,0,1,3.81,6.341Z"/></svg>