<svg id="Regular" xmlns="http://www.w3.org/2000/svg" viewBox="0 0 24 24"><defs><style>.cls-1{fill:none;stroke:currentColor;stroke-linecap:round;stroke-linejoin:round;stroke-width:1.5px;}</style></defs><title>arrow-thick-circle-down-1</title><circle class="cls-1" cx="12" cy="12" r="11.25"/><path class="cls-1" d="M10.5,5.25A.75.75,0,0,0,9.75,6v6.75L8.03,11.03a.749.749,0,0,0-1.06,0L5.78,12.22a.749.749,0,0,0,0,1.06l5.69,5.69a.749.749,0,0,0,1.06,0l5.69-5.69a.749.749,0,0,0,0-1.06l-1.19-1.19a.749.749,0,0,0-1.06,0l-1.72,1.72V6a.75.75,0,0,0-.75-.75Z"/></svg>