<svg id="Regular" xmlns="http://www.w3.org/2000/svg" viewBox="0 0 24 24"><defs><style>.cls-1{fill:none;stroke:currentColor;stroke-linecap:round;stroke-linejoin:round;stroke-width:1.5px;}</style></defs><title>arrow-thick-left-bottom-corner-3</title><path class="cls-1" d="M20.53,5.591,18.409,3.47a.75.75,0,0,0-1.061,0L7.84,12.978V6.41a.75.75,0,0,0-1.28-.53L3.779,8.66A1.5,1.5,0,0,0,3.34,9.721V19.91a.75.75,0,0,0,.75.75H14.279a1.5,1.5,0,0,0,1.061-.439l2.78-2.781a.75.75,0,0,0-.53-1.28H11.022L20.53,6.652A.75.75,0,0,0,20.53,5.591Z"/></svg>