<svg id="Regular" xmlns="http://www.w3.org/2000/svg" viewBox="0 0 24 24"><defs><style>.cls-1{fill:none;stroke:currentColor;stroke-linecap:round;stroke-linejoin:round;stroke-width:1.5px;}</style></defs><title>arrow-thick-dot-corner-down-right</title><path class="cls-1" d="M18.11,17.86a.375.375,0,1,1,0,.53.374.374,0,0,1,0-.53"/><path class="cls-1" d="M12.64,17.86a.375.375,0,1,1-.53,0,.374.374,0,0,1,.53,0"/><path class="cls-1" d="M18.64,5.86a.375.375,0,1,1-.53,0,.374.374,0,0,1,.53,0"/><path class="cls-1" d="M13.61,13.36a.375.375,0,1,1,0,.53.374.374,0,0,1,0-.53"/><path class="cls-1" d="M9.11,8.86a.375.375,0,1,1,0,.53.374.374,0,0,1,0-.53"/><path class="cls-1" d="M4.61,4.36a.375.375,0,1,1,0,.53.374.374,0,0,1,0-.53"/><path class="cls-1" d="M18.64,11.86a.375.375,0,1,1-.53,0,.374.374,0,0,1,.53,0"/><path class="cls-1" d="M6.64,17.86a.375.375,0,1,1-.53,0,.374.374,0,0,1,.53,0"/></svg>