<svg id="Regular" xmlns="http://www.w3.org/2000/svg" viewBox="0 0 24 24"><defs><style>.cls-1{fill:none;stroke:currentColor;stroke-linecap:round;stroke-linejoin:round;stroke-width:1.5px;}</style></defs><title>arrow-dot-corner-left-1</title><path class="cls-1" d="M4.821,18.679a.375.375,0,1,1-.53,0,.374.374,0,0,1,.53,0"/><path class="cls-1" d="M5.882,14.966a.375.375,0,1,1-.53,0,.377.377,0,0,1,.53,0"/><path class="cls-1" d="M8.534,12.315a.375.375,0,1,1-.531,0,.375.375,0,0,1,.531,0"/><path class="cls-1" d="M8,7.542a.375.375,0,1,1-.53,0,.374.374,0,0,1,.53,0"/><path class="cls-1" d="M5.352,4.89a.375.375,0,1,1-.531,0,.377.377,0,0,1,.531,0"/><path class="cls-1" d="M5.352,10.193a.375.375,0,1,1-.531,0,.377.377,0,0,1,.531,0"/><path class="cls-1" d="M8.534,17.618a.375.375,0,1,1-.531,0,.375.375,0,0,1,.531,0"/><path class="cls-1" d="M11.185,14.966a.375.375,0,1,1-.53,0,.375.375,0,0,1,.53,0"/><path class="cls-1" d="M11.185,9.663a.375.375,0,1,1-.53,0,.374.374,0,0,1,.53,0"/><path class="cls-1" d="M13.837,12.315a.375.375,0,1,1-.53,0,.375.375,0,0,1,.53,0"/><path class="cls-1" d="M13.837,7.011a.375.375,0,1,1-.53,0,.377.377,0,0,1,.53,0"/><path class="cls-1" d="M16.489,9.663a.375.375,0,1,1-.531,0,.375.375,0,0,1,.531,0"/><path class="cls-1" d="M16.489,4.36a.375.375,0,1,1-.531,0,.375.375,0,0,1,.531,0"/><path class="cls-1" d="M19.14,7.011a.375.375,0,1,1-.53,0,.375.375,0,0,1,.53,0"/><path class="cls-1" d="M15.958,15.5a.375.375,0,1,1-.53,0,.374.374,0,0,1,.53,0"/><path class="cls-1" d="M18.61,18.148a.375.375,0,1,1-.53,0,.377.377,0,0,1,.53,0"/><path class="cls-1" d="M13.307,18.148a.375.375,0,1,1-.531,0,.377.377,0,0,1,.531,0"/></svg>