<svg id="Regular" xmlns="http://www.w3.org/2000/svg" viewBox="0 0 24 24"><defs><style>.cls-1{fill:none;stroke:currentColor;stroke-linecap:round;stroke-linejoin:round;stroke-width:1.5px;fill-rule:evenodd;}</style></defs><title>arrow-double-right</title><path class="cls-1" d="M16.778,12.25l-4.517-7.1A.751.751,0,0,1,12.894,4h4.561a1.5,1.5,0,0,1,1.265.7l4.3,6.75a1.5,1.5,0,0,1,0,1.61l-4.3,6.75a1.5,1.5,0,0,1-1.265.7H12.894a.751.751,0,0,1-.633-1.153Z"/><path class="cls-1" d="M5.384,12.25.867,5.153A.751.751,0,0,1,1.5,4H6.06a1.5,1.5,0,0,1,1.266.7l4.3,6.75a1.5,1.5,0,0,1,0,1.61l-4.3,6.75a1.5,1.5,0,0,1-1.266.7H1.5a.751.751,0,0,1-.633-1.153Z"/></svg>