<svg id="Regular" xmlns="http://www.w3.org/2000/svg" viewBox="0 0 24 24"><defs><style>.cls-1{fill:none;stroke:currentColor;stroke-linecap:round;stroke-linejoin:round;stroke-width:1.5px;}</style></defs><title>arrow-dot-left-1</title><path class="cls-1" d="M2.25,11.375a.375.375,0,1,1-.375.375.375.375,0,0,1,.375-.375"/><path class="cls-1" d="M5.625,9.5a.375.375,0,1,1-.375.375A.375.375,0,0,1,5.625,9.5"/><path class="cls-1" d="M9.375,9.5A.375.375,0,1,1,9,9.875.375.375,0,0,1,9.375,9.5"/><path class="cls-1" d="M12.375,5.75A.375.375,0,1,1,12,6.125a.375.375,0,0,1,.375-.375"/><path class="cls-1" d="M12.375,2A.375.375,0,1,1,12,2.375.375.375,0,0,1,12.375,2"/><path class="cls-1" d="M8.625,5.75a.375.375,0,1,1-.375.375.375.375,0,0,1,.375-.375"/><path class="cls-1" d="M5.625,13.25a.375.375,0,1,1-.375.375.375.375,0,0,1,.375-.375"/><path class="cls-1" d="M9.375,13.25A.375.375,0,1,1,9,13.625a.375.375,0,0,1,.375-.375"/><path class="cls-1" d="M13.125,9.5a.375.375,0,1,1-.375.375.375.375,0,0,1,.375-.375"/><path class="cls-1" d="M13.125,13.25a.375.375,0,1,1-.375.375.375.375,0,0,1,.375-.375"/><path class="cls-1" d="M16.875,9.5a.375.375,0,1,1-.375.375.375.375,0,0,1,.375-.375"/><path class="cls-1" d="M16.875,13.25a.375.375,0,1,1-.375.375.375.375,0,0,1,.375-.375"/><path class="cls-1" d="M20.625,9.5a.375.375,0,1,1-.375.375.375.375,0,0,1,.375-.375"/><path class="cls-1" d="M20.625,13.25a.375.375,0,1,1-.375.375.375.375,0,0,1,.375-.375"/><path class="cls-1" d="M12.375,17a.375.375,0,1,1-.375.375A.375.375,0,0,1,12.375,17"/><path class="cls-1" d="M12.375,20.75a.375.375,0,1,1-.375.375.375.375,0,0,1,.375-.375"/><path class="cls-1" d="M8.625,17a.375.375,0,1,1-.375.375A.375.375,0,0,1,8.625,17"/></svg>