<svg id="Regular" xmlns="http://www.w3.org/2000/svg" viewBox="0 0 24 24"><defs><style>.cls-1{fill:none;stroke:currentColor;stroke-linecap:round;stroke-linejoin:round;stroke-width:1.5px;}</style></defs><title>arrow-dot-down-1</title><path class="cls-1" d="M12,20.875a.375.375,0,1,1-.375.375A.375.375,0,0,1,12,20.875"/><path class="cls-1" d="M10.125,17.5a.375.375,0,1,1-.375.375.375.375,0,0,1,.375-.375"/><path class="cls-1" d="M10.125,13.75a.375.375,0,1,1-.375.375.375.375,0,0,1,.375-.375"/><path class="cls-1" d="M6.375,10.75A.375.375,0,1,1,6,11.125a.375.375,0,0,1,.375-.375"/><path class="cls-1" d="M2.625,10.75a.375.375,0,1,1-.375.375.375.375,0,0,1,.375-.375"/><path class="cls-1" d="M6.375,14.5A.375.375,0,1,1,6,14.875a.375.375,0,0,1,.375-.375"/><path class="cls-1" d="M13.875,17.5a.375.375,0,1,1-.375.375.375.375,0,0,1,.375-.375"/><path class="cls-1" d="M13.875,13.75a.375.375,0,1,1-.375.375.375.375,0,0,1,.375-.375"/><path class="cls-1" d="M10.125,10a.375.375,0,1,1-.375.375A.375.375,0,0,1,10.125,10"/><path class="cls-1" d="M13.875,10a.375.375,0,1,1-.375.375A.375.375,0,0,1,13.875,10"/><path class="cls-1" d="M10.125,6.25a.375.375,0,1,1-.375.375.375.375,0,0,1,.375-.375"/><path class="cls-1" d="M13.875,6.25a.375.375,0,1,1-.375.375.375.375,0,0,1,.375-.375"/><path class="cls-1" d="M10.125,2.5a.375.375,0,1,1-.375.375.375.375,0,0,1,.375-.375"/><path class="cls-1" d="M13.875,2.5a.375.375,0,1,1-.375.375.375.375,0,0,1,.375-.375"/><path class="cls-1" d="M17.625,10.75a.375.375,0,1,1-.375.375.375.375,0,0,1,.375-.375"/><path class="cls-1" d="M21.375,10.75a.375.375,0,1,1-.375.375.375.375,0,0,1,.375-.375"/><path class="cls-1" d="M17.625,14.5a.375.375,0,1,1-.375.375.375.375,0,0,1,.375-.375"/></svg>