<svg id="Regular" xmlns="http://www.w3.org/2000/svg" viewBox="0 0 24 24"><defs><style>.cls-1{fill:none;stroke:currentColor;stroke-linecap:round;stroke-linejoin:round;stroke-width:1.5px;fill-rule:evenodd;}</style></defs><title>arrow-double-up-1</title><path class="cls-1" d="M18.289,9.41l-6.54-4.162L5.211,9.41c-.667.424-1.711.08-1.711-.565V6.434a1.372,1.372,0,0,1,.7-1.129L11.07.936a1.332,1.332,0,0,1,1.358,0L19.3,5.305A1.372,1.372,0,0,1,20,6.434V8.845C20,9.49,18.956,9.834,18.289,9.41Z"/><path class="cls-1" d="M18.289,17.813,11.75,13.651,5.211,17.813c-.667.424-1.711.08-1.711-.564V15.478a1.371,1.371,0,0,1,.7-1.129l6.867-4.37a1.337,1.337,0,0,1,1.358,0l6.867,4.37a1.371,1.371,0,0,1,.7,1.129v1.771C20,17.893,18.956,18.237,18.289,17.813Z"/><polyline class="cls-1" points="19.25 23.25 11.75 18 4.25 23.25"/></svg>