<svg id="Regular" xmlns="http://www.w3.org/2000/svg" viewBox="0 0 24 24"><defs><style>.cls-1{fill:none;stroke:currentColor;stroke-linecap:round;stroke-linejoin:round;stroke-width:1.5px;}</style></defs><title>arrow-thick-down-4</title><rect class="cls-1" x="0.75" y="0.75" width="22.5" height="22.5" rx="3" ry="3" transform="translate(0 24) rotate(-90)"/><path class="cls-1" d="M9.75,6v7.5L6.53,10.28a.75.75,0,0,0-1.28.531v2.068a1.5,1.5,0,0,0,.439,1.06L11.47,19.72a.749.749,0,0,0,1.06,0l5.781-5.781a1.5,1.5,0,0,0,.439-1.06V10.811a.75.75,0,0,0-1.28-.531L14.25,13.5V6a.75.75,0,0,0-.75-.75h-3A.75.75,0,0,0,9.75,6Z"/></svg>