<svg id="Regular" xmlns="http://www.w3.org/2000/svg" viewBox="0 0 24 24"><defs><style>.cls-1{fill:none;stroke:currentColor;stroke-linecap:round;stroke-linejoin:round;stroke-width:1.5px;}</style></defs><title>arrow-thick-dot-up</title><path class="cls-1" d="M11.875,2.5a.375.375,0,1,1-.375.375.375.375,0,0,1,.375-.375"/><path class="cls-1" d="M16.375,5.5A.375.375,0,1,1,16,5.875a.375.375,0,0,1,.375-.375"/><path class="cls-1" d="M3.625,8.5a.375.375,0,1,1-.375.375A.375.375,0,0,1,3.625,8.5"/><path class="cls-1" d="M11.875,8.5a.375.375,0,1,1-.375.375.375.375,0,0,1,.375-.375"/><path class="cls-1" d="M11.875,14.5a.375.375,0,1,1-.375.375.375.375,0,0,1,.375-.375"/><path class="cls-1" d="M11.875,20.5a.375.375,0,1,1-.375.375.375.375,0,0,1,.375-.375"/><path class="cls-1" d="M7.375,5.5A.375.375,0,1,1,7,5.875.375.375,0,0,1,7.375,5.5"/><path class="cls-1" d="M20.125,8.5a.375.375,0,1,1-.375.375.375.375,0,0,1,.375-.375"/></svg>