<svg id="Regular" xmlns="http://www.w3.org/2000/svg" viewBox="0 0 24 24"><defs><style>.cls-1{fill:none;stroke:currentColor;stroke-linecap:round;stroke-linejoin:round;stroke-width:1.5px;}</style></defs><title>arrow-thick-dot-down</title><path class="cls-1" d="M11.875,21.5a.375.375,0,1,1,.375-.375.375.375,0,0,1-.375.375"/><path class="cls-1" d="M7.375,18.5a.375.375,0,1,1,.375-.375.375.375,0,0,1-.375.375"/><path class="cls-1" d="M20.125,15.5a.375.375,0,1,1,.375-.375.375.375,0,0,1-.375.375"/><path class="cls-1" d="M11.875,15.5a.375.375,0,1,1,.375-.375.375.375,0,0,1-.375.375"/><path class="cls-1" d="M11.875,9.5a.375.375,0,1,1,.375-.375.375.375,0,0,1-.375.375"/><path class="cls-1" d="M11.875,3.5a.375.375,0,1,1,.375-.375.375.375,0,0,1-.375.375"/><path class="cls-1" d="M16.375,18.5a.375.375,0,1,1,.375-.375.375.375,0,0,1-.375.375"/><path class="cls-1" d="M3.625,15.5A.375.375,0,1,1,4,15.125a.375.375,0,0,1-.375.375"/></svg>