<svg id="Regular" xmlns="http://www.w3.org/2000/svg" viewBox="0 0 24 24"><defs><style>.cls-1{fill:none;stroke:currentColor;stroke-linecap:round;stroke-linejoin:round;stroke-width:1.5px;}</style></defs><title>arrow-thick-left-1</title><path class="cls-1" d="M10.205,22.03a.75.75,0,0,0,1.061,0l2.121-2.121a.75.75,0,0,0,0-1.061L8.743,14.2H22.5a.75.75,0,0,0,.75-.75v-3a.75.75,0,0,0-.75-.75H8.743L13.387,5.06a.75.75,0,0,0,0-1.061L11.266,1.878a.75.75,0,0,0-1.061,0L1.189,10.893a1.5,1.5,0,0,0,0,2.122Z"/></svg>