<svg id="Regular" xmlns="http://www.w3.org/2000/svg" viewBox="0 0 24 24"><defs><style>.cls-1{fill:none;stroke:currentColor;stroke-linecap:round;stroke-linejoin:round;stroke-width:1.5px;}</style></defs><title>arrow-thick-left-bottom-corner-4</title><rect class="cls-1" x="0.75" y="0.75" width="22.5" height="22.5" rx="3" ry="3" transform="translate(0 24) rotate(-90)"/><path class="cls-1" d="M15.235,5.583,9.764,11.054V6.5a.75.75,0,0,0-1.28-.53l-1.295,1.3a1.5,1.5,0,0,0-.439,1.06V16.5a.75.75,0,0,0,.75.75h8.175a1.5,1.5,0,0,0,1.06-.439l1.3-1.295a.75.75,0,0,0-.53-1.28H12.946l5.471-5.471a.75.75,0,0,0,0-1.061L16.3,5.583A.75.75,0,0,0,15.235,5.583Z"/></svg>