<svg id="Regular" xmlns="http://www.w3.org/2000/svg" viewBox="0 0 24 24"><defs><style>.cls-1{fill:none;stroke:currentColor;stroke-linecap:round;stroke-linejoin:round;stroke-width:1.5px;}</style></defs><title>arrow-thick-circle-bottom-right-corner-2</title><circle class="cls-1" cx="12" cy="12" r="11.25"/><path class="cls-1" d="M7.174,7.174a2.249,2.249,0,0,0,0,3.182l3.712,3.712H9.3A1.591,1.591,0,0,0,7.7,15.659h0A1.591,1.591,0,0,0,9.3,17.25H16.5a.75.75,0,0,0,.75-.75V9.3A1.591,1.591,0,0,0,15.659,7.7h0A1.591,1.591,0,0,0,14.068,9.3v1.591L10.356,7.174a2.249,2.249,0,0,0-3.182,0Z"/></svg>