<svg id="Regular" xmlns="http://www.w3.org/2000/svg" viewBox="0 0 24 24"><defs><style>.cls-1{fill:none;stroke:currentColor;stroke-linecap:round;stroke-linejoin:round;stroke-width:1.5px;}</style></defs><title>arrow-thick-dot-right</title><path class="cls-1" d="M20.625,11.25a.375.375,0,1,1-.375.375.375.375,0,0,1,.375-.375"/><path class="cls-1" d="M18,16.125a.375.375,0,1,1-.375-.375.375.375,0,0,1,.375.375"/><path class="cls-1" d="M14.625,3a.375.375,0,1,1-.375.375A.375.375,0,0,1,14.625,3"/><path class="cls-1" d="M14.625,11.25a.375.375,0,1,1-.375.375.375.375,0,0,1,.375-.375"/><path class="cls-1" d="M8.625,11.25a.375.375,0,1,1-.375.375.375.375,0,0,1,.375-.375"/><path class="cls-1" d="M2.625,11.25a.375.375,0,1,1-.375.375.375.375,0,0,1,.375-.375"/><path class="cls-1" d="M17.625,6.75a.375.375,0,1,1-.375.375.375.375,0,0,1,.375-.375"/><path class="cls-1" d="M14.625,19.5a.375.375,0,1,1-.375.375.375.375,0,0,1,.375-.375"/></svg>