<svg id="Regular" xmlns="http://www.w3.org/2000/svg" viewBox="0 0 24 24"><defs><style>.cls-1{fill:none;stroke:currentColor;stroke-linecap:round;stroke-linejoin:round;stroke-width:1.5px;}</style></defs><title>arrow-thick-circle-up-2</title><circle class="cls-1" cx="12" cy="12" r="11.25"/><path class="cls-1" d="M12,18.75a2.25,2.25,0,0,0,2.25-2.25V11.25l1.125,1.125a1.592,1.592,0,0,0,2.25,0h0a1.592,1.592,0,0,0,0-2.25L12.53,5.03a.749.749,0,0,0-1.06,0l-5.1,5.1a1.592,1.592,0,0,0,0,2.25h0a1.592,1.592,0,0,0,2.25,0L9.75,11.25V16.5A2.25,2.25,0,0,0,12,18.75Z"/></svg>