<svg id="Regular" xmlns="http://www.w3.org/2000/svg" viewBox="0 0 24 24"><defs><style>.cls-1{fill:none;stroke:currentColor;stroke-linecap:round;stroke-linejoin:round;stroke-width:1.5px;}</style></defs><title>arrow-dot-left</title><rect class="cls-1" x="0.75" y="0.75" width="22.5" height="22.5" rx="2" ry="2"/><path class="cls-1" d="M4.5,11.625A.375.375,0,1,1,4.125,12a.375.375,0,0,1,.375-.375"/><path class="cls-1" d="M7.875,9.75a.375.375,0,1,1-.375.375.375.375,0,0,1,.375-.375"/><path class="cls-1" d="M11.625,9.75a.375.375,0,1,1-.375.375.375.375,0,0,1,.375-.375"/><path class="cls-1" d="M11.625,6a.375.375,0,1,1-.375.375A.375.375,0,0,1,11.625,6"/><path class="cls-1" d="M7.875,13.5a.375.375,0,1,1-.375.375.375.375,0,0,1,.375-.375"/><path class="cls-1" d="M11.625,13.5a.375.375,0,1,1-.375.375.375.375,0,0,1,.375-.375"/><path class="cls-1" d="M15.375,9.75a.375.375,0,1,1-.375.375.375.375,0,0,1,.375-.375"/><path class="cls-1" d="M15.375,13.5a.375.375,0,1,1-.375.375.375.375,0,0,1,.375-.375"/><path class="cls-1" d="M19.125,9.75a.375.375,0,1,1-.375.375.375.375,0,0,1,.375-.375"/><path class="cls-1" d="M19.125,13.5a.375.375,0,1,1-.375.375.375.375,0,0,1,.375-.375"/><path class="cls-1" d="M11.625,17.25a.375.375,0,1,1-.375.375.375.375,0,0,1,.375-.375"/></svg>