<svg id="Regular" xmlns="http://www.w3.org/2000/svg" viewBox="0 0 24 24"><defs><style>.cls-1{fill:none;stroke:currentColor;stroke-linecap:round;stroke-linejoin:round;stroke-width:1.5px;fill-rule:evenodd;}</style></defs><title>arrow-double-left-1</title><path class="cls-1" d="M5.211,14.59l6.54,4.162,6.538-4.162c.667-.424,1.711-.08,1.711.565v2.411a1.372,1.372,0,0,1-.7,1.129L12.43,23.064a1.332,1.332,0,0,1-1.358,0L4.2,18.7a1.372,1.372,0,0,1-.7-1.129V15.155C3.5,14.51,4.544,14.166,5.211,14.59Z"/><path class="cls-1" d="M5.211,6.187l6.539,4.162,6.539-4.162c.667-.424,1.711-.08,1.711.564V8.522a1.371,1.371,0,0,1-.7,1.129l-6.867,4.37a1.337,1.337,0,0,1-1.358,0L4.2,9.651a1.371,1.371,0,0,1-.7-1.129V6.751C3.5,6.107,4.544,5.763,5.211,6.187Z"/><polyline class="cls-1" points="4.25 0.75 11.75 6 19.25 0.75"/></svg>