<svg id="Regular" xmlns="http://www.w3.org/2000/svg" viewBox="0 0 24 24"><defs><style>.cls-1{fill:none;stroke:currentColor;stroke-linecap:round;stroke-linejoin:round;stroke-width:1.5px;}</style></defs><title>arrow-thick-left-4</title><rect class="cls-1" x="0.75" y="0.75" width="22.5" height="22.5" rx="3" ry="3"/><path class="cls-1" d="M18,9.75H10.5l3.22-3.22a.75.75,0,0,0-.531-1.28H11.121a1.5,1.5,0,0,0-1.06.439L4.28,11.47a.749.749,0,0,0,0,1.06l5.781,5.781a1.5,1.5,0,0,0,1.06.439h2.068a.75.75,0,0,0,.531-1.28L10.5,14.25H18a.75.75,0,0,0,.75-.75v-3A.75.75,0,0,0,18,9.75Z"/></svg>