<svg id="Regular" xmlns="http://www.w3.org/2000/svg" viewBox="0 0 24 24"><defs><style>.cls-1{fill:none;stroke:currentColor;stroke-linecap:round;stroke-linejoin:round;stroke-width:1.5px;}</style></defs><title>arrow-dot-corner-right-1</title><path class="cls-1" d="M19.86,18.429a.375.375,0,1,1,0,.53.374.374,0,0,1,0-.53"/><path class="cls-1" d="M16.148,17.368a.375.375,0,1,1,0,.53.375.375,0,0,1,0-.53"/><path class="cls-1" d="M13.5,14.716a.375.375,0,1,1,0,.531.375.375,0,0,1,0-.531"/><path class="cls-1" d="M8.723,15.247a.375.375,0,1,1,0,.53.374.374,0,0,1,0-.53"/><path class="cls-1" d="M6.071,17.9a.375.375,0,1,1,0,.531.377.377,0,0,1,0-.531"/><path class="cls-1" d="M11.375,17.9a.375.375,0,1,1,0,.531.375.375,0,0,1,0-.531"/><path class="cls-1" d="M18.8,14.716a.375.375,0,1,1,0,.531.377.377,0,0,1,0-.531"/><path class="cls-1" d="M16.148,12.065a.375.375,0,1,1,0,.53.374.374,0,0,1,0-.53"/><path class="cls-1" d="M10.844,12.065a.375.375,0,1,1,0,.53.375.375,0,0,1,0-.53"/><path class="cls-1" d="M13.5,9.413a.375.375,0,1,1,0,.53.375.375,0,0,1,0-.53"/><path class="cls-1" d="M8.193,9.413a.375.375,0,1,1,0,.53.375.375,0,0,1,0-.53"/><path class="cls-1" d="M10.844,6.761a.375.375,0,1,1,0,.531.377.377,0,0,1,0-.531"/><path class="cls-1" d="M5.541,6.761a.375.375,0,1,1,0,.531.375.375,0,0,1,0-.531"/><path class="cls-1" d="M8.193,4.11a.375.375,0,1,1,0,.53.374.374,0,0,1,0-.53"/><path class="cls-1" d="M16.678,7.292a.375.375,0,1,1,0,.53.374.374,0,0,1,0-.53"/><path class="cls-1" d="M19.33,4.64a.375.375,0,1,1,0,.531.375.375,0,0,1,0-.531"/><path class="cls-1" d="M19.33,9.943a.375.375,0,1,1,0,.531.375.375,0,0,1,0-.531"/></svg>