<svg id="Regular" xmlns="http://www.w3.org/2000/svg" viewBox="0 0 24 24"><defs><style>.cls-1{fill:none;stroke:currentColor;stroke-linecap:round;stroke-linejoin:round;stroke-width:1.5px;}</style></defs><title>arrow-thick-up-4</title><rect class="cls-1" x="0.75" y="0.75" width="22.5" height="22.5" rx="3" ry="3" transform="translate(24 0) rotate(90)"/><path class="cls-1" d="M14.25,18V10.5l3.22,3.22a.75.75,0,0,0,1.28-.531V11.121a1.5,1.5,0,0,0-.439-1.06L12.53,4.28a.749.749,0,0,0-1.06,0L5.689,10.061a1.5,1.5,0,0,0-.439,1.06v2.068a.75.75,0,0,0,1.28.531L9.75,10.5V18a.75.75,0,0,0,.75.75h3A.75.75,0,0,0,14.25,18Z"/></svg>