<svg id="Regular" xmlns="http://www.w3.org/2000/svg" viewBox="0 0 24 24"><defs><style>.cls-1{fill:none;stroke:currentColor;stroke-linecap:round;stroke-linejoin:round;stroke-width:1.5px;}</style></defs><title>arrow-thick-circle-right-1</title><circle class="cls-1" cx="12" cy="12" r="11.25"/><path class="cls-1" d="M5.25,13.5a.75.75,0,0,0,.75.75h6.75l-1.72,1.72a.749.749,0,0,0,0,1.06l1.19,1.19a.749.749,0,0,0,1.06,0l5.69-5.69a.749.749,0,0,0,0-1.06L13.28,5.78a.749.749,0,0,0-1.06,0L11.03,6.97a.749.749,0,0,0,0,1.06l1.72,1.72H6a.75.75,0,0,0-.75.75Z"/></svg>