<svg id="Regular" xmlns="http://www.w3.org/2000/svg" viewBox="0 0 24 24"><defs><style>.cls-1{fill:none;stroke:currentColor;stroke-linecap:round;stroke-linejoin:round;stroke-width:1.5px;}</style></defs><title>arrow-thick-dot-corner-down-left</title><path class="cls-1" d="M5.89,18.36a.375.375,0,1,0,0,.53.374.374,0,0,0,0-.53"/><path class="cls-1" d="M11.89,18.36a.375.375,0,1,0,0,.53.374.374,0,0,0,0-.53"/><path class="cls-1" d="M5.89,6.36a.375.375,0,1,0,0,.53.374.374,0,0,0,0-.53"/><path class="cls-1" d="M10.39,13.86a.375.375,0,1,0,0,.53.374.374,0,0,0,0-.53"/><path class="cls-1" d="M14.89,9.36a.375.375,0,1,0,0,.53.374.374,0,0,0,0-.53"/><path class="cls-1" d="M19.39,4.86a.375.375,0,1,0,0,.53.374.374,0,0,0,0-.53"/><path class="cls-1" d="M5.89,12.36a.375.375,0,1,0,0,.53.374.374,0,0,0,0-.53"/><path class="cls-1" d="M17.89,18.89a.375.375,0,1,0-.53,0,.374.374,0,0,0,.53,0"/></svg>