<svg id="Regular" xmlns="http://www.w3.org/2000/svg" viewBox="0 0 24 24"><defs><style>.cls-1{fill:none;stroke:currentColor;stroke-linecap:round;stroke-linejoin:round;stroke-width:1.5px;}</style></defs><title>arrow-thick-circle-left-1</title><circle class="cls-1" cx="12" cy="12" r="11.25"/><path class="cls-1" d="M18.75,10.5A.75.75,0,0,0,18,9.75H11.25l1.72-1.72a.749.749,0,0,0,0-1.06L11.78,5.78a.749.749,0,0,0-1.06,0L5.03,11.47a.749.749,0,0,0,0,1.06l5.69,5.69a.749.749,0,0,0,1.06,0l1.19-1.19a.749.749,0,0,0,0-1.06l-1.72-1.72H18a.75.75,0,0,0,.75-.75Z"/></svg>