<svg id="Regular" xmlns="http://www.w3.org/2000/svg" viewBox="0 0 24 24"><defs><style>.cls-1{fill:none;stroke:currentColor;stroke-linecap:round;stroke-linejoin:round;stroke-width:1.5px;fill-rule:evenodd;}</style></defs><title>arrow-double-down</title><path class="cls-1" d="M11.75,16.778l7.1-4.517A.751.751,0,0,1,20,12.894v4.561a1.5,1.5,0,0,1-.7,1.265l-6.75,4.3a1.5,1.5,0,0,1-1.61,0L4.2,18.72a1.5,1.5,0,0,1-.7-1.265V12.894a.751.751,0,0,1,1.153-.633Z"/><path class="cls-1" d="M11.75,5.384l7.1-4.517A.751.751,0,0,1,20,1.5V6.06a1.5,1.5,0,0,1-.7,1.266l-6.75,4.3a1.5,1.5,0,0,1-1.61,0L4.2,7.326A1.5,1.5,0,0,1,3.5,6.06V1.5A.751.751,0,0,1,4.653.867Z"/></svg>