<svg xmlns="http://www.w3.org/2000/svg" viewBox="0 0 24 24"><defs><style>.a{fill:none;stroke:currentColor;stroke-linecap:round;stroke-linejoin:round;stroke-width:1.5px;}</style></defs><title>artboard-shrink</title><path class="a" d="M5.25,20.25H16.5a.75.75,0,0,0,.75-.75V18a.75.75,0,0,0-.75-.75H6.75v-4.5h-3v6A1.5,1.5,0,0,0,5.25,20.25Z"/><path class="a" d="M6,6.75H4.5a.75.75,0,0,0-.75.75V9.75h3V7.5A.75.75,0,0,0,6,6.75Z"/><path class="a" d="M14.25,17.25v-6a1.5,1.5,0,0,0-1.5-1.5H1.5a.75.75,0,0,0-.75.75V12a.75.75,0,0,0,.75.75h9.75v4.5Z"/><path class="a" d="M13.5,23.25H12a.75.75,0,0,1-.75-.75V20.25h3V22.5A.75.75,0,0,1,13.5,23.25Z"/><line class="a" x1="23.25" y1="0.75" x2="13.81" y2="10.19"/></svg>