<svg xmlns="http://www.w3.org/2000/svg" viewBox="0 0 24 24"><defs><style>.a{fill:none;stroke:currentColor;stroke-linecap:round;stroke-linejoin:round;stroke-width:1.5px;}</style></defs><title>artboard-shapes</title><line class="a" x1="4.5" y1="0.75" x2="4.5" y2="1.5"/><line class="a" x1="1.5" y1="4.5" x2="0.75" y2="4.5"/><line class="a" x1="4.5" y1="23.25" x2="4.5" y2="22.5"/><line class="a" x1="1.5" y1="19.5" x2="0.75" y2="19.5"/><line class="a" x1="19.5" y1="0.75" x2="19.5" y2="1.5"/><line class="a" x1="22.5" y1="4.5" x2="23.25" y2="4.5"/><line class="a" x1="19.5" y1="23.25" x2="19.5" y2="22.5"/><line class="a" x1="22.5" y1="19.5" x2="23.25" y2="19.5"/><rect class="a" x="4.5" y="4.5" width="15" height="15"/><path class="a" d="M11.25,14.25H9a1.5,1.5,0,0,1-1.5-1.5V9A1.5,1.5,0,0,1,9,7.5h2.25A1.5,1.5,0,0,1,12.75,9v.75"/><rect class="a" x="11.25" y="9.75" width="5.25" height="6.75" rx="1" ry="1"/></svg>