<svg xmlns="http://www.w3.org/2000/svg" viewBox="0 0 24 24"><defs><style>.a{fill:none;stroke:currentColor;stroke-linecap:round;stroke-linejoin:round;stroke-width:1.5px;}</style></defs><title>artboard-image</title><path class="a" d="M9.75,10.125a.375.375,0,1,1-.375.375.375.375,0,0,1,.375-.375"/><path class="a" d="M22.5,17.25H20.25v-12a1.5,1.5,0,0,0-1.5-1.5h-12V1.5A.75.75,0,0,0,6,.75H4.5a.75.75,0,0,0-.75.75V3.75H1.5a.75.75,0,0,0-.75.75V6a.75.75,0,0,0,.75.75H3.75v12a1.5,1.5,0,0,0,1.5,1.5h12V22.5a.75.75,0,0,0,.75.75h1.5a.75.75,0,0,0,.75-.75V20.25H22.5a.75.75,0,0,0,.75-.75V18A.75.75,0,0,0,22.5,17.25Zm-15.75,0V6.75h10.5v10.5Z"/><path class="a" d="M9,17.25,13.083,12a1.5,1.5,0,0,1,2.355-.016L17.25,14.25"/></svg>