<svg xmlns="http://www.w3.org/2000/svg" viewBox="0 0 24 24"><defs><style>.a{fill:none;stroke:currentColor;stroke-linecap:round;stroke-linejoin:round;stroke-width:1.5px;}</style></defs><title>artificial-arm</title><line class="a" x1="11.734" y1="9.511" x2="0.992" y2="19.179"/><line class="a" x1="8.65" y1="23.008" x2="16.697" y2="13.813"/><path class="a" d="M18.526,8.858a1.436,1.436,0,1,0,2.031,2.03l2.031-2.03a1.436,1.436,0,0,0-2.031-2.031Z"/><path class="a" d="M16.5,6.827a1.436,1.436,0,0,0,2.03,2.031l2.031-2.031A1.436,1.436,0,1,0,18.526,4.8Z"/><path class="a" d="M14.465,4.8A1.436,1.436,0,0,0,16.5,6.827l2.03-2.03A1.436,1.436,0,0,0,16.5,2.766Z"/><path class="a" d="M15.819,3.443a1.436,1.436,0,0,0-2.031-2.031L11.6,3.6a3.831,3.831,0,0,0-.778,4.292c.792,1.743-.217.5,4.656,5.369a1.914,1.914,0,0,0,2.707,0L20.9,10.55"/><path class="a" d="M8.587,15.493a.25.25,0,1,0,0,.353.249.249,0,0,0,0-.353"/><line class="a" x1="9.01" y1="12.068" x2="13.854" y2="16.912"/></svg>