<svg id="Regular" xmlns="http://www.w3.org/2000/svg" viewBox="0 0 24 24"><defs><style>.cls-1{fill:none;stroke:currentColor;stroke-linecap:round;stroke-linejoin:round;stroke-width:1.5px;}</style></defs><title>asian-interior-painting</title><rect class="cls-1" x="0.75" y="0.75" width="22.5" height="22.5" rx="1" ry="1"/><line class="cls-1" x1="0.75" y1="20.25" x2="23.25" y2="20.25"/><line class="cls-1" x1="10.5" y1="16.5" x2="9" y2="20.25"/><line class="cls-1" x1="13.5" y1="16.5" x2="15" y2="20.25"/><path class="cls-1" d="M3.75,15.75l.5,3.021A1.771,1.771,0,0,0,6,20.25"/><path class="cls-1" d="M20.25,15.75l-.5,3.021A1.771,1.771,0,0,1,18,20.25"/><path class="cls-1" d="M8.48,15.75a1.477,1.477,0,0,0,1.27.75h4.5a1.477,1.477,0,0,0,1.27-.75"/><rect class="cls-1" x="9" y="3.75" width="6" height="7.5"/><line class="cls-1" x1="7.5" y1="3.75" x2="16.5" y2="3.75"/><line class="cls-1" x1="7.5" y1="11.25" x2="16.5" y2="11.25"/></svg>