<svg id="Regular" xmlns="http://www.w3.org/2000/svg" viewBox="0 0 24 24"><defs><style>.cls-1{fill:none;stroke:currentColor;stroke-linecap:round;stroke-linejoin:round;stroke-width:1.5px;}</style></defs><title>asian-interior-boiler</title><path class="cls-1" d="M11.356,15.75a2.991,2.991,0,0,1,.3,3.409,1.065,1.065,0,0,1-1.136-.909,2.413,2.413,0,0,0-1.25,2.273A2.727,2.727,0,0,0,12,23.25a2.764,2.764,0,0,0,2.727-2.727A4.534,4.534,0,0,0,11.356,15.75Z"/><path class="cls-1" d="M.75,23.25h6L5.934,20.8A3,3,0,0,0,3.088,18.75H.75"/><path class="cls-1" d="M23.25,23.25h-6l.816-2.448a3,3,0,0,1,2.846-2.052H23.25"/><path class="cls-1" d="M14.823,5.25H9.177a1.5,1.5,0,0,0-1.342.83L6.128,9.494A2.25,2.25,0,0,0,8.141,12.75h7.718a2.25,2.25,0,0,0,2.013-3.256L16.165,6.08A1.5,1.5,0,0,0,14.823,5.25Z"/><path class="cls-1" d="M9.75,5.25V3a2.25,2.25,0,0,1,4.5,0V5.25"/><path class="cls-1" d="M17.978,9.75h.772a1.5,1.5,0,0,0,1.5-1.5V6.75a1.5,1.5,0,0,1,1.5-1.5"/></svg>