<svg id="Regular" xmlns="http://www.w3.org/2000/svg" viewBox="0 0 24 24"><defs><style>.cls-1{fill:none;stroke:currentColor;stroke-linecap:round;stroke-linejoin:round;stroke-width:1.5px;}</style></defs><title>asian-interior-stove</title><line class="cls-1" x1="3.75" y1="15.75" x2="2.25" y2="21.75"/><line class="cls-1" x1="20.25" y1="15.75" x2="21.75" y2="21.75"/><rect class="cls-1" x="0.75" y="12.75" width="22.5" height="3" rx="0.75" ry="0.75"/><path class="cls-1" d="M21.75,10.5a2.25,2.25,0,0,1-4.5,0V8.25h4.5Z"/><polygon class="cls-1" points="11.25 5.25 5.25 5.25 4.5 12.75 12 12.75 11.25 5.25"/><path class="cls-1" d="M5.25,5.25a3,3,0,0,1,6,0"/><path class="cls-1" d="M11.7,9.75H12A2.25,2.25,0,0,0,14.25,7.5V6A2.25,2.25,0,0,1,16.5,3.75"/><path class="cls-1" d="M5.25,5.25H3.75a1.5,1.5,0,0,0-1.5,1.5v1.5"/></svg>