<svg id="Regular" xmlns="http://www.w3.org/2000/svg" viewBox="0 0 24 24"><defs><style>.cls-1{fill:none;stroke:currentColor;stroke-linecap:round;stroke-linejoin:round;stroke-width:1.5px;}</style></defs><title>asian-interior-eating-table</title><line class="cls-1" x1="2.25" y1="17.25" x2="2.25" y2="23.251"/><line class="cls-1" x1="21.75" y1="17.25" x2="21.75" y2="23.251"/><rect class="cls-1" x="0.75" y="14.25" width="22.5" height="3" rx="0.75" ry="0.75"/><polygon class="cls-1" points="13.5 9.75 10.5 9.75 9.75 14.25 14.25 14.25 13.5 9.75"/><path class="cls-1" d="M18.75,2.25a3,3,0,0,1-3,3H13.5A1.5,1.5,0,0,0,12,6.75v3"/><path class="cls-1" d="M6.75,2.25a4.5,4.5,0,0,0,4.5,4.5H12"/><path class="cls-1" d="M21,4.875a.375.375,0,1,1-.375.375A.375.375,0,0,1,21,4.875"/><path class="cls-1" d="M4.5,6.375a.375.375,0,1,1-.375.375A.375.375,0,0,1,4.5,6.375"/><path class="cls-1" d="M11.25.75a.375.375,0,1,1-.375.375A.375.375,0,0,1,11.25.75"/></svg>