<svg id="Regular" xmlns="http://www.w3.org/2000/svg" viewBox="0 0 24 24"><defs><style>.cls-1{fill:none;stroke:currentColor;stroke-linecap:round;stroke-linejoin:round;stroke-width:1.5px;}</style></defs><title>asian-interior-lamp</title><polyline class="cls-1" points="9 4.452 9 0.75 15 0.75 15 4.452"/><path class="cls-1" d="M16.5,20.25h-9v-1.5A1.5,1.5,0,0,1,9,17.25h6a1.5,1.5,0,0,1,1.5,1.5Z"/><line class="cls-1" x1="7.5" y1="19.5" x2="7.5" y2="23.25"/><line class="cls-1" x1="16.5" y1="19.5" x2="16.5" y2="23.25"/><line class="cls-1" x1="12" y1="20.25" x2="12" y2="23.25"/><line class="cls-1" x1="5.634" y1="12.75" x2="18.365" y2="12.75"/><line class="cls-1" x1="5.634" y1="8.25" x2="18.365" y2="8.25"/><line class="cls-1" x1="21" y1="9.75" x2="22.5" y2="9.75"/><line class="cls-1" x1="3" y1="9.75" x2="1.5" y2="9.75"/><line class="cls-1" x1="3.75" y1="5.25" x2="2.25" y2="4.5"/><line class="cls-1" x1="3.75" y1="14.25" x2="2.25" y2="15"/><line class="cls-1" x1="20.25" y1="5.25" x2="21.75" y2="4.5"/><line class="cls-1" x1="20.25" y1="14.25" x2="21.75" y2="15"/><line class="cls-1" x1="12" y1="17.25" x2="12" y2="3.75"/><circle class="cls-1" cx="12" cy="10.5" r="6.75"/></svg>