<svg id="Regular" xmlns="http://www.w3.org/2000/svg" viewBox="0 0 24 24"><defs><style>.cls-1{fill:none;stroke:currentColor;stroke-linecap:round;stroke-linejoin:round;stroke-width:1.5px;}</style></defs><title>asian-food-noodles</title><path class="cls-1" d="M23.25,3.75H.75V1.5A.75.75,0,0,1,1.5.75H23.25"/><path class="cls-1" d="M12.75,23.25a2.758,2.758,0,0,1,0-3.9,2.758,2.758,0,0,0,0-3.9,2.758,2.758,0,0,1,0-3.9,2.758,2.758,0,0,0,0-3.9,2.758,2.758,0,0,1,0-3.9"/><path class="cls-1" d="M9.058,23.25a2.758,2.758,0,0,1,0-3.9,2.758,2.758,0,0,0,0-3.9,2.758,2.758,0,0,1,0-3.9,2.758,2.758,0,0,0,0-3.9,2.758,2.758,0,0,1,0-3.9"/><path class="cls-1" d="M5.308,23.25a2.758,2.758,0,0,1,0-3.9,2.758,2.758,0,0,0,0-3.9,2.758,2.758,0,0,1,0-3.9,2.758,2.758,0,0,0,0-3.9,2.758,2.758,0,0,1,0-3.9"/><path class="cls-1" d="M23.25,3.75H.75V6a.75.75,0,0,0,.75.75H4.709"/><line class="cls-1" x1="12.151" y1="6.75" x2="23.25" y2="6.75"/></svg>