<svg id="Regular" xmlns="http://www.w3.org/2000/svg" viewBox="0 0 24 24"><defs><style>.cls-1{fill:none;stroke:currentColor;stroke-linecap:round;stroke-linejoin:round;stroke-width:1.5px;}</style></defs><title>asian-food-pork-bun</title><path class="cls-1" d="M15,7.5a5.026,5.026,0,0,1-2.343-2.212.751.751,0,0,0-1.313,0A5.021,5.021,0,0,1,9,7.5C3.167,10.417.75,12.835.75,17.25c0,3.935,5.037,6,11.25,6s11.25-2.065,11.25-6C23.25,12.172,19.711,9.855,15,7.5Z"/><path class="cls-1" d="M4.694.75l-.618.823A1.585,1.585,0,0,0,4.319,3.75h0a1.585,1.585,0,0,1,.242,2.177L4.4,6.143"/><path class="cls-1" d="M19.307.75l.617.823a1.584,1.584,0,0,1-.242,2.177h0a1.585,1.585,0,0,0-.243,2.177l.163.216"/><line class="cls-1" x1="12" y1="10.5" x2="12" y2="12.75"/><line class="cls-1" x1="15" y1="10.5" x2="16.212" y2="12.75"/><line class="cls-1" x1="9" y1="10.5" x2="7.789" y2="12.75"/></svg>