<svg id="Regular" xmlns="http://www.w3.org/2000/svg" viewBox="0 0 24 24"><defs><style>.cls-1{fill:none;stroke:currentColor;stroke-linecap:round;stroke-linejoin:round;stroke-width:1.5px;}</style></defs><title>asian-interior-windows</title><rect class="cls-1" x="0.75" y="0.75" width="9.75" height="22.5" rx="0.5" ry="0.5"/><rect class="cls-1" x="13.5" y="0.75" width="9.75" height="22.5" rx="0.5" ry="0.5"/><path class="cls-1" d="M10.5,12.75h-6a3,3,0,0,1,3-3A2.25,2.25,0,0,1,9.75,7.5h.75"/><path class="cls-1" d="M23.25,9h-6a3,3,0,0,1,3-3A2.25,2.25,0,0,1,22.5,3.75h.75"/><path class="cls-1" d="M.921,22.977l2.7-4.317a3,3,0,0,1,2.544-1.41H6.5a3,3,0,0,0,1.8-.6L10.5,15"/><path class="cls-1" d="M5.25,23.25l1.1-2.2a1.454,1.454,0,0,1,1.3-.8,1.457,1.457,0,0,0,1.028-.425L10.5,18"/><polyline class="cls-1" points="13.5 13.5 19.5 12 21 9"/><path class="cls-1" d="M13.5,16.5l3.464-1.732a4.368,4.368,0,0,0,1.679-1.481L19.5,12"/><line class="cls-1" x1="17.87" y1="14.164" x2="20.25" y2="15.75"/></svg>