<svg id="Regular" xmlns="http://www.w3.org/2000/svg" viewBox="0 0 24 24"><defs><style>.cls-1{fill:none;stroke:currentColor;stroke-linecap:round;stroke-linejoin:round;stroke-width:1.5px;}</style></defs><title>asian-food-rice</title><path class="cls-1" d="M23.25,10.5c0,6.213-5.036,9.75-11.25,9.75S.75,16.713.75,10.5Z"/><path class="cls-1" d="M7.8,19.655l-1.255,2.51a.75.75,0,0,0,.671,1.085h9.573a.75.75,0,0,0,.671-1.085L16.2,19.655"/><path class="cls-1" d="M21.75,10.5a3,3,0,0,0-3-3H16.257A5.222,5.222,0,0,0,6.5,6.8,3.717,3.717,0,0,0,6,6.75,3.75,3.75,0,0,0,2.25,10.5"/><line class="cls-1" x1="18" y1="7.5" x2="23.25" y2="4.5"/><line class="cls-1" x1="15.629" y1="6.142" x2="20.25" y2="0.75"/></svg>