<svg id="Regular" xmlns="http://www.w3.org/2000/svg" viewBox="0 0 24 24"><defs><style>.cls-1{fill:none;stroke:currentColor;stroke-linecap:round;stroke-linejoin:round;stroke-width:1.5px;}</style></defs><title>asian-interior-furniture</title><path class="cls-1" d="M.75,23.25v-18a1.5,1.5,0,0,1,1.5-1.5h19.5a1.5,1.5,0,0,1,1.5,1.5v18"/><path class="cls-1" d="M9.75.75a3,3,0,0,1-6,0Z"/><line class="cls-1" x1="0.75" y1="17.25" x2="23.25" y2="17.25"/><line class="cls-1" x1="0.75" y1="12.75" x2="23.25" y2="12.75"/><line class="cls-1" x1="8.25" y1="3.75" x2="8.25" y2="12.75"/><line class="cls-1" x1="15.75" y1="3.75" x2="15.75" y2="12.75"/><line class="cls-1" x1="0.75" y1="8.25" x2="2.25" y2="8.25"/><line class="cls-1" x1="6.75" y1="8.25" x2="9.75" y2="8.25"/><line class="cls-1" x1="14.25" y1="8.25" x2="17.25" y2="8.25"/><line class="cls-1" x1="21.75" y1="8.25" x2="23.25" y2="8.25"/><line class="cls-1" x1="12" y1="12.75" x2="12" y2="17.25"/><line class="cls-1" x1="14.25" y1="20.25" x2="20.25" y2="20.25"/><line class="cls-1" x1="14.25" y1="23.25" x2="15.75" y2="20.25"/><line class="cls-1" x1="18.75" y1="20.25" x2="20.25" y2="23.25"/></svg>