<svg id="Regular" xmlns="http://www.w3.org/2000/svg" viewBox="0 0 24 24"><defs><style>.cls-1{fill:none;stroke:currentColor;stroke-linecap:round;stroke-linejoin:round;stroke-width:1.5px;}</style></defs><title>asian-food-kiosk</title><path class="cls-1" d="M23.25,5.25H.75L1.909,1.776A1.5,1.5,0,0,1,3.332.75H20.669a1.5,1.5,0,0,1,1.423,1.026Z"/><path class="cls-1" d="M8.25,5.25a3.75,3.75,0,0,1-7.5,0"/><path class="cls-1" d="M15.75,5.25a3.75,3.75,0,0,1-7.5,0"/><path class="cls-1" d="M23.25,5.25a3.75,3.75,0,0,1-7.5,0"/><line class="cls-1" x1="8.25" y1="0.75" x2="8.25" y2="5.25"/><line class="cls-1" x1="15.75" y1="0.75" x2="15.75" y2="5.25"/><line class="cls-1" x1="2.25" y1="8.25" x2="2.25" y2="23.25"/><line class="cls-1" x1="21.75" y1="8.25" x2="21.75" y2="23.25"/><line class="cls-1" x1="0.75" y1="15.75" x2="23.25" y2="15.75"/><line class="cls-1" x1="6" y1="18.75" x2="10.5" y2="18.75"/><polyline class="cls-1" points="6.75 23.25 8.25 18.75 9.75 23.25"/><line class="cls-1" x1="14.25" y1="18.75" x2="18.75" y2="18.75"/><polyline class="cls-1" points="15 23.25 16.5 18.75 18 23.25"/></svg>