<svg id="Regular" xmlns="http://www.w3.org/2000/svg" viewBox="0 0 24 24"><defs><style>.cls-1{fill:none;stroke:currentColor;stroke-linecap:round;stroke-linejoin:round;stroke-width:1.5px;}</style></defs><title>asian-food-noodles-bowl</title><line class="cls-1" x1="2.903" y1="6.75" x2="22.403" y2="0.75"/><line class="cls-1" x1="2.903" y1="8.25" x2="22.403" y2="5.25"/><path class="cls-1" d="M8.562,7.379a2.779,2.779,0,0,1-.025,2.713l-.9,1.566a5.334,5.334,0,0,0-.327,2.592"/><path class="cls-1" d="M11.28,6.961a2.777,2.777,0,0,1,.257,3.131l-.9,1.566a5.334,5.334,0,0,0-.327,2.592"/><path class="cls-1" d="M14.217,6.75h0a2.777,2.777,0,0,1,.447,3.342l-.895,1.566a5.334,5.334,0,0,0-.327,2.592"/><path class="cls-1" d="M2.348,14.25a.75.75,0,0,0-.694,1.034,11.547,11.547,0,0,0,6.5,5.787V22.5a.75.75,0,0,0,.75.75h6a.75.75,0,0,0,.75-.75V21.071a11.556,11.556,0,0,0,6.5-5.786.75.75,0,0,0-.694-1.035Z"/></svg>