<svg id="Regular" xmlns="http://www.w3.org/2000/svg" viewBox="0 0 24 24"><defs><style>.cls-1{fill:none;stroke:currentColor;stroke-linecap:round;stroke-linejoin:round;stroke-width:1.5px;}</style></defs><title>asian-interior-bonsai-tree-1</title><path class="cls-1" d="M15,9H4.388A3.583,3.583,0,0,1,.75,5.428,3.638,3.638,0,0,1,7.32,3.274"/><path class="cls-1" d="M14.968,3.274a3.638,3.638,0,0,1,6.57,2.154A3.525,3.525,0,0,1,20.874,7.5"/><path class="cls-1" d="M7.32,3.274a4.159,4.159,0,0,1,7.648,0"/><path class="cls-1" d="M20.73,11.7a1.467,1.467,0,0,1,2.52,1.023,1.524,1.524,0,0,1-1.468,1.532H18.848a2.013,2.013,0,0,1-1.957-2.021A1.957,1.957,0,0,1,20.73,11.7"/><path class="cls-1" d="M6.619,9c7.54,6.232-3.666,3.7.506,11.25"/><path class="cls-1" d="M10.043,9c9.861,6.574-4.83,4.6,5.707,11.25"/><path class="cls-1" d="M1.278,20.25a.5.5,0,0,0-.486.575C1.07,22.714,2.7,23.25,4.663,23.25H17.869c1.966,0,3.593-.536,3.872-2.425a.5.5,0,0,0-.487-.575Z"/><path class="cls-1" d="M19.5,14.25v1.244a2.252,2.252,0,0,1-1.7,2.183l-4.217,1.054"/></svg>