<svg xmlns="http://www.w3.org/2000/svg" viewBox="0 0 24 24"><defs><style>.a{fill:none;stroke:currentColor;stroke-linecap:round;stroke-linejoin:round;stroke-width:1.5px;}</style></defs><title>astronomy-planet-ring-star</title><path class="a" d="M18.746,12.474A6.752,6.752,0,0,1,8.137,18.287"/><path class="a" d="M6.08,15.994A6.751,6.751,0,0,1,17.92,9.506"/><line class="a" x1="19.235" y1="8.786" x2="4.765" y2="16.714"/><path class="a" d="M5.254,13.026,3.323,14.083a3,3,0,0,0,2.884,5.262l14.47-7.928a3,3,0,0,0-2.884-5.262l-1.93,1.058"/><line class="a" x1="3" y1="1.5" x2="3" y2="4.5"/><line class="a" x1="1.5" y1="3" x2="4.5" y2="3"/><line class="a" x1="21" y1="19.5" x2="21" y2="22.5"/><line class="a" x1="19.5" y1="21" x2="22.5" y2="21"/></svg>