<svg xmlns="http://www.w3.org/2000/svg" viewBox="0 0 24 24"><defs><style>.a{fill:none;stroke:currentColor;stroke-linecap:round;stroke-linejoin:round;stroke-width:1.5px;}</style></defs><title>astrology-aries</title><path class="a" d="M18.031,11.071a9.732,9.732,0,0,1,3.742,7.679.933.933,0,0,1-1.591.659L18.773,18l-5.829,4.934a1.5,1.5,0,0,1-1.842,0L5.273,18,3.864,19.409a.933.933,0,0,1-1.591-.659,9.733,9.733,0,0,1,3.75-7.686"/><path class="a" d="M14.987,7.831a2.11,2.11,0,0,1,.51-3.1L21.471.913A1.2,1.2,0,0,1,22.922,2.8L18.187,7.941a2.11,2.11,0,0,1-3.2-.11Z"/><path class="a" d="M9.058,7.831a2.11,2.11,0,0,0-.51-3.1L2.574.913A1.2,1.2,0,0,0,1.124,2.8L5.859,7.941a2.109,2.109,0,0,0,3.2-.11Z"/><path class="a" d="M8.636,4.8a6,6,0,0,1,6.772,0"/><path class="a" d="M17.834,8.251a6.019,6.019,0,0,1,.189,1.5V12c0,1.868-4.053,5.7-5.5,7.01a.749.749,0,0,1-1.006,0c-1.443-1.307-5.5-5.143-5.5-7.011V9.75a6,6,0,0,1,.186-1.49"/><line class="a" x1="9.023" y1="10.5" x2="10.523" y2="11.25"/><line class="a" x1="15.023" y1="10.5" x2="13.523" y2="11.25"/></svg>