<svg xmlns="http://www.w3.org/2000/svg" viewBox="0 0 24 24"><defs><style>.a{fill:none;stroke:currentColor;stroke-linecap:round;stroke-linejoin:round;stroke-width:1.5px;}</style></defs><title>astronomy-telescope-stars</title><line class="a" x1="6.751" y1="23" x2="11.251" y2="15.5"/><line class="a" x1="15.751" y1="23" x2="11.251" y2="15.5"/><line class="a" x1="11.251" y1="15.5" x2="11.251" y2="23"/><path class="a" d="M3.817,10.145h2.5a0,0,0,0,1,0,0v3a0,0,0,0,1,0,0h-2.5a.5.5,0,0,1-.5-.5v-2a.5.5,0,0,1,.5-.5Z" transform="translate(-4.043 2.684) rotate(-22.203)"/><path class="a" d="M6.483,6.945h5.5a0,0,0,0,1,0,0v6a0,0,0,0,1,0,0h-5.5a.5.5,0,0,1-.5-.5v-5a.5.5,0,0,1,.5-.5Z" transform="translate(-3.092 4.132) rotate(-22.203)"/><path class="a" d="M18.423,1.317A.75.75,0,0,0,17.377.938L10.66,4.327a.75.75,0,0,0-.343.946l2.888,7.076a.75.75,0,0,0,.907.436l7.171-2.279a.749.749,0,0,0,.481-1Z"/><line class="a" x1="20.25" y1="14.75" x2="20.25" y2="19.25"/><line class="a" x1="18" y1="17" x2="22.5" y2="17"/><line class="a" x1="3.75" y1="1.25" x2="3.75" y2="5.75"/><line class="a" x1="1.5" y1="3.5" x2="6" y2="3.5"/></svg>