<svg xmlns="http://www.w3.org/2000/svg" viewBox="0 0 24 24"><defs><style>.a{fill:none;stroke:currentColor;stroke-linecap:round;stroke-linejoin:round;stroke-width:1.5px;}</style></defs><title>astrology-aquarius</title><path class="a" d="M.773,4.25,5.686,9.382a.98.98,0,0,0,1.413,0L11.31,4.987a.979.979,0,0,1,1.413,0l4.215,4.4a.98.98,0,0,0,1.413,0L23.273,4.25"/><path class="a" d="M.773,14.033l4.913,5.131a.979.979,0,0,0,1.413,0l4.211-4.4a.979.979,0,0,1,1.413,0l4.215,4.4a.98.98,0,0,0,1.413,0l4.922-5.133"/></svg>