<svg xmlns="http://www.w3.org/2000/svg" viewBox="0 0 24 24"><defs><style>.a{fill:none;stroke:currentColor;stroke-linecap:round;stroke-linejoin:round;stroke-width:1.5px;}</style></defs><title>astrology-virgo</title><path class="a" d="M9.344,19V5.607A4.286,4.286,0,0,0,5.058,1.321h0A4.285,4.285,0,0,0,.773,5.607V19"/><path class="a" d="M9.344,19V5.607A4.286,4.286,0,0,1,13.63,1.321h0a4.286,4.286,0,0,1,4.286,4.286V20.071a2.678,2.678,0,0,0,2.678,2.679h0a2.679,2.679,0,0,0,2.679-2.679v-.535"/><path class="a" d="M17.916,6.679h2.553a2.8,2.8,0,0,1,2.8,2.8h0a2.8,2.8,0,0,1-.574,1.7l-8,10.5"/></svg>