<svg xmlns="http://www.w3.org/2000/svg" viewBox="0 0 24 24"><defs><style>.a{fill:none;stroke:currentColor;stroke-linecap:round;stroke-linejoin:round;stroke-width:1.5px;}</style></defs><title>astronomy-moon</title><path class="a" d="M16.5,21.75a9.75,9.75,0,0,1,0-19.5.264.264,0,0,0,.109-.5A11.138,11.138,0,0,0,12,.75a11.25,11.25,0,0,0,0,22.5,11.138,11.138,0,0,0,4.609-1A.264.264,0,0,0,16.5,21.75Z"/><line class="a" x1="17.25" y1="6.75" x2="17.25" y2="9.75"/><line class="a" x1="15.75" y1="8.25" x2="18.75" y2="8.25"/><line class="a" x1="21.75" y1="12.75" x2="21.75" y2="15.75"/><line class="a" x1="20.25" y1="14.25" x2="23.25" y2="14.25"/><line class="a" x1="14.25" y1="14.25" x2="14.25" y2="17.25"/><line class="a" x1="12.75" y1="15.75" x2="15.75" y2="15.75"/></svg>