<svg xmlns="http://www.w3.org/2000/svg" viewBox="0 0 24 24"><defs><style>.a{fill:none;stroke:currentColor;stroke-linecap:round;stroke-linejoin:round;stroke-width:1.5px;}</style></defs><title>astrology-book</title><path class="a" d="M8.968,20.75H3.718a3,3,0,0,1-3-3V4.25"/><path class="a" d="M14.218,1.25H3.878a3.111,3.111,0,0,0-3.119,2.5,3,3,0,0,0,2.959,3.5h9.75"/><line class="a" x1="3.718" y1="4.25" x2="12.718" y2="4.25"/><path class="a" d="M11.914,19.585a.75.75,0,0,1-.651-1.122l5.3-9.282a.75.75,0,0,1,1.3,0l5.3,9.282a.75.75,0,0,1-.651,1.122Z"/><path class="a" d="M22.522,12.165a.751.751,0,0,1,.651,1.122l-5.3,9.282a.75.75,0,0,1-1.3,0l-5.3-9.282a.75.75,0,0,1,.651-1.122Z"/></svg>