<svg xmlns="http://www.w3.org/2000/svg" viewBox="0 0 24 24"><defs><style>.a{fill:none;stroke:currentColor;stroke-linecap:round;stroke-linejoin:round;stroke-width:1.5px;}</style></defs><title>astronomy-planet</title><circle class="a" cx="9.5" cy="14.25" r="6"/><line class="a" x1="12.5" y1="19.446" x2="13.625" y2="21.395"/><line class="a" x1="4.304" y1="17.25" x2="2.355" y2="18.375"/><line class="a" x1="14.696" y1="11.25" x2="16.645" y2="10.125"/><line class="a" x1="6.5" y1="9.054" x2="5.375" y2="7.105"/><line class="a" x1="14.696" y1="17.25" x2="16.645" y2="18.375"/><line class="a" x1="6.5" y1="19.446" x2="5.375" y2="21.395"/><line class="a" x1="12.5" y1="9.054" x2="13.625" y2="7.105"/><line class="a" x1="4.304" y1="11.25" x2="2.355" y2="10.125"/><line class="a" x1="15.5" y1="14.25" x2="17.75" y2="14.25"/><line class="a" x1="9.5" y1="20.25" x2="9.5" y2="22.5"/><line class="a" x1="9.5" y1="8.25" x2="9.5" y2="6"/><line class="a" x1="3.5" y1="14.25" x2="1.25" y2="14.25"/><path class="a" d="M11.75,12.375a.375.375,0,0,1,.375.375"/><path class="a" d="M11.375,12.75a.375.375,0,0,1,.375-.375"/><path class="a" d="M11.75,13.125a.375.375,0,0,1-.375-.375"/><path class="a" d="M12.125,12.75a.375.375,0,0,1-.375.375"/><path class="a" d="M8,11.625A.375.375,0,0,1,8.375,12"/><path class="a" d="M7.625,12A.375.375,0,0,1,8,11.625"/><path class="a" d="M8,12.375A.375.375,0,0,1,7.625,12"/><path class="a" d="M8.375,12A.375.375,0,0,1,8,12.375"/><path class="a" d="M8.75,16.125a.375.375,0,0,1,.375.375"/><path class="a" d="M8.375,16.5a.375.375,0,0,1,.375-.375"/><path class="a" d="M8.75,16.875a.375.375,0,0,1-.375-.375"/><path class="a" d="M9.125,16.5a.375.375,0,0,1-.375.375"/><circle class="a" cx="19.25" cy="5.25" r="2.25"/><line class="a" x1="19.25" y1="1.5" x2="19.25" y2="3"/><line class="a" x1="21.5" y1="5.25" x2="23" y2="5.25"/><line class="a" x1="19.25" y1="7.5" x2="19.25" y2="9"/><line class="a" x1="17" y1="5.25" x2="15.5" y2="5.25"/><line class="a" x1="21.902" y1="2.598" x2="20.841" y2="3.659"/><line class="a" x1="20.841" y1="6.841" x2="21.902" y2="7.902"/><line class="a" x1="17.659" y1="6.841" x2="16.598" y2="7.902"/><line class="a" x1="17.659" y1="3.659" x2="16.598" y2="2.598"/></svg>