<svg xmlns="http://www.w3.org/2000/svg" viewBox="0 0 24 24"><defs><style>.a{fill:none;stroke:currentColor;stroke-linecap:round;stroke-linejoin:round;stroke-width:1.5px;}</style></defs><title>astrology-broom</title><path class="a" d="M11.08,11.571,2.064,14.342a.776.776,0,0,0-.513.934A14.394,14.394,0,0,0,9.5,23.222a.778.778,0,0,0,.935-.513l2.77-9.016Z"/><line class="a" x1="6.107" y1="16.31" x2="3.153" y2="18.193"/><line class="a" x1="8.462" y1="18.666" x2="6.58" y2="21.62"/><path class="a" d="M18.773,15a3.75,3.75,0,0,1,3.75,3.75v.375A2.625,2.625,0,0,1,19.9,21.75a1.875,1.875,0,1,1,0-3.75"/><path class="a" d="M9.023,7.5a3.75,3.75,0,0,1-3.75-3.75V3.375A2.625,2.625,0,0,1,7.9.75a1.875,1.875,0,0,1,0,3.75"/><polyline class="a" points="12.141 12.632 15.853 8.92 17.444 4.147 20.626 0.965"/></svg>