<svg xmlns="http://www.w3.org/2000/svg" viewBox="0 0 24 24"><defs><style>.a{fill:none;stroke:currentColor;stroke-linecap:round;stroke-linejoin:round;stroke-width:1.5px;}</style></defs><title>astrology-scorpio</title><path class="a" d="M8.6,18.391V6.163A3.913,3.913,0,0,0,4.686,2.25h0A3.913,3.913,0,0,0,.773,6.163V18.391"/><path class="a" d="M8.6,18.391V6.163A3.913,3.913,0,0,1,12.512,2.25h0a3.913,3.913,0,0,1,3.913,3.913V19.37a2.446,2.446,0,0,0,2.446,2.445h0a2.445,2.445,0,0,0,2.445-2.445V16.924"/><polyline class="a" points="23.273 18.88 21.316 16.924 19.36 18.88"/></svg>