<svg xmlns="http://www.w3.org/2000/svg" viewBox="0 0 24 24"><defs><style>.a{fill:none;stroke:currentColor;stroke-linecap:round;stroke-linejoin:round;stroke-width:1.5px;}</style></defs><title>astronomy-planet-ring</title><path class="a" d="M5.628,19.347A9.751,9.751,0,1,1,19.24,5.488"/><path class="a" d="M21.567,11.586a9.751,9.751,0,0,1-10.12,9.971"/><path class="a" d="M3.147,16.273C1.213,19.288.463,21.716,1.405,22.659c1.631,1.631,7.712-1.807,13.583-7.677S24.3,3.03,22.665,1.4c-.939-.939-3.379-.171-6.377,1.745"/><circle class="a" cx="12.945" cy="7.689" r="1.875"/><path class="a" d="M2.783,8.147a3.75,3.75,0,1,1,.787,7.417,4.191,4.191,0,0,1-.8-.107"/></svg>