<svg xmlns="http://www.w3.org/2000/svg" viewBox="0 0 24 24"><defs><style>.a{fill:none;stroke:currentColor;stroke-linecap:round;stroke-linejoin:round;stroke-width:1.5px;}</style></defs><title>astrology-tent</title><polyline class="a" points="0.773 9.5 12.023 2 23.273 9.5"/><line class="a" x1="3.119" y1="20.728" x2="3.119" y2="8"/><line class="a" x1="21.119" y1="8" x2="21.119" y2="20.728"/><path class="a" d="M6.847,18.965a.826.826,0,0,1-.716-1.234l5.176-9.057a.825.825,0,0,1,1.432,0l5.175,9.057a.825.825,0,0,1-.716,1.234Z"/><path class="a" d="M17.2,11.544a.824.824,0,0,1,.716,1.233l-5.175,9.058a.825.825,0,0,1-1.432,0L6.131,12.777a.825.825,0,0,1,.716-1.233Z"/></svg>