<svg id="Regular" xmlns="http://www.w3.org/2000/svg" viewBox="0 0 24 24"><defs><style>.cls-1{fill:none;stroke:currentColor;stroke-linecap:round;stroke-linejoin:round;stroke-width:1.5px;}</style></defs><title>athletics-shooting</title><path class="cls-1" d="M13.5,3.75H12V4.5a3,3,0,0,1-6,0V3.75"/><path class="cls-1" d="M6,.75h6a0,0,0,0,1,0,0v1a2,2,0,0,1-2,2H8a2,2,0,0,1-2-2v-1A0,0,0,0,1,6,.75Z" transform="translate(18 4.5) rotate(-180)"/><path class="cls-1" d="M18.25,6.75h3.5a0,0,0,0,1,0,0v2a1,1,0,0,1-1,1h-3.5a0,0,0,0,1,0,0v-2A1,1,0,0,1,18.25,6.75Z"/><polyline class="cls-1" points="21.75 6.75 23.25 6.75 23.25 6"/><path class="cls-1" d="M6.144,23.25l.606-3v-7.5H5.25a1.5,1.5,0,0,0-1.5,1.5v1.5a1.5,1.5,0,0,1-3,0v-1.5a4.505,4.505,0,0,1,4.5-4.5h13.5a1.5,1.5,0,0,1,0,3h-6v7.5l.606,3"/><line class="cls-1" x1="9.75" y1="21.75" x2="9.75" y2="23.25"/></svg>