<svg id="Regular" xmlns="http://www.w3.org/2000/svg" viewBox="0 0 24 24"><defs><style>.cls-1{fill:none;stroke:currentColor;stroke-linecap:round;stroke-linejoin:round;stroke-width:1.5px;}</style></defs><title>athletics-long-jumping</title><circle class="cls-1" cx="10.25" cy="3.375" r="2.625"/><path class="cls-1" d="M13.249,19.5a1.5,1.5,0,0,1-.67-.158L8.4,17.25H2.75a1.5,1.5,0,0,1-1.286-2.272l4.5-7.5a1.5,1.5,0,0,1,2.058-.514L11.416,9H14.75a1.5,1.5,0,0,1,0,3H11a1.49,1.49,0,0,1-.772-.214L7.764,10.308,5.4,14.25H8.75a1.5,1.5,0,0,1,.671.158l4.5,2.25a1.5,1.5,0,0,1-.672,2.842Z"/><path class="cls-1" d="M1.25,20.25h3a3,3,0,0,1,2.4,1.2L8,23.25"/><path class="cls-1" d="M12.5,22.125a.375.375,0,0,1,.375.375"/><path class="cls-1" d="M12.125,22.5a.375.375,0,0,1,.375-.375"/><path class="cls-1" d="M12.5,22.875a.375.375,0,0,1-.375-.375"/><path class="cls-1" d="M12.875,22.5a.375.375,0,0,1-.375.375"/><path class="cls-1" d="M17,22.125a.375.375,0,0,1,.375.375"/><path class="cls-1" d="M16.625,22.5A.375.375,0,0,1,17,22.125"/><path class="cls-1" d="M17,22.875a.375.375,0,0,1-.375-.375"/><path class="cls-1" d="M17.375,22.5a.375.375,0,0,1-.375.375"/><path class="cls-1" d="M21.5,22.125a.375.375,0,0,1,.375.375"/><path class="cls-1" d="M21.125,22.5a.375.375,0,0,1,.375-.375"/><path class="cls-1" d="M21.5,22.875a.375.375,0,0,1-.375-.375"/><path class="cls-1" d="M21.875,22.5a.375.375,0,0,1-.375.375"/></svg>