<svg id="Regular" xmlns="http://www.w3.org/2000/svg" viewBox="0 0 24 24"><defs><style>.cls-1{fill:none;stroke:currentColor;stroke-linecap:round;stroke-linejoin:round;stroke-width:1.5px;}</style></defs><title>athletics-running-1</title><polyline class="cls-1" points="14.25 11.25 14.25 0.75 18.75 4.5 14.25 7.5"/><path class="cls-1" d="M11.25,3.75H10.5a9.75,9.75,0,0,0,0,19.5H23.25"/><line class="cls-1" x1="23.25" y1="3.75" x2="21" y2="3.75"/><path class="cls-1" d="M23.25,11.25H10.5a2.25,2.25,0,0,0,0,4.5H23.25"/><line class="cls-1" x1="20.786" y1="7.5" x2="18.75" y2="7.5"/><path class="cls-1" d="M8.644,7.8A6.093,6.093,0,0,0,6.208,9.312"/><path class="cls-1" d="M4.68,12.066a5.849,5.849,0,0,0,0,2.868"/><path class="cls-1" d="M6.208,17.688A6.093,6.093,0,0,0,8.644,19.2"/><line class="cls-1" x1="11.802" y1="19.5" x2="14.7" y2="19.5"/><line class="cls-1" x1="17.888" y1="19.5" x2="20.786" y2="19.5"/></svg>