<svg id="Regular" xmlns="http://www.w3.org/2000/svg" viewBox="0 0 24 24"><defs><style>.cls-1{fill:none;stroke:currentColor;stroke-linecap:round;stroke-linejoin:round;stroke-width:1.5px;}</style></defs><title>athletics-team-running</title><circle class="cls-1" cx="12.75" cy="3.375" r="2.625"/><path class="cls-1" d="M20.544,5.279a1.494,1.494,0,0,0-1.765,1.177,2.475,2.475,0,0,1-2.845,1.962L7.787,7.25A4.863,4.863,0,0,0,2.3,10.885a1.5,1.5,0,0,0,1.09,1.82,1.54,1.54,0,0,0,.366.045A1.5,1.5,0,0,0,5.2,11.615a1.859,1.859,0,0,1,2.138-1.4l1.93.277L8,14.908a1.492,1.492,0,0,1-1.25,1.148l-3.214.459a1.5,1.5,0,0,0,.425,2.97l3.214-.458A4.473,4.473,0,0,0,10.7,16.3l.663.19a1.488,1.488,0,0,1,1.075,1.627l-.43,3.45a1.5,1.5,0,1,0,2.976.372l.431-3.448A4.477,4.477,0,0,0,12.19,13.6l-.639-.182.72-2.494,3.218.461a5.477,5.477,0,0,0,6.232-4.342A1.5,1.5,0,0,0,20.544,5.279Z"/><line class="cls-1" x1="18" y1="3" x2="19.211" y2="5.664"/><line class="cls-1" x1="20.803" y1="9.167" x2="21.75" y2="11.25"/></svg>