<svg xmlns="http://www.w3.org/2000/svg" viewBox="0 0 24 24"><defs><style>.a{fill:none;stroke:currentColor;stroke-linecap:round;stroke-linejoin:round;stroke-width:1.5px;}</style></defs><title>audio-book-sports</title><path class="a" d="M12,23.11c-.507-1.667-3.918-3.617-9.843-3.886A1.5,1.5,0,0,1,.75,17.717V4.366a1.5,1.5,0,0,1,1.607-1.5,25.242,25.242,0,0,1,2.966.325"/><path class="a" d="M12,23.11c.507-1.667,3.918-3.617,9.843-3.886a1.5,1.5,0,0,0,1.407-1.507V4.366a1.5,1.5,0,0,0-1.607-1.5,25.585,25.585,0,0,0-2.842.3"/><line class="a" x1="12" y1="14.11" x2="12" y2="23.11"/><path class="a" d="M11.486,4.479l.267-1.76a2.131,2.131,0,0,1,3.077,0,2.132,2.132,0,0,1,0,3.078l-1.576.45"/><path class="a" d="M14.83,5.8s1.539-.769,1.924,1.154c.261,1.306-.326,1.2-5.5,2.659"/><path class="a" d="M11.753,2.719S12.522,1.181,10.6.8c-1.42-.284-1.335.7-2.531,5.632"/><path class="a" d="M11.25,9.61l-.53.531a2.257,2.257,0,0,1-3.182,0h0a2.257,2.257,0,0,1,0-3.182l.53-.531Z"/></svg>