<svg xmlns="http://www.w3.org/2000/svg" viewBox="0 0 24 24"><defs><style>.a{fill:none;stroke:currentColor;stroke-linecap:round;stroke-linejoin:round;stroke-width:1.5px;}</style></defs><title>audio-book-record-microphone-a</title><path class="a" d="M11.25,20.251h-9a1.5,1.5,0,0,1-1.5-1.5V2.251a1.5,1.5,0,0,1,1.5-1.5H12.879a1.5,1.5,0,0,1,1.06.44l2.872,2.871a1.5,1.5,0,0,1,.439,1.061V7.5"/><rect class="a" x="16.5" y="10.501" width="4.5" height="7.5" rx="1.5" ry="1.5"/><path class="a" d="M23.25,16.5a4.513,4.513,0,0,1-4.5,4.5h0a4.513,4.513,0,0,1-4.5-4.5"/><line class="a" x1="18.75" y1="21.001" x2="18.75" y2="23.251"/><path class="a" d="M7.5,13.5v-6a1.5,1.5,0,0,1,3,0v6"/><line class="a" x1="7.5" y1="10.502" x2="10.5" y2="10.502"/></svg>