<svg xmlns="http://www.w3.org/2000/svg" viewBox="0 0 24 24"><defs><style>.a{fill:none;stroke:currentColor;stroke-linecap:round;stroke-linejoin:round;stroke-width:1.5px;}</style></defs><title>audio-book-headphones-head</title><path class="a" d="M18,12V6.419A5.841,5.841,0,0,0,12,.751,5.841,5.841,0,0,0,6,6.419V12"/><circle class="a" cx="12" cy="9.001" r="3.75"/><path class="a" d="M6,12a3,3,0,1,1,.016-6"/><path class="a" d="M18,12a3,3,0,1,0-.016-6"/><path class="a" d="M12,23.251c-.507-1.667-3.918-3.617-9.843-3.886A1.5,1.5,0,0,1,.75,17.858V4.507a1.5,1.5,0,0,1,1.607-1.5c.216.012.43.025.64.041"/><path class="a" d="M12,23.251c.507-1.667,3.918-3.617,9.843-3.886a1.5,1.5,0,0,0,1.407-1.507V4.507a1.5,1.5,0,0,0-1.607-1.5q-.715.038-1.381.107"/><line class="a" x1="12" y1="15.751" x2="12" y2="23.251"/></svg>