<svg xmlns="http://www.w3.org/2000/svg" viewBox="0 0 24 24"><defs><style>.a{fill:none;stroke:currentColor;stroke-linecap:round;stroke-linejoin:round;stroke-width:1.5px;}</style></defs><title>audio-book-art</title><path class="a" d="M12,23.251c-.507-1.667-3.918-3.617-9.843-3.886A1.5,1.5,0,0,1,.75,17.858V4.507A1.5,1.5,0,0,1,2.25,3"/><path class="a" d="M12,23.251c.507-1.667,3.918-3.617,9.843-3.886a1.5,1.5,0,0,0,1.407-1.507V4.507A1.5,1.5,0,0,0,21.75,3"/><line class="a" x1="12" y1="15.001" x2="12" y2="23.251"/><path class="a" d="M13.224,1.293A6.16,6.16,0,0,0,10.672.751c-2.985,0-5.4,2.049-5.4,4.576a4.632,4.632,0,0,0,3.3,4.213c.767.274,1.4.051,1.845-.966A1.6,1.6,0,0,1,12,7.556"/><line class="a" x1="15.744" y1="6.168" x2="12.924" y2="11.897"/><path class="a" d="M15.14,4.326a1.383,1.383,0,0,0,.6,1.842,1.342,1.342,0,0,0,1.813-.614,2.96,2.96,0,0,0-.6-3.888C17.154,3.3,15.945,2.689,15.14,4.326Z"/><path class="a" d="M8.643,5.159a.378.378,0,0,1,.375.381"/><path class="a" d="M8.268,5.54a.377.377,0,0,1,.375-.381"/><path class="a" d="M8.643,5.921a.378.378,0,0,1-.375-.381"/><path class="a" d="M9.018,5.54a.378.378,0,0,1-.375.381"/><path class="a" d="M10.893,2.909a.378.378,0,0,1,.375.381"/><path class="a" d="M10.518,3.29a.377.377,0,0,1,.375-.381"/><path class="a" d="M10.893,3.671a.378.378,0,0,1-.375-.381"/><path class="a" d="M11.268,3.29a.378.378,0,0,1-.375.381"/></svg>