<svg xmlns="http://www.w3.org/2000/svg" viewBox="0 0 24 24"><defs><style>.a{fill:none;stroke:currentColor;stroke-linecap:round;stroke-linejoin:round;stroke-width:1.5px;}</style></defs><title>audio-book-music</title><path class="a" d="M12,23.1c-.507-1.667-3.918-3.617-9.843-3.886A1.5,1.5,0,0,1,.75,17.708V4.357a1.5,1.5,0,0,1,1.607-1.5,25.04,25.04,0,0,1,2.966.324"/><path class="a" d="M12,23.1c.507-1.667,3.918-3.617,9.843-3.886a1.5,1.5,0,0,0,1.407-1.507V4.357a1.5,1.5,0,0,0-1.607-1.5,25.348,25.348,0,0,0-2.842.3"/><line class="a" x1="12" y1="14.101" x2="12" y2="23.101"/><circle class="a" cx="8.25" cy="8.58" r="1.5"/><circle class="a" cx="14.25" cy="7.08" r="1.5"/><path class="a" d="M15.75,7.08V2.251A1.5,1.5,0,0,0,13.886.8l-3,.75A1.5,1.5,0,0,0,9.75,3V8.58"/></svg>