<svg xmlns="http://www.w3.org/2000/svg" viewBox="0 0 24 24"><defs><style>.a{fill:none;stroke:currentColor;stroke-linecap:round;stroke-linejoin:round;stroke-width:1.5px;}</style></defs><title>audio-book-volume-medium</title><path class="a" d="M12,22c-.507-1.667-3.918-3.618-9.843-3.887A1.5,1.5,0,0,1,.75,16.605V3.254a1.5,1.5,0,0,1,1.607-1.5,25.04,25.04,0,0,1,2.966.324"/><path class="a" d="M12,22c.507-1.667,3.918-3.618,9.843-3.887a1.5,1.5,0,0,0,1.407-1.507V3.254a1.5,1.5,0,0,0-1.607-1.5,25.116,25.116,0,0,0-2.842.3"/><line class="a" x1="12" y1="15.978" x2="12" y2="21.999"/><path class="a" d="M12.243,5.573a.933.933,0,0,0-.96.085L8.75,7.728H6.917a.908.908,0,0,0-.917.9v1.2a.908.908,0,0,0,.917.9H8.75l2.533,2.07a.929.929,0,0,0,.96.085.9.9,0,0,0,.507-.8v-5.7A.9.9,0,0,0,12.243,5.573Z"/><path class="a" d="M16.5,7.3a2.594,2.594,0,0,1,0,3.587"/></svg>