<svg xmlns="http://www.w3.org/2000/svg" viewBox="0 0 24 24"><defs><style>.a{fill:none;stroke:currentColor;stroke-linecap:round;stroke-linejoin:round;stroke-width:1.5px;}</style></defs><title>audio-book-blind-exam-a</title><path class="a" d="M9.75,20.251H2.25a1.5,1.5,0,0,1-1.5-1.5V2.251a1.5,1.5,0,0,1,1.5-1.5H12.879a1.5,1.5,0,0,1,1.06.44l2.872,2.871a1.5,1.5,0,0,1,.439,1.061v7.628"/><path class="a" d="M12.844,20.186a.558.558,0,0,1,0-.619A6.52,6.52,0,0,1,18,16.5a6.52,6.52,0,0,1,5.156,3.066.558.558,0,0,1,0,.619A6.522,6.522,0,0,1,18,23.251,6.522,6.522,0,0,1,12.844,20.186Z"/><line class="a" x1="20.476" y1="17.112" x2="15.524" y2="22.64"/><path class="a" d="M7.5,13.5v-6a1.5,1.5,0,0,1,3,0v6"/><line class="a" x1="7.5" y1="10.501" x2="10.5" y2="10.501"/></svg>