<svg xmlns="http://www.w3.org/2000/svg" viewBox="0 0 24 24"><defs><style>.a{fill:none;stroke:currentColor;stroke-linecap:round;stroke-linejoin:round;stroke-width:1.5px;}</style></defs><title>audio-book-headphones-person</title><path class="a" d="M18,9V6.419A5.841,5.841,0,0,0,12,.751,5.841,5.841,0,0,0,6,6.419V9"/><circle class="a" cx="12" cy="7.501" r="3.75"/><path class="a" d="M12,23.251,3.222,20.262a1.281,1.281,0,0,1-.972-1.2V12.511a1.388,1.388,0,0,1,1.841-1.2L12,14.051Z"/><path class="a" d="M20.778,20.262,12,23.251v-9.2l7.909-2.737a1.388,1.388,0,0,1,1.841,1.2v6.554A1.281,1.281,0,0,1,20.778,20.262Z"/><line class="a" x1="15.75" y1="15.751" x2="18" y2="15.001"/></svg>