<svg xmlns="http://www.w3.org/2000/svg" viewBox="0 0 24 24"><defs><style>.a{fill:none;stroke:currentColor;stroke-linecap:round;stroke-linejoin:round;stroke-width:1.5px;}</style></defs><title>audio-book-headphones</title><path class="a" d="M2.25,19.5h0A1.5,1.5,0,0,1,.75,18V15a1.5,1.5,0,0,1,1.5-1.5h0A1.5,1.5,0,0,1,3.75,15v3A1.5,1.5,0,0,1,2.25,19.5Z"/><path class="a" d="M21.75,19.5h0a1.5,1.5,0,0,1-1.5-1.5V15a1.5,1.5,0,0,1,1.5-1.5h0a1.5,1.5,0,0,1,1.5,1.5v3A1.5,1.5,0,0,1,21.75,19.5Z"/><path class="a" d="M20.25,15v-3.75A8.274,8.274,0,0,0,12,3h0a8.275,8.275,0,0,0-8.25,8.25V15"/><rect class="a" x="6.75" y="9.001" width="10.5" height="12" rx="0.75" ry="0.75"/><line class="a" x1="12" y1="12.001" x2="14.25" y2="12.001"/><line class="a" x1="9.75" y1="15.001" x2="14.25" y2="15.001"/><line class="a" x1="9.75" y1="18.001" x2="14.25" y2="18.001"/></svg>