<svg xmlns="http://www.w3.org/2000/svg" viewBox="0 0 24 24"><defs><style>.a{fill:none;stroke:currentColor;stroke-linecap:round;stroke-linejoin:round;stroke-width:1.5px;}</style></defs><title>auto-pilot-car-pin</title><circle class="a" cx="9.75" cy="21.013" r="2.25"/><circle class="a" cx="18" cy="21.013" r="2.25"/><line class="a" x1="15.75" y1="21.013" x2="12" y2="21.013"/><line class="a" x1="14.25" y1="11.263" x2="14.25" y2="9.013"/><line class="a" x1="15" y1="2.263" x2="17.25" y2="2.263"/><path class="a" d="M20.25,2.263a1.5,1.5,0,0,1,1.5,1.5"/><line class="a" x1="21.75" y1="6.763" x2="21.75" y2="9.013"/><path class="a" d="M7.5,21.013H6a.75.75,0,0,1-.75-.75,9,9,0,0,1,18,0,.75.75,0,0,1-.75.75H20.25"/><path class="a" d="M13.039,11.344l-.495,2.106a3,3,0,0,1-2.92,2.313H6.454"/><line class="a" x1="5.25" y1="4.888" x2="5.25" y2="4.888"/><path class="a" d="M5.625,5.263a.375.375,0,0,0-.375-.375"/><path class="a" d="M5.25,5.638a.375.375,0,0,0,.375-.375"/><path class="a" d="M4.875,5.263a.375.375,0,0,0,.375.375"/><path class="a" d="M5.25,4.888a.375.375,0,0,0-.375.375"/><path class="a" d="M5.25.763a4.5,4.5,0,0,1,4.5,4.5c0,1.921-2.688,5.576-3.909,7.138a.75.75,0,0,1-1.182,0C3.438,10.84.75,7.184.75,5.263A4.5,4.5,0,0,1,5.25.763Z"/></svg>