<svg xmlns="http://www.w3.org/2000/svg" viewBox="0 0 24 24"><defs><style>.a{fill:none;stroke:currentColor;stroke-linecap:round;stroke-linejoin:round;stroke-width:1.5px;}</style></defs><title>auto-pilot-car-signal-1</title><circle class="a" cx="6.75" cy="20.263" r="2.25"/><circle class="a" cx="17.25" cy="20.263" r="2.25"/><line class="a" x1="15" y1="20.263" x2="9" y2="20.263"/><path class="a" d="M8.639,10.313l-.895,3.565a1.5,1.5,0,0,1-1.455,1.135H2.8"/><path class="a" d="M13.5,9.869v3.644a1.5,1.5,0,0,0,1.5,1.5h3a1.5,1.5,0,0,0,1.492-1.347v-.832"/><path class="a" d="M5.441,7.513a5.253,5.253,0,0,1,0-6"/><path class="a" d="M8.073,6.013a2.25,2.25,0,0,1,0-3"/><path class="a" d="M18.559,7.513a5.253,5.253,0,0,0,0-6"/><path class="a" d="M15.927,6.013a2.25,2.25,0,0,0,0-3"/><line class="a" x1="12" y1="9.763" x2="12" y2="7.513"/><path class="a" d="M4.5,20.263H3a1.5,1.5,0,0,1-1.479-1.75A10.634,10.634,0,0,1,12,9.763h0a10.634,10.634,0,0,1,10.479,8.75,1.5,1.5,0,0,1-.334,1.217,1.771,1.771,0,0,1-1.269.533H19.5"/></svg>