<svg xmlns="http://www.w3.org/2000/svg" viewBox="0 0 24 24"><defs><style>.a{fill:none;stroke:currentColor;stroke-linecap:round;stroke-linejoin:round;stroke-width:1.5px;}</style></defs><title>auto-pilot-car-wheel-disable</title><path class="a" d="M2.048,17.263a11.253,11.253,0,0,1,15.568-15"/><path class="a" d="M21.75,6.4a11.253,11.253,0,0,1-15,15.568"/><path class="a" d="M4.65,15.763a8.252,8.252,0,0,1,11.1-11.1"/><path class="a" d="M19.35,8.263a8.252,8.252,0,0,1-11.1,11.1"/><path class="a" d="M12,9.013a24.936,24.936,0,0,0-8.1,1.444"/><path class="a" d="M20.1,10.457A21.967,21.967,0,0,0,18,9.811"/><path class="a" d="M9.838,18.013a9.829,9.829,0,0,1-.049,1.95"/><path class="a" d="M3.881,13.488a5.9,5.9,0,0,1,2.869.129"/><path class="a" d="M20.119,13.488c-3.617-.659-6.5,1.5-5.908,6.475"/><line class="a" x1="23.25" y1="0.763" x2="0.75" y2="23.263"/></svg>