<svg xmlns="http://www.w3.org/2000/svg" viewBox="0 0 24 24"><defs><style>.a{fill:none;stroke:currentColor;stroke-linecap:round;stroke-linejoin:round;stroke-width:1.5px;}</style></defs><title>auto-pilot-car-signal</title><circle class="a" cx="9.75" cy="21.013" r="2.25"/><circle class="a" cx="18" cy="21.013" r="2.25"/><line class="a" x1="15.75" y1="21.013" x2="12" y2="21.013"/><line class="a" x1="14.25" y1="11.263" x2="14.25" y2="9.013"/><line class="a" x1="15" y1="2.263" x2="17.25" y2="2.263"/><path class="a" d="M20.25,2.263a1.5,1.5,0,0,1,1.5,1.5"/><line class="a" x1="21.75" y1="6.763" x2="21.75" y2="9.013"/><path class="a" d="M7.5,21.013H6a.75.75,0,0,1-.75-.75,9,9,0,0,1,18,0,.75.75,0,0,1-.75.75H20.25"/><path class="a" d="M13.039,11.344l-.495,2.106a3,3,0,0,1-2.92,2.313H6.454"/><line class="a" x1="12" y1="2.263" x2="10.5" y2="2.263"/><path class="a" d="M1.848,7.165a3.75,3.75,0,0,1,5.3-5.3Z"/><path class="a" d="M8.024,5.232a3,3,0,0,1-2.8,2.805"/><path class="a" d="M10.994,5.7a6,6,0,0,1-5.3,5.3"/></svg>