<svg xmlns="http://www.w3.org/2000/svg" viewBox="0 0 24 24"><defs><style>.a{fill:none;stroke:currentColor;stroke-linecap:round;stroke-linejoin:round;stroke-width:1.5px;}</style></defs><title>baby-hold</title><path class="a" d="M5.762,12.75a9,9,0,1,1,12.988,4.8"/><path class="a" d="M14.25.75a2.25,2.25,0,0,1,0,4.5"/><path class="a" d="M17.625,8.25A.375.375,0,0,1,18,8.625"/><path class="a" d="M17.25,8.625a.375.375,0,0,1,.375-.375"/><path class="a" d="M17.625,9a.375.375,0,0,1-.375-.375"/><path class="a" d="M18,8.625A.375.375,0,0,1,17.625,9"/><path class="a" d="M10.875,8.25a.375.375,0,0,1,.375.375"/><path class="a" d="M10.5,8.625a.375.375,0,0,1,.375-.375"/><path class="a" d="M10.875,9a.375.375,0,0,1-.375-.375"/><path class="a" d="M11.25,8.625A.375.375,0,0,1,10.875,9"/><line class="a" x1="0.75" y1="14.25" x2="0.75" y2="23.25"/><path class="a" d="M.75,21.75h15a3,3,0,0,0-3-3H9a3,3,0,0,0-3-3H.75"/><line class="a" x1="6" y1="18.75" x2="9" y2="18.75"/><path class="a" d="M16.5,13.5a3.75,3.75,0,0,1-4.5,0"/></svg>