<svg xmlns="http://www.w3.org/2000/svg" viewBox="0 0 24 24"><defs><style>.a{fill:none;stroke:currentColor;stroke-linecap:round;stroke-linejoin:round;stroke-width:1.5px;}</style></defs><title>baby-boy</title><path class="a" d="M8.625,12.5A.375.375,0,0,1,9,12.875"/><path class="a" d="M8.25,12.875a.375.375,0,0,1,.375-.375"/><path class="a" d="M8.625,13.25a.375.375,0,0,1-.375-.375"/><path class="a" d="M9,12.875a.375.375,0,0,1-.375.375"/><path class="a" d="M15.375,12.5a.375.375,0,0,1,.375.375"/><path class="a" d="M15,12.875a.375.375,0,0,1,.375-.375"/><path class="a" d="M15.375,13.25A.375.375,0,0,1,15,12.875"/><path class="a" d="M15.75,12.875a.375.375,0,0,1-.375.375"/><path class="a" d="M20.625,11.375h-.014a9,9,0,0,0-17.222,0H3.375a2.625,2.625,0,0,0,0,5.25h.014a9,9,0,0,0,17.222,0h.014a2.625,2.625,0,0,0,0-5.25Z"/><path class="a" d="M15.354,17.75a4.5,4.5,0,0,1-6.708,0"/><path class="a" d="M14.488,1.25A4.5,4.5,0,1,1,7.642,6.124"/></svg>