<svg xmlns="http://www.w3.org/2000/svg" viewBox="0 0 24 24"><defs><style>.a{fill:none;stroke:currentColor;stroke-linecap:round;stroke-linejoin:round;stroke-width:1.5px;}</style></defs><title>baby-hold-hands</title><path class="a" d="M3.75,23.25,1.736,20.869A4.5,4.5,0,0,1,.75,18.058V12.886a1.5,1.5,0,0,1,1.5-1.5h0a1.5,1.5,0,0,1,1.5,1.5v3.75"/><path class="a" d="M8.25,23.25v-3a4.5,4.5,0,0,0-.757-2.5L6.351,16.04A1.4,1.4,0,0,0,4.374,15.6h0A1.4,1.4,0,0,0,3.9,17.386l1.352,2.25"/><path class="a" d="M20.25,23.25l2.014-2.381a4.5,4.5,0,0,0,.986-2.811V12.886a1.5,1.5,0,0,0-1.5-1.5h0a1.5,1.5,0,0,0-1.5,1.5v3.75"/><path class="a" d="M15.75,23.25v-3a4.5,4.5,0,0,1,.757-2.5l1.142-1.712a1.4,1.4,0,0,1,1.977-.445h0a1.4,1.4,0,0,1,.476,1.791l-1.352,2.25"/><circle class="a" cx="12" cy="6.75" r="6"/><path class="a" d="M13.5,9.348a3,3,0,0,1-3,0"/><path class="a" d="M12,.75a1.5,1.5,0,0,1,0,3"/><path class="a" d="M14.625,5.25A.375.375,0,0,1,15,5.625"/><path class="a" d="M14.25,5.625a.375.375,0,0,1,.375-.375"/><path class="a" d="M14.625,6a.375.375,0,0,1-.375-.375"/><path class="a" d="M15,5.625A.375.375,0,0,1,14.625,6"/><path class="a" d="M9.375,5.25a.375.375,0,0,1,.375.375"/><path class="a" d="M9,5.625a.375.375,0,0,1,.375-.375"/><path class="a" d="M9.375,6A.375.375,0,0,1,9,5.625"/><path class="a" d="M9.75,5.625A.375.375,0,0,1,9.375,6"/></svg>