<svg xmlns="http://www.w3.org/2000/svg" viewBox="0 0 24 24"><defs><style>.a{fill:none;stroke:currentColor;stroke-linecap:round;stroke-linejoin:round;stroke-width:1.5px;}</style></defs><title>baby-care-body</title><path class="a" d="M4.5,8.2v8.572a.751.751,0,0,0,.5.706A4.9,4.9,0,0,1,8.243,22.4a.751.751,0,0,0,.748.8h6.017a.75.75,0,0,0,.748-.8A4.884,4.884,0,0,1,19,17.482a.751.751,0,0,0,.5-.707V8.2"/><path class="a" d="M4.5,9.7H2.25A1.5,1.5,0,0,1,.75,8.2V3.994a1.5,1.5,0,0,1,.975-1.405C3.4,1.963,6.658.75,6.749.75h0c.008.922.8,5.2,5.249,5.2s5.241-4.238,5.249-5.2h0c.091,0,3.348,1.213,5.024,1.839a1.5,1.5,0,0,1,.975,1.405V8.2a1.5,1.5,0,0,1-1.5,1.5H19.5"/><path class="a" d="M15.93,10.293a1.9,1.9,0,0,0-2.751,0L12,11.512l-1.179-1.219a1.9,1.9,0,0,0-2.751,0,2.06,2.06,0,0,0,0,2.845l3.511,3.137a.579.579,0,0,0,.838,0l3.511-3.137A2.06,2.06,0,0,0,15.93,10.293Z"/></svg>