<svg xmlns="http://www.w3.org/2000/svg" viewBox="0 0 24 24"><defs><style>.a{fill:none;stroke:currentColor;stroke-linecap:round;stroke-linejoin:round;stroke-width:1.5px;}</style></defs><title>baby-care-bottle</title><path class="a" d="M16.416,1.188l6.4,6.4a1.493,1.493,0,0,1,0,2.113l-8.668,8.669-8.51-8.51L14.3,1.188A1.493,1.493,0,0,1,16.416,1.188Z"/><path class="a" d="M3.2,9.856a1.72,1.72,0,0,1,2.431,0l8.51,8.51A1.719,1.719,0,0,1,11.712,20.8L3.2,12.288A1.719,1.719,0,0,1,3.2,9.856Z"/><line class="a" x1="10.497" y1="9.856" x2="8.065" y2="7.425"/><line class="a" x1="12.928" y1="7.425" x2="10.497" y2="4.994"/><path class="a" d="M3.405,12.49l-.412.825a4.318,4.318,0,0,0-.4,2.62,4.3,4.3,0,0,1-1.216,3.647,2.149,2.149,0,1,0,3.039,3.039,4.3,4.3,0,0,1,3.647-1.216,4.318,4.318,0,0,0,2.62-.4l.825-.412"/></svg>