<svg xmlns="http://www.w3.org/2000/svg" viewBox="0 0 24 24"><defs><style>.a{fill:none;stroke:currentColor;stroke-linecap:round;stroke-linejoin:round;stroke-width:1.5px;}</style></defs><title>baby-care-clothes</title><path class="a" d="M19.5,8.25h2.25a1.5,1.5,0,0,0,1.5-1.5V4.04a1.5,1.5,0,0,0-.975-1.405C20.575,2,17.25.762,17.249.75h-1.5a3.75,3.75,0,0,1-7.5,0h-1.5C6.75.762,3.425,2,1.725,2.635A1.5,1.5,0,0,0,.75,4.04V6.75a1.5,1.5,0,0,0,1.5,1.5H4.5V20.625a2.625,2.625,0,0,0,5.25,0V17.25a2.25,2.25,0,0,1,4.5,0v3.375a2.625,2.625,0,0,0,5.25,0Z"/><path class="a" d="M12,11.25a.375.375,0,0,1,.375.375"/><path class="a" d="M11.625,11.625A.375.375,0,0,1,12,11.25"/><path class="a" d="M12,12a.375.375,0,0,1-.375-.375"/><path class="a" d="M12.375,11.625A.375.375,0,0,1,12,12"/><path class="a" d="M12,7.5a.375.375,0,0,1,.375.375"/><path class="a" d="M11.625,7.875A.375.375,0,0,1,12,7.5"/><path class="a" d="M12,8.25a.375.375,0,0,1-.375-.375"/><path class="a" d="M12.375,7.875A.375.375,0,0,1,12,8.25"/></svg>