<svg xmlns="http://www.w3.org/2000/svg" viewBox="0 0 24 24"><defs><style>.a{fill:none;stroke:currentColor;stroke-linecap:round;stroke-linejoin:round;stroke-width:1.5px;}</style></defs><title>baby-care-cot-mobile-crib</title><line class="a" x1="0.75" y1="11.25" x2="0.75" y2="14.25"/><line class="a" x1="23.25" y1="11.25" x2="23.25" y2="14.25"/><path class="a" d="M23.25,21.75a1.5,1.5,0,0,1-1.5,1.5H2.25a1.5,1.5,0,0,1-1.5-1.5v-7.5h22.5Z"/><line class="a" x1="5.25" y1="14.25" x2="5.25" y2="23.25"/><line class="a" x1="9.75" y1="14.25" x2="9.75" y2="23.25"/><line class="a" x1="14.25" y1="14.25" x2="14.25" y2="23.25"/><line class="a" x1="18.75" y1="14.25" x2="18.75" y2="23.25"/><line class="a" x1="15.75" y1="0.75" x2="15.75" y2="5.25"/><line class="a" x1="11.25" y1="2.25" x2="11.25" y2="5.451"/><line class="a" x1="20.25" y1="2.25" x2="20.25" y2="5.451"/><line class="a" x1="9.75" y1="2.25" x2="21.75" y2="2.25"/><circle class="a" cx="10.5" cy="6.75" r="1.5"/><circle class="a" cx="15.75" cy="6.75" r="1.5"/><circle class="a" cx="21" cy="6.75" r="1.5"/></svg>