<svg xmlns="http://www.w3.org/2000/svg" viewBox="0 0 24 24"><defs><style>.a{fill:none;stroke:currentColor;stroke-linecap:round;stroke-linejoin:round;stroke-width:1.5px;}</style></defs><title>baby-heart</title><path class="a" d="M9,10.5a1.875,1.875,0,0,1-3,0"/><path class="a" d="M11.25,22.468a8.067,8.067,0,0,1-3.475.782A7.028,7.028,0,0,1,.75,16.435l0-8.935"/><line class="a" x1="0.75" y1="15" x2="8.114" y2="19.295"/><path class="a" d="M17.25,23.25l-5.114-5.335a3.023,3.023,0,0,1-.566-3.492h0a3.025,3.025,0,0,1,4.845-.786l.835.835.835-.835a3.026,3.026,0,0,1,4.846.786h0a3.025,3.025,0,0,1-.567,3.492Z"/><path class="a" d="M8.25,14.209a6.869,6.869,0,0,1-.75.041,6.743,6.743,0,1,1,6.366-4.5"/><path class="a" d="M8.652,6a1.5,1.5,0,0,1,2.6,0"/><path class="a" d="M3.75,6a1.5,1.5,0,0,1,2.6,0"/></svg>