<svg xmlns="http://www.w3.org/2000/svg" viewBox="0 0 24 24"><defs><style>.a{fill:none;stroke:currentColor;stroke-linecap:round;stroke-linejoin:round;stroke-width:1.5px;}</style></defs><title>baby-1</title><path class="a" d="M19.624,17.658A8.232,8.232,0,0,0,20.25,14.5V9.25a8.25,8.25,0,0,0-16.5,0V14.5a8.232,8.232,0,0,0,.626,3.158"/><path class="a" d="M3.75,14.5V10.75a3,3,0,0,0,0,6c.1,0,.206,0,.307-.015A8.245,8.245,0,0,1,3.75,14.5Z"/><path class="a" d="M20.25,14.5V10.75a3,3,0,0,1,0,6c-.1,0-.206,0-.307-.015A8.245,8.245,0,0,0,20.25,14.5Z"/><path class="a" d="M7.125,12.25a.375.375,0,0,1,.375.375"/><path class="a" d="M6.75,12.625a.375.375,0,0,1,.375-.375"/><path class="a" d="M7.125,13a.375.375,0,0,1-.375-.375"/><path class="a" d="M7.5,12.625A.375.375,0,0,1,7.125,13"/><path class="a" d="M16.875,12.25a.375.375,0,0,1,.375.375"/><path class="a" d="M16.5,12.625a.375.375,0,0,1,.375-.375"/><path class="a" d="M16.875,13a.375.375,0,0,1-.375-.375"/><path class="a" d="M17.25,12.625a.375.375,0,0,1-.375.375"/><path class="a" d="M12,4a3.254,3.254,0,0,1,1.875,3,2.25,2.25,0,0,1-2.25,2.25A1.874,1.874,0,0,1,9.75,7.375a1.5,1.5,0,0,1,.633-1.224"/><path class="a" d="M14.889,17.014a3.074,3.074,0,0,0-1.551.416,2.668,2.668,0,0,1-2.677,0,3.111,3.111,0,1,0,0,5.392,2.673,2.673,0,0,1,2.677,0,3.074,3.074,0,0,0,1.551.416,3.111,3.111,0,0,0,0-6.222Z"/><line class="a" x1="10.875" y1="20.125" x2="13.125" y2="20.125"/></svg>