<svg xmlns="http://www.w3.org/2000/svg" viewBox="0 0 24 24"><defs><style>.a{fill:none;stroke:currentColor;stroke-linecap:round;stroke-linejoin:round;stroke-width:1.5px;}</style></defs><title>baby-mother</title><path class="a" d="M19.112,9a8.25,8.25,0,1,0-16.5,0v2.076a4.5,4.5,0,0,1-.364,1.773L.873,16.059c-.324.755.138,1.427.762,1.962,1.308,1.12,3.821,1.826,6.615,2.1"/><path class="a" d="M15,8.882A6.364,6.364,0,0,1,10.862,5.25s-1.433,3.6-5.031,3.745a5.257,5.257,0,0,0,2.419,6.06"/><circle class="a" cx="17.25" cy="17.25" r="6"/><path class="a" d="M18.75,19.848a3,3,0,0,1-3,0"/><path class="a" d="M17.25,11.25a1.5,1.5,0,0,1,0,3"/><path class="a" d="M19.875,15.75a.375.375,0,0,1,.375.375"/><path class="a" d="M19.5,16.125a.375.375,0,0,1,.375-.375"/><path class="a" d="M19.875,16.5a.375.375,0,0,1-.375-.375"/><path class="a" d="M20.25,16.125a.375.375,0,0,1-.375.375"/><path class="a" d="M14.625,15.75a.375.375,0,0,1,.375.375"/><path class="a" d="M14.25,16.125a.375.375,0,0,1,.375-.375"/><path class="a" d="M14.625,16.5a.375.375,0,0,1-.375-.375"/><path class="a" d="M15,16.125a.375.375,0,0,1-.375.375"/></svg>