<svg xmlns="http://www.w3.org/2000/svg" viewBox="0 0 24 24"><defs><style>.a{fill:none;stroke:currentColor;stroke-linecap:round;stroke-linejoin:round;stroke-width:1.5px;}</style></defs><title>baby-stork</title><path class="a" d="M7.5,3.875a.375.375,0,0,1,.375.375"/><path class="a" d="M7.125,4.25A.375.375,0,0,1,7.5,3.875"/><path class="a" d="M7.5,4.625a.375.375,0,0,1-.375-.375"/><path class="a" d="M7.875,4.25a.375.375,0,0,1-.375.375"/><path class="a" d="M11.938,6A39.188,39.188,0,0,1,22.791,8.309.75.75,0,0,1,22.5,9.75H7.5"/><path class="a" d="M19.777,9.75C21.3,12.442,23.25,16.233,23.25,18a5.25,5.25,0,0,1-10.5,0c0-1.767,1.95-5.558,3.473-8.25"/><line class="a" x1="18" y1="5.25" x2="21" y2="2.25"/><line class="a" x1="18" y1="5.25" x2="15" y2="2.25"/><path class="a" d="M7.5,9.75A4.5,4.5,0,1,0,3,5.25v9A2.25,2.25,0,0,1,.75,16.5"/><path class="a" d="M7.5,9.75s1.5,6.515,1.5,9a4.5,4.5,0,0,1-4.5,4.5"/></svg>