<svg xmlns="http://www.w3.org/2000/svg" viewBox="0 0 24 24"><defs><style>.a{fill:none;stroke:currentColor;stroke-linecap:round;stroke-linejoin:round;stroke-width:1.5px;}</style></defs><title>baby-care-diaper</title><path class="a" d="M23.25,11A11.25,11.25,0,0,1,.75,11V2.75A.75.75,0,0,1,1.5,2h21a.75.75,0,0,1,.75.75Z"/><path class="a" d="M16.552,21.291a5.253,5.253,0,0,1,6.391-7.67"/><path class="a" d="M7.448,21.291a5.253,5.253,0,0,0-6.391-7.67"/><path class="a" d="M15.93,7.089a1.9,1.9,0,0,0-2.751,0L12,8.308,10.821,7.089a1.9,1.9,0,0,0-2.751,0,2.06,2.06,0,0,0,0,2.845l3.511,3.137a.579.579,0,0,0,.838,0L15.93,9.934A2.06,2.06,0,0,0,15.93,7.089Z"/><line class="a" x1="0.75" y1="9.5" x2="4.5" y2="9.5"/><line class="a" x1="5.25" y1="5.75" x2="0.75" y2="5.75"/><line class="a" x1="23.25" y1="9.5" x2="19.5" y2="9.5"/><line class="a" x1="18.75" y1="5.75" x2="23.25" y2="5.75"/></svg>