<svg xmlns="http://www.w3.org/2000/svg" viewBox="0 0 24 24"><defs><style>.a{fill:none;stroke:currentColor;stroke-linecap:round;stroke-linejoin:round;stroke-width:1.5px;}</style></defs><title>baby-care-cot-mobile</title><line class="a" x1="3.25" y1="5.25" x2="21.25" y2="5.25"/><line class="a" x1="12.25" y1="14.25" x2="12.25" y2="5.25"/><path class="a" d="M15.25,20.25a3,3,0,0,1-6,0c0-1.657,3-6,3-6S15.25,18.593,15.25,20.25Z"/><line class="a" x1="4.75" y1="5.25" x2="4.75" y2="11.25"/><line class="a" x1="12.25" y1="0.75" x2="12.25" y2="5.25"/><circle class="a" cx="4.75" cy="14.25" r="3"/><path class="a" d="M17.327,15.75a.376.376,0,0,1-.343-.527L19.75,9l2.766,6.223a.376.376,0,0,1-.343.527Z"/><line class="a" x1="19.75" y1="5.25" x2="19.75" y2="9"/></svg>