<svg xmlns="http://www.w3.org/2000/svg" viewBox="0 0 24 24"><defs><style>.a{fill:none;stroke:currentColor;stroke-linecap:round;stroke-linejoin:round;stroke-width:1.5px;}</style></defs><title>baby</title><path class="a" d="M20.625,9.875h-.014c-.361-4.55-4.553-7.55-8.611-7.55s-8.25,3-8.611,7.55H3.375a2.625,2.625,0,0,0,0,5.25h.014a9,9,0,0,0,17.222,0h.014a2.625,2.625,0,0,0,0-5.25Z"/><path class="a" d="M12,2.325a2.25,2.25,0,1,1-2.122,3"/><path class="a" d="M13.984,17a3,3,0,0,1-3.968,0"/><path class="a" d="M17.25,11a1.5,1.5,0,0,1-3,0"/><path class="a" d="M9.75,11a1.5,1.5,0,0,1-3,0"/></svg>