<svg xmlns="http://www.w3.org/2000/svg" viewBox="0 0 24 24"><defs><style>.a{fill:none;stroke:currentColor;stroke-linecap:round;stroke-linejoin:round;stroke-width:1.5px;}</style></defs><title>baby-girl</title><path class="a" d="M13.984,18.176a3,3,0,0,1-3.968,0"/><path class="a" d="M17.25,12.175a1.5,1.5,0,0,1-3,0"/><path class="a" d="M9.75,12.175a1.5,1.5,0,0,1-3,0"/><circle class="a" cx="12" cy="4.675" r="2.25"/><path class="a" d="M13.955,3.561l2.683-2.147a.751.751,0,0,1,1.1.174,5.2,5.2,0,0,1,0,6.174.753.753,0,0,1-1.1.174L13.955,5.789"/><path class="a" d="M10.045,3.561,7.362,1.414a.751.751,0,0,0-1.1.174,5.2,5.2,0,0,0,0,6.174.753.753,0,0,0,1.1.174l2.683-2.147"/><path class="a" d="M5.87,7.086A9,9,0,0,0,3.389,11.05H3.375a2.625,2.625,0,0,0,0,5.25h.014a9,9,0,0,0,17.222,0h.014a2.625,2.625,0,0,0,0-5.25h-.014A9,9,0,0,0,18.13,7.086"/></svg>