<svg xmlns="http://www.w3.org/2000/svg" viewBox="0 0 24 24"><defs><style>.a{fill:none;stroke:currentColor;stroke-linecap:round;stroke-linejoin:round;stroke-width:1.5px;}</style></defs><title>baby-care-bib</title><path class="a" d="M23.25,11.75a11.25,11.25,0,0,1-22.5,0c0-7.027,6.171-10.5,7.5-10.5a1.5,1.5,0,0,1,1.5,1.5C9.75,4.785,6,4.239,6,8c0,2.49,2.265,4.5,6,4.5s6-2.01,6-4.5c0-3.594-3.75-3.521-3.75-5.25a1.5,1.5,0,0,1,1.5-1.5C17.3,1.25,23.25,4.908,23.25,11.75Z"/><path class="a" d="M14.25,14.75a1.5,1.5,0,0,0-1.5,1.5,1.235,1.235,0,0,0,.03.147,2.143,2.143,0,0,0-1.56,0,1.235,1.235,0,0,0,.03-.147,1.5,1.5,0,1,0-1.5,1.5,1.472,1.472,0,0,0,.147-.03,2.224,2.224,0,0,0-.147.78,2.25,2.25,0,0,0,4.5,0,2.224,2.224,0,0,0-.147-.78,1.472,1.472,0,0,0,.147.03,1.5,1.5,0,0,0,0-3Z"/></svg>