<svg xmlns="http://www.w3.org/2000/svg" viewBox="0 0 24 24"><defs><style>.a{fill:none;stroke:currentColor;stroke-linecap:round;stroke-linejoin:round;stroke-width:1.5px;}</style></defs><title>baby-trolley</title><path class="a" d="M9.75,12a3.75,3.75,0,0,0-7.5,0L1.5,18.75H3.75l.75,4.5h3l.75-4.5"/><circle class="a" cx="6" cy="3.75" r="3"/><path class="a" d="M3,3.75S3,7.5.75,7.5"/><path class="a" d="M9,3.75S9,7.5,11.25,7.5"/><path class="a" d="M10.5,15.75a.75.75,0,0,1,.75-.75H18V11.312a.749.749,0,0,1,.875-.739A5.25,5.25,0,0,1,18,21H15a4.5,4.5,0,0,1-4.5-4.5Z"/><path class="a" d="M20.625,22.5a.375.375,0,0,1,.375.375"/><path class="a" d="M20.25,22.875a.375.375,0,0,1,.375-.375"/><path class="a" d="M20.625,23.25a.375.375,0,0,1-.375-.375"/><path class="a" d="M21,22.875a.375.375,0,0,1-.375.375"/><path class="a" d="M13.125,22.5a.375.375,0,0,1,.375.375"/><path class="a" d="M12.75,22.875a.375.375,0,0,1,.375-.375"/><path class="a" d="M13.125,23.25a.375.375,0,0,1-.375-.375"/><path class="a" d="M13.5,22.875a.375.375,0,0,1-.375.375"/></svg>