<svg id="Regular" xmlns="http://www.w3.org/2000/svg" viewBox="0 0 24 24"><defs><style>.cls-1{fill:none;stroke:currentColor;stroke-linecap:round;stroke-linejoin:round;stroke-width:1.5px;}</style></defs><title>badminton-player</title><circle class="cls-1" cx="10.125" cy="5.625" r="2.625"/><path class="cls-1" d="M22.04,7a1.5,1.5,0,0,0-1.912-.918L9.193,9.921A3,3,0,0,1,5.421,8.2,1.5,1.5,0,1,0,2.635,9.315a5.991,5.991,0,0,0,7.547,3.438l.366-.128.961,1.789-2.071,6.9a1.5,1.5,0,0,0,1.006,1.868,1.54,1.54,0,0,0,.431.063,1.5,1.5,0,0,0,1.437-1.069L14.2,15.9l1.11.138A1.5,1.5,0,0,1,16.545,18L16.2,19.025a1.5,1.5,0,1,0,2.844.95l.343-1.029a4.5,4.5,0,0,0-3.71-5.888l-1.6-.2-.666-1.239,7.708-2.7A1.5,1.5,0,0,0,22.04,7Z"/><ellipse class="cls-1" cx="3.75" cy="3" rx="1.875" ry="2.25"/><line class="cls-1" x1="3.75" y1="5.25" x2="3.75" y2="7.283"/><path class="cls-1" d="M17.408.97a.75.75,0,0,0-1.242.293l-.733,2.2a.75.75,0,0,0,.949.948l2.2-.733a.75.75,0,0,0,.293-1.242Z"/></svg>