<svg id="Regular" xmlns="http://www.w3.org/2000/svg" viewBox="0 0 24 24"><defs><style>.cls-1{fill:none;stroke:currentColor;stroke-linecap:round;stroke-linejoin:round;stroke-width:1.5px;}</style></defs><title>badminton-shuttlecock-racquet</title><path class="cls-1" d="M3.311,22.811a1.5,1.5,0,0,1-2.122-2.122L4.682,17.2,6.8,19.318Z"/><line class="cls-1" x1="8.25" y1="15.75" x2="5.743" y2="18.257"/><path class="cls-1" d="M10.417,5.1a8.341,8.341,0,0,1,1.471-1.983c2.861-2.861,7.195-3.166,9.68-.68s2.181,6.819-.68,9.68-7.2,3.165-9.68.68A5.7,5.7,0,0,1,9.664,9.913"/><path class="cls-1" d="M9.664,9.912,8.25,15.75l5.838-1.414"/><line class="cls-1" x1="22.358" y1="10.129" x2="13.871" y2="1.642"/><line class="cls-1" x1="10.418" y1="5.095" x2="18.905" y2="13.582"/><line class="cls-1" x1="19.773" y1="1.227" x2="10.003" y2="10.997"/><line class="cls-1" x1="13.003" y1="13.997" x2="22.773" y2="4.227"/><path class="cls-1" d="M.75,5.024,4.993.781,8.008,5.99a1.5,1.5,0,0,1-2.05,2.049Z"/><line class="cls-1" x1="4.109" y1="6.969" x2="6.937" y2="4.14"/></svg>