<svg id="Regular" xmlns="http://www.w3.org/2000/svg" viewBox="0 0 24 24"><defs><style>.cls-1{fill:none;stroke:currentColor;stroke-linecap:round;stroke-linejoin:round;stroke-width:1.5px;}</style></defs><title>badminton-shuttlecock</title><path class="cls-1" d="M7.152,22.152a3.75,3.75,0,0,1-5.3-5.3l.531-.53,5.3,5.3Z"/><rect class="cls-1" x="2.341" y="16.409" width="7.5" height="3" transform="translate(14.448 0.938) rotate(45)"/><path class="cls-1" d="M9.8,19.5,22.3,14.623a1.5,1.5,0,0,0,.954-1.4V11.25a1.5,1.5,0,0,0-1.5-1.5h-3v-3a1.5,1.5,0,0,0-1.5-1.5h-3v-3a1.5,1.5,0,0,0-1.5-1.5H10.775a1.5,1.5,0,0,0-1.4.954L4.5,14.2Z"/><line class="cls-1" x1="14.25" y1="5.25" x2="6.237" y2="15.934"/><line class="cls-1" x1="18.75" y1="9.75" x2="8.066" y2="17.763"/></svg>