<svg id="Regular" xmlns="http://www.w3.org/2000/svg" viewBox="0 0 24 24"><defs><style>.cls-1{fill:none;stroke:currentColor;stroke-linecap:round;stroke-linejoin:round;stroke-width:1.5px;}</style></defs><title>bag-carry</title><path class="cls-1" d="M1.75,5.25h17.5a1,1,0,0,1,1,1v10.5a2,2,0,0,1-2,2H2.75a2,2,0,0,1-2-2V6.25A1,1,0,0,1,1.75,5.25Z"/><line class="cls-1" x1="23.25" y1="15.75" x2="20.25" y2="8.25"/><path class="cls-1" d="M12.75,9V5.25H8.25V9a3.75,3.75,0,1,0,4.5,0Z"/><path class="cls-1" d="M10.5,11.625a.375.375,0,1,1-.375.375.375.375,0,0,1,.375-.375"/><line class="cls-1" x1="0.75" y1="12.75" x2="6.825" y2="12.75"/><line class="cls-1" x1="20.25" y1="12.75" x2="14.175" y2="12.75"/></svg>