<svg id="Regular" xmlns="http://www.w3.org/2000/svg" viewBox="0 0 24 24"><defs><style>.cls-1{fill:none;stroke:currentColor;stroke-linecap:round;stroke-linejoin:round;stroke-width:1.5px;}</style></defs><title>bag-school</title><path class="cls-1" d="M3.25,8.25h17.5a1,1,0,0,1,1,1v6a2,2,0,0,1-2,2H4.25a2,2,0,0,1-2-2v-6a1,1,0,0,1,1-1Z"/><path class="cls-1" d="M20.25,16.845V21.75a1.5,1.5,0,0,1-1.5,1.5H5.25a1.5,1.5,0,0,1-1.5-1.5V16.845"/><path class="cls-1" d="M.75,11.25v-6A4.5,4.5,0,0,1,5.25.75h13.5a4.5,4.5,0,0,1,4.5,4.5v6"/><line class="cls-1" x1="6.75" y1="15.75" x2="6.75" y2="18.75"/><line class="cls-1" x1="17.25" y1="15.75" x2="17.25" y2="18.75"/><line class="cls-1" x1="12" y1="17.25" x2="12" y2="23.25"/></svg>