<svg xmlns="http://www.w3.org/2000/svg" viewBox="0 0 24 24"><defs><style>.a{fill:none;stroke:currentColor;stroke-linecap:round;stroke-linejoin:round;stroke-width:1.5px;}</style></defs><title>baggage-plane</title><path class="a" d="M20.777,12.789l-8.886,2.987L10.7,14.593l-1.766.593a.75.75,0,0,0-.32,1.211l2.389,2.674a1.5,1.5,0,0,0,1.6.422l2.617-.879-.53,3.78a.749.749,0,0,0,.981.815l1.361-.457a.752.752,0,0,0,.46-.439l1.994-5.133,2.488-.836a1.875,1.875,0,0,0-1.2-3.555Z"/><path class="a" d="M18.289,13.625l-2.78-1.914a.749.749,0,0,0-.664-.093l-1.338.45a.749.749,0,0,0-.29,1.242l1.517,1.51"/><path class="a" d="M8.25,20.249H3.75a3,3,0,0,1-3-3v-9a3,3,0,0,1,3-3h13.5a3,3,0,0,1,3,3v1.5"/><line class="a" x1="6" y1="5.249" x2="6" y2="20.249"/><line class="a" x1="15" y1="5.249" x2="15" y2="8.999"/><path class="a" d="M13.5,5.249v-3A1.5,1.5,0,0,0,12,.749H9a1.5,1.5,0,0,0-1.5,1.5v3"/></svg>