<svg xmlns="http://www.w3.org/2000/svg" viewBox="0 0 24 24"><defs><style>.a{fill:none;stroke:currentColor;stroke-linecap:round;stroke-linejoin:round;stroke-width:1.5px;}</style></defs><title>baggage-check-in-user</title><circle class="a" cx="19.5" cy="3.749" r="2.625"/><path class="a" d="M17.25,21a2.25,2.25,0,0,0,4.5,0v-3.75a1.5,1.5,0,0,0,1.5-1.5v-4.5a3,3,0,0,0-3-3h-1.5a3,3,0,0,0-3,3v4.5a1.5,1.5,0,0,0,1.5,1.5Z"/><line class="a" x1="0.75" y1="23.249" x2="14.25" y2="23.249"/><path class="a" d="M11.25,9.749h-9a1.5,1.5,0,0,1-1.5-1.5v-6a1.5,1.5,0,0,1,1.5-1.5h10.5a1.5,1.5,0,0,1,1.5,1.5v4.5"/><line class="a" x1="3.75" y1="3.749" x2="6.75" y2="3.749"/><line class="a" x1="3.75" y1="6.749" x2="9.75" y2="6.749"/><rect class="a" x="2.25" y="17.249" width="9" height="6" rx="1.5" ry="1.5"/><path class="a" d="M9,17.249v-1.5a1.5,1.5,0,0,0-1.5-1.5H6a1.5,1.5,0,0,0-1.5,1.5v1.5"/></svg>