<svg xmlns="http://www.w3.org/2000/svg" viewBox="0 0 24 24"><defs><style>.a{fill:none;stroke:currentColor;stroke-linecap:round;stroke-linejoin:round;stroke-width:1.5px;}</style></defs><title>baggage-check</title><rect class="a" x="5.25" y="14.237" width="13.5" height="9" rx="1.5" ry="1.5"/><path class="a" d="M15,23.237v-10.5a1.5,1.5,0,0,0-1.5-1.5h-3a1.5,1.5,0,0,0-1.5,1.5v10.5"/><path class="a" d="M17.25,9.625a16.214,16.214,0,0,0,3.409-2.764,1.26,1.26,0,0,0,0-1.726C18.561,2.9,15.225.711,12,.763,8.775.711,5.439,2.9,3.343,5.135a1.26,1.26,0,0,0,0,1.726A16.214,16.214,0,0,0,6.75,9.625"/><circle class="a" cx="12" cy="5.999" r="2.25"/></svg>