<svg xmlns="http://www.w3.org/2000/svg" viewBox="0 0 24 24"><defs><style>.a{fill:none;stroke:currentColor;stroke-linecap:round;stroke-linejoin:round;stroke-width:1.5px;}</style></defs><title>baggage-leave</title><circle class="a" cx="9.75" cy="3.375" r="2.625"/><path class="a" d="M11.235,15.479,8.887,14.54a4.518,4.518,0,0,1-2.4-2.265l-2.522,4.2a1.489,1.489,0,0,0-.214.771v4.5a1.5,1.5,0,0,1-3,0v-4.5a4.5,4.5,0,0,1,.642-2.314L5.464,8.147a1.5,1.5,0,0,1,2.679.216l1.023,2.556a1.5,1.5,0,0,0,.834.835l1.238.5"/><path class="a" d="M23.25,23.25H13.5a2.25,2.25,0,0,1,0-4.5h9.75"/><rect class="a" x="14.25" y="9.75" width="9" height="6" rx="0.5" ry="0.5"/><path class="a" d="M17.25,9.75V8.25a1.5,1.5,0,0,1,3,0v1.5"/><path class="a" d="M15,20.625a.375.375,0,1,1-.375.375A.375.375,0,0,1,15,20.625"/><path class="a" d="M18.75,20.625a.375.375,0,1,1-.375.375.375.375,0,0,1,.375-.375"/><path class="a" d="M22.5,20.625a.375.375,0,1,1-.375.375.375.375,0,0,1,.375-.375"/></svg>