<svg xmlns="http://www.w3.org/2000/svg" viewBox="0 0 24 24"><defs><style>.a{fill:none;stroke:currentColor;stroke-linecap:round;stroke-linejoin:round;stroke-width:1.5px;}</style></defs><title>baggage-add</title><path class="a" d="M8.25,17.249H3.35a2.651,2.651,0,0,1-2.6-2.7v-8.1a2.651,2.651,0,0,1,2.6-2.7h14.3a2.651,2.651,0,0,1,2.6,2.7v1.8"/><line class="a" x1="6.75" y1="3.749" x2="6.75" y2="17.249"/><line class="a" x1="14.25" y1="3.749" x2="14.25" y2="8.249"/><path class="a" d="M11.625.749H9.375a1.068,1.068,0,0,0-1.125,1v2h4.5v-2A1.068,1.068,0,0,0,11.625.749Z"/><circle class="a" cx="17.25" cy="17.249" r="6"/><line class="a" x1="17.25" y1="14.249" x2="17.25" y2="20.249"/><line class="a" x1="14.25" y1="17.249" x2="20.25" y2="17.249"/></svg>