<svg xmlns="http://www.w3.org/2000/svg" viewBox="0 0 24 24"><defs><style>.a{fill:none;stroke:currentColor;stroke-linecap:round;stroke-linejoin:round;stroke-width:1.5px;}</style></defs><title>baggage-line</title><rect class="a" x="3.75" y="3.749" width="18" height="12" rx="1" ry="1"/><line class="a" x1="8.25" y1="3.749" x2="8.25" y2="15.749"/><line class="a" x1="17.25" y1="3.749" x2="17.25" y2="15.749"/><path class="a" d="M9.75,3.749a3,3,0,0,1,6,0"/><path class="a" d="M23.25,23.249H3a2.25,2.25,0,0,1,0-4.5H23.25"/><path class="a" d="M6.75,20.624A.375.375,0,1,1,6.375,21a.375.375,0,0,1,.375-.375"/><path class="a" d="M11.25,20.624a.375.375,0,1,1-.375.375.375.375,0,0,1,.375-.375"/><path class="a" d="M15.75,20.624a.375.375,0,1,1-.375.375.375.375,0,0,1,.375-.375"/><path class="a" d="M20.25,20.624a.375.375,0,1,1-.375.375.375.375,0,0,1,.375-.375"/></svg>