<svg xmlns="http://www.w3.org/2000/svg" viewBox="0 0 24 24"><defs><style>.a{fill:none;stroke:currentColor;stroke-linecap:round;stroke-linejoin:round;stroke-width:1.5px;}</style></defs><title>baggage-cart-1</title><rect class="a" x="8.25" y="4.499" width="13.5" height="9" rx="1.5" ry="1.5"/><path class="a" d="M13.5,1.5h3A1.5,1.5,0,0,1,18,3V4.5H12V3A1.5,1.5,0,0,1,13.5,1.5Z"/><line class="a" x1="18" y1="4.499" x2="18" y2="13.499"/><line class="a" x1="12" y1="4.499" x2="12" y2="13.499"/><path class="a" d="M23.25,16.5H7.292a1.5,1.5,0,0,1-1.484-1.277L3.942,2.777A1.5,1.5,0,0,0,2.458,1.5H.75"/><circle class="a" cx="19.875" cy="20.624" r="1.875"/><circle class="a" cx="9.375" cy="20.624" r="1.875"/></svg>