<svg id="Regular" xmlns="http://www.w3.org/2000/svg" viewBox="0 0 24 24"><defs><style>.cls-1{fill:none;stroke:currentColor;stroke-linecap:round;stroke-linejoin:round;stroke-width:1.5px;}</style></defs><title>bandage-shoulder</title><circle class="cls-1" cx="10" cy="3.375" r="2.625"/><line class="cls-1" x1="10" y1="17.25" x2="10" y2="21.75"/><path class="cls-1" d="M7,17.25v4.5a1.5,1.5,0,0,0,3,0,1.5,1.5,0,0,0,3,0v-9.5A5.956,5.956,0,0,0,18.032,15h.218a1.5,1.5,0,0,0,0-3h-.218a3,3,0,0,1-2.684-1.659l-.177-.354a4.5,4.5,0,0,0-2.31-2.148"/><path class="cls-1" d="M7.049,7.739A4.5,4.5,0,0,0,4,12v.75a1.5,1.5,0,0,0,1.5,1.5H7"/><line class="cls-1" x1="10" y1="7.5" x2="7" y2="14.25"/><path class="cls-1" d="M8.333,11.25H9.25a1.5,1.5,0,0,1,0,3H7"/></svg>