<svg id="Regular" xmlns="http://www.w3.org/2000/svg" viewBox="0 0 24 24"><defs><style>.cls-1{fill:none;stroke:currentColor;stroke-linecap:round;stroke-linejoin:round;stroke-width:1.5px;}</style></defs><title>bandage-leg-hanging-hospital</title><rect class="cls-1" x="0.75" y="18.75" width="22.5" height="3"/><line class="cls-1" x1="0.75" y1="23.25" x2="0.75" y2="21.75"/><line class="cls-1" x1="23.25" y1="23.25" x2="23.25" y2="21.75"/><circle class="cls-1" cx="3.75" cy="16.125" r="2.625"/><path class="cls-1" d="M21,9.75h.75a1.5,1.5,0,0,1,0,3H18.177l-2.585,5.171a1.5,1.5,0,0,1-1.342.829H9.75a1.5,1.5,0,0,1,0-3h3.573l2.585-5.171A1.5,1.5,0,0,1,17.25,9.75"/><path class="cls-1" d="M16.677,15.75H21.75a1.5,1.5,0,0,1,0,3h-7.5"/><path class="cls-1" d="M9,3.75H6.75V1.5A.75.75,0,0,0,6,.75H4.5a.75.75,0,0,0-.75.75V3.75H1.5a.75.75,0,0,0-.75.75V6a.75.75,0,0,0,.75.75H3.75V9a.75.75,0,0,0,.75.75H6A.75.75,0,0,0,6.75,9V6.75H9A.75.75,0,0,0,9.75,6V4.5A.75.75,0,0,0,9,3.75Z"/><line class="cls-1" x1="15" y1="0.75" x2="18.062" y2="12.981"/><line class="cls-1" x1="23.25" y1="0.75" x2="20.25" y2="12.75"/></svg>