<svg id="Regular" xmlns="http://www.w3.org/2000/svg" viewBox="0 0 24 24"><defs><style>.cls-1{fill:none;stroke:currentColor;stroke-linecap:round;stroke-linejoin:round;stroke-width:1.5px;}</style></defs><title>bandage</title><path class="cls-1" d="M8.993,2.371,21.726,15.105a4.682,4.682,0,1,1-6.621,6.621L2.371,8.993A4.682,4.682,0,0,1,8.993,2.371Z"/><rect class="cls-1" x="7.367" y="9.528" width="9.364" height="5.042" transform="translate(-4.991 12.049) rotate(-45)"/><path class="cls-1" d="M15.835,17.342a.375.375,0,0,0-.531,0"/><path class="cls-1" d="M15.835,17.872a.375.375,0,0,0,0-.53"/><path class="cls-1" d="M15.3,17.872a.377.377,0,0,0,.531,0"/><path class="cls-1" d="M15.3,17.342a.375.375,0,0,0,0,.53"/><path class="cls-1" d="M19.909,17.342a.374.374,0,0,0-.53,0"/><path class="cls-1" d="M19.909,17.872a.374.374,0,0,0,0-.53"/><path class="cls-1" d="M19.379,17.872a.375.375,0,0,0,.53,0"/><path class="cls-1" d="M19.379,17.342a.374.374,0,0,0,0,.53"/><path class="cls-1" d="M4.629,6.136a.375.375,0,0,0-.53,0"/><path class="cls-1" d="M4.629,6.667a.375.375,0,0,0,0-.531"/><path class="cls-1" d="M4.1,6.667a.375.375,0,0,0,.53,0"/><path class="cls-1" d="M4.1,6.136a.375.375,0,0,0,0,.531"/><path class="cls-1" d="M8.7,6.136a.375.375,0,0,0-.53,0"/><path class="cls-1" d="M8.7,6.667a.377.377,0,0,0,0-.531"/><path class="cls-1" d="M8.174,6.667a.375.375,0,0,0,.53,0"/><path class="cls-1" d="M8.174,6.136a.375.375,0,0,0,0,.531"/></svg>