<svg id="Regular" xmlns="http://www.w3.org/2000/svg" viewBox="0 0 24 24"><defs><style>.cls-1{fill:none;stroke:currentColor;stroke-linecap:round;stroke-linejoin:round;stroke-width:1.5px;}</style></defs><title>bandage-leg</title><path class="cls-1" d="M11,14.25H8.75c-3.328,0-5.425,2.051-6.292,5.243A3,3,0,0,0,5.371,23.25H20a1.5,1.5,0,0,0,1.5-1.5V2.25A1.5,1.5,0,0,0,20,.75H12.5"/><path class="cls-1" d="M21.5,6.75,7.129,1.275A1.5,1.5,0,0,0,5.2,2.12L3.307,6.857a1.5,1.5,0,0,0,.836,1.95L21.5,15.75Z"/><line class="cls-1" x1="17.002" y1="16.831" x2="11.75" y2="23.25"/><line class="cls-1" x1="3.411" y1="17.205" x2="12.839" y2="21.919"/><line class="cls-1" x1="11" y1="14.25" x2="14.782" y2="19.544"/><line class="cls-1" x1="18.5" y1="0.75" x2="16.814" y2="4.965"/></svg>