<svg id="Regular" xmlns="http://www.w3.org/2000/svg" viewBox="0 0 24 24"><defs><style>.cls-1{fill:none;stroke:currentColor;stroke-linecap:round;stroke-linejoin:round;stroke-width:1.5px;}</style></defs><title>bandage-leg-hanging</title><line class="cls-1" x1="11.721" y1="7.962" x2="16.74" y2="12.413"/><line class="cls-1" x1="15.897" y1="6.286" x2="20.916" y2="10.737"/><line class="cls-1" x1="20.907" y1="2.66" x2="17.964" y2="8.119"/><path class="cls-1" d="M11.93,14.344l10.378-4.165a1.5,1.5,0,0,0,.834-1.951L20.907,2.66a3,3,0,1,0-5.568,2.234L15.9,6.286l-4.284,1.72"/><line class="cls-1" x1="0.75" y1="18.75" x2="6.864" y2="15.858"/><line class="cls-1" x1="7.083" y1="10.336" x2="0.75" y2="12"/><path class="cls-1" d="M11.25.75l.7,13.958a1.5,1.5,0,0,1-.907,1.453l-2.1.9a1.5,1.5,0,0,1-2.089-1.444L7.5.75"/><path class="cls-1" d="M.75,23.25h21a1.5,1.5,0,0,0,1.5-1.5V16.437a1.436,1.436,0,0,0-2.668-.739l-1.395,2.324a1.5,1.5,0,0,1-1.286.728H11.25"/></svg>