<svg id="Regular" xmlns="http://www.w3.org/2000/svg" viewBox="0 0 24 24"><defs><style>.cls-1{fill:none;stroke:currentColor;stroke-linecap:round;stroke-linejoin:round;stroke-width:1.5px;}</style></defs><title>barbecue-grill</title><path class="cls-1" d="M17.625,9a1.134,1.134,0,0,1,1.125,1.349,6.9,6.9,0,0,1-13.477,0A1.132,1.132,0,0,1,6.4,9Z"/><line class="cls-1" x1="19.5" y1="23.25" x2="16.233" y2="14.327"/><line class="cls-1" x1="4.5" y1="23.25" x2="7.767" y2="14.327"/><line class="cls-1" x1="18.402" y1="20.25" x2="5.598" y2="20.25"/><path class="cls-1" d="M6.92.75,6.3,1.573A1.584,1.584,0,0,0,6.545,3.75h0a1.585,1.585,0,0,1,.242,2.177l-.162.216"/><path class="cls-1" d="M12.556.75l-.617.823a1.585,1.585,0,0,0,.242,2.177h0a1.584,1.584,0,0,1,.243,2.177l-.162.216"/><path class="cls-1" d="M17.806.75l-.617.823a1.585,1.585,0,0,0,.242,2.177h0a1.584,1.584,0,0,1,.243,2.177l-.162.216"/></svg>