<svg id="Regular" xmlns="http://www.w3.org/2000/svg" viewBox="0 0 24 24"><defs><style>.cls-1{fill:none;stroke:currentColor;stroke-linecap:round;stroke-linejoin:round;stroke-width:1.5px;}</style></defs><title>barbecue-steak-shrimp</title><path class="cls-1" d="M16.5,12.75H15.117A7.5,7.5,0,1,0,8.25,23.25H16.5a5.25,5.25,0,0,0,0-10.5Z"/><path class="cls-1" d="M16.5,15.75H12.75a4.5,4.5,0,1,0-4.5,4.5H16.5a2.25,2.25,0,0,0,0-4.5Z"/><path class="cls-1" d="M7.125,14.25a.375.375,0,1,1-.375.375.375.375,0,0,1,.375-.375"/><path class="cls-1" d="M15.963,5.14a1.556,1.556,0,0,0,1.447-.093,1.927,1.927,0,0,1,2.86,1.859c-.046.874-.555,3.106,1.4,3.209A5.65,5.65,0,0,0,22.779,3.9a5.254,5.254,0,0,0-8.326-1.8A1.51,1.51,0,0,0,14.8,4.584Z"/><line class="cls-1" x1="19.138" y1="4.968" x2="19.83" y2="1.093"/><line class="cls-1" x1="20.258" y1="6.514" x2="23.232" y2="6.67"/></svg>