<svg id="Regular" xmlns="http://www.w3.org/2000/svg" viewBox="0 0 24 24"><defs><style>.cls-1{fill:none;stroke:currentColor;stroke-linecap:round;stroke-linejoin:round;stroke-width:1.5px;}</style></defs><title>barbecue-steak</title><path class="cls-1" d="M23.25,6.75h0a6,6,0,0,0-6-6H9.75a9,9,0,0,0-9,9V18A5.251,5.251,0,0,0,6,23.25H6A5.251,5.251,0,0,0,11.25,18v-.75a4.5,4.5,0,0,1,4.5-4.5h1.5A6,6,0,0,0,23.25,6.75Z"/><circle class="cls-1" cx="6" cy="18" r="2.25"/><path class="cls-1" d="M17.25,3.75H9.75a6,6,0,0,0-6,6v1.5a1.5,1.5,0,0,0,1.5,1.5h0a1.5,1.5,0,0,0,1.5-1.5h0a1.5,1.5,0,0,1,1.5-1.5h9a3,3,0,0,0,3-3h0A3,3,0,0,0,17.25,3.75Z"/></svg>