<svg xmlns="http://www.w3.org/2000/svg" viewBox="0 0 24 24"><defs><style>.a{fill:none;stroke:currentColor;stroke-linecap:round;stroke-linejoin:round;stroke-width:1.5px;}</style></defs><title>barcode-search</title><line class="a" x1="3.75" y1="5.25" x2="3.75" y2="12.75"/><line class="a" x1="6.75" y1="5.25" x2="6.75" y2="9.75"/><line class="a" x1="12.75" y1="5.25" x2="12.75" y2="8.25"/><line class="a" x1="15.75" y1="5.25" x2="15.75" y2="7.5"/><line class="a" x1="18.75" y1="5.25" x2="18.75" y2="8.25"/><line class="a" x1="9.75" y1="5.25" x2="9.75" y2="9.75"/><line class="a" x1="6.75" y1="12.75" x2="8.25" y2="12.75"/><path class="a" d="M3.75.75H2.287A1.537,1.537,0,0,0,.75,2.287V3.75"/><path class="a" d="M21.75,3.75V2.287A1.537,1.537,0,0,0,20.213.75H18.75"/><path class="a" d="M.75,14.25v1.463A1.537,1.537,0,0,0,2.287,17.25H3.75"/><circle class="a" cx="15.75" cy="15.75" r="5.25"/><line class="a" x1="23.25" y1="23.25" x2="19.462" y2="19.462"/></svg>