<svg xmlns="http://www.w3.org/2000/svg" viewBox="0 0 24 24"><defs><style>.a{fill:none;stroke:currentColor;stroke-linecap:round;stroke-linejoin:round;stroke-width:1.5px;}</style></defs><title>barcode-tag</title><path class="a" d="M4.183,7.605l-.546,3.888a1.5,1.5,0,0,0,.439,1.068l9.5,9.5a1.5,1.5,0,0,0,2.122,0L22.061,15.7a1.5,1.5,0,0,0,0-2.121L12.438,3.953a1.5,1.5,0,0,0-1.1-.439L7.5,4.122"/><circle class="a" cx="8.442" cy="8.442" r="1.5"/><line class="a" x1="7.382" y1="7.382" x2="1.5" y2="1.5"/><line class="a" x1="11.454" y1="11.454" x2="13.575" y2="9.333"/><line class="a" x1="13.575" y1="13.575" x2="15.697" y2="11.454"/><line class="a" x1="15.697" y1="15.696" x2="17.818" y2="13.575"/><line class="a" x1="9.333" y1="13.575" x2="13.575" y2="17.818"/></svg>