<svg id="Regular" xmlns="http://www.w3.org/2000/svg" viewBox="0 0 24 24"><defs><style>.cls-1{fill:none;stroke:currentColor;stroke-linecap:round;stroke-linejoin:round;stroke-width:1.5px;}</style></defs><title>baseball-player</title><circle class="cls-1" cx="16.75" cy="6.75" r="3"/><path class="cls-1" d="M5.431,9.729,7.747,2.147a2.141,2.141,0,1,1,3.93,1.684l-3.8,6.741"/><path class="cls-1" d="M21.25,23.25,20.5,21V14.25a3,3,0,0,0-3-3H12.742a4.472,4.472,0,0,0-3.181,1.318L7,15.129l-1.939-1.94a1.5,1.5,0,0,0-2.122,2.122l1.94,1.939a3,3,0,0,0,4.242,0L11.5,14.871A2.124,2.124,0,0,1,13,14.25V21l-.75,2.25"/><line class="cls-1" x1="16.75" y1="22.5" x2="16.75" y2="23.25"/></svg>