<svg id="Regular" xmlns="http://www.w3.org/2000/svg" viewBox="0 0 24 24"><defs><style>.cls-1{fill:none;stroke:currentColor;stroke-linecap:round;stroke-linejoin:round;stroke-width:1.5px;}</style></defs><title>baseball-glove</title><path class="cls-1" d="M15.25,9V2.625a1.875,1.875,0,0,0-3.75,0V11.25a3,3,0,0,1-6,0V7.5A2.25,2.25,0,0,0,1,7.5v4.875a10.875,10.875,0,0,0,21.75,0V7.125a1.875,1.875,0,0,0-3.75,0"/><line class="cls-1" x1="5.5" y1="9.75" x2="11.5" y2="9.75"/><line class="cls-1" x1="8.5" y1="2.141" x2="8.5" y2="9.75"/><path class="cls-1" d="M16.1,18.194a7.433,7.433,0,0,1-2.646,1.136"/><path class="cls-1" d="M10.293,19.33a7.454,7.454,0,0,1-2.645-1.136"/><path class="cls-1" d="M3.8,5.319a11.222,11.222,0,0,1,7.7-3.794l.375-.025"/><path class="cls-1" d="M15.25,4.875a1.875,1.875,0,0,1,3.75,0V10.5"/></svg>