<svg id="Regular" xmlns="http://www.w3.org/2000/svg" viewBox="0 0 24 24"><defs><style>.cls-1{fill:none;stroke:currentColor;stroke-linecap:round;stroke-linejoin:round;stroke-width:1.5px;}</style></defs><title>baseball-helmet</title><path class="cls-1" d="M10.5,21.5A9.75,9.75,0,1,1,20.222,11H10.5a1.5,1.5,0,0,0,0,3,3.75,3.75,0,0,1,0,7.5Z"/><path class="cls-1" d="M10.5,17.375a.375.375,0,0,1,.375.375"/><path class="cls-1" d="M10.125,17.75a.375.375,0,0,1,.375-.375"/><path class="cls-1" d="M10.5,18.125a.375.375,0,0,1-.375-.375"/><path class="cls-1" d="M10.875,17.75a.375.375,0,0,1-.375.375"/><line class="cls-1" x1="20.222" y1="11" x2="23.25" y2="11"/></svg>