<svg id="Regular" xmlns="http://www.w3.org/2000/svg" viewBox="0 0 24 24"><defs><style>.cls-1{fill:none;stroke:currentColor;stroke-linecap:round;stroke-linejoin:round;stroke-width:1.5px;}</style></defs><title>basketball-hoop</title><path class="cls-1" d="M6.273,15.75H3.75a3,3,0,0,1-3-3V10.5C.75,4.287,5.787.75,12,.75S23.25,4.287,23.25,10.5v2.25a3,3,0,0,1-3,3H17.727"/><path class="cls-1" d="M16.5,21.75l1.339-6.616a.749.749,0,0,0-.738-.884H6.9a.749.749,0,0,0-.738.884L7.5,21.75"/><line class="cls-1" x1="9.75" y1="14.25" x2="10.5" y2="23.25"/><line class="cls-1" x1="14.25" y1="14.25" x2="13.5" y2="23.25"/><line class="cls-1" x1="6.589" y1="17.25" x2="17.411" y2="17.25"/><line class="cls-1" x1="7.196" y1="20.25" x2="16.804" y2="20.25"/><rect class="cls-1" x="6.75" y="5.25" width="10.5" height="6" rx="1" ry="1"/></svg>