<svg id="Regular" xmlns="http://www.w3.org/2000/svg" viewBox="0 0 24 24"><defs><style>.cls-1{fill:none;stroke:currentColor;stroke-linecap:round;stroke-linejoin:round;stroke-width:1.5px;}</style></defs><title>bat-fly</title><path class="cls-1" d="M14.25,2.5,15,7a7.574,7.574,0,0,0,3.75-1.5,11.757,11.757,0,0,0,1.58-1.252,1.5,1.5,0,0,1,2.491.742,18.508,18.508,0,0,1,.429,4.26A20.359,20.359,0,0,1,21,19a2.664,2.664,0,0,0-1.5-2.25c-2.121-1.061-3,1.5-3,1.5S15,16,13.5,17.5A5.857,5.857,0,0,0,12,21.25a5.857,5.857,0,0,0-1.5-3.75c-1.5-1.5-3,.75-3,.75s-.879-2.561-3-1.5A2.664,2.664,0,0,0,3,19,20.359,20.359,0,0,1,.75,9.25a18.508,18.508,0,0,1,.429-4.26A1.5,1.5,0,0,1,3.67,4.248,11.757,11.757,0,0,0,5.25,5.5,7.574,7.574,0,0,0,9,7l.75-4.5"/><path class="cls-1" d="M9.328,5.031,9.75,4.75A4.754,4.754,0,0,1,12,4a4.754,4.754,0,0,1,2.25.75l.422.281"/><line class="cls-1" x1="11.25" y1="8.5" x2="12.75" y2="8.5"/></svg>