<svg id="Regular" xmlns="http://www.w3.org/2000/svg" viewBox="0 0 24 24"><defs><style>.cls-1{fill:none;stroke:currentColor;stroke-linecap:round;stroke-linejoin:round;stroke-width:1.5px;}</style></defs><title>bat</title><line class="cls-1" x1="0.75" y1="0.75" x2="23.25" y2="0.75"/><path class="cls-1" d="M8.25,23.25V18c0-3,3.75-3.75,3.75-3.75S15.75,15,15.75,18v5.25"/><path class="cls-1" d="M8.25,21A5.738,5.738,0,0,0,12,22.5,5.738,5.738,0,0,0,15.75,21"/><path class="cls-1" d="M7.183,14.443A6.38,6.38,0,0,1,6.75,12c0-5.25,4.594-8.25,5.25-8.25s5.25,3,5.25,8.25a6.393,6.393,0,0,1-.432,2.441"/><line class="cls-1" x1="9.97" y1="5.049" x2="8.25" y2="0.75"/><line class="cls-1" x1="14.03" y1="5.049" x2="15.75" y2="0.75"/><line class="cls-1" x1="11.25" y1="18" x2="12.75" y2="18"/><path class="cls-1" d="M12.5,7.832a9.377,9.377,0,0,0-1.219,6.629"/></svg>