<svg xmlns="http://www.w3.org/2000/svg" viewBox="0 0 24 24"><defs><style>.a{fill:none;stroke:currentColor;stroke-linecap:round;stroke-linejoin:round;stroke-width:1.5px;}</style></defs><title>bathroom-shower-person</title><circle class="a" cx="13.5" cy="10.875" r="2.625"/><path class="a" d="M16.5,23.25V18.7c2.687-.3,6.75-2.258,6.75-8.2a1.5,1.5,0,0,0-3,0c0,4.932-3.754,5.238-4.51,5.25H9a3,3,0,0,0,0,6h3a1.5,1.5,0,0,0,0-3H9"/><line class="a" x1="10.5" y1="21.75" x2="10.5" y2="23.25"/><polyline class="a" points="0.75 0.75 2.25 0.75 3.652 2.152"/><path class="a" d="M4.273,5.774A.74.74,0,0,1,3.1,5.632,3,3,0,0,1,7.134,1.6a.739.739,0,0,1,.141,1.173Z"/><line class="a" x1="8.575" y1="4.68" x2="9.691" y2="5.3"/><line class="a" x1="10.372" y1="2.379" x2="11.987" y2="2.819"/><line class="a" x1="14.59" y1="3.529" x2="16.205" y2="3.97"/><line class="a" x1="6.353" y1="7.024" x2="6.93" y2="8.062"/><line class="a" x1="4.008" y1="8.743" x2="4.448" y2="10.358"/><line class="a" x1="5.158" y1="12.961" x2="5.403" y2="13.857"/></svg>