<svg xmlns="http://www.w3.org/2000/svg" viewBox="0 0 24 24"><defs><style>.a{fill:none;stroke:currentColor;stroke-linecap:round;stroke-linejoin:round;stroke-width:1.5px;}</style></defs><title>bathroom-tub-towel</title><path class="a" d="M12.75,14.25h10.5l-.664,3.986a6,6,0,0,1-5.919,5.014H7.333a6,6,0,0,1-5.919-5.014L.75,14.25h4.5"/><path class="a" d="M12,20.25H6a.75.75,0,0,1-.75-.75V14.25a1.5,1.5,0,0,1,1.5-1.5h4.5a1.5,1.5,0,0,1,1.5,1.5V19.5A.75.75,0,0,1,12,20.25Z"/><path class="a" d="M15.75,3.75a3,3,0,0,1,6,0v10.5"/><path class="a" d="M12.75,6.75a3,3,0,0,1,6,0Z"/></svg>