<svg xmlns="http://www.w3.org/2000/svg" viewBox="0 0 24 24"><defs><style>.a{fill:none;stroke:currentColor;stroke-linecap:round;stroke-linejoin:round;stroke-width:1.5px;}</style></defs><title>bathroom-hair-dryer</title><path class="a" d="M.75,10.127a1.492,1.492,0,0,0,1.081,1.44c2.7.772,9.881,2.683,14.669,2.683a6.75,6.75,0,0,0,0-13.5C11.712.75,4.534,2.661,1.831,3.432A1.494,1.494,0,0,0,.75,4.873Z"/><line class="a" x1="17.25" y1="0.794" x2="17.25" y2="14.206"/><path class="a" d="M16.5,14.25a25.941,25.941,0,0,1-2.731-.163l-.648,5.832A3,3,0,0,0,16.1,23.25H17.25a3,3,0,0,0,3-3V13.113A6.716,6.716,0,0,1,16.5,14.25Z"/><line class="a" x1="3.75" y1="2.906" x2="3.75" y2="12.094"/></svg>