<svg xmlns="http://www.w3.org/2000/svg" viewBox="0 0 24 24"><defs><style>.a{fill:none;stroke:currentColor;stroke-linecap:round;stroke-linejoin:round;stroke-width:1.5px;}</style></defs><title>bathroom-laundry-bin</title><path class="a" d="M20.251,9.75a1.5,1.5,0,0,0,0-3H3.751a1.5,1.5,0,0,0,0,3Z"/><path class="a" d="M17.251,23.25H6.751a3,3,0,0,1-3-3V9.75h16.5v10.5A3,3,0,0,1,17.251,23.25Z"/><path class="a" d="M8.251,6.75V4.5a3.75,3.75,0,0,1,7.5,0V6.75"/><line class="a" x1="3.751" y1="12.75" x2="6.751" y2="12.75"/><line class="a" x1="17.251" y1="12.75" x2="20.251" y2="12.75"/><line class="a" x1="11.251" y1="12.75" x2="12.751" y2="12.75"/><line class="a" x1="3.751" y1="15.75" x2="6.751" y2="15.75"/><line class="a" x1="17.251" y1="15.75" x2="20.251" y2="15.75"/><line class="a" x1="11.251" y1="15.75" x2="12.751" y2="15.75"/><line class="a" x1="3.751" y1="18.75" x2="6.751" y2="18.75"/><line class="a" x1="17.251" y1="18.75" x2="20.251" y2="18.75"/><line class="a" x1="11.251" y1="18.75" x2="12.751" y2="18.75"/></svg>