<svg xmlns="http://www.w3.org/2000/svg" viewBox="0 0 24 24"><defs><style>.a{fill:none;stroke:currentColor;stroke-linecap:round;stroke-linejoin:round;stroke-width:1.5px;}</style></defs><title>bathroom-hanger-1</title><path class="a" d="M14.251,12.006V21.75a1.5,1.5,0,0,1-1.5,1.5H4.5A1.5,1.5,0,0,1,3,21.75v-18a3,3,0,0,1,3-3h11.25"/><path class="a" d="M19.234,1.5A3,3,0,0,0,14.251,3.75v13.5h4.5a1.5,1.5,0,0,0,1.5-1.5V9"/><line class="a" x1="14.251" y1="5.25" x2="20.251" y2="5.25"/><circle class="a" cx="21.751" cy="5.25" r="1.5"/><line class="a" x1="3.001" y1="5.25" x2="0.751" y2="5.25"/><line class="a" x1="14.251" y1="14.25" x2="3.001" y2="14.25"/><line class="a" x1="14.251" y1="17.25" x2="3.001" y2="17.25"/></svg>