<svg xmlns="http://www.w3.org/2000/svg" viewBox="0 0 24 24"><defs><style>.a{fill:none;stroke:currentColor;stroke-linecap:round;stroke-linejoin:round;stroke-width:1.5px;}</style></defs><title>bathroom-shower-1</title><path class="a" d="M9.554,6.75a6,6,0,1,1,12,0v16.5"/><path class="a" d="M5.054,11.25a4.5,4.5,0,0,1,9,0Z"/><path class="a" d="M9.554,15a.375.375,0,1,1-.375.375A.375.375,0,0,1,9.554,15"/><path class="a" d="M9.554,21a.375.375,0,1,1-.375.375A.375.375,0,0,1,9.554,21"/><path class="a" d="M13.563,15.019a.375.375,0,1,1-.24.472.375.375,0,0,1,.24-.472"/><path class="a" d="M15.421,20.724a.375.375,0,1,1-.24.472.375.375,0,0,1,.24-.472"/><path class="a" d="M5.545,15.019a.375.375,0,1,0,.24.472.375.375,0,0,0-.24-.472"/><path class="a" d="M3.687,20.724a.375.375,0,1,0,.241.472.374.374,0,0,0-.241-.472"/></svg>