<svg xmlns="http://www.w3.org/2000/svg" viewBox="0 0 24 24"><defs><style>.a{fill:none;stroke:currentColor;stroke-linecap:round;stroke-linejoin:round;stroke-width:1.5px;}</style></defs><title>bathroom-tub-person</title><circle class="a" cx="6.75" cy="3.75" r="2.625"/><path class="a" d="M14.329,12.375H21.75a1.5,1.5,0,0,1,1.5,1.5v1.5c0,3.314-4.186,6-7.5,6H8.25c-3.314,0-7.5-2.686-7.5-6v-1.5a1.5,1.5,0,0,1,1.5-1.5H4.5v-3A1.5,1.5,0,0,1,6.961,8.222L9.74,10.538a1.505,1.505,0,0,0,1.791.1l2.637-1.758a1.5,1.5,0,0,1,1.664,2.5L13.2,13.131a4.528,4.528,0,0,1-5.377-.287l-.567-.476"/><line class="a" x1="3.75" y1="22.875" x2="5.711" y2="20.914"/><line class="a" x1="20.25" y1="22.875" x2="18.289" y2="20.914"/></svg>