<svg xmlns="http://www.w3.org/2000/svg" viewBox="0 0 24 24"><defs><style>.a{fill:none;stroke:currentColor;stroke-linecap:round;stroke-linejoin:round;stroke-width:1.5px;}</style></defs><title>bathroom-shower-head</title><path class="a" d="M22.254,9.911a10.5,10.5,0,0,0-20.129,0Z"/><line class="a" x1="12.189" y1="2.411" x2="12.189" y2="0.911"/><path class="a" d="M11.871,13.286a.375.375,0,1,1-.375.375.375.375,0,0,1,.375-.375"/><path class="a" d="M11.871,19.286a.375.375,0,1,1-.375.375.375.375,0,0,1,.375-.375"/><path class="a" d="M5.871,19.286a.375.375,0,1,1-.375.375.375.375,0,0,1,.375-.375"/><path class="a" d="M17.871,19.286a.375.375,0,1,1-.375.375.375.375,0,0,1,.375-.375"/><path class="a" d="M8.871,16.286a.375.375,0,1,1-.375.375.375.375,0,0,1,.375-.375"/><path class="a" d="M14.871,16.286a.375.375,0,1,1-.375.375.375.375,0,0,1,.375-.375"/><path class="a" d="M8.871,22.286a.375.375,0,1,1-.375.375.375.375,0,0,1,.375-.375"/><path class="a" d="M2.871,22.286a.375.375,0,1,1-.375.375.375.375,0,0,1,.375-.375"/><path class="a" d="M14.871,22.286a.375.375,0,1,1-.375.375.375.375,0,0,1,.375-.375"/><path class="a" d="M20.871,22.286a.375.375,0,1,1-.375.375.375.375,0,0,1,.375-.375"/></svg>