<svg xmlns="http://www.w3.org/2000/svg" viewBox="0 0 24 24"><defs><style>.a{fill:none;stroke:currentColor;stroke-linecap:round;stroke-linejoin:round;stroke-width:1.5px;}</style></defs><title>bathroom-robe-female</title><polyline class="a" points="3.751 3.75 0.751 16.5 4.259 18.028"/><path class="a" d="M15.751.75q3.75,0,4.5,3l-3,7.5a25.535,25.535,0,0,1,3,11.25,37.483,37.483,0,0,1-8.25.75,37.483,37.483,0,0,1-8.25-.75,25.535,25.535,0,0,1,3-11.25l-3-7.5q.75-3,4.5-3Z"/><polyline class="a" points="20.251 3.75 23.251 16.5 19.743 18.028"/><line class="a" x1="6.751" y1="11.25" x2="17.251" y2="11.25"/><polyline class="a" points="14.251 23.201 14.251 11.25 8.251 0.75"/><line class="a" x1="15.751" y1="0.75" x2="12.001" y2="7.312"/><line class="a" x1="9.751" y1="11.25" x2="9.751" y2="15.75"/></svg>