<svg xmlns="http://www.w3.org/2000/svg" viewBox="0 0 24 24"><defs><style>.a{fill:none;stroke:currentColor;stroke-linecap:round;stroke-linejoin:round;stroke-width:1.5px;}</style></defs><title>bathroom-mirror-cabinet</title><path class="a" d="M21.75,14.25a1.5,1.5,0,0,0,0-3H2.25a1.5,1.5,0,0,0,0,3Z"/><path class="a" d="M18.75,23.25h-6V18a7.758,7.758,0,0,1,3-.75,7.758,7.758,0,0,1,3,.75Z"/><path class="a" d="M9.75,14.25v3a1.5,1.5,0,0,0,1.5,1.5h1.5"/><path class="a" d="M21.75,14.25v3a1.5,1.5,0,0,1-1.5,1.5h-1.5"/><path class="a" d="M20.25.75H3.75a1.5,1.5,0,0,0-1.5,1.5v9h19.5v-9A1.5,1.5,0,0,0,20.25.75Z"/><line class="a" x1="9.75" y1="8.25" x2="9.75" y2="6"/><path class="a" d="M13.5,8.25c0,1.657-1.264,3-3.75,3S6,9.907,6,8.25Z"/></svg>