<svg xmlns="http://www.w3.org/2000/svg" viewBox="0 0 24 24"><defs><style>.a{fill:none;stroke:currentColor;stroke-linecap:round;stroke-linejoin:round;stroke-width:1.5px;}</style></defs><title>bathroom-shower-2</title><line class="a" x1="1.501" y1="23.25" x2="4.501" y2="20.25"/><line class="a" x1="1.501" y1="20.25" x2="4.501" y2="23.25"/><line class="a" x1="7.501" y1="23.25" x2="10.501" y2="20.25"/><line class="a" x1="7.501" y1="20.25" x2="10.501" y2="23.25"/><path class="a" d="M18,3.75a3,3,0,0,0-3-3H9a3,3,0,0,0-3,3v13.5"/><path class="a" d="M13.5,8.25a4.5,4.5,0,1,1,9,0Z"/><line class="a" x1="13.501" y1="15.75" x2="13.501" y2="17.25"/><line class="a" x1="18.001" y1="15.75" x2="18.001" y2="17.25"/><line class="a" x1="22.501" y1="15.75" x2="22.501" y2="17.25"/><line class="a" x1="15.751" y1="11.25" x2="15.751" y2="12.75"/><line class="a" x1="20.251" y1="11.25" x2="20.251" y2="12.75"/></svg>