<svg xmlns="http://www.w3.org/2000/svg" viewBox="0 0 24 24"><defs><style>.a{fill:none;stroke:currentColor;stroke-linecap:round;stroke-linejoin:round;stroke-width:1.5px;}</style></defs><title>beacon-remote-house</title><path class="a" d="M6,19.463a.375.375,0,1,1-.375.375A.375.375,0,0,1,6,19.463"/><rect class="a" x="0.75" y="12.713" width="10.5" height="10.538" rx="1.5" ry="1.5"/><path class="a" d="M3.75,17.4a3.181,3.181,0,0,1,4.5,0"/><path class="a" d="M3.136,9.75a4.052,4.052,0,0,1,5.728,0"/><path class="a" d="M1.5,7.5a6.364,6.364,0,0,1,9,0"/><polyline class="a" points="23.25 3.75 23.25 12 13.5 12"/><polyline class="a" points="23.25 3.75 18 0.75 12.75 3.75 12.75 5.25"/><path class="a" d="M19.5,12h-3V9a1.5,1.5,0,0,1,3,0Z"/></svg>