<svg xmlns="http://www.w3.org/2000/svg" viewBox="0 0 24 24"><defs><style>.a{fill:none;stroke:currentColor;stroke-linecap:round;stroke-linejoin:round;stroke-width:1.5px;}</style></defs><title>beacon-remote-train</title><path class="a" d="M14.25,14.25h5.87a3.129,3.129,0,0,0,2.123-5.429l-7.45-6.877A4.5,4.5,0,0,0,11.74.75H.75"/><path class="a" d="M21.625,8.25h-7.96a4.5,4.5,0,0,1-2.929-1.083l-.907-.778a1.5,1.5,0,0,1,.976-2.639H16.75Z"/><path class="a" d="M21.625,8.25s-2.875,1.5-2.875,6"/><line class="a" x1="14.25" y1="17.25" x2="23.25" y2="17.25"/><path class="a" d="M6,19.463a.375.375,0,1,1-.375.375A.375.375,0,0,1,6,19.463"/><rect class="a" x="0.75" y="12.75" width="10.5" height="10.5" rx="1.5" ry="1.5"/><path class="a" d="M3.75,17.4a3.181,3.181,0,0,1,4.5,0"/></svg>