<svg xmlns="http://www.w3.org/2000/svg" viewBox="0 0 24 24"><defs><style>.a{fill:none;stroke:currentColor;stroke-linecap:round;stroke-linejoin:round;stroke-width:1.5px;}</style></defs><title>beacon-remote-plane</title><path class="a" d="M18,19.463a.375.375,0,1,1-.375.375A.375.375,0,0,1,18,19.463"/><rect class="a" x="12.75" y="12.75" width="10.5" height="10.5" rx="1.5" ry="1.5"/><path class="a" d="M15.75,17.4a3.181,3.181,0,0,1,4.5,0"/><path class="a" d="M20.871,2.457a2.319,2.319,0,0,1-.942,2.725l-13.2,8.2a.81.81,0,0,1-.9-.026L1,9.956A.447.447,0,0,1,1,9.252L3.036,7.461a.447.447,0,0,1,.431-.074L6.012,8.9,9.239,6.651,3.123,2.865A.557.557,0,0,1,3.149,2L4.644.889A.553.553,0,0,1,5.168.815L13.6,3.952l3.9-2.661A2.253,2.253,0,0,1,20.871,2.457Z"/></svg>