<svg id="Regular" xmlns="http://www.w3.org/2000/svg" viewBox="0 0 24 24"><defs><style>.cls-1{fill:none;stroke:currentColor;stroke-linecap:round;stroke-linejoin:round;stroke-width:1.5px;}</style></defs><title>beach-parasol-water</title><path class="cls-1" d="M.75,21.783,1.6,22.9a.978.978,0,0,0,1.5,0l.943-1.131a.978.978,0,0,1,1.5,0L6.488,22.9a.978.978,0,0,0,1.5,0l.943-1.131a.978.978,0,0,1,1.5,0L11.38,22.9a.978.978,0,0,0,1.5,0l.942-1.131a.978.978,0,0,1,1.5,0l.943,1.131a.978.978,0,0,0,1.5,0l.943-1.131a.978.978,0,0,1,1.5,0l.942,1.131a.978.978,0,0,0,1.5,0l.585-.7"/><path class="cls-1" d="M11.021,18.971A7.911,7.911,0,0,1,15.75,17.25h7.5"/><path class="cls-1" d="M22.038,7.26a.979.979,0,0,0,.442-1.535A9.786,9.786,0,0,0,5.054,11.789a.979.979,0,0,0,1.3.929Z"/><line class="cls-1" x1="11.624" y1="2.598" x2="10.981" y2="0.75"/><line class="cls-1" x1="14.196" y1="9.989" x2="16.723" y2="17.25"/></svg>