<svg id="Regular" xmlns="http://www.w3.org/2000/svg" viewBox="0 0 24 24"><defs><style>.cls-1{fill:none;stroke:currentColor;stroke-linecap:round;stroke-linejoin:round;stroke-width:1.5px;}</style></defs><title>beach-sun-birds</title><path class="cls-1" d="M.75,23.25a5.511,5.511,0,0,0,4.5-1.5,4.547,4.547,0,0,0,6.75,0,4.547,4.547,0,0,0,6.75,0,5.511,5.511,0,0,0,4.5,1.5"/><path class="cls-1" d="M.75,18.75a5.511,5.511,0,0,0,4.5-1.5,4.547,4.547,0,0,0,6.75,0,4.547,4.547,0,0,0,6.75,0,5.511,5.511,0,0,0,4.5,1.5"/><polyline class="cls-1" points="18 3.75 19.5 5.25 21 3.75"/><polyline class="cls-1" points="20.25 9 21.75 10.5 23.25 9"/><circle class="cls-1" cx="6.75" cy="6" r="2.25"/><line class="cls-1" x1="11.25" y1="6" x2="12.75" y2="6"/><line class="cls-1" x1="2.25" y1="6" x2="0.75" y2="6"/><line class="cls-1" x1="9" y1="2.049" x2="9.75" y2="0.75"/><line class="cls-1" x1="4.5" y1="9.951" x2="3.75" y2="11.25"/><line class="cls-1" x1="4.5" y1="2.049" x2="3.75" y2="0.75"/><line class="cls-1" x1="9" y1="9.951" x2="9.75" y2="11.25"/></svg>