<svg xmlns="http://www.w3.org/2000/svg" viewBox="0 0 24 24"><defs><style>.a{fill:none;stroke:currentColor;stroke-linecap:round;stroke-linejoin:round;stroke-width:1.5px;}</style></defs><title>beacon-bluetooth</title><polyline class="a" points="8.25 15 15.75 9 12 6 12 18 15.75 15 8.25 9"/><path class="a" d="M17.507,23.25H6.493a3,3,0,0,1-2.122-.878L1.629,19.629A3,3,0,0,1,.75,17.508V6.493a3,3,0,0,1,.879-2.121L4.371,1.629A3,3,0,0,1,6.493.75H17.508a3,3,0,0,1,2.121.879L22.371,4.37a3,3,0,0,1,.879,2.122V17.508a3,3,0,0,1-.879,2.121l-2.742,2.743A3,3,0,0,1,17.507,23.25Z"/><path class="a" d="M18.75,6.375a.375.375,0,1,0,.375.375.375.375,0,0,0-.375-.375h0"/></svg>