<svg id="Regular" xmlns="http://www.w3.org/2000/svg" viewBox="0 0 24 24"><defs><style>.cls-1{fill:none;stroke:currentColor;stroke-linecap:round;stroke-linejoin:round;stroke-width:1.5px;}</style></defs><title>beach-palm</title><path class="cls-1" d="M23.25,21.75c0-2.485-5.037-4.5-11.25-4.5S.75,19.265.75,21.75v1.5h22.5Z"/><line class="cls-1" x1="15.634" y1="8.477" x2="14.823" y2="17.393"/><line class="cls-1" x1="8.487" y1="17.474" x2="13.734" y2="7.855"/><path class="cls-1" d="M13.734,7.855l8.276,2.709a.751.751,0,0,0,.975-.861,4.73,4.73,0,0,0-3.6-4.016,6.82,6.82,0,0,0-2.4-.082"/><path class="cls-1" d="M13.734,7.855,6.2,9.9a.75.75,0,0,1-.934-.873A4.756,4.756,0,0,1,8.882,4.937a6.347,6.347,0,0,1,3.112.079"/><path class="cls-1" d="M18.578,5.567l3.1-3.116a.747.747,0,0,0-.21-1.211,4.869,4.869,0,0,0-5.088.51A3.708,3.708,0,0,0,15.1,3.76"/><path class="cls-1" d="M10.179,4.784,8.229,2.668a.748.748,0,0,1,.393-1.242,13.158,13.158,0,0,1,2.51-.239A5.081,5.081,0,0,1,15.1,3.76"/></svg>