<svg id="Regular" xmlns="http://www.w3.org/2000/svg" viewBox="0 0 24 24"><defs><style>.cls-1{fill:none;stroke:currentColor;stroke-linecap:round;stroke-linejoin:round;stroke-width:1.5px;}</style></defs><title>beach-palm-sunbed</title><path class="cls-1" d="M8.25,7.5,14.6,11.387a.729.729,0,0,0,1.109-.6,4.1,4.1,0,0,0-2.189-4.083,5.953,5.953,0,0,0-2.02-.592"/><path class="cls-1" d="M8.25,7.5H1.5A.769.769,0,0,1,.816,6.467a4.165,4.165,0,0,1,3.957-2.68A5.549,5.549,0,0,1,7.4,4.531"/><path class="cls-1" d="M12.864,6.429l3.309-1.97a.653.653,0,0,0,.085-1.073,4.264,4.264,0,0,0-4.428-.673A3.243,3.243,0,0,0,10.3,4.139"/><path class="cls-1" d="M5.907,3.939,4.712,1.72a.656.656,0,0,1,.6-.969A11.571,11.571,0,0,1,7.5,1.094a4.454,4.454,0,0,1,2.808,3.045"/><path class="cls-1" d="M23.25,20.25H14.383a1.5,1.5,0,0,1-1.312-.772L10.5,14.25"/><line class="cls-1" x1="20.252" y1="20.25" x2="21.002" y2="23.25"/><line class="cls-1" x1="13.61" y1="20.034" x2="12.002" y2="23.25"/><line class="cls-1" x1="11.607" y1="16.5" x2="16.5" y2="16.5"/><path class="cls-1" d="M.75,23.25C.867,21.258.84,12.828,7.5,7.5"/><path class="cls-1" d="M8.25,7.5A31.7,31.7,0,0,0,6,23.25"/></svg>