<svg xmlns="http://www.w3.org/2000/svg" viewBox="0 0 24 24"><defs><style>.a{fill:none;stroke:currentColor;stroke-linecap:round;stroke-linejoin:round;stroke-width:1.5px;}</style></defs><title>beacon-remote-vehicle</title><path class="a" d="M20.121,20.25H21.75a1.5,1.5,0,0,0,1.5-1.5v-7.5a3,3,0,0,0-3-3"/><line class="a" x1="8.121" y1="20.25" x2="15.879" y2="20.25"/><path class="a" d="M3.75,8.25a3,3,0,0,0-3,3v7.5a1.5,1.5,0,0,0,1.5,1.5H3.879"/><circle class="a" cx="6" cy="21" r="2.25"/><circle class="a" cx="18" cy="21" r="2.25"/><line class="a" x1="23.25" y1="14.25" x2="0.75" y2="14.25"/><path class="a" d="M12,7.463a.375.375,0,1,1-.375.375A.375.375,0,0,1,12,7.463"/><rect class="a" x="6.75" y="0.75" width="10.5" height="10.5" rx="1.5" ry="1.5"/><path class="a" d="M9.75,5.4a3.181,3.181,0,0,1,4.5,0"/></svg>