<svg id="Regular" xmlns="http://www.w3.org/2000/svg" viewBox="0 0 24 24"><defs><style>.cls-1{fill:none;stroke:currentColor;stroke-linecap:round;stroke-linejoin:round;stroke-width:1.5px;}</style></defs><title>beach-parasol-water-1</title><path class="cls-1" d="M3,19.75A3,3,0,0,1,.75,22.655"/><path class="cls-1" d="M9,19.75a3,3,0,0,1-6,0"/><path class="cls-1" d="M15,19.75a3,3,0,0,1-6,0"/><path class="cls-1" d="M21,19.75a3,3,0,0,1-6,0"/><path class="cls-1" d="M23.248,22.655A3,3,0,0,1,21,19.75"/><path class="cls-1" d="M12,17.5a7.151,7.151,0,0,1,6-3.75h5.25"/><path class="cls-1" d="M20.013,4.558c-.786-2.358-4.29-3.314-7.827-2.135s-5.766,4.046-4.98,6.4l.237.711L20.25,5.269Z"/><line class="cls-1" x1="16.068" y1="14.068" x2="13.846" y2="7.404"/><line class="cls-1" x1="11.712" y1="1" x2="12.186" y2="2.423"/></svg>