<svg id="Regular" xmlns="http://www.w3.org/2000/svg" viewBox="0 0 24 24"><defs><style>.cls-1{fill:none;stroke:currentColor;stroke-linecap:round;stroke-linejoin:round;stroke-width:1.5px;}</style></defs><title>beach-sunbed</title><path class="cls-1" d="M22.851,12.972a2.25,2.25,0,0,0-3.129-.574L15,15.75H5.25a2.25,2.25,0,0,0,0,4.5h10.5a2.235,2.235,0,0,0,1.521-.6L22.278,16.1A2.25,2.25,0,0,0,22.851,12.972Z"/><line class="cls-1" x1="5.998" y1="20.25" x2="5.248" y2="23.25"/><line class="cls-1" x1="16.498" y1="20.25" x2="17.998" y2="23.25"/><circle class="cls-1" cx="6.75" cy="5.946" r="2.25"/><line class="cls-1" x1="11.25" y1="5.946" x2="12.75" y2="5.946"/><line class="cls-1" x1="2.25" y1="5.946" x2="0.75" y2="5.946"/><line class="cls-1" x1="9" y1="2.049" x2="9.75" y2="0.75"/><line class="cls-1" x1="4.5" y1="9.843" x2="3.75" y2="11.142"/><line class="cls-1" x1="4.5" y1="2.049" x2="3.75" y2="0.75"/><line class="cls-1" x1="9" y1="9.843" x2="9.75" y2="11.142"/></svg>