<svg xmlns="http://www.w3.org/2000/svg" viewBox="0 0 24 24"><defs><style>.a{fill:none;stroke:currentColor;stroke-linecap:round;stroke-linejoin:round;stroke-width:1.5px;}</style></defs><title>beacon-remote-laptop</title><path class="a" d="M15.463,11.25H22.5a.75.75,0,0,0,.671-1.085L21.75,6.75h-7.5L13.5,9"/><circle class="a" cx="6.75" cy="18.751" r="1.5"/><rect class="a" x="0.75" y="11.25" width="12" height="12" rx="1.5" ry="1.5"/><path class="a" d="M4.1,15.349a3.75,3.75,0,0,1,5.3,0"/><path class="a" d="M2.871,8.25a5.252,5.252,0,0,1,6.734-.582"/><path class="a" d="M.75,6.129a8.252,8.252,0,0,1,10.543-.941"/><path class="a" d="M21.75,6.75h-7.5V1.5A.75.75,0,0,1,15,.75h6a.75.75,0,0,1,.75.75Z"/></svg>