<svg id="Regular" xmlns="http://www.w3.org/2000/svg" viewBox="0 0 24 24"><defs><style>.cls-1{fill:none;stroke:currentColor;stroke-linecap:round;stroke-linejoin:round;stroke-width:1.5px;}</style></defs><title>beach-swim</title><path class="cls-1" d="M.75,23.248l1.36-.907a1.958,1.958,0,0,1,2.171,0l.764.509a1.952,1.952,0,0,0,2.17,0l.764-.509a1.956,1.956,0,0,1,2.17,0l.764.509a1.954,1.954,0,0,0,2.171,0l.764-.509a1.956,1.956,0,0,1,2.17,0l.764.509a1.952,1.952,0,0,0,2.17,0l.764-.509a1.958,1.958,0,0,1,2.171,0l1.363.909"/><polyline class="cls-1" points="2.712 19.558 2.25 17.25 9.75 17.25 9.288 19.558"/><path class="cls-1" d="M8.25,17.25V15a2.25,2.25,0,0,0-4.5,0v2.25"/><circle class="cls-1" cx="17.25" cy="3.375" r="2.625"/><line class="cls-1" x1="17.25" y1="18" x2="17.25" y2="23.077"/><line class="cls-1" x1="14.25" y1="22.138" x2="14.25" y2="12.252"/><path class="cls-1" d="M14.25,15a1.5,1.5,0,0,1-3,0V12a4.5,4.5,0,0,1,4.5-4.5h3a4.5,4.5,0,0,1,4.5,4.5v3a1.5,1.5,0,0,1-3,0v7.093"/><line class="cls-1" x1="20.25" y1="15" x2="20.25" y2="12"/><polyline class="cls-1" points="14.25 16.5 17.25 18 20.25 16.5"/><line class="cls-1" x1="14.25" y1="14.25" x2="20.25" y2="14.25"/></svg>