<svg id="Regular" xmlns="http://www.w3.org/2000/svg" viewBox="0 0 24 24"><defs><style>.cls-1{fill:none;stroke:currentColor;stroke-linecap:round;stroke-linejoin:round;stroke-width:1.5px;}</style></defs><title>beanie-winter-3</title><path class="cls-1" d="M20.25,14.25a2.991,2.991,0,0,1-5.625,1.425,2.975,2.975,0,0,1-5.25,0A2.991,2.991,0,0,1,3.75,14.25v-3a1.5,1.5,0,0,1,1.5-1.5h13.5a1.5,1.5,0,0,1,1.5,1.5Z"/><path class="cls-1" d="M18.75,16.848V21a2.25,2.25,0,0,0,4.5,0V12.359a10.5,10.5,0,0,0-6.6-9.749L12,.75,7.35,2.61a10.5,10.5,0,0,0-6.6,9.749V21a2.25,2.25,0,0,0,4.5,0V16.848"/></svg>