<svg id="Regular" xmlns="http://www.w3.org/2000/svg" viewBox="0 0 24 24"><defs><style>.cls-1{fill:none;stroke:currentColor;stroke-linecap:round;stroke-linejoin:round;stroke-width:1.5px;}</style></defs><title>beanie</title><path class="cls-1" d="M23.25,19.125a3,3,0,0,1-3,3H3.75a3,3,0,0,1,0-6h16.5A3,3,0,0,1,23.25,19.125Z"/><path class="cls-1" d="M20.25,16.125H3.75v-6a8.25,8.25,0,0,1,16.5,0Z"/><line class="cls-1" x1="6.75" y1="16.125" x2="6.75" y2="22.125"/><line class="cls-1" x1="17.25" y1="16.125" x2="17.25" y2="22.125"/><line class="cls-1" x1="12" y1="16.125" x2="12" y2="22.125"/><path class="cls-1" d="M8.25,16.125V11.317a12,12,0,0,1,1.824-6.36L12,1.875"/><path class="cls-1" d="M15.75,16.125V11.317a12,12,0,0,0-1.824-6.36L12,1.875"/></svg>