<svg id="Regular" xmlns="http://www.w3.org/2000/svg" viewBox="0 0 24 24"><defs><style>.cls-1{fill:none;stroke:currentColor;stroke-linecap:round;stroke-linejoin:round;stroke-width:1.5px;}</style></defs><title>beard-style-mustache</title><path class="cls-1" d="M19.371,9.75c-1.353-1.872-1.821-3-4.067-3A4.168,4.168,0,0,0,12,8.327,4.168,4.168,0,0,0,8.7,6.75c-2.246,0-2.714,1.128-4.067,3a2.753,2.753,0,0,1-2.985,1.162.757.757,0,0,0-.853,1c.781,2.326,3.448,3.838,6.278,3.838A5.634,5.634,0,0,0,12,13.53a5.634,5.634,0,0,0,4.931,2.22c2.83,0,5.5-1.512,6.278-3.838a.757.757,0,0,0-.853-1A2.753,2.753,0,0,1,19.371,9.75Z"/></svg>