<svg id="Regular" xmlns="http://www.w3.org/2000/svg" viewBox="0 0 24 24"><defs><style>.cls-1{fill:none;stroke:currentColor;stroke-linecap:round;stroke-linejoin:round;stroke-width:1.5px;}</style></defs><title>bear-body</title><path class="cls-1" d="M9.01,19.5H5.26s-4.5-6-4.5-9.75S3.01,4.5,6.01,4.5h8.062"/><path class="cls-1" d="M19.51,19.5c-1.5-3-1.5-7.5-1.5-7.5a13.127,13.127,0,0,0,3.75-.75c2.25-.75,1.3-3.75,1.3-3.75-3.188,0-2.519-3-5.8-3,0,0-.75-2.25-2.25-1.5a1.642,1.642,0,0,0-.75,2.25"/><path class="cls-1" d="M7.51,19.5v-3.75a1.5,1.5,0,0,1,1.5-1.5h3.452a1.5,1.5,0,0,1,1.4.956c.531,1.365,1.591,3.764,2.65,4.294h3.75"/><path class="cls-1" d="M1.591,13.177,1.51,13.5a28.379,28.379,0,0,0-.75,6h.75"/><path class="cls-1" d="M12.753,14.279A26.34,26.34,0,0,0,12.01,19.5h.75"/></svg>