<svg id="Regular" xmlns="http://www.w3.org/2000/svg" viewBox="0 0 24 24"><defs><style>.cls-1{fill:none;stroke:currentColor;stroke-linecap:round;stroke-linejoin:round;stroke-width:1.5px;}</style></defs><title>beard-style</title><path class="cls-1" d="M22.365,1.615c-1.731.866-2.593,4.713-3.462,6.923a15.517,15.517,0,0,0-6.923-1.73,15.517,15.517,0,0,0-6.923,1.73C4.188,6.328,3.326,2.481,1.6,1.615A22.7,22.7,0,0,0,.73,9.4c0,6.213,3.462,13.846,11.25,13.846S23.23,15.617,23.23,9.4A22.7,22.7,0,0,0,22.365,1.615Z"/><path class="cls-1" d="M11.98,11.135c-2.868,0-5.192.923-5.192,2.6s2.6,3.461,5.192,1.73c2.6,1.731,5.192-.057,5.192-1.73S14.848,11.135,11.98,11.135Z"/></svg>