<svg id="Regular" xmlns="http://www.w3.org/2000/svg" viewBox="0 0 24 24"><defs><style>.cls-1{fill:none;stroke:currentColor;stroke-linecap:round;stroke-linejoin:round;stroke-width:1.5px;}</style></defs><title>bear</title><path class="cls-1" d="M16.751,3.62a9.575,9.575,0,0,0-9.871,0"/><path class="cls-1" d="M14.066,13.5a2.25,2.25,0,0,1-4.5,0v-.75h4.5Z"/><path class="cls-1" d="M11.816,16.5a2.25,2.25,0,0,1-2.25,2.25"/><path class="cls-1" d="M14.066,18.75a2.25,2.25,0,0,1-2.25-2.25v-.75"/><path class="cls-1" d="M8.441,9a.375.375,0,0,1,.375.375"/><path class="cls-1" d="M8.066,9.375A.375.375,0,0,1,8.441,9"/><path class="cls-1" d="M8.441,9.75a.375.375,0,0,1-.375-.375"/><path class="cls-1" d="M8.816,9.375a.375.375,0,0,1-.375.375"/><path class="cls-1" d="M15.191,9a.375.375,0,0,1,.375.375"/><path class="cls-1" d="M14.816,9.375A.375.375,0,0,1,15.191,9"/><path class="cls-1" d="M15.191,9.75a.375.375,0,0,1-.375-.375"/><path class="cls-1" d="M15.566,9.375a.375.375,0,0,1-.375.375"/><path class="cls-1" d="M8.438,2.857a3.751,3.751,0,1,0-5.31,4.854A12.231,12.231,0,0,0,1.816,12.25c-.369,4.055-.738,7.839-1.056,11"/><path class="cls-1" d="M15.14,2.838a3.751,3.751,0,1,1,5.348,4.844,12.235,12.235,0,0,1,1.328,4.568c.369,4.056.737,7.84,1.056,11"/></svg>