<svg id="Regular" xmlns="http://www.w3.org/2000/svg" viewBox="0 0 24 24"><defs><style>.cls-1{fill:none;stroke:currentColor;stroke-linecap:round;stroke-linejoin:round;stroke-width:1.5px;}</style></defs><title>bear-paw</title><path class="cls-1" d="M12.76,3A2.247,2.247,0,0,0,8.621,1.785,6.674,6.674,0,0,0,6.76,1.5,6.686,6.686,0,0,0,4.9,1.785,2.245,2.245,0,1,0,1.353,4.512,4.668,4.668,0,0,0,.76,6.751a6,6,0,0,0,12,0,4.668,4.668,0,0,0-.593-2.239A2.234,2.234,0,0,0,12.76,3Z"/><line class="cls-1" x1="6.01" y1="7.501" x2="7.51" y2="7.501"/><line class="cls-1" x1="6.76" y1="9.751" x2="6.76" y2="7.501"/><path class="cls-1" d="M13.122,22.738a1.338,1.338,0,0,0,1.724.33,4.474,4.474,0,0,1,4.367,0,1.337,1.337,0,0,0,1.723-.33,3.6,3.6,0,0,0,.824-2.266c0-2.24-2.118-4.055-4.731-4.055S12.3,18.232,12.3,20.472A3.6,3.6,0,0,0,13.122,22.738Z"/><line class="cls-1" x1="15.01" y1="14.167" x2="14.26" y2="12.667"/><line class="cls-1" x1="11.26" y1="15.667" x2="10.51" y2="14.917"/><line class="cls-1" x1="18.76" y1="14.167" x2="19.51" y2="12.667"/><line class="cls-1" x1="22.51" y1="15.667" x2="23.26" y2="14.917"/></svg>