<svg id="Regular" xmlns="http://www.w3.org/2000/svg" viewBox="0 0 24 24"><defs><style>.cls-1{fill:none;stroke:currentColor;stroke-linecap:round;stroke-linejoin:round;stroke-width:1.5px;}</style></defs><title>beard-style-shave</title><path class="cls-1" d="M21.75,6.75H21a1.5,1.5,0,0,1-1.5-1.5V4.5A1.5,1.5,0,0,0,18,3H6A1.5,1.5,0,0,0,4.5,4.5v.75A1.5,1.5,0,0,1,3,6.75H2.25a1.5,1.5,0,0,0-1.5,1.5v7.5a1.5,1.5,0,0,0,1.5,1.5H3a1.5,1.5,0,0,1,1.5,1.5v.75A1.5,1.5,0,0,0,6,21H18a1.5,1.5,0,0,0,1.5-1.5v-.75a1.5,1.5,0,0,1,1.5-1.5h.75a1.5,1.5,0,0,0,1.5-1.5V8.25A1.5,1.5,0,0,0,21.75,6.75Z"/><line class="cls-1" x1="7.5" y1="6" x2="16.5" y2="6"/><line class="cls-1" x1="7.5" y1="18" x2="16.5" y2="18"/><line class="cls-1" x1="10.5" y1="12" x2="6.75" y2="12"/><line class="cls-1" x1="17.25" y1="12" x2="13.5" y2="12"/><circle class="cls-1" cx="12" cy="12" r="1.5"/><path class="cls-1" d="M18.75,13.5a1.5,1.5,0,0,1,0-3"/><path class="cls-1" d="M5.25,13.5a1.5,1.5,0,0,0,0-3"/></svg>