<svg id="Regular" xmlns="http://www.w3.org/2000/svg" viewBox="0 0 24 24"><defs><style>.cls-1{fill:none;stroke:currentColor;stroke-linecap:round;stroke-linejoin:round;stroke-width:1.5px;}</style></defs><title>bed-bunk</title><line class="cls-1" x1="0.75" y1="23.25" x2="0.75" y2="0.75"/><line class="cls-1" x1="0.75" y1="9.75" x2="14.25" y2="9.75"/><line class="cls-1" x1="0.75" y1="6.75" x2="14.25" y2="6.75"/><path class="cls-1" d="M5.25,3.75h-3a1.5,1.5,0,0,0-1.5,1.5v1.5h6V5.25A1.5,1.5,0,0,0,5.25,3.75Z"/><line class="cls-1" x1="17.25" y1="3.75" x2="17.25" y2="23.25"/><line class="cls-1" x1="23.25" y1="3.75" x2="23.25" y2="23.25"/><line class="cls-1" x1="17.25" y1="6.75" x2="23.25" y2="6.75"/><line class="cls-1" x1="17.25" y1="11.25" x2="23.25" y2="11.25"/><line class="cls-1" x1="17.25" y1="15.75" x2="23.25" y2="15.75"/><line class="cls-1" x1="17.25" y1="20.25" x2="23.25" y2="20.25"/><path class="cls-1" d="M14.25,18.75H10.5a.75.75,0,0,0-.75.75v3.75"/><line class="cls-1" x1="14.25" y1="23.25" x2="14.25" y2="14.25"/><rect class="cls-1" x="0.75" y="17.25" width="6" height="6"/><line class="cls-1" x1="8.25" y1="17.25" x2="0.75" y2="17.25"/></svg>