<svg id="Regular" xmlns="http://www.w3.org/2000/svg" viewBox="0 0 24 24"><defs><style>.cls-1{fill:none;stroke:currentColor;stroke-linecap:round;stroke-linejoin:round;stroke-width:1.5px;}</style></defs><title>bed-single</title><circle class="cls-1" cx="7.5" cy="16.5" r="2.25"/><path class="cls-1" d="M12,14.25h8.5a2,2,0,0,1,2,2v2.5a0,0,0,0,1,0,0H12a0,0,0,0,1,0,0v-4.5A0,0,0,0,1,12,14.25Z"/><rect class="cls-1" x="1.5" y="18.75" width="21" height="3"/><line class="cls-1" x1="1.5" y1="23.25" x2="1.5" y2="14.25"/><line class="cls-1" x1="22.5" y1="23.25" x2="22.5" y2="21.75"/><path class="cls-1" d="M20.145,5.907a.749.749,0,0,1-.745.843H15.1a.749.749,0,0,1-.745-.843l.563-4.5A.75.75,0,0,1,15.662.75h3.176a.75.75,0,0,1,.744.657Z"/><line class="cls-1" x1="17.25" y1="6.75" x2="17.25" y2="11.25"/></svg>