<svg id="Regular" xmlns="http://www.w3.org/2000/svg" viewBox="0 0 24 24"><defs><style>.cls-1{fill:none;stroke:currentColor;stroke-linecap:round;stroke-linejoin:round;stroke-width:1.5px;}</style></defs><title>beer-half-glass</title><path class="cls-1" d="M20.25,2.25l-3,7.99a15,15,0,0,0-.664,8.209l.569,2.844a.752.752,0,0,1-.325.775A8.746,8.746,0,0,1,12,23.25a8.746,8.746,0,0,1-4.834-1.182.752.752,0,0,1-.325-.775l.569-2.844a15,15,0,0,0-.664-8.209l-3-7.99"/><ellipse class="cls-1" cx="12" cy="2.25" rx="8.25" ry="1.5"/><ellipse class="cls-1" cx="12" cy="11.25" rx="4.916" ry="1.5"/><path class="cls-1" d="M11.25,18.375a.375.375,0,1,1-.375.375.375.375,0,0,1,.375-.375"/></svg>