<svg id="Regular" xmlns="http://www.w3.org/2000/svg" viewBox="0 0 24 24"><defs><style>.cls-1{fill:none;stroke:currentColor;stroke-linecap:round;stroke-linejoin:round;stroke-width:1.5px;}</style></defs><title>beer-opener-1</title><path class="cls-1" d="M3.859,22.459a1.639,1.639,0,0,1-2.318-2.318l4.635-4.635,2.318,2.318Z"/><path class="cls-1" d="M20.084,10.87a4.918,4.918,0,0,1-7.136-.192,5.1,5.1,0,0,1,.379-6.959L15.546,1.5a1.5,1.5,0,0,1,2.122,0L22.5,6.332a1.5,1.5,0,0,1,0,2.122Z"/><path class="cls-1" d="M14.869,5.655l.579.579a1.639,1.639,0,1,1,2.318,2.318l.579.579"/><line class="cls-1" x1="13.13" y1="10.87" x2="7.335" y2="16.665"/></svg>