<svg id="Regular" xmlns="http://www.w3.org/2000/svg" viewBox="0 0 24 24"><defs><style>.cls-1{fill:none;stroke:currentColor;stroke-linecap:round;stroke-linejoin:round;stroke-width:1.5px;}</style></defs><title>bench</title><path class="cls-1" d="M2.75,4.5h18.5a.5.5,0,0,1,.5.5V7.5a0,0,0,0,1,0,0H2.25a0,0,0,0,1,0,0V5A.5.5,0,0,1,2.75,4.5Z"/><path class="cls-1" d="M2.25,7.5h19.5a0,0,0,0,1,0,0V10a.5.5,0,0,1-.5.5H2.75a.5.5,0,0,1-.5-.5V7.5A0,0,0,0,1,2.25,7.5Z"/><path class="cls-1" d="M23.25,15a1.5,1.5,0,0,1-1.5,1.5H2.25a1.5,1.5,0,0,1,0-3h19.5A1.5,1.5,0,0,1,23.25,15Z"/><line class="cls-1" x1="5.25" y1="10.5" x2="5.25" y2="13.5"/><line class="cls-1" x1="18.75" y1="10.5" x2="18.75" y2="13.5"/><line class="cls-1" x1="5.25" y1="3" x2="5.25" y2="4.5"/><line class="cls-1" x1="18.75" y1="3" x2="18.75" y2="4.5"/><line class="cls-1" x1="3" y1="16.5" x2="1.5" y2="21"/><line class="cls-1" x1="21" y1="16.5" x2="22.5" y2="21"/></svg>