<svg xmlns="http://www.w3.org/2000/svg" viewBox="0 0 24 24"><defs><style>.a{fill:none;stroke:currentColor;stroke-linecap:round;stroke-linejoin:round;stroke-width:1.5px;}</style></defs><title>bendable-phone-touch</title><path class="a" d="M9.75,19H2.25a1.5,1.5,0,0,1-1.5-1.5V16a6,6,0,0,1,12,0v5.75a1.5,1.5,0,0,0,1.5,1.5h7.5a1.5,1.5,0,0,0,1.5-1.5V16a6,6,0,0,0-6-6H6.75"/><path class="a" d="M19.9,14.3c.354.487.354,1.494.354,3.205h-4.5V16c0-2.25-.75-3-.75-3"/><path class="a" d="M18,20.125a.375.375,0,1,0,.375.375A.375.375,0,0,0,18,20.125h0"/><line class="a" x1="23.25" y1="8.25" x2="23.25" y2="0.75"/><path class="a" d="M23.25,1.5h-15a3,3,0,0,0,3,3H15a3,3,0,0,0,3,3h5.25"/><line class="a" x1="18" y1="4.5" x2="14.25" y2="4.5"/></svg>