<svg xmlns="http://www.w3.org/2000/svg" viewBox="0 0 24 24"><defs><style>.a{fill:none;stroke:currentColor;stroke-linecap:round;stroke-linejoin:round;stroke-width:1.5px;}</style></defs><title>bicycle-city-guide</title><circle class="a" cx="20.25" cy="20.25" r="3"/><circle class="a" cx="6.75" cy="20.25" r="3"/><path class="a" d="M9.75,20.25h3A1.684,1.684,0,0,0,14.4,18.931,6,6,0,0,1,20.25,14.25v-4.5a1.5,1.5,0,0,0-1.5-1.5h-1.5"/><path class="a" d="M.75,14.25h6a6,6,0,0,1,5.2,3h3.106"/><path class="a" d="M4.629,18.129.75,14.25V6.75a6,6,0,0,1,6-6H9c3.75,0,5.25,1.679,5.25,3.75"/><line class="a" x1="3" y1="14.25" x2="6.75" y2="0.75"/><line class="a" x1="5.25" y1="14.25" x2="13.284" y2="2.073"/><line class="a" x1="11.25" y1="11.25" x2="15.75" y2="11.25"/><line class="a" x1="13.5" y1="11.25" x2="11.947" y2="17.25"/></svg>