<svg xmlns="http://www.w3.org/2000/svg" viewBox="0 0 24 24"><defs><style>.a{fill:none;stroke:currentColor;stroke-linecap:round;stroke-linejoin:round;stroke-width:1.5px;}</style></defs><title>bicycle-person</title><path class="a" d="M.75,23.25V15a.75.75,0,0,1,.75-.75h3"/><circle class="a" cx="6.75" cy="3.375" r="2.625"/><path class="a" d="M2.25,11.25a3,3,0,0,1,3-3h3a3,3,0,0,1,3,3"/><circle class="a" cx="9" cy="19.5" r="3.75"/><path class="a" d="M23.244,23.174a3.751,3.751,0,0,1,0-7.349"/><line class="a" x1="13.5" y1="11.25" x2="16.5" y2="11.25"/><polygon class="a" points="21.463 12.75 15 19.5 9 19.5 15 13.5 21.463 12.75"/><polyline class="a" points="22.5 9.75 20.329 9.733 23.25 17.504"/></svg>