<svg xmlns="http://www.w3.org/2000/svg" viewBox="0 0 24 24"><defs><style>.a{fill:none;stroke:currentColor;stroke-linecap:round;stroke-linejoin:round;stroke-width:1.5px;}</style></defs><title>bicycle-lock-key</title><path class="a" d="M10.908,4.81a.375.375,0,0,1-.375.375"/><path class="a" d="M10.533,4.435a.375.375,0,0,1,.375.375"/><path class="a" d="M10.158,4.81a.375.375,0,0,1,.375-.375"/><path class="a" d="M10.533,5.185a.375.375,0,0,1-.375-.375"/><path class="a" d="M14.25,6.434h5.215a1.624,1.624,0,1,0,0-3.248H14.25a4.06,4.06,0,1,0,0,3.248Z"/><circle class="a" cx="4.5" cy="19.5" r="3.75"/><circle class="a" cx="19.5" cy="19.5" r="3.75"/><line class="a" x1="9" y1="11.25" x2="12" y2="11.25"/><polygon class="a" points="18 12.75 10.5 19.5 4.5 19.5 10.5 13.5 18 12.75"/><polyline class="a" points="19.5 9.75 17.329 9.733 19.5 19.5"/></svg>