<svg id="Regular" xmlns="http://www.w3.org/2000/svg" viewBox="0 0 24 24"><defs><style>.cls-1{fill:none;stroke:currentColor;stroke-linecap:round;stroke-linejoin:round;stroke-width:1.5px;}</style></defs><title>biking-mountain</title><circle class="cls-1" cx="4.632" cy="19.488" r="3.375"/><circle class="cls-1" cx="19.417" cy="15.742" r="3.375"/><path class="cls-1" d="M.75,14.377a6.76,6.76,0,0,1,3.063-1.211"/><path class="cls-1" d="M21.5,9.67a6.756,6.756,0,0,0-3.824-.063l-.25-1.52"/><path class="cls-1" d="M9.358,15.2,9.6,13.957,7.279,12.37A3,3,0,0,1,6.492,8.2l.949-1.389a1.491,1.491,0,0,1,1.441-.64l4.7.64a1.5,1.5,0,0,1-.405,2.971L9.4,9.269l-.426.623,3.141,2.145a1.5,1.5,0,0,1,.627,1.527l-.779,3.963a1.5,1.5,0,0,1-.968,1.124"/><path class="cls-1" d="M23.25,19.114H18.2a3,3,0,0,0-2.573,1.457L14.25,22.864h9"/><circle class="cls-1" cx="10.365" cy="3.25" r="2.25"/></svg>