<svg id="Regular" xmlns="http://www.w3.org/2000/svg" viewBox="0 0 24 24"><defs><style>.cls-1{fill:none;stroke:currentColor;stroke-linecap:round;stroke-linejoin:round;stroke-width:1.5px;}</style></defs><title>biking-helmet-person</title><circle class="cls-1" cx="13.5" cy="3.375" r="2.625"/><line class="cls-1" x1="10.902" y1="3" x2="17.25" y2="3"/><path class="cls-1" d="M1.48,13.461a6.772,6.772,0,0,1,5.311-.312"/><path class="cls-1" d="M22.52,13.461a6.753,6.753,0,0,0-3.02-.711"/><path class="cls-1" d="M12,21a1.5,1.5,0,0,1-1.5-1.5V18.3a3.016,3.016,0,0,0-1.456-2.572l-1.566-.939a1.5,1.5,0,0,1-.53-2.03l3-5.25a1.5,1.5,0,0,1,2.757.381c.085.291.655,1.863,3.045,1.863a1.5,1.5,0,0,1,0,3,6.239,6.239,0,0,1-4.412-1.63l-1.057,1.85.306.183A6.025,6.025,0,0,1,13.5,18.3v1.2A1.5,1.5,0,0,1,12,21Z"/><circle class="cls-1" cx="4.125" cy="19.875" r="3.375"/><circle class="cls-1" cx="19.875" cy="19.875" r="3.375"/></svg>