<svg id="Regular" xmlns="http://www.w3.org/2000/svg" viewBox="0 0 24 24"><defs><style>.cls-1{fill:none;stroke:currentColor;stroke-linecap:round;stroke-linejoin:round;stroke-width:1.5px;}</style></defs><title>biking-helmet</title><path class="cls-1" d="M3.75,5.25V3.75A1.767,1.767,0,0,1,4.5,2.273C6.222,1.083,9.4.75,11.25.75c3.233,0,9.643,1.573,11.814,6.943a2.581,2.581,0,0,1-2.4,3.54L3.75,11.25a3,3,0,0,1,0-6Z"/><path class="cls-1" d="M5.262,5.622A3.367,3.367,0,0,0,3.75,5.25"/><path class="cls-1" d="M23.064,7.693c-2.072-3.122-8.138-5.319-13.252-2.88"/><path class="cls-1" d="M3.75,11.25,4.566,13.7A3,3,0,0,0,7.412,15.75H11.25"/><line class="cls-1" x1="12.75" y1="11.25" x2="12.75" y2="14.25"/><circle class="cls-1" cx="12.75" cy="15.75" r="1.5"/><line class="cls-1" x1="5.751" y1="15.248" x2="9.75" y2="11.25"/><path class="cls-1" d="M18.313,22.811a1.5,1.5,0,0,1-2.122,0l-1.06-1.061a1.5,1.5,0,0,1,2.121-2.121l1.061,1.06A1.5,1.5,0,0,1,18.313,22.811Z"/><path class="cls-1" d="M12.75,17.25l.316.631a3.06,3.06,0,0,0,1.289,1.33l.775.419"/></svg>