<svg id="Regular" xmlns="http://www.w3.org/2000/svg" viewBox="0 0 24 24"><defs><style>.cls-1{fill:none;stroke:currentColor;stroke-linecap:round;stroke-linejoin:round;stroke-width:1.5px;}</style></defs><title>bird-cage-2</title><path class="cls-1" d="M1.288,21.2A3,3,0,0,0,4.134,23.25H19.891A3,3,0,0,0,22.737,21.2l.487-1.462a.75.75,0,0,0-.711-.987h-21a.75.75,0,0,0-.712.987Z"/><path class="cls-1" d="M4.513,18.75,5.864,6.584A1.5,1.5,0,0,1,7.355,5.25H16.67a1.5,1.5,0,0,1,1.491,1.334L19.513,18.75"/><path class="cls-1" d="M15.013,5.25V3.75a3,3,0,0,0-6,0v1.5"/><path class="cls-1" d="M13.513,15.75V12.375a2.625,2.625,0,0,0-5.25,0V15.75"/><line class="cls-1" x1="13.513" y1="12.75" x2="15.763" y2="14.25"/><path class="cls-1" d="M10.888,12.75a.374.374,0,0,0-.375.375"/><path class="cls-1" d="M11.263,13.125a.375.375,0,0,0-.375-.375"/><path class="cls-1" d="M10.888,13.5a.375.375,0,0,0,.375-.375"/><path class="cls-1" d="M10.513,13.125a.374.374,0,0,0,.375.375"/></svg>