<svg id="Regular" xmlns="http://www.w3.org/2000/svg" viewBox="0 0 24 24"><defs><style>.cls-1{fill:none;stroke:currentColor;stroke-linecap:round;stroke-linejoin:round;stroke-width:1.5px;}</style></defs><title>bird</title><path class="cls-1" d="M8.457,7.1a.375.375,0,0,1,.375.375"/><path class="cls-1" d="M8.082,7.47A.375.375,0,0,1,8.457,7.1"/><path class="cls-1" d="M8.457,7.845a.375.375,0,0,1-.375-.375"/><path class="cls-1" d="M8.832,7.47a.375.375,0,0,1-.375.375"/><path class="cls-1" d="M15.572,7.1a.375.375,0,0,0-.375.375"/><path class="cls-1" d="M15.947,7.47a.375.375,0,0,0-.375-.375"/><path class="cls-1" d="M15.572,7.845a.375.375,0,0,0,.375-.375"/><path class="cls-1" d="M15.2,7.47a.375.375,0,0,0,.375.375"/><line class="cls-1" x1="15.015" y1="23.108" x2="14.283" y2="19.45"/><line class="cls-1" x1="9.015" y1="23.108" x2="9.746" y2="19.45"/><path class="cls-1" d="M12.015.75A9.461,9.461,0,0,0,2.779,12.376L.821,17.27A.792.792,0,0,0,1.833,18.3l3.518-1.319a9.476,9.476,0,0,0,13.328,0L22.2,18.3a.791.791,0,0,0,1.011-1.034L21.25,12.376A9.461,9.461,0,0,0,12.015.75Z"/><path class="cls-1" d="M8.062,12.4l3.953,3.953L15.968,12.4a5.062,5.062,0,0,0-7.906,0Z"/></svg>