<svg id="Regular" xmlns="http://www.w3.org/2000/svg" viewBox="0 0 24 24"><defs><style>.cls-1{fill:none;stroke:currentColor;stroke-linecap:round;stroke-linejoin:round;stroke-width:1.5px;}</style></defs><title>bird-cage</title><path class="cls-1" d="M20.356,7.4a2.971,2.971,0,0,1,.037-1.283l.943-3.733A.756.756,0,0,0,20.3,1.514a8.044,8.044,0,0,1-3.1.736c-2.275,0-3.034-1.5-5.309-1.5s-3.034,1.5-5.31,1.5a8.049,8.049,0,0,1-3.1-.736.756.756,0,0,0-1.041.868l.943,3.729A2.969,2.969,0,0,1,3.421,7.4l-2.372,12.4a3.012,3.012,0,0,0,3,3.456H19.73a3.012,3.012,0,0,0,3-3.456S20.86,10.033,20.356,7.4Z"/><path class="cls-1" d="M9.264,15.75l3,3,3-3A6.375,6.375,0,0,0,9.264,15.75Z"/><path class="cls-1" d="M10.389,11.25a.375.375,0,0,1,.375.375"/><path class="cls-1" d="M10.014,11.625a.375.375,0,0,1,.375-.375"/><path class="cls-1" d="M10.389,12a.375.375,0,0,1-.375-.375"/><path class="cls-1" d="M10.764,11.625a.375.375,0,0,1-.375.375"/><path class="cls-1" d="M14.139,11.25a.375.375,0,0,1,.375.375"/><path class="cls-1" d="M13.764,11.625a.375.375,0,0,1,.375-.375"/><path class="cls-1" d="M14.139,12a.375.375,0,0,1-.375-.375"/><path class="cls-1" d="M14.514,11.625a.375.375,0,0,1-.375.375"/><path class="cls-1" d="M7.264,14.357a5.251,5.251,0,1,1,10,0"/></svg>