<svg id="Regular" xmlns="http://www.w3.org/2000/svg" viewBox="0 0 24 24"><defs><style>.cls-1{fill:none;stroke:currentColor;stroke-linecap:round;stroke-linejoin:round;stroke-width:1.5px;}</style></defs><title>bird-cage-1</title><path class="cls-1" d="M3.421,7.4a2.955,2.955,0,0,0-.037-1.283L2.441,2.382a.756.756,0,0,1,1.041-.868,8.044,8.044,0,0,0,3.1.736c2.276,0,3.034-1.5,5.31-1.5s3.034,1.5,5.309,1.5a8.044,8.044,0,0,0,3.1-.736.756.756,0,0,1,1.041.868l-.943,3.729A2.969,2.969,0,0,0,20.356,7.4l2.372,12.4a3.012,3.012,0,0,1-3,3.456H4.048a3.012,3.012,0,0,1-3-3.456S2.917,10.033,3.421,7.4Z"/><path class="cls-1" d="M8.514,12.75a3.75,3.75,0,1,1,7.423.756A5.238,5.238,0,0,1,5.514,12.75Z"/><line class="cls-1" x1="10.764" y1="18" x2="10.764" y2="20.25"/><line class="cls-1" x1="16.014" y1="12.75" x2="18.264" y2="12.75"/><path class="cls-1" d="M12.639,12a.375.375,0,0,0-.375.375"/><path class="cls-1" d="M13.014,12.375A.375.375,0,0,0,12.639,12"/><path class="cls-1" d="M12.639,12.75a.375.375,0,0,0,.375-.375"/><path class="cls-1" d="M12.264,12.375a.375.375,0,0,0,.375.375"/></svg>