<svg id="Regular" xmlns="http://www.w3.org/2000/svg" viewBox="0 0 24 24"><defs><style>.cls-1{fill:none;stroke:currentColor;stroke-linecap:round;stroke-linejoin:round;stroke-width:1.5px;}</style></defs><title>blazer</title><path class="cls-1" d="M18,2.25,22.5,4.5,18.75,9.75V22.5a.75.75,0,0,1-.75.75H15.856a3,3,0,0,1-2.5-1.336l-1.605-2.408a3,3,0,0,1-.5-1.664V12"/><path class="cls-1" d="M22.5,4.5l.713,14.964a.75.75,0,0,1-.75.786H18.75"/><path class="cls-1" d="M15,.75l3,1.5C16.676,8.4,14.177,10.871,11.25,12,11.25,12,15,4.5,15,.75Z"/><path class="cls-1" d="M1.5,4.5.787,19.464a.75.75,0,0,0,.75.786H5.25"/><path class="cls-1" d="M6,2.25,1.5,4.5,5.25,9.75V22.5a.75.75,0,0,0,.75.75H8.144a3,3,0,0,0,2.5-1.336L12,19.875"/><path class="cls-1" d="M12,10.411C10.906,8,9,3.423,9,.75L6,2.25c1.135,5.273,3.135,7.841,5.527,9.179"/><line class="cls-1" x1="9" y1="0.75" x2="15" y2="0.75"/><path class="cls-1" d="M14.25,15.375a.375.375,0,1,1-.375.375.375.375,0,0,1,.375-.375"/></svg>