<svg id="Regular" xmlns="http://www.w3.org/2000/svg" viewBox="0 0 24 24"><defs><style>.cls-1{fill:none;stroke:currentColor;stroke-linecap:round;stroke-linejoin:round;stroke-width:1.5px;}</style></defs><title>blazer-1</title><path class="cls-1" d="M22.5,4.5l.713,14.964a.75.75,0,0,1-.75.786H18.75"/><path class="cls-1" d="M15,.75l3,1.5c-1.324,6.149-3.073,9.371-6,10.5C12,12.75,15,4.5,15,.75Z"/><path class="cls-1" d="M9,.75,6,2.25c1.324,6.149,3.073,9.371,6,10.5C12,12.75,9,4.5,9,.75Z"/><path class="cls-1" d="M1.5,4.5.787,19.464a.75.75,0,0,0,.75.786H5.25"/><path class="cls-1" d="M6,2.25,1.5,4.5,5.25,9.75V22.5a.75.75,0,0,0,.75.75H8.25a3,3,0,0,0,2.4-1.2L12,20.25l1.35,1.8a3,3,0,0,0,2.4,1.2H18a.75.75,0,0,0,.75-.75V9.75L22.5,4.5,18,2.25"/><line class="cls-1" x1="9" y1="0.75" x2="15" y2="0.75"/><line class="cls-1" x1="12" y1="12.75" x2="12" y2="20.25"/><line class="cls-1" x1="8.25" y1="17.25" x2="9.75" y2="17.25"/><line class="cls-1" x1="14.25" y1="17.25" x2="15.75" y2="17.25"/></svg>