<svg id="Regular" xmlns="http://www.w3.org/2000/svg" viewBox="0 0 24 24"><defs><style>.cls-1{fill:none;stroke:#000;stroke-linecap:round;stroke-linejoin:round;stroke-width:1.5px;fill-rule:evenodd;}</style></defs><title>blog-blogger</title><path class="cls-1" d="M22.63,9.5c-.41-.32-2.5,0-3.07-.49-.4-.37-.46-1-.58-1.92a5.54,5.54,0,0,0-.64-2.41A7.82,7.82,0,0,0,12.86.79h-5A7.13,7.13,0,0,0,.79,7.9V16.2a7.12,7.12,0,0,0,7.1,7.1h8.16a7.14,7.14,0,0,0,7.11-7.1l0-5.75C23.06,9.76,23,9.78,22.63,9.5Z"/><path class="cls-1" d="M6.19,7.79A1.64,1.64,0,0,0,7.83,9.42H12a1.64,1.64,0,1,0,0-3.27H7.83A1.64,1.64,0,0,0,6.19,7.79Z"/><path class="cls-1" d="M6.19,16.21a1.64,1.64,0,0,0,1.64,1.64h8.33a1.64,1.64,0,0,0,0-3.27H7.83A1.64,1.64,0,0,0,6.19,16.21Z"/></svg>