<svg id="Regular" xmlns="http://www.w3.org/2000/svg" viewBox="0 0 24 24"><defs><style>.cls-1{fill:none;stroke:currentColor;stroke-linecap:round;stroke-linejoin:round;stroke-width:1.5px;}</style></defs><title>blood-drops-positive</title><line class="cls-1" x1="12" y1="19.25" x2="12" y2="14.75"/><line class="cls-1" x1="9.75" y1="17" x2="14.25" y2="17"/><path class="cls-1" d="M18.75,15.5a6.75,6.75,0,0,1-13.5,0c0-2.938,4.162-9.152,5.938-11.6a.965.965,0,0,1,1.562,0C14.527,6.348,18.75,12.562,18.75,15.5Z"/><path class="cls-1" d="M5.25,15.5c0-2.155,2.239-6.073,4.134-8.975-.974-1.671-2.1-3.283-2.777-4.216a.751.751,0,0,0-1.214,0C4.011,4.215.75,8.954.75,11.239a5.251,5.251,0,0,0,4.566,5.2A6.844,6.844,0,0,1,5.25,15.5Z"/><path class="cls-1" d="M18.607,2.309a.751.751,0,0,0-1.214,0c-.682.941-1.822,2.571-2.8,4.257,1.906,2.9,4.158,6.788,4.158,8.934a6.844,6.844,0,0,1-.066.944,5.251,5.251,0,0,0,4.566-5.2C23.25,8.954,19.989,4.215,18.607,2.309Z"/></svg>