<svg id="Regular" xmlns="http://www.w3.org/2000/svg" viewBox="0 0 24 24"><defs><style>.cls-1{fill:none;stroke:currentColor;stroke-linecap:round;stroke-linejoin:round;stroke-width:1.5px;}</style></defs><title>blood-drop-type-ab</title><line class="cls-1" x1="19.5" y1="9.75" x2="19.5" y2="3.75"/><path class="cls-1" d="M19.5,3.75H21a1.5,1.5,0,0,1,0,3H19.5"/><path class="cls-1" d="M19.5,6.75H21a1.5,1.5,0,0,1,0,3H19.5"/><path class="cls-1" d="M13.5,9.75V5.25a1.5,1.5,0,0,1,3,0v4.5"/><line class="cls-1" x1="13.5" y1="7.5" x2="16.5" y2="7.5"/><path class="cls-1" d="M20.906,1.5a6,6,0,0,0-5.812,0"/><path class="cls-1" d="M15.094,12a6,6,0,0,0,5.812,0"/><path class="cls-1" d="M15,16.5a6.75,6.75,0,0,1-13.5,0c0-4.871,4.448-12.212,6.123-14.8a.744.744,0,0,1,1.254,0c.228.353.507.794.82,1.3"/><path class="cls-1" d="M8.25,20.25A3.75,3.75,0,0,1,4.5,16.5"/></svg>