<svg id="Regular" xmlns="http://www.w3.org/2000/svg" viewBox="0 0 24 24"><defs><style>.cls-1{fill:none;stroke:currentColor;stroke-linecap:round;stroke-linejoin:round;stroke-width:1.5px;}</style></defs><title>board-game</title><line class="cls-1" x1="8.25" y1="0.75" x2="8.25" y2="23.25"/><line class="cls-1" x1="15.75" y1="0.75" x2="15.75" y2="23.25"/><line class="cls-1" x1="23.25" y1="8.25" x2="0.75" y2="8.25"/><line class="cls-1" x1="23.25" y1="15.75" x2="0.75" y2="15.75"/><path class="cls-1" d="M4.5,11.625A.375.375,0,0,1,4.875,12"/><path class="cls-1" d="M4.125,12a.375.375,0,0,1,.375-.375"/><path class="cls-1" d="M4.5,12.375A.375.375,0,0,1,4.125,12"/><path class="cls-1" d="M4.875,12a.375.375,0,0,1-.375.375"/><path class="cls-1" d="M4.5,19.125a.375.375,0,0,1,.375.375"/><path class="cls-1" d="M4.125,19.5a.375.375,0,0,1,.375-.375"/><path class="cls-1" d="M4.5,19.875a.375.375,0,0,1-.375-.375"/><path class="cls-1" d="M4.875,19.5a.375.375,0,0,1-.375.375"/><path class="cls-1" d="M12,4.125a.375.375,0,0,1,.375.375"/><path class="cls-1" d="M11.625,4.5A.375.375,0,0,1,12,4.125"/><path class="cls-1" d="M12,4.875a.375.375,0,0,1-.375-.375"/><path class="cls-1" d="M12.375,4.5A.375.375,0,0,1,12,4.875"/><path class="cls-1" d="M12,11.625a.375.375,0,0,1,.375.375"/><path class="cls-1" d="M11.625,12A.375.375,0,0,1,12,11.625"/><path class="cls-1" d="M12,12.375A.375.375,0,0,1,11.625,12"/><path class="cls-1" d="M12.375,12a.375.375,0,0,1-.375.375"/><path class="cls-1" d="M19.5,4.125a.375.375,0,0,1,.375.375"/><path class="cls-1" d="M19.125,4.5a.375.375,0,0,1,.375-.375"/><path class="cls-1" d="M19.5,4.875a.375.375,0,0,1-.375-.375"/><path class="cls-1" d="M19.875,4.5a.375.375,0,0,1-.375.375"/><path class="cls-1" d="M19.5,19.125a.375.375,0,0,1,.375.375"/><path class="cls-1" d="M19.125,19.5a.375.375,0,0,1,.375-.375"/><path class="cls-1" d="M19.5,19.875a.375.375,0,0,1-.375-.375"/><path class="cls-1" d="M19.875,19.5a.375.375,0,0,1-.375.375"/><rect class="cls-1" x="0.75" y="0.75" width="22.5" height="22.5" rx="1" ry="1"/></svg>