<svg id="Regular" xmlns="http://www.w3.org/2000/svg" viewBox="0 0 24 24"><defs><style>.cls-1{fill:none;stroke:currentColor;stroke-linecap:round;stroke-linejoin:round;stroke-width:1.5px;}</style></defs><title>board-game-dice-pawn</title><rect class="cls-1" x="1" y="12.75" width="10.5" height="10.5" rx="1" ry="1" transform="translate(12.5 36) rotate(-180)"/><path class="cls-1" d="M4.375,15.75A.375.375,0,0,0,4,16.125"/><path class="cls-1" d="M4.75,16.125a.375.375,0,0,0-.375-.375"/><path class="cls-1" d="M4.375,16.5a.375.375,0,0,0,.375-.375"/><path class="cls-1" d="M4,16.125a.375.375,0,0,0,.375.375"/><path class="cls-1" d="M8.125,15.75a.375.375,0,0,0-.375.375"/><path class="cls-1" d="M8.5,16.125a.375.375,0,0,0-.375-.375"/><path class="cls-1" d="M8.125,16.5a.375.375,0,0,0,.375-.375"/><path class="cls-1" d="M7.75,16.125a.375.375,0,0,0,.375.375"/><path class="cls-1" d="M8.125,19.5a.375.375,0,0,0-.375.375"/><path class="cls-1" d="M8.5,19.875a.375.375,0,0,0-.375-.375"/><path class="cls-1" d="M8.125,20.25a.375.375,0,0,0,.375-.375"/><path class="cls-1" d="M7.75,19.875a.375.375,0,0,0,.375.375"/><path class="cls-1" d="M4.375,19.5A.375.375,0,0,0,4,19.875"/><path class="cls-1" d="M4.75,19.875a.375.375,0,0,0-.375-.375"/><path class="cls-1" d="M4.375,20.25a.375.375,0,0,0,.375-.375"/><path class="cls-1" d="M4,19.875a.375.375,0,0,0,.375.375"/><path class="cls-1" d="M14.283,17.243l1.024-7.068a4.891,4.891,0,1,1,3.636,0l1.35,8.189h1.286A1.5,1.5,0,0,1,23.034,19.5l.152,1.987a1.5,1.5,0,0,1-1.477,1.763H15.25"/></svg>