<svg id="Regular" xmlns="http://www.w3.org/2000/svg" viewBox="0 0 24 24"><defs><style>.cls-1{fill:none;stroke:currentColor;stroke-linecap:round;stroke-linejoin:round;stroke-width:1.5px;}</style></defs><title>board-game-dice-2</title><path class="cls-1" d="M4.125,12.75a.375.375,0,0,1,.375.375"/><path class="cls-1" d="M3.75,13.125a.375.375,0,0,1,.375-.375"/><path class="cls-1" d="M4.125,13.5a.375.375,0,0,1-.375-.375"/><path class="cls-1" d="M4.5,13.125a.375.375,0,0,1-.375.375"/><path class="cls-1" d="M8.25,12.75a.375.375,0,0,1,.375.375"/><path class="cls-1" d="M7.875,13.125a.375.375,0,0,1,.375-.375"/><path class="cls-1" d="M8.25,13.5a.375.375,0,0,1-.375-.375"/><path class="cls-1" d="M8.625,13.125a.375.375,0,0,1-.375.375"/><path class="cls-1" d="M12.375,12.75a.375.375,0,0,1,.375.375"/><path class="cls-1" d="M12,13.125a.375.375,0,0,1,.375-.375"/><path class="cls-1" d="M12.375,13.5A.375.375,0,0,1,12,13.125"/><path class="cls-1" d="M12.75,13.125a.375.375,0,0,1-.375.375"/><path class="cls-1" d="M12.375,4.5a.375.375,0,0,1,.375.375"/><path class="cls-1" d="M12,4.875a.375.375,0,0,1,.375-.375"/><path class="cls-1" d="M12.375,5.25A.375.375,0,0,1,12,4.875"/><path class="cls-1" d="M12.75,4.875a.375.375,0,0,1-.375.375"/><path class="cls-1" d="M19.125,4.5a.375.375,0,0,1,.375.375"/><path class="cls-1" d="M18.75,4.875a.375.375,0,0,1,.375-.375"/><path class="cls-1" d="M19.125,5.25a.375.375,0,0,1-.375-.375"/><path class="cls-1" d="M19.5,4.875a.375.375,0,0,1-.375.375"/><path class="cls-1" d="M19.125,11.25a.375.375,0,0,1,.375.375"/><path class="cls-1" d="M18.75,11.625a.375.375,0,0,1,.375-.375"/><path class="cls-1" d="M19.125,12a.375.375,0,0,1-.375-.375"/><path class="cls-1" d="M19.5,11.625a.375.375,0,0,1-.375.375"/><path class="cls-1" d="M4.125,18a.375.375,0,0,1,.375.375"/><path class="cls-1" d="M3.75,18.375A.375.375,0,0,1,4.125,18"/><path class="cls-1" d="M4.125,18.75a.375.375,0,0,1-.375-.375"/><path class="cls-1" d="M4.5,18.375a.375.375,0,0,1-.375.375"/><path class="cls-1" d="M8.25,18a.375.375,0,0,1,.375.375"/><path class="cls-1" d="M7.875,18.375A.375.375,0,0,1,8.25,18"/><path class="cls-1" d="M8.25,18.75a.375.375,0,0,1-.375-.375"/><path class="cls-1" d="M8.625,18.375a.375.375,0,0,1-.375.375"/><path class="cls-1" d="M12.375,18a.375.375,0,0,1,.375.375"/><path class="cls-1" d="M12,18.375A.375.375,0,0,1,12.375,18"/><path class="cls-1" d="M12.375,18.75A.375.375,0,0,1,12,18.375"/><path class="cls-1" d="M12.75,18.375a.375.375,0,0,1-.375.375"/><rect class="cls-1" x="0.75" y="8.25" width="15" height="15" rx="1" ry="1"/><path class="cls-1" d="M18.75,15.75h3a1.5,1.5,0,0,0,1.5-1.5v-12a1.5,1.5,0,0,0-1.5-1.5h-12a1.5,1.5,0,0,0-1.5,1.5v3"/></svg>