<svg id="Regular" xmlns="http://www.w3.org/2000/svg" viewBox="0 0 24 24"><defs><style>.cls-1{fill:none;stroke:currentColor;stroke-linecap:round;stroke-linejoin:round;stroke-width:1.5px;}</style></defs><title>board-game-jenga</title><path class="cls-1" d="M.75,18.75h6a0,0,0,0,1,0,0v4.5a0,0,0,0,1,0,0h-5a1,1,0,0,1-1-1v-3.5A0,0,0,0,1,.75,18.75Z"/><path class="cls-1" d="M17.164,14.25H2.25a1.5,1.5,0,0,0-1.5,1.5v3H18.116"/><path class="cls-1" d="M6.75,18.75h6a0,0,0,0,1,0,0v3.5a1,1,0,0,1-1,1h-5a0,0,0,0,1,0,0v-4.5A0,0,0,0,1,6.75,18.75Z"/><path class="cls-1" d="M1.75.75h4a1,1,0,0,1,1,1v3.5a0,0,0,0,1,0,0h-6a0,0,0,0,1,0,0V1.75A1,1,0,0,1,1.75.75Z"/><path class="cls-1" d="M13.75.75h4a1,1,0,0,1,1,1v3.5a0,0,0,0,1,0,0h-6a0,0,0,0,1,0,0V1.75A1,1,0,0,1,13.75.75Z"/><rect class="cls-1" x="6.75" y="9.75" width="6" height="4.5"/><rect class="cls-1" x="17.216" y="5.244" width="4.5" height="18.013" rx="1.5" ry="1.5" transform="translate(-2.523 4.326) rotate(-11.915)"/><path class="cls-1" d="M18.75,5.25H.75v3a1.5,1.5,0,0,0,1.5,1.5H16.215"/></svg>