<svg id="Regular" xmlns="http://www.w3.org/2000/svg" viewBox="0 0 24 24"><defs><style>.cls-1{fill:none;stroke:currentColor;stroke-linecap:round;stroke-linejoin:round;stroke-width:1.5px;}</style></defs><title>board-game-deuce</title><rect class="cls-1" x="1.04" y="6.172" width="21.92" height="11.657" rx="1.5" ry="1.5" transform="translate(-4.971 12) rotate(-45)"/><line class="cls-1" x1="7.879" y1="7.879" x2="16.121" y2="16.121"/><path class="cls-1" d="M18.994,8.612a.374.374,0,0,1,0,.53"/><path class="cls-1" d="M18.464,8.612a.374.374,0,0,1,.53,0"/><path class="cls-1" d="M18.464,9.142a.375.375,0,0,1,0-.53"/><path class="cls-1" d="M18.994,9.142a.375.375,0,0,1-.53,0"/><path class="cls-1" d="M13.328,7.066a.377.377,0,0,1,0,.531"/><path class="cls-1" d="M12.8,7.066a.377.377,0,0,1,.531,0"/><path class="cls-1" d="M12.8,7.6a.377.377,0,0,1,0-.531"/><path class="cls-1" d="M13.328,7.6a.377.377,0,0,1-.531,0"/><path class="cls-1" d="M8.176,12.218a.375.375,0,0,1,0,.53"/><path class="cls-1" d="M7.646,12.218a.374.374,0,0,1,.53,0"/><path class="cls-1" d="M7.646,12.748a.374.374,0,0,1,0-.53"/><path class="cls-1" d="M8.176,12.748a.374.374,0,0,1-.53,0"/><path class="cls-1" d="M11.782,15.824a.374.374,0,0,1,0,.53"/><path class="cls-1" d="M11.252,15.824a.375.375,0,0,1,.53,0"/><path class="cls-1" d="M11.252,16.354a.374.374,0,0,1,0-.53"/><path class="cls-1" d="M11.782,16.354a.374.374,0,0,1-.53,0"/><path class="cls-1" d="M5.085,15.309a.375.375,0,0,1,0,.53"/><path class="cls-1" d="M4.555,15.309a.374.374,0,0,1,.53,0"/><path class="cls-1" d="M4.555,15.839a.374.374,0,0,1,0-.53"/><path class="cls-1" d="M5.085,15.839a.374.374,0,0,1-.53,0"/><path class="cls-1" d="M8.691,18.915a.374.374,0,0,1,0,.53"/><path class="cls-1" d="M8.161,18.915a.375.375,0,0,1,.53,0"/><path class="cls-1" d="M8.161,19.445a.374.374,0,0,1,0-.53"/><path class="cls-1" d="M8.691,19.445a.374.374,0,0,1-.53,0"/></svg>