<svg id="Regular" xmlns="http://www.w3.org/2000/svg" viewBox="0 0 24 24"><defs><style>.cls-1{fill:none;stroke:currentColor;stroke-linecap:round;stroke-linejoin:round;stroke-width:1.5px;}</style></defs><title>board-game-dice-1</title><polyline class="cls-1" points="8.525 3.86 15.75 6.75 22.975 3.86"/><path class="cls-1" d="M15.75,16.5a3.529,3.529,0,0,0,1.435-.3l5.174-2.3a1.5,1.5,0,0,0,.891-1.371v-7.8a1.5,1.5,0,0,0-.891-1.371l-5.174-2.3a3.528,3.528,0,0,0-2.87,0l-5.174,2.3A1.5,1.5,0,0,0,8.25,4.725V7.5"/><path class="cls-1" d="M8.25,10.136a.374.374,0,0,1,.375.375"/><path class="cls-1" d="M7.875,10.511a.374.374,0,0,1,.375-.375"/><path class="cls-1" d="M8.25,10.886a.375.375,0,0,1-.375-.375"/><path class="cls-1" d="M8.625,10.511a.375.375,0,0,1-.375.375"/><path class="cls-1" d="M12.978,14.569a.374.374,0,0,1,.375.375"/><path class="cls-1" d="M12.6,14.944a.374.374,0,0,1,.375-.375"/><path class="cls-1" d="M12.978,15.319a.375.375,0,0,1-.375-.375"/><path class="cls-1" d="M13.353,14.944a.375.375,0,0,1-.375.375"/><path class="cls-1" d="M5.625,19.342A.375.375,0,0,1,6,19.717"/><path class="cls-1" d="M5.25,19.717a.375.375,0,0,1,.375-.375"/><path class="cls-1" d="M5.625,20.092a.375.375,0,0,1-.375-.375"/><path class="cls-1" d="M6,19.717a.375.375,0,0,1-.375.375"/><path class="cls-1" d="M3,13.717a.375.375,0,0,1,.375.375"/><path class="cls-1" d="M2.625,14.092A.375.375,0,0,1,3,13.717"/><path class="cls-1" d="M3,14.467a.375.375,0,0,1-.375-.375"/><path class="cls-1" d="M3.375,14.092A.375.375,0,0,1,3,14.467"/><path class="cls-1" d="M4.181,16.346a.375.375,0,0,1,.315.427"/><path class="cls-1" d="M3.754,16.661a.376.376,0,0,1,.427-.315"/><path class="cls-1" d="M4.069,17.088a.376.376,0,0,1-.315-.427"/><path class="cls-1" d="M4.5,16.773a.375.375,0,0,1-.427.315"/><path class="cls-1" d="M11.364,18.429a.374.374,0,0,1,.375.375"/><path class="cls-1" d="M10.989,18.8a.374.374,0,0,1,.375-.375"/><path class="cls-1" d="M11.364,19.179a.375.375,0,0,1-.375-.375"/><path class="cls-1" d="M11.739,18.8a.375.375,0,0,1-.375.375"/><path class="cls-1" d="M15.75,3.228a.375.375,0,0,1,.375.375"/><path class="cls-1" d="M15.375,3.6a.375.375,0,0,1,.375-.375"/><path class="cls-1" d="M15.75,3.978a.375.375,0,0,1-.375-.375"/><path class="cls-1" d="M16.125,3.6a.375.375,0,0,1-.375.375"/><path class="cls-1" d="M20.625,7.543A.375.375,0,0,1,21,7.918"/><path class="cls-1" d="M20.25,7.918a.375.375,0,0,1,.375-.375"/><path class="cls-1" d="M20.625,8.293a.375.375,0,0,1-.375-.375"/><path class="cls-1" d="M21,7.918a.375.375,0,0,1-.375.375"/><path class="cls-1" d="M20.625,11.293a.375.375,0,0,1,.375.375"/><path class="cls-1" d="M20.25,11.668a.375.375,0,0,1,.375-.375"/><path class="cls-1" d="M20.625,12.043a.375.375,0,0,1-.375-.375"/><path class="cls-1" d="M21,11.668a.375.375,0,0,1-.375.375"/><line class="cls-1" x1="8.25" y1="13.5" x2="8.25" y2="23.25"/><polyline class="cls-1" points="1.025 10.61 8.25 13.5 15.475 10.61"/><path class="cls-1" d="M6.815,22.945a3.528,3.528,0,0,0,2.87,0l5.174-2.3a1.5,1.5,0,0,0,.891-1.371v-7.8a1.5,1.5,0,0,0-.891-1.371l-5.174-2.3a3.528,3.528,0,0,0-2.87,0L1.641,10.1A1.5,1.5,0,0,0,.75,11.475v7.8a1.5,1.5,0,0,0,.891,1.371Z"/></svg>