<svg id="Regular" xmlns="http://www.w3.org/2000/svg" viewBox="0 0 24 24"><defs><style>.cls-1{fill:none;stroke:currentColor;stroke-linecap:round;stroke-linejoin:round;stroke-width:1.5px;}</style></defs><title>body-care-cream</title><path class="cls-1" d="M1.25,11.6h21.5a.5.5,0,0,1,.5.5v8a2,2,0,0,1-2,2H2.75a2,2,0,0,1-2-2v-8A.5.5,0,0,1,1.25,11.6Z"/><path class="cls-1" d="M4.75,8.6h14.5a1,1,0,0,1,1,1v2a0,0,0,0,1,0,0H3.75a0,0,0,0,1,0,0v-2A1,1,0,0,1,4.75,8.6Z"/><path class="cls-1" d="M5.25,8.6c0-2.25,1.5-4.5,3.75-4.5h4.5A3.649,3.649,0,0,0,17,1.731a.745.745,0,0,1,1.286-.191c2.951,3.953.464,7.062.464,7.062"/><rect class="cls-1" x="5.25" y="14.602" width="13.5" height="4.5"/></svg>