<svg id="Regular" xmlns="http://www.w3.org/2000/svg" viewBox="0 0 24 24"><defs><style>.cls-1{fill:none;stroke:currentColor;stroke-linecap:round;stroke-linejoin:round;stroke-width:1.5px;}</style></defs><title>body-care-sun-lotion</title><line class="cls-1" x1="15.75" y1="0.749" x2="15.75" y2="2.249"/><line class="cls-1" x1="21.053" y1="2.946" x2="19.993" y2="4.007"/><line class="cls-1" x1="23.25" y1="8.249" x2="21.75" y2="8.249"/><line class="cls-1" x1="21.053" y1="13.553" x2="19.993" y2="12.492"/><line class="cls-1" x1="15.75" y1="15.749" x2="15.75" y2="14.249"/><rect class="cls-1" x="0.75" y="9.751" width="12" height="13.5" rx="3" ry="3"/><path class="cls-1" d="M.75,5.251l.621-.622a3,3,0,0,1,2.122-.878H10.5"/><path class="cls-1" d="M9.75,9.751h-6v-1.5a1.5,1.5,0,0,1,1.5-1.5h3a1.5,1.5,0,0,1,1.5,1.5Z"/><line class="cls-1" x1="6.75" y1="6.751" x2="6.75" y2="3.751"/><path class="cls-1" d="M12.75,6a3.75,3.75,0,1,1,3,6"/></svg>