<svg id="Regular" xmlns="http://www.w3.org/2000/svg" viewBox="0 0 24 24"><defs><style>.cls-1{fill:none;stroke:currentColor;stroke-linecap:round;stroke-linejoin:round;stroke-width:1.5px;}</style></defs><title>body-care-soap</title><path class="cls-1" d="M11.227,20.25h-4.5a3,3,0,0,1-3-3V9.75a3,3,0,0,1,3-3h6a3,3,0,0,1,3,3v.75"/><path class="cls-1" d="M3.727,2.25l.622-.621A3,3,0,0,1,6.47.75h7.007"/><path class="cls-1" d="M12.727,6.75h-6V5.25a1.5,1.5,0,0,1,1.5-1.5h3a1.5,1.5,0,0,1,1.5,1.5Z"/><line class="cls-1" x1="9.727" y1="3.75" x2="9.727" y2="0.75"/><path class="cls-1" d="M21.727,19.544a3.75,3.75,0,0,1-7.5,0c0-2.47,3.125-6.794,3.75-6.794S21.727,17.074,21.727,19.544Z"/></svg>