<svg id="Regular" xmlns="http://www.w3.org/2000/svg" viewBox="0 0 24 24"><defs><style>.cls-1{fill:none;stroke:currentColor;stroke-linecap:round;stroke-linejoin:round;stroke-width:1.5px;}</style></defs><title>body-care-toothbrush-paste</title><path class="cls-1" d="M11,20.25H3.5v1.5A1.5,1.5,0,0,0,5,23.25H9.5a1.5,1.5,0,0,0,1.5-1.5Z"/><path class="cls-1" d="M11,20.25H3.5L.768,2.478A1.5,1.5,0,0,1,2.25.75h10a1.5,1.5,0,0,1,1.482,1.728Z"/><line class="cls-1" x1="1.194" y1="5.25" x2="13.31" y2="5.25"/><path class="cls-1" d="M20,21.75a1.5,1.5,0,0,0,3,0V2.25a1.5,1.5,0,0,0-3,0Z"/><line class="cls-1" x1="15.502" y1="20.25" x2="20.002" y2="20.25"/><line class="cls-1" x1="15.502" y1="17.25" x2="20.002" y2="17.25"/><line class="cls-1" x1="15.502" y1="14.25" x2="20.002" y2="14.25"/></svg>