<svg id="Regular" xmlns="http://www.w3.org/2000/svg" viewBox="0 0 24 24"><defs><style>.cls-1{fill:none;stroke:currentColor;stroke-linecap:round;stroke-linejoin:round;stroke-width:1.5px;}</style></defs><title>body-care-lotion</title><path class="cls-1" d="M12.75,18.6h-9a3,3,0,0,1-3-3v-3.75a.75.75,0,0,1,.75-.75H15"/><path class="cls-1" d="M3,11.1V9.6A1.5,1.5,0,0,1,4.5,8.1h12A1.5,1.5,0,0,1,18,9.6v.75"/><path class="cls-1" d="M4.5,8.1c0-2.25,1.5-4.5,3.75-4.5h3a3.649,3.649,0,0,0,3.5-2.371.745.745,0,0,1,1.286-.191C18.987,4.993,16.5,8.1,16.5,8.1"/><path class="cls-1" d="M23.25,19.4a3.75,3.75,0,0,1-7.5,0c0-2.471,3.125-6.794,3.75-6.794S23.25,16.925,23.25,19.4Z"/></svg>