<svg id="Regular" xmlns="http://www.w3.org/2000/svg" viewBox="0 0 24 24"><defs><style>.cls-1{fill:none;stroke:currentColor;stroke-linecap:round;stroke-linejoin:round;stroke-width:1.5px;}</style></defs><title>body-care-sun-cream</title><path class="cls-1" d="M9.75,20.25h-6a108.391,108.391,0,0,1-3-18.714A.751.751,0,0,1,1.5.75H12a.752.752,0,0,1,.749.786A108.391,108.391,0,0,1,9.75,20.25Z"/><path class="cls-1" d="M9.75,20.25V22.5a.75.75,0,0,1-.75.75H4.5a.75.75,0,0,1-.75-.75V20.25"/><line class="cls-1" x1="1.219" y1="6.75" x2="12.282" y2="6.75"/><line class="cls-1" x1="2.019" y1="12" x2="11.481" y2="12"/><path class="cls-1" d="M15.75,4.5a3.75,3.75,0,1,1-1.5,7.19"/><line class="cls-1" x1="15.75" y1="0.75" x2="15.75" y2="2.25"/><line class="cls-1" x1="21.053" y1="2.947" x2="19.993" y2="4.007"/><line class="cls-1" x1="23.25" y1="8.25" x2="21.75" y2="8.25"/><line class="cls-1" x1="21.053" y1="13.553" x2="19.993" y2="12.493"/><line class="cls-1" x1="15.75" y1="15.75" x2="15.75" y2="14.25"/></svg>