<svg id="Regular" xmlns="http://www.w3.org/2000/svg" viewBox="0 0 24 24"><defs><style>.cls-1{fill:none;stroke:currentColor;stroke-linecap:round;stroke-linejoin:round;stroke-width:1.5px;}</style></defs><title>body-care-toothbrush</title><path class="cls-1" d="M.75,22.842,10.838,12.609a1.686,1.686,0,0,1,1.192-.494h2.179a1.686,1.686,0,0,0,1.192-.493l7.849-7.85"/><path class="cls-1" d="M15.612,2.436h5.742a.5.5,0,0,1,.5.5V7.493a0,0,0,0,1,0,0H15.112a0,0,0,0,1,0,0V2.936a.5.5,0,0,1,.5-.5Z" transform="translate(1.903 14.523) rotate(-45)"/><line class="cls-1" x1="16.812" y1="3.06" x2="18.605" y2="4.854"/></svg>