<svg id="Regular" xmlns="http://www.w3.org/2000/svg" viewBox="0 0 24 24"><defs><style>.cls-1{fill:none;stroke:currentColor;stroke-linecap:round;stroke-linejoin:round;stroke-width:1.5px;}</style></defs><title>body-care-snail</title><path class="cls-1" d="M7.057,19.9A5.81,5.81,0,0,1,12.288,11.6c7.438,0,7.729,11.558.466,9.371A3.379,3.379,0,0,1,10.428,16.8,2.621,2.621,0,0,1,12,15.116"/><path class="cls-1" d="M17.4,19.7A7.882,7.882,0,0,1,23.25,23.25H7.067c-4.041,0-3.991-2.822-6.317-10.5a3,3,0,0,1,3-3h0a3,3,0,0,1,2.6,1.507"/><line class="cls-1" x1="15.75" y1="4.5" x2="23.25" y2="4.5"/><line class="cls-1" x1="19.5" y1="0.75" x2="19.5" y2="8.25"/><line class="cls-1" x1="9" y1="6.75" x2="13.5" y2="6.75"/><line class="cls-1" x1="11.25" y1="4.5" x2="11.25" y2="9"/><path class="cls-1" d="M3.75,9.75a3,3,0,0,0-3-3"/></svg>