<svg xmlns="http://www.w3.org/2000/svg" viewBox="0 0 24 24"><defs><style>.a{fill:none;stroke:currentColor;stroke-linecap:round;stroke-linejoin:round;stroke-width:1.5px;}</style></defs><title>bomb-grenade</title><path class="a" d="M15.773,22.75A1.455,1.455,0,0,0,17.01,22.1,11.788,11.788,0,0,0,19,15.25,11.788,11.788,0,0,0,17.01,8.4a1.455,1.455,0,0,0-1.237-.648H8.727A1.455,1.455,0,0,0,7.49,8.4,11.788,11.788,0,0,0,5.5,15.25,11.788,11.788,0,0,0,7.49,22.1a1.455,1.455,0,0,0,1.237.648Z"/><rect class="a" x="10" y="3.25" width="4.5" height="4.5"/><path class="a" d="M1.75,15.249c0-8.25,4.5-12,4.5-12H17.5"/><circle class="a" cx="19.75" cy="3.25" r="2.25"/><line class="a" x1="5.815" y1="12.25" x2="18.685" y2="12.25"/><line class="a" x1="5.815" y1="18.25" x2="18.685" y2="18.25"/></svg>