<svg xmlns="http://www.w3.org/2000/svg" viewBox="0 0 24 24"><defs><style>.a{fill:none;stroke:currentColor;stroke-linecap:round;stroke-linejoin:round;stroke-width:1.5px;}</style></defs><title>bomb-fire-bottle</title><path class="a" d="M21,10.421a3.525,3.525,0,0,0,2.243-3.2A5.669,5.669,0,0,0,19.029,1.25a3.742,3.742,0,0,1,.379,4.263,1.332,1.332,0,0,1-1.421-1.137,2.493,2.493,0,0,0-1.258,1.338"/><path class="a" d="M15.335,12.894l2.888-2.023L16.768,8.793l-2.889,2.024a3.17,3.17,0,0,1-2.8.416h0a3.168,3.168,0,0,0-2.8.417L1.291,16.538A1.269,1.269,0,0,0,.98,18.305l2.91,4.154a1.267,1.267,0,0,0,1.766.311l6.979-4.888a3.175,3.175,0,0,0,1.35-2.494h0A3.169,3.169,0,0,1,15.335,12.894Z"/><rect class="a" x="3.824" y="14.208" width="7.609" height="5.073" transform="translate(16.966 0.89) rotate(54.99)"/></svg>