<svg xmlns="http://www.w3.org/2000/svg" viewBox="0 0 24 24"><defs><style>.a{fill:none;stroke:currentColor;stroke-linecap:round;stroke-linejoin:round;stroke-width:1.5px;}</style></defs><title>bomb-rocket-1</title><path class="a" d="M13.5,3.75h-3a3,3,0,0,0-3,3V17.636a4.5,4.5,0,0,0,1.318,3.182L12,23.25l3.182-2.432A4.5,4.5,0,0,0,16.5,17.636V6.75A3,3,0,0,0,13.5,3.75Z"/><path class="a" d="M8,19.688A11.829,11.829,0,0,1,12,18.75a11.829,11.829,0,0,1,4,.938"/><path class="a" d="M7.5,7.5V2.25L4.029.8A.75.75,0,0,0,3,1.5V5.135a.751.751,0,0,0,.471.7Z"/><path class="a" d="M16.5,7.5V2.25L19.971.8A.75.75,0,0,1,21,1.5V5.135a.751.751,0,0,1-.471.7Z"/><line class="a" x1="12" y1="8.25" x2="12" y2="0.75"/></svg>