<svg xmlns="http://www.w3.org/2000/svg" viewBox="0 0 24 24"><defs><style>.a{fill:none;stroke:currentColor;stroke-linecap:round;stroke-linejoin:round;stroke-width:1.5px;}</style></defs><title>bomb-rocket</title><path class="a" d="M19.093,3.768,9.95,8.335a20.325,20.325,0,0,0-5.278,3.8L2.348,14.457a5.194,5.194,0,0,0-.776,6.529,5.086,5.086,0,0,0,7.824.778l2.457-2.454a20.3,20.3,0,0,0,3.8-5.273L20.229,4.9A.846.846,0,0,0,19.093,3.768Z"/><line class="a" x1="5.207" y1="11.601" x2="12.388" y2="18.775"/><line class="a" x1="2.215" y1="14.59" x2="9.396" y2="21.764"/><path class="a" d="M19.653,6.054l3.018,1a.846.846,0,0,1,.421,1.294l-1.9,2.665a1.7,1.7,0,0,1-1.138.691l-3.472.495"/><path class="a" d="M17.957,4.336,16.939,1.329A.846.846,0,0,0,15.645.908l-2.668,1.9a1.692,1.692,0,0,0-.691,1.137l-.5,3.468"/></svg>