<svg xmlns="http://www.w3.org/2000/svg" viewBox="0 0 24 24"><defs><style>.a{fill:none;stroke:currentColor;stroke-linecap:round;stroke-linejoin:round;stroke-width:1.5px;}</style></defs><title>bomb-explosive-belt</title><ellipse class="a" cx="5.75" cy="5.25" rx="3" ry="2.25"/><path class="a" d="M20.75,14.25c0,1.243-1.343,2.25-3,2.25h-12c-1.657,0-3-1.007-3-2.25"/><path class="a" d="M20.75,10.5c0,1.243-1.343,2.25-3,2.25h-12c-1.657,0-3-1.007-3-2.25"/><ellipse class="a" cx="11.75" cy="5.25" rx="3" ry="2.25"/><ellipse class="a" cx="17.75" cy="5.25" rx="3" ry="2.25"/><line class="a" x1="5.75" y1="4.5" x2="5.75" y2="0.75"/><line class="a" x1="11.75" y1="4.5" x2="11.75" y2="0.75"/><line class="a" x1="17.75" y1="4.5" x2="17.75" y2="0.75"/><path class="a" d="M2.75,5.25V21c0,1.243,1.343,2.25,3,2.25s3-1.007,3-2.25c0,1.243,1.343,2.25,3,2.25s3-1.007,3-2.25c0,1.243,1.343,2.25,3,2.25s3-1.007,3-2.25V5.25"/><line class="a" x1="8.75" y1="5.25" x2="8.75" y2="12.75"/><line class="a" x1="8.75" y1="16.5" x2="8.75" y2="21"/><line class="a" x1="14.75" y1="21" x2="14.75" y2="16.5"/><line class="a" x1="14.75" y1="12.75" x2="14.75" y2="6"/></svg>