<svg id="Regular" xmlns="http://www.w3.org/2000/svg" viewBox="0 0 24 24"><defs><style>.cls-1{fill:none;stroke:currentColor;stroke-linecap:round;stroke-linejoin:round;stroke-width:1.5px;}</style></defs><title>bowling-set</title><path class="cls-1" d="M8.25,8.25V3a2.25,2.25,0,0,0-4.5,0V8.25a11.476,11.476,0,0,0-3,7.5,11.418,11.418,0,0,0,2.509,6.933,1.5,1.5,0,0,0,1.175.567H7.566a1.5,1.5,0,0,0,1.175-.567A11.418,11.418,0,0,0,11.25,15.75,11.476,11.476,0,0,0,8.25,8.25Z"/><path class="cls-1" d="M12.461,22.492a7.5,7.5,0,1,0,0-13.486"/><line class="cls-1" x1="3.75" y1="8.25" x2="8.25" y2="8.25"/><line class="cls-1" x1="8.25" y1="5.25" x2="3.75" y2="5.25"/><path class="cls-1" d="M16.125,15a.375.375,0,0,1,.375.375"/><path class="cls-1" d="M15.75,15.375A.375.375,0,0,1,16.125,15"/><path class="cls-1" d="M16.125,15.75a.375.375,0,0,1-.375-.375"/><path class="cls-1" d="M16.5,15.375a.375.375,0,0,1-.375.375"/><path class="cls-1" d="M19.875,14.25a.375.375,0,0,1,.375.375"/><path class="cls-1" d="M19.5,14.625a.375.375,0,0,1,.375-.375"/><path class="cls-1" d="M19.875,15a.375.375,0,0,1-.375-.375"/><path class="cls-1" d="M20.25,14.625a.375.375,0,0,1-.375.375"/><path class="cls-1" d="M16.875,11.25a.375.375,0,0,1,.375.375"/><path class="cls-1" d="M16.5,11.625a.375.375,0,0,1,.375-.375"/><path class="cls-1" d="M16.875,12a.375.375,0,0,1-.375-.375"/><path class="cls-1" d="M17.25,11.625a.375.375,0,0,1-.375.375"/></svg>