<svg id="Regular" xmlns="http://www.w3.org/2000/svg" viewBox="0 0 24 24"><defs><style>.cls-1{fill:none;stroke:currentColor;stroke-linecap:round;stroke-linejoin:round;stroke-width:1.5px;}</style></defs><title>bowling-player</title><path class="cls-1" d="M22.5,15.75c0,.828-.672,2.25-1.5,2.25s-1.5-1.422-1.5-2.25a1.5,1.5,0,0,1,3,0Z"/><path class="cls-1" d="M21.732,17.628A9.524,9.524,0,0,1,23.25,21a2.25,2.25,0,0,1-4.5,0,9.524,9.524,0,0,1,1.518-3.372"/><circle class="cls-1" cx="13.5" cy="3.375" r="2.625"/><path class="cls-1" d="M18.725,10.625,8.738,6.268a4.459,4.459,0,0,0-4.683.668L2.9,7.9A1.5,1.5,0,1,0,4.824,10.2l1.154-.964a1.48,1.48,0,0,1,1.559-.221L9.3,9.787,6.923,14.3a1.5,1.5,0,0,0-.173.7v3.75l-2.4,1.8a1.5,1.5,0,1,0,1.8,2.4l3-2.25a1.5,1.5,0,0,0,.6-1.2V16.917l2.524,1.306.489,3.722a1.5,1.5,0,0,0,1.486,1.3,1.455,1.455,0,0,0,.2-.013,1.5,1.5,0,0,0,1.292-1.682l-.488-3.719a3,3,0,0,0-1.6-2.279l-3.143-1.626,1.549-2.941,5.467,2.385a1.5,1.5,0,1,0,1.2-2.75Z"/><path class="cls-1" d="M5.135,13.462A2.254,2.254,0,0,1,.86,12.034"/></svg>