<svg id="Regular" xmlns="http://www.w3.org/2000/svg" viewBox="0 0 24 24"><defs><style>.cls-1{fill:none;stroke:currentColor;stroke-linecap:round;stroke-linejoin:round;stroke-width:1.5px;}</style></defs><title>boxing-head-guard</title><path class="cls-1" d="M12,23.25c5.25,0,11.25,0,11.25-5.25V7.5C23.25,3,17.385.75,12,.75S.75,3,.75,7.5V18C.75,23.25,6.75,23.25,12,23.25Z"/><path class="cls-1" d="M18,8.25a2.251,2.251,0,0,1,2.25,2.25A2.8,2.8,0,0,1,19,12.832,2.966,2.966,0,0,0,17.4,15.163a2.861,2.861,0,0,0,.825,2.307,1.811,1.811,0,0,1,.53,1.28,1.5,1.5,0,0,1-1.5,1.5H6.75a1.5,1.5,0,0,1-1.5-1.5,1.811,1.811,0,0,1,.53-1.28,2.861,2.861,0,0,0,.825-2.307A2.966,2.966,0,0,0,5,12.832,2.8,2.8,0,0,1,3.75,10.5,2.251,2.251,0,0,1,6,8.25Z"/><line class="cls-1" x1="9.75" y1="5.25" x2="14.25" y2="5.25"/><line class="cls-1" x1="11.25" y1="17.25" x2="12.75" y2="17.25"/><path class="cls-1" d="M8.625,10.875A.375.375,0,0,1,9,11.25"/><path class="cls-1" d="M8.25,11.25a.375.375,0,0,1,.375-.375"/><path class="cls-1" d="M8.625,11.625a.375.375,0,0,1-.375-.375"/><path class="cls-1" d="M9,11.25a.375.375,0,0,1-.375.375"/><path class="cls-1" d="M15.375,10.875A.375.375,0,0,0,15,11.25"/><path class="cls-1" d="M15.75,11.25a.375.375,0,0,0-.375-.375"/><path class="cls-1" d="M15.375,11.625a.375.375,0,0,0,.375-.375"/><path class="cls-1" d="M15,11.25a.375.375,0,0,0,.375.375"/></svg>