<svg id="Regular" xmlns="http://www.w3.org/2000/svg" viewBox="0 0 24 24"><defs><style>.cls-1{fill:none;stroke:currentColor;stroke-linecap:round;stroke-linejoin:round;stroke-width:1.5px;}</style></defs><title>boxing-glove</title><path class="cls-1" d="M9.75.75a4.5,4.5,0,0,0-4.5,4.5V9A2.25,2.25,0,0,0,.75,9v3.75a4.5,4.5,0,0,0,4.5,4.5v4.5a1.5,1.5,0,0,0,1.5,1.5h12a1.5,1.5,0,0,0,1.5-1.5v-4.5c0-2.25,3-3,3-6V6.75a6,6,0,0,0-6-6Z"/><path class="cls-1" d="M17.25,9.75a3,3,0,0,1-3,3H7.5A2.25,2.25,0,0,1,5.25,10.5V9"/><path class="cls-1" d="M11.25,18.75a1.5,1.5,0,0,1-1.5,1.5H5.25v-3h4.5A1.5,1.5,0,0,1,11.25,18.75Z"/></svg>