<svg id="Regular" xmlns="http://www.w3.org/2000/svg" viewBox="0 0 24 24"><defs><style>.cls-1{fill:none;stroke:currentColor;stroke-linecap:round;stroke-linejoin:round;stroke-width:1.5px;}</style></defs><title>boxing-boxer</title><circle class="cls-1" cx="11.5" cy="3.375" r="2.625"/><path class="cls-1" d="M18.25,7.5h-9a1.5,1.5,0,0,0-1.415,1l-4.5,12.75a1.5,1.5,0,0,0,.915,1.915,1.536,1.536,0,0,0,.5.085,1.5,1.5,0,0,0,1.415-1l1.811-5.133,2.138,1.106.489,3.722a1.5,1.5,0,0,0,1.486,1.3,1.455,1.455,0,0,0,.2-.013,1.5,1.5,0,0,0,1.292-1.682l-.488-3.719a3,3,0,0,0-1.6-2.279l-2.507-1.3,1.326-3.76h5.827a2.246,2.246,0,1,0,2.112-3Z"/><line class="cls-1" x1="15.25" y1="7.5" x2="15.25" y2="10.5"/></svg>