<svg id="Regular" xmlns="http://www.w3.org/2000/svg" viewBox="0 0 24 24"><defs><style>.cls-1{fill:none;stroke:currentColor;stroke-linecap:round;stroke-linejoin:round;stroke-width:1.5px;}</style></defs><title>boxing-boxer-bag</title><path class="cls-1" d="M17.25,8.073V3.75a1.5,1.5,0,0,1,1.5-1.5h3a1.5,1.5,0,0,1,1.5,1.5V15a1.5,1.5,0,0,1-1.5,1.5h-3a1.5,1.5,0,0,1-1.5-1.48V11.427"/><line class="cls-1" x1="20.25" y1="0.75" x2="20.25" y2="2.25"/><line class="cls-1" x1="17.25" y1="5.25" x2="23.25" y2="5.25"/><line class="cls-1" x1="17.25" y1="13.5" x2="23.25" y2="13.5"/><circle class="cls-1" cx="9" cy="3.375" r="2.625"/><path class="cls-1" d="M15.75,7.5h-9a1.5,1.5,0,0,0-1.415,1L.836,21.25a1.5,1.5,0,0,0,.915,1.915,1.536,1.536,0,0,0,.5.085,1.5,1.5,0,0,0,1.415-1l1.811-5.133,2.138,1.106L8.1,21.945a1.5,1.5,0,0,0,1.486,1.3,1.455,1.455,0,0,0,.2-.013,1.5,1.5,0,0,0,1.292-1.682l-.488-3.719a3,3,0,0,0-1.6-2.279l-2.507-1.3L7.811,10.5h5.827a2.246,2.246,0,1,0,2.112-3Z"/><line class="cls-1" x1="12.75" y1="7.5" x2="12.75" y2="10.5"/></svg>