<svg xmlns="http://www.w3.org/2000/svg" viewBox="0 0 24 24"><defs><style>.a{fill:none;stroke:currentColor;stroke-linecap:round;stroke-linejoin:round;stroke-width:1.5px;}</style></defs><title>brain</title><path class="a" d="M22.8,12a2.808,2.808,0,0,1-2.614,2.8,3.493,3.493,0,0,1-3.095,5.622,1.874,1.874,0,1,1-3.677.592,2.819,2.819,0,0,1-2.82,0,1.874,1.874,0,1,1-3.677-.592A3.493,3.493,0,0,1,3.818,14.8a2.8,2.8,0,0,1,0-5.592,3.493,3.493,0,0,1,3.1-5.622A1.874,1.874,0,1,1,10.59,2.99a2.819,2.819,0,0,1,2.82,0,1.874,1.874,0,1,1,3.677.592A3.493,3.493,0,0,1,20.182,9.2,2.808,2.808,0,0,1,22.8,12Z"/><line class="a" x1="12" y1="13.597" x2="12" y2="14.536"/><line class="a" x1="12" y1="9.278" x2="12" y2="10.217"/><line class="a" x1="12" y1="4.959" x2="12" y2="5.898"/><line class="a" x1="12" y1="17.916" x2="12" y2="18.855"/><circle class="a" cx="8.01" cy="8.339" r="1.408"/><circle class="a" cx="16.224" cy="8.245" r="1.408"/><circle class="a" cx="7.306" cy="16.694" r="1.408"/><circle class="a" cx="16.342" cy="14.816" r="1.408"/><path class="a" d="M6.133,11.625h.938a.938.938,0,0,0,.939-.939V9.747"/></svg>