<svg id="Regular" xmlns="http://www.w3.org/2000/svg" viewBox="0 0 24 24"><defs><style>.cls-1{fill:none;stroke:currentColor;stroke-linecap:round;stroke-linejoin:round;stroke-width:1.5px;}</style></defs><title>brain-open-skill</title><path class="cls-1" d="M17.25,23.25V21.559c3.073-2.211,2.671-4.309,3.75-4.309,1.243,0,2.25-1.343,2.25-3a3.77,3.77,0,0,0-.3-1.5H1.052a3.77,3.77,0,0,0-.3,1.5c0,1.657,1.007,3,2.25,3,1.079,0,.653,2.081,3.75,4.309V23.25"/><path class="cls-1" d="M21.75,9.75A3.744,3.744,0,0,0,20.183,6.7,3.689,3.689,0,0,0,20.25,6a3.751,3.751,0,0,0-5.082-3.506,3.749,3.749,0,0,0-6.336,0A3.751,3.751,0,0,0,3.75,6a3.689,3.689,0,0,0,.067.7A3.744,3.744,0,0,0,2.25,9.75"/><line class="cls-1" x1="6.75" y1="7.5" x2="9" y2="8.25"/><line class="cls-1" x1="14.25" y1="6.75" x2="15.75" y2="6"/></svg>