<svg xmlns="http://www.w3.org/2000/svg" viewBox="0 0 24 24"><defs><style>.a{fill:none;stroke:currentColor;stroke-linecap:round;stroke-linejoin:round;stroke-width:1.5px;}</style></defs><title>brain-chip</title><path class="a" d="M23.25,12a3,3,0,0,0-2.183-2.886,2.249,2.249,0,0,0-1.383-3.856,2.29,2.29,0,0,0-.411-.363,3,3,0,0,0-5.461-2.478,2.249,2.249,0,0,0-3.624,0A3,3,0,0,0,4.727,4.895a2.29,2.29,0,0,0-.411.363A2.249,2.249,0,0,0,2.933,9.114a3,3,0,0,0,0,5.773,2.248,2.248,0,0,0,1.383,3.855,2.29,2.29,0,0,0,.411.363,3,3,0,0,0,5.461,2.478,2.249,2.249,0,0,0,3.624,0,3,3,0,0,0,5.461-2.478,2.29,2.29,0,0,0,.411-.363,2.248,2.248,0,0,0,1.383-3.855A3,3,0,0,0,23.25,12Z"/><rect class="a" x="7.5" y="7.5" width="9" height="9" rx="1.5" ry="1.5"/><line class="a" x1="9.75" y1="7.5" x2="9.75" y2="6"/><line class="a" x1="14.25" y1="7.5" x2="14.25" y2="6"/><line class="a" x1="9.75" y1="18" x2="9.75" y2="16.5"/><line class="a" x1="14.25" y1="18" x2="14.25" y2="16.5"/><line class="a" x1="16.5" y1="9.75" x2="18" y2="9.75"/><line class="a" x1="16.5" y1="14.25" x2="18" y2="14.25"/><line class="a" x1="6" y1="9.75" x2="7.5" y2="9.75"/><line class="a" x1="6" y1="14.25" x2="7.5" y2="14.25"/><rect class="a" x="10.5" y="10.5" width="3" height="3"/></svg>