<svg id="Regular" xmlns="http://www.w3.org/2000/svg" viewBox="0 0 24 24"><defs><style>.cls-1{fill:none;stroke:currentColor;stroke-linecap:round;stroke-linejoin:round;stroke-width:1.5px;}</style></defs><title>brain-network</title><path class="cls-1" d="M8.75,23.25v-3H7.25a3,3,0,0,1-3-3v-3H2.35a.75.75,0,0,1-.7-1.02C2.322,11.488,2.923,9.8,3.576,8.25"/><path class="cls-1" d="M22.062,8.25a9.362,9.362,0,0,1-2.812,8.735V23.25"/><circle class="cls-1" cx="12.5" cy="10.5" r="2.25"/><circle class="cls-1" cx="17.75" cy="6.75" r="1.5"/><circle class="cls-1" cx="7.25" cy="6.75" r="1.5"/><line class="cls-1" x1="12.5" y1="8.25" x2="12.5" y2="0.75"/><path class="cls-1" d="M7.25,5.25a3,3,0,0,1,3-3h4.5a3,3,0,0,1,3,3"/></svg>