<svg xmlns="http://www.w3.org/2000/svg" viewBox="0 0 24 24"><defs><style>.a{fill:none;stroke:currentColor;stroke-linecap:round;stroke-linejoin:round;stroke-width:1.5px;}</style></defs><title>brain-lightning</title><path class="a" d="M23.251,12a3,3,0,0,0-2.183-2.886,2.249,2.249,0,0,0-1.383-3.856,2.262,2.262,0,0,0-.412-.363,3,3,0,0,0-5.46-2.478,2.25,2.25,0,0,0-3.625,0,3,3,0,0,0-5.46,2.478,2.223,2.223,0,0,0-.411.363A2.25,2.25,0,0,0,2.933,9.114a3,3,0,0,0,0,5.773,2.249,2.249,0,0,0,1.384,3.855,2.29,2.29,0,0,0,.411.363,3,3,0,0,0,5.46,2.478,2.25,2.25,0,0,0,3.625,0,3,3,0,0,0,5.46-2.478,2.223,2.223,0,0,0,.411-.363,2.248,2.248,0,0,0,1.384-3.855A3,3,0,0,0,23.251,12Z"/><path class="a" d="M13.5,5.25,7.59,12.132a.375.375,0,0,0,.286.618H10.5v6l5.91-6.882a.375.375,0,0,0-.285-.618H13.5Z"/></svg>