<svg xmlns="http://www.w3.org/2000/svg" viewBox="0 0 24 24"><defs><style>.a{fill:none;stroke:currentColor;stroke-linecap:round;stroke-linejoin:round;stroke-width:1.5px;}</style></defs><title>brain-1</title><path class="a" d="M23.25,12a3,3,0,0,0-2.183-2.886,2.249,2.249,0,0,0-1.383-3.856,2.29,2.29,0,0,0-.411-.363,3,3,0,0,0-5.461-2.478,2.249,2.249,0,0,0-3.624,0A3,3,0,0,0,4.727,4.895a2.29,2.29,0,0,0-.411.363A2.249,2.249,0,0,0,2.933,9.114a3,3,0,0,0,0,5.773,2.248,2.248,0,0,0,1.383,3.855,2.29,2.29,0,0,0,.411.363,3,3,0,0,0,5.461,2.478,2.249,2.249,0,0,0,3.624,0,3,3,0,0,0,5.461-2.478,2.29,2.29,0,0,0,.411-.363,2.248,2.248,0,0,0,1.383-3.855A3,3,0,0,0,23.25,12Z"/><line class="a" x1="12" y1="22.5" x2="12" y2="8.25"/><circle class="a" cx="12" cy="6.75" r="1.5"/><polyline class="a" points="9 18.75 9 15.75 6.75 14.25 6.75 12"/><circle class="a" cx="6.75" cy="10.5" r="1.5"/><polyline class="a" points="15 18.75 15 15.75 17.25 14.25 17.25 12"/><circle class="a" cx="17.25" cy="10.5" r="1.5"/></svg>