<svg id="Regular" xmlns="http://www.w3.org/2000/svg" viewBox="0 0 24 24"><defs><style>.cls-1{fill:none;stroke:currentColor;stroke-linecap:round;stroke-linejoin:round;stroke-width:1.5px;}</style></defs><title>bread-gluten-free</title><line class="cls-1" x1="18" y1="18.37" x2="16.409" y2="16.779"/><path class="cls-1" d="M13.333,18.31a1.383,1.383,0,0,0,1.349-1.637,1.385,1.385,0,0,0-1.638-1.349c-1.03.1-2.921.957-2.841,1.782S12.3,18.41,13.333,18.31Z"/><path class="cls-1" d="M9.581,14.559a1.383,1.383,0,0,0,1.349-1.637,1.382,1.382,0,0,0-1.637-1.349c-1.031.1-2.922.957-2.842,1.781S8.551,14.658,9.581,14.559Z"/><path class="cls-1" d="M17.94,13.7A1.383,1.383,0,0,1,16.3,15.052a1.385,1.385,0,0,1-1.349-1.638c.1-1.03.957-2.921,1.782-2.842S18.04,12.672,17.94,13.7Z"/><path class="cls-1" d="M14.189,9.951A1.383,1.383,0,0,1,12.552,11.3,1.382,1.382,0,0,1,11.2,9.663c.1-1.031.957-2.922,1.781-2.842S14.289,8.92,14.189,9.951Z"/><path class="cls-1" d="M8.984,7.233a1.382,1.382,0,0,1,0,2.121,1.382,1.382,0,0,1-2.121,0c-.732-.732-1.646-2.6-1.061-3.182S8.252,6.5,8.984,7.233Z"/><circle class="cls-1" cx="12" cy="11.986" r="11.25"/><line class="cls-1" x1="19.955" y1="4.031" x2="17.25" y2="6.736"/><line class="cls-1" x1="4.046" y1="19.939" x2="6.75" y2="17.236"/></svg>