<svg id="Regular" xmlns="http://www.w3.org/2000/svg" viewBox="0 0 24 24"><defs><style>.cls-1{fill:none;stroke:currentColor;stroke-linecap:round;stroke-linejoin:round;stroke-width:1.5px;}</style></defs><title>breakfast-cereal</title><path class="cls-1" d="M22.5,12v2.3a8.946,8.946,0,0,1-8.946,8.946H10.446A8.946,8.946,0,0,1,1.5,14.3V12"/><path class="cls-1" d="M19.828,9.011C21.468,9.805,22.5,10.857,22.5,12c0,2.485-4.7,4.5-10.5,4.5S1.5,14.485,1.5,12c0-2.645,5.324-4.757,11.629-4.475"/><path class="cls-1" d="M19.549,10.915a.751.751,0,0,1-.361.537,4.732,4.732,0,0,1-3.556.394.751.751,0,0,1-.559-.984l3.245-9.249A1.294,1.294,0,0,1,19.844.787h0a1.293,1.293,0,0,1,.974,1.436Z"/><path class="cls-1" d="M8.839,12a1.868,1.868,0,0,0-3.428,0"/><path class="cls-1" d="M14.25,14.25a1.5,1.5,0,0,0-1.339-1.125,1.5,1.5,0,0,0-1.339,1.125"/></svg>