<svg xmlns="http://www.w3.org/2000/svg" viewBox="0 0 24 24"><defs><style>.a{fill:none;stroke:currentColor;stroke-linecap:round;stroke-linejoin:round;stroke-width:1.5px;}</style></defs><title>breakup-heart-skull</title><path class="a" d="M7.379,15,2.3,9.75A5.207,5.207,0,0,1,1.309,3.7h0a5.322,5.322,0,0,1,8.48-1.362L11.25,3.781l1.462-1.447A5.321,5.321,0,0,1,21.191,3.7h0a5.2,5.2,0,0,1-.272,5.167"/><line class="a" x1="15.699" y1="21" x2="15.699" y2="23.25"/><line class="a" x1="18.699" y1="21" x2="18.699" y2="23.25"/><path class="a" d="M19.074,17.25a.375.375,0,0,1,.375.375"/><path class="a" d="M18.7,17.625a.375.375,0,0,1,.375-.375"/><path class="a" d="M19.074,18a.375.375,0,0,1-.375-.375"/><path class="a" d="M19.449,17.625a.375.375,0,0,1-.375.375"/><path class="a" d="M15.324,17.25a.375.375,0,0,1,.375.375"/><path class="a" d="M14.949,17.625a.375.375,0,0,1,.375-.375"/><path class="a" d="M15.324,18a.375.375,0,0,1-.375-.375"/><path class="a" d="M15.7,17.625a.375.375,0,0,1-.375.375"/><path class="a" d="M12.7,23.25V21l-.128-.22A5.23,5.23,0,0,1,11.2,17.25h0a5.225,5.225,0,0,1,5.25-5.2h1.5a5.225,5.225,0,0,1,5.25,5.2h0a5.229,5.229,0,0,1-1.32,3.472L21.7,21v2.25"/></svg>