<svg id="Regular" xmlns="http://www.w3.org/2000/svg" viewBox="0 0 24 24"><defs><style>.cls-1{fill:none;stroke:currentColor;stroke-linecap:round;stroke-linejoin:round;stroke-width:1.5px;}</style></defs><title>bread-loaf</title><path class="cls-1" d="M17.25,5.986A5.25,5.25,0,0,0,12,.736H6A5.237,5.237,0,0,0,3.725,10.7L2.447,21.56a1.5,1.5,0,0,0,1.49,1.676H15.75L14.275,10.7A5.234,5.234,0,0,0,17.25,5.986Z"/><path class="cls-1" d="M15.75,23.236h4.313a1.5,1.5,0,0,0,1.49-1.676L20.275,10.7A5.237,5.237,0,0,0,18,.736H12"/><line class="cls-1" x1="20.338" y1="11.236" x2="14.338" y2="11.236"/></svg>