<svg id="Regular" xmlns="http://www.w3.org/2000/svg" viewBox="0 0 24 24"><defs><style>.cls-1{fill:none;stroke:currentColor;stroke-linecap:round;stroke-linejoin:round;stroke-width:1.5px;}</style></defs><title>bread-herb-flour</title><line class="cls-1" x1="7.5" y1="18.736" x2="16.253" y2="9.982"/><polyline class="cls-1" points="13.229 9.225 13.529 12.707 17.01 13.006"/><polyline class="cls-1" points="10.047 12.407 10.347 15.889 13.828 16.188"/><path class="cls-1" d="M19.269,23.236H4.731a3.122,3.122,0,0,1-3.231-3v-12a3.121,3.121,0,0,1,3.231-3H19.269a3.121,3.121,0,0,1,3.231,3v12A3.122,3.122,0,0,1,19.269,23.236Z"/><path class="cls-1" d="M16.286.736H7.714A1.618,1.618,0,0,0,6,2.236v3H18v-3A1.618,1.618,0,0,0,16.286.736Z"/><line class="cls-1" x1="9" y1="0.736" x2="9" y2="5.236"/><line class="cls-1" x1="12" y1="0.736" x2="12" y2="5.236"/><line class="cls-1" x1="15" y1="0.736" x2="15" y2="5.236"/></svg>