<svg id="Regular" xmlns="http://www.w3.org/2000/svg" viewBox="0 0 24 24"><defs><style>.cls-1{fill:none;stroke:currentColor;stroke-linecap:round;stroke-linejoin:round;stroke-width:1.5px;}</style></defs><title>breakfast-croissant-1</title><path class="cls-1" d="M17.107,3.615h.869a2.483,2.483,0,0,1,2.608,2.318h0A2.483,2.483,0,0,1,17.976,8.25h-.869"/><path class="cls-1" d="M14.77,13.663a.864.864,0,0,0-.809-.562H9.97a.866.866,0,0,0-.81.562l-2.136,5.7A.863.863,0,0,0,7.4,20.409a8.456,8.456,0,0,0,9.139,0,.865.865,0,0,0,.372-1.049Z"/><path class="cls-1" d="M9.1,13.821,6.452,12.793a.658.658,0,0,0-.728.175L2.645,16.416a.609.609,0,0,0-.025.845,7.512,7.512,0,0,0,4.468,1.927"/><path class="cls-1" d="M2.7,16.358A6.175,6.175,0,0,1,.934,10.471.751.751,0,0,1,1.46,9.9a.67.67,0,0,1,.749.2,6.226,6.226,0,0,0,3.264,3.15"/><path class="cls-1" d="M14.9,13.821l2.649-1.028a.658.658,0,0,1,.728.175l3.079,3.448a.609.609,0,0,1,.025.845,7.512,7.512,0,0,1-4.468,1.927"/><path class="cls-1" d="M21.3,16.358a6.175,6.175,0,0,0,1.763-5.887A.751.751,0,0,0,22.54,9.9a.67.67,0,0,0-.749.2,6.226,6.226,0,0,1-3.264,3.15"/><path class="cls-1" d="M17.107,10.5V3.75a1.5,1.5,0,0,0-1.5-1.5h-7.5a1.5,1.5,0,0,0-1.5,1.5v6.671"/></svg>