<svg id="Regular" xmlns="http://www.w3.org/2000/svg" viewBox="0 0 24 24"><defs><style>.cls-1{fill:none;stroke:currentColor;stroke-linecap:round;stroke-linejoin:round;stroke-width:1.5px;}</style></defs><title>bread-wheat</title><line class="cls-1" x1="6" y1="23.236" x2="6" y2="0.736"/><path class="cls-1" d="M1.5,17.986a4.769,4.769,0,0,0,4.5,3,4.769,4.769,0,0,0,4.5-3"/><path class="cls-1" d="M1.5,12.736a4.769,4.769,0,0,0,4.5,3,4.769,4.769,0,0,0,4.5-3"/><path class="cls-1" d="M1.5,7.486a4.769,4.769,0,0,0,4.5,3,4.769,4.769,0,0,0,4.5-3"/><path class="cls-1" d="M1.5,2.236a4.769,4.769,0,0,0,4.5,3,4.769,4.769,0,0,0,4.5-3"/><line class="cls-1" x1="18" y1="23.236" x2="18" y2="0.736"/><path class="cls-1" d="M13.5,17.986a4.875,4.875,0,0,0,9,0"/><path class="cls-1" d="M13.5,12.736a4.875,4.875,0,0,0,9,0"/><path class="cls-1" d="M13.5,7.486a4.875,4.875,0,0,0,9,0"/><path class="cls-1" d="M13.5,2.236a4.875,4.875,0,0,0,9,0"/></svg>