<svg id="Regular" xmlns="http://www.w3.org/2000/svg" viewBox="0 0 24 24"><defs><style>.cls-1{fill:none;stroke:currentColor;stroke-linecap:round;stroke-linejoin:round;stroke-width:1.5px;}</style></defs><title>breakfast-croissant</title><path class="cls-1" d="M14.771,8.837a.866.866,0,0,1-.81.562H9.97a.866.866,0,0,1-.81-.562L7.024,3.14A.863.863,0,0,1,7.4,2.091a8.456,8.456,0,0,1,9.139,0,.865.865,0,0,1,.372,1.049Z"/><path class="cls-1" d="M9.1,8.679,6.452,9.707a.658.658,0,0,1-.728-.175L2.645,6.084a.608.608,0,0,1-.024-.845A7.507,7.507,0,0,1,7.088,3.312"/><path class="cls-1" d="M2.7,6.142A6.175,6.175,0,0,0,.934,12.029a.751.751,0,0,0,.526.571.67.67,0,0,0,.749-.2A6.226,6.226,0,0,1,5.473,9.25"/><path class="cls-1" d="M14.9,8.679l2.649,1.028a.658.658,0,0,0,.728-.175l3.079-3.448a.609.609,0,0,0,.025-.845,7.512,7.512,0,0,0-4.468-1.927"/><path class="cls-1" d="M21.3,6.142a6.175,6.175,0,0,1,1.763,5.887.751.751,0,0,1-.526.571.67.67,0,0,1-.749-.2,6.226,6.226,0,0,0-3.264-3.15"/><path class="cls-1" d="M21,23.25a2.25,2.25,0,1,0-1.614-3.817,3,3,0,0,0-5.136-1.166,3,3,0,0,0-4.5,0,3,3,0,0,0-5.136,1.166A2.25,2.25,0,1,0,3,23.25Z"/><path class="cls-1" d="M3,18.75A2.25,2.25,0,0,1,5.25,21"/><path class="cls-1" d="M7.5,17.25a3,3,0,0,1,3,3"/><path class="cls-1" d="M12,17.25a3,3,0,0,1,3,3"/><path class="cls-1" d="M16.5,17.25a3,3,0,0,1,3,3"/></svg>