<svg id="Regular" xmlns="http://www.w3.org/2000/svg" viewBox="0 0 24 24"><defs><style>.cls-1{fill:none;stroke:currentColor;stroke-linecap:round;stroke-linejoin:round;stroke-width:1.5px;}</style></defs><title>breakfast-english</title><circle class="cls-1" cx="5.813" cy="14.04" r="2.363"/><path class="cls-1" d="M6.15,8.978a5.4,5.4,0,1,0,5.225,6.7,3.368,3.368,0,0,0-.5-6.7Z"/><path class="cls-1" d="M23.028,10.673c-.606,1.26.351,2.5-.255,3.756S20.605,15.713,20,16.973s.351,2.5-.254,3.755-2.169,1.284-2.774,2.544l-3.15-1.514c.606-1.26,2.168-1.284,2.774-2.544s-.352-2.495.254-3.755,2.168-1.284,2.774-2.544-.352-2.5.254-3.756Z"/><path class="cls-1" d="M20.625,5.978a2.625,2.625,0,1,0,0-5.25h-12a2.625,2.625,0,0,0,0,5.25Z"/><line class="cls-1" x1="9.75" y1="0.728" x2="10.5" y2="2.978"/><line class="cls-1" x1="13.5" y1="0.728" x2="14.25" y2="2.978"/><line class="cls-1" x1="17.25" y1="0.728" x2="18" y2="2.978"/></svg>