<svg id="Regular" xmlns="http://www.w3.org/2000/svg" viewBox="0 0 24 24"><defs><style>.cls-1{fill:none;stroke:currentColor;stroke-linecap:round;stroke-linejoin:round;stroke-width:1.5px;}</style></defs><title>bread-slice-spread</title><path class="cls-1" d="M18.362,9.995A5.194,5.194,0,0,0,20.25,5.986,5.25,5.25,0,0,0,15,.736H6A5.236,5.236,0,0,0,4.3,10.93L2.541,21.489a1.5,1.5,0,0,0,1.48,1.747H16.979a1.5,1.5,0,0,0,1.48-1.747l-.174-1.041"/><path class="cls-1" d="M16.444,12.5c-1.744,1.106-4.322.165-5.759-2.1s-1.19-5,.554-6.1"/><line class="cls-1" x1="11.239" y1="4.295" x2="23.25" y2="23.236"/><path class="cls-1" d="M7.679,12.156A2.615,2.615,0,0,0,9.791,15.7,2.621,2.621,0,1,0,15,16.111"/></svg>