<svg id="Regular" xmlns="http://www.w3.org/2000/svg" viewBox="0 0 24 24"><defs><style>.cls-1{fill:none;stroke:currentColor;stroke-linecap:round;stroke-linejoin:round;stroke-width:1.5px;}</style></defs><title>breakfast-bread-toast</title><path class="cls-1" d="M20.25,5.25a2.25,2.25,0,0,0,0-4.5H6.75a2.25,2.25,0,0,0,0,4.5v4.5h13.5Z"/><path class="cls-1" d="M6.75,9.75h13.5a3,3,0,0,1,3,3v9a1.5,1.5,0,0,1-1.5,1.5H5.25a1.5,1.5,0,0,1-1.5-1.5v-9A3,3,0,0,1,6.75,9.75Z"/><path class="cls-1" d="M2.25,17.25h1.5v-4.5H2.25a1.5,1.5,0,0,0-1.5,1.5v1.5A1.5,1.5,0,0,0,2.25,17.25Z"/><circle class="cls-1" cx="17.25" cy="17.25" r="3"/><line class="cls-1" x1="14.25" y1="17.25" x2="12.75" y2="17.25"/></svg>