<svg xmlns="http://www.w3.org/2000/svg" viewBox="0 0 24 24"><defs><style>.a{fill:none;stroke:currentColor;stroke-linecap:round;stroke-linejoin:round;stroke-width:1.5px;}</style></defs><title>breakup-couple-man-woman</title><circle class="a" cx="5.25" cy="14.25" r="3"/><path class="a" d="M9.75,23.25a4.5,4.5,0,0,0-9,0"/><path class="a" d="M22.5,23.25a4.5,4.5,0,0,0-9,0"/><circle class="a" cx="18" cy="14.25" r="3"/><path class="a" d="M15,14.25S15,18,12.75,18"/><path class="a" d="M21,14.25S21,18,23.25,18"/><path class="a" d="M9.75,3.06,8.244,1.5a2.429,2.429,0,0,0-3.516,0,2.632,2.632,0,0,0,0,3.635L9.215,9.777a.74.74,0,0,0,.535.229Z"/><path class="a" d="M12.75,3.06,14.256,1.5a2.429,2.429,0,0,1,3.516,0,2.632,2.632,0,0,1,0,3.635L13.285,9.777a.74.74,0,0,1-.535.229Z"/></svg>