<svg id="Regular" xmlns="http://www.w3.org/2000/svg" viewBox="0 0 24 24"><defs><style>.cls-1{fill:none;stroke:currentColor;stroke-linecap:round;stroke-linejoin:round;stroke-width:1.5px;}</style></defs><title>bread-baguette</title><path class="cls-1" d="M22.988,19.363a.75.75,0,0,0-.488-1.319H1.5a.75.75,0,0,0-.488,1.319l3.5,3A.748.748,0,0,0,5,22.544H19a.748.748,0,0,0,.488-.181Z"/><path class="cls-1" d="M18.75,12.044h-4.5a4.5,4.5,0,0,0-4.5,4.5h0a1.5,1.5,0,0,0,1.5,1.5h10.5a1.5,1.5,0,0,0,1.5-1.5h0A4.5,4.5,0,0,0,18.75,12.044Z"/><line class="cls-1" x1="14.25" y1="12.044" x2="14.25" y2="15.044"/><line class="cls-1" x1="18.75" y1="12.044" x2="18.75" y2="15.044"/><path class="cls-1" d="M4.207,12.175l1.209,1.082a2.127,2.127,0,0,0,3-.166.873.873,0,0,0-.068-1.232L6.208,9.94Z"/><path class="cls-1" d="M9.209,6.587,10.418,7.67a2.128,2.128,0,0,0,3-.166.873.873,0,0,0-.068-1.233L11.211,4.352Z"/><path class="cls-1" d="M3,18.044a3.75,3.75,0,0,1,.207-4.751L12.711,2.676a3.751,3.751,0,0,1,5.3-.293h0a3.75,3.75,0,0,1,.292,5.3l-3.908,4.365"/></svg>