<svg xmlns="http://www.w3.org/2000/svg" viewBox="0 0 24 24"><defs><style>.a{fill:none;stroke:currentColor;stroke-linecap:round;stroke-linejoin:round;stroke-width:1.5px;}</style></defs><title>breakup-cry</title><path class="a" d="M.762,14.665a13.755,13.755,0,0,0,6.163,1.517c4.837.079,9.734-3.216,12.759-6.445a1.857,1.857,0,0,0,0-2.544C16.592,3.9,11.677.674,6.925.751A13.793,13.793,0,0,0,.75,2.28"/><circle class="a" cx="7.512" cy="8.25" r="3.75"/><path class="a" d="M23.262,20.25a3,3,0,0,1-6,0c0-1.167,1.488-3.666,2.368-5.042a.75.75,0,0,1,1.263,0C21.773,16.583,23.262,19.083,23.262,20.25Z"/></svg>