<svg id="Regular" xmlns="http://www.w3.org/2000/svg" viewBox="0 0 24 24"><defs><style>.cls-1{fill:none;stroke:currentColor;stroke-linecap:round;stroke-linejoin:round;stroke-width:1.5px;}</style></defs><title>bread-slice</title><path class="cls-1" d="M19.5,8.236h.192A3.568,3.568,0,0,0,23.25,4.678V4.293A3.567,3.567,0,0,0,19.692.736H4.308A3.567,3.567,0,0,0,.75,4.293v.385A3.568,3.568,0,0,0,4.308,8.236H4.5"/><path class="cls-1" d="M3.75,8.192V21.736a1.5,1.5,0,0,0,1.5,1.5h13.5a1.5,1.5,0,0,0,1.5-1.5V8.192"/><line class="cls-1" x1="7.313" y1="12.173" x2="10.5" y2="8.986"/><line class="cls-1" x1="8.438" y1="16.298" x2="15.047" y2="9.689"/><line class="cls-1" x1="12.75" y1="17.236" x2="15.937" y2="14.048"/></svg>