<svg xmlns="http://www.w3.org/2000/svg" viewBox="0 0 24 24"><defs><style>.a{fill:none;stroke:currentColor;stroke-linecap:round;stroke-linejoin:round;stroke-width:1.5px;}</style></defs><title>bridge-1</title><path class="a" d="M23.215,10.75A18.6,18.6,0,0,1,19.184,7C17.921,5.5,15.935,1.75,11.965,1.75S6.009,5.5,4.745,7A18.6,18.6,0,0,1,.715,10.75Z"/><line class="a" x1="14.215" y1="2.19" x2="14.215" y2="10.75"/><line class="a" x1="17.215" y1="4.474" x2="17.215" y2="10.75"/><line class="a" x1="9.715" y1="2.19" x2="9.715" y2="10.75"/><line class="a" x1="6.715" y1="4.474" x2="6.715" y2="10.75"/><line class="a" x1="0.715" y1="15.25" x2="0.715" y2="10.75"/><path class="a" d="M18.9,14.523a8.251,8.251,0,0,0-13.856-.007"/><line class="a" x1="23.215" y1="10.75" x2="23.215" y2="15.25"/><path class="a" d="M23.25,21.25A2.553,2.553,0,0,1,20.775,19c0,1.243-1.31,2.25-2.925,2.25S14.925,20.243,14.925,19c0,1.243-1.31,2.25-2.925,2.25S9.075,20.243,9.075,19c0,1.243-1.31,2.25-2.925,2.25S3.225,20.243,3.225,19A2.553,2.553,0,0,1,.75,21.25"/></svg>