<svg xmlns="http://www.w3.org/2000/svg" viewBox="0 0 24 24"><defs><style>.a{fill:none;stroke:currentColor;stroke-linecap:round;stroke-linejoin:round;stroke-width:1.5px;}</style></defs><title>bridge-golden-gate</title><path class="a" d="M23.245,22.5c-2.068,0-3.75-1.007-3.75-2.25,0,1.243-1.682,2.25-3.75,2.25S12,21.493,12,20.25c0,1.243-1.682,2.25-3.75,2.25S4.5,21.493,4.5,20.25c0,1.243-1.682,2.25-3.75,2.25"/><line class="a" x1="6.74" y1="1.5" x2="6.74" y2="18.75"/><line class="a" x1="0.74" y1="15" x2="23.24" y2="15"/><path class="a" d="M23.25,15c-5.25,0-6-9.75-6-9.75S16.572,14.2,12,15C7.418,14.2,6.74,5.25,6.74,5.25S5.99,15,.74,15"/><line class="a" x1="17.25" y1="1.5" x2="17.25" y2="18.75"/><path class="a" d="M23.25,8.25c-3.75,0-6-3.75-6-3.75S15.745,8.25,12,8.25,6.74,4.5,6.74,4.5,4.49,8.25.74,8.25"/></svg>