<svg xmlns="http://www.w3.org/2000/svg" viewBox="0 0 24 24"><defs><style>.a{fill:none;stroke:currentColor;stroke-linecap:round;stroke-linejoin:round;stroke-width:1.5px;}</style></defs><title>bridge-2</title><line class="a" x1="0.75" y1="0.75" x2="23.25" y2="0.75"/><line class="a" x1="0.75" y1="8.25" x2="23.25" y2="8.25"/><path class="a" d="M5.25,18.75V15a2.25,2.25,0,0,1,4.5,0v3.75"/><path class="a" d="M12.75,18.75V15a2.25,2.25,0,0,1,4.5,0v3.75"/><path class="a" d="M20.25,18.75V15a2.252,2.252,0,0,1,2.992-2.125"/><path class="a" d="M.761,12.882A2.251,2.251,0,0,1,2.25,15v3.75"/><path class="a" d="M9.75,8.25h-3v-3a1.5,1.5,0,0,1,3,0Z"/><path class="a" d="M17.25,8.25h-3v-3a1.5,1.5,0,0,1,3,0Z"/><path class="a" d="M21.75,8.25v-3a1.5,1.5,0,0,1,1.5-1.5"/><path class="a" d="M.75,3.75a1.5,1.5,0,0,1,1.5,1.5v3"/><path class="a" d="M23.25,23.25A2.553,2.553,0,0,1,20.775,21c0,1.243-1.31,2.25-2.925,2.25S14.925,22.243,14.925,21c0,1.243-1.31,2.25-2.925,2.25S9.075,22.243,9.075,21c0,1.243-1.31,2.25-2.925,2.25S3.225,22.243,3.225,21A2.553,2.553,0,0,1,.75,23.25"/></svg>