<svg xmlns="http://www.w3.org/2000/svg" viewBox="0 0 24 24"><defs><style>.a{fill:none;stroke:currentColor;stroke-linecap:round;stroke-linejoin:round;stroke-width:1.5px;}</style></defs><title>browser-idea</title><line class="a" x1="15.75" y1="8.143" x2="15.75" y2="9.75"/><line class="a" x1="8.25" y1="15.75" x2="9.857" y2="15.75"/><line class="a" x1="23.25" y1="15.75" x2="21.643" y2="15.75"/><line class="a" x1="9.564" y1="10.85" x2="10.929" y2="12.214"/><line class="a" x1="21.936" y1="10.85" x2="20.571" y2="12.214"/><path class="a" d="M19.5,15.75a3.75,3.75,0,1,0-5.25,3.433V21h3V19.183A3.747,3.747,0,0,0,19.5,15.75Z"/><line class="a" x1="14.25" y1="23.25" x2="17.25" y2="23.25"/><path class="a" d="M19.5,6.75V1.868A1.128,1.128,0,0,0,18.369.75H1.875A1.122,1.122,0,0,0,.75,1.862V15.381A1.128,1.128,0,0,0,1.881,16.5H5.25"/><line class="a" x1="0.75" y1="4.5" x2="19.5" y2="4.5"/></svg>