<svg xmlns="http://www.w3.org/2000/svg" viewBox="0 0 24 24"><defs><style>.a{fill:none;stroke:currentColor;stroke-linecap:round;stroke-linejoin:round;stroke-width:1.5px;}</style></defs><title>buildings-2</title><path class="a" d="M2.75,5.25h9.5a.5.5,0,0,1,.5.5v17.5a0,0,0,0,1,0,0H2.25a0,0,0,0,1,0,0V5.75A.5.5,0,0,1,2.75,5.25Z"/><path class="a" d="M5.75,2.25h3.5a.5.5,0,0,1,.5.5v2.5a0,0,0,0,1,0,0H5.25a0,0,0,0,1,0,0V2.75A.5.5,0,0,1,5.75,2.25Z"/><line class="a" x1="5.25" y1="8.25" x2="9.75" y2="8.25"/><line class="a" x1="5.25" y1="11.25" x2="9.75" y2="11.25"/><line class="a" x1="5.25" y1="14.25" x2="9.75" y2="14.25"/><line class="a" x1="5.25" y1="17.25" x2="9.75" y2="17.25"/><line class="a" x1="5.25" y1="20.25" x2="9.75" y2="20.25"/><line class="a" x1="8.25" y1="0.75" x2="8.25" y2="2.25"/><path class="a" d="M15.75,23.25h6V10.5A.75.75,0,0,0,21,9.75H16.5a.75.75,0,0,0-.75.75V23.25"/><line class="a" x1="20.25" y1="8.25" x2="20.25" y2="9.75"/><line class="a" x1="0.75" y1="23.25" x2="23.25" y2="23.25"/></svg>