<svg xmlns="http://www.w3.org/2000/svg" viewBox="0 0 24 24"><defs><style>.a{fill:none;stroke:currentColor;stroke-linecap:round;stroke-linejoin:round;stroke-width:1.5px;}</style></defs><title>building-nature</title><path class="a" d="M6,23.25v-3a1.5,1.5,0,0,1,3,0v3"/><line class="a" x1="12.75" y1="6.75" x2="12.75" y2="23.25"/><line class="a" x1="2.25" y1="23.25" x2="2.25" y2="6.75"/><path class="a" d="M2.585,3.079.75,6.75h13.5L12.415,3.079a1.5,1.5,0,0,0-1.342-.829H3.927A1.5,1.5,0,0,0,2.585,3.079Z"/><line class="a" x1="9" y1="2.25" x2="9" y2="0.75"/><line class="a" x1="0.75" y1="23.25" x2="23.25" y2="23.25"/><path class="a" d="M20.25,18.75a1.5,1.5,0,0,1-3,0,14.8,14.8,0,0,1,1.5-5.25A14.8,14.8,0,0,1,20.25,18.75Z"/><line class="a" x1="18.75" y1="20.25" x2="18.75" y2="23.25"/><line class="a" x1="5.25" y1="15.75" x2="9.75" y2="15.75"/><line class="a" x1="5.25" y1="12.75" x2="9.75" y2="12.75"/><line class="a" x1="5.25" y1="9.75" x2="9.75" y2="9.75"/></svg>