<svg xmlns="http://www.w3.org/2000/svg" viewBox="0 0 24 24"><defs><style>.a{fill:none;stroke:currentColor;stroke-linecap:round;stroke-linejoin:round;stroke-width:1.5px;}</style></defs><title>building-cloudy</title><path class="a" d="M6.75.75a2.249,2.249,0,0,0-2.2,1.767,1.457,1.457,0,0,0-.8-.267,1.5,1.5,0,0,0,0,3h3a2.25,2.25,0,0,0,0-4.5Z"/><path class="a" d="M13.75.75h8.5a1,1,0,0,1,1,1v21a.5.5,0,0,1-.5.5h-9.5a.5.5,0,0,1-.5-.5v-21a1,1,0,0,1,1-1Z"/><line class="a" x1="15.75" y1="3.75" x2="15.75" y2="4.5"/><line class="a" x1="20.25" y1="3.75" x2="20.25" y2="4.5"/><line class="a" x1="15.75" y1="7.5" x2="15.75" y2="8.25"/><line class="a" x1="20.25" y1="7.5" x2="20.25" y2="8.25"/><line class="a" x1="15.75" y1="11.25" x2="15.75" y2="12"/><line class="a" x1="20.25" y1="11.25" x2="20.25" y2="12"/><line class="a" x1="15.75" y1="15" x2="15.75" y2="15.75"/><line class="a" x1="20.25" y1="15" x2="20.25" y2="15.75"/><line class="a" x1="15.75" y1="18.75" x2="15.75" y2="19.5"/><line class="a" x1="20.25" y1="18.75" x2="20.25" y2="19.5"/><path class="a" d="M.75,12.75h9a0,0,0,0,1,0,0v10a.5.5,0,0,1-.5.5h-8a.5.5,0,0,1-.5-.5v-10A0,0,0,0,1,.75,12.75Z"/><path class="a" d="M1.75,9.75h7a1,1,0,0,1,1,1v2a0,0,0,0,1,0,0h-9a0,0,0,0,1,0,0v-2A1,1,0,0,1,1.75,9.75Z"/><line class="a" x1="3.75" y1="15.75" x2="3.75" y2="16.5"/><line class="a" x1="6.75" y1="15.75" x2="6.75" y2="16.5"/><line class="a" x1="3.75" y1="19.5" x2="3.75" y2="20.25"/><line class="a" x1="6.75" y1="19.5" x2="6.75" y2="20.25"/></svg>