<svg xmlns="http://www.w3.org/2000/svg" viewBox="0 0 24 24"><defs><style>.a{fill:none;stroke:currentColor;stroke-linecap:round;stroke-linejoin:round;stroke-width:1.5px;}</style></defs><title>buildings-modern</title><path class="a" d="M2.25,23.25V6a.748.748,0,0,1,.394-.66L10.894.9A.75.75,0,0,1,12,1.558V23.25"/><path class="a" d="M21.75,23.25V13.083a.75.75,0,0,0-.29-.592L16.21,8.408A.749.749,0,0,0,15,9V23.25"/><line class="a" x1="23.25" y1="23.25" x2="0.75" y2="23.25"/><line class="a" x1="12" y1="8.25" x2="7.5" y2="8.25"/><line class="a" x1="12" y1="11.25" x2="6" y2="11.25"/><path class="a" d="M6,23.25H9v-3a1.5,1.5,0,0,0-3,0Z"/><line class="a" x1="4.5" y1="4.34" x2="4.5" y2="0.75"/><line class="a" x1="15" y1="13.5" x2="17.25" y2="13.5"/><line class="a" x1="15" y1="16.5" x2="18.75" y2="16.5"/><line class="a" x1="20.25" y1="11.55" x2="20.25" y2="8.25"/></svg>