<svg xmlns="http://www.w3.org/2000/svg" viewBox="0 0 24 24"><defs><style>.a{fill:none;stroke:currentColor;stroke-linecap:round;stroke-linejoin:round;stroke-width:1.5px;}</style></defs><title>building-daylight</title><path class="a" d="M7.2,12.75h9a0,0,0,0,1,0,0v9.5a1,1,0,0,1-1,1h-7a1,1,0,0,1-1-1v-9.5a0,0,0,0,1,0,0Z" transform="translate(23.407 36) rotate(-180)"/><path class="a" d="M4.2,23.25H2.7v-18a1.5,1.5,0,0,1,1.5-1.5H8.7a1.5,1.5,0,0,1,1.5,1.5v4.5H8.7"/><line class="a" x1="16.203" y1="23.25" x2="22.203" y2="23.25"/><line class="a" x1="2.703" y1="23.25" x2="1.203" y2="23.25"/><line class="a" x1="10.203" y1="6.75" x2="7.203" y2="6.75"/><line class="a" x1="16.203" y1="15.75" x2="13.953" y2="15.75"/><path class="a" d="M10.2,23.25h3v-3a1.5,1.5,0,0,0-3,0Z"/><circle class="a" cx="18.453" cy="6" r="2.25"/><line class="a" x1="18.453" y1="0.75" x2="18.453" y2="1.5"/><line class="a" x1="13.907" y1="3.375" x2="14.556" y2="3.75"/><line class="a" x1="13.907" y1="8.625" x2="14.556" y2="8.25"/><line class="a" x1="18.453" y1="11.25" x2="18.453" y2="10.5"/><line class="a" x1="23" y1="8.625" x2="22.35" y2="8.25"/><line class="a" x1="23" y1="3.375" x2="22.35" y2="3.75"/></svg>