<svg xmlns="http://www.w3.org/2000/svg" viewBox="0 0 24 24"><defs><style>.a{fill:none;stroke:currentColor;stroke-linecap:round;stroke-linejoin:round;stroke-width:1.5px;}</style></defs><title>building-2</title><rect class="a" x="2.25" y="6.75" width="19.5" height="16.5"/><path class="a" d="M12.75,18.75h-1.5a1.5,1.5,0,0,0-1.5,1.5v3h4.5v-3A1.5,1.5,0,0,0,12.75,18.75Z"/><line class="a" x1="5.25" y1="9.75" x2="5.25" y2="11.25"/><line class="a" x1="9.75" y1="9.75" x2="9.75" y2="11.25"/><line class="a" x1="14.25" y1="9.75" x2="14.25" y2="11.25"/><line class="a" x1="18.75" y1="9.75" x2="18.75" y2="11.25"/><line class="a" x1="5.25" y1="14.25" x2="5.25" y2="15.75"/><line class="a" x1="9.75" y1="14.25" x2="9.75" y2="15.75"/><line class="a" x1="14.25" y1="14.25" x2="14.25" y2="15.75"/><line class="a" x1="18.75" y1="14.25" x2="18.75" y2="15.75"/><line class="a" x1="0.75" y1="6.75" x2="23.25" y2="6.75"/><path class="a" d="M19.079.75H4.921A1.5,1.5,0,0,0,3.466,1.886L2.25,6.75h19.5L20.534,1.886A1.5,1.5,0,0,0,19.079.75Z"/><line class="a" x1="5.25" y1="18.75" x2="5.25" y2="20.25"/><line class="a" x1="18.75" y1="18.75" x2="18.75" y2="20.25"/></svg>