<svg xmlns="http://www.w3.org/2000/svg" viewBox="0 0 24 24"><defs><style>.a{fill:none;stroke:currentColor;stroke-linecap:round;stroke-linejoin:round;stroke-width:1.5px;}</style></defs><title>building</title><path class="a" d="M1.75.75h20.5a1,1,0,0,1,1,1v21.5a0,0,0,0,1,0,0H.75a0,0,0,0,1,0,0V1.75A1,1,0,0,1,1.75.75Z"/><line class="a" x1="14.25" y1="0.75" x2="14.25" y2="23.25"/><line class="a" x1="14.25" y1="17.25" x2="23.25" y2="17.25"/><line class="a" x1="14.25" y1="20.25" x2="23.25" y2="20.25"/><path class="a" d="M20.25,17.25h-3v-6a1.5,1.5,0,0,1,3,0Z"/><path class="a" d="M18.75,4.875a.375.375,0,0,1,.375.375"/><path class="a" d="M18.375,5.25a.375.375,0,0,1,.375-.375"/><path class="a" d="M18.75,5.625a.375.375,0,0,1-.375-.375"/><path class="a" d="M19.125,5.25a.375.375,0,0,1-.375.375"/><path class="a" d="M11.25,9.75h-3V5.25a1.5,1.5,0,0,1,3,0Z"/><path class="a" d="M11.25,20.25h-3v-4.5a1.5,1.5,0,0,1,3,0Z"/><path class="a" d="M3.75,3.75a1.5,1.5,0,0,1,1.5,1.5v4.5H3.75"/><path class="a" d="M3.75,14.25a1.5,1.5,0,0,1,1.5,1.5v4.5H3.75"/></svg>