<svg xmlns="http://www.w3.org/2000/svg" viewBox="0 0 24 24"><defs><style>.a{fill:none;stroke:currentColor;stroke-linecap:round;stroke-linejoin:round;stroke-width:1.5px;}</style></defs><title>buildings-1</title><line class="a" x1="3" y1="14.25" x2="7.5" y2="14.25"/><line class="a" x1="3" y1="17.25" x2="7.5" y2="17.25"/><line class="a" x1="3" y1="20.25" x2="7.5" y2="20.25"/><line class="a" x1="3" y1="8.25" x2="7.5" y2="8.25"/><line class="a" x1="3" y1="11.25" x2="7.5" y2="11.25"/><line class="a" x1="18.75" y1="14.25" x2="20.25" y2="14.25"/><line class="a" x1="18.75" y1="17.25" x2="20.25" y2="17.25"/><line class="a" x1="18.75" y1="20.25" x2="20.25" y2="20.25"/><line class="a" x1="18.75" y1="11.25" x2="20.25" y2="11.25"/><path class="a" d="M1.25,3.75h8a.5.5,0,0,1,.5.5v19a0,0,0,0,1,0,0H1.25a.5.5,0,0,1-.5-.5V4.25A.5.5,0,0,1,1.25,3.75Z"/><rect class="a" x="9.75" y="12.75" width="6" height="10.5"/><path class="a" d="M16.25,6.75h6.5a.5.5,0,0,1,.5.5v15.5a.5.5,0,0,1-.5.5h-7a0,0,0,0,1,0,0v-16A.5.5,0,0,1,16.25,6.75Z"/><line class="a" x1="3.75" y1="0.75" x2="3.75" y2="3.75"/></svg>