<svg xmlns="http://www.w3.org/2000/svg" viewBox="0 0 24 24"><defs><style>.a{fill:none;stroke:currentColor;stroke-linecap:round;stroke-linejoin:round;stroke-width:1.5px;}</style></defs><title>building-modern</title><path class="a" d="M3.25,9.75h8.5a1,1,0,0,1,1,1v12.5a0,0,0,0,1,0,0H2.25a0,0,0,0,1,0,0V10.75A1,1,0,0,1,3.25,9.75Z"/><path class="a" d="M15.75,23.25h6v-21a1.5,1.5,0,0,0-1.5-1.5h-9a1.5,1.5,0,0,0-1.5,1.5v4.5h1.5"/><line class="a" x1="2.25" y1="23.25" x2="0.75" y2="23.25"/><line class="a" x1="21.75" y1="23.25" x2="23.25" y2="23.25"/><line class="a" x1="9.75" y1="3.75" x2="14.25" y2="3.75"/><line class="a" x1="2.25" y1="12.75" x2="4.5" y2="12.75"/><path class="a" d="M8.25,23.25h-3v-3a1.5,1.5,0,0,1,3,0Z"/><path class="a" d="M18.75,23.25h-3v-4.5a1.5,1.5,0,0,1,3,0Z"/></svg>