<svg xmlns="http://www.w3.org/2000/svg" viewBox="0 0 24 24"><defs><style>.a{fill:none;stroke:currentColor;stroke-linecap:round;stroke-linejoin:round;stroke-width:1.5px;}</style></defs><title>building-flag</title><rect class="a" x="5.25" y="6.75" width="13.5" height="16.5"/><path class="a" d="M11.25.75h4a.5.5,0,0,1,.5.5v2a.5.5,0,0,1-.5.5h-4a0,0,0,0,1,0,0v-3A0,0,0,0,1,11.25.75Z"/><line class="a" x1="3.75" y1="6.75" x2="5.25" y2="6.75"/><line class="a" x1="20.25" y1="6.75" x2="18.75" y2="6.75"/><line class="a" x1="11.25" y1="3.75" x2="11.25" y2="6.75"/><line class="a" x1="0.75" y1="12.75" x2="5.25" y2="12.75"/><line class="a" x1="18.75" y1="12.75" x2="23.25" y2="12.75"/><line class="a" x1="0.75" y1="17.25" x2="23.25" y2="17.25"/><polyline class="a" points="5.25 23.25 2.25 23.25 2.25 12.75 5.25 12.75"/><polyline class="a" points="18.75 23.25 21.75 23.25 21.75 12.75 18.75 12.75"/><line class="a" x1="0.75" y1="23.25" x2="2.25" y2="23.25"/><line class="a" x1="21.75" y1="23.25" x2="23.25" y2="23.25"/><line class="a" x1="9.75" y1="9.75" x2="9.75" y2="10.5"/><line class="a" x1="9.75" y1="13.5" x2="9.75" y2="14.25"/><line class="a" x1="14.25" y1="9.75" x2="14.25" y2="10.5"/><line class="a" x1="14.25" y1="13.5" x2="14.25" y2="14.25"/><line class="a" x1="9.75" y1="19.5" x2="9.75" y2="20.25"/><line class="a" x1="14.25" y1="19.5" x2="14.25" y2="20.25"/></svg>