<svg xmlns="http://www.w3.org/2000/svg" viewBox="0 0 24 24"><defs><style>.a{fill:none;stroke:currentColor;stroke-linecap:round;stroke-linejoin:round;stroke-width:1.5px;}</style></defs><title>buildings</title><rect class="a" x="14.25" y="8.25" width="9" height="15" rx="0.5" ry="0.5"/><rect class="a" x="0.75" y="11.25" width="10.5" height="12" rx="0.5" ry="0.5"/><path class="a" d="M2.25,11.25V3A.75.75,0,0,1,3,2.25H9A.75.75,0,0,1,9.75,3v8.25"/><line class="a" x1="5.25" y1="2.25" x2="5.25" y2="0.75"/><line class="a" x1="5.25" y1="8.25" x2="6.75" y2="8.25"/><line class="a" x1="5.25" y1="5.25" x2="6.75" y2="5.25"/><line class="a" x1="3.75" y1="14.25" x2="8.25" y2="14.25"/><line class="a" x1="3.75" y1="17.25" x2="8.25" y2="17.25"/><line class="a" x1="3.75" y1="20.25" x2="8.25" y2="20.25"/><line class="a" x1="17.25" y1="14.25" x2="20.25" y2="14.25"/><line class="a" x1="17.25" y1="11.25" x2="20.25" y2="11.25"/><line class="a" x1="17.25" y1="17.25" x2="20.25" y2="17.25"/><line class="a" x1="17.25" y1="20.25" x2="20.25" y2="20.25"/></svg>