<svg xmlns="http://www.w3.org/2000/svg" viewBox="0 0 24 24"><defs><style>.a{fill:none;stroke:currentColor;stroke-linecap:round;stroke-linejoin:round;stroke-width:1.5px;}</style></defs><title>building-modern-2</title><polyline class="a" points="1.5 23.25 1.5 8.25 10.5 8.25 10.5 23.25"/><line class="a" x1="4.5" y1="23.25" x2="4.5" y2="11.25"/><line class="a" x1="7.5" y1="23.25" x2="7.5" y2="11.25"/><polyline class="a" points="1.5 8.25 6 3 10.5 8.25"/><line class="a" x1="6" y1="0.75" x2="6" y2="3"/><path class="a" d="M22.5,23.25V11.041a.751.751,0,0,0-.513-.712l-7.5-2.5a.749.749,0,0,0-.987.712V23.25"/><line class="a" x1="19.5" y1="21" x2="19.5" y2="21.75"/><line class="a" x1="19.5" y1="17.25" x2="19.5" y2="18"/><line class="a" x1="19.5" y1="13.5" x2="19.5" y2="14.25"/><line class="a" x1="16.5" y1="21" x2="16.5" y2="21.75"/><line class="a" x1="16.5" y1="17.25" x2="16.5" y2="18"/><line class="a" x1="16.5" y1="13.5" x2="16.5" y2="14.25"/></svg>