<svg xmlns="http://www.w3.org/2000/svg" viewBox="0 0 24 24"><defs><style>.a{fill:none;stroke:currentColor;stroke-linecap:round;stroke-linejoin:round;stroke-width:1.5px;}</style></defs><title>building-night</title><path class="a" d="M7.25,12.75h9a0,0,0,0,1,0,0v9.5a1,1,0,0,1-1,1h-7a1,1,0,0,1-1-1v-9.5A0,0,0,0,1,7.25,12.75Z" transform="translate(23.5 36) rotate(-180)"/><path class="a" d="M4.25,23.25H2.75v-18a1.5,1.5,0,0,1,1.5-1.5h4.5a1.5,1.5,0,0,1,1.5,1.5v4.5H8.75"/><line class="a" x1="16.25" y1="23.25" x2="22.25" y2="23.25"/><line class="a" x1="2.75" y1="23.25" x2="1.25" y2="23.25"/><line class="a" x1="10.25" y1="6.75" x2="7.25" y2="6.75"/><line class="a" x1="16.25" y1="15.75" x2="14" y2="15.75"/><path class="a" d="M10.25,23.25h3v-3a1.5,1.5,0,0,0-3,0Z"/><path class="a" d="M14.75,4.25A.25.25,0,0,1,15,4.5"/><path class="a" d="M14.5,4.5a.25.25,0,0,1,.25-.25"/><path class="a" d="M14.75,4.75a.25.25,0,0,1-.25-.25"/><path class="a" d="M15,4.5a.25.25,0,0,1-.25.25"/><path class="a" d="M20,11a.25.25,0,0,1,.25.25"/><path class="a" d="M19.75,11.25A.25.25,0,0,1,20,11"/><path class="a" d="M20,11.5a.25.25,0,0,1-.25-.25"/><path class="a" d="M20.25,11.25a.25.25,0,0,1-.25.25"/><path class="a" d="M19.25,8.25a3.75,3.75,0,0,0,0-7.5Z"/></svg>