<svg xmlns="http://www.w3.org/2000/svg" viewBox="0 0 24 24"><defs><style>.a{fill:none;stroke:currentColor;stroke-linecap:round;stroke-linejoin:round;stroke-width:1.5px;}</style></defs><title>bulb-1</title><path class="a" d="M15,17.25v4.5a1.5,1.5,0,0,1-1.5,1.5h-3A1.5,1.5,0,0,1,9,21.75v-4.5"/><line class="a" x1="9" y1="20.25" x2="15" y2="20.25"/><line class="a" x1="12" y1="0.75" x2="12" y2="2.25"/><line class="a" x1="1.5" y1="11.25" x2="3" y2="11.25"/><line class="a" x1="3.75" y1="3.75" x2="4.85" y2="4.807"/><line class="a" x1="22.5" y1="11.25" x2="21" y2="11.25"/><line class="a" x1="20.25" y1="3.75" x2="19.15" y2="4.807"/><path class="a" d="M13.5,17.25v-6a1.5,1.5,0,1,1,1.5,1.5H9a1.5,1.5,0,1,1,1.5-1.5v6"/><path class="a" d="M8.915,17.25h6.17a6.6,6.6,0,0,0,3.665-6A6.873,6.873,0,0,0,12,4.5a6.873,6.873,0,0,0-6.75,6.754A6.6,6.6,0,0,0,8.915,17.25Z"/></svg>