<svg xmlns="http://www.w3.org/2000/svg" viewBox="0 0 24 24"><defs><style>.a{fill:none;stroke:currentColor;stroke-linecap:round;stroke-linejoin:round;stroke-width:1.5px;}</style></defs><title>bus-double-1</title><circle class="a" cx="5.25" cy="21.713" r="1.5"/><circle class="a" cx="18.75" cy="21.713" r="1.5"/><line class="a" x1="17.249" y1="21.713" x2="6.75" y2="21.713"/><path class="a" d="M3.749,21.713a3,3,0,1,1,0-6h19.5v4.5a1.5,1.5,0,0,1-1.5,1.5h-1.5"/><path class="a" d="M7.25.713h15a1,1,0,0,1,1,1v14a0,0,0,0,1,0,0h-18a0,0,0,0,1,0,0v-13A2,2,0,0,1,7.25.713Z"/><line class="a" x1="5.25" y1="8.213" x2="23.25" y2="8.213"/><line class="a" x1="8.25" y1="18.713" x2="15.75" y2="18.713"/><line class="a" x1="23.25" y1="5.213" x2="5.25" y2="5.213"/><line class="a" x1="9.75" y1="0.713" x2="9.75" y2="5.213"/><line class="a" x1="14.25" y1="0.713" x2="14.25" y2="5.213"/><line class="a" x1="18.75" y1="0.713" x2="18.75" y2="5.213"/><line class="a" x1="23.25" y1="12.713" x2="5.25" y2="12.713"/><line class="a" x1="9.75" y1="8.213" x2="9.75" y2="12.713"/><line class="a" x1="14.25" y1="8.213" x2="14.25" y2="12.713"/><line class="a" x1="18.75" y1="8.213" x2="18.75" y2="12.713"/></svg>