<svg xmlns="http://www.w3.org/2000/svg" viewBox="0 0 24 24"><defs><style>.a{fill:none;stroke:currentColor;stroke-linecap:round;stroke-linejoin:round;stroke-width:1.5px;}</style></defs><title>bus-school</title><circle class="a" cx="5.25" cy="18.713" r="1.5"/><circle class="a" cx="17.25" cy="18.713" r="1.5"/><path class="a" d="M3.75,18.713H2.25a1.5,1.5,0,0,1-1.5-1.5v-3a1.5,1.5,0,0,1,1.5-1.5h1.5a1.5,1.5,0,0,0,1.5-1.5v-4.5a1.5,1.5,0,0,1,1.5-1.5h15a1.5,1.5,0,0,1,1.5,1.5v10.5a1.5,1.5,0,0,1-1.5,1.5h-3"/><line class="a" x1="6.75" y1="18.713" x2="15.75" y2="18.713"/><line class="a" x1="5.25" y1="11.213" x2="23.25" y2="11.213"/><line class="a" x1="11.25" y1="11.213" x2="11.25" y2="5.213"/><line class="a" x1="17.25" y1="11.213" x2="17.25" y2="5.213"/><line class="a" x1="23.25" y1="14.213" x2="8.25" y2="14.213"/></svg>