<svg xmlns="http://www.w3.org/2000/svg" viewBox="0 0 24 24"><defs><style>.a{fill:none;stroke:currentColor;stroke-linecap:round;stroke-linejoin:round;stroke-width:1.5px;}</style></defs><title>bus-station</title><line class="a" x1="20.25" y1="13.963" x2="20.25" y2="22.963"/><circle class="a" cx="20.25" cy="10.963" r="3"/><rect class="a" x="3.75" y="1.213" width="10.5" height="12" rx="1" ry="1"/><line class="a" x1="5.25" y1="13.213" x2="5.25" y2="14.713"/><line class="a" x1="12.75" y1="13.213" x2="12.75" y2="14.713"/><path class="a" d="M6.375,9.838a.375.375,0,0,1,.375.375"/><path class="a" d="M6,10.213a.375.375,0,0,1,.375-.375"/><path class="a" d="M6.375,10.588A.375.375,0,0,1,6,10.213"/><path class="a" d="M6.75,10.213a.375.375,0,0,1-.375.375"/><path class="a" d="M11.625,9.838a.375.375,0,0,1,.375.375"/><path class="a" d="M11.25,10.213a.375.375,0,0,1,.375-.375"/><path class="a" d="M11.625,10.588a.375.375,0,0,1-.375-.375"/><path class="a" d="M12,10.213a.375.375,0,0,1-.375.375"/><line class="a" x1="3.75" y1="7.213" x2="14.25" y2="7.213"/><line class="a" x1="0.75" y1="2.713" x2="0.75" y2="5.713"/><line class="a" x1="17.25" y1="2.713" x2="17.25" y2="5.713"/></svg>