<svg xmlns="http://www.w3.org/2000/svg" viewBox="0 0 24 24"><defs><style>.a{fill:none;stroke:currentColor;stroke-linecap:round;stroke-linejoin:round;stroke-width:1.5px;}</style></defs><title>bus-double</title><path class="a" d="M5,20.213v1.5a1.5,1.5,0,0,0,3,0v-1.5"/><path class="a" d="M18.5,20.213v1.5a1.5,1.5,0,0,1-3,0v-1.5"/><path class="a" d="M19.25,14.213a.75.75,0,0,1,.75.75v3.75a1.5,1.5,0,0,1-1.5,1.5H5a1.5,1.5,0,0,1-1.5-1.5V2.213A1.5,1.5,0,0,1,5,.713H18.5a1.5,1.5,0,0,1,1.5,1.5v5.25a.751.751,0,0,1-.75.75H18.5v6Z"/><line class="a" x1="3.5" y1="17.213" x2="5.75" y2="17.213"/><line class="a" x1="17.75" y1="17.213" x2="20" y2="17.213"/><path class="a" d="M8,20.213l1.293-2.585a.748.748,0,0,1,.671-.415h3.572a.748.748,0,0,1,.671.415L15.5,20.213Z"/><path class="a" d="M3.5,14.213h8.25a.75.75,0,0,0,.75-.75v-4.5a.75.75,0,0,0-.75-.75H3.5"/><line class="a" x1="6.5" y1="5.213" x2="17" y2="5.213"/><path class="a" d="M16,8.213h2.5a0,0,0,0,1,0,0v6a0,0,0,0,1,0,0H16a.5.5,0,0,1-.5-.5v-5A.5.5,0,0,1,16,8.213Z"/></svg>