<svg xmlns="http://www.w3.org/2000/svg" viewBox="0 0 24 24"><defs><style>.a{fill:none;stroke:currentColor;stroke-linecap:round;stroke-linejoin:round;stroke-width:1.5px;}</style></defs><title>bus-2</title><path class="a" d="M5.25,20.149v1.564a1.5,1.5,0,0,0,3,0v-1.5"/><path class="a" d="M18.75,20.149v1.564a1.5,1.5,0,0,1-3,0v-1.5"/><path class="a" d="M3.75,5.213H2.25a1.5,1.5,0,0,0-1.5,1.5v3"/><path class="a" d="M20.25,5.213h1.5a1.5,1.5,0,0,1,1.5,1.5v3"/><rect class="a" x="3.75" y="0.713" width="16.5" height="19.5" rx="2" ry="2"/><line class="a" x1="20.25" y1="14.213" x2="3.75" y2="14.213"/><line class="a" x1="14.25" y1="17.213" x2="17.25" y2="17.213"/><line class="a" x1="6.75" y1="17.213" x2="9.75" y2="17.213"/><line class="a" x1="9.75" y1="3.713" x2="14.25" y2="3.713"/></svg>