<svg xmlns="http://www.w3.org/2000/svg" viewBox="0 0 24 24"><defs><style>.a{fill:none;stroke:currentColor;stroke-linecap:round;stroke-linejoin:round;stroke-width:1.5px;}</style></defs><title>bus-ticket</title><path class="a" d="M5.25,19.811v1.9a1.5,1.5,0,0,0,3,0v-1.5"/><path class="a" d="M3.75,5.213H2.25a1.5,1.5,0,0,0-1.5,1.5v3"/><path class="a" d="M20.25,5.213h1.5a1.5,1.5,0,0,1,1.5,1.5v3"/><path class="a" d="M8.25,20.213H6.75a3,3,0,0,1-3-3V3.713a3,3,0,0,1,3-3h10.5a3,3,0,0,1,3,3v7.5"/><line class="a" x1="8.25" y1="14.213" x2="3.75" y2="14.213"/><line class="a" x1="6.75" y1="17.213" x2="8.25" y2="17.213"/><line class="a" x1="9.75" y1="3.713" x2="14.25" y2="3.713"/><rect class="a" x="11.25" y="14.213" width="12" height="9" rx="1.5" ry="1.5"/><line class="a" x1="11.25" y1="17.213" x2="23.25" y2="17.213"/><line class="a" x1="14.25" y1="20.213" x2="16.5" y2="20.213"/></svg>