<svg xmlns="http://www.w3.org/2000/svg" viewBox="0 0 24 24"><defs><style>.a{fill:none;stroke:currentColor;stroke-linecap:round;stroke-linejoin:round;stroke-width:1.5px;}</style></defs><title>bus-1</title><path class="a" d="M3,20.213v1.5a1.5,1.5,0,0,0,3,0v-1.5"/><path class="a" d="M21,20.213v1.5a1.5,1.5,0,0,1-3,0v-1.5"/><path class="a" d="M22.5,18.713a1.5,1.5,0,0,1-1.5,1.5H3a1.5,1.5,0,0,1,0-3H21A1.5,1.5,0,0,1,22.5,18.713Z"/><path class="a" d="M5,11.213H19a2,2,0,0,1,2,2v4a0,0,0,0,1,0,0H3a0,0,0,0,1,0,0v-4A2,2,0,0,1,5,11.213Z"/><path class="a" d="M6,13.838a.375.375,0,0,1,.375.375"/><path class="a" d="M5.625,14.213A.375.375,0,0,1,6,13.838"/><path class="a" d="M6,14.588a.375.375,0,0,1-.375-.375"/><path class="a" d="M6.375,14.213A.375.375,0,0,1,6,14.588"/><path class="a" d="M18,13.838a.375.375,0,0,1,.375.375"/><path class="a" d="M17.625,14.213A.375.375,0,0,1,18,13.838"/><path class="a" d="M18,14.588a.375.375,0,0,1-.375-.375"/><path class="a" d="M18.375,14.213a.375.375,0,0,1-.375.375"/><line class="a" x1="10.5" y1="14.213" x2="13.5" y2="14.213"/><path class="a" d="M19.5,11.276V3.713a3,3,0,0,0-3-3h-9a3,3,0,0,0-3,3v7.563"/><line class="a" x1="4.5" y1="3.713" x2="19.5" y2="3.713"/><line class="a" x1="12" y1="3.713" x2="12" y2="11.213"/><path class="a" d="M4.5,5.213H3a1.5,1.5,0,0,0-1.5,1.5v3"/><path class="a" d="M19.5,5.213H21a1.5,1.5,0,0,1,1.5,1.5v3"/></svg>