<svg xmlns="http://www.w3.org/2000/svg" viewBox="0 0 24 24"><defs><style>.a{fill:none;stroke:currentColor;stroke-linecap:round;stroke-linejoin:round;stroke-width:1.5px;}</style></defs><title>bus</title><path class="a" d="M5.25,20.213v1.5a1.5,1.5,0,0,0,3,0v-1.5"/><path class="a" d="M18.75,20.213v1.5a1.5,1.5,0,0,1-3,0v-1.5"/><path class="a" d="M20.25,18.713a1.5,1.5,0,0,1-1.5,1.5H5.25a1.5,1.5,0,0,1-1.5-1.5V5.213a4.5,4.5,0,0,1,4.5-4.5h7.5a4.5,4.5,0,0,1,4.5,4.5Z"/><line class="a" x1="9.75" y1="3.713" x2="14.25" y2="3.713"/><rect class="a" x="3.75" y="6.713" width="16.5" height="7.5"/><line class="a" x1="6.75" y1="17.213" x2="9.75" y2="17.213"/><line class="a" x1="14.25" y1="17.213" x2="17.25" y2="17.213"/><path class="a" d="M3.75,8.213H2.25a1.5,1.5,0,0,0-1.5,1.5v4.5"/><path class="a" d="M20.25,8.213h1.5a1.5,1.5,0,0,1,1.5,1.5v4.5"/></svg>