<svg xmlns="http://www.w3.org/2000/svg" viewBox="0 0 24 24"><defs><style>.a{fill:none;stroke:currentColor;stroke-linecap:round;stroke-linejoin:round;stroke-width:1.5px;}</style></defs><title>business-rabbit-hat</title><path class="a" d="M18.72,21.931a.977.977,0,0,1-.245.913,1.326,1.326,0,0,1-.974.406H5a1.326,1.326,0,0,1-.974-.406.977.977,0,0,1-.245-.913L5.941,13.5H16.559Z"/><line class="a" x1="2.25" y1="13.5" x2="20.25" y2="13.5"/><line class="a" x1="4.787" y1="18" x2="17.713" y2="18"/><path class="a" d="M12.235,13.5,10.819,3.828C10.574,2.159,9.773.57,8.1.815s-1.982,2-1.738,3.665L7.687,13.5"/><line class="a" x1="15.604" y1="13.5" x2="18.036" y2="7.246"/><path class="a" d="M17.067,6.221a3.248,3.248,0,0,0,4.146,1.264c1.066-.662.3-1.945-.2-2.712a5.475,5.475,0,0,0-3.473-2.446l-.046-.008a2.1,2.1,0,0,0-2.326,1.306c-2.88,7.359-3.163,8.094-3.184,8.153"/></svg>