<svg xmlns="http://www.w3.org/2000/svg" viewBox="0 0 24 24"><defs><style>.a{fill:none;stroke:currentColor;stroke-linecap:round;stroke-linejoin:round;stroke-width:1.5px;}</style></defs><title>business-shark-1</title><path class="a" d="M23.25,19.625a5.281,5.281,0,0,1-3.913-1.956,3.878,3.878,0,0,1-3.424,1.956A5.542,5.542,0,0,1,12,17.669a4,4,0,0,1-3.424,1.956,5.723,5.723,0,0,1-3.913-1.956A4.238,4.238,0,0,1,.75,19.625"/><path class="a" d="M23.25,13.919a5.281,5.281,0,0,1-3.913-1.957,3.878,3.878,0,0,1-3.424,1.957A5.541,5.541,0,0,1,12,11.962a4,4,0,0,1-3.424,1.957,5.723,5.723,0,0,1-3.913-1.957A4.238,4.238,0,0,1,.75,13.919"/><path class="a" d="M7.5,9.419V5a.751.751,0,0,1,.856-.743c1.86.263,6.31,1.285,8.894,5.162"/></svg>