<svg xmlns="http://www.w3.org/2000/svg" viewBox="0 0 24 24"><defs><style>.a{fill:none;stroke:currentColor;stroke-linecap:round;stroke-linejoin:round;stroke-width:1.5px;}</style></defs><title>business-deal-negotiate</title><path class="a" d="M.75,4.994c4.4,1.063,5.48,5.707,7.5,10.756H6v2.785A2.465,2.465,0,0,1,3.535,21H2.25v2.25"/><path class="a" d="M23.25,4.994c-4.4,1.063-5.481,5.707-7.5,10.756H18v2.785A2.465,2.465,0,0,0,20.464,21H21.75v2.25"/><path class="a" d="M8.25,7.5H10.5v3l3.75-3H16.5a.75.75,0,0,0,.75-.75V1.5A.75.75,0,0,0,16.5.75H8.25a.75.75,0,0,0-.75.75V6.75A.75.75,0,0,0,8.25,7.5Z"/></svg>