<svg xmlns="http://www.w3.org/2000/svg" viewBox="0 0 24 24"><defs><style>.a{fill:none;stroke:currentColor;stroke-linecap:round;stroke-linejoin:round;stroke-width:1.5px;}</style></defs><title>business-contract-give</title><path class="a" d="M.75,2.217l1.5,1.892V8.576c-.04,1.688,1.917,3.2,3.749,4.752"/><path class="a" d="M5.231,7.358,7,9.17a1.218,1.218,0,1,0,1.745-1.7L5.994,4.663V3.2A6.286,6.286,0,0,0,5.016.75"/><path class="a" d="M6,8.138V20.25a1.5,1.5,0,0,0,1.5,1.5h6.75"/><path class="a" d="M23.25,21.782l-1.5-1.892V15.424c.035-1.459-1.421-2.786-3-4.12"/><path class="a" d="M9.75,3.75h7.5a1.5,1.5,0,0,1,1.5,1.5V16.62L17,14.83a1.218,1.218,0,1,0-1.745,1.7l2.755,2.808V20.8a6.293,6.293,0,0,0,.978,2.446"/></svg>