<svg xmlns="http://www.w3.org/2000/svg" viewBox="0 0 24 24"><defs><style>.a{fill:none;stroke:currentColor;stroke-linecap:round;stroke-linejoin:round;stroke-width:1.5px;}</style></defs><title>business-message-bottle</title><path class="a" d="M.75,18.083a8.983,8.983,0,0,1,6-2.25c3.75,0,10.5,6.334,16.5.334"/><path class="a" d="M.75,22.583a8.983,8.983,0,0,1,6-2.25c3.75,0,10.5,6.334,16.5.334"/><path class="a" d="M16.915,18.737l3.729-7.6a3.749,3.749,0,0,0-.025-3.354,3.749,3.749,0,0,1-.025-3.354L21.75,2.071,19.057.749,17.9,3.106a3.751,3.751,0,0,1-2.668,2.033,3.752,3.752,0,0,0-2.669,2.032L8.2,16.068"/><polyline class="a" points="11.026 17.117 14.762 9.503 17.456 10.824 13.856 18.161"/><line class="a" x1="17.719" y1="3.434" x2="20.446" y2="4.772"/></svg>