<svg xmlns="http://www.w3.org/2000/svg" viewBox="0 0 24 24"><defs><style>.a{fill:none;stroke:currentColor;stroke-linecap:round;stroke-linejoin:round;stroke-width:1.5px;}</style></defs><title>business-burn-money</title><path class="a" d="M8.05,13.5a3.887,3.887,0,0,0-.394,4.432A1.385,1.385,0,0,0,9.133,16.75,3.134,3.134,0,0,1,10.758,19.7,3.546,3.546,0,0,1,7.213,23.25,3.6,3.6,0,0,1,3.667,19.7,5.894,5.894,0,0,1,8.05,13.5Z"/><path class="a" d="M1.5,13.523,13.834,1.189a1.5,1.5,0,0,1,2.121,0l6.364,6.364a1.5,1.5,0,0,1,0,2.121l-7.974,7.975"/><circle class="a" cx="12.258" cy="11.25" r="2.25"/><line class="a" x1="13.303" y1="5.962" x2="14.894" y2="4.371"/></svg>