<svg xmlns="http://www.w3.org/2000/svg" viewBox="0 0 24 24"><defs><style>.a{fill:none;stroke:currentColor;stroke-linecap:round;stroke-linejoin:round;stroke-width:1.5px;}</style></defs><title>business-deal-cash-exchange</title><circle class="a" cx="5.252" cy="3.375" r="2.625"/><path class="a" d="M7.283,11.25H.752A4.5,4.5,0,0,1,8.585,8.226"/><path class="a" d="M18.249,12.8a2.626,2.626,0,1,1-1.59,4.163"/><path class="a" d="M14.252,23.25a4.5,4.5,0,0,1,9,0Z"/><path class="a" d="M10.894,14.594a2.221,2.221,0,0,0,1.858.875c1.139,0,2.063-.693,2.063-1.547s-.924-1.546-2.063-1.546-2.062-.693-2.062-1.548.923-1.547,2.062-1.547a2.221,2.221,0,0,1,1.858.875"/><line class="a" x1="12.752" y1="15.469" x2="12.752" y2="16.5"/><line class="a" x1="12.752" y1="8.25" x2="12.752" y2="9.281"/><polyline class="a" points="7.502 18 5.252 20.25 7.502 22.5"/><line class="a" x1="5.252" y1="20.25" x2="10.502" y2="20.25"/><polyline class="a" points="16.502 1.5 18.752 3.75 16.502 6"/><line class="a" x1="18.752" y1="3.75" x2="13.502" y2="3.75"/></svg>