<svg xmlns="http://www.w3.org/2000/svg" viewBox="0 0 24 24"><defs><style>.a{fill:none;stroke:currentColor;stroke-linecap:round;stroke-linejoin:round;stroke-width:1.5px;}</style></defs><title>business-deal-cash-3</title><path class="a" d="M13.5,3.75H11.466a1.342,1.342,0,0,0-.5,2.587l2.063.825a1.342,1.342,0,0,1-.5,2.588H10.5"/><line class="a" x1="12" y1="3.75" x2="12" y2="3"/><line class="a" x1="12" y1="10.5" x2="12" y2="9.75"/><path class="a" d="M15.853,2.15a6,6,0,0,0-7.746.033"/><path class="a" d="M10.334,12.515a6.022,6.022,0,0,0,3.356-.007"/><circle class="a" cx="4.5" cy="6.75" r="3"/><path class="a" d="M8.25,17.25V15a3.75,3.75,0,0,0-7.5,0v2.25h1.5l.75,6H6l.75-6Z"/><circle class="a" cx="19.5" cy="6.75" r="3"/><path class="a" d="M23.25,17.25V15a3.75,3.75,0,0,0-7.5,0v2.25h1.5l.75,6h3l.75-6Z"/></svg>