<svg xmlns="http://www.w3.org/2000/svg" viewBox="0 0 24 24"><defs><style>.a{fill:none;stroke:currentColor;stroke-linecap:round;stroke-linejoin:round;stroke-width:1.5px;}</style></defs><title>business-piggy-bank-broken</title><path class="a" d="M8.625,6a.375.375,0,1,1-.375.375A.376.376,0,0,1,8.625,6"/><line class="a" x1="8.25" y1="13.395" x2="8.25" y2="17.152"/><path class="a" d="M14.707,9.016,11.789,6.828a.489.489,0,0,1-.172-.54l1.391-4.346a9.546,9.546,0,0,0-2.43.2A2.907,2.907,0,0,0,6.672,1.119a2.742,2.742,0,0,1,1.4,1.986A6.354,6.354,0,0,0,4.9,7.5H3v3H5.25a7.874,7.874,0,0,0,6,3.848Z"/><path class="a" d="M16.6,6.1a.488.488,0,0,0,.074.6l1.9,1.9a.487.487,0,0,1,.067.608l-3.21,5.044c.029,0,.056.006.085.006,4.274,0,7.738-2.8,7.738-6.261,0-2.511-1.824-4.645-4.405-5.644Z"/><ellipse class="a" cx="3.375" cy="21.75" rx="2.625" ry="1.5"/><ellipse class="a" cx="20.625" cy="21.75" rx="2.625" ry="1.5"/><ellipse class="a" cx="12.375" cy="21" rx="2.625" ry="1.5"/><line class="a" x1="23.25" y1="17.25" x2="0.75" y2="17.25"/><line class="a" x1="19.5" y1="13.355" x2="19.5" y2="17.25"/></svg>