<svg xmlns="http://www.w3.org/2000/svg" viewBox="0 0 24 24"><defs><style>.a{fill:none;stroke:currentColor;stroke-linecap:round;stroke-linejoin:round;stroke-width:1.5px;}</style></defs><title>business-contract-break</title><path class="a" d="M20.25,21.411v-2.13l2.67-3.906c.879-1.5-.186-3.865-1.052-6.175"/><path class="a" d="M19.85,15.91,18.9,12.469a1.218,1.218,0,1,0-2.35.641L17.6,16.9l-.711,1.283a10.462,10.462,0,0,0-.489,3.227"/><path class="a" d="M3.751,21.411v-2.13L1.079,15.375C.2,13.873,1.265,11.51,2.131,9.2"/><path class="a" d="M4.15,15.91,5.1,12.469a1.218,1.218,0,1,1,2.35.641L6.4,16.9l.711,1.283A10.462,10.462,0,0,1,7.6,21.411"/><polyline class="a" points="12 18.222 11.996 18.219 14.711 19.902"/><path class="a" d="M4.714,13.861,1.233,7.58a.979.979,0,0,1,.321-1.293L6.743,2.829a.49.49,0,0,1,.757.41V6.5H9.261a.489.489,0,0,1,.489.489V10.65l3,4.1v-4.5a.49.49,0,0,1,.052-.219L14.31,6.77a.489.489,0,0,1,.438-.27H16.5V3.239a.49.49,0,0,1,.757-.41l5.189,3.458a.979.979,0,0,1,.321,1.293l-3.481,6.281"/><polyline class="a" points="12 18.222 12.004 18.219 9.289 19.902"/></svg>