<svg xmlns="http://www.w3.org/2000/svg" viewBox="0 0 24 24"><defs><style>.a{fill:none;stroke:currentColor;stroke-linecap:round;stroke-linejoin:round;stroke-width:1.5px;}</style></defs><title>business-climb-top</title><path class="a" d="M4.25,23.229l8.5-13.5a1.261,1.261,0,0,1,2,0l8.5,13.5Z"/><polyline class="a" points="4.25 23.229 0.75 23.229 4.5 16.479 6.675 19.378"/><path class="a" d="M8.7,16.162l2.348,1.973a1,1,0,0,0,1.353-.056l.642-.643a1,1,0,0,1,1.414,0l.642.643a1,1,0,0,0,1.353.056L18.8,16.162"/><line class="a" x1="13.5" y1="9.267" x2="13.5" y2="0.729"/><path class="a" d="M13.5.729h7.193a.516.516,0,0,1,.466.3.529.529,0,0,1-.063.555L19.959,3.026a.532.532,0,0,0,0,.656L21.1,5.126a.531.531,0,0,1,.063.556.515.515,0,0,1-.466.3H13.5"/></svg>