<svg xmlns="http://www.w3.org/2000/svg" viewBox="0 0 24 24"><defs><style>.a{fill:none;stroke:currentColor;stroke-linecap:round;stroke-linejoin:round;stroke-width:1.5px;}</style></defs><title>business-paper-boat</title><path class="a" d="M3.812,18.625,21.687,8.638a.749.749,0,0,1,1.091.844l-2.223,8.481a1.512,1.512,0,0,1-1.44,1.065H4.835a1.48,1.48,0,0,1-1.02-.4"/><path class="a" d="M20.138,18.625,2.263,8.638a.749.749,0,0,0-1.091.844L3.4,17.963a1.512,1.512,0,0,0,1.44,1.065h14.28a1.48,1.48,0,0,0,1.02-.4"/><path class="a" d="M17.02,11.245,12.568,5.538a.751.751,0,0,0-1.184,0L6.95,11.256"/></svg>