<svg xmlns="http://www.w3.org/2000/svg" viewBox="0 0 24 24"><defs><style>.a{fill:none;stroke:currentColor;stroke-linecap:round;stroke-linejoin:round;stroke-width:1.5px;}</style></defs><title>business-magic-rabbit-hide</title><path class="a" d="M17.367,21.774a1.566,1.566,0,0,1-.249,1.032.948.948,0,0,1-.769.444H7.9a.948.948,0,0,1-.769-.444,1.566,1.566,0,0,1-.249-1.032l.882-9.024h8.72Z"/><line class="a" x1="3.875" y1="12.75" x2="20.375" y2="12.75"/><line class="a" x1="7.398" y1="16.5" x2="16.852" y2="16.5"/><path class="a" d="M10.25,9.75a.375.375,0,1,0,.375.375.374.374,0,0,0-.375-.375h0"/><path class="a" d="M14,9.75a.375.375,0,1,0,.375.375A.374.374,0,0,0,14,9.75h0"/><path class="a" d="M16.236,12.746A4.859,4.859,0,0,0,16.2,7.458c1.274-.962,3.386-2.581,4.084-3.271,1.53-1.513-1.019-4.537-3.059-3.025a25.512,25.512,0,0,0-3.358,4.422,4.7,4.7,0,0,0-3.482,0A25.473,25.473,0,0,0,7.026,1.162C4.986-.35,2.437,2.674,3.967,4.187c.7.69,2.809,2.309,4.083,3.271a4.861,4.861,0,0,0-.03,5.3"/></svg>