<svg xmlns="http://www.w3.org/2000/svg" viewBox="0 0 24 24"><defs><style>.a{fill:none;stroke:currentColor;stroke-linecap:round;stroke-linejoin:round;stroke-width:1.5px;}</style></defs><title>business-lucky-cat</title><path class="a" d="M17.92,11.7a9.832,9.832,0,0,1,2.33,6.11c0,3.631-3.694,5.379-8.25,5.379s-8.25-1.748-8.25-5.379A9.838,9.838,0,0,1,6.084,11.7"/><path class="a" d="M10.125,7.5a.375.375,0,1,1-.375.375.375.375,0,0,1,.375-.375"/><circle class="a" cx="12" cy="16.125" r="1.875"/><path class="a" d="M13.875,7.5a.375.375,0,1,1-.375.375.375.375,0,0,1,.375-.375"/><path class="a" d="M17.25,1.609a.858.858,0,0,0-1.394-.67L14.3,2.792A7.31,7.31,0,0,0,12,2.4a7.315,7.315,0,0,0-2.295.394L8.144.939a.858.858,0,0,0-1.394.67c0,7.406-1.5,2.593-1.5,8.082,0,2.842,3.75,3.75,6.75,3.75s6.75-.908,6.75-3.75C18.75,4.213,17.25,9,17.25,1.609Z"/><path class="a" d="M5.778,6.62A3.068,3.068,0,0,0,.75,8.941v2.25A4.962,4.962,0,0,0,4.066,15.56"/><path class="a" d="M18.2,12.033A4.5,4.5,0,0,1,23.25,16.5v2.191A2.25,2.25,0,0,1,21,20.941H19.011"/></svg>