<svg xmlns="http://www.w3.org/2000/svg" viewBox="0 0 24 24"><defs><style>.a{fill:none;stroke:currentColor;stroke-linecap:round;stroke-linejoin:round;stroke-width:1.5px;}</style></defs><title>business-deal-cash-2</title><path class="a" d="M10.144,7.094A2.221,2.221,0,0,0,12,7.969c1.139,0,2.063-.693,2.063-1.547S13.141,4.876,12,4.876,9.94,4.183,9.94,3.328,10.863,1.781,12,1.781a2.221,2.221,0,0,1,1.858.875"/><line class="a" x1="12.002" y1="7.969" x2="12.002" y2="9"/><line class="a" x1="12.002" y1="0.75" x2="12.002" y2="1.781"/><circle class="a" cx="4.502" cy="6.75" r="3"/><path class="a" d="M8.252,17.25V15a3.75,3.75,0,0,0-7.5,0v2.25h1.5l.75,6H6l.75-6Z"/><circle class="a" cx="19.502" cy="6.75" r="3"/><path class="a" d="M23.252,17.25V15a3.75,3.75,0,1,0-7.5,0v2.25h1.5l.75,6h3l.75-6Z"/></svg>