<svg xmlns="http://www.w3.org/2000/svg" viewBox="0 0 24 24"><defs><style>.a{fill:none;stroke:currentColor;stroke-linecap:round;stroke-linejoin:round;stroke-width:1.5px;}</style></defs><title>business-human-plant</title><path class="a" d="M15.5,23.25V20.315h1.088a2.935,2.935,0,0,0,2.935-2.935V14.445h3.314C20.69,8,19.461.75,11.342.75A9.53,9.53,0,0,0,5.717,17.978V23.25"/><path class="a" d="M8.621,14.113a2.242,2.242,0,0,1-2.778-1.445,2.241,2.241,0,0,1,.8-3.028,2.242,2.242,0,0,1,2.778,1.445"/><path class="a" d="M17.212,9.75a.375.375,0,1,1-.375.375.375.375,0,0,1,.375-.375"/><polyline class="a" points="11 3.815 10.25 5.315 11 6.815"/><polyline class="a" points="8 3.815 7.25 5.315 8 6.815"/><polyline class="a" points="14 3.815 13.25 5.315 14 6.815"/><line class="a" x1="1.25" y1="5.315" x2="15.5" y2="5.315"/></svg>