<svg xmlns="http://www.w3.org/2000/svg" viewBox="0 0 24 24"><defs><style>.a{fill:none;stroke:currentColor;stroke-linecap:round;stroke-linejoin:round;stroke-width:1.5px;}</style></defs><title>business-big-small-fish</title><path class="a" d="M15.75,8.625C14.363,5.989,12.361,5.25,9.857,5.25A5.98,5.98,0,0,0,3.75,10.5L1.691,8.641A.519.519,0,0,0,1.1,8.482a.562.562,0,0,0-.349.527V14.99a.562.562,0,0,0,.349.527.519.519,0,0,0,.592-.159L3.75,13.5a5.981,5.981,0,0,0,6.107,5.25,6.223,6.223,0,0,0,5.893-3.375L11.464,12Z"/><circle class="a" cx="21" cy="12" r="2.25"/><line class="a" x1="18.75" y1="12" x2="17.25" y2="10.5"/><line class="a" x1="17.25" y1="13.5" x2="18.75" y2="12"/><path class="a" d="M9.375,8.25A.375.375,0,1,1,9,8.625a.375.375,0,0,1,.375-.375"/></svg>