<svg xmlns="http://www.w3.org/2000/svg" viewBox="0 0 24 24"><defs><style>.a{fill:none;stroke:currentColor;stroke-linecap:round;stroke-linejoin:round;stroke-width:1.5px;}</style></defs><title>business-trip-plane</title><path class="a" d="M6,8.94C3.838,8.629.794,7.159.751,6.321.7,5.373,3.8,2.934,7.108,3h9.783l2.185-1.76a1.733,1.733,0,0,1,1.467-.49H22.5L18.848,7.826A2.555,2.555,0,0,1,16.63,9H13.467"/><path class="a" d="M11,10.5H6.5A.5.5,0,0,1,6,9.994V7.972a.5.5,0,0,1,.5-.506H11c1.151,0,1.465.47,2.5,1.517C12.04,10.509,11.7,10.5,11,10.5Z"/><line class="a" x1="18.359" y1="5.999" x2="21.293" y2="5.999"/><rect class="a" x="11.25" y="14.999" width="12" height="8.25" rx="0.677" ry="0.677"/><path class="a" d="M14.413,15l1.011-2.021A1.477,1.477,0,0,1,16.891,12h.978a1.478,1.478,0,0,1,1.468.979L20.348,15"/><line class="a" x1="11.25" y1="18.749" x2="23.25" y2="18.749"/><line class="a" x1="17.25" y1="18.749" x2="17.25" y2="20.804"/><line class="a" x1="8.25" y1="5.249" x2="9" y2="5.249"/><line class="a" x1="12.75" y1="5.249" x2="13.5" y2="5.249"/></svg>