<svg xmlns="http://www.w3.org/2000/svg" viewBox="0 0 24 24"><defs><style>.a{fill:none;stroke:currentColor;stroke-linecap:round;stroke-linejoin:round;stroke-width:1.5px;}</style></defs><title>business-contract-approve</title><path class="a" d="M.75,2.217l1.5,1.892V8.576c-.04,1.688,1.917,3.2,3.749,4.752"/><path class="a" d="M5.231,7.358,7,9.17a1.218,1.218,0,1,0,1.745-1.7L5.994,4.663V3.2A6.286,6.286,0,0,0,5.016.75"/><path class="a" d="M6,8.138V20.25a1.5,1.5,0,0,0,1.5,1.5H15"/><path class="a" d="M23.25,21.782l-1.5-1.892V15.424c.035-1.459-1.421-2.786-3-4.12v5.318L17,14.83a1.218,1.218,0,1,0-1.745,1.7l2.755,2.808V20.8a6.293,6.293,0,0,0,.978,2.446"/><line class="a" x1="12.978" y1="18" x2="9" y2="18"/><line class="a" x1="10.5" y1="14.25" x2="9" y2="14.25"/><path class="a" d="M20.25,5.25a4.5,4.5,0,1,1-4.5-4.5"/><path class="a" d="M20.25,1.874l-4.1,4.1a.564.564,0,0,1-.8,0l-1.289-1.29"/></svg>