<svg xmlns="http://www.w3.org/2000/svg" viewBox="0 0 24 24"><defs><style>.a{fill:none;stroke:currentColor;stroke-linecap:round;stroke-linejoin:round;stroke-width:1.5px;}</style></defs><title>business-climb-top-1</title><path class="a" d="M4.25,23.229l8.5-13.5a1.261,1.261,0,0,1,2,0l8.5,13.5Z"/><polyline class="a" points="4.25 23.229 0.75 23.229 4.5 16.479 6.675 19.379"/><path class="a" d="M8.711,16.144l2.337,1.991a1,1,0,0,0,1.353-.056l.642-.642a1,1,0,0,1,1.414,0l.642.642a1,1,0,0,0,1.353.056l2.353-1.966"/><line class="a" x1="13.5" y1="9.267" x2="13.5" y2="0.729"/><polyline class="a" points="13.5 0.729 17.25 0.729 17.25 2.229 21.75 2.229 20.25 4.479 21.75 6.729 17.25 6.729 17.25 5.979 13.5 5.979"/></svg>