<svg xmlns="http://www.w3.org/2000/svg" viewBox="0 0 24 24"><defs><style>.a{fill:none;stroke:currentColor;stroke-linecap:round;stroke-linejoin:round;stroke-width:1.5px;}</style></defs><title>business-boat-success</title><path class="a" d="M23.25,23.25a5.281,5.281,0,0,1-3.913-1.957,3.878,3.878,0,0,1-3.424,1.957A5.541,5.541,0,0,1,12,21.293,4,4,0,0,1,8.576,23.25a5.723,5.723,0,0,1-3.913-1.957A4.238,4.238,0,0,1,.75,23.25"/><path class="a" d="M23.25,18.456A5.281,5.281,0,0,1,19.337,16.5a3.878,3.878,0,0,1-3.424,1.956A5.542,5.542,0,0,1,12,16.5a4,4,0,0,1-3.424,1.956A5.723,5.723,0,0,1,4.663,16.5,4.238,4.238,0,0,1,.75,18.456"/><path class="a" d="M7.6,11.244l4.023-4.336a.534.534,0,0,1,.758,0L16.4,11.244"/><path class="a" d="M7.326,18.262l-3.76-6.389a.387.387,0,0,1,.017-.422A.5.5,0,0,1,4,11.244h16a.507.507,0,0,1,.418.206.389.389,0,0,1,.018.421l-3.708,6.4"/><path class="a" d="M20.38,6a2.756,2.756,0,0,0,2.87-2.625A2.756,2.756,0,0,0,20.38.75a2.811,2.811,0,0,0-2.815,2.134,1.914,1.914,0,0,0-.772-.166A1.722,1.722,0,0,0,15,4.359,1.722,1.722,0,0,0,16.793,6Z"/></svg>