<svg xmlns="http://www.w3.org/2000/svg" viewBox="0 0 24 24"><defs><style>.a{fill:none;stroke:currentColor;stroke-linecap:round;stroke-linejoin:round;stroke-width:1.5px;}</style></defs><title>business-deal-men-cash</title><path class="a" d="M17.625,2.249H15a1.341,1.341,0,0,0-.5,2.587l2.655.825a1.342,1.342,0,0,1-.5,2.588H13.5"/><line class="a" x1="15.75" y1="2.249" x2="15.75" y2="0.749"/><line class="a" x1="15.75" y1="9.749" x2="15.75" y2="8.249"/><path class="a" d="M21,.749h.75a1.5,1.5,0,0,1,1.5,1.5V10.5a1.5,1.5,0,0,1-1.5,1.5h-4.5l-4.5,4.5V12h-3a1.5,1.5,0,0,1-1.5-1.5V2.249a1.5,1.5,0,0,1,1.5-1.5h1.5"/><circle class="a" cx="4.975" cy="15.749" r="3"/><path class="a" d="M9.2,23.249a4.474,4.474,0,0,0-8.449,0"/><path class="a" d="M21.793,14.588A3,3,0,0,1,16.6,17.515"/><path class="a" d="M23.25,23.249a4.474,4.474,0,0,0-8.449,0"/></svg>