<svg xmlns="http://www.w3.org/2000/svg" viewBox="0 0 24 24"><defs><style>.a{fill:none;stroke:currentColor;stroke-linecap:round;stroke-linejoin:round;stroke-width:1.5px;}</style></defs><title>business-money-basket</title><path class="a" d="M6.718,5.731,2.05,7.793a1.5,1.5,0,0,0-.766,1.978L3.928,15.76"/><path class="a" d="M12.02,15.76l10.258-4.531a1.5,1.5,0,0,0,.767-1.978l-3.36-7.607A1.5,1.5,0,0,0,17.707.878L12.621,3.124"/><line class="a" x1="3.891" y1="18.407" x2="5.427" y2="23.172"/><line class="a" x1="9.028" y1="18.407" x2="9.816" y2="23.172"/><path class="a" d="M21.864,23.172l1.362-3.438a1.1,1.1,0,0,0-1.073-1.327H1.847A1.1,1.1,0,0,0,.774,19.734l1.362,3.438"/><line class="a" x1="20.129" y1="18.407" x2="18.593" y2="23.172"/><line class="a" x1="14.972" y1="18.407" x2="14.204" y2="23.172"/><path class="a" d="M10.715,11.24a2.221,2.221,0,0,0,2.052.094,1.861,1.861,0,0,0,1.308-2.222,1.861,1.861,0,0,0-2.5-.634,1.861,1.861,0,0,1-2.5-.636,1.861,1.861,0,0,1,1.308-2.221,2.224,2.224,0,0,1,2.052.093"/><line class="a" x1="12.767" y1="11.334" x2="13.163" y2="12.285"/><line class="a" x1="9.99" y1="4.67" x2="10.386" y2="5.621"/></svg>