<svg xmlns="http://www.w3.org/2000/svg" viewBox="0 0 24 24"><defs><style>.a{fill:none;stroke:currentColor;stroke-linecap:round;stroke-linejoin:round;stroke-width:1.5px;}</style></defs><title>business-flame</title><path class="a" d="M19.5,6.5h1.3a1.146,1.146,0,0,1,1.139.941l1.282,7.506a1.646,1.646,0,0,1,.025.29A1.786,1.786,0,0,1,21.443,17H2.557A1.786,1.786,0,0,1,.75,15.237a1.646,1.646,0,0,1,.025-.29L2.057,7.441A1.146,1.146,0,0,1,3.2,6.5H4.5"/><line class="a" x1="1.728" y1="20" x2="22.272" y2="20"/><line class="a" x1="3" y1="23" x2="21.587" y2="23"/><path class="a" d="M11.946,1.043a.49.49,0,0,1,.624.694A3.147,3.147,0,0,0,13.157,5.7a3.559,3.559,0,0,0,.907-1.5.489.489,0,0,1,.737-.257A5.1,5.1,0,0,1,17,8.145a4.892,4.892,0,1,1-9.783,0A7.959,7.959,0,0,1,11.946,1.043Z"/></svg>