<svg xmlns="http://www.w3.org/2000/svg" viewBox="0 0 24 24"><defs><style>.a{fill:none;stroke:currentColor;stroke-linecap:round;stroke-linejoin:round;stroke-width:1.5px;}</style></defs><title>cable-car-1</title><path class="a" d="M15,9.763v-1.5a1.5,1.5,0,0,0-1.5-1.5h-3A1.5,1.5,0,0,0,9,8.263v1.5"/><line class="a" x1="12" y1="6.763" x2="12" y2="2.263"/><line class="a" x1="0.75" y1="6.763" x2="23.25" y2="0.763"/><path class="a" d="M6.25,9.763h11.5a4,4,0,0,1,4,4v7.5a2,2,0,0,1-2,2H4.25a2,2,0,0,1-2-2v-7.5A4,4,0,0,1,6.25,9.763Z"/><line class="a" x1="21.75" y1="17.263" x2="2.25" y2="17.263"/><line class="a" x1="12" y1="9.763" x2="12" y2="17.263"/></svg>