<svg id="Regular" xmlns="http://www.w3.org/2000/svg" viewBox="0 0 24 24"><defs><style>.cls-1{fill:none;stroke:currentColor;stroke-linecap:round;stroke-linejoin:round;stroke-width:1.5px;}</style></defs><title>cake-flour</title><rect class="cls-1" x="1.473" y="0.75" width="21" height="4.5" rx="1.944" ry="1.944"/><path class="cls-1" d="M19.473,9.112V21.75a1.5,1.5,0,0,1-1.5,1.5h-12a1.5,1.5,0,0,1-1.5-1.5V9.112"/><rect class="cls-1" x="7.473" y="12.75" width="9" height="6" rx="1.5" ry="1.5"/><path class="cls-1" d="M3.574,5.25,3.081,6.969a1.5,1.5,0,0,0,.722,1.9l1.5.548a1.5,1.5,0,0,0,1.341,0L8.3,8.585a1.5,1.5,0,0,1,1.341,0l1.659.83a1.5,1.5,0,0,0,1.341,0l1.659-.83a1.5,1.5,0,0,1,1.341,0l1.659.83a1.5,1.5,0,0,0,1.341,0l1.5-.548a1.5,1.5,0,0,0,.722-1.9L20.32,5.25"/></svg>