<svg id="Regular" xmlns="http://www.w3.org/2000/svg" viewBox="0 0 24 24"><defs><style>.cls-1{fill:none;stroke:currentColor;stroke-linecap:round;stroke-linejoin:round;stroke-width:1.5px;}</style></defs><title>cake-sugar-cane</title><path class="cls-1" d="M17.973,23.25A2.25,2.25,0,0,1,15.723,21V9a3.75,3.75,0,0,0-7.5,0,2.25,2.25,0,0,1-4.5,0,8.25,8.25,0,0,1,16.5,0V21A2.25,2.25,0,0,1,17.973,23.25Z"/><line class="cls-1" x1="3.725" y1="8.833" x2="8.424" y2="7.789"/><line class="cls-1" x1="6.262" y1="3.052" x2="10.321" y2="5.634"/><line class="cls-1" x1="12.14" y1="0.752" x2="13.184" y2="5.451"/><line class="cls-1" x1="17.922" y1="3.289" x2="15.339" y2="7.347"/><line class="cls-1" x1="20.223" y1="9.167" x2="15.723" y2="10.167"/><line class="cls-1" x1="20.223" y1="13.667" x2="15.723" y2="14.667"/><line class="cls-1" x1="20.223" y1="18.167" x2="15.723" y2="19.167"/></svg>