<svg id="Regular" xmlns="http://www.w3.org/2000/svg" viewBox="0 0 24 24"><defs><style>.cls-1{fill:none;stroke:currentColor;stroke-linecap:round;stroke-linejoin:round;stroke-width:1.5px;}</style></defs><title>cake-sifter</title><line class="cls-1" x1="2.197" y1="14.25" x2="2.197" y2="16.5"/><line class="cls-1" x1="2.197" y1="19.5" x2="2.197" y2="21.75"/><line class="cls-1" x1="11.197" y1="14.25" x2="11.197" y2="16.5"/><line class="cls-1" x1="11.197" y1="19.5" x2="11.197" y2="21.75"/><line class="cls-1" x1="6.697" y1="15.75" x2="6.697" y2="18"/><line class="cls-1" x1="6.697" y1="21" x2="6.697" y2="23.25"/><line class="cls-1" x1="23.197" y1="5.25" x2="12.697" y2="5.25"/><path class="cls-1" d="M11.786,5.25a4.014,4.014,0,0,0,.161-1.125,3.373,3.373,0,0,0-6.5-1.257A1.853,1.853,0,0,0,4.072,2.25,1.874,1.874,0,0,0,2.2,4.125,2.925,2.925,0,0,0,2.421,5.25"/><path class="cls-1" d="M12.7,5.25A6,6,0,0,1,.758,6.106.75.75,0,0,1,1.5,5.25Z"/></svg>