<svg id="Regular" xmlns="http://www.w3.org/2000/svg" viewBox="0 0 24 24"><defs><style>.cls-1{fill:none;stroke:currentColor;stroke-linecap:round;stroke-linejoin:round;stroke-width:1.5px;}</style></defs><title>cake-cream</title><path class="cls-1" d="M18.306,23.25H5.64a1.5,1.5,0,0,1-1.491-1.334l-1.166-12A1.5,1.5,0,0,1,4.473,8.25h15a1.5,1.5,0,0,1,1.491,1.666l-1.167,12A1.5,1.5,0,0,1,18.306,23.25Z"/><line class="cls-1" x1="7.473" y1="8.25" x2="7.473" y2="23.25"/><line class="cls-1" x1="11.973" y1="8.25" x2="11.973" y2="23.25"/><line class="cls-1" x1="16.473" y1="8.25" x2="16.473" y2="23.25"/><path class="cls-1" d="M19.367,5.25a2.952,2.952,0,0,0-3.894-2.066,3.733,3.733,0,0,0-7,0,2.962,2.962,0,0,0-1-.184A2.993,2.993,0,0,0,4.579,5.25"/></svg>