<svg id="Regular" xmlns="http://www.w3.org/2000/svg" viewBox="0 0 24 24"><defs><style>.cls-1{fill:none;stroke:currentColor;stroke-linecap:round;stroke-linejoin:round;stroke-width:1.5px;}</style></defs><title>cake-birthday</title><line class="cls-1" x1="1.473" y1="23.25" x2="22.473" y2="23.25"/><rect class="cls-1" x="2.973" y="9.75" width="18" height="10.5" rx="1.5" ry="1.5"/><line class="cls-1" x1="11.973" y1="7.5" x2="11.973" y2="9.75"/><path class="cls-1" d="M13.473,3a1.5,1.5,0,0,1-3,0c0-.828,1.5-2.25,1.5-2.25S13.473,2.172,13.473,3Z"/><line class="cls-1" x1="17.973" y1="7.5" x2="17.973" y2="9.75"/><path class="cls-1" d="M19.473,3a1.5,1.5,0,0,1-3,0c0-.828,1.5-2.25,1.5-2.25S19.473,2.172,19.473,3Z"/><line class="cls-1" x1="5.973" y1="7.5" x2="5.973" y2="9.75"/><path class="cls-1" d="M7.473,3a1.5,1.5,0,0,1-3,0c0-.828,1.5-2.25,1.5-2.25S7.473,2.172,7.473,3Z"/><path class="cls-1" d="M2.973,13.125a2.622,2.622,0,0,0,4.5,1.833,2.61,2.61,0,0,0,4.125-.5,2.605,2.605,0,0,0,4.5,0,2.618,2.618,0,0,0,4.875-1.333"/></svg>