<svg id="Regular" xmlns="http://www.w3.org/2000/svg" viewBox="0 0 24 24"><defs><style>.cls-1{fill:none;stroke:currentColor;stroke-linecap:round;stroke-linejoin:round;stroke-width:1.5px;}</style></defs><title>camping-shelter</title><rect class="cls-1" x="0.75" y="20.25" width="7.5" height="3"/><rect class="cls-1" x="0.75" y="14.25" width="7.5" height="3"/><rect class="cls-1" x="15.75" y="20.25" width="7.5" height="3"/><rect class="cls-1" x="15.75" y="14.25" width="7.5" height="3"/><rect class="cls-1" x="0.75" y="6.75" width="22.5" height="4.5"/><path class="cls-1" d="M23.25,6.75,12.75.926a1.5,1.5,0,0,0-1.412,0L.75,6.75Z"/><rect class="cls-1" x="0.75" y="20.25" width="7.5" height="3"/><rect class="cls-1" x="0.75" y="14.25" width="7.5" height="3"/><rect class="cls-1" x="15.75" y="20.25" width="7.5" height="3"/><rect class="cls-1" x="15.75" y="14.25" width="7.5" height="3"/><rect class="cls-1" x="0.75" y="6.75" width="22.5" height="4.5"/><path class="cls-1" d="M23.25,6.75,12.75.926a1.5,1.5,0,0,0-1.412,0L.75,6.75Z"/></svg>