<svg id="Regular" xmlns="http://www.w3.org/2000/svg" viewBox="0 0 24 24"><defs><style>.cls-1{fill:none;stroke:currentColor;stroke-linecap:round;stroke-linejoin:round;stroke-width:1.5px;}</style></defs><title>camping-tent-sleep</title><circle class="cls-1" cx="6.606" cy="18.75" r="2.25"/><path class="cls-1" d="M11.106,16.5h6.25a2,2,0,0,1,2,2V21a0,0,0,0,1,0,0h-8.25a0,0,0,0,1,0,0V16.5A0,0,0,0,1,11.106,16.5Z"/><path class="cls-1" d="M11.856,4.5l8.733,5.822a.751.751,0,0,1,.323.494L22.951,22.37a.75.75,0,0,1-.739.88H1.5a.75.75,0,0,1-.739-.88L2.8,10.816a.751.751,0,0,1,.323-.494Z"/><line class="cls-1" x1="11.856" y1="4.5" x2="11.856" y2="0.75"/></svg>