<svg id="Regular" xmlns="http://www.w3.org/2000/svg" viewBox="0 0 24 24"><defs><style>.cls-1{fill:none;stroke:currentColor;stroke-linecap:round;stroke-linejoin:round;stroke-width:1.5px;}</style></defs><title>camping-rv</title><path class="cls-1" d="M3.75,12.75H2.25a1.5,1.5,0,0,1-1.5-1.5v-9A1.5,1.5,0,0,1,2.25.75h18a1.5,1.5,0,0,1,1.5,1.5v10.5h-6"/><line class="cls-1" x1="21.75" y1="12.75" x2="23.25" y2="12.75"/><circle class="cls-1" cx="9.75" cy="12.75" r="3"/><rect class="cls-1" x="3.75" y="3.75" width="7.5" height="3"/><rect class="cls-1" x="14.25" y="3.75" width="4.5" height="3"/><path class="cls-1" d="M18,23.25a2.25,2.25,0,0,1,0-4.5h2.25v4.5Z"/><line class="cls-1" x1="20.25" y1="19.5" x2="23.25" y2="19.5"/><line class="cls-1" x1="20.25" y1="21.75" x2="23.25" y2="21.75"/><path class="cls-1" d="M15.75,21H6a3,3,0,0,1-3-3V12.75"/></svg>