<svg id="Regular" xmlns="http://www.w3.org/2000/svg" viewBox="0 0 24 24"><defs><style>.cls-1{fill:none;stroke:currentColor;stroke-linecap:round;stroke-linejoin:round;stroke-width:1.5px;}</style></defs><title>camping-tent-person</title><path class="cls-1" d="M15.75,5V6.5a3,3,0,0,0,6,0V5"/><line class="cls-1" x1="15" y1="5" x2="22.5" y2="5"/><polygon class="cls-1" points="21.75 5 15.75 5 16.5 1.25 18.75 2 21 1.25 21.75 5"/><path class="cls-1" d="M16.5,23V20h-.75a1.5,1.5,0,0,1-1.5-1.5V14a3,3,0,0,1,3-3h3a3,3,0,0,1,3,3v4.5a1.5,1.5,0,0,1-1.5,1.5H21v3"/><path class="cls-1" d="M11.25,20H1.964a.75.75,0,0,1-.671-1.085L6.75,8l3,6"/><polyline class="cls-1" points="4.5 20 6.75 15.5 7.65 17.3"/><path class="cls-1" d="M6.75,8V3.5L9.8,4.515a.751.751,0,0,1,.179,1.336L9,6.5"/></svg>