<svg id="Regular" xmlns="http://www.w3.org/2000/svg" viewBox="0 0 24 24"><defs><style>.cls-1{fill:none;stroke:currentColor;stroke-linecap:round;stroke-linejoin:round;stroke-width:1.5px;}</style></defs><title>candle</title><path class="cls-1" d="M10.516.936A3.74,3.74,0,0,1,10.894,5.2,1.334,1.334,0,0,1,9.473,4.062,3.015,3.015,0,0,0,7.91,6.9a3.411,3.411,0,0,0,3.411,3.41,3.457,3.457,0,0,0,3.41-3.41A5.669,5.669,0,0,0,10.516.936Z"/><path class="cls-1" d="M15.75,23.064H8.25a.75.75,0,0,1-.75-.75v-6.25a.749.749,0,0,1,.462-.692l7.5-3.125a.749.749,0,0,1,1.038.692v9.375A.75.75,0,0,1,15.75,23.064Z"/></svg>