<svg id="Regular" xmlns="http://www.w3.org/2000/svg" viewBox="0 0 24 24"><defs><style>.cls-1{fill:none;stroke:currentColor;stroke-linecap:round;stroke-linejoin:round;stroke-width:1.5px;}</style></defs><title>candy-jar</title><rect class="cls-1" x="4.473" y="0.75" width="15" height="4.5" rx="1.448" ry="1.448"/><path class="cls-1" d="M5.7,5.23c-7.186,3.69-3.77,14.181-.155,17.645a1.431,1.431,0,0,0,1,.375H17.4a1.429,1.429,0,0,0,1-.375c3.615-3.464,7.03-13.952-.151-17.644"/><polygon class="cls-1" points="14.973 12.973 14.973 9.568 11.946 8.25 8.973 9.568 8.973 12.973 11.946 14.291 14.973 12.973"/><polygon class="cls-1" points="11.946 17.696 11.946 14.291 8.973 12.973 5.973 14.291 5.973 17.696 8.946 19.014 11.946 17.696"/><polygon class="cls-1" points="11.946 17.696 11.946 14.291 14.973 12.973 17.919 14.291 17.919 17.696 14.946 19.014 11.946 17.696"/></svg>