<svg id="Regular" xmlns="http://www.w3.org/2000/svg" viewBox="0 0 24 24"><defs><style>.cls-1{fill:none;stroke:currentColor;stroke-linecap:round;stroke-linejoin:round;stroke-width:1.5px;}</style></defs><title>canoe-2</title><path class="cls-1" d="M12.75,13.352h6a4.5,4.5,0,0,0,3.142-7.72.749.749,0,0,0-1.21.234A3.752,3.752,0,0,1,17.25,8.1H16.5"/><path class="cls-1" d="M9,8.1H6.75A3.752,3.752,0,0,1,3.318,5.866a.749.749,0,0,0-1.21-.234,4.5,4.5,0,0,0,3.142,7.72H6"/><line class="cls-1" x1="17.238" y1="1.5" x2="6.842" y2="16.747"/><path class="cls-1" d="M7.434,19.873a2.25,2.25,0,0,0-3.719-2.535l-1.69,2.479,3.718,2.535Z"/></svg>