<svg id="Regular" xmlns="http://www.w3.org/2000/svg" viewBox="0 0 24 24"><defs><style>.cls-1{fill:none;stroke:currentColor;stroke-linecap:round;stroke-linejoin:round;stroke-width:1.5px;}</style></defs><title>canoe-person</title><path class="cls-1" d="M.75,14.5H16.5A3.053,3.053,0,0,0,19.368,12a.75.75,0,0,1,1.236-.384c1.411,1.291,3.47,3.928,1.685,7.269"/><circle class="cls-1" cx="8.25" cy="3.625" r="2.625"/><path class="cls-1" d="M2.073,14.5,4.658,9.329a1.5,1.5,0,0,1,1.554-.814l2.609.372a4.49,4.49,0,0,0,3.519-1l1.639-1.365A1.5,1.5,0,0,1,15.9,8.83L14.259,10.2A7.531,7.531,0,0,1,8.4,11.857l-1.538-.219L5.427,14.5"/><line class="cls-1" x1="15.488" y1="6.281" x2="17.25" y2="1.75"/><line class="cls-1" x1="12.292" y1="14.5" x2="13.84" y2="10.519"/><path class="cls-1" d="M.75,22.75a4.666,4.666,0,0,0,3.75-1.9,4.649,4.649,0,0,0,7.5,0,4.649,4.649,0,0,0,7.5,0,4.666,4.666,0,0,0,3.75,1.9"/></svg>