<svg id="Regular" xmlns="http://www.w3.org/2000/svg" viewBox="0 0 24 24"><defs><style>.cls-1{fill:none;stroke:currentColor;stroke-linecap:round;stroke-linejoin:round;stroke-width:1.5px;}</style></defs><title>canoe-person-1</title><circle class="cls-1" cx="16" cy="3.54" r="2.25"/><line class="cls-1" x1="14.5" y1="17.79" x2="18.374" y2="12.684"/><path class="cls-1" d="M4.037,18.036,3.176,16.7a.751.751,0,0,1,.631-1.156H22"/><path class="cls-1" d="M10.732,15.54,13.1,12.013a1.5,1.5,0,0,1,1.754-.576l3.277,1.181a1.53,1.53,0,1,0,1.007-2.89l-4.453-1.5A3,3,0,0,0,11.235,9.4L7.12,15.54"/><path class="cls-1" d="M1,22.25a4.666,4.666,0,0,0,3.75-1.9,4.649,4.649,0,0,0,7.5,0,4.649,4.649,0,0,0,7.5,0,4.666,4.666,0,0,0,3.75,1.9"/></svg>