<svg id="Regular" xmlns="http://www.w3.org/2000/svg" viewBox="0 0 24 24"><defs><style>.cls-1{fill:none;stroke:currentColor;stroke-linecap:round;stroke-linejoin:round;stroke-width:1.5px;}</style></defs><title>canoe-paddles</title><path class="cls-1" d="M10.114,5.871a1.5,1.5,0,0,1,.424,1.273l-.424,2.97-2.97.424a1.5,1.5,0,0,1-1.273-.424L1.629,5.871A3,3,0,0,1,5.871,1.629Z"/><line class="cls-1" x1="10.114" y1="10.114" x2="20.689" y2="20.689"/><circle class="cls-1" cx="21.75" cy="21.75" r="1.5"/><line class="cls-1" x1="2.689" y1="6.932" x2="6.932" y2="2.689"/><path class="cls-1" d="M13.886,5.871a1.5,1.5,0,0,0-.424,1.273l.424,2.97,2.97.424a1.5,1.5,0,0,0,1.273-.424l4.242-4.243a3,3,0,1,0-4.242-4.242Z"/><line class="cls-1" x1="13.886" y1="10.114" x2="3.311" y2="20.689"/><circle class="cls-1" cx="2.25" cy="21.75" r="1.5"/><line class="cls-1" x1="21.311" y1="6.932" x2="17.068" y2="2.689"/></svg>