<svg id="Regular" xmlns="http://www.w3.org/2000/svg" viewBox="0 0 24 24"><defs><style>.cls-1{fill:none;stroke:currentColor;stroke-linecap:round;stroke-linejoin:round;stroke-width:1.5px;}</style></defs><title>canoe</title><path class="cls-1" d="M16.126,7.876C21.312,13.062,22.8,20.3,23.155,22.554a.5.5,0,0,1-.6.6C20.3,22.8,13.062,21.312,7.876,16.126S1.2,3.7.847,1.449A.534.534,0,0,1,.981.98.538.538,0,0,1,1.449.847C3.7,1.2,10.941,2.691,16.126,7.876Z"/><path class="cls-1" d="M15,11.573A2.424,2.424,0,0,1,11.571,15L9,12.43A2.424,2.424,0,0,1,12.428,9Z"/><line class="cls-1" x1="7.876" y1="16.126" x2="5.743" y2="18.257"/><path class="cls-1" d="M5.107,17.622a.75.75,0,0,0-.933-.1L1.1,19.746A.749.749,0,0,0,.97,20.909L3.091,23.03A.751.751,0,0,0,4.254,22.9L6.48,19.826a.75.75,0,0,0-.1-.933Z"/><line class="cls-1" x1="16.124" y1="7.874" x2="18.257" y2="5.743"/><path class="cls-1" d="M18.893,6.378a.75.75,0,0,0,.933.1L22.9,4.254a.751.751,0,0,0,.127-1.163L20.909.97a.749.749,0,0,0-1.163.127L17.52,4.174a.75.75,0,0,0,.1.933Z"/></svg>