<svg id="Regular" xmlns="http://www.w3.org/2000/svg" viewBox="0 0 24 24"><defs><style>.cls-1{fill:none;stroke:currentColor;stroke-linecap:round;stroke-linejoin:round;stroke-width:1.5px;}</style></defs><title>canoe-paddles-1</title><path class="cls-1" d="M11,8.25a1.5,1.5,0,0,1-.6,1.2L8,11.25,5.6,9.45A1.5,1.5,0,0,1,5,8.25V3.75a3,3,0,0,1,6,0Z"/><line class="cls-1" x1="8" y1="11.25" x2="8" y2="20.25"/><circle class="cls-1" cx="8" cy="21.75" r="1.5"/><line class="cls-1" x1="5" y1="5.25" x2="11" y2="5.25"/><path class="cls-1" d="M14,15.75a1.5,1.5,0,0,1,.6-1.2l2.4-1.8,2.4,1.8a1.5,1.5,0,0,1,.6,1.2v4.5a3,3,0,0,1-6,0Z"/><line class="cls-1" x1="17" y1="12.75" x2="17" y2="3.75"/><circle class="cls-1" cx="17" cy="2.25" r="1.5"/><line class="cls-1" x1="20" y1="18.75" x2="14" y2="18.75"/></svg>