<svg id="Regular" xmlns="http://www.w3.org/2000/svg" viewBox="0 0 24 24"><defs><style>.cls-1{fill:none;stroke:currentColor;stroke-linecap:round;stroke-linejoin:round;stroke-width:1.5px;}</style></defs><title>canoe-1</title><path class="cls-1" d="M14.072,1.66a2.818,2.818,0,0,0-4.146,0C8.458,3.318,6.75,6.439,6.75,12s1.708,8.682,3.176,10.338a2.822,2.822,0,0,0,4.146,0C15.54,20.686,17.25,17.564,17.25,12S15.54,3.314,14.072,1.66Z"/><ellipse class="cls-1" cx="12" cy="14.25" rx="2.25" ry="3"/><line class="cls-1" x1="7.241" y1="16.759" x2="4.902" y2="19.098"/><path class="cls-1" d="M3.091,23.03a.75.75,0,0,1-1.061,0L.97,21.97a.75.75,0,0,1,0-1.061L2.78,19.1A1.5,1.5,0,1,1,4.9,21.22Z"/><line class="cls-1" x1="16.759" y1="7.241" x2="19.098" y2="4.902"/><path class="cls-1" d="M20.909.97a.75.75,0,0,1,1.061,0l1.06,1.06a.75.75,0,0,1,0,1.061L21.22,4.9A1.5,1.5,0,0,1,19.1,2.78Z"/></svg>