<svg id="Regular" xmlns="http://www.w3.org/2000/svg" viewBox="0 0 24 24"><defs><style>.cls-1{fill:none;stroke:currentColor;stroke-linecap:round;stroke-linejoin:round;stroke-width:1.5px;}</style></defs><title>canoe-3</title><line class="cls-1" x1="2.25" y1="6.75" x2="2.25" y2="23.25"/><path class="cls-1" d="M10.068,7.563a1.285,1.285,0,0,0-.318.847V16.5a2.25,2.25,0,0,0,4.5,0V8.41a1.285,1.285,0,0,0-.318-.847l-1-1.138a1.243,1.243,0,0,0-1.872,0Z"/><path class="cls-1" d="M7.492,5.9A3,3,0,0,0,6.75,7.877V16.5a5.25,5.25,0,0,0,10.5,0V7.877A3,3,0,0,0,16.508,5.9L14.184,3.246a2.9,2.9,0,0,0-4.368,0Z"/><line class="cls-1" x1="9.75" y1="15.75" x2="14.25" y2="15.75"/><line class="cls-1" x1="14.25" y1="12.75" x2="9.75" y2="12.75"/><line class="cls-1" x1="14.25" y1="9.75" x2="9.75" y2="9.75"/><path class="cls-1" d="M1.5.75a.75.75,0,0,0-.75.75V5.25a1.5,1.5,0,0,0,3,0V1.5A.75.75,0,0,0,3,.75Z"/><line class="cls-1" x1="21.75" y1="17.25" x2="21.75" y2="0.75"/><path class="cls-1" d="M22.5,23.25a.75.75,0,0,0,.75-.75V18.75a1.5,1.5,0,0,0-3,0V22.5a.75.75,0,0,0,.75.75Z"/></svg>