<svg id="Regular" xmlns="http://www.w3.org/2000/svg" viewBox="0 0 24 24"><defs><style>.cls-1{fill:none;stroke:currentColor;stroke-linecap:round;stroke-linejoin:round;stroke-width:1.5px;}</style></defs><title>cap-sunglasses</title><path class="cls-1" d="M20.669,10.9A9.773,9.773,0,1,0,1.345,13.833l.245,1.615a.977.977,0,0,0,1.313.767A42.766,42.766,0,0,1,11.3,14.3a42.819,42.819,0,0,1,8.588-.662.979.979,0,0,0,1.026-1.122Z"/><path class="cls-1" d="M8.108,12.807a2.932,2.932,0,1,1,5.8-.88Z"/><path class="cls-1" d="M7.647,3.188,7.609,3a1.955,1.955,0,1,1,3.865-.586l.027.193"/><path class="cls-1" d="M10.017,23.25h-3A2.25,2.25,0,0,1,4.767,21V19.5a2.25,2.25,0,0,1,2.25-2.25h5.25V21A2.25,2.25,0,0,1,10.017,23.25Z"/><path class="cls-1" d="M17.517,23.25h3A2.25,2.25,0,0,0,22.767,21V19.5a2.25,2.25,0,0,0-2.25-2.25h-5.25V21A2.25,2.25,0,0,0,17.517,23.25Z"/><line class="cls-1" x1="12.267" y1="17.25" x2="15.267" y2="17.25"/></svg>