<svg id="Regular" xmlns="http://www.w3.org/2000/svg" viewBox="0 0 24 24"><defs><style>.cls-1{fill:none;stroke:currentColor;stroke-linecap:round;stroke-linejoin:round;stroke-width:1.5px;}</style></defs><title>cap-2</title><path class="cls-1" d="M2.25,15.908v-3.75a9.75,9.75,0,0,1,19.5,0v3.75"/><path class="cls-1" d="M23.193,21.2A1.5,1.5,0,0,1,21.23,23,28.084,28.084,0,0,0,12,21.158,28.078,28.078,0,0,0,2.77,23,1.5,1.5,0,0,1,.807,21.2l1.443-5.29a42.146,42.146,0,0,1,9.75-1.5,42.146,42.146,0,0,1,9.75,1.5Z"/><line class="cls-1" x1="12" y1="2.408" x2="12" y2="0.908"/><path class="cls-1" d="M17.25,11.408a18.313,18.313,0,0,0-5.25-.75,18.313,18.313,0,0,0-5.25.75v-3A10.376,10.376,0,0,1,12,6.908a10.376,10.376,0,0,1,5.25,1.5Z"/></svg>