<svg xmlns="http://www.w3.org/2000/svg" viewBox="0 0 24 24"><defs><style>.a{fill:none;stroke:currentColor;stroke-linecap:round;stroke-linejoin:round;stroke-width:1.5px;}</style></defs><title>car-actions-shield-1</title><path class="a" d="M23.25,15a7.669,7.669,0,0,1-6,7.5,7.669,7.669,0,0,1-6-7.5V12.75a1.5,1.5,0,0,1,1.5-1.5h9a1.5,1.5,0,0,1,1.5,1.5Z"/><line class="a" x1="17.25" y1="14.25" x2="17.25" y2="18.75"/><line class="a" x1="15" y1="16.5" x2="19.5" y2="16.5"/><path class="a" d="M2.951,6.858,4.7,2.96A2.249,2.249,0,0,1,6.809,1.5h8.882A2.251,2.251,0,0,1,17.8,2.96l1.75,3.9"/><path class="a" d="M1.5,13.3V15a1.5,1.5,0,0,0,3,0V13.5"/><path class="a" d="M4.125,9.75a.375.375,0,0,0-.375.375"/><path class="a" d="M4.5,10.125a.375.375,0,0,0-.375-.375"/><path class="a" d="M4.125,10.5a.375.375,0,0,0,.375-.375"/><path class="a" d="M3.75,10.125a.375.375,0,0,0,.375.375"/><path class="a" d="M21.348,8.25a3,3,0,0,0-2.6-1.5h-15a3,3,0,0,0-3,3V12a1.5,1.5,0,0,0,1.5,1.5h6"/></svg>