<svg xmlns="http://www.w3.org/2000/svg" viewBox="0 0 24 24"><defs><style>.a{fill:none;stroke:currentColor;stroke-linecap:round;stroke-linejoin:round;stroke-width:1.5px;}</style></defs><title>car-smart</title><circle class="a" cx="17.25" cy="16.5" r="1.5"/><circle class="a" cx="5.25" cy="16.5" r="1.5"/><line class="a" x1="15.75" y1="16.5" x2="6.75" y2="16.5"/><path class="a" d="M3.75,16.5H2.25A1.5,1.5,0,0,1,.75,15V11.408a3,3,0,0,1,.5-1.664L3.75,5.25h7.456a3,3,0,0,1,2.441,1.256L16.5,10.5h3.459a3,3,0,0,1,2.959,2.507L23.25,15a1.5,1.5,0,0,1-1.5,1.5h-3"/><line class="a" x1="16.5" y1="10.5" x2="0.892" y2="10.5"/><line class="a" x1="6.75" y1="5.25" x2="6.75" y2="10.5"/><line class="a" x1="3.75" y1="5.25" x2="1.5" y2="5.25"/></svg>