<svg xmlns="http://www.w3.org/2000/svg" viewBox="0 0 24 24"><defs><style>.a{fill:none;stroke:currentColor;stroke-linecap:round;stroke-linejoin:round;stroke-width:1.5px;}</style></defs><title>car-tool-steering-wheel-1</title><circle class="a" cx="12" cy="12" r="11.25"/><circle class="a" cx="12" cy="12" r="6.75"/><path class="a" d="M12,11.625a.375.375,0,0,1,.375.375"/><path class="a" d="M11.625,12A.375.375,0,0,1,12,11.625"/><path class="a" d="M12,12.375A.375.375,0,0,1,11.625,12"/><path class="a" d="M12.375,12a.375.375,0,0,1-.375.375"/><path class="a" d="M15.6,6.291a3.751,3.751,0,0,1-7.206,0"/><path class="a" d="M15.082,18.006a3.751,3.751,0,0,1,3.666-6.2"/><path class="a" d="M8.918,18.006a3.751,3.751,0,0,0-3.666-6.2"/></svg>