<svg xmlns="http://www.w3.org/2000/svg" viewBox="0 0 24 24"><defs><style>.a{fill:none;stroke:currentColor;stroke-linecap:round;stroke-linejoin:round;stroke-width:1.5px;}</style></defs><title>car-tool-lug-wrench</title><path class="a" d="M15,2.25a3,3,0,0,1-6,0V.75h6Z"/><path class="a" d="M9,21.75a3,3,0,0,1,6,0v1.5H9Z"/><path class="a" d="M19.152,10.5H15A1.5,1.5,0,0,1,13.5,9V4.844"/><path class="a" d="M13.5,19.152V15A1.5,1.5,0,0,1,15,13.5h4.152"/><path class="a" d="M4.848,13.5H9A1.5,1.5,0,0,1,10.5,15v4.152"/><path class="a" d="M10.5,4.844V9A1.5,1.5,0,0,1,9,10.5H4.848"/><path class="a" d="M21.75,15a3,3,0,0,1,0-6h1.5v6Z"/><path class="a" d="M2.25,9a3,3,0,0,1,0,6H.75V9Z"/></svg>