<svg xmlns="http://www.w3.org/2000/svg" viewBox="0 0 24 24"><defs><style>.a{fill:none;stroke:currentColor;stroke-linecap:round;stroke-linejoin:round;stroke-width:1.5px;}</style></defs><title>car-repair-tow-truck-2</title><circle class="a" cx="18.75" cy="20" r="1.5"/><circle class="a" cx="5.25" cy="20" r="1.5"/><path class="a" d="M20.25,20h1.5a1.5,1.5,0,0,0,1.5-1.5V15.231a1.5,1.5,0,0,0-.279-.872l-3.022-4.231A1.5,1.5,0,0,0,18.728,9.5H15.75a1.5,1.5,0,0,0-1.5,1.5v9"/><line class="a" x1="23.25" y1="15.5" x2="14.25" y2="15.5"/><path class="a" d="M14.25,15.5H.75v3A1.5,1.5,0,0,0,2.25,20h1.5"/><line class="a" x1="17.25" y1="20" x2="6.75" y2="20"/><polygon class="a" points="9.75 15.5 0.75 15.5 0.75 11.75 3 11.75 3 6.5 6.75 6.5 9.75 11.75 9.75 15.5"/><polygon class="a" points="23.25 6.5 3 6.5 3 3.5 21.75 3.5 23.25 6.5"/><line class="a" x1="23.25" y1="8.75" x2="23.25" y2="6.5"/></svg>