<svg xmlns="http://www.w3.org/2000/svg" viewBox="0 0 24 24"><defs><style>.a{fill:none;stroke:currentColor;stroke-linecap:round;stroke-linejoin:round;stroke-width:1.5px;}</style></defs><title>car-truck-luggage</title><circle class="a" cx="17.25" cy="21.75" r="1.5"/><circle class="a" cx="5.25" cy="21.75" r="1.5"/><line class="a" x1="15.75" y1="21.75" x2="6.75" y2="21.75"/><path class="a" d="M3.75,21.75H2.25a1.5,1.5,0,0,1-1.5-1.5V18a3,3,0,0,1,3-3L5.585,9.829A1.5,1.5,0,0,1,6.927,9h7.9a1.5,1.5,0,0,1,1.342.829L18,15h2.25a3,3,0,0,1,3,3v2.25a1.5,1.5,0,0,1-1.5,1.5h-3"/><line class="a" x1="18" y1="15" x2="3.75" y2="15"/><line class="a" x1="11.25" y1="9" x2="11.25" y2="15"/><rect class="a" x="5.25" y="4.5" width="10.5" height="4.5" rx="1" ry="1" transform="translate(21 13.5) rotate(-180)"/><rect class="a" x="6.75" y="0.75" width="7.5" height="3.75" rx="1" ry="1" transform="translate(21 5.25) rotate(-180)"/><line class="a" x1="12.75" y1="4.5" x2="12.75" y2="9"/><line class="a" x1="8.25" y1="4.5" x2="8.25" y2="9"/></svg>