<svg xmlns="http://www.w3.org/2000/svg" viewBox="0 0 24 24"><defs><style>.a{fill:none;stroke:currentColor;stroke-linecap:round;stroke-linejoin:round;stroke-width:1.5px;}</style></defs><title>car-dashboard-window-rear-wipe</title><circle class="a" cx="11.754" cy="20.25" r="1.5"/><line class="a" x1="11.754" y1="12.75" x2="11.754" y2="14.25"/><line class="a" x1="11.754" y1="8.25" x2="11.754" y2="9.75"/><line class="a" x1="11.754" y1="3.75" x2="11.754" y2="5.25"/><line class="a" x1="11.042" y1="18.929" x2="5.529" y2="8.701"/><path class="a" d="M8.754,4A20.069,20.069,0,0,0,2.946,5.929,3.1,3.1,0,0,0,1.568,10.04L4,15.064a1.5,1.5,0,0,0,2.027.686,14.909,14.909,0,0,1,2.729-1.066"/><path class="a" d="M14.754,4a20.069,20.069,0,0,1,5.808,1.929A3.1,3.1,0,0,1,21.94,10.04l-2.431,5.024a1.5,1.5,0,0,1-2.026.686,14.936,14.936,0,0,0-2.729-1.066"/></svg>