<svg xmlns="http://www.w3.org/2000/svg" viewBox="0 0 24 24"><defs><style>.a{fill:none;stroke:currentColor;stroke-linecap:round;stroke-linejoin:round;stroke-width:1.5px;}</style></defs><title>car-retro-2</title><circle class="a" cx="17.25" cy="17" r="1.5"/><circle class="a" cx="5.25" cy="17" r="1.5"/><line class="a" x1="15.75" y1="17" x2="6.75" y2="17"/><path class="a" d="M3.75,17H2.25a1.5,1.5,0,0,1-1.5-1.5V14a3,3,0,0,1,3-3L5.585,7.329A1.5,1.5,0,0,1,6.927,6.5h7.9a1.5,1.5,0,0,1,1.342.829L18,11h2.25a3,3,0,0,1,3,3v1.5a1.5,1.5,0,0,1-1.5,1.5h-3"/><line class="a" x1="18" y1="11" x2="3.75" y2="11"/></svg>