<svg xmlns="http://www.w3.org/2000/svg" viewBox="0 0 24 24"><defs><style>.a{fill:none;stroke:currentColor;stroke-linecap:round;stroke-linejoin:round;stroke-width:1.5px;}</style></defs><title>car-tool-pump</title><path class="a" d="M3.25,6.75h4a1,1,0,0,1,1,1v15.5a0,0,0,0,1,0,0h-6a0,0,0,0,1,0,0V7.75A1,1,0,0,1,3.25,6.75Z"/><line class="a" x1="0.75" y1="23.25" x2="9.75" y2="23.25"/><line class="a" x1="5.25" y1="6.75" x2="5.25" y2="0.75"/><line class="a" x1="9.75" y1="0.75" x2="0.75" y2="0.75"/><path class="a" d="M8.25,20.25a9,9,0,0,0,9-9V9.75"/><path class="a" d="M21.75,3a1.5,1.5,0,0,0-1.5,1.5v6a1.5,1.5,0,0,0,3,0v-6A1.5,1.5,0,0,0,21.75,3Z"/><path class="a" d="M16.75,5.25h3.5a0,0,0,0,1,0,0v4.5a0,0,0,0,1,0,0h-3.5a1,1,0,0,1-1-1V6.25A1,1,0,0,1,16.75,5.25Z"/></svg>