<svg xmlns="http://www.w3.org/2000/svg" viewBox="0 0 24 24"><defs><style>.a{fill:none;stroke:currentColor;stroke-linecap:round;stroke-linejoin:round;stroke-width:1.5px;}</style></defs><title>car-sports</title><circle class="a" cx="18" cy="16.75" r="2.25"/><circle class="a" cx="6" cy="16.75" r="2.25"/><line class="a" x1="15.75" y1="16.75" x2="8.25" y2="16.75"/><path class="a" d="M20.25,16.75h1.5a1.5,1.5,0,0,0,1.437-1.931l-1.866-4.5A1.5,1.5,0,0,0,19.884,9.25H16.5l-1.813,3.022A1.5,1.5,0,0,1,13.4,13H10.553a1.5,1.5,0,0,1-1.248-.668L8.25,10.75H3.75a1.5,1.5,0,0,0-1.5,1.5v4.5"/><line class="a" x1="0.75" y1="16.75" x2="3.75" y2="16.75"/><line class="a" x1="8.25" y1="10.75" x2="8.25" y2="7"/><line class="a" x1="16.5" y1="9.25" x2="15" y2="5.5"/></svg>