<svg xmlns="http://www.w3.org/2000/svg" viewBox="0 0 24 24"><defs><style>.a{fill:none;stroke:currentColor;stroke-linecap:round;stroke-linejoin:round;stroke-width:1.5px;}</style></defs><title>car-dashboard-manual</title><line class="a" x1="0.75" y1="6.75" x2="0.75" y2="3.75"/><line class="a" x1="3.75" y1="6.75" x2="1.5" y2="3.75"/><path class="a" d="M23.25,21h-3v-.75a3,3,0,0,1,3-3v6"/><path class="a" d="M17.3,1.862A1.5,1.5,0,1,1,18.75,3.75a1.5,1.5,0,1,1-1.445,1.9"/><path class="a" d="M11.25,18.75a1.5,1.5,0,0,1,1.5-1.5h0a1.5,1.5,0,0,1,1.5,1.5h0a2.141,2.141,0,0,1-.468,1.336L11.25,23.25h3"/><path class="a" d="M8.25.75H9a.75.75,0,0,1,.75.75V6.75"/><line class="a" x1="8.25" y1="6.75" x2="11.25" y2="6.75"/><path class="a" d="M2.25.75H.75v3h1.5a1.5,1.5,0,0,0,0-3Z"/><line class="a" x1="9.75" y1="12.75" x2="9.75" y2="9.75"/><line class="a" x1="12.75" y1="12.75" x2="12.75" y2="14.25"/><line class="a" x1="18.75" y1="12.75" x2="18.75" y2="9.75"/><path class="a" d="M21.75,14.25a1.5,1.5,0,0,0-1.5-1.5h-15a3,3,0,0,1-3-3"/></svg>