<svg xmlns="http://www.w3.org/2000/svg" viewBox="0 0 24 24"><defs><style>.a{fill:none;stroke:currentColor;stroke-linecap:round;stroke-linejoin:round;stroke-width:1.5px;}</style></defs><title>car-dashboard-gear-automatic</title><polyline class="a" points="18.5 14.25 18.5 9.75 21.5 14.25 21.5 9.75"/><path class="a" d="M21.5,20.25a3,3,0,0,0-3-3v6A3,3,0,0,0,21.5,20.25Z"/><path class="a" d="M18.5,3.75H20a1.5,1.5,0,0,0,0-3H18.5v6"/><path class="a" d="M5,6.75v4.5a1.5,1.5,0,0,0,1.5,1.5H8a1.5,1.5,0,0,1,1.5,1.5v4.5a1.5,1.5,0,0,0,1.5,1.5h3"/><circle class="a" cx="5" cy="3.75" r="3"/></svg>