<svg xmlns="http://www.w3.org/2000/svg" viewBox="0 0 24 24"><defs><style>.a{fill:none;stroke:currentColor;stroke-linecap:round;stroke-linejoin:round;stroke-width:1.5px;}</style></defs><title>car-repair-bottom</title><path class="a" d="M1.5,5.25v16.5A1.5,1.5,0,0,0,3,23.25H4.5"/><path class="a" d="M22.5,5.25v16.5a1.5,1.5,0,0,1-1.5,1.5H19.5"/><circle class="a" cx="12" cy="18.75" r="2.7"/><line class="a" x1="12" y1="16.05" x2="12" y2="14.25"/><line class="a" x1="12" y1="23.25" x2="12" y2="21.45"/><line class="a" x1="14.7" y1="18.75" x2="16.5" y2="18.75"/><line class="a" x1="7.5" y1="18.75" x2="9.3" y2="18.75"/><line class="a" x1="9.236" y1="21.932" x2="10.311" y2="20.857"/><line class="a" x1="9.236" y1="15.568" x2="10.311" y2="16.643"/><line class="a" x1="14.764" y1="21.932" x2="13.689" y2="20.857"/><line class="a" x1="14.764" y1="15.568" x2="13.689" y2="16.643"/><path class="a" d="M15.75,5.25H8.25a1.5,1.5,0,0,0,0,3h7.5a1.5,1.5,0,0,0,0-3Z"/><line class="a" x1="7.5" y1="8.049" x2="7.5" y2="9.75"/><line class="a" x1="16.5" y1="8.049" x2="16.5" y2="9.75"/><path class="a" d="M8.25,5.25l.8-3.35A1.5,1.5,0,0,1,10.512.75h2.976A1.5,1.5,0,0,1,14.947,1.9l.8,3.35"/><line class="a" x1="1.5" y1="11.25" x2="22.5" y2="11.25"/></svg>