<svg xmlns="http://www.w3.org/2000/svg" viewBox="0 0 24 24"><defs><style>.a{fill:none;stroke:currentColor;stroke-linecap:round;stroke-linejoin:round;stroke-width:1.5px;}</style></defs><title>car-4</title><path class="a" d="M21.75,18.25a1.5,1.5,0,0,0,1.5-1.5v-4.5a1.809,1.809,0,0,0-.53-1.279L20.25,8.5H3.75l-2.47,2.47A1.809,1.809,0,0,0,.75,12.25v4.5a1.5,1.5,0,0,0,1.5,1.5Z"/><path class="a" d="M3.75,8.5l1.723-4.6A2.165,2.165,0,0,1,7.5,2.5h9a2.166,2.166,0,0,1,2.027,1.4L20.25,8.5Z"/><polyline class="a" points="3.75 8.501 2.25 7.001 0.75 7.001"/><polyline class="a" points="20.25 8.501 21.75 7.001 23.25 7.001"/><path class="a" d="M2.25,18.25v1.5a1.5,1.5,0,0,0,3,0v-1.5Z"/><path class="a" d="M21.75,18.25v1.5a1.5,1.5,0,0,1-3,0v-1.5Z"/><path class="a" d="M23.087,11.5H18.75l-1.813,3.022a1.5,1.5,0,0,1-1.286.728H8.35a1.5,1.5,0,0,1-1.288-.729L5.25,11.5H.913"/><line class="a" x1="16.937" y1="14.5" x2="23.25" y2="14.5"/><line class="a" x1="7.063" y1="14.5" x2="0.75" y2="14.5"/><line class="a" x1="18.75" y1="11.5" x2="5.25" y2="11.5"/></svg>