<svg xmlns="http://www.w3.org/2000/svg" viewBox="0 0 24 24"><defs><style>.a{fill:none;stroke:currentColor;stroke-linecap:round;stroke-linejoin:round;stroke-width:1.5px;}</style></defs><title>car-wagon</title><circle class="a" cx="6.75" cy="16.5" r="1.5"/><circle class="a" cx="18.75" cy="16.5" r="1.5"/><line class="a" x1="8.25" y1="16.5" x2="17.25" y2="16.5"/><path class="a" d="M20.25,16.5h1.5a1.5,1.5,0,0,0,1.5-1.5V11.408a3,3,0,0,0-.5-1.664l-1.664-2.5A2.8,2.8,0,0,0,18.75,6H11.6a1.5,1.5,0,0,0-1.342.829L7.5,10.5,3.162,11.518A3,3,0,0,0,.75,14.459V15a1.5,1.5,0,0,0,1.5,1.5h3"/><line class="a" x1="7.5" y1="10.5" x2="23.108" y2="10.5"/><line class="a" x1="15" y1="6" x2="15" y2="16.5"/><line class="a" x1="18.75" y1="6" x2="18.75" y2="10.5"/></svg>