<svg xmlns="http://www.w3.org/2000/svg" viewBox="0 0 24 24"><defs><style>.a{fill:none;stroke:currentColor;stroke-linecap:round;stroke-linejoin:round;stroke-width:1.5px;}</style></defs><title>car-tool-battery-bolt</title><rect class="a" x="0.75" y="5.75" width="22.5" height="15" rx="1" ry="1"/><path class="a" d="M4.75,2.75h2.5a1,1,0,0,1,1,1v2a0,0,0,0,1,0,0H3.75a0,0,0,0,1,0,0v-2A1,1,0,0,1,4.75,2.75Z"/><path class="a" d="M15.75,2.75h4.5a0,0,0,0,1,0,0v2a1,1,0,0,1-1,1h-2.5a1,1,0,0,1-1-1v-2A0,0,0,0,1,15.75,2.75Z" transform="translate(36 8.5) rotate(180)"/><polyline class="a" points="12 8.75 9.75 13.25 13.5 13.25 11.25 17.75"/></svg>