<svg xmlns="http://www.w3.org/2000/svg" viewBox="0 0 24 24"><defs><style>.a{fill:none;stroke:currentColor;stroke-linecap:round;stroke-linejoin:round;stroke-width:1.5px;}</style></defs><title>car-garage-1</title><path class="a" d="M17.579,9.75H6.422a1.5,1.5,0,0,0-1.456,1.136L3.75,14.25h16.5l-1.216-3.364A1.5,1.5,0,0,0,17.579,9.75Z"/><path class="a" d="M21,20.25H3a.75.75,0,0,1-.75-.75V15.75a1.5,1.5,0,0,1,1.5-1.5h16.5a1.5,1.5,0,0,1,1.5,1.5V19.5A.75.75,0,0,1,21,20.25Z"/><line class="a" x1="2.25" y1="17.25" x2="5.25" y2="17.25"/><line class="a" x1="18.75" y1="17.25" x2="21.75" y2="17.25"/><rect class="a" x="9.75" y="17.25" width="4.5" height="3"/><path class="a" d="M17.25,23.25h1.5a1.5,1.5,0,0,0,1.5-1.5v-1.5h-4.5v1.5A1.5,1.5,0,0,0,17.25,23.25Z"/><path class="a" d="M5.25,23.25h1.5a1.5,1.5,0,0,0,1.5-1.5v-1.5H3.75v1.5A1.5,1.5,0,0,0,5.25,23.25Z"/><polyline class="a" points="0.75 8.25 12 0.75 23.25 8.25"/></svg>