<svg xmlns="http://www.w3.org/2000/svg" viewBox="0 0 24 24"><defs><style>.a{fill:none;stroke:currentColor;stroke-linecap:round;stroke-linejoin:round;stroke-width:1.5px;}</style></defs><title>car-repair-fluid</title><path class="a" d="M23.25,9.75l-3-3H3.75L1.811,8.689A3.624,3.624,0,0,0,.75,11.25a1.5,1.5,0,0,0,1.5,1.5h12"/><line class="a" x1="1.075" y1="9.75" x2="5.25" y2="9.75"/><path class="a" d="M3.75,6.75l1.7-4.54A2.249,2.249,0,0,1,7.559.75h8.882a2.249,2.249,0,0,1,2.106,1.46l1.7,4.54Z"/><path class="a" d="M2.25,12.75v1.5a1.5,1.5,0,0,0,3,0v-1.5Z"/><path class="a" d="M23.25,19.5a3.75,3.75,0,0,1-7.5,0c0-2.071,3.75-9,3.75-9S23.25,17.429,23.25,19.5Z"/><line class="a" x1="18.75" y1="18.75" x2="18.75" y2="20.25"/></svg>