<svg xmlns="http://www.w3.org/2000/svg" viewBox="0 0 24 24"><defs><style>.a{fill:none;stroke:currentColor;stroke-linecap:round;stroke-linejoin:round;stroke-width:1.5px;}</style></defs><title>car-1</title><path class="a" d="M21.75,17a1.5,1.5,0,0,0,1.5-1.5V13.249a1.811,1.811,0,0,0-.53-1.279L20.25,9.5H3.75L1.28,11.97a1.811,1.811,0,0,0-.53,1.279V15.5A1.5,1.5,0,0,0,2.25,17Z"/><path class="a" d="M.912,12.5H4.629a1.5,1.5,0,0,1,1.06.439L6.75,14"/><path class="a" d="M23.088,12.5H19.371a1.5,1.5,0,0,0-1.06.439L17.25,14"/><path class="a" d="M3.75,9.5l1.7-4.54A2.249,2.249,0,0,1,7.559,3.5h8.882a2.249,2.249,0,0,1,2.106,1.46l1.7,4.54Z"/><polyline class="a" points="3.75 9.5 2.25 8 0.75 8"/><polyline class="a" points="20.25 9.5 21.75 8 23.25 8"/><path class="a" d="M2.25,17v1.5a1.5,1.5,0,0,0,3,0V17Z"/><path class="a" d="M21.75,17v1.5a1.5,1.5,0,0,1-3,0V17Z"/></svg>