<svg xmlns="http://www.w3.org/2000/svg" viewBox="0 0 24 24"><defs><style>.a{fill:none;stroke:currentColor;stroke-linecap:round;stroke-linejoin:round;stroke-width:1.5px;}</style></defs><title>car-repair-checklist-1</title><rect class="a" x="12.75" y="0.75" width="10.5" height="12.75" rx="1" ry="1"/><polyline class="a" points="15.75 8.25 17.25 9.75 20.25 4.5"/><path class="a" d="M2.951,13.608,4.7,9.71A2.251,2.251,0,0,1,6.809,8.25H9.75"/><path class="a" d="M1.5,20.049v1.7a1.5,1.5,0,0,0,3,0v-1.5"/><path class="a" d="M4.125,16.5a.375.375,0,0,0-.375.375"/><path class="a" d="M4.5,16.875a.375.375,0,0,0-.375-.375"/><path class="a" d="M4.125,17.25a.375.375,0,0,0,.375-.375"/><path class="a" d="M3.75,16.875a.375.375,0,0,0,.375.375"/><path class="a" d="M21,20.049v1.7a1.5,1.5,0,0,1-3,0v-1.5"/><path class="a" d="M18.375,16.5a.375.375,0,0,1,.375.375"/><path class="a" d="M18,16.875a.375.375,0,0,1,.375-.375"/><path class="a" d="M18.375,17.25A.375.375,0,0,1,18,16.875"/><path class="a" d="M18.75,16.875a.375.375,0,0,1-.375.375"/><path class="a" d="M21.75,16.5v2.25a1.5,1.5,0,0,1-1.5,1.5h-18a1.5,1.5,0,0,1-1.5-1.5V16.5a3,3,0,0,1,3-3h6"/></svg>