<svg xmlns="http://www.w3.org/2000/svg" viewBox="0 0 24 24"><defs><style>.a{fill:none;stroke:currentColor;stroke-linecap:round;stroke-linejoin:round;stroke-width:1.5px;}</style></defs><title>car-wagon-1</title><circle class="a" cx="15.75" cy="17.25" r="1.5"/><circle class="a" cx="5.25" cy="17.25" r="1.5"/><path class="a" d="M17.25,17.25h4.5a1.5,1.5,0,0,0,1.455-1.864l-.75-3A1.5,1.5,0,0,0,21,11.25H15L12.829,6.908A3,3,0,0,0,10.146,5.25H6.75a6,6,0,0,0-6,6v4.5a1.5,1.5,0,0,0,1.5,1.5h1.5"/><line class="a" x1="14.25" y1="17.25" x2="6.75" y2="17.25"/><line class="a" x1="15" y1="11.25" x2="0.75" y2="11.25"/><line class="a" x1="21" y1="11.25" x2="20.25" y2="9"/><line class="a" x1="5.25" y1="11.25" x2="5.25" y2="5.439"/></svg>