<svg xmlns="http://www.w3.org/2000/svg" viewBox="0 0 24 24"><defs><style>.a{fill:none;stroke:currentColor;stroke-linecap:round;stroke-linejoin:round;stroke-width:1.5px;}</style></defs><title>car-dashboard-fuel</title><path class="a" d="M14.8,13.934a6,6,0,0,1-4.736,2.316H2.5A1.5,1.5,0,0,1,1,14.75V9.5A1.5,1.5,0,0,1,2.5,8H8.724a1.5,1.5,0,0,1,.937.329L12.4,10.516a1.5,1.5,0,0,0,1.349.271L18.25,9.5Z"/><line class="a" x1="7" y1="5" x2="7" y2="8"/><line class="a" x1="4" y1="5" x2="10" y2="5"/><line class="a" x1="18.25" y1="9.5" x2="20.5" y2="10.25"/><path class="a" d="M22.75,18.594a2.156,2.156,0,1,1-4.312,0C18.438,17.4,19.875,15,20.594,15S22.75,17.4,22.75,18.594Z"/></svg>