<svg xmlns="http://www.w3.org/2000/svg" viewBox="0 0 24 24"><defs><style>.a{fill:none;stroke:currentColor;stroke-linecap:round;stroke-linejoin:round;stroke-width:1.5px;}</style></defs><title>car-truck-woods</title><circle class="a" cx="5.25" cy="21.75" r="1.5"/><circle class="a" cx="17.25" cy="21.75" r="1.5"/><path class="a" d="M3.75,21.75H2.25a1.5,1.5,0,0,1-1.5-1.5v-1.5a3,3,0,0,1,3-3h1.5l2.585-5.171A1.5,1.5,0,0,1,9.177,9.75H12.75a1.5,1.5,0,0,1,1.5,1.5v4.5h7.5a1.5,1.5,0,0,1,1.5,1.5v3a1.5,1.5,0,0,1-1.5,1.5h-3"/><line class="a" x1="6.75" y1="21.75" x2="15.75" y2="21.75"/><line class="a" x1="14.25" y1="15.75" x2="5.25" y2="15.75"/><path class="a" d="M20.25.75,18.275,6.181a2.1,2.1,0,1,0,3.95,0Z"/><line class="a" x1="20.25" y1="9" x2="20.25" y2="12"/><polyline class="a" points="14.184 6.757 12 0.75 9.818 6.75"/><path class="a" d="M3.75.75,1.775,6.181a2.1,2.1,0,1,0,3.95,0Z"/><line class="a" x1="3.75" y1="9" x2="3.75" y2="12"/></svg>