<svg xmlns="http://www.w3.org/2000/svg" viewBox="0 0 24 24"><defs><style>.a{fill:none;stroke:currentColor;stroke-linecap:round;stroke-linejoin:round;stroke-width:1.5px;}</style></defs><title>car-repair-rotating-light</title><path class="a" d="M20.25,21h1.5a1.5,1.5,0,0,0,1.5-1.5V18a3,3,0,0,0-3-3h-1.5L16.165,9.829A1.5,1.5,0,0,0,14.823,9H11.25a1.5,1.5,0,0,0-1.5,1.5V15H2.25a1.5,1.5,0,0,0-1.5,1.5v3A1.5,1.5,0,0,0,2.25,21H4.5"/><line class="a" x1="15.75" y1="21" x2="9" y2="21"/><line class="a" x1="9.75" y1="15" x2="18.75" y2="15"/><path class="a" d="M14.25,9V7.5a1.5,1.5,0,0,0-3,0V9"/><line class="a" x1="12.75" y1="0.75" x2="12.75" y2="3"/><line class="a" x1="7.977" y1="2.727" x2="9.568" y2="4.318"/><line class="a" x1="6" y1="7.5" x2="8.25" y2="7.5"/><line class="a" x1="17.523" y1="2.727" x2="15.932" y2="4.318"/><line class="a" x1="19.5" y1="7.5" x2="17.25" y2="7.5"/><circle class="a" cx="18" cy="21" r="2.25"/><circle class="a" cx="6.75" cy="21" r="2.25"/></svg>