<svg xmlns="http://www.w3.org/2000/svg" viewBox="0 0 24 24"><defs><style>.a{fill:none;stroke:currentColor;stroke-linecap:round;stroke-linejoin:round;stroke-width:1.5px;}</style></defs><title>car-repair-lock</title><path class="a" d="M23.25,9.75l-3-3H3.75L1.811,8.689A3.624,3.624,0,0,0,.75,11.25a1.5,1.5,0,0,0,1.5,1.5h10.5"/><line class="a" x1="1.075" y1="9.75" x2="5.25" y2="9.75"/><path class="a" d="M3.75,6.75l1.7-4.54A2.249,2.249,0,0,1,7.559.75h8.882a2.249,2.249,0,0,1,2.106,1.46l1.7,4.54Z"/><path class="a" d="M2.25,12.75v1.5a1.5,1.5,0,0,0,3,0v-1.5Z"/><rect class="a" x="14.25" y="15.75" width="9" height="7.5" rx="1" ry="1"/><path class="a" d="M18.75,11.25h0a3,3,0,0,0-3,3v1.5h6v-1.5A3,3,0,0,0,18.75,11.25Z"/><path class="a" d="M18.75,19.154a.375.375,0,0,1,.375.375"/><path class="a" d="M18.375,19.529a.375.375,0,0,1,.375-.375"/><path class="a" d="M18.75,19.9a.374.374,0,0,1-.375-.375"/><path class="a" d="M19.125,19.529a.374.374,0,0,1-.375.375"/></svg>