<svg xmlns="http://www.w3.org/2000/svg" viewBox="0 0 24 24"><defs><style>.a{fill:none;stroke:currentColor;stroke-linecap:round;stroke-linejoin:round;stroke-width:1.5px;}</style></defs><title>car-tool-keys</title><rect class="a" x="2.032" y="5.567" width="10.398" height="14.854" rx="2" ry="2" transform="translate(3.551 -1.414) rotate(14.767)"/><circle class="a" cx="7.799" cy="10.84" r="2.228"/><path class="a" d="M4.68,15.39a.376.376,0,0,1,.267.458"/><path class="a" d="M4.221,15.657a.376.376,0,0,1,.459-.267"/><path class="a" d="M4.488,16.115a.376.376,0,0,1-.267-.458"/><path class="a" d="M4.947,15.848a.375.375,0,0,1-.459.267"/><path class="a" d="M8.27,16.337a.374.374,0,0,1,.267.458"/><path class="a" d="M7.812,16.6a.375.375,0,0,1,.458-.267"/><path class="a" d="M8.079,17.062a.375.375,0,0,1-.267-.458"/><path class="a" d="M8.537,16.8a.375.375,0,0,1-.458.267"/><path class="a" d="M17.309,11.11a2.971,2.971,0,1,1,5.941,0v2.228a1.485,1.485,0,0,1-1.485,1.485H18.794a1.485,1.485,0,0,1-1.485-1.485Z"/><polygon class="a" points="21.765 20.765 20.279 22.25 18.794 20.765 18.794 14.823 21.765 14.823 21.765 20.765"/><path class="a" d="M9.124,5.813C10.9,1.109,19.1-.773,20.279,8.139"/></svg>