<svg xmlns="http://www.w3.org/2000/svg" viewBox="0 0 24 24"><defs><style>.a{fill:none;stroke:currentColor;stroke-linecap:round;stroke-linejoin:round;stroke-width:1.5px;}</style></defs><title>car-repair-lock-1</title><rect class="a" x="14.202" y="14.893" width="9" height="7.5" rx="1" ry="1"/><path class="a" d="M18.7,10.393h0a3,3,0,0,0-3,3v1.5h6v-1.5A3,3,0,0,0,18.7,10.393Z"/><path class="a" d="M18.7,18.3a.375.375,0,0,1,.375.375"/><path class="a" d="M18.327,18.672A.375.375,0,0,1,18.7,18.3"/><path class="a" d="M18.7,19.047a.375.375,0,0,1-.375-.375"/><path class="a" d="M19.077,18.672a.375.375,0,0,1-.375.375"/><path class="a" d="M2.9,6.751l1.751-3.9a2.25,2.25,0,0,1,2.107-1.46h8.882a2.248,2.248,0,0,1,2.106,1.46L19.5,6.75"/><path class="a" d="M1.452,13.192v1.7a1.5,1.5,0,0,0,3,0v-1.5"/><path class="a" d="M4.077,9.643a.375.375,0,0,0-.375.375"/><path class="a" d="M4.452,10.018a.375.375,0,0,0-.375-.375"/><path class="a" d="M4.077,10.393a.375.375,0,0,0,.375-.375"/><path class="a" d="M3.7,10.018a.375.375,0,0,0,.375.375"/><path class="a" d="M21.3,8.142a3,3,0,0,0-2.6-1.5H3.7a3,3,0,0,0-3,3v2.25a1.5,1.5,0,0,0,1.5,1.5H12.7"/></svg>