<svg xmlns="http://www.w3.org/2000/svg" viewBox="0 0 24 24"><defs><style>.a{fill:none;stroke:currentColor;stroke-linecap:round;stroke-linejoin:round;stroke-width:1.5px;}</style></defs><title>car-dashboard-seat-adjust</title><circle class="a" cx="20.625" cy="3.375" r="2.625"/><polyline class="a" points="0.751 8.25 3.001 10.5 5.251 8.25"/><line class="a" x1="3.001" y1="10.5" x2="3.001" y2="4.5"/><polyline class="a" points="11.251 5.25 13.501 3 11.251 0.75"/><line class="a" x1="13.501" y1="3" x2="7.501" y2="3"/><path class="a" d="M3,23.25a2.25,2.25,0,0,1-1.927-3.407l3.186-5.309A5.228,5.228,0,0,1,10.71,12.36l2.562,1.026a.763.763,0,0,0,.952-.362l1.764-3.53a2.25,2.25,0,1,1,4.025,2.012l-1.765,3.532A5.276,5.276,0,0,1,11.6,17.563L9.037,16.538a.752.752,0,0,0-.921.31L4.93,22.157A2.249,2.249,0,0,1,3,23.25Z"/></svg>