<svg xmlns="http://www.w3.org/2000/svg" viewBox="0 0 24 24"><defs><style>.a{fill:none;stroke:currentColor;stroke-linecap:round;stroke-linejoin:round;stroke-width:1.5px;}</style></defs><title>car-3</title><path class="a" d="M21.75,18.5a1.5,1.5,0,0,0,1.5-1.5V12.5a1.809,1.809,0,0,0-.53-1.279l-2.47-2.47H3.75l-2.47,2.47A1.809,1.809,0,0,0,.75,12.5V17a1.5,1.5,0,0,0,1.5,1.5Z"/><path class="a" d="M3.75,8.751l1.723-4.6A2.165,2.165,0,0,1,7.5,2.751h9a2.166,2.166,0,0,1,2.027,1.4l1.723,4.6Z"/><polyline class="a" points="3.75 8.751 2.25 7.251 0.75 7.251"/><polyline class="a" points="20.25 8.751 21.75 7.251 23.25 7.251"/><path class="a" d="M2.25,18.5V20a1.5,1.5,0,0,0,3,0V18.5Z"/><path class="a" d="M21.75,18.5V20a1.5,1.5,0,0,1-3,0V18.5Z"/><path class="a" d="M8.35,15.5a1.5,1.5,0,0,1-1.288-.729L5.687,12.478A1.5,1.5,0,0,0,4.4,11.75H.913"/><path class="a" d="M23.087,11.75H19.6a1.5,1.5,0,0,0-1.286.728l-1.376,2.294a1.5,1.5,0,0,1-1.286.728"/><line class="a" x1="0.75" y1="14.75" x2="3.75" y2="14.75"/><line class="a" x1="20.25" y1="14.75" x2="23.25" y2="14.75"/><circle class="a" cx="12" cy="13.625" r="1.875"/></svg>