<svg xmlns="http://www.w3.org/2000/svg" viewBox="0 0 24 24"><defs><style>.a{fill:none;stroke:currentColor;stroke-linecap:round;stroke-linejoin:round;stroke-width:1.5px;}</style></defs><title>car-repair-24h-service</title><path class="a" d="M17.25,9.75h-3V9a3,3,0,0,1,3-3v6"/><path class="a" d="M8.25,7.5A1.5,1.5,0,0,1,9.75,6h0a1.5,1.5,0,0,1,1.5,1.5h0a2.136,2.136,0,0,1-.469,1.336L8.25,12h3"/><polyline class="a" points="4.475 10.373 2.25 11.873 0.75 9.648"/><path class="a" d="M2.251,11.874a10.5,10.5,0,1,1,1.385,5.343"/><line class="a" x1="10.5" y1="16.5" x2="15" y2="16.5"/><path class="a" d="M9,15a1.5,1.5,0,0,1,0,3"/><path class="a" d="M16.5,15a1.5,1.5,0,0,0,0,3"/></svg>