<svg xmlns="http://www.w3.org/2000/svg" viewBox="0 0 24 24"><defs><style>.a{fill:none;stroke:currentColor;stroke-linecap:round;stroke-linejoin:round;stroke-width:1.5px;}</style></defs><title>car-dashboard-window-rear</title><path class="a" d="M12,2.375A13.467,13.467,0,0,0,1.418,7,3,3,0,0,0,.866,9.713L2.9,16.843a1.5,1.5,0,0,0,2.23.865A12.286,12.286,0,0,1,12,15.875a12.288,12.288,0,0,1,6.868,1.833,1.5,1.5,0,0,0,2.23-.865l2.037-7.13A3.007,3.007,0,0,0,22.582,7,13.467,13.467,0,0,0,12,2.375Z"/><line class="a" x1="8.25" y1="21.875" x2="8.25" y2="10.625"/><polyline class="a" points="6 12.875 8.25 10.625 10.5 12.875"/><line class="a" x1="15.75" y1="21.875" x2="15.75" y2="10.625"/><polyline class="a" points="13.5 12.875 15.75 10.625 18 12.875"/></svg>