<svg xmlns="http://www.w3.org/2000/svg" viewBox="0 0 24 24"><defs><style>.a{fill:none;stroke:currentColor;stroke-linecap:round;stroke-linejoin:round;stroke-width:1.5px;}</style></defs><title>car-sun</title><circle class="a" cx="18.718" cy="21.75" r="1.5"/><circle class="a" cx="5.218" cy="21.75" r="1.5"/><path class="a" d="M20.218,21.75H21.75a1.5,1.5,0,0,0,1.5-1.5,4.527,4.527,0,0,0-4.532-4.5S16.468,9,10.468,9C5.968,9,1.134,11.682.751,20.216A1.47,1.47,0,0,0,2.218,21.75h1.5"/><line class="a" x1="17.218" y1="21.75" x2="6.718" y2="21.75"/><line class="a" x1="18.718" y1="15.75" x2="1.484" y2="15.75"/><line class="a" x1="9.75" y1="15.75" x2="9.75" y2="9.025"/><circle class="a" cx="17.25" cy="6" r="2.25"/><line class="a" x1="12.75" y1="6" x2="11.25" y2="6"/><line class="a" x1="21.75" y1="6" x2="23.25" y2="6"/><line class="a" x1="15" y1="2.049" x2="14.25" y2="0.75"/><line class="a" x1="19.5" y1="9.951" x2="20.25" y2="11.25"/><line class="a" x1="19.5" y1="2.049" x2="20.25" y2="0.75"/></svg>