<svg xmlns="http://www.w3.org/2000/svg" viewBox="0 0 24 24"><defs><style>.a{fill:none;stroke:currentColor;stroke-linecap:round;stroke-linejoin:round;stroke-width:1.5px;}</style></defs><title>car-dashboard-steering</title><circle class="a" cx="12" cy="12" r="11.25"/><circle class="a" cx="12" cy="12" r="8.25"/><path class="a" d="M20.1,10.444A24.951,24.951,0,0,0,12,9a24.936,24.936,0,0,0-8.1,1.444"/><path class="a" d="M3.881,13.475c3.617-.659,6.5,1.5,5.908,6.475"/><path class="a" d="M20.119,13.475c-3.617-.659-6.5,1.5-5.908,6.475"/><path class="a" d="M12,12a.375.375,0,0,1,.375.375"/><path class="a" d="M11.625,12.375A.375.375,0,0,1,12,12"/><path class="a" d="M12,12.75a.375.375,0,0,1-.375-.375"/><path class="a" d="M12.375,12.375A.375.375,0,0,1,12,12.75"/></svg>