<svg xmlns="http://www.w3.org/2000/svg" viewBox="0 0 24 24"><defs><style>.a{fill:none;stroke:currentColor;stroke-linecap:round;stroke-linejoin:round;stroke-width:1.5px;}</style></defs><title>car-actions-wifi-1</title><path class="a" d="M17.262,5.475A8.527,8.527,0,0,0,12,3.75,8.527,8.527,0,0,0,6.738,5.475"/><path class="a" d="M19.893,3.337A12.783,12.783,0,0,0,12,.75,12.783,12.783,0,0,0,4.107,3.337"/><path class="a" d="M21,13.5,19.3,9.71a2.249,2.249,0,0,0-2.106-1.46H6.809A2.249,2.249,0,0,0,4.7,9.71L3,13.5"/><path class="a" d="M1.5,20.219V21.75a1.5,1.5,0,0,0,3,0v-1.5"/><path class="a" d="M19.875,16.5a.375.375,0,0,1,.375.375"/><path class="a" d="M19.5,16.875a.375.375,0,0,1,.375-.375"/><path class="a" d="M19.875,17.25a.375.375,0,0,1-.375-.375"/><path class="a" d="M20.25,16.875a.375.375,0,0,1-.375.375"/><path class="a" d="M4.125,16.5a.375.375,0,0,0-.375.375"/><path class="a" d="M4.5,16.875a.375.375,0,0,0-.375-.375"/><path class="a" d="M4.125,17.25a.375.375,0,0,0,.375-.375"/><path class="a" d="M3.75,16.875a.375.375,0,0,0,.375.375"/><path class="a" d="M2.75,13.5h18.5a2,2,0,0,1,2,2v3.75a1,1,0,0,1-1,1H1.75a1,1,0,0,1-1-1V15.5A2,2,0,0,1,2.75,13.5Z"/><path class="a" d="M22.5,20.219V21.75a1.5,1.5,0,0,1-3,0v-1.5"/></svg>