<svg xmlns="http://www.w3.org/2000/svg" viewBox="0 0 24 24"><defs><style>.a{fill:none;stroke:currentColor;stroke-linecap:round;stroke-linejoin:round;stroke-width:1.5px;}</style></defs><title>car-tool-spark-plug</title><line class="a" x1="6.5" y1="13.5" x2="17" y2="13.5"/><line class="a" x1="8.75" y1="16.5" x2="14.75" y2="16.5"/><line class="a" x1="8.75" y1="19.5" x2="14.75" y2="19.5"/><path class="a" d="M13.25,19.5v2.25a1.5,1.5,0,0,1-1.5,1.5h-1.5"/><path class="a" d="M14.75,13.5V6.454a1.5,1.5,0,0,0-.252-.832l-1-1.494A1.5,1.5,0,0,1,13.25,3.3V2.25a1.5,1.5,0,0,0-3,0V3.3A1.5,1.5,0,0,1,10,4.128L9,5.622a1.5,1.5,0,0,0-.252.832V13.5"/></svg>