<svg xmlns="http://www.w3.org/2000/svg" viewBox="0 0 24 24"><defs><style>.a{fill:none;stroke:currentColor;stroke-linecap:round;stroke-linejoin:round;stroke-width:1.5px;}</style></defs><title>car-insurance-hands</title><path class="a" d="M3.75,23.25,1.736,20.869A4.5,4.5,0,0,1,.75,18.058V12.887a1.5,1.5,0,0,1,1.5-1.5h0a1.5,1.5,0,0,1,1.5,1.5v3.75"/><path class="a" d="M8.25,23.25v-3a4.5,4.5,0,0,0-.757-2.5L6.351,16.04A1.4,1.4,0,0,0,4.374,15.6h0A1.4,1.4,0,0,0,3.9,17.387l1.352,2.25"/><path class="a" d="M20.25,23.25l2.014-2.381a4.5,4.5,0,0,0,.986-2.811V12.887a1.5,1.5,0,0,0-1.5-1.5h0a1.5,1.5,0,0,0-1.5,1.5v3.75"/><path class="a" d="M15.75,23.25v-3a4.5,4.5,0,0,1,.757-2.5l1.142-1.712a1.4,1.4,0,0,1,1.977-.444h0a1.4,1.4,0,0,1,.476,1.791l-1.352,2.25"/><line class="a" x1="8.25" y1="8.25" x2="9.75" y2="8.25"/><line class="a" x1="14.25" y1="8.25" x2="15.75" y2="8.25"/><line class="a" x1="6.75" y1="11.25" x2="6.75" y2="12.75"/><line class="a" x1="17.25" y1="11.25" x2="17.25" y2="12.75"/><path class="a" d="M18.5,7.122,17.25,5.25,16.092,1.776A1.5,1.5,0,0,0,14.669.75H9.331A1.5,1.5,0,0,0,7.908,1.776L6.75,5.25,5.5,7.122a1.5,1.5,0,0,0-.252.832v1.8a1.5,1.5,0,0,0,1.5,1.5h10.5a1.5,1.5,0,0,0,1.5-1.5v-1.8A1.5,1.5,0,0,0,18.5,7.122Z"/><line class="a" x1="6.75" y1="5.25" x2="17.25" y2="5.25"/></svg>