<svg xmlns="http://www.w3.org/2000/svg" viewBox="0 0 24 24"><defs><style>.a{fill:none;stroke:currentColor;stroke-linecap:round;stroke-linejoin:round;stroke-width:1.5px;}</style></defs><title>car-key-1</title><circle class="a" cx="6.75" cy="21.75" r="1.5"/><circle class="a" cx="18.75" cy="21.75" r="1.5"/><line class="a" x1="8.25" y1="21.75" x2="17.25" y2="21.75"/><path class="a" d="M20.25,21.75h1.5a1.5,1.5,0,0,0,1.5-1.5v-1.5a3,3,0,0,0-3-3l-1.835-3.671a1.5,1.5,0,0,0-1.342-.829h-7.9a1.5,1.5,0,0,0-1.342.829L6,15.75H3.75a3,3,0,0,0-3,3v1.5a1.5,1.5,0,0,0,1.5,1.5h3"/><line class="a" x1="6" y1="15.75" x2="20.25" y2="15.75"/><circle class="a" cx="8.25" cy="3.75" r="3"/><polyline class="a" points="11.25 3.75 18.75 3.75 18.75 6"/><line class="a" x1="15.75" y1="3.75" x2="15.75" y2="5.25"/></svg>