<svg xmlns="http://www.w3.org/2000/svg" viewBox="0 0 24 24"><defs><style>.a{fill:none;stroke:currentColor;stroke-linecap:round;stroke-linejoin:round;stroke-width:1.5px;}</style></defs><title>car-repair-fire-1</title><path class="a" d="M22.06,9.8A4.48,4.48,0,0,0,23.25,6.75c0-2.051-2.072-5.343-4.5-6,1.032,1.115,2.162,3.891-.1,4.691-2.09.74-2.73-1.788-2.73-1.788A6.006,6.006,0,0,0,14.738,5.1"/><path class="a" d="M21.75,20.25a1.5,1.5,0,0,0,1.5-1.5,3.624,3.624,0,0,0-1.061-2.561L20.25,14.25H3.75L1.811,16.189A3.624,3.624,0,0,0,.75,18.75a1.5,1.5,0,0,0,1.5,1.5Z"/><line class="a" x1="1.075" y1="17.25" x2="5.25" y2="17.25"/><line class="a" x1="22.925" y1="17.25" x2="18.75" y2="17.25"/><path class="a" d="M3.75,14.25l1.7-4.54A2.249,2.249,0,0,1,7.559,8.25h8.882a2.249,2.249,0,0,1,2.106,1.46l1.7,4.54Z"/><path class="a" d="M2.25,20.25v1.5a1.5,1.5,0,0,0,3,0v-1.5Z"/><path class="a" d="M21.75,20.25v1.5a1.5,1.5,0,0,1-3,0v-1.5Z"/></svg>