<svg xmlns="http://www.w3.org/2000/svg" viewBox="0 0 24 24"><defs><style>.a{fill:none;stroke:currentColor;stroke-linecap:round;stroke-linejoin:round;stroke-width:1.5px;}</style></defs><title>car-actions-settings</title><path class="a" d="M23.25,9.75l-3-3H3.75L1.811,8.689A3.624,3.624,0,0,0,.75,11.25a1.5,1.5,0,0,0,1.5,1.5h6"/><line class="a" x1="1.075" y1="9.75" x2="5.25" y2="9.75"/><path class="a" d="M3.75,6.75l1.7-4.54A2.249,2.249,0,0,1,7.559.75h8.882a2.249,2.249,0,0,1,2.106,1.46l1.7,4.54Z"/><path class="a" d="M2.25,12.75v1.5a1.5,1.5,0,0,0,3,0v-1.5Z"/><circle class="a" cx="17.25" cy="16.5" r="1.5"/><path class="a" d="M18.524,10.7l.442,1.453a.994.994,0,0,0,1.174.681l1.472-.341a1.339,1.339,0,0,1,1.275,2.218l-1.031,1.111a1,1,0,0,0,0,1.362l1.031,1.111a1.339,1.339,0,0,1-1.275,2.218l-1.472-.341a.994.994,0,0,0-1.174.681L18.524,22.3a1.33,1.33,0,0,1-2.548,0l-.442-1.453a.994.994,0,0,0-1.174-.681l-1.472.341a1.339,1.339,0,0,1-1.275-2.218l1.031-1.111a1,1,0,0,0,0-1.362l-1.031-1.111a1.339,1.339,0,0,1,1.275-2.218l1.472.341a.994.994,0,0,0,1.174-.681l.442-1.453A1.33,1.33,0,0,1,18.524,10.7Z"/></svg>