<svg xmlns="http://www.w3.org/2000/svg" viewBox="0 0 24 24"><defs><style>.a{fill:none;stroke:currentColor;stroke-linecap:round;stroke-linejoin:round;stroke-width:1.5px;}</style></defs><title>car-tool-jumper-cables</title><path class="a" d="M22.651,2.55l-2.4-1.8-.15,2.7-2.55.9-.15,2.7-2.617.9-.533,3.3h-4.5l-.534-3.3L6.6,7.05l-.151-2.7L3.9,3.45,3.75.751l-2.4,1.8a1.5,1.5,0,0,0-.3,2.1l7.2,9.6h7.5l7.2-9.6A1.5,1.5,0,0,0,22.651,2.55Z"/><path class="a" d="M15.751,14.249l3.194,6.262a1.07,1.07,0,0,1-.466,1.439l-2.32,1.182a1.068,1.068,0,0,1-1.441-.472L12,17.249,9.284,22.66a1.07,1.07,0,0,1-1.442.472L5.523,21.95a1.071,1.071,0,0,1-.467-1.439l3.195-6.262"/></svg>