<svg xmlns="http://www.w3.org/2000/svg" viewBox="0 0 24 24"><defs><style>.a{fill:none;stroke:currentColor;stroke-linecap:round;stroke-linejoin:round;stroke-width:1.5px;}</style></defs><title>car-dashboard-warning</title><line class="a" x1="12" y1="7" x2="12" y2="13"/><path class="a" d="M12,16a.375.375,0,0,1,.375.375"/><path class="a" d="M11.625,16.375A.375.375,0,0,1,12,16"/><path class="a" d="M12,16.75a.375.375,0,0,1-.375-.375"/><path class="a" d="M12.375,16.375A.375.375,0,0,1,12,16.75"/><circle class="a" cx="12" cy="12.25" r="8.25"/><path class="a" d="M19.648,20.5a11.249,11.249,0,0,0,0-16.5"/><path class="a" d="M4.353,4a11.247,11.247,0,0,0,0,16.5"/></svg>