<svg xmlns="http://www.w3.org/2000/svg" viewBox="0 0 24 24"><defs><style>.a{fill:none;stroke:currentColor;stroke-linecap:round;stroke-linejoin:round;stroke-width:1.5px;}</style></defs><title>car-tool-battery</title><rect class="a" x="0.75" y="5.25" width="22.5" height="15" rx="1" ry="1"/><path class="a" d="M4.75,2.25h2.5a1,1,0,0,1,1,1v2a0,0,0,0,1,0,0H3.75a0,0,0,0,1,0,0v-2A1,1,0,0,1,4.75,2.25Z"/><path class="a" d="M15.75,2.25h4.5a0,0,0,0,1,0,0v2a1,1,0,0,1-1,1h-2.5a1,1,0,0,1-1-1v-2a0,0,0,0,1,0,0Z" transform="translate(36 7.5) rotate(180)"/><line class="a" x1="3.75" y1="12.75" x2="6.75" y2="12.75"/><line class="a" x1="17.25" y1="12.75" x2="20.25" y2="12.75"/><line class="a" x1="18.75" y1="11.25" x2="18.75" y2="14.25"/></svg>