<svg xmlns="http://www.w3.org/2000/svg" viewBox="0 0 24 24"><defs><style>.a{fill:none;stroke:currentColor;stroke-linecap:round;stroke-linejoin:round;stroke-width:1.5px;}</style></defs><title>car-truck</title><circle class="a" cx="18.75" cy="17.25" r="1.5"/><circle class="a" cx="6.75" cy="17.25" r="1.5"/><path class="a" d="M20.25,17.25h1.5a1.5,1.5,0,0,0,1.5-1.5v-1.5a3,3,0,0,0-3-3h-1.5L16.165,6.079a1.5,1.5,0,0,0-1.342-.829H11.25a1.5,1.5,0,0,0-1.5,1.5v4.5H2.25a1.5,1.5,0,0,0-1.5,1.5v3a1.5,1.5,0,0,0,1.5,1.5h3"/><line class="a" x1="17.25" y1="17.25" x2="8.25" y2="17.25"/><line class="a" x1="9.75" y1="11.25" x2="18.75" y2="11.25"/></svg>