<svg xmlns="http://www.w3.org/2000/svg" viewBox="0 0 24 24"><defs><style>.a{fill:none;stroke:currentColor;stroke-linecap:round;stroke-linejoin:round;stroke-width:1.5px;}</style></defs><title>car-insurance</title><path class="a" d="M18,1.5h3.75A1.5,1.5,0,0,1,23.25,3V15a7.5,7.5,0,0,1-7.5,7.5H8.25A7.5,7.5,0,0,1,.75,15V3a1.5,1.5,0,0,1,1.5-1.5H6"/><line class="a" x1="8.25" y1="12.75" x2="9.75" y2="12.75"/><line class="a" x1="14.25" y1="12.75" x2="15.75" y2="12.75"/><line class="a" x1="6.75" y1="15.75" x2="6.75" y2="17.25"/><line class="a" x1="17.25" y1="15.75" x2="17.25" y2="17.25"/><path class="a" d="M18.5,11.622,17.25,9.75,16.092,6.276A1.5,1.5,0,0,0,14.669,5.25H9.331A1.5,1.5,0,0,0,7.908,6.276L6.75,9.75,5.5,11.622a1.5,1.5,0,0,0-.252.832v1.8a1.5,1.5,0,0,0,1.5,1.5h10.5a1.5,1.5,0,0,0,1.5-1.5v-1.8A1.5,1.5,0,0,0,18.5,11.622Z"/><line class="a" x1="6.75" y1="9.75" x2="17.25" y2="9.75"/></svg>