<svg xmlns="http://www.w3.org/2000/svg" viewBox="0 0 24 24"><defs><style>.a{fill:none;stroke:currentColor;stroke-linecap:round;stroke-linejoin:round;stroke-width:1.5px;}</style></defs><title>car-repair-engine</title><circle class="a" cx="16.5" cy="21" r="2.25"/><circle class="a" cx="6" cy="21" r="2.25"/><line class="a" x1="14.382" y1="21.75" x2="8.118" y2="21.75"/><path class="a" d="M3.881,21.75H2.25a1.5,1.5,0,0,1-1.5-1.5v-1.5a3,3,0,0,1,3-3l1.835-3.671a1.5,1.5,0,0,1,1.342-.829h4.9a1.5,1.5,0,0,1,1.342.829L15,15.75h5.25a3,3,0,0,1,3,3v1.5a1.5,1.5,0,0,1-1.5,1.5H18.62"/><line class="a" x1="15" y1="15.75" x2="3.75" y2="15.75"/><polyline class="a" points="15 15.75 19.5 11.25 22.5 11.25"/><path class="a" d="M22.5,7.5a2.447,2.447,0,0,1-.75-1.841c0-1.227,1.5-1.841,1.5-3.068A2.447,2.447,0,0,0,22.5.75"/><path class="a" d="M18,9a2.447,2.447,0,0,1-.75-1.841c0-1.227,1.5-1.841,1.5-3.068A2.447,2.447,0,0,0,18,2.25"/></svg>