<svg xmlns="http://www.w3.org/2000/svg" viewBox="0 0 24 24"><defs><style>.a{fill:none;stroke:currentColor;stroke-linecap:round;stroke-linejoin:round;stroke-width:1.5px;}</style></defs><title>car-repair-checklist</title><path class="a" d="M21.75,20.25a1.5,1.5,0,0,0,1.5-1.5,3.624,3.624,0,0,0-1.061-2.561L20.25,14.25H3.75L1.811,16.189A3.624,3.624,0,0,0,.75,18.75a1.5,1.5,0,0,0,1.5,1.5Z"/><line class="a" x1="1.075" y1="17.25" x2="5.25" y2="17.25"/><line class="a" x1="22.925" y1="17.25" x2="18.75" y2="17.25"/><path class="a" d="M14.25,8.25H7.559A2.249,2.249,0,0,0,5.453,9.71l-1.7,4.54h16.5l-1.125-3"/><path class="a" d="M2.25,20.25v1.5a1.5,1.5,0,0,0,3,0v-1.5Z"/><path class="a" d="M21.75,20.25v1.5a1.5,1.5,0,0,1-3,0v-1.5Z"/><rect class="a" x="14.25" y="0.75" width="9" height="10.5" rx="1" ry="1"/><polyline class="a" points="17.25 6 18 7.5 20.25 4.5"/></svg>