<svg xmlns="http://www.w3.org/2000/svg" viewBox="0 0 24 24"><defs><style>.a{fill:none;stroke:currentColor;stroke-linecap:round;stroke-linejoin:round;stroke-width:1.5px;}</style></defs><title>car-2</title><path class="a" d="M21.75,18.249a1.5,1.5,0,0,0,1.5-1.5V13a1.811,1.811,0,0,0-.53-1.279L20.25,9.25H3.75L1.28,11.72A1.811,1.811,0,0,0,.75,13v3.75a1.5,1.5,0,0,0,1.5,1.5Z"/><path class="a" d="M3.75,9.25,5.473,4.655A2.166,2.166,0,0,1,7.5,3.25h9a2.166,2.166,0,0,1,2.027,1.405l1.723,4.6Z"/><polyline class="a" points="3.75 9.25 2.25 7.75 0.75 7.75"/><polyline class="a" points="20.25 9.25 21.75 7.75 23.25 7.75"/><path class="a" d="M2.25,18.249v1.5a1.5,1.5,0,0,0,3,0v-1.5Z"/><path class="a" d="M21.75,18.249v1.5a1.5,1.5,0,0,1-3,0v-1.5Z"/><path class="a" d="M10.125,15.249,8.967,13.4A.751.751,0,0,1,9.6,12.249H14.4a.751.751,0,0,1,.636,1.148l-1.158,1.852"/><path class="a" d="M23.085,12.249H19.964a.751.751,0,0,0-.671,1.086l.128.256A3,3,0,0,0,22.1,15.249H23.25"/><path class="a" d="M.915,12.249H4.036a.751.751,0,0,1,.671,1.086l-.128.256A3,3,0,0,1,1.9,15.249H.75"/></svg>