<svg xmlns="http://www.w3.org/2000/svg" viewBox="0 0 24 24"><defs><style>.a{fill:none;stroke:currentColor;stroke-linecap:round;stroke-linejoin:round;stroke-width:1.5px;}</style></defs><title>car-voyage-1</title><path class="a" d="M21.75,20.25a1.5,1.5,0,0,0,1.5-1.5,3.624,3.624,0,0,0-1.061-2.561L20.25,14.25H3.75L1.811,16.189A3.624,3.624,0,0,0,.75,18.75a1.5,1.5,0,0,0,1.5,1.5Z"/><path class="a" d="M3.75,14.25l1.7-4.54A2.249,2.249,0,0,1,7.559,8.25h8.882a2.249,2.249,0,0,1,2.106,1.46l1.7,4.54Z"/><path class="a" d="M2.25,20.25v1.5a1.5,1.5,0,0,0,3,0v-1.5Z"/><path class="a" d="M21.75,20.25v1.5a1.5,1.5,0,0,1-3,0v-1.5Z"/><rect class="a" x="6.75" y="4.5" width="10.5" height="3.75" rx="1" ry="1"/><rect class="a" x="8.25" y="0.75" width="7.5" height="3.75" rx="1" ry="1"/><line class="a" x1="9.75" y1="4.5" x2="9.75" y2="8.25"/><line class="a" x1="14.25" y1="4.5" x2="14.25" y2="8.25"/></svg>