<svg xmlns="http://www.w3.org/2000/svg" viewBox="0 0 24 24"><defs><style>.a{fill:none;stroke:currentColor;stroke-linecap:round;stroke-linejoin:round;stroke-width:1.5px;}</style></defs><title>car-retro-luggage</title><circle class="a" cx="18.718" cy="21.75" r="1.5"/><circle class="a" cx="5.218" cy="21.75" r="1.5"/><path class="a" d="M20.218,21.75H21.75a1.5,1.5,0,0,0,1.5-1.5,4.527,4.527,0,0,0-4.532-4.5S16.468,9,10.468,9C5.968,9,1.134,11.682.751,20.216A1.47,1.47,0,0,0,2.218,21.75h1.5"/><line class="a" x1="17.218" y1="21.75" x2="6.718" y2="21.75"/><line class="a" x1="18.718" y1="15.75" x2="1.484" y2="15.75"/><line class="a" x1="9.75" y1="15.75" x2="9.75" y2="9.025"/><rect class="a" x="4.5" y="4.5" width="10.5" height="4.5" rx="1" ry="1" transform="translate(19.5 13.5) rotate(-180)"/><rect class="a" x="6" y="0.75" width="7.5" height="3.75" rx="1" ry="1" transform="translate(19.5 5.25) rotate(-180)"/><line class="a" x1="12" y1="4.5" x2="12" y2="9"/><line class="a" x1="7.5" y1="4.5" x2="7.5" y2="9"/></svg>