<svg id="Regular" xmlns="http://www.w3.org/2000/svg" viewBox="0 0 24 24"><defs><style>.cls-1{fill:none;stroke:currentColor;stroke-linecap:round;stroke-linejoin:round;stroke-width:1.5px;}</style></defs><title>card-game-cards-spade-diamond</title><path class="cls-1" d="M12.511,1.96A1.493,1.493,0,0,0,10.76.778L1.96,2.486A1.5,1.5,0,0,0,.778,4.238l2.563,13.2A1.494,1.494,0,0,0,5.092,18.62l.825-.16"/><polyline class="cls-1" points="8.357 6.836 6.726 10.197 7.479 10.877"/><path class="cls-1" d="M3.487,4.472a.374.374,0,0,1,.439.3"/><path class="cls-1" d="M3.19,4.911a.374.374,0,0,1,.3-.439"/><path class="cls-1" d="M3.629,5.208a.375.375,0,0,1-.439-.3"/><path class="cls-1" d="M3.926,4.768a.375.375,0,0,1-.3.44"/><rect class="cls-1" x="9.966" y="5.972" width="11.953" height="16.435" rx="1" ry="1" transform="matrix(0.98, 0.198, -0.198, 0.98, 3.125, -2.876)"/><line class="cls-1" x1="15.35" y1="17.118" x2="15.646" y2="15.654"/><path class="cls-1" d="M16.682,10.528s-2.493,1.021-2.789,2.485a2.241,2.241,0,1,0,4.394.888C18.583,12.436,16.682,10.528,16.682,10.528Z"/><path class="cls-1" d="M13.831,7.664a.375.375,0,0,1,.293.442"/><path class="cls-1" d="M13.389,7.957a.375.375,0,0,1,.442-.293"/><path class="cls-1" d="M13.682,8.4a.375.375,0,0,1-.293-.442"/><path class="cls-1" d="M14.124,8.106a.375.375,0,0,1-.442.293"/><path class="cls-1" d="M18.2,19.979a.375.375,0,0,1,.293.442"/><path class="cls-1" d="M17.76,20.272a.375.375,0,0,1,.442-.293"/><path class="cls-1" d="M18.053,20.714a.376.376,0,0,1-.293-.442"/><path class="cls-1" d="M18.5,20.421a.375.375,0,0,1-.442.293"/></svg>