<svg id="Regular" xmlns="http://www.w3.org/2000/svg" viewBox="0 0 24 24"><defs><style>.cls-1{fill:none;stroke:currentColor;stroke-linecap:round;stroke-linejoin:round;stroke-width:1.5px;}</style></defs><title>card-game-card-spade</title><rect class="cls-1" x="3" y="0.75" width="18" height="22.5" rx="1" ry="1"/><path class="cls-1" d="M15,12c0,1.864-1.343,2.25-3,2.25S9,13.864,9,12s3-4.5,3-4.5S15,10.136,15,12Z"/><line class="cls-1" x1="12" y1="14.25" x2="12" y2="16.5"/><path class="cls-1" d="M6,3.375a.375.375,0,0,1,.375.375"/><path class="cls-1" d="M5.625,3.75A.375.375,0,0,1,6,3.375"/><path class="cls-1" d="M6,4.125a.375.375,0,0,1-.375-.375"/><path class="cls-1" d="M6.375,3.75A.375.375,0,0,1,6,4.125"/><path class="cls-1" d="M18,19.875a.375.375,0,0,1,.375.375"/><path class="cls-1" d="M17.625,20.25A.375.375,0,0,1,18,19.875"/><path class="cls-1" d="M18,20.625a.375.375,0,0,1-.375-.375"/><path class="cls-1" d="M18.375,20.25a.375.375,0,0,1-.375.375"/></svg>