<svg id="Regular" xmlns="http://www.w3.org/2000/svg" viewBox="0 0 24 24"><defs><style>.cls-1{fill:none;stroke:currentColor;stroke-linecap:round;stroke-linejoin:round;stroke-width:1.5px;}</style></defs><title>card-game-dice</title><rect class="cls-1" x="12.75" y="12.75" width="10.5" height="10.5" rx="1" ry="1"/><path class="cls-1" d="M19.875,15.75a.375.375,0,0,1,.375.375"/><path class="cls-1" d="M19.5,16.125a.375.375,0,0,1,.375-.375"/><path class="cls-1" d="M19.875,16.5a.375.375,0,0,1-.375-.375"/><path class="cls-1" d="M20.25,16.125a.375.375,0,0,1-.375.375"/><path class="cls-1" d="M16.125,15.75a.375.375,0,0,1,.375.375"/><path class="cls-1" d="M15.75,16.125a.375.375,0,0,1,.375-.375"/><path class="cls-1" d="M16.125,16.5a.375.375,0,0,1-.375-.375"/><path class="cls-1" d="M16.5,16.125a.375.375,0,0,1-.375.375"/><path class="cls-1" d="M16.125,19.5a.375.375,0,0,1,.375.375"/><path class="cls-1" d="M15.75,19.875a.375.375,0,0,1,.375-.375"/><path class="cls-1" d="M16.125,20.25a.375.375,0,0,1-.375-.375"/><path class="cls-1" d="M16.5,19.875a.375.375,0,0,1-.375.375"/><path class="cls-1" d="M19.875,19.5a.375.375,0,0,1,.375.375"/><path class="cls-1" d="M19.5,19.875a.375.375,0,0,1,.375-.375"/><path class="cls-1" d="M19.875,20.25a.375.375,0,0,1-.375-.375"/><path class="cls-1" d="M20.25,19.875a.375.375,0,0,1-.375.375"/><path class="cls-1" d="M9.75,19.11,6.871,20.159a1.5,1.5,0,0,1-1.923-.9L.841,7.988a1.5,1.5,0,0,1,.9-1.923L8.25,3.692"/><path class="cls-1" d="M18.75,12.75V2.25a1.5,1.5,0,0,0-1.5-1.5H9.75a1.5,1.5,0,0,0-1.5,1.5v12a1.5,1.5,0,0,0,1.5,1.5h3"/><circle class="cls-1" cx="13.5" cy="8.25" r="2.25"/></svg>