<svg id="Regular" xmlns="http://www.w3.org/2000/svg" viewBox="0 0 24 24"><defs><style>.cls-1{fill:none;stroke:currentColor;stroke-linecap:round;stroke-linejoin:round;stroke-width:1.5px;}</style></defs><title>card-game-choose</title><path class="cls-1" d="M9.75,19.11,6.871,20.159a1.5,1.5,0,0,1-1.923-.9L.841,7.988a1.5,1.5,0,0,1,.9-1.923L8.25,3.692"/><path class="cls-1" d="M18.75,12.75V2.25a1.5,1.5,0,0,0-1.5-1.5H9.75a1.5,1.5,0,0,0-1.5,1.5v12a1.5,1.5,0,0,0,1.5,1.5h.75"/><circle class="cls-1" cx="13.5" cy="8.25" r="2.25"/><path class="cls-1" d="M17.92,22.7a.75.75,0,0,1-1.435.04L13.3,14.252a.75.75,0,0,1,.949-.949l8.485,3.182a.75.75,0,0,1-.04,1.435l-3.909.868Z"/></svg>