<svg id="Regular" xmlns="http://www.w3.org/2000/svg" viewBox="0 0 24 24"><defs><style>.cls-1{fill:none;stroke:currentColor;stroke-linecap:round;stroke-linejoin:round;stroke-width:1.5px;}</style></defs><title>card-game-diamond</title><rect class="cls-1" x="3" y="0.75" width="18" height="22.5" rx="1" ry="1"/><path class="cls-1" d="M6,3.375a.375.375,0,0,1,.375.375"/><path class="cls-1" d="M5.625,3.75A.375.375,0,0,1,6,3.375"/><path class="cls-1" d="M6,4.125a.375.375,0,0,1-.375-.375"/><path class="cls-1" d="M6.375,3.75A.375.375,0,0,1,6,4.125"/><path class="cls-1" d="M18,19.875a.375.375,0,0,1,.375.375"/><path class="cls-1" d="M17.625,20.25A.375.375,0,0,1,18,19.875"/><path class="cls-1" d="M18,20.625a.375.375,0,0,1-.375-.375"/><path class="cls-1" d="M18.375,20.25a.375.375,0,0,1-.375.375"/><path class="cls-1" d="M12.75,8.584a.75.75,0,0,0-1.248,0L9.126,11.918a.75.75,0,0,0,0,.832L11.5,16.084a.75.75,0,0,0,1.248,0l2.376-3.334a.75.75,0,0,0,0-.832Z"/></svg>