<svg id="Regular" xmlns="http://www.w3.org/2000/svg" viewBox="0 0 24 24"><defs><style>.cls-1{fill:none;stroke:currentColor;stroke-linecap:round;stroke-linejoin:round;stroke-width:1.5px;}</style></defs><title>card-game-symbols</title><path class="cls-1" d="M18.829,22.914a1.191,1.191,0,0,1-1.658,0L13.526,19.3a2.426,2.426,0,0,1-.5-2.906h0a2.72,2.72,0,0,1,4.239-.654l.731.694.731-.694a2.721,2.721,0,0,1,4.24.654h0a2.429,2.429,0,0,1-.5,2.906Z"/><path class="cls-1" d="M5.171,13.836a1.191,1.191,0,0,1,1.658,0l3.645,3.616a2.426,2.426,0,0,1,.5,2.906h0a2.72,2.72,0,0,1-4.239.654L6,20.318l-.731.694a2.721,2.721,0,0,1-4.24-.654h0a2.429,2.429,0,0,1,.5-2.906Z"/><line class="cls-1" x1="6" y1="20.318" x2="6" y2="23.25"/><path class="cls-1" d="M20.625,10.5a2.625,2.625,0,1,0-1.08-5.012,2.625,2.625,0,1,0-3.09,0,2.623,2.623,0,1,0-1.08,5.012Z"/><line class="cls-1" x1="18" y1="10.5" x2="18" y2="12"/><polygon class="cls-1" points="6 11.25 1.5 6 6 0.75 10.5 6 6 11.25"/></svg>