<svg id="Regular" xmlns="http://www.w3.org/2000/svg" viewBox="0 0 24 24"><defs><style>.cls-1{fill:none;stroke:currentColor;stroke-linecap:round;stroke-linejoin:round;stroke-width:1.5px;}</style></defs><title>card-game-cards</title><path class="cls-1" d="M6.712,6.023,1.926,7.055A1.493,1.493,0,0,0,.784,8.829L3.626,21.948A1.493,1.493,0,0,0,5.4,23.09l6.977-1.512"/><path class="cls-1" d="M3.493,9a.374.374,0,0,1,.445.287"/><path class="cls-1" d="M3.206,9.449A.374.374,0,0,1,3.493,9"/><path class="cls-1" d="M3.651,9.736a.374.374,0,0,1-.445-.287"/><path class="cls-1" d="M3.938,9.29a.375.375,0,0,1-.287.446"/><rect class="cls-1" x="9.363" y="5.675" width="11.932" height="16.407" rx="1" ry="1" transform="translate(4.939 -4) rotate(17.68)"/><polygon class="cls-1" points="16.235 11.036 13.198 13.199 14.423 16.721 17.461 14.558 16.235 11.036"/><path class="cls-1" d="M13.944,7.173a.376.376,0,0,1,.244.471"/><path class="cls-1" d="M13.473,7.416a.375.375,0,0,1,.471-.243"/><path class="cls-1" d="M13.717,7.887a.374.374,0,0,1-.244-.471"/><path class="cls-1" d="M14.188,7.644a.375.375,0,0,1-.471.243"/><path class="cls-1" d="M16.942,19.869a.375.375,0,0,1,.243.471"/><path class="cls-1" d="M16.471,20.113a.376.376,0,0,1,.471-.244"/><path class="cls-1" d="M16.714,20.584a.375.375,0,0,1-.243-.471"/><path class="cls-1" d="M17.185,20.34a.375.375,0,0,1-.471.244"/><path class="cls-1" d="M18.648,6.326V2.243a1.552,1.552,0,0,0-1.5-1.492H8.3A1.569,1.569,0,0,0,6.712,2.233V15.657a1.492,1.492,0,0,0,1.313,1.49"/><path class="cls-1" d="M9.4,2.994a.374.374,0,0,1,.372.377"/><path class="cls-1" d="M9.026,3.366A.375.375,0,0,1,9.4,2.994"/><path class="cls-1" d="M9.4,3.744a.377.377,0,0,1-.373-.378"/><path class="cls-1" d="M9.776,3.371a.375.375,0,0,1-.377.373"/></svg>