<svg id="Regular" xmlns="http://www.w3.org/2000/svg" viewBox="0 0 24 24"><defs><style>.cls-1{fill:none;stroke:currentColor;stroke-linecap:round;stroke-linejoin:round;stroke-width:1.5px;}</style></defs><title>card-game-heart</title><path class="cls-1" d="M15.93,9.1a1.9,1.9,0,0,0-2.751,0L12,10.314,10.821,9.1a1.9,1.9,0,0,0-2.751,0,2.06,2.06,0,0,0,0,2.845l3.511,3.631a.579.579,0,0,0,.838,0L15.93,11.94A2.06,2.06,0,0,0,15.93,9.1Z"/><rect class="cls-1" x="3" y="0.75" width="18" height="22.5" rx="1" ry="1"/><path class="cls-1" d="M6,3.375a.375.375,0,0,1,.375.375"/><path class="cls-1" d="M5.625,3.75A.375.375,0,0,1,6,3.375"/><path class="cls-1" d="M6,4.125a.375.375,0,0,1-.375-.375"/><path class="cls-1" d="M6.375,3.75A.375.375,0,0,1,6,4.125"/><path class="cls-1" d="M18,19.875a.375.375,0,0,1,.375.375"/><path class="cls-1" d="M17.625,20.25A.375.375,0,0,1,18,19.875"/><path class="cls-1" d="M18,20.625a.375.375,0,0,1-.375-.375"/><path class="cls-1" d="M18.375,20.25a.375.375,0,0,1-.375.375"/></svg>