<svg id="Regular" xmlns="http://www.w3.org/2000/svg" viewBox="0 0 24 24"><defs><style>.cls-1{fill:none;stroke:currentColor;stroke-linecap:round;stroke-linejoin:round;stroke-width:1.5px;}</style></defs><title>card-game-cards-hold</title><path class="cls-1" d="M7,12.75V2.25A1.5,1.5,0,0,1,8.5.75h6A1.5,1.5,0,0,1,16,2.25v10.5a1.5,1.5,0,0,1-1.5,1.5H10.619"/><path class="cls-1" d="M16.037,2.76l4.105,1.114A1.5,1.5,0,0,1,21.2,5.714L18.448,15.848A1.5,1.5,0,0,1,16.607,16.9L11.216,15.44"/><polyline class="cls-1" points="13 23.25 13 20.25 4 20.25 4 23.25"/><path class="cls-1" d="M7,12.75,8.725,9.876a1.272,1.272,0,0,1,1.494-.553h0A1.273,1.273,0,0,1,11,11l-1,2.5h0a5.122,5.122,0,0,1,1.5,3.621V20.25h-6L2.888,14.088a4.491,4.491,0,0,1-.288-2.77L4.279,4.45A2.783,2.783,0,0,1,7,2.25H7"/></svg>