<svg xmlns="http://www.w3.org/2000/svg" viewBox="0 0 24 24"><defs><style>.a{fill:none;stroke:currentColor;stroke-linecap:round;stroke-linejoin:round;stroke-width:1.5px;}</style></defs><title>cash-user-man-message</title><path class="a" d="M12.75,15.75h1.5v4.5l4.5-4.5h3a1.5,1.5,0,0,0,1.5-1.5v-12a1.5,1.5,0,0,0-1.5-1.5h-12a1.5,1.5,0,0,0-1.5,1.5"/><path class="a" d="M17.625,5.091H15a1.342,1.342,0,0,0-.5,2.588l2.655.825a1.342,1.342,0,0,1-.5,2.587H13.5"/><line class="a" x1="15.75" y1="5.091" x2="15.75" y2="3.591"/><line class="a" x1="15.75" y1="12.591" x2="15.75" y2="11.091"/><circle class="a" cx="5.25" cy="7.5" r="3"/><line class="a" x1="5.25" y1="12" x2="5.25" y2="18"/><path class="a" d="M7.875,23.25,8.25,19.5h1.5v-3a4.5,4.5,0,0,0-9,0v3h1.5l.375,3.75"/></svg>