<svg xmlns="http://www.w3.org/2000/svg" viewBox="0 0 24 24"><defs><style>.a{fill:none;stroke:currentColor;stroke-linecap:round;stroke-linejoin:round;stroke-width:1.5px;}</style></defs><title>cash-user-1</title><circle class="a" cx="18.75" cy="3.75" r="3"/><path class="a" d="M21,23.25l.75-7.5h1.5v-3a4.5,4.5,0,0,0-9,0v3h1.5l.75,7.5Z"/><line class="a" x1="18.75" y1="8.25" x2="18.75" y2="12.75"/><path class="a" d="M3.375,3A.375.375,0,1,1,3,3.375.375.375,0,0,1,3.375,3"/><path class="a" d="M11.25,12H2.135A1.4,1.4,0,0,1,.75,10.593V2.156A1.4,1.4,0,0,1,2.135.75H11.25"/><circle class="a" cx="9.75" cy="6" r="2.25"/></svg>