<svg xmlns="http://www.w3.org/2000/svg" viewBox="0 0 24 24"><defs><style>.a{fill:none;stroke:currentColor;stroke-linecap:round;stroke-linejoin:round;stroke-width:1.5px;}</style></defs><title>cash-payment-sign-1</title><polygon class="a" points="6.242 11.266 5.181 15.508 9.424 14.448 15.788 8.084 12.606 4.902 6.242 11.266"/><path class="a" d="M19.5,4.371l1.061,1.061a1.5,1.5,0,0,1,0,2.121L17.25,10.864"/><path class="a" d="M15.788,8.084,19.5,4.371a1.5,1.5,0,0,0,0-2.121L18.439,1.189a1.5,1.5,0,0,0-2.121,0L12.606,4.9"/><path class="a" d="M3.75,9.75H2.25a1.5,1.5,0,0,0-1.5,1.5v10.5a1.5,1.5,0,0,0,1.5,1.5h19.5a1.5,1.5,0,0,0,1.5-1.5V11.25a1.5,1.5,0,0,0-1.5-1.5"/><line class="a" x1="20.25" y1="19.5" x2="10.5" y2="19.5"/><line class="a" x1="20.25" y1="15.75" x2="13.5" y2="15.75"/></svg>