<svg xmlns="http://www.w3.org/2000/svg" viewBox="0 0 24 24"><defs><style>.a{fill:none;stroke:currentColor;stroke-linecap:round;stroke-linejoin:round;stroke-width:1.5px;}</style></defs><title>cash-target</title><circle class="a" cx="12" cy="12" r="8.25"/><path class="a" d="M10.142,14.219A2.221,2.221,0,0,0,12,15.094c1.139,0,2.062-.693,2.062-1.547S13.139,12,12,12s-2.063-.693-2.063-1.548S10.861,8.9,12,8.9a2.224,2.224,0,0,1,1.858.875"/><line class="a" x1="12" y1="15.094" x2="12" y2="16.125"/><line class="a" x1="12" y1="7.875" x2="12" y2="8.905"/><line class="a" x1="12" y1="1.5" x2="12" y2="5.25"/><line class="a" x1="12" y1="18.75" x2="12" y2="22.5"/><line class="a" x1="22.5" y1="12" x2="18.75" y2="12"/><line class="a" x1="5.25" y1="12" x2="1.5" y2="12"/></svg>