<svg xmlns="http://www.w3.org/2000/svg" viewBox="0 0 24 24"><defs><style>.a{fill:none;stroke:currentColor;stroke-linecap:round;stroke-linejoin:round;stroke-width:1.5px;}</style></defs><title>cash-payment-wallet</title><path class="a" d="M5.051,9.683,4.27,7.256a1.5,1.5,0,0,1,.967-1.887L19.143.89a1.5,1.5,0,0,1,1.887.968l2.08,6.456a1.5,1.5,0,0,1-.968,1.888l-4.825,1.554"/><path class="a" d="M17.317,18.683v2.571a1.935,1.935,0,0,1-1.941,1.929H2.758A1.935,1.935,0,0,1,.817,21.254V11.611A1.934,1.934,0,0,1,2.758,9.683H15.376a1.934,1.934,0,0,1,1.941,1.928v2.572"/><line class="a" x1="4.567" y1="9.698" x2="4.567" y2="23.183"/><path class="a" d="M14.144,14.183a2.169,2.169,0,0,0-2.077,2.25,2.169,2.169,0,0,0,2.077,2.25h3.635a1.085,1.085,0,0,0,1.038-1.125v-2.25a1.084,1.084,0,0,0-1.038-1.125Z"/><path class="a" d="M16.225,15.96a.375.375,0,1,1-.375.375.375.375,0,0,1,.375-.375"/><path class="a" d="M12.229,7.5a1.5,1.5,0,0,1,2.781.27"/></svg>