<svg xmlns="http://www.w3.org/2000/svg" viewBox="0 0 24 24"><defs><style>.a,.b{fill:none;stroke:currentColor;stroke-linecap:round;stroke-linejoin:round;stroke-width:1.5px;}.b{stroke-dasharray:2 2;}</style></defs><title>cash-map-directions</title><path class="a" d="M14.25,7.5c0,3.25-5.132,10.527-6.446,12.336a.375.375,0,0,1-.607,0C5.883,18.027.75,10.75.75,7.5a6.75,6.75,0,0,1,13.5,0Z"/><path class="a" d="M9.321,5.25H6.7a1.342,1.342,0,0,0-.5,2.587l2.655.825a1.342,1.342,0,0,1-.5,2.588H5.2"/><line class="a" x1="7.446" y1="5.25" x2="7.446" y2="3.75"/><line class="a" x1="7.446" y1="12.75" x2="7.446" y2="11.25"/><line class="a" x1="9.75" y1="23.25" x2="11.25" y2="23.25"/><path class="a" d="M14.25,23.25H15.4a1.111,1.111,0,0,0,1.1-1.125V21"/><line class="b" x1="16.5" y1="18" x2="16.5" y2="16.5"/><path class="a" d="M16.5,13.5V12.375a1.111,1.111,0,0,1,1.1-1.125H18.75"/><line class="a" x1="21.75" y1="11.25" x2="23.25" y2="11.25"/></svg>