<svg xmlns="http://www.w3.org/2000/svg" viewBox="0 0 24 24"><defs><style>.a{fill:none;stroke:currentColor;stroke-linecap:round;stroke-linejoin:round;stroke-width:1.5px;}</style></defs><title>cash-molecule</title><line class="a" x1="20.996" y1="14.983" x2="20.996" y2="8.951"/><line class="a" x1="2.996" y1="8.951" x2="2.996" y2="14.984"/><line class="a" x1="10.198" y1="3.161" x2="4.618" y2="6.194"/><line class="a" x1="19.348" y1="6.18" x2="13.793" y2="3.161"/><circle class="a" cx="11.996" cy="2.625" r="1.875"/><line class="a" x1="10.216" y1="20.783" x2="4.618" y2="17.74"/><line class="a" x1="19.348" y1="17.754" x2="13.775" y2="20.783"/><circle class="a" cx="11.996" cy="21.375" r="1.875"/><circle class="a" cx="2.963" cy="7.076" r="1.875"/><circle class="a" cx="2.963" cy="16.858" r="1.875"/><circle class="a" cx="20.996" cy="7.076" r="1.875"/><circle class="a" cx="20.996" cy="16.858" r="1.875"/><path class="a" d="M10.137,14.186A2.225,2.225,0,0,0,12,15.061c1.138,0,2.062-.692,2.062-1.547S13.134,11.968,12,11.968s-2.063-.693-2.063-1.548S10.857,8.873,12,8.873a2.224,2.224,0,0,1,1.858.875"/><line class="a" x1="11.996" y1="15.061" x2="11.996" y2="16.092"/><line class="a" x1="11.996" y1="7.842" x2="11.996" y2="8.873"/></svg>