<svg xmlns="http://www.w3.org/2000/svg" viewBox="0 0 24 24"><defs><style>.a{fill:none;stroke:currentColor;stroke-linecap:round;stroke-linejoin:round;stroke-width:1.5px;}</style></defs><title>cash-payment-bill-4</title><path class="a" d="M22.125,23.25l-3-4.5V13.5c0-2-3.8-4.139-5.25-5.25"/><path class="a" d="M15.805,14.794,12.157,11.87a1.3,1.3,0,0,0-1.843,1.843L13.848,17.7v2.5c0,1.181,1.687,3.045,1.687,3.045"/><path class="a" d="M13.865,20.424a1.5,1.5,0,0,1-1.49,1.326h-9a1.5,1.5,0,0,1-1.5-1.5v-18a1.5,1.5,0,0,1,1.5-1.5h9a1.5,1.5,0,0,1,1.5,1.5v11"/><path class="a" d="M7.875,14.25a3,3,0,1,1,2.24-5"/><path class="a" d="M4.5,3a.375.375,0,1,1-.375.375A.375.375,0,0,1,4.5,3"/><path class="a" d="M11.25,18.75a.375.375,0,1,1-.375.375.375.375,0,0,1,.375-.375"/></svg>