<svg xmlns="http://www.w3.org/2000/svg" viewBox="0 0 24 24"><defs><style>.a{fill:none;stroke:currentColor;stroke-linecap:round;stroke-linejoin:round;stroke-width:1.5px;}</style></defs><title>cash-payment-bill</title><line class="a" x1="0.75" y1="14.25" x2="0.75" y2="23.25"/><path class="a" d="M.75,21.75h16.5a3,3,0,0,0-3-3H10.5a3,3,0,0,0-3-3H.75"/><line class="a" x1="6.75" y1="18.75" x2="10.5" y2="18.75"/><path class="a" d="M7.875,3a.375.375,0,1,1-.375.375A.375.375,0,0,1,7.875,3"/><path class="a" d="M20.625,9a.375.375,0,1,1-.375.375A.375.375,0,0,1,20.625,9"/><path class="a" d="M6.635.75h15.23A1.4,1.4,0,0,1,23.25,2.156v8.438A1.4,1.4,0,0,1,21.865,12H6.635A1.4,1.4,0,0,1,5.25,10.594V2.156A1.4,1.4,0,0,1,6.635.75Z"/><circle class="a" cx="14.25" cy="6" r="2.25"/></svg>