<svg xmlns="http://www.w3.org/2000/svg" viewBox="0 0 24 24"><defs><style>.a{fill:none;stroke:currentColor;stroke-linecap:round;stroke-linejoin:round;stroke-width:1.5px;}</style></defs><title>cash-user-message</title><path class="a" d="M14.25,15.75v4.5l4.5-4.5h3a1.5,1.5,0,0,0,1.5-1.5v-12a1.5,1.5,0,0,0-1.5-1.5h-12a1.5,1.5,0,0,0-1.5,1.5"/><path class="a" d="M17.625,5.091H15a1.342,1.342,0,0,0-.5,2.588l2.655.825a1.342,1.342,0,0,1-.5,2.587H13.5"/><line class="a" x1="15.75" y1="5.091" x2="15.75" y2="3.591"/><line class="a" x1="15.75" y1="12.591" x2="15.75" y2="11.091"/><circle class="a" cx="6" cy="7.5" r="3"/><path class="a" d="M8.625,23.25,9,19.5h2.25V17.25a5.25,5.25,0,0,0-10.5,0V19.5H3l.375,3.75"/></svg>