<svg xmlns="http://www.w3.org/2000/svg" viewBox="0 0 24 24"><defs><style>.a{fill:none;stroke:currentColor;stroke-linecap:round;stroke-linejoin:round;stroke-width:1.5px;}</style></defs><title>cash-payment-bill-2</title><line class="a" x1="5.25" y1="9.946" x2="0.75" y2="12.196"/><path class="a" d="M.75,21a21.748,21.748,0,0,0,9.83-6.71l.234-.28c.7-.841-.3-2.032-1.383-1.532L3.685,15.13"/><path class="a" d="M16.53,14.25l-3.3,4.091a1.029,1.029,0,0,1-1.389.209l-.12-.082a1.089,1.089,0,0,1-.413-1.234l.271-.834"/><path class="a" d="M18.271,14.25l-.86,4.409a1.048,1.048,0,0,1-.552.735,1,1,0,0,1-.905,0l-.281-.145a1.048,1.048,0,0,1-.564-.935v-2.3"/><path class="a" d="M18.75,3h3a1.5,1.5,0,0,1,1.5,1.5v8.25a1.5,1.5,0,0,1-1.5,1.5H13.5"/><path class="a" d="M5.25,11.25V4.5A1.5,1.5,0,0,1,6.75,3H10.5"/><path class="a" d="M12.579,9.344a2.224,2.224,0,0,0,1.858.875c1.139,0,2.063-.693,2.063-1.547s-.924-1.546-2.063-1.546-2.062-.693-2.062-1.548.924-1.547,2.062-1.547a2.221,2.221,0,0,1,1.858.875"/><line class="a" x1="14.437" y1="10.219" x2="14.437" y2="11.25"/><line class="a" x1="14.437" y1="3" x2="14.437" y2="4.031"/></svg>