<svg xmlns="http://www.w3.org/2000/svg" viewBox="0 0 24 24"><defs><style>.a{fill:none;stroke:currentColor;stroke-linecap:round;stroke-linejoin:round;stroke-width:1.5px;}</style></defs><title>cash-user-woman-message</title><path class="a" d="M14.25,15.75v4.5l4.5-4.5h3a1.5,1.5,0,0,0,1.5-1.5v-12a1.5,1.5,0,0,0-1.5-1.5h-12a1.5,1.5,0,0,0-1.5,1.5"/><path class="a" d="M18.375,5.091H15.75a1.342,1.342,0,0,0-.5,2.588l2.655.825a1.342,1.342,0,0,1-.5,2.587H14.25"/><line class="a" x1="16.5" y1="5.091" x2="16.5" y2="3.591"/><line class="a" x1="16.5" y1="12.591" x2="16.5" y2="11.091"/><circle class="a" cx="6" cy="7.5" r="3"/><path class="a" d="M3,7.5S3,11.25.75,11.25"/><path class="a" d="M9,7.5s0,3.75,2.25,3.75"/><path class="a" d="M8.625,23.25,9,19.5h2.25V17.25a5.246,5.246,0,0,0-2.364-4.386L6,17.25,3.114,12.864A5.246,5.246,0,0,0,.75,17.25V19.5H3l.375,3.75"/></svg>