<svg xmlns="http://www.w3.org/2000/svg" viewBox="0 0 24 24"><defs><style>.a{fill:none;stroke:currentColor;stroke-linecap:round;stroke-linejoin:round;stroke-width:1.5px;}</style></defs><title>cash-toggles</title><path class="a" d="M7.281,9.363a1.3,1.3,0,0,0,1.938,0l.627-.694a1.306,1.306,0,0,1,2.274.941l-.048.935a1.307,1.307,0,0,0,1.371,1.371l.934-.048a1.306,1.306,0,0,1,.942,2.274l-.694.626a1.306,1.306,0,0,0,0,1.939l.694.627a1.306,1.306,0,0,1-.942,2.274l-.934-.048a1.307,1.307,0,0,0-1.371,1.371l.048.934a1.306,1.306,0,0,1-2.274.942l-.627-.694a1.3,1.3,0,0,0-1.938,0l-.627.694a1.306,1.306,0,0,1-2.274-.942l.048-.934A1.307,1.307,0,0,0,3.057,19.56l-.934.048a1.306,1.306,0,0,1-.942-2.274l.694-.627a1.306,1.306,0,0,0,0-1.939l-.694-.626a1.306,1.306,0,0,1,.942-2.274l.934.048a1.307,1.307,0,0,0,1.371-1.371L4.38,9.61a1.306,1.306,0,0,1,2.274-.941Z"/><path class="a" d="M18.638,4.987a.375.375,0,1,0,.375.375.374.374,0,0,0-.375-.375h0"/><path class="a" d="M21.194,1.835a.75.75,0,0,1,.97.971l-.5,1.286a.752.752,0,0,0,.229.856l1.076.865a.75.75,0,0,1-.355,1.325l-1.364.211a.75.75,0,0,0-.626.627l-.211,1.363a.75.75,0,0,1-1.326.355l-.864-1.075a.751.751,0,0,0-.856-.229l-1.287.5a.75.75,0,0,1-.97-.971l.5-1.286a.752.752,0,0,0-.229-.856l-1.076-.864a.751.751,0,0,1,.355-1.326l1.364-.211a.748.748,0,0,0,.626-.626l.211-1.364a.75.75,0,0,1,1.326-.355l.865,1.075a.749.749,0,0,0,.855.23Z"/><path class="a" d="M9.443,13.56H7.693A.955.955,0,0,0,6.8,14.566a1.01,1.01,0,0,0,.562.934l1.77.619a1.014,1.014,0,0,1,.562.935A.955.955,0,0,1,8.8,18.06H6.693"/><line class="a" x1="8.193" y1="13.56" x2="8.193" y2="12.56"/><line class="a" x1="8.193" y1="19.06" x2="8.193" y2="18.06"/></svg>