<svg xmlns="http://www.w3.org/2000/svg" viewBox="0 0 24 24"><defs><style>.a{fill:none;stroke:currentColor;stroke-linecap:round;stroke-linejoin:round;stroke-width:1.5px;}</style></defs><title>cash-payment-bill-3</title><path class="a" d="M7.875,17.25H2.625a1.5,1.5,0,0,1-1.5-1.5V7.5A1.5,1.5,0,0,1,2.625,6h18.75a1.5,1.5,0,0,1,1.5,1.5v8.75"/><polyline class="a" points="6.264 19.544 7.125 20.75 7.125 23.25"/><path class="a" d="M7.875,4.712a1.5,1.5,0,0,0-3,0V6"/><path class="a" d="M10.875,6V3.712a1.5,1.5,0,1,0-3,0V6"/><path class="a" d="M13.875,6V2.25a1.5,1.5,0,0,0-3,0V6"/><path class="a" d="M16.875,6V3.712a1.5,1.5,0,1,0-3,0V4.75"/><path class="a" d="M16.1,23.25v-1a2.024,2.024,0,0,1,.771-1.6l2.229-1.8a2.027,2.027,0,0,0,.771-1.6V12.719a1.479,1.479,0,0,0-1.446-1.469c-1.254,0-1.5,1.415-1.511,1.465l-.285,2.067a2,2,0,0,1-.952,1.453l-1.584.939a2.015,2.015,0,0,0-.972,1.737V20.25"/><path class="a" d="M9.579,13.844a2.224,2.224,0,0,0,1.858.875c1.139,0,2.063-.693,2.063-1.547s-.924-1.546-2.063-1.546-2.062-.693-2.062-1.548.924-1.547,2.062-1.547a2.221,2.221,0,0,1,1.858.875"/><line class="a" x1="11.437" y1="14.719" x2="11.437" y2="15.75"/><line class="a" x1="11.437" y1="7.5" x2="11.437" y2="8.531"/></svg>