<svg xmlns="http://www.w3.org/2000/svg" viewBox="0 0 24 24"><defs><style>.a{fill:none;stroke:currentColor;stroke-linecap:round;stroke-linejoin:round;stroke-width:1.5px;}</style></defs><title>cash-eye</title><path class="a" d="M12,4.5a8.609,8.609,0,0,0-2.25.27c-3.277.821-6.438,3.382-8.571,5.99a2,2,0,0,0,0,2.473c2.1,2.564,5.253,5.17,8.575,6A8.658,8.658,0,0,0,12,19.5a8.661,8.661,0,0,0,2.25-.267c3.322-.827,6.478-3.434,8.574-6a2,2,0,0,0,0-2.473c-2.134-2.609-5.3-5.17-8.574-5.991A8.623,8.623,0,0,0,12,4.5Z"/><path class="a" d="M10.142,14.211A2.222,2.222,0,0,0,12,15.087c1.139,0,2.063-.693,2.063-1.548S13.139,11.993,12,11.993,9.938,11.3,9.938,10.445,10.861,8.9,12,8.9a2.221,2.221,0,0,1,1.858.875"/><line class="a" x1="12" y1="15.087" x2="12" y2="16.117"/><line class="a" x1="12" y1="7.867" x2="12" y2="8.898"/><circle class="a" cx="12" cy="11.992" r="7.5"/></svg>