<svg xmlns="http://www.w3.org/2000/svg" viewBox="0 0 24 24"><defs><style>.a{fill:none;stroke:currentColor;stroke-linecap:round;stroke-linejoin:round;stroke-width:1.5px;}</style></defs><title>cash-payment-person</title><rect class="a" x="10.347" y="13.5" width="7.5" height="12" rx="1" ry="1" transform="translate(-5.403 33.597) rotate(-90)"/><path class="a" d="M10.877,15.75,11.544,13a1.5,1.5,0,0,1,1.811-1.106L22.1,14.006a1.5,1.5,0,0,1,1.105,1.811L22.149,20.19A1.5,1.5,0,0,1,20.1,21.216"/><path class="a" d="M14.25,19.125a.375.375,0,1,1-.375.375.375.375,0,0,1,.375-.375"/><path class="a" d="M.75,17.25a6.755,6.755,0,0,1,8.844-6.419"/><path class="a" d="M3.945,2.781a6.848,6.848,0,0,0,4.93,2.094,6.847,6.847,0,0,0,2.712-.558"/><circle class="a" cx="7.5" cy="4.875" r="4.125"/></svg>