<svg xmlns="http://www.w3.org/2000/svg" viewBox="0 0 24 24"><defs><style>.a{fill:none;stroke:currentColor;stroke-linecap:round;stroke-linejoin:round;stroke-width:1.5px;}</style></defs><title>cash-payment-bills</title><path class="a" d="M3.171,12.8h2.5a.483.483,0,0,1,.5.523v9.409a.483.483,0,0,1-.5.523h-2.5"/><path class="a" d="M10.322,10.584,8.4,12.977a1.4,1.4,0,0,1-1.045.523H6.171"/><path class="a" d="M6.171,20.534c2.144,1.625,4.1,2.716,5.363,2.716h6.273c.76,0,1.238-.054,1.568-1.045a63.517,63.517,0,0,0,1.046-7.66c0-.522-.523-1.045-1.568-1.045H12.921"/><path class="a" d="M10.554,12.205,9.006,1.373A.546.546,0,0,1,9.546.75H17.1"/><path class="a" d="M13.839,13.5l-.916-9.159a.5.5,0,0,1,.5-.553h6.9a.5.5,0,0,1,.5.577l-1.38,9.2"/><path class="a" d="M16.7,8.621A.375.375,0,1,1,16.321,9a.375.375,0,0,1,.375-.375"/></svg>