<svg xmlns="http://www.w3.org/2000/svg" viewBox="0 0 24 24"><defs><style>.a{fill:none;stroke:currentColor;stroke-linecap:round;stroke-linejoin:round;stroke-width:1.5px;}</style></defs><title>cash-payment-bills-1</title><path class="a" d="M13.893,12.75h6.75l.471.792a.966.966,0,0,1,0,1.071l-.3.447a.965.965,0,0,0-.06.967l.5,1a.966.966,0,0,1,0,.864l-.571,1.141a.967.967,0,0,0-.052.737l.167.5a.963.963,0,0,1-.233.988L19.143,22.5h-6.77a2.891,2.891,0,0,0-1.075.207l-1.9.543"/><path class="a" d="M2.643,17.457l3.242-1.216a1.935,1.935,0,0,0,.967-.8l2.085-4.822a2.894,2.894,0,0,1,.86-.892l.726-.485"/><path class="a" d="M10.946,12.205,9.4,1.373A.544.544,0,0,1,9.939.75h7.552"/><path class="a" d="M14.162,12.75l-.846-8.409a.5.5,0,0,1,.5-.553h6.9a.5.5,0,0,1,.5.577L19.958,12.75"/><path class="a" d="M17.088,8.621A.375.375,0,1,1,16.713,9a.375.375,0,0,1,.375-.375"/></svg>