<svg id="Regular" xmlns="http://www.w3.org/2000/svg" viewBox="0 0 24 24"><defs><style>.cls-1{fill:none;stroke:currentColor;stroke-linecap:round;stroke-linejoin:round;stroke-width:1.5px;}</style></defs><title>casino-chips-double</title><path class="cls-1" d="M20.25,18.75a1.5,1.5,0,0,1,1.5-1.5h0a1.5,1.5,0,0,1,1.5,1.5h0a2.136,2.136,0,0,1-.469,1.336L20.25,23.25h3"/><line class="cls-1" x1="12.75" y1="18" x2="17.25" y2="22.5"/><line class="cls-1" x1="17.25" y1="18" x2="12.75" y2="22.5"/><path class="cls-1" d="M9.75,20.222A9.745,9.745,0,1,1,19.152,15"/><circle class="cls-1" cx="10.5" cy="10.5" r="5.25"/><line class="cls-1" x1="10.5" y1="5.25" x2="10.5" y2="0.75"/><line class="cls-1" x1="6.788" y1="6.788" x2="3.606" y2="3.606"/><line class="cls-1" x1="5.25" y1="10.5" x2="0.75" y2="10.5"/><line class="cls-1" x1="14.212" y1="6.788" x2="17.394" y2="3.606"/><line class="cls-1" x1="15.75" y1="10.5" x2="20.25" y2="10.5"/><line class="cls-1" x1="6.788" y1="14.212" x2="3.606" y2="17.394"/></svg>