<svg id="Regular" xmlns="http://www.w3.org/2000/svg" viewBox="0 0 24 24"><defs><style>.cls-1{fill:none;stroke:currentColor;stroke-linecap:round;stroke-linejoin:round;stroke-width:1.5px;}</style></defs><title>casino-chip-diamond</title><path class="cls-1" d="M6.75,18.238A9,9,0,1,1,18.626,8.25"/><path class="cls-1" d="M6.076,13.5a5.251,5.251,0,1,1,8.707-5.25"/><path class="cls-1" d="M16.5,23.25l6.53-7.065a.751.751,0,0,0,.094-.947l-2.651-3.654a.75.75,0,0,0-.624-.334h-6.7a.75.75,0,0,0-.624.334L9.876,15.238a.751.751,0,0,0,.094.947L16.5,23.25"/><line class="cls-1" x1="9.756" y1="15.75" x2="23.244" y2="15.75"/><line class="cls-1" x1="16.5" y1="11.25" x2="16.5" y2="23.25"/></svg>