<svg id="Regular" xmlns="http://www.w3.org/2000/svg" viewBox="0 0 24 24"><defs><style>.cls-1{fill:none;stroke:currentColor;stroke-linecap:round;stroke-linejoin:round;stroke-width:1.5px;}</style></defs><title>casino-player-woman</title><path class="cls-1" d="M16.447,13.5a5.254,5.254,0,0,0,.721-4.505c-3.6-.148-5.03-3.745-5.03-3.745S10.7,8.847,7.107,8.995A5.262,5.262,0,0,0,7.829,13.5"/><path class="cls-1" d="M20,18.534a11.237,11.237,0,0,0,1.365-.514,1.5,1.5,0,0,0,.762-1.961l-1.375-3.21a4.5,4.5,0,0,1-.364-1.773V9a8.25,8.25,0,0,0-16.5,0v2.076a4.5,4.5,0,0,1-.364,1.773l-1.376,3.21A1.5,1.5,0,0,0,2.91,18.02a11.26,11.26,0,0,0,1.366.514"/><path class="cls-1" d="M21.614,23.25a10.563,10.563,0,0,0-2.141-3"/><path class="cls-1" d="M4.8,20.25a10.56,10.56,0,0,0-2.14,3"/><path class="cls-1" d="M8.527,15.834a.587.587,0,0,0-.889.5v3.326a.587.587,0,0,0,.889.5l7.221-4.332a.587.587,0,0,1,.89.5v3.326a.587.587,0,0,1-.89.5Z"/></svg>