<svg id="Regular" xmlns="http://www.w3.org/2000/svg" viewBox="0 0 24 24"><defs><style>.cls-1{fill:none;stroke:currentColor;stroke-linecap:round;stroke-linejoin:round;stroke-width:1.5px;}</style></defs><title>casino-clover</title><path class="cls-1" d="M12,14.25v7.432a1.611,1.611,0,0,0,3,.75"/><path class="cls-1" d="M20.924,11.625A2.99,2.99,0,0,0,19.5,6c-1.423,0-2.3.858-3.375,1.5.45-.982,1.5-2.5,1.5-3.75a3,3,0,0,0-3-3A2.922,2.922,0,0,0,12,2.25,2.922,2.922,0,0,0,9.375.75a3,3,0,0,0-3,3c0,1.245,1.05,2.768,1.5,3.75C6.8,6.858,5.923,6,4.5,6a2.99,2.99,0,0,0-1.424,5.625A2.99,2.99,0,0,0,4.5,17.25c5.25,0,7.5-3,7.5-3s2.25,3,7.5,3a2.99,2.99,0,0,0,1.424-5.625Z"/></svg>