<svg id="Regular" xmlns="http://www.w3.org/2000/svg" viewBox="0 0 24 24"><defs><style>.cls-1{fill:none;stroke:currentColor;stroke-linecap:round;stroke-linejoin:round;stroke-width:1.5px;}</style></defs><title>casino-chips-double-1</title><path class="cls-1" d="M.75,3.75v9c0,1.657,2.686,3,6,3s6-1.343,6-3v-9"/><path class="cls-1" d="M12.75,9.75c0,1.657-2.686,3-6,3s-6-1.343-6-3"/><ellipse class="cls-1" cx="6.75" cy="3.75" rx="6" ry="3"/><path class="cls-1" d="M12.75,6.75c0,1.657-2.686,3-6,3s-6-1.343-6-3"/><path class="cls-1" d="M20.25,18.75a1.5,1.5,0,0,1,1.5-1.5h0a1.5,1.5,0,0,1,1.5,1.5h0a2.136,2.136,0,0,1-.469,1.336L20.25,23.25h3"/><line class="cls-1" x1="12.75" y1="18" x2="17.25" y2="22.5"/><line class="cls-1" x1="17.25" y1="18" x2="12.75" y2="22.5"/></svg>