<svg id="Regular" xmlns="http://www.w3.org/2000/svg" viewBox="0 0 24 24"><defs><style>.cls-1{fill:none;stroke:currentColor;stroke-linecap:round;stroke-linejoin:round;stroke-width:1.5px;}</style></defs><title>casino-lucky-7</title><path class="cls-1" d="M11.861,1.8a5.975,5.975,0,0,0-5.083-.23c-.113.048-.216.09-.313.125A1,1,0,0,1,5.7,1.657,1.5,1.5,0,0,0,4.322.75h-.75a1.5,1.5,0,0,0-1.5,1.5v6a1.5,1.5,0,0,0,1.5,1.5h.75a1.5,1.5,0,0,0,1.5-1.5V7.98A1.5,1.5,0,0,1,6.941,6.53a4.8,4.8,0,0,1,3.461.22c1.36.852,2.994,1.506,4.4.78l1.517-.78c-4.806,4.806-7.649,9.1-8.166,14.864A1.5,1.5,0,0,0,9.65,23.25h5.212a1.505,1.505,0,0,0,1.5-1.463c.138-4.934.437-7.735,5.477-17.8a1.517,1.517,0,0,0-.273-1.747l-.623-.624a1.516,1.516,0,0,0-1.918-.17A7.055,7.055,0,0,1,11.861,1.8Z"/></svg>