<svg id="Regular" xmlns="http://www.w3.org/2000/svg" viewBox="0 0 24 24"><defs><style>.cls-1{fill:none;stroke:currentColor;stroke-linecap:round;stroke-linejoin:round;stroke-width:1.5px;}</style></defs><title>casino-diamond-bag</title><circle class="cls-1" cx="17.25" cy="17.25" r="6"/><circle class="cls-1" cx="17.25" cy="17.25" r="2.25"/><line class="cls-1" x1="17.25" y1="15" x2="17.25" y2="11.25"/><line class="cls-1" x1="19.199" y1="16.125" x2="22.446" y2="14.25"/><line class="cls-1" x1="15.301" y1="16.125" x2="12.054" y2="14.25"/><line class="cls-1" x1="17.25" y1="19.5" x2="17.25" y2="23.25"/><line class="cls-1" x1="19.199" y1="18.375" x2="22.446" y2="20.25"/><line class="cls-1" x1="15.301" y1="18.375" x2="12.054" y2="20.25"/><path class="cls-1" d="M9.75,21.75H6.682A5.932,5.932,0,0,1,1.98,12.2C5.368,8.272,6.75,6.75,6.75,6.75h6s.308.453,1.137,1.5"/><path class="cls-1" d="M12.75,6.75l1.821-4.59a.75.75,0,0,0-1.006-1.006l-1.9.948a.75.75,0,0,1-.959-.255L10.105.939a.427.427,0,0,0-.71,0l-.605.907a.75.75,0,0,1-.959.255l-1.9-.948A.75.75,0,0,0,4.929,2.16L6.75,6.75"/></svg>