<svg id="Regular" xmlns="http://www.w3.org/2000/svg" viewBox="0 0 24 24"><defs><style>.cls-1{fill:none;stroke:currentColor;stroke-linecap:round;stroke-linejoin:round;stroke-width:1.5px;}</style></defs><title>casino-pull-machine-slot</title><path class="cls-1" d="M10.515,6.007l.324-.664A1.5,1.5,0,0,1,12.188,4.5h3.1c2.946-.077,2.445,5.174-.351,5.066l-3.162-.632a.652.652,0,0,0-.488.1,1.958,1.958,0,0,0-.771,2.247l.017.05,5.723,2.2a1.956,1.956,0,0,0,1.286.041l5.708-1.784"/><path class="cls-1" d="M6.928,4.969,8.176,2.428A3,3,0,0,1,10.869.75H19.25a3,3,0,0,1,1.8.6L23.25,3"/><path class="cls-1" d="M8.842,13.184a3,3,0,1,1-.073-5.4"/><path class="cls-1" d="M7.5,13.5v3.75a3,3,0,0,1-3,3"/><path class="cls-1" d="M.75,17.25H3a1.5,1.5,0,0,1,1.5,1.5v3A1.5,1.5,0,0,1,3,23.25H.75"/><line class="cls-1" x1="0.75" y1="23.25" x2="0.75" y2="9"/></svg>