<svg id="Regular" xmlns="http://www.w3.org/2000/svg" viewBox="0 0 24 24"><defs><style>.cls-1{fill:none;stroke:currentColor;stroke-linecap:round;stroke-linejoin:round;stroke-width:1.5px;}</style></defs><title>casino-player-diamond</title><path class="cls-1" d="M16.678,22.5V20.25l1.006.168a3,3,0,0,0,3.494-2.96V15l.935-.234A1.5,1.5,0,0,0,23,12.479L21.178,9.75V9c0-3.766-3.243-6.885-7.5-7.427"/><path class="cls-1" d="M3.209,11.25a8.993,8.993,0,0,0,4.469,7.036V22.5"/><polygon class="cls-1" points="6.178 10.5 0.928 4.5 3.178 1.5 9.178 1.5 11.428 4.5 6.178 10.5"/><line class="cls-1" x1="0.928" y1="4.5" x2="11.428" y2="4.5"/><line class="cls-1" x1="6.178" y1="1.5" x2="6.178" y2="10.5"/></svg>