<svg id="Regular" xmlns="http://www.w3.org/2000/svg" viewBox="0 0 24 24"><defs><style>.cls-1{fill:none;stroke:currentColor;stroke-linecap:round;stroke-linejoin:round;stroke-width:1.5px;}</style></defs><title>casino-winner-chip</title><circle class="cls-1" cx="17.25" cy="17.25" r="6"/><circle class="cls-1" cx="17.25" cy="17.25" r="2.25"/><line class="cls-1" x1="17.25" y1="15" x2="17.25" y2="11.25"/><line class="cls-1" x1="19.199" y1="16.125" x2="22.446" y2="14.25"/><line class="cls-1" x1="15.301" y1="16.125" x2="12.054" y2="14.25"/><line class="cls-1" x1="17.25" y1="19.5" x2="17.25" y2="23.25"/><line class="cls-1" x1="19.199" y1="18.375" x2="22.446" y2="20.25"/><line class="cls-1" x1="15.301" y1="18.375" x2="12.054" y2="20.25"/><path class="cls-1" d="M22.645,9.75l.6-4.5a.75.75,0,0,0-1.078-.777L17.883,7.732a.749.749,0,0,1-1.094-.157L12.564,1.4a.75.75,0,0,0-1.128,0L7.211,7.575a.749.749,0,0,1-1.094.157L1.836,4.473A.75.75,0,0,0,.758,5.25L2.078,15.2"/><path class="cls-1" d="M8.25,15H3A2.25,2.25,0,0,0,.75,17.25h0A2.25,2.25,0,0,0,3,19.5H8.25"/></svg>