<svg id="Regular" xmlns="http://www.w3.org/2000/svg" viewBox="0 0 24 24"><defs><style>.cls-1{fill:none;stroke:currentColor;stroke-linecap:round;stroke-linejoin:round;stroke-width:1.5px;}</style></defs><title>casino-chip-5</title><circle class="cls-1" cx="12" cy="12" r="11.25"/><circle class="cls-1" cx="12" cy="12" r="7.232"/><path class="cls-1" d="M10.142,14.219A2.221,2.221,0,0,0,12,15.094c1.139,0,2.063-.693,2.063-1.547S13.139,12,12,12s-2.062-.693-2.062-1.548S10.861,8.906,12,8.906a2.221,2.221,0,0,1,1.858.875"/><line class="cls-1" x1="12" y1="15.094" x2="12" y2="16.125"/><line class="cls-1" x1="12" y1="7.875" x2="12" y2="8.906"/><path class="cls-1" d="M9.864.952,10.627,4.9"/><line class="cls-1" x1="13.293" y1="4.883" x2="14.011" y2="0.929"/><path class="cls-1" d="M1.365,8.326l3.8,1.312"/><line class="cls-1" x1="6.483" y1="7.322" x2="3.418" y2="4.723"/><path class="cls-1" d="M3.5,19.373,6.536,16.74"/><line class="cls-1" x1="5.19" y1="14.439" x2="1.407" y2="15.793"/><path class="cls-1" d="M14.136,23.048,13.373,19.1"/><line class="cls-1" x1="10.707" y1="19.117" x2="9.989" y2="23.071"/><path class="cls-1" d="M22.635,15.674l-3.8-1.312"/><line class="cls-1" x1="17.517" y1="16.678" x2="20.582" y2="19.277"/><path class="cls-1" d="M20.5,4.627,17.464,7.26"/><line class="cls-1" x1="18.81" y1="9.561" x2="22.593" y2="8.207"/></svg>