<svg id="Regular" xmlns="http://www.w3.org/2000/svg" viewBox="0 0 24 24"><defs><style>.cls-1{fill:none;stroke:currentColor;stroke-linecap:round;stroke-linejoin:round;stroke-width:1.5px;}</style></defs><title>casino-777-slot-machine</title><rect class="cls-1" x="0.75" y="5.25" width="18" height="18" rx="1" ry="1"/><line class="cls-1" x1="0.75" y1="8.25" x2="18.75" y2="8.25"/><line class="cls-1" x1="0.75" y1="15.75" x2="18.75" y2="15.75"/><line class="cls-1" x1="6.75" y1="8.25" x2="6.75" y2="15.75"/><line class="cls-1" x1="12.75" y1="8.25" x2="12.75" y2="15.75"/><path class="cls-1" d="M16.5,5.25V4.875C16.5,2.6,13.478.75,9.75.75S3,2.6,3,4.875V5.25"/><line class="cls-1" x1="3.75" y1="20.25" x2="6.75" y2="20.25"/><path class="cls-1" d="M21.75,12v5.25a3,3,0,0,1-3,3"/><path class="cls-1" d="M3.75,11.625A.375.375,0,0,1,4.125,12"/><path class="cls-1" d="M3.375,12a.375.375,0,0,1,.375-.375"/><path class="cls-1" d="M3.75,12.375A.375.375,0,0,1,3.375,12"/><path class="cls-1" d="M4.125,12a.375.375,0,0,1-.375.375"/><path class="cls-1" d="M9.75,11.625a.375.375,0,0,1,.375.375"/><path class="cls-1" d="M9.375,12a.375.375,0,0,1,.375-.375"/><path class="cls-1" d="M9.75,12.375A.375.375,0,0,1,9.375,12"/><path class="cls-1" d="M10.125,12a.375.375,0,0,1-.375.375"/><path class="cls-1" d="M15.75,11.625a.375.375,0,0,1,.375.375"/><path class="cls-1" d="M15.375,12a.375.375,0,0,1,.375-.375"/><path class="cls-1" d="M15.75,12.375A.375.375,0,0,1,15.375,12"/><path class="cls-1" d="M16.125,12a.375.375,0,0,1-.375.375"/><circle class="cls-1" cx="21.75" cy="10.5" r="1.5"/></svg>