<svg id="Regular" xmlns="http://www.w3.org/2000/svg" viewBox="0 0 24 24"><defs><style>.cls-1{fill:none;stroke:currentColor;stroke-linecap:round;stroke-linejoin:round;stroke-width:1.5px;}</style></defs><title>casino-global-chip</title><path class="cls-1" d="M9.75,23.025A11.251,11.251,0,1,1,23.225,11.25"/><path class="cls-1" d="M9.289,22.921C7.767,20.689,6.75,16.633,6.75,12S7.767,3.311,9.289,1.079"/><line class="cls-1" x1="0.75" y1="11.25" x2="9" y2="11.25"/><line class="cls-1" x1="2.482" y1="6" x2="21.518" y2="6"/><line class="cls-1" x1="1.686" y1="16.5" x2="7.5" y2="16.5"/><path class="cls-1" d="M14.711,1.079A17.011,17.011,0,0,1,17.019,8.25"/><circle class="cls-1" cx="16.5" cy="17.25" r="6"/><circle class="cls-1" cx="16.5" cy="17.25" r="2.25"/><line class="cls-1" x1="16.5" y1="15" x2="16.5" y2="11.25"/><line class="cls-1" x1="18.449" y1="16.125" x2="21.696" y2="14.25"/><line class="cls-1" x1="14.551" y1="16.125" x2="11.304" y2="14.25"/><line class="cls-1" x1="16.5" y1="19.5" x2="16.5" y2="23.25"/><line class="cls-1" x1="18.449" y1="18.375" x2="21.696" y2="20.25"/><line class="cls-1" x1="14.551" y1="18.375" x2="11.304" y2="20.25"/></svg>