<svg id="Regular" xmlns="http://www.w3.org/2000/svg" viewBox="0 0 24 24"><defs><style>.cls-1{fill:none;stroke:currentColor;stroke-linecap:round;stroke-linejoin:round;stroke-width:1.5px;}</style></defs><title>casino-chip-hold</title><path class="cls-1" d="M3.75,23.25,1.736,20.869A4.5,4.5,0,0,1,.75,18.058V12.887a1.5,1.5,0,0,1,1.5-1.5h0a1.5,1.5,0,0,1,1.5,1.5v3.75"/><path class="cls-1" d="M8.25,23.25v-3a4.5,4.5,0,0,0-.757-2.5L6.351,16.04A1.4,1.4,0,0,0,4.374,15.6h0A1.4,1.4,0,0,0,3.9,17.387l1.352,2.25"/><path class="cls-1" d="M20.25,23.25l2.014-2.381a4.5,4.5,0,0,0,.986-2.811V12.887a1.5,1.5,0,0,0-1.5-1.5h0a1.5,1.5,0,0,0-1.5,1.5v3.75"/><path class="cls-1" d="M15.75,23.25v-3a4.5,4.5,0,0,1,.757-2.5l1.142-1.712a1.4,1.4,0,0,1,1.977-.444h0a1.4,1.4,0,0,1,.476,1.791l-1.352,2.25"/><circle class="cls-1" cx="12" cy="7.5" r="6.75"/><circle class="cls-1" cx="12" cy="7.5" r="3"/><line class="cls-1" x1="12" y1="4.5" x2="12" y2="0.75"/><line class="cls-1" x1="14.494" y1="5.833" x2="17.612" y2="3.75"/><line class="cls-1" x1="9.506" y1="5.833" x2="6.388" y2="3.75"/><line class="cls-1" x1="12" y1="10.5" x2="12" y2="14.25"/><line class="cls-1" x1="14.494" y1="9.167" x2="17.612" y2="11.25"/><line class="cls-1" x1="9.506" y1="9.167" x2="6.388" y2="11.25"/></svg>