<svg id="Regular" xmlns="http://www.w3.org/2000/svg" viewBox="0 0 24 24"><defs><style>.cls-1{fill:none;stroke:currentColor;stroke-linecap:round;stroke-linejoin:round;stroke-width:1.5px;}</style></defs><title>casino-chip-buy</title><circle class="cls-1" cx="17.25" cy="17.25" r="6"/><circle class="cls-1" cx="17.25" cy="17.25" r="2.25"/><line class="cls-1" x1="17.25" y1="15" x2="17.25" y2="11.25"/><line class="cls-1" x1="19.199" y1="16.125" x2="22.446" y2="14.25"/><line class="cls-1" x1="15.301" y1="16.125" x2="12.054" y2="14.25"/><line class="cls-1" x1="17.25" y1="19.5" x2="17.25" y2="23.25"/><line class="cls-1" x1="19.199" y1="18.375" x2="22.446" y2="20.25"/><line class="cls-1" x1="15.301" y1="18.375" x2="12.054" y2="20.25"/><path class="cls-1" d="M23.25,10.5V2.365A1.62,1.62,0,0,0,21.635.75H2.357A1.612,1.612,0,0,0,.75,2.357V18.635A1.62,1.62,0,0,0,2.365,20.25H8.25"/><line class="cls-1" x1="0.75" y1="5.25" x2="23.25" y2="5.25"/></svg>