<svg id="Regular" xmlns="http://www.w3.org/2000/svg" viewBox="0 0 24 24"><defs><style>.cls-1{fill:none;stroke:currentColor;stroke-linecap:round;stroke-linejoin:round;stroke-width:1.5px;}</style></defs><title>casino-player-luck</title><path class="cls-1" d="M16.178,23.25V21l1.006.168a3,3,0,0,0,3.494-2.96V15.75l.935-.234a1.5,1.5,0,0,0,.884-2.287L20.678,10.5V9.75c0-3.541-2.868-6.51-6.75-7.3"/><path class="cls-1" d="M2.962,13.5a9.024,9.024,0,0,0,4.216,5.536V23.25"/><path class="cls-1" d="M6.428,6,3.871,3.385A1.567,1.567,0,0,1,3.588,1.6h0A1.5,1.5,0,0,1,6.01,1.2l.418.426L6.845,1.2a1.5,1.5,0,0,1,2.423.4h0a1.568,1.568,0,0,1-.283,1.782Z"/><path class="cls-1" d="M6.428,6,9.6,4.178a1.568,1.568,0,0,1,1.8.171h0A1.5,1.5,0,0,1,11.178,6.8l-.517.3.308.511a1.5,1.5,0,0,1-.994,2.245h0A1.566,1.566,0,0,1,8.321,9.13Z"/><path class="cls-1" d="M6.428,6,3.257,4.178a1.568,1.568,0,0,0-1.8.171h0A1.5,1.5,0,0,0,1.678,6.8l.517.3L1.887,7.6a1.5,1.5,0,0,0,.994,2.245h0A1.566,1.566,0,0,0,4.535,9.13Z"/><line class="cls-1" x1="6.428" y1="6" x2="6.428" y2="12.75"/></svg>