<svg id="Regular" xmlns="http://www.w3.org/2000/svg" viewBox="0 0 24 24"><defs><style>.cls-1{fill:none;stroke:currentColor;stroke-linecap:round;stroke-linejoin:round;stroke-width:1.5px;}</style></defs><title>casino-player-dice</title><path class="cls-1" d="M3.125,12.75A9.006,9.006,0,0,0,7.5,19.036V23.25"/><path class="cls-1" d="M16.5,23.25V21l1.006.168A3,3,0,0,0,21,18.208V15.75l.935-.234a1.5,1.5,0,0,0,.884-2.287L21,10.5V9.75c0-3.984-3.63-7.244-8.25-7.495"/><rect class="cls-1" x="0.75" y="0.75" width="9" height="9" rx="1" ry="1"/><path class="cls-1" d="M7.125,3a.375.375,0,0,1,.375.375"/><path class="cls-1" d="M6.75,3.375A.375.375,0,0,1,7.125,3"/><path class="cls-1" d="M7.125,3.75a.375.375,0,0,1-.375-.375"/><path class="cls-1" d="M7.5,3.375a.375.375,0,0,1-.375.375"/><path class="cls-1" d="M3.375,3a.375.375,0,0,1,.375.375"/><path class="cls-1" d="M3,3.375A.375.375,0,0,1,3.375,3"/><path class="cls-1" d="M3.375,3.75A.375.375,0,0,1,3,3.375"/><path class="cls-1" d="M3.75,3.375a.375.375,0,0,1-.375.375"/><path class="cls-1" d="M7.125,6.75a.375.375,0,0,1,.375.375"/><path class="cls-1" d="M6.75,7.125a.375.375,0,0,1,.375-.375"/><path class="cls-1" d="M7.125,7.5a.375.375,0,0,1-.375-.375"/><path class="cls-1" d="M7.5,7.125a.375.375,0,0,1-.375.375"/><path class="cls-1" d="M3.375,6.75a.375.375,0,0,1,.375.375"/><path class="cls-1" d="M3,7.125a.375.375,0,0,1,.375-.375"/><path class="cls-1" d="M3.375,7.5A.375.375,0,0,1,3,7.125"/><path class="cls-1" d="M3.75,7.125a.375.375,0,0,1-.375.375"/></svg>