<svg id="Regular" xmlns="http://www.w3.org/2000/svg" viewBox="0 0 24 24"><defs><style>.cls-1{fill:none;stroke:currentColor;stroke-linecap:round;stroke-linejoin:round;stroke-width:1.5px;}</style></defs><title>casino-gold-bars</title><circle class="cls-1" cx="17.25" cy="17.25" r="6"/><circle class="cls-1" cx="17.25" cy="17.25" r="2.25"/><line class="cls-1" x1="17.25" y1="15" x2="17.25" y2="11.25"/><line class="cls-1" x1="19.199" y1="16.125" x2="22.446" y2="14.25"/><line class="cls-1" x1="15.301" y1="16.125" x2="12.054" y2="14.25"/><line class="cls-1" x1="17.25" y1="19.5" x2="17.25" y2="23.25"/><line class="cls-1" x1="19.199" y1="18.375" x2="22.446" y2="20.25"/><line class="cls-1" x1="15.301" y1="18.375" x2="12.054" y2="20.25"/><path class="cls-1" d="M14.962,5.013A.751.751,0,0,1,14.25,6H6.75a.751.751,0,0,1-.712-.987l1.291-3.75A.751.751,0,0,1,8.041.75h4.918a.751.751,0,0,1,.712.513Z"/><path class="cls-1" d="M9.712,10.263A.751.751,0,0,1,9,11.25H1.5a.751.751,0,0,1-.712-.987l1.291-3.75A.751.751,0,0,1,2.791,6H7.709a.751.751,0,0,1,.712.513Z"/><path class="cls-1" d="M11.723,9l.856-2.487A.751.751,0,0,1,13.291,6h4.918a.751.751,0,0,1,.712.513L19.777,9"/></svg>