<svg id="Regular" xmlns="http://www.w3.org/2000/svg" viewBox="0 0 24 24"><defs><style>.cls-1{fill:none;stroke:currentColor;stroke-linecap:round;stroke-linejoin:round;stroke-width:1.5px;}</style></defs><title>casino-player-man</title><path class="cls-1" d="M8.39,15.584a.587.587,0,0,0-.89.5v3.326a.587.587,0,0,0,.89.5l7.221-4.332a.587.587,0,0,1,.889.5v3.326a.587.587,0,0,1-.889.5Z"/><path class="cls-1" d="M2.25,23a9.714,9.714,0,0,1,2.715-6.75"/><path class="cls-1" d="M19.035,16.25A9.714,9.714,0,0,1,21.75,23"/><path class="cls-1" d="M21.75,23a9.714,9.714,0,0,0-2.715-6.75"/><path class="cls-1" d="M4.965,16.25A9.714,9.714,0,0,0,2.25,23"/><path class="cls-1" d="M17.25,7.5a5.255,5.255,0,0,1-6.978-2.461,5.26,5.26,0,0,1-3.522,3.5"/><path class="cls-1" d="M15.674,13.25A5.232,5.232,0,0,0,17.25,9.5v-3a5.25,5.25,0,0,0-10.5,0v3a5.232,5.232,0,0,0,1.576,3.75"/></svg>