<svg id="Regular" xmlns="http://www.w3.org/2000/svg" viewBox="0 0 24 24"><defs><style>.cls-1{fill:none;stroke:currentColor;stroke-linecap:round;stroke-linejoin:round;stroke-width:1.5px;}</style></defs><title>casino-add-chips</title><circle class="cls-1" cx="12" cy="12" r="11.25"/><circle class="cls-1" cx="12" cy="12" r="7.5"/><circle class="cls-1" cx="12" cy="12" r="3.75"/><line class="cls-1" x1="12" y1="0.75" x2="12" y2="4.5"/><line class="cls-1" x1="19.955" y1="4.045" x2="17.303" y2="6.697"/><line class="cls-1" x1="23.25" y1="12" x2="19.5" y2="12"/><line class="cls-1" x1="19.955" y1="19.955" x2="17.303" y2="17.303"/><line class="cls-1" x1="12" y1="23.25" x2="12" y2="19.5"/><line class="cls-1" x1="4.045" y1="19.955" x2="6.697" y2="17.303"/><line class="cls-1" x1="0.75" y1="12" x2="4.5" y2="12"/><line class="cls-1" x1="4.045" y1="4.045" x2="6.697" y2="6.697"/><line class="cls-1" x1="14.846" y1="5.061" x2="13.423" y2="8.531"/><line class="cls-1" x1="18.919" y1="9.106" x2="15.46" y2="10.553"/><line class="cls-1" x1="18.939" y1="14.846" x2="15.469" y2="13.423"/><line class="cls-1" x1="14.894" y1="18.919" x2="13.447" y2="15.46"/><line class="cls-1" x1="9.154" y1="18.939" x2="10.577" y2="15.469"/><line class="cls-1" x1="5.081" y1="14.894" x2="8.54" y2="13.447"/><line class="cls-1" x1="5.061" y1="9.154" x2="8.531" y2="10.577"/><line class="cls-1" x1="9.106" y1="5.081" x2="10.553" y2="8.54"/></svg>