<svg id="Regular" xmlns="http://www.w3.org/2000/svg" viewBox="0 0 24 24"><defs><style>.cls-1{fill:none;stroke:currentColor;stroke-linecap:round;stroke-linejoin:round;stroke-width:1.5px;}</style></defs><title>casino-lucky-horseshoe</title><path class="cls-1" d="M12.546,23.25H11.454A10.7,10.7,0,0,1,2.161,7.235L3.75,4.453V2.25A1.5,1.5,0,0,1,5.25.75h3a1.5,1.5,0,0,1,1.5,1.5v3a2.988,2.988,0,0,1-.4,1.488L7.37,10.211a4.7,4.7,0,0,0,4.084,7.039h1.092a4.7,4.7,0,0,0,4.084-7.039L14.646,6.738a2.988,2.988,0,0,1-.4-1.488v-3a1.5,1.5,0,0,1,1.5-1.5h3a1.5,1.5,0,0,1,1.5,1.5v2.2l1.589,2.782A10.7,10.7,0,0,1,12.546,23.25Z"/><path class="cls-1" d="M12,19.875a.375.375,0,0,1,.375.375"/><path class="cls-1" d="M11.625,20.25A.375.375,0,0,1,12,19.875"/><path class="cls-1" d="M12,20.625a.375.375,0,0,1-.375-.375"/><path class="cls-1" d="M12.375,20.25a.375.375,0,0,1-.375.375"/><path class="cls-1" d="M17.813,17.313a.375.375,0,0,1,.529-.024"/><path class="cls-1" d="M17.836,17.843a.376.376,0,0,1-.023-.53"/><path class="cls-1" d="M18.366,17.819a.375.375,0,0,1-.53.024"/><path class="cls-1" d="M18.342,17.289a.375.375,0,0,1,.024.53"/><path class="cls-1" d="M19.843,11.294a.376.376,0,0,1,.34-.407"/><path class="cls-1" d="M20.25,11.634a.375.375,0,0,1-.407-.34"/><path class="cls-1" d="M20.59,11.227a.374.374,0,0,1-.34.407"/><path class="cls-1" d="M20.183,10.887a.375.375,0,0,1,.407.34"/><path class="cls-1" d="M6.187,17.313a.375.375,0,0,0-.529-.024"/><path class="cls-1" d="M6.164,17.843a.376.376,0,0,0,.023-.53"/><path class="cls-1" d="M5.634,17.819a.375.375,0,0,0,.53.024"/><path class="cls-1" d="M5.658,17.289a.375.375,0,0,0-.024.53"/><path class="cls-1" d="M4.157,11.294a.376.376,0,0,0-.34-.407"/><path class="cls-1" d="M3.75,11.634a.375.375,0,0,0,.407-.34"/><path class="cls-1" d="M3.41,11.227a.374.374,0,0,0,.34.407"/><path class="cls-1" d="M3.817,10.887a.375.375,0,0,0-.407.34"/><line class="cls-1" x1="20.25" y1="4.5" x2="18" y2="4.5"/><line class="cls-1" x1="6" y1="4.5" x2="3.75" y2="4.5"/></svg>