<svg id="Regular" xmlns="http://www.w3.org/2000/svg" viewBox="0 0 24 24"><defs><style>.cls-1{fill:none;stroke:currentColor;stroke-linecap:round;stroke-linejoin:round;stroke-width:1.5px;}</style></defs><title>casino-winner-diamond</title><path class="cls-1" d="M22.645,9.361l.6-4.5a.75.75,0,0,0-1.078-.777l-4.281,3.26a.75.75,0,0,1-1.094-.158l-4.225-6.18a.75.75,0,0,0-1.128,0L7.211,7.186a.75.75,0,0,1-1.094.158L1.836,4.084a.75.75,0,0,0-1.078.777l1.32,9.952"/><path class="cls-1" d="M6.75,14.611H3a2.25,2.25,0,0,0-2.25,2.25h0A2.25,2.25,0,0,0,3,19.111H9"/><path class="cls-1" d="M16.5,22.861,23.03,15.8a.751.751,0,0,0,.094-.947L20.473,11.2a.75.75,0,0,0-.624-.334h-6.7a.75.75,0,0,0-.624.334L9.876,14.849a.751.751,0,0,0,.094.947l6.53,7.065"/><line class="cls-1" x1="9.756" y1="15.361" x2="23.244" y2="15.361"/><line class="cls-1" x1="16.5" y1="10.861" x2="16.5" y2="22.861"/></svg>