<svg id="Regular" xmlns="http://www.w3.org/2000/svg" viewBox="0 0 24 24"><defs><style>.cls-1{fill:none;stroke:currentColor;stroke-linecap:round;stroke-linejoin:round;stroke-width:1.5px;}</style></defs><title>cat-fish-toy</title><path class="cls-1" d="M14.842,3.542A3,3,0,0,0,12.85,7.468a6,6,0,0,0,5.246,3.9,3,3,0,0,0,2.534-1.122l2.62-3.275L19.5,5.233,19.538,2.2Z"/><path class="cls-1" d="M16.621,6.708a.374.374,0,0,0,0,.53"/><path class="cls-1" d="M17.151,6.708a.374.374,0,0,0-.53,0"/><path class="cls-1" d="M17.151,7.238a.374.374,0,0,0,0-.53"/><path class="cls-1" d="M16.621,7.238a.374.374,0,0,0,.53,0"/><line class="cls-1" x1="6.341" y1="17.518" x2="14.234" y2="9.625"/><path class="cls-1" d="M4.282,19.7A5.945,5.945,0,0,1,5.99,23.233a3.306,3.306,0,0,0,.413-.35,3.75,3.75,0,1,0-5.3-5.3,3.306,3.306,0,0,0-.35.413A5.945,5.945,0,0,1,4.282,19.7Z"/><line class="cls-1" x1="8.931" y1="8.564" x2="14.765" y2="14.398"/><line class="cls-1" x1="5.749" y1="9.625" x2="13.704" y2="17.58"/><line class="cls-1" x1="4.688" y1="12.807" x2="10.522" y2="18.64"/></svg>