<svg id="Regular" xmlns="http://www.w3.org/2000/svg" viewBox="0 0 24 24"><defs><style>.cls-1{fill:none;stroke:currentColor;stroke-linecap:round;stroke-linejoin:round;stroke-width:1.5px;}</style></defs><title>cat-grass</title><line class="cls-1" x1="0.75" y1="6.75" x2="14.25" y2="6.75"/><path class="cls-1" d="M8.25,15h-3a1.5,1.5,0,0,1-1.488-1.314L2.426,6.75"/><line class="cls-1" x1="7.5" y1="0.75" x2="7.5" y2="6.75"/><line class="cls-1" x1="3.926" y1="3" x2="4.676" y2="6.75"/><line class="cls-1" x1="11.824" y1="3" x2="11.074" y2="6.75"/><path class="cls-1" d="M19.821,13.125a3.761,3.761,0,0,0-2.571-.844,3.761,3.761,0,0,0-2.571.844l-2.153-2.119a.751.751,0,0,0-1.276.535v5.8a6,6,0,0,0,12,0v-5.8a.751.751,0,0,0-1.276-.535Z"/></svg>