<svg id="Regular" xmlns="http://www.w3.org/2000/svg" viewBox="0 0 24 24"><defs><style>.cls-1{fill:none;stroke:currentColor;stroke-linecap:round;stroke-linejoin:round;stroke-width:1.5px;}</style></defs><title>cat-carrier-2</title><line class="cls-1" x1="1.5" y1="13.5" x2="22.5" y2="13.5"/><path class="cls-1" d="M21,13.5,19.709,5.753A1.5,1.5,0,0,0,18.229,4.5H5.771a1.5,1.5,0,0,0-1.48,1.253L3,13.5"/><path class="cls-1" d="M21,13.5l-1.291,7.747a1.5,1.5,0,0,1-1.48,1.253H5.771a1.5,1.5,0,0,1-1.48-1.253L3,13.5"/><line class="cls-1" x1="7.5" y1="7.5" x2="7.5" y2="10.5"/><line class="cls-1" x1="12" y1="7.5" x2="12" y2="10.5"/><line class="cls-1" x1="16.5" y1="7.5" x2="16.5" y2="10.5"/><line class="cls-1" x1="7.5" y1="16.5" x2="7.5" y2="19.5"/><line class="cls-1" x1="12" y1="16.5" x2="12" y2="19.5"/><line class="cls-1" x1="16.5" y1="16.5" x2="16.5" y2="19.5"/><path class="cls-1" d="M9,4.5a3,3,0,0,1,6,0"/></svg>