<svg id="Regular" xmlns="http://www.w3.org/2000/svg" viewBox="0 0 24 24"><defs><style>.cls-1{fill:none;stroke:currentColor;stroke-linecap:round;stroke-linejoin:round;stroke-width:1.5px;}</style></defs><title>cat-yarn-toy</title><circle class="cls-1" cx="10.703" cy="17.25" r="6"/><path class="cls-1" d="M5.168,19.57A8.258,8.258,0,0,0,16.2,14.843"/><path class="cls-1" d="M4.792,16.214a8.264,8.264,0,0,0,9.337-3.89"/><path class="cls-1" d="M20.743,8.483a5.194,5.194,0,0,1-.4,2.274,5.222,5.222,0,0,0-9.438.5,5.193,5.193,0,0,1-.643-2.219,5.25,5.25,0,1,1,10.485-.556Z"/><path class="cls-1" d="M9.279,1.044a5.219,5.219,0,0,1,2.145.859,5.221,5.221,0,0,0-1.43,9.342,5.194,5.194,0,0,1-2.3.179A5.25,5.25,0,0,1,9.279,1.044Z"/></svg>