<svg id="Regular" xmlns="http://www.w3.org/2000/svg" viewBox="0 0 24 24"><defs><style>.cls-1{fill:none;stroke:currentColor;stroke-linecap:round;stroke-linejoin:round;stroke-width:1.5px;}</style></defs><title>cat-lost</title><line class="cls-1" x1="21.25" y1="23.25" x2="21.25" y2="15.75"/><line class="cls-1" x1="19.75" y1="15.75" x2="22.75" y2="15.75"/><path class="cls-1" d="M9.25,15.75a1.5,1.5,0,0,0-1.5,1.5v4.5a1.5,1.5,0,0,0,3,0v-4.5A1.5,1.5,0,0,0,9.25,15.75Z"/><path class="cls-1" d="M1.75,15.75v6a1.5,1.5,0,0,0,1.5,1.5h1.5"/><path class="cls-1" d="M16.75,15.75h-1.5a1.5,1.5,0,0,0-1.5,1.5c0,2.25,3,2.25,3,4.5a1.5,1.5,0,0,1-1.5,1.5h-1.5"/><path class="cls-1" d="M11.5,10.125a.375.375,0,0,1,.375.375"/><path class="cls-1" d="M11.125,10.5a.375.375,0,0,1,.375-.375"/><path class="cls-1" d="M11.5,10.875a.375.375,0,0,1-.375-.375"/><path class="cls-1" d="M11.875,10.5a.375.375,0,0,1-.375.375"/><line class="cls-1" x1="9.25" y1="6.75" x2="9.25" y2="8.25"/><line class="cls-1" x1="13.75" y1="6.75" x2="13.75" y2="8.25"/><path class="cls-1" d="M6.25,12.75V.75l4.506,2.575a1.5,1.5,0,0,0,1.488,0L16.75.75v12"/></svg>