<svg id="Regular" xmlns="http://www.w3.org/2000/svg" viewBox="0 0 24 24"><defs><style>.cls-1{fill:none;stroke:currentColor;stroke-linecap:round;stroke-linejoin:round;stroke-width:1.5px;}</style></defs><title>cat-litter</title><path class="cls-1" d="M21.75,15.75,20.7,20.787a3,3,0,0,1-2.952,2.463H6.254A3,3,0,0,1,3.3,20.787L2.25,15.75"/><path class="cls-1" d="M23.25,15.75H18a1.5,1.5,0,0,0-1.061.439l-1.5,2.122a1.5,1.5,0,0,1-1.06.439H9.621a1.5,1.5,0,0,1-1.06-.439l-1.5-2.122A1.5,1.5,0,0,0,6,15.75H.75"/><path class="cls-1" d="M12.792,13.775a.785.785,0,0,1-1.183.084L7.891,10.141a.785.785,0,0,1,.084-1.183l2.772-2.079c1.488-1.116,2.463-.486,4,.123.585,1.477,1.264,2.48.123,4Z"/><line class="cls-1" x1="14.748" y1="7.002" x2="21" y2="0.75"/></svg>