<svg id="Regular" xmlns="http://www.w3.org/2000/svg" viewBox="0 0 24 24"><defs><style>.cls-1{fill:none;stroke:currentColor;stroke-linecap:round;stroke-linejoin:round;stroke-width:1.5px;}</style></defs><title>cat-carrier</title><line class="cls-1" x1="0.75" y1="14.25" x2="23.25" y2="14.25"/><path class="cls-1" d="M21.75,14.25,20.459,6.5a1.5,1.5,0,0,0-1.48-1.253H5.021A1.5,1.5,0,0,0,3.541,6.5L2.25,14.25"/><path class="cls-1" d="M21.75,14.25,20.459,22a1.5,1.5,0,0,1-1.48,1.253H5.021A1.5,1.5,0,0,1,3.541,22L2.25,14.25"/><path class="cls-1" d="M6,14.25l.586-4.686A1.5,1.5,0,0,1,8.074,8.25h7.852a1.5,1.5,0,0,1,1.488,1.314L18,14.25"/><line class="cls-1" x1="12" y1="8.25" x2="12" y2="14.25"/><line class="cls-1" x1="12" y1="17.25" x2="12" y2="19.5"/><line class="cls-1" x1="16.5" y1="17.25" x2="16.5" y2="19.5"/><line class="cls-1" x1="7.5" y1="17.25" x2="7.5" y2="19.5"/><path class="cls-1" d="M8.25,5.25v-3A1.5,1.5,0,0,1,9.75.75h4.5a1.5,1.5,0,0,1,1.5,1.5v3"/></svg>