<svg id="Regular" xmlns="http://www.w3.org/2000/svg" viewBox="0 0 24 24"><defs><style>.cls-1{fill:none;stroke:currentColor;stroke-linecap:round;stroke-linejoin:round;stroke-width:1.5px;}</style></defs><title>cat-bed-1</title><line class="cls-1" x1="9.75" y1="10.5" x2="14.25" y2="10.5"/><path class="cls-1" d="M17.758,11.184a.49.49,0,0,0-.378.476v.633a1.957,1.957,0,0,1-1.956,1.957H8.576A1.957,1.957,0,0,1,6.62,12.293V11.66a.49.49,0,0,0-.378-.476C2.953,10.416.75,9.01.75,7.4v9.2C.75,19.029,5.787,21,12,21s11.25-1.971,11.25-4.4V7.4C23.25,9.01,21.047,10.416,17.758,11.184Z"/><path class="cls-1" d="M23.25,7.4C23.25,4.971,18.213,3,12,3S.75,4.971.75,7.4c0,1.608,2.2,3.014,5.492,3.782a.49.49,0,0,1,.378.476v.633A1.957,1.957,0,0,0,8.576,14.25h6.848a1.957,1.957,0,0,0,1.956-1.957V11.66a.49.49,0,0,1,.378-.476C21.047,10.416,23.25,9.01,23.25,7.4Z"/><path class="cls-1" d="M1.92,9.358C3.761,7.909,7.583,6.913,12,6.913s8.24,1,10.081,2.446"/></svg>