<svg id="Regular" xmlns="http://www.w3.org/2000/svg" viewBox="0 0 24 24"><defs><style>.cls-1{fill:none;stroke:currentColor;stroke-linecap:round;stroke-linejoin:round;stroke-width:1.5px;}</style></defs><title>cat-head</title><path class="cls-1" d="M3.511,16.04A7.705,7.705,0,0,1,3,13.382C3,9.305,7.029,6,12,6"/><path class="cls-1" d="M16.5,21.07A8.115,8.115,0,0,1,12,22.5a8.115,8.115,0,0,1-4.5-1.43"/><path class="cls-1" d="M20.489,16.04A7.705,7.705,0,0,0,21,13.382C21,9.305,16.971,6,12,6"/><path class="cls-1" d="M14.25,16.125A2.448,2.448,0,0,1,12,18a2.448,2.448,0,0,1-2.25-1.875C9.75,15.5,10.757,15,12,15S14.25,15.5,14.25,16.125Z"/><path class="cls-1" d="M9.75,19.5A2.774,2.774,0,0,0,12,18a2.774,2.774,0,0,0,2.25,1.5"/><path class="cls-1" d="M7.875,12a.375.375,0,0,1,.375.375"/><path class="cls-1" d="M7.5,12.375A.375.375,0,0,1,7.875,12"/><path class="cls-1" d="M7.875,12.75a.375.375,0,0,1-.375-.375"/><path class="cls-1" d="M8.25,12.375a.375.375,0,0,1-.375.375"/><path class="cls-1" d="M16.125,12a.375.375,0,0,1,.375.375"/><path class="cls-1" d="M15.75,12.375A.375.375,0,0,1,16.125,12"/><path class="cls-1" d="M16.125,12.75a.375.375,0,0,1-.375-.375"/><path class="cls-1" d="M16.5,12.375a.375.375,0,0,1-.375.375"/><line class="cls-1" x1="12" y1="6" x2="12" y2="9.75"/><line class="cls-1" x1="9" y1="6.75" x2="9" y2="9"/><line class="cls-1" x1="15" y1="6.75" x2="15" y2="9"/><path class="cls-1" d="M3,13.381V3.121A1.5,1.5,0,0,1,5.437,1.95l5.172,4.138"/><path class="cls-1" d="M21,13.381V3.121A1.5,1.5,0,0,0,18.563,1.95L13.391,6.088"/><line class="cls-1" x1="18.75" y1="15.75" x2="23.25" y2="16.5"/><line class="cls-1" x1="18" y1="18" x2="21.75" y2="20.25"/><line class="cls-1" x1="5.25" y1="15.75" x2="0.75" y2="16.5"/><line class="cls-1" x1="6" y1="18" x2="2.25" y2="20.25"/></svg>