<svg id="Regular" xmlns="http://www.w3.org/2000/svg" viewBox="0 0 24 24"><defs><style>.cls-1{fill:none;stroke:currentColor;stroke-linecap:round;stroke-linejoin:round;stroke-width:1.5px;}</style></defs><title>cat-bell</title><circle class="cls-1" cx="11.99" cy="15" r="7.5"/><line class="cls-1" x1="2.99" y1="15" x2="20.99" y2="15"/><path class="cls-1" d="M11.99,18.375a.375.375,0,0,1,.375.375"/><path class="cls-1" d="M11.615,18.75a.375.375,0,0,1,.375-.375"/><path class="cls-1" d="M11.99,19.125a.375.375,0,0,1-.375-.375"/><path class="cls-1" d="M12.365,18.75a.375.375,0,0,1-.375.375"/><line class="cls-1" x1="11.99" y1="19.125" x2="11.99" y2="22.5"/><path class="cls-1" d="M22.5,1.563A20.154,20.154,0,0,1,11.99,4.5,20.158,20.158,0,0,1,1.5,1.577"/><line class="cls-1" x1="12.004" y1="4.5" x2="12.004" y2="7.5"/></svg>