<svg id="Regular" xmlns="http://www.w3.org/2000/svg" viewBox="0 0 24 24"><defs><style>.cls-1{fill:none;stroke:currentColor;stroke-linecap:round;stroke-linejoin:round;stroke-width:1.5px;}</style></defs><title>cat-toy</title><path class="cls-1" d="M1,23.25v-15a1.5,1.5,0,0,1,3,0v15"/><path class="cls-1" d="M14.5,23.25c-.828,0-1.5-1.007-1.5-2.25s1.5-4.5,1.5-4.5S16,19.757,16,21,15.328,23.25,14.5,23.25Z"/><path class="cls-1" d="M22.572,19.5c-.46.689-1.67.688-2.7,0s-2.909-3.746-2.909-3.746S20.5,16.311,21.534,17,23.032,18.809,22.572,19.5Z"/><path class="cls-1" d="M6.428,19.5c.46.689,1.67.688,2.7,0s2.909-3.746,2.909-3.746S8.5,16.311,7.466,17,5.968,18.809,6.428,19.5Z"/><path class="cls-1" d="M2.5,6.75v-3a3,3,0,0,1,3-3H16a3,3,0,0,1,0,6H14.6a3,3,0,0,0-2.2,5.035l2.1,2.277"/></svg>