<svg id="Regular" xmlns="http://www.w3.org/2000/svg" viewBox="0 0 24 24"><defs><style>.cls-1{fill:none;stroke:currentColor;stroke-linecap:round;stroke-linejoin:round;stroke-width:1.5px;}</style></defs><title>cat-water</title><path class="cls-1" d="M14.24,8.976V2.5a.751.751,0,0,0-1.273-.538L10.383,4.476a4.929,4.929,0,0,0-5.786,0L2.013,1.963A.751.751,0,0,0,.74,2.5V9.163a6.659,6.659,0,0,0,6.75,6.563"/><path class="cls-1" d="M23.086,21.174a3,3,0,0,1-2.846,2.052h-6a3,3,0,0,1-2.846-2.052l-.154-.948h12Z"/><polyline class="cls-1" points="15.74 20.226 15.74 16.476 18.74 16.476 18.74 20.226"/><path class="cls-1" d="M17.24,16.476v-1.5a3,3,0,0,1,5.906-.75"/><line class="cls-1" x1="23.24" y1="17.226" x2="23.24" y2="17.976"/><path class="cls-1" d="M17.24,16.476v-1.5a3,3,0,0,0-5.9-.75"/><line class="cls-1" x1="11.24" y1="17.226" x2="11.24" y2="17.976"/></svg>