<svg id="Regular" xmlns="http://www.w3.org/2000/svg" viewBox="0 0 24 24"><defs><style>.cls-1{fill:none;stroke:currentColor;stroke-linecap:round;stroke-linejoin:round;stroke-width:1.5px;}</style></defs><title>cat-mouse-toy-1</title><path class="cls-1" d="M17.25,18.375a.375.375,0,0,1,.375.375"/><path class="cls-1" d="M16.875,18.75a.375.375,0,0,1,.375-.375"/><path class="cls-1" d="M17.25,19.125a.375.375,0,0,1-.375-.375"/><path class="cls-1" d="M17.625,18.75a.375.375,0,0,1-.375.375"/><path class="cls-1" d="M14.432,12.75A7.429,7.429,0,0,0,3.75,19.429v.821a1.5,1.5,0,0,0,1.5,1.5H21.281A1.969,1.969,0,0,0,22.4,18.163L21,17.192Z"/><path class="cls-1" d="M11.276,12A6.348,6.348,0,0,0,12.75,8.25c0-3.314-3.75-6-3.75-6A11.316,11.316,0,0,0,5.834,5.919"/><path class="cls-1" d="M9.3,12.24A5.635,5.635,0,0,0,7.762,9.7C5.3,7.482.8,8.469.8,8.469S.391,12.055,2,14.419"/></svg>