<svg id="Regular" xmlns="http://www.w3.org/2000/svg" viewBox="0 0 24 24"><defs><style>.cls-1{fill:none;stroke:currentColor;stroke-linecap:round;stroke-linejoin:round;stroke-width:1.5px;}</style></defs><title>cat-sitting</title><path class="cls-1" d="M11,8.588A3.751,3.751,0,0,1,8.96,5.25V.75l3,1.5h1.5l3-1.5v4.5A3.752,3.752,0,0,1,14.192,8.7"/><path class="cls-1" d="M9.921,7.757,7.46,13.5a4.975,4.975,0,0,0-3.75,3.75A8.354,8.354,0,0,0,3.7,20.9,2.975,2.975,0,0,0,6.628,23.25H18.71c2.25,0,2.25-3.75,0-3.75"/><line class="cls-1" x1="14.96" y1="8.25" x2="14.96" y2="20.25"/><line class="cls-1" x1="11.96" y1="20.25" x2="11.96" y2="14.25"/></svg>