<svg id="Regular" xmlns="http://www.w3.org/2000/svg" viewBox="0 0 24 24"><defs><style>.cls-1{fill:none;stroke:currentColor;stroke-linecap:round;stroke-linejoin:round;stroke-width:1.5px;}</style></defs><title>cat-toy-1</title><line class="cls-1" x1="17.5" y1="15.75" x2="17.5" y2="14.25"/><line class="cls-1" x1="19.621" y1="16.629" x2="20.682" y2="15.568"/><line class="cls-1" x1="20.5" y1="18.75" x2="22" y2="18.75"/><line class="cls-1" x1="19.621" y1="20.871" x2="20.682" y2="21.932"/><line class="cls-1" x1="17.5" y1="21.75" x2="17.5" y2="23.25"/><line class="cls-1" x1="15.379" y1="20.871" x2="14.318" y2="21.932"/><line class="cls-1" x1="14.5" y1="18.75" x2="13" y2="18.75"/><path class="cls-1" d="M1.75,23.25v-15a1.5,1.5,0,0,1,3,0v15"/><path class="cls-1" d="M3.25,6.75v-3a3,3,0,0,1,3-3H14.5a3,3,0,0,1,0,6H13.1a3,3,0,0,0-2.2,5.035L15.25,16.5"/></svg>