<svg id="Regular" xmlns="http://www.w3.org/2000/svg" viewBox="0 0 24 24"><defs><style>.cls-1{fill:none;stroke:currentColor;stroke-linecap:round;stroke-linejoin:round;stroke-width:1.5px;}</style></defs><title>cat-carrier-1</title><path class="cls-1" d="M2.75,6.75h18.5a2,2,0,0,1,2,2v12a1,1,0,0,1-1,1H1.75a1,1,0,0,1-1-1v-12A2,2,0,0,1,2.75,6.75Z"/><rect class="cls-1" x="3.75" y="9.75" width="16.5" height="7.5" rx="1" ry="1"/><line class="cls-1" x1="9" y1="9.75" x2="9" y2="17.25"/><line class="cls-1" x1="15" y1="9.75" x2="15" y2="17.25"/><line class="cls-1" x1="3.75" y1="15.75" x2="0.75" y2="15.75"/><line class="cls-1" x1="23.25" y1="15.75" x2="20.25" y2="15.75"/><path class="cls-1" d="M17.25,6.75V5.25a3,3,0,0,0-3-3H9.75a3,3,0,0,0-3,3v1.5"/></svg>