<svg id="Regular" xmlns="http://www.w3.org/2000/svg" viewBox="0 0 24 24"><defs><style>.cls-1{fill:none;stroke:currentColor;stroke-linecap:round;stroke-linejoin:round;stroke-width:1.5px;}</style></defs><title>cat</title><path class="cls-1" d="M18.563,5.5a1.5,1.5,0,0,0,1.874,0L22.031,4.22a.75.75,0,0,1,1.219.586v4.44c0,1.656-1.679,3-3.75,3s-3.75-1.344-3.75-3V4.806a.75.75,0,0,1,1.219-.586Z"/><path class="cls-1" d="M16.252,10.746H7.5a2.25,2.25,0,0,0,0,4.5h9a2.261,2.261,0,0,0,2.1-3.088"/><line class="cls-1" x1="15.75" y1="15.246" x2="15.75" y2="21.246"/><line class="cls-1" x1="17.93" y1="14.733" x2="18.75" y2="21.246"/><line class="cls-1" x1="8.25" y1="15.246" x2="8.25" y2="21.246"/><line class="cls-1" x1="6.07" y1="14.733" x2="5.25" y2="21.246"/><path class="cls-1" d="M1.682,7.746h0a3.18,3.18,0,0,1,0-4.5,2.544,2.544,0,0,1,3.6,0,2.037,2.037,0,0,1,0,2.88"/><line class="cls-1" x1="5.862" y1="11.453" x2="1.682" y2="7.745"/></svg>