<svg id="Regular" xmlns="http://www.w3.org/2000/svg" viewBox="0 0 24 24"><defs><style>.cls-1{fill:none;stroke:currentColor;stroke-linecap:round;stroke-linejoin:round;stroke-width:1.5px;}</style></defs><title>ceiling-lamp-1</title><line class="cls-1" x1="0.75" y1="0.75" x2="23.25" y2="0.75"/><line class="cls-1" x1="12" y1="0.75" x2="12" y2="5.25"/><path class="cls-1" d="M15.75,8.25H8.25V6.75a1.5,1.5,0,0,1,1.5-1.5h4.5a1.5,1.5,0,0,1,1.5,1.5Z"/><path class="cls-1" d="M17.823,17.25H6.177a1.5,1.5,0,0,1-1.342-2.171L8.25,8.25h7.5l3.415,6.829A1.5,1.5,0,0,1,17.823,17.25Z"/><line class="cls-1" x1="12" y1="20.25" x2="12" y2="23.25"/><line class="cls-1" x1="6.75" y1="20.25" x2="5.25" y2="23.25"/><line class="cls-1" x1="17.25" y1="20.25" x2="18.75" y2="23.25"/></svg>