<svg id="Regular" xmlns="http://www.w3.org/2000/svg" viewBox="0 0 24 24"><defs><style>.cls-1{fill:none;stroke:currentColor;stroke-linecap:round;stroke-linejoin:round;stroke-width:1.5px;}</style></defs><title>ceiling-ball-chandelier-retro</title><line class="cls-1" x1="12" y1="0.75" x2="12" y2="19.5"/><line class="cls-1" x1="10.5" y1="0.75" x2="13.5" y2="0.75"/><path class="cls-1" d="M4.5,14.25a1.5,1.5,0,0,1-3,0c0-.828.672-3,1.5-3S4.5,13.422,4.5,14.25Z"/><path class="cls-1" d="M22.5,14.25a1.5,1.5,0,0,1-3,0c0-.828.672-3,1.5-3S22.5,13.422,22.5,14.25Z"/><path class="cls-1" d="M18,8.25a1.5,1.5,0,0,1-3,0c0-.828.672-3,1.5-3S18,7.422,18,8.25Z"/><path class="cls-1" d="M9,8.25a1.5,1.5,0,0,1-3,0c0-.828.672-3,1.5-3S9,7.422,9,8.25Z"/><path class="cls-1" d="M16.5,12.75a2.25,2.25,0,0,1-4.5,0"/><path class="cls-1" d="M12,12.75a2.25,2.25,0,0,1-4.5,0"/><path class="cls-1" d="M12,18.75a4.5,4.5,0,0,1-9,0"/><path class="cls-1" d="M12,18.75a4.5,4.5,0,0,0,9,0"/></svg>