<svg id="Regular" xmlns="http://www.w3.org/2000/svg" viewBox="0 0 24 24"><defs><style>.cls-1{fill:none;stroke:currentColor;stroke-linecap:round;stroke-linejoin:round;stroke-width:1.5px;}</style></defs><title>ceiling-lamp-2</title><line class="cls-1" x1="0.75" y1="0.75" x2="23.25" y2="0.75"/><line class="cls-1" x1="12" y1="0.75" x2="12" y2="5.25"/><path class="cls-1" d="M15.75,8.25H8.25V6.75a1.5,1.5,0,0,1,1.5-1.5h4.5a1.5,1.5,0,0,1,1.5,1.5Z"/><line class="cls-1" x1="12" y1="20.25" x2="12" y2="23.25"/><line class="cls-1" x1="6.75" y1="20.25" x2="5.25" y2="23.25"/><line class="cls-1" x1="17.25" y1="20.25" x2="18.75" y2="23.25"/><path class="cls-1" d="M15.756,8.25H8.244A9.766,9.766,0,0,0,2.4,15.52,1.5,1.5,0,0,0,3.9,17.25h16.21A1.5,1.5,0,0,0,21.6,15.52,9.766,9.766,0,0,0,15.756,8.25Z"/></svg>