<svg id="Regular" xmlns="http://www.w3.org/2000/svg" viewBox="0 0 24 24"><defs><style>.cls-1{fill:none;stroke:currentColor;stroke-linecap:round;stroke-linejoin:round;stroke-width:1.5px;}</style></defs><title>ceiling-lamp</title><path class="cls-1" d="M15,8.071V6.911a3.112,3.112,0,0,0-2.5-3.12A3,3,0,0,0,9,6.75V8.071A8.254,8.254,0,0,0,3.787,14.96a.744.744,0,0,0,.753.79H19.46a.744.744,0,0,0,.753-.79A8.254,8.254,0,0,0,15,8.071Z"/><line class="cls-1" x1="12" y1="0.75" x2="12" y2="3.75"/><path class="cls-1" d="M15,15.75a3,3,0,0,1-6,0"/><line class="cls-1" x1="12" y1="23.25" x2="12" y2="21.75"/><line class="cls-1" x1="17.25" y1="20.25" x2="18.75" y2="22.5"/><line class="cls-1" x1="6.75" y1="20.25" x2="5.25" y2="22.5"/></svg>