<svg id="Regular" xmlns="http://www.w3.org/2000/svg" viewBox="0 0 24 24"><defs><style>.cls-1{fill:none;stroke:currentColor;stroke-linecap:round;stroke-linejoin:round;stroke-width:1.5px;}</style></defs><title>ceiling-ball-chandelier-retro-1</title><path class="cls-1" d="M2.25,8.444v4.5a1.5,1.5,0,1,0,3,0v-6Z"/><path class="cls-1" d="M5.25,3.944a1.5,1.5,0,0,1-3,0c0-.828,1.5-3,1.5-3S5.25,3.116,5.25,3.944Z"/><line class="cls-1" x1="0.75" y1="11.444" x2="6.75" y2="11.444"/><path class="cls-1" d="M18.75,8.444v4.5a1.5,1.5,0,1,0,3,0v-6Z"/><path class="cls-1" d="M21.75,3.944a1.5,1.5,0,0,1-3,0c0-.828,1.5-3,1.5-3S21.75,3.116,21.75,3.944Z"/><line class="cls-1" x1="17.25" y1="11.444" x2="23.25" y2="11.444"/><line class="cls-1" x1="8.25" y1="0.944" x2="15.75" y2="0.944"/><path class="cls-1" d="M9.75.944s0,7.5-1.5,7.5"/><path class="cls-1" d="M14.25.944s0,7.5,1.5,7.5"/><line class="cls-1" x1="12" y1="15.127" x2="12" y2="19.694"/><line class="cls-1" x1="6.75" y1="16.378" x2="6.75" y2="18.944"/><line class="cls-1" x1="17.25" y1="16.378" x2="17.25" y2="18.944"/><path class="cls-1" d="M4.687,14.115A3.751,3.751,0,0,0,10.9,15.6a1.517,1.517,0,0,1,2.2,0,3.751,3.751,0,0,0,6.215-1.481"/><path class="cls-1" d="M12,22.319a.375.375,0,1,1-.375.375A.375.375,0,0,1,12,22.319"/><path class="cls-1" d="M6.75,21.569a.375.375,0,1,1-.375.375.375.375,0,0,1,.375-.375"/><path class="cls-1" d="M17.25,21.569a.375.375,0,1,1-.375.375.375.375,0,0,1,.375-.375"/></svg>