<svg id="Regular" xmlns="http://www.w3.org/2000/svg" viewBox="0 0 24 24"><defs><style>.cls-1{fill:none;stroke:currentColor;stroke-linecap:round;stroke-linejoin:round;stroke-width:1.5px;}</style></defs><title>chair-retro</title><path class="cls-1" d="M6,17.25a5.237,5.237,0,0,0-1.5,3c0,1.5,1.5,1.5,1.5,2.25a.735.735,0,0,1-.75.75"/><path class="cls-1" d="M18,17.25a5.237,5.237,0,0,1,1.5,3c0,1.5-1.5,1.5-1.5,2.25a.735.735,0,0,0,.75.75"/><path class="cls-1" d="M18.75,17.25a1.5,1.5,0,0,0,0-3H5.25a1.5,1.5,0,0,0,0,3Z"/><path class="cls-1" d="M18,14.25s-.75-.75-.75-4.5a14.937,14.937,0,0,1,1.123-4.967A2.99,2.99,0,0,0,15.559.75H8.441A2.99,2.99,0,0,0,5.627,4.783,14.937,14.937,0,0,1,6.75,9.75c0,3.75-.75,4.5-.75,4.5"/></svg>