<svg id="Regular" xmlns="http://www.w3.org/2000/svg" viewBox="0 0 24 24"><defs><style>.cls-1{fill:none;stroke:currentColor;stroke-linecap:round;stroke-linejoin:round;stroke-width:1.5px;}</style></defs><title>chair-bar-1</title><path class="cls-1" d="M6,5.264a2.25,2.25,0,0,1,0-4.5H18a2.25,2.25,0,0,1,0,4.5Z"/><polyline class="cls-1" points="6 5.264 8.25 8.264 15.75 8.264 18 5.264"/><path class="cls-1" d="M16.56,23.236a1.4,1.4,0,0,1-1.352-.927,3.393,3.393,0,0,0-6.416,0,1.4,1.4,0,0,1-1.352.927h0a1.4,1.4,0,0,1-1.372-1.8A6.2,6.2,0,0,1,12,17.264a6.2,6.2,0,0,1,5.932,4.168,1.4,1.4,0,0,1-1.372,1.8Z"/><line class="cls-1" x1="12" y1="8.264" x2="12" y2="17.264"/><line class="cls-1" x1="10.5" y1="12.014" x2="13.5" y2="10.514"/><line class="cls-1" x1="10.5" y1="15.014" x2="13.5" y2="13.514"/></svg>