<svg id="Regular" xmlns="http://www.w3.org/2000/svg" viewBox="0 0 24 24"><defs><style>.cls-1{fill:none;stroke:currentColor;stroke-linecap:round;stroke-linejoin:round;stroke-width:1.5px;}</style></defs><title>chair-2</title><path class="cls-1" d="M5.25,12.747a.75.75,0,0,0-.6,1.2l1.125,1.5a.75.75,0,0,0,.6.3h11.25a.75.75,0,0,0,.6-.3l1.125-1.5a.75.75,0,0,0-.6-1.2Z"/><polyline class="cls-1" points="17.25 12.747 16.5 0.747 7.5 0.747 6.75 12.747"/><line class="cls-1" x1="7.083" y1="8.247" x2="16.917" y2="8.247"/><path class="cls-1" d="M20.25,3.747a1.5,1.5,0,0,0,0-3H3.75a1.5,1.5,0,0,0,0,3"/><path class="cls-1" d="M3.75,23.247c0,.15,3-2.388,3-7.5"/><path class="cls-1" d="M20.25,23.247c0,.15-3-2.388-3-7.5"/></svg>