<svg id="Regular" xmlns="http://www.w3.org/2000/svg" viewBox="0 0 24 24"><defs><style>.cls-1{fill:none;stroke:currentColor;stroke-linecap:round;stroke-linejoin:round;stroke-width:1.5px;}</style></defs><title>chair-4</title><path class="cls-1" d="M16.3,6.75H7.7A1.5,1.5,0,0,1,6.211,5.064l.375-3A1.5,1.5,0,0,1,8.074.75h7.852a1.5,1.5,0,0,1,1.488,1.314l.375,3A1.5,1.5,0,0,1,16.3,6.75Z"/><path class="cls-1" d="M12,17.25a10.178,10.178,0,0,1-7.217-2.69,1.5,1.5,0,1,1,2.124-2.119A7.289,7.289,0,0,0,12,14.25a7.287,7.287,0,0,0,5.093-1.809,1.5,1.5,0,1,1,2.124,2.119A10.178,10.178,0,0,1,12,17.25Z"/><path class="cls-1" d="M7.5,6.738,6.743,12.3a1.44,1.44,0,0,1,.164.141"/><path class="cls-1" d="M17.093,12.441a1.44,1.44,0,0,1,.164-.141L16.5,6.737"/><line class="cls-1" x1="18.75" y1="23.25" x2="17.725" y2="15.732"/><line class="cls-1" x1="6.275" y1="15.732" x2="5.25" y2="23.25"/></svg>