<svg id="Regular" xmlns="http://www.w3.org/2000/svg" viewBox="0 0 24 24"><defs><style>.cls-1{fill:none;stroke:currentColor;stroke-linecap:round;stroke-linejoin:round;stroke-width:1.5px;}</style></defs><title>chair-3</title><line class="cls-1" x1="7.5" y1="17.25" x2="6" y2="23.25"/><line class="cls-1" x1="7.5" y1="14.25" x2="8.25" y2="6"/><line class="cls-1" x1="16.5" y1="17.25" x2="18" y2="23.25"/><line class="cls-1" x1="16.5" y1="14.25" x2="15.75" y2="6"/><line class="cls-1" x1="12" y1="6" x2="12" y2="14.25"/><path class="cls-1" d="M14.25,3a2.25,2.25,0,0,0-4.5,0h-3a1.5,1.5,0,0,0,0,3h10.5a1.5,1.5,0,0,0,0-3Z"/><path class="cls-1" d="M5.25,14.25a.75.75,0,0,0-.6,1.2l1.125,1.5a.75.75,0,0,0,.6.3h11.25a.75.75,0,0,0,.6-.3l1.125-1.5a.75.75,0,0,0-.6-1.2Z"/></svg>