<svg id="Regular" xmlns="http://www.w3.org/2000/svg" viewBox="0 0 24 24"><defs><style>.cls-1{fill:none;stroke:currentColor;stroke-linecap:round;stroke-linejoin:round;stroke-width:1.5px;}</style></defs><title>champagne-cheers</title><line class="cls-1" x1="1.475" y1="21.553" x2="6.997" y2="23.237"/><line class="cls-1" x1="4.236" y1="22.395" x2="5.924" y2="16.86"/><path class="cls-1" d="M8.324,16.864h0a4,4,0,0,1-4.315-1.316h0a4.169,4.169,0,0,1-.559-4.28l4.214-10.1A.726.726,0,0,1,8.543.75l4.275,1.3a.727.727,0,0,1,.494.842L11.176,13.624A4.173,4.173,0,0,1,8.324,16.864Z"/><line class="cls-1" x1="5.679" y1="5.926" x2="12.306" y2="7.947"/><path class="cls-1" d="M7.211,9.047a.372.372,0,0,1,.247.467.379.379,0,0,1-.469.252A.372.372,0,0,1,6.742,9.3a.379.379,0,0,1,.469-.252"/><path class="cls-1" d="M15.461,9.047a.372.372,0,0,1,.247.467.379.379,0,0,1-.469.252.372.372,0,0,1-.247-.467.379.379,0,0,1,.469-.252"/><path class="cls-1" d="M17.711,11.3a.372.372,0,0,1,.247.467.379.379,0,0,1-.469.252.372.372,0,0,1-.247-.467.379.379,0,0,1,.469-.252"/><path class="cls-1" d="M16.211,13.547a.372.372,0,0,1,.247.467.379.379,0,0,1-.469.252.372.372,0,0,1-.247-.467.379.379,0,0,1,.469-.252"/><path class="cls-1" d="M8.711,11.3a.372.372,0,0,1,.247.467.379.379,0,0,1-.469.252.372.372,0,0,1-.247-.467.379.379,0,0,1,.469-.252"/><path class="cls-1" d="M6.461,13.547a.372.372,0,0,1,.247.467.379.379,0,0,1-.469.252.372.372,0,0,1-.247-.467.379.379,0,0,1,.469-.252"/><line class="cls-1" x1="16.995" y1="23.281" x2="22.525" y2="21.624"/><line class="cls-1" x1="19.76" y1="22.453" x2="18.099" y2="16.909"/><path class="cls-1" d="M15.062.935l.575-.172a.726.726,0,0,1,.877.427l4.165,10.117a4.171,4.171,0,0,1-.579,4.277h0a4.006,4.006,0,0,1-4.322,1.3h0a4.141,4.141,0,0,1-2.313-1.845"/><line class="cls-1" x1="15.805" y1="6.754" x2="18.476" y2="5.954"/></svg>