<svg id="Regular" xmlns="http://www.w3.org/2000/svg" viewBox="0 0 24 24"><defs><style>.cls-1{fill:none;stroke:currentColor;stroke-linecap:round;stroke-linejoin:round;stroke-width:1.5px;}</style></defs><title>champagne-cooler</title><path class="cls-1" d="M5.98,11.25l4.227-4.977A4.5,4.5,0,0,1,14.026,5l1.484.212L19.753.97a.749.749,0,0,1,1.06,0l1.061,1.06a.75.75,0,0,1,0,1.061L17.631,7.334l.212,1.484a6.848,6.848,0,0,1-.13,2.432"/><line class="cls-1" x1="18.162" y1="2.561" x2="20.283" y2="4.682"/><path class="cls-1" d="M20.2,13.465l.378-1.335a.75.75,0,0,0-.738-.88H3.469a.75.75,0,0,0-.739.88l.378,1.335"/><line class="cls-1" x1="5.656" y1="14.392" x2="1.906" y2="18.75"/><line class="cls-1" x1="17.531" y1="14.392" x2="21.281" y2="18.75"/><path class="cls-1" d="M4.916,19.1l.826,2.915A1.5,1.5,0,0,0,7.219,23.25h8.875a1.5,1.5,0,0,0,1.477-1.239L18.4,19.1"/></svg>