<svg id="Regular" xmlns="http://www.w3.org/2000/svg" viewBox="0 0 24 24"><defs><style>.cls-1{fill:none;stroke:currentColor;stroke-linecap:round;stroke-linejoin:round;stroke-width:1.5px;}</style></defs><title>champagne-bottle-glass</title><path class="cls-1" d="M10.932,6.228A24.879,24.879,0,0,1,10.5,1.611V1.5A.75.75,0,0,0,9.75.75H8.25a.75.75,0,0,0-.75.75v.111A24.921,24.921,0,0,1,6,10.125H6a24.921,24.921,0,0,0-1.5,8.514V21.75A1.5,1.5,0,0,0,6,23.25h5.25"/><path class="cls-1" d="M10.562,12.531A5.646,5.646,0,0,1,9,12.75a5.47,5.47,0,0,1-3.466-1.213"/><circle class="cls-1" cx="9" cy="18" r="1.5"/><line class="cls-1" x1="7.408" y1="3.75" x2="10.592" y2="3.75"/><line class="cls-1" x1="15" y1="23.25" x2="18" y2="23.25"/><line class="cls-1" x1="16.5" y1="23.25" x2="16.5" y2="19.5"/><path class="cls-1" d="M18.164,19.019h0a3.12,3.12,0,0,1-3.328,0h0A2.815,2.815,0,0,1,13.521,16.3l.8-7.595a.523.523,0,0,1,.529-.457h3.3a.523.523,0,0,1,.529.457l.8,7.595A2.815,2.815,0,0,1,18.164,19.019Z"/><line class="cls-1" x1="13.891" y1="12.75" x2="19.109" y2="12.75"/></svg>