<svg id="Regular" xmlns="http://www.w3.org/2000/svg" viewBox="0 0 24 24"><defs><style>.cls-1{fill:none;stroke:currentColor;stroke-linecap:round;stroke-linejoin:round;stroke-width:1.5px;}</style></defs><title>champagne-bottle</title><path class="cls-1" d="M15,10.125a24.921,24.921,0,0,1-1.5-8.514V1.5a.75.75,0,0,0-.75-.75h-1.5a.75.75,0,0,0-.75.75v.111A24.921,24.921,0,0,1,9,10.125H9a24.921,24.921,0,0,0-1.5,8.514V21.75A1.5,1.5,0,0,0,9,23.25h6a1.5,1.5,0,0,0,1.5-1.5V18.639A24.921,24.921,0,0,0,15,10.125Z"/><path class="cls-1" d="M15.466,11.537a5.558,5.558,0,0,1-6.932,0"/><circle class="cls-1" cx="12" cy="18" r="1.5"/><line class="cls-1" x1="10.408" y1="3.75" x2="13.592" y2="3.75"/></svg>