<svg id="Regular" xmlns="http://www.w3.org/2000/svg" viewBox="0 0 24 24"><defs><style>.cls-1{fill:none;stroke:currentColor;stroke-linecap:round;stroke-linejoin:round;stroke-width:1.5px;}</style></defs><title>champagne-glass</title><line class="cls-1" x1="9" y1="23.25" x2="15" y2="23.25"/><line class="cls-1" x1="12" y1="23.25" x2="12" y2="17.25"/><path class="cls-1" d="M14.344,16.54h0a4.223,4.223,0,0,1-4.688,0h0A4.225,4.225,0,0,1,7.8,12.53L8.931,1.424A.751.751,0,0,1,9.678.75h4.644a.751.751,0,0,1,.747.674L16.2,12.53A4.225,4.225,0,0,1,14.344,16.54Z"/><line class="cls-1" x1="8.39" y1="6.75" x2="15.61" y2="6.75"/><path class="cls-1" d="M10.875,9a.375.375,0,1,1-.375.375A.375.375,0,0,1,10.875,9"/><path class="cls-1" d="M10.875,13.5a.375.375,0,1,1-.375.375.375.375,0,0,1,.375-.375"/><path class="cls-1" d="M13.125,11.25a.375.375,0,1,1-.375.375.375.375,0,0,1,.375-.375"/></svg>