<svg xmlns="http://www.w3.org/2000/svg" viewBox="0 0 24 24"><defs><style>.a{fill:none;stroke:currentColor;stroke-linecap:round;stroke-linejoin:round;stroke-width:1.5px;}</style></defs><title>chat-translate</title><path class="a" d="M4.5,8.25v-3a1.5,1.5,0,0,1,3,0v3"/><line class="a" x1="4.5" y1="6.75" x2="7.5" y2="6.75"/><line class="a" x1="16.5" y1="10.5" x2="16.5" y2="12"/><line class="a" x1="13.5" y1="12" x2="19.5" y2="12"/><path class="a" d="M18,12s-1.5,4.5-4.5,4.5"/><path class="a" d="M16.5,14.767a3.932,3.932,0,0,0,3,1.733"/><path class="a" d="M11.25,18.75a1.5,1.5,0,0,1-1.5-1.5V9.75a1.5,1.5,0,0,1,1.5-1.5h10.5a1.5,1.5,0,0,1,1.5,1.5v7.5a1.5,1.5,0,0,1-1.5,1.5h-1.5v4.5l-4.5-4.5Z"/><path class="a" d="M6.75,12.75l-3,3v-4.5H2.25a1.5,1.5,0,0,1-1.5-1.5V2.25A1.5,1.5,0,0,1,2.25.75h10.5a1.5,1.5,0,0,1,1.5,1.5v3"/></svg>