<svg xmlns="http://www.w3.org/2000/svg" viewBox="0 0 24 24"><defs><style>.a{fill:none;stroke:currentColor;stroke-linecap:round;stroke-linejoin:round;stroke-width:1.5px;}</style></defs><title>check-payment-sign</title><path class="a" d="M4.5,20.25l1.23-1.079A1.8,1.8,0,0,1,7.324,18.8a1.541,1.541,0,0,1,1.151,1.036l.118.412,1.339-.783A1.811,1.811,0,0,1,12,19.646"/><path class="a" d="M4.5,10.5l-2.244-.009a1.5,1.5,0,0,0-1.506,1.5V21.75a1.5,1.5,0,0,0,1.5,1.5h19.5a1.5,1.5,0,0,0,1.5-1.5V11.991a1.5,1.5,0,0,0-1.5-1.5l-3,.009"/><rect class="a" x="16.5" y="13.5" width="3.75" height="3" rx="0.32" ry="0.32"/><path class="a" d="M10.393,14.539,6.151,15.6l1.06-4.242,8.782-8.782a2.251,2.251,0,0,1,3.182,0h0a2.251,2.251,0,0,1,0,3.182Z"/><line class="a" x1="13.045" y1="5.523" x2="16.227" y2="8.705"/><path class="a" d="M16.227,2.341,15.166,1.28a1.5,1.5,0,0,0-2.121,0L9.863,4.462"/><line class="a" x1="19.175" y1="2.575" x2="21" y2="0.75"/></svg>