<svg xmlns="http://www.w3.org/2000/svg" viewBox="0 0 24 24"><defs><style>.a{fill:none;stroke:currentColor;stroke-linecap:round;stroke-linejoin:round;stroke-width:1.5px;}</style></defs><title>check-payment-give</title><path class="a" d="M15.75,18v.75A2.25,2.25,0,0,1,13.5,21H3.75a3,3,0,0,1-2.684-1.658"/><path class="a" d="M3.75,15h1.5a3,3,0,0,0,3-3H10.5a2.25,2.25,0,0,0,0-4.5H3.75a3,3,0,0,0-3,3"/><path class="a" d="M5.25,7.5v-3A1.5,1.5,0,0,1,6.75,3h15a1.5,1.5,0,0,1,1.5,1.5v9a1.5,1.5,0,0,1-1.5,1.5h-12"/><path class="a" d="M18.75,15a3,3,0,0,1-3,3h-6"/><line class="a" x1="15.75" y1="7.5" x2="23.25" y2="7.5"/><line class="a" x1="17.25" y1="10.5" x2="20.25" y2="10.5"/></svg>