<svg id="Regular" xmlns="http://www.w3.org/2000/svg" viewBox="0 0 24 24"><defs><style>.cls-1{fill:none;stroke:currentColor;stroke-linecap:round;stroke-linejoin:round;stroke-width:1.5px;}</style></defs><title>chef-gear-butter</title><path class="cls-1" d="M5.264,11.4C2.524,12.216.75,13.525.75,15c0,2.485,5.037,4.5,11.25,4.5S23.25,17.485,23.25,15c0-1.472-1.768-2.779-4.5-3.6"/><rect class="cls-1" x="8.25" y="7.5" width="10.5" height="7.5" rx="0.5" ry="0.5"/><path class="cls-1" d="M15.75,7.5V5.25A.75.75,0,0,0,15,4.5H6a.75.75,0,0,0-.75.75v6A.75.75,0,0,0,6,12H8.25"/><line class="cls-1" x1="15.75" y1="7.5" x2="15.75" y2="10.5"/><line class="cls-1" x1="11.25" y1="7.5" x2="11.25" y2="10.5"/></svg>