<svg id="Regular" xmlns="http://www.w3.org/2000/svg" viewBox="0 0 24 24"><defs><style>.cls-1{fill:none;stroke:currentColor;stroke-linecap:round;stroke-linejoin:round;stroke-width:1.5px;}</style></defs><title>chef-gear-tacos</title><path class="cls-1" d="M7.782,15.457,13.127,11.6a5.965,5.965,0,0,0,.373-2.64.751.751,0,0,0-.917-.667L2.457,10.629a.751.751,0,0,0-.532,1A6.006,6.006,0,0,0,7.782,15.457Z"/><path class="cls-1" d="M9.9,10.466a.375.375,0,1,1,.281-.45.373.373,0,0,1-.281.45"/><path class="cls-1" d="M4.759,13.051a.375.375,0,1,1-.281.449.374.374,0,0,1,.281-.449"/><path class="cls-1" d="M15.5,14.51a5.976,5.976,0,0,0-.675-3.081.752.752,0,0,0-1.1-.26L5.3,17.249a.752.752,0,0,0-.1,1.13,5.976,5.976,0,0,0,2.712,1.612Z"/><path class="cls-1" d="M8.911,16.492A.375.375,0,1,1,9,15.968a.375.375,0,0,1-.085.524"/><path class="cls-1" d="M13.608,14.028a.375.375,0,1,1-.085.524.375.375,0,0,1,.085-.524"/><ellipse class="cls-1" cx="18.375" cy="2.274" rx="3.75" ry="1.5"/><path class="cls-1" d="M22.125,2.274c0,2.9-1.679,4.5-3.75,4.5s-3.75-1.6-3.75-4.5"/><path class="cls-1" d="M15.962,14.179a.752.752,0,0,1,1.1.26,6,6,0,0,1-9.634,6.95.752.752,0,0,1,.1-1.13Z"/><path class="cls-1" d="M11.8,18.571a.375.375,0,1,1,.524.084.376.376,0,0,1-.524-.084"/><path class="cls-1" d="M11.813,21.8a.375.375,0,1,1-.084.524.376.376,0,0,1,.084-.524"/><path class="cls-1" d="M16.156,18.2a.375.375,0,1,1,.523.085.375.375,0,0,1-.523-.085"/></svg>