<svg id="Regular" xmlns="http://www.w3.org/2000/svg" viewBox="0 0 24 24"><defs><style>.cls-1{fill:none;stroke:currentColor;stroke-linecap:round;stroke-linejoin:round;stroke-width:1.5px;}</style></defs><title>chef-gear-cookies</title><path class="cls-1" d="M21,9.19c1.413.627,2.25,1.406,2.25,2.25,0,2.072-5.037,3.75-11.25,3.75S.75,13.512.75,11.44c0-.844.837-1.623,2.25-2.25"/><path class="cls-1" d="M23.25,11.44c0,4.557-5.037,8.25-11.25,8.25S.75,16,.75,11.44"/><path class="cls-1" d="M19.3,10.994c-.826,2.344-4.029,3.352-7.154,2.25S7.16,9.35,7.986,7.006s4.03-3.352,7.155-2.25S20.13,8.65,19.3,10.994Z"/><line class="cls-1" x1="12" y1="7.69" x2="15.75" y2="9.94"/><path class="cls-1" d="M3.75,10.69A3.694,3.694,0,0,1,6,7.442"/></svg>