<svg id="Regular" xmlns="http://www.w3.org/2000/svg" viewBox="0 0 24 24"><defs><style>.cls-1{fill:none;stroke:currentColor;stroke-linecap:round;stroke-linejoin:round;stroke-width:1.5px;}</style></defs><title>chef-gear-hat-1</title><path class="cls-1" d="M3.75,12.75h16.5a0,0,0,0,1,0,0v8a1,1,0,0,1-1,1H4.75a1,1,0,0,1-1-1v-8A0,0,0,0,1,3.75,12.75Z"/><path class="cls-1" d="M3.75,13.447a6,6,0,0,1,3-11.2c4.5,0,5.25,4.5,9,4.5"/><path class="cls-1" d="M20.25,13.447a6,6,0,0,0-3-11.2c-2.54,0-3.885,1.434-5.25,2.683"/><line class="cls-1" x1="8.25" y1="17.25" x2="8.25" y2="18.75"/><line class="cls-1" x1="12" y1="17.25" x2="12" y2="18.75"/><line class="cls-1" x1="15.75" y1="17.25" x2="15.75" y2="18.75"/></svg>