<svg id="Regular" xmlns="http://www.w3.org/2000/svg" viewBox="0 0 24 24"><defs><style>.cls-1{fill:none;stroke:currentColor;stroke-linecap:round;stroke-linejoin:round;stroke-width:1.5px;}</style></defs><title>chef-gear-asian-hat</title><path class="cls-1" d="M6.75,22.5,17.926,11.324a.75.75,0,0,1,1.233.267l3.331,8.882a1.5,1.5,0,0,1-1.4,2.027H2.915a1.5,1.5,0,0,1-1.4-2.027l3.377-9a.751.751,0,0,1,1.171-.322L12.75,16.5"/><line class="cls-1" x1="20.217" y1="14.411" x2="12.75" y2="22.5"/><line class="cls-1" x1="3.474" y1="15.237" x2="10.5" y2="18.75"/><path class="cls-1" d="M17.805,11.445C17.094,7.028,14.547,1.5,12,1.5c-2.515,0-5.03,5.353-5.778,9.778"/><line class="cls-1" x1="12" y1="6.75" x2="12" y2="15.9"/></svg>