<svg id="Regular" xmlns="http://www.w3.org/2000/svg" viewBox="0 0 24 24"><defs><style>.cls-1{fill:none;stroke:currentColor;stroke-linecap:round;stroke-linejoin:round;stroke-width:1.5px;}</style></defs><title>chef-gear-pizza</title><circle class="cls-1" cx="12" cy="12" r="11.25"/><circle class="cls-1" cx="12" cy="12" r="8.25"/><path class="cls-1" d="M10.125,7.5A1.874,1.874,0,0,0,8.25,9.375s0,1.125,1.875,1.125S12,9.375,12,9.375A1.874,1.874,0,0,0,10.125,7.5Z"/><path class="cls-1" d="M13.875,13.5A1.874,1.874,0,0,0,12,15.375S12,16.5,13.875,16.5s1.875-1.125,1.875-1.125A1.874,1.874,0,0,0,13.875,13.5Z"/><polyline class="cls-1" points="14.739 9.052 15.428 10.385 16.761 9.697"/><line class="cls-1" x1="7.06" y1="12.638" x2="7.645" y2="13.107"/><line class="cls-1" x1="9.054" y1="15.645" x2="8.516" y2="16.168"/></svg>