<svg id="Regular" xmlns="http://www.w3.org/2000/svg" viewBox="0 0 24 24"><defs><style>.cls-1{fill:none;stroke:currentColor;stroke-linecap:round;stroke-linejoin:round;stroke-width:1.5px;}</style></defs><title>chef-gear-gloves</title><path class="cls-1" d="M15.333,15.916l-8.748,4.17.595,1.25a1.385,1.385,0,0,0,1.846.654l6.249-2.979a1.384,1.384,0,0,0,.654-1.845Z"/><path class="cls-1" d="M14.051,5.2A1.731,1.731,0,0,0,12.026,6.58L11.7,8.292,10.09,4.915A5.031,5.031,0,0,0,3.75,2.272,4.846,4.846,0,0,0,1.223,8.837L6.585,20.086l8.748-4.17-.922-1.935a1.391,1.391,0,0,1-.11-.855l1.125-5.9A1.731,1.731,0,0,0,14.051,5.2Z"/><path class="cls-1" d="M13.653,19.784l.713,1.5a1.385,1.385,0,0,0,1.846.654l6.249-2.979a1.384,1.384,0,0,0,.654-1.845l-.6-1.25"/><path class="cls-1" d="M19.109,17.49l3.41-1.626L21.6,13.929a1.391,1.391,0,0,1-.11-.855l1.125-5.9a1.731,1.731,0,1,0-3.4-.649L18.886,8.24l-1.61-3.377a5.1,5.1,0,0,0-5.624-2.872"/></svg>