<svg id="Regular" xmlns="http://www.w3.org/2000/svg" viewBox="0 0 24 24"><defs><style>.cls-1{fill:none;stroke:currentColor;stroke-linecap:round;stroke-linejoin:round;stroke-width:1.5px;}</style></defs><title>chef-gear-apron</title><path class="cls-1" d="M16.6.75H15.75a1.5,1.5,0,0,0-1.5,1.5V6a2.25,2.25,0,0,1-4.5,0V2.25A1.5,1.5,0,0,0,8.25.75H7.4a3,3,0,0,0-3,2.9L3.8,21.7a1.5,1.5,0,0,0,1.5,1.55H18.7a1.5,1.5,0,0,0,1.5-1.55L19.6,3.65A3,3,0,0,0,16.6.75Z"/><path class="cls-1" d="M.75,20.25v-1.5a3,3,0,0,1,3-3H4"/><path class="cls-1" d="M23.25,20.25v-1.5a3,3,0,0,0-3-3H20"/><path class="cls-1" d="M15.675,14.25a.75.75,0,0,1,.735.9,4.5,4.5,0,0,1-8.82,0,.751.751,0,0,1,.736-.9Z"/></svg>