<svg id="Regular" xmlns="http://www.w3.org/2000/svg" viewBox="0 0 24 24"><defs><style>.cls-1{fill:none;stroke:currentColor;stroke-linecap:round;stroke-linejoin:round;stroke-width:1.5px;}</style></defs><title>chef-gear-dumplings-1</title><path class="cls-1" d="M6.75,20.25a2.25,2.25,0,0,0-4.5,0,1.5,1.5,0,0,0,0,3h4.5a1.5,1.5,0,0,0,0-3Z"/><path class="cls-1" d="M17.25,20.25a2.25,2.25,0,0,0-4.5,0,1.5,1.5,0,0,0,0,3h4.5a1.5,1.5,0,0,0,0-3Z"/><path class="cls-1" d="M12,12a2.25,2.25,0,0,0-4.5,0,1.5,1.5,0,0,0,0,3H12a1.5,1.5,0,0,0,0-3Z"/><ellipse class="cls-1" cx="18" cy="3" rx="5.25" ry="2.25"/><path class="cls-1" d="M23.25,3l-.275,2.205a5.3,5.3,0,0,1-1.912,3.454,4.844,4.844,0,0,1-6.125,0,5.3,5.3,0,0,1-1.912-3.454L12.75,3"/></svg>