<svg id="Regular" xmlns="http://www.w3.org/2000/svg" viewBox="0 0 24 24"><defs><style>.cls-1{fill:none;stroke:currentColor;stroke-linecap:round;stroke-linejoin:round;stroke-width:1.5px;}</style></defs><title>chef-gear-roller-whisk</title><path class="cls-1" d="M15.978,13.5a1.251,1.251,0,0,1-1.006-.506A15.136,15.136,0,0,1,12.75,5.725c0-2.576,1.679-4.664,3.75-4.664s3.75,2.088,3.75,4.664a15.143,15.143,0,0,1-2.221,7.269,1.254,1.254,0,0,1-1.006.506Z"/><line class="cls-1" x1="16.5" y1="1.061" x2="16.5" y2="16.5"/><path class="cls-1" d="M18,21.75a1.5,1.5,0,0,1-3,0V16.5h3Z"/><rect class="cls-1" x="3.75" y="6.75" width="5.25" height="10.5" rx="1" ry="1"/><path class="cls-1" d="M7.5,6.75H5.25L4.687,2.616a1.7,1.7,0,1,1,3.377,0Z"/><path class="cls-1" d="M7.5,17.25H5.25l-.563,4.134a1.7,1.7,0,1,0,3.377,0Z"/></svg>