<svg id="Regular" xmlns="http://www.w3.org/2000/svg" viewBox="0 0 24 24"><defs><style>.cls-1{fill:none;stroke:currentColor;stroke-linecap:round;stroke-linejoin:round;stroke-width:1.5px;}</style></defs><title>chef-gear-hat</title><line class="cls-1" x1="5.25" y1="23.25" x2="18.75" y2="23.25"/><path class="cls-1" d="M20.55,3.9a3.712,3.712,0,0,0-3.49.777,5.224,5.224,0,0,0-10.12,0A3.735,3.735,0,0,0,.871,6.535,3.757,3.757,0,0,0,4.5,11.25a3.637,3.637,0,0,0,.75-.108V18.75a1.5,1.5,0,0,0,1.5,1.5h10.5a1.5,1.5,0,0,0,1.5-1.5V11.142a3.647,3.647,0,0,0,.75.108A3.751,3.751,0,0,0,20.55,3.9Z"/><line class="cls-1" x1="9.75" y1="20.25" x2="9.75" y2="15.75"/><line class="cls-1" x1="14.25" y1="20.25" x2="14.25" y2="15.75"/></svg>