<svg id="Regular" xmlns="http://www.w3.org/2000/svg" viewBox="0 0 24 24"><defs><style>.cls-1{fill:none;stroke:currentColor;stroke-linecap:round;stroke-linejoin:round;stroke-width:1.5px;}</style></defs><title>chess-pawn</title><circle class="cls-1" cx="12" cy="4.5" r="3.75"/><path class="cls-1" d="M9.29,7.092c1.585,3.386-.1,6.772-1.79,10.158h9c-1.693-3.386-3.375-6.772-1.79-10.158"/><path class="cls-1" d="M20.25,21.75a1.5,1.5,0,0,0-1.5-1.5H5.25a1.5,1.5,0,0,0,0,3h13.5A1.5,1.5,0,0,0,20.25,21.75Z"/><path class="cls-1" d="M16.5,17.25h-9a2.928,2.928,0,0,0-2.25,3h13.5A2.928,2.928,0,0,0,16.5,17.25Z"/></svg>