<svg id="Regular" xmlns="http://www.w3.org/2000/svg" viewBox="0 0 24 24"><defs><style>.cls-1{fill:none;stroke:currentColor;stroke-linecap:round;stroke-linejoin:round;stroke-width:1.5px;}</style></defs><title>chess-rook</title><line class="cls-1" x1="19" y1="3" x2="19" y2="0.75"/><path class="cls-1" d="M12.25,17.25h4.5c-1.329-2.659-1.414-6.841-.95-9.75"/><path class="cls-1" d="M12.25,17.25H7.75c1.33-2.659,1.414-6.843.95-9.753"/><path class="cls-1" d="M5.5,3H19a0,0,0,0,1,0,0V5.5a2,2,0,0,1-2,2H7.5a2,2,0,0,1-2-2V3A0,0,0,0,1,5.5,3Z"/><line class="cls-1" x1="5.5" y1="3" x2="5.5" y2="0.75"/><line class="cls-1" x1="12.25" y1="3" x2="12.25" y2="0.75"/><path class="cls-1" d="M20.423,21.533c-.289-.765-1.408-3.344-3.673-4.283h-9c-2.265.939-3.384,3.518-3.673,4.283A1.163,1.163,0,0,0,4,21.95a1.3,1.3,0,0,0,1.3,1.3H19.2a1.3,1.3,0,0,0,1.3-1.3A1.163,1.163,0,0,0,20.423,21.533Z"/></svg>