<svg id="Regular" xmlns="http://www.w3.org/2000/svg" viewBox="0 0 24 24"><defs><style>.cls-1{fill:none;stroke:currentColor;stroke-linecap:round;stroke-linejoin:round;stroke-width:1.5px;}</style></defs><title>chess-knight</title><path class="cls-1" d="M8.25,17.25V15c0-2.287,2.25-4.5,2.25-6"/><path class="cls-1" d="M17.25,17.25V9A5.251,5.251,0,0,0,12,3.75h0c0-2.25-1.75-3-3.75-3v3l-4,2.858a1.5,1.5,0,0,0-.328,2.12l.68.907a1.5,1.5,0,0,0,1.675.523L9.75,9H12"/><path class="cls-1" d="M20.923,21.533c-.289-.765-1.408-3.344-3.673-4.283h-9c-2.265.939-3.384,3.518-3.673,4.283a1.163,1.163,0,0,0-.077.417,1.3,1.3,0,0,0,1.3,1.3H19.7a1.3,1.3,0,0,0,1.3-1.3A1.163,1.163,0,0,0,20.923,21.533Z"/></svg>