<svg id="Regular" xmlns="http://www.w3.org/2000/svg" viewBox="0 0 24 24"><defs><style>.cls-1{fill:none;stroke:currentColor;stroke-linecap:round;stroke-linejoin:round;stroke-width:1.5px;}</style></defs><title>chess-figures</title><path class="cls-1" d="M15.75,18h5.479a1.5,1.5,0,0,1,1.48,1.253l.521,1.5A1.5,1.5,0,0,1,21.75,22.5H16.5"/><path class="cls-1" d="M2.812,18V16.9A9.159,9.159,0,0,1,6.25,9.75H2.208A1.459,1.459,0,0,1,1.177,7.26l3.7-3.7V1.5l.364.081A7.429,7.429,0,0,1,11.055,8.84v.91c-3.437,3.438.69,8.27.69,8.27"/><line class="cls-1" x1="15.092" y1="9.241" x2="14.045" y2="15"/><line class="cls-1" x1="20.25" y1="18" x2="18.658" y2="9.243"/><circle class="cls-1" cx="16.875" cy="6.375" r="3.375"/><path class="cls-1" d="M13.423,20.526l-.5-1.5A1.5,1.5,0,0,0,11.5,18H2.75a1.5,1.5,0,0,0-1.423,1.026l-.5,1.5A1.5,1.5,0,0,0,2.25,22.5H12a1.5,1.5,0,0,0,1.423-1.974Z"/></svg>