<svg id="Regular" xmlns="http://www.w3.org/2000/svg" viewBox="0 0 24 24"><defs><style>.cls-1{fill:none;stroke:currentColor;stroke-linecap:round;stroke-linejoin:round;stroke-width:1.5px;}</style></defs><title>chick-1_1</title><path class="cls-1" d="M21,6a5.25,5.25,0,1,0-8.289,4.268A18.55,18.55,0,0,1,9,11.25,16.95,16.95,0,0,1,.75,10.5v3a9.75,9.75,0,0,0,19.5,0,5.462,5.462,0,0,0-1.059-3.564A5.215,5.215,0,0,0,21,6Z"/><polyline class="cls-1" points="23.25 4.5 21 6 23.25 7.5"/><path class="cls-1" d="M8.25,15.75s1.5,3,4.5,2.25a3.957,3.957,0,0,0,3-3.75"/><path class="cls-1" d="M16.125,5.25a.375.375,0,0,1,.375.375"/><path class="cls-1" d="M15.75,5.625a.375.375,0,0,1,.375-.375"/><path class="cls-1" d="M16.125,6a.375.375,0,0,1-.375-.375"/><path class="cls-1" d="M16.5,5.625A.375.375,0,0,1,16.125,6"/></svg>