<svg id="Regular" xmlns="http://www.w3.org/2000/svg" viewBox="0 0 24 24"><defs><style>.cls-1{fill:none;stroke:currentColor;stroke-linecap:round;stroke-linejoin:round;stroke-width:1.5px;}</style></defs><title>chicken-footstep</title><path class="cls-1" d="M22.5,4.793a1.5,1.5,0,0,0-2.05.545L13.5,17.315V2.262a1.5,1.5,0,0,0-3,0V17.315L3.548,5.338A1.5,1.5,0,1,0,.953,6.844l8.66,14.918A2.963,2.963,0,0,0,12,23.262a2.963,2.963,0,0,0,2.387-1.5l8.66-14.918A1.5,1.5,0,0,0,22.5,4.793Z"/><path class="cls-1" d="M3.336,5.056l.414.206a5.194,5.194,0,0,0,3.75,0,5.194,5.194,0,0,0,3-2.25"/><path class="cls-1" d="M20.664,5.056l-.414.206a5.194,5.194,0,0,1-3.75,0,5.194,5.194,0,0,1-3-2.25"/></svg>