<svg id="Regular" xmlns="http://www.w3.org/2000/svg" viewBox="0 0 24 24"><defs><style>.cls-1{fill:none;stroke:currentColor;stroke-linecap:round;stroke-linejoin:round;stroke-width:1.5px;}</style></defs><title>chicken</title><path class="cls-1" d="M2.01,23.262v-9.75a9.75,9.75,0,0,1,19.5,0v9.75"/><path class="cls-1" d="M17.76,19.887c0,1.864-2.686,3.375-6,3.375s-6-1.511-6-3.375,3.75-4.875,6-4.875S17.76,18.024,17.76,19.887Z"/><path class="cls-1" d="M5.8,19.523a28.353,28.353,0,0,0,5.957.739,28.353,28.353,0,0,0,5.957-.739"/><path class="cls-1" d="M7.635,10.512a.375.375,0,0,1,.375.375"/><path class="cls-1" d="M7.26,10.887a.375.375,0,0,1,.375-.375"/><path class="cls-1" d="M7.635,11.262a.374.374,0,0,1-.375-.375"/><path class="cls-1" d="M8.01,10.887a.374.374,0,0,1-.375.375"/><path class="cls-1" d="M15.885,10.512a.375.375,0,0,1,.375.375"/><path class="cls-1" d="M15.51,10.887a.375.375,0,0,1,.375-.375"/><path class="cls-1" d="M15.885,11.262a.374.374,0,0,1-.375-.375"/><path class="cls-1" d="M16.26,10.887a.374.374,0,0,1-.375.375"/><path class="cls-1" d="M11.76,3.762a3.344,3.344,0,0,0-2.25-3"/></svg>