<svg id="Regular" xmlns="http://www.w3.org/2000/svg" viewBox="0 0 24 24"><defs><style>.cls-1{fill:none;stroke:currentColor;stroke-linecap:round;stroke-linejoin:round;stroke-width:1.5px;}</style></defs><title>chicken-hatch</title><path class="cls-1" d="M21,14.262a9,9,0,0,1-18,0V13.12a.751.751,0,0,1,1.029-.7l2.262.905a.751.751,0,0,0,.809-.166l1.44-1.441a.751.751,0,0,1,.98-.069l2.03,1.522a.75.75,0,0,0,.9,0l2.03-1.522a.751.751,0,0,1,.98.069L16.836,13.1a.749.749,0,0,0,.916.113l2.112-1.267A.751.751,0,0,1,21,12.587Z"/><path class="cls-1" d="M6,9.762v-3a6,6,0,0,1,12,0v3"/><polyline class="cls-1" points="20.204 4.512 17.954 6.012 20.204 7.512"/><path class="cls-1" d="M12.375,5.262a.375.375,0,0,1,.375.375"/><path class="cls-1" d="M12,5.637a.375.375,0,0,1,.375-.375"/><path class="cls-1" d="M12.375,6.012A.374.374,0,0,1,12,5.637"/><path class="cls-1" d="M12.75,5.637a.374.374,0,0,1-.375.375"/></svg>