<svg id="Regular" xmlns="http://www.w3.org/2000/svg" viewBox="0 0 24 24"><defs><style>.cls-1{fill:none;stroke:currentColor;stroke-linecap:round;stroke-linejoin:round;stroke-width:1.5px;}</style></defs><title>chick</title><circle class="cls-1" cx="16.125" cy="5.637" r="4.875"/><path class="cls-1" d="M15.594,10.484a7.5,7.5,0,1,1-4.32-5.337"/><line class="cls-1" x1="23.25" y1="3.012" x2="20.887" y2="4.588"/><line class="cls-1" x1="20.985" y1="5.253" x2="23.25" y2="6.762"/><path class="cls-1" d="M16.875,4.512a.375.375,0,0,1,.375.375"/><path class="cls-1" d="M16.5,4.887a.375.375,0,0,1,.375-.375"/><path class="cls-1" d="M16.875,5.262a.374.374,0,0,1-.375-.375"/><path class="cls-1" d="M17.25,4.887a.374.374,0,0,1-.375.375"/><line class="cls-1" x1="12.75" y1="18.012" x2="15.75" y2="21.012"/><line class="cls-1" x1="5.163" y1="18.85" x2="3" y2="21.012"/><polyline class="cls-1" points="15.75 23.262 15.75 21.012 18 21.012"/><polyline class="cls-1" points="0.75 21.012 3 21.012 3 23.262"/><path class="cls-1" d="M12,12.012a3.75,3.75,0,0,1-7.5,0h3"/></svg>