<svg id="Regular" xmlns="http://www.w3.org/2000/svg" viewBox="0 0 24 24"><defs><style>.cls-1,.cls-2{fill:none;stroke:currentColor;stroke-linecap:round;stroke-linejoin:round;stroke-width:1.5px;}.cls-1{fill-rule:evenodd;}</style></defs><title>chicken-mother</title><path class="cls-1" d="M7.907,8.024a38.257,38.257,0,0,0,.265-4.262A3,3,0,1,0,4.578,6.7a13.851,13.851,0,0,0-.906,4.559c0,3,2.25,4.5,6,4.5s6.75-2.25,6.75-6A12.4,12.4,0,0,0,7.907,8.024Z"/><line class="cls-2" x1="2.256" y1="4.471" x2="0.672" y2="5.262"/><path class="cls-2" d="M4.8,3.012a.375.375,0,0,1,.375.375"/><path class="cls-2" d="M4.422,3.387A.375.375,0,0,1,4.8,3.012"/><path class="cls-2" d="M4.8,3.762a.374.374,0,0,1-.375-.375"/><path class="cls-2" d="M5.172,3.387a.374.374,0,0,1-.375.375"/><path class="cls-1" d="M7.422,11.262s2.25,2.25,4.5.75a3.23,3.23,0,0,0,1.5-3l-.1-.664"/><line class="cls-2" x1="6.132" y1="15.133" x2="5.172" y2="18.012"/><line class="cls-2" x1="11.132" y1="15.643" x2="11.922" y2="18.012"/><path class="cls-2" d="M19.1,17.948l4.072.814a2.152,2.152,0,0,1-.75,2.25c-1.5,1.5-3.75,1.5-4.5,0s.75-3,.75-3a1.5,1.5,0,1,0-1.5-1.5h-.75"/><line class="cls-2" x1="19.422" y1="22.097" x2="19.422" y2="23.262"/><line class="cls-2" x1="21.672" y1="21.606" x2="21.672" y2="23.262"/></svg>