<svg id="Regular" xmlns="http://www.w3.org/2000/svg" viewBox="0 0 24 24"><defs><style>.cls-1{fill:none;stroke:currentColor;stroke-linecap:round;stroke-linejoin:round;stroke-width:1.5px;}</style></defs><title>chick-1</title><path class="cls-1" d="M13.661.791A6.173,6.173,0,0,0,8.25,7.02v.492a6,6,0,0,1-6,6H.75A9.75,9.75,0,0,0,10.8,23.258,10.021,10.021,0,0,0,20.25,13.1V6.762A6,6,0,0,0,13.661.791Z"/><path class="cls-1" d="M15,15.762a3.75,3.75,0,0,1-7.5,0h3"/><path class="cls-1" d="M20.25,6.762a2.938,2.938,0,0,1,3,3h-3"/><path class="cls-1" d="M14.625,6.012A.375.375,0,0,1,15,6.387"/><path class="cls-1" d="M14.25,6.387a.375.375,0,0,1,.375-.375"/><path class="cls-1" d="M14.625,6.762a.374.374,0,0,1-.375-.375"/><path class="cls-1" d="M15,6.387a.374.374,0,0,1-.375.375"/></svg>