<svg id="Regular" xmlns="http://www.w3.org/2000/svg" viewBox="0 0 24 24"><defs><style>.cls-1{fill:none;stroke:currentColor;stroke-linecap:round;stroke-linejoin:round;stroke-width:1.5px;}</style></defs><title>chocolate-bar</title><path class="cls-1" d="M17.892,23.25H6.054a1.581,1.581,0,0,1-1.581-1.581V14.25a1.5,1.5,0,0,1,1.5-1.5h12a1.5,1.5,0,0,1,1.5,1.5v7.419A1.581,1.581,0,0,1,17.892,23.25Z"/><path class="cls-1" d="M5.021,13.091,14.028,18.7a1.5,1.5,0,0,0,2.07-.485L19.134,13.3"/><path class="cls-1" d="M16.37.75H7.577a1.6,1.6,0,0,0-1.6,1.6v10.4h12V2.354A1.6,1.6,0,0,0,16.37.75Z"/><line class="cls-1" x1="11.973" y1="0.75" x2="11.973" y2="12.75"/><line class="cls-1" x1="5.973" y1="6.75" x2="17.973" y2="6.75"/></svg>