<svg id="Regular" xmlns="http://www.w3.org/2000/svg" viewBox="0 0 24 24"><defs><style>.cls-1{fill:none;stroke:currentColor;stroke-linecap:round;stroke-linejoin:round;stroke-width:1.5px;}</style></defs><title>christmas-tree-ornaments-gift</title><path class="cls-1" d="M14.251,16.615l-2.143-3.184a.51.51,0,0,1,.428-.818h1.142a.511.511,0,0,0,.446-.795L10.5,6.75h2.25L8.7.978a.549.549,0,0,0-.891,0L3.751,6.75H6l-4.5,6h3"/><path class="cls-1" d="M4.5,12.75.858,18.682a.51.51,0,0,0,.429.818H13.5"/><line class="cls-1" x1="8.251" y1="19.5" x2="8.251" y2="23.25"/><line class="cls-1" x1="4.91" y1="8.205" x2="11.053" y2="7.522"/><line class="cls-1" x1="3.569" y1="14.268" x2="12.108" y2="13.431"/><path class="cls-1" d="M6.376,10.5a.375.375,0,0,1,.375.375"/><path class="cls-1" d="M6,10.875a.375.375,0,0,1,.375-.375"/><path class="cls-1" d="M6.376,11.25A.375.375,0,0,1,6,10.875"/><path class="cls-1" d="M6.751,10.875a.375.375,0,0,1-.375.375"/><path class="cls-1" d="M10.126,10.125a.375.375,0,0,1,.375.375"/><path class="cls-1" d="M9.751,10.5a.375.375,0,0,1,.375-.375"/><path class="cls-1" d="M10.126,10.875a.375.375,0,0,1-.375-.375"/><path class="cls-1" d="M10.5,10.5a.375.375,0,0,1-.375.375"/><path class="cls-1" d="M6.376,16.5a.375.375,0,0,1,.375.375"/><path class="cls-1" d="M6,16.875a.375.375,0,0,1,.375-.375"/><path class="cls-1" d="M6.376,17.25A.375.375,0,0,1,6,16.875"/><path class="cls-1" d="M6.751,16.875a.375.375,0,0,1-.375.375"/><path class="cls-1" d="M10.126,16.5a.375.375,0,0,1,.375.375"/><path class="cls-1" d="M9.751,16.875a.375.375,0,0,1,.375-.375"/><path class="cls-1" d="M10.126,17.25a.375.375,0,0,1-.375-.375"/><path class="cls-1" d="M10.5,16.875a.375.375,0,0,1-.375.375"/><rect class="cls-1" x="16.501" y="17.25" width="6" height="6" rx="0.5" ry="0.5"/><line class="cls-1" x1="19.501" y1="17.25" x2="19.501" y2="23.25"/><line class="cls-1" x1="16.501" y1="20.25" x2="22.501" y2="20.25"/><line class="cls-1" x1="19.501" y1="17.25" x2="18.001" y2="15"/><line class="cls-1" x1="21.001" y1="15" x2="19.501" y2="17.25"/><path class="cls-1" d="M12,.75c3.717,1.289,8.179,1.98,11.249,1.5"/><line class="cls-1" x1="21.751" y1="2.403" x2="21.751" y2="5.25"/><circle class="cls-1" cx="21.75" cy="6.75" r="1.5"/><line class="cls-1" x1="16.501" y1="1.94" x2="16.501" y2="3.75"/><circle class="cls-1" cx="16.501" cy="5.25" r="1.5"/></svg>