<svg id="Regular" xmlns="http://www.w3.org/2000/svg" viewBox="0 0 24 24"><defs><style>.cls-1{fill:none;stroke:currentColor;stroke-linecap:round;stroke-linejoin:round;stroke-width:1.5px;}</style></defs><title>christmas-door-wreath-1</title><path class="cls-1" d="M19.992,19.917a11.249,11.249,0,1,0-16.736-.838"/><path class="cls-1" d="M16.055,10a4.155,4.155,0,0,0-8.11,0"/><path class="cls-1" d="M11.1,12.351,9.145,10.61a2.929,2.929,0,0,0-1.935-.7h0A2.578,2.578,0,0,0,4.5,12.34l0,2.68a2.586,2.586,0,0,0,2.744,2.4h0A2.926,2.926,0,0,0,9.177,16.7l1.032-.92"/><circle class="cls-1" cx="11.998" cy="14.416" r="2.25"/><line class="cls-1" x1="9.942" y1="13.5" x2="7.5" y2="13.5"/><line class="cls-1" x1="14.053" y1="13.5" x2="16.5" y2="13.5"/><path class="cls-1" d="M15.356,17.073l1.5,5.129a.285.285,0,0,1-.384.343l-1.322-.557a.285.285,0,0,0-.348.105l-.687,1.03a.283.283,0,0,1-.275.124.286.286,0,0,1-.233-.192l-1.257-3.771a.285.285,0,0,0-.541,0l-1.257,3.771a.286.286,0,0,1-.508.068l-.687-1.03a.285.285,0,0,0-.348-.105l-1.322.557a.285.285,0,0,1-.384-.343L8.84,16.967"/><path class="cls-1" d="M12.866,12.34l1.984-1.73a2.929,2.929,0,0,1,1.936-.7h0A2.578,2.578,0,0,1,19.5,12.34l-.005,2.68a2.586,2.586,0,0,1-2.744,2.4h0a2.928,2.928,0,0,1-1.928-.716l-1.031-.92"/><path class="cls-1" d="M5.625,6.75A.375.375,0,0,1,6,7.125"/><path class="cls-1" d="M5.25,7.125a.375.375,0,0,1,.375-.375"/><path class="cls-1" d="M5.625,7.5a.375.375,0,0,1-.375-.375"/><path class="cls-1" d="M6,7.125a.375.375,0,0,1-.375.375"/><path class="cls-1" d="M12,3.75a.375.375,0,0,1,.375.375"/><path class="cls-1" d="M11.625,4.125A.375.375,0,0,1,12,3.75"/><path class="cls-1" d="M12,4.5a.375.375,0,0,1-.375-.375"/><path class="cls-1" d="M12.375,4.125A.375.375,0,0,1,12,4.5"/><path class="cls-1" d="M18.375,6.75a.375.375,0,0,1,.375.375"/><path class="cls-1" d="M18,7.125a.375.375,0,0,1,.375-.375"/><path class="cls-1" d="M18.375,7.5A.375.375,0,0,1,18,7.125"/><path class="cls-1" d="M18.75,7.125a.375.375,0,0,1-.375.375"/></svg>