<svg id="Regular" xmlns="http://www.w3.org/2000/svg" viewBox="0 0 24 24"><defs><style>.cls-1{fill:none;stroke:currentColor;stroke-linecap:round;stroke-linejoin:round;stroke-width:1.5px;}</style></defs><title>christmas-tree-top-star</title><path class="cls-1" d="M12.618,7.126l1.346,3.124h2.621a.643.643,0,0,1,.452,1.123L14.763,13.4l1.26,2.9a.686.686,0,0,1-.977.859L12,15.442,8.955,17.157a.686.686,0,0,1-.977-.859l1.26-2.9L6.963,11.373a.643.643,0,0,1,.45-1.123h2.621l1.349-3.124A.7.7,0,0,1,12.618,7.126Z"/><path class="cls-1" d="M10.242,16.432l-1.231,5.5a.487.487,0,0,0,.234.526,5.192,5.192,0,0,0,5.51,0,.487.487,0,0,0,.234-.526l-1.231-5.5"/><line class="cls-1" x1="12" y1="3.685" x2="12" y2="0.75"/><line class="cls-1" x1="6.75" y1="6" x2="5.25" y2="4.5"/><line class="cls-1" x1="3.75" y1="9.75" x2="1.5" y2="9.75"/><line class="cls-1" x1="17.25" y1="6" x2="18.75" y2="4.5"/><line class="cls-1" x1="20.25" y1="9.75" x2="22.5" y2="9.75"/></svg>