<svg id="Regular" xmlns="http://www.w3.org/2000/svg" viewBox="0 0 24 24"><defs><style>.cls-1{fill:none;stroke:currentColor;stroke-linecap:round;stroke-linejoin:round;stroke-width:1.5px;}</style></defs><title>christmas-sled</title><line class="cls-1" x1="6.75" y1="16" x2="3.75" y2="20.5"/><line class="cls-1" x1="15" y1="16" x2="17.25" y2="20.5"/><path class="cls-1" d="M.75,6.25l5.228.932a3,3,0,0,1,2.272,2.91V11.5A1.5,1.5,0,0,0,9.75,13h1.5a1.486,1.486,0,0,0,1.5-1.481A1.5,1.5,0,0,1,14.25,10H19.5a.75.75,0,0,1,.75.75V14.5a1.5,1.5,0,0,1-1.5,1.5H5.25a4.5,4.5,0,0,1-4.5-4.5V3.25"/><path class="cls-1" d="M.75,20.5H21a2.245,2.245,0,0,0,2.123-3"/></svg>