<svg id="Regular" xmlns="http://www.w3.org/2000/svg" viewBox="0 0 24 24"><defs><style>.cls-1{fill:none;stroke:currentColor;stroke-linecap:round;stroke-linejoin:round;stroke-width:1.5px;}</style></defs><title>christmas-postcard-envelope</title><path class="cls-1" d="M19.5,12.88V2.25A1.5,1.5,0,0,0,18,.75H6a1.5,1.5,0,0,0-1.5,1.5V12.88"/><path class="cls-1" d="M21.284,11.465a.75.75,0,0,1,1.216.587v9.7a1.5,1.5,0,0,1-1.5,1.5H3a1.5,1.5,0,0,1-1.5-1.5v-9.7a.75.75,0,0,1,1.216-.587l7.431,5.894a3,3,0,0,0,3.706,0Z"/><line class="cls-1" x1="15.808" y1="15.808" x2="18.75" y2="18.75"/><line class="cls-1" x1="8.192" y1="15.808" x2="5.25" y2="18.75"/><polyline class="cls-1" points="10.312 4.875 12 6 13.687 4.875"/><line class="cls-1" x1="12" y1="12.75" x2="12" y2="3.75"/><polyline class="cls-1" points="10.312 11.625 12 10.5 13.687 11.625"/><polyline class="cls-1" points="15.375 6.563 14.25 8.25 15.375 9.938"/><line class="cls-1" x1="7.5" y1="8.25" x2="16.5" y2="8.25"/><polyline class="cls-1" points="8.625 6.563 9.75 8.25 8.625 9.938"/></svg>