<svg id="Regular" xmlns="http://www.w3.org/2000/svg" viewBox="0 0 24 24"><defs><style>.cls-1{fill:none;stroke:currentColor;stroke-linecap:round;stroke-linejoin:round;stroke-width:1.5px;}</style></defs><title>christmas-sugar-cane</title><path class="cls-1" d="M16.5,16.308V21A2.25,2.25,0,0,1,12,21V16.308"/><path class="cls-1" d="M12,11.821V7.5a2.25,2.25,0,0,0-4.5,0v.75a2.25,2.25,0,0,1-4.5,0V7.5a6.75,6.75,0,0,1,13.5,0v4.321"/><line class="cls-1" x1="8.16" y1="5.91" x2="4.98" y2="2.73"/><line class="cls-1" x1="11.35" y1="5.92" x2="14.869" y2="3.105"/><path class="cls-1" d="M13.419,13,11.953,11.78a2.4,2.4,0,0,0-1.534-.53h0A2.014,2.014,0,0,0,8.25,13.058v2.009a2.013,2.013,0,0,0,2.169,1.808h0a2.4,2.4,0,0,0,1.534-.529L13.21,15.33"/><circle class="cls-1" cx="14.25" cy="14.25" r="1.5"/><path class="cls-1" d="M15.081,13l1.466-1.221a2.4,2.4,0,0,1,1.534-.53h0a2.013,2.013,0,0,1,2.169,1.808v2.009a2.013,2.013,0,0,1-2.169,1.808h0a2.4,2.4,0,0,1-1.534-.53L15.31,15.312"/></svg>