<svg id="Regular" xmlns="http://www.w3.org/2000/svg" viewBox="0 0 24 24"><defs><style>.cls-1{fill:none;stroke:currentColor;stroke-linecap:round;stroke-linejoin:round;stroke-width:1.5px;}</style></defs><title>christmas-tree-ornament</title><circle class="cls-1" cx="12" cy="14.25" r="9"/><path class="cls-1" d="M4.368,19.022,6.86,16.529a1.5,1.5,0,0,1,2.113-.008l1.991,1.959a1.5,1.5,0,0,0,2.088.017l2.077-1.982a1.5,1.5,0,0,1,2.1.025l2.436,2.435"/><path class="cls-1" d="M19.678,9.552l-2.49,2.489a1.5,1.5,0,0,1-2.113.009l-2.006-1.976a1.5,1.5,0,0,0-2.121.017L8.973,12.1a1.5,1.5,0,0,1-2.129.008L4.31,9.571"/><line class="cls-1" x1="12" y1="2.25" x2="12" y2="0.75"/><path class="cls-1" d="M9,5.762V3.75a1.5,1.5,0,0,1,1.5-1.5h3A1.5,1.5,0,0,1,15,3.75V5.762"/></svg>