<svg id="Regular" xmlns="http://www.w3.org/2000/svg" viewBox="0 0 24 24"><defs><style>.cls-1{fill:none;stroke:currentColor;stroke-linecap:round;stroke-linejoin:round;stroke-width:1.5px;}</style></defs><title>christmas-mistletoe</title><path class="cls-1" d="M6,15.508l-2.434-.615A.75.75,0,0,1,3,14.166V12.1a.752.752,0,0,0-.266-.574L1.016,10.077A.752.752,0,0,1,.75,9.5v-3a.75.75,0,0,1,.75-.75H4.849a.75.75,0,0,1,.624.334L6.589,7.759a.75.75,0,0,0,.442.311l2.263.566a.751.751,0,0,1,.552.574l.715,3.144"/><line class="cls-1" x1="7.491" y1="12.908" x2="5.662" y2="10.675"/><path class="cls-1" d="M15.009,14.342l4.7-1.274a.75.75,0,0,0,.539-.716l.014-2.933a.75.75,0,0,1,.35-.632L22.9,7.353a.75.75,0,0,0,.351-.635V3.5a.75.75,0,0,0-.75-.75H18.437a.749.749,0,0,0-.632.346l-1.34,2.093a.751.751,0,0,1-.556.341l-2.972.3a.751.751,0,0,0-.661.6l-.585,2.928"/><line class="cls-1" x1="16.092" y1="10.241" x2="18.011" y2="7.461"/><path class="cls-1" d="M11.265,17.468a3,3,0,1,1,.722-1.687"/><path class="cls-1" d="M10.835,13.126a3,3,0,1,1,.83,1"/><circle class="cls-1" cx="14.25" cy="17.75" r="3"/></svg>