<svg id="Regular" xmlns="http://www.w3.org/2000/svg" viewBox="0 0 24 24"><defs><style>.cls-1{fill:none;stroke:currentColor;stroke-linecap:round;stroke-linejoin:round;stroke-width:1.5px;}</style></defs><title>christmas-angel</title><circle class="cls-1" cx="16.75" cy="7.5" r="3.75"/><path class="cls-1" d="M17.5,11.214c-.44,4.4-1.525,8.283-3.959,11.547a.99.99,0,0,1-.76.4c-6.009.2-9.309-4.131-10.944-7.826a.987.987,0,0,1,.648-1.354c5.412-1.45,7.707-2.714,10.709-5.291"/><path class="cls-1" d="M15.027,20.386c-5.3-.062-8.4-3.713-10.074-7.114"/><path class="cls-1" d="M5.31,10.055a5.973,5.973,0,0,1-1.07-.85A6.179,6.179,0,0,1,3.917.932a.5.5,0,0,1,.794.037,26.149,26.149,0,0,0,8.481,7.718"/><path class="cls-1" d="M14.538,4.472C12.744,4.161,11.5,3.485,11.5,2.7,11.5,1.624,13.851.75,16.75.75S22,1.624,22,2.7c0,.784-1.244,1.46-3.038,1.771"/></svg>