<svg id="Regular" xmlns="http://www.w3.org/2000/svg" viewBox="0 0 24 24"><defs><style>.cls-1{fill:none;stroke:currentColor;stroke-linecap:round;stroke-linejoin:round;stroke-width:1.5px;}</style></defs><title>christmas-snow-globe</title><path class="cls-1" d="M4.655,18.754a10.5,10.5,0,1,1,14.7-.007"/><path class="cls-1" d="M19.5,18.75H4.5L3.055,20.918A1.5,1.5,0,0,0,4.3,23.25H19.7a1.5,1.5,0,0,0,1.248-2.332Z"/><polyline class="cls-1" points="7.5 14.25 12 9.75 16.5 14.25"/><path class="cls-1" d="M8.25,5.625A.375.375,0,0,1,8.625,6"/><path class="cls-1" d="M7.875,6a.375.375,0,0,1,.375-.375"/><path class="cls-1" d="M8.25,6.375A.375.375,0,0,1,7.875,6"/><path class="cls-1" d="M8.625,6a.375.375,0,0,1-.375.375"/><path class="cls-1" d="M5.25,10.875a.375.375,0,0,1,.375.375"/><path class="cls-1" d="M4.875,11.25a.375.375,0,0,1,.375-.375"/><path class="cls-1" d="M5.25,11.625a.375.375,0,0,1-.375-.375"/><path class="cls-1" d="M5.625,11.25a.375.375,0,0,1-.375.375"/><path class="cls-1" d="M15.75,7.125a.375.375,0,0,1,.375.375"/><path class="cls-1" d="M15.375,7.5a.375.375,0,0,1,.375-.375"/><path class="cls-1" d="M15.75,7.875a.375.375,0,0,1-.375-.375"/><path class="cls-1" d="M16.125,7.5a.375.375,0,0,1-.375.375"/><path class="cls-1" d="M12.75,4.125a.375.375,0,0,1,.375.375"/><path class="cls-1" d="M12.375,4.5a.375.375,0,0,1,.375-.375"/><path class="cls-1" d="M12.75,4.875a.375.375,0,0,1-.375-.375"/><path class="cls-1" d="M13.125,4.5a.375.375,0,0,1-.375.375"/><path class="cls-1" d="M19.5,10.125a.375.375,0,0,1,.375.375"/><path class="cls-1" d="M19.125,10.5a.375.375,0,0,1,.375-.375"/><path class="cls-1" d="M19.5,10.875a.375.375,0,0,1-.375-.375"/><path class="cls-1" d="M19.875,10.5a.375.375,0,0,1-.375.375"/><line class="cls-1" x1="9" y1="12.75" x2="9" y2="18.75"/><line class="cls-1" x1="15" y1="12.75" x2="15" y2="18.75"/></svg>