<svg id="Regular" xmlns="http://www.w3.org/2000/svg" viewBox="0 0 24 24"><defs><style>.cls-1{fill:none;stroke:currentColor;stroke-linecap:round;stroke-linejoin:round;stroke-width:1.5px;}</style></defs><title>christmas-snow</title><path class="cls-1" d="M.75,22.55a13.973,13.973,0,0,1,9.278-.821l4.163,1.079a13.769,13.769,0,0,0,9.059-.748h0"/><path class="cls-1" d="M23.25,15.75h0a10.926,10.926,0,0,0-9.453.669c-1.934,1.091-2.079,1.185-2.616,1.43"/><polygon class="cls-1" points="4.5 9.75 1.5 14.25 3.25 14.25 0.75 18 8.25 18 5.75 14.25 7.5 14.25 4.5 9.75"/><line class="cls-1" x1="4.5" y1="18" x2="4.5" y2="21.453"/><polygon class="cls-1" points="18 3.75 15 8.25 16.75 8.25 14.25 12 21.75 12 19.25 8.25 21 8.25 18 3.75"/><line class="cls-1" x1="18" y1="12" x2="18" y2="15.049"/><path class="cls-1" d="M1.125.75a.375.375,0,0,1,.375.375"/><path class="cls-1" d="M.75,1.125A.375.375,0,0,1,1.125.75"/><path class="cls-1" d="M1.125,1.5A.375.375,0,0,1,.75,1.125"/><path class="cls-1" d="M1.5,1.125a.375.375,0,0,1-.375.375"/><path class="cls-1" d="M6.375,4.5a.375.375,0,0,1,.375.375"/><path class="cls-1" d="M6,4.875A.375.375,0,0,1,6.375,4.5"/><path class="cls-1" d="M6.375,5.25A.375.375,0,0,1,6,4.875"/><path class="cls-1" d="M6.75,4.875a.375.375,0,0,1-.375.375"/><path class="cls-1" d="M12.375.75a.375.375,0,0,1,.375.375"/><path class="cls-1" d="M12,1.125A.375.375,0,0,1,12.375.75"/><path class="cls-1" d="M12.375,1.5A.375.375,0,0,1,12,1.125"/><path class="cls-1" d="M12.75,1.125a.375.375,0,0,1-.375.375"/><path class="cls-1" d="M1.125,8.25a.375.375,0,0,1,.375.375"/><path class="cls-1" d="M.75,8.625a.375.375,0,0,1,.375-.375"/><path class="cls-1" d="M1.125,9A.375.375,0,0,1,.75,8.625"/><path class="cls-1" d="M1.5,8.625A.375.375,0,0,1,1.125,9"/><path class="cls-1" d="M10.875,9a.375.375,0,0,1,.375.375"/><path class="cls-1" d="M10.5,9.375A.375.375,0,0,1,10.875,9"/><path class="cls-1" d="M10.875,9.75a.375.375,0,0,1-.375-.375"/><path class="cls-1" d="M11.25,9.375a.375.375,0,0,1-.375.375"/><path class="cls-1" d="M22.125.75a.375.375,0,0,1,.375.375"/><path class="cls-1" d="M21.75,1.125A.375.375,0,0,1,22.125.75"/><path class="cls-1" d="M22.125,1.5a.375.375,0,0,1-.375-.375"/><path class="cls-1" d="M22.5,1.125a.375.375,0,0,1-.375.375"/></svg>