<svg id="Regular" xmlns="http://www.w3.org/2000/svg" viewBox="0 0 24 24"><defs><style>.cls-1{fill:none;stroke:currentColor;stroke-linecap:round;stroke-linejoin:round;stroke-width:1.5px;}</style></defs><title>christmas-tree</title><polygon class="cls-1" points="21 18.75 16.5 12.75 18.75 12.75 14.25 6.75 17.25 6.75 12 0.75 6.75 6.75 9.75 6.75 5.25 12.75 7.5 12.75 3 18.75 21 18.75"/><line class="cls-1" x1="12" y1="18.75" x2="12" y2="23.25"/><path class="cls-1" d="M13.125,9.75a.375.375,0,0,1,.375.375"/><path class="cls-1" d="M12.75,10.125a.375.375,0,0,1,.375-.375"/><path class="cls-1" d="M13.125,10.5a.375.375,0,0,1-.375-.375"/><path class="cls-1" d="M13.5,10.125a.375.375,0,0,1-.375.375"/><path class="cls-1" d="M12,4.5a.375.375,0,0,1,.375.375"/><path class="cls-1" d="M11.625,4.875A.375.375,0,0,1,12,4.5"/><path class="cls-1" d="M12,5.25a.375.375,0,0,1-.375-.375"/><path class="cls-1" d="M12.375,4.875A.375.375,0,0,1,12,5.25"/><circle class="cls-1" cx="11.25" cy="14.25" r="1.5"/></svg>