<svg id="Regular" xmlns="http://www.w3.org/2000/svg" viewBox="0 0 24 24"><defs><style>.cls-1{fill:none;stroke:currentColor;stroke-linecap:round;stroke-linejoin:round;stroke-width:1.5px;}</style></defs><title>christmas-tree-ornaments-1</title><circle class="cls-1" cx="18.75" cy="14.25" r="3.75"/><line class="cls-1" x1="18.75" y1="10.5" x2="18.75" y2="3.895"/><line class="cls-1" x1="7.5" y1="12.75" x2="7.5" y2="6.15"/><line class="cls-1" x1="15" y1="14.25" x2="22.5" y2="14.25"/><circle class="cls-1" cx="7.5" cy="18" r="5.25"/><path class="cls-1" d="M2.3,18.748c1.174-.017,1.128-1.5,2.315-1.5s1.195,1.5,2.389,1.5,1.2-1.5,2.389-1.5,1.2,1.5,2.393,1.5a1.23,1.23,0,0,0,.961-.467"/><line class="cls-1" x1="0.75" y1="7.5" x2="23.25" y2="3"/><line class="cls-1" x1="2" y1="7.25" x2="4.5" y2="9.75"/><line class="cls-1" x1="4.5" y1="6.75" x2="6.75" y2="3"/><line class="cls-1" x1="8.365" y1="5.977" x2="11.643" y2="9.517"/><line class="cls-1" x1="11.167" y1="5.417" x2="12.75" y2="2.25"/><line class="cls-1" x1="13.875" y1="4.875" x2="16.5" y2="7.5"/><line class="cls-1" x1="15.75" y1="4.5" x2="18" y2="0.75"/><line class="cls-1" x1="20.293" y1="3.587" x2="21.75" y2="1.5"/><line class="cls-1" x1="20.293" y1="3.587" x2="22.5" y2="5.25"/></svg>