<svg id="Regular" xmlns="http://www.w3.org/2000/svg" viewBox="0 0 24 24"><defs><style>.cls-1{fill:none;stroke:currentColor;stroke-linecap:round;stroke-linejoin:round;stroke-width:1.5px;}</style></defs><title>christmas-gift</title><path class="cls-1" d="M.75,15.337A3.913,3.913,0,0,0,4.663,19.25H23.25"/><path class="cls-1" d="M15.75,12.5h-9A1.5,1.5,0,0,0,5.25,14v5.25h10.5Z"/><path class="cls-1" d="M21.75,10.25h-4.5a1.5,1.5,0,0,0-1.5,1.5v7.5h7.5v-7.5A1.5,1.5,0,0,0,21.75,10.25Z"/><line class="cls-1" x1="19.5" y1="10.25" x2="19.5" y2="19.25"/><line class="cls-1" x1="15.75" y1="14.75" x2="23.25" y2="14.75"/><path class="cls-1" d="M15.75,12.5V5.75a1.5,1.5,0,0,0-1.5-1.5H9.75a1.5,1.5,0,0,0-1.5,1.5V12.5"/><line class="cls-1" x1="5.25" y1="16.25" x2="15.75" y2="16.25"/><line class="cls-1" x1="9" y1="12.5" x2="9" y2="19.25"/><line class="cls-1" x1="23.25" y1="22.25" x2="0.75" y2="22.25"/><line class="cls-1" x1="8.598" y1="19.25" x2="7.598" y2="22.25"/><line class="cls-1" x1="17.402" y1="19.25" x2="16.402" y2="22.25"/><line class="cls-1" x1="12" y1="4.25" x2="9.75" y2="2"/><line class="cls-1" x1="14.25" y1="2" x2="12" y2="4.25"/><line class="cls-1" x1="19.5" y1="10.25" x2="18" y2="8"/><line class="cls-1" x1="21" y1="8" x2="19.5" y2="10.25"/></svg>