<svg id="Regular" xmlns="http://www.w3.org/2000/svg" viewBox="0 0 24 24"><defs><style>.cls-1{fill:none;stroke:currentColor;stroke-linecap:round;stroke-linejoin:round;stroke-width:1.5px;}</style></defs><title>christmas-tree-ornaments</title><circle class="cls-1" cx="6.75" cy="17.25" r="6"/><circle class="cls-1" cx="18.75" cy="12" r="4.5"/><path class="cls-1" d="M1.4,19.97a1.669,1.669,0,0,0,.816.28c1.1,0,1.1-1.3,2.2-1.3s1.1,1.3,2.2,1.3,1.1-1.3,2.2-1.3,1.1,1.3,2.205,1.3c.72,0,.97-.557,1.364-.943"/><path class="cls-1" d="M.922,15.816a1.274,1.274,0,0,0,1.047.684c1.1,0,1.1-1.5,2.2-1.5s1.1,1.5,2.2,1.5,1.1-1.5,2.2-1.5,1.1,1.5,2.2,1.5c.735,0,1.231-.793,1.639-1.238"/><path class="cls-1" d="M14.311,12.728c.412-.547.758-1.185,1.565-1.185,1.413,0,1.413,1.957,2.827,1.957s1.414-1.957,2.828-1.957c.857,0,1.2.717,1.643,1.283"/><path class="cls-1" d="M6.62,6.75A.375.375,0,0,1,7,7.125"/><path class="cls-1" d="M6.245,7.125A.374.374,0,0,1,6.62,6.75"/><path class="cls-1" d="M6.62,7.5a.374.374,0,0,1-.375-.375"/><path class="cls-1" d="M7,7.125A.375.375,0,0,1,6.62,7.5"/><path class="cls-1" d="M6.62,3.75A.375.375,0,0,1,7,4.125"/><path class="cls-1" d="M6.245,4.125A.374.374,0,0,1,6.62,3.75"/><path class="cls-1" d="M6.62,4.5a.374.374,0,0,1-.375-.375"/><path class="cls-1" d="M7,4.125A.375.375,0,0,1,6.62,4.5"/><path class="cls-1" d="M18.29,3.757a.374.374,0,0,1,.437.3"/><path class="cls-1" d="M17.99,4.194a.374.374,0,0,1,.3-.437"/><path class="cls-1" d="M18.427,4.494a.375.375,0,0,1-.437-.3"/><path class="cls-1" d="M18.727,4.057a.375.375,0,0,1-.3.437"/><path class="cls-1" d="M18.29.757a.374.374,0,0,1,.437.3"/><path class="cls-1" d="M17.99,1.194a.374.374,0,0,1,.3-.437"/><path class="cls-1" d="M18.427,1.494a.375.375,0,0,1-.437-.3"/><path class="cls-1" d="M18.727,1.057a.375.375,0,0,1-.3.437"/><path class="cls-1" d="M6.62.75A.375.375,0,0,1,7,1.125"/><path class="cls-1" d="M6.245,1.125A.374.374,0,0,1,6.62.75"/><path class="cls-1" d="M6.62,1.5a.374.374,0,0,1-.375-.375"/><path class="cls-1" d="M7,1.125A.375.375,0,0,1,6.62,1.5"/></svg>