<svg id="Regular" xmlns="http://www.w3.org/2000/svg" viewBox="0 0 24 24"><defs><style>.cls-1{fill:none;stroke:currentColor;stroke-linecap:round;stroke-linejoin:round;stroke-width:1.5px;}</style></defs><title>christmas-tree-top</title><line class="cls-1" x1="6.898" y1="17.381" x2="14.424" y2="13.618"/><line class="cls-1" x1="5.66" y1="23.25" x2="16.781" y2="17.69"/><path class="cls-1" d="M11.314,1.018a.489.489,0,0,1,.872,0L13.2,3.06a.485.485,0,0,0,.365.263l2.272.328a.483.483,0,0,1,.391.325.474.474,0,0,1-.121.489l-1.65,1.6a.476.476,0,0,0-.138.421l.389,2.255a.475.475,0,0,1-.194.468A.49.49,0,0,1,14,9.243L11.977,8.185a.486.486,0,0,0-.454,0L9.5,9.243a.49.49,0,0,1-.511-.034.475.475,0,0,1-.194-.468l.389-2.255a.476.476,0,0,0-.138-.421L7.4,4.465a.474.474,0,0,1-.121-.489.483.483,0,0,1,.39-.325l2.272-.328A.485.485,0,0,0,10.3,3.06Z"/><polyline class="cls-1" points="10.013 12 3.5 23.25 20 23.25 13.487 12"/></svg>