<svg id="Regular" xmlns="http://www.w3.org/2000/svg" viewBox="0 0 24 24"><defs><style>.cls-1{fill:none;stroke:currentColor;stroke-linecap:round;stroke-linejoin:round;stroke-width:1.5px;}</style></defs><title>christmas-lights</title><path class="cls-1" d="M.75,2.326a33.318,33.318,0,0,0,22.5,0"/><path class="cls-1" d="M5.694,9.589,2.782,9.22l.185-1.456a1.467,1.467,0,0,1,1.64-1.271h0a1.467,1.467,0,0,1,1.271,1.64Z"/><path class="cls-1" d="M4.465,18.137c-.5.485-.792.892-1.436.811S2.212,18.406,1.84,17.8a7.043,7.043,0,0,1,.829-8.6h0l3.138.4h0A7.044,7.044,0,0,1,4.465,18.137Z"/><path class="cls-1" d="M12.978,11.13H10.043V9.663A1.467,1.467,0,0,1,11.511,8.2h0a1.467,1.467,0,0,1,1.467,1.467Z"/><path class="cls-1" d="M12.834,19.765c-.44.545-.674.985-1.323.985s-.878-.434-1.323-.985A7.042,7.042,0,0,1,9.93,11.13h3.162A7.044,7.044,0,0,1,12.834,19.765Z"/><path class="cls-1" d="M17.392,9.589,20.3,9.22l-.184-1.456a1.467,1.467,0,0,0-1.64-1.271h0a1.468,1.468,0,0,0-1.272,1.64Z"/><path class="cls-1" d="M18.62,18.137c.506.485.793.892,1.437.811s.816-.542,1.188-1.144a7.043,7.043,0,0,0-.829-8.6h0l-3.137.4h0A7.044,7.044,0,0,0,18.62,18.137Z"/><line class="cls-1" x1="11.511" y1="8.196" x2="11.511" y2="4.283"/><line class="cls-1" x1="4.607" y1="6.493" x2="5.002" y2="3.526"/><line class="cls-1" x1="18.479" y1="6.493" x2="18.044" y2="3.718"/></svg>