<svg id="Regular" xmlns="http://www.w3.org/2000/svg" viewBox="0 0 24 24"><defs><style>.cls-1{fill:none;stroke:currentColor;stroke-linecap:round;stroke-linejoin:round;stroke-width:1.5px;}</style></defs><title>christmas-sock</title><path class="cls-1" d="M7.992,6.7A.978.978,0,0,0,7.415,8l2.064,4.923h0a1.467,1.467,0,0,1-.86,1.888h0l-2.291.857a3.913,3.913,0,0,0-2.294,5.036h0A3.913,3.913,0,0,0,9.07,23l8.7-3.256h0a3.423,3.423,0,0,0,2.007-4.406h0L18.069,11.76,15.658,5.029a.979.979,0,0,0-1.247-.592Z"/><path class="cls-1" d="M8.553,23.155a4.523,4.523,0,0,0,.979-4.505A4.346,4.346,0,0,0,6.05,15.788"/><path class="cls-1" d="M18.906,13.509a5.177,5.177,0,0,0-1.813.225A4.4,4.4,0,0,0,14.512,19.4a4.344,4.344,0,0,0,.766,1.28"/><line class="cls-1" x1="15.035" y1="4.431" x2="15.035" y2="0.75"/></svg>