<svg id="Regular" xmlns="http://www.w3.org/2000/svg" viewBox="0 0 24 24"><defs><style>.cls-1{fill:none;stroke:currentColor;stroke-linecap:round;stroke-linejoin:round;stroke-width:1.5px;}</style></defs><title>christmas-bells-1</title><path class="cls-1" d="M8.762,8.873a4.582,4.582,0,0,0-4.057,2.661L3.494,14.273A2.7,2.7,0,0,1,1.765,15.85a1.345,1.345,0,0,0-.9.751,1.43,1.43,0,0,0,.785,1.854l8.948,3.955a1.429,1.429,0,0,0,1.9-.667,1.343,1.343,0,0,0-.053-1.175,2.7,2.7,0,0,1,0-2.34l1.124-2.542A4.85,4.85,0,0,0,11.6,9.6"/><path class="cls-1" d="M7.376,20.988a1.974,1.974,0,1,1-3.054-1.349"/><path class="cls-1" d="M15.673,20.8l6.64-2.569a1.466,1.466,0,0,0-.054-2.755,2.955,2.955,0,0,1-1.7-1.785l-1.068-2.759a5.3,5.3,0,0,0-2.414-2.761"/><path class="cls-1" d="M19.748,19.223a1.962,1.962,0,1,1-3.419,1.323"/><circle class="cls-1" cx="14.25" cy="8.25" r="2.25"/><path class="cls-1" d="M12.241,9.262a2.573,2.573,0,0,1-1.384.484A2.526,2.526,0,0,1,8.585,8.632a2.147,2.147,0,0,1,.888-3.076,2.618,2.618,0,0,1,3.166.546c.039.045.231.3.266.345"/><polyline class="cls-1" points="8.585 8.632 4.5 7.5 4.5 5.25 3 3.79 3 0.75 6.853 0.75 8.25 2.25 10.65 2.259 11.377 5.334"/><line class="cls-1" x1="8.939" y1="5.939" x2="7.5" y2="4.5"/><polyline class="cls-1" points="16.499 8.33 19.5 7.5 19.5 5.25 21 3.79 21 0.75 17.147 0.75 15.75 2.25 13.35 2.259 12.48 5.936"/><line class="cls-1" x1="15.595" y1="6.446" x2="17.25" y2="4.5"/></svg>