<svg id="Regular" xmlns="http://www.w3.org/2000/svg" viewBox="0 0 24 24"><defs><style>.cls-1{fill:none;stroke:currentColor;stroke-linecap:round;stroke-linejoin:round;stroke-width:1.5px;}</style></defs><title>christmas-snowman</title><circle class="cls-1" cx="11.993" cy="5.25" r="4.5"/><circle class="cls-1" cx="11.993" cy="16.5" r="6.75"/><path class="cls-1" d="M10.493,4.125a.375.375,0,0,1,.375.375"/><path class="cls-1" d="M10.118,4.5a.374.374,0,0,1,.375-.375"/><path class="cls-1" d="M10.493,4.875a.374.374,0,0,1-.375-.375"/><path class="cls-1" d="M10.868,4.5a.375.375,0,0,1-.375.375"/><path class="cls-1" d="M13.493,4.125a.375.375,0,0,1,.375.375"/><path class="cls-1" d="M13.118,4.5a.374.374,0,0,1,.375-.375"/><path class="cls-1" d="M13.493,4.875a.374.374,0,0,1-.375-.375"/><path class="cls-1" d="M13.868,4.5a.375.375,0,0,1-.375.375"/><path class="cls-1" d="M11.993,13.5a.375.375,0,0,1,.375.375"/><path class="cls-1" d="M11.618,13.875a.374.374,0,0,1,.375-.375"/><path class="cls-1" d="M11.993,14.25a.374.374,0,0,1-.375-.375"/><path class="cls-1" d="M12.368,13.875a.375.375,0,0,1-.375.375"/><path class="cls-1" d="M11.993,17.25a.375.375,0,0,1,.375.375"/><path class="cls-1" d="M11.618,17.625a.374.374,0,0,1,.375-.375"/><path class="cls-1" d="M11.993,18a.374.374,0,0,1-.375-.375"/><path class="cls-1" d="M12.368,17.625a.375.375,0,0,1-.375.375"/><line class="cls-1" x1="17.496" y1="12.591" x2="23.25" y2="8.536"/><line class="cls-1" x1="20.257" y1="6.75" x2="20.257" y2="10.645"/><line class="cls-1" x1="6.489" y1="12.591" x2="0.75" y2="8.536"/><line class="cls-1" x1="3.743" y1="6.75" x2="3.743" y2="10.651"/></svg>