<svg xmlns="http://www.w3.org/2000/svg" viewBox="0 0 24 24"><defs><style>.a{fill:none;stroke:currentColor;stroke-linecap:round;stroke-linejoin:round;stroke-width:1.5px;}</style></defs><title>church</title><path class="a" d="M16.5,22.5h-9V12a4.5,4.5,0,0,1,9,0Z"/><path class="a" d="M12,12.375A.375.375,0,1,1,12.375,12a.375.375,0,0,1-.375.375"/><path class="a" d="M13.5,22.5h-3V17.25a1.5,1.5,0,0,1,3,0Z"/><line class="a" x1="12" y1="1.5" x2="12" y2="7.5"/><line class="a" x1="10.5" y1="3" x2="13.5" y2="3"/><path class="a" d="M4.125,18.75a.375.375,0,1,0-.375-.375.375.375,0,0,0,.375.375"/><path class="a" d="M.75,21a1.5,1.5,0,0,0,1.5,1.5H7.5v-9L1.925,14.739A1.5,1.5,0,0,0,.75,16.2Z"/><path class="a" d="M19.875,18.75a.375.375,0,1,1,.375-.375.375.375,0,0,1-.375.375"/><path class="a" d="M23.25,21a1.5,1.5,0,0,1-1.5,1.5H16.5v-9l5.575,1.239A1.5,1.5,0,0,1,23.25,16.2Z"/></svg>