<svg id="Regular" xmlns="http://www.w3.org/2000/svg" viewBox="0 0 24 24"><defs><style>.cls-1{fill:none;stroke:currentColor;stroke-linecap:round;stroke-linejoin:round;stroke-width:1.5px;}</style></defs><title>circus-tents</title><path class="cls-1" d="M16.706.779a.749.749,0,0,0-.956.721V5.25l4.589-1.589A.75.75,0,0,0,20.25,2.25Z"/><path class="cls-1" d="M7.706.779A.749.749,0,0,0,6.75,1.5V5.25l4.589-1.589A.75.75,0,0,0,11.25,2.25Z"/><path class="cls-1" d="M22.949,10.3a.692.692,0,0,1,.3.576,2.564,2.564,0,0,1-2.5,2.625,2.5,2.5,0,0,1-2.289-1.576,3.12,3.12,0,0,1-5.422,0A2.5,2.5,0,0,1,10.75,13.5a2.564,2.564,0,0,1-2.5-2.625.73.73,0,0,1,.293-.59L15.75,5.25Z"/><path class="cls-1" d="M8.25,11.25V22.5a.75.75,0,0,0,.75.75h3a.75.75,0,0,0,.75-.75V20.25a3,3,0,0,1,6,0V22.5a.75.75,0,0,0,.75.75h3a.75.75,0,0,0,.75-.75V11.25"/><path class="cls-1" d="M10.745,8.746,6.75,5.25l-5.488,4.8A1.5,1.5,0,0,0,.75,11.181V19.5a.75.75,0,0,0,.75.75h3"/></svg>