<svg id="Regular" xmlns="http://www.w3.org/2000/svg" viewBox="0 0 24 24"><defs><style>.cls-1{fill:none;stroke:currentColor;stroke-linecap:round;stroke-linejoin:round;stroke-width:1.5px;}</style></defs><title>circus-tent</title><path class="cls-1" d="M12,6l4.111-2.141a.751.751,0,0,0,0-1.3L13.122.849A.75.75,0,0,0,12,1.5V6"/><path class="cls-1" d="M3.75,12.75A.75.75,0,0,1,3.3,11.4L12,6l8.7,5.4a.75.75,0,0,1-.45,1.35Z"/><path class="cls-1" d="M18,12.75H6c0,3.342-1.8,6.049-4.339,9.287A.75.75,0,0,0,2.25,23.25h19.5a.75.75,0,0,0,.59-1.213C19.8,18.8,18,16.092,18,12.75Z"/><path class="cls-1" d="M12.615,16.82a.75.75,0,0,0-1.229,0L6.75,23.25h10.5Z"/><line class="cls-1" x1="12" y1="16.5" x2="12" y2="23.25"/></svg>