<svg id="Regular" xmlns="http://www.w3.org/2000/svg" viewBox="0 0 24 24"><defs><style>.cls-1{fill:none;stroke:currentColor;stroke-linecap:round;stroke-linejoin:round;stroke-width:1.5px;}</style></defs><title>circus-clown</title><circle class="cls-1" cx="12" cy="14.25" r="8.25"/><circle class="cls-1" cx="12" cy="16.5" r="2.25"/><line class="cls-1" x1="9" y1="9.75" x2="9" y2="12.75"/><line class="cls-1" x1="7.5" y1="11.25" x2="10.5" y2="11.25"/><line class="cls-1" x1="15" y1="9.75" x2="15" y2="12.75"/><line class="cls-1" x1="13.5" y1="11.25" x2="16.5" y2="11.25"/><line class="cls-1" x1="4.5" y1="6" x2="19.5" y2="6"/><path class="cls-1" d="M7.5,6V3A1.5,1.5,0,0,1,9,1.5h6A1.5,1.5,0,0,1,16.5,3V6"/><path class="cls-1" d="M19.873,11.776l1.105-.663A1.5,1.5,0,0,1,23.25,12.4v4.452a1.5,1.5,0,0,1-2.272,1.286l-1.327-.8"/><path class="cls-1" d="M4.127,11.776l-1.1-.663A1.5,1.5,0,0,0,.75,12.4v4.452a1.5,1.5,0,0,0,2.272,1.286l1.327-.8"/></svg>