<svg id="Regular" xmlns="http://www.w3.org/2000/svg" viewBox="0 0 24 24"><defs><style>.cls-1{fill:none;stroke:currentColor;stroke-linecap:round;stroke-linejoin:round;stroke-width:1.5px;}</style></defs><title>circus-clown-1</title><circle class="cls-1" cx="12" cy="12.75" r="10.5"/><path class="cls-1" d="M19.35,14.25a7.5,7.5,0,0,1-14.7-.011"/><circle class="cls-1" cx="12" cy="13.5" r="2.25"/><line class="cls-1" x1="8.25" y1="6.75" x2="8.25" y2="9.75"/><line class="cls-1" x1="6.75" y1="8.25" x2="9.75" y2="8.25"/><line class="cls-1" x1="15.75" y1="6.75" x2="15.75" y2="9.75"/><line class="cls-1" x1="14.25" y1="8.25" x2="17.25" y2="8.25"/><path class="cls-1" d="M8.924,2.708A2.792,2.792,0,0,0,6.375.75a2.6,2.6,0,0,0-1.759.689A2.247,2.247,0,1,0,1.439,4.616a2.613,2.613,0,0,0,.844,4.147"/><path class="cls-1" d="M15.1,2.716A2.769,2.769,0,0,1,17.625.75a2.6,2.6,0,0,1,1.759.689,2.247,2.247,0,1,1,3.177,3.177,2.613,2.613,0,0,1-.844,4.147"/></svg>