<svg id="Regular" xmlns="http://www.w3.org/2000/svg" viewBox="0 0 24 24"><defs><style>.cls-1{fill:none;stroke:currentColor;stroke-linecap:round;stroke-linejoin:round;stroke-width:1.5px;}</style></defs><title>circus-elephant</title><path class="cls-1" d="M8.453,9.871l-4.378.973A1.5,1.5,0,0,1,2.249,9.38V6C2.212,5.914,1.491,4.271.873,2.846A1.5,1.5,0,0,1,2.25.75H6A3.628,3.628,0,0,1,8.545,2.075a5.164,5.164,0,0,1,6.908,0A3.63,3.63,0,0,1,18,.75h3.75a1.5,1.5,0,0,1,1.377,2.1C22.509,4.271,21.786,5.914,21.749,6V9.38a1.5,1.5,0,0,1-1.825,1.464l-4.379-.973"/><path class="cls-1" d="M10.5,11.034a5.266,5.266,0,0,1-3.25-2.787"/><path class="cls-1" d="M16.744,8.251A5.26,5.26,0,0,1,13.5,11.032"/><polyline class="cls-1" points="10.499 9.75 10.499 15.75 11.999 15 13.499 15.75 13.499 9.75"/><path class="cls-1" d="M17.865,10.388a8.528,8.528,0,0,1,.884,3.862,9.921,9.921,0,0,1-3.1,6.847"/><path class="cls-1" d="M6.133,10.388a8.541,8.541,0,0,0-.884,3.862,9.922,9.922,0,0,0,3.1,6.847"/><path class="cls-1" d="M5.635,23.25a8.251,8.251,0,0,1,12.726,0"/><line class="cls-1" x1="11.999" y1="18" x2="11.999" y2="20.25"/><path class="cls-1" d="M9.374,5.25a.375.375,0,0,1,.375.375"/><path class="cls-1" d="M9,5.625a.375.375,0,0,1,.375-.375"/><path class="cls-1" d="M9.374,6A.375.375,0,0,1,9,5.625"/><path class="cls-1" d="M9.749,5.625A.375.375,0,0,1,9.374,6"/><path class="cls-1" d="M14.624,5.25A.375.375,0,0,1,15,5.625"/><path class="cls-1" d="M14.249,5.625a.375.375,0,0,1,.375-.375"/><path class="cls-1" d="M14.624,6a.375.375,0,0,1-.375-.375"/><path class="cls-1" d="M15,5.625A.375.375,0,0,1,14.624,6"/></svg>