<svg id="Regular" xmlns="http://www.w3.org/2000/svg" viewBox="0 0 24 24"><defs><style>.cls-1{fill:none;stroke:currentColor;stroke-linecap:round;stroke-linejoin:round;stroke-width:1.5px;}</style></defs><title>circus-tent-1</title><path class="cls-1" d="M12.706.779a.749.749,0,0,0-.956.721v3l4.589-1.419A.75.75,0,0,0,16.25,1.67Z"/><path class="cls-1" d="M19.25,10.125a2.564,2.564,0,0,1-2.5,2.625,2.5,2.5,0,0,1-2.289-1.576,3.12,3.12,0,0,1-5.422,0A2.5,2.5,0,0,1,6.75,12.75a2.564,2.564,0,0,1-2.5-2.625.73.73,0,0,1,.293-.59L11.75,4.5l7.2,5.049A.692.692,0,0,1,19.25,10.125Z"/><path class="cls-1" d="M10.75,17.25h2a2,2,0,0,1,2,2v4a0,0,0,0,1,0,0h-6a0,0,0,0,1,0,0v-4A2,2,0,0,1,10.75,17.25Z"/><path class="cls-1" d="M4.323,10.758A32.733,32.733,0,0,1,2.8,21.351a1.5,1.5,0,0,0,1.447,1.9h15a1.5,1.5,0,0,0,1.447-1.9,32.733,32.733,0,0,1-1.519-10.593"/><line class="cls-1" x1="11.75" y1="4.5" x2="9.039" y2="11.174"/><line class="cls-1" x1="11.75" y1="4.5" x2="14.461" y2="11.174"/></svg>