<svg xmlns="http://www.w3.org/2000/svg" viewBox="0 0 24 24"><defs><style>.a{fill:none;stroke:currentColor;stroke-linecap:round;stroke-linejoin:round;stroke-width:1.5px;}</style></defs><title>clamp-expand-1</title><line class="a" x1="0.75" y1="23.25" x2="23.25" y2="23.25"/><path class="a" d="M23.25,5.25H.75v-3A1.5,1.5,0,0,1,2.25.75h19.5a1.5,1.5,0,0,1,1.5,1.5Z"/><path class="a" d="M12,20.553l4.046,2.7h4.2A1.5,1.5,0,0,0,19.582,22L14.7,18.75"/><path class="a" d="M12,16.947l-4.046-2.7L19.582,6.5A1.5,1.5,0,0,0,20.25,5.25h-4.2L4.418,13a1.5,1.5,0,0,0,0,2.5L9.3,18.75"/><path class="a" d="M12,7.947,7.954,5.25H3.75A1.5,1.5,0,0,0,4.418,6.5L9.3,9.75"/><path class="a" d="M12,11.553l4.046,2.7L4.418,22A1.5,1.5,0,0,0,3.75,23.25h4.2L19.582,15.5a1.5,1.5,0,0,0,0-2.5L14.7,9.75"/></svg>