<svg id="Regular" xmlns="http://www.w3.org/2000/svg" viewBox="0 0 24 24"><defs><style>.cls-1{fill:none;stroke:currentColor;stroke-linecap:round;stroke-linejoin:round;stroke-width:1.5px;}</style></defs><title>clean-car-leaf-1</title><circle class="cls-1" cx="6.75" cy="13.501" r="1.5"/><line class="cls-1" x1="8.25" y1="13.501" x2="10.499" y2="13.501"/><path class="cls-1" d="M23.155,9.75A3,3,0,0,0,20.25,7.5L18.415,3.83A1.5,1.5,0,0,0,17.073,3h-7.9a1.5,1.5,0,0,0-1.342.829L6,7.5H3.75a3,3,0,0,0-3,3V12a1.5,1.5,0,0,0,1.5,1.5h3"/><line class="cls-1" x1="6" y1="7.501" x2="20.25" y2="7.501"/><path class="cls-1" d="M14.579,18.5S15.8,21,17.849,20.812c4.158-.38,3.88-5.907,5.4-7.859a9.106,9.106,0,0,0-8.265.075C12.83,14.245,12.677,16.3,14.579,18.5Z"/><path class="cls-1" d="M17.52,15.969S14.822,16.3,12.9,21"/></svg>