<svg xmlns="http://www.w3.org/2000/svg" viewBox="0 0 24 24"><defs><style>.a{fill:none;stroke:currentColor;stroke-linecap:round;stroke-linejoin:round;stroke-width:1.5px;}</style></defs><title>cleaning-broom</title><line class="a" x1="5.25" y1="0.917" x2="21" y2="16.667"/><path class="a" d="M18.879,18.788l-3.022-3.022c-2.051-2.05-2.763-4.662-1.591-5.834s3.783-.459,5.833,1.591l3.022,3.022"/><path class="a" d="M22.5,22.292a.375.375,0,1,1-.375.375.375.375,0,0,1,.375-.375"/><path class="a" d="M1.5,22.292a.375.375,0,1,1-.375.375.375.375,0,0,1,.375-.375"/><path class="a" d="M12.75,22.292a.375.375,0,1,1-.375.375.375.375,0,0,1,.375-.375"/><path class="a" d="M3,15.542a.375.375,0,1,1-.375.375A.375.375,0,0,1,3,15.542"/><path class="a" d="M7.5,19.292a.375.375,0,1,1-.375.375.375.375,0,0,1,.375-.375"/><path class="a" d="M10.5,14.792a.375.375,0,1,1-.375.375.375.375,0,0,1,.375-.375"/></svg>