<svg id="Regular" xmlns="http://www.w3.org/2000/svg" viewBox="0 0 24 24"><defs><style>.cls-1{fill:none;stroke:currentColor;stroke-linecap:round;stroke-linejoin:round;stroke-width:1.5px;}</style></defs><title>clean-car-charging-cable</title><path class="cls-1" d="M5.359,16.9s3,1.383,4.753-.333c3.549-3.48-.867-8.368-.933-11.314a10.839,10.839,0,0,0-7.567,6.29C.54,14.284,1.945,16.293,5.359,16.9Z"/><path class="cls-1" d="M22.741,6.75A3.751,3.751,0,0,1,18.6,10.481a3.9,3.9,0,0,1-3.363-3.945V5.25a.75.75,0,0,1,.75-.75h6a.75.75,0,0,1,.75.75Z"/><line class="cls-1" x1="16.741" y1="4.5" x2="16.741" y2="1.5"/><line class="cls-1" x1="21.241" y1="4.5" x2="21.241" y2="1.5"/><path class="cls-1" d="M18.991,10.5v5.25a6.75,6.75,0,0,1-13.5,0A9.1,9.1,0,0,1,6.241,12"/></svg>