<svg id="Regular" xmlns="http://www.w3.org/2000/svg" viewBox="0 0 24 24"><defs><style>.cls-1{fill:none;stroke:currentColor;stroke-linecap:round;stroke-linejoin:round;stroke-width:1.5px;}</style></defs><title>clean-car-leaf</title><path class="cls-1" d="M14.579,20.771s1.219,2.494,3.27,2.307c4.158-.38,3.88-5.907,5.4-7.859a9.105,9.105,0,0,0-8.265.075C12.83,16.511,12.677,18.565,14.579,20.771Z"/><path class="cls-1" d="M17.52,18.236s-2.7.334-4.623,5.03"/><path class="cls-1" d="M20.25,11.267V9.638a1.5,1.5,0,0,0-.439-1.061L18,6.767H3L1.189,8.577A1.5,1.5,0,0,0,.75,9.638v3.129a1.5,1.5,0,0,0,1.5,1.5h9"/><path class="cls-1" d="M18,6.767H3L4.158,1.792A1.5,1.5,0,0,1,5.581.767h9.838a1.5,1.5,0,0,1,1.423,1.025Z"/><line class="cls-1" x1="3.75" y1="9.767" x2="5.25" y2="9.767"/><line class="cls-1" x1="15.75" y1="9.767" x2="17.25" y2="9.767"/><path class="cls-1" d="M5.25,15.767a1.5,1.5,0,0,1-3,0v-1.5h3Z"/></svg>