<svg xmlns="http://www.w3.org/2000/svg" viewBox="0 0 24 24"><defs><style>.a{fill:none;stroke:currentColor;stroke-linecap:round;stroke-linejoin:round;stroke-width:1.5px;}</style></defs><title>cleaning-woman-1</title><path class="a" d="M21,18.75l-4.243,4.243-2.493-3.2a2.251,2.251,0,0,1,.186-2.973l.373-.373a2.251,2.251,0,0,1,2.972-.185Z"/><line class="a" x1="14.636" y1="16.629" x2="7.629" y2="9.622"/><circle class="a" cx="6.75" cy="3.75" r="3"/><path class="a" d="M4.5,8.652A3,3,0,0,0,3,11.25v4.5a1.5,1.5,0,0,0,1.5,1.5V21A2.25,2.25,0,0,0,9,21V17.25a1.5,1.5,0,0,0,1.5-1.5"/></svg>