<svg id="Regular" xmlns="http://www.w3.org/2000/svg" viewBox="0 0 24 24"><defs><style>.cls-1{fill:none;stroke:currentColor;stroke-linecap:round;stroke-linejoin:round;stroke-width:1.5px;}</style></defs><title>clean-car-cable-charge-1</title><circle class="cls-1" cx="6.75" cy="21.25" r="1.5"/><circle class="cls-1" cx="18.75" cy="21.25" r="1.5"/><line class="cls-1" x1="8.25" y1="21.25" x2="17.25" y2="21.25"/><path class="cls-1" d="M9.75,10.75H9.177a1.5,1.5,0,0,0-1.342.829L6,15.25H3.75a3,3,0,0,0-3,3v1.5a1.5,1.5,0,0,0,1.5,1.5h3"/><path class="cls-1" d="M20.25,21.25h1.5a1.5,1.5,0,0,0,1.5-1.5v-1.5a3,3,0,0,0-3-3l-1.835-3.671a1.5,1.5,0,0,0-1.342-.829H15.75"/><line class="cls-1" x1="6" y1="15.25" x2="20.25" y2="15.25"/><path class="cls-1" d="M15.75,4a3,3,0,0,1-6,0Z"/><line class="cls-1" x1="11.25" y1="4" x2="11.25" y2="1"/><line class="cls-1" x1="14.25" y1="4" x2="14.25" y2="1"/><line class="cls-1" x1="12.75" y1="12.25" x2="12.75" y2="7"/></svg>