<svg xmlns="http://www.w3.org/2000/svg" viewBox="0 0 24 24"><defs><style>.a{fill:none;stroke:currentColor;stroke-linecap:round;stroke-linejoin:round;stroke-width:1.5px;}</style></defs><title>cleaning-cat</title><path class="a" d="M12,3.75l3.75-3v6c0,1.657-1.679,3-3.75,3s-3.75-1.343-3.75-3v-6Z"/><path class="a" d="M18.75,23.25a3,3,0,0,0,0-6H5.25a3,3,0,0,0,0,6Z"/><circle class="a" cx="12" cy="20.25" r="1.5"/><path class="a" d="M9.532,9.008,7.477,13.8A2.473,2.473,0,0,0,9.75,17.25h4.5A2.473,2.473,0,0,0,16.523,13.8l-2.055-4.8"/><path class="a" d="M23.25,9a2.25,2.25,0,0,0-4.5,0v3.75"/><line class="a" x1="0.75" y1="3.75" x2="3.75" y2="3.75"/><line class="a" x1="0.75" y1="8.25" x2="5.25" y2="8.25"/><line class="a" x1="0.75" y1="12.75" x2="3.75" y2="12.75"/></svg>