<svg xmlns="http://www.w3.org/2000/svg" viewBox="0 0 24 24"><defs><style>.a{fill:none;stroke:currentColor;stroke-linecap:round;stroke-linejoin:round;stroke-width:1.5px;}</style></defs><title>cleaning-woman</title><circle class="a" cx="7.5" cy="3.563" r="2.625"/><path class="a" d="M5.25,20.813a2.25,2.25,0,0,0,4.5,0v-3.75h3l-1.5-4.5v-1.5a3,3,0,0,0-3-3H6.75a3,3,0,0,0-3,3v1.5l-1.5,4.5h3Z"/><path class="a" d="M21.75,23.063h-6l.5-4.029a2.249,2.249,0,0,1,2.232-1.971h.528a2.249,2.249,0,0,1,2.232,1.971Z"/><line class="a" x1="18.75" y1="17.063" x2="18.75" y2="5.063"/></svg>