<svg id="Regular" xmlns="http://www.w3.org/2000/svg" viewBox="0 0 24 24"><defs><style>.cls-1{fill:none;stroke:currentColor;stroke-linecap:round;stroke-linejoin:round;stroke-width:1.5px;}</style></defs><title>clean-car-gas</title><path class="cls-1" d="M14.505,20.771s1.22,2.494,3.271,2.307c4.158-.38,3.879-5.907,5.4-7.859a9.105,9.105,0,0,0-8.265.075C12.756,16.511,12.6,18.565,14.505,20.771Z"/><path class="cls-1" d="M17.447,18.236s-2.7.334-4.624,5.03"/><path class="cls-1" d="M6.073,9.767h12v-7.5a1.5,1.5,0,0,0-1.5-1.5h-9a1.5,1.5,0,0,0-1.5,1.5Z"/><rect class="cls-1" x="9.073" y="3.767" width="6" height="3"/><path class="cls-1" d="M18.073,11.267v-1.5h-12v9a1.5,1.5,0,0,0,1.5,1.5h3"/><path class="cls-1" d="M6.073,15.017c-1.5,0-3-.75-3-3.75V4.488A1.5,1.5,0,0,0,2.51,3.316L.823,2.267"/></svg>