<svg id="Regular" xmlns="http://www.w3.org/2000/svg" viewBox="0 0 24 24"><defs><style>.cls-1{fill:none;stroke:currentColor;stroke-linecap:round;stroke-linejoin:round;stroke-width:1.5px;}</style></defs><title>clean-car-cable-charge</title><path class="cls-1" d="M22.5,18.75V15.621a1.5,1.5,0,0,0-.439-1.06L20.25,12.75H3.75L1.939,14.561a1.5,1.5,0,0,0-.439,1.06V18.75A1.5,1.5,0,0,0,3,20.25H21A1.5,1.5,0,0,0,22.5,18.75Z"/><path class="cls-1" d="M17.669,6.75a1.5,1.5,0,0,1,1.423,1.026L20.25,12.75H3.75L4.908,7.776A1.5,1.5,0,0,1,6.331,6.75"/><line class="cls-1" x1="4.5" y1="15.75" x2="6" y2="15.75"/><line class="cls-1" x1="18" y1="15.75" x2="19.5" y2="15.75"/><path class="cls-1" d="M6,21.75a1.5,1.5,0,0,1-3,0v-1.5H6Z"/><path class="cls-1" d="M21,21.75a1.5,1.5,0,0,1-3,0v-1.5h3Z"/><path class="cls-1" d="M15,3.75a3,3,0,0,1-6,0Z"/><line class="cls-1" x1="10.5" y1="3.75" x2="10.5" y2="0.75"/><line class="cls-1" x1="13.5" y1="3.75" x2="13.5" y2="0.75"/><line class="cls-1" x1="12" y1="9.75" x2="12" y2="6.75"/></svg>