<svg id="Regular" xmlns="http://www.w3.org/2000/svg" viewBox="0 0 24 24"><defs><style>.cls-1{fill:none;stroke:currentColor;stroke-linecap:round;stroke-linejoin:round;stroke-width:1.5px;}</style></defs><title>clean-car-cable</title><path class="cls-1" d="M18.75,15.75V14.121a1.5,1.5,0,0,0-.439-1.06L17.25,11.25H6.75L5.689,13.061a1.5,1.5,0,0,0-.439,1.06V15.75a1.5,1.5,0,0,0,1.5,1.5h10.5A1.5,1.5,0,0,0,18.75,15.75Z"/><path class="cls-1" d="M14.669,6.75a1.528,1.528,0,0,1,1.423.769L17.25,11.25H6.75L7.908,7.519A1.528,1.528,0,0,1,9.331,6.75Z"/><line class="cls-1" x1="8.25" y1="14.25" x2="9.75" y2="14.25"/><line class="cls-1" x1="14.25" y1="14.25" x2="15.75" y2="14.25"/><path class="cls-1" d="M12,.75a11.313,11.313,0,1,1-9.926,6"/><line class="cls-1" x1="6.75" y1="17.25" x2="6.75" y2="18.75"/><line class="cls-1" x1="17.25" y1="17.25" x2="17.25" y2="18.75"/><path class="cls-1" d="M5.341,6.841A2.25,2.25,0,0,1,2.159,3.659L3.75,2.068,6.932,5.25Z"/><line class="cls-1" x1="4.28" y1="2.598" x2="5.341" y2="1.538"/><line class="cls-1" x1="6.402" y1="4.72" x2="7.462" y2="3.659"/></svg>