<svg xmlns="http://www.w3.org/2000/svg" viewBox="0 0 24 24"><defs><style>.a{fill:none;stroke:currentColor;stroke-linecap:round;stroke-linejoin:round;stroke-width:1.5px;}</style></defs><title>cleaning-vacuum</title><polygon class="a" points="15.75 20.25 21.75 20.25 23.25 23.25 14.25 23.25 15.75 20.25"/><path class="a" d="M9.75,15.75a4.5,4.5,0,0,0-9,0v6a1.5,1.5,0,0,0,1.5,1.5h6a1.5,1.5,0,0,0,1.5-1.5Z"/><path class="a" d="M5.25,11.25V7.5a3.75,3.75,0,0,1,7.5,0v6.75a1.5,1.5,0,0,0,3,0v-12a1.5,1.5,0,0,1,3,0v18"/><line class="a" x1="0.75" y1="20.25" x2="9.75" y2="20.25"/><path class="a" d="M5.25,15.375a.375.375,0,1,1-.375.375.375.375,0,0,1,.375-.375"/></svg>