<svg xmlns="http://www.w3.org/2000/svg" viewBox="0 0 24 24"><defs><style>.a{fill:none;stroke:currentColor;stroke-linecap:round;stroke-linejoin:round;stroke-width:1.5px;}</style></defs><title>cleaning-sign</title><path class="a" d="M5.153.75a1.5,1.5,0,0,0-1.5,1.4l-1.3,19.5a1.5,1.5,0,0,0,1.5,1.6H5.579a1.5,1.5,0,0,0,1.455-1.136l.182-.727A1.5,1.5,0,0,1,8.671,20.25h6.658a1.5,1.5,0,0,1,1.455,1.137l.182.727a1.5,1.5,0,0,0,1.455,1.136h1.726a1.5,1.5,0,0,0,1.5-1.6l-1.3-19.5a1.5,1.5,0,0,0-1.5-1.4Z"/><rect class="a" x="8.25" y="3.75" width="7.5" height="3" rx="0.5" ry="0.5"/><circle class="a" cx="12" cy="13.5" r="3.75"/><line class="a" x1="9.349" y1="16.152" x2="14.649" y2="10.851"/></svg>