<svg xmlns="http://www.w3.org/2000/svg" viewBox="0 0 24 24"><defs><style>.a{fill:none;stroke:currentColor;stroke-linecap:round;stroke-linejoin:round;stroke-width:1.5px;}</style></defs><title>cleaning-spray</title><line class="a" x1="20.625" y1="2.25" x2="22.5" y2="1.125"/><line class="a" x1="20.625" y1="7.5" x2="22.5" y2="8.625"/><line class="a" x1="20.625" y1="4.875" x2="22.875" y2="4.875"/><path class="a" d="M14.625,1.875H7.875a4.5,4.5,0,0,0-4.5,4.5h3.75v4.5h3v-4.5h4.5Z"/><path class="a" d="M10.125,6.375s2.25,3.75,5.25,3.75"/><path class="a" d="M11.625,13.875v-1.5a1.5,1.5,0,0,0-1.5-1.5h-3a1.5,1.5,0,0,0-1.5,1.5v1.5c-2.25,0-4.5,1.5-4.5,6a3,3,0,0,0,3,3h9a3,3,0,0,0,3-3C16.125,15.375,13.875,13.875,11.625,13.875Z"/><line class="a" x1="17.625" y1="3.375" x2="17.625" y2="5.625"/></svg>