<svg id="Regular" xmlns="http://www.w3.org/2000/svg" viewBox="0 0 24 24"><defs><style>.cls-1{fill:none;stroke:currentColor;stroke-linecap:round;stroke-linejoin:round;stroke-width:1.5px;}</style></defs><title>clean-bicycle</title><polyline class="cls-1" points="18 6.75 14.25 6.75 18.75 18.75"/><circle class="cls-1" cx="18.75" cy="18.75" r="4.5"/><polyline class="cls-1" points="16.195 11.936 10.5 12.75 5.25 18.75 11.25 18.75"/><path class="cls-1" d="M9.75,18.75a4.5,4.5,0,1,1-4.5-4.5A4.477,4.477,0,0,1,9.75,18.75Z"/><line class="cls-1" x1="8.25" y1="9.75" x2="11.25" y2="9.75"/><line class="cls-1" x1="9.75" y1="9.75" x2="10.5" y2="12.75"/><line class="cls-1" x1="10.5" y1="12.75" x2="12.75" y2="15"/><path class="cls-1" d="M6.75.75,1.39,6.11a.375.375,0,0,0,.265.64H3.75v4.5L9.11,5.89a.375.375,0,0,0-.265-.64H6.75Z"/></svg>