<svg id="Regular" xmlns="http://www.w3.org/2000/svg" viewBox="0 0 24 24"><defs><style>.cls-1{fill:none;stroke:currentColor;stroke-linecap:round;stroke-linejoin:round;stroke-width:1.5px;}</style></defs><title>climbing-head-light</title><path class="cls-1" d="M15.5,5.25a3,3,0,0,1-6,0"/><path class="cls-1" d="M8.75,5.25a3.75,3.75,0,0,1,7.5,0Z"/><line class="cls-1" x1="19.137" y1="1.854" x2="23" y2="0.75"/><line class="cls-1" x1="19.335" y1="7.203" x2="23" y2="8.25"/><path class="cls-1" d="M15.206,14.971a1.5,1.5,0,0,0,.588-2.942l-2.856-.571a1.5,1.5,0,0,1-.769-.41L10.561,9.439A1.5,1.5,0,0,0,8.2,9.756l-3,5.25a1.506,1.506,0,0,0-.2.744v2.292a1.5,1.5,0,0,1-.158.67L3.658,21.079a1.5,1.5,0,0,0,2.684,1.342l1.183-2.367A4.516,4.516,0,0,0,8,18.042v-.211l1.346.449a1.484,1.484,0,0,1,.867.753l1.7,3.388a1.5,1.5,0,1,0,2.684-1.342l-1.7-3.388a4.469,4.469,0,0,0-2.6-2.256L8.71,14.906"/><rect class="cls-1" x="1.419" y="7.052" width="3" height="4.5" rx="0.5" ry="0.5" transform="translate(5 -0.222) rotate(29.745)"/></svg>