<svg id="Regular" xmlns="http://www.w3.org/2000/svg" viewBox="0 0 24 24"><defs><style>.cls-1{fill:none;stroke:currentColor;stroke-linecap:round;stroke-linejoin:round;stroke-width:1.5px;}</style></defs><title>climbing-sports</title><circle class="cls-1" cx="9.75" cy="3" r="2.25"/><path class="cls-1" d="M19.5,3V2.25a1.5,1.5,0,0,0-3,0V3a5.256,5.256,0,0,1-5.25,5.25H6.2a1.51,1.51,0,0,1-1.287-.728L3.536,5.228A1.5,1.5,0,0,0,.964,6.772l1.376,2.3A4.527,4.527,0,0,0,6.2,11.25H6.75V15.4L3.908,21.079a1.5,1.5,0,0,0,2.684,1.342L9.177,17.25H12.75a1.5,1.5,0,0,1,1.5,1.5v1.5a1.5,1.5,0,0,0,3,0v-1.5a4.505,4.505,0,0,0-4.5-4.5V11.106A8.259,8.259,0,0,0,19.5,3Z"/><path class="cls-1" d="M23.25.75v7.5a6,6,0,0,1-6,6H6.75"/><line class="cls-1" x1="11.25" y1="20.25" x2="11.25" y2="23.25"/></svg>