<svg id="Regular" xmlns="http://www.w3.org/2000/svg" viewBox="0 0 24 24"><defs><style>.cls-1{fill:none;stroke:currentColor;stroke-linecap:round;stroke-linejoin:round;stroke-width:1.5px;}</style></defs><title>climbing-mountain</title><circle class="cls-1" cx="11.843" cy="3" r="2.25"/><path class="cls-1" d="M18.593,9H15.551a1.5,1.5,0,0,1-.67-.158L11.014,6.908a1.5,1.5,0,0,0-2.093.867l-2.25,6.75a1.5,1.5,0,0,0,.081,1.146L7.79,17.747a1.51,1.51,0,0,1,.131.968l-.548,2.741a1.5,1.5,0,1,0,2.941.588l.548-2.739a4.512,4.512,0,0,0-.2-2.423l.911.131a1.5,1.5,0,0,1,1.13.814l.8,1.594a1.5,1.5,0,1,0,2.683-1.342l-.8-1.595A4.509,4.509,0,0,0,12,14.042l-1.915-.273,1.134-3.4,2.321,1.16A4.515,4.515,0,0,0,15.551,12h3.042a1.5,1.5,0,0,0,0-3Z"/><rect class="cls-1" x="-0.749" y="7.352" width="8.158" height="3" rx="0.5" ry="0.5" transform="translate(-6.12 9.212) rotate(-71.565)"/><polyline class="cls-1" points="20.843 6 22.343 4.5 23.093 0.75"/><line class="cls-1" x1="18.593" y1="15" x2="18.593" y2="16.5"/><line class="cls-1" x1="23.093" y1="23.25" x2="3.593" y2="23.25"/><line class="cls-1" x1="13.343" y1="23.25" x2="14.845" y2="20.25"/></svg>