<svg id="Regular" xmlns="http://www.w3.org/2000/svg" viewBox="0 0 24 24"><defs><style>.cls-1{fill:none;stroke:currentColor;stroke-linecap:round;stroke-linejoin:round;stroke-width:1.5px;}</style></defs><title>clothes-design-tape-measure</title><path class="cls-1" d="M1.75.75h21.5a0,0,0,0,1,0,0v7.5a0,0,0,0,1,0,0H1.75a1,1,0,0,1-1-1V1.75a1,1,0,0,1,1-1Z"/><rect class="cls-1" x="9.75" y="15.75" width="13.5" height="7.5"/><line class="cls-1" x1="9.75" y1="15.75" x2="15" y2="8.25"/><line class="cls-1" x1="18" y1="15.75" x2="23.25" y2="8.25"/><line class="cls-1" x1="4.5" y1="0.75" x2="4.5" y2="8.25"/><line class="cls-1" x1="9.75" y1="0.75" x2="9.75" y2="3.75"/><line class="cls-1" x1="14.25" y1="0.75" x2="14.25" y2="3.75"/><line class="cls-1" x1="18.75" y1="0.75" x2="18.75" y2="3.75"/><line class="cls-1" x1="19.5" y1="15.75" x2="19.5" y2="18.75"/><line class="cls-1" x1="15" y1="15.75" x2="15" y2="18.75"/></svg>