<svg id="Regular" xmlns="http://www.w3.org/2000/svg" viewBox="0 0 24 24"><defs><style>.cls-1{fill:none;stroke:currentColor;stroke-linecap:round;stroke-linejoin:round;stroke-width:1.5px;}</style></defs><title>clothes-design-thread-boots</title><path class="cls-1" d="M9.5,23.25H3A2.255,2.255,0,0,1,.772,20.682,7.555,7.555,0,0,1,7.385,14.3,5.879,5.879,0,0,0,12.75,8.536V5.25h9v6"/><path class="cls-1" d="M6.4,14.479A3,3,0,0,1,8.25,17.25v3"/><line class="cls-1" x1="0.847" y1="20.25" x2="11" y2="20.25"/><rect class="cls-1" x="11.25" y="0.75" width="12" height="4.5" rx="0.5" ry="0.5"/><rect class="cls-1" x="14.25" y="14.25" width="6" height="9"/><line class="cls-1" x1="12.75" y1="14.25" x2="21.75" y2="14.25"/><line class="cls-1" x1="12.75" y1="23.25" x2="21.75" y2="23.25"/><line class="cls-1" x1="14.25" y1="17.25" x2="20.25" y2="17.25"/><path class="cls-1" d="M14.25,20.25h6a3,3,0,0,0,3-3"/></svg>