<svg id="Regular" xmlns="http://www.w3.org/2000/svg" viewBox="0 0 24 24"><defs><style>.cls-1{fill:none;stroke:currentColor;stroke-linecap:round;stroke-linejoin:round;stroke-width:1.5px;}</style></defs><title>clothes-design-animal-skin</title><path class="cls-1" d="M19.5,10.5c.578-1.735,2.494-6.59,3.341-8.723a.75.75,0,0,0-.7-1.027H19.987A.751.751,0,0,0,19.3,1.2l-2.257,5.08A.677.677,0,0,1,15.75,6a3.75,3.75,0,0,0-7.5,0,.677.677,0,0,1-1.295.275L4.7,1.2A.751.751,0,0,0,4.013.75H1.856a.75.75,0,0,0-.7,1.027C2.006,3.91,3.922,8.765,4.5,10.5a10.406,10.406,0,0,1,0,6.75A19.661,19.661,0,0,1,2.248,22.1a.75.75,0,0,0,.634,1.15H6.325a.751.751,0,0,0,.644-.364l1.6-2.673A.75.75,0,0,1,9.665,20l1.885,1.413a.75.75,0,0,0,.9,0L14.335,20a.75.75,0,0,1,1.093.214l1.6,2.673a.748.748,0,0,0,.643.364h3.443a.75.75,0,0,0,.634-1.15A19.661,19.661,0,0,1,19.5,17.25,10.406,10.406,0,0,1,19.5,10.5Z"/></svg>