<svg id="Regular" xmlns="http://www.w3.org/2000/svg" viewBox="0 0 24 24"><defs><style>.cls-1{fill:none;stroke:currentColor;stroke-linecap:round;stroke-linejoin:round;stroke-width:1.5px;}</style></defs><title>clothes-design-sewing-machine</title><path class="cls-1" d="M3.75.75a1.5,1.5,0,0,0-1.5,1.5v6a1.5,1.5,0,0,0,1.5,1.5H9l2.25-1.5h1.5a3,3,0,0,1,3,3v4.5a3,3,0,0,1-3,3H3a2.25,2.25,0,0,0,0,4.5H20.25a3,3,0,0,0,3-3V3.75a3,3,0,0,0-3-3Z"/><line class="cls-1" x1="6.75" y1="9.75" x2="6.75" y2="15.75"/><line class="cls-1" x1="6.75" y1="14.25" x2="9" y2="14.25"/><circle class="cls-1" cx="18.75" cy="5.25" r="1.5"/><line class="cls-1" x1="6.75" y1="0.75" x2="6.75" y2="6.75"/></svg>