<svg id="Regular" xmlns="http://www.w3.org/2000/svg" viewBox="0 0 24 24"><defs><style>.cls-1{fill:none;stroke:currentColor;stroke-linecap:round;stroke-linejoin:round;stroke-width:1.5px;}</style></defs><title>cocktail-coconut</title><path class="cls-1" d="M12.826,6h-7.1a1.494,1.494,0,0,0-1.017.4c-5.595,5.172-5.943,13.05,3.65,16.75a1.507,1.507,0,0,0,.539.1h4.715a1.486,1.486,0,0,0,.539-.1c7.335-2.829,8.858-8.1,6.668-12.738"/><path class="cls-1" d="M.752,3.75l2.7-2.671a1.5,1.5,0,0,1,2,.11L9.752,6"/><path class="cls-1" d="M1.606,10.588a5.969,5.969,0,0,0,9.646.843,5.968,5.968,0,0,0,9.645-.843"/><circle class="cls-1" cx="18.002" cy="6.083" r="1.5"/><path class="cls-1" d="M23.252,5.417a2.305,2.305,0,0,0-2.926-2.249c0-.028.009-.055.009-.085a2.334,2.334,0,0,0-4.667,0c0,.03.008.057.009.085a2.324,2.324,0,0,0-1.6,4.343A2.323,2.323,0,0,0,18,9.862a2.321,2.321,0,0,0,3.926-2.351A2.325,2.325,0,0,0,23.252,5.417Z"/></svg>