<svg id="Regular" xmlns="http://www.w3.org/2000/svg" viewBox="0 0 24 24"><defs><style>.cls-1{fill:none;stroke:currentColor;stroke-linecap:round;stroke-linejoin:round;stroke-width:1.5px;}</style></defs><title>coffee-machine-1</title><path class="cls-1" d="M2.25,23.25a1.5,1.5,0,0,1-1.5-1.5V2.25A1.5,1.5,0,0,1,2.25.75h19.5a1.5,1.5,0,0,1,1.5,1.5v3a1.5,1.5,0,0,1-1.5,1.5H8.25v16.5Z"/><path class="cls-1" d="M20.25,15v6.75a1.5,1.5,0,0,1-1.5,1.5h-4.5a1.5,1.5,0,0,1-1.5-1.5V19.062a4.506,4.506,0,0,0-.475-2.012L11.25,15H13.5"/><path class="cls-1" d="M19.5,15h2.25a1.5,1.5,0,0,1,1.5,1.5V18"/><line class="cls-1" x1="8.25" y1="23.25" x2="23.25" y2="23.25"/><path class="cls-1" d="M9.75.75v1.5a1.5,1.5,0,0,0,1.5,1.5h12"/><line class="cls-1" x1="0.75" y1="5.25" x2="3.75" y2="5.25"/><line class="cls-1" x1="0.75" y1="8.25" x2="3.75" y2="8.25"/><line class="cls-1" x1="0.75" y1="11.25" x2="3.75" y2="11.25"/><path class="cls-1" d="M18,12a1.5,1.5,0,0,1-3,0c0-.828,1.5-3,1.5-3S18,11.172,18,12Z"/></svg>