<svg id="Regular" xmlns="http://www.w3.org/2000/svg" viewBox="0 0 24 24"><defs><style>.cls-1{fill:none;stroke:currentColor;stroke-linecap:round;stroke-linejoin:round;stroke-width:1.5px;}</style></defs><title>coffee-cold-press</title><path class="cls-1" d="M6.75,9h13.5a0,0,0,0,1,0,0V22.25a1,1,0,0,1-1,1H7.75a1,1,0,0,1-1-1V9A0,0,0,0,1,6.75,9Z"/><path class="cls-1" d="M6.75,9a6.75,6.75,0,0,1,13.5,0Z"/><path class="cls-1" d="M6.75,17.25a6,6,0,0,1-6-6V9h6"/><path class="cls-1" d="M20.25,9h3a5.958,5.958,0,0,1-3,5.25"/><line class="cls-1" x1="13.5" y1="2.25" x2="13.5" y2="0.75"/><line class="cls-1" x1="6.75" y1="14.25" x2="20.25" y2="14.25"/><line class="cls-1" x1="13.5" y1="9" x2="13.5" y2="18.75"/><line class="cls-1" x1="11.25" y1="18.75" x2="15.75" y2="18.75"/></svg>