<svg id="Regular" xmlns="http://www.w3.org/2000/svg" viewBox="0 0 24 24"><defs><style>.cls-1{fill:none;stroke:currentColor;stroke-linecap:round;stroke-linejoin:round;stroke-width:1.5px;}</style></defs><title>coffee-cup-hot</title><path class="cls-1" d="M8.25.75c-1.5,1.5,1.5,2.25,0,3.75"/><path class="cls-1" d="M12,.75C10.5,2.25,13.5,3,12,4.5"/><path class="cls-1" d="M15.75.75c-1.5,1.5,1.5,2.25,0,3.75"/><path class="cls-1" d="M18.338,16.51c2.529.685,4.162,1.769,4.162,2.99,0,2.071-4.7,3.75-10.5,3.75S1.5,21.571,1.5,19.5c0-1.221,1.633-2.3,4.161-2.99"/><path class="cls-1" d="M5.25,10.5C4.5,15.75,6.437,18,6.437,18c.313.75,2.491,2.25,5.563,2.25s5.25-1.5,5.563-2.25c0,0,1.937-2.25,1.187-7.5"/><ellipse class="cls-1" cx="12" cy="10.5" rx="6.75" ry="3"/><path class="cls-1" d="M6.99,12.51,7.5,12A6.57,6.57,0,0,1,12,10.5,6.57,6.57,0,0,1,16.5,12l.51.51"/></svg>