<svg id="Regular" xmlns="http://www.w3.org/2000/svg" viewBox="0 0 24 24"><defs><style>.cls-1{fill:none;stroke:currentColor;stroke-linecap:round;stroke-linejoin:round;stroke-width:1.5px;}</style></defs><title>coffee-cold-press-1</title><path class="cls-1" d="M2.25,8.25a.75.75,0,0,0-.53,1.28L4,11.552a1.5,1.5,0,0,1,.5,1.122V21.75A1.5,1.5,0,0,0,6,23.25h9a1.5,1.5,0,0,0,1.5-1.5V8.25Z"/><line class="cls-1" x1="8.25" y1="15.75" x2="12.75" y2="15.75"/><line class="cls-1" x1="10.5" y1="8.25" x2="10.5" y2="15.75"/><path class="cls-1" d="M16.5,8.25c-.376-2.861-2.924-4.5-6-4.5s-5.624,1.639-6,4.5Z"/><circle class="cls-1" cx="10.5" cy="2.25" r="1.5"/><path class="cls-1" d="M16.5,9.75H18a4.513,4.513,0,0,1,4.5,4.5h0a4.513,4.513,0,0,1-4.5,4.5H16.5"/><line class="cls-1" x1="4.5" y1="20.25" x2="16.5" y2="20.25"/></svg>