<svg id="Regular" xmlns="http://www.w3.org/2000/svg" viewBox="0 0 24 24"><defs><style>.cls-1{fill:none;stroke:currentColor;stroke-linecap:round;stroke-linejoin:round;stroke-width:1.5px;}</style></defs><title>coffee-filter</title><path class="cls-1" d="M7.125,11.25,5.057,19.522a3,3,0,0,0,2.91,3.728h5.816a3,3,0,0,0,2.91-3.728L14.625,11.25"/><line class="cls-1" x1="4.875" y1="11.25" x2="16.875" y2="11.25"/><polyline class="cls-1" points="7.125 11.25 5.625 7.5 16.125 7.5 14.625 11.25"/><path class="cls-1" d="M15.375,14.25h2.25a1.5,1.5,0,0,1,1.5,1.5v2.2a1.5,1.5,0,0,1-.668,1.248l-1.673,1.116"/><path class="cls-1" d="M7.125.75c-1.5,1.5,1.5,2.25,0,3.75"/><path class="cls-1" d="M10.875.75c-1.5,1.5,1.5,2.25,0,3.75"/><path class="cls-1" d="M14.625.75c-1.5,1.5,1.5,2.25,0,3.75"/></svg>