<svg id="Regular" xmlns="http://www.w3.org/2000/svg" viewBox="0 0 24 24"><defs><style>.cls-1{fill:none;stroke:currentColor;stroke-linecap:round;stroke-linejoin:round;stroke-width:1.5px;}</style></defs><title>coffee-turkish</title><path class="cls-1" d="M20.25,15.75H21a2.25,2.25,0,0,1,0,4.5H19.991"/><path class="cls-1" d="M11.25,18.75a4.5,4.5,0,0,0,9,0v-4.5h-9Z"/><path class="cls-1" d="M9,5.25A3.285,3.285,0,0,0,8.25,7.5c0,1.5,1.5,1.5,1.5,3.75s-3,3-4.5,3-4.5-.75-4.5-3S2.25,9,2.25,7.5A3.285,3.285,0,0,0,1.5,5.25Z"/><line class="cls-1" x1="3.75" y1="0.75" x2="3.75" y2="2.25"/><line class="cls-1" x1="6.75" y1="0.75" x2="6.75" y2="2.25"/><line class="cls-1" x1="8.796" y1="8.841" x2="20.25" y2="3.75"/></svg>