<svg id="Regular" xmlns="http://www.w3.org/2000/svg" viewBox="0 0 24 24"><defs><style>.cls-1{fill:none;stroke:currentColor;stroke-linecap:round;stroke-linejoin:round;stroke-width:1.5px;}</style></defs><title>coffee-jar</title><path class="cls-1" d="M6.889,5.593,5.081,3.122C4.524,2.129,5.082.75,6.04.75H17.96c.958,0,1.516,1.379.959,2.372L17.111,5.593"/><path class="cls-1" d="M20.25,21.75a1.369,1.369,0,0,1-1.179,1.5H4.929a1.369,1.369,0,0,1-1.179-1.5V11.25c0-3.314,2.111-6,4.714-6h7.072c2.6,0,4.714,2.686,4.714,6Z"/><ellipse class="cls-1" cx="11.779" cy="14.471" rx="5.25" ry="4.125" transform="translate(-6.783 12.567) rotate(-45)"/><path class="cls-1" d="M16.183,11.774l-2.389.368a2.4,2.4,0,0,0-2.011,2.226l-.009.206A2.4,2.4,0,0,1,9.763,16.8l-2.389.367"/></svg>