<svg xmlns="http://www.w3.org/2000/svg" viewBox="0 0 24 24"><defs><style>.a{fill:none;stroke:currentColor;stroke-linecap:round;stroke-linejoin:round;stroke-width:1.5px;}</style></defs><title>color-bucket-brush</title><line class="a" x1="0.75" y1="8.25" x2="11.25" y2="8.25"/><line class="a" x1="8.25" y1="0.75" x2="8.25" y2="3.75"/><line class="a" x1="3.75" y1="0.75" x2="3.75" y2="3.75"/><path class="a" d="M10.5.75h-9a.75.75,0,0,0-.75.75V9a5.216,5.216,0,0,0,3,4.715V18a2.25,2.25,0,0,0,4.5,0V13.715A5.216,5.216,0,0,0,11.25,9V1.5A.75.75,0,0,0,10.5.75Z"/><path class="a" d="M13.5,8.484a18.521,18.521,0,0,1,3-.234c3.728,0,6.75,1.007,6.75,2.25s-3.022,2.25-6.75,2.25a18.509,18.509,0,0,1-3-.234"/><path class="a" d="M10.5,22.032a12.308,12.308,0,0,0,6,1.218c3.728,0,6.75-1.007,6.75-2.25V10.5"/></svg>