<svg xmlns="http://www.w3.org/2000/svg" viewBox="0 0 24 24"><defs><style>.a{fill:none;stroke:currentColor;stroke-linecap:round;stroke-linejoin:round;stroke-width:1.5px;}</style></defs><title>color-palette-sample</title><rect class="a" x="1.5" y="0.75" width="7.5" height="22.5" rx="1.5" ry="1.5"/><path class="a" d="M11.765.864l4.159,1.717a1.5,1.5,0,0,1,.814,1.959L9,21.75"/><path class="a" d="M19.081,5.79,22.11,9.118a1.5,1.5,0,0,1-.1,2.119L8.824,22.455"/><line class="a" x1="1.5" y1="5.25" x2="9" y2="5.25"/><line class="a" x1="1.5" y1="9.75" x2="9" y2="9.75"/><line class="a" x1="1.5" y1="14.25" x2="9" y2="14.25"/><path class="a" d="M5.25,19.5a.375.375,0,1,1-.375.375A.375.375,0,0,1,5.25,19.5"/></svg>