<svg xmlns="http://www.w3.org/2000/svg" viewBox="0 0 24 24"><defs><style>.a{fill:none;stroke:currentColor;stroke-linecap:round;stroke-linejoin:round;stroke-width:1.5px;}</style></defs><title>color-drop-pick</title><path class="a" d="M11.4,1.316,5.524,9.322A9.159,9.159,0,0,0,3.75,14.741h0A8.25,8.25,0,0,0,12,22.991h0a8.25,8.25,0,0,0,8.25-8.25h0a9.159,9.159,0,0,0-1.774-5.419L12.605,1.316A.75.75,0,0,0,11.4,1.316Z"/><line class="a" x1="18.363" y1="19.991" x2="12.75" y2="19.991"/><line class="a" x1="20.216" y1="15.491" x2="12.75" y2="15.491"/><line class="a" x1="19.447" y1="10.991" x2="12.75" y2="10.991"/><line class="a" x1="16.4" y1="6.491" x2="12.75" y2="6.491"/></svg>