<svg xmlns="http://www.w3.org/2000/svg" viewBox="0 0 24 24"><defs><style>.a{fill:none;stroke:currentColor;stroke-linecap:round;stroke-linejoin:round;stroke-width:1.5px;}</style></defs><title>color-picker-3</title><path class="a" d="M20.729,6.7A3.484,3.484,0,0,0,15.8,1.771L8.411,9.162a4.179,4.179,0,0,0-1.183,2.365l-.3,2.07L5.454,15.075a.7.7,0,0,0,0,.985l.986.986a.7.7,0,0,0,.985,0L8.9,15.568l2.07-.3a4.179,4.179,0,0,0,2.365-1.183Z"/><line class="a" x1="11.86" y1="1.771" x2="20.729" y2="10.64"/><line class="a" x1="9.889" y1="12.611" x2="14.324" y2="8.176"/><path class="a" d="M3.75,18.4,2.408,21.079a1.5,1.5,0,0,0,.281,1.732h0a1.5,1.5,0,0,0,2.122,0h0a1.5,1.5,0,0,0,.281-1.732Z"/></svg>