<svg xmlns="http://www.w3.org/2000/svg" viewBox="0 0 24 24"><defs><style>.a{fill:none;stroke:currentColor;stroke-linecap:round;stroke-linejoin:round;stroke-width:1.5px;}</style></defs><title>color-drop-off</title><path class="a" d="M10.645,1.316,4.774,9.322A9.159,9.159,0,0,0,3,14.741H3a8.25,8.25,0,0,0,8.25,8.25h0a8.25,8.25,0,0,0,8.25-8.25h0a9.159,9.159,0,0,0-1.774-5.419L11.855,1.316A.75.75,0,0,0,10.645,1.316Z"/><line class="a" x1="17.614" y1="19.991" x2="12" y2="19.991"/><line class="a" x1="18.697" y1="10.991" x2="14.25" y2="10.991"/><line class="a" x1="15.65" y1="6.491" x2="12" y2="6.491"/><line class="a" x1="22.5" y1="22.991" x2="1.5" y2="1.991"/><line class="a" x1="19.466" y1="15.491" x2="18" y2="15.491"/></svg>