<svg xmlns="http://www.w3.org/2000/svg" viewBox="0 0 24 24"><defs><style>.a{fill:none;stroke:currentColor;stroke-linecap:round;stroke-linejoin:round;stroke-width:1.5px;}</style></defs><title>color-tube</title><polygon class="a" points="10.138 18.465 4.027 12.354 11.665 3.698 18.794 10.827 10.138 18.465"/><polygon class="a" points="4.762 19.294 3.075 17.536 4.027 12.354 10.138 18.465 4.762 19.294"/><path class="a" d="M21.3,7.22,15.272,1.194a1.5,1.5,0,0,0-2.121,0L11.687,2.658a.75.75,0,0,0,0,1.061l7.086,7.087a.75.75,0,0,0,1.061,0L21.3,9.341A1.5,1.5,0,0,0,21.3,7.22Z"/><line class="a" x1="9.119" y1="11.336" x2="11.156" y2="13.373"/><path class="a" d="M2.262,21.745a1.469,1.469,0,0,0,1.5,1.5c2.25,0,5.25-1.5,8.25-1.5a9.507,9.507,0,0,1,4.5,1.5"/></svg>