<svg xmlns="http://www.w3.org/2000/svg" viewBox="0 0 24 24"><defs><style>.a{fill:none;stroke:currentColor;stroke-linecap:round;stroke-linejoin:round;stroke-width:1.5px;}</style></defs><title>color-tubes</title><rect class="a" x="4.5" y="6" width="6" height="16.5" rx="1.5" ry="1.5"/><rect class="a" x="4.5" y="9" width="6" height="10.5"/><path class="a" d="M6,6H9a1.513,1.513,0,0,1,.568.111L8.25,1.5H6.75L5.432,6.111A1.513,1.513,0,0,1,6,6Z"/><rect class="a" x="13.5" y="6" width="6" height="16.5" rx="1.5" ry="1.5"/><rect class="a" x="13.5" y="9" width="6" height="10.5"/><path class="a" d="M15,6h3a1.513,1.513,0,0,1,.568.111L17.25,1.5h-1.5L14.432,6.111A1.513,1.513,0,0,1,15,6Z"/></svg>