<svg xmlns="http://www.w3.org/2000/svg" viewBox="0 0 24 24"><defs><style>.a{fill:none;stroke:currentColor;stroke-linecap:round;stroke-linejoin:round;stroke-width:1.5px;}</style></defs><title>color-spray</title><path class="a" d="M14.25,21.75a1.5,1.5,0,0,1-1.5,1.5H5.25a1.5,1.5,0,0,1-1.5-1.5V11.25h10.5Z"/><path class="a" d="M14.25,11.25H3.75L4.835,9.079A1.5,1.5,0,0,1,6.177,8.25h5.646a1.5,1.5,0,0,1,1.342.829Z"/><path class="a" d="M11.25,5.25H6.75V3a.75.75,0,0,1,.75-.75h3a.75.75,0,0,1,.75.75Z"/><line class="a" x1="9" y1="5.25" x2="9" y2="8.25"/><line class="a" x1="16.5" y1="8.25" x2="20.25" y2="9.75"/><line class="a" x1="16.5" y1="2.25" x2="20.25" y2="0.75"/><line class="a" x1="16.5" y1="5.25" x2="20.25" y2="5.25"/></svg>