<svg xmlns="http://www.w3.org/2000/svg" viewBox="0 0 24 24"><defs><style>.a{fill:none;stroke:currentColor;stroke-linecap:round;stroke-linejoin:round;stroke-width:1.5px;}</style></defs><title>color-bucket-1</title><path class="a" d="M11.719,4.217a1.234,1.234,0,0,0-1.745,0L2.993,11.2a3.7,3.7,0,0,0,0,5.235l3.49,3.491a3.7,3.7,0,0,0,5.236,0l5.672-5.672,2.651-.295a.617.617,0,0,0,.368-1.049Z"/><path class="a" d="M20.242,17.258l-1.654,3.308a1.848,1.848,0,0,0,.347,2.134h0a1.847,1.847,0,0,0,2.615,0h0a1.848,1.848,0,0,0,.346-2.134Z"/><path class="a" d="M4.841,9.349V3.758a3,3,0,0,1,3-3h0a3,3,0,0,1,3,3v8.25"/></svg>