<svg xmlns="http://www.w3.org/2000/svg" viewBox="0 0 24 24"><defs><style>.a{fill:none;stroke:currentColor;stroke-linecap:round;stroke-linejoin:round;stroke-width:1.5px;}</style></defs><title>color-bucket</title><path class="a" d="M21,16.508,18.988,20.23a1.966,1.966,0,0,0,.421,2.4h0a2.383,2.383,0,0,0,3.182,0h0a1.966,1.966,0,0,0,.421-2.4Z"/><path class="a" d="M19.6,11.6,9.592,19.509a1.487,1.487,0,0,1-1.45.237,12.251,12.251,0,0,1-7.3-7.3A1.491,1.491,0,0,1,1.081,11L8.99.993"/><ellipse class="a" cx="14.294" cy="6.296" rx="2.25" ry="7.5" transform="translate(-0.266 11.951) rotate(-45)"/></svg>