<svg xmlns="http://www.w3.org/2000/svg" viewBox="0 0 24 24"><defs><style>.a{fill:none;stroke:currentColor;stroke-linecap:round;stroke-linejoin:round;stroke-width:1.5px;}</style></defs><title>color-picker</title><path class="a" d="M3.32,18.75,2.077,21.238a1.39,1.39,0,0,0,.26,1.605h0a1.391,1.391,0,0,0,1.967,0h0a1.39,1.39,0,0,0,.26-1.605Z"/><path class="a" d="M20.752,2.068a4.5,4.5,0,0,0-6.364,0L8.024,8.432a4.486,4.486,0,0,0-.865,5.108L5.373,15.326a.75.75,0,0,0,0,1.061l1.06,1.061a.752.752,0,0,0,1.061,0L9.28,15.662a4.486,4.486,0,0,0,5.108-.866l6.364-6.364A4.5,4.5,0,0,0,20.752,2.068Z"/><line class="a" x1="10.82" y1="3" x2="19.82" y2="12"/><line class="a" x1="10.146" y1="6.311" x2="12.797" y2="8.962"/><line class="a" x1="8.024" y1="8.432" x2="10.676" y2="11.084"/></svg>