<svg xmlns="http://www.w3.org/2000/svg" viewBox="0 0 24 24"><defs><style>.a{fill:none;stroke:currentColor;stroke-linecap:round;stroke-linejoin:round;stroke-width:1.5px;}</style></defs><title>compass-2</title><circle class="a" cx="12" cy="12" r="11.25"/><path class="a" d="M8.014,15.654a.244.244,0,0,0,.332.332L12,13.957l3.654,2.029a.244.244,0,0,0,.332-.332L13.957,12l2.029-3.654a.244.244,0,0,0-.332-.333L12,10.043,8.346,8.013a.244.244,0,0,0-.332.333L10.043,12Z"/><polyline class="a" points="6 10.5 0.75 12 6 13.5"/><polyline class="a" points="13.5 6 12 0.75 10.5 6"/><polyline class="a" points="18 13.5 23.25 12 18 10.5"/><polyline class="a" points="10.5 18 12 23.25 13.5 18"/></svg>