<svg id="Regular" xmlns="http://www.w3.org/2000/svg" viewBox="0 0 24 24"><defs><style>.cls-1{fill:none;stroke:currentColor;stroke-linecap:round;stroke-linejoin:round;stroke-width:1.5px;}</style></defs><title>concert-rock-1</title><path class="cls-1" d="M17.439,9V5.25a1.5,1.5,0,0,1,1.5-1.5h0a1.5,1.5,0,0,1,1.5,1.5v10.5a5.168,5.168,0,0,1-1.5,3.75v3.75"/><path class="cls-1" d="M11.439,9V2.25a1.5,1.5,0,0,0-1.5-1.5h0a1.5,1.5,0,0,0-1.5,1.5V13.5L6,11.548a1.539,1.539,0,0,0-2.242.348h0a1.541,1.541,0,0,0,0,1.707L8.75,19.5v3.75"/><path class="cls-1" d="M14.439,9a1.5,1.5,0,0,0-1.5-1.5h0a1.5,1.5,0,0,0-1.5,1.5v3a1.5,1.5,0,0,0,3,0Z"/><path class="cls-1" d="M17.439,9a1.5,1.5,0,0,0-1.5-1.5h0a1.5,1.5,0,0,0-1.5,1.5v3a1.5,1.5,0,0,0,3,0Z"/></svg>