<svg id="Regular" xmlns="http://www.w3.org/2000/svg" viewBox="0 0 24 24"><defs><style>.cls-1{fill:none;stroke:currentColor;stroke-linecap:round;stroke-linejoin:round;stroke-width:1.5px;}</style></defs><title>concert-couple-duet</title><path class="cls-1" d="M4.5,3.75A3,3,0,1,0,6.484,9"/><path class="cls-1" d="M.75,17.25V15a3.75,3.75,0,0,1,7.5,0v2.25H6.75l-.75,6H3l-.75-6Z"/><path class="cls-1" d="M17.25,23.25l-.75-4.5H14.25l1.134-4.134c.673-2.019,1.507-3.366,3.366-3.366s2.693,1.347,3.366,3.366L23.25,18.75H21l-.75,4.5Z"/><circle class="cls-1" cx="18.75" cy="6.75" r="3"/><circle class="cls-1" cx="9" cy="5.25" r="1.5"/><line class="cls-1" x1="10.5" y1="5.25" x2="10.5" y2="0.75"/><circle class="cls-1" cx="12" cy="12" r="1.5"/><line class="cls-1" x1="13.5" y1="12" x2="13.5" y2="7.5"/></svg>