<svg id="Regular" xmlns="http://www.w3.org/2000/svg" viewBox="0 0 24 24"><defs><style>.cls-1{fill:none;stroke:currentColor;stroke-linecap:round;stroke-linejoin:round;stroke-width:1.5px;}</style></defs><title>concert-dj</title><circle class="cls-1" cx="12" cy="6.75" r="3"/><path class="cls-1" d="M7.5,15.75a4.5,4.5,0,0,1,9,0Z"/><path class="cls-1" d="M6,9V6.75a6,6,0,0,1,6-6h0a6,6,0,0,1,6,6v1.5"/><path class="cls-1" d="M22.437,21.319A1.5,1.5,0,0,1,21,23.25H3a1.5,1.5,0,0,1-1.437-1.931l1.35-4.5A1.5,1.5,0,0,1,4.35,15.75h15.3a1.5,1.5,0,0,1,1.437,1.069Z"/><ellipse class="cls-1" cx="7.5" cy="19.5" rx="2.25" ry="1.5"/><ellipse class="cls-1" cx="16.5" cy="19.5" rx="2.25" ry="1.5"/><path class="cls-1" d="M21,7.5a2.25,2.25,0,0,1-2.25,2.25A.75.75,0,0,1,18,9V5.25h.75A2.25,2.25,0,0,1,21,7.5Z"/><path class="cls-1" d="M3,7.5A2.25,2.25,0,0,0,5.25,9.75.75.75,0,0,0,6,9V5.25H5.25A2.25,2.25,0,0,0,3,7.5Z"/></svg>