<svg id="Regular" xmlns="http://www.w3.org/2000/svg" viewBox="0 0 24 24"><defs><style>.cls-1{fill:none;stroke:currentColor;stroke-linecap:round;stroke-linejoin:round;stroke-width:1.5px;}</style></defs><title>concert-sing</title><line class="cls-1" x1="15.25" y1="2.25" x2="18.25" y2="2.25"/><line class="cls-1" x1="16.75" y1="0.75" x2="16.75" y2="3.75"/><line class="cls-1" x1="18.25" y1="7.5" x2="21.25" y2="7.5"/><line class="cls-1" x1="19.75" y1="6" x2="19.75" y2="9"/><circle class="cls-1" cx="7.523" cy="6.001" r="4.5"/><line class="cls-1" x1="2.011" y1="4.242" x2="13.035" y2="7.761"/><path class="cls-1" d="M9.3,10.135l-4.354,9.41a1.5,1.5,0,0,1-1.818.8l-.335-.107a1.5,1.5,0,0,1-1.018-1.7l1.9-10.192"/><line class="cls-1" x1="2.962" y1="20.291" x2="2.049" y2="23.149"/><circle class="cls-1" cx="14.429" cy="20.149" r="1.601"/><path class="cls-1" d="M22,18.423a1.6,1.6,0,1,1-1.6-1.6A1.6,1.6,0,0,1,22,18.423Z"/><path class="cls-1" d="M16.03,20.149v-6a1.282,1.282,0,0,1,.876-1.216l3.408-.871A1.281,1.281,0,0,1,22,13.281v5.142"/></svg>