<svg id="Regular" xmlns="http://www.w3.org/2000/svg" viewBox="0 0 24 24"><defs><style>.cls-1{fill:none;stroke:currentColor;stroke-linecap:round;stroke-linejoin:round;stroke-width:1.5px;}</style></defs><title>concert-rock</title><path class="cls-1" d="M15.061,10.5V3.75a1.5,1.5,0,0,1,1.5-1.5h0a1.5,1.5,0,0,1,1.5,1.5V15L20.5,13.049a1.539,1.539,0,0,1,2.242.348h0a1.541,1.541,0,0,1,0,1.707l-3.65,5.474c-.1.146-.2.287-.309.422h0A6,6,0,0,1,14.1,23.25H11.182a5.118,5.118,0,0,1-3.621-1.5h0a5.113,5.113,0,0,1-1.5-3.621V6.75a1.5,1.5,0,0,1,1.5-1.5h0a1.5,1.5,0,0,1,1.5,1.5V10.5"/><path class="cls-1" d="M12.061,10.5a1.5,1.5,0,0,1,1.5-1.5h0a1.5,1.5,0,0,1,1.5,1.5v3a1.5,1.5,0,0,1-3,0Z"/><path class="cls-1" d="M9.061,10.5a1.5,1.5,0,0,1,1.5-1.5h0a1.5,1.5,0,0,1,1.5,1.5v3a1.5,1.5,0,0,1-3,0Z"/><polyline class="cls-1" points="1.561 0.75 3.811 3.75 0.811 3.75 3.061 6.75"/></svg>