<svg id="Regular" xmlns="http://www.w3.org/2000/svg" viewBox="0 0 24 24"><defs><style>.cls-1{fill:none;stroke:currentColor;stroke-linecap:round;stroke-linejoin:round;stroke-width:1.5px;}</style></defs><title>concert-speakers</title><line class="cls-1" x1="2.25" y1="5.25" x2="2.25" y2="11.25"/><line class="cls-1" x1="21.75" y1="5.25" x2="21.75" y2="11.25"/><rect class="cls-1" x="0.75" y="14.25" width="6.75" height="9" rx="0.5" ry="0.5"/><rect class="cls-1" x="16.5" y="14.25" width="6.75" height="9" rx="0.5" ry="0.5"/><path class="cls-1" d="M19.875,18.75a.375.375,0,0,1,.375.375"/><path class="cls-1" d="M19.5,19.125a.375.375,0,0,1,.375-.375"/><path class="cls-1" d="M19.875,19.5a.375.375,0,0,1-.375-.375"/><path class="cls-1" d="M20.25,19.125a.375.375,0,0,1-.375.375"/><path class="cls-1" d="M4.125,18.75a.375.375,0,0,1,.375.375"/><path class="cls-1" d="M3.75,19.125a.375.375,0,0,1,.375-.375"/><path class="cls-1" d="M4.125,19.5a.375.375,0,0,1-.375-.375"/><path class="cls-1" d="M4.5,19.125a.375.375,0,0,1-.375.375"/><rect class="cls-1" x="0.75" y="0.75" width="22.5" height="4.5" rx="1" ry="1"/><polyline class="cls-1" points="2.25 0.75 6.75 5.25 12 0.75 17.25 5.25 21.75 0.75"/></svg>