<svg id="Regular" xmlns="http://www.w3.org/2000/svg" viewBox="0 0 24 24"><defs><style>.cls-1{fill:none;stroke:currentColor;stroke-linecap:round;stroke-linejoin:round;stroke-width:1.5px;}</style></defs><title>concert-guitarist</title><circle class="cls-1" cx="6" cy="3.75" r="3"/><path class="cls-1" d="M11.25,13.5a5.25,5.25,0,0,0-10.5,0v2.25H3l.75,7.5h4.5L9,15.75h2.25Z"/><line class="cls-1" x1="18" y1="9" x2="18" y2="0.75"/><line class="cls-1" x1="16.5" y1="5.25" x2="19.5" y2="5.25"/><line class="cls-1" x1="16.5" y1="2.25" x2="19.5" y2="2.25"/><path class="cls-1" d="M21.889,16.229a2.165,2.165,0,0,1-.5-2.933,2.169,2.169,0,0,0,.364-1.2A3.094,3.094,0,0,0,18.656,9H17.344a3.094,3.094,0,0,0-3.094,3.094,2.169,2.169,0,0,0,.364,1.2,2.165,2.165,0,0,1-.5,2.933l-.027.021a3.332,3.332,0,0,0-1.334,2.667,4.333,4.333,0,0,0,4.333,4.333h1.868a4.3,4.3,0,0,0,4.3-4.3A3.4,3.4,0,0,0,21.889,16.229Z"/><line class="cls-1" x1="16.5" y1="20.25" x2="19.5" y2="20.25"/></svg>