<svg id="Regular" xmlns="http://www.w3.org/2000/svg" viewBox="0 0 24 24"><defs><style>.cls-1{fill:none;stroke:currentColor;stroke-linecap:round;stroke-linejoin:round;stroke-width:1.5px;}</style></defs><title>concert-beach</title><line class="cls-1" x1="11.134" y1="8.477" x2="10.367" y2="23.238"/><line class="cls-1" x1="4.288" y1="23.25" x2="9.234" y2="7.855"/><path class="cls-1" d="M9.234,7.855l8.276,2.709a.751.751,0,0,0,.975-.861,4.728,4.728,0,0,0-3.6-4.015c-3.75-.75-5.25,1.5-5.25,1.5l-.4.667"/><path class="cls-1" d="M9.234,7.855,1.7,9.9a.751.751,0,0,1-.934-.874A4.754,4.754,0,0,1,4.382,4.938c2.182-.437,4.273,0,5.528,1.925"/><path class="cls-1" d="M14.078,5.568l3.1-3.117A.747.747,0,0,0,16.97,1.24a4.869,4.869,0,0,0-5.088.51c-1.7,1.273-1.5,3.938-1.5,3.938v.769"/><path class="cls-1" d="M5.679,4.785,3.729,2.668a.748.748,0,0,1,.393-1.242,13.168,13.168,0,0,1,2.51-.238A5.079,5.079,0,0,1,10.6,3.76"/><line class="cls-1" x1="0.75" y1="23.25" x2="23.25" y2="23.25"/><line class="cls-1" x1="19.5" y1="4.5" x2="22.5" y2="4.5"/><line class="cls-1" x1="21" y1="3" x2="21" y2="6"/><line class="cls-1" x1="14.25" y1="18" x2="17.25" y2="18"/><line class="cls-1" x1="15.75" y1="16.5" x2="15.75" y2="19.5"/><circle class="cls-1" cx="21" cy="15" r="1.5"/><line class="cls-1" x1="22.5" y1="15" x2="22.5" y2="10.5"/></svg>