<svg xmlns="http://www.w3.org/2000/svg" viewBox="0 0 24 24"><defs><style>.a{fill:none;stroke:currentColor;stroke-linecap:round;stroke-linejoin:round;stroke-width:1.5px;}</style></defs><title>construction-fence</title><path class="a" d="M2.25,2.25a1.5,1.5,0,0,0-1.5,1.5v18a1.5,1.5,0,0,0,1.5,1.5h19.5a1.5,1.5,0,0,0,1.5-1.5v-3a1.5,1.5,0,0,0-1.5-1.5H14.871a1.5,1.5,0,0,1-1.06-.439l-3.622-3.622a1.5,1.5,0,0,1-.439-1.06V9.75a1.5,1.5,0,0,0-1.5-1.5H6.75a1.5,1.5,0,0,1-1.5-1.5v-3a1.5,1.5,0,0,0-1.5-1.5Z"/><line class="a" x1="5.25" y1="3.75" x2="23.25" y2="3.75"/><line class="a" x1="12.75" y1="8.25" x2="23.25" y2="8.25"/><line class="a" x1="13.5" y1="12.75" x2="23.25" y2="12.75"/><line class="a" x1="9.75" y1="0.75" x2="9.75" y2="5.25"/><line class="a" x1="14.25" y1="0.75" x2="14.25" y2="12.75"/><line class="a" x1="18.75" y1="0.75" x2="18.75" y2="17.25"/></svg>