<svg id="Regular" xmlns="http://www.w3.org/2000/svg" viewBox="0 0 24 24"><defs><style>.cls-1{fill:none;stroke:currentColor;stroke-linecap:round;stroke-linejoin:round;stroke-width:1.5px;}</style></defs><title>console-lamp</title><rect class="cls-1" x="0.75" y="11.25" width="22.5" height="9" rx="1" ry="1"/><line class="cls-1" x1="0.75" y1="15.75" x2="12.75" y2="15.75"/><line class="cls-1" x1="12.75" y1="11.25" x2="12.75" y2="20.25"/><line class="cls-1" x1="17.25" y1="14.25" x2="18.75" y2="14.25"/><line class="cls-1" x1="3.75" y1="20.25" x2="0.75" y2="23.25"/><line class="cls-1" x1="20.25" y1="20.25" x2="23.25" y2="23.25"/><polygon class="cls-1" points="12.75 6.75 23.25 6.75 21.75 0.75 14.25 0.75 12.75 6.75"/><path class="cls-1" d="M15,6.75a3.75,3.75,0,0,0,0,4.5h6a3.75,3.75,0,0,0,0-4.5Z"/><rect class="cls-1" x="3.75" y="6.75" width="3" height="4.5"/><path class="cls-1" d="M3.75.75s1.5,1.5,1.5,6"/></svg>