<svg xmlns="http://www.w3.org/2000/svg" viewBox="0 0 24 24"><defs><style>.a{fill:none;stroke:currentColor;stroke-linecap:round;stroke-linejoin:round;stroke-width:1.5px;}</style></defs><title>construction-paper-home</title><path class="a" d="M14.379.75H3a1.5,1.5,0,0,0-1.5,1.5v19.5A1.5,1.5,0,0,0,3,23.25H21a1.5,1.5,0,0,0,1.5-1.5V8.871a1.5,1.5,0,0,0-.439-1.06L15.439,1.189A1.5,1.5,0,0,0,14.379.75Z"/><path class="a" d="M15,.885V6.75a1.5,1.5,0,0,0,1.5,1.5h5.865"/><polyline class="a" points="15 13.25 15 18.75 9 18.75 9 13.25"/><polyline class="a" points="7.5 14.25 12 11.25 16.5 14.25"/></svg>