<svg xmlns="http://www.w3.org/2000/svg" viewBox="0 0 24 24"><defs><style>.a{fill:none;stroke:currentColor;stroke-linecap:round;stroke-linejoin:round;stroke-width:1.5px;}</style></defs><title>construction-house-1</title><polyline class="a" points="23.25 9.75 0.75 9.75 7.5 0.75 14.25 9.75"/><line class="a" x1="13.5" y1="0.75" x2="20.25" y2="9.75"/><path class="a" d="M16.5,17.25H21.75a1.5,1.5,0,0,1,1.5,1.5v3a1.5,1.5,0,0,1-1.5,1.5H6"/><line class="a" x1="14.25" y1="9.75" x2="14.25" y2="14.25"/><line class="a" x1="0.75" y1="9.75" x2="0.75" y2="11.25"/><line class="a" x1="7.5" y1="0.75" x2="18.75" y2="0.75"/><line class="a" x1="10.875" y1="5.25" x2="21" y2="5.25"/><line class="a" x1="20.25" y1="9.75" x2="20.25" y2="17.25"/><rect class="a" x="0.75" y="20.25" width="11.25" height="3" rx="0.5" ry="0.5"/><rect class="a" x="3" y="17.25" width="11.25" height="3" rx="0.5" ry="0.5"/><rect class="a" x="0.75" y="14.25" width="11.25" height="3" rx="0.5" ry="0.5"/></svg>