<svg xmlns="http://www.w3.org/2000/svg" viewBox="0 0 24 24"><defs><style>.a{fill:none;stroke:currentColor;stroke-linecap:round;stroke-linejoin:round;stroke-width:1.5px;}</style></defs><title>construction-mortar-machine</title><circle class="a" cx="3.75" cy="21.75" r="1.5"/><circle class="a" cx="20.25" cy="21.75" r="1.5"/><path class="a" d="M21.437,4.478a1.5,1.5,0,0,0-1.286-.728h-1.4a1.5,1.5,0,0,0-1.5,1.5v10.5a1.5,1.5,0,0,1-1.5,1.5H2.25a1.5,1.5,0,0,0,0,3h19.5a1.5,1.5,0,0,0,1.5-1.5V7.915a1.5,1.5,0,0,0-.214-.771Z"/><path class="a" d="M13.2,1.418A1.5,1.5,0,0,0,11.947.75H4.553a1.5,1.5,0,0,0-1.248.668L1,4.872A1.5,1.5,0,0,0,.75,5.7V8.25a7.5,7.5,0,0,0,15,0V5.7a1.5,1.5,0,0,0-.252-.832Z"/><line class="a" x1="20.25" y1="9.75" x2="23.25" y2="9.75"/><line class="a" x1="0.902" y1="9.75" x2="15.598" y2="9.75"/><line class="a" x1="0.825" y1="5.25" x2="15.679" y2="5.25"/><line class="a" x1="20.25" y1="12.75" x2="23.25" y2="12.75"/></svg>