<svg xmlns="http://www.w3.org/2000/svg" viewBox="0 0 24 24"><defs><style>.a{fill:none;stroke:currentColor;stroke-linecap:round;stroke-linejoin:round;stroke-width:1.5px;}</style></defs><title>construction-drill</title><path class="a" d="M10.5.75h3a3,3,0,0,1,3,3v8a1,1,0,0,1-1,1h-7a1,1,0,0,1-1-1v-8a3,3,0,0,1,3-3Z"/><line class="a" x1="12" y1="18.75" x2="12" y2="23.25"/><path class="a" d="M14.25,17.25a1.5,1.5,0,0,1-1.5,1.5h-1.5a1.5,1.5,0,0,1-1.5-1.5L9,12.75h6Z"/><line class="a" x1="10.5" y1="5.25" x2="13.5" y2="5.25"/><line class="a" x1="10.5" y1="8.25" x2="13.5" y2="8.25"/><line class="a" x1="3" y1="3.75" x2="7.756" y2="3.75"/><line class="a" x1="16.244" y1="3.75" x2="21" y2="3.75"/><path class="a" d="M1.5,20.25,2.274,22.7A1,1,0,0,0,4,22.805L5,20.7a1,1,0,0,1,1.726.108L7.5,23.25"/><path class="a" d="M22.5,20.25,21.726,22.7A1,1,0,0,1,20,22.805L19,20.7a1,1,0,0,0-1.726.108L16.5,23.25"/></svg>