<svg xmlns="http://www.w3.org/2000/svg" viewBox="0 0 24 24"><defs><style>.a{fill:none;stroke:currentColor;stroke-linecap:round;stroke-linejoin:round;stroke-width:1.5px;}</style></defs><title>construction-shovel</title><path class="a" d="M9.633,18.876a11.173,11.173,0,0,0-1.884-1.525,4.4,4.4,0,0,0-6.473,2.172A11.044,11.044,0,0,0,.75,23.25h22.5c0-3.75-.764-7.569-4.384-8.784a6.007,6.007,0,0,0-5.117.617,20.238,20.238,0,0,0-5.6,5.776"/><line class="a" x1="0.75" y1="5.262" x2="5.262" y2="0.75"/><line class="a" x1="3.006" y1="3.006" x2="9.775" y2="9.775"/><path class="a" d="M10.073,14.585,8.647,13.159a1.6,1.6,0,0,1,0-2.256L10.9,8.647a1.6,1.6,0,0,1,2.256,0l1.426,1.426a1.6,1.6,0,0,1,.386.623l.468,1.406"/></svg>