<svg xmlns="http://www.w3.org/2000/svg" viewBox="0 0 24 24"><defs><style>.a{fill:none;stroke:currentColor;stroke-linecap:round;stroke-linejoin:round;stroke-width:1.5px;}</style></defs><title>controller-360</title><rect class="a" x="0.75" y="10.5" width="22.5" height="10.5" rx="1.5" ry="1.5"/><path class="a" d="M23.13,11.411,20.25,3h-3c0,1.657-2.35,3-5.25,3S6.75,4.657,6.75,3h-3L.87,11.411"/><path class="a" d="M3,18H.75V13.5H3a.75.75,0,0,1,.75.75v3A.75.75,0,0,1,3,18Z"/><path class="a" d="M21,18h2.25V13.5H21a.75.75,0,0,0-.75.75v3A.75.75,0,0,0,21,18Z"/><line class="a" x1="8.25" y1="15" x2="15.75" y2="15"/></svg>