<svg xmlns="http://www.w3.org/2000/svg" viewBox="0 0 24 24"><defs><style>.a{fill:none;stroke:currentColor;stroke-linecap:round;stroke-linejoin:round;stroke-width:1.5px;}</style></defs><title>contactless-payment</title><path class="a" d="M23.25,10.826,19.355,7.8a3.565,3.565,0,0,0-4.712.293l-.305.306"/><path class="a" d="M.75,6.152a5.4,5.4,0,0,1,5.4-5.4"/><path class="a" d="M3.509,6.241A3.241,3.241,0,0,1,6.75,3"/><path class="a" d="M4.221,9.33l-.733.733a1.079,1.079,0,0,0,0,1.527l9.275,9.276a1.08,1.08,0,0,0,1.528,0l1.119-1.135"/><path class="a" d="M18.2,17l1.589-1.629a1.079,1.079,0,0,0,0-1.527L10.51,4.568a1.08,1.08,0,0,0-1.528,0l-.472.473"/><line class="a" x1="15.57" y1="15.265" x2="18.387" y2="12.448"/><line class="a" x1="11.367" y1="19.469" x2="13.318" y2="17.517"/><path class="a" d="M23.25,23.25l-5.143-1.714a5.978,5.978,0,0,1-2.336-1.444l-2.137-2.137a1.679,1.679,0,0,1,2.119-2.584l3.716,2.477"/><path class="a" d="M9.83,13.382a2.222,2.222,0,0,0,1.95-.643,1.861,1.861,0,0,0,.432-2.542,1.86,1.86,0,0,0-2.56.3,1.863,1.863,0,0,1-2.562.3,1.863,1.863,0,0,1,.432-2.542A2.222,2.222,0,0,1,9.472,7.6"/><line class="a" x1="11.78" y1="12.739" x2="12.489" y2="13.486"/><line class="a" x1="6.813" y1="7.5" x2="7.522" y2="8.248"/></svg>