<svg xmlns="http://www.w3.org/2000/svg" viewBox="0 0 24 24"><defs><style>.a{fill:none;stroke:currentColor;stroke-linecap:round;stroke-linejoin:round;stroke-width:1.5px;}</style></defs><title>couple-hold</title><path class="a" d="M3.75,23.25,1.736,20.869A4.5,4.5,0,0,1,.75,18.058V12.886a1.5,1.5,0,0,1,1.5-1.5h0a1.5,1.5,0,0,1,1.5,1.5v3.75"/><path class="a" d="M8.25,23.25v-3a4.5,4.5,0,0,0-.757-2.5L6.351,16.04A1.4,1.4,0,0,0,4.374,15.6h0A1.4,1.4,0,0,0,3.9,17.386l1.352,2.25"/><path class="a" d="M20.25,23.25l2.014-2.381a4.5,4.5,0,0,0,.986-2.811V12.886a1.5,1.5,0,0,0-1.5-1.5h0a1.5,1.5,0,0,0-1.5,1.5v3.75"/><path class="a" d="M15.75,23.25v-3a4.5,4.5,0,0,1,.757-2.5l1.142-1.712a1.4,1.4,0,0,1,1.977-.445h0a1.4,1.4,0,0,1,.476,1.791l-1.352,2.25"/><circle class="a" cx="15.75" cy="2.25" r="1.5"/><path class="a" d="M15.75,12.75h1.125l.375-3h1.5V8.25a3,3,0,0,0-3-3"/><circle class="a" cx="8.25" cy="2.25" r="1.5"/><path class="a" d="M8.25,5.25a3,3,0,0,0-3,3v1.5h1.5l.375,3H8.25"/><path class="a" d="M14.561,7.693a1.5,1.5,0,0,0-2.122,0L12,8.132l-.439-.439A1.5,1.5,0,1,0,9.439,9.814L12,12.375l2.561-2.561A1.5,1.5,0,0,0,14.561,7.693Z"/></svg>