<svg xmlns="http://www.w3.org/2000/svg" viewBox="0 0 24 24"><defs><style>.a{fill:none;stroke:currentColor;stroke-linecap:round;stroke-linejoin:round;stroke-width:1.5px;}</style></defs><title>couple-film</title><path class="a" d="M9,18.75H2.25a1.5,1.5,0,0,1-1.5-1.5v-15a1.5,1.5,0,0,1,1.5-1.5h19.5a1.5,1.5,0,0,1,1.5,1.5V10.5"/><line class="a" x1="0.75" y1="5.248" x2="23.25" y2="5.248"/><line class="a" x1="0.75" y1="14.25" x2="8.25" y2="14.25"/><line class="a" x1="6" y1="0.75" x2="6" y2="5.25"/><line class="a" x1="12" y1="0.75" x2="12" y2="5.25"/><line class="a" x1="18" y1="0.75" x2="18" y2="5.25"/><line class="a" x1="6" y1="14.25" x2="6" y2="18.75"/><path class="a" d="M17.25,23.25l-5.114-5.335a3.023,3.023,0,0,1-.566-3.492h0a3.025,3.025,0,0,1,4.845-.786l.835.835.835-.835a3.026,3.026,0,0,1,4.846.786h0a3.025,3.025,0,0,1-.567,3.492Z"/></svg>