<svg xmlns="http://www.w3.org/2000/svg" viewBox="0 0 24 24"><defs><style>.a{fill:none;stroke:currentColor;stroke-linecap:round;stroke-linejoin:round;stroke-width:1.5px;}</style></defs><title>couple-tv</title><circle class="a" cx="7.5" cy="15.75" r="3"/><path class="a" d="M8.975,13.139a3,3,0,0,1-4.449,2.224"/><path class="a" d="M11.744,23.25a4.5,4.5,0,0,0-8.488,0"/><path class="a" d="M20.744,23.25a4.5,4.5,0,0,0-8.488,0"/><circle class="a" cx="16.5" cy="15.75" r="3"/><path class="a" d="M13.5,15.75s0,3.75-2.25,3.75"/><path class="a" d="M19.5,15.75s0,3.75,2.25,3.75"/><path class="a" d="M2.25,19.5A1.5,1.5,0,0,1,.75,18V6.75a1.5,1.5,0,0,1,1.5-1.5h19.5a1.5,1.5,0,0,1,1.5,1.5V16.5"/><polyline class="a" points="8.25 0.75 12 5.25 15.75 0.75"/></svg>