<svg xmlns="http://www.w3.org/2000/svg" viewBox="0 0 24 24"><defs><style>.a{fill:none;stroke:currentColor;stroke-linecap:round;stroke-linejoin:round;stroke-width:1.5px;}</style></defs><title>couple-home-man-woman</title><path class="a" d="M15.93,7.339a1.9,1.9,0,0,0-2.751,0L12,8.558,10.821,7.339a1.9,1.9,0,0,0-2.751,0,2.06,2.06,0,0,0,0,2.845l3.511,3.631a.579.579,0,0,0,.838,0l3.511-3.631A2.06,2.06,0,0,0,15.93,7.339Z"/><path class="a" d="M.75,23.25V8.349a1.5,1.5,0,0,1,.728-1.286L11.164,1a1.5,1.5,0,0,1,1.672,0l9.686,6.058a1.5,1.5,0,0,1,.728,1.286v14.9"/><circle class="a" cx="16.354" cy="18" r="2.25"/><path class="a" d="M20.25,23.25a4.5,4.5,0,0,0-7.793,0"/><circle class="a" cx="7.646" cy="18" r="2.25"/><path class="a" d="M11.543,23.25a4.5,4.5,0,0,0-7.793,0"/></svg>