<svg xmlns="http://www.w3.org/2000/svg" viewBox="0 0 24 24"><defs><style>.a{fill:none;stroke:currentColor;stroke-linecap:round;stroke-linejoin:round;stroke-width:1.5px;}</style></defs><title>couple-album-book</title><path class="a" d="M15.75,10.5V2.25a1.5,1.5,0,0,0-1.5-1.5h-12a1.5,1.5,0,0,0-1.5,1.5v15a1.5,1.5,0,0,0,1.5,1.5H3"/><circle class="a" cx="9" cy="15.75" r="3"/><path class="a" d="M10.475,13.139a3,3,0,0,1-4.449,2.224"/><path class="a" d="M13.244,23.25a4.5,4.5,0,0,0-8.488,0"/><path class="a" d="M22.244,23.25a4.5,4.5,0,0,0-8.488,0"/><circle class="a" cx="18" cy="15.75" r="3"/><path class="a" d="M15,15.75s0,3.75-2.25,3.75"/><path class="a" d="M21,15.75s0,3.75,2.25,3.75"/><line class="a" x1="4.5" y1="0.75" x2="4.5" y2="12"/></svg>