<svg xmlns="http://www.w3.org/2000/svg" viewBox="0 0 24 24"><defs><style>.a{fill:none;stroke:currentColor;stroke-linecap:round;stroke-linejoin:round;stroke-width:1.5px;}</style></defs><title>couple-house</title><path class="a" d="M7.5,18.232V21.75A1.5,1.5,0,0,0,9,23.25h6a1.5,1.5,0,0,0,1.5-1.5V18.232"/><path class="a" d="M19.5,17.482,13,11.635a1.5,1.5,0,0,0-2.006,0L4.5,17.482"/><path class="a" d="M4.631,12.75,2.412,10.435A5.672,5.672,0,0,1,1.349,3.887h0a5.672,5.672,0,0,1,9.085-1.474L12,3.978l1.566-1.565a5.672,5.672,0,0,1,9.085,1.474h0a5.673,5.673,0,0,1-1.062,6.548L19.37,12.75"/></svg>