<svg id="Regular" xmlns="http://www.w3.org/2000/svg" viewBox="0 0 24 24"><defs><style>.cls-1{fill:none;stroke:currentColor;stroke-linecap:round;stroke-linejoin:round;stroke-width:1.5px;}</style></defs><title>crafts-necklace</title><path class="cls-1" d="M3.865,23.25,1.736,20.732A4.5,4.5,0,0,1,.75,17.921V12.75a1.5,1.5,0,0,1,1.5-1.5h0a1.5,1.5,0,0,1,1.5,1.5V16.5"/><path class="cls-1" d="M8.25,23.25V20.113a4.492,4.492,0,0,0-.757-2.5L6.351,15.9a1.4,1.4,0,0,0-1.977-.444h0A1.4,1.4,0,0,0,3.9,17.25L5.25,19.5"/><path class="cls-1" d="M20.135,23.25l2.129-2.518a4.5,4.5,0,0,0,.986-2.811V12.75a1.5,1.5,0,0,0-1.5-1.5h0a1.5,1.5,0,0,0-1.5,1.5V16.5"/><path class="cls-1" d="M15.75,23.25V20.113a4.492,4.492,0,0,1,.757-2.5L17.649,15.9a1.4,1.4,0,0,1,1.977-.444h0A1.4,1.4,0,0,1,20.1,17.25L18.75,19.5"/><path class="cls-1" d="M12.732,6.994a.879.879,0,0,0-1.464,0L8.805,10.688a.88.88,0,0,0,0,.976l2.463,3.694a.879.879,0,0,0,1.464,0L15.2,11.664a.88.88,0,0,0,0-.976Z"/><path class="cls-1" d="M11.029,7.457A10.883,10.883,0,0,1,1.935.751"/><path class="cls-1" d="M22.065.75a10.884,10.884,0,0,1-9.094,6.707"/></svg>