<svg id="Regular" xmlns="http://www.w3.org/2000/svg" viewBox="0 0 24 24"><defs><style>.cls-1{fill:none;stroke:currentColor;stroke-linecap:round;stroke-linejoin:round;stroke-width:1.5px;}</style></defs><title>crafts-sewing</title><path class="cls-1" d="M15.118,5.163A4.936,4.936,0,0,1,23.25,8.924a5.287,5.287,0,0,1-7.835,4.633L7.8,9.37A4.758,4.758,0,0,0,.75,13.539a4.543,4.543,0,0,0,7.269,3.635l7.616-5.712A4.038,4.038,0,0,1,22.1,14.693a4.4,4.4,0,0,1-5.926,4.132l-8.734-4.1A3.853,3.853,0,0,0,2.25,18.342a3.659,3.659,0,0,0,5.541,3.137l.477-.287"/></svg>