<svg id="Regular" xmlns="http://www.w3.org/2000/svg" viewBox="0 0 24 24"><defs><style>.cls-1{fill:none;stroke:currentColor;stroke-linecap:round;stroke-linejoin:round;stroke-width:1.5px;}</style></defs><title>crafts-bottle-art-plant</title><path class="cls-1" d="M9.793,12.811s2.683.717,3.887-.954c2.441-3.387-1.913-6.8-2.388-9.232A9.1,9.1,0,0,0,5.927,8.912C5.431,11.337,6.881,12.8,9.793,12.811Z"/><path class="cls-1" d="M9.81,8.929s-1.518,2.255.763,6.789"/><path class="cls-1" d="M4.5,4.125H2.25a1.5,1.5,0,0,0-1.5,1.5v11.25a1.5,1.5,0,0,0,1.5,1.5H16.9a1.5,1.5,0,0,0,1.342-.829l2.012-3.671h1.5a1.5,1.5,0,0,0,1.5-1.5v-2.25a1.5,1.5,0,0,0-1.5-1.5h-1.5L18.238,4.954A1.5,1.5,0,0,0,16.9,4.125H15.75"/><line class="cls-1" x1="15.75" y1="18.375" x2="17.25" y2="21.375"/><line class="cls-1" x1="4.5" y1="18.375" x2="3" y2="21.375"/></svg>