<svg id="Regular" xmlns="http://www.w3.org/2000/svg" viewBox="0 0 24 24"><defs><style>.cls-1{fill:none;stroke:currentColor;stroke-linecap:round;stroke-linejoin:round;stroke-width:1.5px;}</style></defs><title>crafts-bottle-art-ship</title><path class="cls-1" d="M6,3.75H2.25a1.5,1.5,0,0,0-1.5,1.5V16.5A1.5,1.5,0,0,0,2.25,18H16.9a1.5,1.5,0,0,0,1.342-.829L20.25,13.5h1.5a1.5,1.5,0,0,0,1.5-1.5V9.75a1.5,1.5,0,0,0-1.5-1.5h-1.5L18.238,4.579A1.5,1.5,0,0,0,16.9,3.75H15"/><path class="cls-1" d="M5.585,13.421,4.5,11.25h12l-1.085,2.171a1.5,1.5,0,0,1-1.342.829H6.927A1.5,1.5,0,0,1,5.585,13.421Z"/><path class="cls-1" d="M9,11.25V3c2.25,0,4.5,2.25,4.5,5.25H9"/><line class="cls-1" x1="15.75" y1="18" x2="17.25" y2="21"/><line class="cls-1" x1="4.5" y1="18" x2="3" y2="21"/></svg>