<svg id="Regular" xmlns="http://www.w3.org/2000/svg" viewBox="0 0 24 24"><defs><style>.cls-1{fill:none;stroke:currentColor;stroke-linecap:round;stroke-linejoin:round;stroke-width:1.5px;}</style></defs><title>crafts-pottery</title><path class="cls-1" d="M3.865,23.25,1.736,20.733A4.5,4.5,0,0,1,.75,17.921V12.75a1.5,1.5,0,0,1,1.5-1.5h0a1.5,1.5,0,0,1,1.5,1.5V16.5"/><path class="cls-1" d="M8.25,23.25V20.114a4.493,4.493,0,0,0-.757-2.5L6.351,15.9a1.4,1.4,0,0,0-1.977-.445h0A1.4,1.4,0,0,0,3.9,17.25L5.25,19.5"/><path class="cls-1" d="M20.135,23.25l2.129-2.517a4.5,4.5,0,0,0,.986-2.812V12.75a1.5,1.5,0,0,0-1.5-1.5h0a1.5,1.5,0,0,0-1.5,1.5V16.5"/><path class="cls-1" d="M15.75,23.25V20.114a4.493,4.493,0,0,1,.757-2.5L17.649,15.9a1.4,1.4,0,0,1,1.977-.445h0A1.4,1.4,0,0,1,20.1,17.25L18.75,19.5"/><ellipse class="cls-1" cx="12" cy="2.531" rx="5.077" ry="1.781"/><path class="cls-1" d="M6.923,2.531A4.7,4.7,0,0,0,7.26,4.28a1.73,1.73,0,0,1-.2,1.653A5.615,5.615,0,0,0,6,9.211,5.9,5.9,0,0,0,12,15a5.9,5.9,0,0,0,6-5.789,5.615,5.615,0,0,0-1.056-3.278,1.733,1.733,0,0,1-.2-1.653,4.7,4.7,0,0,0,.337-1.749"/></svg>