<svg id="Regular" xmlns="http://www.w3.org/2000/svg" viewBox="0 0 24 24"><defs><style>.cls-1{fill:none;stroke:currentColor;stroke-linecap:round;stroke-linejoin:round;stroke-width:1.5px;}</style></defs><title>crafts-origami-1</title><path class="cls-1" d="M10.385,6.908l2.335-5.1A.749.749,0,0,0,12.039.75H4.444a.375.375,0,0,0-.249.655Z"/><line class="cls-1" x1="4.722" y1="19.264" x2="10.385" y2="6.908"/><path class="cls-1" d="M11.707,12.75l7.325-3.995a.75.75,0,0,1,1.1.535l.576,3.46"/><path class="cls-1" d="M16.147,23.176,7.7,12.75H22.25a.75.75,0,0,1,.61,1.186l-6.428,9a.751.751,0,0,1-.611.314h-6.8a.747.747,0,0,1-.53-.22L1.579,16.121a.748.748,0,0,1-.149-.847L6.815,3.734"/></svg>