<svg id="Regular" xmlns="http://www.w3.org/2000/svg" viewBox="0 0 24 24"><defs><style>.cls-1{fill:none;stroke:currentColor;stroke-linecap:round;stroke-linejoin:round;stroke-width:1.5px;}</style></defs><title>crafts-model-plane </title><path class="cls-1" d="M7.117,10.921l.858-5.939,10.392,1.5,2.125-2.118a1.5,1.5,0,0,1,2.544,1.276l-.353,2.444a3,3,0,0,1-2.265,2.487l-3.611,1.314a6.008,6.008,0,0,1-2.267.106Z"/><line class="cls-1" x1="1.608" y1="7.094" x2="4.577" y2="7.522"/><line class="cls-1" x1="2.037" y1="4.124" x2="2.466" y2="1.155"/><line class="cls-1" x1="0.75" y1="13.032" x2="1.179" y2="10.063"/><path class="cls-1" d="M15.4,6.055A3,3,0,1,0,9.46,5.2Z"/><path class="cls-1" d="M7.975,4.982,6.491,4.768a1.5,1.5,0,0,0-1.7,1.27L4.363,9.007a1.5,1.5,0,0,0,1.27,1.7l1.484.215"/><path class="cls-1" d="M11.964,11.621,8.9,20.874a1.5,1.5,0,0,0,1.424,1.971H16.5"/></svg>