<svg id="Regular" xmlns="http://www.w3.org/2000/svg" viewBox="0 0 24 24"><defs><style>.cls-1{fill:none;stroke:currentColor;stroke-linecap:round;stroke-linejoin:round;stroke-width:1.5px;}</style></defs><title>crafts-calligraphy</title><path class="cls-1" d="M9.065,18a4.507,4.507,0,0,1-2.274,3.156L4.5,22.336V15.453a3.033,3.033,0,0,1,1.622-2.7l2.943-1.632Z"/><line class="cls-1" x1="9.065" y1="11.118" x2="11.25" y2="9.993"/><path class="cls-1" d="M4.5,22.336l-1.691.754a1.4,1.4,0,0,1-2.035-.935,1.52,1.52,0,0,1-.024-.272"/><path class="cls-1" d="M18.75.75,16.232,1.829a1.275,1.275,0,0,0-.752.949L14.25,9.75l6.972-1.23a1.275,1.275,0,0,0,.949-.752L23.25,5.25"/><line class="cls-1" x1="14.25" y1="9.75" x2="19.2" y2="4.8"/></svg>