<svg xmlns="http://www.w3.org/2000/svg" viewBox="0 0 24 24"><defs><style>.a{fill:none;stroke:currentColor;stroke-linecap:round;stroke-linejoin:round;stroke-width:1.5px;}</style></defs><title>credit-card-flag</title><path class="a" d="M20.25,8.25v-6a1.5,1.5,0,0,0-1.5-1.5H2.25a1.5,1.5,0,0,0-1.5,1.5v12a1.5,1.5,0,0,0,1.5,1.5h9"/><line class="a" x1="0.75" y1="5.25" x2="20.25" y2="5.25"/><line class="a" x1="3.75" y1="9" x2="9.75" y2="9"/><line class="a" x1="3.75" y1="12" x2="6.75" y2="12"/><line class="a" x1="14.25" y1="13.369" x2="14.25" y2="23.25"/><path class="a" d="M14.25,18.869l1.29-.43a3.684,3.684,0,0,1,3.21.43,3.684,3.684,0,0,0,3.21.43l1.29-.43v-7l-1.29.43a3.684,3.684,0,0,1-3.21-.43,3.684,3.684,0,0,0-3.21-.43l-1.29.43Z"/></svg>