<svg xmlns="http://www.w3.org/2000/svg" viewBox="0 0 24 24"><defs><style>.a{fill:none;stroke:currentColor;stroke-linecap:round;stroke-linejoin:round;stroke-width:1.5px;}</style></defs><title>credit-card-payment</title><path class="a" d="M1.5,4.663a.887.887,0,0,0-.75.978V21.293a1.775,1.775,0,0,0,1.5,1.957h10.5a1.775,1.775,0,0,0,1.5-1.957V15.75"/><path class="a" d="M.75,11.25h10.5"/><line class="a" x1="3.75" y1="17.25" x2="4.5" y2="17.25"/><line class="a" x1="3.75" y1="20.25" x2="4.5" y2="20.25"/><line class="a" x1="6.75" y1="17.25" x2="7.5" y2="17.25"/><line class="a" x1="3.75" y1="14.25" x2="7.5" y2="14.25"/><line class="a" x1="10.875" y1="14.25" x2="11.625" y2="14.25"/><line class="a" x1="6.75" y1="20.25" x2="7.5" y2="20.25"/><line class="a" x1="11.25" y1="17.25" x2="11.25" y2="20.203"/><path class="a" d="M3.75,7.5V1.453a.5.5,0,0,1,.229-.422.468.468,0,0,1,.469-.022l1.231.633L6.858.833a.47.47,0,0,1,.534,0l1.179.809L9.8,1.009a.468.468,0,0,1,.469.022.5.5,0,0,1,.229.422V7.5"/><line class="a" x1="6" y1="4.5" x2="8.248" y2="4.5"/><polyline class="a" points="17.25 18.75 19.5 21 21.75 18.75"/><line class="a" x1="19.5" y1="21" x2="19.5" y2="15.75"/><rect class="a" x="14.25" y="0.75" width="9" height="12" rx="1.5" ry="1.5"/><line class="a" x1="17.25" y1="12.75" x2="17.25" y2="0.75"/><line class="a" x1="20.25" y1="3.75" x2="20.25" y2="5.25"/><line class="a" x1="0.75" y1="7.5" x2="11.25" y2="7.5"/></svg>