<svg xmlns="http://www.w3.org/2000/svg" viewBox="0 0 24 24"><defs><style>.a{fill:none;stroke:currentColor;stroke-linecap:round;stroke-linejoin:round;stroke-width:1.5px;}</style></defs><title>credit-card-lock</title><path class="a" d="M20.25,8.25v-6a1.5,1.5,0,0,0-1.5-1.5H2.25a1.5,1.5,0,0,0-1.5,1.5v12a1.5,1.5,0,0,0,1.5,1.5h9"/><line class="a" x1="0.75" y1="5.25" x2="20.25" y2="5.25"/><line class="a" x1="3.75" y1="8.997" x2="9.75" y2="8.997"/><line class="a" x1="3.75" y1="11.997" x2="6.75" y2="11.997"/><rect class="a" x="14.25" y="15.75" width="9" height="7.5" rx="1.5" ry="1.5"/><path class="a" d="M18.75,11.25h0a3,3,0,0,0-3,3v1.5h6v-1.5A3,3,0,0,0,18.75,11.25Z"/><path class="a" d="M18.75,19.154a.375.375,0,1,1-.375.375.375.375,0,0,1,.375-.375"/></svg>