<svg xmlns="http://www.w3.org/2000/svg" viewBox="0 0 24 24"><defs><style>.a{fill:none;stroke:currentColor;stroke-linecap:round;stroke-linejoin:round;stroke-width:1.5px;}</style></defs><title>credit-card-scan</title><path class="a" d="M13.5,15h8.25a1.5,1.5,0,0,0,1.5-1.5V2.25a1.5,1.5,0,0,0-1.5-1.5H5.25a1.5,1.5,0,0,0-1.5,1.5V12"/><line class="a" x1="3.75" y1="5.25" x2="23.25" y2="5.25"/><line class="a" x1="6.75" y1="9.75" x2="9" y2="9.75"/><path class="a" d="M16.875,9a1.875,1.875,0,1,0,0,2.25,1.875,1.875,0,1,0,0-2.25Z"/><line class="a" x1="0.75" y1="14.25" x2="0.75" y2="23.25"/><path class="a" d="M.75,21.75h16.5a3,3,0,0,0-3-3H10.5a3,3,0,0,0-3-3H.75"/><line class="a" x1="6.75" y1="18.75" x2="10.5" y2="18.75"/></svg>