<svg xmlns="http://www.w3.org/2000/svg" viewBox="0 0 24 24"><defs><style>.a{fill:none;stroke:currentColor;stroke-linecap:round;stroke-linejoin:round;stroke-width:1.5px;}</style></defs><title>credit-card-shield</title><path class="a" d="M20.25,7.5V2.25a1.5,1.5,0,0,0-1.5-1.5H2.25a1.5,1.5,0,0,0-1.5,1.5v12a1.5,1.5,0,0,0,1.5,1.5h6"/><line class="a" x1="0.75" y1="5.25" x2="20.25" y2="5.25"/><line class="a" x1="3.75" y1="9" x2="9.75" y2="9"/><line class="a" x1="3.75" y1="12" x2="6.75" y2="12"/><path class="a" d="M23.25,15.75a7.669,7.669,0,0,1-6,7.5,7.669,7.669,0,0,1-6-7.5V12.209a1.5,1.5,0,0,1,.915-1.382,12.543,12.543,0,0,1,10.17,0,1.5,1.5,0,0,1,.915,1.382Z"/><line class="a" x1="17.25" y1="12.75" x2="17.25" y2="18.75"/><line class="a" x1="14.25" y1="15.75" x2="20.25" y2="15.75"/></svg>