<svg xmlns="http://www.w3.org/2000/svg" viewBox="0 0 24 24"><defs><style>.a{fill:none;stroke:currentColor;stroke-linecap:round;stroke-linejoin:round;stroke-width:1.5px;}</style></defs><title>credit-card-sync</title><polyline class="a" points="15 18.75 11.25 18.75 11.25 22.5"/><path class="a" d="M22.667,19.483a5.572,5.572,0,0,1-10.74-.733"/><polyline class="a" points="19.5 15.75 23.25 15.75 23.25 12"/><path class="a" d="M11.833,15.017a5.572,5.572,0,0,1,10.74.733"/><path class="a" d="M20.25,8.25v-6a1.5,1.5,0,0,0-1.5-1.5H2.25a1.5,1.5,0,0,0-1.5,1.5v12a1.5,1.5,0,0,0,1.5,1.5h6"/><line class="a" x1="0.75" y1="5.25" x2="20.25" y2="5.25"/><line class="a" x1="3.75" y1="9" x2="9.75" y2="9"/><line class="a" x1="3.75" y1="12" x2="6.75" y2="12"/></svg>