<svg xmlns="http://www.w3.org/2000/svg" viewBox="0 0 24 24"><defs><style>.a{fill:none;stroke:currentColor;stroke-linecap:round;stroke-linejoin:round;stroke-width:1.5px;}</style></defs><title>credit-card-dollar-1</title><path class="a" d="M18.75,14.25H16.717a1.342,1.342,0,0,0-.5,2.587l2.064.826a1.342,1.342,0,0,1-.5,2.587H15.75"/><line class="a" x1="17.25" y1="14.25" x2="17.25" y2="13.5"/><line class="a" x1="17.25" y1="21" x2="17.25" y2="20.25"/><circle class="a" cx="17.25" cy="17.25" r="6"/><path class="a" d="M20.25,8.25v-6a1.5,1.5,0,0,0-1.5-1.5H2.25a1.5,1.5,0,0,0-1.5,1.5v12a1.5,1.5,0,0,0,1.5,1.5h6"/><line class="a" x1="0.75" y1="5.25" x2="20.25" y2="5.25"/><line class="a" x1="3.75" y1="9" x2="9.75" y2="9"/><line class="a" x1="3.75" y1="12" x2="6.75" y2="12"/></svg>