<svg xmlns="http://www.w3.org/2000/svg" viewBox="0 0 24 24"><defs><style>.a{fill:none;stroke:currentColor;stroke-linecap:round;stroke-linejoin:round;stroke-width:1.5px;}</style></defs><title>credit-card-online-payment</title><path class="a" d="M21.75,10.875V2.625a1.5,1.5,0,0,0-1.5-1.5h-18a1.5,1.5,0,0,0-1.5,1.5v15.75a1.5,1.5,0,0,0,1.5,1.5h6"/><line class="a" x1="0.75" y1="5.625" x2="21.75" y2="5.625"/><path class="a" d="M4.329,14.969a2.225,2.225,0,0,0,1.859.875c1.138,0,2.062-.693,2.062-1.547s-.924-1.546-2.062-1.546S4.125,12.058,4.125,11.2s.924-1.547,2.063-1.547a2.224,2.224,0,0,1,1.858.875"/><line class="a" x1="6.188" y1="15.844" x2="6.188" y2="16.875"/><line class="a" x1="6.188" y1="8.625" x2="6.188" y2="9.656"/><rect class="a" x="11.25" y="13.875" width="12" height="9" rx="1.5" ry="1.5"/><line class="a" x1="11.25" y1="16.875" x2="23.25" y2="16.875"/><line class="a" x1="20.25" y1="19.875" x2="18.75" y2="19.875"/></svg>