<svg xmlns="http://www.w3.org/2000/svg" viewBox="0 0 24 24"><defs><style>.a{fill:none;stroke:currentColor;stroke-linecap:round;stroke-linejoin:round;stroke-width:1.5px;}</style></defs><title>credit-card-monitor-payment</title><rect class="a" x="11.25" y="14.25" width="12" height="9" rx="1.5" ry="1.5"/><line class="a" x1="11.25" y1="17.25" x2="23.25" y2="17.25"/><path class="a" d="M8.25,14.25H2.4A1.669,1.669,0,0,1,.75,12.563V2.438A1.669,1.669,0,0,1,2.4.75H17.1a1.669,1.669,0,0,1,1.65,1.688V10.5"/><line class="a" x1="8.25" y1="14.25" x2="8.25" y2="17.25"/><line class="a" x1="6" y1="17.25" x2="8.25" y2="17.25"/><path class="a" d="M8.079,9.344a2.225,2.225,0,0,0,1.859.875c1.138,0,2.062-.693,2.062-1.547s-.924-1.546-2.062-1.546S7.875,6.433,7.875,5.578,8.8,4.031,9.938,4.031a2.224,2.224,0,0,1,1.858.875"/><line class="a" x1="9.938" y1="10.219" x2="9.938" y2="11.25"/><line class="a" x1="9.938" y1="3" x2="9.938" y2="4.031"/><line class="a" x1="20.25" y1="20.25" x2="18.75" y2="20.25"/></svg>