<svg xmlns="http://www.w3.org/2000/svg" viewBox="0 0 24 24"><defs><style>.a{fill:none;stroke:currentColor;stroke-linecap:round;stroke-linejoin:round;stroke-width:1.5px;}</style></defs><title>crime-seal-forfeit</title><polyline class="a" points="21.75 18.75 23.25 23.25 0.75 23.25 2.25 18.75"/><path class="a" d="M15,18.75c0,.828-1.343,1.5-3,1.5s-3-.672-3-1.5"/><path class="a" d="M18.75,15.75H5.25a1.5,1.5,0,0,1-1.5-1.5v-1.5h16.5v1.5A1.5,1.5,0,0,1,18.75,15.75Z"/><path class="a" d="M18.75,8.25h-3.4a4.5,4.5,0,1,0-6.706,0H5.25a3,3,0,0,0-3,3,1.5,1.5,0,0,0,1.5,1.5h16.5a1.5,1.5,0,0,0,1.5-1.5A3,3,0,0,0,18.75,8.25Z"/></svg>