<svg xmlns="http://www.w3.org/2000/svg" viewBox="0 0 24 24"><defs><style>.a{fill:none;stroke:currentColor;stroke-linecap:round;stroke-linejoin:round;stroke-width:1.5px;}</style></defs><title>crime-wanted</title><rect class="a" x="0.75" y="0.75" width="22.5" height="22.5" rx="2" ry="2"/><circle class="a" cx="12" cy="6.375" r="2.625"/><path class="a" d="M16.243,12.75a4.5,4.5,0,0,0-8.486,0"/><line class="a" x1="3.75" y1="12.75" x2="20.25" y2="12.75"/><path class="a" d="M3.75,15.75H4.5a.75.75,0,0,1,.75.75v3.75"/><line class="a" x1="3.75" y1="20.25" x2="6.75" y2="20.25"/><path class="a" d="M12.75,18.75a1.5,1.5,0,0,1-3,0v-1.5a1.5,1.5,0,0,1,3,0Z"/><path class="a" d="M18.75,18.75a1.5,1.5,0,0,1-3,0v-1.5a1.5,1.5,0,0,1,3,0Z"/></svg>