<svg xmlns="http://www.w3.org/2000/svg" viewBox="0 0 24 24"><defs><style>.a{fill:none;stroke:currentColor;stroke-linecap:round;stroke-linejoin:round;stroke-width:1.5px;}</style></defs><title>crime-robber</title><circle class="a" cx="12.273" cy="3.391" r="2.641"/><path class="a" d="M12.4,12.342l2.09-1.393,1.742,2.906L14.421,16.1a1.321,1.321,0,0,0,0,1.868l2.641,2.641a1.321,1.321,0,1,0,1.868-1.867l-1.446-1.517,1.823-2.263,2.935,2.454a1.321,1.321,0,0,0,.732.221,1.281,1.281,0,0,0,.276-.029"/><path class="a" d="M23.25,6.082,19.907,4.411a1.32,1.32,0,0,0-1.323.083L11.25,9.306"/><polyline class="a" points="23.25 14.25 18.115 8.499 19.61 7.424 23.25 9.169"/><path class="a" d="M7.05,15.9H5.627a.939.939,0,0,0-.349,1.811l1.444.578A.939.939,0,0,1,6.373,20.1H4.95"/><line class="a" x1="6" y1="15.9" x2="6" y2="15.375"/><line class="a" x1="6" y1="20.625" x2="6" y2="20.1"/><path class="a" d="M7.313,13.187,8.688,10.78a.437.437,0,0,0-.379-.655H3.691a.437.437,0,0,0-.379.655l1.376,2.407C4,13.639.75,14.861.75,18.437A4.976,4.976,0,0,0,5.927,23.25c2.779,0,5.323-2.034,5.323-4.813C11.25,15,8.067,13.772,7.313,13.187Z"/></svg>