<svg xmlns="http://www.w3.org/2000/svg" viewBox="0 0 24 24"><defs><style>.a{fill:none;stroke:currentColor;stroke-linecap:round;stroke-linejoin:round;stroke-width:1.5px;}</style></defs><title>crime-razor</title><line class="a" x1="0.75" y1="23.25" x2="23.25" y2="23.25"/><path class="a" d="M21.75,20.25a3,3,0,0,0-5.062-2.178,4.5,4.5,0,0,0-7.541-.518,4.535,4.535,0,0,0-1.647-.3c-2.071,0-3.75,1.343-3.75,3"/><polygon class="a" points="18.75 0.75 18.75 3.75 21.75 2.25 21.75 9.75 18.75 8.25 18.75 11.25 6.75 11.25 6.75 8.25 3.75 9.75 3.75 2.25 6.75 3.75 6.75 0.75 18.75 0.75"/><line class="a" x1="9.75" y1="6" x2="15.75" y2="6"/><line class="a" x1="11.25" y1="4.5" x2="11.25" y2="7.5"/><line class="a" x1="14.25" y1="4.5" x2="14.25" y2="7.5"/></svg>