<svg xmlns="http://www.w3.org/2000/svg" viewBox="0 0 24 24"><defs><style>.a{fill:none;stroke:currentColor;stroke-linecap:round;stroke-linejoin:round;stroke-width:1.5px;}</style></defs><title>crime-man-riot-1</title><path class="a" d="M7.476,3.334A8.711,8.711,0,0,0,13.75,6,8.709,8.709,0,0,0,17.2,5.289"/><path class="a" d="M8.348,9.907,7.664,8.96a5.25,5.25,0,1,1,8.672,0l-.684.947"/><path class="a" d="M21.75,23.25a9.73,9.73,0,0,0-3.659-7.614"/><path class="a" d="M5.909,15.636A9.73,9.73,0,0,0,2.25,23.25"/><path class="a" d="M12,19.5c.75,0,4.5-4.5,4.5-9,0,0-3-2.25-4.5-2.25S7.5,10.5,7.5,10.5C7.5,15,11.25,19.5,12,19.5Z"/></svg>