<svg xmlns="http://www.w3.org/2000/svg" viewBox="0 0 24 24"><defs><style>.a{fill:none;stroke:currentColor;stroke-linecap:round;stroke-linejoin:round;stroke-width:1.5px;}</style></defs><title>crypto-currency-bitcoin-code</title><path class="a" d="M1.5.75h.75A.75.75,0,0,1,3,1.5V6.75"/><line class="a" x1="1.5" y1="6.75" x2="4.5" y2="6.75"/><path class="a" d="M10.5,5.25a1.5,1.5,0,0,1-3,0v-3a1.5,1.5,0,0,1,3,0Z"/><path class="a" d="M13.5.75h.75A.75.75,0,0,1,15,1.5V6.75"/><line class="a" x1="13.5" y1="6.75" x2="16.5" y2="6.75"/><path class="a" d="M22.5,5.25a1.5,1.5,0,0,1-3,0v-3a1.5,1.5,0,0,1,3,0Z"/><path class="a" d="M15,9a1.5,1.5,0,0,1,1.5,1.5V12"/><path class="a" d="M19.5,9h.75a.75.75,0,0,1,.75.75V15"/><line class="a" x1="19.5" y1="15" x2="22.5" y2="15"/><path class="a" d="M22.5,21.75a1.5,1.5,0,0,1-3,0v-3a1.5,1.5,0,0,1,3,0Z"/><line class="a" x1="6.75" y1="15.75" x2="9.25" y2="15.75"/><line class="a" x1="8.25" y1="12.75" x2="8.25" y2="12"/><line class="a" x1="8.25" y1="18.75" x2="8.25" y2="19.5"/><path class="a" d="M9.25,12.75a1.393,1.393,0,0,1,1.25,1.5,1.393,1.393,0,0,1-1.25,1.5,1.393,1.393,0,0,1,1.25,1.5,1.393,1.393,0,0,1-1.25,1.5H6.75v-6Z"/><circle class="a" cx="8.25" cy="15.75" r="6.75"/><line class="a" x1="15" y1="21.75" x2="15" y2="23.25"/><line class="a" x1="13.5" y1="23.25" x2="16.5" y2="23.25"/></svg>