<svg xmlns="http://www.w3.org/2000/svg" viewBox="0 0 24 24"><defs><style>.a{fill:none;stroke:currentColor;stroke-linecap:round;stroke-linejoin:round;stroke-width:1.5px;}</style></defs><title>crypto-currency-bitcoin-laptop</title><path class="a" d="M6.75,5.25h-3a1.5,1.5,0,0,0-1.5,1.5v10.5h19.5V6.75a1.5,1.5,0,0,0-1.5-1.5H18"/><path class="a" d="M23.205,21.386A1.5,1.5,0,0,1,21.75,23.25H2.25A1.5,1.5,0,0,1,.8,21.386L2.25,17.25h19.5Z"/><line class="a" x1="11.25" y1="20.25" x2="13.5" y2="20.25"/><path class="a" d="M12.75,11.25a2.25,2.25,0,0,0,0-4.5,2.25,2.25,0,0,0,0-4.5h-3v9Z"/><line class="a" x1="9.75" y1="6.75" x2="12.937" y2="6.75"/><line class="a" x1="12" y1="2.25" x2="12" y2="0.75"/><line class="a" x1="12" y1="12.75" x2="12" y2="11.25"/></svg>