<svg xmlns="http://www.w3.org/2000/svg" viewBox="0 0 24 24"><defs><style>.a{fill:none;stroke:currentColor;stroke-linecap:round;stroke-linejoin:round;stroke-width:1.5px;}</style></defs><title>crypto-currency-bitcoin-coins</title><circle class="a" cx="17.25" cy="16.5" r="6"/><path class="a" d="M15.75,19.5v-6H18a1.5,1.5,0,0,1,0,3,1.5,1.5,0,0,1,0,3Z"/><line class="a" x1="15.75" y1="16.5" x2="18" y2="16.5"/><line class="a" x1="17.25" y1="13.5" x2="17.25" y2="12.75"/><line class="a" x1="17.25" y1="19.5" x2="17.25" y2="20.25"/><ellipse class="a" cx="6.75" cy="4.5" rx="6" ry="3"/><path class="a" d="M12.75,7.5c0,1.657-2.686,3-6,3s-6-1.343-6-3"/><line class="a" x1="12.75" y1="9" x2="12.75" y2="4.5"/><path class="a" d="M.75,4.5v15c0,1.657,2.686,3,6,3A11.284,11.284,0,0,0,9,22.277"/><path class="a" d="M.75,16.5c0,1.657,2.686,3,6,3A11.284,11.284,0,0,0,9,19.277"/><path class="a" d="M.75,13.5c0,1.657,2.686,3,6,3A11.284,11.284,0,0,0,9,16.277"/><path class="a" d="M.75,10.5c0,1.657,2.686,3,6,3A11.284,11.284,0,0,0,9,13.277"/></svg>