<svg xmlns="http://www.w3.org/2000/svg" viewBox="0 0 24 24"><defs><style>.a{fill:none;stroke:currentColor;stroke-linecap:round;stroke-linejoin:round;stroke-width:1.5px;}</style></defs><title>crypto-currency-peercoin</title><circle class="a" cx="12" cy="12" r="11.25"/><path class="a" d="M18.75,9.375A4.125,4.125,0,0,1,14.625,13.5H10.5V5.25h4.125A4.125,4.125,0,0,1,18.75,9.375Z"/><line class="a" x1="10.5" y1="13.5" x2="10.5" y2="19.159"/><path class="a" d="M7.5,19.159V6.535A1.189,1.189,0,0,1,8.659,5.25H10.5"/><line class="a" x1="6" y1="16.5" x2="12" y2="16.5"/><path class="a" d="M13.914,10.84a1.561,1.561,0,0,1-.645-1.266V7.727a2.561,2.561,0,0,1,2.412,1.7A1.206,1.206,0,0,1,13.914,10.84Z"/></svg>