<svg xmlns="http://www.w3.org/2000/svg" viewBox="0 0 24 24"><defs><style>.a{fill:none;stroke:currentColor;stroke-linecap:round;stroke-linejoin:round;stroke-width:1.5px;}</style></defs><title>crypto-currency-bitcoin-monitor</title><line class="a" x1="7.5" y1="23.25" x2="16.5" y2="23.25"/><line class="a" x1="0.75" y1="15.75" x2="23.25" y2="15.75"/><path class="a" d="M18,2.25h3.75a1.5,1.5,0,0,1,1.5,1.5V18a1.5,1.5,0,0,1-1.5,1.5H2.25A1.5,1.5,0,0,1,.75,18V3.75a1.5,1.5,0,0,1,1.5-1.5H6"/><path class="a" d="M12.75,11.25a2.25,2.25,0,0,0,0-4.5,2.25,2.25,0,0,0,0-4.5h-3v9Z"/><line class="a" x1="9.75" y1="6.75" x2="12.937" y2="6.75"/><line class="a" x1="12" y1="2.25" x2="12" y2="0.75"/><line class="a" x1="12" y1="12.75" x2="12" y2="11.25"/><line class="a" x1="12" y1="19.5" x2="12" y2="23.25"/></svg>