<svg xmlns="http://www.w3.org/2000/svg" viewBox="0 0 24 24"><defs><style>.a{fill:none;stroke:currentColor;stroke-linecap:round;stroke-linejoin:round;stroke-width:1.5px;}</style></defs><title>crypto-currency-bitcoin-world</title><path class="a" d="M10.5,23.151A11.251,11.251,0,1,1,23.151,10.5"/><path class="a" d="M9.289,22.921C7.767,20.689,6.75,16.633,6.75,12S7.767,3.311,9.289,1.079"/><line class="a" x1="0.75" y1="11.25" x2="9.75" y2="11.25"/><line class="a" x1="2.999" y1="5.25" x2="21" y2="5.25"/><line class="a" x1="2.048" y1="17.25" x2="8.25" y2="17.25"/><path class="a" d="M14.711,1.079A17.011,17.011,0,0,1,17.019,8.25"/><circle class="a" cx="17.25" cy="17.25" r="6"/><path class="a" d="M15.75,20.25v-6H18a1.5,1.5,0,0,1,0,3,1.5,1.5,0,0,1,0,3Z"/><line class="a" x1="15.75" y1="17.25" x2="18" y2="17.25"/><line class="a" x1="17.25" y1="14.25" x2="17.25" y2="13.5"/><line class="a" x1="17.25" y1="20.25" x2="17.25" y2="21"/></svg>