<svg xmlns="http://www.w3.org/2000/svg" viewBox="0 0 24 24"><defs><style>.a{fill:none;stroke:currentColor;stroke-linecap:round;stroke-linejoin:round;stroke-width:1.5px;}</style></defs><title>crypto-currency-bitcoin-decrease</title><polyline class="a" points="22.5 18.75 22.5 23.25 18 23.25"/><path class="a" d="M22.5,23.25,17.45,18.2a2.252,2.252,0,0,0-2.237-.565L9.5,19.161a2.249,2.249,0,0,1-2.172-.582L1.5,12.746"/><path class="a" d="M3.148,9.739A7.5,7.5,0,1,1,15,14.253"/><path class="a" d="M9,11.25v-6h2.25a1.5,1.5,0,0,1,0,3,1.5,1.5,0,0,1,0,3Z"/><line class="a" x1="9" y1="8.25" x2="11.25" y2="8.25"/><line class="a" x1="10.5" y1="5.25" x2="10.5" y2="3.75"/><line class="a" x1="10.5" y1="11.25" x2="10.5" y2="12.75"/></svg>