<svg xmlns="http://www.w3.org/2000/svg" viewBox="0 0 24 24"><defs><style>.a{fill:none;stroke:currentColor;stroke-linecap:round;stroke-linejoin:round;stroke-width:1.5px;}</style></defs><title>crypto-currency-bitcoin-exhcange</title><path class="a" d="M16.684,10.5a6,6,0,1,0-9.368,0"/><path class="a" d="M10.5,9.75v-6h2.25a1.5,1.5,0,0,1,0,3,1.5,1.5,0,0,1,0,3Z"/><line class="a" x1="10.5" y1="6.75" x2="12.75" y2="6.75"/><line class="a" x1="12" y1="3.75" x2="12" y2="3"/><line class="a" x1="12" y1="9.75" x2="12" y2="10.5"/><rect class="a" x="0.75" y="13.5" width="9.75" height="6.75" rx="1.5" ry="1.5"/><line class="a" x1="3" y1="23.25" x2="8.25" y2="23.25"/><line class="a" x1="5.625" y1="20.25" x2="5.625" y2="23.25"/><rect class="a" x="13.5" y="13.5" width="9.75" height="6.75" rx="1.5" ry="1.5"/><line class="a" x1="15.75" y1="23.25" x2="21" y2="23.25"/><line class="a" x1="18.375" y1="20.25" x2="18.375" y2="23.25"/></svg>