<svg xmlns="http://www.w3.org/2000/svg" viewBox="0 0 24 24"><defs><style>.a{fill:none;stroke:currentColor;stroke-linecap:round;stroke-linejoin:round;stroke-width:1.5px;}</style></defs><title>crypto-currency-bitcoin-shield</title><line class="a" x1="9" y1="10.5" x2="13.5" y2="10.5"/><line class="a" x1="12" y1="6" x2="12" y2="4.5"/><line class="a" x1="12" y1="15" x2="12" y2="16.5"/><path class="a" d="M13.5,6a2.25,2.25,0,0,1,0,4.5,2.25,2.25,0,0,1,0,4.5H9V6Z"/><path class="a" d="M23.25,9.938A13.5,13.5,0,0,1,12,23.25,13.5,13.5,0,0,1,.75,9.938V2.25A1.5,1.5,0,0,1,2.25.75h19.5a1.5,1.5,0,0,1,1.5,1.5Z"/></svg>