<svg xmlns="http://www.w3.org/2000/svg" viewBox="0 0 24 24"><defs><style>.a{fill:none;stroke:currentColor;stroke-linecap:round;stroke-linejoin:round;stroke-width:1.5px;}</style></defs><title>crypto-currency-bitcoin-dollar-unequal-1</title><line class="a" x1="0.75" y1="6.75" x2="5.25" y2="6.75"/><line class="a" x1="3.75" y1="2.25" x2="3.75" y2="0.75"/><line class="a" x1="3.75" y1="11.25" x2="3.75" y2="12.75"/><path class="a" d="M5.25,2.25a2.25,2.25,0,0,1,0,4.5,2.25,2.25,0,0,1,0,4.5H.75v-9Z"/><polygon class="a" points="12 18 7.5 23.25 16.5 23.25 12 18"/><line class="a" x1="23.25" y1="21" x2="0.75" y2="15"/><path class="a" d="M22.5,6H18.581a2.081,2.081,0,0,0-.452,4.112l3.492.776A2.081,2.081,0,0,1,21.169,15H17.25"/><line class="a" x1="19.5" y1="6" x2="19.5" y2="4.5"/><line class="a" x1="19.5" y1="16.5" x2="19.5" y2="15"/></svg>