<svg xmlns="http://www.w3.org/2000/svg" viewBox="0 0 24 24"><defs><style>.a{fill:none;stroke:currentColor;stroke-linecap:round;stroke-linejoin:round;stroke-width:1.5px;}</style></defs><title>crypto-currency-bitcoin-dollar-equal</title><line class="a" x1="0.75" y1="7.5" x2="5.25" y2="7.5"/><line class="a" x1="3.75" y1="3" x2="3.75" y2="1.5"/><line class="a" x1="3.75" y1="12" x2="3.75" y2="13.5"/><path class="a" d="M5.25,3a2.25,2.25,0,0,1,0,4.5,2.25,2.25,0,0,1,0,4.5H.75V3Z"/><polygon class="a" points="12 17.25 7.5 22.5 16.5 22.5 12 17.25"/><line class="a" x1="0.75" y1="16.5" x2="23.25" y2="16.5"/><path class="a" d="M22.5,3H18.581a2.081,2.081,0,0,0-.452,4.112l3.492.776A2.081,2.081,0,0,1,21.169,12H17.25"/><line class="a" x1="19.5" y1="3" x2="19.5" y2="1.5"/><line class="a" x1="19.5" y1="13.5" x2="19.5" y2="12"/></svg>