<svg xmlns="http://www.w3.org/2000/svg" viewBox="0 0 24 24"><defs><style>.a{fill:none;stroke:currentColor;stroke-linecap:round;stroke-linejoin:round;stroke-width:1.5px;}</style></defs><title>crypto-currency-bitcoin-stack-coins</title><circle class="a" cx="17.25" cy="15" r="6"/><path class="a" d="M15.75,18V12H18a1.5,1.5,0,0,1,0,3,1.5,1.5,0,0,1,0,3Z"/><line class="a" x1="15.75" y1="15" x2="18" y2="15"/><line class="a" x1="17.25" y1="12" x2="17.25" y2="11.25"/><line class="a" x1="17.25" y1="18" x2="17.25" y2="18.75"/><path class="a" d="M8.25,16.5H3a.75.75,0,0,0-.75.75v3A.75.75,0,0,0,3,21h7.5"/><path class="a" d="M9,12H4.5a.75.75,0,0,0-.75.75v3a.75.75,0,0,0,.75.75H8.25"/><path class="a" d="M11.25,7.5H1.5a.75.75,0,0,0-.75.75v3A.75.75,0,0,0,1.5,12H9"/><path class="a" d="M14.25,6.75v-3A.75.75,0,0,0,13.5,3H3a.75.75,0,0,0-.75.75v3A.75.75,0,0,0,3,7.5"/></svg>