<svg xmlns="http://www.w3.org/2000/svg" viewBox="0 0 24 24"><defs><style>.a{fill:none;stroke:currentColor;stroke-linecap:round;stroke-linejoin:round;stroke-width:1.5px;}</style></defs><title>crypto-currency-bitcoin-monitor-mining</title><path class="a" d="M6,6.75H1.5A.75.75,0,0,1,.75,6V1.5A.75.75,0,0,1,1.5.75h6a.75.75,0,0,1,.75.75v3"/><path class="a" d="M8.25,19.5v3a.75.75,0,0,1-.75.75h-6a.75.75,0,0,1-.75-.75V18a.75.75,0,0,1,.75-.75H6"/><path class="a" d="M15.75,4.5v-3A.75.75,0,0,1,16.5.75h6a.75.75,0,0,1,.75.75V6a.75.75,0,0,1-.75.75H18"/><path class="a" d="M18,17.25h4.5a.75.75,0,0,1,.75.75v4.5a.75.75,0,0,1-.75.75h-6a.75.75,0,0,1-.75-.75v-3"/><line class="a" x1="11.25" y1="3" x2="12.75" y2="3"/><line class="a" x1="11.25" y1="21.75" x2="12.75" y2="21.75"/><line class="a" x1="3.75" y1="9.75" x2="3.75" y2="10.5"/><line class="a" x1="3.75" y1="13.5" x2="3.75" y2="14.25"/><line class="a" x1="20.25" y1="9.75" x2="20.25" y2="10.5"/><line class="a" x1="20.25" y1="13.5" x2="20.25" y2="14.25"/><path class="a" d="M12.75,16.5a2.25,2.25,0,0,0,0-4.5,2.25,2.25,0,0,0,0-4.5h-3v9Z"/><line class="a" x1="9.75" y1="12" x2="12.937" y2="12"/><line class="a" x1="12" y1="7.5" x2="12" y2="6"/><line class="a" x1="12" y1="18" x2="12" y2="16.5"/></svg>