<svg xmlns="http://www.w3.org/2000/svg" viewBox="0 0 24 24"><defs><style>.a{fill:none;stroke:currentColor;stroke-linecap:round;stroke-linejoin:round;stroke-width:1.5px;}</style></defs><title>crypto-currency-bitcoin-bill</title><path class="a" d="M22.5,12a4.5,4.5,0,0,0-3-4.243V6A1.5,1.5,0,0,0,18,4.5H6A1.5,1.5,0,0,0,4.5,6V7.757a4.5,4.5,0,0,0,0,8.486V18A1.5,1.5,0,0,0,6,19.5H18A1.5,1.5,0,0,0,19.5,18V16.243A4.5,4.5,0,0,0,22.5,12Z"/><path class="a" d="M10.5,15V9h2.25a1.5,1.5,0,0,1,0,3,1.5,1.5,0,0,1,0,3Z"/><line class="a" x1="10.5" y1="12" x2="12.75" y2="12"/><line class="a" x1="12" y1="9" x2="12" y2="7.5"/><line class="a" x1="12" y1="15" x2="12" y2="16.5"/></svg>