<svg xmlns="http://www.w3.org/2000/svg" viewBox="0 0 24 24"><defs><style>.a{fill:none;stroke:currentColor;stroke-linecap:round;stroke-linejoin:round;stroke-width:1.5px;}</style></defs><title>crypto-currency-bitcoin-dollar-exchange</title><path class="a" d="M18.75,3.75H16.717a1.342,1.342,0,0,0-.5,2.587l2.064.826a1.342,1.342,0,0,1-.5,2.587H17.25"/><line class="a" x1="17.25" y1="3.75" x2="17.25" y2="3"/><path class="a" d="M18.03,12.7A6,6,0,1,0,11.3,5.958"/><path class="a" d="M15.75,15.75a7.5,7.5,0,0,0-7.5-7.5"/><path class="a" d="M2.25,11.25a7.5,7.5,0,1,0,12.5,8.25"/><path class="a" d="M6.75,18.75v-6H9a1.5,1.5,0,0,1,0,3,1.5,1.5,0,0,1,0,3Z"/><line class="a" x1="6.75" y1="15.75" x2="9" y2="15.75"/><line class="a" x1="8.25" y1="12.75" x2="8.25" y2="11.25"/><line class="a" x1="8.25" y1="18.75" x2="8.25" y2="20.25"/><polyline class="a" points="0.75 4.5 3 8.25 6.75 6"/><path class="a" d="M8.189.9A6.752,6.752,0,0,0,3.772,7.786"/><polyline class="a" points="23.25 19.5 21 15.75 17.25 18"/><path class="a" d="M15.811,23.1a6.752,6.752,0,0,0,4.417-6.884"/></svg>