<svg xmlns="http://www.w3.org/2000/svg" viewBox="0 0 24 24"><defs><style>.a{fill:none;stroke:currentColor;stroke-linecap:round;stroke-linejoin:round;stroke-width:1.5px;}</style></defs><title>crypto-currency-bitcoin-wallet-open</title><path class="a" d="M16.48,18h2.14a3.108,3.108,0,0,0,3.15-3.047v-3.7"/><path class="a" d="M2.94,5.394,13.888,8.505A3.769,3.769,0,0,1,16.48,12v9.01a2.052,2.052,0,0,1-2.6,2.167l-9.049-2.46a3.7,3.7,0,0,1-2.6-3.457V7.312A2.752,2.752,0,0,1,4.9,4.5H14.27"/><circle class="a" cx="11.98" cy="16.5" r="1.5"/><path class="a" d="M17.27,7.5v-6h2.25a1.5,1.5,0,0,1,0,3,1.5,1.5,0,0,1,0,3Z"/><line class="a" x1="17.27" y1="4.5" x2="19.52" y2="4.5"/><line class="a" x1="18.77" y1="1.5" x2="18.77" y2="0.75"/><line class="a" x1="18.77" y1="7.5" x2="18.77" y2="8.25"/></svg>