<svg xmlns="http://www.w3.org/2000/svg" viewBox="0 0 24 24"><defs><style>.a{fill:none;stroke:currentColor;stroke-linecap:round;stroke-linejoin:round;stroke-width:1.5px;}</style></defs><title>crypto-currency-bitcoin-chip</title><path class="a" d="M10.5,15V9h2.25a1.5,1.5,0,0,1,0,3,1.5,1.5,0,0,1,0,3Z"/><line class="a" x1="10.5" y1="12" x2="12.75" y2="12"/><line class="a" x1="12" y1="9" x2="12" y2="7.5"/><line class="a" x1="12" y1="15" x2="12" y2="16.5"/><line class="a" x1="7.5" y1="4.5" x2="7.5" y2="1.5"/><line class="a" x1="12" y1="4.5" x2="12" y2="1.5"/><line class="a" x1="16.5" y1="4.5" x2="16.5" y2="1.5"/><line class="a" x1="7.5" y1="22.5" x2="7.5" y2="19.5"/><line class="a" x1="12" y1="22.5" x2="12" y2="19.5"/><line class="a" x1="16.5" y1="22.5" x2="16.5" y2="19.5"/><line class="a" x1="19.5" y1="7.5" x2="22.5" y2="7.5"/><line class="a" x1="19.5" y1="12" x2="22.5" y2="12"/><line class="a" x1="19.5" y1="16.5" x2="22.5" y2="16.5"/><line class="a" x1="1.5" y1="7.5" x2="4.5" y2="7.5"/><line class="a" x1="1.5" y1="12" x2="4.5" y2="12"/><line class="a" x1="1.5" y1="16.5" x2="4.5" y2="16.5"/><rect class="a" x="4.5" y="4.5" width="15" height="15" rx="3" ry="3"/></svg>