<svg xmlns="http://www.w3.org/2000/svg" viewBox="0 0 24 24"><defs><style>.a{fill:none;stroke:currentColor;stroke-linecap:round;stroke-linejoin:round;stroke-width:1.5px;}</style></defs><title>crypto-currency-bitcoin-cloud-sync</title><polyline class="a" points="0.75 15.75 3.75 12.75 6.75 15.75"/><path class="a" d="M3.75,12.75v6a1.5,1.5,0,0,0,1.5,1.5h3"/><path class="a" d="M12,3.75A2.982,2.982,0,0,0,9.708,4.835,4.489,4.489,0,1,0,5.25,9.75H12a3,3,0,0,0,0-6Z"/><circle class="a" cx="17.25" cy="17.25" r="6"/><path class="a" d="M15.75,20.25v-6H18a1.5,1.5,0,0,1,0,3,1.5,1.5,0,0,1,0,3Z"/><line class="a" x1="15.75" y1="17.25" x2="18" y2="17.25"/><line class="a" x1="17.25" y1="14.25" x2="17.25" y2="13.5"/><line class="a" x1="17.25" y1="20.25" x2="17.25" y2="21"/></svg>