<svg xmlns="http://www.w3.org/2000/svg" viewBox="0 0 24 24"><defs><style>.a{fill:none;stroke:currentColor;stroke-linecap:round;stroke-linejoin:round;stroke-width:1.5px;}</style></defs><title>crypto-currency-bitcoin-monitor-shield</title><path class="a" d="M21.75,5.25a1.5,1.5,0,0,1,1.5,1.5V18a1.5,1.5,0,0,1-1.5,1.5H2.25A1.5,1.5,0,0,1,.75,18V6.75a1.5,1.5,0,0,1,1.5-1.5"/><path class="a" d="M18.75,9A7.854,7.854,0,0,1,12,16.5,7.854,7.854,0,0,1,5.25,9V2.25A1.5,1.5,0,0,1,6.75.75h10.5a1.5,1.5,0,0,1,1.5,1.5Z"/><line class="a" x1="8.25" y1="23.25" x2="15.75" y2="23.25"/><line class="a" x1="12" y1="19.5" x2="12" y2="23.25"/><path class="a" d="M10.5,10.5v-6h2.25a1.5,1.5,0,0,1,0,3,1.5,1.5,0,0,1,0,3Z"/><line class="a" x1="10.5" y1="7.5" x2="12.75" y2="7.5"/><line class="a" x1="12" y1="4.5" x2="12" y2="3.75"/><line class="a" x1="12" y1="10.5" x2="12" y2="11.25"/></svg>