<svg xmlns="http://www.w3.org/2000/svg" viewBox="0 0 24 24"><defs><style>.a{fill:none;stroke:currentColor;stroke-linecap:round;stroke-linejoin:round;stroke-width:1.5px;}</style></defs><title>cryptho-currency-megacoin</title><circle class="a" cx="12" cy="12" r="11.25"/><path class="a" d="M5.75,9.75H7A1.25,1.25,0,0,1,8.25,11v3.5a.5.5,0,0,1-.5.5H5a.5.5,0,0,1-.5-.5V11A1.25,1.25,0,0,1,5.75,9.75Z"/><path class="a" d="M11.75,9.75H13A1.25,1.25,0,0,1,14.25,11v3.5a.5.5,0,0,1-.5.5H11a.5.5,0,0,1-.5-.5V11a1.25,1.25,0,0,1,1.25-1.25Z"/><path class="a" d="M17.75,9.75H19A1.25,1.25,0,0,1,20.25,11v3.5a.5.5,0,0,1-.5.5H17a.5.5,0,0,1-.5-.5V11a1.25,1.25,0,0,1,1.25-1.25Z"/></svg>