<svg xmlns="http://www.w3.org/2000/svg" viewBox="0 0 24 24"><defs><style>.a{fill:none;stroke:currentColor;stroke-linecap:round;stroke-linejoin:round;stroke-width:1.5px;}</style></defs><title>crypto-currency-bitcoin-give</title><line class="a" x1="0.75" y1="14.25" x2="0.75" y2="23.25"/><path class="a" d="M.75,21.75h16.5a3,3,0,0,0-3-3H10.5a3,3,0,0,0-3-3H.75"/><line class="a" x1="6.75" y1="18.75" x2="10.5" y2="18.75"/><path class="a" d="M18.56,17.653A9,9,0,1,0,5.551,12.114"/><path class="a" d="M15,14.25a2.25,2.25,0,0,0,0-4.5,2.25,2.25,0,0,0,0-4.5H12v9Z"/><line class="a" x1="12" y1="9.75" x2="15.188" y2="9.75"/><line class="a" x1="14.25" y1="5.25" x2="14.25" y2="3.75"/><line class="a" x1="14.25" y1="15.75" x2="14.25" y2="14.25"/></svg>