<svg xmlns="http://www.w3.org/2000/svg" viewBox="0 0 24 24"><defs><style>.a{fill:none;stroke:currentColor;stroke-linecap:round;stroke-linejoin:round;stroke-width:1.5px;}</style></defs><title>crypto-currency-bitcoin-network</title><path class="a" d="M12,23.25A11.25,11.25,0,0,1,12,.75"/><line class="a" x1="1.398" y1="8.25" x2="11.25" y2="8.25"/><line class="a" x1="1.402" y1="15.75" x2="11.25" y2="15.75"/><path class="a" d="M12,23.25c-2.9,0-5.25-5.037-5.25-11.25S9.1.75,12,.75"/><path class="a" d="M23.25,8.625A3.375,3.375,0,0,1,19.875,12H14.25V5.25h5.625A3.375,3.375,0,0,1,23.25,8.625Z"/><path class="a" d="M23.25,15.375a3.375,3.375,0,0,1-3.375,3.375H14.25V12h5.625A3.375,3.375,0,0,1,23.25,15.375Z"/><line class="a" x1="16.5" y1="5.25" x2="16.5" y2="3"/><line class="a" x1="19.5" y1="5.25" x2="19.5" y2="3"/><line class="a" x1="16.5" y1="21" x2="16.5" y2="18.75"/><line class="a" x1="19.5" y1="21" x2="19.5" y2="18.75"/></svg>