<svg xmlns="http://www.w3.org/2000/svg" viewBox="0 0 24 24"><defs><style>.a{fill:none;stroke:currentColor;stroke-linecap:round;stroke-linejoin:round;stroke-width:1.5px;}</style></defs><title>crypto-currency-bitcoin-browser</title><path class="a" d="M18.75,19.5h3a1.5,1.5,0,0,0,1.5-1.5V3a1.5,1.5,0,0,0-1.5-1.5H2.25A1.5,1.5,0,0,0,.75,3V18a1.5,1.5,0,0,0,1.5,1.5H6"/><line class="a" x1="0.75" y1="6" x2="23.25" y2="6"/><line class="a" x1="9" y1="15.75" x2="13.5" y2="15.75"/><line class="a" x1="13.5" y1="11.25" x2="13.5" y2="9"/><line class="a" x1="13.5" y1="20.25" x2="13.5" y2="22.5"/><line class="a" x1="10.5" y1="11.25" x2="10.5" y2="9"/><line class="a" x1="10.5" y1="20.25" x2="10.5" y2="22.5"/><path class="a" d="M13.5,11.25a2.25,2.25,0,0,1,0,4.5,2.25,2.25,0,0,1,0,4.5H9v-9Z"/></svg>