<svg xmlns="http://www.w3.org/2000/svg" viewBox="0 0 24 24"><defs><style>.a{fill:none;stroke:currentColor;stroke-linecap:round;stroke-linejoin:round;stroke-width:1.5px;}</style></defs><title>crypto-currency-bitcoin-monitor-mining-1</title><line class="a" x1="9" y1="21" x2="15" y2="21"/><line class="a" x1="12" y1="17.25" x2="12" y2="21"/><path class="a" d="M17.25,8.25a1.5,1.5,0,0,1,1.5,1.5v6a1.5,1.5,0,0,1-1.5,1.5H6.75a1.5,1.5,0,0,1-1.5-1.5v-6a1.5,1.5,0,0,1,1.5-1.5"/><circle class="a" cx="2.25" cy="2.25" r="1.5"/><line class="a" x1="3.311" y1="3.311" x2="4.875" y2="4.875"/><circle class="a" cx="21.75" cy="2.25" r="1.5"/><line class="a" x1="20.689" y1="3.311" x2="19.125" y2="4.875"/><circle class="a" cx="2.25" cy="21.75" r="1.5"/><line class="a" x1="3.311" y1="20.689" x2="4.875" y2="19.125"/><circle class="a" cx="21.75" cy="21.75" r="1.5"/><line class="a" x1="20.689" y1="20.689" x2="19.125" y2="19.125"/><path class="a" d="M12.75,12.75a2.25,2.25,0,0,0,0-4.5,2.25,2.25,0,0,0,0-4.5h-3v9Z"/><line class="a" x1="9.75" y1="8.25" x2="12.937" y2="8.25"/><line class="a" x1="12" y1="3.75" x2="12" y2="2.25"/><line class="a" x1="12" y1="14.25" x2="12" y2="12.75"/></svg>