<svg xmlns="http://www.w3.org/2000/svg" viewBox="0 0 24 24"><defs><style>.a{fill:none;stroke:currentColor;stroke-linecap:round;stroke-linejoin:round;stroke-width:1.5px;}</style></defs><title>crypto-currency-bitcoin-unlock</title><path class="a" d="M12.75,21.75a2.25,2.25,0,0,0,0-4.5,2.25,2.25,0,0,0,0-4.5h-3v9Z"/><line class="a" x1="9.75" y1="17.25" x2="12.937" y2="17.25"/><line class="a" x1="12" y1="12.75" x2="12" y2="11.25"/><line class="a" x1="12" y1="23.25" x2="12" y2="21.75"/><path class="a" d="M6.75,23.25h-3a1.5,1.5,0,0,1-1.5-1.5v-12a1.5,1.5,0,0,1,1.5-1.5h16.5a1.5,1.5,0,0,1,1.5,1.5v12a1.5,1.5,0,0,1-1.5,1.5H16.5"/><path class="a" d="M7.3,3.651A5.251,5.251,0,0,1,17.25,6V8.25"/></svg>