<svg xmlns="http://www.w3.org/2000/svg" viewBox="0 0 24 24"><defs><style>.a{fill:none;stroke:currentColor;stroke-linecap:round;stroke-linejoin:round;stroke-width:1.5px;}</style></defs><title>crypto-currency-bitcoin-increase</title><polyline class="a" points="22.5 17.248 22.5 12.748 18 12.748"/><path class="a" d="M22.5,12.748,17.45,17.8a2.252,2.252,0,0,1-2.237.565L9.5,16.837a2.251,2.251,0,0,0-2.172.583L1.5,23.252"/><path class="a" d="M17.852,9.737A7.5,7.5,0,1,0,6,14.251"/><path class="a" d="M9,11.248v-6h2.25a1.5,1.5,0,0,1,0,3,1.5,1.5,0,0,1,0,3Z"/><line class="a" x1="9" y1="8.248" x2="11.25" y2="8.248"/><line class="a" x1="10.5" y1="5.248" x2="10.5" y2="3.748"/><line class="a" x1="10.5" y1="11.248" x2="10.5" y2="12.748"/></svg>