<svg xmlns="http://www.w3.org/2000/svg" viewBox="0 0 24 24"><defs><style>.a{fill:none;stroke:currentColor;stroke-linecap:round;stroke-linejoin:round;stroke-width:1.5px;}</style></defs><title>crypto-currency-bitcoin-bubble</title><path class="a" d="M22.5,12a3.5,3.5,0,0,0-2.443-3.337,3.5,3.5,0,0,0-4.72-4.72,3.5,3.5,0,0,0-6.674,0,3.5,3.5,0,0,0-4.72,4.72,3.5,3.5,0,0,0,0,6.674,3.5,3.5,0,0,0,4.72,4.72,3.5,3.5,0,0,0,6.674,0,3.5,3.5,0,0,0,4.72-4.72A3.5,3.5,0,0,0,22.5,12Z"/><line class="a" x1="9" y1="12" x2="13.5" y2="12"/><line class="a" x1="12" y1="7.5" x2="12" y2="6"/><line class="a" x1="12" y1="16.5" x2="12" y2="18"/><path class="a" d="M13.5,7.5a2.25,2.25,0,0,1,0,4.5,2.25,2.25,0,0,1,0,4.5H9v-9Z"/></svg>