<svg xmlns="http://www.w3.org/2000/svg" viewBox="0 0 24 24"><defs><style>.a{fill:none;stroke:currentColor;stroke-linecap:round;stroke-linejoin:round;stroke-width:1.5px;}</style></defs><title>currency-dollar-increase</title><polyline class="a" points="22.5 17.248 22.5 12.748 18 12.748"/><path class="a" d="M22.5,12.748,17.45,17.8a2.252,2.252,0,0,1-2.237.565L9.5,16.837a2.251,2.251,0,0,0-2.172.583L1.5,23.252"/><path class="a" d="M12,5.252H9.967a1.342,1.342,0,0,0-.5,2.587l2.064.825a1.342,1.342,0,0,1-.5,2.588H9"/><line class="a" x1="10.5" y1="5.252" x2="10.5" y2="4.502"/><line class="a" x1="10.5" y1="12.002" x2="10.5" y2="11.252"/><path class="a" d="M17.852,9.737A7.5,7.5,0,1,0,6,14.251"/></svg>