<svg xmlns="http://www.w3.org/2000/svg" viewBox="0 0 24 24"><defs><style>.a{fill:none;stroke:currentColor;stroke-linecap:round;stroke-linejoin:round;stroke-width:1.5px;}</style></defs><title>currency-euro-bubble</title><path class="a" d="M13.5,16.5C10.6,16.5,9,14.9,9,12s1.6-4.5,4.5-4.5"/><line class="a" x1="7.5" y1="10.5" x2="13.5" y2="10.5"/><line class="a" x1="7.5" y1="13.5" x2="12" y2="13.5"/><path class="a" d="M22.5,12a3.5,3.5,0,0,0-2.443-3.337,3.5,3.5,0,0,0-4.72-4.72,3.5,3.5,0,0,0-6.674,0,3.5,3.5,0,0,0-4.72,4.72,3.5,3.5,0,0,0,0,6.674,3.5,3.5,0,0,0,4.72,4.72,3.5,3.5,0,0,0,6.674,0,3.5,3.5,0,0,0,4.72-4.72A3.5,3.5,0,0,0,22.5,12Z"/></svg>