<svg xmlns="http://www.w3.org/2000/svg" viewBox="0 0 24 24"><defs><style>.a{fill:none;stroke:currentColor;stroke-linecap:round;stroke-linejoin:round;stroke-width:1.5px;}</style></defs><title>currency-dollar-bill</title><path class="a" d="M13.5,9H11.467a1.342,1.342,0,0,0-.5,2.587l2.064.826a1.342,1.342,0,0,1-.5,2.587H10.5"/><line class="a" x1="12" y1="9" x2="12" y2="8.25"/><line class="a" x1="12" y1="15.75" x2="12" y2="15"/><path class="a" d="M22.5,12a4.5,4.5,0,0,0-3-4.243V6A1.5,1.5,0,0,0,18,4.5H6A1.5,1.5,0,0,0,4.5,6V7.757a4.5,4.5,0,0,0,0,8.486V18A1.5,1.5,0,0,0,6,19.5H18A1.5,1.5,0,0,0,19.5,18V16.243A4.5,4.5,0,0,0,22.5,12Z"/></svg>