<svg xmlns="http://www.w3.org/2000/svg" viewBox="0 0 24 24"><defs><style>.a{fill:none;stroke:currentColor;stroke-linecap:round;stroke-linejoin:round;stroke-width:1.5px;}</style></defs><title>currency-pound-bubble</title><path class="a" d="M22.5,12a3.5,3.5,0,0,0-2.443-3.337,3.5,3.5,0,0,0-4.72-4.72,3.5,3.5,0,0,0-6.674,0,3.5,3.5,0,0,0-4.72,4.72,3.5,3.5,0,0,0,0,6.674,3.5,3.5,0,0,0,4.72,4.72,3.5,3.5,0,0,0,6.674,0,3.5,3.5,0,0,0,4.72-4.72A3.5,3.5,0,0,0,22.5,12Z"/><path class="a" d="M15,8.25a2.25,2.25,0,0,0-4.5,0V15A1.5,1.5,0,0,1,9,16.5h6"/><line class="a" x1="9" y1="12" x2="13.5" y2="12"/></svg>