<svg xmlns="http://www.w3.org/2000/svg" viewBox="0 0 24 24"><defs><style>.a{fill:none;stroke:currentColor;stroke-linecap:round;stroke-linejoin:round;stroke-width:1.5px;}</style></defs><title>currency-euro-dollar-exchange</title><path class="a" d="M18.75,3.75H16.717a1.342,1.342,0,0,0-.5,2.587l2.064.826a1.342,1.342,0,0,1-.5,2.587H15.75"/><line class="a" x1="17.25" y1="3.75" x2="17.25" y2="3"/><line class="a" x1="17.25" y1="10.5" x2="17.25" y2="9.75"/><circle class="a" cx="17.25" cy="6.75" r="6"/><circle class="a" cx="6.75" cy="17.25" r="6"/><path class="a" d="M8.25,20.25a3,3,0,0,1,0-6"/><line class="a" x1="4.5" y1="17.25" x2="8.25" y2="17.25"/><polyline class="a" points="0.75 4.5 3 8.25 6.75 6"/><path class="a" d="M8.189.9A6.752,6.752,0,0,0,3.772,7.786"/><polyline class="a" points="23.25 19.5 21 15.75 17.25 18"/><path class="a" d="M15.811,23.1a6.752,6.752,0,0,0,4.417-6.884"/></svg>