<svg xmlns="http://www.w3.org/2000/svg" viewBox="0 0 24 24"><defs><style>.a{fill:none;stroke:currentColor;stroke-linecap:round;stroke-linejoin:round;stroke-width:1.5px;}</style></defs><title>currency-dollar-diamond</title><circle class="a" cx="17.25" cy="6.75" r="6"/><path class="a" d="M15.75,9.75v-6H18a1.5,1.5,0,0,1,0,3,1.5,1.5,0,0,1,0,3Z"/><line class="a" x1="15.75" y1="6.75" x2="18" y2="6.75"/><line class="a" x1="17.25" y1="3.75" x2="17.25" y2="3"/><line class="a" x1="17.25" y1="9.75" x2="17.25" y2="10.5"/><path class="a" d="M8.25,14.25H6.217a1.342,1.342,0,0,0-.5,2.587l2.064.826a1.342,1.342,0,0,1-.5,2.587H5.25"/><line class="a" x1="6.75" y1="14.25" x2="6.75" y2="13.5"/><line class="a" x1="6.75" y1="21" x2="6.75" y2="20.25"/><circle class="a" cx="6.75" cy="17.25" r="6"/><polyline class="a" points="0.75 4.5 3 8.25 6.75 6"/><path class="a" d="M8.189.9A6.752,6.752,0,0,0,3.772,7.786"/><polyline class="a" points="23.25 19.5 21 15.75 17.25 18"/><path class="a" d="M15.811,23.1a6.752,6.752,0,0,0,4.417-6.884"/></svg>