<svg xmlns="http://www.w3.org/2000/svg" viewBox="0 0 24 24"><defs><style>.a{fill:none;stroke:currentColor;stroke-linecap:round;stroke-linejoin:round;stroke-width:1.5px;}</style></defs><title>currency-user-exchange</title><circle class="a" cx="12" cy="3.375" r="2.625"/><path class="a" d="M7.5,11.25a4.5,4.5,0,0,1,9,0"/><path class="a" d="M21,12.75a1.5,1.5,0,0,0-1.5-1.5H4.5A1.5,1.5,0,0,0,3,12.75"/><line class="a" x1="3" y1="17.25" x2="3" y2="15.75"/><line class="a" x1="3" y1="23.25" x2="3" y2="21.75"/><path class="a" d="M4.5,17.25H2.25A.745.745,0,0,0,1.5,18c0,1.5,3,1.5,3,3a.75.75,0,0,1-.75.75H1.5"/><path class="a" d="M10.5,15.75v1.5a1.5,1.5,0,0,0,3,0v-1.5"/><line class="a" x1="12" y1="18.75" x2="12" y2="23.25"/><line class="a" x1="10.5" y1="20.25" x2="13.5" y2="20.25"/><path class="a" d="M22.5,17.25a1.5,1.5,0,0,0-3,0v4.5a1.5,1.5,0,0,1-1.5,1.5h4.5"/><line class="a" x1="18" y1="20.25" x2="22.5" y2="20.25"/></svg>