<svg xmlns="http://www.w3.org/2000/svg" viewBox="0 0 24 24"><defs><style>.a{fill:none;stroke:currentColor;stroke-linecap:round;stroke-linejoin:round;stroke-width:1.5px;}</style></defs><title>currency-dollar-international</title><path class="a" d="M23.25,3.75h-5.7a3.3,3.3,0,0,0-3.3,3.3c0,4.95,9,4.95,9,9.9a3.3,3.3,0,0,1-3.3,3.3h-5.7"/><line class="a" x1="18.75" y1="3.75" x2="18.75" y2="0.75"/><line class="a" x1="18.75" y1="20.25" x2="18.75" y2="23.25"/><path class="a" d="M12,23.25A11.25,11.25,0,0,1,12,.75"/><line class="a" x1="1.398" y1="8.25" x2="11.25" y2="8.25"/><line class="a" x1="1.402" y1="15.75" x2="11.25" y2="15.75"/><path class="a" d="M12,23.25c-2.9,0-5.25-5.037-5.25-11.25S9.1.75,12,.75"/></svg>