<svg xmlns="http://www.w3.org/2000/svg" viewBox="0 0 24 24"><defs><style>.a{fill:none;stroke:currentColor;stroke-linecap:round;stroke-linejoin:round;stroke-width:1.5px;}</style></defs><title>currency-yuan-bubble</title><path class="a" d="M22.5,12a3.5,3.5,0,0,0-2.443-3.337,3.5,3.5,0,0,0-4.72-4.72,3.5,3.5,0,0,0-6.674,0,3.5,3.5,0,0,0-4.72,4.72,3.5,3.5,0,0,0,0,6.674,3.5,3.5,0,0,0,4.72,4.72,3.5,3.5,0,0,0,6.674,0,3.5,3.5,0,0,0,4.72-4.72A3.5,3.5,0,0,0,22.5,12Z"/><path class="a" d="M9,7.5V9.75a3,3,0,0,0,6,0V7.5"/><line class="a" x1="12" y1="12.75" x2="12" y2="18"/><line class="a" x1="9.75" y1="15" x2="14.25" y2="15"/></svg>