<svg id="Regular" xmlns="http://www.w3.org/2000/svg" viewBox="0 0 24 24"><defs><style>.cls-1{fill:none;stroke:currentColor;stroke-linecap:round;stroke-linejoin:round;stroke-width:1.5px;}</style></defs><title>dancing-ballet</title><path class="cls-1" d="M15.5,10.084s-3.209-3.211-3.526-4.546"/><path class="cls-1" d="M8.5,10.5S2.607,6,1,6"/><path class="cls-1" d="M1,10.5S6.893,6,8.5,6"/><path class="cls-1" d="M8.5,14.446A3.6,3.6,0,0,1,4.75,17.87,3.6,3.6,0,0,1,1,14.446"/><path class="cls-1" d="M20.3,4.174c-6.144,0-3.622,10.428-8.045,11.447"/><path class="cls-1" d="M2.607.75A7.222,7.222,0,0,1,2.021,3.3,5.066,5.066,0,0,0,1,6.131v14.12a3,3,0,0,0,3,3H5.5a3,3,0,0,0,3-3V6.131A5.066,5.066,0,0,0,7.479,3.3,7.222,7.222,0,0,1,6.893.75"/><path class="cls-1" d="M11.989.75V4.785s-.269,11.536,1.145,16.9a2.012,2.012,0,0,0,1.915,1.563h1.342a1.522,1.522,0,0,0,1.468-1.712c0-8.56,2.234-11.057,4.472-13.9A1.958,1.958,0,0,0,21.487,4.6,7.093,7.093,0,0,0,20.3,4.174c-1.742,0-3.423-2.461-3.423-3.424"/></svg>