<svg xmlns="http://www.w3.org/2000/svg" viewBox="0 0 24 24"><defs><style>.a{fill:none;stroke:currentColor;stroke-linecap:round;stroke-linejoin:round;stroke-width:1.5px;}</style></defs><title>data-file-bars</title><polyline class="a" points="5.955 7.5 5.955 18.75 19.455 18.75"/><path class="a" d="M11.955,18.75V10.5a.75.75,0,0,0-.75-.75h-1.5a.75.75,0,0,0-.75.75v8.25"/><path class="a" d="M17.955,18.75V13.5a.75.75,0,0,0-.75-.75h-1.5a.75.75,0,0,0-.75.75v5.25"/><path class="a" d="M22.455,21.75a1.5,1.5,0,0,1-1.5,1.5h-18a1.5,1.5,0,0,1-1.5-1.5V2.25a1.5,1.5,0,0,1,1.5-1.5h15A1.5,1.5,0,0,1,19,1.176l3,2.883a1.5,1.5,0,0,1,.453,1.073Z"/></svg>