<svg xmlns="http://www.w3.org/2000/svg" viewBox="0 0 24 24"><defs><style>.a{fill:none;stroke:currentColor;stroke-linecap:round;stroke-linejoin:round;stroke-width:1.5px;}</style></defs><title>data-file-bars-star</title><path class="a" d="M17.947,11.68l1.541,4.07h3a.735.735,0,0,1,.518,1.283l-2.6,1.816,1.442,3.313a.786.786,0,0,1-1.119.982L17.24,21.183l-3.487,1.961a.786.786,0,0,1-1.119-.982l1.443-3.313-2.6-1.816a.734.734,0,0,1,.515-1.283h3l1.544-4.07A.8.8,0,0,1,17.947,11.68Z"/><line class="a" x1="3.75" y1="14.25" x2="8.25" y2="14.25"/><line class="a" x1="8.25" y1="14.25" x2="8.25" y2="6.75"/><line class="a" x1="11.25" y1="12" x2="11.25" y2="8.25"/><line class="a" x1="5.25" y1="14.25" x2="5.25" y2="9.75"/><path class="a" d="M7.5,20.25H2.25a1.5,1.5,0,0,1-1.5-1.5V2.25A1.5,1.5,0,0,1,2.25.75H12.879a1.5,1.5,0,0,1,1.06.439l2.872,2.872a1.5,1.5,0,0,1,.439,1.06V7.5"/></svg>