<svg xmlns="http://www.w3.org/2000/svg" viewBox="0 0 24 24"><defs><style>.a{fill:none;stroke:currentColor;stroke-linecap:round;stroke-linejoin:round;stroke-width:1.5px;}</style></defs><title>data-file-bars-sync</title><polyline class="a" points="15 18.742 11.25 18.742 11.25 22.492"/><path class="a" d="M22.667,19.475a5.572,5.572,0,0,1-10.74-.733"/><polyline class="a" points="19.5 15.742 23.25 15.742 23.25 11.992"/><path class="a" d="M11.833,15.008a5.573,5.573,0,0,1,10.74.734"/><line class="a" x1="3.75" y1="14.258" x2="8.25" y2="14.258"/><line class="a" x1="8.25" y1="14.258" x2="8.25" y2="6.758"/><line class="a" x1="11.25" y1="9.758" x2="11.25" y2="8.242"/><line class="a" x1="5.25" y1="14.258" x2="5.25" y2="9.758"/><path class="a" d="M7.5,20.258H2.25a1.5,1.5,0,0,1-1.5-1.5V2.258a1.5,1.5,0,0,1,1.5-1.5H12.879a1.5,1.5,0,0,1,1.06.44l2.872,2.871A1.5,1.5,0,0,1,17.25,5.13V7.508"/></svg>