<svg xmlns="http://www.w3.org/2000/svg" viewBox="0 0 24 24"><defs><style>.a{fill:none;stroke:currentColor;stroke-linecap:round;stroke-linejoin:round;stroke-width:1.5px;}</style></defs><title>data-file-bars-edit</title><path class="a" d="M22.63,14.869,15,22.5l-3.75.75L12,19.5l7.63-7.63a2.114,2.114,0,0,1,2.992,0l.008.008A2.113,2.113,0,0,1,22.63,14.869Z"/><line class="a" x1="3.75" y1="14.25" x2="12.75" y2="14.25"/><line class="a" x1="8.25" y1="14.25" x2="8.25" y2="6.75"/><line class="a" x1="11.25" y1="14.25" x2="11.25" y2="8.25"/><line class="a" x1="5.25" y1="14.25" x2="5.25" y2="9.75"/><path class="a" d="M7.5,20.25H2.25a1.5,1.5,0,0,1-1.5-1.5V2.25A1.5,1.5,0,0,1,2.25.75H12.879a1.5,1.5,0,0,1,1.06.439l2.872,2.872a1.5,1.5,0,0,1,.439,1.06V8.25"/></svg>