<svg xmlns="http://www.w3.org/2000/svg" viewBox="0 0 24 24"><defs><style>.a{fill:none;stroke:currentColor;stroke-linecap:round;stroke-linejoin:round;stroke-width:1.5px;}</style></defs><title>data-file-clock</title><circle class="a" cx="17.25" cy="17.25" r="6"/><polyline class="a" points="19.902 17.25 17.25 17.25 17.25 14.598"/><polyline class="a" points="3.75 6.75 3.75 15.75 7.5 15.75"/><path class="a" d="M3.75,12.75l2.689-2.689a1.5,1.5,0,0,1,2.122,0l.581.581a1.5,1.5,0,0,0,2.346-.289l.358-.6"/><path class="a" d="M7.5,20.25H2.25a1.5,1.5,0,0,1-1.5-1.5V2.25A1.5,1.5,0,0,1,2.25.75H12.879a1.5,1.5,0,0,1,1.06.439l2.872,2.872a1.5,1.5,0,0,1,.439,1.06V7.5"/></svg>