<svg xmlns="http://www.w3.org/2000/svg" viewBox="0 0 24 24"><defs><style>.a{fill:none;stroke:currentColor;stroke-linecap:round;stroke-linejoin:round;stroke-width:1.5px;}</style></defs><title>data-file-bars-warning</title><path class="a" d="M17.25,20.25a.375.375,0,1,1-.375.375.375.375,0,0,1,.375-.375"/><line class="a" x1="17.25" y1="18" x2="17.25" y2="15"/><path class="a" d="M23.063,20.682a1.774,1.774,0,0,1-1.587,2.568H13.024a1.774,1.774,0,0,1-1.587-2.568l4.226-8.451a1.774,1.774,0,0,1,3.174,0Z"/><line class="a" x1="3.75" y1="14.25" x2="11.25" y2="14.25"/><line class="a" x1="8.25" y1="14.25" x2="8.25" y2="6.75"/><line class="a" x1="11.25" y1="14.25" x2="11.25" y2="8.25"/><line class="a" x1="5.25" y1="14.25" x2="5.25" y2="9.75"/><path class="a" d="M7.5,20.25H2.25a1.5,1.5,0,0,1-1.5-1.5V2.25A1.5,1.5,0,0,1,2.25.75H12.879a1.5,1.5,0,0,1,1.06.439l2.872,2.872a1.5,1.5,0,0,1,.439,1.06V7.5"/></svg>