<svg xmlns="http://www.w3.org/2000/svg" viewBox="0 0 24 24"><defs><style>.a{fill:none;stroke:currentColor;stroke-linecap:round;stroke-linejoin:round;stroke-width:1.5px;}</style></defs><title>data-file-star</title><path class="a" d="M17.966,11.68,19.5,15.75h2.989a.735.735,0,0,1,.516,1.283l-2.594,1.816,1.437,3.313a.784.784,0,0,1-1.115.982l-3.474-1.961-3.474,1.961a.784.784,0,0,1-1.115-.982l1.437-3.313-2.594-1.816a.735.735,0,0,1,.513-1.283h2.99l1.538-4.07A.793.793,0,0,1,17.966,11.68Z"/><polyline class="a" points="3.75 6.75 3.75 15.75 8.25 15.75"/><path class="a" d="M3.75,12.75l2.689-2.689a1.5,1.5,0,0,1,2.122,0l.581.581a1.5,1.5,0,0,0,2.346-.289l.358-.6"/><path class="a" d="M7.5,20.25H2.25a1.5,1.5,0,0,1-1.5-1.5V2.25A1.5,1.5,0,0,1,2.25.75H12.879a1.5,1.5,0,0,1,1.06.439l2.872,2.872a1.5,1.5,0,0,1,.439,1.06V7.5"/></svg>