<svg xmlns="http://www.w3.org/2000/svg" viewBox="0 0 24 24"><defs><style>.a{fill:none;stroke:currentColor;stroke-linecap:round;stroke-linejoin:round;stroke-width:1.5px;}</style></defs><title>dating-couple-balloon</title><circle class="a" cx="4.994" cy="15.75" r="3"/><path class="a" d="M9.238,23.25a4.5,4.5,0,0,0-8.488,0"/><path class="a" d="M18.238,23.25a4.5,4.5,0,0,0-8.488,0"/><circle class="a" cx="13.994" cy="15.75" r="3"/><path class="a" d="M10.994,15.75s0,3.75-2.25,3.75"/><path class="a" d="M16.994,15.75s0,3.75,2.25,3.75"/><path class="a" d="M23.25,23.25V18.325a8.707,8.707,0,0,0-4.092-7.383A4.057,4.057,0,0,1,17.25,7.5"/><path class="a" d="M21.18,1.339a1.9,1.9,0,0,0-2.751,0L17.25,2.558,16.071,1.339a1.9,1.9,0,0,0-2.751,0,2.06,2.06,0,0,0,0,2.845l3.511,3.137a.579.579,0,0,0,.838,0L21.18,4.184A2.06,2.06,0,0,0,21.18,1.339Z"/></svg>