<svg xmlns="http://www.w3.org/2000/svg" viewBox="0 0 24 24"><defs><style>.a{fill:none;stroke:currentColor;stroke-linecap:round;stroke-linejoin:round;stroke-width:1.5px;}</style></defs><title>dating-calendar</title><rect class="a" x="1.5" y="3.75" width="21" height="19.5" rx="1.5" ry="1.5"/><line class="a" x1="1.5" y1="9.75" x2="22.5" y2="9.75"/><line class="a" x1="7.5" y1="6" x2="7.5" y2="0.75"/><line class="a" x1="16.5" y1="6" x2="16.5" y2="0.75"/><path class="a" d="M15.93,13.36a1.856,1.856,0,0,0-2.751,0L12,14.622,10.821,13.36a1.856,1.856,0,0,0-2.751,0,2.187,2.187,0,0,0,0,2.945l3.511,3.759a.565.565,0,0,0,.838,0l3.511-3.759A2.187,2.187,0,0,0,15.93,13.36Z"/></svg>