<svg xmlns="http://www.w3.org/2000/svg" viewBox="0 0 24 24"><defs><style>.a{fill:none;stroke:currentColor;stroke-linecap:round;stroke-linejoin:round;stroke-width:1.5px;}</style></defs><title>dating-chat-woman</title><path class="a" d="M22.49,1.627a2.534,2.534,0,0,0-3.668,0L17.25,3.252,15.678,1.627a2.534,2.534,0,0,0-3.668,0,2.747,2.747,0,0,0,0,3.793l4.682,4.841a.77.77,0,0,0,1.116,0L22.49,5.42A2.747,2.747,0,0,0,22.49,1.627Z"/><path class="a" d="M14.625,18a.375.375,0,0,1,.375.375"/><path class="a" d="M14.25,18.375A.375.375,0,0,1,14.625,18"/><path class="a" d="M14.625,18.75a.375.375,0,0,1-.375-.375"/><path class="a" d="M15,18.375a.375.375,0,0,1-.375.375"/><circle class="a" cx="17.25" cy="14.25" r="1.5"/><path class="a" d="M13.481,23.25a6.752,6.752,0,0,0-12.731,0"/><path class="a" d="M2.992,13.236v1a5.909,5.909,0,0,1-.86,3.273"/><path class="a" d="M11.239,13.236v1a5.918,5.918,0,0,0,.859,3.273"/><path class="a" d="M3,13.455a5.486,5.486,0,0,0,4.112-1.9,5.489,5.489,0,0,0,4.112,1.9"/><circle class="a" cx="7.115" cy="13.125" r="4.125"/></svg>