<svg xmlns="http://www.w3.org/2000/svg" viewBox="0 0 24 24"><defs><style>.a{fill:none;stroke:currentColor;stroke-linecap:round;stroke-linejoin:round;stroke-width:1.5px;}</style></defs><title>dating-lipstick</title><path class="a" d="M8.778,22.811,4.792,18.824a1.5,1.5,0,0,1,0-2.121L8.415,13.08a.751.751,0,0,1,1.06,0l5.047,5.047a.75.75,0,0,1,0,1.061L10.9,22.811A1.5,1.5,0,0,1,8.778,22.811Z"/><path class="a" d="M14.307,17.912,9.691,13.3l2.766-2.766a.75.75,0,0,1,1.061,0l3.555,3.555a.75.75,0,0,1,0,1.061Z"/><path class="a" d="M13.734,10.746l5.99-5.991a.528.528,0,0,1,.9.373l-.606,5.143a1.059,1.059,0,0,1-.309.746l-2.853,2.852"/><path class="a" d="M8.448,1.278a1.9,1.9,0,0,0-2.52,1.106l-.589,1.59L3.77,3.332A1.9,1.9,0,0,0,1.25,4.438,2.062,2.062,0,0,0,2.394,7.043L7.069,8.956a.578.578,0,0,0,.766-.337L9.591,3.883A2.06,2.06,0,0,0,8.448,1.278Z"/><line class="a" x1="14.625" y1="0.75" x2="14.625" y2="3.75"/><line class="a" x1="16.125" y1="2.25" x2="13.125" y2="2.25"/><line class="a" x1="21.375" y1="19.5" x2="21.375" y2="22.5"/><line class="a" x1="22.875" y1="21" x2="19.875" y2="21"/></svg>