<svg xmlns="http://www.w3.org/2000/svg" viewBox="0 0 24 24"><defs><style>.a{fill:none;stroke:currentColor;stroke-linecap:round;stroke-linejoin:round;stroke-width:1.5px;}</style></defs><title>dating-makeup</title><path class="a" d="M.75,3.75a5.625,5.625,0,0,0,9,0"/><path class="a" d="M14.25,3.75a5.625,5.625,0,0,0,9,0"/><path class="a" d="M19.5,16.5c-2.25.75-3,3.75-7.5,3.75s-5.25-3-7.5-3.75c2.25-.75,3.75-3.75,5.25-3.75A3.285,3.285,0,0,1,12,13.5a3.285,3.285,0,0,1,2.25-.75C15.75,12.75,17.25,15.75,19.5,16.5Z"/><line class="a" x1="4.5" y1="16.5" x2="19.5" y2="16.5"/><line class="a" x1="5.25" y1="6" x2="5.25" y2="7.5"/><line class="a" x1="18.75" y1="6" x2="18.75" y2="7.5"/><line class="a" x1="21.706" y1="5.162" x2="22.5" y2="6.75"/><line class="a" x1="15.794" y1="5.161" x2="15" y2="6.75"/><line class="a" x1="8.206" y1="5.162" x2="9" y2="6.75"/><line class="a" x1="2.294" y1="5.161" x2="1.5" y2="6.75"/></svg>