<svg xmlns="http://www.w3.org/2000/svg" viewBox="0 0 24 24"><defs><style>.a{fill:none;stroke:currentColor;stroke-linecap:round;stroke-linejoin:round;stroke-width:1.5px;}</style></defs><title>dating-smartphone-chat</title><path class="a" d="M12.75,20.25v.267a2.732,2.732,0,0,1-2.733,2.733H3.483A2.732,2.732,0,0,1,.75,20.517V4.983A2.732,2.732,0,0,1,3.483,2.25H5.25"/><line class="a" x1="0.75" y1="18.75" x2="6.75" y2="18.75"/><path class="a" d="M21.75,14.25h-6l-4.5,3v-3H9.75a1.5,1.5,0,0,1-1.5-1.5V2.25A1.5,1.5,0,0,1,9.75.75h12a1.5,1.5,0,0,1,1.5,1.5v10.5A1.5,1.5,0,0,1,21.75,14.25Z"/><path class="a" d="M19.68,4.6a1.9,1.9,0,0,0-2.751,0L15.75,5.814,14.571,4.6a1.9,1.9,0,0,0-2.751,0,2.06,2.06,0,0,0,0,2.845l3.511,3.631a.579.579,0,0,0,.838,0L19.68,7.44A2.06,2.06,0,0,0,19.68,4.6Z"/></svg>