<svg xmlns="http://www.w3.org/2000/svg" viewBox="0 0 24 24"><defs><style>.a{fill:none;stroke:currentColor;stroke-linecap:round;stroke-linejoin:round;stroke-width:1.5px;}</style></defs><title>dating-chat-man</title><path class="a" d="M22.49,1.577a2.534,2.534,0,0,0-3.668,0L17.25,3.2,15.678,1.577a2.534,2.534,0,0,0-3.668,0,2.747,2.747,0,0,0,0,3.793l4.682,4.841a.77.77,0,0,0,1.116,0L22.49,5.37A2.747,2.747,0,0,0,22.49,1.577Z"/><path class="a" d="M14.625,17.95a.375.375,0,0,1,.375.375"/><path class="a" d="M14.25,18.325a.375.375,0,0,1,.375-.375"/><path class="a" d="M14.625,18.7a.375.375,0,0,1-.375-.375"/><path class="a" d="M15,18.325a.375.375,0,0,1-.375.375"/><circle class="a" cx="17.25" cy="14.2" r="1.5"/><path class="a" d="M.75,23.2a6.753,6.753,0,0,1,12.732,0"/><path class="a" d="M3.561,10.981A6.857,6.857,0,0,0,11.2,12.517"/><circle class="a" cx="7.116" cy="13.075" r="4.125"/></svg>