<svg xmlns="http://www.w3.org/2000/svg" viewBox="0 0 24 24"><defs><style>.a{fill:none;stroke:currentColor;stroke-linecap:round;stroke-linejoin:round;stroke-width:1.5px;}</style></defs><title>dating-rose-1</title><line class="a" x1="9.968" y1="23.25" x2="9.968" y2="15.75"/><path class="a" d="M16.909,21.075A5.222,5.222,0,0,1,14.3,22.383.933.933,0,0,1,13.117,21.2a5.216,5.216,0,0,1,1.309-2.608,5.212,5.212,0,0,1,2.608-1.309.933.933,0,0,1,1.184,1.184A5.219,5.219,0,0,1,16.909,21.075Z"/><path class="a" d="M5,3.382C6.2,6.056,9.178,7.55,12.968,6.75v3a4.513,4.513,0,0,1-4.5,4.5H6"/><path class="a" d="M8.541,6.576A2.257,2.257,0,0,1,10.718,3.75h0A2.256,2.256,0,0,1,12.968,6V6.75"/><path class="a" d="M15.968,9.75a6,6,0,0,1-12,0v-3a6,6,0,0,1,12,0Z"/></svg>