<svg xmlns="http://www.w3.org/2000/svg" viewBox="0 0 24 24"><defs><style>.a{fill:none;stroke:currentColor;stroke-linecap:round;stroke-linejoin:round;stroke-width:1.5px;}</style></defs><title>dating-target-1</title><path class="a" d="M15.93,9.1a1.9,1.9,0,0,0-2.751,0L12,10.314,10.821,9.1a1.9,1.9,0,0,0-2.751,0,2.06,2.06,0,0,0,0,2.845l3.511,3.631a.579.579,0,0,0,.838,0L15.93,11.94A2.06,2.06,0,0,0,15.93,9.1Z"/><circle class="a" cx="12" cy="12" r="9"/><line class="a" x1="12" y1="1.5" x2="12" y2="5.25"/><line class="a" x1="12" y1="18.75" x2="12" y2="22.5"/><line class="a" x1="22.5" y1="12" x2="18.75" y2="12"/><line class="a" x1="5.25" y1="12" x2="1.5" y2="12"/></svg>