<svg id="Regular" xmlns="http://www.w3.org/2000/svg" viewBox="0 0 24 24"><defs><style>.cls-1{fill:none;stroke:currentColor;stroke-linecap:round;stroke-linejoin:round;stroke-width:1.5px;}</style></defs><title>day-afternoon</title><line class="cls-1" x1="23.25" y1="21.957" x2="0.75" y2="21.957"/><line class="cls-1" x1="12" y1="18.957" x2="12" y2="16.707"/><line class="cls-1" x1="12" y1="6.957" x2="12" y2="9.207"/><line class="cls-1" x1="12" y1="1.707" x2="12" y2="3.957"/><circle class="cls-1" cx="5.25" cy="10.707" r="2.7"/><line class="cls-1" x1="5.25" y1="8.007" x2="5.25" y2="6.207"/><line class="cls-1" x1="5.25" y1="15.207" x2="5.25" y2="13.407"/><line class="cls-1" x1="2.55" y1="10.707" x2="0.75" y2="10.707"/><line class="cls-1" x1="3.341" y1="8.797" x2="1.65" y2="7.107"/><line class="cls-1" x1="3.341" y1="12.616" x2="1.65" y2="14.307"/><line class="cls-1" x1="7.95" y1="10.707" x2="9.75" y2="10.707"/><line class="cls-1" x1="7.159" y1="8.797" x2="8.85" y2="7.107"/><line class="cls-1" x1="7.159" y1="12.616" x2="8.85" y2="14.307"/><path class="cls-1" d="M2.953,18.313a9.742,9.742,0,0,0-.7,3.644"/><path class="cls-1" d="M21.75,21.957A9.75,9.75,0,0,0,12,12.207"/></svg>