<svg id="Regular" xmlns="http://www.w3.org/2000/svg" viewBox="0 0 24 24"><defs><style>.cls-1{fill:none;stroke:currentColor;stroke-linecap:round;stroke-linejoin:round;stroke-width:1.5px;}</style></defs><title>day-noon</title><circle class="cls-1" cx="11.998" cy="7.831" r="2.7"/><line class="cls-1" x1="11.998" y1="5.131" x2="11.998" y2="3.331"/><line class="cls-1" x1="11.998" y1="12.331" x2="11.998" y2="10.531"/><line class="cls-1" x1="9.298" y1="7.831" x2="7.498" y2="7.831"/><line class="cls-1" x1="10.089" y1="5.921" x2="8.398" y2="4.231"/><line class="cls-1" x1="10.089" y1="9.74" x2="8.398" y2="11.431"/><line class="cls-1" x1="14.698" y1="7.831" x2="16.498" y2="7.831"/><line class="cls-1" x1="13.907" y1="5.921" x2="15.598" y2="4.231"/><line class="cls-1" x1="13.907" y1="9.74" x2="15.598" y2="11.431"/><line class="cls-1" x1="23.25" y1="20.707" x2="0.75" y2="20.707"/><path class="cls-1" d="M5.724,13.245A9.728,9.728,0,0,0,2.25,20.707"/><path class="cls-1" d="M21.75,20.707a9.724,9.724,0,0,0-3.219-7.24"/><line class="cls-1" x1="12" y1="17.707" x2="12" y2="15.457"/></svg>