<svg xmlns="http://www.w3.org/2000/svg" viewBox="0 0 24 24"><defs><style>.a{fill:none;stroke:currentColor;stroke-linecap:round;stroke-linejoin:round;stroke-width:1.5px;}</style></defs><title>death-grave</title><path class="a" d="M18.106,9.5l-.085-1.017A5.705,5.705,0,0,0,12.335,3.25h0A5.707,5.707,0,0,0,6.649,8.482L6.565,9.5a3,3,0,0,1-2.99,2.751H2.75a.75.75,0,0,0-.735.9l1.079,5.4A1.5,1.5,0,0,0,4.565,19.75H20.106a1.5,1.5,0,0,0,1.471-1.206l1.079-5.4a.75.75,0,0,0-.735-.9H21.1A3,3,0,0,1,18.106,9.5Z"/><line class="a" x1="2.735" y1="16.75" x2="21.935" y2="16.75"/><line class="a" x1="10.46" y1="7.375" x2="14.21" y2="11.125"/><line class="a" x1="14.21" y1="7.375" x2="10.46" y2="11.125"/></svg>