<svg id="Regular" xmlns="http://www.w3.org/2000/svg" viewBox="0 0 24 24"><defs><style>.cls-1{fill:none;stroke:currentColor;stroke-linecap:round;stroke-linejoin:round;stroke-width:1.5px;}</style></defs><title>decoration-bottle</title><line class="cls-1" x1="8.25" y1="0.75" x2="15.75" y2="0.75"/><path class="cls-1" d="M12,12.75a5.25,5.25,0,0,0-5.25,5.275A2.315,2.315,0,0,0,9.106,20.25h5.788A2.313,2.313,0,0,0,17.25,18,5.25,5.25,0,0,0,12,12.75Z"/><path class="cls-1" d="M14.25,4.315V.75H9.75V4.315A1.467,1.467,0,0,1,8.736,5.731a11.257,11.257,0,0,0-6.7,15.987A2.95,2.95,0,0,0,4.656,23.25H19.344a2.95,2.95,0,0,0,2.625-1.532A11.257,11.257,0,0,0,15.264,5.731,1.467,1.467,0,0,1,14.25,4.315Z"/></svg>