<svg id="Regular" xmlns="http://www.w3.org/2000/svg" viewBox="0 0 24 24"><defs><style>.cls-1{fill:none;stroke:currentColor;stroke-linecap:round;stroke-linejoin:round;stroke-width:1.5px;}</style></defs><title>decoration-flowers</title><path class="cls-1" d="M16.419,11.25H7.581a1.5,1.5,0,0,0-1.272.705l-2.756,4.41A4.5,4.5,0,0,0,7.369,23.25h9.262a4.5,4.5,0,0,0,3.816-6.885l-2.756-4.41A1.5,1.5,0,0,0,16.419,11.25Z"/><path class="cls-1" d="M22.591,4.591c-.879.879-3.712,1.591-4.243,1.061s.182-3.364,1.061-4.243a2.25,2.25,0,0,1,3.182,3.182Z"/><path class="cls-1" d="M14.25,11.25a5.329,5.329,0,0,1,3-4.5"/><path class="cls-1" d="M14.25,4.125a.375.375,0,1,1-.375.375.375.375,0,0,1,.375-.375"/><path class="cls-1" d="M21,8.625A.375.375,0,1,1,20.625,9,.375.375,0,0,1,21,8.625"/><path class="cls-1" d="M1.409,4.591c.879.879,3.712,1.591,4.243,1.061S5.47,2.288,4.591,1.409A2.25,2.25,0,0,0,1.409,4.591Z"/><path class="cls-1" d="M9.75,11.25a5.329,5.329,0,0,0-3-4.5"/><path class="cls-1" d="M9.75,4.125a.375.375,0,1,0,.375.375.375.375,0,0,0-.375-.375"/><path class="cls-1" d="M3,8.625A.375.375,0,1,0,3.375,9,.375.375,0,0,0,3,8.625"/></svg>