<svg id="Regular" xmlns="http://www.w3.org/2000/svg" viewBox="0 0 24 24"><defs><style>.cls-1{fill:none;stroke:currentColor;stroke-linecap:round;stroke-linejoin:round;stroke-width:1.5px;}</style></defs><title>decoration-cabin</title><path class="cls-1" d="M20.25,13.9V11.25a6,6,0,0,0-4.5-5.811V4.5a3.75,3.75,0,0,0-7.5,0v.939a6,6,0,0,0-4.5,5.811V13.9a14.2,14.2,0,0,1-1.5,6.354h19.5A14.2,14.2,0,0,1,20.25,13.9Z"/><rect class="cls-1" x="2.25" y="20.25" width="19.5" height="3"/><line class="cls-1" x1="0.75" y1="20.25" x2="23.25" y2="20.25"/><path class="cls-1" d="M17.25,20.25H6.75v-9a3,3,0,0,1,3-3h4.5a3,3,0,0,1,3,3Z"/><line class="cls-1" x1="12" y1="8.25" x2="12" y2="20.25"/></svg>