<svg id="Regular" xmlns="http://www.w3.org/2000/svg" viewBox="0 0 24 24"><defs><style>.cls-1{fill:none;stroke:currentColor;stroke-linecap:round;stroke-linejoin:round;stroke-width:1.5px;}</style></defs><title>decoration-hanging-flowers</title><path class="cls-1" d="M9.928,11.25a4.5,4.5,0,1,1-4.5-4.5"/><line class="cls-1" x1="5.428" y1="6.75" x2="5.428" y2="0.75"/><path class="cls-1" d="M16.678,20.25s5.25-.75,5.25,3"/><path class="cls-1" d="M6.928,10.5a3.75,3.75,0,0,1,7.5,0V18a2.25,2.25,0,0,0,4.5,0V15.75"/><path class="cls-1" d="M22.678,17.625A.375.375,0,1,1,22.3,18a.375.375,0,0,1,.375-.375"/><path class="cls-1" d="M21.178,13.125a.375.375,0,1,1-.375.375.375.375,0,0,1,.375-.375"/><path class="cls-1" d="M12.178,20.625A.375.375,0,1,1,11.8,21a.375.375,0,0,1,.375-.375"/></svg>