<svg id="Regular" xmlns="http://www.w3.org/2000/svg" viewBox="0 0 24 24"><defs><style>.cls-1{fill:none;stroke:currentColor;stroke-linecap:round;stroke-linejoin:round;stroke-width:1.5px;}</style></defs><title>decoration-bottle-1</title><path class="cls-1" d="M17.779,23.25A2.181,2.181,0,0,0,20.25,21c0-3.8-5.25-4.5-5.25-6,0-2.25,2.25-1.5,2.25-3.75,0-3-3-2.25-3-4.5A1.989,1.989,0,0,1,16.5,4.5c.831,0,1.432-.77,1.8-1.668A1.507,1.507,0,0,0,16.913.75H7.087A1.507,1.507,0,0,0,5.7,2.832c.371.9.972,1.668,1.8,1.668A1.989,1.989,0,0,1,9.75,6.75c0,2.25-3,1.5-3,4.5C6.75,13.5,9,12.75,9,15c0,1.5-5.25,2.2-5.25,6a2.181,2.181,0,0,0,2.471,2.25Z"/></svg>