<svg id="Regular" xmlns="http://www.w3.org/2000/svg" viewBox="0 0 24 24"><defs><style>.cls-1{fill:none;stroke:currentColor;stroke-linecap:round;stroke-linejoin:round;stroke-width:1.5px;}</style></defs><title>decoration-flower-vase</title><path class="cls-1" d="M15.117,11.07H6.633a6.75,6.75,0,1,0,8.484,0Z"/><line class="cls-1" x1="4.512" y1="18.57" x2="17.238" y2="18.57"/><line class="cls-1" x1="13.125" y1="18.57" x2="7.125" y2="3.57"/><line class="cls-1" x1="4.125" y1="6.57" x2="8.792" y2="7.737"/><path class="cls-1" d="M10.125.945a.375.375,0,1,1-.375.375.375.375,0,0,1,.375-.375"/><path class="cls-1" d="M2.625,3.2a.375.375,0,1,1-.375.375A.375.375,0,0,1,2.625,3.2"/><path class="cls-1" d="M2.625,9.2a.375.375,0,1,1-.375.375A.375.375,0,0,1,2.625,9.2"/><path class="cls-1" d="M11.625,11.07s4.5-3.75,4.5-7.5"/><line class="cls-1" x1="15.299" y1="6.57" x2="19.125" y2="6.57"/><path class="cls-1" d="M19.875,2.07a.375.375,0,1,1-.375.375.375.375,0,0,1,.375-.375"/><path class="cls-1" d="M21.375,9.945A.375.375,0,1,1,21,10.32a.375.375,0,0,1,.375-.375"/></svg>