<svg id="Regular" xmlns="http://www.w3.org/2000/svg" viewBox="0 0 24 24"><defs><style>.cls-1{fill:none;stroke:currentColor;stroke-linecap:round;stroke-linejoin:round;stroke-width:1.5px;}</style></defs><title>decoration-flower-pot</title><path class="cls-1" d="M17.25,23.25H6.75a4.5,4.5,0,0,1-4.5-4.5v-6h19.5v6A4.5,4.5,0,0,1,17.25,23.25Z"/><line class="cls-1" x1="2.25" y1="15.75" x2="5.25" y2="15.75"/><line class="cls-1" x1="18.75" y1="15.75" x2="21.75" y2="15.75"/><line class="cls-1" x1="8.25" y1="15.75" x2="9.75" y2="15.75"/><line class="cls-1" x1="2.25" y1="18.75" x2="5.25" y2="18.75"/><line class="cls-1" x1="18.75" y1="18.75" x2="21.75" y2="18.75"/><line class="cls-1" x1="8.25" y1="18.75" x2="9.75" y2="18.75"/><line class="cls-1" x1="14.25" y1="15.75" x2="15.75" y2="15.75"/><line class="cls-1" x1="14.25" y1="18.75" x2="15.75" y2="18.75"/><path class="cls-1" d="M22.591,4.591c-.879.879-3.712,1.591-4.243,1.061s.182-3.364,1.061-4.243a2.25,2.25,0,0,1,3.182,3.182Z"/><path class="cls-1" d="M14.25,12.75s0-4.5,3-6"/><path class="cls-1" d="M14.25,4.125a.375.375,0,1,1-.375.375.375.375,0,0,1,.375-.375"/><path class="cls-1" d="M21,8.625A.375.375,0,1,1,20.625,9,.375.375,0,0,1,21,8.625"/><path class="cls-1" d="M1.409,4.591c.879.879,3.712,1.591,4.243,1.061S5.47,2.288,4.591,1.409A2.25,2.25,0,0,0,1.409,4.591Z"/><path class="cls-1" d="M9.75,12.75s0-4.5-3-6"/><path class="cls-1" d="M9.75,4.125a.375.375,0,1,0,.375.375.375.375,0,0,0-.375-.375"/><path class="cls-1" d="M3,8.625A.375.375,0,1,0,3.375,9,.375.375,0,0,0,3,8.625"/><line class="cls-1" x1="0.75" y1="12.75" x2="23.25" y2="12.75"/></svg>