<svg id="Regular" xmlns="http://www.w3.org/2000/svg" viewBox="0 0 24 24"><defs><style>.cls-1{fill:none;stroke:currentColor;stroke-linecap:round;stroke-linejoin:round;stroke-width:1.5px;}</style></defs><title>deer-jump</title><path class="cls-1" d="M4.25,23.242a17.328,17.328,0,0,0,3-3,3.92,3.92,0,0,0,0-5.25"/><path class="cls-1" d="M6.311,21.355c-3.57-1.974-3.574-7.856-.561-9.363s5.527-2.434,7.5-3.75c2.25-1.5.988-3.829,3-4.5,2.25-.75,6,2.25,6,2.25A2.2,2.2,0,0,1,20,8.242c-2.372,0-3,2.25-3,3.75v3L8.063,18.716"/><path class="cls-1" d="M17,14.992l2.513-1.005a.75.75,0,0,1,1.018.82L20,17.992"/><path class="cls-1" d="M4.766,12.742H3.5a1.469,1.469,0,0,1-1.5-1.5"/><path class="cls-1" d="M15.744,3.986,15.5,3.742a6.57,6.57,0,0,0-4.5-1.5c-3,0-3.75-1.5-3.75-1.5"/><line class="cls-1" x1="11" y1="2.242" x2="11" y2="0.742"/><line class="cls-1" x1="14" y1="2.819" x2="14" y2="0.742"/></svg>