<svg id="Regular" xmlns="http://www.w3.org/2000/svg" viewBox="0 0 24 24"><defs><style>.cls-1{fill:none;stroke:currentColor;stroke-linecap:round;stroke-linejoin:round;stroke-width:1.5px;}</style></defs><title>deer-1</title><path class="cls-1" d="M7.563,14.992c0-2.485,2.014-3.75,4.5-3.75s4.5,1.265,4.5,3.75v2.25c0,2.485-2.015,6-4.5,6s-4.5-3.515-4.5-6Z"/><path class="cls-1" d="M10.188,14.992a.375.375,0,0,1,.375.375"/><path class="cls-1" d="M9.813,15.367a.374.374,0,0,1,.375-.375"/><path class="cls-1" d="M10.188,15.742a.374.374,0,0,1-.375-.375"/><path class="cls-1" d="M10.563,15.367a.375.375,0,0,1-.375.375"/><path class="cls-1" d="M13.938,14.992a.375.375,0,0,1,.375.375"/><path class="cls-1" d="M13.563,15.367a.374.374,0,0,1,.375-.375"/><path class="cls-1" d="M13.938,15.742a.374.374,0,0,1-.375-.375"/><path class="cls-1" d="M14.313,15.367a.375.375,0,0,1-.375.375"/><path class="cls-1" d="M8.561,12.463C6.441,8.642,6.358,3.674,8.313.742"/><path class="cls-1" d="M1.75,1.68c0,2,2.143,4.009,5.284,2.576"/><path class="cls-1" d="M7.048,7.937l-.61.305a4.525,4.525,0,0,1-3.75,0"/><path class="cls-1" d="M15.564,12.463c2.12-3.821,2.2-8.789.249-11.721"/><path class="cls-1" d="M22.375,1.68c0,2-2.143,4.009-5.284,2.576"/><path class="cls-1" d="M17.077,7.937l.611.305a4.525,4.525,0,0,0,3.75,0"/><line class="cls-1" x1="11.313" y1="18.742" x2="12.813" y2="18.742"/></svg>