<svg id="Regular" xmlns="http://www.w3.org/2000/svg" viewBox="0 0 24 24"><defs><style>.cls-1{fill:none;stroke:currentColor;stroke-linecap:round;stroke-linejoin:round;stroke-width:1.5px;}</style></defs><title>deer-body-1</title><path class="cls-1" d="M4.5,15.242a3.75,3.75,0,0,0,0,7.5h9a4.5,4.5,0,0,0,4.5-4.5q0-4.5,2.25-4.5h3v-1.5c0-1.5-1.318-2.689-4.5-3.75-2.25-.75-7.5-.75-7.5-.75a2.938,2.938,0,0,0,3,3c0,2.25-.75,4.5-3,4.5Z"/><path class="cls-1" d="M17.215,8.143c.285-1.621-1.13-3.4-5.215-3.4-3.75,0-6-1.5-6-3.75"/><path class="cls-1" d="M15.581,5.42l.169-.678s.75-3,3-3"/><path class="cls-1" d="M17.625,10.742a.375.375,0,0,1,.375.375"/><path class="cls-1" d="M17.25,11.117a.375.375,0,0,1,.375-.375"/><path class="cls-1" d="M17.625,11.492a.375.375,0,0,1-.375-.375"/><path class="cls-1" d="M18,11.117a.375.375,0,0,1-.375.375"/></svg>