<svg id="Regular" xmlns="http://www.w3.org/2000/svg" viewBox="0 0 24 24"><defs><style>.cls-1{fill:none;stroke:currentColor;stroke-linecap:round;stroke-linejoin:round;stroke-width:1.5px;}</style></defs><title>deer-target</title><circle class="cls-1" cx="12" cy="11.992" r="9.75"/><line class="cls-1" x1="12" y1="0.742" x2="12" y2="3.742"/><line class="cls-1" x1="23.25" y1="11.992" x2="20.25" y2="11.992"/><line class="cls-1" x1="12" y1="23.242" x2="12" y2="20.242"/><line class="cls-1" x1="0.75" y1="11.992" x2="3.75" y2="11.992"/><polyline class="cls-1" points="6.75 7.492 7.5 9.742 10.106 12.348"/><path class="cls-1" d="M13.256,11.992H10.744a.751.751,0,0,0-.721.956l1.021,3.573a.994.994,0,0,0,1.912,0l1.021-3.573A.751.751,0,0,0,13.256,11.992Z"/><line class="cls-1" x1="7.5" y1="9.742" x2="9.75" y2="8.242"/><polyline class="cls-1" points="17.25 7.492 16.5 9.742 13.894 12.348"/><line class="cls-1" x1="16.5" y1="9.742" x2="14.25" y2="8.242"/></svg>