<svg id="Regular" xmlns="http://www.w3.org/2000/svg" viewBox="0 0 24 24"><defs><style>.cls-1{fill:none;stroke:currentColor;stroke-linecap:round;stroke-linejoin:round;stroke-width:1.5px;}</style></defs><title>deer-body</title><path class="cls-1" d="M2.75,23.242v-7.5a3.75,3.75,0,0,1,3.75-3.75h6c2.25,0,3-3,3-3H13.25c-1.5,0-2.25-2.25-2.25-2.25s3-2.25,5.25-2.25H18.5v9a5.958,5.958,0,0,1-3,5.25v4.5"/><polyline class="cls-1" points="12.5 23.242 12.5 18.742 6.103 18.742"/><path class="cls-1" d="M7.25,16.492s0,3.388-4.5,2.963"/><path class="cls-1" d="M23,.742c0,2.25-2.25,3.75-5.25,3.75h-4.5A4.018,4.018,0,0,1,9.5.742"/><line class="cls-1" x1="19.25" y1="2.242" x2="19.25" y2="4.358"/><line class="cls-1" x1="13.25" y1="2.242" x2="13.25" y2="4.492"/><path class="cls-1" d="M3.5,13.492a2.664,2.664,0,0,1-2.25-1.5"/></svg>