<svg id="Regular" xmlns="http://www.w3.org/2000/svg" viewBox="0 0 24 24"><defs><style>.cls-1{fill:none;stroke:currentColor;stroke-linecap:round;stroke-linejoin:round;stroke-width:1.5px;}</style></defs><title>deer-antlers</title><path class="cls-1" d="M20.684,10.683l-1.434.454V9.132s.012,0,.017-.008l3.252-2.29a1.6,1.6,0,0,0,.474-2.2,1.6,1.6,0,0,0-2.236-.3L19.25,5.394V2.617a1.875,1.875,0,0,0-3.75,0v7.875c0,3-2.25,3-2.25,7.5,0,5.25,3.75,5.25,3.75,5.25v-3c0-2.057-.533-3.409,1.018-5.506l3.59-1.136a1.6,1.6,0,0,0,1.118-1.958A1.6,1.6,0,0,0,20.684,10.683Z"/><path class="cls-1" d="M3.32,10.683l1.434.454V9.132c-.006,0-.012,0-.017-.008L1.485,6.834a1.6,1.6,0,0,1-.474-2.2,1.6,1.6,0,0,1,2.236-.3L4.754,5.394V2.617a1.875,1.875,0,0,1,3.75,0v7.875c0,3,2.25,3,2.25,7.5,0,5.25-3.75,5.25-3.75,5.25v-3c0-2.057.533-3.409-1.018-5.506L2.4,13.6a1.6,1.6,0,0,1-1.118-1.958A1.6,1.6,0,0,1,3.32,10.683Z"/></svg>