<svg id="Regular" xmlns="http://www.w3.org/2000/svg" viewBox="0 0 24 24"><defs><style>.cls-1{fill:none;stroke:currentColor;stroke-linecap:round;stroke-linejoin:round;stroke-width:1.5px;}</style></defs><title>deer</title><path class="cls-1" d="M14.2,6.205c.029-.3.046-.624.046-.963v-1.5a1.613,1.613,0,0,1,1.5-1.5,1.613,1.613,0,0,1,1.5,1.5v2.25c0,1.5,3,1.5,3,0V2.242a1.613,1.613,0,0,1,1.5-1.5,1.613,1.613,0,0,1,1.5,1.5v6q0,2.25-4.5,2.25H16.1"/><path class="cls-1" d="M9.854,6.268a5.147,5.147,0,0,1-.1-1.026v-1.5a1.613,1.613,0,0,0-1.5-1.5,1.613,1.613,0,0,0-1.5,1.5v2.25c0,1.5-3,1.5-3,0V2.242a1.613,1.613,0,0,0-1.5-1.5,1.613,1.613,0,0,0-1.5,1.5v6q0,2.25,4.5,2.25H7.9"/><path class="cls-1" d="M10.5,8.992a3,3,0,0,0-3,3v7.5c0,1.657,2.015,3.75,4.5,3.75s4.5-2.093,4.5-3.75v-7.5a3,3,0,0,0-3-3Z"/><line class="cls-1" x1="11.25" y1="20.242" x2="12.75" y2="20.242"/><path class="cls-1" d="M10.125,13.492a.375.375,0,0,1,.375.375"/><path class="cls-1" d="M9.75,13.867a.375.375,0,0,1,.375-.375"/><path class="cls-1" d="M10.125,14.242a.375.375,0,0,1-.375-.375"/><path class="cls-1" d="M10.5,13.867a.375.375,0,0,1-.375.375"/><path class="cls-1" d="M13.875,13.492a.375.375,0,0,1,.375.375"/><path class="cls-1" d="M13.5,13.867a.375.375,0,0,1,.375-.375"/><path class="cls-1" d="M13.875,14.242a.375.375,0,0,1-.375-.375"/><path class="cls-1" d="M14.25,13.867a.375.375,0,0,1-.375.375"/></svg>