<svg id="Regular" xmlns="http://www.w3.org/2000/svg" viewBox="0 0 24 24"><defs><style>.cls-1{fill:none;stroke:currentColor;stroke-linecap:round;stroke-linejoin:round;stroke-width:1.5px;}</style></defs><title>deer-footprint</title><path class="cls-1" d="M15.975,12.742S12.3,15.367,12.3,18.517s.84,4.725,2.52,4.725,1.68-3.15,1.68-5.775A21.663,21.663,0,0,0,15.975,12.742Z"/><path class="cls-1" d="M19.575,12.742s3.675,2.625,3.675,5.775-.84,4.725-2.52,4.725-1.68-3.15-1.68-5.775A21.663,21.663,0,0,1,19.575,12.742Z"/><path class="cls-1" d="M9.75,4.268V3.742a1.469,1.469,0,0,1,1.5-1.5c3,0,3-.75,3-1.5"/><line class="cls-1" x1="11.25" y1="0.742" x2="11.25" y2="2.242"/><path class="cls-1" d="M5.25,4.269V3.742a1.469,1.469,0,0,0-1.5-1.5c-3,0-3-.75-3-1.5"/><line class="cls-1" x1="3.75" y1="0.742" x2="3.75" y2="2.242"/><path class="cls-1" d="M11.077,5.345A4.512,4.512,0,0,0,7.5,3.742a4.512,4.512,0,0,0-3.577,1.6A3.986,3.986,0,0,0,.75,5.43,2.326,2.326,0,0,0,3.387,8.051a3.921,3.921,0,0,0,.938,1.961,3.529,3.529,0,0,1,.92,1.586l.248.991A1.687,1.687,0,0,0,7.13,13.867h.74a1.687,1.687,0,0,0,1.637-1.278l.248-.991a3.529,3.529,0,0,1,.92-1.586,3.921,3.921,0,0,0,.938-1.961A2.326,2.326,0,0,0,14.25,5.43,3.986,3.986,0,0,0,11.077,5.345Z"/></svg>