<svg id="Regular" xmlns="http://www.w3.org/2000/svg" viewBox="0 0 24 24"><defs><style>.cls-1{fill:none;stroke:currentColor;stroke-linecap:round;stroke-linejoin:round;stroke-width:1.5px;}</style></defs><title>deer-sleep</title><path class="cls-1" d="M5.25,14.242a4.5,4.5,0,0,0,0,9h9a9,9,0,0,0,9-9c0-6.75-3.279-9.75-8.25-9.75-3,0-3.75,1.5-6,2.25,0,.75,0,3,3,3h2.25a2.25,2.25,0,0,1,0,4.5Z"/><path class="cls-1" d="M16.026,4.537c2.211.031,7.224-.287,7.224-3.795"/><path class="cls-1" d="M19.239,4.283C19.677,3.945,20.25,3.06,20.25.742"/><path class="cls-1" d="M16.5,4.538s.75-.046.75-2.3"/><path class="cls-1" d="M14.25,6.742a.375.375,0,0,1,.375.375"/><path class="cls-1" d="M13.875,7.117a.375.375,0,0,1,.375-.375"/><path class="cls-1" d="M14.25,7.492a.375.375,0,0,1-.375-.375"/><path class="cls-1" d="M14.625,7.117a.375.375,0,0,1-.375.375"/></svg>