<svg id="Regular" xmlns="http://www.w3.org/2000/svg" viewBox="0 0 24 24"><defs><style>.cls-1{fill:none;stroke:currentColor;stroke-linecap:round;stroke-linejoin:round;stroke-width:1.5px;}</style></defs><title>deforestation-axe-forbidden</title><line class="cls-1" x1="10.046" y1="9.752" x2="8.584" y2="8.289"/><path class="cls-1" d="M16.492,11.958,21.3,16.77a1.5,1.5,0,1,1-2.12,2.119l-4.943-4.943"/><line class="cls-1" x1="10.415" y1="5.88" x2="12.033" y2="7.499"/><path class="cls-1" d="M11.786,3.655A.7.7,0,0,1,11.727,4.7c-3.4,2.717-3.975,5.345-4.05,6.477a.749.749,0,0,1-.672.7A5.684,5.684,0,0,1,.963,5.607a.749.749,0,0,1,.711-.672c1.112-.051,3.637-.575,6.311-3.9A.75.75,0,0,1,9.1.969Z"/><line class="cls-1" x1="0.743" y1="23.25" x2="23.243" y2="0.75"/></svg>