<svg id="Regular" xmlns="http://www.w3.org/2000/svg" viewBox="0 0 24 24"><defs><style>.cls-1{fill:none;stroke:currentColor;stroke-linecap:round;stroke-linejoin:round;stroke-width:1.5px;}</style></defs><title>deforestation-saw-forbidden</title><line class="cls-1" x1="0.743" y1="23.25" x2="23.243" y2="0.75"/><polyline class="cls-1" points="16.079 12.055 19.056 14.502 14.253 19.305 13.828 15.415 12.328 15.415"/><path class="cls-1" d="M8.578,11.665H6.328a.75.75,0,0,1-.75-.75v-3H3.343a.75.75,0,0,1-.75-.75V4.352a.752.752,0,0,1,.353-.637L4.19,2.939A.751.751,0,0,1,5.063,3l6.514,5.357"/><path class="cls-1" d="M14.253,19.305l1.959,2.743a1.812,1.812,0,0,0,2.755.228l2.65-2.651a1.811,1.811,0,0,0,0-2.562L19.056,14.5l-4.8,4.8"/></svg>