<svg id="Regular" xmlns="http://www.w3.org/2000/svg" viewBox="0 0 24 24"><defs><style>.cls-1{fill:none;stroke:currentColor;stroke-linecap:round;stroke-linejoin:round;stroke-width:1.5px;}</style></defs><title>deforestation-cut-tree</title><path class="cls-1" d="M19.861,1.453a.75.75,0,0,0-1.08-.626l-6.572,3.6L14.155,5.56,9.574,7.674a.751.751,0,0,0,0,1.3l7.784,4.517a.75.75,0,0,0,1.126-.644l-.437-5.026,1.946,1.129Z"/><line class="cls-1" x1="13.466" y1="11.23" x2="11.207" y2="15.123"/><line class="cls-1" x1="10.7" y1="18" x2="10.7" y2="23.25"/><line class="cls-1" x1="3.95" y1="16.5" x2="6.2" y2="16.5"/><line class="cls-1" x1="5.927" y1="11.727" x2="7.518" y2="13.318"/><line class="cls-1" x1="17.45" y1="16.5" x2="15.2" y2="16.5"/><line class="cls-1" x1="15.473" y1="21.273" x2="13.882" y2="19.682"/><line class="cls-1" x1="5.927" y1="21.273" x2="7.518" y2="19.682"/></svg>