<svg xmlns="http://www.w3.org/2000/svg" viewBox="0 0 24 24"><defs><style>.a{fill:none;stroke:currentColor;stroke-linecap:round;stroke-linejoin:round;stroke-width:1.5px;}</style></defs><title>delivery-truck-cargo</title><circle class="a" cx="18.75" cy="18.75" r="1.5"/><circle class="a" cx="5.25" cy="18.75" r="1.5"/><path class="a" d="M20.25,18.75h1.5a1.5,1.5,0,0,0,1.5-1.5v-6a3,3,0,0,0-3-3H16.5"/><path class="a" d="M16.5,18.75V5.25A1.5,1.5,0,0,0,15,3.75H2.25a1.5,1.5,0,0,0-1.5,1.5v12a1.5,1.5,0,0,0,1.5,1.5h1.5"/><line class="a" x1="17.25" y1="18.75" x2="6.75" y2="18.75"/><path class="a" d="M23.25,12.75H21a1.5,1.5,0,0,1-1.5-1.5v-3"/><polyline class="a" points="0.75 11.25 12.75 11.25 12.75 15"/><rect class="a" x="5.25" y="6.75" width="6" height="4.5"/><line class="a" x1="3.75" y1="11.25" x2="3.75" y2="13.5"/><line class="a" x1="8.25" y1="6.75" x2="8.25" y2="9"/><line class="a" x1="9.75" y1="11.25" x2="9.75" y2="13.5"/><line class="a" x1="6.75" y1="11.25" x2="6.75" y2="15"/></svg>