<svg xmlns="http://www.w3.org/2000/svg" viewBox="0 0 24 24"><defs><style>.a{fill:none;stroke:currentColor;stroke-linecap:round;stroke-linejoin:round;stroke-width:1.5px;}</style></defs><title>delivery-man-head</title><path class="a" d="M12.75,6.26a.485.485,0,0,1-.3.427.719.719,0,0,1-.605-.007L9.75,5.655,7.659,6.68a.719.719,0,0,1-.6.007.485.485,0,0,1-.3-.427V.75h6Z"/><path class="a" d="M6.75,17.25H1.708a.964.964,0,0,1-.958-.97V1.721A.965.965,0,0,1,1.708.75H17.792a.965.965,0,0,1,.958.971V8.25"/><path class="a" d="M11.25,17.25V14.4a1.519,1.519,0,0,1,.909-1.4l3.75-1.628a1.481,1.481,0,0,1,1.182,0L20.841,13a1.519,1.519,0,0,1,.909,1.4V17.25"/><path class="a" d="M16.5,13.875a.375.375,0,1,0,.375.375.375.375,0,0,0-.375-.375h0"/><line class="a" x1="9.75" y1="17.25" x2="23.25" y2="17.25"/><path class="a" d="M20.938,19.5a4.5,4.5,0,0,1-8.876,0"/></svg>