<svg xmlns="http://www.w3.org/2000/svg" viewBox="0 0 24 24"><defs><style>.a{fill:none;stroke:currentColor;stroke-linecap:round;stroke-linejoin:round;stroke-width:1.5px;}</style></defs><title>delivery-person-motorcycle-1</title><path class="a" d="M.75,20.25v-1.5a3,3,0,0,1,3-3h4.5a3,3,0,0,1,3,3,1.5,1.5,0,0,0,1.5,1.5h6V9.75a1.5,1.5,0,0,0-1.5-1.5h-1.5"/><circle class="a" cx="6" cy="21" r="2.25"/><path class="a" d="M21.75,21a2.25,2.25,0,0,1-4.5,0v-.75h4.5Z"/><path class="a" d="M22.5,20.25a.751.751,0,0,0,.735-.9,4.585,4.585,0,0,0-4.485-3.6v4.5Z"/><path class="a" d="M21.75,11.25a1.5,1.5,0,0,1-1.5,1.5h-1.5v-3h1.5A1.5,1.5,0,0,1,21.75,11.25Z"/><path class="a" d="M11.25,12.75h-9a1.5,1.5,0,0,0,0,3h9a1.5,1.5,0,0,0,0-3Z"/><rect class="a" x="2.25" y="0.75" width="9" height="9" rx="1" ry="1"/><polyline class="a" points="8.25 4.125 7.125 3.75 5.25 5.625 5.625 6.75"/></svg>