<svg xmlns="http://www.w3.org/2000/svg" viewBox="0 0 24 24"><defs><style>.a{fill:none;stroke:currentColor;stroke-linecap:round;stroke-linejoin:round;stroke-width:1.5px;}</style></defs><title>delivery-drone</title><rect class="a" x="7.5" y="14.25" width="9" height="9" rx="0.5" ry="0.5"/><path class="a" d="M5.25.75V4.681A1.967,1.967,0,0,0,6.665,6.568l1.663.485"/><path class="a" d="M9.183,9.916l-3.132.7a1.965,1.965,0,0,0-1.464,2.458L5,14.508"/><circle class="a" cx="12.051" cy="7.5" r="1.5"/><circle class="a" cx="12.051" cy="7.5" r="3.75"/><polyline class="a" points="13.5 14.25 13.5 18.75 10.5 18.75 10.5 14.25"/><line class="a" x1="1.5" y1="1.008" x2="5.25" y2="2.25"/><line class="a" x1="5.25" y1="2.25" x2="9" y2="1.008"/><path class="a" d="M18.75.75V4.681a1.967,1.967,0,0,1-1.415,1.887l-1.564.456"/><path class="a" d="M14.875,9.966l3.074.65a1.965,1.965,0,0,1,1.464,2.458L19,14.508"/><line class="a" x1="22.5" y1="1.008" x2="18.75" y2="2.25"/><line class="a" x1="18.75" y1="2.25" x2="15" y2="1.008"/></svg>