<svg xmlns="http://www.w3.org/2000/svg" viewBox="0 0 24 24"><defs><style>.a{fill:none;stroke:currentColor;stroke-linecap:round;stroke-linejoin:round;stroke-width:1.5px;}</style></defs><title>delivery-truck-1</title><path class="a" d="M7.5,16.5V4.5H5.26a.968.968,0,0,0-.895.653L.819,14.7a1.1,1.1,0,0,0-.069.386v1.876A1,1,0,0,0,1.714,18H6"/><line class="a" x1="16.5" y1="4.826" x2="16.5" y2="14.25"/><circle class="a" cx="7.5" cy="18" r="1.5"/><circle class="a" cx="17.25" cy="18" r="1.5"/><line class="a" x1="2.379" y1="10.5" x2="7.5" y2="10.5"/><line class="a" x1="0.75" y1="15" x2="3" y2="15"/><line class="a" x1="21" y1="6" x2="23.25" y2="6"/><rect class="a" x="10.5" y="7.5" width="3" height="3" rx="0.408" ry="0.408"/><path class="a" d="M18.75,18h2.625a1.872,1.872,0,0,0,.7-3.609L20.937,5.529A1.147,1.147,0,0,0,19.826,4.5H7.5"/><line class="a" x1="9" y1="18" x2="15.75" y2="18"/><line class="a" x1="7.5" y1="14.25" x2="22.057" y2="14.25"/></svg>