<svg xmlns="http://www.w3.org/2000/svg" viewBox="0 0 24 24"><defs><style>.a{fill:none;stroke:currentColor;stroke-linecap:round;stroke-linejoin:round;stroke-width:1.5px;}</style></defs><title>delivery-truck-boxes</title><path class="a" d="M3.75,19.5V21a1.5,1.5,0,0,0,3,0V19.5"/><path class="a" d="M20.25,19.5V21a1.5,1.5,0,0,1-3,0V19.5"/><path class="a" d="M5.461,1.5H18.539a.961.961,0,0,1,.961.961V19.5a0,0,0,0,1,0,0H4.5a0,0,0,0,1,0,0V2.461A.961.961,0,0,1,5.461,1.5Z"/><line class="a" x1="4.5" y1="4.5" x2="19.5" y2="4.5"/><line class="a" x1="4.5" y1="7.5" x2="19.5" y2="7.5"/><path class="a" d="M12,15H8.25a.75.75,0,0,0-.75.75v3a.75.75,0,0,0,.75.75H12Z"/><rect class="a" x="9.75" y="10.5" width="4.5" height="4.5" rx="0.75" ry="0.75"/><path class="a" d="M12,15h3.75a.75.75,0,0,1,.75.75v3a.75.75,0,0,1-.75.75H12Z"/><line class="a" x1="2.25" y1="19.5" x2="21.75" y2="19.5"/><path class="a" d="M2.25,9.75H1.5A.75.75,0,0,1,.75,9V6.75A.75.75,0,0,1,1.5,6h3"/><path class="a" d="M21.75,9.75h.75A.75.75,0,0,0,23.25,9V6.75A.75.75,0,0,0,22.5,6h-3"/></svg>