<svg xmlns="http://www.w3.org/2000/svg" viewBox="0 0 24 24"><defs><style>.a{fill:none;stroke:currentColor;stroke-linecap:round;stroke-linejoin:round;stroke-width:1.5px;}</style></defs><title>delivery-man</title><path class="a" d="M6.75,6.75V3.9a1.519,1.519,0,0,1,.909-1.4L11.409.873a1.481,1.481,0,0,1,1.182,0L16.341,2.5a1.519,1.519,0,0,1,.909,1.4V6.75"/><path class="a" d="M12,3.375a.375.375,0,1,0,.375.375A.375.375,0,0,0,12,3.375h0"/><line class="a" x1="5.25" y1="6.75" x2="18.75" y2="6.75"/><path class="a" d="M21.635,23.25A9.751,9.751,0,0,0,12,15h0a9.751,9.751,0,0,0-9.635,8.25"/><polyline class="a" points="8.25 15.75 12 21.75 15.75 15.75"/><path class="a" d="M16.438,9A4.5,4.5,0,0,1,7.562,9"/><polyline class="a" points="7.798 15.949 6.115 21 9.865 23.25"/><polyline class="a" points="16.477 16.086 18.115 21 14.365 23.25"/></svg>