<svg xmlns="http://www.w3.org/2000/svg" viewBox="0 0 24 24"><defs><style>.a{fill:none;stroke:currentColor;stroke-linecap:round;stroke-linejoin:round;stroke-width:1.5px;}</style></defs><title>delivery-parachute</title><line class="a" x1="6.75" y1="21.75" x2="12.75" y2="15.75"/><line class="a" x1="10.5" y1="23.25" x2="17.25" y2="15.75"/><path class="a" d="M17.25,22.083A1.113,1.113,0,0,1,16.2,23.25H7.8a1.113,1.113,0,0,1-1.05-1.167V13.917A1.113,1.113,0,0,1,7.8,12.75h8.4a1.113,1.113,0,0,1,1.05,1.167Z"/><line class="a" x1="6.75" y1="15.75" x2="17.25" y2="15.75"/><line class="a" x1="9" y1="8.105" x2="11.25" y2="12.75"/><line class="a" x1="3" y1="8.105" x2="8.469" y2="12.75"/><line class="a" x1="15" y1="8.105" x2="12.75" y2="12.75"/><line class="a" x1="21" y1="8.105" x2="15.531" y2="12.75"/><path class="a" d="M21.866,8.105a.717.717,0,0,0,.5-.188.394.394,0,0,0,.111-.417C21.257,3.964,17.029.75,12,.75S2.743,3.963,1.521,7.5a.394.394,0,0,0,.111.417.716.716,0,0,0,.5.188Z"/></svg>