<svg xmlns="http://www.w3.org/2000/svg" viewBox="0 0 24 24"><defs><style>.a{fill:none;stroke:currentColor;stroke-linecap:round;stroke-linejoin:round;stroke-width:1.5px;}</style></defs><title>delivery-truck-clock</title><circle class="a" cx="6.75" cy="7.5" r="6"/><polyline class="a" points="4.098 7.5 6.75 7.5 6.75 4.848"/><path class="a" d="M14.25,12h1.5a1.5,1.5,0,0,1,1.5,1.5v5.288"/><path class="a" d="M7.5,21H6.75a1.5,1.5,0,0,1-1.5-1.5v-3"/><path class="a" d="M17.25,13.5h3a3,3,0,0,1,3,3v3a1.5,1.5,0,0,1-1.5,1.5H19.462"/><circle class="a" cx="17.625" cy="20.625" r="1.875"/><circle class="a" cx="9.375" cy="20.625" r="1.875"/><line class="a" x1="15.788" y1="21" x2="11.25" y2="21"/><line class="a" x1="23.25" y1="16.5" x2="20.25" y2="16.5"/></svg>