<svg xmlns="http://www.w3.org/2000/svg" viewBox="0 0 24 24"><defs><style>.a{fill:none;stroke:currentColor;stroke-linecap:round;stroke-linejoin:round;stroke-width:1.5px;}</style></defs><title>delivery-person-motorcycle</title><line class="a" x1="16.125" y1="3.75" x2="10.125" y2="3.75"/><path class="a" d="M19.875,17.39a2.932,2.932,0,0,1,2.99,2.343.49.49,0,0,1-.1.406.308.308,0,0,1-.379.111H13.153a.883.883,0,0,1-.978-.909v-.006A2.835,2.835,0,0,0,9.34,16.5H6.216a2.835,2.835,0,0,0-2.835,2.835v.984"/><polyline class="a" points="18.375 12 19.875 12 19.875 20.25"/><line class="a" x1="9.34" y1="16.5" x2="13.125" y2="16.5"/><rect class="a" x="1.125" y="8.25" width="6" height="5.25" rx="0.75" ry="0.75"/><path class="a" d="M19.875,13.139l1.915-.761a.919.919,0,0,1,.729.026.582.582,0,0,1,.356.507v2.243a.582.582,0,0,1-.356.507.919.919,0,0,1-.729.026l-1.915-.761"/><circle class="a" cx="7.875" cy="21" r="2.25"/><path class="a" d="M16.946,20.245a2.582,2.582,0,0,0-.071.6,2.255,2.255,0,1,0,4.5,0,2.558,2.558,0,0,0-.071-.6"/><line class="a" x1="4.125" y1="8.25" x2="4.125" y2="10.5"/><path class="a" d="M17.625,9.75c-4.048-2.64-4.1-2.884-5.523-2.884A1.967,1.967,0,0,0,10.125,8.82V12a1.5,1.5,0,0,0,1.5,1.5h1.5a3,3,0,0,1,2.846,2.051L16.787,18"/><path class="a" d="M11.625.75h1.5a1.5,1.5,0,0,1,1.5,1.5v1.5a0,0,0,0,1,0,0h-4.5a0,0,0,0,1,0,0V2.25A1.5,1.5,0,0,1,11.625.75Z"/></svg>