<svg xmlns="http://www.w3.org/2000/svg" viewBox="0 0 24 24"><defs><style>.a{fill:none;stroke:currentColor;stroke-linecap:round;stroke-linejoin:round;stroke-width:1.5px;}</style></defs><title>delivery-truck</title><path class="a" d="M17.25,21.75v-7.5a1.5,1.5,0,0,0-1.5-1.5H8.25a1.5,1.5,0,0,0-1.5,1.5v6a1.5,1.5,0,0,0,1.5,1.5h1.5"/><path class="a" d="M17.25,14.25h3a3,3,0,0,1,3,3v4.5h-3"/><circle class="a" cx="11.25" cy="21.75" r="1.5"/><circle class="a" cx="18.75" cy="21.75" r="1.5"/><line class="a" x1="12.75" y1="21.75" x2="17.25" y2="21.75"/><path class="a" d="M3.75,18.75H2.25a1.5,1.5,0,0,1-1.5-1.5V6.75a1.5,1.5,0,0,1,1.5-1.5h15a1.5,1.5,0,0,1,1.5,1.5v3"/><path class="a" d="M18.266,5.647,15.445,1.418A1.5,1.5,0,0,0,14.2.75H5.3a1.5,1.5,0,0,0-1.248.668L1.234,5.647"/><line class="a" x1="9.75" y1="0.75" x2="9.75" y2="5.25"/></svg>