<svg xmlns="http://www.w3.org/2000/svg" viewBox="0 0 24 24"><defs><style>.a{fill:none;stroke:currentColor;stroke-linecap:round;stroke-linejoin:round;stroke-width:1.5px;}</style></defs><title>delivery-truck-packages</title><path class="a" d="M17,5.25h3.5a.5.5,0,0,1,.5.5v5.5a0,0,0,0,1,0,0H16.5a0,0,0,0,1,0,0V5.75A.5.5,0,0,1,17,5.25Z"/><path class="a" d="M21.75,16.5h-6V11.775c0-.29.168-.525.375-.525h5.25c.207,0,.375.235.375.525Z"/><path class="a" d="M2.25,16.5V15.243c0-2.365,1.565-3.243,4.174-4.71L10.337.75"/><line class="a" x1="8.332" y1="0.75" x2="23.25" y2="0.75"/><path class="a" d="M12.75.75V18.522a.978.978,0,0,0,.978.978H23.25"/><path class="a" d="M2.25,19.5H.75V17.2a.716.716,0,0,1,.734-.7H3"/><line class="a" x1="6.424" y1="10.5" x2="12.75" y2="10.5"/><line class="a" x1="12.75" y1="16.5" x2="23.25" y2="16.5"/><line class="a" x1="18.75" y1="11.25" x2="18.75" y2="13.207"/><circle class="a" cx="7.5" cy="20.25" r="3"/></svg>