<svg xmlns="http://www.w3.org/2000/svg" viewBox="0 0 24 24"><defs><style>.a{fill:none;stroke:currentColor;stroke-linecap:round;stroke-linejoin:round;stroke-width:1.5px;}</style></defs><title>delivery-man-give</title><path class="a" d="M7.484,20.11c0,.5-.562.9-1.251.894-1.377-.007-2.49-.817-2.486-1.81l0-.9c0-.993,1.125-1.793,2.5-1.787.688,0,1.245.409,1.242.9Z"/><path class="a" d="M16.51,20.11c0,.5.563.9,1.253.894,1.38-.007,2.494-.817,2.49-1.81l0-.9c0-.993-1.127-1.793-2.507-1.787-.69,0-1.247.409-1.245.9Z"/><path class="a" d="M18,21v.75a1.5,1.5,0,0,1-1.5,1.5H7.49a1.5,1.5,0,0,1-1.5-1.5V21"/><path class="a" d="M5.99,16.5V14.25a1.5,1.5,0,0,1,1.5-1.5H16.5a1.5,1.5,0,0,1,1.5,1.5V16.5"/><rect class="a" x="10.498" y="12.75" width="3" height="4.5"/><path class="a" d="M6.747,6.75V3.9a1.522,1.522,0,0,1,.909-1.4L11.406.873a1.481,1.481,0,0,1,1.182,0L16.338,2.5a1.52,1.52,0,0,1,.909,1.4V6.75"/><path class="a" d="M12,3.374a.375.375,0,1,0,.375.375A.375.375,0,0,0,12,3.374h0"/><line class="a" x1="5.247" y1="6.75" x2="18.747" y2="6.75"/><path class="a" d="M9.092,10.187A4.493,4.493,0,0,1,7.5,6.75"/><path class="a" d="M16.5,6.75a4.49,4.49,0,0,1-1.6,3.437"/></svg>