<svg xmlns="http://www.w3.org/2000/svg" viewBox="0 0 24 24"><defs><style>.a{fill:none;stroke:currentColor;stroke-linecap:round;stroke-linejoin:round;stroke-width:1.5px;}</style></defs><title>delivery-door</title><rect class="a" x="14.25" y="15" width="9" height="8.25" rx="0.677" ry="0.677"/><rect class="a" x="17.25" y="15" width="3" height="4.5"/><path class="a" d="M2.25,20.25v-18A1.5,1.5,0,0,1,3.75.75h12a1.5,1.5,0,0,1,1.5,1.5V12"/><path class="a" d="M11.25,20.25H1.5A.75.75,0,0,0,.75,21v1.5a.75.75,0,0,0,.75.75h9.75"/><path class="a" d="M13.5,9.375a.375.375,0,1,1-.375.375.375.375,0,0,1,.375-.375"/></svg>