<svg id="Regular" xmlns="http://www.w3.org/2000/svg" viewBox="0 0 24 24"><defs><style>.cls-1{fill:none;stroke:currentColor;stroke-linecap:round;stroke-linejoin:round;stroke-width:1.5px;}</style></defs><title>dentistry-tooth-chipped</title><path class="cls-1" d="M20.05,13.162a12.243,12.243,0,0,0,.939-1.45,1.5,1.5,0,0,0-.959-2.186,7.438,7.438,0,0,1-5.684-6.094A1.363,1.363,0,0,0,12,2.7,6.052,6.052,0,0,0,1.5,6.75a11.913,11.913,0,0,0,2.45,6.412,1.44,1.44,0,0,1,.181,1.478A12.022,12.022,0,0,0,3,19.5v1.875A2.058,2.058,0,0,0,5.135,23.25a1.951,1.951,0,0,0,2.019-1.875A4.293,4.293,0,0,1,11.6,17.25H12.4a4.293,4.293,0,0,1,4.442,4.125,1.951,1.951,0,0,0,2.019,1.875A2.058,2.058,0,0,0,21,21.375V19.5a12.005,12.005,0,0,0-1.131-4.86A1.44,1.44,0,0,1,20.05,13.162Z"/><line class="cls-1" x1="18" y1="0.75" x2="18" y2="2.25"/><line class="cls-1" x1="21.75" y1="1.5" x2="21" y2="2.25"/><line class="cls-1" x1="22.5" y1="5.25" x2="21" y2="5.25"/></svg>