<svg id="Regular" xmlns="http://www.w3.org/2000/svg" viewBox="0 0 24 24"><defs><style>.cls-1{fill:none;stroke:currentColor;stroke-linecap:round;stroke-linejoin:round;stroke-width:1.5px;}</style></defs><title>dentistry-tooth-brush</title><path class="cls-1" d="M23.271,14.4a3.125,3.125,0,0,0-3.018-3.22,2.923,2.923,0,0,0-2.214,1.045,2.92,2.92,0,0,0-2.213-1.045,3.124,3.124,0,0,0-3.018,3.22,6.69,6.69,0,0,0,1.22,3.44.819.819,0,0,1,.09.793,6.84,6.84,0,0,0-.505,2.608v1.006a1.006,1.006,0,0,0,2.012,0,2.5,2.5,0,0,1,2.285-2.612,2.424,2.424,0,0,1,2.544,2.612,1.006,1.006,0,0,0,2.012,0V21.238a6.817,6.817,0,0,0-.57-2.761.823.823,0,0,1,.063-.833A6.1,6.1,0,0,0,23.271,14.4Z"/><path class="cls-1" d="M1.333,2.2H11.876a0,0,0,0,1,0,0V8.029a.5.5,0,0,1-.5.5H1.833a.5.5,0,0,1-.5-.5V2.2a0,0,0,0,1,0,0Z" transform="translate(1.808 -1.663) rotate(16.602)"/><line class="cls-1" x1="2.457" y1="0.829" x2="23.271" y2="7.034"/><line class="cls-1" x1="5.293" y1="6.075" x2="4.691" y2="8.095"/></svg>