<svg id="Regular" xmlns="http://www.w3.org/2000/svg" viewBox="0 0 24 24"><defs><style>.cls-1{fill:none;stroke:currentColor;stroke-linecap:round;stroke-linejoin:round;stroke-width:1.5px;}</style></defs><title>dentistry-tooth-chipped-1</title><path class="cls-1" d="M20.269,13.162A12.948,12.948,0,0,0,21.6,10.955a1.5,1.5,0,0,0-.994-2.105,5.383,5.383,0,0,1-3.889-5.1,5.284,5.284,0,0,1,.1-1.021A1.5,1.5,0,0,0,14.9,1.008,6.275,6.275,0,0,0,12.219,2.7,6.052,6.052,0,0,0,1.719,6.75a11.913,11.913,0,0,0,2.45,6.412A1.44,1.44,0,0,1,4.35,14.64,12.018,12.018,0,0,0,3.219,19.5v1.875A2.059,2.059,0,0,0,5.354,23.25a1.951,1.951,0,0,0,2.019-1.875,4.293,4.293,0,0,1,4.442-4.125h.808a4.293,4.293,0,0,1,4.442,4.125,1.951,1.951,0,0,0,2.02,1.875,2.058,2.058,0,0,0,2.134-1.875V19.5a12.017,12.017,0,0,0-1.13-4.86A1.438,1.438,0,0,1,20.269,13.162Z"/></svg>