<svg id="Regular" xmlns="http://www.w3.org/2000/svg" viewBox="0 0 24 24"><defs><style>.cls-1{fill:none;stroke:currentColor;stroke-linecap:round;stroke-linejoin:round;stroke-width:1.5px;}</style></defs><title>dentistry-tooth-exchange</title><path class="cls-1" d="M14.57,6.25a2.9,2.9,0,0,0-2.2,1.039,2.9,2.9,0,0,0-2.2-1.039c-.556,0-4.945,1-1.787,5.495a.815.815,0,0,1,.089.788,6.8,6.8,0,0,0-.5,2.592v1a1,1,0,1,0,2,0,2.49,2.49,0,0,1,2.271-2.6,2.411,2.411,0,0,1,2.529,2.6,1,1,0,0,0,2,0v-1a6.771,6.771,0,0,0-.567-2.744.818.818,0,0,1,.063-.828C19.512,7.245,15.124,6.25,14.57,6.25Z"/><path class="cls-1" d="M18,4.316A9.75,9.75,0,0,0,2.25,12v2.25"/><path class="cls-1" d="M6,19.689A9.751,9.751,0,0,0,21.75,12V9.75"/><polyline class="cls-1" points="0.75 12.75 2.25 14.25 3.75 12.75"/><polyline class="cls-1" points="23.25 11.25 21.75 9.75 20.25 11.25"/></svg>