<svg xmlns="http://www.w3.org/2000/svg" viewBox="0 0 24 24"><defs><style>.a{fill:none;stroke:currentColor;stroke-linecap:round;stroke-linejoin:round;stroke-width:1.5px;}</style></defs><title>design-tool-pen</title><path class="a" d="M11.25,18.4A5.064,5.064,0,0,1,6,23.25,5.064,5.064,0,0,1,.75,18.4V8.691A2.025,2.025,0,0,1,2.85,6.75h6.3a2.025,2.025,0,0,1,2.1,1.941Z"/><line class="a" x1="0.75" y1="12" x2="11.25" y2="12"/><path class="a" d="M21,.75,18.75,4.5V15.25a2.136,2.136,0,0,0,2.25,2,2.136,2.136,0,0,0,2.25-2V4.5Z"/><path class="a" d="M6,12V5.25A4.5,4.5,0,0,1,10.5.75h0A4.5,4.5,0,0,1,15,5.25V19.5a3,3,0,0,0,3,3h0a3,3,0,0,0,3-3V17.25"/><line class="a" x1="18.75" y1="14.25" x2="23.25" y2="14.25"/><line class="a" x1="18.75" y1="6" x2="23.25" y2="6"/></svg>