<svg id="Regular" xmlns="http://www.w3.org/2000/svg" viewBox="0 0 24 24"><defs><style>.cls-1{fill:none;stroke:#000;stroke-linecap:round;stroke-linejoin:round;stroke-width:1.5px;}</style></defs><title>designer-community-path</title><path class="cls-1" d="M6.33,1.74A8.33,8.33,0,0,0,.92,8.07a8.85,8.85,0,0,0,.93,6.14.5.5,0,0,0,.71.15l2.61-1.75a.5.5,0,0,0,.15-.67c-1.8-3.05,1-6.34,4.42-7.16s8,.61,9,4.16-2,5.07-5.49,4.61c-.46-.11-.8-.1-.8-.6V8.67c0-.4,0-.31-.36-.35l-.78-.08a11.37,11.37,0,0,0-2.78,0c-.34.06-.36,0-.36.37,0,2.59.08,8.29.07,8.36,0,.65,0,2.2-.77,2.52S5.93,19.12,5.15,19c.11,1.09-.57,3.25.69,3.79A5.22,5.22,0,0,0,9.58,23c2.57-.87,3.4-3.73,3.08-6.08a8.45,8.45,0,0,0,9.94-4.38,7.51,7.51,0,0,0-1.12-7.89C18.07.61,11.15-.17,6.33,1.74"/></svg>