<svg xmlns="http://www.w3.org/2000/svg" viewBox="0 0 24 24"><defs><style>.a{fill:none;stroke:currentColor;stroke-linecap:round;stroke-linejoin:round;stroke-width:1.5px;}</style></defs><title>design-tool-sharpener</title><path class="a" d="M7.5.75V13.5a4.5,4.5,0,0,0,9,0V.75"/><line class="a" x1="10.5" y1="0.75" x2="10.5" y2="17.652"/><path class="a" d="M13.5,8.625A.375.375,0,1,1,13.125,9a.375.375,0,0,1,.375-.375"/><path class="a" d="M19.5,12A6.965,6.965,0,0,1,21,7.557V1.728A.978.978,0,0,0,20.022.75H3.978A.978.978,0,0,0,3,1.728V7.557A6.965,6.965,0,0,1,4.5,12,6.965,6.965,0,0,1,3,16.443v5.829a.978.978,0,0,0,.978.978H20.022A.978.978,0,0,0,21,22.272V16.443A6.965,6.965,0,0,1,19.5,12Z"/></svg>