<svg xmlns="http://www.w3.org/2000/svg" viewBox="0 0 24 24"><defs><style>.a{fill:none;stroke:currentColor;stroke-linecap:round;stroke-linejoin:round;stroke-width:1.5px;}</style></defs><title>design-document-otf-1</title><path class="a" d="M23.25,21v.75a1.5,1.5,0,0,1-1.5,1.5H2.25a1.5,1.5,0,0,1-1.5-1.5V21"/><path class="a" d="M.75,7.5V2.25A1.5,1.5,0,0,1,2.25.75h19.5a1.5,1.5,0,0,1,1.5,1.5V7.5"/><path class="a" d="M16.5,18V12A1.5,1.5,0,0,1,18,10.5h1.5"/><line class="a" x1="16.5" y1="15" x2="18.75" y2="15"/><line class="a" x1="12" y1="18" x2="12" y2="10.5"/><line class="a" x1="10.5" y1="10.5" x2="13.5" y2="10.5"/><path class="a" d="M6,10.5A1.5,1.5,0,0,0,4.5,12v4.5a1.5,1.5,0,0,0,3,0V12A1.5,1.5,0,0,0,6,10.5Z"/></svg>