<svg xmlns="http://www.w3.org/2000/svg" viewBox="0 0 24 24"><defs><style>.a{fill:none;stroke:currentColor;stroke-linecap:round;stroke-linejoin:round;stroke-width:1.5px;}</style></defs><title>design-tool-glue</title><path class="a" d="M13.5,17.931,6.075,10.506,15.1,2.345a3,3,0,0,1,4.134.1l2.328,2.328a3,3,0,0,1,.1,4.134Z"/><path class="a" d="M6.075,10.506,4.719,11.863A1.5,1.5,0,0,0,4.438,13.6h0a2.582,2.582,0,0,1,0,2.308l-.484.967,3.182,3.182.968-.484a2.58,2.58,0,0,1,2.307,0h0a1.5,1.5,0,0,0,1.731-.281L13.5,17.931Z"/><polyline class="a" points="4.382 17.298 0.75 20.931 5.25 20.931 6.632 19.548"/><line class="a" x1="9" y1="22.431" x2="23.25" y2="22.431"/></svg>