<svg xmlns="http://www.w3.org/2000/svg" viewBox="0 0 24 24"><defs><style>.a{fill:none;stroke:currentColor;stroke-linecap:round;stroke-linejoin:round;stroke-width:1.5px;}</style></defs><title>design-document-psd</title><line class="a" x1="4.5" y1="15.75" x2="4.5" y2="8.25"/><path class="a" d="M4.5,8.25h.75a2.25,2.25,0,0,1,0,4.5H4.5"/><path class="a" d="M13.5,8.25H12a1.5,1.5,0,0,0-1.5,1.5c0,2.25,3,2.25,3,4.5a1.5,1.5,0,0,1-1.5,1.5H10.5"/><path class="a" d="M16.5,15.75a3,3,0,0,0,3-3v-1.5a3,3,0,0,0-3-3Z"/><line class="a" x1="1.5" y1="3.75" x2="22.5" y2="3.75"/><line class="a" x1="1.5" y1="20.25" x2="22.5" y2="20.25"/></svg>