<svg xmlns="http://www.w3.org/2000/svg" viewBox="0 0 24 24"><defs><style>.a{fill:none;stroke:currentColor;stroke-linecap:round;stroke-linejoin:round;stroke-width:1.5px;}</style></defs><title>design-document-indd-1</title><path class="a" d="M23.25,21v.75a1.5,1.5,0,0,1-1.5,1.5H2.25a1.5,1.5,0,0,1-1.5-1.5V21"/><path class="a" d="M.75,7.5V2.25A1.5,1.5,0,0,1,2.25.75h19.5a1.5,1.5,0,0,1,1.5,1.5V7.5"/><line class="a" x1="3.001" y1="18" x2="3.001" y2="10.5"/><polyline class="a" points="6.001 18 6.001 10.5 9.001 18 9.001 10.5"/><path class="a" d="M18,18a3,3,0,0,0,3-3V13.5a3,3,0,0,0-3-3Z"/><path class="a" d="M12,18a3,3,0,0,0,3-3V13.5a3,3,0,0,0-3-3Z"/></svg>