<svg xmlns="http://www.w3.org/2000/svg" viewBox="0 0 24 24"><defs><style>.a{fill:none;stroke:currentColor;stroke-linecap:round;stroke-linejoin:round;stroke-width:1.5px;}</style></defs><title>design-document-3ds</title><line class="a" x1="0.75" y1="3.75" x2="23.25" y2="3.75"/><line class="a" x1="0.75" y1="20.25" x2="23.25" y2="20.25"/><path class="a" d="M20.25,8.25h-1.5a1.5,1.5,0,0,0-1.5,1.5c0,2.25,3,2.25,3,4.5a1.5,1.5,0,0,1-1.5,1.5h-1.5"/><path class="a" d="M11.25,15.75a3,3,0,0,0,3-3v-1.5a3,3,0,0,0-3-3Z"/><path class="a" d="M3.75,9.75a1.5,1.5,0,0,1,1.5-1.5l1.135.005A1.873,1.873,0,0,1,6.377,12a1.873,1.873,0,0,1,.008,3.745L5.25,15.75a1.5,1.5,0,0,1-1.5-1.5"/></svg>