<svg xmlns="http://www.w3.org/2000/svg" viewBox="0 0 24 24"><defs><style>.a{fill:none;stroke:currentColor;stroke-linecap:round;stroke-linejoin:round;stroke-width:1.5px;}</style></defs><title>design-tool-compass</title><path class="a" d="M14.625,6.75h-4.5V3A2.25,2.25,0,0,1,12.375.75h0A2.25,2.25,0,0,1,14.625,3Z"/><path class="a" d="M4.125,18.75V21l-1.5,2.25L1.125,21V9.75a1.5,1.5,0,0,1,1.5-1.5h0a1.5,1.5,0,0,1,1.5,1.5v4.5"/><path class="a" d="M1.125,18.75h4.5l9-12,7.222,10.505a1.891,1.891,0,0,1-.424,2.584h0a1.89,1.89,0,0,1-2.673-.414l-6.644-9.316"/><line class="a" x1="10.125" y1="6.75" x2="4.125" y2="14.25"/><line class="a" x1="21.423" y1="19.839" x2="22.875" y2="21.75"/><line class="a" x1="1.125" y1="14.25" x2="4.125" y2="14.25"/></svg>