<svg xmlns="http://www.w3.org/2000/svg" viewBox="0 0 24 24"><defs><style>.a{fill:none;stroke:currentColor;stroke-linecap:round;stroke-linejoin:round;stroke-width:1.5px;}</style></defs><title>design-file-dwg-1</title><path class="a" d="M2.249,23.25a1.5,1.5,0,0,1-1.5-1.5V2.25a1.5,1.5,0,0,1,1.5-1.5H12.878a1.5,1.5,0,0,1,1.061.439L19.81,7.061a1.5,1.5,0,0,1,.439,1.06V12.75"/><path class="a" d="M20.249,8.25h-6a1.5,1.5,0,0,1-1.5-1.5v-6"/><path class="a" d="M11.249,15.75v2.017a9,9,0,0,0,.644,3.342l.856,2.141,1.5-5.25,1.5,5.25.857-2.141a9,9,0,0,0,.643-3.342V15.75"/><path class="a" d="M22.5,20.25h.75v1.5a1.5,1.5,0,0,1-3,0v-4.5a1.5,1.5,0,0,1,1.5-1.5h1.5"/><path class="a" d="M5.249,23.25a3,3,0,0,0,3-3v-1.5a3,3,0,0,0-3-3Z"/></svg>