<svg xmlns="http://www.w3.org/2000/svg" viewBox="0 0 24 24"><defs><style>.a{fill:none;stroke:currentColor;stroke-linecap:round;stroke-linejoin:round;stroke-width:1.5px;}</style></defs><title>design-drawing-board</title><path class="a" d="M9,6H4.5A1.5,1.5,0,0,0,3,7.5V18H21V7.5A1.5,1.5,0,0,0,19.5,6H15"/><line class="a" x1="1.5" y1="18" x2="22.5" y2="18"/><line class="a" x1="12" y1="18" x2="12" y2="23.25"/><line class="a" x1="8.25" y1="18" x2="6" y2="23.25"/><line class="a" x1="15.75" y1="18" x2="18" y2="23.25"/><path class="a" d="M13.5,7.5h-3A1.5,1.5,0,0,1,9,6H9V5.25a.75.75,0,0,1,.75-.75h4.5a.75.75,0,0,1,.75.75V6h0A1.5,1.5,0,0,1,13.5,7.5Z"/><line class="a" x1="12" y1="2.25" x2="12" y2="4.5"/></svg>