<svg xmlns="http://www.w3.org/2000/svg" viewBox="0 0 24 24"><defs><style>.a{fill:none;stroke:currentColor;stroke-linecap:round;stroke-linejoin:round;stroke-width:1.5px;}</style></defs><title>design-tool-magnet</title><path class="a" d="M19.03,9.919l-6.805,6.805a3.5,3.5,0,0,1-4.949,0h0a3.5,3.5,0,0,1,0-4.949L14.081,4.97a.874.874,0,0,0,0-1.237L11.607,1.258a.877.877,0,0,0-1.238,0l-6.8,6.805a8.747,8.747,0,0,0,0,12.372h0a8.747,8.747,0,0,0,12.372,0l6.805-6.8a.877.877,0,0,0,0-1.238L20.267,9.919A.874.874,0,0,0,19.03,9.919Z"/><line class="a" x1="7.276" y1="4.351" x2="10.988" y2="8.063"/><line class="a" x1="15.937" y1="13.012" x2="19.649" y2="16.724"/></svg>