<svg xmlns="http://www.w3.org/2000/svg" viewBox="0 0 24 24"><defs><style>.a{fill:none;stroke:currentColor;stroke-linecap:round;stroke-linejoin:round;stroke-width:1.5px;}</style></defs><title>design-document-psd-1</title><path class="a" d="M23.25,21v.75a1.5,1.5,0,0,1-1.5,1.5H2.25a1.5,1.5,0,0,1-1.5-1.5V21"/><path class="a" d="M.75,7.5V2.25A1.5,1.5,0,0,1,2.25.75h19.5a1.5,1.5,0,0,1,1.5,1.5V7.5"/><line class="a" x1="4.5" y1="18" x2="4.5" y2="10.5"/><path class="a" d="M4.5,10.5h.75a2.25,2.25,0,0,1,0,4.5H4.5"/><path class="a" d="M13.5,10.5H12A1.5,1.5,0,0,0,10.5,12c0,2.25,3,2.25,3,4.5A1.5,1.5,0,0,1,12,18H10.5"/><path class="a" d="M16.5,18a3,3,0,0,0,3-3V13.5a3,3,0,0,0-3-3Z"/></svg>