<svg xmlns="http://www.w3.org/2000/svg" viewBox="0 0 24 24"><defs><style>.a{fill:none;stroke:currentColor;stroke-linecap:round;stroke-linejoin:round;stroke-width:1.5px;}</style></defs><title>design-tool-pen-station</title><path class="a" d="M2.161.76c2.6,2.331,1.975,1.39,3.324,2.259a2.164,2.164,0,0,1,.783.929A2.25,2.25,0,1,1,2.161,5.787,5.686,5.686,0,0,1,2.161.76Z"/><line class="a" x1="4.228" y1="7.117" x2="5.159" y2="9.76"/><path class="a" d="M11.911,23.26h-4.5a4.5,4.5,0,0,1-4.5-4.5v-9h13.5v9A4.5,4.5,0,0,1,11.911,23.26Z"/><path class="a" d="M17.911,18.76h-1.5v-9h1.5a4.5,4.5,0,0,1,4.5,4.5h0A4.5,4.5,0,0,1,17.911,18.76Z"/><line class="a" x1="6.24" y1="5.848" x2="8.668" y2="9.76"/><polyline class="a" points="9.644 9.76 11.667 4.029 15.074 0.74 15.661 5.438 14.136 9.76"/><path class="a" d="M15.426,6.1a3.528,3.528,0,0,1-3.994-1.41"/></svg>