<svg id="Regular" xmlns="http://www.w3.org/2000/svg" viewBox="0 0 24 24"><defs><style>.cls-1{fill:none;stroke:#000;stroke-linecap:round;stroke-linejoin:round;stroke-width:1.5px;}</style></defs><title>designer-community-designmoo</title><path class="cls-1" d="M17.74,17.23c-.83,0-1.42,1.55-3.22,1.5-.34-.09-.34-.6-.16-1.13.7-1.89,4.83-7.83,4.88-10.58,0-.81-1.27-2-2-2.14-.69,2.59-.78,3-3,7.29a2,2,0,0,0-2.06-1.63c-2.45,0-4.9,3.18-5.74,5.73s-1.11,6,1.91,6.08c1.19,0,2.11-1,2.88-1.95,0,1.36.66,1.92,1.36,1.92,1,0,2.22-.93,4-2.94.28-.31,1.31-1.47,1.32-1.89,0-.18-.08-.27-.2-.27"/><path class="cls-1" d="M6.2,11.45,5.7,9.52A1.68,1.68,0,0,0,4.62,8.44L1.4,7.6c-.47-.12-.47-.32,0-.45l3.21-.84A1.67,1.67,0,0,0,5.7,5.22L6.54,2c.12-.47.32-.47.45,0l.84,3.22A1.68,1.68,0,0,0,8.9,6.31l3.21.84c.47.12.47.33,0,.45L8.9,8.44A1.68,1.68,0,0,0,7.82,9.52L7.7,10A4.62,4.62,0,0,0,6.2,11.45Z"/><path class="cls-1" d="M21.7,14.94l1.12.29c.16,0,.16.11,0,.16l-1.12.29a.59.59,0,0,0-.38.38L21,17.19c0,.16-.11.16-.16,0l-.29-1.13a.58.58,0,0,0-.38-.38l-1.12-.29c-.16,0-.16-.11,0-.16l1.12-.29a.58.58,0,0,0,.38-.38l.29-1.13c0-.16.11-.16.16,0l.29,1.13a.58.58,0,0,0,.38.38"/><path class="cls-1" d="M10,17.75c-.16,0-.27-.17-.26-.41a3,3,0,0,1,.73-1.76c.13-.14.27-.32.48-.32s.27.11.26.31a3.17,3.17,0,0,1-.54,1.55"/><path class="cls-1" d="M10.64,17.11c-.12.2-.44.64-.68.64"/><line class="cls-1" x1="11.55" y1="3.51" x2="14.47" y2="3.51"/><line class="cls-1" x1="13.01" y1="2.05" x2="13.01" y2="4.97"/></svg>