<svg xmlns="http://www.w3.org/2000/svg" viewBox="0 0 24 24"><defs><style>.a{fill:none;stroke:currentColor;stroke-linecap:round;stroke-linejoin:round;stroke-width:1.5px;}</style></defs><title>design-file-indd-1</title><line class="a" x1="5.247" y1="23.25" x2="5.247" y2="15.75"/><polyline class="a" points="8.247 23.25 8.247 15.75 11.247 23.25 11.247 15.75"/><path class="a" d="M20.247,23.25a3,3,0,0,0,3-3v-1.5a3,3,0,0,0-3-3Z"/><path class="a" d="M14.247,23.25a3,3,0,0,0,3-3v-1.5a3,3,0,0,0-3-3Z"/><path class="a" d="M2.247,23.25a1.5,1.5,0,0,1-1.5-1.5V2.25a1.5,1.5,0,0,1,1.5-1.5H12.876a1.5,1.5,0,0,1,1.061.439l5.871,5.872a1.5,1.5,0,0,1,.439,1.06V12.75"/><path class="a" d="M20.247,8.25h-6a1.5,1.5,0,0,1-1.5-1.5v-6"/></svg>