<svg xmlns="http://www.w3.org/2000/svg" viewBox="0 0 24 24"><defs><style>.a{fill:none;stroke:currentColor;stroke-linecap:round;stroke-linejoin:round;stroke-width:1.5px;}</style></defs><title>design-draw</title><path class="a" d="M17.25,4.4V2.476a.979.979,0,0,0-.976-.976H3.226a.979.979,0,0,0-.976.976V21.524a.979.979,0,0,0,.976.976H16.274a.979.979,0,0,0,.976-.976"/><line class="a" x1="0.75" y1="6" x2="3.19" y2="6"/><line class="a" x1="0.75" y1="12" x2="3.19" y2="12"/><line class="a" x1="0.75" y1="18" x2="3.19" y2="18"/><path class="a" d="M18.23,8.319a5.368,5.368,0,0,0-8.29,4.5v.488a1.464,1.464,0,0,0,2.928,0v-.488A2.442,2.442,0,0,1,16.051,10.5"/><path class="a" d="M17.685,13.005c2.063.472,1.551,2.734.074,2.745H15a1.5,1.5,0,0,0,0,3h2.82c1.539,1.772,3.547,1.294,5.381.334"/><line class="a" x1="20.492" y1="10.198" x2="23.25" y2="12.956"/><path class="a" d="M16.051,10.5,20.844,5.7a.977.977,0,0,1,1.381,0l.69.691a.976.976,0,0,1,0,1.38l-7.976,7.977"/><polyline class="a" points="13.561 17.674 8.765 19.854 10.491 16.058 11.839 14.71"/><line class="a" x1="19.415" y1="7.134" x2="21.486" y2="9.205"/><line class="a" x1="17.689" y1="8.859" x2="19.76" y2="10.93"/></svg>