<svg xmlns="http://www.w3.org/2000/svg" viewBox="0 0 24 24"><defs><style>.a{fill:none;stroke:currentColor;stroke-linecap:round;stroke-linejoin:round;stroke-width:1.5px;}</style></defs><title>design-file-3ds-1</title><path class="a" d="M23.248,15.75h-1.5a1.5,1.5,0,0,0-1.5,1.5c0,2.25,3,2.25,3,4.5a1.5,1.5,0,0,1-1.5,1.5h-1.5"/><path class="a" d="M14.248,23.25a3,3,0,0,0,3-3v-1.5a3,3,0,0,0-3-3Z"/><path class="a" d="M6.748,17.25a1.5,1.5,0,0,1,1.5-1.5l1.135.005A1.873,1.873,0,0,1,9.375,19.5a1.873,1.873,0,0,1,.008,3.745l-1.135,0a1.5,1.5,0,0,1-1.5-1.5"/><path class="a" d="M3,23.25h-.75a1.5,1.5,0,0,1-1.5-1.5V2.25a1.5,1.5,0,0,1,1.5-1.5H12.877a1.5,1.5,0,0,1,1.06.439l5.872,5.872a1.5,1.5,0,0,1,.439,1.06V12.75"/><path class="a" d="M20.248,8.25h-6a1.5,1.5,0,0,1-1.5-1.5v-6"/></svg>