<svg xmlns="http://www.w3.org/2000/svg" viewBox="0 0 24 24"><defs><style>.a{fill:none;stroke:currentColor;stroke-linecap:round;stroke-linejoin:round;stroke-width:1.5px;}</style></defs><title>design-tool-magic-wand</title><path class="a" d="M22.151,2.85,20.892,6.289l2.121,2.122a.735.735,0,0,1-.541,1.273l-3.653-.029L17.5,13.018a.785.785,0,0,1-1.485-.1L14.932,9.07,11.08,7.991a.786.786,0,0,1-.1-1.486l3.363-1.323-.029-3.653A.734.734,0,0,1,15.588.986L17.71,3.107,21.151,1.85A.8.8,0,0,1,22.151,2.85Z"/><line class="a" x1="14.932" y1="9.07" x2="0.75" y2="23.25"/></svg>