<svg xmlns="http://www.w3.org/2000/svg" viewBox="0 0 24 24"><defs><style>.a{fill:none;stroke:currentColor;stroke-linecap:round;stroke-linejoin:round;stroke-width:1.5px;}</style></defs><title>design-tool-pencil-ruler</title><path class="a" d="M5.25,23.25h0a3,3,0,0,1-3-3V7.458a2.986,2.986,0,0,1,.317-1.341L4.579,2.092a.75.75,0,0,1,1.342,0L7.933,6.117A2.986,2.986,0,0,1,8.25,7.458V20.25A3,3,0,0,1,5.25,23.25Z"/><line class="a" x1="2.335" y1="6.75" x2="8.165" y2="6.75"/><line class="a" x1="2.25" y1="19.5" x2="8.25" y2="19.5"/><rect class="a" x="12.75" y="0.75" width="9" height="22.5" rx="1.5" ry="1.5"/><line class="a" x1="12.75" y1="5.25" x2="15.75" y2="5.25"/><line class="a" x1="12.75" y1="9.75" x2="15.75" y2="9.75"/><line class="a" x1="12.75" y1="14.25" x2="15.75" y2="14.25"/><line class="a" x1="12.75" y1="18.75" x2="15.75" y2="18.75"/></svg>