<svg xmlns="http://www.w3.org/2000/svg" viewBox="0 0 24 24"><defs><style>.a{fill:none;stroke:currentColor;stroke-linecap:round;stroke-linejoin:round;stroke-width:1.5px;}</style></defs><title>design-file-text-image</title><rect class="a" x="14.25" y="14.25" width="9" height="9" rx="1" ry="1"/><path class="a" d="M17.344,16.781a.375.375,0,1,1-.375.375.375.375,0,0,1,.375-.375"/><path class="a" d="M23.135,22.327,20.923,19.01a.749.749,0,0,0-1.275.044l-2.4,4.2"/><path class="a" d="M11.25,23.25h-9a1.5,1.5,0,0,1-1.5-1.5V2.25A1.5,1.5,0,0,1,2.25.75h15a1.5,1.5,0,0,1,1.047.426l3,2.883a1.5,1.5,0,0,1,.453,1.074V11.25"/><line class="a" x1="5.25" y1="8.25" x2="17.25" y2="8.25"/><line class="a" x1="5.25" y1="12.75" x2="11.25" y2="12.75"/><line class="a" x1="5.25" y1="17.25" x2="11.25" y2="17.25"/></svg>