<svg id="Regular" xmlns="http://www.w3.org/2000/svg" viewBox="0 0 24 24"><defs><style>.cls-1{fill:none;stroke:#000;stroke-linecap:round;stroke-linejoin:round;stroke-width:1.5px;}</style></defs><title>designer-community-design-float</title><circle class="cls-1" cx="11.99" cy="12" r="11.25"/><circle class="cls-1" cx="11.99" cy="12" r="2.5"/><path class="cls-1" d="M13.35,6.74a5.44,5.44,0,0,1,3.9,3.9h3.23A8.61,8.61,0,0,0,13.36,3.5ZM10.64,3.5a8.62,8.62,0,0,0-7.14,7.14H6.73a5.46,5.46,0,0,1,3.9-3.9Zm2.72,17a8.62,8.62,0,0,0,7.14-7.14H17.26a5.44,5.44,0,0,1-3.89,3.9Zm-2.72-3.24a5.45,5.45,0,0,1-3.9-3.91H3.5a8.61,8.61,0,0,0,7.14,7.13Z"/></svg>