<svg xmlns="http://www.w3.org/2000/svg" viewBox="0 0 24 24"><defs><style>.a{fill:none;stroke:currentColor;stroke-linecap:round;stroke-linejoin:round;stroke-width:1.5px;}</style></defs><title>design-file-pen</title><path class="a" d="M11.465,14.1a.375.375,0,1,1-.53,0,.377.377,0,0,1,.53,0"/><path class="a" d="M18.478,12.371a1.5,1.5,0,0,1-2.121,0L13.175,9.189a1.5,1.5,0,0,1,0-2.122"/><path class="a" d="M13.281,17.568c-1.406,1.406-6.47,1.167-6.47,1.167s-.24-5.065,1.166-6.47a3.753,3.753,0,0,1,5.3,5.3Z"/><path class="a" d="M22.5,21.75a1.5,1.5,0,0,1-1.5,1.5H3a1.5,1.5,0,0,1-1.5-1.5V2.25A1.5,1.5,0,0,1,3,.75H18.045a1.5,1.5,0,0,1,1.048.426l2.954,2.883A1.5,1.5,0,0,1,22.5,5.133Z"/></svg>