<svg xmlns="http://www.w3.org/2000/svg" viewBox="0 0 24 24"><defs><style>.a{fill:none;stroke:currentColor;stroke-linecap:round;stroke-linejoin:round;stroke-width:1.5px;}</style></defs><title>design-tool-ink</title><rect class="a" x="3" y="0.75" width="18" height="6" rx="0.75" ry="0.75"/><path class="a" d="M19.872,10.248A4.205,4.205,0,0,1,18,6.75H6a4.205,4.205,0,0,1-1.872,3.5l-.624.416a4.5,4.5,0,0,0-2,3.744V20.25a3,3,0,0,0,3,3h15a3,3,0,0,0,3-3V14.408a4.5,4.5,0,0,0-2-3.744Z"/><line class="a" x1="7.5" y1="0.75" x2="7.5" y2="6.75"/><line class="a" x1="16.5" y1="0.75" x2="16.5" y2="6.75"/><line class="a" x1="12" y1="0.75" x2="12" y2="6.75"/><path class="a" d="M14.25,16.5A2.025,2.025,0,0,1,12,18.75,2.025,2.025,0,0,1,9.75,16.5c0-1.657,2.25-3.75,2.25-3.75S14.25,14.843,14.25,16.5Z"/></svg>