<svg xmlns="http://www.w3.org/2000/svg" viewBox="0 0 24 24"><defs><style>.a{fill:none;stroke:currentColor;stroke-linecap:round;stroke-linejoin:round;stroke-width:1.5px;}</style></defs><title>design-file-max-1</title><path class="a" d="M3.75,23.25H2.25a1.5,1.5,0,0,1-1.5-1.5V2.25A1.5,1.5,0,0,1,2.25.75H12.878a1.5,1.5,0,0,1,1.061.439L19.81,7.061a1.5,1.5,0,0,1,.44,1.06V12.75"/><path class="a" d="M20.25,8.25h-6a1.5,1.5,0,0,1-1.5-1.5v-6"/><path class="a" d="M14.25,23.25v-6a1.5,1.5,0,0,1,3,0v6"/><line class="a" x1="14.25" y1="20.25" x2="17.25" y2="20.25"/><polyline class="a" points="11.25 23.25 11.25 15.75 9 19.5 6.75 15.75 6.75 23.25"/><line class="a" x1="20.25" y1="15.75" x2="23.25" y2="23.25"/><line class="a" x1="23.25" y1="15.75" x2="20.25" y2="23.25"/></svg>