<svg xmlns="http://www.w3.org/2000/svg" viewBox="0 0 24 24"><defs><style>.a{fill:none;stroke:currentColor;stroke-linecap:round;stroke-linejoin:round;stroke-width:1.5px;}</style></defs><title>design-tool-pens</title><path class="a" d="M19.594.75s.025,1.572,2,3.712a4.139,4.139,0,0,1,.315.36,2.9,2.9,0,1,1-5.221,1.741A6.851,6.851,0,0,1,19.594.75Z"/><path class="a" d="M19.594,23.25a2.146,2.146,0,0,0,2.139-2.318L20.726,9.24a2.908,2.908,0,0,1-2.3-.018l-.968,11.71A2.147,2.147,0,0,0,19.594,23.25Z"/><path class="a" d="M13.5,6,11.25.75,9,6V21a2.25,2.25,0,0,0,2.25,2.25h0A2.25,2.25,0,0,0,13.5,21Z"/><polyline class="a" points="9 6 11.25 7.5 13.5 6"/><line class="a" x1="9" y1="19.5" x2="13.5" y2="19.5"/><line class="a" x1="9" y1="16.5" x2="13.5" y2="16.5"/><path class="a" d="M6,18,3.75,23.25,1.5,18V3A2.25,2.25,0,0,1,3.75.75h0A2.25,2.25,0,0,1,6,3Z"/><line class="a" x1="1.5" y1="18" x2="6" y2="18"/><line class="a" x1="1.5" y1="4.5" x2="6" y2="4.5"/><line class="a" x1="1.5" y1="12" x2="6" y2="12"/></svg>