<svg xmlns="http://www.w3.org/2000/svg" viewBox="0 0 24 24"><defs><style>.a{fill:none;stroke:currentColor;stroke-linecap:round;stroke-linejoin:round;stroke-width:1.5px;}</style></defs><title>design-file-vector</title><line class="a" x1="13.189" y1="7.811" x2="7.811" y2="13.19"/><circle class="a" cx="14.25" cy="6.75" r="1.5"/><path class="a" d="M7.811,15.312a1.5,1.5,0,1,1,0-2.122A1.5,1.5,0,0,1,7.811,15.312Z"/><path class="a" d="M16.5,12H14.492A2.492,2.492,0,0,0,12,14.492V16.5"/><rect class="a" x="16.5" y="10.5" width="3" height="3" rx="0.75" ry="0.75"/><rect class="a" x="10.5" y="16.5" width="3" height="3" rx="0.75" ry="0.75"/><path class="a" d="M22.5,21.75a1.5,1.5,0,0,1-1.5,1.5H3a1.5,1.5,0,0,1-1.5-1.5V2.25A1.5,1.5,0,0,1,3,.75H18a1.5,1.5,0,0,1,1.047.426l3,2.883A1.5,1.5,0,0,1,22.5,5.133Z"/></svg>