<svg xmlns="http://www.w3.org/2000/svg" viewBox="0 0 24 24"><defs><style>.a{fill:none;stroke:currentColor;stroke-linecap:round;stroke-linejoin:round;stroke-width:1.5px;}</style></defs><title>design-tool-fibonacci</title><path class="a" d="M6.237.75C12.1,1.3,19.5,5.775,19.5,14.446c0,6.063-4.218,8.4-8.25,8.8"/><path class="a" d="M9.364,14.446a3.289,3.289,0,0,1,1.115.708,2.486,2.486,0,0,1,0,3.6,2.159,2.159,0,0,1-2.979,0"/><path class="a" d="M6,.75H18.5a1,1,0,0,1,1,1v20.5a1,1,0,0,1-1,1H7.36A2.86,2.86,0,0,1,4.5,20.39V2.25A1.5,1.5,0,0,1,6,.75Z"/><line class="a" x1="19.5" y1="14.446" x2="4.5" y2="14.446"/><line class="a" x1="11.25" y1="14.446" x2="11.25" y2="23.25"/></svg>