<svg xmlns="http://www.w3.org/2000/svg" viewBox="0 0 24 24"><defs><style>.a{fill:none;stroke:currentColor;stroke-linecap:round;stroke-linejoin:round;stroke-width:1.5px;}</style></defs><title>design-document-3ds-1</title><path class="a" d="M23.25,21v.75a1.5,1.5,0,0,1-1.5,1.5H2.25a1.5,1.5,0,0,1-1.5-1.5V21"/><path class="a" d="M.75,7.5V2.25A1.5,1.5,0,0,1,2.25.75h19.5a1.5,1.5,0,0,1,1.5,1.5V7.5"/><path class="a" d="M20.247,10.5h-1.5a1.5,1.5,0,0,0-1.5,1.5c0,2.25,3,2.25,3,4.5a1.5,1.5,0,0,1-1.5,1.5h-1.5"/><path class="a" d="M11.247,18a3,3,0,0,0,3-3V13.5a3,3,0,0,0-3-3Z"/><path class="a" d="M3.747,12a1.5,1.5,0,0,1,1.5-1.5l1.135.005a1.873,1.873,0,0,1-.008,3.745A1.873,1.873,0,0,1,6.382,18L5.247,18a1.5,1.5,0,0,1-1.5-1.5"/></svg>