<svg id="Regular" xmlns="http://www.w3.org/2000/svg" viewBox="0 0 24 24"><defs><style>.cls-1{fill:none;stroke:#000;stroke-linecap:round;stroke-linejoin:round;stroke-width:1.5px;}</style></defs><title>designer-community-behance-1</title><path class="cls-1" d="M12.24,15.45A3.45,3.45,0,0,0,10,12a3,3,0,0,0,1.75-3c0-3.07-2.53-3.77-4.37-3.8H.75V19.88h6.2C11.66,19.88,12.24,16.79,12.24,15.45ZM3.43,7.89H7.1A1.47,1.47,0,0,1,8.57,9.35h0A1.47,1.47,0,0,1,7.1,10.82H3.43Zm0,5.39H7.1a2,2,0,0,1,2,2h0a2,2,0,0,1-2,2H3.43Z"/><rect class="cls-1" x="15.42" y="4.12" width="5.87" height="2.21" rx="0.49" ry="0.49"/><path class="cls-1" d="M20.45,16.94a.49.49,0,0,0-.34.14,3,3,0,0,1-1.83.55A2.43,2.43,0,0,1,15.71,15h7.06a.49.49,0,0,0,.49-.49c0-5.65-4-5.87-4.89-5.87-2.54,0-5.38,1.25-5.38,5.7,0,4.68,3.38,5.55,5.38,5.55a5,5,0,0,0,4.51-2.17.49.49,0,0,0-.41-.76Zm-4.54-4.06a2.3,2.3,0,0,1,2.45-2h0a2.3,2.3,0,0,1,2.45,2Z"/></svg>