<svg xmlns="http://www.w3.org/2000/svg" viewBox="0 0 24 24"><defs><style>.a{fill:none;stroke:currentColor;stroke-linecap:round;stroke-linejoin:round;stroke-width:1.5px;}</style></defs><title>design-document-dwg</title><line class="a" x1="1.5" y1="3.75" x2="22.5" y2="3.75"/><line class="a" x1="1.5" y1="20.25" x2="22.5" y2="20.25"/><path class="a" d="M9,8.25v2.017a8.982,8.982,0,0,0,.644,3.342L10.5,15.75,12,10.5l1.5,5.25.856-2.141A8.982,8.982,0,0,0,15,10.267V8.25"/><path class="a" d="M20.25,12.75H21v1.5a1.5,1.5,0,0,1-3,0V9.75a1.5,1.5,0,0,1,1.5-1.5H21"/><path class="a" d="M3,15.75a3,3,0,0,0,3-3v-1.5a3,3,0,0,0-3-3Z"/></svg>