<svg xmlns="http://www.w3.org/2000/svg" viewBox="0 0 24 24"><defs><style>.a{fill:none;stroke:currentColor;stroke-linecap:round;stroke-linejoin:round;stroke-width:1.5px;}</style></defs><title>design-tool-paper-glue</title><path class="a" d="M9.255,20.067l-5.3-5.3a.749.749,0,0,1,0-1.06l9.714-9.714,6.364,6.364-9.714,9.714A.752.752,0,0,1,9.255,20.067Z"/><path class="a" d="M9.145,19.957,4.062,14.873,1.293,17.641C-.94,19.875,4.272,25.427,6.8,22.3Z"/><path class="a" d="M20.03,10.353,13.666,3.989l2.781-2.781a1.5,1.5,0,0,1,2.121,0L22.811,5.45a1.5,1.5,0,0,1,0,2.122Z"/><line class="a" x1="20.78" y1="3.42" x2="16.938" y2="7.261"/><line class="a" x1="13.737" y1="10.462" x2="11.176" y2="13.024"/></svg>