<svg xmlns="http://www.w3.org/2000/svg" viewBox="0 0 24 24"><defs><style>.a{fill:none;stroke:currentColor;stroke-linecap:round;stroke-linejoin:round;stroke-width:1.5px;}</style></defs><title>design-tool-wireframe</title><path class="a" d="M22.63,14.87,15,22.5l-3.75.75L12,19.5l7.63-7.63a2.114,2.114,0,0,1,2.992,0l.008.008A2.114,2.114,0,0,1,22.63,14.87Z"/><path class="a" d="M8.25,20.25h-6a1.5,1.5,0,0,1-1.5-1.5V2.25A1.5,1.5,0,0,1,2.25.75h15a1.5,1.5,0,0,1,1.5,1.5V9"/><path class="a" d="M9.75,17.25H5.25a.75.75,0,0,1-.75-.75V12.75A.75.75,0,0,1,5.25,12H15"/><rect class="a" x="4.5" y="3.75" width="10.5" height="5.25" rx="0.75" ry="0.75"/></svg>