<svg xmlns="http://www.w3.org/2000/svg" viewBox="0 0 24 24"><defs><style>.a{fill:none;stroke:currentColor;stroke-linecap:round;stroke-linejoin:round;stroke-width:1.5px;}</style></defs><title>design-tool-glue-1</title><path class="a" d="M16.02,13.8,10.742,4.723,17.226.953a1.5,1.5,0,0,1,2.051.543l3.77,6.484a1.5,1.5,0,0,1-.543,2.051Z"/><polygon class="a" points="16.02 13.8 10.742 4.723 8.36 9.578 10.622 13.469 16.02 13.8"/><polygon class="a" points="4.681 15.188 3.927 13.891 8.36 9.578 10.622 13.469 4.681 15.188"/><path class="a" d="M2.688,16.979.955,20.446a1.936,1.936,0,0,0,.363,2.236h0a1.937,1.937,0,0,0,2.74,0h0a1.936,1.936,0,0,0,.363-2.236Z"/></svg>