<svg xmlns="http://www.w3.org/2000/svg" viewBox="0 0 24 24"><defs><style>.a{fill:none;stroke:currentColor;stroke-linecap:round;stroke-linejoin:round;stroke-width:1.5px;}</style></defs><title>design-document-max-1</title><path class="a" d="M23.25,21v.75a1.5,1.5,0,0,1-1.5,1.5H2.25a1.5,1.5,0,0,1-1.5-1.5V21"/><path class="a" d="M.75,7.5V2.25A1.5,1.5,0,0,1,2.25.75h19.5a1.5,1.5,0,0,1,1.5,1.5V7.5"/><path class="a" d="M11.251,18V12a1.5,1.5,0,0,1,3,0v6"/><line class="a" x1="11.251" y1="15" x2="14.251" y2="15"/><polyline class="a" points="8.251 18 8.251 10.5 6.001 14.25 3.751 10.5 3.751 18"/><line class="a" x1="17.251" y1="10.5" x2="20.251" y2="18"/><line class="a" x1="20.251" y1="10.5" x2="17.251" y2="18"/></svg>