<svg id="Regular" xmlns="http://www.w3.org/2000/svg" viewBox="0 0 24 24"><defs><style>.cls-1{fill:none;stroke:#000;stroke-linecap:round;stroke-linejoin:round;stroke-width:1.5px;}</style></defs><title>developer-community-github</title><path class="cls-1" d="M19.5,16c0-6-4.13-3.53-7.5-3.53S4.5,10,4.5,16A3.5,3.5,0,0,0,8,19.45h8A3.5,3.5,0,0,0,19.5,16Z"/><path class="cls-1" d="M21.78,9.4l0,0S24.53,4.73,21.2,2C19.14,2,16,5.38,16,5.38l0,0a14.53,14.53,0,0,0-8,0S4.89,2,2.85,2C-.41,4.66,2.1,9.19,2.22,9.4A9.11,9.11,0,0,0,.78,15.3C1,18.5,3.71,22,6.92,22H17.07c3.22,0,5.89-3.5,6.14-6.71A9.09,9.09,0,0,0,21.78,9.4Z"/><path class="cls-1" d="M15.52,16.7c-.28,0-.5-.34-.5-.75s.22-.75.5-.75.5.34.5.75-.22.75-.5.75"/><path class="cls-1" d="M8.52,16.7c-.28,0-.5-.34-.5-.75s.22-.75.5-.75.5.34.5.75-.22.75-.5.75"/></svg>