<svg id="Regular" xmlns="http://www.w3.org/2000/svg" viewBox="0 0 24 24"><defs><style>.cls-1{fill:none;stroke:currentColor;stroke-linecap:round;stroke-linejoin:round;stroke-width:1.5px;}</style></defs><title>diagram-arrow-corner-point-right</title><path class="cls-1" d="M23.011,6.951,16.862.853c-.2-.185-.362-.114-.362.158V4.5H2.25A1.5,1.5,0,0,0,.75,6V21.75a1.5,1.5,0,0,0,1.5,1.5H4.5A1.5,1.5,0,0,0,6,21.75V12a1.5,1.5,0,0,1,1.5-1.5h9v3.489c0,.272.163.343.362.158l6.149-6.1a.75.75,0,0,0,0-1.1Z"/></svg>