<svg id="Regular" xmlns="http://www.w3.org/2000/svg" viewBox="0 0 24 24"><defs><style>.cls-1{fill:none;stroke:currentColor;stroke-linecap:round;stroke-linejoin:round;stroke-width:1.5px;}</style></defs><title>diagram-arrow-corner-point-left</title><path class="cls-1" d="M.989,6.951,7.138.853c.2-.185.362-.114.362.158V4.5H21.75A1.5,1.5,0,0,1,23.25,6V21.75a1.5,1.5,0,0,1-1.5,1.5H19.5a1.5,1.5,0,0,1-1.5-1.5V12a1.5,1.5,0,0,0-1.5-1.5h-9v3.489c0,.272-.163.343-.362.158L.989,8.049a.75.75,0,0,1,0-1.1Z"/></svg>