<svg id="Regular" xmlns="http://www.w3.org/2000/svg" viewBox="0 0 24 24"><defs><style>.cls-1{fill:none;stroke:currentColor;stroke-linecap:round;stroke-linejoin:round;stroke-width:1.5px;}</style></defs><title>diagram-dash-circle</title><polyline class="cls-1" points="0.758 14.008 3.758 11.008 6.758 14.008"/><path class="cls-1" d="M15.835,2.585a9.637,9.637,0,0,1,2.808,1.237"/><path class="cls-1" d="M21.135,6.1a9.547,9.547,0,0,1,1.492,2.681"/><path class="cls-1" d="M23.25,12.092a10.544,10.544,0,0,1-.419,3.042"/><path class="cls-1" d="M21.319,18.149a9.39,9.39,0,0,1-2.17,2.17"/><path class="cls-1" d="M16.134,21.831a10.544,10.544,0,0,1-3.042.419"/><path class="cls-1" d="M9.777,21.627A9.561,9.561,0,0,1,7.1,20.135"/><path class="cls-1" d="M4.822,17.643a9.61,9.61,0,0,1-1.237-2.808"/></svg>