<svg id="Regular" xmlns="http://www.w3.org/2000/svg" viewBox="0 0 24 24"><defs><style>.cls-1{fill:none;stroke:currentColor;stroke-linecap:round;stroke-linejoin:round;stroke-width:1.5px;}</style></defs><title>diagram-arrow-diagonal-1</title><path class="cls-1" d="M3.721,16.408,1.128,14.277c-.207-.172-.377-.093-.378.176v8.308a.488.488,0,0,0,.487.489h8.34c.269,0,.347-.168.174-.374L7.582,20.3"/><line class="cls-1" x1="7.631" y1="20.318" x2="20.298" y2="7.581"/><line class="cls-1" x1="16.408" y1="3.72" x2="3.721" y2="16.408"/><path class="cls-1" d="M16.408,3.72,14.277,1.128c-.172-.207-.093-.377.176-.378h8.308a.488.488,0,0,1,.489.487v8.34c0,.269-.168.347-.374.174L20.3,7.581"/></svg>