<svg id="Regular" xmlns="http://www.w3.org/2000/svg" viewBox="0 0 24 24"><defs><style>.cls-1{fill:none;stroke:currentColor;stroke-linecap:round;stroke-linejoin:round;stroke-width:1.5px;}</style></defs><title>diagram-curve-rise-dash</title><polyline class="cls-1" points="23.25 13.257 20.25 10.257 17.25 13.257"/><path class="cls-1" d="M.75,12.507l.008-2.25a3.607,3.607,0,0,1,.128-.844"/><path class="cls-1" d="M2.8,6.978a5.234,5.234,0,0,1,2.817-.471"/><path class="cls-1" d="M8.687,7.108A3.9,3.9,0,0,1,10.36,9.387"/><line class="cls-1" x1="10.5" y1="12.559" x2="10.5" y2="15.454"/><path class="cls-1" d="M11.312,18.458a3.988,3.988,0,0,0,2.412,1.48"/><path class="cls-1" d="M16.9,19.971A3.777,3.777,0,0,0,19.371,18.6"/><line class="cls-1" x1="20.25" y1="15.613" x2="20.25" y2="10.257"/></svg>