<svg id="Regular" xmlns="http://www.w3.org/2000/svg" viewBox="0 0 24 24"><defs><style>.cls-1{fill:none;stroke:currentColor;stroke-linecap:round;stroke-linejoin:round;stroke-width:1.5px;}</style></defs><title>diagram-wave-both-direction</title><polyline class="cls-1" points="20.25 7.5 23.25 4.5 20.25 1.5"/><polyline class="cls-1" points="3.75 16.5 0.75 19.5 3.75 22.5"/><line class="cls-1" x1="23.25" y1="4.5" x2="17.715" y2="4.5"/><line class="cls-1" x1="14.424" y1="4.5" x2="11.433" y2="4.5"/><path class="cls-1" d="M8.3,5.221a3.749,3.749,0,0,0-1.5,2.492"/><path class="cls-1" d="M7.719,10.759a3.74,3.74,0,0,0,2.636,1.234"/><path class="cls-1" d="M13.645,12.007a3.74,3.74,0,0,1,2.636,1.234"/><path class="cls-1" d="M17.207,16.287a3.749,3.749,0,0,1-1.5,2.492"/><line class="cls-1" x1="12.567" y1="19.5" x2="9.576" y2="19.5"/><line class="cls-1" x1="6.285" y1="19.5" x2="0.75" y2="19.5"/></svg>