<svg id="Regular" xmlns="http://www.w3.org/2000/svg" viewBox="0 0 24 24"><defs><style>.cls-1{fill:none;stroke:currentColor;stroke-linecap:round;stroke-linejoin:round;stroke-width:1.5px;}</style></defs><title>diagram-dash-wave-down</title><line class="cls-1" x1="0.75" y1="0.75" x2="3.85" y2="0.759"/><path class="cls-1" d="M6.42,2.391a6.065,6.065,0,0,1,.33,2.836"/><line class="cls-1" x1="6.75" y1="8.408" x2="6.75" y2="11.3"/><line class="cls-1" x1="6.75" y1="14.481" x2="6.75" y2="17.373"/><path class="cls-1" d="M6.762,20.554a2.949,2.949,0,0,0,1.506,2.332"/><path class="cls-1" d="M11.374,23.12a3.035,3.035,0,0,0,1.992-1.944"/><line class="cls-1" x1="13.5" y1="18.009" x2="13.5" y2="15.117"/><line class="cls-1" x1="13.5" y1="11.936" x2="13.5" y2="9.044"/><path class="cls-1" d="M13.5,5.863V4.417a5.582,5.582,0,0,1,.093-1.438"/><path class="cls-1" d="M15.752.85a5.533,5.533,0,0,1,1.437-.1,2.971,2.971,0,0,1,1.4.3"/><line class="cls-1" x1="20.244" y1="3.578" x2="20.25" y2="6.47"/><line class="cls-1" x1="20.25" y1="9.651" x2="20.25" y2="15.001"/><polyline class="cls-1" points="17.25 11.251 20.25 15.001 23.25 11.251"/></svg>