<svg id="Regular" xmlns="http://www.w3.org/2000/svg" viewBox="0 0 24 24"><defs><style>.cls-1{fill:none;stroke:currentColor;stroke-linecap:round;stroke-linejoin:round;stroke-width:1.5px;}</style></defs><title>diagram-arrow-diagonal</title><path class="cls-1" d="M16.408,20.279l-2.131,2.593c-.172.207-.093.377.176.378h8.308a.488.488,0,0,0,.489-.487v-8.34c0-.269-.168-.347-.374-.174L20.3,16.418"/><line class="cls-1" x1="20.318" y1="16.369" x2="7.581" y2="3.702"/><line class="cls-1" x1="3.72" y1="7.592" x2="16.408" y2="20.279"/><path class="cls-1" d="M3.72,7.592,1.128,9.723C.921,9.9.751,9.816.75,9.547V1.239A.488.488,0,0,1,1.237.75h8.34c.269,0,.347.168.174.374L7.581,3.7"/></svg>