<svg xmlns="http://www.w3.org/2000/svg" viewBox="0 0 24 24"><defs><style>.a{fill:none;stroke:currentColor;stroke-linecap:round;stroke-linejoin:round;stroke-width:1.5px;}</style></defs><title>diamond</title><path class="a" d="M19.237,3.225a1.5,1.5,0,0,0-1.2-.6h-12a1.5,1.5,0,0,0-1.2.6L1.5,7.676a1.5,1.5,0,0,0,.048,1.86l9.338,11.3a1.5,1.5,0,0,0,2.3,0l9.338-11.3a1.5,1.5,0,0,0,.048-1.86Z"/><line class="a" x1="5.349" y1="2.792" x2="12.037" y2="21.375"/><line class="a" x1="18.724" y1="2.792" x2="12.037" y2="21.375"/><line class="a" x1="1.198" y1="8.625" x2="22.871" y2="8.625"/><polyline class="a" points="7.537 8.625 12.037 2.625 16.537 8.625"/></svg>