<svg xmlns="http://www.w3.org/2000/svg" viewBox="0 0 24 24"><defs><style>.a{fill:none;stroke:currentColor;stroke-linecap:round;stroke-linejoin:round;stroke-width:1.5px;}</style></defs><title>diamond-give</title><line class="a" x1="4.087" y1="5.242" x2="19.913" y2="5.242"/><path class="a" d="M8.561.742h6.878a.755.755,0,0,1,.531.22l3.724,3.724a.751.751,0,0,1-.026,1.086l-7.163,6.512a.751.751,0,0,1-1.01,0L4.332,5.772a.751.751,0,0,1-.026-1.086L8.03.962A.755.755,0,0,1,8.561.742Z"/><line class="a" x1="8.269" y1="0.802" x2="11.916" y2="12.474"/><line class="a" x1="15.731" y1="0.802" x2="12.084" y2="12.474"/><path class="a" d="M3.75,23.242,1.736,20.725A4.5,4.5,0,0,1,.75,17.914V12.742a1.5,1.5,0,0,1,1.5-1.5h0a1.5,1.5,0,0,1,1.5,1.5v3.75"/><path class="a" d="M8.25,23.106v-3a4.5,4.5,0,0,0-.757-2.5L6.351,15.9a1.4,1.4,0,0,0-1.977-.444h0a1.4,1.4,0,0,0-.476,1.79l1.352,2.25"/><path class="a" d="M20.25,23.242l2.014-2.517a4.5,4.5,0,0,0,.986-2.811V12.742a1.5,1.5,0,0,0-1.5-1.5h0a1.5,1.5,0,0,0-1.5,1.5v3.75"/><path class="a" d="M15.75,23.106v-3a4.5,4.5,0,0,1,.757-2.5L17.649,15.9a1.4,1.4,0,0,1,1.977-.444h0a1.4,1.4,0,0,1,.476,1.79l-1.352,2.25"/></svg>