<svg xmlns="http://www.w3.org/2000/svg" viewBox="0 0 24 24"><defs><style>.a{fill:none;stroke:currentColor;stroke-linecap:round;stroke-linejoin:round;stroke-width:1.5px;}</style></defs><title>diamond-hold</title><path class="a" d="M16.279,9.327a4.723,4.723,0,0,1,2.258,3.8,2.8,2.8,0,0,1-.7,1.97l-.994,1.136a1.884,1.884,0,0,1-2.75.091l-1.935-1.935a1.412,1.412,0,0,0-2,2l3.51,3.981a3.766,3.766,0,0,1,1.1,2.663v.208"/><path class="a" d="M23.25,23.242V14.063a10.409,10.409,0,0,0-.414-2.555,7.688,7.688,0,0,0-4.459-4.957"/><line class="a" x1="0.879" y1="5.492" x2="15.621" y2="5.492"/><path class="a" d="M3.47.75a.935.935,0,0,0-.831.5L.84,4.705a.771.771,0,0,0,.129.9l6.648,6.988a.886.886,0,0,0,1.266,0l6.648-6.988a.771.771,0,0,0,.129-.9L13.713,1.229A.937.937,0,0,0,12.9.75Z"/><line class="a" x1="0.75" y1="14.992" x2="3.75" y2="14.992"/><line class="a" x1="2.25" y1="13.492" x2="2.25" y2="16.492"/><line class="a" x1="20.25" y1="2.242" x2="23.25" y2="2.242"/><line class="a" x1="21.75" y1="0.742" x2="21.75" y2="3.742"/><line class="a" x1="4.459" y1="0.75" x2="8.208" y2="12.858"/><line class="a" x1="12.041" y1="0.75" x2="8.292" y2="12.858"/></svg>