<svg id="Regular" xmlns="http://www.w3.org/2000/svg" viewBox="0 0 24 24"><defs><style>.cls-1{fill:none;stroke:currentColor;stroke-linecap:round;stroke-linejoin:round;stroke-width:1.5px;}</style></defs><title>diet-waist</title><path class="cls-1" d="M5.25.75s1.5,1.5,1.5,6c0,5.25-4.5,6-4.5,12a6.57,6.57,0,0,0,1.5,4.5"/><path class="cls-1" d="M18.75.75s-1.5,1.5-1.5,6c0,5.25,4.5,6,4.5,12a6.57,6.57,0,0,1-1.5,4.5"/><path class="cls-1" d="M.75,3.75,3.22,6.22a.749.749,0,0,1,0,1.06L.75,9.75"/><path class="cls-1" d="M23.25,3.75,20.78,6.22a.749.749,0,0,0,0,1.06l2.47,2.47"/><line class="cls-1" x1="12" y1="23.25" x2="12" y2="20.25"/><polyline class="cls-1" points="9.75 18 12 20.25 14.25 18"/></svg>