<svg id="Regular" xmlns="http://www.w3.org/2000/svg" viewBox="0 0 24 24"><defs><style>.cls-1{fill:none;stroke:currentColor;stroke-linecap:round;stroke-linejoin:round;stroke-width:1.5px;}</style></defs><title>diet-scale</title><rect class="cls-1" x="0.75" y="0.75" width="22.5" height="22.5" rx="3" ry="3"/><path class="cls-1" d="M7.293,7.835a.748.748,0,0,0,.671.415h8.072a.748.748,0,0,0,.671-.415l.96-1.918A.751.751,0,0,0,17.305,4.9,12.831,12.831,0,0,0,6.7,4.9a.751.751,0,0,0-.362,1.019Z"/><path class="cls-1" d="M10.5,13.125c0-1.036-1.175-1.875-2.625-1.875s-2.625.839-2.625,1.875v5.25a1.875,1.875,0,0,0,3.75,0v-.336a7.416,7.416,0,0,1,1.29-4.179h0A1.423,1.423,0,0,0,10.5,13.125Z"/><path class="cls-1" d="M13.5,13.125c0-1.036,1.175-1.875,2.625-1.875s2.625.839,2.625,1.875v5.25a1.875,1.875,0,0,1-3.75,0v-.336a7.416,7.416,0,0,0-1.29-4.179h0A1.423,1.423,0,0,1,13.5,13.125Z"/><line class="cls-1" x1="9.75" y1="3.954" x2="9.75" y2="5.25"/><line class="cls-1" x1="14.25" y1="3.954" x2="14.25" y2="5.25"/></svg>