<svg xmlns="http://www.w3.org/2000/svg" viewBox="0 0 24 24"><defs><style>.a{fill:none;stroke:currentColor;stroke-linecap:round;stroke-linejoin:round;stroke-width:1.5px;}</style></defs><title>disability-lift</title><polyline class="a" points="5.25 3 7.5 0.75 9.75 3"/><line class="a" x1="7.5" y1="0.75" x2="7.5" y2="5.25"/><polyline class="a" points="14.25 3 16.5 5.25 18.75 3"/><line class="a" x1="16.5" y1="5.25" x2="16.5" y2="0.75"/><rect class="a" x="4.5" y="8.25" width="15" height="15" rx="1" ry="1"/><circle class="a" cx="10.5" cy="12.75" r="1.5"/><path class="a" d="M12,18.75a2.25,2.25,0,1,1-1.5-2.128"/><path class="a" d="M10.5,14.25v3a1.5,1.5,0,0,0,1.5,1.5h1.5a.75.75,0,0,1,.75.75v.75h1.5"/><line class="a" x1="10.5" y1="15.75" x2="13.5" y2="15.75"/></svg>