<svg xmlns="http://www.w3.org/2000/svg" viewBox="0 0 24 24"><defs><style>.a{fill:none;stroke:currentColor;stroke-linecap:round;stroke-linejoin:round;stroke-width:1.5px;}</style></defs><title>disability-sit-cane</title><circle class="a" cx="6" cy="4.123" r="2.625"/><line class="a" x1="3" y1="20.998" x2="9" y2="20.998"/><path class="a" d="M8.67,15H11.5a2.987,2.987,0,0,1,2.962,2.522l.523,3.239a1.5,1.5,0,0,1-2.962.478L11.5,18H8.672a3,3,0,0,1-2.911-2.274L4.545,10.861A1.5,1.5,0,0,1,5.636,9.043,1.528,1.528,0,0,1,6,9V9h7.5a1.5,1.5,0,0,1,0,3H7.92Z"/><path class="a" d="M18,11.248a1.5,1.5,0,1,1,3,0V22.5"/></svg>