<svg xmlns="http://www.w3.org/2000/svg" viewBox="0 0 24 24"><defs><style>.a{fill:none;stroke:currentColor;stroke-linecap:round;stroke-linejoin:round;stroke-width:1.5px;}</style></defs><title>disability-blind-read-book-2</title><path class="a" d="M21,18.75V.75H4.957A1.957,1.957,0,0,0,3,2.707V21"/><path class="a" d="M21,18.75H5.25A2.25,2.25,0,0,0,3,21H3a2.25,2.25,0,0,0,2.25,2.25H19.5v-4.5"/><path class="a" d="M6.844,10.435a.559.559,0,0,1,0-.62A6.522,6.522,0,0,1,12,6.75a6.522,6.522,0,0,1,5.156,3.065.559.559,0,0,1,0,.62A6.522,6.522,0,0,1,12,13.5,6.522,6.522,0,0,1,6.844,10.435Z"/><line class="a" x1="14.476" y1="7.361" x2="9.524" y2="12.889"/></svg>