<svg xmlns="http://www.w3.org/2000/svg" viewBox="0 0 24 24"><defs><style>.a{fill:none;stroke:currentColor;stroke-linecap:round;stroke-linejoin:round;stroke-width:1.5px;}</style></defs><title>disability-blind-read-paper</title><path class="a" d="M5.25,6.375a.375.375,0,1,1,.375.375.375.375,0,0,1-.375-.375"/><path class="a" d="M10.5,6.375a.375.375,0,1,1,.375.375.375.375,0,0,1-.375-.375"/><path class="a" d="M5.25,10.875a.375.375,0,1,1,.375.375.375.375,0,0,1-.375-.375"/><path class="a" d="M5.25,15.375a.375.375,0,1,1,.375.375.375.375,0,0,1-.375-.375"/><path class="a" d="M10.5,15.375a.375.375,0,1,1,.375.375.375.375,0,0,1-.375-.375"/><path class="a" d="M10.5,10.875a.375.375,0,1,1,.375.375.375.375,0,0,1-.375-.375"/><path class="a" d="M9.75,20.25H2.25a1.5,1.5,0,0,1-1.5-1.5V2.25A1.5,1.5,0,0,1,2.25.75H12.879a1.5,1.5,0,0,1,1.06.44l2.872,2.871a1.5,1.5,0,0,1,.439,1.061V12.75"/><path class="a" d="M12.844,20.185a.559.559,0,0,1,0-.62A6.522,6.522,0,0,1,18,16.5a6.522,6.522,0,0,1,5.156,3.065.559.559,0,0,1,0,.62A6.522,6.522,0,0,1,18,23.25,6.522,6.522,0,0,1,12.844,20.185Z"/><line class="a" x1="20.476" y1="17.111" x2="15.524" y2="22.639"/></svg>