<svg xmlns="http://www.w3.org/2000/svg" viewBox="0 0 24 24"><defs><style>.a{fill:none;stroke:currentColor;stroke-linecap:round;stroke-linejoin:round;stroke-width:1.5px;}</style></defs><title>disability-hearing</title><path class="a" d="M7.092,21.4a4.2,4.2,0,0,0,7.683-2.349,4.251,4.251,0,0,1,1.492-3.234A6,6,0,1,0,7.178,8.25"/><path class="a" d="M18.375.75a4.5,4.5,0,0,1,4.5,4.5"/><path class="a" d="M17.625,3.75A2.25,2.25,0,0,1,19.875,6"/><path class="a" d="M9.829,9.6a3,3,0,0,1,4.8,2.4"/><line class="a" x1="9.375" y1="18" x2="6.375" y2="15"/><line class="a" x1="4.125" y1="23.25" x2="1.125" y2="20.25"/><line class="a" x1="4.875" y1="18.75" x2="5.625" y2="19.5"/><line class="a" x1="9.75" y1="13.875" x2="10.5" y2="14.625"/></svg>