<svg xmlns="http://www.w3.org/2000/svg" viewBox="0 0 24 24"><defs><style>.a{fill:none;stroke:currentColor;stroke-linecap:round;stroke-linejoin:round;stroke-width:1.5px;}</style></defs><title>disability-hearing-aid-t</title><path class="a" d="M.75,18a5.25,5.25,0,0,0,10.5,0,5.314,5.314,0,0,1,1.865-4.042A7.5,7.5,0,1,0,.75,8.25"/><path class="a" d="M11.25,9a3.75,3.75,0,1,0-7.256,1.333"/><circle class="a" cx="6" cy="13.5" r="3.75"/><path class="a" d="M21.841,13.159a11.262,11.262,0,0,0,0-10.909"/><path class="a" d="M19.479,4.568a6.767,6.767,0,0,1,0,6.274"/><line class="a" x1="21.75" y1="23.25" x2="21.75" y2="18.75"/><line class="a" x1="20.25" y1="18.75" x2="23.25" y2="18.75"/></svg>