<svg xmlns="http://www.w3.org/2000/svg" viewBox="0 0 24 24"><defs><style>.a{fill:none;stroke:currentColor;stroke-linecap:round;stroke-linejoin:round;stroke-width:1.5px;}</style></defs><title>disability-microphone</title><path class="a" d="M23.25,23.15V7.55a1.5,1.5,0,0,0-.794-1.323l-9.75-5.2a1.5,1.5,0,0,0-1.412,0l-9.75,5.2A1.5,1.5,0,0,0,.75,7.55v15.6"/><line class="a" x1="8.25" y1="23.15" x2="15.75" y2="23.15"/><line class="a" x1="12" y1="18.65" x2="12" y2="23.15"/><path class="a" d="M17.25,13.4a5.25,5.25,0,0,1-10.5,0"/><path class="a" d="M15,9.65a3,3,0,1,0-6,0v3a3,3,0,0,0,6,0Z"/><line class="a" x1="9" y1="9.65" x2="15" y2="9.65"/></svg>