<svg xmlns="http://www.w3.org/2000/svg" viewBox="0 0 24 24"><defs><style>.a{fill:none;stroke:currentColor;stroke-linecap:round;stroke-linejoin:round;stroke-width:1.5px;}</style></defs><title>disability-blind-read-book</title><path class="a" d="M5.25,6.375A.375.375,0,1,1,4.875,6a.375.375,0,0,1,.375.375"/><path class="a" d="M9.75,6.375A.375.375,0,1,1,9.375,6a.375.375,0,0,1,.375.375"/><path class="a" d="M5.191,10.327a.375.375,0,1,1-.114-.517.374.374,0,0,1,.114.517"/><path class="a" d="M5.191,14.077a.375.375,0,1,1-.114-.517.374.374,0,0,1,.114.517"/><path class="a" d="M9.691,14.077a.375.375,0,1,1-.114-.518.374.374,0,0,1,.114.518"/><path class="a" d="M14.077,13.559a.375.375,0,1,1-.518.114.374.374,0,0,1,.518-.114"/><path class="a" d="M9.691,10.327a.375.375,0,1,1-.114-.517.374.374,0,0,1,.114.517"/><path class="a" d="M9.75.75H2.707A1.957,1.957,0,0,0,.75,2.707V21"/><line class="a" x1="18.75" y1="18.75" x2="18.75" y2="10.5"/><path class="a" d="M18.75,18.75H3A2.25,2.25,0,0,0,.75,21h0A2.25,2.25,0,0,0,3,23.25H17.25v-4.5"/><path class="a" d="M12.844,4.435a.559.559,0,0,1,0-.62A6.522,6.522,0,0,1,18,.75a6.522,6.522,0,0,1,5.156,3.065.559.559,0,0,1,0,.62A6.522,6.522,0,0,1,18,7.5,6.522,6.522,0,0,1,12.844,4.435Z"/><line class="a" x1="20.476" y1="1.361" x2="15.524" y2="6.889"/></svg>