<svg xmlns="http://www.w3.org/2000/svg" viewBox="0 0 24 24"><defs><style>.a{fill:none;stroke:currentColor;stroke-linecap:round;stroke-linejoin:round;stroke-width:1.5px;}</style></defs><title>disability-walking-aid</title><circle class="a" cx="14.25" cy="3.375" r="2.625"/><line class="a" x1="14.25" y1="16.5" x2="14.25" y2="21.75"/><line class="a" x1="17.25" y1="15" x2="17.25" y2="12"/><path class="a" d="M8.311,11.26A4.5,4.5,0,0,1,12.75,7.5h3a4.5,4.5,0,0,1,4.5,4.5v3a1.5,1.5,0,0,1-3,0v6.75a1.5,1.5,0,0,1-3,0,1.5,1.5,0,0,1-3,0v-4.5"/><line class="a" x1="3.75" y1="14.25" x2="9.75" y2="14.25"/><path class="a" d="M8.25,14.25V18a1.5,1.5,0,0,1-3,0V14.25"/><line class="a" x1="6.75" y1="19.5" x2="6.75" y2="23.25"/><line class="a" x1="6" y1="23.25" x2="7.5" y2="23.25"/></svg>