<svg xmlns="http://www.w3.org/2000/svg" viewBox="0 0 24 24"><defs><style>.a{fill:none;stroke:currentColor;stroke-linecap:round;stroke-linejoin:round;stroke-width:1.5px;}</style></defs><title>disability-sit-walking-aid</title><circle class="a" cx="5.25" cy="4.123" r="2.625"/><line class="a" x1="2.25" y1="20.998" x2="8.25" y2="20.998"/><path class="a" d="M7.92,15h2.826a2.987,2.987,0,0,1,2.962,2.522l.523,3.239a1.5,1.5,0,0,1-2.962.478L10.746,18H7.922a3,3,0,0,1-2.911-2.274L3.8,10.861A1.5,1.5,0,0,1,4.886,9.043,1.528,1.528,0,0,1,5.25,9V9h7.5a1.5,1.5,0,0,1,0,3H7.17Z"/><line class="a" x1="15.75" y1="7.498" x2="21.75" y2="7.498"/><path class="a" d="M20.25,7.5V15a1.5,1.5,0,0,1-3,0V7.5"/><line class="a" x1="18.75" y1="16.498" x2="18.75" y2="22.498"/><line class="a" x1="18" y1="22.498" x2="19.5" y2="22.498"/></svg>