<svg xmlns="http://www.w3.org/2000/svg" viewBox="0 0 24 24"><defs><style>.a{fill:none;stroke:currentColor;stroke-linecap:round;stroke-linejoin:round;stroke-width:1.5px;}</style></defs><title>disability-pregant</title><circle class="a" cx="11.501" cy="3.375" r="2.625"/><path class="a" d="M18.411,14.35A4.5,4.5,0,0,0,15.09,9.1L11.865,8.3a1.5,1.5,0,0,0-1.818,1.091L9.393,12H8.966a3,3,0,0,0-2.985,2.7L5.5,20.25h3v1.5a1.5,1.5,0,0,0,3,0v-1.5H13L12.31,12.7l.282-1.131,1.77.442a1.5,1.5,0,0,1,1.107,1.749l-.189.945a1.5,1.5,0,0,0,2.942.589Z"/></svg>