<svg xmlns="http://www.w3.org/2000/svg" viewBox="0 0 24 24"><defs><style>.a{fill:none;stroke:currentColor;stroke-linecap:round;stroke-linejoin:round;stroke-width:1.5px;}</style></defs><title>disability-blind-read-book-1</title><path class="a" d="M6.844,4.435a.559.559,0,0,1,0-.62A6.522,6.522,0,0,1,12,.75a6.522,6.522,0,0,1,5.156,3.065.559.559,0,0,1,0,.62A6.522,6.522,0,0,1,12,7.5,6.522,6.522,0,0,1,6.844,4.435Z"/><line class="a" x1="14.476" y1="1.361" x2="9.524" y2="6.889"/><path class="a" d="M12,23.25,3.222,19.91a1.406,1.406,0,0,1-.972-1.338V11.25A1.406,1.406,0,0,1,4.091,9.913L12,12.971Z"/><path class="a" d="M20.778,19.91,12,23.25V12.971l7.909-3.058A1.406,1.406,0,0,1,21.75,11.25v7.322A1.406,1.406,0,0,1,20.778,19.91Z"/><line class="a" x1="15.75" y1="15.75" x2="18" y2="15"/></svg>