<svg xmlns="http://www.w3.org/2000/svg" viewBox="0 0 24 24"><defs><style>.a{fill:none;stroke:currentColor;stroke-linecap:round;stroke-linejoin:round;stroke-width:1.5px;}</style></defs><title>disability-braille-1</title><line class="a" x1="12" y1="23.25" x2="12" y2="17.625"/><line class="a" x1="4.125" y1="23.25" x2="4.125" y2="17.625"/><path class="a" d="M4.125,17.625h.844a1.407,1.407,0,0,1,0,2.813H4.125"/><line class="a" x1="6.375" y1="23.25" x2="4.688" y2="20.438"/><line class="a" x1="0.75" y1="23.25" x2="0.75" y2="17.625"/><path class="a" d="M.75,17.625H1.875A1.125,1.125,0,0,1,3,18.75v.563a1.125,1.125,0,0,1-1.125,1.125H.75"/><path class="a" d="M.75,20.438H1.875A1.125,1.125,0,0,1,3,21.563v.562A1.125,1.125,0,0,1,1.875,23.25H.75"/><path class="a" d="M14.25,17.625v4.5a1.125,1.125,0,0,0,1.125,1.125H16.5"/><path class="a" d="M17.625,17.625v4.5A1.125,1.125,0,0,0,18.75,23.25h1.125"/><path class="a" d="M7.5,23.25v-4.5a1.125,1.125,0,0,1,2.25,0v4.5"/><line class="a" x1="7.5" y1="21" x2="9.75" y2="21"/><path class="a" d="M23.25,23.25H22.125A1.125,1.125,0,0,1,21,22.125V18.75a1.125,1.125,0,0,1,1.125-1.125H23.25"/><line class="a" x1="21" y1="21" x2="23.25" y2="21"/><circle class="a" cx="8.25" cy="12.75" r="1.5"/><circle class="a" cx="8.25" cy="2.25" r="1.5"/><circle class="a" cx="8.25" cy="7.5" r="1.5"/><circle class="a" cx="15.75" cy="12.75" r="1.5"/><circle class="a" cx="15.75" cy="2.25" r="1.5"/><circle class="a" cx="15.75" cy="7.5" r="1.5"/></svg>