<svg xmlns="http://www.w3.org/2000/svg" viewBox="0 0 24 24"><defs><style>.a{fill:none;stroke:currentColor;stroke-linecap:round;stroke-linejoin:round;stroke-width:1.5px;}</style></defs><title>disability-walk-blind</title><circle class="a" cx="9" cy="3.375" r="2.625"/><path class="a" d="M18.026,12.749c-.2-.236-3.895-4.5-9.026-4.5a18.03,18.03,0,0,0-5,.659A4.519,4.519,0,0,0,.75,13.23V15a1.5,1.5,0,1,0,3,0V13.23a1.5,1.5,0,0,1,1.084-1.439c.375-.109.764-.2,1.166-.277V16.5L3.229,20.955a1.5,1.5,0,1,0,2.542,1.591L9,17.38l3.229,5.166a1.5,1.5,0,1,0,2.542-1.591L12,16.5V12.1A10.9,10.9,0,0,1,15.75,14.7a1.5,1.5,0,0,0,2.276-1.953Z"/><line class="a" x1="17.865" y1="14.862" x2="23.25" y2="23.25"/></svg>