<svg xmlns="http://www.w3.org/2000/svg" viewBox="0 0 24 24"><defs><style>.a{fill:none;stroke:currentColor;stroke-linecap:round;stroke-linejoin:round;stroke-width:1.5px;}</style></defs><title>disability-cane</title><circle class="a" cx="13.5" cy="3.375" r="2.625"/><line class="a" x1="13.5" y1="16.5" x2="13.5" y2="21.75"/><line class="a" x1="16.5" y1="15" x2="16.5" y2="12"/><path class="a" d="M7.5,16.5a1.5,1.5,0,0,0-3,0v6.75"/><path class="a" d="M10.5,15v6.75a1.5,1.5,0,0,0,3,0,1.5,1.5,0,0,0,3,0V15a1.5,1.5,0,0,0,3,0V12A4.5,4.5,0,0,0,15,7.5H12A4.5,4.5,0,0,0,7.5,12"/></svg>