<svg xmlns="http://www.w3.org/2000/svg" viewBox="0 0 24 24"><defs><style>.a{fill:none;stroke:currentColor;stroke-linecap:round;stroke-linejoin:round;stroke-width:1.5px;}</style></defs><title>disability-heart-plus</title><circle class="a" cx="4.409" cy="4.46" r="2.625"/><path class="a" d="M10.428,21.574,9.9,18.335H7.081A3,3,0,0,1,4.17,16.062L2.954,11.2a1.5,1.5,0,1,1,2.91-.726l1.215,4.863H9.9a2.988,2.988,0,0,1,2.962,2.523L13.39,21.1a1.5,1.5,0,0,1-2.962.478Z"/><line class="a" x1="1.409" y1="21.335" x2="7.409" y2="21.335"/><path class="a" d="M21.712,2.039a3,3,0,0,0-4.242,0L16.409,3.1,15.348,2.039a3,3,0,0,0-4.242,4.243l4.773,4.773a.75.75,0,0,0,1.06,0l4.773-4.773A3,3,0,0,0,21.712,2.039Z"/><line class="a" x1="16.409" y1="4.835" x2="16.409" y2="7.835"/><line class="a" x1="14.909" y1="6.335" x2="17.909" y2="6.335"/></svg>