<svg xmlns="http://www.w3.org/2000/svg" viewBox="0 0 24 24"><defs><style>.a{fill:none;stroke:currentColor;stroke-linecap:round;stroke-linejoin:round;stroke-width:1.5px;}</style></defs><title>disability-blind-read</title><path class="a" d="M3.75,15.387a.375.375,0,1,1,.375.375.375.375,0,0,1-.375-.375"/><path class="a" d="M3.75,10.887a.375.375,0,1,1,.375.375.375.375,0,0,1-.375-.375"/><path class="a" d="M3.75,6.387a.375.375,0,1,1,.375.375.375.375,0,0,1-.375-.375"/><path class="a" d="M8.25,9.387a.375.375,0,1,1,.375.375.375.375,0,0,1-.375-.375"/><path class="a" d="M8.25,13.137a.375.375,0,1,1,.375.375.375.375,0,0,1-.375-.375"/><path class="a" d="M15,15.387a.375.375,0,1,1,.375.375A.375.375,0,0,1,15,15.387"/><path class="a" d="M15,11.637a.375.375,0,1,1,.375.375A.375.375,0,0,1,15,11.637"/><path class="a" d="M18.75,14.637a.375.375,0,1,1,.375.375.375.375,0,0,1-.375-.375"/><path class="a" d="M12,23.238c-.528-1.662-3.943-3.574-9.843-3.842A1.5,1.5,0,0,1,.75,17.889V4.538a1.5,1.5,0,0,1,1.607-1.5A18.125,18.125,0,0,1,9.642,4.719"/><path class="a" d="M12,23.238c.528-1.662,3.943-3.574,9.843-3.842a1.5,1.5,0,0,0,1.407-1.507V9.013"/><line class="a" x1="12" y1="9.012" x2="12" y2="23.238"/><path class="a" d="M12.844,4.447a.559.559,0,0,1,0-.62A6.522,6.522,0,0,1,18,.762a6.522,6.522,0,0,1,5.156,3.065.559.559,0,0,1,0,.62A6.522,6.522,0,0,1,18,7.512,6.522,6.522,0,0,1,12.844,4.447Z"/><line class="a" x1="20.476" y1="1.373" x2="15.524" y2="6.901"/></svg>