<svg xmlns="http://www.w3.org/2000/svg" viewBox="0 0 24 24"><defs><style>.a{fill:none;stroke:currentColor;stroke-linecap:round;stroke-linejoin:round;stroke-width:1.5px;}</style></defs><title>discount-coupon</title><path class="a" d="M23.25,15v3a1.5,1.5,0,0,1-1.5,1.5H2.25A1.5,1.5,0,0,1,.75,18V15a3,3,0,0,0,0-6V6a1.5,1.5,0,0,1,1.5-1.5h19.5A1.5,1.5,0,0,1,23.25,6V9a3,3,0,0,0,0,6Z"/><circle class="a" cx="8.25" cy="9" r="1.5"/><circle class="a" cx="16.5" cy="15" r="1.5"/><line class="a" x1="15.75" y1="8.25" x2="8.25" y2="15.75"/></svg>