<svg xmlns="http://www.w3.org/2000/svg" viewBox="0 0 24 24"><defs><style>.a{fill:none;stroke:currentColor;stroke-linecap:round;stroke-linejoin:round;stroke-width:1.5px;}</style></defs><title>discount-square</title><line class="a" x1="6.75" y1="17.25" x2="17.25" y2="6.75"/><circle class="a" cx="8.25" cy="8.25" r="1.5"/><circle class="a" cx="15.75" cy="15.75" r="1.5"/><path class="a" d="M.75,3.75V2.25A1.5,1.5,0,0,1,2.25.75h1.5"/><path class="a" d="M3.75,23.25H2.25a1.5,1.5,0,0,1-1.5-1.5v-1.5"/><line class="a" x1="0.75" y1="7.5" x2="0.75" y2="10.5"/><line class="a" x1="0.75" y1="13.5" x2="0.75" y2="16.5"/><line class="a" x1="23.25" y1="7.5" x2="23.25" y2="10.5"/><line class="a" x1="7.5" y1="0.75" x2="10.5" y2="0.75"/><path class="a" d="M23.25,20.25v1.5a1.5,1.5,0,0,1-1.5,1.5h-1.5"/><line class="a" x1="23.25" y1="16.5" x2="23.25" y2="13.5"/><line class="a" x1="16.5" y1="23.25" x2="13.5" y2="23.25"/><line class="a" x1="13.5" y1="0.75" x2="16.5" y2="0.75"/><path class="a" d="M20.25.75h1.5a1.5,1.5,0,0,1,1.5,1.5v1.5"/><line class="a" x1="10.5" y1="23.25" x2="7.5" y2="23.25"/></svg>