<svg xmlns="http://www.w3.org/2000/svg" viewBox="0 0 24 24"><defs><style>.a{fill:none;stroke:currentColor;stroke-linecap:round;stroke-linejoin:round;stroke-width:1.5px;}</style></defs><title>discount-30-alternate</title><path class="a" d="M7.551,6.361A1.5,1.5,0,1,1,9,8.25a1.5,1.5,0,1,1-1.445,1.9"/><path class="a" d="M16.5,9.75a1.5,1.5,0,0,1-3,0v-3a1.5,1.5,0,0,1,3,0Z"/><path class="a" d="M10.125,14.25a.375.375,0,1,1-.375.375.375.375,0,0,1,.375-.375"/><path class="a" d="M13.875,18a.375.375,0,1,1-.375.375A.375.375,0,0,1,13.875,18"/><line class="a" x1="9.75" y1="18.75" x2="14.25" y2="14.25"/><rect class="a" x="0.75" y="0.75" width="22.5" height="22.5" rx="1" ry="1"/></svg>