<svg xmlns="http://www.w3.org/2000/svg" viewBox="0 0 24 24"><defs><style>.a{fill:none;stroke:currentColor;stroke-linecap:round;stroke-linejoin:round;stroke-width:1.5px;}</style></defs><title>discount-50</title><path class="a" d="M23.25,12a3.751,3.751,0,0,0-2.618-3.576,3.751,3.751,0,0,0-5.057-5.057,3.751,3.751,0,0,0-7.151,0A3.751,3.751,0,0,0,3.367,8.424a3.751,3.751,0,0,0,0,7.151,3.751,3.751,0,0,0,5.057,5.057,3.751,3.751,0,0,0,7.151,0,3.751,3.751,0,0,0,5.057-5.057A3.751,3.751,0,0,0,23.25,12Z"/><path class="a" d="M10.5,6h-3V8.25A.75.75,0,0,0,8.25,9H9a1.5,1.5,0,0,1,0,3H7.5"/><path class="a" d="M16.5,10.5a1.5,1.5,0,0,1-3,0v-3a1.5,1.5,0,0,1,3,0Z"/><path class="a" d="M10.125,14.25a.375.375,0,1,1-.375.375.375.375,0,0,1,.375-.375"/><path class="a" d="M13.875,18a.375.375,0,1,1-.375.375A.375.375,0,0,1,13.875,18"/><line class="a" x1="9.75" y1="18.75" x2="14.25" y2="14.25"/></svg>