<svg id="Regular" xmlns="http://www.w3.org/2000/svg" viewBox="0 0 24 24"><defs><style>.cls-1{fill:none;stroke:currentColor;stroke-linecap:round;stroke-linejoin:round;stroke-width:1.5px;}</style></defs><title>diving-boat</title><line class="cls-1" x1="3.75" y1="0.75" x2="20.25" y2="0.75"/><line class="cls-1" x1="3.75" y1="3.75" x2="15.75" y2="3.75"/><line class="cls-1" x1="12.76" y1="16.851" x2="9.648" y2="8.406"/><line class="cls-1" x1="7.871" y1="12.258" x2="13.501" y2="10.184"/><path class="cls-1" d="M20.569,18.75a13.909,13.909,0,0,0,.665-3.913.756.756,0,0,0-1.017-.733L7.606,18.75"/><path class="cls-1" d="M.75,23.25a4.666,4.666,0,0,0,3.75-1.9,4.649,4.649,0,0,0,7.5,0,4.649,4.649,0,0,0,7.5,0,4.666,4.666,0,0,0,3.75,1.9"/></svg>