<svg id="Regular" xmlns="http://www.w3.org/2000/svg" viewBox="0 0 24 24"><defs><style>.cls-1{fill:none;stroke:currentColor;stroke-linecap:round;stroke-linejoin:round;stroke-width:1.5px;}</style></defs><title>diving-fins</title><path class="cls-1" d="M9.688,4.5a3.75,3.75,0,0,0-7.5,0L.752,22.44a.751.751,0,0,0,.748.81h8.875a.75.75,0,0,0,.748-.81Z"/><line class="cls-1" x1="4.438" y1="20.25" x2="4.438" y2="15"/><line class="cls-1" x1="7.438" y1="20.25" x2="7.438" y2="15"/><path class="cls-1" d="M14.312,19.5a3.75,3.75,0,1,0,7.5,0L23.248,1.56A.75.75,0,0,0,22.5.75H13.625a.75.75,0,0,0-.748.81Z"/><line class="cls-1" x1="19.562" y1="3.75" x2="19.562" y2="9"/><line class="cls-1" x1="16.562" y1="3.75" x2="16.562" y2="9"/><path class="cls-1" d="M1.967,7.262l.158.238s1.5,2.25,3.75,2.25S9.625,7.5,9.625,7.5L9.9,7.1"/><path class="cls-1" d="M22.02,16.905l-.27-.405s-1.5-2.25-3.75-2.25-3.75,2.25-3.75,2.25l-.159.238"/></svg>