<svg id="Regular" xmlns="http://www.w3.org/2000/svg" viewBox="0 0 24 24"><defs><style>.cls-1{fill:none;stroke:currentColor;stroke-linecap:round;stroke-linejoin:round;stroke-width:1.5px;}</style></defs><title>diving-oxygen-tank</title><path class="cls-1" d="M7.5,13.125A3.376,3.376,0,0,0,3.777,9.767,3.508,3.508,0,0,0,.75,13.317V22.5a.75.75,0,0,0,.75.75H6.75a.75.75,0,0,0,.75-.75Z"/><path class="cls-1" d="M17.25,13.125a3.376,3.376,0,0,0-3.723-3.358,3.508,3.508,0,0,0-3.027,3.55V22.5a.75.75,0,0,0,.75.75H16.5a.75.75,0,0,0,.75-.75Z"/><line class="cls-1" x1="0.75" y1="14.25" x2="7.5" y2="14.25"/><line class="cls-1" x1="0.75" y1="19.5" x2="7.5" y2="19.5"/><line class="cls-1" x1="10.5" y1="14.25" x2="17.25" y2="14.25"/><line class="cls-1" x1="10.5" y1="19.5" x2="17.25" y2="19.5"/><circle class="cls-1" cx="9" cy="3.75" r="3"/><path class="cls-1" d="M12,3.75h5.25a4.5,4.5,0,0,1,4.5,4.5V15"/><circle class="cls-1" cx="21.75" cy="16.5" r="1.5"/><line class="cls-1" x1="21.75" y1="18" x2="21.75" y2="20.25"/></svg>