<svg id="Regular" xmlns="http://www.w3.org/2000/svg" viewBox="0 0 24 24"><defs><style>.cls-1{fill:none;stroke:currentColor;stroke-linecap:round;stroke-linejoin:round;stroke-width:1.5px;}</style></defs><title>diving-mask</title><path class="cls-1" d="M7.5,15H6a3,3,0,0,1-3-3H3A4.5,4.5,0,0,1,7.5,7.5h3V12A3,3,0,0,1,7.5,15Z"/><path class="cls-1" d="M15,15H13.5a3,3,0,0,1-3-3V7.5h3A4.5,4.5,0,0,1,18,12h0A3,3,0,0,1,15,15Z"/><circle class="cls-1" cx="10.5" cy="20.25" r="3"/><path class="cls-1" d="M13.5,20.25H18a4.5,4.5,0,0,0,4.5-4.5V5.25"/><line class="cls-1" x1="22.5" y1="0.75" x2="22.5" y2="2.25"/><line class="cls-1" x1="18" y1="12" x2="19.5" y2="12"/><line class="cls-1" x1="3" y1="12" x2="1.5" y2="12"/></svg>