<svg id="Regular" xmlns="http://www.w3.org/2000/svg" viewBox="0 0 24 24"><defs><style>.cls-1{fill:none;stroke:currentColor;stroke-linecap:round;stroke-linejoin:round;stroke-width:1.5px;}</style></defs><title>diving-oxygen</title><path class="cls-1" d="M3.75,6.75H2.25a1.5,1.5,0,0,1-1.5-1.5V3.75a3,3,0,0,1,3-3h3v3A3,3,0,0,1,3.75,6.75Z"/><path class="cls-1" d="M11.25,6.75H9.75a3,3,0,0,1-3-3v-3h3a3,3,0,0,1,3,3v1.5A1.5,1.5,0,0,1,11.25,6.75Z"/><circle class="cls-1" cx="6.75" cy="10.5" r="2.25"/><rect class="cls-1" x="15.75" y="12.75" width="7.5" height="7.5"/><path class="cls-1" d="M6.75,12.75v7.5a3,3,0,0,0,3,3h3"/><path class="cls-1" d="M17.25,7.5v-3A.75.75,0,0,1,18,3.75h3a.75.75,0,0,1,.75.75v3"/><path class="cls-1" d="M15.75,10.5a3.75,3.75,0,0,1,7.5,0V21.75a1.5,1.5,0,0,1-1.5,1.5h-4.5a1.5,1.5,0,0,1-1.5-1.5Z"/></svg>