<svg id="Regular" xmlns="http://www.w3.org/2000/svg" viewBox="0 0 24 24"><defs><style>.cls-1{fill:none;stroke:currentColor;stroke-linecap:round;stroke-linejoin:round;stroke-width:1.5px;}</style></defs><title>diving-mask-fish</title><path class="cls-1" d="M3.75,6.75H2.25a1.5,1.5,0,0,1-1.5-1.5V3.75a3,3,0,0,1,3-3h3v3A3,3,0,0,1,3.75,6.75Z"/><path class="cls-1" d="M11.25,6.75H9.75a3,3,0,0,1-3-3v-3h3a3,3,0,0,1,3,3v1.5A1.5,1.5,0,0,1,11.25,6.75Z"/><circle class="cls-1" cx="6.75" cy="12" r="2.25"/><path class="cls-1" d="M9,12h3.75a3,3,0,0,0,3-3V6"/><line class="cls-1" x1="15.75" y1="0.75" x2="15.75" y2="3"/><path class="cls-1" d="M23.25,23.25s-6.652-6.582-9.4-6.582a6.638,6.638,0,0,0-5.6,2.821,6.638,6.638,0,0,0,5.6,2.821c2.751,0,9.4-6.583,9.4-6.583Z"/><line class="cls-1" x1="4.5" y1="12" x2="3" y2="12"/></svg>