<svg id="Regular" xmlns="http://www.w3.org/2000/svg" viewBox="0 0 24 24"><defs><style>.cls-1{fill:none;stroke:currentColor;stroke-linecap:round;stroke-linejoin:round;stroke-width:1.5px;}</style></defs><title>diving-gun</title><path class="cls-1" d="M2.631,16.306H4.347a1,1,0,0,1,1,1v4.2a0,0,0,0,1,0,0H2.631a1,1,0,0,1-1-1v-3.2a1,1,0,0,1,1-1Z" transform="translate(-12.347 8.005) rotate(-45)"/><path class="cls-1" d="M11.169,14.905,6.642,19.432,4.014,16.805,12.422,8.4h0A5.911,5.911,0,0,1,11.169,14.905Z"/><polyline class="cls-1" points="12.889 10.367 23.246 0.75 19.53 0.75"/><path class="cls-1" d="M22.2,1.8,22,5.158c-.188,3.187-3.557,5.5-6.741,5.713l-2.364.153"/><path class="cls-1" d="M9.4,20.609a1.486,1.486,0,0,1-.315,1.637l-.363.363A1.487,1.487,0,0,1,6.3,22.144l-.711-1.661,2.627-2.627Z"/><line class="cls-1" x1="10.106" y1="15.968" x2="11.356" y2="17.843"/></svg>