<svg id="Regular" xmlns="http://www.w3.org/2000/svg" viewBox="0 0 24 24"><defs><style>.cls-1{fill:none;stroke:currentColor;stroke-linecap:round;stroke-linejoin:round;stroke-width:1.5px;}</style></defs><title>diving-diver</title><circle class="cls-1" cx="19.5" cy="12.5" r="2.25"/><path class="cls-1" d="M5.266,13.263a.752.752,0,0,1,.45.149L9.5,16.25h6.25a1.506,1.506,0,0,1,.744.2l5.25,3a1.5,1.5,0,1,1-1.488,2.6l-4.9-2.8H9a1.493,1.493,0,0,1-.9-.3L2.316,14.611a.75.75,0,0,1,.45-1.35Z"/><path class="cls-1" d="M14.25,12.5a.75.75,0,0,1-.75.75H9.75a1.5,1.5,0,0,1,0-3H13.5a.75.75,0,0,1,.75.75Z"/><line class="cls-1" x1="4.854" y1="16.514" x2="7.498" y2="14.751"/><path class="cls-1" d="M.75,3.9A4.668,4.668,0,0,0,4.5,2,4.668,4.668,0,0,0,8.25,3.9,4.668,4.668,0,0,0,12,2a4.668,4.668,0,0,0,3.75,1.9A4.668,4.668,0,0,0,19.5,2a4.668,4.668,0,0,0,3.75,1.9"/></svg>