<svg xmlns="http://www.w3.org/2000/svg" viewBox="0 0 24 24"><defs><style>.a{fill:none;stroke:currentColor;stroke-linecap:round;stroke-linejoin:round;stroke-width:1.5px;}</style></defs><title>dna</title><polygon class="a" points="7.5 8.25 3 8.25 0.75 4.5 3 0.75 7.5 0.75 9.75 4.5 7.5 8.25"/><polygon class="a" points="21 8.25 16.5 8.25 14.25 4.5 16.5 0.75 21 0.75 23.25 4.5 21 8.25"/><polygon class="a" points="14.25 12 9.75 12 7.5 8.25 9.75 4.5 14.25 4.5 16.5 8.25 14.25 12"/><polygon class="a" points="7.5 15.75 3 15.75 0.75 12 3 8.25 7.5 8.25 9.75 12 7.5 15.75"/><polygon class="a" points="21 15.75 16.5 15.75 14.25 12 16.5 8.25 21 8.25 23.25 12 21 15.75"/><polygon class="a" points="14.25 19.5 9.75 19.5 7.5 15.75 9.75 12 14.25 12 16.5 15.75 14.25 19.5"/><polygon class="a" points="7.5 23.25 3 23.25 0.75 19.5 3 15.75 7.5 15.75 9.75 19.5 7.5 23.25"/><polygon class="a" points="21 23.25 16.5 23.25 14.25 19.5 16.5 15.75 21 15.75 23.25 19.5 21 23.25"/></svg>