<svg id="Regular" xmlns="http://www.w3.org/2000/svg" viewBox="0 0 24 24"><defs><style>.cls-1{fill:none;stroke:currentColor;stroke-linecap:round;stroke-linejoin:round;stroke-width:1.5px;}</style></defs><title>dog-mouth-protection-1</title><path class="cls-1" d="M15.487,7.9A9.247,9.247,0,0,0,7.5,3.5,9.346,9.346,0,0,0,.75,6.369"/><path class="cls-1" d="M7.5,3.5V11A1.5,1.5,0,0,1,6,12.5H3.75A1.5,1.5,0,0,1,2.25,11V9.5"/><path class="cls-1" d="M15.487,7.9l-4.4,9.1L19.4,18.37c2.686,0,3.607-3.134,3.844-6.246.08-1.044-.726-1.678-1.711-2.1Z"/><path class="cls-1" d="M11.085,17a18.974,18.974,0,0,0-7.422,2.051L.75,20.62"/><line class="cls-1" x1="22.854" y1="14.701" x2="13.262" y2="12.5"/><line class="cls-1" x1="19.648" y1="9.365" x2="16.658" y2="17.918"/><path class="cls-1" d="M10.875,8.114a.375.375,0,0,0-.375.375"/><path class="cls-1" d="M11.25,8.489a.375.375,0,0,0-.375-.375"/><path class="cls-1" d="M10.875,8.864a.375.375,0,0,0,.375-.375"/><path class="cls-1" d="M10.5,8.489a.375.375,0,0,0,.375.375"/></svg>