<svg id="Regular" xmlns="http://www.w3.org/2000/svg" viewBox="0 0 24 24"><defs><style>.cls-1{fill:none;stroke:currentColor;stroke-linecap:round;stroke-linejoin:round;stroke-width:1.5px;}</style></defs><title>dog-poop-clean</title><circle class="cls-1" cx="10.25" cy="3.625" r="2.625"/><path class="cls-1" d="M5,15.625H3.5a1.5,1.5,0,0,1,0-3H5a1.5,1.5,0,0,0,1.5-1.5,3,3,0,0,1,3-3H11a3,3,0,0,1,3,3v4.5a1.5,1.5,0,0,1-1.5,1.5v3.75a2.25,2.25,0,0,1-4.5,0v-6"/><path class="cls-1" d="M5.75,19.375a2.25,2.25,0,0,1-4.5,0c0-1.243,2.25-3.75,2.25-3.75S5.75,18.132,5.75,19.375Z"/><path class="cls-1" d="M15.5,23.125V19.661a1.036,1.036,0,0,1,1.036-1.036H19.25l1.5-2.25,1.866,2.488a1.036,1.036,0,0,1-1.293,1.548l-.573-.286"/><line class="cls-1" x1="18.5" y1="21.625" x2="18.5" y2="23.125"/><line class="cls-1" x1="18.5" y1="18.625" x2="14" y2="14.125"/></svg>