<svg id="Regular" xmlns="http://www.w3.org/2000/svg" viewBox="0 0 24 24"><defs><style>.cls-1{fill:none;stroke:currentColor;stroke-linecap:round;stroke-linejoin:round;stroke-width:1.5px;}</style></defs><title>dog-house-2</title><path class="cls-1" d="M21,13.357V22.5a.75.75,0,0,1-.75.75h-3a.75.75,0,0,1-.75-.75V18.75a4.5,4.5,0,0,0-9,0V22.5a.75.75,0,0,1-.75.75h-3A.75.75,0,0,1,3,22.5V13.357"/><path class="cls-1" d="M22.784,10.784l-9.5-9.5a1.812,1.812,0,0,0-2.56,0l-9.5,9.5a1.591,1.591,0,1,0,2.25,2.25L10.72,5.78a1.811,1.811,0,0,1,2.56,0l7.254,7.254a1.591,1.591,0,1,0,2.25-2.25Z"/></svg>