<svg id="Regular" xmlns="http://www.w3.org/2000/svg" viewBox="0 0 24 24"><defs><style>.cls-1{fill:none;stroke:currentColor;stroke-linecap:round;stroke-linejoin:round;stroke-width:1.5px;}</style></defs><title>dog-mouth-protection</title><path class="cls-1" d="M14.737,10.4A9.247,9.247,0,0,0,6.75,6"/><path class="cls-1" d="M6.75,8.25V1.5A.75.75,0,0,0,5.543.906,10.323,10.323,0,0,0,1.5,9.1V9.75"/><path class="cls-1" d="M14.737,10.4l-4.4,9.1,8.315,1.37c2.686,0,3.607-3.134,3.844-6.246a1.961,1.961,0,0,0-1.711-2.1Z"/><path class="cls-1" d="M10.335,19.5c-2.152,0-3.277,1.03-5.172,2.051L2.25,23.12"/><line class="cls-1" x1="22.275" y1="16.391" x2="12.512" y2="15"/><line class="cls-1" x1="18.922" y1="11.873" x2="15.403" y2="20.335"/><path class="cls-1" d="M10.125,10.614a.375.375,0,0,0-.375.375"/><path class="cls-1" d="M10.5,10.989a.375.375,0,0,0-.375-.375"/><path class="cls-1" d="M10.125,11.364a.375.375,0,0,0,.375-.375"/><path class="cls-1" d="M9.75,10.989a.375.375,0,0,0,.375.375"/></svg>