<svg id="Regular" xmlns="http://www.w3.org/2000/svg" viewBox="0 0 24 24"><defs><style>.cls-1{fill:none;stroke:currentColor;stroke-linecap:round;stroke-linejoin:round;stroke-width:1.5px;}</style></defs><title>dog-carrier</title><line class="cls-1" x1="0.75" y1="12.75" x2="7.5" y2="12.75"/><path class="cls-1" d="M19.625,9l-.666-4a1.5,1.5,0,0,0-1.48-1.253H5.021A1.5,1.5,0,0,0,3.541,5L2.25,12.75"/><path class="cls-1" d="M7.5,21.75H5.021A1.5,1.5,0,0,1,3.541,20.5L2.25,12.75"/><line class="cls-1" x1="6.75" y1="6.75" x2="6.75" y2="9.75"/><line class="cls-1" x1="11.25" y1="6.75" x2="11.25" y2="9.75"/><line class="cls-1" x1="15.75" y1="6.75" x2="15.75" y2="8.25"/><path class="cls-1" d="M8.25,3.75a3,3,0,0,1,6,0"/><circle class="cls-1" cx="16.5" cy="13.5" r="1.5"/><circle class="cls-1" cx="11.25" cy="16.5" r="1.5"/><circle class="cls-1" cx="21.75" cy="16.5" r="1.5"/><path class="cls-1" d="M13.5,23.25a.748.748,0,0,1-.6-1.2l3-4a.75.75,0,0,1,1.2,0l3,4a.75.75,0,0,1-.6,1.2Z"/></svg>