<svg id="Regular" xmlns="http://www.w3.org/2000/svg" viewBox="0 0 24 24"><defs><style>.cls-1{fill:none;stroke:currentColor;stroke-linecap:round;stroke-linejoin:round;stroke-width:1.5px;}</style></defs><title>dog-head</title><path class="cls-1" d="M7.086,2.916a6.787,6.787,0,0,1,9.705-.125"/><path class="cls-1" d="M20.054,13.5c-.687,5.15-3.21,9.75-8.054,9.75s-7.367-4.6-8.054-9.75"/><path class="cls-1" d="M7.079,3.993A2.251,2.251,0,0,0,4.4,1.246,4.889,4.889,0,0,0,1.259,3.671c-1.123,1.872-.177,4.359.81,6.111A1.5,1.5,0,0,0,4.708,9.75,29.515,29.515,0,0,0,7.079,3.993Z"/><path class="cls-1" d="M16.764,3.993a2.251,2.251,0,0,1,2.681-2.747,4.889,4.889,0,0,1,3.139,2.425c1.123,1.872.177,4.359-.81,6.111a1.5,1.5,0,0,1-2.639-.032A29.515,29.515,0,0,1,16.764,3.993Z"/><ellipse class="cls-1" cx="12" cy="16.5" rx="2.25" ry="1.5"/><path class="cls-1" d="M7.889,21.849C10.338,21.324,12,18,12,18s1.662,3.324,4.111,3.849"/><path class="cls-1" d="M8.625,9.75A.375.375,0,0,1,9,10.125"/><path class="cls-1" d="M8.25,10.125a.375.375,0,0,1,.375-.375"/><path class="cls-1" d="M8.625,10.5a.375.375,0,0,1-.375-.375"/><path class="cls-1" d="M9,10.125a.375.375,0,0,1-.375.375"/><path class="cls-1" d="M15.375,9.75a.375.375,0,0,1,.375.375"/><path class="cls-1" d="M15,10.125a.375.375,0,0,1,.375-.375"/><path class="cls-1" d="M15.375,10.5A.375.375,0,0,1,15,10.125"/><path class="cls-1" d="M15.75,10.125a.375.375,0,0,1-.375.375"/></svg>