<svg id="Regular" xmlns="http://www.w3.org/2000/svg" viewBox="0 0 24 24"><defs><style>.cls-1{fill:none;stroke:currentColor;stroke-linecap:round;stroke-linejoin:round;stroke-width:1.5px;}</style></defs><title>dog-pitbull</title><path class="cls-1" d="M8.431,2.632A16.244,16.244,0,0,1,12,2.25a16.244,16.244,0,0,1,3.569.382"/><path class="cls-1" d="M4.5,20.126A12.725,12.725,0,0,1,.75,11.25"/><path class="cls-1" d="M15.205,22.461a6.906,6.906,0,0,1-6.411,0"/><path class="cls-1" d="M23.25,11.25A12.725,12.725,0,0,1,19.5,20.126"/><path class="cls-1" d="M10.5,15.274a1.754,1.754,0,0,1-.752-1.4A2.088,2.088,0,0,1,12,12a2.088,2.088,0,0,1,2.25,1.875,1.752,1.752,0,0,1-.75,1.4"/><path class="cls-1" d="M14.208,14.238l.042.012s5.25,1.5,5.25,6c0,3-3.338,3.412-5.25,1.5A10.971,10.971,0,0,1,12,18a10.971,10.971,0,0,1-2.25,3.75c-1.912,1.912-5.25,1.5-5.25-1.5,0-4.5,5.25-6,5.25-6l.042-.012"/><path class="cls-1" d="M7.921,4.462A2.25,2.25,0,0,0,6.212.75H3.75c-2.25,0-3,3-3,5.25S2.25,9,4.5,7.5A17.5,17.5,0,0,0,7.921,4.462Z"/><path class="cls-1" d="M16.079,4.462A2.25,2.25,0,0,1,17.788.75H20.25c2.25,0,3,3,3,5.25s-1.5,3-3.75,1.5A17.5,17.5,0,0,1,16.079,4.462Z"/><path class="cls-1" d="M5.625,11.25A.375.375,0,0,1,6,11.625"/><path class="cls-1" d="M5.25,11.625a.375.375,0,0,1,.375-.375"/><path class="cls-1" d="M5.625,12a.375.375,0,0,1-.375-.375"/><path class="cls-1" d="M6,11.625A.375.375,0,0,1,5.625,12"/><path class="cls-1" d="M18.375,11.25a.375.375,0,0,1,.375.375"/><path class="cls-1" d="M18,11.625a.375.375,0,0,1,.375-.375"/><path class="cls-1" d="M18.375,12A.375.375,0,0,1,18,11.625"/><path class="cls-1" d="M18.75,11.625a.375.375,0,0,1-.375.375"/><line class="cls-1" x1="9.75" y1="6.75" x2="10.5" y2="9"/><line class="cls-1" x1="14.25" y1="6.75" x2="13.5" y2="9"/></svg>