<svg id="Regular" xmlns="http://www.w3.org/2000/svg" viewBox="0 0 24 24"><defs><style>.cls-1{fill:none;stroke:currentColor;stroke-linecap:round;stroke-linejoin:round;stroke-width:1.5px;}</style></defs><title>dog-food</title><path class="cls-1" d="M22.707,20.4a1.5,1.5,0,0,1-1.458,1.855H2.567A1.5,1.5,0,0,1,1.109,20.4l1.478-6.076A1.5,1.5,0,0,1,4.024,13.25H19.792a1.5,1.5,0,0,1,1.437,1.069Z"/><path class="cls-1" d="M8.171,6.063A3.751,3.751,0,0,0,2.984,10.25"/><path class="cls-1" d="M15.645,6.063a3.75,3.75,0,1,0-7.474,0"/><path class="cls-1" d="M20.832,10.25a3.751,3.751,0,0,0-5.187-4.187"/><path class="cls-1" d="M17.158,17.75a1.5,1.5,0,0,1-1.5,1.5h-7.5a1.5,1.5,0,1,1,0-3h7.5A1.5,1.5,0,0,1,17.158,17.75Z"/></svg>