<svg id="Regular" xmlns="http://www.w3.org/2000/svg" viewBox="0 0 24 24"><defs><style>.cls-1{fill:none;stroke:currentColor;stroke-linecap:round;stroke-linejoin:round;stroke-width:1.5px;}</style></defs><title>dog-small</title><path class="cls-1" d="M18.75,20.25c-2.625,0-2.955,1.215-3.541,2.551a.751.751,0,0,1-.687.449H12.5a.75.75,0,0,1-.68-.435C11.518,22.161,10.828,21,9.75,21H6c-1.16,0-2.319,1.345-2.786,1.955a.751.751,0,0,1-.6.3H1.5a.75.75,0,0,1-.75-.75V14.25c0-2.25,1.5-4.5,3.75-4.5H9.75a1.5,1.5,0,0,0,1.5-1.5V.75l3,1.5h6l3-1.5v15a19.1,19.1,0,0,1-1.3,7.033.751.751,0,0,1-.694.467h-2.2a.751.751,0,0,1-.531-.22"/><path class="cls-1" d="M19.875,5.25a.375.375,0,0,0-.375.375"/><path class="cls-1" d="M20.25,5.625a.375.375,0,0,0-.375-.375"/><path class="cls-1" d="M19.875,6a.375.375,0,0,0,.375-.375"/><path class="cls-1" d="M19.5,5.625A.375.375,0,0,0,19.875,6"/><path class="cls-1" d="M14.625,5.25a.375.375,0,0,0-.375.375"/><path class="cls-1" d="M15,5.625a.375.375,0,0,0-.375-.375"/><path class="cls-1" d="M14.625,6A.375.375,0,0,0,15,5.625"/><path class="cls-1" d="M14.25,5.625A.375.375,0,0,0,14.625,6"/><line class="cls-1" x1="18" y1="9" x2="16.5" y2="9"/></svg>