<svg id="Regular" xmlns="http://www.w3.org/2000/svg" viewBox="0 0 24 24"><defs><style>.cls-1{fill:none;stroke:currentColor;stroke-linecap:round;stroke-linejoin:round;stroke-width:1.5px;}</style></defs><title>dog-leash</title><path class="cls-1" d="M14.25,18.75h-9a3,3,0,0,1-3-3v-1.5a3,3,0,0,1,3-3H12.9a3.006,3.006,0,0,0,2.555-1.425,6.006,6.006,0,0,0,.457-.916A2.25,2.25,0,0,1,18,7.5c1.5,0,2.25,1.757,2.25,3a.75.75,0,0,0,.75.75h.75a1.5,1.5,0,0,1,0,3H19.5l-2.136,2.988a3,3,0,0,1-2.605,1.512H14.25"/><path class="cls-1" d="M.75,9s0,3.246,2.533,2.985"/><line class="cls-1" x1="14.25" y1="18.75" x2="14.25" y2="23.25"/><line class="cls-1" x1="17.25" y1="23.25" x2="16.522" y2="18.177"/><line class="cls-1" x1="3.75" y1="18.349" x2="3.75" y2="23.25"/><line class="cls-1" x1="6.75" y1="18.75" x2="6.75" y2="23.25"/><polyline class="cls-1" points="18.488 15.666 14.105 10.996 8.25 0.75"/></svg>