<svg id="Regular" xmlns="http://www.w3.org/2000/svg" viewBox="0 0 24 24"><defs><style>.cls-1{fill:none;stroke:currentColor;stroke-linecap:round;stroke-linejoin:round;stroke-width:1.5px;}</style></defs><title>dog-jump</title><path class="cls-1" d="M10.7,12.186c.187,3.086,3.549,1.424,3.549,1.424a2.2,2.2,0,0,0,1.8,2.624s1.612-.463,1.425-3.549c-.165-2.7-3.412-2.162-3.412-2.162"/><path class="cls-1" d="M11.13,13.506l-.7.154a15.09,15.09,0,0,0-7.954,5.09"/><path class="cls-1" d="M1.729,11.245c5.7-3.511,9.492-4.81,12.429-5.338l.4-2.157,2.65,2.006a3.941,3.941,0,0,1,3.436,2.18l1.467.813a.75.75,0,0,1,.319.968l-.826,1.8a.754.754,0,0,1-.592.433,11.479,11.479,0,0,1-3.709-.074"/><path class="cls-1" d="M8.266,4.5C7.579,2.2,6.581.75,5.471.75,3.4.75,1.721,5.787,1.721,12S3.4,23.25,5.471,23.25c1.337,0,2.51-2.1,3.174-5.258"/></svg>