<svg id="Regular" xmlns="http://www.w3.org/2000/svg" viewBox="0 0 24 24"><defs><style>.cls-1{fill:none;stroke:currentColor;stroke-linecap:round;stroke-linejoin:round;stroke-width:1.5px;}</style></defs><title>donut</title><circle class="cls-1" cx="11.973" cy="12" r="11.25"/><circle class="cls-1" cx="11.973" cy="12" r="3.75"/><path class="cls-1" d="M8.353,12.983A4.5,4.5,0,0,1,.807,10.619"/><path class="cls-1" d="M23.139,10.619a4.5,4.5,0,0,1-7.546,2.364"/><circle class="cls-1" cx="14.973" cy="5.25" r="1.5"/><path class="cls-1" d="M19.473,8.625A.375.375,0,1,1,19.1,9a.375.375,0,0,1,.375-.375"/><path class="cls-1" d="M8.973,4.125A.375.375,0,1,1,8.6,4.5a.375.375,0,0,1,.375-.375"/><path class="cls-1" d="M5.223,7.875a.375.375,0,1,1-.375.375.375.375,0,0,1,.375-.375"/></svg>