<svg id="Regular" xmlns="http://www.w3.org/2000/svg" viewBox="0 0 24 24"><defs><style>.cls-1{fill:none;stroke:currentColor;stroke-linecap:round;stroke-linejoin:round;stroke-width:1.5px;}</style></defs><title>dressing-mirror</title><path class="cls-1" d="M21,21.75a1.5,1.5,0,0,1-1.5,1.5H4.5A1.5,1.5,0,0,1,3,21.75v-7.5H21Z"/><line class="cls-1" x1="12" y1="23.25" x2="12" y2="14.25"/><path class="cls-1" d="M9,18.375a.375.375,0,1,1-.375.375A.375.375,0,0,1,9,18.375"/><path class="cls-1" d="M15,18.375a.375.375,0,1,1-.375.375A.375.375,0,0,1,15,18.375"/><line class="cls-1" x1="1.5" y1="14.25" x2="22.5" y2="14.25"/><path class="cls-1" d="M4.5,14.25v-6a7.5,7.5,0,0,1,15,0v6"/></svg>