<svg id="Regular" xmlns="http://www.w3.org/2000/svg" viewBox="0 0 24 24"><defs><style>.cls-1{fill:none;stroke:currentColor;stroke-linecap:round;stroke-linejoin:round;stroke-width:1.5px;}</style></defs><title>dressing-mirror-1</title><path class="cls-1" d="M17.25,20.25H6.75a1.5,1.5,0,0,1-1.5-1.5v-3h13.5v3A1.5,1.5,0,0,1,17.25,20.25Z"/><line class="cls-1" x1="6.75" y1="20.25" x2="6.75" y2="23.25"/><line class="cls-1" x1="17.25" y1="20.25" x2="17.25" y2="23.25"/><rect class="cls-1" x="3.75" y="12.75" width="16.5" height="3" rx="0.75" ry="0.75"/><path class="cls-1" d="M16.8,12.75A8.745,8.745,0,0,0,18,8.25c0-4.142-2.686-7.5-6-7.5S6,4.108,6,8.25a8.745,8.745,0,0,0,1.2,4.5Z"/></svg>