<svg id="Regular" xmlns="http://www.w3.org/2000/svg" viewBox="0 0 24 24"><defs><style>.cls-1{fill:none;stroke:currentColor;stroke-linecap:round;stroke-linejoin:round;stroke-width:1.5px;}</style></defs><title>dress-1</title><path class="cls-1" d="M20.066,20.447l-2.8-8.395a7.5,7.5,0,0,1-.041-4.617l1.353-4.311a.751.751,0,0,0-.261-.838L16.654,1.039a.75.75,0,0,0-1.178.418L15,3.75H9.75l-1.1-2.585A.75.75,0,0,0,7.531.9L5.682,2.286a.751.751,0,0,0-.261.838L6.774,7.435a7.507,7.507,0,0,1-.041,4.617l-2.8,8.4a.741.741,0,0,0,.325.88A15.417,15.417,0,0,0,12,23.25a15.417,15.417,0,0,0,7.741-1.923A.741.741,0,0,0,20.066,20.447Z"/><path class="cls-1" d="M6.971,11.172A16.593,16.593,0,0,0,12,12a16.593,16.593,0,0,0,5.029-.828"/><line class="cls-1" x1="9.75" y1="17.25" x2="8.736" y2="22.938"/><line class="cls-1" x1="14.25" y1="17.25" x2="15.264" y2="22.938"/></svg>