<svg id="Regular" xmlns="http://www.w3.org/2000/svg" viewBox="0 0 24 24"><defs><style>.cls-1{fill:none;stroke:currentColor;stroke-linecap:round;stroke-linejoin:round;stroke-width:1.5px;}</style></defs><title>dressing-hanging-rack-2</title><path class="cls-1" d="M13.5,9.75h5.25a1.5,1.5,0,0,0,1.5-1.5V7.5"/><path class="cls-1" d="M10.5,12.75h-3A1.5,1.5,0,0,1,6,11.25V10.5"/><path class="cls-1" d="M13.5,3.75h3A1.5,1.5,0,0,0,18,2.25V1.5"/><path class="cls-1" d="M10.5,5.25H5.25a1.5,1.5,0,0,1-1.5-1.5V3"/><path class="cls-1" d="M15,23.25a3,3,0,0,0-1.5-2.6V2.25a1.5,1.5,0,0,0-3,0v18.4A3,3,0,0,0,9,23.25Z"/></svg>