<svg id="Regular" xmlns="http://www.w3.org/2000/svg" viewBox="0 0 24 24"><defs><style>.cls-1{fill:none;stroke:currentColor;stroke-linecap:round;stroke-linejoin:round;stroke-width:1.5px;}</style></defs><title>dress</title><path class="cls-1" d="M5.25,16.5v6a.75.75,0,0,0,.75.75H18a.75.75,0,0,0,.75-.75v-6c0-2.121-1.547-4.013-3.076-5.25H8.326C6.8,12.487,5.25,14.379,5.25,16.5Z"/><path class="cls-1" d="M12,6A5.239,5.239,0,0,1,7.979,4.125a5.249,5.249,0,0,0,.347,7.125h7.348a5.249,5.249,0,0,0,.347-7.125A5.239,5.239,0,0,1,12,6Z"/><line class="cls-1" x1="8.25" y1="4.422" x2="8.25" y2="0.75"/><line class="cls-1" x1="15.75" y1="4.423" x2="15.75" y2="0.75"/></svg>