<svg id="Regular" xmlns="http://www.w3.org/2000/svg" viewBox="0 0 24 24"><defs><style>.cls-1{fill:none;stroke:currentColor;stroke-linecap:round;stroke-linejoin:round;stroke-width:1.5px;}</style></defs><title>dressing-hanger-1</title><path class="cls-1" d="M15,.75a1.5,1.5,0,0,1,0,3v1.5"/><line class="cls-1" x1="0.75" y1="2.25" x2="11.25" y2="2.25"/><line class="cls-1" x1="23.25" y1="2.25" x2="20.25" y2="2.25"/><path class="cls-1" d="M14.25,14.25h-12a1.5,1.5,0,0,0-1.5,1.5v7.5h15v-7.5A1.5,1.5,0,0,0,14.25,14.25Z"/><line class="cls-1" x1="8.25" y1="17.25" x2="8.25" y2="23.25"/><line class="cls-1" x1="0.75" y1="17.25" x2="15.75" y2="17.25"/><line class="cls-1" x1="3.75" y1="20.25" x2="5.25" y2="20.25"/><line class="cls-1" x1="11.25" y1="20.25" x2="12.75" y2="20.25"/><path class="cls-1" d="M9.75,9.75c0-2.485,2.351-4.5,5.25-4.5s5.25,2.015,5.25,4.5Z"/></svg>