<svg id="Regular" xmlns="http://www.w3.org/2000/svg" viewBox="0 0 24 24"><defs><style>.cls-1{fill:none;stroke:currentColor;stroke-linecap:round;stroke-linejoin:round;stroke-width:1.5px;}</style></defs><title>dresser-double-door</title><path class="cls-1" d="M3,.75H21a0,0,0,0,1,0,0v20a1,1,0,0,1-1,1H4a1,1,0,0,1-1-1V.75A0,0,0,0,1,3,.75Z"/><line class="cls-1" x1="4.5" y1="21.75" x2="4.5" y2="23.25"/><line class="cls-1" x1="19.5" y1="21.75" x2="19.5" y2="23.25"/><line class="cls-1" x1="1.5" y1="0.75" x2="22.5" y2="0.75"/><line class="cls-1" x1="10.5" y1="18.75" x2="13.5" y2="18.75"/><line class="cls-1" x1="3" y1="15.75" x2="21" y2="15.75"/><line class="cls-1" x1="12" y1="0.75" x2="12" y2="15.75"/><path class="cls-1" d="M9,7.125a.375.375,0,1,1-.375.375A.375.375,0,0,1,9,7.125"/><path class="cls-1" d="M15,7.125a.375.375,0,1,1-.375.375A.375.375,0,0,1,15,7.125"/></svg>