<svg id="Regular" xmlns="http://www.w3.org/2000/svg" viewBox="0 0 24 24"><defs><style>.cls-1{fill:none;stroke:currentColor;stroke-linecap:round;stroke-linejoin:round;stroke-width:1.5px;}</style></defs><title>dressing-hanger</title><path class="cls-1" d="M.75,23.25v-21A1.5,1.5,0,0,1,2.25.75h19.5a1.5,1.5,0,0,1,1.5,1.5v21"/><line class="cls-1" x1="0.75" y1="6.75" x2="23.25" y2="6.75"/><path class="cls-1" d="M12.75,6.75a1.5,1.5,0,0,0,0-3H5.25a1.5,1.5,0,0,0,0,3Z"/><line class="cls-1" x1="6.75" y1="6.75" x2="6.75" y2="23.25"/><line class="cls-1" x1="0.75" y1="11.25" x2="6.75" y2="11.25"/><line class="cls-1" x1="0.75" y1="15.75" x2="6.75" y2="15.75"/><line class="cls-1" x1="0.75" y1="20.25" x2="6.75" y2="20.25"/><path class="cls-1" d="M12.75,15.75c0-1.656,1.679-3,3.75-3s3.75,1.344,3.75,3Z"/><path class="cls-1" d="M16.5,9.75a1.5,1.5,0,0,1,0,3"/><line class="cls-1" x1="6.75" y1="9.75" x2="14.25" y2="9.75"/><line class="cls-1" x1="23.25" y1="9.75" x2="20.25" y2="9.75"/></svg>