<svg xmlns="http://www.w3.org/2000/svg" viewBox="0 0 24 24"><defs><style>.a{fill:none;stroke:currentColor;stroke-linecap:round;stroke-linejoin:round;stroke-width:1.5px;}</style></defs><title>drone-restaurant</title><path class="a" d="M21.75,5.25a1.5,1.5,0,0,0-1.5-1.5H18.762a4.363,4.363,0,0,1-3.34-1.421,4.5,4.5,0,0,0-6.844,0A4.362,4.362,0,0,1,5.238,3.75H3.75a1.5,1.5,0,0,0,0,3H5.238a4.362,4.362,0,0,1,3.34,1.421,4.5,4.5,0,0,0,6.844,0,4.363,4.363,0,0,1,3.34-1.421H20.25A1.5,1.5,0,0,0,21.75,5.25Z"/><line class="a" x1="2.25" y1="0.75" x2="5.25" y2="0.75"/><line class="a" x1="18.75" y1="0.75" x2="21.75" y2="0.75"/><path class="a" d="M16.57,7.267a8.73,8.73,0,0,1,3.48,5.124"/><path class="a" d="M7.43,7.267a8.735,8.735,0,0,0-3.48,5.124"/><rect class="a" x="6.75" y="12.75" width="10.5" height="10.5" rx="1.5" ry="1.5"/><polyline class="a" points="12.75 20.25 12.75 15.75 14.25 18.75 12.75 18.75"/><line class="a" x1="9.75" y1="15.75" x2="9.75" y2="20.25"/></svg>