<svg xmlns="http://www.w3.org/2000/svg" viewBox="0 0 24 24"><defs><style>.a{fill:none;stroke:currentColor;stroke-linecap:round;stroke-linejoin:round;stroke-width:1.5px;}</style></defs><title>drone-controller-1</title><path class="a" d="M23.25,5.25a1.5,1.5,0,0,0-1.5-1.5H20.262a4.363,4.363,0,0,1-3.34-1.421,4.5,4.5,0,0,0-6.844,0A4.362,4.362,0,0,1,6.738,3.75H5.25a1.5,1.5,0,0,0,0,3H6.738a4.362,4.362,0,0,1,3.34,1.421,4.5,4.5,0,0,0,6.844,0,4.363,4.363,0,0,1,3.34-1.421H21.75A1.5,1.5,0,0,0,23.25,5.25Z"/><line class="a" x1="3.75" y1="0.75" x2="6.75" y2="0.75"/><line class="a" x1="20.25" y1="0.75" x2="23.25" y2="0.75"/><path class="a" d="M8.93,7.267a8.735,8.735,0,0,0-3.48,5.124"/><path class="a" d="M18.07,7.267a8.73,8.73,0,0,1,3.48,5.124,1.515,1.515,0,0,1-1.464,1.859H18.75"/><circle class="a" cx="13.5" cy="12" r="2.25"/><path class="a" d="M8.25,15.75H3.75a3,3,0,0,0-3,3v3.109A1.391,1.391,0,0,0,2.141,23.25h0a1.39,1.39,0,0,0,1.244-.769L4.5,20.25h3l1.116,2.232a1.391,1.391,0,0,0,2.634-.623V18.75A3,3,0,0,0,8.25,15.75Z"/></svg>