<svg xmlns="http://www.w3.org/2000/svg" viewBox="0 0 24 24"><defs><style>.a{fill:none;stroke:currentColor;stroke-linecap:round;stroke-linejoin:round;stroke-width:1.5px;}</style></defs><title>drone-camera</title><path class="a" d="M21.75,6.565H18.762a4.363,4.363,0,0,1-3.34-1.421,4.5,4.5,0,0,0-6.844,0,4.362,4.362,0,0,1-3.34,1.421H2.25a1.5,1.5,0,0,0,0,3H5.238a4.362,4.362,0,0,1,3.34,1.421,4.5,4.5,0,0,0,6.844,0,4.363,4.363,0,0,1,3.34-1.421H21.75a1.5,1.5,0,1,0,0-3Z"/><line class="a" x1="0.75" y1="2.065" x2="2.25" y2="2.065"/><line class="a" x1="5.25" y1="2.065" x2="6.75" y2="2.065"/><line class="a" x1="3.75" y1="3.565" x2="3.75" y2="6.565"/><line class="a" x1="17.25" y1="2.065" x2="18.75" y2="2.065"/><line class="a" x1="21.75" y1="2.065" x2="23.25" y2="2.065"/><line class="a" x1="20.25" y1="3.565" x2="20.25" y2="6.565"/><path class="a" d="M6.75,12.565a8.88,8.88,0,0,0-4.3,5.641,1.515,1.515,0,0,0,1.464,1.859H5.25"/><path class="a" d="M17.25,12.565a8.88,8.88,0,0,1,4.3,5.641,1.515,1.515,0,0,1-1.464,1.859H18.75"/><circle class="a" cx="12" cy="18.565" r="3.375"/><path class="a" d="M12,18.19a.375.375,0,1,0,.375.375A.375.375,0,0,0,12,18.19h0"/></svg>