<svg xmlns="http://www.w3.org/2000/svg" viewBox="0 0 24 24"><defs><style>.a{fill:none;stroke:currentColor;stroke-linecap:round;stroke-linejoin:round;stroke-width:1.5px;}</style></defs><title>drone-video</title><path class="a" d="M7.078,11.329a4.362,4.362,0,0,1-3.34,1.421H2.25a1.5,1.5,0,0,0,0,3H3.738a4.362,4.362,0,0,1,3.34,1.421,4.5,4.5,0,0,0,6.844,0,4.363,4.363,0,0,1,3.34-1.421H18.75a1.5,1.5,0,0,0,1.5-1.5"/><line class="a" x1="0.75" y1="9.75" x2="3.75" y2="9.75"/><path class="a" d="M5.93,16.267a8.735,8.735,0,0,0-3.48,5.124A1.515,1.515,0,0,0,3.914,23.25H5.25"/><path class="a" d="M15.07,16.267a8.73,8.73,0,0,1,3.48,5.124,1.515,1.515,0,0,1-1.464,1.859H15.75"/><circle class="a" cx="10.5" cy="21" r="2.25"/><path class="a" d="M19.5,3.75V2.25A1.5,1.5,0,0,0,18,.75H11.25a1.5,1.5,0,0,0-1.5,1.5v7.5a1.5,1.5,0,0,0,1.5,1.5H18a1.5,1.5,0,0,0,1.5-1.5V8.25L23.25,9V3Z"/></svg>