<svg xmlns="http://www.w3.org/2000/svg" viewBox="0 0 24 24"><defs><style>.a{fill:none;stroke:currentColor;stroke-linecap:round;stroke-linejoin:round;stroke-width:1.5px;}</style></defs><title>drone</title><line class="a" x1="17.25" y1="5.5" x2="23.25" y2="5.5"/><line class="a" x1="20.25" y1="4" x2="20.25" y2="5.5"/><path class="a" d="M14.25,13.75v3a1.5,1.5,0,0,1-1.5,1.5h-1.5a1.5,1.5,0,0,1-1.5-1.5v-3"/><path class="a" d="M14.25,16.75a3,3,0,0,1,3,3"/><path class="a" d="M9.75,16.75a3,3,0,0,0-3,3"/><circle class="a" cx="12" cy="9.25" r="2.25"/><path class="a" d="M18,11.5h.75a1.5,1.5,0,0,0,1.5-1.5V8.5"/><line class="a" x1="6.75" y1="5.5" x2="0.75" y2="5.5"/><line class="a" x1="3.75" y1="4" x2="3.75" y2="5.5"/><path class="a" d="M6,11.5H5.25A1.5,1.5,0,0,1,3.75,10V8.5"/><path class="a" d="M9.75,9.25H8.25a2.25,2.25,0,0,0,0,4.5h7.5a2.25,2.25,0,0,0,0-4.5h-1.5"/></svg>