<svg xmlns="http://www.w3.org/2000/svg" viewBox="0 0 24 24"><defs><style>.a{fill:none;stroke:currentColor;stroke-linecap:round;stroke-linejoin:round;stroke-width:1.5px;}</style></defs><title>drone-controller</title><rect class="a" x="0.75" y="10.25" width="22.5" height="12.75" rx="4.5" ry="4.5"/><circle class="a" cx="6.75" cy="17.75" r="2.25"/><circle class="a" cx="17.25" cy="17.75" r="2.25"/><line class="a" x1="10.5" y1="13.25" x2="13.5" y2="13.25"/><line class="a" x1="18.84" y1="16.16" x2="20.25" y2="14.75"/><line class="a" x1="6.75" y1="15.5" x2="6.75" y2="14"/><line class="a" x1="12" y1="10.25" x2="12" y2="4.25"/><path class="a" d="M15.4,5.68a2.982,2.982,0,0,0,0-2.86"/><path class="a" d="M8.6,2.82a2.982,2.982,0,0,0,0,2.86"/><path class="a" d="M18.679,7.468a6.713,6.713,0,0,0,0-6.435"/><path class="a" d="M5.321,1.033a6.713,6.713,0,0,0,0,6.435"/></svg>