<svg xmlns="http://www.w3.org/2000/svg" viewBox="0 0 24 24"><defs><style>.a{fill:none;stroke:currentColor;stroke-linecap:round;stroke-linejoin:round;stroke-width:1.5px;}</style></defs><title>drone-height</title><path class="a" d="M23.25,5.25a1.5,1.5,0,0,0-1.5-1.5H20.262a4.363,4.363,0,0,1-3.34-1.421,4.5,4.5,0,0,0-6.844,0A4.362,4.362,0,0,1,6.738,3.75H5.25a1.5,1.5,0,0,0,0,3H6.738a4.362,4.362,0,0,1,3.34,1.421,4.5,4.5,0,0,0,6.844,0,4.363,4.363,0,0,1,3.34-1.421H21.75A1.5,1.5,0,0,0,23.25,5.25Z"/><line class="a" x1="3.75" y1="0.75" x2="6.75" y2="0.75"/><line class="a" x1="20.25" y1="0.75" x2="23.25" y2="0.75"/><path class="a" d="M18.07,7.267a8.73,8.73,0,0,1,3.48,5.124,1.515,1.515,0,0,1-1.464,1.859H18.75"/><path class="a" d="M8.93,7.267a8.735,8.735,0,0,0-3.48,5.124A1.515,1.515,0,0,0,6.914,14.25H8.25"/><circle class="a" cx="13.5" cy="12" r="2.25"/><line class="a" x1="0.75" y1="15.75" x2="3.75" y2="15.75"/><line class="a" x1="0.75" y1="23.25" x2="3.75" y2="23.25"/><line class="a" x1="2.25" y1="15.75" x2="2.25" y2="23.25"/><path class="a" d="M11.25,17.25h-3V19.5a.75.75,0,0,0,.75.75h.75a1.5,1.5,0,0,1,0,3H8.25"/><path class="a" d="M17.25,21.75a1.5,1.5,0,0,1-3,0v-3a1.5,1.5,0,0,1,3,0Z"/></svg>