<svg xmlns="http://www.w3.org/2000/svg" viewBox="0 0 24 24"><defs><style>.a{fill:none;stroke:currentColor;stroke-linecap:round;stroke-linejoin:round;stroke-width:1.5px;}</style></defs><title>drone-off</title><path class="a" d="M15.422,5.329a4.5,4.5,0,0,0-6.844,0A4.362,4.362,0,0,1,5.238,6.75H2.25a1.5,1.5,0,0,0,0,3H5.238a4.362,4.362,0,0,1,3.34,1.421"/><path class="a" d="M15.422,11.171a4.363,4.363,0,0,1,3.34-1.421H21.75a1.5,1.5,0,0,0,0-3h-1.5"/><line class="a" x1="0.75" y1="2.25" x2="2.25" y2="2.25"/><line class="a" x1="5.25" y1="2.25" x2="6.75" y2="2.25"/><line class="a" x1="3.75" y1="3.75" x2="3.75" y2="6.75"/><line class="a" x1="17.25" y1="2.25" x2="18.75" y2="2.25"/><path class="a" d="M17.25,9.985V12.75a1.5,1.5,0,0,1-1.5,1.5H13.5"/><path class="a" d="M3.555,15.75a9.094,9.094,0,0,1,3.2-3V9.985"/><path class="a" d="M17.25,12.75a8.88,8.88,0,0,1,4.3,5.641,1.515,1.515,0,0,1-1.464,1.859H17.25"/><line class="a" x1="17.25" y1="18.75" x2="17.25" y2="21.75"/><line class="a" x1="0.75" y1="23.25" x2="23.25" y2="0.75"/></svg>