<svg xmlns="http://www.w3.org/2000/svg" viewBox="0 0 24 24"><defs><style>.a{fill:none;stroke:currentColor;stroke-linecap:round;stroke-linejoin:round;stroke-width:1.5px;}</style></defs><title>drone-mail</title><path class="a" d="M21.75,5.25H18.762a4.363,4.363,0,0,1-3.34-1.421,4.5,4.5,0,0,0-6.844,0A4.362,4.362,0,0,1,5.238,5.25H2.25a1.5,1.5,0,0,0,0,3H5.238a4.362,4.362,0,0,1,3.34,1.421,4.5,4.5,0,0,0,6.844,0,4.363,4.363,0,0,1,3.34-1.421H21.75a1.5,1.5,0,0,0,0-3Z"/><line class="a" x1="0.75" y1="0.75" x2="2.25" y2="0.75"/><line class="a" x1="5.25" y1="0.75" x2="6.75" y2="0.75"/><line class="a" x1="3.75" y1="2.25" x2="3.75" y2="5.25"/><line class="a" x1="17.25" y1="0.75" x2="18.75" y2="0.75"/><line class="a" x1="21.75" y1="0.75" x2="23.25" y2="0.75"/><line class="a" x1="20.25" y1="2.25" x2="20.25" y2="5.25"/><path class="a" d="M6.75,11.25a8.88,8.88,0,0,0-4.3,5.641A1.515,1.515,0,0,0,3.914,18.75H6.75"/><path class="a" d="M17.25,11.25a8.88,8.88,0,0,1,4.3,5.641,1.515,1.515,0,0,1-1.464,1.859H17.25"/><rect class="a" x="6.75" y="15.75" width="10.5" height="7.5"/><polyline class="a" points="6.75 17.25 12 20.25 17.25 17.25"/></svg>