<svg id="Regular" xmlns="http://www.w3.org/2000/svg" viewBox="0 0 24 24"><defs><style>.cls-1{fill:none;stroke:currentColor;stroke-linecap:round;stroke-linejoin:round;stroke-width:1.5px;}</style></defs><title>drugs-sheet</title><rect class="cls-1" x="2.243" y="5.031" width="19.514" height="13.939" rx="1.394" ry="1.394" transform="translate(-4.971 12) rotate(-45)"/><path class="cls-1" d="M12.986,5.1a1.394,1.394,0,0,1,1.971,1.971L12.986,9.043a1.394,1.394,0,0,1-1.972-1.971Z"/><path class="cls-1" d="M16.928,9.043A1.394,1.394,0,0,1,18.9,11.014l-1.971,1.972a1.394,1.394,0,0,1-1.971-1.972Z"/><path class="cls-1" d="M7.072,11.014a1.394,1.394,0,0,1,1.971,1.972L7.072,14.957A1.394,1.394,0,0,1,5.1,12.986Z"/><path class="cls-1" d="M11.014,14.957a1.394,1.394,0,0,1,1.972,1.971L11.014,18.9a1.394,1.394,0,0,1-1.971-1.971Z"/></svg>