<svg id="Regular" xmlns="http://www.w3.org/2000/svg" viewBox="0 0 24 24"><defs><style>.cls-1{fill:none;stroke:currentColor;stroke-linecap:round;stroke-linejoin:round;stroke-width:1.5px;}</style></defs><title>drugs-pills-box</title><path class="cls-1" d="M9.5,21.75a1.5,1.5,0,0,0,1.5,1.5h9a1.5,1.5,0,0,0,1.5-1.5V5.25H9.5v6"/><path class="cls-1" d="M22.25,5.25H8.75A.75.75,0,0,1,8,4.5V2.25A1.5,1.5,0,0,1,9.5.75h12A1.5,1.5,0,0,1,23,2.25V4.5A.75.75,0,0,1,22.25,5.25Z"/><path class="cls-1" d="M5.155,22.58A2.287,2.287,0,0,1,1.92,19.345L7.1,14.17a2.287,2.287,0,0,1,3.235,3.235Z"/><line class="cls-1" x1="4.508" y1="16.758" x2="7.742" y2="19.992"/><rect class="cls-1" x="14" y="11.25" width="7.5" height="7.5"/></svg>