<svg id="Regular" xmlns="http://www.w3.org/2000/svg" viewBox="0 0 24 24"><defs><style>.cls-1{fill:none;stroke:currentColor;stroke-linecap:round;stroke-linejoin:round;stroke-width:1.5px;}</style></defs><title>drugs-cannabis</title><path class="cls-1" d="M15.006,18.55a4,4,0,0,0,2.594.769,3.914,3.914,0,0,0-1.156-3.007c-.379-.376-1.177-1.156-1.177-1.156A6.089,6.089,0,0,0,22.5,13.769a6.118,6.118,0,0,0-4.55-2.021,6.057,6.057,0,0,0-1.854.32A8.422,8.422,0,0,0,18,10.684a7.867,7.867,0,0,0,2.4-5.24,8,8,0,0,0-5.287,2.382c-.555.55-1.476,1.706-1.476,1.706a6.871,6.871,0,0,0,.716-3.048A6.942,6.942,0,0,0,12,1.281a6.894,6.894,0,0,0-1.53,8.454A22.346,22.346,0,0,0,8.887,7.826,8,8,0,0,0,3.6,5.444,7.867,7.867,0,0,0,6,10.684a8.439,8.439,0,0,0,1.9,1.384,6.045,6.045,0,0,0-1.853-.32A6.118,6.118,0,0,0,1.5,13.769a6.121,6.121,0,0,0,4.55,2.02,11.093,11.093,0,0,0,2.683-.633s-.8.776-1.173,1.15A3.912,3.912,0,0,0,6.4,19.313a4.007,4.007,0,0,0,2.58-.759"/><line class="cls-1" x1="12" y1="17.5" x2="12" y2="22.75"/></svg>