<svg id="Regular" xmlns="http://www.w3.org/2000/svg" viewBox="0 0 24 24"><defs><style>.cls-1{fill:none;stroke:currentColor;stroke-linecap:round;stroke-linejoin:round;stroke-width:1.5px;}</style></defs><title>drugs-powder</title><path class="cls-1" d="M15,23.25l-3.252-4.878a4.2,4.2,0,0,0-7,0L1.5,23.25"/><path class="cls-1" d="M7.5,12.375a.375.375,0,0,1,.375.375"/><path class="cls-1" d="M7.125,12.75a.375.375,0,0,1,.375-.375"/><path class="cls-1" d="M7.5,13.125a.375.375,0,0,1-.375-.375"/><path class="cls-1" d="M7.875,12.75a.375.375,0,0,1-.375.375"/><path class="cls-1" d="M12,13.125a.375.375,0,0,1,.375.375"/><path class="cls-1" d="M11.625,13.5A.375.375,0,0,1,12,13.125"/><path class="cls-1" d="M12,13.875a.375.375,0,0,1-.375-.375"/><path class="cls-1" d="M12.375,13.5a.375.375,0,0,1-.375.375"/><path class="cls-1" d="M9.75,9.375a.375.375,0,0,1,.375.375"/><path class="cls-1" d="M9.375,9.75a.375.375,0,0,1,.375-.375"/><path class="cls-1" d="M9.75,10.125a.375.375,0,0,1-.375-.375"/><path class="cls-1" d="M10.125,9.75a.375.375,0,0,1-.375.375"/><path class="cls-1" d="M21.4,7.152a3.75,3.75,0,1,0-5.3-5.3L11.856,6.091a.75.75,0,0,0,0,1.061L16.1,11.394a.75.75,0,0,0,1.061,0Z"/></svg>