<svg id="Regular" xmlns="http://www.w3.org/2000/svg" viewBox="0 0 24 24"><defs><style>.cls-1{fill:none;stroke:currentColor;stroke-linecap:round;stroke-linejoin:round;stroke-width:1.5px;}</style></defs><title>duck</title><path class="cls-1" d="M2.711,14.15a9.75,9.75,0,1,1,18.02.187"/><path class="cls-1" d="M17.76,15.762a3.7,3.7,0,0,1,.435-1.8.738.738,0,0,0-.125-.887l-1.28-1.281a.762.762,0,0,0-1.011-.044c-.66.5-2,1.029-4.019-.486-2.02,1.515-3.36.99-4.02.486a.76.76,0,0,0-1.01.044L5.45,13.073a.737.737,0,0,0-.125.887,3.7,3.7,0,0,1,.435,1.8c0,1.5-1.5,2.25-1.5,3.75,0,2.072,3.358,3.75,7.5,3.75s7.5-1.678,7.5-3.75C19.26,18.012,17.76,17.262,17.76,15.762Z"/><path class="cls-1" d="M7.635,6.762a.375.375,0,0,1,.375.375"/><path class="cls-1" d="M7.26,7.137a.375.375,0,0,1,.375-.375"/><path class="cls-1" d="M7.635,7.512a.374.374,0,0,1-.375-.375"/><path class="cls-1" d="M8.01,7.137a.374.374,0,0,1-.375.375"/><path class="cls-1" d="M15.885,6.762a.375.375,0,0,1,.375.375"/><path class="cls-1" d="M15.51,7.137a.375.375,0,0,1,.375-.375"/><path class="cls-1" d="M15.885,7.512a.374.374,0,0,1-.375-.375"/><path class="cls-1" d="M16.26,7.137a.374.374,0,0,1-.375.375"/><line class="cls-1" x1="14.01" y1="15.012" x2="13.26" y2="16.512"/><line class="cls-1" x1="9.51" y1="15.012" x2="10.26" y2="16.512"/></svg>