<svg id="Regular" xmlns="http://www.w3.org/2000/svg" viewBox="0 0 24 24"><defs><style>.cls-1{fill:none;stroke:currentColor;stroke-linecap:round;stroke-linejoin:round;stroke-width:1.5px;fill-rule:evenodd;}</style></defs><title>duck-bill-platypus</title><path class="cls-1" d="M10,19.25a3.75,3.75,0,1,1,4.5,0"/><path class="cls-1" d="M14.5,19.25l-.375,3a.75.75,0,0,1-.75.75h-2.25a.75.75,0,0,1-.75-.75l-.375-3s1.125-1.5,2.25-1.5S14.5,19.25,14.5,19.25Z"/><path class="cls-1" d="M8.584,11.778,8.5,11.75a2.323,2.323,0,0,0-3,1.5"/><path class="cls-1" d="M8.579,8.746,8.5,8.667a2.078,2.078,0,0,0-3,0"/><path class="cls-1" d="M15.749,11.834,16,11.75a2.323,2.323,0,0,1,3,1.5"/><path class="cls-1" d="M15.792,8.875,16,8.667a2.078,2.078,0,0,1,3,0"/><path class="cls-1" d="M15,13.7a6.569,6.569,0,0,0,.923-3.45,6.049,6.049,0,0,0-1.605-4.3A2.393,2.393,0,0,1,16,5h.375a1.875,1.875,0,0,0,0-3.75H16a5.366,5.366,0,0,0-5.244,4.143A5.55,5.55,0,0,0,8.422,10.25,6.522,6.522,0,0,0,9.41,13.8"/></svg>