<svg id="Regular" xmlns="http://www.w3.org/2000/svg" viewBox="0 0 24 24"><defs><style>.cls-1{fill:none;stroke:currentColor;stroke-linecap:round;stroke-linejoin:round;stroke-width:1.5px;}</style></defs><title>duck-water</title><path class="cls-1" d="M.75,21.877c1.5,0,2.25,1.5,3.75,1.5s2.25-1.5,3.75-1.5,2.25,1.5,3.75,1.5,2.25-1.5,3.75-1.5,2.25,1.5,3.75,1.5,2.25-1.5,3.75-1.5"/><path class="cls-1" d="M20.25,19.627c1.5-3.75.75-4.5-1.5-6.75s-3-6-1.5-7.5c2.25-2.25,6,1.5,6,1.5"/><path class="cls-1" d="M20.757,5.113,21,4.627s1.5-3-2.25-3.75-6,2.25-6,6.75a18.2,18.2,0,0,0,1.5,7.5"/><path class="cls-1" d="M13.728,13.789l-.228-.162a7.5,7.5,0,0,0-5.647-.75c-2.769.589-4.235,3-6.353,2.25a3.607,3.607,0,0,0,1.5,4.5"/><path class="cls-1" d="M6.75,16.627s.75,3,5.25,2.25"/></svg>