<svg xmlns="http://www.w3.org/2000/svg" viewBox="0 0 24 24"><defs><style>.a{fill:none;stroke:currentColor;stroke-linecap:round;stroke-linejoin:round;stroke-width:1.5px;}</style></defs><title>e-commerce-shopping-bag</title><path class="a" d="M18.552,8.022A1.308,1.308,0,0,0,17.336,6.75H6.663A1.307,1.307,0,0,0,5.448,8.022L3.757,18.68a1.357,1.357,0,0,0,1.215,1.57H19.027a1.357,1.357,0,0,0,1.216-1.57Z"/><path class="a" d="M8.25,6.75c0-.707-.537-5.278,3.748-5.278h0c4.271,0,3.752,4.667,3.752,5.278"/><path class="a" d="M13.65,10.5H11.617a1.342,1.342,0,0,0-.5,2.587l2.064.825a1.342,1.342,0,0,1-.5,2.588H10.65"/><line class="a" x1="12.15" y1="10.5" x2="12.15" y2="9.75"/><line class="a" x1="12.15" y1="17.25" x2="12.15" y2="16.5"/><path class="a" d="M.75,3.75V2.25A1.5,1.5,0,0,1,2.25.75h1.5"/><path class="a" d="M23.25,3.75V2.25a1.5,1.5,0,0,0-1.5-1.5h-1.5"/><path class="a" d="M.75,20.25v1.5a1.5,1.5,0,0,0,1.5,1.5h1.5"/><path class="a" d="M23.25,20.25v1.5a1.5,1.5,0,0,1-1.5,1.5h-1.5"/></svg>