<svg id="Regular" xmlns="http://www.w3.org/2000/svg" viewBox="0 0 24 24"><defs><style>.cls-1{fill:none;stroke:#000;stroke-linecap:round;stroke-linejoin:round;stroke-width:1.5px;fill-rule:evenodd;}</style></defs><title>e-commerce-amazon-1</title><path class="cls-1" d="M22.77,19.21c-12.3,6.72-21.59-.08-21.59-.08"/><path class="cls-1" d="M20.42,23c1.43-.76,2.66-2.94,2.36-3.79v0c-.26-.56-2.59-1.41-4.39-.69"/><path class="cls-1" d="M12.75,7.38c-4.54.34-8.63,1.1-8.63,5.79a4.15,4.15,0,0,0,4.37,4.52,5.75,5.75,0,0,0,4.82-2.13A8,8,0,0,0,15,17.48a.71.71,0,0,0,.71-.05c.61-.51,1.68-1.42,2.23-1.93a.55.55,0,0,0,.05-.76,3.8,3.8,0,0,1-1.12-2.69V7.48c0-1.93.15-3.71-1.27-5A6.82,6.82,0,0,0,11.18,1c-3.25,0-6,1.33-6.55,4.47A.48.48,0,0,0,5,6.06l2.84.35a.64.64,0,0,0,.51-.56,2.33,2.33,0,0,1,2.39-1.78,2,2,0,0,1,1.63.76A4.59,4.59,0,0,1,12.75,7.38ZM12,13.29C11.1,15,8.58,15,8.58,12.61a2.37,2.37,0,0,1,1.94-2.43A8.87,8.87,0,0,1,12.45,10v.54A4.78,4.78,0,0,1,12,13.29Z"/></svg>