<svg xmlns="http://www.w3.org/2000/svg" viewBox="0 0 24 24"><defs><style>.a{fill:none;stroke:currentColor;stroke-linecap:round;stroke-linejoin:round;stroke-width:1.5px;}</style></defs><title>e-commerce-shop</title><path class="a" d="M20.25,11.25v3a1.5,1.5,0,0,1-1.5,1.5H5.25a1.5,1.5,0,0,1-1.5-1.5v-3"/><path class="a" d="M21.748,23.25H2.252A1.5,1.5,0,0,1,.91,21.079l1.836-3.671A3,3,0,0,1,5.429,15.75H18.571a3,3,0,0,1,2.683,1.658l1.836,3.671A1.5,1.5,0,0,1,21.748,23.25Z"/><line class="a" x1="10.5" y1="20.25" x2="13.5" y2="20.25"/><path class="a" d="M21.148.75H2.852a.751.751,0,0,0-.733.587L.75,6a2.25,2.25,0,0,0,4.5,0,2.25,2.25,0,0,0,4.5,0,2.25,2.25,0,0,0,4.5,0,2.25,2.25,0,0,0,4.5,0,2.25,2.25,0,0,0,4.5,0L21.88,1.337A.749.749,0,0,0,21.148.75Z"/></svg>