<svg xmlns="http://www.w3.org/2000/svg" viewBox="0 0 24 24"><defs><style>.a{fill:none;stroke:currentColor;stroke-linecap:round;stroke-linejoin:round;stroke-width:1.5px;}</style></defs><title>e-commerce-cart-laptop</title><polyline class="a" points="17.25 1.5 15 9 9 9 7.5 4.5 16.35 4.5"/><path class="a" d="M9.375,11.25A.375.375,0,1,1,9,11.625a.375.375,0,0,1,.375-.375"/><path class="a" d="M14.625,11.25a.375.375,0,1,1-.375.375.375.375,0,0,1,.375-.375"/><path class="a" d="M19.811,3.439A1.5,1.5,0,0,1,20.25,4.5v9a1.5,1.5,0,0,1-1.5,1.5H5.25a1.5,1.5,0,0,1-1.5-1.5v-9A1.5,1.5,0,0,1,5.25,3"/><path class="a" d="M21.748,22.5H2.252A1.5,1.5,0,0,1,.91,20.329l1.836-3.671A3,3,0,0,1,5.429,15H18.571a3,3,0,0,1,2.683,1.658l1.836,3.671A1.5,1.5,0,0,1,21.748,22.5Z"/><line class="a" x1="10.5" y1="19.5" x2="13.5" y2="19.5"/></svg>