<svg xmlns="http://www.w3.org/2000/svg" viewBox="0 0 24 24"><defs><style>.a{fill:none;stroke:currentColor;stroke-linecap:round;stroke-linejoin:round;stroke-width:1.5px;}</style></defs><title>e-commerce-cart-monitor-keyboard</title><path class="a" d="M19.5.75h.75a1.5,1.5,0,0,1,1.5,1.5v10.5a1.5,1.5,0,0,1-1.5,1.5H3.75a1.5,1.5,0,0,1-1.5-1.5V2.25A1.5,1.5,0,0,1,3.75.75H6"/><path class="a" d="M20.767,22.318a.751.751,0,0,1-.728.932H3.96a.75.75,0,0,1-.727-.932l1.125-4.5a.749.749,0,0,1,.727-.568H18.914a.751.751,0,0,1,.728.568Z"/><line class="a" x1="6.75" y1="20.25" x2="8.25" y2="20.25"/><line class="a" x1="15.75" y1="20.25" x2="17.25" y2="20.25"/><line class="a" x1="11.25" y1="20.25" x2="12.75" y2="20.25"/><polyline class="a" points="16.5 0.75 14.25 8.25 8.25 8.25 6.75 3.75 15.6 3.75"/><path class="a" d="M8.625,10.5a.375.375,0,1,1-.375.375.375.375,0,0,1,.375-.375"/><path class="a" d="M13.875,10.5a.375.375,0,1,1-.375.375.375.375,0,0,1,.375-.375"/></svg>