<svg xmlns="http://www.w3.org/2000/svg" viewBox="0 0 24 24"><defs><style>.a{fill:none;stroke:currentColor;stroke-linecap:round;stroke-linejoin:round;stroke-width:1.5px;}</style></defs><title>e-commerce-basket-monitor</title><path class="a" d="M15.835,5.25H8.164a1.5,1.5,0,0,0-1.4,2.026l1.307,3.487a.751.751,0,0,0,.7.487h6.46a.748.748,0,0,0,.7-.487L17.24,7.276A1.5,1.5,0,0,0,15.835,5.25Z"/><line class="a" x1="8.25" y1="5.25" x2="9.75" y2="1.5"/><line class="a" x1="15.75" y1="5.25" x2="14.25" y2="1.5"/><line class="a" x1="7.5" y1="23.25" x2="16.5" y2="23.25"/><line class="a" x1="0.75" y1="15" x2="23.25" y2="15"/><path class="a" d="M18.75.75h3a1.5,1.5,0,0,1,1.5,1.5v15a1.5,1.5,0,0,1-1.5,1.5H2.25a1.5,1.5,0,0,1-1.5-1.5v-15A1.5,1.5,0,0,1,2.25.75h3"/><line class="a" x1="12" y1="23.25" x2="12" y2="18.75"/><line class="a" x1="10.5" y1="9" x2="10.5" y2="7.5"/><line class="a" x1="13.5" y1="9" x2="13.5" y2="7.5"/></svg>