<svg xmlns="http://www.w3.org/2000/svg" viewBox="0 0 24 24"><defs><style>.a{fill:none;stroke:currentColor;stroke-linecap:round;stroke-linejoin:round;stroke-width:1.5px;}</style></defs><title>e-commerce-touch-buy</title><path class="a" d="M23.022,23.25l.1-1.122a3,3,0,0,0-2.337-3.2L16.613,18V12a1.5,1.5,0,0,0-3,0v9.75l-1.7-1.278a1.532,1.532,0,0,0-2.145,2.145l.474.633"/><path class="a" d="M10.613,14.25H2.363a1.5,1.5,0,0,1-1.5-1.5V2.25a1.5,1.5,0,0,1,1.5-1.5h2.25"/><path class="a" d="M16.613.75h2.25a1.5,1.5,0,0,1,1.5,1.5v10.5a1.5,1.5,0,0,1-1.5,1.5"/><line class="a" x1="9.863" y1="14.25" x2="9.863" y2="17.25"/><line class="a" x1="7.613" y1="17.25" x2="10.613" y2="17.25"/><path class="a" d="M15.391,7.528l.375-1a1.5,1.5,0,0,0-1.4-2.026H6.691A1.5,1.5,0,0,0,5.286,6.526l1.308,3.487a.749.749,0,0,0,.7.487h3.317"/><line class="a" x1="6.776" y1="4.5" x2="8.276" y2="0.75"/><line class="a" x1="14.276" y1="4.5" x2="12.776" y2="0.75"/></svg>