<svg xmlns="http://www.w3.org/2000/svg" viewBox="0 0 24 24"><defs><style>.a{fill:none;stroke:currentColor;stroke-linecap:round;stroke-linejoin:round;stroke-width:1.5px;}</style></defs><title>e-commerce-cart-vr</title><line class="a" x1="3" y1="4.5" x2="3" y2="5.25"/><line class="a" x1="3" y1="0.75" x2="3" y2="1.5"/><line class="a" x1="1.5" y1="3" x2="0.75" y2="3"/><line class="a" x1="5.25" y1="3" x2="4.5" y2="3"/><path class="a" d="M12.75,13.5A5.654,5.654,0,0,0,2.1,13.5"/><path class="a" d="M14.25,14.473V17.56a1.955,1.955,0,0,1-.565,1.377l-.464.469a1.917,1.917,0,0,1-2.08.431l-1.252-.506a6.382,6.382,0,0,0-4.779,0l-1.251.506a1.917,1.917,0,0,1-2.08-.431l-.464-.469A1.955,1.955,0,0,1,.75,17.56V14.473a.969.969,0,0,1,.964-.973H13.286A.969.969,0,0,1,14.25,14.473Z"/><path class="a" d="M2.224,19.743a5.87,5.87,0,0,0,10.823-.182"/><line class="a" x1="6" y1="15.75" x2="9" y2="15.75"/><polyline class="a" points="23.25 0.75 21 8.25 15 8.25 13.5 3.75 22.35 3.75"/><path class="a" d="M15.375,10.5a.375.375,0,1,1-.375.375.375.375,0,0,1,.375-.375"/><path class="a" d="M20.625,10.5a.375.375,0,1,1-.375.375.375.375,0,0,1,.375-.375"/></svg>