<svg id="Regular" xmlns="http://www.w3.org/2000/svg" viewBox="0 0 24 24"><defs><style>.cls-1{fill:none;stroke:#000;stroke-linecap:round;stroke-linejoin:round;stroke-width:1.5px;}</style></defs><title>e-commerce-app-store</title><path class="cls-1" d="M11.68,9a.52.52,0,0,0-.19-.71l-1.36-.78a.52.52,0,0,0-.71.19l-5.2,9.07a.52.52,0,0,0,.19.71l1.36.78a.52.52,0,0,0,.71-.19Z"/><path class="cls-1" d="M3.17,19.61a.28.28,0,0,0-.44.22l-.2,1.78c0,.25.12.34.32.2l1.52-1a.26.26,0,0,0,0-.48l-1.18-.68"/><path class="cls-1" d="M20.23,16.74c-.41-.74-7.32-16-8.8-15s6.4,16,7,16.3a1,1,0,0,0,1.11,0C19.91,17.84,20.56,17.34,20.23,16.74Z"/><path class="cls-1" d="M20.92,20.51c-.33.25-.41.51-.09,1s1.08.56,1.18.86c0,0,.34-2.72-1.09-1.82"/><line class="cls-1" x1="10.81" y1="14.62" x2="13.9" y2="14.62"/><polyline class="cls-1" points="4.88 10.7 0.75 10.7 0.75 14.62 3.2 14.62"/><polyline class="cls-1" points="21.46 14.62 23.25 14.62 23.25 10.7 19.68 10.7"/></svg>