<svg xmlns="http://www.w3.org/2000/svg" viewBox="0 0 24 24"><defs><style>.a{fill:none;stroke:currentColor;stroke-linecap:round;stroke-linejoin:round;stroke-width:1.5px;}</style></defs><title>e-commerce-cart-browser</title><path class="a" d="M18,21.75h3.75a1.5,1.5,0,0,0,1.5-1.5V3.865A1.62,1.62,0,0,0,21.634,2.25H2.357A1.612,1.612,0,0,0,.75,3.857V20.134A1.62,1.62,0,0,0,2.365,21.75H6"/><line class="a" x1="0.75" y1="6.75" x2="23.25" y2="6.75"/><polyline class="a" points="17.25 10.5 15 18 9 18 7.5 13.5 16.35 13.5"/><path class="a" d="M9.375,20.25A.375.375,0,1,1,9,20.625a.375.375,0,0,1,.375-.375"/><path class="a" d="M14.625,20.25a.375.375,0,1,1-.375.375.375.375,0,0,1,.375-.375"/></svg>