<svg xmlns="http://www.w3.org/2000/svg" viewBox="0 0 24 24"><defs><style>.a{fill:none;stroke:currentColor;stroke-linecap:round;stroke-linejoin:round;stroke-width:1.5px;}</style></defs><title>e-commerce-shopping-bag-1</title><line class="a" x1="7.501" y1="18.75" x2="10.501" y2="18.75"/><line class="a" x1="15.001" y1="10.5" x2="20.251" y2="10.5"/><line class="a" x1="0.751" y1="10.5" x2="5.251" y2="10.5"/><path class="a" d="M10.5,15H2.251a1.5,1.5,0,0,1-1.5-1.5V2.25a1.5,1.5,0,0,1,1.5-1.5h16.5a1.5,1.5,0,0,1,1.5,1.5V10.5"/><line class="a" x1="9.751" y1="18.75" x2="9.751" y2="15"/><path class="a" d="M21.528,13.507H14.477a.749.749,0,0,0-.718.707l-1,8.164a.767.767,0,0,0,.718.872h9.049a.766.766,0,0,0,.717-.872l-1-8.164A.75.75,0,0,0,21.528,13.507Z"/><path class="a" d="M19.843,16.478A1.88,1.88,0,0,1,18,18h0a1.879,1.879,0,0,1-1.839-1.513"/><path class="a" d="M11.626,4.5H9.593a1.341,1.341,0,0,0-.5,2.587l2.063.825a1.342,1.342,0,0,1-.5,2.588H8.626"/><line class="a" x1="10.126" y1="4.5" x2="10.126" y2="3.75"/><line class="a" x1="10.126" y1="11.25" x2="10.126" y2="10.5"/></svg>