<svg xmlns="http://www.w3.org/2000/svg" viewBox="0 0 24 24"><defs><style>.a{fill:none;stroke:currentColor;stroke-linecap:round;stroke-linejoin:round;stroke-width:1.5px;}</style></defs><title>e-commerce-cart-cloud</title><polyline class="a" points="17.625 12.75 15.375 20.25 9.375 20.25 7.875 15.75 16.725 15.75"/><path class="a" d="M9.75,22.5a.375.375,0,1,1-.375.375A.375.375,0,0,1,9.75,22.5"/><path class="a" d="M15,22.5a.375.375,0,1,1-.375.375A.375.375,0,0,1,15,22.5"/><polyline class="a" points="10.125 10.5 12.375 12.75 12.375 7.5"/><line class="a" x1="14.625" y1="10.5" x2="12.375" y2="12.75"/><path class="a" d="M7.3,9.246a4.5,4.5,0,1,1,6.529-4.411,2.994,2.994,0,1,1,3.356,4.721"/></svg>