<svg xmlns="http://www.w3.org/2000/svg" viewBox="0 0 24 24"><defs><style>.a{fill:none;stroke:currentColor;stroke-linecap:round;stroke-linejoin:round;stroke-width:1.5px;}</style></defs><title>e-commerce-basket-laptop</title><path class="a" d="M18.75,3a1.5,1.5,0,0,1,1.5,1.5v9a1.5,1.5,0,0,1-1.5,1.5H5.25a1.5,1.5,0,0,1-1.5-1.5v-9A1.5,1.5,0,0,1,5.25,3"/><path class="a" d="M21.748,21.75H2.252A1.5,1.5,0,0,1,.91,19.579l1.836-2.921A3,3,0,0,1,5.429,15H18.571a3,3,0,0,1,2.683,1.658l1.836,2.921A1.5,1.5,0,0,1,21.748,21.75Z"/><line class="a" x1="10.5" y1="18.75" x2="13.5" y2="18.75"/><path class="a" d="M15.922,6H8.251a1.5,1.5,0,0,0-1.4,2.026l1.307,3.487a.75.75,0,0,0,.7.487h6.461a.749.749,0,0,0,.7-.487l1.308-3.487A1.5,1.5,0,0,0,15.922,6Z"/><line class="a" x1="8.337" y1="6" x2="9.837" y2="2.25"/><line class="a" x1="15.837" y1="6" x2="14.337" y2="2.25"/><line class="a" x1="10.5" y1="9.75" x2="10.5" y2="8.25"/><line class="a" x1="13.5" y1="9.75" x2="13.5" y2="8.25"/></svg>