<svg xmlns="http://www.w3.org/2000/svg" viewBox="0 0 24 24"><defs><style>.a{fill:none;stroke:currentColor;stroke-linecap:round;stroke-linejoin:round;stroke-width:1.5px;}</style></defs><title>e-commerce-gift</title><path class="a" d="M5.25,15.75a1.5,1.5,0,0,1-1.5-1.5V6.75a1.5,1.5,0,0,1,1.5-1.5h6"/><path class="a" d="M21.748,23.25H2.252A1.5,1.5,0,0,1,.91,21.079l1.836-3.671A3,3,0,0,1,5.429,15.75H18.571a3,3,0,0,1,2.683,1.658l1.836,3.671A1.5,1.5,0,0,1,21.748,23.25Z"/><line class="a" x1="10.5" y1="20.25" x2="13.5" y2="20.25"/><rect class="a" x="14.25" y="3.75" width="9" height="9" rx="1.5" ry="1.5"/><line class="a" x1="18.75" y1="3.75" x2="18.75" y2="12.75"/><line class="a" x1="14.25" y1="8.25" x2="23.25" y2="8.25"/><line class="a" x1="16.5" y1="0.75" x2="18.75" y2="3.75"/><line class="a" x1="21" y1="0.75" x2="18.75" y2="3.75"/></svg>