<svg xmlns="http://www.w3.org/2000/svg" viewBox="0 0 24 24"><defs><style>.a{fill:none;stroke:currentColor;stroke-linecap:round;stroke-linejoin:round;stroke-width:1.5px;}</style></defs><title>e-commerce-add-basket-cloud</title><polyline class="a" points="10.125 10.5 12.375 12.75 12.375 7.5"/><line class="a" x1="14.625" y1="10.5" x2="12.375" y2="12.75"/><path class="a" d="M7.3,9.246a4.5,4.5,0,1,1,6.529-4.411,2.994,2.994,0,1,1,3.356,4.721"/><path class="a" d="M16.3,17.25H8.626a1.5,1.5,0,0,0-1.4,2.026l1.307,3.487a.75.75,0,0,0,.7.487h6.461a.749.749,0,0,0,.7-.487L17.7,19.276A1.5,1.5,0,0,0,16.3,17.25Z"/><line class="a" x1="9.375" y1="17.25" x2="7.875" y2="13.5"/><line class="a" x1="15.375" y1="17.25" x2="16.875" y2="13.5"/><line class="a" x1="10.875" y1="21" x2="10.875" y2="19.5"/><line class="a" x1="13.875" y1="21" x2="13.875" y2="19.5"/></svg>