<svg xmlns="http://www.w3.org/2000/svg" viewBox="0 0 24 24"><defs><style>.a{fill:none;stroke:currentColor;stroke-linecap:round;stroke-linejoin:round;stroke-width:1.5px;}</style></defs><title>e-commerce-cart</title><polyline class="a" points="15.75 5.25 13.5 12.75 7.5 12.75 6 8.25 14.85 8.25"/><path class="a" d="M7.875,15a.375.375,0,1,1-.375.375A.375.375,0,0,1,7.875,15"/><path class="a" d="M13.125,15a.375.375,0,1,1-.375.375A.375.375,0,0,1,13.125,15"/><path class="a" d="M13.855,19.657a9.74,9.74,0,1,1,5.92-6.143"/><polygon class="a" points="16.356 16.355 19.007 23.25 20.598 20.598 23.25 19.007 16.356 16.355"/><line class="a" x1="23.25" y1="23.25" x2="20.598" y2="20.598"/></svg>