<svg xmlns="http://www.w3.org/2000/svg" viewBox="0 0 24 24"><defs><style>.a{fill:none;stroke:currentColor;stroke-linecap:round;stroke-linejoin:round;stroke-width:1.5px;}</style></defs><title>e-commerce-buy</title><polygon class="a" points="16.356 16.355 19.007 23.25 20.598 20.598 23.25 19.007 16.356 16.355"/><line class="a" x1="23.25" y1="23.25" x2="20.598" y2="20.598"/><line class="a" x1="4.5" y1="12" x2="4.5" y2="4.5"/><path class="a" d="M4.5,4.5H6A1.5,1.5,0,0,1,7.5,6v.75A1.5,1.5,0,0,1,6,8.25H4.5"/><path class="a" d="M4.5,8.25H6a1.5,1.5,0,0,1,1.5,1.5v.75A1.5,1.5,0,0,1,6,12H4.5"/><path class="a" d="M10.5,4.5v6a1.5,1.5,0,0,0,3,0v-6"/><path class="a" d="M16.5,4.5V6.75a1.5,1.5,0,0,0,3,0V4.5"/><line class="a" x1="18" y1="8.25" x2="18" y2="12"/><path class="a" d="M12.75,15.75h-9a3,3,0,0,1-3-3v-9a3,3,0,0,1,3-3h16.5a3,3,0,0,1,3,3v9a3,3,0,0,1-1.541,2.622"/></svg>