<svg xmlns="http://www.w3.org/2000/svg" viewBox="0 0 24 24"><defs><style>.a{fill:none;stroke:currentColor;stroke-linecap:round;stroke-linejoin:round;stroke-width:1.5px;}</style></defs><title>e-commerce-monitor-keyboard-basket</title><path class="a" d="M15.749,5.25H8.078a1.5,1.5,0,0,0-1.4,2.026l1.308,3.487a.748.748,0,0,0,.7.487h6.46a.751.751,0,0,0,.7-.487l1.307-3.487A1.5,1.5,0,0,0,15.749,5.25Z"/><line class="a" x1="8.163" y1="5.25" x2="9.663" y2="1.5"/><line class="a" x1="15.663" y1="5.25" x2="14.163" y2="1.5"/><path class="a" d="M18,.75h2.25a1.5,1.5,0,0,1,1.5,1.5v10.5a1.5,1.5,0,0,1-1.5,1.5H3.75a1.5,1.5,0,0,1-1.5-1.5V2.25A1.5,1.5,0,0,1,3.75.75H6"/><path class="a" d="M20.767,22.318a.751.751,0,0,1-.728.932H3.96a.75.75,0,0,1-.727-.932l1.125-4.5a.749.749,0,0,1,.727-.568H18.914a.751.751,0,0,1,.728.568Z"/><line class="a" x1="6.75" y1="20.25" x2="8.25" y2="20.25"/><line class="a" x1="15.75" y1="20.25" x2="17.25" y2="20.25"/><line class="a" x1="11.25" y1="20.25" x2="12.75" y2="20.25"/><line class="a" x1="10.5" y1="9" x2="10.5" y2="7.5"/><line class="a" x1="13.5" y1="9" x2="13.5" y2="7.5"/></svg>