<svg xmlns="http://www.w3.org/2000/svg" viewBox="0 0 24 24"><defs><style>.a{fill:none;stroke:currentColor;stroke-linecap:round;stroke-linejoin:round;stroke-width:1.5px;}</style></defs><title>e-commerce-apparel-browse</title><path class="a" d="M17.25,12l-.774-3.04a.952.952,0,0,0-.926-.71H13.432a1.432,1.432,0,0,1-2.864,0H8.45a.952.952,0,0,0-.926.71L6.75,12H9v3.75h6V12Z"/><polyline class="a" points="5.25 17.25 3.75 18.75 5.25 20.25"/><line class="a" x1="3.75" y1="18.75" x2="7.5" y2="18.75"/><polyline class="a" points="18.75 17.25 20.25 18.75 18.75 20.25"/><line class="a" x1="20.25" y1="18.75" x2="16.5" y2="18.75"/><path class="a" d="M21.643.75H2.357A1.611,1.611,0,0,0,.75,2.365V21.634A1.611,1.611,0,0,0,2.357,23.25H21.643a1.612,1.612,0,0,0,1.607-1.616V2.365A1.611,1.611,0,0,0,21.643.75Z"/><line class="a" x1="0.75" y1="5.25" x2="23.25" y2="5.25"/></svg>