<svg id="Regular" xmlns="http://www.w3.org/2000/svg" viewBox="0 0 24 24"><defs><style>.cls-1{fill:none;stroke:#000;stroke-linecap:round;stroke-linejoin:round;stroke-width:1.5px;}</style></defs><title>e-commerce-etsy</title><path class="cls-1" d="M5.13,23c1.9-.08,4.45,0,6.69,0s4.69-.15,6.56,0c.76.06,2.1.51,2.72.11.48-.62.12-1.95.23-2.78.2-1.58,1-3.47-1.11-3.87-.9.82-.29,1.35-.81,2.37-.62,1.23-2.84,1.66-4.95,1.82-1.81.14-5,.32-5.64-.91-.55-1-.23-2.41-.23-3.74a7,7,0,0,1,.23-3c2.3.17,5.28-.77,6.9.23,1.09.67.47,1.57,1.73,2,.86-.23.65-1.1.59-2.14,0-.67,0-2.62,0-3.39,0-1,.2-2-.94-2-.9.7-.22,1.46-1.15,2.11a3.55,3.55,0,0,1-1.38.34A25.42,25.42,0,0,1,8.71,9.9a28.23,28.23,0,0,1,0-5.67c.78-.78,2.58-.8,3.8-.8,2.13,0,5.46.19,6.1,1.25.34.58.07,1.55.69,1.69,1.93,0,1.29-1.94,1.34-3a11,11,0,0,0,.23-2.32c-.4-.55-1.65-.27-2-.23-3.91.48-10.11.23-14.28.23-.5,0-1.37-.25-1.73.34C2.59,2.75,4.38,2.7,5,3.41c1,1.1.58,5,.58,8.73S6,19.76,5,20.76c-.78.78-2.86.42-2.65,2.1.73.49,1.78.16,2.76.11"/></svg>