<svg xmlns="http://www.w3.org/2000/svg" viewBox="0 0 24 24"><defs><style>.a{fill:none;stroke:currentColor;stroke-linecap:round;stroke-linejoin:round;stroke-width:1.5px;}</style></defs><title>e-commerce-buy-apparel</title><polygon class="a" points="15.75 16.355 18.401 23.25 19.992 20.598 22.644 19.007 15.75 16.355"/><line class="a" x1="22.644" y1="23.25" x2="19.992" y2="20.598"/><path class="a" d="M17.25,13.5h3L19.089,9.315A1.427,1.427,0,0,0,17.7,8.25H14.523a2.148,2.148,0,0,1-4.3,0H7.05A1.427,1.427,0,0,0,5.661,9.315L4.5,13.5h3v6h5.25"/><path class="a" d="M23.25,15V2.365A1.611,1.611,0,0,0,21.643.75H2.357A1.611,1.611,0,0,0,.75,2.365V21.634A1.611,1.611,0,0,0,2.357,23.25H14.25"/><line class="a" x1="0.75" y1="5.25" x2="23.25" y2="5.25"/></svg>