<svg xmlns="http://www.w3.org/2000/svg" viewBox="0 0 24 24"><defs><style>.a{fill:none;stroke:currentColor;stroke-linecap:round;stroke-linejoin:round;stroke-width:1.5px;}</style></defs><title>e-commerce-cart-monitor</title><polyline class="a" points="16.875 0.75 14.625 8.25 8.625 8.25 7.125 3.75 15.975 3.75"/><path class="a" d="M9,10.5a.375.375,0,1,1-.375.375A.375.375,0,0,1,9,10.5"/><path class="a" d="M14.25,10.5a.375.375,0,1,1-.375.375.375.375,0,0,1,.375-.375"/><line class="a" x1="7.5" y1="23.25" x2="16.5" y2="23.25"/><line class="a" x1="0.75" y1="15" x2="23.25" y2="15"/><path class="a" d="M19.5,3.75h2.25a1.5,1.5,0,0,1,1.5,1.5v12a1.5,1.5,0,0,1-1.5,1.5H2.25a1.5,1.5,0,0,1-1.5-1.5v-12a1.5,1.5,0,0,1,1.5-1.5h1.5"/><line class="a" x1="12" y1="23.25" x2="12" y2="18.75"/></svg>