<svg xmlns="http://www.w3.org/2000/svg" viewBox="0 0 24 24"><defs><style>.a{fill:none;stroke:currentColor;stroke-linecap:round;stroke-linejoin:round;stroke-width:1.5px;}</style></defs><title>e-commerce-basket-browser</title><path class="a" d="M19.5,21.75h2.25a1.5,1.5,0,0,0,1.5-1.5V3.865A1.62,1.62,0,0,0,21.634,2.25H2.357A1.612,1.612,0,0,0,.75,3.857V20.134A1.62,1.62,0,0,0,2.365,21.75H4.5"/><line class="a" x1="0.75" y1="6.75" x2="23.25" y2="6.75"/><path class="a" d="M15.749,15.75H8.078a1.5,1.5,0,0,0-1.4,2.026l1.308,3.487a.748.748,0,0,0,.7.487h6.46a.751.751,0,0,0,.7-.487l1.307-3.487A1.5,1.5,0,0,0,15.749,15.75Z"/><line class="a" x1="8.163" y1="15.75" x2="9.663" y2="12"/><line class="a" x1="15.663" y1="15.75" x2="14.163" y2="12"/><line class="a" x1="10.5" y1="19.5" x2="10.5" y2="18"/><line class="a" x1="13.5" y1="19.5" x2="13.5" y2="18"/></svg>