<svg xmlns="http://www.w3.org/2000/svg" viewBox="0 0 24 24"><defs><style>.a{fill:none;stroke:currentColor;stroke-linecap:round;stroke-linejoin:round;stroke-width:1.5px;}</style></defs><title>e-commerce-shopping-bag-browser</title><path class="a" d="M21.53,13.507H14.478a.748.748,0,0,0-.717.707l-1,8.164a.766.766,0,0,0,.718.872h9.048a.766.766,0,0,0,.718-.872l-1-8.164A.748.748,0,0,0,21.53,13.507Z"/><path class="a" d="M19.844,16.478A1.879,1.879,0,0,1,18,18h0a1.879,1.879,0,0,1-1.839-1.513"/><path class="a" d="M23.25,10.5V2.365A1.611,1.611,0,0,0,21.643.75H2.357A1.611,1.611,0,0,0,.75,2.365V18.634A1.611,1.611,0,0,0,2.357,20.25H9"/><line class="a" x1="0.75" y1="5.25" x2="23.25" y2="5.25"/><path class="a" d="M8.625,9.75H6.592a1.342,1.342,0,0,0-.5,2.587l2.064.825a1.342,1.342,0,0,1-.5,2.588H5.625"/><line class="a" x1="7.125" y1="9.75" x2="7.125" y2="9"/><line class="a" x1="7.125" y1="16.5" x2="7.125" y2="15.75"/></svg>