<svg xmlns="http://www.w3.org/2000/svg" viewBox="0 0 24 24"><defs><style>.a{fill:none;stroke:currentColor;stroke-linecap:round;stroke-linejoin:round;stroke-width:1.5px;}</style></defs><title>e-commerce-apparel-laptop</title><path class="a" d="M20.25,11.25v3a1.5,1.5,0,0,1-1.5,1.5H5.25a1.5,1.5,0,0,1-1.5-1.5V6.75a1.5,1.5,0,0,1,1.5-1.5"/><path class="a" d="M21.748,23.25H2.252A1.5,1.5,0,0,1,.91,21.079l1.836-3.671A3,3,0,0,1,5.429,15.75H18.571a3,3,0,0,1,2.683,1.658l1.836,3.671A1.5,1.5,0,0,1,21.748,23.25Z"/><line class="a" x1="10.5" y1="20.25" x2="13.5" y2="20.25"/><path class="a" d="M10.875,6.337H8.842a1.342,1.342,0,0,0-.5,2.587l2.063.826a1.341,1.341,0,0,1-.5,2.587H7.875"/><line class="a" x1="9.375" y1="6.337" x2="9.375" y2="5.587"/><line class="a" x1="9.375" y1="13.087" x2="9.375" y2="12.337"/><path class="a" d="M23.25,4.5l-.774-3.04A.952.952,0,0,0,21.55.75H19.432a1.432,1.432,0,0,1-2.864,0H14.45a.952.952,0,0,0-.926.71L12.75,4.5H15V8.25h6V4.5Z"/></svg>