<svg xmlns="http://www.w3.org/2000/svg" viewBox="0 0 24 24"><defs><style>.a{fill:none;stroke:currentColor;stroke-linecap:round;stroke-linejoin:round;stroke-width:1.5px;}</style></defs><title>e-commerce-shopping-bag-laptop</title><path class="a" d="M21.53,12.757H14.478a.748.748,0,0,0-.717.707l-1,8.164a.766.766,0,0,0,.718.872h9.048a.766.766,0,0,0,.718-.872l-1-8.164A.748.748,0,0,0,21.53,12.757Z"/><path class="a" d="M19.844,15.728A1.879,1.879,0,0,1,18,17.25h0a1.879,1.879,0,0,1-1.839-1.513"/><path class="a" d="M10.512,12.007,5.25,12a1.5,1.5,0,0,1-1.5-1.5V3a1.5,1.5,0,0,1,1.5-1.5H8.262"/><path class="a" d="M17.262,1.5h2.25a1.5,1.5,0,0,1,1.5,1.5V9.75"/><path class="a" d="M9.762,19.5H2.252A1.5,1.5,0,0,1,.91,17.329l1.836-3.671A3,3,0,0,1,5.429,12l5.083.007"/><line class="a" x1="9" y1="16.5" x2="10.5" y2="16.5"/><path class="a" d="M14.262,2.25H12.229a1.342,1.342,0,0,0-.5,2.587l2.064.825a1.342,1.342,0,0,1-.5,2.588H11.262"/><line class="a" x1="12.762" y1="2.25" x2="12.762" y2="1.5"/><line class="a" x1="12.762" y1="9" x2="12.762" y2="8.25"/></svg>