<svg xmlns="http://www.w3.org/2000/svg" viewBox="0 0 24 24"><defs><style>.a{fill:none;stroke:currentColor;stroke-linecap:round;stroke-linejoin:round;stroke-width:1.5px;}</style></defs><title>e-learning-book-smartphone</title><path class="a" d="M16.5,13.98s.613-1.9,5.864-2.1a.812.812,0,0,1,.886.739v7.8a.808.808,0,0,1-.843.731c-5.285.187-5.907,2.1-5.907,2.1V13.98s-.613-1.9-5.864-2.1a.812.812,0,0,0-.886.739v7.8a.808.808,0,0,0,.843.731c5.285.187,5.907,2.1,5.907,2.1"/><path class="a" d="M6.75,21.751H3.483A2.732,2.732,0,0,1,.75,19.019V3.484A2.733,2.733,0,0,1,3.483.751H9.75a3,3,0,0,1,3,3V9"/><line class="a" x1="0.75" y1="17.251" x2="6.75" y2="17.251"/></svg>