<svg xmlns="http://www.w3.org/2000/svg" viewBox="0 0 24 24"><defs><style>.a{fill:none;stroke:currentColor;stroke-linecap:round;stroke-linejoin:round;stroke-width:1.5px;}</style></defs><title>e-learning-laptop-1</title><polyline class="a" points="15.75 4.126 15.75 8.085 12.75 9.001 9.75 8.085 9.75 4.126"/><polygon class="a" points="18.75 3.001 12.75 0.751 6.75 3.001 12.75 5.251 18.75 3.001"/><line class="a" x1="6.75" y1="3.001" x2="6.75" y2="6.001"/><path class="a" d="M20.25,5.251v9a1.5,1.5,0,0,1-1.5,1.5H5.25a1.5,1.5,0,0,1-1.5-1.5v-9"/><path class="a" d="M21.748,23.251H2.252A1.5,1.5,0,0,1,.91,21.08l1.836-3.67a3,3,0,0,1,2.683-1.659H18.571a3,3,0,0,1,2.683,1.659l1.836,3.67A1.5,1.5,0,0,1,21.748,23.251Z"/><line class="a" x1="10.5" y1="20.251" x2="13.5" y2="20.251"/></svg>