<svg xmlns="http://www.w3.org/2000/svg" viewBox="0 0 24 24"><defs><style>.a{fill:none;stroke:currentColor;stroke-linecap:round;stroke-linejoin:round;stroke-width:1.5px;}</style></defs><title>e-learning-share</title><circle class="a" cx="12" cy="3.736" r="2.25"/><line class="a" x1="7.974" y1="7.369" x2="10.225" y2="5.118"/><circle class="a" cx="6.75" cy="8.236" r="1.5"/><line class="a" x1="16.026" y1="7.369" x2="13.775" y2="5.118"/><circle class="a" cx="17.25" cy="8.236" r="1.5"/><path class="a" d="M3.75,22.5,1.736,19.984A4.5,4.5,0,0,1,.75,17.173V12a1.5,1.5,0,0,1,1.5-1.5h0A1.5,1.5,0,0,1,3.75,12v3.75"/><path class="a" d="M8.25,22.5V19.365a4.5,4.5,0,0,0-.757-2.5L6.351,15.155a1.4,1.4,0,0,0-1.977-.445h0A1.4,1.4,0,0,0,3.9,16.5l1.352,2.25"/><path class="a" d="M20.25,22.5l2.014-2.517a4.5,4.5,0,0,0,.986-2.811V12a1.5,1.5,0,0,0-1.5-1.5h0a1.5,1.5,0,0,0-1.5,1.5v3.75"/><path class="a" d="M15.75,22.5V19.365a4.5,4.5,0,0,1,.757-2.5l1.142-1.712a1.4,1.4,0,0,1,1.977-.445h0A1.4,1.4,0,0,1,20.1,16.5l-1.352,2.25"/></svg>