<svg xmlns="http://www.w3.org/2000/svg" viewBox="0 0 24 24"><defs><style>.a{fill:none;stroke:currentColor;stroke-linecap:round;stroke-linejoin:round;stroke-width:1.5px;}</style></defs><title>e-learning-laptop</title><circle class="a" cx="12" cy="8.001" r="2.25"/><line class="a" x1="7.974" y1="11.635" x2="10.225" y2="9.384"/><circle class="a" cx="6.75" cy="12.501" r="1.5"/><line class="a" x1="16.026" y1="11.635" x2="13.775" y2="9.384"/><circle class="a" cx="17.25" cy="12.501" r="1.5"/><path class="a" d="M2.25,17V4.251a1.5,1.5,0,0,1,1.5-1.5h16.5a1.5,1.5,0,0,1,1.5,1.5V17"/><path class="a" d="M14.584,17a2.976,2.976,0,0,1-5.168,0H.75v1.5a3,3,0,0,0,3,3h16.5a3,3,0,0,0,3-3V17Z"/></svg>