<svg xmlns="http://www.w3.org/2000/svg" viewBox="0 0 24 24"><defs><style>.a{fill:none;stroke:currentColor;stroke-linecap:round;stroke-linejoin:round;stroke-width:1.5px;}</style></defs><title>e-learning-smartphone</title><path class="a" d="M12.75,13.5v6.268A2.732,2.732,0,0,1,10.017,22.5H3.483A2.732,2.732,0,0,1,.75,19.769V4.234A2.733,2.733,0,0,1,3.483,1.5H9"/><line class="a" x1="0.75" y1="16.501" x2="12.75" y2="16.501"/><line class="a" x1="6.75" y1="19.126" x2="6.75" y2="19.126"/><path class="a" d="M7.125,19.5a.375.375,0,0,0-.375-.375"/><path class="a" d="M6.75,19.876a.374.374,0,0,0,.375-.375"/><path class="a" d="M6.375,19.5a.374.374,0,0,0,.375.375"/><path class="a" d="M6.75,19.126a.375.375,0,0,0-.375.375"/><polyline class="a" points="20.25 5.585 20.25 9.77 16.5 10.853 12.75 9.77 12.75 5.585"/><polygon class="a" points="23.25 4.651 16.5 2.27 9.75 4.651 16.5 6.751 23.25 4.651"/><line class="a" x1="9.75" y1="4.651" x2="9.75" y2="8.001"/></svg>