<svg xmlns="http://www.w3.org/2000/svg" viewBox="0 0 24 24"><defs><style>.a{fill:none;stroke:currentColor;stroke-linecap:round;stroke-linejoin:round;stroke-width:1.5px;}</style></defs><title>e-learning-laptop-math</title><path class="a" d="M2.25,15.751V5.251a1.5,1.5,0,0,1,1.5-1.5h16.5a1.5,1.5,0,0,1,1.5,1.5v10.5"/><path class="a" d="M14.584,15.751a2.976,2.976,0,0,1-5.168,0H.75v1.5a3,3,0,0,0,3,3h16.5a3,3,0,0,0,3-3v-1.5Z"/><path class="a" d="M6,8.251a1.5,1.5,0,0,1,1.5-1.5h0A1.5,1.5,0,0,1,9,8.251H9a2.139,2.139,0,0,1-.468,1.336L6,12.751H9"/><path class="a" d="M15.75,6.751h.75a.75.75,0,0,1,.75.75v5.25"/><line class="a" x1="15.75" y1="12.751" x2="18.75" y2="12.751"/><line class="a" x1="11.25" y1="9.751" x2="14.25" y2="9.751"/><line class="a" x1="12.75" y1="8.251" x2="12.75" y2="11.251"/></svg>