<svg xmlns="http://www.w3.org/2000/svg" viewBox="0 0 24 24"><defs><style>.a{fill:none;stroke:currentColor;stroke-linecap:round;stroke-linejoin:round;stroke-width:1.5px;}</style></defs><title>earth-share</title><path class="a" d="M9.651,23A11.251,11.251,0,1,1,22.6,8.223"/><path class="a" d="M7.079,15.75a1.5,1.5,0,0,0,1.455-1.864l-.75-3A1.5,1.5,0,0,0,6.329,9.75H.976A11.246,11.246,0,0,0,4.992,20.792L6,15.75Z"/><path class="a" d="M20.985,5.25H16.921a1.5,1.5,0,0,0-1.455,1.136l-.75,3"/><circle class="a" cx="13.5" cy="18" r="2.25"/><circle class="a" cx="21" cy="21" r="2.25"/><circle class="a" cx="21" cy="13.5" r="2.25"/><line class="a" x1="15.425" y1="16.845" x2="19.075" y2="14.655"/><line class="a" x1="15.588" y1="18.835" x2="18.912" y2="20.165"/></svg>