<svg xmlns="http://www.w3.org/2000/svg" viewBox="0 0 24 24"><defs><style>.a{fill:none;stroke:currentColor;stroke-linecap:round;stroke-linejoin:round;stroke-width:1.5px;}</style></defs><title>earth-warning</title><path class="a" d="M8.238,22.606a11.252,11.252,0,1,1,14.914-9.1"/><path class="a" d="M7.079,15.75a1.5,1.5,0,0,0,1.455-1.864l-.75-3A1.5,1.5,0,0,0,6.329,9.75H.976A11.246,11.246,0,0,0,4.992,20.792L6,15.75Z"/><path class="a" d="M20.985,5.25H16.921a1.5,1.5,0,0,0-1.455,1.136L14.987,8.3"/><path class="a" d="M17.25,20.25a.375.375,0,0,1,.375.375"/><path class="a" d="M16.875,20.625a.375.375,0,0,1,.375-.375"/><path class="a" d="M17.25,21a.375.375,0,0,1-.375-.375"/><path class="a" d="M17.625,20.625A.375.375,0,0,1,17.25,21"/><line class="a" x1="17.25" y1="18" x2="17.25" y2="15"/><path class="a" d="M23.063,20.682a1.774,1.774,0,0,1-1.587,2.568H13.024a1.774,1.774,0,0,1-1.587-2.568l4.226-8.451a1.774,1.774,0,0,1,3.174,0Z"/></svg>