<svg xmlns="http://www.w3.org/2000/svg" viewBox="0 0 24 24"><defs><style>.a{fill:none;stroke:currentColor;stroke-linecap:round;stroke-linejoin:round;stroke-width:1.5px;}</style></defs><title>earth-question</title><path class="a" d="M9.639,23.007A11.251,11.251,0,1,1,23.133,10.461"/><path class="a" d="M7.067,15.753a1.5,1.5,0,0,0,1.455-1.864l-.75-3A1.5,1.5,0,0,0,6.317,9.753H.964A11.244,11.244,0,0,0,4.98,20.794l1.008-5.041Z"/><path class="a" d="M20.973,5.253H16.909a1.5,1.5,0,0,0-1.455,1.136l-.472,1.887"/><circle class="a" cx="17.25" cy="17.25" r="6"/><path class="a" d="M15.375,16.125A1.875,1.875,0,1,1,17.25,18"/><path class="a" d="M17.25,20.25a.375.375,0,0,1,.375.375"/><path class="a" d="M16.875,20.625a.375.375,0,0,1,.375-.375"/><path class="a" d="M17.25,21a.375.375,0,0,1-.375-.375"/><path class="a" d="M17.625,20.625A.375.375,0,0,1,17.25,21"/></svg>