<svg xmlns="http://www.w3.org/2000/svg" viewBox="0 0 24 24"><defs><style>.a{fill:none;stroke:currentColor;stroke-linecap:round;stroke-linejoin:round;stroke-width:1.5px;}</style></defs><title>earth-move</title><circle class="a" cx="12" cy="12" r="6.75"/><polyline class="a" points="10.5 21.75 12 23.25 13.5 21.75"/><polyline class="a" points="2.25 10.5 0.75 12 2.25 13.5"/><polyline class="a" points="13.5 2.25 12 0.75 10.5 2.25"/><polyline class="a" points="21.75 13.5 23.25 12 21.75 10.5"/><line class="a" x1="5.634" y1="14.25" x2="18.366" y2="14.25"/><line class="a" x1="5.634" y1="9.75" x2="18.366" y2="9.75"/><path class="a" d="M10.544,5.407a21.866,21.866,0,0,0,.51,13.277"/><path class="a" d="M13.456,5.407a21.747,21.747,0,0,1,.794,5.843,21.7,21.7,0,0,1-1.3,7.434"/></svg>