<svg xmlns="http://www.w3.org/2000/svg" viewBox="0 0 24 24"><defs><style>.a{fill:none;stroke:currentColor;stroke-linecap:round;stroke-linejoin:round;stroke-width:1.5px;}</style></defs><title>earth-block</title><path class="a" d="M9.651,23a11.251,11.251,0,1,1,13.5-12.5"/><path class="a" d="M7.079,15.75a1.5,1.5,0,0,0,1.455-1.864l-.75-3A1.5,1.5,0,0,0,6.329,9.75H.976A11.246,11.246,0,0,0,4.992,20.792L6,15.75Z"/><path class="a" d="M20.985,5.25H16.921a1.5,1.5,0,0,0-1.455,1.136L14.987,8.3"/><ellipse class="a" cx="17.25" cy="17.25" rx="6.017" ry="5.975" transform="translate(-7.145 17.25) rotate(-45)"/><line class="a" x1="13.008" y1="21.491" x2="21.492" y2="13.008"/></svg>