<svg xmlns="http://www.w3.org/2000/svg" viewBox="0 0 24 24"><defs><style>.a{fill:none;stroke:currentColor;stroke-linecap:round;stroke-linejoin:round;stroke-width:1.5px;}</style></defs><title>earth-sync</title><path class="a" d="M9.651,23A11.251,11.251,0,1,1,22.334,7.547"/><path class="a" d="M7.079,15.75a1.5,1.5,0,0,0,1.455-1.864l-.75-3A1.5,1.5,0,0,0,6.329,9.75H.976A11.246,11.246,0,0,0,4.992,20.792L6,15.75Z"/><path class="a" d="M20.985,5.25H16.921a1.5,1.5,0,0,0-1.455,1.136l-.472,1.89"/><polyline class="a" points="19.5 15.75 23.25 15.75 23.25 11.25"/><path class="a" d="M23.061,15.75a6.013,6.013,0,0,0-7.256-4.331,6,6,0,1,0,6.135,9.574"/></svg>