<svg xmlns="http://www.w3.org/2000/svg" viewBox="0 0 24 24"><defs><style>.a{fill:none;stroke:currentColor;stroke-linecap:round;stroke-linejoin:round;stroke-width:1.5px;}</style></defs><title>earth-star</title><path class="a" d="M17.959,11.677,19.5,15.75h3a.735.735,0,0,1,.518,1.283l-2.6,1.813,1.442,3.313a.785.785,0,0,1-1.119.982L17.252,21.18l-3.487,1.961a.785.785,0,0,1-1.119-.982l1.442-3.313-2.6-1.813A.734.734,0,0,1,12,15.75h3l1.544-4.073A.8.8,0,0,1,17.959,11.677Z"/><path class="a" d="M9.651,23a11.251,11.251,0,1,1,13.6-11"/><path class="a" d="M7.079,15.75a1.5,1.5,0,0,0,1.455-1.864l-.75-3A1.5,1.5,0,0,0,6.329,9.75H.976A11.246,11.246,0,0,0,4.992,20.792L6,15.75Z"/><path class="a" d="M20.985,5.25H16.921a1.5,1.5,0,0,0-1.455,1.136l-.75,3"/></svg>