<svg xmlns="http://www.w3.org/2000/svg" viewBox="0 0 24 24"><defs><style>.a{fill:none;stroke:currentColor;stroke-linecap:round;stroke-linejoin:round;stroke-width:1.5px;}</style></defs><title>earth-heart</title><path class="a" d="M12.711,23.228A11.25,11.25,0,1,1,23.15,10.49"/><path class="a" d="M7.079,15.75a1.5,1.5,0,0,0,1.455-1.864l-.75-3A1.5,1.5,0,0,0,6.329,9.75H.976A11.246,11.246,0,0,0,4.992,20.792L6,15.75Z"/><path class="a" d="M20.985,5.25H16.921a1.5,1.5,0,0,0-1.455,1.136l-.75,3"/><path class="a" d="M22.32,13.579a3,3,0,0,0-4.241.1l-.829.869-.829-.869a3,3,0,0,0-4.342,4.14l5.171,5.43,5.171-5.43A3,3,0,0,0,22.32,13.579Z"/></svg>