<svg xmlns="http://www.w3.org/2000/svg" viewBox="0 0 24 24"><defs><style>.a{fill:none;stroke:currentColor;stroke-linecap:round;stroke-linejoin:round;stroke-width:1.5px;}</style></defs><title>earth-setting</title><path class="a" d="M9.651,23A11.251,11.251,0,1,1,23.024,9.748"/><path class="a" d="M7.079,15.75a1.5,1.5,0,0,0,1.455-1.864l-.75-3A1.5,1.5,0,0,0,6.329,9.75H.976A11.246,11.246,0,0,0,4.992,20.792L6,15.75Z"/><path class="a" d="M20.985,5.25H16.921a1.5,1.5,0,0,0-1.455,1.136l-.276,1.1"/><circle class="a" cx="17.25" cy="16.5" r="1.5"/><path class="a" d="M18.524,10.7l.442,1.453a.994.994,0,0,0,1.174.681l1.472-.341a1.339,1.339,0,0,1,1.275,2.218l-1.031,1.111a1,1,0,0,0,0,1.362l1.031,1.111a1.339,1.339,0,0,1-1.275,2.218l-1.472-.341a.994.994,0,0,0-1.174.681L18.524,22.3a1.33,1.33,0,0,1-2.548,0l-.442-1.453a.994.994,0,0,0-1.174-.681l-1.472.341a1.339,1.339,0,0,1-1.275-2.218l1.031-1.111a1,1,0,0,0,0-1.362l-1.031-1.111a1.339,1.339,0,0,1,1.275-2.218l1.472.341a.994.994,0,0,0,1.174-.681l.442-1.453A1.33,1.33,0,0,1,18.524,10.7Z"/></svg>