<svg xmlns="http://www.w3.org/2000/svg" viewBox="0 0 24 24"><defs><style>.a{fill:none;stroke:currentColor;stroke-linecap:round;stroke-linejoin:round;stroke-width:1.5px;}</style></defs><title>earth-model-2</title><circle class="a" cx="11" cy="9.485" r="7.5"/><path class="a" d="M18.425,2.061A10.5,10.5,0,0,1,3.575,16.91"/><line class="a" x1="19.485" y1="1" x2="18.425" y2="2.061"/><line class="a" x1="3.575" y1="16.91" x2="2.515" y2="17.971"/><line class="a" x1="11" y1="19.985" x2="11" y2="22.985"/><line class="a" x1="5" y1="22.985" x2="17" y2="22.985"/><path class="a" d="M4.124,6.485H5.75a1.5,1.5,0,0,1,1.5,1.5V9.614a1.5,1.5,0,0,0,.439,1.061L8.844,11.83a1.5,1.5,0,0,1,.363,1.535l-.309.926a1.5,1.5,0,0,1-.523.725l-1.216.912"/><path class="a" d="M13.4,2.379c-.407.325-.841.662-1.226.959a1.5,1.5,0,0,0-.285,2.088L12.8,6.635a1.5,1.5,0,0,0,1.2.6h.879a1.5,1.5,0,0,1,1.06.44L17.094,8.83a1.5,1.5,0,0,0,1.4.4"/></svg>