<svg xmlns="http://www.w3.org/2000/svg" viewBox="0 0 24 24"><defs><style>.a{fill:none;stroke:currentColor;stroke-linecap:round;stroke-linejoin:round;stroke-width:1.5px;}</style></defs><title>earth-pin-1</title><path class="a" d="M20.75,9.75a9,9,0,0,0-9.128-9A9.114,9.114,0,0,0,2.766,9.21,9,9,0,0,0,9.95,18.569l1.8,4.681,1.8-4.681A9,9,0,0,0,20.75,9.75Z"/><circle class="a" cx="11.75" cy="9.75" r="6"/><path class="a" d="M6.552,6.751H8a1.5,1.5,0,0,1,1.5,1.5v.7a1.5,1.5,0,0,0,.668,1.248l.958.639a1.4,1.4,0,0,1,0,2.332L8.6,14.854"/><path class="a" d="M16.948,6.751h-.7a1.5,1.5,0,0,0-1.342,2.171c.427.854.525.895.79,1.054l1.9,1.138"/></svg>