<svg xmlns="http://www.w3.org/2000/svg" viewBox="0 0 24 24"><defs><style>.a{fill:none;stroke:currentColor;stroke-linecap:round;stroke-linejoin:round;stroke-width:1.5px;}</style></defs><title>earth-locate</title><path class="a" d="M14.3,23.022A11.255,11.255,0,1,1,23,9.629"/><path class="a" d="M7.079,15.75a1.5,1.5,0,0,0,1.455-1.864l-.75-3A1.5,1.5,0,0,0,6.329,9.75H.976A11.246,11.246,0,0,0,4.992,20.792L6,15.75Z"/><path class="a" d="M23.01,9.692A11.245,11.245,0,0,0,20.985,5.25H16.921a1.5,1.5,0,0,0-1.455,1.136L14.823,8.96"/><path class="a" d="M18.75,15.375a.375.375,0,0,1,.375.375"/><path class="a" d="M18.375,15.75a.375.375,0,0,1,.375-.375"/><path class="a" d="M18.75,16.125a.375.375,0,0,1-.375-.375"/><path class="a" d="M19.125,15.75a.375.375,0,0,1-.375.375"/><path class="a" d="M18.75,11.25a4.5,4.5,0,0,1,4.5,4.5c0,1.921-2.688,5.576-3.909,7.138a.75.75,0,0,1-1.182,0c-1.221-1.561-3.909-5.217-3.909-7.138A4.5,4.5,0,0,1,18.75,11.25Z"/></svg>