<svg xmlns="http://www.w3.org/2000/svg" viewBox="0 0 24 24"><defs><style>.a{fill:none;stroke:currentColor;stroke-linecap:round;stroke-linejoin:round;stroke-width:1.5px;}</style></defs><title>earth-lock</title><path class="a" d="M11.219,23.223a11.25,11.25,0,1,1,11.935-12.7"/><path class="a" d="M7.079,15.75a1.5,1.5,0,0,0,1.455-1.864l-.75-3A1.5,1.5,0,0,0,6.329,9.75H.976A11.246,11.246,0,0,0,4.992,20.792L6,15.75Z"/><path class="a" d="M20.985,5.25H16.921a1.5,1.5,0,0,0-1.455,1.136l-.75,3"/><rect class="a" x="14.25" y="15.75" width="9" height="7.5" rx="1" ry="1"/><path class="a" d="M18.75,11.25h0a3,3,0,0,0-3,3v1.5h6v-1.5A3,3,0,0,0,18.75,11.25Z"/><path class="a" d="M18.75,19.154a.375.375,0,0,1,.375.375"/><path class="a" d="M18.375,19.529a.375.375,0,0,1,.375-.375"/><path class="a" d="M18.75,19.9a.375.375,0,0,1-.375-.375"/><path class="a" d="M19.125,19.529a.375.375,0,0,1-.375.375"/></svg>