<svg id="Regular" xmlns="http://www.w3.org/2000/svg" viewBox="0 0 24 24"><defs><style>.cls-1{fill:none;stroke:currentColor;stroke-linecap:round;stroke-linejoin:round;stroke-width:1.5px;}</style></defs><title>easter-egg-ribbon</title><line class="cls-1" x1="0.75" y1="12.489" x2="8.303" y2="9.157"/><line class="cls-1" x1="1.157" y1="16.439" x2="10.384" y2="12.368"/><path class="cls-1" d="M5.886,18.228a.375.375,0,0,1,.375.375"/><path class="cls-1" d="M5.511,18.6a.375.375,0,0,1,.375-.375"/><path class="cls-1" d="M5.886,18.978a.375.375,0,0,1-.375-.375"/><path class="cls-1" d="M6.261,18.6a.375.375,0,0,1-.375.375"/><path class="cls-1" d="M4.875,6.75a.375.375,0,0,1,.375.375"/><path class="cls-1" d="M4.5,7.125a.375.375,0,0,1,.375-.375"/><path class="cls-1" d="M4.875,7.5A.375.375,0,0,1,4.5,7.125"/><path class="cls-1" d="M5.25,7.125a.375.375,0,0,1-.375.375"/><path class="cls-1" d="M10.125,15.75a.375.375,0,0,1,.375.375"/><path class="cls-1" d="M9.75,16.125a.375.375,0,0,1,.375-.375"/><path class="cls-1" d="M10.125,16.5a.375.375,0,0,1-.375-.375"/><path class="cls-1" d="M10.5,16.125a.375.375,0,0,1-.375.375"/><path class="cls-1" d="M10.875,19.5a.375.375,0,0,1,.375.375"/><path class="cls-1" d="M10.5,19.875a.375.375,0,0,1,.375-.375"/><path class="cls-1" d="M10.875,20.25a.375.375,0,0,1-.375-.375"/><path class="cls-1" d="M11.25,19.875a.375.375,0,0,1-.375.375"/><path class="cls-1" d="M20.188,15.991a7.8,7.8,0,0,1-1.72,3.932A9.75,9.75,0,0,1,10.68,23.25C5.2,23.25.75,19.942.75,13.114S5.2.75,10.68.75a8.891,8.891,0,0,1,6.59,3.114"/><path class="cls-1" d="M14.358,6.382,11.973,5.3a2.928,2.928,0,0,0-2.055-.1h0A2.579,2.579,0,0,0,8.043,8.318l.794,2.559a2.586,2.586,0,0,0,3.328,1.483h0A2.93,2.93,0,0,0,13.8,11.108l.714-1.183"/><circle class="cls-1" cx="15.819" cy="8.094" r="2.25"/><line class="cls-1" x1="13.571" y1="8" x2="11.295" y2="8.701"/><line class="cls-1" x1="17.625" y1="6.751" x2="19.896" y2="6.051"/><path class="cls-1" d="M19.8,9.641,22.758,14.1a.286.286,0,0,1-.266.441L21.065,14.4a.284.284,0,0,0-.3.2l-.354,1.186a.284.284,0,0,1-.5.085l-2.311-3.233a.286.286,0,0,0-.518.159l-.091,3.974a.285.285,0,0,1-.465.214l-.96-.782a.285.285,0,0,0-.364,0l-1.1.922a.285.285,0,0,1-.468-.215l-.07-5.476"/><path class="cls-1" d="M16.04,5.854l1.385-2.237A2.929,2.929,0,0,1,19.07,2.382h0a2.578,2.578,0,0,1,3.3,1.521l.784,2.562a2.587,2.587,0,0,1-1.917,3.1h0a2.921,2.921,0,0,1-2.053-.117l-1.257-.576"/></svg>