<svg id="Regular" xmlns="http://www.w3.org/2000/svg" viewBox="0 0 24 24"><defs><style>.cls-1{fill:none;stroke:currentColor;stroke-linecap:round;stroke-linejoin:round;stroke-width:1.5px;}</style></defs><title>easter-egg-bunny</title><path class="cls-1" d="M19.518,15.817c0,5.007-3.022,7.433-6.75,7.433s-6.75-2.426-6.75-7.433S9.04,6.75,12.768,6.75,19.518,10.809,19.518,15.817Z"/><path class="cls-1" d="M17.526,9.386A14.483,14.483,0,0,0,18.6,6.673c.841-2.938.653-5.569-.421-5.876S15.556,2.622,14.715,5.56c-.136.473-.225,1.011-.308,1.459"/><path class="cls-1" d="M8.3,9.025c-.207-.4-1.014-2.288-1.014-2.288"/><path class="cls-1" d="M8.829,4.855C8.068,6.306,6.913,7.4,5.707,7.035,4.639,6.71,4.183,5.1,4.688,3.438c.8-2.619,4.758-4.183,7.051,3.417"/><path class="cls-1" d="M6.233,13.538a52.651,52.651,0,0,0,11.812-3.376"/><path class="cls-1" d="M7.109,20.269c.242-.043.881-.17,1.122-.215a52.112,52.112,0,0,0,10.44-3.036q.411-.171.817-.35"/><path class="cls-1" d="M10.143,15.75a.375.375,0,0,1,.375.375"/><path class="cls-1" d="M9.768,16.125a.375.375,0,0,1,.375-.375"/><path class="cls-1" d="M10.143,16.5a.375.375,0,0,1-.375-.375"/><path class="cls-1" d="M10.518,16.125a.375.375,0,0,1-.375.375"/><path class="cls-1" d="M15.393,14.25a.375.375,0,0,1,.375.375"/><path class="cls-1" d="M15.018,14.625a.375.375,0,0,1,.375-.375"/><path class="cls-1" d="M15.393,15a.375.375,0,0,1-.375-.375"/><path class="cls-1" d="M15.768,14.625a.375.375,0,0,1-.375.375"/></svg>