<svg id="Regular" xmlns="http://www.w3.org/2000/svg" viewBox="0 0 24 24"><defs><style>.cls-1{fill:none;stroke:currentColor;stroke-linecap:round;stroke-linejoin:round;stroke-width:1.5px;}</style></defs><title>easter-egg-basket</title><path class="cls-1" d="M22.272,10.5H1.728a.978.978,0,0,0-.978.978v.229A9.321,9.321,0,0,0,10.043,21h3.914a9.321,9.321,0,0,0,9.293-9.293v-.229A.978.978,0,0,0,22.272,10.5Z"/><path class="cls-1" d="M.928,13.513C3.078,13.335,2.974,15,4.906,15c1.832,0,1.832-1.5,3.665-1.5S10.4,15,12.237,15s1.834-1.5,3.667-1.5S17.741,15,19.577,15c1.776,0,1.835-1.4,3.5-1.495"/><path class="cls-1" d="M3.939,18.7c2.452.359,2.253-1.453,4.267-1.453,1.833,0,1.833,1.5,3.666,1.5s1.834-1.5,3.667-1.5,1.837,1.5,3.673,1.5a2.435,2.435,0,0,0,1.015-.2"/><path class="cls-1" d="M2.565,10.5c-.255-2.6.821-4.908,2.767-5.53C7.7,4.214,10.462,6.233,11.5,9.482a7.966,7.966,0,0,1,.254,1.018"/><path class="cls-1" d="M12.985,10.5a6.911,6.911,0,0,1,.369-2.478c1.062-3.24,3.839-5.239,6.2-4.464,2.283.749,3.345,3.813,2.455,6.942"/></svg>