<svg id="Regular" xmlns="http://www.w3.org/2000/svg" viewBox="0 0 24 24"><defs><style>.cls-1{fill:none;stroke:currentColor;stroke-linecap:round;stroke-linejoin:round;stroke-width:1.5px;}</style></defs><title>easter-egg</title><path class="cls-1" d="M7.6,20.645c-3.172-.664-5.38-3.338-4.8-7.917.618-4.859,3.943-8.439,7.427-8a5.717,5.717,0,0,1,4.264,3.4"/><path class="cls-1" d="M10.488,9.179c-.27-.019-.542-.045-.816-.08A12.474,12.474,0,0,1,4.829,7.477"/><path class="cls-1" d="M6.919,12.217a10.67,10.67,0,0,1-3.568-1.884"/><path class="cls-1" d="M13.586,22.686c-4.211-1.4-5.435-4.531-4.429-7.55s3.863-4.786,8.074-3.383,6.809,4.99,5.8,8.009S17.8,24.09,13.586,22.686Z"/><line class="cls-1" x1="0.75" y1="5.641" x2="2.217" y2="6.62"/><line class="cls-1" x1="18.359" y1="7.598" x2="21.293" y2="5.641"/><line class="cls-1" x1="4.174" y1="1.565" x2="5.152" y2="3.033"/><line class="cls-1" x1="10.5" y1="0.75" x2="10.5" y2="2.707"/><line class="cls-1" x1="15.913" y1="4.663" x2="17.38" y2="2.217"/><line class="cls-1" x1="20.315" y1="10.533" x2="23.25" y2="10.533"/><path class="cls-1" d="M14.625,18.75a.375.375,0,0,1,.375.375"/><path class="cls-1" d="M14.25,19.125a.375.375,0,0,1,.375-.375"/><path class="cls-1" d="M14.625,19.5a.375.375,0,0,1-.375-.375"/><path class="cls-1" d="M15,19.125a.375.375,0,0,1-.375.375"/><path class="cls-1" d="M16.875,15a.375.375,0,0,1,.375.375"/><path class="cls-1" d="M16.5,15.375A.375.375,0,0,1,16.875,15"/><path class="cls-1" d="M16.875,15.75a.375.375,0,0,1-.375-.375"/><path class="cls-1" d="M17.25,15.375a.375.375,0,0,1-.375.375"/><path class="cls-1" d="M19.875,18.75a.375.375,0,0,1,.375.375"/><path class="cls-1" d="M19.5,19.125a.375.375,0,0,1,.375-.375"/><path class="cls-1" d="M19.875,19.5a.375.375,0,0,1-.375-.375"/><path class="cls-1" d="M20.25,19.125a.375.375,0,0,1-.375.375"/><path class="cls-1" d="M12.375,15.75a.375.375,0,0,1,.375.375"/><path class="cls-1" d="M12,16.125a.375.375,0,0,1,.375-.375"/><path class="cls-1" d="M12.375,16.5A.375.375,0,0,1,12,16.125"/><path class="cls-1" d="M12.75,16.125a.375.375,0,0,1-.375.375"/></svg>