<svg id="Regular" xmlns="http://www.w3.org/2000/svg" viewBox="0 0 24 24"><defs><style>.cls-1{fill:none;stroke:currentColor;stroke-linecap:round;stroke-linejoin:round;stroke-width:1.5px;}</style></defs><title>eat-vending-machine</title><circle class="cls-1" cx="4.5" cy="3.75" r="2.625"/><path class="cls-1" d="M9.75,15.75H12a1.5,1.5,0,0,0,0-3H9.75a1.5,1.5,0,0,1-1.5-1.5,3,3,0,0,0-3-3H3.75a3,3,0,0,0-3,3v4.5a1.5,1.5,0,0,0,1.5,1.5V21a2.25,2.25,0,0,0,4.5,0V15"/><path class="cls-1" d="M11.25,18.75v3a1.5,1.5,0,0,0,1.5,1.5h9a1.5,1.5,0,0,0,1.5-1.5V2.25a1.5,1.5,0,0,0-1.5-1.5h-9a1.5,1.5,0,0,0-1.5,1.5v6"/><rect class="cls-1" x="14.25" y="17.25" width="6" height="3"/><path class="cls-1" d="M14.625,4.5A.375.375,0,1,1,15,4.875a.375.375,0,0,1-.375-.375"/><path class="cls-1" d="M19.125,4.5a.375.375,0,1,1,.375.375.375.375,0,0,1-.375-.375"/><path class="cls-1" d="M14.625,9A.375.375,0,1,1,15,9.375.375.375,0,0,1,14.625,9"/><path class="cls-1" d="M19.125,9a.375.375,0,1,1,.375.375A.375.375,0,0,1,19.125,9"/><path class="cls-1" d="M19.125,13.5a.375.375,0,1,1,.375.375.375.375,0,0,1-.375-.375"/></svg>