<svg id="Regular" xmlns="http://www.w3.org/2000/svg" viewBox="0 0 24 24"><defs><style>.cls-1{fill:none;stroke:currentColor;stroke-linecap:round;stroke-linejoin:round;stroke-width:1.5px;}</style></defs><title>eco-house-sun</title><path class="cls-1" d="M6.334,18.274s1.472,1.5,2.9.881c2.9-1.264,1.384-5.173,2.014-6.94a6.9,6.9,0,0,0-5.928,2.023C4.061,15.626,4.441,17.14,6.334,18.274Z"/><path class="cls-1" d="M7.846,15.75s-1.79.849-2.11,4.5"/><line class="cls-1" x1="20.25" y1="8.25" x2="23.25" y2="8.25"/><line class="cls-1" x1="15.75" y1="3.75" x2="15.75" y2="0.75"/><line class="cls-1" x1="18.932" y1="11.432" x2="21.053" y2="13.553"/><line class="cls-1" x1="18.932" y1="5.068" x2="21.053" y2="2.947"/><path class="cls-1" d="M13.266,4.5A4.5,4.5,0,1,1,18,12.147"/><path class="cls-1" d="M14.25,23.25a1.5,1.5,0,0,0,1.5-1.5V13.371a1.5,1.5,0,0,0-.439-1.06l-6-6a1.5,1.5,0,0,0-2.122,0l-6,6a1.5,1.5,0,0,0-.439,1.06V21.75a1.5,1.5,0,0,0,1.5,1.5Z"/></svg>