<svg id="Regular" xmlns="http://www.w3.org/2000/svg" viewBox="0 0 24 24"><defs><style>.cls-1{fill:none;stroke:currentColor;stroke-linecap:round;stroke-linejoin:round;stroke-width:1.5px;}</style></defs><title>ecology-leaf-book</title><path class="cls-1" d="M9.182,11.754s1.22,2.5,3.27,2.308c4.158-.38,3.88-5.907,5.4-7.859a9.106,9.106,0,0,0-8.265.075C7.433,7.5,7.281,9.548,9.182,11.754Z"/><path class="cls-1" d="M12.123,9.219s-2.7.335-4.623,5.031"/><path class="cls-1" d="M21,23.25H5.25A2.25,2.25,0,0,1,3,21"/><path class="cls-1" d="M6,.75a3,3,0,0,0-3,3V21a2.25,2.25,0,0,1,2.25-2.25H21V.75Z"/><line class="cls-1" x1="19.5" y1="23.25" x2="19.5" y2="18.75"/></svg>