<svg id="Regular" xmlns="http://www.w3.org/2000/svg" viewBox="0 0 24 24"><defs><style>.cls-1{fill:none;stroke:currentColor;stroke-linecap:round;stroke-linejoin:round;stroke-width:1.5px;}</style></defs><title>ecology-globe-nature</title><path class="cls-1" d="M19.526.75,16.572,7.994A.749.749,0,0,0,17.276,9h4.5a.749.749,0,0,0,.705-1.006Z"/><line class="cls-1" x1="19.526" y1="9" x2="19.526" y2="12"/><path class="cls-1" d="M4.526,9,8.469,4.369a.751.751,0,0,1,1.115,0L13.526,9"/><path class="cls-1" d="M22.473,12a.751.751,0,0,1,.749.8,11.251,11.251,0,0,1-22.444,0,.751.751,0,0,1,.748-.8Z"/><path class="cls-1" d="M4.992,20.792,6,15.75H7.079a1.5,1.5,0,0,0,1.455-1.864L8.061,12"/><path class="cls-1" d="M17.875,12l.666,4a1.5,1.5,0,0,0,1.48,1.253h1.925"/></svg>