<svg id="Regular" xmlns="http://www.w3.org/2000/svg" viewBox="0 0 24 24"><defs><style>.cls-1{fill:none;stroke:currentColor;stroke-linecap:round;stroke-linejoin:round;stroke-width:1.5px;}</style></defs><title>ecology-human-mind</title><path class="cls-1" d="M9.452,12.285s1.471,1.5,2.9.881c2.9-1.264,1.384-5.174,2.014-6.94A6.9,6.9,0,0,0,8.44,8.248C7.179,9.637,7.558,11.151,9.452,12.285Z"/><path class="cls-1" d="M10.964,9.76s-1.79.85-2.111,4.5"/><path class="cls-1" d="M15.464,23.25V19.51l1.007.168a3,3,0,0,0,3.493-2.959V14.26l.935-.233a1.5,1.5,0,0,0,.884-2.288L19.964,9.01V8.26C19.964,3.835,15.485.3,10.146.8a8.993,8.993,0,0,0-3.682,16.75v5.7"/></svg>