<svg id="Regular" xmlns="http://www.w3.org/2000/svg" viewBox="0 0 24 24"><defs><style>.cls-1{fill:none;stroke:currentColor;stroke-linecap:round;stroke-linejoin:round;stroke-width:1.5px;}</style></defs><title>ecology-leaf-shield</title><path class="cls-1" d="M8.25,19.415a8.42,8.42,0,0,1-4.806-1.859C1.875,15.987.116,10.424,3.444,7.1c3.8-3.8,15.691-7.132,16.642-6.181.479.479-.128,3.736-1.336,7.335"/><line class="cls-1" x1="7.875" y1="13.125" x2="0.75" y2="20.25"/><path class="cls-1" d="M23.25,15.75a7.669,7.669,0,0,1-6,7.5,7.669,7.669,0,0,1-6-7.5V13.5a1.5,1.5,0,0,1,1.5-1.5h9a1.5,1.5,0,0,1,1.5,1.5Z"/><line class="cls-1" x1="17.25" y1="15" x2="17.25" y2="19.5"/><line class="cls-1" x1="15" y1="17.25" x2="19.5" y2="17.25"/></svg>