<svg id="Regular" xmlns="http://www.w3.org/2000/svg" viewBox="0 0 24 24"><defs><style>.cls-1{fill:none;stroke:currentColor;stroke-linecap:round;stroke-linejoin:round;stroke-width:1.5px;}</style></defs><title>ecology-leaf-book-open</title><path class="cls-1" d="M3.749,4.825c-.377-.082-.764-.153-1.164-.212A1.611,1.611,0,0,0,.75,6.21V17.429a1.6,1.6,0,0,0,1.391,1.587A16.989,16.989,0,0,1,11,22.906a1.633,1.633,0,0,0,2.006,0,16.989,16.989,0,0,1,8.856-3.89,1.6,1.6,0,0,0,1.391-1.587V6.21a1.611,1.611,0,0,0-1.835-1.6q-.6.088-1.166.213"/><line class="cls-1" x1="12" y1="12.75" x2="12" y2="23.247"/><path class="cls-1" d="M9.328,7.254s1.22,2.5,3.271,2.308c4.158-.38,3.88-5.907,5.4-7.859a9.105,9.105,0,0,0-8.265.075C7.58,3,7.427,5.048,9.328,7.254Z"/><path class="cls-1" d="M12.27,4.719s-2.7.335-4.623,5.031"/></svg>