<svg id="Regular" xmlns="http://www.w3.org/2000/svg" viewBox="0 0 24 24"><defs><style>.cls-1{fill:none;stroke:currentColor;stroke-linecap:round;stroke-linejoin:round;stroke-width:1.5px;}</style></defs><title>ecology-plant-deal</title><line class="cls-1" x1="19.333" y1="19.453" x2="14.052" y2="20.509"/><path class="cls-1" d="M14.667,14.583,12.2,15.6a1.6,1.6,0,0,1-1.31-2.916l2.471-1.2a2.213,2.213,0,0,1,1.744-.1l4.51,1.726"/><path class="cls-1" d="M4.667,20.583H6.531l3.107,2.362a.911.911,0,0,0,1.258.1L15.557,19.3a.911.911,0,0,0,.14-1.266l-2.562-2.823"/><path class="cls-1" d="M4.667,13.917,8.46,12.3a1.957,1.957,0,0,1,1.887.241l.325.267"/><path class="cls-1" d="M1.333,21.917h2a1.334,1.334,0,0,0,1.334-1.334V13.917a1.334,1.334,0,0,0-1.334-1.334h-2"/><path class="cls-1" d="M22.667,21.917h-2a1.334,1.334,0,0,1-1.334-1.334V13.917a1.334,1.334,0,0,1,1.334-1.334h2"/><path class="cls-1" d="M9.89,6.658S8.682,8.726,6.93,8.434c-3.551-.592-2.96-5.328-4.143-7.1a7.85,7.85,0,0,1,7.1.592C11.666,3.106,11.666,4.882,9.89,6.658Z"/><path class="cls-1" d="M15.15,7.1s.839,1.436,2.056,1.233c2.466-.411,2.055-3.7,2.877-4.933a5.453,5.453,0,0,0-4.933.411C13.917,4.636,13.917,5.87,15.15,7.1Z"/><path class="cls-1" d="M7.522,3.75s3.648,2.587,4.24,8.506a15.858,15.858,0,0,1,3.255-5.291"/></svg>