<svg id="Regular" xmlns="http://www.w3.org/2000/svg" viewBox="0 0 24 24"><defs><style>.cls-1{fill:none;stroke:currentColor;stroke-linecap:round;stroke-linejoin:round;stroke-width:1.5px;}</style></defs><title>ecology-globe-hand</title><line class="cls-1" x1="0.75" y1="14.25" x2="0.75" y2="23.25"/><path class="cls-1" d="M15.75,21.75a3,3,0,0,0-3-3H9a3,3,0,0,0-3-3H.75v6Z"/><line class="cls-1" x1="6" y1="18.75" x2="9" y2="18.75"/><circle class="cls-1" cx="15.75" cy="8.25" r="7.5"/><path class="cls-1" d="M11.644,1.974l4.188,2.831A1.5,1.5,0,0,1,16.5,6.053V7.77a1.5,1.5,0,0,1-1.206,1.471L12.75,9.75l.544,2.176a1.5,1.5,0,0,1-.4,1.425l-1.255,1.176"/><path class="cls-1" d="M23.212,9.013l-3.206,1.068a1.5,1.5,0,0,0-1,1.717l.592,2.888"/></svg>