<svg id="Regular" xmlns="http://www.w3.org/2000/svg" viewBox="0 0 24 24"><defs><style>.cls-1{fill:none;stroke:currentColor;stroke-linecap:round;stroke-linejoin:round;stroke-width:1.5px;}</style></defs><title>ecology-human-mind-flower</title><path class="cls-1" d="M15.464,23.255v-3.75l1.006.168a3,3,0,0,0,3.494-2.959V14.255l.935-.233a1.5,1.5,0,0,0,.884-2.288L19.964,9.005v-.75C19.964,3.83,15.485.3,10.146.791a8.993,8.993,0,0,0-3.682,16.75v5.714"/><path class="cls-1" d="M16.214,8.642a2.012,2.012,0,0,0-1.95-2.068,1.847,1.847,0,0,0-1,.3,2.16,2.16,0,0,0,.029-.3,2.012,2.012,0,0,0-1.95-2.069,2.012,2.012,0,0,0-1.95,2.069,2.16,2.16,0,0,0,.029.3,1.847,1.847,0,0,0-1-.3,2.012,2.012,0,0,0-1.95,2.068,2.012,2.012,0,0,0,1.9,2.063,2.1,2.1,0,0,0-.679,1.557,2.012,2.012,0,0,0,1.95,2.068,1.931,1.931,0,0,0,1.706-1.086,1.929,1.929,0,0,0,1.706,1.086A2.012,2.012,0,0,0,15,12.262a2.1,2.1,0,0,0-.679-1.557A2.013,2.013,0,0,0,16.214,8.642Z"/><path class="cls-1" d="M11.632,9.184a.375.375,0,0,1-.059.527"/><path class="cls-1" d="M11.105,9.124a.375.375,0,0,1,.527.06"/><path class="cls-1" d="M11.046,9.651a.375.375,0,0,1,.059-.527"/><path class="cls-1" d="M11.573,9.711a.375.375,0,0,1-.527-.06"/></svg>