<svg id="Regular" xmlns="http://www.w3.org/2000/svg" viewBox="0 0 24 24"><defs><style>.cls-1{fill:none;stroke:currentColor;stroke-linecap:round;stroke-linejoin:round;stroke-width:1.5px;}</style></defs><title>ecology-leaf-bulb-alternate</title><path class="cls-1" d="M14.069,20.754s1.219,2.495,3.27,2.307c4.158-.38,3.88-5.907,5.4-7.859a9.1,9.1,0,0,0-8.265.076C12.32,16.494,12.167,18.548,14.069,20.754Z"/><path class="cls-1" d="M17.01,18.219s-2.7.334-4.623,5.03"/><line class="cls-1" x1="6.51" y1="21.75" x2="10.26" y2="21.75"/><line class="cls-1" x1="9.51" y1="23.25" x2="9.51" y2="21.75"/><polyline class="cls-1" points="7.26 12 9.51 14.25 9.51 18.75"/><line class="cls-1" x1="9.51" y1="14.25" x2="11.76" y2="12"/><path class="cls-1" d="M17.449,11.25A8.251,8.251,0,1,0,6.51,16.687V18.75h3"/></svg>