<svg id="Regular" xmlns="http://www.w3.org/2000/svg" viewBox="0 0 24 24"><defs><style>.cls-1{fill:none;stroke:currentColor;stroke-linecap:round;stroke-linejoin:round;stroke-width:1.5px;}</style></defs><title>ecology-globe-house</title><path class="cls-1" d="M22.473,12a.751.751,0,0,1,.749.8,11.251,11.251,0,0,1-22.444,0,.751.751,0,0,1,.748-.8Z"/><path class="cls-1" d="M4.992,20.792,6,15.75H7.079a1.5,1.5,0,0,0,1.455-1.864L8.061,12"/><path class="cls-1" d="M17.875,12l.666,4a1.5,1.5,0,0,0,1.48,1.253h1.925"/><line class="cls-1" x1="17.25" y1="12" x2="17.25" y2="4.957"/><line class="cls-1" x1="6.75" y1="4.957" x2="6.75" y2="12"/><path class="cls-1" d="M19.5,6.982,13,1.135a1.5,1.5,0,0,0-2.007,0L4.5,6.982"/><line class="cls-1" x1="18" y1="5.632" x2="18" y2="1.5"/><path class="cls-1" d="M9.75,12V9.75a2.25,2.25,0,0,1,4.5,0V12"/></svg>