<svg id="Regular" xmlns="http://www.w3.org/2000/svg" viewBox="0 0 24 24"><defs><style>.cls-1{fill:none;stroke:currentColor;stroke-linecap:round;stroke-linejoin:round;stroke-width:1.5px;}</style></defs><title>ecology-globe-message-1</title><path class="cls-1" d="M12.75.75A10.485,10.485,0,0,0,3.833,16.775L.75,23.25l6.475-3.084A10.5,10.5,0,1,0,12.75.75Z"/><circle class="cls-1" cx="12.75" cy="11.25" r="6"/><path class="cls-1" d="M7.552,8.251H9a1.5,1.5,0,0,1,1.5,1.5v.7a1.5,1.5,0,0,0,.668,1.248l.958.639a1.4,1.4,0,0,1,0,2.332L9.6,16.354"/><path class="cls-1" d="M17.948,8.251h-.7a1.5,1.5,0,0,0-1.342,2.171c.427.854.525.895.79,1.054l1.9,1.138"/></svg>