<svg xmlns="http://www.w3.org/2000/svg" viewBox="0 0 24 24"><defs><style>.a{fill:none;stroke:currentColor;stroke-linecap:round;stroke-linejoin:round;stroke-width:1.5px;}</style></defs><title>educative-toys-maths</title><rect class="a" x="0.75" y="0.75" width="22.5" height="22.5" rx="1.5" ry="1.5"/><circle class="a" cx="17.238" cy="17.25" r="3"/><polygon class="a" points="3.75 20.25 6.75 14.25 9.75 20.25 3.75 20.25"/><rect class="a" x="3.75" y="4.5" width="6" height="6"/><path class="a" d="M17.267,3.992l.867,2.289h1.687A.414.414,0,0,1,20.113,7L18.648,8.024l.812,1.864a.442.442,0,0,1-.63.552l-1.961-1.1-1.961,1.1a.442.442,0,0,1-.63-.552l.812-1.864L13.625,7a.413.413,0,0,1,.29-.722H15.6l.868-2.289A.448.448,0,0,1,17.267,3.992Z"/></svg>