<svg xmlns="http://www.w3.org/2000/svg" viewBox="0 0 24 24"><defs><style>.a{fill:none;stroke:currentColor;stroke-linecap:round;stroke-linejoin:round;stroke-width:1.5px;}</style></defs><title>educative-toys-house</title><path class="a" d="M3.75,16.5V12.75a1.5,1.5,0,0,1,1.5-1.5h13.5a1.5,1.5,0,0,1,1.5,1.5V16.5"/><path class="a" d="M9,23.25V19.5a3,3,0,0,1,6,0v3.75"/><path class="a" d="M9,19.5H1.5a.75.75,0,0,0-.75.75V22.5a.75.75,0,0,0,.75.75H9"/><path class="a" d="M15,19.5h7.5a.75.75,0,0,1,.75.75V22.5a.75.75,0,0,1-.75.75H15"/><line class="a" x1="8.25" y1="6.75" x2="8.25" y2="11.25"/><line class="a" x1="15.75" y1="6.75" x2="15.75" y2="11.25"/><path class="a" d="M7,5.439A.75.75,0,0,0,7.5,6.75h9A.75.75,0,0,0,17,5.439L12,.75Z"/></svg>