<svg xmlns="http://www.w3.org/2000/svg" viewBox="0 0 24 24"><defs><style>.a{fill:none;stroke:currentColor;stroke-linecap:round;stroke-linejoin:round;stroke-width:1.5px;}</style></defs><title>educative-toys-counting-2</title><path class="a" d="M6.75,11.25a3,3,0,0,1,0-6h10.5a3,3,0,0,1,0,6"/><path class="a" d="M5.25,17.25a3,3,0,0,1,0-6h13.5a3,3,0,0,1,0,6"/><path class="a" d="M23.25,20.25a3,3,0,0,1-3,3H3.75a3,3,0,0,1,0-6h16.5A3,3,0,0,1,23.25,20.25Z"/><path class="a" d="M9.75,5.25V1.5A.75.75,0,0,1,10.5.75h3a.75.75,0,0,1,.75.75V5.25"/></svg>