<svg xmlns="http://www.w3.org/2000/svg" viewBox="0 0 24 24"><defs><style>.a{fill:none;stroke:currentColor;stroke-linecap:round;stroke-linejoin:round;stroke-width:1.5px;}</style></defs><title>educative-toys-music</title><path class="a" d="M4.125,19.5a.375.375,0,0,1,.375.375"/><path class="a" d="M3.75,19.875a.375.375,0,0,1,.375-.375"/><path class="a" d="M4.125,20.25a.375.375,0,0,1-.375-.375"/><path class="a" d="M4.5,19.875a.375.375,0,0,1-.375.375"/><path class="a" d="M15.375,19.5a.375.375,0,0,1,.375.375"/><path class="a" d="M15,19.875a.375.375,0,0,1,.375-.375"/><path class="a" d="M15.375,20.25A.375.375,0,0,1,15,19.875"/><path class="a" d="M15.75,19.875a.375.375,0,0,1-.375.375"/><path class="a" d="M4.125,12.75a.375.375,0,0,1,.375.375"/><path class="a" d="M3.75,13.125a.375.375,0,0,1,.375-.375"/><path class="a" d="M4.125,13.5a.375.375,0,0,1-.375-.375"/><path class="a" d="M4.5,13.125a.375.375,0,0,1-.375.375"/><path class="a" d="M15.375,12.75a.375.375,0,0,1,.375.375"/><path class="a" d="M15,13.125a.375.375,0,0,1,.375-.375"/><path class="a" d="M15.375,13.5A.375.375,0,0,1,15,13.125"/><path class="a" d="M15.75,13.125a.375.375,0,0,1-.375.375"/><path class="a" d="M4.125,6a.375.375,0,0,1,.375.375"/><path class="a" d="M3.75,6.375A.375.375,0,0,1,4.125,6"/><path class="a" d="M4.125,6.75a.375.375,0,0,1-.375-.375"/><path class="a" d="M4.5,6.375a.375.375,0,0,1-.375.375"/><path class="a" d="M17.25,16.5a1.5,1.5,0,0,1,1.5,1.5v3.75a1.5,1.5,0,0,1-1.5,1.5h-15a1.5,1.5,0,0,1-1.5-1.5V18a1.5,1.5,0,0,1,1.5-1.5h15"/><path class="a" d="M2.25,16.5A1.5,1.5,0,0,1,.75,15V11.25a1.5,1.5,0,0,1,1.5-1.5h13.5"/><path class="a" d="M15.75,9.75H2.25a1.5,1.5,0,0,1-1.5-1.5V4.5A1.5,1.5,0,0,1,2.25,3h9"/><line class="a" x1="23.25" y1="23.25" x2="18.142" y2="6.774"/><circle class="a" cx="17.254" cy="3.908" r="3"/></svg>