<svg xmlns="http://www.w3.org/2000/svg" viewBox="0 0 24 24"><defs><style>.a{fill:none;stroke:currentColor;stroke-linecap:round;stroke-linejoin:round;stroke-width:1.5px;}</style></defs><title>electricity-tower</title><rect class="a" x="7.97" y="0.75" width="7.5" height="12"/><path class="a" d="M15.47.75l5.36,5.36a.375.375,0,0,1-.266.64H15.47"/><path class="a" d="M15.47,6.75l5.36,5.36a.375.375,0,0,1-.266.64H15.47"/><path class="a" d="M7.97,6.75H2.875a.375.375,0,0,1-.265-.64L7.97.75"/><path class="a" d="M7.97,6.75,2.61,12.11a.375.375,0,0,0,.265.64h5.1"/><line class="a" x1="15.47" y1="12.75" x2="7.97" y2="0.75"/><line class="a" x1="7.97" y1="12.75" x2="15.47" y2="0.75"/><line class="a" x1="3.47" y1="23.25" x2="7.97" y2="12.75"/><line class="a" x1="19.97" y1="23.25" x2="15.47" y2="12.75"/><line class="a" x1="7.308" y1="14.294" x2="18.538" y2="19.909"/><line class="a" x1="16.131" y1="14.294" x2="4.901" y2="19.909"/></svg>