<svg xmlns="http://www.w3.org/2000/svg" viewBox="0 0 24 24"><defs><style>.a{fill:none;stroke:currentColor;stroke-linecap:round;stroke-linejoin:round;stroke-width:1.5px;}</style></defs><title>electricity-tower-1</title><line class="a" x1="0.75" y1="23.25" x2="23.25" y2="23.25"/><rect class="a" x="9.75" y="2.25" width="4.5" height="21"/><line class="a" x1="9.75" y1="6.75" x2="14.25" y2="6.75"/><line class="a" x1="9.75" y1="11.25" x2="14.25" y2="11.25"/><line class="a" x1="9.75" y1="15.75" x2="14.25" y2="15.75"/><line class="a" x1="5.25" y1="2.25" x2="9.75" y2="2.25"/><line class="a" x1="5.25" y1="6.75" x2="9.75" y2="6.75"/><path class="a" d="M9.75,11.25H8.871a1.5,1.5,0,0,0-1.06.439L4.39,15.11a.375.375,0,0,0,.265.64h5.1"/><line class="a" x1="18.75" y1="2.25" x2="14.25" y2="2.25"/><line class="a" x1="18.75" y1="6.75" x2="14.25" y2="6.75"/><path class="a" d="M14.25,11.25h.879a1.5,1.5,0,0,1,1.06.439L19.61,15.11a.375.375,0,0,1-.265.64H14.25"/></svg>