<svg id="Regular" xmlns="http://www.w3.org/2000/svg" viewBox="0 0 24 24"><defs><style>.cls-1{fill:none;stroke:currentColor;stroke-linecap:round;stroke-linejoin:round;stroke-width:1.5px;}</style></defs><title>elephant-mother</title><path class="cls-1" d="M3,15.75A2.2,2.2,0,0,1,.75,13.5V5.533A4.691,4.691,0,0,1,5.529.759,4.487,4.487,0,0,1,8.376,2.021,4.329,4.329,0,0,1,11.25.75h1.581a1.5,1.5,0,0,1,1.5,1.46c.033,2.029-.225,5.513-2.331,6.04-2.373.593-2.863-.213-2.967-.58"/><path class="cls-1" d="M14.25,3.75h6c2.25,0,3,2.25,3,3.75v3.75"/><path class="cls-1" d="M6.75,23.25v-9a4,4,0,0,0-3-3.75"/><path class="cls-1" d="M15.7,17.021a2.355,2.355,0,0,0,2.3.229c1.5-.75,1.5-3,1.5-3.75S19.5,12,18,12a4.222,4.222,0,0,0-2.328.94A2.994,2.994,0,0,0,10.5,15v5.25a1.469,1.469,0,0,0,1.5,1.5"/><polyline class="cls-1" points="15 23.25 15 20.25 23.25 20.25"/><line class="cls-1" x1="19.5" y1="14.25" x2="23.25" y2="14.25"/><path class="cls-1" d="M13.5,18.75a1.469,1.469,0,0,1,1.5,1.5"/><circle class="cls-1" cx="4.875" cy="4.875" r="0.375"/></svg>