<svg id="Regular" xmlns="http://www.w3.org/2000/svg" viewBox="0 0 24 24"><defs><style>.cls-1{fill:none;stroke:currentColor;stroke-linecap:round;stroke-linejoin:round;stroke-width:1.5px;}</style></defs><title>elephant-head</title><path class="cls-1" d="M18.125,12a3.029,3.029,0,0,0,3.75,2.25C19.14,17.9,15.3,16,14.386,13.955"/><path class="cls-1" d="M6.125,12a3.029,3.029,0,0,1-3.75,2.25c2.727,3.636,6.555,1.764,7.48-.276"/><path class="cls-1" d="M16.368,2.507l.257-.257a5.738,5.738,0,0,1,3.75-1.5c5.5,0,1.562,8.594.75,9"/><path class="cls-1" d="M7.882,2.507,7.625,2.25A5.738,5.738,0,0,0,3.875.75c-5.5,0-1.562,8.594-.75,9"/><circle class="cls-1" cx="9.5" cy="7.125" r="0.375"/><circle class="cls-1" cx="14.75" cy="7.125" r="0.375"/><path class="cls-1" d="M15.764,12.456a1.959,1.959,0,0,0-1.389,1.794v6"/><path class="cls-1" d="M6.125,12V6.75a6,6,0,0,1,12,0V12"/><path class="cls-1" d="M14.375,18s.75,1.5,3.75,1.5a4.218,4.218,0,0,1-4.5,3.75c-3,0-3.75-3-3.75-4.5v-4.5a1.958,1.958,0,0,0-1.388-1.794"/></svg>