<svg id="Regular" xmlns="http://www.w3.org/2000/svg" viewBox="0 0 24 24"><defs><style>.cls-1{fill:none;stroke:currentColor;stroke-linecap:round;stroke-linejoin:round;stroke-width:1.5px;}</style></defs><title>elephant-head-1</title><path class="cls-1" d="M17.2,14.98v1.27c0,3,3,3,3.75.75a29.9,29.9,0,0,1,2.25,3s-.75,2.25-4.5,2.25a5,5,0,0,1-5.158-4.26"/><path class="cls-1" d="M7.45,13.25s-.75,1.5-3,.75C.287,12.613-.567,1.25,4.45,1.25a5.237,5.237,0,0,1,3,1.5A15.258,15.258,0,0,1,11.2,2a6,6,0,0,1,6,6V9.594"/><path class="cls-1" d="M11.95,11.375,23.2,13.25s-6.75,3-11.25,1.5"/><path class="cls-1" d="M11.575,6.5a.375.375,0,0,1,.375.375"/><path class="cls-1" d="M11.2,6.875a.374.374,0,0,1,.375-.375"/><path class="cls-1" d="M11.575,7.25a.374.374,0,0,1-.375-.375"/><path class="cls-1" d="M11.95,6.875a.375.375,0,0,1-.375.375"/></svg>