<svg id="Regular" xmlns="http://www.w3.org/2000/svg" viewBox="0 0 24 24"><defs><style>.cls-1{fill:none;stroke:currentColor;stroke-linecap:round;stroke-linejoin:round;stroke-width:1.5px;}</style></defs><title>elephant-draw</title><path class="cls-1" d="M5.887,9.75c-1.137,2.454-1.152,5.485.863,7.5,1.5-2.25,3.75-4.5,6-4.5a16.222,16.222,0,0,1,4.373.71"/><path class="cls-1" d="M8.3,23.25s-8.25-.75-7.5-9A11.531,11.531,0,0,1,2.366,9"/><path class="cls-1" d="M15,15s3.75-3,5.25-3,3,2.25,3,4.5-2.25,6-4.5,6-3-.75-3-.75"/><line class="cls-1" x1="5.773" y1="5.615" x2="9.798" y2="11.25"/><path class="cls-1" d="M4.816,2.581c.91.5,2.492,1.831.471,3.506a1.874,1.874,0,0,1-2.64-.247A3.951,3.951,0,0,1,2.324.75C3.281,1.905,3.042,1.616,4.816,2.581Z"/><path class="cls-1" d="M12,9.75V2.25A1.5,1.5,0,0,1,13.5.75h8.25a1.5,1.5,0,0,1,1.5,1.5v7.5"/><path class="cls-1" d="M15,8.25l1.4-1.995a1.5,1.5,0,0,1,2.458,0l1.4,2Z"/><circle class="cls-1" cx="19.875" cy="3.375" r="0.375"/><circle class="cls-1" cx="11.673" cy="17.625" r="0.375"/></svg>