<svg id="Regular" xmlns="http://www.w3.org/2000/svg" viewBox="0 0 24 24"><defs><style>.cls-1{fill:none;stroke:currentColor;stroke-linecap:round;stroke-linejoin:round;stroke-width:1.5px;}</style></defs><title>elephant-water</title><path class="cls-1" d="M.849,19.75c1.5,0,2.25,1.5,3.75,1.5s2.25-1.5,3.75-1.5,2.25,1.5,3.75,1.5,2.25-1.5,3.75-1.5,2.25,1.5,3.75,1.5,2.15-1.5,3.65-1.5"/><path class="cls-1" d="M3.849,17.5s-3.75-.75-3-6.75a8.438,8.438,0,0,1,6.8-7.425.749.749,0,0,1,.863.555l.385,1.542a.751.751,0,0,1-.567.914A4.907,4.907,0,0,0,4.6,10.75c3-1.5,6-1.5,6.75,0,1.5-.75,3.75-1.5,4.5,0s.75,6.75-2.25,6"/><path class="cls-1" d="M15.849,10.75h3c3,0,4.4,2.25,4.4,5.25"/><circle class="cls-1" cx="8.724" cy="13.375" r="0.375"/><path class="cls-1" d="M12.1,3.879a5.625,5.625,0,0,1,4.5-2.25c3,0,3.75,3,1.5,3.75S14.349,3.129,12.1,3.879Z"/></svg>