<svg xmlns="http://www.w3.org/2000/svg" viewBox="0 0 24 24"><defs><style>.a{fill:none;stroke:currentColor;stroke-linecap:round;stroke-linejoin:round;stroke-width:1.5px;}</style></defs><title>engagement-ring-1</title><path class="a" d="M11.635,15l-6-5.25L8.41,6.282A.75.75,0,0,1,9,6h5.279a.752.752,0,0,1,.586.282L17.635,9.75Z"/><line class="a" x1="11.635" y1="3" x2="11.635" y2="0.75"/><line class="a" x1="19.06" y1="6.075" x2="20.651" y2="4.484"/><line class="a" x1="4.211" y1="6.075" x2="2.62" y2="4.484"/><line class="a" x1="5.635" y1="9.75" x2="17.635" y2="9.75"/><line class="a" x1="11.635" y1="6" x2="11.635" y2="15"/><path class="a" d="M2,23.25a9.752,9.752,0,0,1,19.271,0"/><path class="a" d="M5.824,23.25a6,6,0,0,1,11.622,0"/></svg>