<svg xmlns="http://www.w3.org/2000/svg" viewBox="0 0 24 24"><defs><style>.a{fill:none;stroke:currentColor;stroke-linecap:round;stroke-linejoin:round;stroke-width:1.5px;}</style></defs><title>equipment-cement-cart</title><circle class="a" cx="6.75" cy="18" r="3"/><path class="a" d="M4.518,16,.954,11.256A1.5,1.5,0,0,1,2.25,9H18a1.5,1.5,0,0,1,1.248,2.332l-6.056,6.215A1.5,1.5,0,0,1,12.117,18H9.75"/><path class="a" d="M18.75,11.843V18a1.5,1.5,0,0,1-2.561,1.061l-2.6-1.927"/><line class="a" x1="19.367" y1="9.883" x2="23.25" y2="6"/><path class="a" d="M16.833,9a2.517,2.517,0,0,0,.089-.665,2.63,2.63,0,0,0-3.11-2.623,4.649,4.649,0,0,0-8.452,0A2.63,2.63,0,0,0,2.25,8.335,2.909,2.909,0,0,0,2.327,9"/></svg>