<svg xmlns="http://www.w3.org/2000/svg" viewBox="0 0 24 24"><defs><style>.a{fill:none;stroke:currentColor;stroke-linecap:round;stroke-linejoin:round;stroke-width:1.5px;}</style></defs><title>equipment-cement</title><line class="a" x1="12.75" y1="18.75" x2="11.25" y2="18.75"/><path class="a" d="M20.122,18.75h.128a3,3,0,0,0,3-3v-6H.75v6a3,3,0,0,0,3,3h.128"/><circle class="a" cx="6" cy="19.5" r="2.25"/><circle class="a" cx="18" cy="19.5" r="2.25"/><path class="a" d="M21.334,9.75a2.968,2.968,0,0,0,.416-1.5,2.987,2.987,0,0,0-4.789-2.395,5.216,5.216,0,0,0-9.922,0A2.984,2.984,0,0,0,2.666,9.75"/></svg>