<svg xmlns="http://www.w3.org/2000/svg" viewBox="0 0 24 24"><defs><style>.a{fill:none;stroke:currentColor;stroke-linecap:round;stroke-linejoin:round;stroke-width:1.5px;}</style></defs><title>escalator-descend-person</title><path class="a" d="M7.5,22.688H3a2.25,2.25,0,0,1,0-4.5H6.568l8.341-8.341A2.251,2.251,0,0,1,16.5,9.188H21a2.25,2.25,0,0,1,0,4.5H17.432L9.091,22.029A2.255,2.255,0,0,1,7.5,22.688Z"/><polyline class="a" points="21.75 22.688 17.25 22.688 17.25 18.188"/><line class="a" x1="17.25" y1="22.688" x2="23.25" y2="16.688"/><circle class="a" cx="9" cy="3.563" r="2.25"/><path class="a" d="M6.75,13.688v-4.5a2.25,2.25,0,1,1,4.5,0"/></svg>