<svg xmlns="http://www.w3.org/2000/svg" viewBox="0 0 24 24"><defs><style>.a{fill:none;stroke:currentColor;stroke-linecap:round;stroke-linejoin:round;stroke-width:1.5px;}</style></defs><title>escalator-people</title><path class="a" d="M8.25,23.25H3.75a3,3,0,0,1,0-6H7.008l7.371-7.371A3,3,0,0,1,16.5,9h3.75a3,3,0,0,1,0,6H17.742l-7.371,7.371A3,3,0,0,1,8.25,23.25Z"/><path class="a" d="M6.75,13.5a2.25,2.25,0,0,0-4.5,0v.75"/><circle class="a" cx="4.5" cy="7.5" r="2.25"/><circle class="a" cx="12" cy="3" r="2.25"/><path class="a" d="M9.75,11.25V9A2.25,2.25,0,0,1,12,6.75"/><circle class="a" cx="19.5" cy="3" r="2.25"/></svg>