<svg xmlns="http://www.w3.org/2000/svg" viewBox="0 0 24 24"><defs><style>.a{fill:none;stroke:currentColor;stroke-linecap:round;stroke-linejoin:round;stroke-width:1.5px;}</style></defs><title>escalator-ascend-person</title><path class="a" d="M7.5,22.313H3a2.25,2.25,0,0,1,0-4.5H6.568l8.341-8.341A2.251,2.251,0,0,1,16.5,8.813H21a2.25,2.25,0,0,1,0,4.5H17.432L9.091,21.654A2.255,2.255,0,0,1,7.5,22.313Z"/><polyline class="a" points="18.75 16.313 23.25 16.313 23.25 20.813"/><line class="a" x1="23.25" y1="16.313" x2="17.25" y2="22.313"/><circle class="a" cx="9" cy="3.938" r="2.25"/><path class="a" d="M6.75,13.313V9.563a2.25,2.25,0,1,1,4.5,0"/></svg>