<svg id="Regular" xmlns="http://www.w3.org/2000/svg" viewBox="0 0 24 24"><defs><style>.cls-1{fill:none;stroke:currentColor;stroke-linecap:round;stroke-linejoin:round;stroke-width:1.5px;}</style></defs><title>exotic-food-rolls</title><path class="cls-1" d="M23.25,17.081c0,2.485-5.037,4.5-11.25,4.5S.75,19.566.75,17.081"/><circle class="cls-1" cx="13.809" cy="14.097" r="3"/><path class="cls-1" d="M14.67,11.223,4.612,8.208a3,3,0,0,0-1.723,5.748l10.058,3.015"/><path class="cls-1" d="M10.36,9.931C8.923,9.5,5.188,11.513,4.326,14.386"/><circle class="cls-1" cx="15.821" cy="8.435" r="3"/><path class="cls-1" d="M16.682,5.561,6.624,2.546A3,3,0,1,0,4.9,8.293l10.057,3.015"/><path class="cls-1" d="M12.372,4.269C10.935,3.838,7.2,5.851,6.338,8.724"/><circle class="cls-1" cx="19.706" cy="12.999" r="3"/></svg>