<svg id="Regular" xmlns="http://www.w3.org/2000/svg" viewBox="0 0 24 24"><defs><style>.cls-1{fill:none;stroke:currentColor;stroke-linecap:round;stroke-linejoin:round;stroke-width:1.5px;}</style></defs><title>exotic-food-buns</title><path class="cls-1" d="M22.477,15.962a3,3,0,0,0-.125-3.611l-1.735-2.142a.749.749,0,0,0-.712-.267l-2.085.9.14-2.269A.75.75,0,0,0,17.467,8l-2.6-.9a3,3,0,0,0-3.438,1.112l-.423.6a1.5,1.5,0,0,0,.366,2.09l8.6,6.03a1.5,1.5,0,0,0,2.089-.367Z"/><path class="cls-1" d="M12.094,7.522l-2.44-.7a.75.75,0,0,0-.737.191L7.729,8.954,6.541,7.016a.748.748,0,0,0-.736-.191l-2.65.757A3,3,0,0,0,.979,10.467V11.2a1.5,1.5,0,0,0,1.5,1.5H3.51"/><path class="cls-1" d="M9.715,12.661l-.486.793L8.041,11.516a.748.748,0,0,0-.736-.191l-2.65.757a3,3,0,0,0-2.176,2.885V15.7a1.5,1.5,0,0,0,1.5,1.5h10.5a1.493,1.493,0,0,0,1.054-.433"/></svg>