<svg id="Regular" xmlns="http://www.w3.org/2000/svg" viewBox="0 0 24 24"><defs><style>.cls-1{fill:none;stroke:currentColor;stroke-linecap:round;stroke-linejoin:round;stroke-width:1.5px;}</style></defs><title>exotic-food-kebab</title><line class="cls-1" x1="6.75" y1="23.25" x2="17.25" y2="23.25"/><line class="cls-1" x1="12" y1="20.25" x2="12" y2="23.25"/><path class="cls-1" d="M13.5,2.25A1.5,1.5,0,1,0,12,3.75v1.5"/><path class="cls-1" d="M15.588,17.308a3.659,3.659,0,0,1-7.176,0L7.077,10.632A4.5,4.5,0,0,1,11.489,5.25h1.022a4.5,4.5,0,0,1,4.412,5.382Z"/><line class="cls-1" x1="11.25" y1="9.75" x2="6.99" y2="9.75"/><line class="cls-1" x1="11.25" y1="15.75" x2="15.9" y2="15.75"/><path class="cls-1" d="M19.639.75c-1.436,2.873,2.9,3.881.75,6.75"/><path class="cls-1" d="M4.361.75c1.436,2.873-2.9,3.881-.75,6.75"/></svg>