<svg id="Regular" xmlns="http://www.w3.org/2000/svg" viewBox="0 0 24 24"><defs><style>.cls-1{fill:none;stroke:currentColor;stroke-linecap:round;stroke-linejoin:round;stroke-width:1.5px;}</style></defs><title>exotic-food-samosa-dip</title><path class="cls-1" d="M9.081,9.738a1.5,1.5,0,0,0,1.3-2.244L6.969,1.517a1.5,1.5,0,0,0-2.605,0L.949,7.494a1.5,1.5,0,0,0,1.3,2.244Z"/><path class="cls-1" d="M3.416,9.738s4.36-2.848,4.36-6.807"/><path class="cls-1" d="M18.392,10.084a1.5,1.5,0,0,0,2.483-.751l1.586-6.7a1.5,1.5,0,0,0-1.9-1.779L13.982,2.891A1.5,1.5,0,0,0,13.4,5.42Z"/><path class="cls-1" d="M14.252,6.216s5.131.9,7.834-2"/><path class="cls-1" d="M23.251,16.488c0,1.242-2.351,2.25-5.25,2.25s-5.25-1.008-5.25-2.25,2.35-2.25,5.25-2.25"/><path class="cls-1" d="M12.751,16.488v1.5a5.25,5.25,0,0,0,10.5,0v-1.5"/><path class="cls-1" d="M21,13.863a.375.375,0,1,1-.375.375A.375.375,0,0,1,21,13.863"/></svg>