<svg xmlns="http://www.w3.org/2000/svg" viewBox="0 0 24 24"><defs><style>.a{fill:none;stroke:currentColor;stroke-linecap:round;stroke-linejoin:round;stroke-width:1.5px;}</style></defs><title>eye-idea</title><path class="a" d="M6.5,9.193A5.988,5.988,0,1,1,17.962,6.765"/><path class="a" d="M6.143,11.3A20.816,20.816,0,0,1,1.05,7.659.958.958,0,0,1,1.02,6.3C2.554,4.676,6.763.778,11.764.778c4.2,0,9.192,3.9,11.088,5.517a.977.977,0,0,1,.348.715"/><line class="a" x1="15.7" y1="8.143" x2="15.7" y2="9.75"/><line class="a" x1="8.2" y1="15.75" x2="9.807" y2="15.75"/><line class="a" x1="23.2" y1="15.75" x2="21.593" y2="15.75"/><line class="a" x1="9.514" y1="10.85" x2="10.879" y2="12.214"/><line class="a" x1="21.886" y1="10.85" x2="20.521" y2="12.214"/><path class="a" d="M19.45,15.75a3.75,3.75,0,1,0-5.25,3.433V21h3V19.183A3.746,3.746,0,0,0,19.45,15.75Z"/><line class="a" x1="14.2" y1="23.25" x2="17.2" y2="23.25"/></svg>