<svg xmlns="http://www.w3.org/2000/svg" viewBox="0 0 24 24"><defs><style>.a{fill:none;stroke:currentColor;stroke-linecap:round;stroke-linejoin:round;stroke-width:1.5px;}</style></defs><title>family-outdoors-swing-tree</title><path class="a" d="M21,11.25a2.25,2.25,0,1,0-.81-4.344A3.741,3.741,0,0,0,16.5,3.75a3.7,3.7,0,0,0-.5.05A5.242,5.242,0,0,0,6,6c0,.111.026.215.033.324A2.995,2.995,0,1,0,3.75,11.25Z"/><line class="a" x1="8.25" y1="11.25" x2="8.25" y2="23.25"/><path class="a" d="M8.25,18c-3.6,0-4.5-2.25-4.5-3.75"/><line class="a" x1="13.5" y1="11.25" x2="13.5" y2="21"/><line class="a" x1="19.5" y1="11.25" x2="19.5" y2="21"/><line class="a" x1="12" y1="21" x2="21" y2="21"/></svg>