<svg xmlns="http://www.w3.org/2000/svg" viewBox="0 0 24 24"><defs><style>.a{fill:none;stroke:currentColor;stroke-linecap:round;stroke-linejoin:round;stroke-width:1.5px;}</style></defs><title>family-child-teeter</title><circle class="a" cx="21" cy="3" r="2.25"/><path class="a" d="M17.706,17.221a1.5,1.5,0,0,1-1.177-1.765l.75-3.75A1.5,1.5,0,0,1,18.75,10.5h1.5V8.25a1.5,1.5,0,0,1,3,0V12a1.5,1.5,0,0,1-1.5,1.5H19.979l-.508,2.545A1.515,1.515,0,0,1,17.706,17.221Z"/><circle class="a" cx="3" cy="6.75" r="2.25"/><path class="a" d="M4.529,19.8,4.021,17.25H2.25a1.5,1.5,0,0,1-1.5-1.5V12a1.5,1.5,0,0,1,3,0v2.25h1.5a1.5,1.5,0,0,1,1.471,1.206l.75,3.75a1.5,1.5,0,0,1-2.942.589Z"/><line class="a" x1="0.75" y1="20.25" x2="2.188" y2="19.953"/><line class="a" x1="12" y1="17.923" x2="12" y2="23.25"/><line class="a" x1="9.75" y1="23.25" x2="14.25" y2="23.25"/><line class="a" x1="9.681" y1="18.403" x2="14.142" y2="17.479"/><line class="a" x1="21.632" y1="15.93" x2="23.219" y2="15.601"/></svg>