<svg xmlns="http://www.w3.org/2000/svg" viewBox="0 0 24 24"><defs><style>.a{fill:none;stroke:currentColor;stroke-linecap:round;stroke-linejoin:round;stroke-width:1.5px;}</style></defs><title>family-child</title><circle class="a" cx="19.5" cy="5.25" r="3"/><path class="a" d="M17.812,20.25,18,21.75h3l.75-6h1.5V13.5a3.75,3.75,0,0,0-6-3"/><circle class="a" cx="4.5" cy="5.25" r="3"/><path class="a" d="M6.188,20.25,6,21.75H3l-.75-6H.75V13.5a3.75,3.75,0,0,1,6-3"/><circle class="a" cx="12" cy="9" r="2.25"/><path class="a" d="M12,12.75A3.75,3.75,0,0,0,8.25,16.5v.75h1.5l.75,4.5H12"/><path class="a" d="M12,12.75a3.75,3.75,0,0,1,3.75,3.75v.75h-1.5l-.75,4.5H12"/></svg>