<svg xmlns="http://www.w3.org/2000/svg" viewBox="0 0 24 24"><defs><style>.a{fill:none;stroke:currentColor;stroke-linecap:round;stroke-linejoin:round;stroke-width:1.5px;}</style></defs><title>family-walk-park</title><polygon class="a" points="18.332 0.75 16.082 6.75 20.582 6.75 18.332 0.75"/><line class="a" x1="18.332" y1="9" x2="18.332" y2="6.75"/><circle class="a" cx="8.582" cy="5.625" r="2.625"/><circle class="a" cx="19.832" cy="13.875" r="1.875"/><path class="a" d="M13.819,11.993A7.429,7.429,0,0,0,7.832,9a7.518,7.518,0,0,0-6.457,3.7,1.5,1.5,0,0,0,2.587,1.52,4.489,4.489,0,0,1,2.953-2.1L6.4,15.208,2.81,20.955a1.5,1.5,0,1,0,2.543,1.591L8.238,17.93l.5.371a1.5,1.5,0,0,1,.6,1.2v2.25a1.5,1.5,0,0,0,3,0V19.5a4.52,4.52,0,0,0-1.8-3.6l-1.072-.8.432-2.591A4.472,4.472,0,0,1,11.422,13.8a1.5,1.5,0,0,0,2.4-1.8Z"/><path class="a" d="M15.332,16.5a5.625,5.625,0,0,0,4.5,2.25,7.474,7.474,0,0,0,3-.75"/><line class="a" x1="18.571" y1="18.611" x2="16.832" y2="23.25"/><path class="a" d="M17.882,20.45l1.287.858a3,3,0,0,1,1.019,1.155l.394.787"/></svg>