<svg xmlns="http://www.w3.org/2000/svg" viewBox="0 0 24 24"><defs><style>.a{fill:none;stroke:currentColor;stroke-linecap:round;stroke-linejoin:round;stroke-width:1.5px;}</style></defs><title>family-father</title><circle class="a" cx="5.259" cy="3.75" r="3"/><line class="a" x1="5.259" y1="8.25" x2="5.259" y2="14.25"/><path class="a" d="M7.509,23.25l.75-7.5h1.5v-3a4.5,4.5,0,0,0-9,0v3h1.5l.75,7.5Z"/><circle class="a" cx="14.259" cy="10.5" r="2.25"/><path class="a" d="M13.057,14.447A3.752,3.752,0,0,1,18.009,18v.75h-1.5l-.75,4.5h-3l-.376-2.256"/><path class="a" d="M22.69,1.339a1.9,1.9,0,0,0-2.752,0L18.759,2.558,17.581,1.339a1.9,1.9,0,0,0-2.752,0,2.06,2.06,0,0,0,0,2.845l3.512,3.631a.578.578,0,0,0,.837,0L22.69,4.184A2.062,2.062,0,0,0,22.69,1.339Z"/></svg>