<svg xmlns="http://www.w3.org/2000/svg" viewBox="0 0 24 24"><defs><style>.a{fill:none;stroke:currentColor;stroke-linecap:round;stroke-linejoin:round;stroke-width:1.5px;}</style></defs><title>family-child-hold-hand</title><circle class="a" cx="17.25" cy="8.625" r="2.625"/><line class="a" x1="20.25" y1="18.75" x2="20.25" y2="16.5"/><path class="a" d="M18.75,22.5a1.5,1.5,0,0,0,1.5-1.5V18.75a1.5,1.5,0,0,0,3,0v-1.5a4.5,4.5,0,0,0-4.5-4.5H14.678L11.9,10.533a1.5,1.5,0,0,0-1.952,2.276l4.305,3.523V21a1.5,1.5,0,0,0,3,0A1.5,1.5,0,0,0,18.75,22.5Z"/><path class="a" d="M3.75,1.5,8.25,15,3.75,15v6a1.5,1.5,0,0,1-3,0V15"/><line class="a" x1="17.25" y1="21" x2="17.25" y2="18.75"/></svg>