<svg xmlns="http://www.w3.org/2000/svg" viewBox="0 0 24 24"><defs><style>.a{fill:none;stroke:currentColor;stroke-linecap:round;stroke-linejoin:round;stroke-width:1.5px;}</style></defs><title>family-child-play-car</title><path class="a" d="M3.75,20.813a.375.375,0,1,1-.375.375.375.375,0,0,1,.375-.375"/><path class="a" d="M11.25,20.813a.375.375,0,1,1-.375.375.375.375,0,0,1,.375-.375"/><line class="a" x1="6.75" y1="21.188" x2="8.25" y2="21.188"/><path class="a" d="M.75,20.438v-1.5a1.5,1.5,0,0,1,1.5-1.5H4.5l.466-1.864a1.5,1.5,0,0,1,1.455-1.136H9a.75.75,0,0,1,.75.75v2.25H13.5a.75.75,0,0,1,.75.75v2.25"/><circle class="a" cx="11.25" cy="4.313" r="2.625"/><path class="a" d="M21.75,18.938H18A1.5,1.5,0,0,1,16.6,16.91l1.833-4.885L16.04,10.433,13.153,13.9a1.5,1.5,0,0,1-2.306-1.922l3.75-4.5a1.5,1.5,0,0,1,1.985-.287l4.5,3a1.5,1.5,0,0,1,.573,1.775l-1.49,3.973H21.75a1.5,1.5,0,1,1,0,3Z"/></svg>