<svg xmlns="http://www.w3.org/2000/svg" viewBox="0 0 24 24"><defs><style>.a{fill:none;stroke:currentColor;stroke-linecap:round;stroke-linejoin:round;stroke-width:1.5px;}</style></defs><title>family-baby</title><circle class="a" cx="12" cy="3.563" r="2.625"/><path class="a" d="M13.189,16.623,15.27,18.7l-1.47,1.96a1.5,1.5,0,0,0,2.4,1.8L17.667,20.5a3.011,3.011,0,0,0-.276-3.922l-1.641-1.64V10.963a2.951,2.951,0,0,1,.258.229l1.681,1.681a1.5,1.5,0,1,0,2.122-2.121L18.129,9.071a6.035,6.035,0,0,0-4.242-1.758H10.113A6.035,6.035,0,0,0,5.871,9.071L4.189,10.752a1.5,1.5,0,0,0,2.122,2.121l1.681-1.681a2.951,2.951,0,0,1,.258-.229v3.979l-1.641,1.64a3.011,3.011,0,0,0-.278,3.92L7.8,22.462a1.5,1.5,0,0,0,2.4-1.8L8.73,18.7l2.081-2.08Z"/><path class="a" d="M8.25,13.313l2.561,3.31h2.378l2.561-3.31v-.75a7.288,7.288,0,0,0-7.5,0Z"/></svg>