<svg xmlns="http://www.w3.org/2000/svg" viewBox="0 0 24 24"><defs><style>.a{fill:none;stroke:currentColor;stroke-linecap:round;stroke-linejoin:round;stroke-width:1.5px;}</style></defs><title>family-outdoors-tree-house</title><path class="a" d="M11.689,6.311a1.5,1.5,0,0,0-.439,1.06V13.5a1.5,1.5,0,0,0,1.5,1.5h9a1.5,1.5,0,0,0,1.5-1.5V7.371a1.5,1.5,0,0,0-.439-1.06L17.25.75Z"/><line class="a" x1="14.25" y1="15" x2="14.25" y2="23.25"/><line class="a" x1="20.25" y1="15" x2="20.25" y2="23.25"/><line class="a" x1="14.25" y1="18" x2="20.25" y2="18"/><line class="a" x1="14.25" y1="21" x2="20.25" y2="21"/><path class="a" d="M8.25,12.561A6,6,0,1,1,11.434,3"/><line class="a" x1="6.75" y1="7.5" x2="6.75" y2="23.25"/><path class="a" d="M6.75,18H6a3,3,0,0,1-3-3"/><path class="a" d="M15,15V12a2.25,2.25,0,0,1,4.5,0v3"/></svg>