<svg xmlns="http://www.w3.org/2000/svg" viewBox="0 0 24 24"><defs><style>.a{fill:none;stroke:currentColor;stroke-linecap:round;stroke-linejoin:round;stroke-width:1.5px;}</style></defs><title>family-outdoors-slide</title><path class="a" d="M20.25.75a3.009,3.009,0,0,1,3,3V22.875a.375.375,0,0,1-.375.375h-2.25a.375.375,0,0,1-.375-.375V15.75a1.5,1.5,0,0,0-1.5-1.5h-1.5a1.5,1.5,0,0,0-1.5,1.5v7.125a.375.375,0,0,1-.375.375h-2.25a.375.375,0,0,1-.375-.375V3.75a3.009,3.009,0,0,1,3-3Z"/><rect class="a" x="15.75" y="5.25" width="4.5" height="3" rx="0.375" ry="0.375"/><path class="a" d="M12.75,9.75,5,16.207A4.5,4.5,0,0,1,2.121,17.25,1.371,1.371,0,0,0,.75,18.621V21.75a1.5,1.5,0,0,0,1.5,1.5h.644a4.5,4.5,0,0,0,2.849-1.017L9.4,19.24"/></svg>