<svg xmlns="http://www.w3.org/2000/svg" viewBox="0 0 24 24"><defs><style>.a{fill:none;stroke:currentColor;stroke-linecap:round;stroke-linejoin:round;stroke-width:1.5px;}</style></defs><title>family-child-play</title><circle class="a" cx="5.829" cy="3.559" r="2.625"/><path class="a" d="M3.105,22.982a1.5,1.5,0,0,1-.948-1.9L3.316,17.61l-1.193-.894a2.992,2.992,0,0,1-.958-3.581L2.951,8.969a1.5,1.5,0,0,1,1.277-.907,1.518,1.518,0,0,1,1.387.725c.509.838,2.218,3.022,3.964,3.022a1.5,1.5,0,0,1,0,3,7.046,7.046,0,0,1-4.86-2.352l-.8,1.859,1.192.895a3,3,0,0,1,1.048,3.347L5,22.034A1.51,1.51,0,0,1,3.105,22.982Z"/><path class="a" d="M21.579,20.059a1.512,1.512,0,0,1-.474-.077,4.091,4.091,0,0,1-2.643-4.394l-2.269-1.36a11.33,11.33,0,0,1-3.614.581,1.5,1.5,0,0,1,0-3,7.682,7.682,0,0,0,3.079-.592,1.5,1.5,0,0,1,1.443.056l3.75,2.25a1.5,1.5,0,0,1,.683,1.649c0,.008-.38,1.665.52,1.965a1.5,1.5,0,0,1-.475,2.922Z"/><circle class="a" cx="15.579" cy="6.559" r="2.25"/></svg>