<svg xmlns="http://www.w3.org/2000/svg" viewBox="0 0 24 24"><defs><style>.a{fill:none;stroke:currentColor;stroke-linecap:round;stroke-linejoin:round;stroke-width:1.5px;}</style></defs><title>family-hold</title><line class="a" x1="0.759" y1="14.25" x2="0.759" y2="23.25"/><path class="a" d="M.759,21.75h15a3,3,0,0,0-3-3H9.009a3,3,0,0,0-3-3H.759"/><line class="a" x1="6.009" y1="18.75" x2="9.009" y2="18.75"/><circle class="a" cx="19.509" cy="3.75" r="3"/><path class="a" d="M23.259,12a3.75,3.75,0,0,0-6-3"/><circle class="a" cx="6.009" cy="3.75" r="3"/><path class="a" d="M2.259,12a3.751,3.751,0,0,1,6-3"/><circle class="a" cx="12.759" cy="7.5" r="2.25"/><path class="a" d="M12.759,11.25A3.749,3.749,0,0,0,9.322,13.5"/><path class="a" d="M12.759,11.25A3.75,3.75,0,0,1,16.509,15"/></svg>