<svg xmlns="http://www.w3.org/2000/svg" viewBox="0 0 24 24"><defs><style>.a{fill:none;stroke:currentColor;stroke-linecap:round;stroke-linejoin:round;stroke-width:1.5px;}</style></defs><title>family-outdoors-teeter</title><path class="a" d="M.75,19.408a18.758,18.758,0,0,1,22.5,0"/><path class="a" d="M10.5,15.719V8.91a1.5,1.5,0,0,1,3,0v6.809"/><path class="a" d="M10.5,10.766,2.984,12.807A1.5,1.5,0,0,1,2.2,9.912l1.448-.393a1.5,1.5,0,0,1,1.841,1.055l.393,1.447"/><path class="a" d="M18.183,8.681,17.79,7.233a1.5,1.5,0,0,1,1.055-1.841L21.016,4.8A1.5,1.5,0,1,1,21.8,7.7L13.5,9.952"/></svg>