<svg id="Regular" xmlns="http://www.w3.org/2000/svg" viewBox="0 0 24 24"><defs><style>.cls-1{fill:none;stroke:currentColor;stroke-linecap:round;stroke-linejoin:round;stroke-width:1.5px;}</style></defs><title>famous-character-batman-1</title><path class="cls-1" d="M23.25,11.106a8.287,8.287,0,0,1-3.2,6.262.244.244,0,0,1-.354-.32c.061-.106.118-.218.172-.333.636-1.369.489-2.788-.332-3.179-.812-.372-1.967.4-2.612,1.731.058-.91-.255-1.662-.842-1.839-1.246-.394-1.729,1.21-4.079,5.322-2.389-4.181-2.837-5.715-4.079-5.322-.587.177-.9.929-.842,1.839-.645-1.33-1.8-2.1-2.612-1.731-.821.391-.968,1.81-.332,3.179.054.115.111.227.172.333a.244.244,0,0,1-.354.32,8.287,8.287,0,0,1-3.2-6.262c0-3.113,2.283-5.643,6.059-6.9a.245.245,0,0,1,.244.053.243.243,0,0,1,.071.238L6.75,6A3.2,3.2,0,0,0,7.841,8.757a.978.978,0,0,0,1.713-.646V5.5a.245.245,0,0,1,.392-.2l1.565,1.174h.978L14.054,5.3a.245.245,0,0,1,.392.2V8.112a.979.979,0,0,0,1.712.648A3.2,3.2,0,0,0,17.25,6l-.374-1.5a.244.244,0,0,1,.315-.291C20.967,5.463,23.25,7.993,23.25,11.106Z"/></svg>