<svg id="Regular" xmlns="http://www.w3.org/2000/svg" viewBox="0 0 24 24"><defs><style>.cls-1{fill:none;stroke:currentColor;stroke-linecap:round;stroke-linejoin:round;stroke-width:1.5px;}</style></defs><title>famous-character-wall-e</title><line class="cls-1" x1="12" y1="0.75" x2="12" y2="11.25"/><path class="cls-1" d="M7,11.25H17a1,1,0,0,1,1,1v8a0,0,0,0,1,0,0H6a0,0,0,0,1,0,0v-8A1,1,0,0,1,7,11.25Z"/><path class="cls-1" d="M1.25,14.25H6a0,0,0,0,1,0,0v8.5a.5.5,0,0,1-.5.5H1.25a.5.5,0,0,1-.5-.5v-8A.5.5,0,0,1,1.25,14.25Z"/><path class="cls-1" d="M18,14.25h4.75a.5.5,0,0,1,.5.5v8a.5.5,0,0,1-.5.5H18.5a.5.5,0,0,1-.5-.5v-8.5A0,0,0,0,1,18,14.25Z"/><line class="cls-1" x1="6" y1="14.25" x2="18" y2="14.25"/><path class="cls-1" d="M12,.75s-.75,6-6,6a3,3,0,0,1,0-6Z"/><path class="cls-1" d="M6.75,3.375a.375.375,0,0,1,.375.375"/><path class="cls-1" d="M6.375,3.75a.375.375,0,0,1,.375-.375"/><path class="cls-1" d="M6.75,4.125a.375.375,0,0,1-.375-.375"/><path class="cls-1" d="M7.125,3.75a.375.375,0,0,1-.375.375"/><path class="cls-1" d="M12,.75s.75,6,6,6a3,3,0,0,0,0-6Z"/><path class="cls-1" d="M17.25,3.375a.375.375,0,0,0-.375.375"/><path class="cls-1" d="M17.625,3.75a.375.375,0,0,0-.375-.375"/><path class="cls-1" d="M17.25,4.125a.375.375,0,0,0,.375-.375"/><path class="cls-1" d="M16.875,3.75a.375.375,0,0,0,.375.375"/></svg>