<svg id="Regular" xmlns="http://www.w3.org/2000/svg" viewBox="0 0 24 24"><defs><style>.cls-1{fill:none;stroke:currentColor;stroke-linecap:round;stroke-linejoin:round;stroke-width:1.5px;}</style></defs><title>famous-character-megaman</title><path class="cls-1" d="M.75,9A11.254,11.254,0,0,1,3.109,5.1"/><path class="cls-1" d="M20.573,10.8,23.25,8.256A11.243,11.243,0,0,0,8.89,1.4L8.248,4.588"/><circle class="cls-1" cx="12" cy="13.5" r="3"/><path class="cls-1" d="M9,18.75l-.842,2.526A1.5,1.5,0,0,0,9.581,23.25H17.25a1.5,1.5,0,0,0,1.5-1.5V18h-.011a8.558,8.558,0,0,0,2-5.5A8.75,8.75,0,0,0,3.413,10.75s3.629-1.967,6.919.257"/></svg>