<svg id="Regular" xmlns="http://www.w3.org/2000/svg" viewBox="0 0 24 24"><defs><style>.cls-1{fill:none;stroke:currentColor;stroke-linecap:round;stroke-linejoin:round;stroke-width:1.5px;}</style></defs><title>famous-character-batman</title><path class="cls-1" d="M19.5,9.75V1.5A.75.75,0,0,0,18.251.94L15.263,3.6a7.248,7.248,0,0,0-6.526,0L5.749.94A.75.75,0,0,0,4.5,1.5V9.75C3.672,9.75,3,10.757,3,12s.672,3,1.5,3v.75c0,4.142,4.5,7.5,7.5,7.5s7.5-3.358,7.5-7.5V15c.828,0,1.5-1.757,1.5-3S20.328,9.75,19.5,9.75Z"/><path class="cls-1" d="M9.75,20.25A3.285,3.285,0,0,1,12,19.5a3.285,3.285,0,0,1,2.25.75"/><line class="cls-1" x1="7.5" y1="10.5" x2="10.5" y2="12"/><line class="cls-1" x1="16.5" y1="10.5" x2="13.5" y2="12"/><path class="cls-1" d="M18.916,18.331C18.771,18.043,17.281,15,15.75,15c-1.065,0-2.508,1.134-3.255,1.792a.749.749,0,0,1-.99,0C10.758,16.134,9.315,15,8.25,15c-1.531,0-3.021,3.043-3.166,3.331"/></svg>