<svg id="Regular" xmlns="http://www.w3.org/2000/svg" viewBox="0 0 24 24"><defs><style>.cls-1{fill:none;stroke:currentColor;stroke-linecap:round;stroke-linejoin:round;stroke-width:1.5px;}</style></defs><title>famous-character-poseidon</title><path class="cls-1" d="M5.149,11.818A5.23,5.23,0,0,1,3.75,8.25V4.5A2.4,2.4,0,0,1,6,2.25h6A2.4,2.4,0,0,1,14.25,4.5V8.25A5.233,5.233,0,0,1,12.864,11.8"/><path class="cls-1" d="M12.75,10.9A3.589,3.589,0,0,0,9,7.5a3.589,3.589,0,0,0-3.75,3.4C5.25,13.623,3,13.623,3,13.623a2.759,2.759,0,0,0,2.25,1.361c-.75,2.041-.75,4.082,1.5,5.443a6.313,6.313,0,0,0,5.25,0c-.75-.681-.474-1.861,0-2.722a3.012,3.012,0,0,0,0-2.721s2.25.68,3-1.361C13.5,13.623,12.75,12.262,12.75,10.9Z"/><line class="cls-1" x1="8.25" y1="10.5" x2="9.75" y2="10.5"/><line class="cls-1" x1="10.5" y1="5.25" x2="12" y2="4.5"/><line class="cls-1" x1="7.5" y1="5.25" x2="6" y2="4.5"/><path class="cls-1" d="M6.75,2.25A1.469,1.469,0,0,1,5.25.75"/><path class="cls-1" d="M11.25,2.25a1.469,1.469,0,0,0,1.5-1.5"/><line class="cls-1" x1="9" y1="2.25" x2="9" y2="0.75"/><line class="cls-1" x1="20.25" y1="3" x2="20.25" y2="23.25"/><path class="cls-1" d="M17.25,4.5V8.25a3,3,0,0,0,6,0V4.5"/><path class="cls-1" d="M.75,18.75c0-1.645,1.3-3.112,3.325-4.075"/><path class="cls-1" d="M13.955,14.852c2.012.963,3.3,2.424,3.3,4.061"/></svg>