<svg id="Regular" xmlns="http://www.w3.org/2000/svg" viewBox="0 0 24 24"><defs><style>.cls-1{fill:none;stroke:currentColor;stroke-linecap:round;stroke-linejoin:round;stroke-width:1.5px;}</style></defs><title>famous-character-power-ranger-1</title><path class="cls-1" d="M6,9.75v6a7.78,7.78,0,0,0,7.5,7.5,7.78,7.78,0,0,0,7.5-7.5V10.5c-2.784-1.253-4.167-1.087-6.455,1.137a1.5,1.5,0,0,1-2.09,0,12.417,12.417,0,0,0-1.133-.985"/><path class="cls-1" d="M6,14.25c1.848,1.663,3.84,3.2,6.684,1.359a1.5,1.5,0,0,1,1.632,0c3.256,2.11,5.5-.291,6.684-1.359"/><line class="cls-1" x1="16.5" y1="13.5" x2="18" y2="12.75"/><line class="cls-1" x1="10.5" y1="13.5" x2="9" y2="12.75"/><path class="cls-1" d="M12.187,5.17C8.083,10.3.187,4.42,3,1.42c4.687,2.25,4.3-2.3,13.5,0,3,.75,4.5,2.35,4.5,5.25V10.5"/><path class="cls-1" d="M11.25,19.5a3.285,3.285,0,0,0,2.25.75,3.285,3.285,0,0,0,2.25-.75"/></svg>