<svg id="Regular" xmlns="http://www.w3.org/2000/svg" viewBox="0 0 24 24"><defs><style>.cls-1{fill:none;stroke:currentColor;stroke-linecap:round;stroke-linejoin:round;stroke-width:1.5px;}</style></defs><title>famous-character-yoda</title><path class="cls-1" d="M6,6.75a6,6,0,0,1,12,0v3a6,6,0,0,1-12,0Z"/><path class="cls-1" d="M8.25,6a2.619,2.619,0,0,1,1.5-.75c1.5,0,1.5.75,2.25.75s.75-.75,2.25-.75a2.619,2.619,0,0,1,1.5.75"/><path class="cls-1" d="M9.375,8.25a.375.375,0,0,1,.375.375"/><path class="cls-1" d="M9,8.625a.375.375,0,0,1,.375-.375"/><path class="cls-1" d="M9.375,9A.375.375,0,0,1,9,8.625"/><path class="cls-1" d="M9.75,8.625A.375.375,0,0,1,9.375,9"/><path class="cls-1" d="M14.625,8.25A.375.375,0,0,1,15,8.625"/><path class="cls-1" d="M14.25,8.625a.375.375,0,0,1,.375-.375"/><path class="cls-1" d="M14.625,9a.375.375,0,0,1-.375-.375"/><path class="cls-1" d="M15,8.625A.375.375,0,0,1,14.625,9"/><path class="cls-1" d="M9.75,12a7.555,7.555,0,0,0,2.25.75A7.555,7.555,0,0,0,14.25,12"/><path class="cls-1" d="M6.046,10.5a3.925,3.925,0,0,1-3.8-2.25A9.282,9.282,0,0,0,.75,6h1.5A15.258,15.258,0,0,1,6,6.75"/><path class="cls-1" d="M17.954,10.5a3.925,3.925,0,0,0,3.8-2.25A9.282,9.282,0,0,1,23.25,6h-1.5A15.258,15.258,0,0,0,18,6.75"/><path class="cls-1" d="M3,23.25s0-3,3.75-4.5c1.5,2.25,9,4.5,9,4.5"/><path class="cls-1" d="M11.735,21.812A12.632,12.632,0,0,0,17.25,18.75C21,20.25,21,23.25,21,23.25"/><path class="cls-1" d="M6.75,18.75a24.781,24.781,0,0,1,10.5,0"/></svg>