<svg id="Regular" xmlns="http://www.w3.org/2000/svg" viewBox="0 0 24 24"><defs><style>.cls-1{fill:none;stroke:currentColor;stroke-linecap:round;stroke-linejoin:round;stroke-width:1.5px;}</style></defs><title>famous-character-mr-potato-head</title><path class="cls-1" d="M18.111,6.744A22,22,0,0,1,20.25,15a8.25,8.25,0,0,1-16.5,0A21.981,21.981,0,0,1,5.886,6.75"/><line class="cls-1" x1="3" y1="6.75" x2="21" y2="6.75"/><path class="cls-1" d="M4.722,9.75H3a1.5,1.5,0,0,0,0,3h.972"/><path class="cls-1" d="M19.278,9.75H21a1.5,1.5,0,0,1,0,3h-.972"/><path class="cls-1" d="M6,6.75a6,6,0,0,1,12,0"/><circle class="cls-1" cx="7.5" cy="12" r="3"/><circle class="cls-1" cx="16.5" cy="12" r="3"/><path class="cls-1" d="M7.5,11.625A.375.375,0,0,1,7.875,12"/><path class="cls-1" d="M7.125,12a.375.375,0,0,1,.375-.375"/><path class="cls-1" d="M7.5,12.375A.375.375,0,0,1,7.125,12"/><path class="cls-1" d="M7.875,12a.375.375,0,0,1-.375.375"/><path class="cls-1" d="M16.5,11.625a.375.375,0,0,1,.375.375"/><path class="cls-1" d="M16.125,12a.375.375,0,0,1,.375-.375"/><path class="cls-1" d="M16.5,12.375A.375.375,0,0,1,16.125,12"/><path class="cls-1" d="M16.875,12a.375.375,0,0,1-.375.375"/><path class="cls-1" d="M8.25,19.5a3.75,3.75,0,0,1,7.5,0H8.25Z"/></svg>