<svg id="Regular" xmlns="http://www.w3.org/2000/svg" viewBox="0 0 24 24"><defs><style>.cls-1{fill:none;stroke:currentColor;stroke-linecap:round;stroke-linejoin:round;stroke-width:1.5px;}</style></defs><title>famous-character</title><path class="cls-1" d="M7.583,21.662,6.75,15l-3-2.25V8.25C3.75,4.108,7.858.75,12,.75s8.25,3.358,8.25,7.5v4.5l-3,2.25-.833,6.662"/><path class="cls-1" d="M3.75,9.75l-1.224.408A1.5,1.5,0,0,0,1.5,11.581v2.338a1.5,1.5,0,0,0,1.026,1.423l1.224.408c0,4.142,5.25,7.5,8.25,7.5s8.25-3.358,8.25-7.5l1.224-.408A1.5,1.5,0,0,0,22.5,13.919V11.581a1.5,1.5,0,0,0-1.026-1.423L20.25,9.75"/><path class="cls-1" d="M3.75,8.25s1.5-3,4.5-3A3.742,3.742,0,0,1,12,7.5a3.742,3.742,0,0,1,3.75-2.25c3,0,4.5,3,4.5,3"/><line class="cls-1" x1="13.5" y1="12" x2="15.75" y2="10.5"/><line class="cls-1" x1="10.5" y1="12" x2="8.25" y2="10.5"/><line class="cls-1" x1="10.5" y1="18" x2="13.5" y2="18"/></svg>