<svg id="Regular" xmlns="http://www.w3.org/2000/svg" viewBox="0 0 24 24"><defs><style>.cls-1{fill:none;stroke:currentColor;stroke-linecap:round;stroke-linejoin:round;stroke-width:1.5px;}</style></defs><title>famous-character-uzumaki-naruto</title><rect class="cls-1" x="3.711" y="7.424" width="16.5" height="3.75"/><rect class="cls-1" x="9.711" y="7.424" width="4.5" height="3.75"/><path class="cls-1" d="M20.211,7.424l1.739-1.3a.75.75,0,0,0-.268-1.328l-1.471-.368V2.532a.75.75,0,0,0-1.029-.7L16.461,2.924,15.4,1.334a.75.75,0,0,0-1.074-.184L11.961,2.924,9.6,1.15a.75.75,0,0,0-1.074.184l-1.06,1.59L4.739,1.836a.749.749,0,0,0-1.028.7V4.424l-1.472.368A.75.75,0,0,0,1.971,6.12l1.74,1.3"/><path class="cls-1" d="M19.461,11.924v-.75h-15v.75c-.829,0-1.5,1.008-1.5,2.25s.671,2.25,1.5,2.25c.025,0,.049-.009.074-.011a7.458,7.458,0,0,0,14.851,0c.025,0,.049.011.075.011.828,0,1.5-1.007,1.5-2.25S20.289,11.924,19.461,11.924Z"/><line class="cls-1" x1="14.211" y1="14.924" x2="16.461" y2="14.174"/><line class="cls-1" x1="9.711" y1="14.924" x2="7.461" y2="14.174"/><line class="cls-1" x1="5.233" y1="18.917" x2="8.211" y2="17.924"/><line class="cls-1" x1="6.913" y1="21.198" x2="8.961" y2="20.174"/><line class="cls-1" x1="18.688" y1="18.917" x2="15.711" y2="17.924"/><line class="cls-1" x1="17.009" y1="21.198" x2="14.961" y2="20.174"/></svg>