<svg xmlns="http://www.w3.org/2000/svg" viewBox="0 0 24 24"><defs><style>.a{fill:none;stroke:currentColor;stroke-linecap:round;stroke-linejoin:round;stroke-width:1.5px;}</style></defs><title>famous-people-witch</title><path class="a" d="M3.779,15.75a24.756,24.756,0,0,0,8.25,1.5,24.756,24.756,0,0,0,8.25-1.5"/><path class="a" d="M6.779,17.25l.75-3.75,3.75-3L9.029,6.752l3.75-6V6l4.5,4.5-1.5,3,1.5,3.75a5.25,5.25,0,0,1-10.5,0Z"/><path class="a" d="M6.779,17.25a2.249,2.249,0,0,0-2.12,3l-.13,0a3,3,0,0,0-3,3"/><path class="a" d="M17.279,17.25a2.249,2.249,0,0,1,2.12,3l.13,0a3,3,0,0,1,3,3"/></svg>