<svg id="Regular" xmlns="http://www.w3.org/2000/svg" viewBox="0 0 24 24"><defs><style>.cls-1{fill:none;stroke:currentColor;stroke-linecap:round;stroke-linejoin:round;stroke-width:1.5px;}</style></defs><title>famous-character-power-ranger</title><path class="cls-1" d="M4.5,12.75V16.5C4.5,21,9,23.25,12,23.25S19.5,21,19.5,16.5V12.75"/><path class="cls-1" d="M4.5,6.75c0-3.314,3.358-6,7.5-6s7.5,2.686,7.5,6"/><path class="cls-1" d="M19.5,6.75H4.5c-1.243,0-2.25,1.343-2.25,3s1.007,3,2.25,3h15c1.243,0,2.25-1.343,2.25-3S20.743,6.75,19.5,6.75Z"/><line class="cls-1" x1="6" y1="9.75" x2="18" y2="9.75"/><line class="cls-1" x1="5.503" y1="3.75" x2="18.497" y2="3.75"/><path class="cls-1" d="M10.5,16.5a1.875,1.875,0,0,1,3,0"/><path class="cls-1" d="M7.5,12.75v4.5A2.774,2.774,0,0,0,9,19.5s.75-.75,3-.75,3,.75,3,.75,1.5,0,1.5-2.25v-4.5"/></svg>