<svg id="Regular" xmlns="http://www.w3.org/2000/svg" viewBox="0 0 24 24"><defs><style>.cls-1{fill:none;stroke:currentColor;stroke-linecap:round;stroke-linejoin:round;stroke-width:1.5px;}</style></defs><title>famous-character-star</title><circle class="cls-1" cx="12" cy="12" r="11.25"/><circle class="cls-1" cx="12" cy="12" r="8.315"/><path class="cls-1" d="M12.576,6.97,13.83,9.554h2.441a.6.6,0,0,1,.422,1.046l-2.119,2.214,1.174,2.7a.64.64,0,0,1-.91.8L12,14.717l-2.837,1.6a.64.64,0,0,1-.911-.8l1.174-2.7L7.308,10.6a.6.6,0,0,1,.419-1.046h2.441L11.425,6.97A.648.648,0,0,1,12.576,6.97Z"/></svg>