<svg id="Regular" xmlns="http://www.w3.org/2000/svg" viewBox="0 0 24 24"><defs><style>.cls-1{fill:none;stroke:currentColor;stroke-linecap:round;stroke-linejoin:round;stroke-width:1.5px;}</style></defs><title>famous-character-megaman-1</title><path class="cls-1" d="M14.25,5.311a8.25,8.25,0,1,1-4.5,0"/><path class="cls-1" d="M4.689,17.075,1.221,15.689a.751.751,0,0,1-.471-.7V11.508a.751.751,0,0,1,.471-.7L4.689,9.425"/><path class="cls-1" d="M19.311,17.075l3.468-1.386a.751.751,0,0,0,.471-.7V11.508a.751.751,0,0,0-.471-.7L19.311,9.425"/><path class="cls-1" d="M12.75,2a1.5,1.5,0,0,1,1.5,1.5v3H9.75v-3A1.5,1.5,0,0,1,11.25,2Z"/><path class="cls-1" d="M9.75,6.5h4.5a0,0,0,0,1,0,0v2a1,1,0,0,1-1,1h-2.5a1,1,0,0,1-1-1v-2A0,0,0,0,1,9.75,6.5Z"/><path class="cls-1" d="M4.513,16.724C4.632,14.365,6.259,12.5,8.25,12.5A4.8,4.8,0,0,1,12,14.675,4.8,4.8,0,0,1,15.75,12.5c1.991,0,3.618,1.865,3.737,4.224"/><path class="cls-1" d="M8.25,15.875a.375.375,0,0,1,.375.375"/><path class="cls-1" d="M7.875,16.25a.375.375,0,0,1,.375-.375"/><path class="cls-1" d="M8.25,16.625a.375.375,0,0,1-.375-.375"/><path class="cls-1" d="M8.625,16.25a.375.375,0,0,1-.375.375"/><path class="cls-1" d="M15.75,15.875a.375.375,0,0,1,.375.375"/><path class="cls-1" d="M15.375,16.25a.375.375,0,0,1,.375-.375"/><path class="cls-1" d="M15.75,16.625a.375.375,0,0,1-.375-.375"/><path class="cls-1" d="M16.125,16.25a.375.375,0,0,1-.375.375"/></svg>