<svg id="Regular" xmlns="http://www.w3.org/2000/svg" viewBox="0 0 24 24"><defs><style>.cls-1,.cls-2{fill:none;stroke:currentColor;stroke-linecap:round;stroke-linejoin:round;}.cls-1{stroke-width:1.5px;}</style></defs><title>famous-character-cat</title><ellipse class="cls-1" cx="14.756" cy="11.137" rx="3.006" ry="4.038"/><ellipse class="cls-1" cx="8.744" cy="11.137" rx="3.006" ry="4.038"/><ellipse class="cls-2" cx="11.75" cy="17.193" rx="1.25" ry="0.839"/><path class="cls-1" d="M16.411,18.391a6.978,6.978,0,0,1-9.38.039"/><line class="cls-1" x1="8.744" y1="10.632" x2="8.744" y2="12.388"/><line class="cls-1" x1="14.756" y1="10.632" x2="14.756" y2="12.388"/><path class="cls-1" d="M16.822,14.071a2.541,2.541,0,0,1,3.947,2.113c0,.38-2.345,7.066-9.019,7.066s-9.019-6.642-9.019-7.066a2.541,2.541,0,0,1,3.947-2.113"/><path class="cls-1" d="M1.25,14.716a2.949,2.949,0,0,1,1.481,1.468"/><path class="cls-1" d="M22.25,14.716a2.949,2.949,0,0,0-1.481,1.468"/><path class="cls-1" d="M22.25,11.612c-3.162-1.653-3.694-3.092-4.032-4.238l-.381-6.15a.5.5,0,0,0-.871-.308L13.208,5.08a8.058,8.058,0,0,0-2.916,0L6.534.916a.5.5,0,0,0-.871.308l-.381,6.15c-.338,1.146-.87,2.585-4.032,4.238"/></svg>