<svg id="Regular" xmlns="http://www.w3.org/2000/svg" viewBox="0 0 24 24"><defs><style>.cls-1{fill:none;stroke:currentColor;stroke-linecap:round;stroke-linejoin:round;stroke-width:1.5px;}</style></defs><title>famous-character-lorax</title><path class="cls-1" d="M18.09,18.686c.088,2.527-2.958,4.595-6.728,4.595-3.811,0-6.882-2.112-6.725-4.676"/><path class="cls-1" d="M17.821,4.18A6.2,6.2,0,0,1,18.84,7.574"/><path class="cls-1" d="M9.308,1.1a8.364,8.364,0,0,1,4.107,0"/><path class="cls-1" d="M3.884,7.574A6.2,6.2,0,0,1,4.9,4.18"/><path class="cls-1" d="M15.848,18.045l3.99,1.14a.748.748,0,0,0,.931-.9l-.434-1.736,1.388-1.388a.748.748,0,0,0-.292-1.238l-1.1-.365v-.973a.747.747,0,0,0-1.111-.654l-5.619,3.123c0,2.243-.748,3.739-2.243,3.739s-2.244-1.5-2.244-3.739L3.5,11.931a.748.748,0,0,0-1.111.654v.973l-1.1.365A.748.748,0,0,0,1,15.161l1.388,1.388L1.62,18.087a.748.748,0,0,0,.85,1.06l4.4-1.1"/><circle class="cls-1" cx="7.623" cy="11.314" r="2.244"/><circle class="cls-1" cx="15.101" cy="11.314" r="2.244"/><ellipse class="cls-1" cx="15.913" cy="2.515" rx="1.496" ry="2.991" transform="translate(8.156 16.635) rotate(-70.199)"/><ellipse class="cls-1" cx="6.81" cy="2.515" rx="2.991" ry="1.496" transform="translate(-0.449 2.456) rotate(-19.801)"/></svg>