<svg id="Regular" xmlns="http://www.w3.org/2000/svg" viewBox="0 0 24 24"><defs><style>.cls-1{fill:none;stroke:currentColor;stroke-linecap:round;stroke-linejoin:round;stroke-width:1.5px;}</style></defs><title>famous-character-black-lightning</title><path class="cls-1" d="M3.75,8.25C3.75,4.108,7.444.75,12,.75s8.25,3.358,8.25,7.5"/><path class="cls-1" d="M20.25,15c0,3.75-4.5,8.25-8.25,8.25S3.75,18.75,3.75,15"/><polyline class="cls-1" points="20.25 12.75 21 10.5 22.5 12 23.25 8.25"/><polyline class="cls-1" points="3.75 12.75 3 10.5 1.5 12 0.75 8.25"/><path class="cls-1" d="M13.5,12s2.25-1.5,3-1.5a2.619,2.619,0,0,1,1.5.75s0,2.25-1.5,2.25C13.5,13.5,13.5,12,13.5,12Z"/><path class="cls-1" d="M10.5,12s-2.25-1.5-3-1.5a2.619,2.619,0,0,0-1.5.75S6,13.5,7.5,13.5C10.5,13.5,10.5,12,10.5,12Z"/><line class="cls-1" x1="14.25" y1="6.75" x2="15.946" y2="1.662"/><line class="cls-1" x1="9.75" y1="6.75" x2="8.054" y2="1.662"/><path class="cls-1" d="M5.9,19.915l.658-2.629a.75.75,0,0,1,.964-.53L9,17.25l2.329-1.165a1.5,1.5,0,0,1,1.342,0L15,17.25l1.482-.494a.75.75,0,0,1,.964.53l.658,2.629"/><path class="cls-1" d="M9.75,20.25A3.285,3.285,0,0,1,12,19.5a3.285,3.285,0,0,1,2.25.75"/></svg>