<svg id="Regular" xmlns="http://www.w3.org/2000/svg" viewBox="0 0 24 24"><defs><style>.cls-1,.cls-2{fill:none;stroke:currentColor;stroke-linecap:round;stroke-linejoin:round;}.cls-1{stroke-width:1.5px;}</style></defs><title>famous-character-2</title><path class="cls-1" d="M3,23.25V21c0-2.071,4.029-3.75,9-3.75s9,1.679,9,3.75v2.25"/><path class="cls-1" d="M18.75,7.5a6.75,6.75,0,0,0-13.5,0v6L10.5,15V10.5a2.938,2.938,0,0,1-3-3c0-2.25,1.5-3,2.25-3A7.555,7.555,0,0,1,12,5.25a7.555,7.555,0,0,1,2.25-.75c.75,0,2.25.75,2.25,3a2.938,2.938,0,0,1-3,3V15l5.25-1.5Z"/><line class="cls-1" x1="10.5" y1="14.25" x2="13.5" y2="14.25"/><line class="cls-1" x1="9.75" y1="7.5" x2="10.5" y2="7.5"/><line class="cls-1" x1="13.5" y1="7.5" x2="14.25" y2="7.5"/><path class="cls-1" d="M18.814,18.55c-.643,2.021-2.92,3.95-6.814,3.95s-6.171-1.929-6.814-3.95"/><path class="cls-2" d="M12,20a.25.25,0,0,1,.25.25"/><path class="cls-2" d="M11.75,20.25A.25.25,0,0,1,12,20"/><path class="cls-2" d="M12,20.5a.25.25,0,0,1-.25-.25"/><path class="cls-2" d="M12.25,20.25a.25.25,0,0,1-.25.25"/><path class="cls-2" d="M9,19.25a.25.25,0,0,1,.25.25"/><path class="cls-2" d="M8.75,19.5A.25.25,0,0,1,9,19.25"/><path class="cls-2" d="M9,19.75a.25.25,0,0,1-.25-.25"/><path class="cls-2" d="M9.25,19.5a.25.25,0,0,1-.25.25"/><path class="cls-2" d="M15,19.25a.25.25,0,0,1,.25.25"/><path class="cls-2" d="M14.75,19.5a.25.25,0,0,1,.25-.25"/><path class="cls-2" d="M15,19.75a.25.25,0,0,1-.25-.25"/><path class="cls-2" d="M15.25,19.5a.25.25,0,0,1-.25.25"/></svg>