<svg id="Regular" xmlns="http://www.w3.org/2000/svg" viewBox="0 0 24 24"><defs><style>.cls-1{fill:none;stroke:currentColor;stroke-linecap:round;stroke-linejoin:round;stroke-width:1.5px;}</style></defs><title>famous-character-star-wars-1</title><path class="cls-1" d="M9.032,13.75H6.75a1.5,1.5,0,0,0-1.5,1.5V20.5h13.5V15.25a1.5,1.5,0,0,0-1.5-1.5H14.968"/><path class="cls-1" d="M15,14,13.487,2.338a1.5,1.5,0,0,0-2.974,0L9,14v6.5h6Z"/><path class="cls-1" d="M9,14.5s1.5-2.25,3-2.25S15,14,15,14"/><path class="cls-1" d="M5.25,20.5,1.776,19.342A1.5,1.5,0,0,1,.75,17.919V16h4.5Z"/><line class="cls-1" x1="0.75" y1="16" x2="0.75" y2="7.75"/><line class="cls-1" x1="0.75" y1="4" x2="0.75" y2="2.5"/><path class="cls-1" d="M18.75,20.5l3.474-1.158a1.5,1.5,0,0,0,1.026-1.423V16h-4.5Z"/><line class="cls-1" x1="23.25" y1="16" x2="23.25" y2="7.75"/><line class="cls-1" x1="23.25" y1="4" x2="23.25" y2="2.5"/><line class="cls-1" x1="7.5" y1="20.5" x2="7.5" y2="22.75"/><line class="cls-1" x1="16.5" y1="20.5" x2="16.5" y2="22.75"/></svg>