<svg id="Regular" xmlns="http://www.w3.org/2000/svg" viewBox="0 0 24 24"><defs><style>.cls-1{fill:none;stroke:currentColor;stroke-linecap:round;stroke-linejoin:round;stroke-width:1.5px;}</style></defs><title>famous-character-flapjack</title><path class="cls-1" d="M4,7.994V15c0,3.75,4.909,8.25,9,8.25s9-4.5,9-8.25V9c0-3,0-6-1.5-6,0-1.5-.75-2.25-3-2.25H5.5A4.018,4.018,0,0,0,1.75,4.5,3.543,3.543,0,0,0,5.5,8.25h6.563a1.51,1.51,0,1,1,0,3"/><path class="cls-1" d="M22,12a3.443,3.443,0,0,1-3.582-2.727,1.5,1.5,0,0,0-1.447-1.11H16.75"/><path class="cls-1" d="M16.375,12.75a.375.375,0,0,1,.375.375"/><path class="cls-1" d="M16,13.125a.375.375,0,0,1,.375-.375"/><path class="cls-1" d="M16.375,13.5A.375.375,0,0,1,16,13.125"/><path class="cls-1" d="M16.75,13.125a.375.375,0,0,1-.375.375"/><path class="cls-1" d="M8.875,12.75a.375.375,0,0,1,.375.375"/><path class="cls-1" d="M8.5,13.125a.375.375,0,0,1,.375-.375"/><path class="cls-1" d="M8.875,13.5a.375.375,0,0,1-.375-.375"/><path class="cls-1" d="M9.25,13.125a.375.375,0,0,1-.375.375"/><path class="cls-1" d="M10.75,18a3.285,3.285,0,0,0,2.25.75A3.285,3.285,0,0,0,15.25,18"/></svg>