<svg id="Regular" xmlns="http://www.w3.org/2000/svg" viewBox="0 0 24 24"><defs><style>.cls-1{fill:none;stroke:currentColor;stroke-linecap:round;stroke-linejoin:round;stroke-width:1.5px;}</style></defs><title>famous-character-darth-vader</title><path class="cls-1" d="M5.312,22.564,6,15v-3.75c0-1.5.75-1.5,3-1.5a5.237,5.237,0,0,1,3,1.5,5.237,5.237,0,0,1,3-1.5c2.25,0,3,0,3,1.5V15l.688,7.568a.749.749,0,0,0,.747.682h.815a3,3,0,0,0,3-3h0l-3-10.5c0-5.052-2.779-8.716-7.668-8.984A8.611,8.611,0,0,0,3.75,9.5l-3,10.745h0a3,3,0,0,0,3,3h.815A.749.749,0,0,0,5.312,22.564Z"/><path class="cls-1" d="M8.25,21.746l2.478-3.964a1.5,1.5,0,0,1,2.544,0l2.478,3.964Z"/><path class="cls-1" d="M18,14.246H15.75c-1.5,0-3.75,0-3.75-3,0,3-2.25,3-3.75,3H6"/><polyline class="cls-1" points="5.827 16.9 8.25 21.746 15.75 21.746 18.173 16.9"/><polyline class="cls-1" points="14.318 1.019 13.5 6.746 10.5 6.746 9.698 1.134"/></svg>