<svg id="Regular" xmlns="http://www.w3.org/2000/svg" viewBox="0 0 24 24"><defs><style>.cls-1{fill:none;stroke:currentColor;stroke-linecap:round;stroke-linejoin:round;stroke-width:1.5px;}</style></defs><title>famous-character-1</title><path class="cls-1" d="M10.5,20.25h3l2.25,1.685L17.25,15l3-2.25V8.25c0-4.142-4.108-7.5-8.25-7.5S3.75,4.108,3.75,8.25v4.5l3,2.25,1.5,6.935L10.5,20.25h3"/><polyline class="cls-1" points="8.014 1.777 10.5 6.75 13.5 6.75 15.986 1.777"/><polyline class="cls-1" points="13.5 9.75 13.5 12 17.25 11.25 17.25 9 13.5 9.75 10.5 9.75 6.75 9 6.75 11.25 10.5 12 10.5 9.75"/><path class="cls-1" d="M3.75,12.75v4.569a1.5,1.5,0,0,0,.512,1.129l5.064,4.431a1.5,1.5,0,0,0,.988.371h3.372a1.5,1.5,0,0,0,.988-.371l5.064-4.431a1.5,1.5,0,0,0,.512-1.129V12.75"/><line class="cls-1" x1="10.5" y1="17.25" x2="13.5" y2="17.25"/></svg>