<svg id="Regular" xmlns="http://www.w3.org/2000/svg" viewBox="0 0 24 24"><defs><style>.cls-1{fill:none;stroke:currentColor;stroke-linecap:round;stroke-linejoin:round;stroke-width:1.5px;}</style></defs><title>famous-character-spiderman</title><path class="cls-1" d="M20.25,15c0,3.75-4.5,8.25-8.25,8.25S3.75,18.75,3.75,15V9a8.25,8.25,0,0,1,16.5,0Z"/><path class="cls-1" d="M13.5,13.5s0-3.281,1.44-3.937L17.82,8.25s.72,3.938-.72,4.594A10.475,10.475,0,0,1,13.5,13.5Z"/><path class="cls-1" d="M10.5,13.5s0-3.281-1.44-3.937L6.18,8.25s-.72,3.938.72,4.594A10.475,10.475,0,0,0,10.5,13.5Z"/><line class="cls-1" x1="12" y1="0.75" x2="12" y2="7.5"/><line class="cls-1" x1="16.841" y1="2.319" x2="15" y2="6"/><line class="cls-1" x1="7.159" y1="2.319" x2="9" y2="6"/><line class="cls-1" x1="12" y1="23.25" x2="12" y2="15.75"/><line class="cls-1" x1="18.221" y1="19.777" x2="15" y2="15.75"/><line class="cls-1" x1="9" y1="15.75" x2="5.779" y2="19.777"/><path class="cls-1" d="M16.334,17.418A5.688,5.688,0,0,1,12,19.5a5.688,5.688,0,0,1-4.334-2.082"/><path class="cls-1" d="M8.25,4.5A9.1,9.1,0,0,1,12,3.75a9.1,9.1,0,0,1,3.75.75"/></svg>