<svg id="Regular" xmlns="http://www.w3.org/2000/svg" viewBox="0 0 24 24"><defs><style>.cls-1{fill:none;stroke:currentColor;stroke-linecap:round;stroke-linejoin:round;stroke-width:1.5px;}</style></defs><title>famous-character-vegeta</title><path class="cls-1" d="M17.25,20.5A7.572,7.572,0,0,1,12,22.75,7.566,7.566,0,0,1,6.75,20.5"/><path class="cls-1" d="M5.913,3.891a7.854,7.854,0,0,1,12.174,0"/><path class="cls-1" d="M12,11.5l7.664-9.58A.75.75,0,0,1,21,2.388V4.75l1.263-.421a.75.75,0,0,1,.987.712V12.25c0,3.75-6,8.25-6,8.25V16a3.25,3.25,0,0,0,1.5-3V9.654A.749.749,0,0,0,17.7,8.969Z"/><path class="cls-1" d="M12,11.5,4.336,1.92A.75.75,0,0,0,3,2.388V4.75L1.737,4.329a.75.75,0,0,0-.987.712V12.25c0,3.75,6,8.25,6,8.25V16a3.25,3.25,0,0,1-1.5-3V9.654a.749.749,0,0,1,1.055-.685Z"/><path class="cls-1" d="M9,7.75a5.237,5.237,0,0,1,3-1.5,5.237,5.237,0,0,1,3,1.5"/><line class="cls-1" x1="11.25" y1="3.25" x2="12.75" y2="3.25"/><line class="cls-1" x1="13.5" y1="14.5" x2="15.75" y2="13"/><line class="cls-1" x1="10.5" y1="14.5" x2="8.25" y2="13"/><path class="cls-1" d="M9.75,19.75A3.285,3.285,0,0,1,12,19a3.285,3.285,0,0,1,2.25.75"/></svg>