<svg id="Regular" xmlns="http://www.w3.org/2000/svg" viewBox="0 0 24 24"><defs><style>.cls-1{fill:none;stroke:currentColor;stroke-linecap:round;stroke-linejoin:round;stroke-width:1.5px;}</style></defs><title>famous-character-power-ranger-2</title><path class="cls-1" d="M5.091,6.445A7.052,7.052,0,0,1,12,1.5a7.038,7.038,0,0,1,6.908,4.946"/><path class="cls-1" d="M4.5,13.011V15.75c0,3.728,4.167,6.75,7.5,6.75s7.5-3.022,7.5-6.75V13.011"/><path class="cls-1" d="M12,16.5s.75-5.25,2.25-6.75,9-6,9-6A21.079,21.079,0,0,1,22.5,9a9.06,9.06,0,0,1-5.25,5.25A49.941,49.941,0,0,0,12,16.5Z"/><path class="cls-1" d="M12,16.5s-.75-5.25-2.25-6.75-9-6-9-6A21.079,21.079,0,0,0,1.5,9a9.06,9.06,0,0,0,5.25,5.25A49.941,49.941,0,0,1,12,16.5Z"/><line class="cls-1" x1="15.75" y1="12" x2="17.25" y2="10.5"/><line class="cls-1" x1="8.25" y1="12" x2="6.75" y2="10.5"/><path class="cls-1" d="M10.5,19.5a1.875,1.875,0,0,1,3,0"/><line class="cls-1" x1="16.5" y1="14.517" x2="16.5" y2="20.912"/><line class="cls-1" x1="7.5" y1="14.517" x2="7.5" y2="20.912"/></svg>