<svg id="Regular" xmlns="http://www.w3.org/2000/svg" viewBox="0 0 24 24"><defs><style>.cls-1{fill:none;stroke:currentColor;stroke-linecap:round;stroke-linejoin:round;stroke-width:1.5px;}</style></defs><title>famous-character-wonder-woman</title><path class="cls-1" d="M6.138,19.4C7.656,21.487,9.95,23.087,12,23.087c2.1,0,4.451-1.676,5.967-3.833"/><path class="cls-1" d="M3.75,17.587c1.5-2.587,2.063-3.5,2.063-6.938,0-6.165,3.639-2.472,6.187-6.062,2.49,3.509,6.188.022,6.188,6.062,0,3.438.562,4.351,2.062,6.938"/><path class="cls-1" d="M5.829,9.962H9.25A4.8,4.8,0,0,1,12,11.337a4.8,4.8,0,0,1,2.75-1.375h3.42"/><path class="cls-1" d="M.75,23.25V11.337c0-3,.75-7.5,5.25-9.75s9,.75,9,.75a4.9,4.9,0,0,1,6,1.5c2.25,3,2.25,6.75,2.25,9.75V23.25"/><path class="cls-1" d="M14.625,13.587a.375.375,0,0,1,.375.375"/><path class="cls-1" d="M14.25,13.962a.375.375,0,0,1,.375-.375"/><path class="cls-1" d="M14.625,14.337a.375.375,0,0,1-.375-.375"/><path class="cls-1" d="M15,13.962a.375.375,0,0,1-.375.375"/><path class="cls-1" d="M9.375,13.587a.375.375,0,0,1,.375.375"/><path class="cls-1" d="M9,13.962a.375.375,0,0,1,.375-.375"/><path class="cls-1" d="M9.375,14.337A.375.375,0,0,1,9,13.962"/><path class="cls-1" d="M9.75,13.962a.375.375,0,0,1-.375.375"/><path class="cls-1" d="M9.75,18.837a3.285,3.285,0,0,0,2.25.75,3.285,3.285,0,0,0,2.25-.75"/></svg>