<svg id="Regular" xmlns="http://www.w3.org/2000/svg" viewBox="0 0 24 24"><defs><style>.cls-1{fill:none;stroke:currentColor;stroke-linecap:round;stroke-linejoin:round;stroke-width:1.5px;}</style></defs><title>farming-farmer-crops</title><circle class="cls-1" cx="13.125" cy="3.75" r="3"/><path class="cls-1" d="M20.625.75a1.5,1.5,0,0,1,0,3V4.7"/><path class="cls-1" d="M4.145,14S1.125,12.75,1.125,9.75"/><path class="cls-1" d="M4.6,12.309A20.489,20.489,0,0,1,3.375,6.75"/><line class="cls-1" x1="7.875" y1="3.75" x2="18.375" y2="3.75"/><path class="cls-1" d="M22.313,4.829a1.5,1.5,0,0,0-2.11.234,8.444,8.444,0,0,1-6.63,3.187H10.125C8.389,8.25,4.9,9.453,4.146,14A1.5,1.5,0,0,0,5.379,15.73a1.379,1.379,0,0,0,.247.02A1.5,1.5,0,0,0,7.1,14.5c.5-2.975,2.558-3.227,3.021-3.245V16.5L8.754,21.14A1.5,1.5,0,1,0,11.5,22.359l1.629-3.609,1.629,3.609A1.5,1.5,0,1,0,17.5,21.14L16.125,16.5V10.967a11.434,11.434,0,0,0,6.422-4.029A1.5,1.5,0,0,0,22.313,4.829Z"/></svg>