<svg id="Regular" xmlns="http://www.w3.org/2000/svg" viewBox="0 0 24 24"><defs><style>.cls-1{fill:none;stroke:currentColor;stroke-linecap:round;stroke-linejoin:round;stroke-width:1.5px;}</style></defs><title>farming-wheat</title><path class="cls-1" d="M9.734,7.141c0,2.278,2.25,4.125,2.25,4.125s2.25-1.847,2.25-4.125-2.25-4.125-2.25-4.125S9.734,4.862,9.734,7.141Z"/><path class="cls-1" d="M10.382,9.88c1.856,1.856,1.6,5.12,1.6,5.12s-3.263.254-5.12-1.6-1.6-5.12-1.6-5.12S8.525,8.024,10.382,9.88Z"/><path class="cls-1" d="M13.587,9.88c-1.856,1.856-1.6,5.12-1.6,5.12s3.264.254,5.12-1.6,1.6-5.12,1.6-5.12S15.444,8.024,13.587,9.88Z"/><path class="cls-1" d="M10.382,16.63c1.856,1.856,1.6,5.12,1.6,5.12s-3.263.254-5.12-1.6-1.6-5.12-1.6-5.12S8.525,14.774,10.382,16.63Z"/><path class="cls-1" d="M13.587,16.63c-1.856,1.856-1.6,5.12-1.6,5.12s3.264.254,5.12-1.6,1.6-5.12,1.6-5.12S15.444,14.774,13.587,16.63Z"/><line class="cls-1" x1="11.984" y1="21.75" x2="11.984" y2="23.25"/><line class="cls-1" x1="5.262" y1="8.277" x2="5.262" y2="5.277"/><line class="cls-1" x1="18.707" y1="8.277" x2="18.707" y2="5.277"/><line class="cls-1" x1="11.984" y1="3.016" x2="11.984" y2="0.766"/></svg>