<svg id="Regular" xmlns="http://www.w3.org/2000/svg" viewBox="0 0 24 24"><defs><style>.cls-1{fill:none;stroke:currentColor;stroke-linecap:round;stroke-linejoin:round;stroke-width:1.5px;}</style></defs><title>farming-grow-crops</title><path class="cls-1" d="M15,12.326c.168.014.3.014.375.014a4.638,4.638,0,0,0,3.375-1.5,5.511,5.511,0,0,0,4.5,1.5"/><path class="cls-1" d="M.75,12.34a5.511,5.511,0,0,0,4.5-1.5,4.638,4.638,0,0,0,3.375,1.5c.079,0,.207,0,.375-.014"/><path class="cls-1" d="M12.612,7.644s1.323,2,3.055,1.606c3.513-.792,2.654-5.487,3.736-7.327a7.855,7.855,0,0,0-7.059.993C10.638,4.2,10.739,5.971,12.612,7.644Z"/><path class="cls-1" d="M15,4.84s-3.75,3.75-3,11.25"/><path class="cls-1" d="M13.5,18.34l4.111,3.6a3,3,0,0,0,3.849.085l1.79-1.432-1.79-1.432a3,3,0,0,0-3.849.085L13.5,22.84"/><path class="cls-1" d="M.75,16.09l4.111,3.6a3,3,0,0,0,3.849.085L10.5,18.34,8.71,16.908a3,3,0,0,0-3.849.085L.75,20.59"/></svg>