<svg id="Regular" xmlns="http://www.w3.org/2000/svg" viewBox="0 0 24 24"><defs><style>.cls-1{fill:none;stroke:currentColor;stroke-linecap:round;stroke-linejoin:round;stroke-width:1.5px;}</style></defs><title>farmer&amp;apos;s-market-kiosk</title><path class="cls-1" d="M21.148.75H2.852a.751.751,0,0,0-.733.587L.75,6a2.25,2.25,0,0,0,4.5,0,2.25,2.25,0,0,0,4.5,0,2.25,2.25,0,0,0,4.5,0,2.25,2.25,0,0,0,4.5,0,2.25,2.25,0,0,0,4.5,0L21.881,1.337A.751.751,0,0,0,21.148.75Z"/><line class="cls-1" x1="2.25" y1="10.5" x2="2.25" y2="23.25"/><line class="cls-1" x1="21.75" y1="10.5" x2="21.75" y2="23.25"/><line class="cls-1" x1="21.75" y1="19.5" x2="2.25" y2="19.5"/><circle class="cls-1" cx="7.5" cy="17.25" r="2.25"/><line class="cls-1" x1="7.5" y1="15" x2="9" y2="12.75"/><circle class="cls-1" cx="12" cy="17.25" r="2.25"/><line class="cls-1" x1="12" y1="15" x2="13.5" y2="12.75"/><circle class="cls-1" cx="16.5" cy="17.25" r="2.25"/><line class="cls-1" x1="16.5" y1="15" x2="18" y2="12.75"/></svg>