<svg id="Regular" xmlns="http://www.w3.org/2000/svg" viewBox="0 0 24 24"><defs><style>.cls-1{fill:none;stroke:currentColor;stroke-linecap:round;stroke-linejoin:round;stroke-width:1.5px;}</style></defs><title>farming-barn-2</title><rect class="cls-1" x="2.25" y="11.25" width="19.5" height="12"/><path class="cls-1" d="M7.75,14.25h8.5a1,1,0,0,1,1,1v8a0,0,0,0,1,0,0H6.75a0,0,0,0,1,0,0v-8A1,1,0,0,1,7.75,14.25Z"/><path class="cls-1" d="M21.75,11.25h1.5l-3.5-6.99a1.5,1.5,0,0,0-.785-.722L12.557.973a1.5,1.5,0,0,0-1.114,0L5.029,3.538a1.5,1.5,0,0,0-.784.722L.75,11.25h1.5"/><polygon class="cls-1" points="14.25 8.25 9.75 8.25 9.75 5.25 12 4.5 14.25 5.25 14.25 8.25"/><line class="cls-1" x1="7.5" y1="23.25" x2="16.475" y2="14.275"/><line class="cls-1" x1="16.5" y1="23.25" x2="7.525" y2="14.275"/></svg>