<svg id="Regular" xmlns="http://www.w3.org/2000/svg" viewBox="0 0 24 24"><defs><style>.cls-1{fill:none;stroke:currentColor;stroke-linecap:round;stroke-linejoin:round;stroke-width:1.5px;}</style></defs><title>farming-farmer</title><path class="cls-1" d="M15.75.75v3a3,3,0,0,0,6,0v-3"/><line class="cls-1" x1="18.75" y1="0.75" x2="18.75" y2="23.25"/><circle class="cls-1" cx="7.5" cy="3.75" r="3"/><path class="cls-1" d="M5.25,21a2.25,2.25,0,0,0,4.5,0V17.25a1.5,1.5,0,0,0,1.5-1.5v-4.5a3,3,0,0,0-3-3H6.75a3,3,0,0,0-3,3v4.5a1.5,1.5,0,0,0,1.5,1.5Z"/><line class="cls-1" x1="2.25" y1="3.75" x2="12.75" y2="3.75"/></svg>