<svg id="Regular" xmlns="http://www.w3.org/2000/svg" viewBox="0 0 24 24"><defs><style>.cls-1{fill:none;stroke:currentColor;stroke-linecap:round;stroke-linejoin:round;stroke-width:1.5px;}</style></defs><title>farming-farmer-work</title><circle class="cls-1" cx="13.5" cy="3.75" r="3"/><line class="cls-1" x1="9" y1="6.455" x2="18" y2="1.046"/><path class="cls-1" d="M21.837,10.011a1.506,1.506,0,0,0-2.08.4C19.747,10.427,18.63,12,17.25,12a3.751,3.751,0,0,1-2.506-1.589l-.023.016A1.475,1.475,0,0,0,13.5,9.75a1.5,1.5,0,0,0-1.5,1.5V15L7.729,20.955a1.5,1.5,0,1,0,2.543,1.591L13.5,17.38l3.229,5.166a1.5,1.5,0,1,0,2.543-1.591L15,15v-.55a5.081,5.081,0,0,0,2.25.55c3.018,0,4.919-2.8,5-2.917A1.5,1.5,0,0,0,21.837,10.011Z"/><line class="cls-1" x1="21.022" y1="9.757" x2="3.75" y2="9.75"/><path class="cls-1" d="M6,14.25H2.25a.75.75,0,0,1-.75-.75v-3a.75.75,0,0,1,.75-.75h1.5Z"/></svg>