<svg id="Regular" xmlns="http://www.w3.org/2000/svg" viewBox="0 0 24 24"><defs><style>.cls-1{fill:none;stroke:currentColor;stroke-linecap:round;stroke-linejoin:round;stroke-width:1.5px;}</style></defs><title>farming-barn-silo</title><path class="cls-1" d="M10.719,5.2A5.251,5.251,0,0,0,.75,7.5V23.25h3"/><line class="cls-1" x1="0.75" y1="12.75" x2="3.75" y2="12.75"/><line class="cls-1" x1="0.75" y1="8.25" x2="9" y2="8.25"/><polyline class="cls-1" points="21.75 15 21.75 23.25 6.75 23.25 6.75 15"/><path class="cls-1" d="M5.25,16.5l7.939-7.939a1.5,1.5,0,0,1,2.122,0L23.25,16.5"/><path class="cls-1" d="M14.25,12.375a.375.375,0,0,1,.375.375"/><path class="cls-1" d="M13.875,12.75a.375.375,0,0,1,.375-.375"/><path class="cls-1" d="M14.25,13.125a.375.375,0,0,1-.375-.375"/><path class="cls-1" d="M14.625,12.75a.375.375,0,0,1-.375.375"/><path class="cls-1" d="M17.25,17.25h-6a1.5,1.5,0,0,0-1.5,1.5v4.5h9v-4.5A1.5,1.5,0,0,0,17.25,17.25Z"/></svg>