<svg id="Regular" xmlns="http://www.w3.org/2000/svg" viewBox="0 0 24 24"><defs><style>.cls-1,.cls-2{fill:none;stroke:currentColor;stroke-linecap:round;stroke-linejoin:round;stroke-width:1.5px;}.cls-2{stroke-dasharray:1.046 2.091;}</style></defs><title>farming-hay</title><circle class="cls-1" cx="8.25" cy="8.597" r="6.75"/><path class="cls-2" d="M10.11,11.82A3.788,3.788,0,0,0,11.3,10.815"/><path class="cls-2" d="M5.762,11.361a3.752,3.752,0,0,0,1.321.827"/><path class="cls-2" d="M4.85,7.084A3.716,3.716,0,0,0,4.474,8.6"/><path class="cls-2" d="M8.639,4.894a3.723,3.723,0,0,0-1.555.113"/><path class="cls-2" d="M11.892,7.823A3.733,3.733,0,0,0,11.3,6.38"/><path class="cls-1" d="M8.25,1.847H15a6.75,6.75,0,0,1,0,13.5H8.25"/><line class="cls-1" x1="0.75" y1="15.347" x2="23.25" y2="15.347"/><path class="cls-1" d="M.75,19.1l1.607,2.636a.75.75,0,0,0,1.286,0L5.25,19.1"/><path class="cls-1" d="M9.75,19.1l1.607,2.636a.75.75,0,0,0,1.286,0L14.25,19.1"/><path class="cls-1" d="M18.75,19.1l1.607,2.636a.75.75,0,0,0,1.286,0L23.25,19.1"/></svg>