<svg id="Regular" xmlns="http://www.w3.org/2000/svg" viewBox="0 0 24 24"><defs><style>.cls-1{fill:none;stroke:currentColor;stroke-linecap:round;stroke-linejoin:round;stroke-width:1.5px;}</style></defs><title>farming-scarecrow</title><path class="cls-1" d="M13.5,5.25a3,3,0,0,1-6,0V3.75h6Z"/><path class="cls-1" d="M13.5,3.75h-6l.466-1.864A1.5,1.5,0,0,1,9.421.75h2.158a1.5,1.5,0,0,1,1.455,1.136Z"/><line class="cls-1" x1="5.25" y1="3.75" x2="15.75" y2="3.75"/><path class="cls-1" d="M13.5,9.75h-6A1.5,1.5,0,0,0,6,11.25v3H7.5v4.5h6v-4.5H15v-3A1.5,1.5,0,0,0,13.5,9.75Z"/><line class="cls-1" x1="6" y1="11.25" x2="2.25" y2="11.25"/><line class="cls-1" x1="15" y1="11.25" x2="18.75" y2="11.25"/><line class="cls-1" x1="10.5" y1="18.75" x2="10.5" y2="23.25"/></svg>