<svg id="Regular" xmlns="http://www.w3.org/2000/svg" viewBox="0 0 24 24"><defs><style>.cls-1{fill:none;stroke:currentColor;stroke-linecap:round;stroke-linejoin:round;stroke-width:1.5px;}</style></defs><title>farming-barn</title><polyline class="cls-1" points="20.25 10.55 20.25 23.25 3.75 23.25 3.75 10.55"/><path class="cls-1" d="M11.113,1.4,1.056,8.775A.753.753,0,0,0,.75,9.38v1.89a.751.751,0,0,0,1.194.605L12,4.5l10.056,7.375a.751.751,0,0,0,1.194-.605V9.38a.753.753,0,0,0-.306-.605L12.887,1.4A1.5,1.5,0,0,0,11.113,1.4Z"/><line class="cls-1" x1="0.75" y1="23.25" x2="23.25" y2="23.25"/><rect class="cls-1" x="6.75" y="14.25" width="10.5" height="9"/><line class="cls-1" x1="6.75" y1="14.25" x2="17.25" y2="23.25"/><line class="cls-1" x1="17.25" y1="14.25" x2="6.75" y2="23.25"/><path class="cls-1" d="M12,9.375a.375.375,0,0,1,.375.375"/><path class="cls-1" d="M11.625,9.75A.375.375,0,0,1,12,9.375"/><path class="cls-1" d="M12,10.125a.375.375,0,0,1-.375-.375"/><path class="cls-1" d="M12.375,9.75a.375.375,0,0,1-.375.375"/></svg>