<svg id="Regular" xmlns="http://www.w3.org/2000/svg" viewBox="0 0 24 24"><defs><style>.cls-1{fill:none;stroke:currentColor;stroke-linecap:round;stroke-linejoin:round;stroke-width:1.5px;}</style></defs><title>farming-milk-cow</title><path class="cls-1" d="M1.39,1.124A11.265,11.265,0,0,0,4.5,5.76v6.221a1.7,1.7,0,0,0,3.337.439L8.964,8.21A11.223,11.223,0,0,0,12,8.626a11.225,11.225,0,0,0,3.037-.416l1.127,4.21a1.7,1.7,0,0,0,3.336-.439V5.76a11.265,11.265,0,0,0,3.11-4.634"/><line class="cls-1" x1="6" y1="16.876" x2="6" y2="18.376"/><line class="cls-1" x1="6" y1="21.376" x2="6" y2="22.876"/><line class="cls-1" x1="18" y1="16.876" x2="18" y2="18.376"/><line class="cls-1" x1="18" y1="21.376" x2="18" y2="22.876"/></svg>