<svg id="Regular" xmlns="http://www.w3.org/2000/svg" viewBox="0 0 24 24"><defs><style>.cls-1{fill:none;stroke:currentColor;stroke-linecap:round;stroke-linejoin:round;stroke-width:1.5px;}</style></defs><title>farming-sell-vegetable</title><path class="cls-1" d="M18.75,14.25H16.717a1.342,1.342,0,0,0-.5,2.587l2.064.826a1.342,1.342,0,0,1-.5,2.587H15.75"/><line class="cls-1" x1="17.25" y1="14.25" x2="17.25" y2="13.5"/><line class="cls-1" x1="17.25" y1="21" x2="17.25" y2="20.25"/><circle class="cls-1" cx="17.25" cy="17.25" r="6"/><path class="cls-1" d="M11.185,6.664A4.95,4.95,0,0,0,9.8,4.669,4.95,4.95,0,0,0,7.8,3.279a1.657,1.657,0,0,0-2.035.853S2.173,9.8.839,12.515a.829.829,0,0,0,1.11,1.11C4.663,12.291,10.332,8.7,10.332,8.7A1.656,1.656,0,0,0,11.185,6.664Z"/><line class="cls-1" x1="9.795" y1="4.669" x2="12.113" y2="2.351"/><line class="cls-1" x1="10.582" y1="5.535" x2="13.714" y2="4.54"/><line class="cls-1" x1="8.929" y1="3.882" x2="9.924" y2="0.75"/><path class="cls-1" d="M9,21.28A9.779,9.779,0,0,1,3.348,16.5"/><path class="cls-1" d="M16.491,3.344a9.778,9.778,0,0,1,4.791,5.663"/></svg>