<svg id="Regular" xmlns="http://www.w3.org/2000/svg" viewBox="0 0 24 24"><defs><style>.cls-1{fill:none;stroke:currentColor;stroke-linecap:round;stroke-linejoin:round;stroke-width:1.5px;}</style></defs><title>fast-food-burger</title><path class="cls-1" d="M6.375,7.126A.375.375,0,1,1,6,7.5a.374.374,0,0,1,.375-.375"/><path class="cls-1" d="M10.4,8.251a.375.375,0,1,1-.375.375.374.374,0,0,1,.375-.375"/><path class="cls-1" d="M17.625,8.251a.375.375,0,1,1-.375.375.374.374,0,0,1,.375-.375"/><path class="cls-1" d="M14.152,6.751a.375.375,0,1,1-.375.375.374.374,0,0,1,.375-.375"/><rect class="cls-1" x="0.75" y="11.251" width="22.5" height="4.5" rx="2.25" ry="2.25"/><path class="cls-1" d="M21.75,11.38V9.94a6.189,6.189,0,0,0-6.19-6.189H8.44A6.189,6.189,0,0,0,2.25,9.94v1.44"/><path class="cls-1" d="M21.75,15.623v1.628a3,3,0,0,1-3,3H5.25a3,3,0,0,1-3-3V15.623"/></svg>