<svg id="Regular" xmlns="http://www.w3.org/2000/svg" viewBox="0 0 24 24"><defs><style>.cls-1{fill:none;stroke:currentColor;stroke-linecap:round;stroke-linejoin:round;stroke-width:1.5px;}</style></defs><title>fast-food-wrap</title><path class="cls-1" d="M18.344,13.03a2.961,2.961,0,0,0,3.517-.352,2.9,2.9,0,0,0,.227-3.8,2.781,2.781,0,0,0,.344-.285,2.911,2.911,0,0,0,0-4.081,2.824,2.824,0,0,0-2.047-.845A2.9,2.9,0,0,0,19.548,1.6a2.822,2.822,0,0,0-4.028,0,2.824,2.824,0,0,0-.282.35,2.811,2.811,0,0,0-3.746.229,2.925,2.925,0,0,0-.535,3.471"/><path class="cls-1" d="M10.957,5.643l3.25,9.413a2.975,2.975,0,0,1-3.41,3.732L.74,16.252"/><path class="cls-1" d="M10.957,5.643l-10,10a.745.745,0,0,0,0,1.054l6.332,6.331a.744.744,0,0,0,1.054,0l10-10L13,11.568"/><path class="cls-1" d="M17.788,8.432a3.728,3.728,0,0,0-1.034-3.31,3.786,3.786,0,0,0-5.8.521"/><path class="cls-1" d="M18.344,13.03a2.775,2.775,0,0,0,.125-4.087,2.977,2.977,0,0,0-5.017,2.748"/><path class="cls-1" d="M9.361,11.251a.375.375,0,1,1-.375.375.375.375,0,0,1,.375-.375"/><path class="cls-1" d="M9.361,15a.375.375,0,1,1-.375.375A.375.375,0,0,1,9.361,15"/></svg>