<svg id="Regular" xmlns="http://www.w3.org/2000/svg" viewBox="0 0 24 24"><defs><style>.cls-1{fill:none;stroke:currentColor;stroke-linecap:round;stroke-linejoin:round;stroke-width:1.5px;}</style></defs><title>fast-food-pretzel</title><path class="cls-1" d="M21.771,15.028A10.776,10.776,0,0,0,23.25,9.783a6.723,6.723,0,0,0-4.3-6.5C16.659,2.5,14.163,3.2,12,5.153,9.836,3.2,7.338,2.5,5.053,3.284a6.723,6.723,0,0,0-4.3,6.5,10.776,10.776,0,0,0,1.479,5.245l-.93.93a1.875,1.875,0,0,0,2.652,2.651l.616-.616A10.873,10.873,0,0,0,12,21.033a10.873,10.873,0,0,0,7.433-3.04l.616.616A1.875,1.875,0,0,0,22.7,15.958Zm-4.041-8.2A3,3,0,0,1,19.5,9.783a6.458,6.458,0,0,1-.527,2.447L14.6,7.852A3.238,3.238,0,0,1,17.73,6.831ZM4.5,9.783A3,3,0,0,1,6.27,6.831c.8-.275,1.871-.094,3.131,1.025L5.027,12.23A6.458,6.458,0,0,1,4.5,9.783Zm7.5,7.5a7.179,7.179,0,0,1-4.773-1.951L12,10.56l4.773,4.772A7.179,7.179,0,0,1,12,17.283Z"/></svg>