<svg id="Regular" xmlns="http://www.w3.org/2000/svg" viewBox="0 0 24 24"><defs><style>.cls-1{fill:none;stroke:currentColor;stroke-linecap:round;stroke-linejoin:round;stroke-width:1.5px;}</style></defs><title>fast-food-burger-drink</title><polyline class="cls-1" points="6.75 23.251 3 23.251 0.75 6.751 13.5 6.751 13.134 9.434"/><polyline class="cls-1" points="6 17.251 8.25 0.751 12.75 1.501"/><path class="cls-1" d="M11.25,20.251h10.5v1.5a1.5,1.5,0,0,1-1.5,1.5h-7.5a1.5,1.5,0,0,1-1.5-1.5Z"/><path class="cls-1" d="M14.25,12.751h4.5a3,3,0,0,1,3,3v1.5H11.25v-1.5A3,3,0,0,1,14.25,12.751Z"/><rect class="cls-1" x="9.75" y="17.251" width="13.5" height="3" rx="1.5" ry="1.5"/></svg>