<svg id="Regular" xmlns="http://www.w3.org/2000/svg" viewBox="0 0 24 24"><defs><style>.cls-1{fill:none;stroke:currentColor;stroke-linecap:round;stroke-linejoin:round;stroke-width:1.5px;}</style></defs><title>fast-food-pizza</title><path class="cls-1" d="M11.625,13.5l.632-9.073a.635.635,0,0,0-.632-.677,9.775,9.775,0,1,0,9.121,6.325.753.753,0,0,0-1.023-.412Z"/><path class="cls-1" d="M14.625,9l7.5-3.75a7.212,7.212,0,0,0-6-4.5Z"/><path class="cls-1" d="M20.022,6.3a7.041,7.041,0,0,0-4.347-3.075"/><path class="cls-1" d="M17.726,10.61a7.006,7.006,0,0,1,.649,2.891A6.75,6.75,0,1,1,12,6.761l.095.007"/><path class="cls-1" d="M9,11.251a.375.375,0,1,1-.375.375A.374.374,0,0,1,9,11.251"/><path class="cls-1" d="M9,15a.375.375,0,1,1-.375.375A.374.374,0,0,1,9,15"/><path class="cls-1" d="M14.25,15.751a.375.375,0,1,1-.375.375.374.374,0,0,1,.375-.375"/></svg>