<svg id="Regular" xmlns="http://www.w3.org/2000/svg" viewBox="0 0 24 24"><defs><style>.cls-1{fill:none;stroke:currentColor;stroke-linecap:round;stroke-linejoin:round;stroke-width:1.5px;}</style></defs><title>fast-food-french-fries</title><line class="cls-1" x1="2.731" y1="18.33" x2="21.269" y2="18.33"/><path class="cls-1" d="M8.739,14.844,7.057,2.307a.754.754,0,0,1,.669-.84l2.309-.29a.771.771,0,0,1,.869.647L12.728,15.4"/><path class="cls-1" d="M3.267,9.331,2.459,5.836a.745.745,0,0,1,.48-.875L7.2,3.4"/><path class="cls-1" d="M14.643,14.9,16.334,2.307a.754.754,0,0,0-.669-.84l-2.308-.29a.772.772,0,0,0-.87.647L11.7,7.717"/><path class="cls-1" d="M20.125,9.33l.807-3.494a.745.745,0,0,0-.48-.875L16.188,3.4"/><path class="cls-1" d="M23.07,9.626a.829.829,0,0,0-.638-.3H19.4a.765.765,0,0,0-.765.635,6.713,6.713,0,0,1-6.871,5.5,6.712,6.712,0,0,1-6.87-5.5.767.767,0,0,0-.766-.635H1.568a.829.829,0,0,0-.638.3.769.769,0,0,0-.16.667L3.678,22.211a.812.812,0,0,0,.8.619H19.524a.812.812,0,0,0,.8-.619l2.909-11.918A.776.776,0,0,0,23.07,9.626Z"/></svg>