<svg id="Regular" xmlns="http://www.w3.org/2000/svg" viewBox="0 0 24 24"><defs><style>.cls-1{fill:none;stroke:currentColor;stroke-linecap:round;stroke-linejoin:round;stroke-width:1.5px;}</style></defs><title>fast-food-hot-dog</title><path class="cls-1" d="M21.359,6.14l.27.27a4.294,4.294,0,0,1-.016,6.072l-9.131,9.132a4.294,4.294,0,0,1-6.073.015l-.27-.27"/><path class="cls-1" d="M2.641,17.861l-.27-.27a4.294,4.294,0,0,1,.016-6.072l9.131-9.132a4.294,4.294,0,0,1,6.073-.015l.27.27"/><rect class="cls-1" x="-0.197" y="9.145" width="24.393" height="5.71" rx="2.855" ry="2.855" transform="translate(-4.971 12) rotate(-45)"/><path class="cls-1" d="M6.417,18.593,6.74,17a1.442,1.442,0,0,1,1.126-1.126l.659-.133A1.44,1.44,0,0,0,9.65,14.613l.134-.659a1.442,1.442,0,0,1,1.125-1.126l.66-.133a1.442,1.442,0,0,0,1.125-1.126l.134-.659a1.44,1.44,0,0,1,1.125-1.126l.659-.133a1.442,1.442,0,0,0,1.126-1.126l.134-.659A1.437,1.437,0,0,1,17,6.741l1.595-.323"/></svg>