<svg id="Regular" xmlns="http://www.w3.org/2000/svg" viewBox="0 0 24 24"><defs><style>.cls-1{fill:none;stroke:#000;stroke-linecap:round;stroke-linejoin:round;stroke-width:1.5px;}</style></defs><title>feed-sina-weibo</title><path class="cls-1" d="M9.51,14.52h0c-.1.35.44.39.53.07a.23.23,0,0,0-.22-.29m0,0a.31.31,0,0,0-.31.21M8.33,17.06a1,1,0,0,0-1.07-1.23,1.41,1.41,0,0,0-1.33,1A1,1,0,0,0,7,18.07a1.37,1.37,0,0,0,1.33-1ZM19,12.65a4.51,4.51,0,0,0-1.18-.58c-.43-.16-.5-.24-.32-.66a3.77,3.77,0,0,0,.27-.93c.26-1.61-1-2.14-2.53-2.07a8.06,8.06,0,0,0-1.92.36c-.4.11-1.15.5-1.3.24s0-.32.07-.45c.27-.87.4-2.09-.44-2.66a3.14,3.14,0,0,0-2.39-.14C5.57,6.83-.1,11.8.86,16a4.79,4.79,0,0,0,1.19,2.19A10.72,10.72,0,0,0,7.9,21a15,15,0,0,0,4.75.09,10.54,10.54,0,0,0,6.71-3.42c1.11-1.33,1.52-3.25.17-4.55a4.63,4.63,0,0,0-.58-.47Z"/><path class="cls-1" d="M15.15,3a6.36,6.36,0,0,1,8.1,6.35,6.44,6.44,0,0,1-.12,1"/><path class="cls-1" d="M16.44,5.93a2.94,2.94,0,0,1,3.64,3.83"/><path class="cls-1" d="M14.78,13.59a9.28,9.28,0,0,0-7.59-.91,7.1,7.1,0,0,0-3.31,2,3.2,3.2,0,0,0-.47,3.92c1.27,2.06,4.39,2.55,7.9,2.42a6.75,6.75,0,0,0,4.83-3.09,3.34,3.34,0,0,0-1.35-4.31Z"/></svg>