<svg id="Regular" xmlns="http://www.w3.org/2000/svg" viewBox="0 0 24 24"><defs><style>.cls-1{fill:none;stroke:#000;stroke-linecap:round;stroke-linejoin:round;stroke-width:1.5px;}</style></defs><title>feed-medium</title><path class="cls-1" d="M7.6,5.82V21a.49.49,0,0,1-.71.44L1,18.18a.49.49,0,0,1-.27-.44V3.19a.49.49,0,0,1,.71-.44Z"/><line class="cls-1" x1="15.91" y1="17.56" x2="7.6" y2="5.82"/><polyline class="cls-1" points="23.2 5.91 21.42 8.76 15.67 17.96"/><path class="cls-1" d="M7.6,13.89l14.95,7.53a.49.49,0,0,0,.7-.44V6.13A.49.49,0,0,0,23,5.69L16.29,2.57a.49.49,0,0,0-.61.17l-5.06,7.35"/></svg>