<svg id="Regular" xmlns="http://www.w3.org/2000/svg" viewBox="0 0 24 24"><defs><style>.cls-1{fill:none;stroke:#000;stroke-linecap:round;stroke-linejoin:round;stroke-width:1.5px;}</style></defs><title>feed-dailybooth</title><path id="Dailybooth" class="cls-1" d="M12,23.25a11.25,11.25,0,1,1,9.39-5.06h0l1.65,4-3.95-1.43A11.21,11.21,0,0,1,12,23.25ZM5.77,9.07a1.06,1.06,0,0,0-.71,1.32l1.53,6.52a1.07,1.07,0,0,0,1.23.86l10.52-2.47A1.06,1.06,0,0,0,19,14L17.51,7.47a1.06,1.06,0,0,0-1.23-.87L14,7.14a4,4,0,0,0-5.9,1.39l-2.34.55Zm6.45,5a2,2,0,1,1,2-2,2,2,0,0,1-2,2Z"/></svg>