<svg id="Regular" xmlns="http://www.w3.org/2000/svg" viewBox="0 0 24 24"><defs><style>.cls-1{fill:none;stroke:#000;stroke-linecap:round;stroke-linejoin:round;stroke-width:1.5px;}</style></defs><title>feed-drupal</title><path class="cls-1" d="M21.72,13.53a9.72,9.72,0,1,1-19.45,0c0-6.86,8.53-9.77,9.34-12.78C12.64,3.73,21.72,5.56,21.72,13.53Z"/><path class="cls-1" d="M9.48,11.67c1.8,0,3.7,2.17,4.74,2.17s3.07-1.77,4.14-1.77,1.53,3.67-.6,5.27c-.94.17-2.77-2.4-3.54-2.4S10.43,17.51,9,17.51C4.91,17.51,5.69,11.67,9.48,11.67Z"/><path class="cls-1" d="M12.93,18.4a1.92,1.92,0,0,1,1.5-.72,1.21,1.21,0,0,1,.93.58"/><path class="cls-1" d="M10.88,19.92a4.15,4.15,0,0,0,4.52.33"/></svg>