<svg id="Regular" xmlns="http://www.w3.org/2000/svg" viewBox="0 0 24 24"><defs><style>.cls-1{fill:none;stroke:#000;stroke-linecap:round;stroke-linejoin:round;stroke-width:1.5px;}</style></defs><title>feed-squidoo</title><path id="Squidoo" class="cls-1" d="M19.4,18.58a1.42,1.42,0,0,1-1.69,1.07,1.53,1.53,0,0,1,.87-2.9A1.43,1.43,0,0,1,19.4,18.58ZM16.3,23.19a4.81,4.81,0,0,1-4-4c-.23-1.27,0-2.21-.8-2.52-1.24-.47-9,3.07-9.14-3.41-.05-2,1.39-4.35-.6-5.25.84.18,1.54.36,1.91,1.11,1.26,2.54-.49,5.76,4.51,5.33a16.64,16.64,0,0,1,2.51-.4c-.69-.94-3.6-.89-4.81-3.25-1.35-2.63.5-5.68-4.09-5.94a3.46,3.46,0,0,1,3.87.06c1.32,1,1,3,2.21,4.38A4.46,4.46,0,0,0,9.76,10.4a7.64,7.64,0,0,0,2.41.6c-.38-2-2-3.3-3.56-4.75C7.42,5.16,6.76,3.45,6.95.78c1.29,3.72,5.63,3.13,7.64,9.42.61-.34,1.71-2.68.52-4s-3.24-2-2.69-5c.94,2.8,2.28,2.14,4.12,3.22a3.38,3.38,0,0,1,1.59,3.07c0,1.74-1.33,2.9-1,4.9,1.73.47,2.61.51,3.52,1.31,3.58,3.11,1,10.06-4.32,9.47Z"/></svg>