<svg xmlns="http://www.w3.org/2000/svg" viewBox="0 0 24 24"><defs><style>.a{fill:none;stroke:currentColor;stroke-linecap:round;stroke-linejoin:round;stroke-width:1.5px;}</style></defs><title>file-zip</title><path class="a" d="M11.249,15.748h1.892a.75.75,0,0,1,.7,1.029L11.66,22.22a.749.749,0,0,0,.7,1.028h1.892"/><line class="a" x1="17.249" y1="23.248" x2="17.249" y2="15.748"/><line class="a" x1="20.249" y1="23.248" x2="20.249" y2="15.748"/><path class="a" d="M20.249,15.748H21a2.25,2.25,0,0,1,0,4.5h-.75"/><path class="a" d="M8.249,23.248h-6a1.5,1.5,0,0,1-1.5-1.5V2.248a1.5,1.5,0,0,1,1.5-1.5H12.877a1.5,1.5,0,0,1,1.061.439l5.871,5.872a1.5,1.5,0,0,1,.44,1.06v4.629"/><path class="a" d="M20.249,8.248h-6a1.5,1.5,0,0,1-1.5-1.5v-6"/></svg>