<svg xmlns="http://www.w3.org/2000/svg" viewBox="0 0 24 24"><defs><style>.a{fill:none;stroke:currentColor;stroke-linecap:round;stroke-linejoin:round;stroke-width:1.5px;}</style></defs><title>file-rar-1</title><line class="a" x1="4.496" y1="19.498" x2="4.496" y2="11.998"/><path class="a" d="M4.5,12H5.621a1.875,1.875,0,0,1,0,3.75H4.5"/><line class="a" x1="7.496" y1="19.498" x2="5.246" y2="15.748"/><line class="a" x1="16.496" y1="19.498" x2="16.496" y2="11.998"/><path class="a" d="M16.5,12h1.125a1.875,1.875,0,0,1,0,3.75H16.5"/><line class="a" x1="19.496" y1="19.498" x2="17.246" y2="15.748"/><path class="a" d="M10.5,19.5v-6a1.5,1.5,0,0,1,3,0v6"/><line class="a" x1="10.496" y1="16.498" x2="13.496" y2="16.498"/><path class="a" d="M22.807,5.559a1.5,1.5,0,0,1,.439,1.06V21A2.25,2.25,0,0,1,21,23.248H3A2.25,2.25,0,0,1,.746,21V3A2.25,2.25,0,0,1,3,.748H17.375a1.5,1.5,0,0,1,1.061.439Z"/><path class="a" d="M17.246.748v4.5a1.5,1.5,0,0,0,1.5,1.5h4.5"/></svg>