<svg xmlns="http://www.w3.org/2000/svg" viewBox="0 0 24 24"><defs><style>.a{fill:none;stroke:currentColor;stroke-linecap:round;stroke-linejoin:round;stroke-width:1.5px;}</style></defs><title>file-rar</title><line class="a" x1="8.248" y1="23.248" x2="8.248" y2="15.748"/><path class="a" d="M8.248,15.748H9.373a1.875,1.875,0,0,1,0,3.75H8.248"/><line class="a" x1="11.248" y1="23.248" x2="8.998" y2="19.498"/><line class="a" x1="20.248" y1="23.248" x2="20.248" y2="15.748"/><path class="a" d="M20.248,15.748h1.125a1.875,1.875,0,0,1,0,3.75H20.248"/><line class="a" x1="23.248" y1="23.248" x2="20.998" y2="19.498"/><path class="a" d="M14.248,23.248v-6a1.5,1.5,0,0,1,3,0v6"/><line class="a" x1="14.248" y1="20.248" x2="17.248" y2="20.248"/><path class="a" d="M5.248,23.248h-3a1.5,1.5,0,0,1-1.5-1.5V2.248a1.5,1.5,0,0,1,1.5-1.5H12.877a1.5,1.5,0,0,1,1.06.439l5.872,5.872a1.5,1.5,0,0,1,.439,1.06v4.629"/><path class="a" d="M20.248,8.248h-6a1.5,1.5,0,0,1-1.5-1.5v-6"/></svg>