<svg id="Regular" xmlns="http://www.w3.org/2000/svg" viewBox="0 0 24 24"><defs><style>.cls-1{fill:none;stroke:currentColor;stroke-linecap:round;stroke-linejoin:round;stroke-width:1.5px;}</style></defs><title>fireworks-stick</title><path class="cls-1" d="M4.125,3.75a.375.375,0,0,1,.375.375"/><path class="cls-1" d="M3.75,4.125a.375.375,0,0,1,.375-.375"/><path class="cls-1" d="M4.125,4.5a.375.375,0,0,1-.375-.375"/><path class="cls-1" d="M4.5,4.125a.375.375,0,0,1-.375.375"/><path class="cls-1" d="M22.125,9a.375.375,0,0,1,.375.375"/><path class="cls-1" d="M21.75,9.375A.375.375,0,0,1,22.125,9"/><path class="cls-1" d="M22.125,9.75a.375.375,0,0,1-.375-.375"/><path class="cls-1" d="M22.5,9.375a.375.375,0,0,1-.375.375"/><path class="cls-1" d="M10.875,19.5a.375.375,0,0,1,.375.375"/><path class="cls-1" d="M10.5,19.875a.375.375,0,0,1,.375-.375"/><path class="cls-1" d="M10.875,20.25a.375.375,0,0,1-.375-.375"/><path class="cls-1" d="M11.25,19.875a.375.375,0,0,1-.375.375"/><circle class="cls-1" cx="9" cy="15" r="1.5"/><line class="cls-1" x1="15" y1="0.75" x2="15" y2="3.75"/><line class="cls-1" x1="16.5" y1="2.25" x2="13.5" y2="2.25"/><line class="cls-1" x1="21" y1="20.25" x2="21" y2="23.25"/><line class="cls-1" x1="22.5" y1="21.75" x2="19.5" y2="21.75"/><line class="cls-1" x1="7.939" y1="16.061" x2="0.75" y2="23.25"/><path class="cls-1" d="M14.249,12.75a5.959,5.959,0,0,1,6,.75"/><path class="cls-1" d="M11.25,9.751a5.959,5.959,0,0,0-.75-6"/><path class="cls-1" d="M15.75,8.25a4.36,4.36,0,0,1,4.5-3"/><path class="cls-1" d="M12.75,15.75s2.25,3,2.25,6"/><path class="cls-1" d="M7.5,11.25S4.5,9,1.5,9"/></svg>