<svg id="Regular" xmlns="http://www.w3.org/2000/svg" viewBox="0 0 24 24"><defs><style>.cls-1{fill:none;stroke:currentColor;stroke-linecap:round;stroke-linejoin:round;stroke-width:1.5px;}</style></defs><title>fireworks</title><path class="cls-1" d="M18.375,2.25a.375.375,0,0,1,.375.375"/><path class="cls-1" d="M18,2.625a.375.375,0,0,1,.375-.375"/><path class="cls-1" d="M18.375,3A.375.375,0,0,1,18,2.625"/><path class="cls-1" d="M18.75,2.625A.375.375,0,0,1,18.375,3"/><path class="cls-1" d="M1.875,22.5a.375.375,0,0,1,.375.375"/><path class="cls-1" d="M1.5,22.875a.375.375,0,0,1,.375-.375"/><path class="cls-1" d="M1.875,23.25a.375.375,0,0,1-.375-.375"/><path class="cls-1" d="M2.25,22.875a.375.375,0,0,1-.375.375"/><path class="cls-1" d="M22.125,17.25a.375.375,0,0,1,.375.375"/><path class="cls-1" d="M21.75,17.625a.375.375,0,0,1,.375-.375"/><path class="cls-1" d="M22.125,18a.375.375,0,0,1-.375-.375"/><path class="cls-1" d="M22.5,17.625a.375.375,0,0,1-.375.375"/><path class="cls-1" d="M12,2.25C12,2.3,12,13.5,12,13.5"/><path class="cls-1" d="M12,13.47S14.02,7.579,19.183,6.1"/><path class="cls-1" d="M12,13.47a13.059,13.059,0,0,0-7.469-7.7"/><path class="cls-1" d="M.75,12.752A15.234,15.234,0,0,1,12,13.47"/><path class="cls-1" d="M4.912,19.037S7.5,13.183,12,13.47"/><path class="cls-1" d="M23.25,12.752A15.234,15.234,0,0,0,12,13.47"/><path class="cls-1" d="M19.088,19.037S16.5,13.183,12,13.47"/><line class="cls-1" x1="3" y1="0.75" x2="3" y2="3.75"/><line class="cls-1" x1="4.5" y1="2.25" x2="1.5" y2="2.25"/><line class="cls-1" x1="12" y1="19.5" x2="12" y2="22.5"/><line class="cls-1" x1="13.5" y1="21" x2="10.5" y2="21"/></svg>