<svg id="Regular" xmlns="http://www.w3.org/2000/svg" viewBox="0 0 24 24"><defs><style>.cls-1{fill:none;stroke:currentColor;stroke-linecap:round;stroke-linejoin:round;stroke-width:1.5px;}</style></defs><title>fireworks-people-watch</title><circle class="cls-1" cx="3.375" cy="16.875" r="2.625"/><circle class="cls-1" cx="20.625" cy="16.875" r="2.625"/><circle class="cls-1" cx="12" cy="16.875" r="2.625"/><path class="cls-1" d="M7.688,23.25A4.585,4.585,0,0,0,.75,21.083"/><path class="cls-1" d="M16.313,23.25a4.584,4.584,0,0,1,6.937-2.167"/><path class="cls-1" d="M16.313,23.25a4.6,4.6,0,0,0-8.626,0"/><path class="cls-1" d="M14.25,11.25S15,7.5,18,6.75"/><line class="cls-1" x1="20.25" y1="6" x2="23.25" y2="6"/><line class="cls-1" x1="21.75" y1="4.5" x2="21.75" y2="7.5"/><path class="cls-1" d="M9.75,11.25S9,7.5,6,6.75"/><line class="cls-1" x1="3.75" y1="6" x2="0.75" y2="6"/><line class="cls-1" x1="2.25" y1="4.5" x2="2.25" y2="7.5"/><line class="cls-1" x1="10.5" y1="2.25" x2="13.5" y2="2.25"/><line class="cls-1" x1="12" y1="0.75" x2="12" y2="3.75"/><line class="cls-1" x1="12" y1="11.25" x2="12" y2="6.75"/></svg>