<svg id="Regular" xmlns="http://www.w3.org/2000/svg" viewBox="0 0 24 24"><defs><style>.cls-1{fill:none;stroke:currentColor;stroke-linecap:round;stroke-linejoin:round;stroke-width:1.5px;}</style></defs><title>fireworks-rocket</title><path class="cls-1" d="M21.034,2.183a.717.717,0,0,0-.717-.717L13.941.75a.716.716,0,0,0-.506,1.223l7.092,7.092a.716.716,0,0,0,1.223-.506Z"/><path class="cls-1" d="M9.6,3.945h7.164a0,0,0,0,1,0,0v9.747a1,1,0,0,1-1,1H10.6a1,1,0,0,1-1-1V3.945a0,0,0,0,1,0,0Z" transform="translate(10.45 -6.591) rotate(45)"/><line class="cls-1" x1="9.382" y1="13.118" x2="1.581" y2="20.919"/><path class="cls-1" d="M10.9,14.638h0a3.582,3.582,0,0,0,0,5.066h0"/><line class="cls-1" x1="18.728" y1="18.184" x2="17.208" y2="19.704"/><line class="cls-1" x1="15.182" y1="21.73" x2="13.662" y2="23.25"/><line class="cls-1" x1="18.728" y1="23.25" x2="17.208" y2="21.73"/><line class="cls-1" x1="15.182" y1="19.704" x2="13.662" y2="18.184"/></svg>