<svg id="Regular" xmlns="http://www.w3.org/2000/svg" viewBox="0 0 24 24"><defs><style>.cls-1{fill:none;stroke:currentColor;stroke-linecap:round;stroke-linejoin:round;stroke-width:1.5px;}</style></defs><title>fireplace-1</title><rect class="cls-1" x="2.25" y="7.5" width="19.5" height="12"/><path class="cls-1" d="M8.25,19.5V17.25a3.75,3.75,0,0,1,7.5,0V19.5"/><line class="cls-1" x1="2.25" y1="10.5" x2="21.75" y2="10.5"/><line class="cls-1" x1="2.25" y1="13.5" x2="6.75" y2="13.5"/><line class="cls-1" x1="5.25" y1="7.5" x2="5.25" y2="10.5"/><line class="cls-1" x1="6.75" y1="10.5" x2="6.75" y2="13.5"/><line class="cls-1" x1="9.75" y1="7.5" x2="9.75" y2="10.5"/><line class="cls-1" x1="14.25" y1="7.5" x2="14.25" y2="10.5"/><line class="cls-1" x1="15.75" y1="10.5" x2="15.75" y2="12"/><line class="cls-1" x1="18.75" y1="7.5" x2="18.75" y2="10.5"/><rect class="cls-1" x="0.75" y="4.5" width="22.5" height="3"/><line class="cls-1" x1="17.25" y1="13.5" x2="21.75" y2="13.5"/><line class="cls-1" x1="2.25" y1="16.5" x2="5.25" y2="16.5"/><line class="cls-1" x1="18.75" y1="16.5" x2="21.75" y2="16.5"/><line class="cls-1" x1="5.25" y1="16.5" x2="5.25" y2="13.5"/><line class="cls-1" x1="18.75" y1="16.5" x2="18.75" y2="13.5"/></svg>