<svg id="Regular" xmlns="http://www.w3.org/2000/svg" viewBox="0 0 24 24"><defs><style>.cls-1{fill:none;stroke:currentColor;stroke-linecap:round;stroke-linejoin:round;stroke-width:1.5px;}</style></defs><title>fishing-hook-fish-1</title><line class="cls-1" x1="0.75" y1="2.25" x2="12.75" y2="2.25"/><line class="cls-1" x1="21.75" y1="2.25" x2="23.25" y2="2.25"/><line class="cls-1" x1="17.25" y1="0.75" x2="17.25" y2="3"/><circle class="cls-1" cx="17.25" cy="4.5" r="1.5"/><path class="cls-1" d="M12.75,8.25V9a2.25,2.25,0,0,0,4.5,0V6"/><path class="cls-1" d="M.75,15s3.75,8.25,10.5,8.25c6,0,6.75-4.5,6.75-4.5s-.75-4.5-6.75-4.5C4.5,14.25.75,22.5.75,22.5"/><path class="cls-1" d="M14.25,18.375a.375.375,0,0,1,.375.375"/><path class="cls-1" d="M13.875,18.75a.375.375,0,0,1,.375-.375"/><path class="cls-1" d="M14.25,19.125a.375.375,0,0,1-.375-.375"/><path class="cls-1" d="M14.625,18.75a.375.375,0,0,1-.375.375"/></svg>