<svg id="Regular" xmlns="http://www.w3.org/2000/svg" viewBox="0 0 24 24"><defs><style>.cls-1{fill:none;stroke:currentColor;stroke-linecap:round;stroke-linejoin:round;stroke-width:1.5px;}</style></defs><title>fish-jar</title><path class="cls-1" d="M6.013,17.25S11.318,12,13.513,12a5.3,5.3,0,0,1,4.464,2.25,5.294,5.294,0,0,1-4.464,2.25c-2.2,0-7.5-5.25-7.5-5.25"/><rect class="cls-1" x="2.263" y="5.25" width="19.5" height="18" rx="3" ry="3" transform="translate(24.026 28.5) rotate(-180)"/><path class="cls-1" d="M18.013,5.25v-3a1.5,1.5,0,0,0-1.5-1.5h-9a1.5,1.5,0,0,0-1.5,1.5v3"/><line class="cls-1" x1="14.263" y1="5.25" x2="14.263" y2="0.75"/><line class="cls-1" x1="9.763" y1="5.25" x2="9.763" y2="0.75"/></svg>