<svg id="Regular" xmlns="http://www.w3.org/2000/svg" viewBox="0 0 24 24"><defs><style>.cls-1{fill:none;stroke:currentColor;stroke-linecap:round;stroke-linejoin:round;stroke-width:1.5px;}</style></defs><title>fishing-fail</title><path class="cls-1" d="M17.7,18.245c-3.726,2.615-7.451,3.876-10.9,2.964L4.554,23.25l-1.5-4.012a14.44,14.44,0,0,1-2.044-2.092,1.216,1.216,0,0,1,0-1.513c4.832-5.992,10.759-5.26,16.687-1.1l4.735-1.821a.617.617,0,0,1,.747.863L21.4,16.39,23.183,19.2a.618.618,0,0,1-.747.863Z"/><path class="cls-1" d="M5.99,14.8a.375.375,0,0,0,0,.53"/><path class="cls-1" d="M6.521,14.8a.377.377,0,0,0-.531,0"/><path class="cls-1" d="M6.521,15.328a.375.375,0,0,0,0-.53"/><path class="cls-1" d="M5.99,15.328a.375.375,0,0,0,.531,0"/><line class="cls-1" x1="7.705" y1="11.384" x2="9.789" y2="8.25"/><line class="cls-1" x1="12.266" y1="11.766" x2="14.276" y2="9.75"/><line class="cls-1" x1="23.25" y1="0.75" x2="17.25" y2="6.75"/><line class="cls-1" x1="23.25" y1="6.75" x2="17.25" y2="0.75"/></svg>