<svg id="Regular" xmlns="http://www.w3.org/2000/svg" viewBox="0 0 24 24"><defs><style>.cls-1{fill:none;stroke:currentColor;stroke-linecap:round;stroke-linejoin:round;stroke-width:1.5px;}</style></defs><title>fishing-fish</title><line class="cls-1" x1="21.75" y1="12.75" x2="21.75" y2="1.5"/><circle class="cls-1" cx="21.75" cy="14.25" r="1.5"/><path class="cls-1" d="M21.75,15.75v4.5a2.25,2.25,0,0,1-4.5,0V19.5"/><path class="cls-1" d="M12,7.5c-3.219,0-6,2.25-7.5,3.75C6,12.75,8.781,15,12,15c2.071,0,4.5-1.679,4.5-3.75S14.071,7.5,12,7.5Z"/><path class="cls-1" d="M2.03,8.78a.75.75,0,0,0-1.28.531v3.878a.75.75,0,0,0,1.28.531L4.5,11.25Z"/><path class="cls-1" d="M12.75,10.875a.375.375,0,0,1,.375.375"/><path class="cls-1" d="M12.375,11.25a.375.375,0,0,1,.375-.375"/><path class="cls-1" d="M12.75,11.625a.375.375,0,0,1-.375-.375"/><path class="cls-1" d="M13.125,11.25a.375.375,0,0,1-.375.375"/></svg>