<svg id="Regular" xmlns="http://www.w3.org/2000/svg" viewBox="0 0 24 24"><defs><style>.cls-1{fill:none;stroke:currentColor;stroke-linecap:round;stroke-linejoin:round;stroke-width:1.5px;}</style></defs><title>fishing-hook-fish</title><path class="cls-1" d="M18.75,4.5C16.394,6.357,15,8.245,15,11.25c0,3.188,4.646,8.349,6.965,10.726a.75.75,0,0,1-.537,1.274H16.072a.75.75,0,0,1-.537-1.274C17.854,19.6,22.5,14.438,22.5,11.25,22.5,8.245,21.106,6.357,18.75,4.5Z"/><path class="cls-1" d="M3,12v2.625a3.375,3.375,0,0,0,6.75,0V11.25L7.5,12.75"/><line class="cls-1" x1="4.5" y1="9.75" x2="1.5" y2="7.5"/><line class="cls-1" x1="4.5" y1="6" x2="1.5" y2="3.75"/><line class="cls-1" x1="3" y1="0.75" x2="3" y2="4.875"/></svg>