<svg id="Regular" xmlns="http://www.w3.org/2000/svg" viewBox="0 0 24 24"><defs><style>.cls-1{fill:none;stroke:currentColor;stroke-linecap:round;stroke-linejoin:round;stroke-width:1.5px;}</style></defs><title>fishing-line</title><path class="cls-1" d="M5.916,16.451l-2.173-.813a.774.774,0,0,0-1,.453L.849,21.16a1.547,1.547,0,0,0,2.9,1.085Z"/><path class="cls-1" d="M4.467,15.909,6.1,11.563C8.265,5.769,12.155-.206,15.052.879s-.454,5.37-1.22,6.563c-3.453,5.38.4,7.034,3.323,4.639.4-.327,1.134-.961,1.134-.961,2.928-2.5,5.058.4,2.486,2.526-1.468,1.214-1.509,2.732-.308,3.358a2.3,2.3,0,0,0,2.783-.82"/><circle class="cls-1" cx="8.088" cy="17.265" r="2.32"/></svg>