<svg id="Regular" xmlns="http://www.w3.org/2000/svg" viewBox="0 0 24 24"><defs><style>.cls-1{fill:none;stroke:currentColor;stroke-linecap:round;stroke-linejoin:round;stroke-width:1.5px;}</style></defs><title>fishing-bait-fish</title><path class="cls-1" d="M3.191,17,.75,19.092c4.7,4.876,11.546,4.15,17.25.157l4.409,2.966a.638.638,0,0,0,.772-.89L21.75,17l1.431-4.326a.638.638,0,0,0-.772-.89L18,14.749C12.3,10.756,5.45,10.03.75,14.907Z"/><path class="cls-1" d="M6.75,14.625A.375.375,0,0,1,7.125,15"/><path class="cls-1" d="M6.375,15a.375.375,0,0,1,.375-.375"/><path class="cls-1" d="M6.75,15.375A.375.375,0,0,1,6.375,15"/><path class="cls-1" d="M7.125,15a.375.375,0,0,1-.375.375"/><path class="cls-1" d="M23.25,5.25A.75.75,0,0,1,22.5,6H5.25A4.5,4.5,0,0,1,.75,1.5H22.5a.75.75,0,0,1,.75.75Z"/><line class="cls-1" x1="14.25" y1="1.5" x2="14.25" y2="6"/></svg>