<svg id="Regular" xmlns="http://www.w3.org/2000/svg" viewBox="0 0 24 24"><defs><style>.cls-1{fill:none;stroke:currentColor;stroke-linecap:round;stroke-linejoin:round;stroke-width:1.5px;}</style></defs><title>fish</title><path class="cls-1" d="M5.25,21.742h6c3.544,0,5.779-3.4,7.015-6.184a3.541,3.541,0,0,1,3.25-2.066,1.516,1.516,0,1,0,0-3,3.542,3.542,0,0,1-3.25-2.065c-1.236-2.784-3.471-6.185-7.015-6.185h-6"/><path class="cls-1" d="M7.5,21.742s.75-5.25-2.25-7.5c-1.342-1.006-3.75,1.5-3.75,1.5s-.75-.75-.75-3.75.75-3.75.75-3.75,2.408,2.507,3.75,1.5c3-2.25,2.25-7.5,2.25-7.5"/><path class="cls-1" d="M15.75,10.117a.375.375,0,0,1,.375.375"/><path class="cls-1" d="M15.375,10.492a.375.375,0,0,1,.375-.375"/><path class="cls-1" d="M15.75,10.867a.375.375,0,0,1-.375-.375"/><path class="cls-1" d="M16.125,10.492a.375.375,0,0,1-.375.375"/></svg>