<svg id="Regular" xmlns="http://www.w3.org/2000/svg" viewBox="0 0 24 24"><defs><style>.cls-1{fill:none;stroke:currentColor;stroke-linecap:round;stroke-linejoin:round;stroke-width:1.5px;}</style></defs><title>fishing-catch</title><line class="cls-1" x1="5.25" y1="0.75" x2="21.75" y2="0.75"/><line class="cls-1" x1="5.25" y1="3.75" x2="17.25" y2="3.75"/><path class="cls-1" d="M6.3,18.245c3.726,2.615,7.451,3.876,10.9,2.964l2.243,2.041,1.5-4.012a14.44,14.44,0,0,0,2.044-2.092,1.216,1.216,0,0,0,0-1.513c-4.832-5.992-10.759-5.26-16.687-1.1L1.564,12.713a.617.617,0,0,0-.747.863L2.6,16.39.817,19.2a.618.618,0,0,0,.747.863Z"/><path class="cls-1" d="M18.01,14.8a.375.375,0,0,1,0,.53"/><path class="cls-1" d="M17.479,14.8a.377.377,0,0,1,.531,0"/><path class="cls-1" d="M17.479,15.328a.375.375,0,0,1,0-.53"/><path class="cls-1" d="M18.01,15.328a.375.375,0,0,1-.531,0"/><line class="cls-1" x1="16.295" y1="11.384" x2="14.211" y2="8.25"/><line class="cls-1" x1="11.734" y1="11.766" x2="9.724" y2="9.75"/></svg>