<svg id="Regular" xmlns="http://www.w3.org/2000/svg" viewBox="0 0 24 24"><defs><style>.cls-1{fill:none;stroke:currentColor;stroke-linecap:round;stroke-linejoin:round;stroke-width:1.5px;}</style></defs><title>fish-bowl-bubble</title><path class="cls-1" d="M6.512,18.75s5.306-5.25,7.5-5.25a5.3,5.3,0,0,1,4.464,2.25A5.293,5.293,0,0,1,14.012,18c-2.194,0-7.5-5.25-7.5-5.25"/><path class="cls-1" d="M3.67,7.4a2.971,2.971,0,0,0-.037-1.283L2.69,2.382a.756.756,0,0,1,1.041-.868,8.044,8.044,0,0,0,3.1.736C9.1,2.25,9.862.75,12.137.75s3.034,1.5,5.31,1.5a8.044,8.044,0,0,0,3.1-.736.756.756,0,0,1,1.041.868l-.943,3.729A2.969,2.969,0,0,0,20.605,7.4l2.372,12.4a3.012,3.012,0,0,1-3,3.456H4.3a3.012,3.012,0,0,1-3-3.456S3.166,10.033,3.67,7.4Z"/></svg>