<svg xmlns="http://www.w3.org/2000/svg" viewBox="0 0 24 24"><defs><style>.a{fill:none;stroke:currentColor;stroke-linecap:round;stroke-linejoin:round;stroke-width:1.5px;}</style></defs><title>fishing</title><line class="a" x1="5.25" y1="15.75" x2="23.25" y2="15.75"/><line class="a" x1="9.75" y1="18" x2="9.75" y2="15.75"/><line class="a" x1="6.75" y1="18.75" x2="6.75" y2="15.75"/><line class="a" x1="18.75" y1="15.75" x2="18.75" y2="18.75"/><line class="a" x1="21.75" y1="18" x2="21.75" y2="15.75"/><line class="a" x1="18.75" y1="4.5" x2="18.75" y2="6.75"/><path class="a" d="M18,1.524A1.5,1.5,0,0,1,19.313.75a4.454,4.454,0,0,1,1.5.75A1.992,1.992,0,0,0,23.09.75"/><line class="a" x1="2.25" y1="2.417" x2="2.25" y2="18.75"/><polyline class="a" points="8.25 15.75 1.5 0.75 13.5 15.75"/><path class="a" d="M23.25,11.25a4.5,4.5,0,0,0-9,0v4.5h9Z"/><path class="a" d="M23.25,23.25A2.553,2.553,0,0,1,20.775,21c0,1.243-1.31,2.25-2.925,2.25S14.925,22.243,14.925,21c0,1.243-1.31,2.25-2.925,2.25S9.075,22.243,9.075,21c0,1.243-1.31,2.25-2.925,2.25S3.225,22.243,3.225,21A2.553,2.553,0,0,1,.75,23.25"/></svg>