<svg id="Regular" xmlns="http://www.w3.org/2000/svg" viewBox="0 0 24 24"><defs><style>.cls-1{fill:none;stroke:currentColor;stroke-linecap:round;stroke-linejoin:round;stroke-width:1.5px;}</style></defs><title>fitness-shaker</title><path class="cls-1" d="M18,6.75a3,3,0,0,0-3-3H9a3,3,0,0,0-3,3V9a5.237,5.237,0,0,0,1.5,3A5.237,5.237,0,0,0,6,15v5.25a3,3,0,0,0,3,3h6a3,3,0,0,0,3-3V15a5.237,5.237,0,0,0-1.5-3A5.237,5.237,0,0,0,18,9Z"/><line class="cls-1" x1="12" y1="3.75" x2="12" y2="0.75"/><line class="cls-1" x1="6" y1="6.75" x2="18" y2="6.75"/><polyline class="cls-1" points="13.5 12 9.75 15.75 14.25 15.75 10.5 19.5"/></svg>