<svg id="Regular" xmlns="http://www.w3.org/2000/svg" viewBox="0 0 24 24"><defs><style>.cls-1{fill:none;stroke:currentColor;stroke-linecap:round;stroke-linejoin:round;stroke-width:1.5px;}</style></defs><title>fitness-slim-waist</title><path class="cls-1" d="M1.728.75C.261,2.217.493,5.448,2.706,7.109c1.957,1.467,2.935,2.445,2.935,6.358S.75,19.826.75,23.25"/><path class="cls-1" d="M22.272.75c1.467,1.467,1.235,4.7-.978,6.359-1.957,1.467-2.935,2.445-2.935,6.358s4.891,6.359,4.891,9.783"/><path class="cls-1" d="M19.635,8.572c-3.7.088-4.114-1.463-7.635-1.463S8.062,8.66,4.365,8.572"/><path class="cls-1" d="M2.706,19.337c2.446,0,5.87,1.957,9.294,1.957s6.848-1.957,9.294-1.957"/><path class="cls-1" d="M10.044.75C11.022.75,12,2.217,12,2.217A2.18,2.18,0,0,1,13.956.75"/><path class="cls-1" d="M12,17.25a.375.375,0,0,1,.375.375"/><path class="cls-1" d="M11.625,17.625A.375.375,0,0,1,12,17.25"/><path class="cls-1" d="M12,18a.375.375,0,0,1-.375-.375"/><path class="cls-1" d="M12.375,17.625A.375.375,0,0,1,12,18"/></svg>