<svg id="Regular" xmlns="http://www.w3.org/2000/svg" viewBox="0 0 24 24"><defs><style>.cls-1{fill:none;stroke:currentColor;stroke-linecap:round;stroke-linejoin:round;stroke-width:1.5px;}</style></defs><title>fitness-weightlift</title><circle class="cls-1" cx="12" cy="9.375" r="2.625"/><path class="cls-1" d="M3.765,9A10.648,10.648,0,0,0,6.24,15.416,7.582,7.582,0,0,0,9,17.32v5.93"/><path class="cls-1" d="M18.079,6.158a1.5,1.5,0,0,0-.823,1.467c0,.036.243,3.644-1.7,5.759a4.538,4.538,0,0,1-1.13.866H9.575A4.6,4.6,0,0,1,8.457,13.4C6.5,11.278,6.74,7.689,6.746,7.62a1.5,1.5,0,0,0-.825-1.462"/><path class="cls-1" d="M15,23.25V17.32a7.582,7.582,0,0,0,2.76-1.9A10.648,10.648,0,0,0,20.235,9"/><path class="cls-1" d="M20.251,3.755a45.482,45.482,0,0,0-16.5,0"/><path class="cls-1" d="M23.25,5.25a1.5,1.5,0,0,1-3,0v-3a1.5,1.5,0,0,1,3,0Z"/><path class="cls-1" d="M3.75,5.25a1.5,1.5,0,0,1-3,0v-3a1.5,1.5,0,0,1,3,0Z"/></svg>