<svg id="Regular" xmlns="http://www.w3.org/2000/svg" viewBox="0 0 24 24"><defs><style>.cls-1{fill:none;stroke:currentColor;stroke-linecap:round;stroke-linejoin:round;stroke-width:1.5px;}</style></defs><title>fitness-dumbbell-lift</title><rect class="cls-1" x="4" y="6.5" width="4.5" height="3"/><path class="cls-1" d="M8.5,21.5l1.244-4.974a1.5,1.5,0,0,0-.624-1.612,3.8,3.8,0,0,1-1.641-2.539L7,9.5H8.5v-3A1.5,1.5,0,0,1,10,5h6a1.5,1.5,0,0,1,1.5,1.5v5.25a9.349,9.349,0,0,1-.544,2.926,3.4,3.4,0,0,0,0,1.648L18.25,21.5"/><path class="cls-1" d="M2.5,2.75A1.5,1.5,0,0,0,1,4.25V12.5a1.5,1.5,0,0,0,3,0V4.25A1.5,1.5,0,0,0,2.5,2.75Z"/><path class="cls-1" d="M22,2.75a1.5,1.5,0,0,0-1.5,1.5V12.5a1.5,1.5,0,0,0,3,0V4.25A1.5,1.5,0,0,0,22,2.75Z"/><rect class="cls-1" x="17.5" y="6.5" width="3" height="3"/><line class="cls-1" x1="11.5" y1="8" x2="11.5" y2="5"/><line class="cls-1" x1="14.5" y1="8" x2="14.5" y2="5"/></svg>