<svg id="Regular" xmlns="http://www.w3.org/2000/svg" viewBox="0 0 24 24"><defs><style>.cls-1{fill:none;stroke:currentColor;stroke-linecap:round;stroke-linejoin:round;stroke-width:1.5px;}</style></defs><title>fitness-protein</title><rect class="cls-1" x="2.25" y="5.25" width="19.5" height="18" rx="3" ry="3"/><path class="cls-1" d="M7.75.75h8.5a1,1,0,0,1,1,1v3.5a0,0,0,0,1,0,0H6.75a0,0,0,0,1,0,0V1.75A1,1,0,0,1,7.75.75Z"/><rect class="cls-1" x="2.25" y="9.75" width="19.5" height="9"/><line class="cls-1" x1="9.75" y1="5.25" x2="9.75" y2="0.75"/><line class="cls-1" x1="14.25" y1="5.25" x2="14.25" y2="0.75"/><line class="cls-1" x1="7.5" y1="14.25" x2="16.5" y2="14.25"/><line class="cls-1" x1="9" y1="12.75" x2="9" y2="15.75"/><line class="cls-1" x1="15" y1="12.75" x2="15" y2="15.75"/></svg>