<svg id="Regular" xmlns="http://www.w3.org/2000/svg" viewBox="0 0 24 24"><defs><style>.cls-1{fill:none;stroke:currentColor;stroke-linecap:round;stroke-linejoin:round;stroke-width:1.5px;}</style></defs><title>fitness-bicycle-3</title><path class="cls-1" d="M23.25,19.5a3.75,3.75,0,0,1-3.75,3.75H6.75a6,6,0,0,1-6-6,6.211,6.211,0,0,1,6-6C10.5,11.25,23.25,15.75,23.25,19.5Z"/><path class="cls-1" d="M15.75.75h2.459a3,3,0,0,1,2.959,3.493L19.308,15.4"/><circle class="cls-1" cx="6.75" cy="17.25" r="2.25"/><line class="cls-1" x1="9" y1="17.25" x2="12" y2="17.25"/><path class="cls-1" d="M4.5,6.75a2.391,2.391,0,0,0,0,4.782c1.5,0,6.75-1.711,6.75-3.282a1.5,1.5,0,0,0-1.5-1.5Z"/></svg>