<svg id="Regular" xmlns="http://www.w3.org/2000/svg" viewBox="0 0 24 24"><defs><style>.cls-1{fill:none;stroke:currentColor;stroke-linecap:round;stroke-linejoin:round;stroke-width:1.5px;}</style></defs><title>fitness-jumping-rope</title><path class="cls-1" d="M21,13.5V8.114C21,4.047,17.978.75,14.25.75S7.5,4.047,7.5,8.114A4.718,4.718,0,0,0,12,13.023a4.718,4.718,0,0,0,4.5-4.909C16.5,4.047,13.478.75,9.75.75S3,4.047,3,8.114V13.5"/><path class="cls-1" d="M.75,21a2.25,2.25,0,0,0,4.5,0V14.25a.75.75,0,0,0-.75-.75h-3a.75.75,0,0,0-.75.75Z"/><path class="cls-1" d="M18.75,21a2.25,2.25,0,0,0,4.5,0V14.25a.75.75,0,0,0-.75-.75h-3a.75.75,0,0,0-.75.75Z"/><line class="cls-1" x1="0.75" y1="16.5" x2="5.25" y2="16.5"/><line class="cls-1" x1="18.75" y1="16.5" x2="23.25" y2="16.5"/></svg>