<svg id="Regular" xmlns="http://www.w3.org/2000/svg" viewBox="0 0 24 24"><defs><style>.cls-1{fill:none;stroke:currentColor;stroke-linecap:round;stroke-linejoin:round;stroke-width:1.5px;}</style></defs><title>fitness-bicycle-1</title><path class="cls-1" d="M11.4,13.2A3,3,0,0,0,9,12H6A5.25,5.25,0,0,0,6,22.5H21A2.25,2.25,0,0,0,21,18H16.5a3,3,0,0,1-2.4-1.2Z"/><line class="cls-1" x1="6.75" y1="16.5" x2="9" y2="19.5"/><path class="cls-1" d="M13.433,15.911l1.922-6.964A1.964,1.964,0,0,1,17.25,7.5h3a3,3,0,0,0,0-6h-6"/><line class="cls-1" x1="2.25" y1="7.5" x2="8.25" y2="7.5"/><line class="cls-1" x1="4.5" y1="7.5" x2="7.5" y2="12"/></svg>