<svg id="Regular" xmlns="http://www.w3.org/2000/svg" viewBox="0 0 24 24"><defs><style>.cls-1{fill:none;stroke:currentColor;stroke-linecap:round;stroke-linejoin:round;stroke-width:1.5px;}</style></defs><title>fitness-machine</title><path class="cls-1" d="M4.5,6.75a6,6,0,0,1,6-6h3a6,6,0,0,1,6,6"/><path class="cls-1" d="M6,8.25a1.5,1.5,0,0,0-3,0v3a1.5,1.5,0,0,0,3,0Z"/><line class="cls-1" x1="4.5" y1="12.75" x2="4.5" y2="15"/><line class="cls-1" x1="3" y1="11.25" x2="0.75" y2="11.25"/><path class="cls-1" d="M18,8.25a1.5,1.5,0,0,1,3,0v3a1.5,1.5,0,0,1-3,0Z"/><line class="cls-1" x1="19.5" y1="12.75" x2="19.5" y2="15"/><line class="cls-1" x1="21" y1="11.25" x2="23.25" y2="11.25"/><path class="cls-1" d="M15,17.25H9V12a3,3,0,0,1,6,0Z"/><path class="cls-1" d="M17.25,18.75a1.5,1.5,0,0,0-1.5-1.5H8.25a1.5,1.5,0,0,0,0,3h7.5A1.5,1.5,0,0,0,17.25,18.75Z"/><line class="cls-1" x1="12" y1="20.25" x2="12" y2="23.25"/><line class="cls-1" x1="12" y1="0.75" x2="12" y2="6"/></svg>