<svg id="Regular" xmlns="http://www.w3.org/2000/svg" viewBox="0 0 24 24"><defs><style>.cls-1{fill:none;stroke:currentColor;stroke-linecap:round;stroke-linejoin:round;stroke-width:1.5px;}</style></defs><title>fitness-jumping-rope-3</title><path class="cls-1" d="M5.25,21a2.25,2.25,0,0,1-4.5,0V13.5a.75.75,0,0,1,.75-.75h3a.75.75,0,0,1,.75.75Z"/><path class="cls-1" d="M18.75,3a2.25,2.25,0,0,1,4.5,0v7.5a.75.75,0,0,1-.75.75h-3a.75.75,0,0,1-.75-.75Z"/><path class="cls-1" d="M3,12.75V5.25a4.5,4.5,0,0,1,9,0v13.5a4.5,4.5,0,0,0,9,0v-7.5"/><line class="cls-1" x1="0.75" y1="15.75" x2="5.25" y2="15.75"/><line class="cls-1" x1="18.75" y1="8.25" x2="23.25" y2="8.25"/></svg>