<svg id="Regular" xmlns="http://www.w3.org/2000/svg" viewBox="0 0 24 24"><defs><style>.cls-1{fill:none;stroke:currentColor;stroke-linecap:round;stroke-linejoin:round;stroke-width:1.5px;}</style></defs><title>fitness-hand-grip</title><circle class="cls-1" cx="11.853" cy="3.751" r="3"/><line class="cls-1" x1="8.853" y1="3.751" x2="6.164" y2="11.677"/><path class="cls-1" d="M5.131,21.722A2.25,2.25,0,1,1,.87,20.276l2.681-7.9a1.5,1.5,0,0,1,1.9-.938l1.42.482a1.5,1.5,0,0,1,.939,1.9Z"/><line class="cls-1" x1="14.853" y1="3.751" x2="17.543" y2="11.677"/><path class="cls-1" d="M18.576,21.722a2.25,2.25,0,1,0,4.261-1.446l-2.681-7.9a1.5,1.5,0,0,0-1.9-.938l-1.42.482a1.5,1.5,0,0,0-.939,1.9Z"/></svg>