<svg id="Regular" xmlns="http://www.w3.org/2000/svg" viewBox="0 0 24 24"><defs><style>.cls-1{fill:none;stroke:currentColor;stroke-linecap:round;stroke-linejoin:round;stroke-width:1.5px;}</style></defs><title>fitness-six-pack</title><path class="cls-1" d="M14.045,14.33A2.046,2.046,0,0,1,12,12.284h0A2.046,2.046,0,0,1,9.955,14.33"/><path class="cls-1" d="M14.045,19.443A2.045,2.045,0,0,1,12,17.4h0a2.045,2.045,0,0,1-2.045,2.045"/><path class="cls-1" d="M6.886,22V11.773A2.046,2.046,0,0,1,8.932,9.727"/><path class="cls-1" d="M17.114,22V11.773a2.046,2.046,0,0,0-2.046-2.046"/><path class="cls-1" d="M23.25,7v.466a4.089,4.089,0,0,1-.687,2.269l-2.381,3.572V22"/><path class="cls-1" d="M3.818,22V13.307L1.437,9.735A4.089,4.089,0,0,1,.75,7.466V7"/><path class="cls-1" d="M10.5,1.75a4.7,4.7,0,0,1-4.875,4.5A4.7,4.7,0,0,1,.75,1.75"/><path class="cls-1" d="M13.5,1.75a4.7,4.7,0,0,0,4.875,4.5,4.7,4.7,0,0,0,4.875-4.5"/></svg>