<svg id="Regular" xmlns="http://www.w3.org/2000/svg" viewBox="0 0 24 24"><defs><style>.cls-1{fill:none;stroke:currentColor;stroke-linecap:round;stroke-linejoin:round;stroke-width:1.5px;}</style></defs><title>fitness-biceps</title><path class="cls-1" d="M8.25,9a2.122,2.122,0,0,1,0-3"/><path class="cls-1" d="M22.005,16.754C17.225,22.374,6.092,21,1.592,18c-1.741-1.161-.433-5.838.8-9.19A16.115,16.115,0,0,1,5.1,4.085,3,3,0,0,1,7.415,3H10.5a3,3,0,0,1,0,6H8.25a5.787,5.787,0,0,0-1.5,4.5c1.781-1.852,4.109-2.75,6.75,0a4.875,4.875,0,1,1,8.5,3.254Z"/><line class="cls-1" x1="18.75" y1="12" x2="18.75" y2="15"/><line class="cls-1" x1="17.25" y1="13.5" x2="20.25" y2="13.5"/></svg>