<svg id="Regular" xmlns="http://www.w3.org/2000/svg" viewBox="0 0 24 24"><defs><style>.cls-1{fill:none;stroke:currentColor;stroke-linecap:round;stroke-linejoin:round;stroke-width:1.5px;}</style></defs><title>fitness-dumbbell-disk-weight</title><path class="cls-1" d="M20.151,7.5c-.936-2.258-2.558-3.751-4.4-3.751h-6C6.851,3.75,4.5,7.444,4.5,12s2.351,8.25,5.25,8.25h6c-2.9,0-5.25-3.694-5.25-8.25s2.351-8.25,5.25-8.25"/><path class="cls-1" d="M15.75,20.25c1.843,0,3.464-1.492,4.4-3.75"/><path class="cls-1" d="M4.586,13.5H2.25a1.5,1.5,0,0,1,0-3H4.586"/><path class="cls-1" d="M16.5,10.5h5.25a1.5,1.5,0,0,1,0,3H16.5"/><line class="cls-1" x1="5.349" y1="7.5" x2="11.349" y2="7.5"/><line class="cls-1" x1="5.349" y1="16.5" x2="11.349" y2="16.5"/><line class="cls-1" x1="4.5" y1="12" x2="10.5" y2="12"/></svg>