<svg xmlns="http://www.w3.org/2000/svg" viewBox="0 0 24 24"><defs><style>.a{fill:none;stroke:currentColor;stroke-linecap:round;stroke-linejoin:round;stroke-width:1.5px;}</style></defs><title>flip-left</title><polyline class="a" points="6.751 9.143 6.224 13.547 10.67 14.212"/><path class="a" d="M14.25.75h7.5a1.5,1.5,0,0,1,1.5,1.5v19.5a1.5,1.5,0,0,1-1.5,1.5h-7.5"/><line class="a" x1="11.25" y1="0.75" x2="11.25" y2="5.25"/><line class="a" x1="11.25" y1="17.25" x2="11.25" y2="23.25"/><line class="a" x1="6.75" y1="0.75" x2="8.25" y2="0.75"/><line class="a" x1="6.75" y1="23.25" x2="8.25" y2="23.25"/><line class="a" x1="0.75" y1="5.25" x2="0.75" y2="6.75"/><line class="a" x1="0.75" y1="11.25" x2="0.75" y2="12.75"/><line class="a" x1="0.75" y1="17.25" x2="0.75" y2="18.75"/><path class="a" d="M.75,2.25A1.5,1.5,0,0,1,2.25.75"/><path class="a" d="M2.25,23.25a1.5,1.5,0,0,1-1.5-1.5"/><path class="a" d="M18.365,15A6.751,6.751,0,0,0,6.343,13.567"/></svg>