<svg xmlns="http://www.w3.org/2000/svg" viewBox="0 0 24 24"><defs><style>.a{fill:none;stroke:currentColor;stroke-linecap:round;stroke-linejoin:round;stroke-width:1.5px;}</style></defs><title>flip-right</title><polyline class="a" points="17.249 9.143 17.776 13.547 13.33 14.212"/><path class="a" d="M9.75.75H2.25a1.5,1.5,0,0,0-1.5,1.5v19.5a1.5,1.5,0,0,0,1.5,1.5h7.5"/><line class="a" x1="12.75" y1="0.75" x2="12.75" y2="5.25"/><line class="a" x1="12.75" y1="17.25" x2="12.75" y2="23.25"/><line class="a" x1="17.25" y1="0.75" x2="15.75" y2="0.75"/><line class="a" x1="17.25" y1="23.25" x2="15.75" y2="23.25"/><line class="a" x1="23.25" y1="5.25" x2="23.25" y2="6.75"/><line class="a" x1="23.25" y1="11.25" x2="23.25" y2="12.75"/><line class="a" x1="23.25" y1="17.25" x2="23.25" y2="18.75"/><path class="a" d="M23.25,2.25a1.5,1.5,0,0,0-1.5-1.5"/><path class="a" d="M21.75,23.25a1.5,1.5,0,0,0,1.5-1.5"/><path class="a" d="M5.635,15a6.751,6.751,0,0,1,12.022-1.433"/></svg>