<svg id="Regular" xmlns="http://www.w3.org/2000/svg" viewBox="0 0 24 24"><defs><style>.cls-1{fill:none;stroke:currentColor;stroke-linecap:round;stroke-linejoin:round;stroke-width:1.5px;}</style></defs><title>flower-1</title><ellipse class="cls-1" cx="16.84" cy="20.789" rx="4.987" ry="2.113" transform="translate(-6.304 7.369) rotate(-20.883)"/><ellipse class="cls-1" cx="7.521" cy="20.789" rx="2.113" ry="4.987" transform="translate(-14.584 20.405) rotate(-69.117)"/><path class="cls-1" d="M18.515.906l-.663.441A6,6,0,0,0,15.181,6.34V5.614a6,6,0,0,0-1.758-4.243l-.182-.182a1.5,1.5,0,0,0-2.121,0l-.182.182A6,6,0,0,0,9.181,5.614V6.34A6,6,0,0,0,6.509,1.347L5.847.906a.75.75,0,0,0-1.166.624v6.4a7.717,7.717,0,0,0,6.763,7.787A7.5,7.5,0,0,0,19.681,8.25V1.53A.75.75,0,0,0,18.515.906Z"/><line class="cls-1" x1="12.181" y1="15.75" x2="12.181" y2="23.25"/></svg>