<svg id="Regular" xmlns="http://www.w3.org/2000/svg" viewBox="0 0 24 24"><defs><style>.cls-1{fill:none;stroke:currentColor;stroke-linecap:round;stroke-linejoin:round;stroke-width:1.5px;}</style></defs><title>flower-2</title><ellipse class="cls-1" cx="16.729" cy="20.676" rx="4.987" ry="2.113" transform="translate(-6.271 7.321) rotate(-20.883)"/><ellipse class="cls-1" cx="7.41" cy="20.676" rx="2.113" ry="4.987" transform="translate(-14.549 20.229) rotate(-69.117)"/><line class="cls-1" x1="12.069" y1="14.784" x2="12.069" y2="23.137"/><circle class="cls-1" cx="12.069" cy="8.797" r="2.25"/><path class="cls-1" d="M20.319,8.8a3,3,0,0,0-3-3c-.022,0-.043.006-.065.007.012-.019.027-.034.038-.054a3,3,0,1,0-5.2-3c-.012.02-.017.041-.028.06-.01-.019-.015-.04-.027-.06a3,3,0,1,0-5.195,3c.011.02.026.035.038.054-.022,0-.043-.007-.066-.007a3,3,0,0,0,0,6c.023,0,.043-.006.066-.006-.012.019-.027.033-.038.053a3,3,0,1,0,5.222,2.94,3,3,0,1,0,5.223-2.94c-.011-.02-.026-.034-.038-.053.023,0,.043.006.065.006A3,3,0,0,0,20.319,8.8Z"/></svg>