<svg id="Regular" xmlns="http://www.w3.org/2000/svg" viewBox="0 0 24 24"><defs><style>.cls-1{fill:none;stroke:currentColor;stroke-linecap:round;stroke-linejoin:round;stroke-width:1.5px;}</style></defs><title>flower-pot</title><path class="cls-1" d="M18.75,6.15a2.686,2.686,0,0,0-4.09-2.3,2.579,2.579,0,0,0,.04-.4,2.7,2.7,0,1,0-5.4,0,2.579,2.579,0,0,0,.04.4,2.694,2.694,0,1,0-1.463,5A2.691,2.691,0,1,0,12,12.157a2.691,2.691,0,1,0,4.123-3.314A2.7,2.7,0,0,0,18.75,6.15Z"/><path class="cls-1" d="M14.969,23.25h-5.7a.665.665,0,0,1-.668-.482l-1.091-4.8a.627.627,0,0,1,.669-.718h7.877a.626.626,0,0,1,.669.718l-1.091,4.8A.665.665,0,0,1,14.969,23.25Z"/><line class="cls-1" x1="12" y1="12.157" x2="12" y2="17.25"/><circle class="cls-1" cx="12" cy="7.5" r="1.5"/></svg>