<svg id="Regular" xmlns="http://www.w3.org/2000/svg" viewBox="0 0 24 24"><defs><style>.cls-1{fill:none;stroke:currentColor;stroke-linecap:round;stroke-linejoin:round;stroke-width:1.5px;}</style></defs><title>flower-roses</title><path class="cls-1" d="M21.418,20.743a3,3,0,0,1-2.959,2.507H5.541a3,3,0,0,1-2.959-2.507L1.5,14.25h21Z"/><path class="cls-1" d="M15.75,14.25S18,11.175,18,8.175"/><path class="cls-1" d="M8.25,8.25a5.958,5.958,0,0,0,.75,6"/><line class="cls-1" x1="12" y1="17.25" x2="12" y2="20.25"/><line class="cls-1" x1="6.75" y1="17.25" x2="7.5" y2="20.25"/><line class="cls-1" x1="17.25" y1="17.25" x2="16.5" y2="20.25"/><path class="cls-1" d="M12,4.5a3.75,3.75,0,0,1-7.5,0V.75l3.75,1.5L12,.75Z"/><path class="cls-1" d="M22.5,4.5a3.75,3.75,0,0,1-7.5,0V.75l3.75,1.5L22.5.75Z"/></svg>