<svg id="Regular" xmlns="http://www.w3.org/2000/svg" viewBox="0 0 24 24"><defs><style>.cls-1{fill:none;stroke:currentColor;stroke-linecap:round;stroke-linejoin:round;stroke-width:1.5px;}</style></defs><title>flower-3</title><path class="cls-1" d="M23.25,10.125a4.476,4.476,0,0,0-6.816-3.84,4.486,4.486,0,0,0,.066-.66,4.5,4.5,0,0,0-9,0,4.486,4.486,0,0,0,.066.66,4.49,4.49,0,1,0-2.437,8.328A4.484,4.484,0,1,0,12,20.136a4.485,4.485,0,1,0,6.871-5.523A4.494,4.494,0,0,0,23.25,10.125Z"/><circle class="cls-1" cx="12" cy="12.75" r="3.75"/></svg>