<svg xmlns="http://www.w3.org/2000/svg" viewBox="0 0 24 24"><defs><style>.a{fill:none;stroke:currentColor;stroke-linecap:round;stroke-linejoin:round;stroke-width:1.5px;}</style></defs><title>flyer-taken</title><path class="a" d="M.75,12.75V2.25A1.5,1.5,0,0,1,2.25.75h19.5a1.5,1.5,0,0,1,1.5,1.5v10.5"/><line class="a" x1="3" y1="12.75" x2="5.25" y2="12.75"/><line class="a" x1="8.25" y1="12.75" x2="10.5" y2="12.75"/><line class="a" x1="13.5" y1="12.75" x2="15.75" y2="12.75"/><line class="a" x1="18.75" y1="12.75" x2="21" y2="12.75"/><path class="a" d="M5.25,15.75v7.5h-3a1.5,1.5,0,0,1-1.5-1.5v-6"/><polyline class="a" points="9.75 15.75 9.75 23.25 5.25 23.25 5.25 15.75"/><path class="a" d="M14.25,15.75v6a1.5,1.5,0,0,1-1.5,1.5h-3v-7.5"/><rect class="a" x="3.75" y="3.75" width="6" height="6" rx="0.5" ry="0.5"/><line class="a" x1="12.75" y1="3.75" x2="20.25" y2="3.75"/><line class="a" x1="12.75" y1="6.75" x2="20.25" y2="6.75"/><line class="a" x1="15.75" y1="9.75" x2="20.25" y2="9.75"/></svg>