<svg id="Regular" xmlns="http://www.w3.org/2000/svg" viewBox="0 0 24 24"><defs><style>.cls-1{fill:none;stroke:currentColor;stroke-linecap:round;stroke-linejoin:round;stroke-width:1.5px;}</style></defs><title>flying-insect-fly</title><path class="cls-1" d="M9.022,6.75c0,2.071,1.343,3.75,3,3.75s3-1.679,3-3.75"/><path class="cls-1" d="M9.4,3.75a.375.375,0,0,1,.375.375"/><path class="cls-1" d="M9.022,4.125A.375.375,0,0,1,9.4,3.75"/><path class="cls-1" d="M9.4,4.5a.375.375,0,0,1-.375-.375"/><path class="cls-1" d="M9.772,4.125A.375.375,0,0,1,9.4,4.5"/><path class="cls-1" d="M14.647,3.75a.375.375,0,0,1,.375.375"/><path class="cls-1" d="M14.272,4.125a.375.375,0,0,1,.375-.375"/><path class="cls-1" d="M14.647,4.5a.375.375,0,0,1-.375-.375"/><path class="cls-1" d="M15.022,4.125a.375.375,0,0,1-.375.375"/><polyline class="cls-1" points="10.522 0.75 12.022 2.25 13.522 0.75"/><path class="cls-1" d="M13.522,10.029V12.75c0,4.5,4.5,7.5,6.75,7.5,2.4,0-.064-9.241-5.461-12.117"/><path class="cls-1" d="M10.522,10V12.75c0,4.5-4.5,7.5-6.75,7.5-2.4,0,.064-9.241,5.461-12.116"/><path class="cls-1" d="M8.261,17.924c.649,4.541,2.835,5.326,3.761,5.326s3.112-.784,3.761-5.326"/><line class="cls-1" x1="8.394" y1="18.75" x2="15.64" y2="18.75"/><line class="cls-1" x1="10.351" y1="14.25" x2="13.692" y2="14.25"/><path class="cls-1" d="M16.393,9.215,18,6.536A2.649,2.649,0,0,1,20.272,5.25"/><path class="cls-1" d="M18.8,11.98l1.773-1.33a4.5,4.5,0,0,1,2.7-.9"/><path class="cls-1" d="M7.651,9.215,6.044,6.536A2.649,2.649,0,0,0,3.772,5.25"/><path class="cls-1" d="M5.245,11.98,3.472,10.65a4.5,4.5,0,0,0-2.7-.9"/></svg>