<svg id="Regular" xmlns="http://www.w3.org/2000/svg" viewBox="0 0 24 24"><defs><style>.cls-1{fill:none;stroke:currentColor;stroke-linecap:round;stroke-linejoin:round;stroke-width:1.5px;}</style></defs><title>flying-insect-moth</title><circle class="cls-1" cx="12.113" cy="4.875" r="3"/><path class="cls-1" d="M10.57,7.448a32.753,32.753,0,0,0-1.457,8.677c0,4.5,6,4.5,6,0a32.72,32.72,0,0,0-1.457-8.677"/><path class="cls-1" d="M9.133,15.365a7.08,7.08,0,0,1,2.98-.74,7.08,7.08,0,0,1,2.98.74"/><line class="cls-1" x1="9.113" y1="21.75" x2="7.613" y2="23.25"/><line class="cls-1" x1="6.863" y1="18.75" x2="4.613" y2="19.5"/><line class="cls-1" x1="15.113" y1="21.75" x2="16.613" y2="23.25"/><line class="cls-1" x1="17.363" y1="18.75" x2="19.613" y2="19.5"/><path class="cls-1" d="M13.6,2.267A5.7,5.7,0,0,1,17.363.75"/><path class="cls-1" d="M10.63,2.267A5.7,5.7,0,0,0,6.863.75"/><path class="cls-1" d="M13.671,7.5c.8,0,10.446-.01,8.942,3.75-1.311,3.277-7.461-.278-8.181-.708"/><path class="cls-1" d="M10.555,7.5c-.8,0-10.446-.01-8.942,3.75,1.311,3.277,7.461-.278,8.181-.708"/></svg>