<svg id="Regular" xmlns="http://www.w3.org/2000/svg" viewBox="0 0 24 24"><defs><style>.cls-1{fill:none;stroke:currentColor;stroke-linecap:round;stroke-linejoin:round;stroke-width:1.5px;}</style></defs><title>flying-insect-bee-3</title><circle class="cls-1" cx="12.853" cy="10.246" r="3.359"/><ellipse class="cls-1" cx="6.86" cy="8.528" rx="3.738" ry="2.616" transform="translate(-3.981 7.019) rotate(-43.261)"/><path class="cls-1" d="M22.458,15.985a4.485,4.485,0,0,0-5.312-4.4c-2.427.493-3.894,3.352-3.277,6.385a5.755,5.755,0,0,0,5.6,4.745h3.737S22.458,21.215,22.458,15.985Z"/><path class="cls-1" d="M7.162,5.44l-.538-.554a4.632,4.632,0,0,0-4.032-.693l-1.82.469"/><path class="cls-1" d="M12.945,6.888,22.087.979a.747.747,0,0,1,1.151.634c-.011,1.5-.315,3.935-2.274,5.4a8.567,8.567,0,0,1-2.321,1.268"/><line class="cls-1" x1="21.171" y1="12.835" x2="13.98" y2="18.427"/><line class="cls-1" x1="22.48" y1="17.463" x2="16.573" y2="21.893"/></svg>