<svg id="Regular" xmlns="http://www.w3.org/2000/svg" viewBox="0 0 24 24"><defs><style>.cls-1{fill:none;stroke:currentColor;stroke-linecap:round;stroke-linejoin:round;stroke-width:1.5px;}</style></defs><title>flying-insect-bees</title><ellipse class="cls-1" cx="12.589" cy="16.5" rx="6" ry="2.25"/><path class="cls-1" d="M6.589,16.5s-1.5,6.75,6,6.75,6-6.75,6-6.75"/><path class="cls-1" d="M7.369,6.363a.374.374,0,0,1,.263.46"/><path class="cls-1" d="M6.908,6.626a.376.376,0,0,1,.461-.263"/><path class="cls-1" d="M7.172,7.086a.375.375,0,0,1-.264-.46"/><path class="cls-1" d="M7.632,6.823a.374.374,0,0,1-.46.263"/><path class="cls-1" d="M7.6,4.093S7.137.081,10.031.869s-.459,4.539-.459,4.539"/><path class="cls-1" d="M5.049,4.891s-3.224-2.432-4.012.462S5.181,7.259,5.181,7.259"/><path class="cls-1" d="M16.872,10.971a.374.374,0,0,1-.208.488"/><path class="cls-1" d="M16.385,10.763a.374.374,0,0,1,.487.208"/><path class="cls-1" d="M16.177,11.251a.375.375,0,0,1,.208-.488"/><path class="cls-1" d="M16.664,11.459a.374.374,0,0,1-.487-.208"/><path class="cls-1" d="M18.82,9.784s2.92-2.791,4.039-.007-3.9,2.374-3.9,2.374"/><path class="cls-1" d="M16.645,8.234s-.007-4.039-2.791-2.92.983,4.455.983,4.455"/></svg>