<svg id="Regular" xmlns="http://www.w3.org/2000/svg" viewBox="0 0 24 24"><defs><style>.cls-1{fill:none;stroke:currentColor;stroke-linecap:round;stroke-linejoin:round;stroke-width:1.5px;}</style></defs><title>flying-insect-bee</title><path class="cls-1" d="M17.25,13.5c0,5.25-3.75,8.25-5.25,8.25s-5.25-3-5.25-8.25C6.75,9.358,9.1,6.75,12,6.75S17.25,9.358,17.25,13.5Z"/><line class="cls-1" x1="12" y1="21.75" x2="12" y2="23.25"/><path class="cls-1" d="M8.325,5.25a3.751,3.751,0,0,1,7.35,0"/><path class="cls-1" d="M13.5,2.564V2.25s0-1.5,2.25-1.5"/><path class="cls-1" d="M10.5,2.564V2.25s0-1.5-2.25-1.5"/><path class="cls-1" d="M8.449,8.382A10.279,10.279,0,0,0,3,6.75C0,6.75,0,12,3,12a10.274,10.274,0,0,0,4.037-.87"/><path class="cls-1" d="M15.551,8.382A10.279,10.279,0,0,1,21,6.75c3,0,3,5.25,0,5.25a10.274,10.274,0,0,1-4.037-.87"/><path class="cls-1" d="M6.779,12.721A6.428,6.428,0,0,1,12,10.5a6.432,6.432,0,0,1,5.221,2.221"/><path class="cls-1" d="M7.265,16.735A6.374,6.374,0,0,1,12,15a6.381,6.381,0,0,1,4.735,1.735"/></svg>