<svg id="Regular" xmlns="http://www.w3.org/2000/svg" viewBox="0 0 24 24"><defs><style>.cls-1{fill:none;stroke:currentColor;stroke-linecap:round;stroke-linejoin:round;stroke-width:1.5px;}</style></defs><title>flying-insect-honey</title><path class="cls-1" d="M16.522,10.411V4.875a.751.751,0,0,0-.415-.671l-3.75-1.875a.752.752,0,0,0-.67,0L7.937,4.2a.749.749,0,0,0-.415.671v5.536l4.5,2.25Z"/><path class="cls-1" d="M12.022,18.661v-6l-4.5-2.25L3.437,12.454a.749.749,0,0,0-.415.671V18.2a.749.749,0,0,0,.415.671l3.75,1.875a.752.752,0,0,0,.67,0Z"/><path class="cls-1" d="M20.607,18.869a.751.751,0,0,0,.415-.671V13.125a.751.751,0,0,0-.415-.671l-4.085-2.043-4.5,2.25v6l4.165,2.083a.752.752,0,0,0,.67,0Z"/></svg>