<svg id="Regular" xmlns="http://www.w3.org/2000/svg" viewBox="0 0 24 24"><defs><style>.cls-1{fill:none;stroke:currentColor;stroke-linecap:round;stroke-linejoin:round;stroke-width:1.5px;}</style></defs><title>flying-insect-dragonfly</title><path class="cls-1" d="M10.875,7.936a2.25,2.25,0,1,1,2.294,0"/><path class="cls-1" d="M14.094,11.975a19.25,19.25,0,0,0-.572,4.67V21.75a1.5,1.5,0,0,1-3,0V16.645a19.4,19.4,0,0,0-.572-4.67,5.6,5.6,0,0,1-.178-1.35c0-1.726,1.007-3.125,2.25-3.125s2.25,1.4,2.25,3.125A5.6,5.6,0,0,1,14.094,11.975Z"/><line class="cls-1" x1="12.022" y1="3.75" x2="12.022" y2="0.75"/><line class="cls-1" x1="10.522" y1="18.75" x2="13.522" y2="18.75"/><path class="cls-1" d="M14.272,10.75s3-2.375,5.25-2.375c3.75,0,3.75,4.5,0,4.5C17.272,12.875,14.272,10.75,14.272,10.75Z"/><path class="cls-1" d="M9.772,10.75s-3-2.375-5.25-2.375c-3.75,0-3.75,4.5,0,4.5C6.772,12.875,9.772,10.75,9.772,10.75Z"/><path class="cls-1" d="M17.272,6a5.958,5.958,0,0,1,5.25-3"/><path class="cls-1" d="M18.022,15.75s1.929,3,4.5,3"/><path class="cls-1" d="M16.522,18a5.454,5.454,0,0,0,3.75,3.75"/><path class="cls-1" d="M6.772,6a5.958,5.958,0,0,0-5.25-3"/><path class="cls-1" d="M6.022,15.75s-1.929,3-4.5,3"/><path class="cls-1" d="M7.522,18a5.454,5.454,0,0,1-3.75,3.75"/></svg>