<svg id="Regular" xmlns="http://www.w3.org/2000/svg" viewBox="0 0 24 24"><defs><style>.cls-1{fill:none;stroke:currentColor;stroke-linecap:round;stroke-linejoin:round;stroke-width:1.5px;}</style></defs><title>flying-insect-butterfly-1</title><path class="cls-1" d="M13.522,19.25a1.5,1.5,0,0,1-3,0V8a1.5,1.5,0,1,1,3,0Z"/><path class="cls-1" d="M13.356,7.314l4.106-1.579A4.275,4.275,0,1,1,19,14H16.681a4.34,4.34,0,0,1,4.341,4.341V18.5a3.75,3.75,0,0,1-7.5,0"/><path class="cls-1" d="M10.688,7.314,6.582,5.735A4.275,4.275,0,1,0,5.047,14H7.363a4.34,4.34,0,0,0-4.341,4.341V18.5a3.75,3.75,0,0,0,7.5,0"/><path class="cls-1" d="M15.022,2a3,3,0,0,0-3,3V6.5"/><path class="cls-1" d="M9.022,2a3,3,0,0,1,3,3V6.5"/></svg>