<svg id="Regular" xmlns="http://www.w3.org/2000/svg" viewBox="0 0 24 24"><defs><style>.cls-1{fill:none;stroke:currentColor;stroke-linecap:round;stroke-linejoin:round;stroke-width:1.5px;}</style></defs><title>flying-insect-bee-4</title><path class="cls-1" d="M7.526,13.98,5.891,15.615a2.961,2.961,0,0,1-4.23,0,2.961,2.961,0,0,1,0-4.23L7.526,5.52"/><path class="cls-1" d="M16.526,5.52l5.865,5.865a2.991,2.991,0,1,1-4.23,4.23L16.526,13.98"/><path class="cls-1" d="M16.526,5.52V15.75a4.5,4.5,0,0,1-9,0V5.52L9.911,3.135a2.961,2.961,0,0,1,4.23,0Z"/><path class="cls-1" d="M16.526,6.219a6,6,0,0,1-9,0"/><line class="cls-1" x1="12.026" y1="20.25" x2="12.026" y2="23.25"/><line class="cls-1" x1="16.526" y1="15.75" x2="7.526" y2="15.75"/><line class="cls-1" x1="16.526" y1="12.75" x2="7.526" y2="12.75"/><line class="cls-1" x1="9.627" y1="3.418" x2="6.776" y2="0.75"/><line class="cls-1" x1="14.424" y1="3.418" x2="17.276" y2="0.75"/></svg>