<svg id="Regular" xmlns="http://www.w3.org/2000/svg" viewBox="0 0 24 24"><defs><style>.cls-1{fill:none;stroke:currentColor;stroke-linecap:round;stroke-linejoin:round;stroke-width:1.5px;}</style></defs><title>flying-insect-dragonfly-1</title><line class="cls-1" x1="11.936" y1="23.25" x2="11.936" y2="12.75"/><path class="cls-1" d="M11.936,12.75a5.594,5.594,0,0,0,4.5,3.75,9.4,9.4,0,0,0,4.722-.187.75.75,0,0,0,.207-1.328L17.186,12"/><path class="cls-1" d="M9.861,10.919A5.129,5.129,0,0,1,6.686,12,5.087,5.087,0,0,1,1.858,9.341.749.749,0,0,1,2.529,8.25H21.343a.749.749,0,0,1,.671,1.091A5.087,5.087,0,0,1,17.186,12a5.131,5.131,0,0,1-3.175-1.081"/><path class="cls-1" d="M11.936,12.75a5.594,5.594,0,0,1-4.5,3.75,9.4,9.4,0,0,1-4.722-.187.75.75,0,0,1-.207-1.328L6.686,12"/><ellipse class="cls-1" cx="14.936" cy="4.125" rx="1.5" ry="1.875"/><ellipse class="cls-1" cx="8.936" cy="4.125" rx="1.5" ry="1.875"/><path class="cls-1" d="M8.936,2.25a4.249,4.249,0,0,1,3-1.5,4.249,4.249,0,0,1,3,1.5"/></svg>