<svg id="Regular" xmlns="http://www.w3.org/2000/svg" viewBox="0 0 24 24"><defs><style>.cls-1{fill:none;stroke:currentColor;stroke-linecap:round;stroke-linejoin:round;stroke-width:1.5px;}</style></defs><title>flying-insect-ladybug-1</title><path class="cls-1" d="M21.466,11.868a7.627,7.627,0,0,1,1.784,4.68c0,1.5-3.694,3-8.25,3s-8.25-1.5-8.25-3"/><path class="cls-1" d="M6.75,16.548s-3-6.75,2.25-12C13.356.191,18.745,2.032,20.454,2.784a.752.752,0,0,1,.429.855,15.887,15.887,0,0,1-5.133,8.409A20.973,20.973,0,0,1,6.75,16.548Z"/><path class="cls-1" d="M7.491,6.418c2.3,1.152,3.265.124,3.759-.37a2.679,2.679,0,0,0,.52-3.461"/><path class="cls-1" d="M9.911,15.565c-.4-1.282-.575-2.742.589-3.517.48-.32,2.32-1.395,3.93,1.019"/><path class="cls-1" d="M20.379,5.33c-2.831-.708-3.695.917-3.879,1.468-.58,1.739.012,2.631,1.234,3.241"/><path class="cls-1" d="M5.991,13.546C5.766,13.512,1.48,12.916.75,17.3c.75,3,4.5,2.25,4.5,2.25"/><line class="cls-1" x1="0.75" y1="12.048" x2="2.801" y2="14.099"/><path class="cls-1" d="M4.125,15.8a.374.374,0,0,1,.375.375"/><path class="cls-1" d="M3.75,16.173a.374.374,0,0,1,.375-.375"/><path class="cls-1" d="M4.125,16.548a.375.375,0,0,1-.375-.375"/><path class="cls-1" d="M4.5,16.173a.375.375,0,0,1-.375.375"/><path class="cls-1" d="M9.229,18.633l-.695,2.778a1.5,1.5,0,0,1-1.455,1.137H6.75"/><path class="cls-1" d="M13.513,19.494l-.479,1.917a1.5,1.5,0,0,1-1.455,1.137H11.25"/><path class="cls-1" d="M20.771,18.633l.7,2.778a1.5,1.5,0,0,0,1.455,1.137h.329"/><path class="cls-1" d="M16.487,19.494l.479,1.917a1.5,1.5,0,0,0,1.455,1.137h.329"/></svg>