<svg id="Regular" xmlns="http://www.w3.org/2000/svg" viewBox="0 0 24 24"><defs><style>.cls-1{fill:none;stroke:currentColor;stroke-linecap:round;stroke-linejoin:round;stroke-width:1.5px;}</style></defs><title>flying-insect-moth-1</title><path class="cls-1" d="M15.022,5.5c0,1.657-1.343,4.5-3,4.5s-3-2.843-3-4.5a3,3,0,1,1,6,0Z"/><path class="cls-1" d="M9.46,3.938a1.5,1.5,0,1,1,1-1"/><path class="cls-1" d="M13.584,2.938a1.5,1.5,0,1,1,1,1"/><path class="cls-1" d="M9.219,6.768C5.351,11.238,2.983,18.987,5.272,19.75c2.25.75,6-2.25,6.75-5.25.75,3,4.5,6,6.75,5.25,2.289-.763-.08-8.512-3.947-12.982"/><line class="cls-1" x1="12.022" y1="10" x2="12.022" y2="14.5"/><path class="cls-1" d="M8.965,18.716c.7,3.515,2.335,4.034,3.057,4.034s2.353-.515,3.057-4.034"/><path class="cls-1" d="M18.772,7a3.957,3.957,0,0,0,3.75-3"/><path class="cls-1" d="M20.272,10.75a2.664,2.664,0,0,0,2.25-1.5"/><path class="cls-1" d="M5.272,7a3.957,3.957,0,0,1-3.75-3"/><path class="cls-1" d="M3.772,10.75a2.664,2.664,0,0,1-2.25-1.5"/></svg>