<svg id="Regular" xmlns="http://www.w3.org/2000/svg" viewBox="0 0 24 24"><defs><style>.cls-1{fill:none;stroke:currentColor;stroke-linecap:round;stroke-linejoin:round;stroke-width:1.5px;}</style></defs><title>flying-insect-bee-1</title><path class="cls-1" d="M6.055,9.61c0-2.873,2.662-5.2,5.945-5.2s5.945,2.329,5.945,5.2V16.3c0,2.873-2.662,5.2-5.945,5.2s-5.945-2.329-5.945-5.2Z"/><line class="cls-1" x1="6.055" y1="9.61" x2="17.945" y2="9.61"/><line class="cls-1" x1="6.055" y1="13.325" x2="17.945" y2="13.325"/><line class="cls-1" x1="6.115" y1="17.041" x2="17.885" y2="17.041"/><path class="cls-1" d="M15.014,5.125c-.391-3.442,2.073-5.291,3.674-3.69"/><path class="cls-1" d="M8.986,5.125c.391-3.442-2.073-5.291-3.674-3.69"/><path class="cls-1" d="M6.055,10.353A5.188,5.188,0,0,0,3.082,8.867c-2.972,0-2.972,4.458-.743,4.458"/><path class="cls-1" d="M6.055,16.3a5.188,5.188,0,0,1-2.973,1.486c-2.972,0-2.972-4.459-.743-4.459"/><path class="cls-1" d="M17.945,10.353a5.188,5.188,0,0,1,2.973-1.486c2.972,0,2.972,4.458.743,4.458"/><path class="cls-1" d="M17.945,16.3a5.188,5.188,0,0,0,2.973,1.486c2.972,0,2.972-4.459.743-4.459"/><line class="cls-1" x1="12" y1="21.5" x2="12" y2="22.986"/></svg>