<svg id="Regular" xmlns="http://www.w3.org/2000/svg" viewBox="0 0 24 24"><defs><style>.cls-1{fill:none;stroke:currentColor;stroke-linecap:round;stroke-linejoin:round;stroke-width:1.5px;}</style></defs><title>flying-insect-butterfly</title><line class="cls-1" x1="12.022" y1="11.25" x2="12.022" y2="23.25"/><path class="cls-1" d="M12.022,18a3.75,3.75,0,0,0,7.5,0,3.712,3.712,0,0,0-.492-1.824,5.241,5.241,0,1,0-7.008-4.926"/><path class="cls-1" d="M12.022,11.25a5.25,5.25,0,1,0-7.008,4.926A3.712,3.712,0,0,0,4.522,18a3.75,3.75,0,0,0,7.5,0"/><circle class="cls-1" cx="17.272" cy="11.25" r="1.5"/><circle class="cls-1" cx="6.772" cy="11.25" r="1.5"/><path class="cls-1" d="M15.772,17.625a.375.375,0,0,1,.375.375"/><path class="cls-1" d="M15.4,18a.375.375,0,0,1,.375-.375"/><path class="cls-1" d="M15.772,18.375A.375.375,0,0,1,15.4,18"/><path class="cls-1" d="M16.147,18a.375.375,0,0,1-.375.375"/><path class="cls-1" d="M8.272,17.625A.375.375,0,0,1,8.647,18"/><path class="cls-1" d="M7.9,18a.375.375,0,0,1,.375-.375"/><path class="cls-1" d="M8.272,18.375A.375.375,0,0,1,7.9,18"/><path class="cls-1" d="M8.647,18a.375.375,0,0,1-.375.375"/><line class="cls-1" x1="13.522" y1="4.5" x2="18.022" y2="0.75"/><line class="cls-1" x1="10.522" y1="4.5" x2="6.022" y2="0.75"/></svg>