<svg id="Regular" xmlns="http://www.w3.org/2000/svg" viewBox="0 0 24 24"><defs><style>.cls-1{fill:none;stroke:currentColor;stroke-linecap:round;stroke-linejoin:round;stroke-width:1.5px;}</style></defs><title>footwear-winter-boots</title><path class="cls-1" d="M16.847,14.189A3,3,0,0,0,15,16.959v3"/><line class="cls-1" x1="22.349" y1="19.959" x2="1.5" y2="19.959"/><path class="cls-1" d="M7.5,12.459h4.148a4.481,4.481,0,0,1-1.147-3h-3a1.5,1.5,0,1,0,0,3Z"/><path class="cls-1" d="M7.5,6.459h3v-3h-3a1.5,1.5,0,0,0,0,3Z"/><path class="cls-1" d="M22.5,21.459a7.5,7.5,0,0,0-7.5-7.5,4.5,4.5,0,0,1-4.5-4.5v-6L3.474,1.118A1.5,1.5,0,0,0,1.5,2.541V21.459a1.5,1.5,0,0,0,1.5,1.5H21A1.5,1.5,0,0,0,22.5,21.459Z"/></svg>