<svg id="Regular" xmlns="http://www.w3.org/2000/svg" viewBox="0 0 24 24"><defs><style>.cls-1{fill:none;stroke:currentColor;stroke-linecap:round;stroke-linejoin:round;stroke-width:1.5px;}</style></defs><title>footwear-boots</title><path class="cls-1" d="M23.25,21.75a7.5,7.5,0,0,0-7.5-7.5,4.5,4.5,0,0,1-4.5-4.5V2.25A1.5,1.5,0,0,0,9.75.75H2.25a1.5,1.5,0,0,0-1.5,1.5v19.5a1.5,1.5,0,0,0,1.5,1.5h19.5A1.5,1.5,0,0,0,23.25,21.75Z"/><path class="cls-1" d="M17.6,14.479A3,3,0,0,0,15.75,17.25v3"/><line class="cls-1" x1="23.1" y1="20.25" x2="0.75" y2="20.25"/><line class="cls-1" x1="11.25" y1="5.25" x2="8.25" y2="5.25"/><line class="cls-1" x1="11.25" y1="9.75" x2="8.25" y2="9.75"/><line class="cls-1" x1="12.568" y1="12.932" x2="10.447" y2="15.053"/></svg>