<svg id="Regular" xmlns="http://www.w3.org/2000/svg" viewBox="0 0 24 24"><defs><style>.cls-1{fill:none;stroke:currentColor;stroke-linecap:round;stroke-linejoin:round;stroke-width:1.5px;}</style></defs><title>footwear-boots-female</title><path class="cls-1" d="M3.75,17.25v4.5a1.5,1.5,0,0,0,3,0v-2.5"/><path class="cls-1" d="M3.75,17.25l8.244,5.5a3,3,0,0,0,1.664.5h4.763a1.829,1.829,0,0,0,1.829-1.829,4.5,4.5,0,0,0-2.345-3.95l-4.228-2.306a3,3,0,0,1-1.558-2.821L12.75,2.25A6.57,6.57,0,0,0,8.25.75a6.57,6.57,0,0,0-4.5,1.5Z"/><line class="cls-1" x1="8.25" y1="0.75" x2="8.25" y2="12.75"/></svg>