<svg id="Regular" xmlns="http://www.w3.org/2000/svg" viewBox="0 0 24 24"><defs><style>.cls-1{fill:none;stroke:currentColor;stroke-linecap:round;stroke-linejoin:round;stroke-width:1.5px;}</style></defs><title>footwear-sneakers-1</title><path class="cls-1" d="M10.5,5.25a3.751,3.751,0,0,1-7.391.9,1.185,1.185,0,0,0-1.15-.9A1.209,1.209,0,0,0,.75,6.459V15.75a1.5,1.5,0,0,0,1.5,1.5h19.5a1.5,1.5,0,0,0,1.5-1.5V14.466a3,3,0,0,0-1.479-2.586Z"/><line class="cls-1" x1="0.75" y1="14.25" x2="23.25" y2="14.25"/><line class="cls-1" x1="12.75" y1="9" x2="14.278" y2="7.472"/><line class="cls-1" x1="15.75" y1="10.5" x2="17.111" y2="9.139"/><line class="cls-1" x1="3.75" y1="17.25" x2="3.75" y2="18.75"/><line class="cls-1" x1="8.25" y1="17.25" x2="8.25" y2="18.75"/><line class="cls-1" x1="17.25" y1="17.25" x2="17.25" y2="18.75"/><line class="cls-1" x1="14.25" y1="17.25" x2="14.25" y2="18.75"/><line class="cls-1" x1="20.25" y1="17.25" x2="20.25" y2="18.75"/></svg>