<svg id="Regular" xmlns="http://www.w3.org/2000/svg" viewBox="0 0 24 24"><defs><style>.cls-1{fill:none;stroke:currentColor;stroke-linecap:round;stroke-linejoin:round;stroke-width:1.5px;}</style></defs><title>footwear-sock</title><path class="cls-1" d="M18.375,22.938a3.753,3.753,0,0,0,1.151-6.089L15.375,12.7V1.5a.75.75,0,0,0-.75-.75h-.75"/><path class="cls-1" d="M6.027,18.4A3.75,3.75,0,0,0,3.375,12"/><path class="cls-1" d="M15.407,17.293a3.75,3.75,0,0,1-5.239,5.238A6,6,0,0,1,15.407,17.293Z"/><path class="cls-1" d="M4.125.75a.75.75,0,0,0-.75.75V14.25a3.749,3.749,0,0,0,1.1,2.651l5.25,5.25a3.749,3.749,0,0,0,5.3-5.3L10.875,12.7V1.5a.75.75,0,0,0-.75-.75Z"/></svg>