<svg id="Regular" xmlns="http://www.w3.org/2000/svg" viewBox="0 0 24 24"><defs><style>.cls-1{fill:none;stroke:currentColor;stroke-linecap:round;stroke-linejoin:round;stroke-width:1.5px;}</style></defs><title>footwear-flip-flops</title><path class="cls-1" d="M9.265,19.271A4.262,4.262,0,0,1,.75,18.988V5.325A4.575,4.575,0,0,1,5.325.75H5.61a4.574,4.574,0,0,1,4.565,4.879Z"/><polyline class="cls-1" points="0.75 10.5 5.25 5.25 9.85 10.5"/><path class="cls-1" d="M14.735,19.271a4.262,4.262,0,0,0,8.515-.283V5.325A4.575,4.575,0,0,0,18.675.75H18.39a4.574,4.574,0,0,0-4.565,4.879Z"/><polyline class="cls-1" points="23.25 10.5 18.75 5.25 14.15 10.5"/></svg>