<svg id="Regular" xmlns="http://www.w3.org/2000/svg" viewBox="0 0 24 24"><defs><style>.cls-1{fill:none;stroke:currentColor;stroke-linecap:round;stroke-linejoin:round;stroke-width:1.5px;}</style></defs><title>fossil-energy-plant</title><line class="cls-1" x1="1.5" y1="23.25" x2="22.5" y2="23.25"/><line class="cls-1" x1="12" y1="3.75" x2="12" y2="0.75"/><path class="cls-1" d="M19.5,23.25,12.867,7.328a.939.939,0,0,0-1.734,0C9.159,12.065,4.5,23.25,4.5,23.25"/><line class="cls-1" x1="16.5" y1="11.25" x2="7.5" y2="11.25"/><line class="cls-1" x1="9.147" y1="12.096" x2="17" y2="17.25"/><line class="cls-1" x1="14.853" y1="12.096" x2="7" y2="17.25"/><line class="cls-1" x1="7" y1="17.25" x2="19.5" y2="23.25"/><line class="cls-1" x1="17" y1="17.25" x2="4.5" y2="23.25"/><path class="cls-1" d="M9,3.75a2.323,2.323,0,0,0-3-1.5"/><path class="cls-1" d="M15,3.75a2.323,2.323,0,0,1,3-1.5"/></svg>