<svg id="Regular" xmlns="http://www.w3.org/2000/svg" viewBox="0 0 24 24"><defs><style>.cls-1{fill:none;stroke:currentColor;stroke-linecap:round;stroke-linejoin:round;stroke-width:1.5px;}</style></defs><title>fox-body</title><path class="cls-1" d="M3,22.72V15.241A3.533,3.533,0,0,1,6.734,11.5H8.978c2.244,0,4.488-1.5,4.488-2.992V6.265c0-3.74,2.992-3.74,2.992-3.74l.748,2.244s2.244,0,2.992,1.5,2.992,1.5,2.992,1.5.748,2.992-2.992,3.74c-2.32.464-2.992,2.992-2.992,4.488V22.72"/><path class="cls-1" d="M3,19.729s3.739.748,4.487-2.992"/><path class="cls-1" d="M6.9,18.233h5.817A4.642,4.642,0,0,0,17.237,15.4"/><path class="cls-1" d="M3.4,13.4,3,13A8.26,8.26,0,0,1,.751,7.761,6.551,6.551,0,0,1,5.986,1.03c1.5.747,1.5,2.991,0,5.983A7.343,7.343,0,0,0,5.238,11.5l.053.237"/><path class="cls-1" d="M2.247,3.273s0,3.178,4.093,2.984"/><path class="cls-1" d="M18.328,7.76a.375.375,0,0,1,.375.375"/><path class="cls-1" d="M17.953,8.135a.375.375,0,0,1,.375-.375"/><path class="cls-1" d="M18.328,8.51a.375.375,0,0,1-.375-.375"/><path class="cls-1" d="M18.7,8.135a.375.375,0,0,1-.375.375"/></svg>