<svg id="Regular" xmlns="http://www.w3.org/2000/svg" viewBox="0 0 24 24"><defs><style>.cls-1{fill:none;stroke:currentColor;stroke-linecap:round;stroke-linejoin:round;stroke-width:1.5px;}</style></defs><title>fruit-banana</title><path class="cls-1" d="M22.5,10.954a12.3,12.3,0,0,1-12.3,12.3c-4.479,0-5.8-1.833-8.227-2.812a.751.751,0,0,1-.418-.967c.142-.366.325-.84.518-1.351a.75.75,0,0,1,.946-.444c7.224,2.491,17.621-5.713,12.36-15.2a.751.751,0,0,1,.432-1.08C16.417,1.2,17.2.958,17.765.784a.749.749,0,0,1,.93.47C19.991,4.986,22.5,5.213,22.5,10.954Z"/></svg>