<svg id="Regular" xmlns="http://www.w3.org/2000/svg" viewBox="0 0 24 24"><defs><style>.cls-1{fill:none;stroke:currentColor;stroke-linecap:round;stroke-linejoin:round;stroke-width:1.5px;}</style></defs><title>fruit-orange</title><path class="cls-1" d="M13.217,6.008a8.625,8.625,0,1,1-9,8.617"/><line class="cls-1" x1="9.467" y1="0.75" x2="16.967" y2="0.75"/><line class="cls-1" x1="13.217" y1="0.75" x2="13.217" y2="11.25"/><path class="cls-1" d="M10.967,10.569h0a4.057,4.057,0,0,0,4.5,0h0"/><path class="cls-1" d="M8.082,9.635a8.213,8.213,0,0,1-3.9,2.037,1.286,1.286,0,0,1-1.6-1.6,8.222,8.222,0,0,1,2.037-3.9,8.222,8.222,0,0,1,3.9-2.037,1.286,1.286,0,0,1,1.6,1.6A8.213,8.213,0,0,1,8.082,9.635Z"/></svg>