<svg id="Regular" xmlns="http://www.w3.org/2000/svg" viewBox="0 0 24 24"><defs><style>.cls-1{fill:none;stroke:currentColor;stroke-linecap:round;stroke-linejoin:round;stroke-width:1.5px;}</style></defs><title>fruit-strawberry-1</title><path class="cls-1" d="M12,4.5A6.945,6.945,0,0,0,3.136,1.3a.493.493,0,0,0-.276.3.488.488,0,0,0,.051.406,6.942,6.942,0,0,0,5.6,3.267"/><path class="cls-1" d="M12,4.5a6.944,6.944,0,0,1,8.864-3.2.491.491,0,0,1,.225.709,6.942,6.942,0,0,1-5.6,3.267"/><path class="cls-1" d="M7.875,9.75a.375.375,0,1,1-.375.375.375.375,0,0,1,.375-.375"/><path class="cls-1" d="M16.125,9.75a.375.375,0,1,0,.375.375.375.375,0,0,0-.375-.375"/><path class="cls-1" d="M12,9.75a.375.375,0,1,1-.375.375A.375.375,0,0,1,12,9.75"/><path class="cls-1" d="M9.75,14.25a.375.375,0,0,1,.375.375"/><path class="cls-1" d="M9.375,14.625a.375.375,0,0,1,.375-.375"/><path class="cls-1" d="M10.125,14.625a.375.375,0,0,1-.75,0"/><path class="cls-1" d="M12,18a.375.375,0,1,1-.375.375A.375.375,0,0,1,12,18"/><path class="cls-1" d="M14.25,14.25a.375.375,0,0,0-.375.375"/><path class="cls-1" d="M14.625,14.625a.375.375,0,0,0-.375-.375"/><path class="cls-1" d="M13.875,14.625a.375.375,0,0,0,.75,0"/><path class="cls-1" d="M20.25,12.75c0,4.556-4.5,10.5-8.25,10.5s-8.25-5.944-8.25-10.5a8.25,8.25,0,0,1,16.5,0Z"/></svg>