<svg id="Regular" xmlns="http://www.w3.org/2000/svg" viewBox="0 0 24 24"><defs><style>.cls-1{fill:none;stroke:currentColor;stroke-linecap:round;stroke-linejoin:round;stroke-width:1.5px;}</style></defs><title>fruit-scale-apple</title><path class="cls-1" d="M21.8,22.908a.51.51,0,0,1-.484.342H2.689a.51.51,0,0,1-.484-.342l-.679-2a.5.5,0,0,1,.483-.658H21.991a.5.5,0,0,1,.483.658Z"/><line class="cls-1" x1="1.5" y1="17.25" x2="11.143" y2="17.25"/><line class="cls-1" x1="6" y1="17.464" x2="6" y2="20.25"/><circle class="cls-1" cx="17.25" cy="6" r="5.25"/><line class="cls-1" x1="12.217" y1="7.5" x2="22.283" y2="7.5"/><line class="cls-1" x1="15.75" y1="4.5" x2="17.25" y2="7.5"/><line class="cls-1" x1="15" y1="10.745" x2="15" y2="20.25"/><line class="cls-1" x1="19.5" y1="10.813" x2="19.5" y2="20.25"/><path class="cls-1" d="M9.764,15.029a6.058,6.058,0,0,0,.9-2.9c0-1.74-1.135-3.2-2.5-3.2s-1.362.586-1.816.586-.454-.586-1.816-.586-2.5,1.457-2.5,3.2a6.073,6.073,0,0,0,.912,2.93"/><path class="cls-1" d="M6.347,9.513V8.927A2.671,2.671,0,0,1,8.732,5.893"/></svg>