<svg id="Regular" xmlns="http://www.w3.org/2000/svg" viewBox="0 0 24 24"><defs><style>.cls-1{fill:none;stroke:currentColor;stroke-linecap:round;stroke-linejoin:round;stroke-width:1.5px;}</style></defs><title>fruit-acorn</title><path class="cls-1" d="M6.451,4.273,4.862,5.862C-1.213,11.938,1,19.2,1.837,21.3a1.517,1.517,0,0,0,.859.858C4.8,23,12.062,25.213,18.138,19.137l1.588-1.588"/><path class="cls-1" d="M18.873,17.107a1.556,1.556,0,0,0,2.351-.15A10.293,10.293,0,0,0,20.35,3.649,10.292,10.292,0,0,0,7.043,2.776a1.556,1.556,0,0,0-.15,2.351Z"/><line class="cls-1" x1="20.35" y1="3.649" x2="23.25" y2="0.75"/><line class="cls-1" x1="11.76" y1="0.86" x2="11.189" y2="9.423"/><line class="cls-1" x1="16.309" y1="1.208" x2="15.476" y2="13.71"/><line class="cls-1" x1="20.35" y1="3.649" x2="19.794" y2="17.559"/><line class="cls-1" x1="23.139" y1="12.24" x2="15.54" y2="12.747"/><line class="cls-1" x1="22.792" y1="7.69" x2="10.29" y2="8.524"/><line class="cls-1" x1="20.35" y1="3.649" x2="6.441" y2="4.206"/></svg>