<svg id="Regular" xmlns="http://www.w3.org/2000/svg" viewBox="0 0 24 24"><defs><style>.cls-1{fill:none;stroke:currentColor;stroke-linecap:round;stroke-linejoin:round;stroke-width:1.5px;}</style></defs><title>fruit-kiwi</title><circle class="cls-1" cx="12" cy="12" r="11.25"/><path class="cls-1" d="M9.531,6.6a2.053,2.053,0,0,0-2.9,2.9c.8.8,3.873.969,3.873.969S10.334,7.4,9.531,6.6Z"/><path class="cls-1" d="M14.468,6.6a2.054,2.054,0,1,1,2.905,2.9c-.8.8-3.873.969-3.873.969S13.666,7.4,14.468,6.6Z"/><path class="cls-1" d="M9.531,17.373a2.054,2.054,0,0,1-2.9-2.905c.8-.8,3.873-.968,3.873-.968S10.334,16.571,9.531,17.373Z"/><path class="cls-1" d="M14.468,17.373a2.054,2.054,0,0,0,2.905-2.905c-.8-.8-3.873-.968-3.873-.968S13.666,16.571,14.468,17.373Z"/></svg>