<svg id="Regular" xmlns="http://www.w3.org/2000/svg" viewBox="0 0 24 24"><defs><style>.cls-1{fill:none;stroke:currentColor;stroke-linecap:round;stroke-linejoin:round;stroke-width:1.5px;}</style></defs><title>fruit-scale</title><path class="cls-1" d="M19.979,12H4.021a1.636,1.636,0,0,0-1.462.9L.925,15.635A1.634,1.634,0,0,0,2.387,18H21.613a1.634,1.634,0,0,0,1.462-2.365L21.441,12.9A1.636,1.636,0,0,0,19.979,12Z"/><line class="cls-1" x1="5.25" y1="15" x2="9.75" y2="15"/><path class="cls-1" d="M14.625,14.25a.375.375,0,1,1-.375.375.375.375,0,0,1,.375-.375"/><path class="cls-1" d="M18.375,14.25a.375.375,0,1,1-.375.375.375.375,0,0,1,.375-.375"/><line class="cls-1" x1="6.75" y1="9" x2="6.75" y2="12"/><line class="cls-1" x1="17.25" y1="8.999" x2="17.25" y2="11.999"/><path class="cls-1" d="M22.643,6H1.357a.376.376,0,0,0-.336.543l.814,1.628A1.5,1.5,0,0,0,3.177,9H20.823a1.5,1.5,0,0,0,1.342-.829l.814-1.628A.376.376,0,0,0,22.643,6Z"/></svg>