<svg xmlns="http://www.w3.org/2000/svg" viewBox="0 0 24 24"><defs><style>.a{fill:none;stroke:currentColor;stroke-linecap:round;stroke-linejoin:round;stroke-width:1.5px;}</style></defs><title>garbage-bin-throw-1</title><circle class="a" cx="17.25" cy="3.372" r="2.625"/><line class="a" x1="17.25" y1="16.497" x2="17.25" y2="21.747"/><path class="a" d="M11.115,14.691a5.962,5.962,0,0,0,3.135-2.442v9.5a1.5,1.5,0,0,0,3,0,1.5,1.5,0,0,0,3,0V15a1.5,1.5,0,0,0,3,0V12a4.5,4.5,0,0,0-4.5-4.5H16.1a4.5,4.5,0,0,0-4.025,2.487l-.177.354a3,3,0,0,1-1.744,1.508,1.5,1.5,0,0,0,.957,2.845Z"/><line class="a" x1="20.25" y1="14.997" x2="20.25" y2="11.997"/><circle class="a" cx="5.25" cy="11.247" r="1.5"/><path class="a" d="M2.25,23.247a1.5,1.5,0,0,1-1.5-1.5v-6h7.5L6.991,22.041A1.5,1.5,0,0,1,5.52,23.247Z"/><line class="a" x1="0.75" y1="15.747" x2="0.75" y2="8.997"/></svg>