<svg xmlns="http://www.w3.org/2000/svg" viewBox="0 0 24 24"><defs><style>.a{fill:none;stroke:currentColor;stroke-linecap:round;stroke-linejoin:round;stroke-width:1.5px;}</style></defs><title>garbage-bin-throw</title><circle class="a" cx="15" cy="3.369" r="2.625"/><path class="a" d="M23.165,21.244l-4.5-12.75a1.5,1.5,0,0,0-2.7-.272,6.819,6.819,0,0,1-5.469,3.022,1.5,1.5,0,0,0,.006,3,10.436,10.436,0,0,0,6.2-2.309l.835,2.365-1.154.576a6.017,6.017,0,0,0-3.234,4.382L12.77,21.5a1.5,1.5,0,0,0,2.959.493l.374-2.24a3.005,3.005,0,0,1,1.617-2.19l.818-.409,1.8,5.092a1.5,1.5,0,1,0,2.83-1Z"/><path class="a" d="M2.857,23.244a1.5,1.5,0,0,1-1.492-1.351L.75,15.744H9l-.615,6.149a1.5,1.5,0,0,1-1.493,1.351Z"/><circle class="a" cx="3.75" cy="11.244" r="1.5"/><path class="a" d="M6.75,6.369a.375.375,0,1,1-.375.375.374.374,0,0,1,.375-.375"/></svg>