<svg id="Regular" xmlns="http://www.w3.org/2000/svg" viewBox="0 0 24 24"><defs><style>.cls-1{fill:none;stroke:currentColor;stroke-linecap:round;stroke-linejoin:round;stroke-width:1.5px;}</style></defs><title>gardening-sprinkle-bottle-1</title><path class="cls-1" d="M11.5,11.25V7.5h-3v-3h6.052a8.823,8.823,0,0,1,8.513,6.471,1.5,1.5,0,0,1-1.059,1.836l-.032.009a1.389,1.389,0,0,1-1.7-.975A6,6,0,0,0,14.5,7.5v3.75"/><path class="cls-1" d="M9.75,11.25h6.5a2,2,0,0,1,2,2v9a1,1,0,0,1-1,1H8.75a1,1,0,0,1-1-1v-9A2,2,0,0,1,9.75,11.25Z"/><line class="cls-1" x1="13" y1="4.5" x2="13" y2="0.75"/><line class="cls-1" x1="9.25" y1="0.75" x2="16.75" y2="0.75"/><path class="cls-1" d="M1.375,1.5a.375.375,0,0,1,.375.375"/><path class="cls-1" d="M1,1.875A.375.375,0,0,1,1.375,1.5"/><path class="cls-1" d="M1.375,2.25A.375.375,0,0,1,1,1.875"/><path class="cls-1" d="M1.75,1.875a.375.375,0,0,1-.375.375"/><path class="cls-1" d="M1.375,5.25a.375.375,0,0,1,.375.375"/><path class="cls-1" d="M1,5.625a.375.375,0,0,1,.375-.375"/><path class="cls-1" d="M1.375,6A.375.375,0,0,1,1,5.625"/><path class="cls-1" d="M1.75,5.625A.375.375,0,0,1,1.375,6"/><path class="cls-1" d="M5.125,3a.375.375,0,0,1,.375.375"/><path class="cls-1" d="M4.75,3.375A.375.375,0,0,1,5.125,3"/><path class="cls-1" d="M5.125,3.75a.375.375,0,0,1-.375-.375"/><path class="cls-1" d="M5.5,3.375a.375.375,0,0,1-.375.375"/><path class="cls-1" d="M5.125,7.5a.375.375,0,0,1,.375.375"/><path class="cls-1" d="M4.75,7.875A.375.375,0,0,1,5.125,7.5"/><path class="cls-1" d="M5.125,8.25a.375.375,0,0,1-.375-.375"/><path class="cls-1" d="M5.5,7.875a.375.375,0,0,1-.375.375"/><path class="cls-1" d="M1.375,9a.375.375,0,0,1,.375.375"/><path class="cls-1" d="M1,9.375A.375.375,0,0,1,1.375,9"/><path class="cls-1" d="M1.375,9.75A.375.375,0,0,1,1,9.375"/><path class="cls-1" d="M1.75,9.375a.375.375,0,0,1-.375.375"/></svg>