<svg id="Regular" xmlns="http://www.w3.org/2000/svg" viewBox="0 0 24 24"><defs><style>.cls-1{fill:none;stroke:currentColor;stroke-linecap:round;stroke-linejoin:round;stroke-width:1.5px;}</style></defs><title>gardening-seed-hand</title><path class="cls-1" d="M20.25,7.3l-7.5,3s-1.186-1.814,0-3A10.789,10.789,0,0,1,15,5.8L13.389,4.729a1.486,1.486,0,0,0-1.332-.166A18.946,18.946,0,0,1,6.75,5.8C4.5,5.8,4.5,4.3,4.5,4.3l6.929-3.15A4.5,4.5,0,0,1,14.173.837L20.25,2.053"/><line class="cls-1" x1="5.25" y1="10.5" x2="6.75" y2="12"/><line class="cls-1" x1="16.5" y1="14.25" x2="15" y2="14.25"/><line class="cls-1" x1="3.75" y1="23.25" x2="6" y2="21.75"/><line class="cls-1" x1="3.75" y1="16.5" x2="5.25" y2="17.25"/><line class="cls-1" x1="15" y1="20.25" x2="13.5" y2="21.75"/><line class="cls-1" x1="10.5" y1="17.25" x2="10.5" y2="15.75"/></svg>