<svg id="Regular" xmlns="http://www.w3.org/2000/svg" viewBox="0 0 24 24"><defs><style>.cls-1{fill:none;stroke:currentColor;stroke-linecap:round;stroke-linejoin:round;stroke-width:1.5px;}</style></defs><title>gardening-tools-1</title><line class="cls-1" x1="6" y1="12" x2="6" y2="20.25"/><path class="cls-1" d="M10.443,12.643a1.5,1.5,0,0,1-1.5,1.607H3.053a1.5,1.5,0,0,1-1.5-1.608A22.816,22.816,0,0,1,4.714,2.614a1.5,1.5,0,0,1,2.572,0A22.831,22.831,0,0,1,10.443,12.643Z"/><line class="cls-1" x1="16.5" y1="23.25" x2="16.5" y2="11.25"/><line class="cls-1" x1="19.5" y1="23.25" x2="19.5" y2="11.25"/><path class="cls-1" d="M22.5,23.25V12.75a1.5,1.5,0,0,0-1.5-1.5H15a1.5,1.5,0,0,0-1.5,1.5v10.5"/><circle class="cls-1" cx="6" cy="21.75" r="1.5"/><circle class="cls-1" cx="18" cy="2.25" r="1.5"/><line class="cls-1" x1="18" y1="11.25" x2="18" y2="3.75"/></svg>