<svg id="Regular" xmlns="http://www.w3.org/2000/svg" viewBox="0 0 24 24"><defs><style>.cls-1{fill:none;stroke:currentColor;stroke-linecap:round;stroke-linejoin:round;stroke-width:1.5px;}</style></defs><title>gardening-scissors-1</title><path class="cls-1" d="M12.861,9.622l4.274-8.547a.59.59,0,0,1,.976-.121,4.567,4.567,0,0,1,.565,5.1l-3.567,6.727"/><path class="cls-1" d="M11.177,9.622,6.9,1.075A.591.591,0,0,0,5.928.954a4.563,4.563,0,0,0-.565,5.1L8.93,12.784"/><path class="cls-1" d="M16.391,22.3l-4.372-7.275L7.647,22.3a1.875,1.875,0,0,1-3.256-1.86l6-10.125a1.95,1.95,0,0,1,3.256,0l6,10.125a1.875,1.875,0,1,1-3.256,1.86Z"/></svg>