<svg id="Regular" xmlns="http://www.w3.org/2000/svg" viewBox="0 0 24 24"><defs><style>.cls-1{fill:none;stroke:currentColor;stroke-linecap:round;stroke-linejoin:round;stroke-width:1.5px;}</style></defs><title>gardening-hand-sprinkler</title><path class="cls-1" d="M15.75,11.25h2c.828,0,1-.672,1-1.5V2.25c0-.828-.172-1.5-1-1.5h-2Z"/><polyline class="cls-1" points="11.751 9.75 3.75 9.75 3.75 4.5 11.311 2.82"/><path class="cls-1" d="M15.75,11.25c-2.9,0-5.25-1.5-5.25-5.25S12.851.75,15.75.75"/><path class="cls-1" d="M3.75,4.5V15c0,2.25-3,3-3,3V8.25A4,4,0,0,1,3.75,4.5Z"/><line class="cls-1" x1="21.75" y1="2.25" x2="23.25" y2="1.5"/><line class="cls-1" x1="21.75" y1="5.25" x2="23.25" y2="5.25"/><line class="cls-1" x1="21.75" y1="8.25" x2="23.25" y2="9"/><line class="cls-1" x1="9.75" y1="20.25" x2="9.75" y2="23.25"/><path class="cls-1" d="M6.75,9.75v7.5a3,3,0,0,0,6,0V10.541"/></svg>