<svg id="Regular" xmlns="http://www.w3.org/2000/svg" viewBox="0 0 24 24"><defs><style>.cls-1{fill:none;stroke:currentColor;stroke-linecap:round;stroke-linejoin:round;stroke-width:1.5px;}</style></defs><title>gardening-lawn-mower-1</title><line class="cls-1" x1="12.881" y1="19" x2="5.121" y2="19"/><path class="cls-1" d="M2.25,17.631V16a3,3,0,0,1,3-3h7.5a3,3,0,0,1,3,3v1.631"/><path class="cls-1" d="M6,13V11.5A1.5,1.5,0,0,1,7.5,10h3A1.5,1.5,0,0,1,12,11.5V13"/><path class="cls-1" d="M15.75,16V10.58a1.5,1.5,0,0,1,.39-1.009L23.25,1.75"/><circle class="cls-1" cx="3" cy="19.75" r="2.25"/><circle class="cls-1" cx="15" cy="19.75" r="2.25"/><line class="cls-1" x1="21.211" y1="3.993" x2="18.75" y2="2.062"/></svg>