<svg id="Regular" xmlns="http://www.w3.org/2000/svg" viewBox="0 0 24 24"><defs><style>.cls-1{fill:none;stroke:currentColor;stroke-linecap:round;stroke-linejoin:round;stroke-width:1.5px;}</style></defs><title>gardening-scissors</title><path class="cls-1" d="M14.805,9.727a5.625,5.625,0,0,0-7.955,0L1.281,15.3a3.75,3.75,0,0,0,5.3,0L9.5,12.378a1.875,1.875,0,0,1,2.652,2.652L9.236,17.947a3.75,3.75,0,0,0,0,5.3l5.569-5.568A5.626,5.626,0,0,0,14.805,9.727Z"/><path class="cls-1" d="M16.439,13.32A8.509,8.509,0,0,0,18.7,11.67,8.717,8.717,0,0,0,19.927.892L12.489,8.33"/><path class="cls-1" d="M17.838,2.979A8.244,8.244,0,0,1,15.6,10.522l-.08.079"/></svg>