<svg id="Regular" xmlns="http://www.w3.org/2000/svg" viewBox="0 0 24 24"><defs><style>.cls-1{fill:none;stroke:currentColor;stroke-linecap:round;stroke-linejoin:round;stroke-width:1.5px;}.cls-2{fill:#231f20;}</style></defs><title>gardening-sprinkle-bottle</title><path class="cls-1" d="M11.769,3.75h4.5l2.25,6V21a1.5,1.5,0,0,1-1.5,1.5h-6a1.5,1.5,0,0,1-1.5-1.5V9.75Z"/><path class="cls-1" d="M16.269,3.75h.75a6,6,0,0,1,6,6V12"/><line class="cls-1" x1="8.019" y1="5.25" x2="11.206" y2="5.25"/><line class="cls-1" x1="14.018" y1="3.75" x2="14.018" y2="0.75"/><polyline class="cls-1" points="9.519 18 14.019 18 14.019 13.5 9.519 13.5"/><line class="cls-1" x1="5.019" y1="3" x2="1.269" y2="1.5"/><line class="cls-1" x1="5.019" y1="7.5" x2="1.269" y2="9"/><line class="cls-1" x1="3.519" y1="5.25" x2="0.75" y2="5.25"/><line class="cls-2" x1="3.519" y1="5.25" x2="0.75" y2="5.25"/></svg>