<svg id="Regular" xmlns="http://www.w3.org/2000/svg" viewBox="0 0 24 24"><defs><style>.cls-1{fill:none;stroke:currentColor;stroke-linecap:round;stroke-linejoin:round;stroke-width:1.5px;}</style></defs><title>gardening-spirinkler</title><polyline class="cls-1" points="14.25 19.5 15 23.25 9 23.25 9.75 19.5"/><line class="cls-1" x1="12" y1="18" x2="12" y2="5.25"/><path class="cls-1" d="M15.75,11.25C15.75,14.149,12,18,12,18s-3.75-3.851-3.75-6.75S9.929,7.5,12,7.5,15.75,8.35,15.75,11.25Z"/><path class="cls-1" d="M16.875,5.25a.375.375,0,0,1,.375.375"/><path class="cls-1" d="M16.5,5.625a.375.375,0,0,1,.375-.375"/><path class="cls-1" d="M16.875,6a.375.375,0,0,1-.375-.375"/><path class="cls-1" d="M17.25,5.625A.375.375,0,0,1,16.875,6"/><path class="cls-1" d="M12,.75a.375.375,0,0,1,.375.375"/><path class="cls-1" d="M11.625,1.125A.375.375,0,0,1,12,.75"/><path class="cls-1" d="M12,1.5a.375.375,0,0,1-.375-.375"/><path class="cls-1" d="M12.375,1.125A.375.375,0,0,1,12,1.5"/><path class="cls-1" d="M19.125,9.75a.375.375,0,0,1,.375.375"/><path class="cls-1" d="M18.75,10.125a.375.375,0,0,1,.375-.375"/><path class="cls-1" d="M19.125,10.5a.375.375,0,0,1-.375-.375"/><path class="cls-1" d="M19.5,10.125a.375.375,0,0,1-.375.375"/><path class="cls-1" d="M20.625,2.25A.375.375,0,0,1,21,2.625"/><path class="cls-1" d="M20.25,2.625a.375.375,0,0,1,.375-.375"/><path class="cls-1" d="M20.625,3a.375.375,0,0,1-.375-.375"/><path class="cls-1" d="M21,2.625A.375.375,0,0,1,20.625,3"/><path class="cls-1" d="M22.875,9.75a.375.375,0,0,1,.375.375"/><path class="cls-1" d="M22.5,10.125a.375.375,0,0,1,.375-.375"/><path class="cls-1" d="M22.875,10.5a.375.375,0,0,1-.375-.375"/><path class="cls-1" d="M23.25,10.125a.375.375,0,0,1-.375.375"/><path class="cls-1" d="M7.125,5.25a.375.375,0,0,0-.375.375"/><path class="cls-1" d="M7.5,5.625a.375.375,0,0,0-.375-.375"/><path class="cls-1" d="M7.125,6A.375.375,0,0,0,7.5,5.625"/><path class="cls-1" d="M6.75,5.625A.375.375,0,0,0,7.125,6"/><path class="cls-1" d="M4.875,9.75a.375.375,0,0,0-.375.375"/><path class="cls-1" d="M5.25,10.125a.375.375,0,0,0-.375-.375"/><path class="cls-1" d="M4.875,10.5a.375.375,0,0,0,.375-.375"/><path class="cls-1" d="M4.5,10.125a.375.375,0,0,0,.375.375"/><path class="cls-1" d="M3.375,2.25A.375.375,0,0,0,3,2.625"/><path class="cls-1" d="M3.75,2.625a.375.375,0,0,0-.375-.375"/><path class="cls-1" d="M3.375,3a.375.375,0,0,0,.375-.375"/><path class="cls-1" d="M3,2.625A.375.375,0,0,0,3.375,3"/><path class="cls-1" d="M1.125,9.75a.375.375,0,0,0-.375.375"/><path class="cls-1" d="M1.5,10.125a.375.375,0,0,0-.375-.375"/><path class="cls-1" d="M1.125,10.5a.375.375,0,0,0,.375-.375"/><path class="cls-1" d="M.75,10.125a.375.375,0,0,0,.375.375"/></svg>