<svg id="Regular" xmlns="http://www.w3.org/2000/svg" viewBox="0 0 24 24"><defs><style>.cls-1{fill:none;stroke:currentColor;stroke-linecap:round;stroke-linejoin:round;stroke-width:1.5px;}</style></defs><title>gardening-house-1</title><path class="cls-1" d="M.75,12v9.75a1.5,1.5,0,0,0,1.5,1.5h19.5a1.5,1.5,0,0,0,1.5-1.5V12L13.094,1.224a1.5,1.5,0,0,0-2.188,0Z"/><polyline class="cls-1" points="7.5 23.25 7.5 12 16.5 12 16.5 23.25"/><line class="cls-1" x1="23.25" y1="12" x2="0.75" y2="12"/><line class="cls-1" x1="12" y1="0.75" x2="12" y2="12"/><line class="cls-1" x1="16.5" y1="4.838" x2="16.5" y2="12"/><line class="cls-1" x1="7.5" y1="4.838" x2="7.5" y2="12"/><line class="cls-1" x1="16.5" y1="17.25" x2="23.25" y2="17.25"/><line class="cls-1" x1="0.75" y1="17.25" x2="7.5" y2="17.25"/></svg>