<svg id="Regular" xmlns="http://www.w3.org/2000/svg" viewBox="0 0 24 24"><defs><style>.cls-1{fill:none;stroke:currentColor;stroke-linecap:round;stroke-linejoin:round;stroke-width:1.5px;}</style></defs><title>gardening-seed-bag</title><path class="cls-1" d="M23.146,11.479a1.5,1.5,0,0,1-.849,1.944l-9.776,3.832-1.1-2.793L8.633,15.556,7.538,12.763l-2.793,1.1L2.556,8.272a1.5,1.5,0,0,1,.849-1.944L17.37.854a1.5,1.5,0,0,1,1.944.849Z"/><path class="cls-1" d="M1.976,22.056a.375.375,0,0,1,.375.375"/><path class="cls-1" d="M1.6,22.431a.375.375,0,0,1,.375-.375"/><path class="cls-1" d="M1.976,22.806a.374.374,0,0,1-.375-.375"/><path class="cls-1" d="M2.351,22.431a.374.374,0,0,1-.375.375"/><path class="cls-1" d="M5.726,22.056a.375.375,0,0,1,.375.375"/><path class="cls-1" d="M5.351,22.431a.375.375,0,0,1,.375-.375"/><path class="cls-1" d="M5.726,22.806a.374.374,0,0,1-.375-.375"/><path class="cls-1" d="M6.1,22.431a.374.374,0,0,1-.375.375"/><path class="cls-1" d="M9.476,22.056a.375.375,0,0,1,.375.375"/><path class="cls-1" d="M9.1,22.431a.375.375,0,0,1,.375-.375"/><path class="cls-1" d="M9.476,22.806a.374.374,0,0,1-.375-.375"/><path class="cls-1" d="M9.851,22.431a.374.374,0,0,1-.375.375"/><path class="cls-1" d="M7.976,18.306a.375.375,0,0,1,.375.375"/><path class="cls-1" d="M7.6,18.681a.375.375,0,0,1,.375-.375"/><path class="cls-1" d="M7.976,19.056a.374.374,0,0,1-.375-.375"/><path class="cls-1" d="M8.351,18.681a.374.374,0,0,1-.375.375"/><path class="cls-1" d="M4.226,18.306a.375.375,0,0,1,.375.375"/><path class="cls-1" d="M3.851,18.681a.375.375,0,0,1,.375-.375"/><path class="cls-1" d="M4.226,19.056a.374.374,0,0,1-.375-.375"/><path class="cls-1" d="M4.6,18.681a.374.374,0,0,1-.375.375"/></svg>