<svg id="Regular" xmlns="http://www.w3.org/2000/svg" viewBox="0 0 24 24"><defs><style>.cls-1{fill:none;stroke:currentColor;stroke-linecap:round;stroke-linejoin:round;stroke-width:1.5px;}</style></defs><title>gardening-pots</title><path class="cls-1" d="M20.25,11.5a1.5,1.5,0,0,1-1.5,1.5H5.25a1.5,1.5,0,0,1,0-3h13.5A1.5,1.5,0,0,1,20.25,11.5Z"/><path class="cls-1" d="M18.75,13l-1.3,8.478a1.5,1.5,0,0,1-1.483,1.272H8.037a1.5,1.5,0,0,1-1.483-1.272L5.25,13"/><path class="cls-1" d="M20.25,3.25a1.5,1.5,0,0,1-1.5,1.5H5.25a1.5,1.5,0,0,1,0-3h13.5A1.5,1.5,0,0,1,20.25,3.25Z"/><line class="cls-1" x1="6.058" y1="10" x2="5.25" y2="4.75"/><line class="cls-1" x1="18.75" y1="4.75" x2="17.942" y2="10"/></svg>