<svg id="Regular" xmlns="http://www.w3.org/2000/svg" viewBox="0 0 24 24"><defs><style>.cls-1{fill:none;stroke:currentColor;stroke-linecap:round;stroke-linejoin:round;stroke-width:1.5px;}</style></defs><title>gardening-cultivator</title><line class="cls-1" x1="7.62" y1="7.553" x2="14.515" y2="14.448"/><path class="cls-1" d="M10.575,14.008h10a1,1,0,0,1,1,1v2a0,0,0,0,1,0,0h-12a0,0,0,0,1,0,0v-2A1,1,0,0,1,10.575,14.008Z" transform="translate(-6.404 15.556) rotate(-45)"/><line class="cls-1" x1="12.393" y1="20.812" x2="14.515" y2="22.933"/><line class="cls-1" x1="15.045" y1="18.16" x2="17.166" y2="20.281"/><line class="cls-1" x1="18.227" y1="14.978" x2="20.348" y2="17.099"/><line class="cls-1" x1="20.879" y1="12.326" x2="23" y2="14.448"/><path class="cls-1" d="M8.151,5.962a.75.75,0,0,1,0,1.061L7.09,8.084a.751.751,0,0,1-1.061,0L1.256,3.311A1.5,1.5,0,0,1,3.378,1.189Z"/></svg>