<svg id="Regular" xmlns="http://www.w3.org/2000/svg" viewBox="0 0 24 24"><defs><style>.cls-1{fill:none;stroke:currentColor;stroke-linecap:round;stroke-linejoin:round;stroke-width:1.5px;}</style></defs><title>gardening-tools</title><path class="cls-1" d="M3.75,15.75a1.5,1.5,0,0,1,3,0v6a1.5,1.5,0,0,1-3,0Z"/><path class="cls-1" d="M17.25,15.75a1.5,1.5,0,0,1,3,0v6a1.5,1.5,0,0,1-3,0Z"/><line class="cls-1" x1="5.25" y1="14.25" x2="5.25" y2="0.75"/><path class="cls-1" d="M.75.75v6a3,3,0,0,0,3,3h3a3,3,0,0,0,3-3v-6"/><path class="cls-1" d="M21.678,11.25H15.822a1.508,1.508,0,0,1-1.5-1.633C14.718,4.964,16.734.75,18.75.75s4.032,4.214,4.429,8.867A1.508,1.508,0,0,1,21.678,11.25Z"/><line class="cls-1" x1="18.75" y1="14.25" x2="18.75" y2="7.5"/></svg>