<svg xmlns="http://www.w3.org/2000/svg" viewBox="0 0 24 24"><defs><style>.a{fill:none;stroke:currentColor;stroke-linecap:round;stroke-linejoin:round;stroke-width:1.5px;}</style></defs><title>gas-can</title><path class="a" d="M15.75.75a3,3,0,0,0-3,3v3h-9a3,3,0,0,0-3,3v10.5a3,3,0,0,0,3,3h16.5a3,3,0,0,0,3-3V3.75a3,3,0,0,0-3-3Z"/><path class="a" d="M20.25,5.25a1.5,1.5,0,0,0-1.5-1.5h-1.5a1.5,1.5,0,0,0,0,3h1.5A1.5,1.5,0,0,0,20.25,5.25Z"/><path class="a" d="M4.75,3.75h4a1,1,0,0,1,1,1v2a0,0,0,0,1,0,0h-6a0,0,0,0,1,0,0v-2A1,1,0,0,1,4.75,3.75Z"/><line class="a" x1="6.75" y1="9.75" x2="17.25" y2="20.25"/><line class="a" x1="6.75" y1="20.25" x2="17.25" y2="9.75"/></svg>