<svg xmlns="http://www.w3.org/2000/svg" viewBox="0 0 24 24"><defs><style>.a{fill:none;stroke:currentColor;stroke-linecap:round;stroke-linejoin:round;stroke-width:1.5px;}</style></defs><title>gas-load</title><rect class="a" x="0.75" y="0.75" width="15" height="22.5" rx="1" ry="1"/><path class="a" d="M12.75,5.25a1.5,1.5,0,0,0-1.5-1.5h-6a1.5,1.5,0,0,0,0,3h6A1.5,1.5,0,0,0,12.75,5.25Z"/><line class="a" x1="0.75" y1="9.75" x2="15.75" y2="9.75"/><path class="a" d="M15.75,5.25h1.5a1.5,1.5,0,0,1,1.5,1.5v15a1.5,1.5,0,0,0,3,0v-9A4.959,4.959,0,0,1,22.582,10l.668-1"/><line class="a" x1="21.75" y1="12.75" x2="23.25" y2="12.75"/></svg>