<svg id="Regular" xmlns="http://www.w3.org/2000/svg" viewBox="0 0 24 24"><defs><style>.cls-1{fill:none;stroke:currentColor;stroke-linecap:round;stroke-linejoin:round;stroke-width:1.5px;}</style></defs><title>gingerbread-man</title><path class="cls-1" d="M20.973,9.768H15.64a5.251,5.251,0,1,0-7.333,0H2.973a2.25,2.25,0,1,0,0,4.5H7.249l-1.72,5.794a2.458,2.458,0,0,0,1.018,2.822,2.4,2.4,0,0,0,3.546-1.366l1.178-3.133a.75.75,0,0,1,1.4,0l1.178,3.133A2.4,2.4,0,0,0,17.4,22.884a2.46,2.46,0,0,0,1.018-2.822L16.7,14.268h4.275a2.25,2.25,0,0,0,0-4.5Z"/><line class="cls-1" x1="3.723" y1="9.768" x2="3.723" y2="14.268"/><line class="cls-1" x1="20.223" y1="9.768" x2="20.223" y2="14.268"/><line class="cls-1" x1="5.654" y1="19.641" x2="10.3" y2="20.968"/><line class="cls-1" x1="18.293" y1="19.641" x2="13.646" y2="20.968"/><path class="cls-1" d="M11.973,13.893a.375.375,0,1,1-.375.375.375.375,0,0,1,.375-.375"/><path class="cls-1" d="M11.973,10.107a.375.375,0,1,1-.375.375.375.375,0,0,1,.375-.375"/></svg>