<svg id="Regular" xmlns="http://www.w3.org/2000/svg" viewBox="0 0 24 24"><defs><style>.cls-1{fill:none;stroke:currentColor;stroke-linecap:round;stroke-linejoin:round;stroke-width:1.5px;}</style></defs><title>giraffe-body</title><path class="cls-1" d="M2.8,23.25V21c0-3.728,2.346-7.238,6.75-9,3.75-1.5,5.949-3.75,6.7-6.75-2.25,0-2.25-3-2.25-3h5.25a3.637,3.637,0,0,1,3.4,2.25c.75,1.5,1.1,3.75-1.15,3.75H19.25S16.3,12.75,16.3,21v2.25"/><path class="cls-1" d="M5.8,23.25V22a3.75,3.75,0,0,1,7.5,0v1.25"/><path class="cls-1" d="M19.625,4.5A.375.375,0,0,1,20,4.875"/><path class="cls-1" d="M19.25,4.875a.375.375,0,0,1,.375-.375"/><path class="cls-1" d="M19.625,5.25a.375.375,0,0,1-.375-.375"/><path class="cls-1" d="M20,4.875a.375.375,0,0,1-.375.375"/><line class="cls-1" x1="13.301" y1="13.5" x2="14.051" y2="15"/><line class="cls-1" x1="11.051" y1="15" x2="9.551" y2="15.75"/><path class="cls-1" d="M5.108,15.037,5.051,15a3.853,3.853,0,0,0-4.3,0"/><line class="cls-1" x1="18.5" y1="2.25" x2="18.5" y2="0.75"/></svg>