<svg id="Regular" xmlns="http://www.w3.org/2000/svg" viewBox="0 0 24 24"><defs><style>.cls-1{fill:none;stroke:currentColor;stroke-linecap:round;stroke-linejoin:round;stroke-width:1.5px;}</style></defs><title>giraffe-1</title><path class="cls-1" d="M1.5,23.25c3-8.25,6-18,9.75-18.75S22.5,9,22.5,12s-3,3-6.75,2.25l-2.421-.484A1.5,1.5,0,0,0,11.6,14.8L9,23.25"/><path class="cls-1" d="M14.25,9.375a.375.375,0,0,1,.375.375"/><path class="cls-1" d="M13.875,9.75a.375.375,0,0,1,.375-.375"/><path class="cls-1" d="M14.25,10.125a.375.375,0,0,1-.375-.375"/><path class="cls-1" d="M14.625,9.75a.375.375,0,0,1-.375.375"/><path class="cls-1" d="M6.713,9.738l.037.012a3.344,3.344,0,0,1,2.25,3C9,15,5.25,15,5.25,15H4.485"/><path class="cls-1" d="M10.607,18.027,10.5,18s-3-.75-3.75,1.5S9,22.5,9,22.5l.214.054"/><path class="cls-1" d="M9.509,5.5,4.5,3S2.9,7.794,7.952,7.486"/><line class="cls-1" x1="13.478" y1="4.608" x2="14.25" y2="0.75"/><line class="cls-1" x1="15.663" y1="5.366" x2="18" y2="2.25"/></svg>