<svg id="Regular" xmlns="http://www.w3.org/2000/svg" viewBox="0 0 24 24"><defs><style>.cls-1{fill:none;stroke:currentColor;stroke-linecap:round;stroke-linejoin:round;stroke-width:1.5px;}</style></defs><title>glasses-ski-2</title><path class="cls-1" d="M23.25,15a6,6,0,0,1-6,6H15.468a1.9,1.9,0,0,1-1.652-.974L12.7,16.237a.749.749,0,0,0-1.4,0l-1.115,3.789A1.9,1.9,0,0,1,8.532,21H6.75a6,6,0,0,1-6-6V13.5a3,3,0,0,1,3-3h16.5a3,3,0,0,1,3,3Z"/><path class="cls-1" d="M1.661,11.349l2.96-6.987A2.347,2.347,0,0,1,6.75,3,2.25,2.25,0,0,1,9,5.25"/><path class="cls-1" d="M22.339,11.349l-2.96-6.987A2.347,2.347,0,0,0,17.25,3,2.25,2.25,0,0,0,15,5.25"/></svg>