<svg id="Regular" xmlns="http://www.w3.org/2000/svg" viewBox="0 0 24 24"><defs><style>.cls-1{fill:none;stroke:currentColor;stroke-linecap:round;stroke-linejoin:round;stroke-width:1.5px;}</style></defs><title>glasses-sun-1</title><path class="cls-1" d="M10.5,11.625c0,2.485-1.265,3.75-3.75,3.75a4.5,4.5,0,0,1-4.5-4.5c0-2.485,2.015-3.75,4.5-3.75h3a.75.75,0,0,1,.75.75Z"/><path class="cls-1" d="M13.5,11.625c0,2.485,1.266,3.75,3.751,3.75a4.5,4.5,0,0,0,4.5-4.5c0-2.485-2.015-3.75-4.5-3.75h-3a.75.75,0,0,0-.75.75Z"/><line class="cls-1" x1="9.75" y1="7.125" x2="14.25" y2="7.125"/><line class="cls-1" x1="2.25" y1="10.875" x2="0.75" y2="10.875"/><line class="cls-1" x1="23.25" y1="10.875" x2="21.75" y2="10.875"/><line class="cls-1" x1="10.5" y1="11.625" x2="13.5" y2="11.625"/><line class="cls-1" x1="2.25" y1="16.875" x2="4.409" y2="14.716"/><line class="cls-1" x1="21.75" y1="16.875" x2="19.591" y2="14.716"/></svg>