<svg id="Regular" xmlns="http://www.w3.org/2000/svg" viewBox="0 0 24 24"><defs><style>.cls-1{fill:none;stroke:currentColor;stroke-linecap:round;stroke-linejoin:round;stroke-width:1.5px;}</style></defs><title>glasses-ski</title><path class="cls-1" d="M23.25,11.25a6,6,0,0,1-6,6H15.468a1.9,1.9,0,0,1-1.652-.974L12.7,12.487a.749.749,0,0,0-1.4,0l-1.115,3.789a1.9,1.9,0,0,1-1.651.974H6.75a6,6,0,0,1-6-6V9.75a3,3,0,0,1,3-3h16.5a3,3,0,0,1,3,3Z"/><line class="cls-1" x1="0.75" y1="9.75" x2="23.25" y2="9.75"/><line class="cls-1" x1="0.94" y1="12.75" x2="11.22" y2="12.75"/><line class="cls-1" x1="23.06" y1="12.75" x2="12.78" y2="12.75"/></svg>