<svg id="Regular" xmlns="http://www.w3.org/2000/svg" viewBox="0 0 24 24"><defs><style>.cls-1{fill:none;stroke:currentColor;stroke-linecap:round;stroke-linejoin:round;stroke-width:1.5px;}</style></defs><title>global-warming-dead-plant</title><path class="cls-1" d="M16,15.01s-1.522.864-1.325,2.147c.4,2.6,3.867,2.211,5.154,3.093a5.74,5.74,0,0,0-.368-5.2C18.612,13.744,17.314,13.728,16,15.01Z"/><path class="cls-1" d="M15.922,15.059A6.78,6.78,0,0,0,12,13.744"/><path class="cls-1" d="M8,8.766s1.522.864,1.325,2.147c-.4,2.6-3.867,2.212-5.154,3.093a5.74,5.74,0,0,1,.368-5.2C5.388,7.5,6.685,7.485,8,8.766Z"/><path class="cls-1" d="M8.078,8.815A6.78,6.78,0,0,1,12,7.5"/><path class="cls-1" d="M21,6.75a2.25,2.25,0,0,0-4.5,0V10.5a4.057,4.057,0,0,1,4.5,0Z"/><line class="cls-1" x1="0.75" y1="23.25" x2="23.25" y2="23.25"/><path class="cls-1" d="M12,23.25V4.125a3.375,3.375,0,0,1,6.75,0V4.5"/></svg>