<svg id="Regular" xmlns="http://www.w3.org/2000/svg" viewBox="0 0 24 24"><defs><style>.cls-1{fill:none;stroke:currentColor;stroke-linecap:round;stroke-linejoin:round;stroke-width:1.5px;}</style></defs><title>global-warming-high-temperature</title><path class="cls-1" d="M11.249,2.25a7.5,7.5,0,1,1,0,12"/><path class="cls-1" d="M14.257,3.74l1.575,1.065A1.5,1.5,0,0,1,16.5,6.053V7.77a1.5,1.5,0,0,1-1.206,1.471L12.75,9.75l.544,2.176"/><path class="cls-1" d="M23.212,9.013l-3.206,1.068a1.5,1.5,0,0,0-1,1.717l.592,2.888"/><path class="cls-1" d="M8.25,15.418V3.75a3,3,0,0,0-6,0V15.418a4.493,4.493,0,1,0,7.5,3.332A4.47,4.47,0,0,0,8.25,15.418Z"/><line class="cls-1" x1="5.25" y1="5.25" x2="5.25" y2="17.25"/><circle class="cls-1" cx="5.25" cy="18.75" r="1.5"/></svg>