<svg id="Regular" xmlns="http://www.w3.org/2000/svg" viewBox="0 0 24 24"><defs><style>.cls-1{fill:none;stroke:currentColor;stroke-linecap:round;stroke-linejoin:round;stroke-width:1.5px;}</style></defs><title>global-warming-globe-fire</title><path class="cls-1" d="M18.228,10.956a.375.375,0,0,0-.492.51A5.289,5.289,0,0,1,17.58,16.3a1.811,1.811,0,0,1-1.932-1.545,4.1,4.1,0,0,0-2.125,3.864,4.637,4.637,0,0,0,4.636,4.636A4.7,4.7,0,0,0,22.8,18.614,7.56,7.56,0,0,0,18.228,10.956Z"/><path class="cls-1" d="M10.25,18.75A9,9,0,1,1,19.124,8.24"/><path class="cls-1" d="M10.25,18.75c-2.071,0-3.75-4.029-3.75-9s1.679-9,3.75-9S14,4.779,14,9.75a20.728,20.728,0,0,1-.213,3"/><line class="cls-1" x1="1.763" y1="6.75" x2="18.738" y2="6.75"/><line class="cls-1" x1="1.763" y1="12.75" x2="14.75" y2="12.75"/></svg>