<svg id="Regular" xmlns="http://www.w3.org/2000/svg" viewBox="0 0 24 24"><defs><style>.cls-1{fill:none;stroke:currentColor;stroke-linecap:round;stroke-linejoin:round;stroke-width:1.5px;}</style></defs><title>gmo-food-pear</title><path class="cls-1" d="M18.028,13.037a9.275,9.275,0,0,1-2.644-5.083l-.013-.091A3.2,3.2,0,0,0,12,5.222h0a3.2,3.2,0,0,0-3.37,2.641l-.013.091a9.275,9.275,0,0,1-2.644,5.083A7.493,7.493,0,0,0,3.75,18.014c0,3.944,4.275,5.328,8.25,5.231,3.975.1,8.25-1.287,8.25-5.231A7.493,7.493,0,0,0,18.028,13.037Z"/><path class="cls-1" d="M8.25.764h0A3.75,3.75,0,0,1,12,4.514v.708"/><line class="cls-1" x1="8.708" y1="14.264" x2="14.542" y2="20.098"/><line class="cls-1" x1="11.89" y1="14.264" x2="8.708" y2="17.446"/><line class="cls-1" x1="14.542" y1="16.916" x2="11.36" y2="20.098"/></svg>