<svg id="Regular" xmlns="http://www.w3.org/2000/svg" viewBox="0 0 24 24"><defs><style>.cls-1{fill:none;stroke:currentColor;stroke-linecap:round;stroke-linejoin:round;stroke-width:1.5px;}</style></defs><title>gmo-food-steak</title><path class="cls-1" d="M20.158,12a6,6,0,0,1,3.092,5.25h0a6,6,0,0,1-6,6H9.75a9,9,0,0,1-9-9V6A5.251,5.251,0,0,1,6,.75H6a5.251,5.251,0,0,1,5.2,4.5"/><circle class="cls-1" cx="6" cy="6" r="2.25"/><path class="cls-1" d="M17.25,14.25a3,3,0,0,1,3,3h0a3,3,0,0,1-3,3H9.75a6,6,0,0,1-6-6v-1.5a1.5,1.5,0,0,1,1.5-1.5h0"/><path class="cls-1" d="M14.765,12.417a2.25,2.25,0,1,1-3.182-3.182l4.773-4.773,3.182,3.182Z"/><line class="cls-1" x1="11.583" y1="12.417" x2="9.461" y2="14.539"/><line class="cls-1" x1="17.947" y1="0.75" x2="23.25" y2="6.053"/><line class="cls-1" x1="19.538" y1="2.341" x2="16.886" y2="4.993"/><line class="cls-1" x1="21.659" y1="4.462" x2="19.007" y2="7.114"/></svg>