<svg id="Regular" xmlns="http://www.w3.org/2000/svg" viewBox="0 0 24 24"><defs><style>.cls-1{fill:none;stroke:currentColor;stroke-linecap:round;stroke-linejoin:round;stroke-width:1.5px;}</style></defs><title>gmo-food-chicken-leg</title><path class="cls-1" d="M11.25,16.5c0,3.728-2.35,6.75-5.25,6.75S.75,20.228.75,16.5,3.1,9.75,6,9.75"/><path class="cls-1" d="M8.25,16.5c0,2.071-1.007,3.75-2.25,3.75S3.75,18.571,3.75,16.5,4.757,12.75,6,12.75"/><path class="cls-1" d="M7.5,9.719A10.113,10.113,0,0,0,6,9.75"/><path class="cls-1" d="M14.765,12.417a2.25,2.25,0,1,1-3.182-3.182l4.773-4.773,3.182,3.182Z"/><line class="cls-1" x1="11.583" y1="12.417" x2="9.462" y2="14.539"/><line class="cls-1" x1="17.947" y1="0.75" x2="23.25" y2="6.053"/><line class="cls-1" x1="19.538" y1="2.341" x2="16.886" y2="4.993"/><line class="cls-1" x1="21.659" y1="4.462" x2="19.008" y2="7.114"/><path class="cls-1" d="M6,23.25c4.123,0,8.741-1.043,11.6-3.577a3.352,3.352,0,0,0,.421-4.652L18,15"/><line class="cls-1" x1="18.336" y1="18.75" x2="23.25" y2="18.75"/><line class="cls-1" x1="18.485" y1="15.75" x2="23.25" y2="15.75"/></svg>