<svg id="Regular" xmlns="http://www.w3.org/2000/svg" viewBox="0 0 24 24"><defs><style>.cls-1{fill:none;stroke:currentColor;stroke-linecap:round;stroke-linejoin:round;stroke-width:1.5px;}</style></defs><title>gmo-food-apple</title><path class="cls-1" d="M14.821,17.146c-.763,2.8-2.467,5.013-4.217,5.242a1.007,1.007,0,0,1-.573-.115l-1.394-.7a1.074,1.074,0,0,0-.96,0l-1.395.7a1,1,0,0,1-.572.115c-1.989-.26-4.326-3.076-4.883-6.415C.356,13.147,2.022,8.532,6.216,10.4l2.111.75"/><path class="cls-1" d="M14.765,13.812a2.25,2.25,0,1,1-3.182-3.182l4.773-4.773,3.182,3.182Z"/><line class="cls-1" x1="11.583" y1="13.812" x2="9.461" y2="15.933"/><line class="cls-1" x1="17.947" y1="2.145" x2="23.25" y2="7.448"/><line class="cls-1" x1="19.538" y1="3.736" x2="16.886" y2="6.387"/><line class="cls-1" x1="21.659" y1="5.857" x2="19.007" y2="8.508"/><path class="cls-1" d="M7.9,4.042a5.776,5.776,0,0,1,1.071,4.1A5.777,5.777,0,0,1,4.979,6.707a5.771,5.771,0,0,1-1.07-4.1A5.772,5.772,0,0,1,7.9,4.042Z"/></svg>