<svg id="Regular" xmlns="http://www.w3.org/2000/svg" viewBox="0 0 24 24"><defs><style>.cls-1{fill:none;stroke:currentColor;stroke-linecap:round;stroke-linejoin:round;stroke-width:1.5px;}</style></defs><title>gmo-food-lab-bag</title><path class="cls-1" d="M20.25,3.75v16.5l.592.829A1.5,1.5,0,0,1,19.5,23.25H4.5a1.5,1.5,0,0,1-1.342-2.171l.592-.829V3.75l-.592-.829A1.5,1.5,0,0,1,4.5.75h15a1.5,1.5,0,0,1,1.342,2.171Z"/><line class="cls-1" x1="15.75" y1="9" x2="8.25" y2="9"/><path class="cls-1" d="M14.25,9v9a2.25,2.25,0,0,1-4.5,0V9"/><path class="cls-1" d="M13.125,6a.375.375,0,0,1,.375.375"/><path class="cls-1" d="M12.75,6.375A.375.375,0,0,1,13.125,6"/><path class="cls-1" d="M13.125,6.75a.375.375,0,0,1-.375-.375"/><path class="cls-1" d="M13.5,6.375a.375.375,0,0,1-.375.375"/><path class="cls-1" d="M9.375,3.75a.375.375,0,0,1,.375.375"/><path class="cls-1" d="M9,4.125a.375.375,0,0,1,.375-.375"/><path class="cls-1" d="M9.375,4.5A.375.375,0,0,1,9,4.125"/><path class="cls-1" d="M9.75,4.125a.375.375,0,0,1-.375.375"/><line class="cls-1" x1="9.75" y1="12.75" x2="14.25" y2="12.75"/></svg>