<svg id="Regular" xmlns="http://www.w3.org/2000/svg" viewBox="0 0 24 24"><defs><style>.cls-1{fill:none;stroke:currentColor;stroke-linecap:round;stroke-linejoin:round;stroke-width:1.5px;}</style></defs><title>gmo-food-leaf-dna</title><path class="cls-1" d="M11.25,19.133a8.926,8.926,0,0,1-7.806-1.577C1.875,15.987.116,10.423,3.444,7.1c3.8-3.8,15.691-7.132,16.642-6.181.512.512-.218,4.2-1.595,8.086"/><line class="cls-1" x1="13.905" y1="7.095" x2="0.75" y2="20.25"/><path class="cls-1" d="M14.25,11.25V13.5A3.75,3.75,0,0,0,18,17.25h1.5a3.75,3.75,0,0,0,3.75-3.75V11.25"/><path class="cls-1" d="M23.25,23.25V21a3.75,3.75,0,0,0-3.75-3.75H18A3.75,3.75,0,0,0,14.25,21v2.25"/><line class="cls-1" x1="14.25" y1="21" x2="23.25" y2="21"/><line class="cls-1" x1="14.25" y1="13.5" x2="23.25" y2="13.5"/></svg>