<svg xmlns="http://www.w3.org/2000/svg" viewBox="0 0 24 24"><defs><style>.a{fill:none;stroke:currentColor;stroke-linecap:round;stroke-linejoin:round;stroke-width:1.5px;}</style></defs><title>gold-bars</title><path class="a" d="M8.945,13.5H3.481a1.533,1.533,0,0,0-1.516,1.217l-1.187,6A1.513,1.513,0,0,0,2.294,22.5h7.838a1.512,1.512,0,0,0,1.515-1.783l-1.187-6A1.532,1.532,0,0,0,8.945,13.5Z"/><path class="a" d="M20.519,13.5H15.055a1.532,1.532,0,0,0-1.515,1.217l-1.187,6A1.512,1.512,0,0,0,13.868,22.5h7.838a1.513,1.513,0,0,0,1.516-1.783l-1.187-6A1.533,1.533,0,0,0,20.519,13.5Z"/><path class="a" d="M14.945,4.5H9.481A1.533,1.533,0,0,0,7.965,5.717l-1.187,6A1.513,1.513,0,0,0,8.294,13.5h7.838a1.512,1.512,0,0,0,1.515-1.783l-1.187-6A1.532,1.532,0,0,0,14.945,4.5Z"/><line class="a" x1="20.25" y1="3" x2="23.25" y2="3"/><line class="a" x1="21.75" y1="1.5" x2="21.75" y2="4.5"/><line class="a" x1="0.75" y1="6.75" x2="3.75" y2="6.75"/><line class="a" x1="2.25" y1="5.25" x2="2.25" y2="8.25"/></svg>