<svg id="Regular" xmlns="http://www.w3.org/2000/svg" viewBox="0 0 24 24"><defs><style>.cls-1{fill:none;stroke:currentColor;stroke-linecap:round;stroke-linejoin:round;stroke-width:1.5px;}</style></defs><title>golf-cart</title><circle class="cls-1" cx="5.75" cy="18.75" r="2.25"/><circle class="cls-1" cx="18.5" cy="18.75" r="2.25"/><line class="cls-1" x1="8" y1="18.75" x2="16.25" y2="18.75"/><line class="cls-1" x1="18.5" y1="11.25" x2="14.75" y2="6"/><path class="cls-1" d="M15.5,18.75v-4.5l3-3H20a3,3,0,0,1,3,3v3a1.5,1.5,0,0,1-1.5,1.5h-.75"/><path class="cls-1" d="M3.5,18.75H2.75a1.5,1.5,0,0,1-1.5-1.5v-3a3,3,0,0,1,3-3h3l1.5,3h1.5a1.5,1.5,0,0,1,1.5,1.5v3"/><line class="cls-1" x1="3.5" y1="11.25" x2="3.5" y2="6"/><path class="cls-1" d="M1.25,6h18V4.5A1.5,1.5,0,0,0,17.75,3h-15a1.5,1.5,0,0,0-1.5,1.5Z"/></svg>