<svg id="Regular" xmlns="http://www.w3.org/2000/svg" viewBox="0 0 24 24"><defs><style>.cls-1{fill:none;stroke:currentColor;stroke-linecap:round;stroke-linejoin:round;stroke-width:1.5px;}</style></defs><title>golf-hole-1</title><path class="cls-1" d="M6,18V.75l6.158,3.079a.75.75,0,0,1,0,1.342L6,8.25"/><path class="cls-1" d="M3,14.4A4.476,4.476,0,0,0,.75,18c0,2.9,3.694,5.25,8.25,5.25S17.25,20.9,17.25,18a3.43,3.43,0,0,0-.084-.751h.084c3.314,0,6-1.709,6-3.818s-2.686-3.818-6-3.818c-3.061,0-5.586,1.458-5.954,3.342A12.716,12.716,0,0,0,9,12.75"/></svg>