<svg id="Regular" xmlns="http://www.w3.org/2000/svg" viewBox="0 0 24 24"><defs><style>.cls-1{fill:none;stroke:currentColor;stroke-linecap:round;stroke-linejoin:round;stroke-width:1.5px;}</style></defs><title>golf-hole-aim</title><path class="cls-1" d="M5.25,11.019V.75L9.466,2.858a.514.514,0,0,1,0,.919L7.5,4.76"/><path class="cls-1" d="M23.25,6,21.085,22.6a.75.75,0,0,1-.743.653H17.625a1.875,1.875,0,0,1,0-3.75,2.884,2.884,0,0,1,1.953.762L21.2,21.751"/><circle class="cls-1" cx="11.25" cy="21" r="1.5"/><path class="cls-1" d="M8.25,8.273c3.375.207,6,1.8,6,3.727,0,2.071-3.022,3.75-6.75,3.75S.75,14.071.75,12a2.971,2.971,0,0,1,1.5-2.357"/></svg>