<svg id="Regular" xmlns="http://www.w3.org/2000/svg" viewBox="0 0 24 24"><defs><style>.cls-1{fill:none;stroke:currentColor;stroke-linecap:round;stroke-linejoin:round;stroke-width:1.5px;}</style></defs><title>golf-ball</title><circle class="cls-1" cx="12" cy="9" r="8.25"/><path class="cls-1" d="M6,18.517a11.253,11.253,0,0,0,12,0"/><line class="cls-1" x1="12" y1="20.25" x2="12" y2="23.25"/><path class="cls-1" d="M12,13.875a.375.375,0,0,1,.375.375"/><path class="cls-1" d="M11.625,14.25A.375.375,0,0,1,12,13.875"/><path class="cls-1" d="M12,14.625a.375.375,0,0,1-.375-.375"/><path class="cls-1" d="M12.375,14.25a.375.375,0,0,1-.375.375"/><path class="cls-1" d="M17.25,10.125a.375.375,0,0,1,.375.375"/><path class="cls-1" d="M16.875,10.5a.375.375,0,0,1,.375-.375"/><path class="cls-1" d="M17.25,10.875a.375.375,0,0,1-.375-.375"/><path class="cls-1" d="M17.625,10.5a.375.375,0,0,1-.375.375"/><path class="cls-1" d="M15.75,13.125a.375.375,0,0,1,.375.375"/><path class="cls-1" d="M15.375,13.5a.375.375,0,0,1,.375-.375"/><path class="cls-1" d="M15.75,13.875a.375.375,0,0,1-.375-.375"/><path class="cls-1" d="M16.125,13.5a.375.375,0,0,1-.375.375"/><path class="cls-1" d="M13.5,10.875a.375.375,0,0,1,.375.375"/><path class="cls-1" d="M13.125,11.25a.375.375,0,0,1,.375-.375"/><path class="cls-1" d="M13.5,11.625a.375.375,0,0,1-.375-.375"/><path class="cls-1" d="M13.875,11.25a.375.375,0,0,1-.375.375"/></svg>