<svg id="Regular" xmlns="http://www.w3.org/2000/svg" viewBox="0 0 24 24"><defs><style>.cls-1{fill:none;stroke:currentColor;stroke-linecap:round;stroke-linejoin:round;stroke-width:1.5px;}</style></defs><title>golf-player</title><path class="cls-1" d="M19.711,7.163a1.5,1.5,0,0,0-1.8-1.125l-8.3,1.916a3.008,3.008,0,0,0-2.257,3.574L8.409,16.26,5.7,21.006a1.5,1.5,0,0,0,2.6,1.488l3-5.25a1.515,1.515,0,0,0,.192-.878l2,2-1.133,2.831a1.5,1.5,0,0,0,.837,1.95,1.485,1.485,0,0,0,.556.107,1.5,1.5,0,0,0,1.394-.943L16.427,19.1a3,3,0,0,0-.282-2.766l-3.9-5.9,6.337-1.463A1.5,1.5,0,0,0,19.711,7.163Z"/><circle class="cls-1" cx="6.249" cy="3.75" r="2.625"/><polyline class="cls-1" points="19.1 6.267 15.249 0.75 12.999 2.25"/></svg>