<svg id="Regular" xmlns="http://www.w3.org/2000/svg" viewBox="0 0 24 24"><defs><style>.cls-1{fill:none;stroke:currentColor;stroke-linecap:round;stroke-linejoin:round;stroke-width:1.5px;}</style></defs><title>golf-equipment</title><path class="cls-1" d="M6,9.75H18a0,0,0,0,1,0,0v11.5a2,2,0,0,1-2,2H8a2,2,0,0,1-2-2V9.75A0,0,0,0,1,6,9.75Z"/><line class="cls-1" x1="9.75" y1="5.25" x2="9.75" y2="9.75"/><path class="cls-1" d="M9.75,5.25h-3a1.5,1.5,0,0,1,0-3h3Z"/><line class="cls-1" x1="13.807" y1="4.25" x2="14.781" y2="9.75"/><path class="cls-1" d="M13.807,4.25l2.954-.523A1.5,1.5,0,1,0,16.238.773L13.284,1.3Z"/><line class="cls-1" x1="6" y1="12.75" x2="18" y2="12.75"/><rect class="cls-1" x="9.75" y="16.5" width="4.5" height="3"/></svg>