<svg id="Regular" xmlns="http://www.w3.org/2000/svg" viewBox="0 0 24 24"><defs><style>.cls-1{fill:none;stroke:currentColor;stroke-linecap:round;stroke-linejoin:round;stroke-width:1.5px;}</style></defs><title>gorilla-2</title><path class="cls-1" d="M18.228,10.75c2.37,3.284,4.282,8.256,4.282,9.723,0,2.25-2.25,2.25-3,2.25h-1.5"/><path class="cls-1" d="M9.01,22.723H4.51c-2.278,0-3.75-1.5-3.75-4.5,0-3.75,2.972-6.75,5.25-6.75H9.76s.75-3.75,4.5-3.75"/><path class="cls-1" d="M5.26,16.723s3.75.75,2.25,6"/><path class="cls-1" d="M12.76,14.473s1.5,5.25,5.25,5.25c2.114,0,2.242,2.649,2.249,2.968"/><path class="cls-1" d="M7.8,19.607l.463.116a7.662,7.662,0,0,0,6.345-1.773"/><path class="cls-1" d="M13.51,7.776v-.8c0-2.25,0-5.1,3-5.847a2.159,2.159,0,0,1,3,2.1s2.25.153,2.25,1.653v1.5a3.25,3.25,0,0,1,1.5,3,3.407,3.407,0,0,1-3.626,3.6"/><line class="cls-1" x1="23.222" y1="9.973" x2="21.01" y2="9.973"/></svg>