<svg id="Regular" xmlns="http://www.w3.org/2000/svg" viewBox="0 0 24 24"><defs><style>.cls-1{fill:none;stroke:currentColor;stroke-linecap:round;stroke-linejoin:round;stroke-width:1.5px;}</style></defs><title>gorilla</title><path class="cls-1" d="M18.6,8.668a3.691,3.691,0,0,0-2.516-2.515,3.743,3.743,0,0,0-3.227.53,1.475,1.475,0,0,1-1.712,0,3.743,3.743,0,0,0-3.227-.53A3.691,3.691,0,0,0,5.4,8.668a3.759,3.759,0,0,0,1.173,3.937,1.36,1.36,0,0,1,.2,1.722A6,6,0,1,0,18,17.25a5.881,5.881,0,0,0-.74-2.858,1.476,1.476,0,0,1,.228-1.84A3.763,3.763,0,0,0,18.6,8.668Z"/><line class="cls-1" x1="6.191" y1="18.75" x2="17.811" y2="18.75"/><polyline class="cls-1" points="11.25 15 12 15.75 12.75 15"/><path class="cls-1" d="M9.375,9.75a.375.375,0,0,1,.375.375"/><path class="cls-1" d="M9,10.125a.375.375,0,0,1,.375-.375"/><path class="cls-1" d="M9.375,10.5A.375.375,0,0,1,9,10.125"/><path class="cls-1" d="M9.75,10.125a.375.375,0,0,1-.375.375"/><path class="cls-1" d="M14.625,9.75a.375.375,0,0,1,.375.375"/><path class="cls-1" d="M14.25,10.125a.375.375,0,0,1,.375-.375"/><path class="cls-1" d="M14.625,10.5a.375.375,0,0,1-.375-.375"/><path class="cls-1" d="M15,10.125a.375.375,0,0,1-.375.375"/><path class="cls-1" d="M20.022,23.25A12.463,12.463,0,0,0,23.25,15C23.25,7.5,17.25.75,12,.75S.75,7.5.75,15a12.463,12.463,0,0,0,3.228,8.25"/></svg>