<svg xmlns="http://www.w3.org/2000/svg" viewBox="0 0 24 24"><defs><style>.a{fill:none;stroke:currentColor;stroke-linecap:round;stroke-linejoin:round;stroke-width:1.5px;}</style></defs><title>graphic-tablet-pen</title><path class="a" d="M23.25,9.75v12a1.5,1.5,0,0,1-1.5,1.5H2.25a1.5,1.5,0,0,1-1.5-1.5V7.5A1.5,1.5,0,0,1,2.25,6h9"/><path class="a" d="M20.25,12v7.5a.75.75,0,0,1-.75.75H4.5a.75.75,0,0,1-.75-.75V9.75A.75.75,0,0,1,4.5,9H9.75"/><path class="a" d="M22.47,4.149,15.96,12.71l-3.612,1.258.228-3.817,6.51-8.562a2.116,2.116,0,0,1,2.963-.411l.01.008A2.116,2.116,0,0,1,22.47,4.149Z"/><line class="a" x1="7.5" y1="16.5" x2="3.75" y2="16.5"/><line class="a" x1="7.5" y1="12.75" x2="3.75" y2="12.75"/><line class="a" x1="7.5" y1="20.25" x2="7.5" y2="9"/></svg>