<svg xmlns="http://www.w3.org/2000/svg" viewBox="0 0 24 24"><defs><style>.a{fill:none;stroke:currentColor;stroke-linecap:round;stroke-linejoin:round;stroke-width:1.5px;}</style></defs><title>graphic-tablet-draw-1</title><path class="a" d="M23.25,9.75v12a1.5,1.5,0,0,1-1.5,1.5H2.25a1.5,1.5,0,0,1-1.5-1.5V7.5A1.5,1.5,0,0,1,2.25,6h9"/><path class="a" d="M22.47,4.149,15.96,12.71l-3.612,1.258.228-3.817,6.51-8.562a2.116,2.116,0,0,1,2.963-.411l.01.008A2.116,2.116,0,0,1,22.47,4.149Z"/><path class="a" d="M9.352,13.867C6.765,17.263,9.13,21,12.367,21a4.125,4.125,0,0,0,3.976-5.21"/><path class="a" d="M8.267,16.516H6.215a.964.964,0,0,1-.965-.964V10.731a.965.965,0,0,1,.965-.965H9"/></svg>