<svg xmlns="http://www.w3.org/2000/svg" viewBox="0 0 24 24"><defs><style>.a{fill:none;stroke:currentColor;stroke-linecap:round;stroke-linejoin:round;stroke-width:1.5px;}</style></defs><title>graphic-tablet-draw</title><path class="a" d="M23.25,9.75v12a1.5,1.5,0,0,1-1.5,1.5H2.25a1.5,1.5,0,0,1-1.5-1.5V7.5A1.5,1.5,0,0,1,2.25,6h9"/><path class="a" d="M20.25,12v7.5a.75.75,0,0,1-.75.75H4.5a.75.75,0,0,1-.75-.75V9.75A.75.75,0,0,1,4.5,9H9.75"/><path class="a" d="M22.469,4.149l-6.51,8.561-3.611,1.258.228-3.817,6.51-8.562a2.115,2.115,0,0,1,2.962-.411l.01.008A2.115,2.115,0,0,1,22.469,4.149Z"/><path class="a" d="M11.976,16.67a2.881,2.881,0,1,1-2.3-4.62"/><polyline class="a" points="16.723 20.25 16.723 16.521 20.25 16.521"/></svg>