<svg xmlns="http://www.w3.org/2000/svg" viewBox="0 0 24 24"><defs><style>.a{fill:none;stroke:currentColor;stroke-linecap:round;stroke-linejoin:round;stroke-width:1.5px;}</style></defs><title>grid-ruler</title><path class="a" d="M15.879,23.25H2.25a1.5,1.5,0,0,1-1.5-1.5V2.25A1.5,1.5,0,0,1,2.25.75h19.5a1.5,1.5,0,0,1,1.5,1.5V15.879a1.5,1.5,0,0,1-.439,1.06l-5.872,5.872A1.5,1.5,0,0,1,15.879,23.25Z"/><line class="a" x1="0.75" y1="6.75" x2="23.25" y2="6.75"/><line class="a" x1="6.75" y1="0.75" x2="6.75" y2="23.25"/><path class="a" d="M15.75,23.25v-6a1.5,1.5,0,0,1,1.5-1.5h6"/><line class="a" x1="11.25" y1="6.75" x2="11.25" y2="4.5"/><line class="a" x1="17.25" y1="6.75" x2="17.25" y2="4.5"/><line class="a" x1="6.75" y1="17.25" x2="4.5" y2="17.25"/><line class="a" x1="6.75" y1="11.25" x2="4.5" y2="11.25"/></svg>