<svg xmlns="http://www.w3.org/2000/svg" viewBox="0 0 24 24"><defs><style>.a{fill:none;stroke:currentColor;stroke-linecap:round;stroke-linejoin:round;stroke-width:1.5px;}</style></defs><title>grid-ruler-1</title><rect class="a" x="-0.562" y="10.312" width="22.5" height="6" rx="1.5" ry="1.5" transform="translate(-6.282 11.457) rotate(-45)"/><path class="a" d="M15.9,3.994,8.486,1.279a.749.749,0,0,0-.788.174L6.445,2.705a.752.752,0,0,0,0,1.061l4.773,4.773"/><path class="a" d="M20.008,8.1l2.713,7.412a.749.749,0,0,1-.174.788L21.3,17.555a.752.752,0,0,1-1.061,0l-4.773-4.773"/><line class="a" x1="9.858" y1="18.384" x2="8.112" y2="16.638"/><line class="a" x1="13.608" y1="14.634" x2="11.862" y2="12.888"/><line class="a" x1="17.358" y1="10.884" x2="15.612" y2="9.138"/></svg>