<svg xmlns="http://www.w3.org/2000/svg" viewBox="0 0 24 24"><defs><style>.a{fill:none;stroke:currentColor;stroke-linecap:round;stroke-linejoin:round;stroke-width:1.5px;}</style></defs><title>grid-dot</title><rect class="a" x="1.5" y="1.5" width="21" height="21" rx="1" ry="1"/><path class="a" d="M6,11.625A.375.375,0,1,1,5.625,12,.375.375,0,0,1,6,11.625"/><path class="a" d="M12,11.625a.375.375,0,1,1-.375.375A.375.375,0,0,1,12,11.625"/><path class="a" d="M18,11.625a.375.375,0,1,1-.375.375A.375.375,0,0,1,18,11.625"/><path class="a" d="M9,14.625A.375.375,0,1,1,8.625,15,.375.375,0,0,1,9,14.625"/><path class="a" d="M15,14.625a.375.375,0,1,1-.375.375A.375.375,0,0,1,15,14.625"/><path class="a" d="M6,17.625A.375.375,0,1,1,5.625,18,.375.375,0,0,1,6,17.625"/><path class="a" d="M12,17.625a.375.375,0,1,1-.375.375A.375.375,0,0,1,12,17.625"/><path class="a" d="M18,17.625a.375.375,0,1,1-.375.375A.375.375,0,0,1,18,17.625"/></svg>