<svg xmlns="http://www.w3.org/2000/svg" viewBox="0 0 24 24"><defs><style>.a{fill:none;stroke:currentColor;stroke-linecap:round;stroke-linejoin:round;stroke-width:1.5px;}</style></defs><title>gun-silent</title><path class="a" d="M11.951,6.161l-8.98,5.412a2.994,2.994,0,0,0-1.02,4.111l1.933,3.208,0,0a2.831,2.831,0,0,1,3.226,1.659l1.144,2.7,3.848-2.319-1.961-4.257a1.5,1.5,0,0,1,.587-1.91l4.7-2.83Z"/><path class="a" d="M10.851,18.2l1.916-1.167a1.5,1.5,0,0,0,.659-1.722l-.562-1.834"/><rect class="a" x="15.139" y="2.36" width="7.489" height="4.493" transform="matrix(0.857, -0.516, 0.516, 0.857, 0.332, 10.407)"/><rect class="a" x="12.895" y="5.815" width="2.996" height="2.996" transform="translate(-1.709 8.478) rotate(-31.072)"/><line class="a" x1="13.883" y1="9.368" x2="2.337" y2="16.326"/><line class="a" x1="2.408" y1="12.009" x2="0.915" y2="11.063"/></svg>