<svg id="Regular" xmlns="http://www.w3.org/2000/svg" viewBox="0 0 24 24"><defs><style>.cls-1{fill:none;stroke:currentColor;stroke-linecap:round;stroke-linejoin:round;stroke-width:1.5px;}</style></defs><title>gymnastics-acrobatic-1</title><circle class="cls-1" cx="12.006" cy="8.625" r="2.625"/><line class="cls-1" x1="0.75" y1="23.25" x2="0.75" y2="0.75"/><line class="cls-1" x1="23.25" y1="23.25" x2="23.25" y2="0.75"/><line class="cls-1" x1="0.75" y1="2.25" x2="2.25" y2="2.25"/><line class="cls-1" x1="7.5" y1="2.25" x2="16.5" y2="2.25"/><line class="cls-1" x1="21.75" y1="2.25" x2="23.25" y2="2.25"/><path class="cls-1" d="M20.757,17.941a1.514,1.514,0,0,0-2.066-.451,10.3,10.3,0,0,1-3.685,1.064V15.235a6.976,6.976,0,0,0,2.8-1.839c2.839-3.085,2.46-8.06,2.442-8.271a1.469,1.469,0,0,0-1.614-1.368A1.5,1.5,0,0,0,17.26,5.372c0,.038.281,3.893-1.667,6a4.605,4.605,0,0,1-3.587,1.377,4.608,4.608,0,0,1-3.588-1.377c-1.943-2.1-1.671-5.944-1.667-6A1.5,1.5,0,0,0,5.38,3.756,1.474,1.474,0,0,0,3.762,5.125c-.018.211-.4,5.186,2.442,8.271a6.969,6.969,0,0,0,2.8,1.839v3.317a10.409,10.409,0,0,1-3.684-1.06A1.5,1.5,0,0,0,3.674,20c.269.179,2.787,1.752,8.332,1.752S20.068,20.177,20.338,20A1.492,1.492,0,0,0,20.757,17.941Z"/></svg>