<svg id="Regular" xmlns="http://www.w3.org/2000/svg" viewBox="0 0 24 24"><defs><style>.cls-1{fill:none;stroke:currentColor;stroke-linecap:round;stroke-linejoin:round;stroke-width:1.5px;}</style></defs><title>gymnastics-rhythmic-ribbon</title><path class="cls-1" d="M6.551,23a1.5,1.5,0,0,1-1.308-.765l-4.2-7.928a1.5,1.5,0,0,1,2.613-1.471l4.2,7.929a1.5,1.5,0,0,1-.571,2.042A1.482,1.482,0,0,1,6.551,23Z"/><path class="cls-1" d="M1.731,12.209A11.682,11.682,0,0,1,13.4.987a9.346,9.346,0,0,1,9.346,9.346,7.477,7.477,0,0,1-7.477,7.477,5.981,5.981,0,0,1-5.981-5.982,4.785,4.785,0,0,1,4.785-4.785"/></svg>