<svg id="Regular" xmlns="http://www.w3.org/2000/svg" viewBox="0 0 24 24"><defs><style>.cls-1{fill:none;stroke:currentColor;stroke-linecap:round;stroke-linejoin:round;stroke-width:1.5px;}</style></defs><title>gymnastics-ribbon-person-1</title><path class="cls-1" d="M12.286,6.3a2.59,2.59,0,1,0,2.16-2.259"/><path class="cls-1" d="M21.518,6.969,19.647,2.621A3.386,3.386,0,0,0,16.619.75a2.282,2.282,0,0,0-2.228,2.777A2.281,2.281,0,0,1,12.164,6.3,2.774,2.774,0,0,1,9.5,4.292l-.163-.571a2.4,2.4,0,0,0-2.3-1.737A1.607,1.607,0,0,0,5.447,3.855a1.573,1.573,0,0,1-3.078.64A1.688,1.688,0,0,0,.961,3.234"/><path class="cls-1" d="M22.069,7.075a1.482,1.482,0,0,0-1.924.826l-.736,1.84a1.474,1.474,0,0,1-1.374.929H12.2a1.486,1.486,0,0,1-.923-.324L8.384,8.034a1.481,1.481,0,1,0-1.85,2.312l2.889,2.311a4.45,4.45,0,0,0,2.774.973h.418l-1.268,2.96H10.012a1.475,1.475,0,0,1-.948-.344L5.447,13.232a1.48,1.48,0,0,0-1.895,2.275l3.617,3.012a4.443,4.443,0,0,0,2.843,1.031h3.776a1.475,1.475,0,0,1,.948.344l3.617,3.013a1.48,1.48,0,0,0,1.894-2.274L16.631,17.62a4.453,4.453,0,0,0-2.093-.966l1.3-3.024h2.2a4.421,4.421,0,0,0,4.123-2.79L22.894,9A1.482,1.482,0,0,0,22.069,7.075Z"/></svg>