<svg id="Regular" xmlns="http://www.w3.org/2000/svg" viewBox="0 0 24 24"><defs><style>.cls-1{fill:none;stroke:currentColor;stroke-linecap:round;stroke-linejoin:round;stroke-width:1.5px;}</style></defs><title>gymnastics-horse</title><path class="cls-1" d="M.75,23.25v-1.5a1.5,1.5,0,0,1,1.5-1.5h19.5a1.5,1.5,0,0,1,1.5,1.5v1.5"/><line class="cls-1" x1="6.75" y1="17.25" x2="6.75" y2="20.25"/><line class="cls-1" x1="17.25" y1="18" x2="17.25" y2="20.25"/><circle class="cls-1" cx="3.75" cy="3.375" r="2.625"/><path class="cls-1" d="M21.75,11.25H16.63l5.379-4.89a1.5,1.5,0,0,0-2.018-2.22l-7.467,6.786a.227.227,0,0,1-.018.025L8.782,9.089l5.779-5.778a1.5,1.5,0,0,0-2.122-2.122L6.568,7.061A4.472,4.472,0,0,0,5.25,10.242V15.75a1.5,1.5,0,0,0,3,0V12.177l3.2,1.6a4.516,4.516,0,0,0,2.012.475H21.75a1.5,1.5,0,0,0,0-3Z"/></svg>