<svg id="Regular" xmlns="http://www.w3.org/2000/svg" viewBox="0 0 24 24"><defs><style>.cls-1{fill:none;stroke:currentColor;stroke-linecap:round;stroke-linejoin:round;stroke-width:1.5px;}</style></defs><title>gymnastics-weightlifting</title><circle class="cls-1" cx="12" cy="3.375" r="2.625"/><line class="cls-1" x1="12" y1="18.75" x2="12" y2="21.75"/><path class="cls-1" d="M12,21.75a1.5,1.5,0,0,1-3,0v-4.5"/><path class="cls-1" d="M9,12v1.5a1.5,1.5,0,0,1-3,0V12a4.5,4.5,0,0,1,4.5-4.5h3A4.5,4.5,0,0,1,18,12v1.5a1.5,1.5,0,0,1-3,0V12"/><path class="cls-1" d="M12,21.75a1.5,1.5,0,0,0,3,0v-4.5"/><line class="cls-1" x1="0.75" y1="23.25" x2="0.75" y2="12"/><line class="cls-1" x1="23.25" y1="23.25" x2="23.25" y2="12"/><line class="cls-1" x1="0.75" y1="14.25" x2="6.201" y2="14.25"/><line class="cls-1" x1="8.799" y1="14.25" x2="15.201" y2="14.25"/><line class="cls-1" x1="17.799" y1="14.25" x2="23.25" y2="14.25"/></svg>