<svg id="Regular" xmlns="http://www.w3.org/2000/svg" viewBox="0 0 24 24"><defs><style>.cls-1{fill:none;stroke:currentColor;stroke-linecap:round;stroke-linejoin:round;stroke-width:1.5px;}</style></defs><title>gymnastics-jump</title><line class="cls-1" x1="22.25" y1="11.25" x2="1.75" y2="11.25"/><line class="cls-1" x1="22.75" y1="17.25" x2="1.25" y2="17.25"/><line class="cls-1" x1="10.5" y1="14.25" x2="13.5" y2="14.25"/><line class="cls-1" x1="10.5" y1="8.25" x2="13.5" y2="8.25"/><line class="cls-1" x1="10.5" y1="20.25" x2="13.5" y2="20.25"/><path class="cls-1" d="M23.245,21.626a1.5,1.5,0,0,1-1.5,1.624H2.25A1.5,1.5,0,0,1,.755,21.626l1.38-15A1.5,1.5,0,0,1,3.63,5.25H20.37a1.5,1.5,0,0,1,1.495,1.376Z"/><path class="cls-1" d="M3,5.387C2.853,2.839,6.939.75,12,.75s9.147,2.089,9,4.637"/></svg>