<svg id="Regular" xmlns="http://www.w3.org/2000/svg" viewBox="0 0 24 24"><defs><style>.cls-1{fill:none;stroke:currentColor;stroke-linecap:round;stroke-linejoin:round;stroke-width:1.5px;}</style></defs><title>hair-dress-cut</title><path class="cls-1" d="M23.25,21.75a1.5,1.5,0,0,1-3,0V.75a3,3,0,0,1,3,3Z"/><line class="cls-1" x1="15" y1="0.75" x2="20.25" y2="0.75"/><line class="cls-1" x1="15" y1="15.75" x2="20.25" y2="15.75"/><line class="cls-1" x1="15" y1="3.75" x2="17.25" y2="3.75"/><line class="cls-1" x1="15" y1="6.75" x2="17.25" y2="6.75"/><line class="cls-1" x1="15" y1="9.75" x2="17.25" y2="9.75"/><line class="cls-1" x1="15" y1="12.75" x2="17.25" y2="12.75"/><circle class="cls-1" cx="3" cy="19.5" r="2.25"/><circle class="cls-1" cx="10.5" cy="19.5" r="2.25"/><path class="cls-1" d="M12.75,23.25a2.251,2.251,0,0,1-2.123-1.5"/><polyline class="cls-1" points="5.25 19.5 5.25 11.25 6.75 0.75 8.25 11.25 8.25 19.5"/><line class="cls-1" x1="5.25" y1="14.25" x2="8.25" y2="12.75"/></svg>