<svg id="Regular" xmlns="http://www.w3.org/2000/svg" viewBox="0 0 24 24"><defs><style>.cls-1{fill:none;stroke:currentColor;stroke-linecap:round;stroke-linejoin:round;stroke-width:1.5px;}</style></defs><title>hair-under-skin</title><circle class="cls-1" cx="6" cy="16.34" r="1.5"/><path class="cls-1" d="M6,14.84V11.09A16.176,16.176,0,0,1,9.75.733"/><circle class="cls-1" cx="18" cy="16.34" r="1.5"/><path class="cls-1" d="M18,14.84V11.09A16.176,16.176,0,0,1,21.75.733"/><line class="cls-1" x1="0.75" y1="8.983" x2="3.75" y2="8.983"/><line class="cls-1" x1="9.75" y1="8.983" x2="15" y2="8.983"/><line class="cls-1" x1="21" y1="8.983" x2="23.25" y2="8.983"/><path class="cls-1" d="M1.125,19.34a.375.375,0,0,1,.375.375"/><path class="cls-1" d="M.75,19.715a.375.375,0,0,1,.375-.375"/><path class="cls-1" d="M1.125,20.09a.375.375,0,0,1-.375-.375"/><path class="cls-1" d="M1.5,19.715a.375.375,0,0,1-.375.375"/><path class="cls-1" d="M4.875,22.34a.375.375,0,0,1,.375.375"/><path class="cls-1" d="M4.5,22.715a.375.375,0,0,1,.375-.375"/><path class="cls-1" d="M4.875,23.09a.375.375,0,0,1-.375-.375"/><path class="cls-1" d="M5.25,22.715a.375.375,0,0,1-.375.375"/><path class="cls-1" d="M22.875,19.34a.375.375,0,0,0-.375.375"/><path class="cls-1" d="M23.25,19.715a.375.375,0,0,0-.375-.375"/><path class="cls-1" d="M22.875,20.09a.375.375,0,0,0,.375-.375"/><path class="cls-1" d="M22.5,19.715a.375.375,0,0,0,.375.375"/><path class="cls-1" d="M19.125,22.34a.375.375,0,0,0-.375.375"/><path class="cls-1" d="M19.5,22.715a.375.375,0,0,0-.375-.375"/><path class="cls-1" d="M19.125,23.09a.375.375,0,0,0,.375-.375"/><path class="cls-1" d="M18.75,22.715a.375.375,0,0,0,.375.375"/><path class="cls-1" d="M10.125,19.34a.375.375,0,0,1,.375.375"/><path class="cls-1" d="M9.75,19.715a.375.375,0,0,1,.375-.375"/><path class="cls-1" d="M10.125,20.09a.375.375,0,0,1-.375-.375"/><path class="cls-1" d="M10.5,19.715a.375.375,0,0,1-.375.375"/><path class="cls-1" d="M13.875,22.34a.375.375,0,0,1,.375.375"/><path class="cls-1" d="M13.5,22.715a.375.375,0,0,1,.375-.375"/><path class="cls-1" d="M13.875,23.09a.375.375,0,0,1-.375-.375"/><path class="cls-1" d="M14.25,22.715a.375.375,0,0,1-.375.375"/></svg>