<svg id="Regular" xmlns="http://www.w3.org/2000/svg" viewBox="0 0 24 24"><defs><style>.cls-1{fill:none;stroke:currentColor;stroke-linecap:round;stroke-linejoin:round;stroke-width:1.5px;}</style></defs><title>hair-skin-1</title><path class="cls-1" d="M1.525,21.358a.374.374,0,0,1,.375.375"/><path class="cls-1" d="M1.15,21.733a.374.374,0,0,1,.375-.375"/><path class="cls-1" d="M1.525,22.108a.375.375,0,0,1-.375-.375"/><path class="cls-1" d="M1.9,21.733a.375.375,0,0,1-.375.375"/><path class="cls-1" d="M4.525,17.608a.374.374,0,0,1,.375.375"/><path class="cls-1" d="M4.15,17.983a.374.374,0,0,1,.375-.375"/><path class="cls-1" d="M4.525,18.358a.375.375,0,0,1-.375-.375"/><path class="cls-1" d="M4.9,17.983a.375.375,0,0,1-.375.375"/><path class="cls-1" d="M8.275,21.358a.374.374,0,0,1,.375.375"/><path class="cls-1" d="M7.9,21.733a.374.374,0,0,1,.375-.375"/><path class="cls-1" d="M8.275,22.108a.375.375,0,0,1-.375-.375"/><path class="cls-1" d="M8.65,21.733a.375.375,0,0,1-.375.375"/><path class="cls-1" d="M22.525,21.358a.374.374,0,0,0-.375.375"/><path class="cls-1" d="M22.9,21.733a.374.374,0,0,0-.375-.375"/><path class="cls-1" d="M22.525,22.108a.375.375,0,0,0,.375-.375"/><path class="cls-1" d="M22.15,21.733a.375.375,0,0,0,.375.375"/><path class="cls-1" d="M19.525,17.608a.374.374,0,0,0-.375.375"/><path class="cls-1" d="M19.9,17.983a.374.374,0,0,0-.375-.375"/><path class="cls-1" d="M19.525,18.358a.375.375,0,0,0,.375-.375"/><path class="cls-1" d="M19.15,17.983a.375.375,0,0,0,.375.375"/><path class="cls-1" d="M15.775,21.358a.374.374,0,0,0-.375.375"/><path class="cls-1" d="M16.15,21.733a.374.374,0,0,0-.375-.375"/><path class="cls-1" d="M15.775,22.108a.375.375,0,0,0,.375-.375"/><path class="cls-1" d="M15.4,21.733a.375.375,0,0,0,.375.375"/><path class="cls-1" d="M23.225,10.483h-1.45a3.75,3.75,0,0,1-7.5,0h-4.5a3.75,3.75,0,0,1-7.5,0H.775"/><path class="cls-1" d="M12.025,17.608a.374.374,0,0,1,.375.375"/><path class="cls-1" d="M11.65,17.983a.374.374,0,0,1,.375-.375"/><path class="cls-1" d="M12.025,18.358a.375.375,0,0,1-.375-.375"/><path class="cls-1" d="M12.4,17.983a.375.375,0,0,1-.375.375"/><path class="cls-1" d="M6.025,11.233s-.75-6.75,1.5-9.75"/><path class="cls-1" d="M18.025,11.233s-.75-6.75,1.5-9.75"/></svg>