<svg id="Regular" xmlns="http://www.w3.org/2000/svg" viewBox="0 0 24 24"><defs><style>.cls-1{fill:none;stroke:currentColor;stroke-linecap:round;stroke-linejoin:round;stroke-width:1.5px;}</style></defs><title>hair-dress-chair</title><path class="cls-1" d="M18,15.75a3,3,0,0,1-3,3H9a3,3,0,0,1-3-3Z"/><path class="cls-1" d="M9.5.75h5a2,2,0,0,1,2,2v13a0,0,0,0,1,0,0h-9a0,0,0,0,1,0,0v-13A2,2,0,0,1,9.5.75Z"/><line class="cls-1" x1="12" y1="18.75" x2="12" y2="23.25"/><line class="cls-1" x1="7.5" y1="23.25" x2="16.5" y2="23.25"/><path class="cls-1" d="M3,11.25v3a3,3,0,0,0,3,3h.405"/><line class="cls-1" x1="1.5" y1="11.25" x2="4.5" y2="11.25"/><path class="cls-1" d="M21,11.25v3a3,3,0,0,1-3,3H17.6"/><line class="cls-1" x1="22.5" y1="11.25" x2="19.5" y2="11.25"/></svg>