<svg id="Regular" xmlns="http://www.w3.org/2000/svg" viewBox="0 0 24 24"><defs><style>.cls-1{fill:none;stroke:currentColor;stroke-linecap:round;stroke-linejoin:round;stroke-width:1.5px;}</style></defs><title>hair-dress-round-brush</title><rect class="cls-1" x="7.27" y="5.337" width="15.85" height="6.935" rx="0.991" ry="0.991" transform="translate(-1.776 13.323) rotate(-44.998)"/><line class="cls-1" x1="16.946" y1="2.151" x2="15.545" y2="0.75"/><line class="cls-1" x1="11.342" y1="7.754" x2="9.941" y2="6.353"/><line class="cls-1" x1="8.54" y1="10.556" x2="7.139" y2="9.155"/><line class="cls-1" x1="14.144" y1="4.953" x2="12.743" y2="3.552"/><line class="cls-1" x1="16.246" y1="12.657" x2="17.647" y2="14.058"/><line class="cls-1" x1="13.444" y1="15.459" x2="14.845" y2="16.86"/><line class="cls-1" x1="19.048" y1="9.856" x2="20.449" y2="11.257"/><line class="cls-1" x1="21.85" y1="7.054" x2="23.25" y2="8.455"/><path class="cls-1" d="M12.64,11.36a.374.374,0,0,1,0,.53"/><path class="cls-1" d="M12.11,11.36a.374.374,0,0,1,.53,0"/><path class="cls-1" d="M12.11,11.89a.374.374,0,0,1,0-.53"/><path class="cls-1" d="M12.64,11.89a.374.374,0,0,1-.53,0"/><path class="cls-1" d="M15.46,8.54a.374.374,0,0,1,0,.53"/><path class="cls-1" d="M14.93,8.54a.374.374,0,0,1,.53,0"/><path class="cls-1" d="M14.93,9.07a.374.374,0,0,1,0-.53"/><path class="cls-1" d="M15.46,9.07a.374.374,0,0,1-.53,0"/><path class="cls-1" d="M18.28,5.72a.375.375,0,0,1,0,.53"/><path class="cls-1" d="M17.75,5.72a.374.374,0,0,1,.53,0"/><path class="cls-1" d="M17.75,6.25a.374.374,0,0,1,0-.53"/><path class="cls-1" d="M18.28,6.25a.374.374,0,0,1-.53,0"/><path class="cls-1" d="M1.185,22.815h0a1.487,1.487,0,0,1,0-2.1L8.54,13.358l2.1,2.1L3.287,22.815A1.487,1.487,0,0,1,1.185,22.815Z"/></svg>