<svg id="Regular" xmlns="http://www.w3.org/2000/svg" viewBox="0 0 24 24"><defs><style>.cls-1{fill:none;stroke:currentColor;stroke-linecap:round;stroke-linejoin:round;stroke-width:1.5px;}</style></defs><title>hair-dress-comb-1</title><path class="cls-1" d="M18.069,11.251A1.906,1.906,0,0,1,18.253,8.4l3.7-2.851a2.678,2.678,0,0,0,.592-3.883,2.594,2.594,0,0,0-4.084.175L15.515,5.655a1.905,1.905,0,0,1-2.857.185h0a3.061,3.061,0,0,0-4.33,0L5.621,8.546l9.743,9.743,2.707-2.706a3.063,3.063,0,0,0,0-4.33Z"/><line class="cls-1" x1="5.621" y1="8.546" x2="0.75" y2="13.418"/><line class="cls-1" x1="8.869" y1="11.794" x2="3.998" y2="16.665"/><line class="cls-1" x1="12.117" y1="15.041" x2="7.245" y2="19.913"/><line class="cls-1" x1="15.364" y1="18.289" x2="10.493" y2="23.16"/></svg>