<svg id="Regular" xmlns="http://www.w3.org/2000/svg" viewBox="0 0 24 24"><defs><style>.cls-1,.cls-2{fill:none;stroke:currentColor;stroke-miterlimit:10;stroke-width:1.5px;}.cls-2{stroke-linecap:round;}</style></defs><title>hair-dress-round-brush_1</title><ellipse class="cls-1" cx="12.25" cy="4.5" rx="6.75" ry="3.75"/><path class="cls-1" d="M19,9.75c0,2.071-3.022,3.75-6.75,3.75S5.5,11.821,5.5,9.75"/><path class="cls-1" d="M19,15c0,2.071-3.022,3.75-6.75,3.75S5.5,17.071,5.5,15"/><path class="cls-1" d="M5.5,4.5v15c0,2.071,3.022,3.75,6.75,3.75S19,21.571,19,19.5V4.5"/><line class="cls-2" x1="22" y1="9.75" x2="19" y2="9.75"/><line class="cls-2" x1="22" y1="4.5" x2="19" y2="4.5"/><line class="cls-2" x1="22" y1="15" x2="19" y2="15"/><line class="cls-2" x1="22" y1="19.5" x2="19" y2="19.5"/><line class="cls-2" x1="2.5" y1="19.5" x2="5.5" y2="19.5"/><line class="cls-2" x1="2.5" y1="9.75" x2="5.5" y2="9.75"/><line class="cls-2" x1="2.5" y1="4.5" x2="5.5" y2="4.5"/><line class="cls-2" x1="2.5" y1="15" x2="5.5" y2="15"/><line class="cls-2" x1="12.25" y1="8.25" x2="12.25" y2="23.25"/></svg>