<svg id="Regular" xmlns="http://www.w3.org/2000/svg" viewBox="0 0 24 24"><defs><style>.cls-1{fill:none;stroke:currentColor;stroke-linecap:round;stroke-linejoin:round;stroke-width:1.5px;}</style></defs><title>hair-dress-chair-1</title><path class="cls-1" d="M4.5,23.25H2.25a1.5,1.5,0,0,1-1.5-1.5V2.25A1.5,1.5,0,0,1,2.25.75h19.5a1.5,1.5,0,0,1,1.5,1.5v19.5a1.5,1.5,0,0,1-1.5,1.5H19.5"/><path class="cls-1" d="M11,8.25h2a2,2,0,0,1,2,2v7a0,0,0,0,1,0,0H9a0,0,0,0,1,0,0v-7A2,2,0,0,1,11,8.25Z"/><path class="cls-1" d="M6.75,17.25h10.5a0,0,0,0,1,0,0v2.5a.5.5,0,0,1-.5.5H7.25a.5.5,0,0,1-.5-.5v-2.5A0,0,0,0,1,6.75,17.25Z"/><line class="cls-1" x1="12" y1="20.25" x2="12" y2="23.25"/><path class="cls-1" d="M17.25,17.25a1.5,1.5,0,0,0,1.5-1.5v-1.5"/><path class="cls-1" d="M6.75,17.25a1.5,1.5,0,0,1-1.5-1.5v-1.5"/><line class="cls-1" x1="9.75" y1="23.25" x2="14.25" y2="23.25"/></svg>