<svg id="Regular" xmlns="http://www.w3.org/2000/svg" viewBox="0 0 24 24"><defs><style>.cls-1{fill:none;stroke:currentColor;stroke-linecap:round;stroke-linejoin:round;stroke-width:1.5px;}</style></defs><title>hair-skin</title><path class="cls-1" d="M23.225,10.762h-5.2a6,6,0,0,1-12,0H.775"/><path class="cls-1" d="M1.525,14.137a.375.375,0,0,1,.375.375"/><path class="cls-1" d="M1.15,14.512a.375.375,0,0,1,.375-.375"/><path class="cls-1" d="M1.525,14.887a.375.375,0,0,1-.375-.375"/><path class="cls-1" d="M1.9,14.512a.375.375,0,0,1-.375.375"/><path class="cls-1" d="M1.525,21.637a.375.375,0,0,1,.375.375"/><path class="cls-1" d="M1.15,22.012a.375.375,0,0,1,.375-.375"/><path class="cls-1" d="M1.525,22.387a.375.375,0,0,1-.375-.375"/><path class="cls-1" d="M1.9,22.012a.375.375,0,0,1-.375.375"/><path class="cls-1" d="M4.525,17.887a.375.375,0,0,1,.375.375"/><path class="cls-1" d="M4.15,18.262a.375.375,0,0,1,.375-.375"/><path class="cls-1" d="M4.525,18.637a.375.375,0,0,1-.375-.375"/><path class="cls-1" d="M4.9,18.262a.375.375,0,0,1-.375.375"/><path class="cls-1" d="M8.275,21.637a.375.375,0,0,1,.375.375"/><path class="cls-1" d="M7.9,22.012a.375.375,0,0,1,.375-.375"/><path class="cls-1" d="M8.275,22.387a.375.375,0,0,1-.375-.375"/><path class="cls-1" d="M8.65,22.012a.375.375,0,0,1-.375.375"/><path class="cls-1" d="M22.525,14.137a.375.375,0,0,0-.375.375"/><path class="cls-1" d="M22.9,14.512a.375.375,0,0,0-.375-.375"/><path class="cls-1" d="M22.525,14.887a.375.375,0,0,0,.375-.375"/><path class="cls-1" d="M22.15,14.512a.375.375,0,0,0,.375.375"/><path class="cls-1" d="M22.525,21.637a.375.375,0,0,0-.375.375"/><path class="cls-1" d="M22.9,22.012a.375.375,0,0,0-.375-.375"/><path class="cls-1" d="M22.525,22.387a.375.375,0,0,0,.375-.375"/><path class="cls-1" d="M22.15,22.012a.375.375,0,0,0,.375.375"/><path class="cls-1" d="M19.525,17.887a.375.375,0,0,0-.375.375"/><path class="cls-1" d="M19.9,18.262a.375.375,0,0,0-.375-.375"/><path class="cls-1" d="M19.525,18.637a.375.375,0,0,0,.375-.375"/><path class="cls-1" d="M19.15,18.262a.375.375,0,0,0,.375.375"/><path class="cls-1" d="M15.775,21.637a.375.375,0,0,0-.375.375"/><path class="cls-1" d="M16.15,22.012a.375.375,0,0,0-.375-.375"/><path class="cls-1" d="M15.775,22.387a.375.375,0,0,0,.375-.375"/><path class="cls-1" d="M15.4,22.012a.375.375,0,0,0,.375.375"/><path class="cls-1" d="M8.275,10.012a3.75,3.75,0,0,0,7.5,0c0-2.655-2.937-3.548-2.053-7.877A.751.751,0,0,0,12.514,1.4,12.312,12.312,0,0,0,8.275,10.012Z"/></svg>