<svg id="Regular" xmlns="http://www.w3.org/2000/svg" viewBox="0 0 24 24"><defs><style>.cls-1{fill:none;stroke:currentColor;stroke-linecap:round;stroke-linejoin:round;stroke-width:1.5px;}</style></defs><title>halloween-hand</title><path class="cls-1" d="M7.5,8.965V2.993a1.5,1.5,0,0,1,3,0V5.979"/><path class="cls-1" d="M10.5,6.01V2.184a1.5,1.5,0,0,1,3,0V6.01"/><path class="cls-1" d="M13.5,6.01V3a1.5,1.5,0,1,1,3,0V5.172"/><path class="cls-1" d="M16.5,7.069v-1.9a1.5,1.5,0,0,1,3,0V9.75a5.128,5.128,0,0,1-5,5.25H11.165C7.5,15,4.5,11.1,4.5,9V6.825A1.539,1.539,0,0,1,6,5.25H7.5"/><path class="cls-1" d="M10.5,14.957V18a2.831,2.831,0,0,0-3,2.625,2.831,2.831,0,0,0,3,2.625,3.658,3.658,0,0,0,2.25-.75,3.658,3.658,0,0,0,2.25.75,2.831,2.831,0,0,0,3-2.625A2.831,2.831,0,0,0,15,18V14.975"/></svg>