<svg id="Regular" xmlns="http://www.w3.org/2000/svg" viewBox="0 0 24 24"><defs><style>.cls-1{fill:none;stroke:currentColor;stroke-linecap:round;stroke-linejoin:round;stroke-width:1.5px;}</style></defs><title>halloween-vampire</title><path class="cls-1" d="M2.25,23.25a9.75,9.75,0,0,1,19.5,0"/><path class="cls-1" d="M12,11.25A5.249,5.249,0,0,0,17.25,6V2.25a1.5,1.5,0,0,0-1.5-1.5H8.25a1.5,1.5,0,0,0-1.5,1.5V6A5.249,5.249,0,0,0,12,11.25Z"/><path class="cls-1" d="M6.75,4.688c2.665-.492,4.255.181,5.25,1.5a4.92,4.92,0,0,1,5.25-1.5"/><polyline class="cls-1" points="8.25 14.25 12 18.75 15.75 14.25"/><path class="cls-1" d="M17.055,7.421a19.737,19.737,0,0,1,4.7,2.742l-3.764,5.391"/><path class="cls-1" d="M6.014,15.554,2.25,10.163a19.737,19.737,0,0,1,4.7-2.742"/></svg>