<svg id="Regular" xmlns="http://www.w3.org/2000/svg" viewBox="0 0 24 24"><defs><style>.cls-1{fill:none;stroke:currentColor;stroke-linecap:round;stroke-linejoin:round;stroke-width:1.5px;}</style></defs><title>halloween-bat</title><path class="cls-1" d="M19.631,6.98a.253.253,0,0,0-.395.109c-.455,1.265-1.154,2.461-3.629,3.208a3.711,3.711,0,0,0,.143-.971,3.75,3.75,0,1,0-7.5,0,3.711,3.711,0,0,0,.143.971C5.918,9.55,5.219,8.354,4.764,7.089a.253.253,0,0,0-.4-.109C.738,9.945.748,13.387.75,17.993a.244.244,0,0,0,.456.118c2.785-4.752,6.108-2.687,6.8-.478a.249.249,0,0,0,.35.149,2.846,2.846,0,0,1,3.42,1.567.246.246,0,0,0,.454,0,2.846,2.846,0,0,1,3.42-1.567.249.249,0,0,0,.35-.149c.689-2.209,4.012-4.274,6.8.478a.244.244,0,0,0,.456-.118C23.252,13.387,23.262,9.945,19.631,6.98Z"/></svg>