<svg id="Regular" xmlns="http://www.w3.org/2000/svg" viewBox="0 0 24 24"><defs><style>.cls-1{fill:none;stroke:currentColor;stroke-linecap:round;stroke-linejoin:round;stroke-width:1.5px;}</style></defs><title>halloween-web</title><path class="cls-1" d="M21.926,7.638a11.407,11.407,0,0,1-5.944-5.746,21.107,21.107,0,0,1-4.2.426,21.107,21.107,0,0,1-4.2-.426A11.4,11.4,0,0,1,1.632,7.638a9.789,9.789,0,0,1,0,8.125,11.185,11.185,0,0,1,5.944,5.746,16.157,16.157,0,0,1,4.2-.427,16.148,16.148,0,0,1,4.2.427,11.192,11.192,0,0,1,5.944-5.746A9.8,9.8,0,0,1,21.926,7.638Z"/><path class="cls-1" d="M18.7,8.93a7.777,7.777,0,0,1-4.053-3.917,14.359,14.359,0,0,1-2.866.29,14.357,14.357,0,0,1-2.865-.29A7.777,7.777,0,0,1,4.861,8.93a6.681,6.681,0,0,1,0,5.541,7.626,7.626,0,0,1,4.053,3.917,11.025,11.025,0,0,1,2.865-.291,11.028,11.028,0,0,1,2.866.291A7.626,7.626,0,0,1,18.7,14.471,6.681,6.681,0,0,1,18.7,8.93Z"/><line class="cls-1" x1="7.109" y1="1" x2="16.402" y2="22.75"/><line class="cls-1" x1="16.402" y1="1" x2="7.109" y2="22.75"/><line class="cls-1" x1="23.25" y1="7.242" x2="0.75" y2="16.324"/><line class="cls-1" x1="23.25" y1="16.324" x2="0.75" y2="7.242"/></svg>