<svg id="Regular" xmlns="http://www.w3.org/2000/svg" viewBox="0 0 24 24"><defs><style>.cls-1{fill:none;stroke:currentColor;stroke-linecap:round;stroke-linejoin:round;stroke-width:1.5px;}</style></defs><title>halloween-figure-1</title><path class="cls-1" d="M22.2,1.125A1.073,1.073,0,0,0,21.4.75H2.605a1.073,1.073,0,0,0-.807.375,1.235,1.235,0,0,0-.3.887L2.574,17.186a1,1,0,0,0,.4.72l1.912,1.468a.994.994,0,0,1,.4.761l.059,2.118a1.068,1.068,0,0,0,1.1,1H17.554a1.068,1.068,0,0,0,1.105-1l.059-2.118a.994.994,0,0,1,.4-.761L21.4,17.625,22.5,2.012A1.235,1.235,0,0,0,22.2,1.125Z"/><circle class="cls-1" cx="8.25" cy="14.286" r="1.5"/><circle class="cls-1" cx="15" cy="14.25" r="1.5"/><line class="cls-1" x1="8.25" y1="18.75" x2="15" y2="18.75"/><path class="cls-1" d="M1.5,2.25,4.149,5.011a1.211,1.211,0,0,0,1.441,0L7.522,3.544a1.211,1.211,0,0,1,1.441,0L10.9,5.011a1.211,1.211,0,0,0,1.44,0l1.935-1.469a1.211,1.211,0,0,1,1.439,0l1.941,1.47a1.211,1.211,0,0,0,1.439,0l3.356-3.441"/><line class="cls-1" x1="1.996" y1="9" x2="22.009" y2="9"/><line class="cls-1" x1="6" y1="8.25" x2="6" y2="9.75"/><line class="cls-1" x1="12" y1="8.25" x2="12" y2="9.75"/><line class="cls-1" x1="18" y1="8.25" x2="18" y2="9.75"/><line class="cls-1" x1="5.285" y1="20.25" x2="1.5" y2="20.25"/><line class="cls-1" x1="1.5" y1="19.152" x2="1.5" y2="21.201"/><line class="cls-1" x1="18.715" y1="20.25" x2="22.5" y2="20.25"/><line class="cls-1" x1="22.5" y1="19.152" x2="22.5" y2="21.201"/></svg>