<svg id="Regular" xmlns="http://www.w3.org/2000/svg" viewBox="0 0 24 24"><defs><style>.cls-1{fill:none;stroke:currentColor;stroke-linecap:round;stroke-linejoin:round;stroke-width:1.5px;}</style></defs><title>halloween-lips-vampire</title><path class="cls-1" d="M.846,11.506a.5.5,0,0,1,.048-.649C1.884,9.825,5.277,6.5,7.9,6.5c3.106,0,3.063,1.553,4.1,1.553S13.035,6.5,16.141,6.5c2.624,0,5.987,3.325,6.967,4.357a.506.506,0,0,1,.046.648c-.97,1.373-4.924,6.362-11.155,6.362S1.817,12.882.846,11.506Z"/><path class="cls-1" d="M1.022,11.75A9.885,9.885,0,0,1,6.3,10.124c1.755,0,3.762,1.553,5.7,1.553,1.747,0,3.551-1.553,5.177-1.553a11.821,11.821,0,0,1,5.805,1.621"/><path class="cls-1" d="M5.3,10.183a5.059,5.059,0,0,0,1.268,3.731.521.521,0,0,0,.915-.25,5.044,5.044,0,0,1,1.272-2.9"/><path class="cls-1" d="M18.711,10.239a5.081,5.081,0,0,1-1.274,3.675.521.521,0,0,1-.915-.25,4.834,4.834,0,0,0-1.376-2.99"/></svg>