<svg id="Regular" xmlns="http://www.w3.org/2000/svg" viewBox="0 0 24 24"><defs><style>.cls-1{fill:none;stroke:currentColor;stroke-linecap:round;stroke-linejoin:round;stroke-width:1.5px;}</style></defs><title>halloween-figure</title><path class="cls-1" d="M21.293,3.172h0A2.439,2.439,0,0,0,18.837.75H5.163A2.439,2.439,0,0,0,2.707,3.172h0a2.391,2.391,0,0,0,.775,4.233A2.457,2.457,0,0,0,6.13,6.523a2.448,2.448,0,0,0,3.913,0,2.449,2.449,0,0,0,3.914,0,2.448,2.448,0,0,0,3.913,0,2.457,2.457,0,0,0,2.648.882,2.391,2.391,0,0,0,.775-4.233Z"/><path class="cls-1" d="M20.25,7.464v8.179A3.766,3.766,0,0,1,16.583,19.5H7.417A3.766,3.766,0,0,1,3.75,15.643V7.464"/><polyline class="cls-1" points="7.5 23.25 7.5 19.5 16.5 19.5 16.5 23.25"/><line class="cls-1" x1="7.5" y1="21.75" x2="3.75" y2="21.75"/><circle class="cls-1" cx="9" cy="11.25" r="1.5"/><circle class="cls-1" cx="15" cy="11.25" r="1.5"/><path class="cls-1" d="M10.5,16.5l.986-.6a.952.952,0,0,1,1.028,0l.986.6"/><line class="cls-1" x1="20.25" y1="12" x2="23.25" y2="12"/><line class="cls-1" x1="23.25" y1="10.5" x2="23.25" y2="13.5"/><line class="cls-1" x1="3.75" y1="12" x2="0.75" y2="12"/><line class="cls-1" x1="0.75" y1="10.5" x2="0.75" y2="13.5"/><line class="cls-1" x1="3.75" y1="21" x2="3.75" y2="22.5"/><line class="cls-1" x1="16.5" y1="21.75" x2="20.25" y2="21.75"/><line class="cls-1" x1="20.25" y1="21" x2="20.25" y2="22.5"/></svg>