<svg id="Regular" xmlns="http://www.w3.org/2000/svg" viewBox="0 0 24 24"><defs><style>.cls-1{fill:none;stroke:currentColor;stroke-linecap:round;stroke-linejoin:round;stroke-width:1.5px;}</style></defs><title>halloween-voodoo-doll</title><path class="cls-1" d="M21.471,15.788l-3.823-3.823a4.891,4.891,0,1,0-4.113-4.113L9.712,4.029A1.467,1.467,0,0,0,7.637,6.1L9.712,8.179a1.467,1.467,0,0,1,0,2.075L4.178,15.788a1.467,1.467,0,0,0,2.075,2.075l2.421-2.421a.979.979,0,0,1,1.384,1.384L7.637,19.247a1.467,1.467,0,1,0,2.075,2.075l5.534-5.534a1.467,1.467,0,0,1,2.075,0L19.4,17.863a1.467,1.467,0,0,0,2.075-2.075Z"/><circle class="cls-1" cx="3" cy="7.599" r="2.25"/><line class="cls-1" x1="12" y1="12.458" x2="4.839" y2="8.895"/><path class="cls-1" d="M16.875,5.349a.375.375,0,0,1,.375.375"/><path class="cls-1" d="M16.5,5.724a.375.375,0,0,1,.375-.375"/><path class="cls-1" d="M16.875,6.1a.375.375,0,0,1-.375-.375"/><path class="cls-1" d="M17.25,5.724a.375.375,0,0,1-.375.375"/><path class="cls-1" d="M19.875,7.6a.375.375,0,0,1,.375.375"/><path class="cls-1" d="M19.5,7.974a.375.375,0,0,1,.375-.375"/><path class="cls-1" d="M19.875,8.349a.375.375,0,0,1-.375-.375"/><path class="cls-1" d="M20.25,7.974a.375.375,0,0,1-.375.375"/></svg>