<svg id="Regular" xmlns="http://www.w3.org/2000/svg" viewBox="0 0 24 24"><defs><style>.cls-1{fill:none;stroke:currentColor;stroke-linecap:round;stroke-linejoin:round;stroke-width:1.5px;}</style></defs><title>halloween-bat-fly</title><path class="cls-1" d="M3.368,19.2a11.25,11.25,0,1,1,19.868-7.95"/><path class="cls-1" d="M18.085,10.988a.186.186,0,0,0-.246.171,3.438,3.438,0,0,1-1.718,3.079,2.731,2.731,0,1,0-4.955,1.742A3.439,3.439,0,0,1,7.9,14.652a.185.185,0,0,0-.3.021c-1.778,2.913-.941,5.275.173,8.438a.177.177,0,0,0,.341-.029c.766-3.936,3.548-3.32,4.554-1.969a.181.181,0,0,0,.276.018,2.072,2.072,0,0,1,2.727.25.18.18,0,0,0,.313-.109,2.072,2.072,0,0,1,1.971-1.9.181.181,0,0,0,.2-.187c-.061-1.683,1.724-3.9,4.784-1.312a.177.177,0,0,0,.284-.191C22.118,14.515,21.294,12.149,18.085,10.988Z"/></svg>