<svg id="Regular" xmlns="http://www.w3.org/2000/svg" viewBox="0 0 24 24"><defs><style>.cls-1{fill:none;stroke:currentColor;stroke-linecap:round;stroke-linejoin:round;stroke-width:1.5px;}</style></defs><title>halloween-graveyard</title><path class="cls-1" d="M19.5,18.991V10.75H22a.5.5,0,0,0,.5-.494V8.244A.5.5,0,0,0,22,7.75H19.5V5.244A.5.5,0,0,0,19,4.75H17a.5.5,0,0,0-.5.494V7.75H14a.5.5,0,0,0-.5.494v2.012a.5.5,0,0,0,.5.494h2.5v8.509"/><path class="cls-1" d="M2.25,5.28a8.232,8.232,0,0,1,2.25.97,8.232,8.232,0,0,1,2.25-.97"/><path class="cls-1" d="M7.724,1a4.792,4.792,0,0,1,1.263.5A4.817,4.817,0,0,1,10.251,1"/><path class="cls-1" d="M12.176,20.642l-1.747-7.188a4.5,4.5,0,0,0-5.424-3.329h0a4.5,4.5,0,0,0-3.329,5.423L3.388,22.7"/><line class="cls-1" x1="5.878" y1="13.772" x2="6.925" y2="18.148"/><line class="cls-1" x1="4.768" y1="15.58" x2="7.686" y2="14.881"/><path class="cls-1" d="M23.25,19.721a11.217,11.217,0,0,0-4.125-.73c-2.867,0-5.263.9-6.065,2.121a2.97,2.97,0,0,0-4.654,1.469A5.14,5.14,0,0,0,6,21.991a5.069,5.069,0,0,0-2.669.745,2.986,2.986,0,0,0-2.581-1.5"/></svg>