<svg id="Regular" xmlns="http://www.w3.org/2000/svg" viewBox="0 0 24 24"><defs><style>.cls-1{fill:none;stroke:currentColor;stroke-linecap:round;stroke-linejoin:round;stroke-width:1.5px;}</style></defs><title>halloween-calendar-skull</title><path class="cls-1" d="M6,23.25H3a1.5,1.5,0,0,1-1.5-1.5V5.25A1.5,1.5,0,0,1,3,3.75H21a1.5,1.5,0,0,1,1.5,1.5v16.5a1.5,1.5,0,0,1-1.5,1.5H18"/><line class="cls-1" x1="1.5" y1="9.75" x2="22.5" y2="9.75"/><line class="cls-1" x1="7.5" y1="6" x2="7.5" y2="0.75"/><line class="cls-1" x1="16.5" y1="6" x2="16.5" y2="0.75"/><path class="cls-1" d="M13.875,17.25a.375.375,0,0,1,.375.375"/><path class="cls-1" d="M13.5,17.625a.375.375,0,0,1,.375-.375"/><path class="cls-1" d="M13.875,18a.375.375,0,0,1-.375-.375"/><path class="cls-1" d="M14.25,17.625a.375.375,0,0,1-.375.375"/><path class="cls-1" d="M10.125,17.25a.375.375,0,0,1,.375.375"/><path class="cls-1" d="M9.75,17.625a.375.375,0,0,1,.375-.375"/><path class="cls-1" d="M10.125,18a.375.375,0,0,1-.375-.375"/><path class="cls-1" d="M10.5,17.625a.375.375,0,0,1-.375.375"/><line class="cls-1" x1="12" y1="21.75" x2="12" y2="23.25"/><path class="cls-1" d="M15,23.25V21.121a4.483,4.483,0,0,0-2.25-8.371h-1.5A4.483,4.483,0,0,0,9,21.121V23.25"/></svg>