<svg id="Regular" xmlns="http://www.w3.org/2000/svg" viewBox="0 0 24 24"><defs><style>.cls-1{fill:none;stroke:currentColor;stroke-linecap:round;stroke-linejoin:round;stroke-width:1.5px;}</style></defs><title>halloween-spider</title><path class="cls-1" d="M7.757,18.249a5.823,5.823,0,0,1-2.507-4.7C5.25,10.207,8.272,7.5,12,7.5s6.75,2.707,6.75,6.046a5.819,5.819,0,0,1-2.507,4.7"/><ellipse class="cls-1" cx="12" cy="19.5" rx="4.5" ry="3.75"/><line class="cls-1" x1="12" y1="7.5" x2="12" y2="0.75"/><path class="cls-1" d="M6.019,16.35l-.517.131a2.751,2.751,0,0,0-1.7,1.612l-.119.256"/><path class="cls-1" d="M5.26,13.221l-.3-.087a2,2,0,0,0-2.112.8l-.694.842"/><path class="cls-1" d="M6.325,10.271l-.866-.75a1.876,1.876,0,0,0-2.674.08L1.5,10.819"/><path class="cls-1" d="M17.982,16.35l.516.131a2.751,2.751,0,0,1,1.7,1.612l.119.256"/><path class="cls-1" d="M18.741,13.22l.3-.086a2,2,0,0,1,2.112.8l.694.842"/><path class="cls-1" d="M17.675,10.271l.866-.75a1.876,1.876,0,0,1,2.674.08L22.5,10.819"/><path class="cls-1" d="M10.164,18.75a.369.369,0,0,1,.362.375"/><path class="cls-1" d="M9.8,19.125a.369.369,0,0,1,.362-.375"/><path class="cls-1" d="M10.164,19.5a.369.369,0,0,1-.362-.375"/><path class="cls-1" d="M10.526,19.125a.369.369,0,0,1-.362.375"/><path class="cls-1" d="M13.836,18.75a.37.37,0,0,1,.363.375"/><path class="cls-1" d="M13.474,19.125a.369.369,0,0,1,.362-.375"/><path class="cls-1" d="M13.836,19.5a.369.369,0,0,1-.362-.375"/><path class="cls-1" d="M14.2,19.125a.37.37,0,0,1-.363.375"/></svg>