<svg id="Regular" xmlns="http://www.w3.org/2000/svg" viewBox="0 0 24 24"><defs><style>.cls-1{fill:none;stroke:currentColor;stroke-linecap:round;stroke-linejoin:round;stroke-width:1.5px;}</style></defs><title>halloween-cauldron-mix</title><path class="cls-1" d="M2.664,9.88a9.142,9.142,0,0,0-.831,3.8c0,5.285,4.549,9.57,10.161,9.57s10.161-4.285,10.161-9.57a9.089,9.089,0,0,0-.832-3.8"/><line class="cls-1" x1="3.553" y1="1.487" x2="6.9" y2="8.74"/><circle class="cls-1" cx="17.075" cy="3.653" r="1.452"/><path class="cls-1" d="M22.518,1.464a.375.375,0,0,1,.375.375"/><path class="cls-1" d="M22.143,1.839a.375.375,0,0,1,.375-.375"/><path class="cls-1" d="M22.518,2.214a.375.375,0,0,1-.375-.375"/><path class="cls-1" d="M22.893,1.839a.375.375,0,0,1-.375.375"/><path class="cls-1" d="M9.454,1.464a.375.375,0,0,1,.375.375"/><path class="cls-1" d="M9.079,1.839a.375.375,0,0,1,.375-.375"/><path class="cls-1" d="M9.454,2.214a.375.375,0,0,1-.375-.375"/><path class="cls-1" d="M9.829,1.839a.375.375,0,0,1-.375.375"/><path class="cls-1" d="M8.389,4.583a31.163,31.163,0,0,1,3.605-.2q.366,0,.726.008"/><path class="cls-1" d="M20.7,5.83c1.367.607,2.177,1.361,2.177,2.178,0,2-4.874,3.629-10.887,3.629S1.107,10.012,1.107,8.008c0-.695.586-1.345,1.6-1.9"/><path class="cls-1" d="M9.869,7.351c.687-.045,1.4-.069,2.125-.069a27.8,27.8,0,0,1,6.367.685"/></svg>