<svg id="Regular" xmlns="http://www.w3.org/2000/svg" viewBox="0 0 24 24"><defs><style>.cls-1{fill:none;stroke:currentColor;stroke-linecap:round;stroke-linejoin:round;stroke-width:1.5px;}</style></defs><title>halloween-broom</title><path class="cls-1" d="M22.806,15.755a1.153,1.153,0,0,1,.268,1.495l-1.929,3.906-3.906,1.929a1.153,1.153,0,0,1-1.5-.268L12.7,18.146a3.869,3.869,0,0,1,.286-5.153h0a3.869,3.869,0,0,1,5.152-.285Z"/><line class="cls-1" x1="10.489" y1="10.5" x2="0.761" y2="0.75"/><path class="cls-1" d="M12.04,14.529,10.489,13a1.768,1.768,0,0,1,0-2.5h0a1.768,1.768,0,0,1,2.5,0l1.562,1.54"/><line class="cls-1" x1="19.639" y1="21.9" x2="16.489" y2="18.75"/><line class="cls-1" x1="22.173" y1="19.075" x2="18.739" y2="16.5"/><line class="cls-1" x1="15.761" y1="6.75" x2="20.261" y2="6.75"/><line class="cls-1" x1="18.011" y1="4.5" x2="18.011" y2="9"/><line class="cls-1" x1="9.011" y1="2.25" x2="12.011" y2="2.25"/><line class="cls-1" x1="10.511" y1="0.75" x2="10.511" y2="3.75"/><line class="cls-1" x1="0.761" y1="12" x2="3.761" y2="12"/><line class="cls-1" x1="2.261" y1="10.5" x2="2.261" y2="13.5"/><line class="cls-1" x1="7.511" y1="21.75" x2="10.511" y2="21.75"/><line class="cls-1" x1="9.011" y1="20.25" x2="9.011" y2="23.25"/><path class="cls-1" d="M7.342,16.272a.375.375,0,0,1,.375.375"/><path class="cls-1" d="M6.967,16.647a.375.375,0,0,1,.375-.375"/><path class="cls-1" d="M7.342,17.022a.375.375,0,0,1-.375-.375"/><path class="cls-1" d="M7.717,16.647a.375.375,0,0,1-.375.375"/><path class="cls-1" d="M2.94,20.185a.375.375,0,0,1,.375.375"/><path class="cls-1" d="M2.565,20.56a.375.375,0,0,1,.375-.375"/><path class="cls-1" d="M2.94,20.935a.375.375,0,0,1-.375-.375"/><path class="cls-1" d="M3.315,20.56a.375.375,0,0,1-.375.375"/><path class="cls-1" d="M21.038,1.5a.375.375,0,0,1,.375.375"/><path class="cls-1" d="M20.663,1.875a.375.375,0,0,1,.375-.375"/><path class="cls-1" d="M21.038,2.25a.375.375,0,0,1-.375-.375"/><path class="cls-1" d="M21.413,1.875a.375.375,0,0,1-.375.375"/></svg>