<svg id="Regular" xmlns="http://www.w3.org/2000/svg" viewBox="0 0 24 24"><defs><style>.cls-1{fill:none;stroke:currentColor;stroke-linecap:round;stroke-linejoin:round;stroke-width:1.5px;}</style></defs><title>halloween-calendar-tree</title><path class="cls-1" d="M3.75,23.25H3a1.5,1.5,0,0,1-1.5-1.5V5.25A1.5,1.5,0,0,1,3,3.75H21a1.5,1.5,0,0,1,1.5,1.5v16.5a1.5,1.5,0,0,1-1.5,1.5h-.75"/><line class="cls-1" x1="1.5" y1="9.75" x2="22.5" y2="9.75"/><line class="cls-1" x1="7.5" y1="6" x2="7.5" y2="0.75"/><line class="cls-1" x1="16.5" y1="6" x2="16.5" y2="0.75"/><polygon class="cls-1" points="12 12 8.25 16.5 10.5 16.5 7.5 20.25 16.5 20.25 13.5 16.5 15.75 16.5 12 12"/><line class="cls-1" x1="12" y1="20.25" x2="12" y2="23.25"/></svg>