<svg xmlns="http://www.w3.org/2000/svg" viewBox="0 0 24 24"><defs><style>.a{fill:none;stroke:currentColor;stroke-linecap:round;stroke-linejoin:round;stroke-width:1.5px;}</style></defs><title>hand-hold-3d-box</title><line class="a" x1="0.75" y1="14.25" x2="0.75" y2="23.25"/><path class="a" d="M.75,21.75h15a3,3,0,0,0-3-3H9a3,3,0,0,0-3-3H.75"/><line class="a" x1="6" y1="18.75" x2="9" y2="18.75"/><polygon class="a" points="17.25 17.25 11.25 15 11.25 7.5 17.25 9.75 17.25 17.25"/><polygon class="a" points="17.25 17.25 23.25 15 23.25 7.5 17.25 9.75 17.25 17.25"/><polyline class="a" points="23.25 7.5 17.25 5.25 11.25 7.5"/><path class="a" d="M17.25,5.25a1.5,1.5,0,0,1,1.5-1.5h3a1.5,1.5,0,0,0,0-3h-12"/></svg>