<svg xmlns="http://www.w3.org/2000/svg" viewBox="0 0 24 24"><defs><style>.a{fill:none;stroke:currentColor;stroke-linecap:round;stroke-linejoin:round;stroke-width:1.5px;}</style></defs><title>hardware-drill-carbide</title><path class="a" d="M7.5,23.25H3a.75.75,0,0,1-.75-.75V4.5l3-3.75,3,3.75v18A.75.75,0,0,1,7.5,23.25Z"/><path class="a" d="M15,23.25H12a.75.75,0,0,1-.75-.75V6.75l2.25-3,2.25,3V22.5A.75.75,0,0,1,15,23.25Z"/><path class="a" d="M21,23.25H19.5a.75.75,0,0,1-.75-.75V9l1.5-2.25L21.75,9V22.5A.75.75,0,0,1,21,23.25Z"/><line class="a" x1="8.25" y1="6" x2="2.25" y2="12"/><line class="a" x1="8.25" y1="11.25" x2="2.25" y2="17.25"/><line class="a" x1="15.75" y1="8.25" x2="11.25" y2="12.75"/><line class="a" x1="15.75" y1="13.5" x2="11.25" y2="18"/><line class="a" x1="21.75" y1="10.5" x2="18.75" y2="13.5"/><line class="a" x1="21.75" y1="15.75" x2="18.75" y2="18.75"/></svg>