<svg xmlns="http://www.w3.org/2000/svg" viewBox="0 0 24 24"><defs><style>.a{fill:none;stroke:currentColor;stroke-linecap:round;stroke-linejoin:round;stroke-width:1.5px;}</style></defs><title>hardware-nuts</title><path class="a" d="M11.644,14.25H5.75A1.5,1.5,0,0,1,4.5,13.582L1,8.332A1.5,1.5,0,0,1,1,6.668l3.5-5.25A1.5,1.5,0,0,1,5.75.75h5.894a1.5,1.5,0,0,1,1.248.668l3.5,5.25a1.5,1.5,0,0,1,0,1.664l-3.5,5.25A1.5,1.5,0,0,1,11.644,14.25Z"/><circle class="a" cx="8.697" cy="7.5" r="2.25"/><path class="a" d="M18.25,9.75a1.5,1.5,0,0,1,1.248.668l3.5,5.25a1.5,1.5,0,0,1,0,1.664l-3.5,5.25a1.5,1.5,0,0,1-1.248.668H12.355a1.5,1.5,0,0,1-1.248-.668l-3.5-5.25"/><path class="a" d="M15.3,14.25a2.25,2.25,0,1,1-2.25,2.25"/></svg>