<svg xmlns="http://www.w3.org/2000/svg" viewBox="0 0 24 24"><defs><style>.a{fill:none;stroke:currentColor;stroke-linecap:round;stroke-linejoin:round;stroke-width:1.5px;}</style></defs><title>hardware-hammer-nail-hit</title><line class="a" x1="1.5" y1="9.75" x2="12" y2="9.75"/><line class="a" x1="12" y1="6.75" x2="1.5" y2="6.75"/><path class="a" d="M17.777,2.154,19.5,6.75v6a1.5,1.5,0,0,1-1.5,1.5H13.5a1.5,1.5,0,0,1-1.5-1.5v-6l1.723-4.6A2.166,2.166,0,0,1,15.75.75h0A2.166,2.166,0,0,1,17.777,2.154Z"/><line class="a" x1="13.5" y1="18.75" x2="18" y2="18.75"/><line class="a" x1="15.75" y1="18.75" x2="15.75" y2="23.25"/><line class="a" x1="21" y1="17.25" x2="22.5" y2="15.75"/><line class="a" x1="21" y1="20.25" x2="22.5" y2="21.75"/><line class="a" x1="10.5" y1="17.25" x2="9" y2="15.75"/><line class="a" x1="10.5" y1="20.25" x2="9" y2="21.75"/></svg>