<svg id="Regular" xmlns="http://www.w3.org/2000/svg" viewBox="0 0 24 24"><defs><style>.cls-1{fill:none;stroke:currentColor;stroke-linecap:round;stroke-linejoin:round;stroke-width:1.5px;}</style></defs><title>hat-retro</title><path class="cls-1" d="M12,9.75a24.692,24.692,0,0,1-6.091-.72A48.652,48.652,0,0,1,4.2,20.432a1.5,1.5,0,0,0,.989,1.861A23,23,0,0,0,12,23.25a23,23,0,0,0,6.811-.957,1.5,1.5,0,0,0,.989-1.861,48.652,48.652,0,0,1-1.709-11.4A24.692,24.692,0,0,1,12,9.75Z"/><ellipse class="cls-1" cx="12" cy="5.25" rx="11.25" ry="4.5"/><ellipse class="cls-1" cx="12" cy="5.25" rx="6" ry="1.5"/><path class="cls-1" d="M5.558,13.4A23.4,23.4,0,0,0,12,14.25a23.4,23.4,0,0,0,6.444-.847"/></svg>