<svg id="Regular" xmlns="http://www.w3.org/2000/svg" viewBox="0 0 24 24"><defs><style>.cls-1{fill:none;stroke:currentColor;stroke-linecap:round;stroke-linejoin:round;stroke-width:1.5px;}</style></defs><title>hat-architect</title><path class="cls-1" d="M18.752,12.3c2.732.958,4.5,2.483,4.5,4.2,0,2.9-5.037,5.25-11.25,5.25S.75,19.4.75,16.5c0-1.717,1.767-3.242,4.5-4.2"/><line class="cls-1" x1="14.25" y1="16.358" x2="14.25" y2="5.634"/><line class="cls-1" x1="9.75" y1="5.634" x2="9.75" y2="16.358"/><path class="cls-1" d="M18.75,12a6.75,6.75,0,0,0-13.5,0v3S7.5,16.5,12,16.5,18.75,15,18.75,15Z"/><path class="cls-1" d="M15.86,21.433A12.449,12.449,0,0,1,19,17.677a12.621,12.621,0,0,1,4.012-2.253"/><path class="cls-1" d="M9.75,5.634V4.5a2.25,2.25,0,0,1,4.5,0V5.634"/></svg>