<svg xmlns="http://www.w3.org/2000/svg" viewBox="0 0 24 24"><defs><style>.a{fill:none;stroke:currentColor;stroke-linecap:round;stroke-linejoin:round;stroke-width:1.5px;}</style></defs><title>head-idea</title><path class="a" d="M20.25,23.25a1.934,1.934,0,0,0-.75-1.572A11.239,11.239,0,0,0,12,19.321a11.239,11.239,0,0,0-7.5,2.357,1.934,1.934,0,0,0-.75,1.572"/><polyline class="a" points="10.5 23.071 12 19.321 13.5 23.071"/><path class="a" d="M18,6.75a6,6,0,0,0-12,0,5.846,5.846,0,0,0,3.429,5.493V15h5.142V12.243A5.846,5.846,0,0,0,18,6.75Z"/><line class="a" x1="12" y1="15" x2="12" y2="16.5"/><line class="a" x1="8.938" y1="12" x2="15.062" y2="12"/><line class="a" x1="12" y1="12" x2="12" y2="9"/><polyline class="a" points="14.25 6.75 12 9 9.75 6.75"/><line class="a" x1="21.75" y1="6.75" x2="23.25" y2="6.75"/><line class="a" x1="21.439" y1="10.189" x2="22.5" y2="11.25"/><line class="a" x1="21.439" y1="3.31" x2="22.5" y2="2.25"/><line class="a" x1="2.25" y1="6.75" x2="0.75" y2="6.75"/><line class="a" x1="2.561" y1="10.189" x2="1.5" y2="11.25"/><line class="a" x1="2.561" y1="3.31" x2="1.5" y2="2.25"/></svg>