<svg xmlns="http://www.w3.org/2000/svg" viewBox="0 0 24 24"><defs><style>.a{fill:none;stroke:currentColor;stroke-linecap:round;stroke-linejoin:round;stroke-width:1.5px;}</style></defs><title>heater</title><path class="a" d="M9.88.75a3,3,0,0,0,0,4.243,3,3,0,0,1,0,4.242"/><path class="a" d="M13.887.75a3,3,0,0,0,0,4.243,3,3,0,0,1,0,4.242"/><path class="a" d="M17.894.75a3,3,0,0,0,0,4.243,3,3,0,0,1,0,4.242"/><line class="a" x1="18.75" y1="18.75" x2="18.75" y2="12.75"/><line class="a" x1="12.75" y1="18.75" x2="12.75" y2="12.75"/><line class="a" x1="15.75" y1="18.75" x2="15.75" y2="12.75"/><line class="a" x1="9.75" y1="18.75" x2="9.75" y2="12.75"/><path class="a" d="M4.875,9A.375.375,0,1,1,4.5,8.625.375.375,0,0,1,4.875,9"/><path class="a" d="M4.875,13.5a.375.375,0,1,1-.375-.375.375.375,0,0,1,.375.375"/><line class="a" x1="3.75" y1="21.75" x2="3.75" y2="23.25"/><line class="a" x1="20.25" y1="21.75" x2="20.25" y2="23.25"/><path class="a" d="M5.25,5.25h-3a1.5,1.5,0,0,0-1.5,1.5v13.5a1.5,1.5,0,0,0,1.5,1.5h19.5a1.5,1.5,0,0,0,1.5-1.5V6.75a1.5,1.5,0,0,0-1.5-1.5"/></svg>