<svg xmlns="http://www.w3.org/2000/svg" viewBox="0 0 24 24"><defs><style>.a{fill:none;stroke:currentColor;stroke-linecap:round;stroke-linejoin:round;stroke-width:1.5px;}</style></defs><title>heater-1</title><path class="a" d="M17.25.75H6.75a3,3,0,0,0-3,3V8.107A19.737,19.737,0,0,0,12,9.75a19.737,19.737,0,0,0,8.25-1.643V3.75A3,3,0,0,0,17.25.75Z"/><path class="a" d="M5.75.75h12.5a2,2,0,0,1,2,2v18a1,1,0,0,1-1,1H4.75a1,1,0,0,1-1-1v-18A2,2,0,0,1,5.75.75Z"/><line class="a" x1="7.5" y1="3.75" x2="16.5" y2="3.75"/><line class="a" x1="8.25" y1="6.75" x2="15.75" y2="6.75"/><line class="a" x1="5.25" y1="21.75" x2="5.25" y2="23.25"/><line class="a" x1="18.75" y1="21.75" x2="18.75" y2="23.25"/><line class="a" x1="6.75" y1="9.147" x2="6.75" y2="21.75"/><line class="a" x1="17.25" y1="9.147" x2="17.25" y2="21.75"/></svg>