<svg xmlns="http://www.w3.org/2000/svg" viewBox="0 0 24 24"><defs><style>.a{fill:none;stroke:currentColor;stroke-linecap:round;stroke-linejoin:round;stroke-width:1.5px;}</style></defs><title>heavy-equipment-cleaner</title><path class="a" d="M4.588,20.25h4.5a0,0,0,0,1,0,0v2a1,1,0,0,1-1,1h-2.5a1,1,0,0,1-1-1v-2A0,0,0,0,1,4.588,20.25Z"/><path class="a" d="M15.088,20.25h4.5a0,0,0,0,1,0,0v2a1,1,0,0,1-1,1h-2.5a1,1,0,0,1-1-1v-2A0,0,0,0,1,15.088,20.25Z"/><path class="a" d="M21.937,18.321A1.5,1.5,0,0,1,20.5,20.25H3.676a1.5,1.5,0,0,1-1.438-1.929,24.124,24.124,0,0,0,1-8.479,1.5,1.5,0,0,1,1.5-1.592H19.441a1.5,1.5,0,0,1,1.5,1.592A24.147,24.147,0,0,0,21.937,18.321Z"/><line class="a" x1="6.088" y1="8.25" x2="6.088" y2="4.5"/><line class="a" x1="18.088" y1="8.25" x2="18.088" y2="4.5"/><line class="a" x1="6.088" y1="1.5" x2="6.088" y2="0.75"/><line class="a" x1="18.088" y1="1.5" x2="18.088" y2="0.75"/><path class="a" d="M15.838,8.25h-7.5L8.9,2.038A1.5,1.5,0,0,1,10.389.75h3.4a1.5,1.5,0,0,1,1.485,1.288Z"/><line class="a" x1="12.088" y1="12.75" x2="12.088" y2="15.75"/><line class="a" x1="16.588" y1="12.75" x2="17.338" y2="15.75"/><line class="a" x1="7.588" y1="12.75" x2="6.838" y2="15.75"/><path class="a" d="M8.68,4.557a8.729,8.729,0,0,0,6.81,0"/></svg>