<svg xmlns="http://www.w3.org/2000/svg" viewBox="0 0 24 24"><defs><style>.a{fill:none;stroke:currentColor;stroke-linecap:round;stroke-linejoin:round;stroke-width:1.5px;}</style></defs><title>heavy-equipment-lift </title><rect class="a" x="8.25" y="17.25" width="15" height="6" rx="2" ry="2"/><path class="a" d="M12,19.875a.375.375,0,0,1,.375.375"/><path class="a" d="M11.625,20.25A.375.375,0,0,1,12,19.875"/><path class="a" d="M12,20.625a.375.375,0,0,1-.375-.375"/><path class="a" d="M12.375,20.25a.375.375,0,0,1-.375.375"/><path class="a" d="M15.75,19.875a.375.375,0,0,1,.375.375"/><path class="a" d="M15.375,20.25a.375.375,0,0,1,.375-.375"/><path class="a" d="M15.75,20.625a.375.375,0,0,1-.375-.375"/><path class="a" d="M16.125,20.25a.375.375,0,0,1-.375.375"/><path class="a" d="M19.5,19.875a.375.375,0,0,1,.375.375"/><path class="a" d="M19.125,20.25a.375.375,0,0,1,.375-.375"/><path class="a" d="M19.5,20.625a.375.375,0,0,1-.375-.375"/><path class="a" d="M19.875,20.25a.375.375,0,0,1-.375.375"/><path class="a" d="M21.75,17.314V12.75a1.5,1.5,0,0,0-1.5-1.5h-1.5a1.5,1.5,0,0,1-1.5-1.5V8.25a1.5,1.5,0,0,0-1.5-1.5h-4.5a1.5,1.5,0,0,0-1.5,1.5V17"/><line class="a" x1="3.75" y1="5.987" x2="3.75" y2="11.25"/><circle class="a" cx="3.75" cy="14.25" r="3"/><path class="a" d="M7.3,9.35,1.274,3.643a1.675,1.675,0,0,1-.185-2.227h0A1.675,1.675,0,0,1,3.283.986L12.975,6.75"/><path class="a" d="M17.383,10.367l-1.944,1.944a1.5,1.5,0,0,1-1.06.439H9.75"/></svg>