<svg xmlns="http://www.w3.org/2000/svg" viewBox="0 0 24 24"><defs><style>.a{fill:none;stroke:currentColor;stroke-linecap:round;stroke-linejoin:round;stroke-width:1.5px;}</style></defs><title>heavy-equipment-wood</title><path class="a" d="M8.25,15.628V7.25A.75.75,0,0,0,7.5,6.5H5.25A4.5,4.5,0,0,0,.75,11v6a1.5,1.5,0,0,0,1.5,1.5H3"/><path class="a" d="M.75,12.5h3A1.5,1.5,0,0,0,5.25,11V6.5"/><circle class="a" cx="7.5" cy="17.75" r="2.25"/><circle class="a" cx="19.5" cy="17.75" r="2.25"/><line class="a" x1="12" y1="18.5" x2="15" y2="18.5"/><line class="a" x1="11.25" y1="6.5" x2="23.25" y2="6.5"/><line class="a" x1="11.25" y1="9.5" x2="23.25" y2="9.5"/><line class="a" x1="8.25" y1="12.5" x2="21" y2="12.5"/><line class="a" x1="15" y1="3.5" x2="15" y2="12.5"/></svg>