<svg xmlns="http://www.w3.org/2000/svg" viewBox="0 0 24 24"><defs><style>.a,.b{fill:none;stroke:currentColor;stroke-linecap:round;stroke-linejoin:round;stroke-width:1.5px;}.b{fill-rule:evenodd;}</style></defs><title>heavy-equipment-flattener</title><circle class="a" cx="7.5" cy="17.25" r="5.25"/><circle class="a" cx="19.875" cy="19.125" r="3.375"/><path class="a" d="M19.875,19.5a.375.375,0,0,1-.375-.375"/><path class="a" d="M20.25,19.125a.375.375,0,0,1-.375.375"/><path class="a" d="M19.875,18.75a.375.375,0,0,1,.375.375"/><path class="a" d="M19.5,19.125a.375.375,0,0,1,.375-.375"/><path class="b" d="M21,9.75V3a1.5,1.5,0,0,0-1.5-1.5H13.273a1.5,1.5,0,0,0-1.414,1L8.453,12.087"/><path class="b" d="M9.283,9.75H21.75a1.5,1.5,0,0,1,1.5,1.5v7.875"/><line class="a" x1="15.75" y1="1.5" x2="15.75" y2="9.75"/><line class="a" x1="0.75" y1="17.25" x2="14.25" y2="17.25"/></svg>