<svg xmlns="http://www.w3.org/2000/svg" viewBox="0 0 24 24"><defs><style>.a{fill:none;stroke:currentColor;stroke-linecap:round;stroke-linejoin:round;stroke-width:1.5px;}</style></defs><title>heavy-equipment-lift-2</title><rect class="a" x="8.25" y="17.25" width="15" height="6" rx="2" ry="2"/><path class="a" d="M12,19.875a.375.375,0,0,1,.375.375"/><path class="a" d="M11.625,20.25A.375.375,0,0,1,12,19.875"/><path class="a" d="M12,20.625a.375.375,0,0,1-.375-.375"/><path class="a" d="M12.375,20.25a.375.375,0,0,1-.375.375"/><path class="a" d="M15.75,19.875a.375.375,0,0,1,.375.375"/><path class="a" d="M15.375,20.25a.375.375,0,0,1,.375-.375"/><path class="a" d="M15.75,20.625a.375.375,0,0,1-.375-.375"/><path class="a" d="M16.125,20.25a.375.375,0,0,1-.375.375"/><path class="a" d="M19.5,19.875a.375.375,0,0,1,.375.375"/><path class="a" d="M19.125,20.25a.375.375,0,0,1,.375-.375"/><path class="a" d="M19.5,20.625a.375.375,0,0,1-.375-.375"/><path class="a" d="M19.875,20.25a.375.375,0,0,1-.375.375"/><path class="a" d="M21.75,17V12.75a1.5,1.5,0,0,0-1.5-1.5h-1.5a1.5,1.5,0,0,1-1.5-1.5V8.25a1.5,1.5,0,0,0-1.5-1.5h-4.5a1.5,1.5,0,0,0-1.5,1.5V17"/><path class="a" d="M7.1,11.081,1.359,4.708a2.371,2.371,0,0,1,.086-3.263h0a2.371,2.371,0,0,1,3.263-.086l6.073,5.466"/><path class="a" d="M6,15.75a.75.75,0,0,1,.75.75,3.009,3.009,0,0,1-3,3h0a3.009,3.009,0,0,1-3-3v-.75Z"/><line class="a" x1="0.75" y1="3.194" x2="0.75" y2="15.75"/><line class="a" x1="4.505" y1="8.203" x2="3.75" y2="15.75"/><path class="a" d="M9.75,12.75h3.879a1.5,1.5,0,0,0,1.06-.439L17.25,9.75"/></svg>