<svg xmlns="http://www.w3.org/2000/svg" viewBox="0 0 24 24"><defs><style>.a{fill:none;stroke:currentColor;stroke-linecap:round;stroke-linejoin:round;stroke-width:1.5px;}</style></defs><title>heavy-equipment-truck</title><path class="a" d="M23.25,18v-.75a1.5,1.5,0,0,0-1.5-1.5H8.25V10.5a.75.75,0,0,0-.75-.75H5.25a4.5,4.5,0,0,0-4.5,4.5v6a1.5,1.5,0,0,0,1.5,1.5H3"/><circle class="a" cx="7.5" cy="21" r="2.25"/><circle class="a" cx="19.5" cy="21" r="2.25"/><line class="a" x1="12" y1="21.75" x2="15" y2="21.75"/><path class="a" d="M12.187,3.492l9.441,2.437a1.5,1.5,0,0,1,1.077,1.827l-1.312,5.083L11.952,10.4a1.5,1.5,0,0,1-1.077-1.828L12.75,1.313,10.571.75"/><line class="a" x1="15.202" y1="6.686" x2="14.798" y2="8.25"/><line class="a" x1="19.046" y1="7.811" x2="18.642" y2="9.375"/><line class="a" x1="17.334" y1="11.791" x2="15.75" y2="15.75"/><line class="a" x1="21.393" y1="12.839" x2="21.75" y2="15.75"/><line class="a" x1="8.25" y1="14.25" x2="0.75" y2="14.25"/></svg>