<svg xmlns="http://www.w3.org/2000/svg" viewBox="0 0 24 24"><defs><style>.a{fill:none;stroke:currentColor;stroke-linecap:round;stroke-linejoin:round;stroke-width:1.5px;}</style></defs><title>heavy-equipment-cleaner-1</title><rect class="a" x="8.25" y="17.25" width="15" height="6" rx="2" ry="2"/><path class="a" d="M12,19.875a.375.375,0,0,1,.375.375"/><path class="a" d="M11.625,20.25A.375.375,0,0,1,12,19.875"/><path class="a" d="M12,20.625a.375.375,0,0,1-.375-.375"/><path class="a" d="M12.375,20.25a.375.375,0,0,1-.375.375"/><path class="a" d="M15.75,19.875a.375.375,0,0,1,.375.375"/><path class="a" d="M15.375,20.25a.375.375,0,0,1,.375-.375"/><path class="a" d="M15.75,20.625a.375.375,0,0,1-.375-.375"/><path class="a" d="M16.125,20.25a.375.375,0,0,1-.375.375"/><path class="a" d="M19.5,19.875a.375.375,0,0,1,.375.375"/><path class="a" d="M19.125,20.25a.375.375,0,0,1,.375-.375"/><path class="a" d="M19.5,20.625a.375.375,0,0,1-.375-.375"/><path class="a" d="M19.875,20.25a.375.375,0,0,1-.375.375"/><path class="a" d="M6.75,15.75a1.5,1.5,0,0,0,1.5,1.5h13.5a1.5,1.5,0,0,0,1.5-1.5V2.25a1.5,1.5,0,0,0-1.5-1.5H16.116a1.5,1.5,0,0,0-1.437,1.069L13.071,7.181A1.5,1.5,0,0,1,11.634,8.25H9.75a1.5,1.5,0,0,0-1.5,1.5Z"/><line class="a" x1="9.75" y1="11.25" x2="14.25" y2="11.25"/><line class="a" x1="2.25" y1="11.25" x2="7.5" y2="11.25"/><line class="a" x1="2.25" y1="14.25" x2="6.75" y2="14.25"/><line class="a" x1="9.75" y1="14.25" x2="14.25" y2="14.25"/><path class="a" d="M.828,5.527l.822.524a1.5,1.5,0,0,1,.6,1.2V18.5a1.5,1.5,0,0,1-.6,1.2l-.863.549"/><line class="a" x1="11.634" y1="8.25" x2="22.5" y2="8.25"/></svg>