<svg xmlns="http://www.w3.org/2000/svg" viewBox="0 0 24 24"><defs><style>.a{fill:none;stroke:currentColor;stroke-linecap:round;stroke-linejoin:round;stroke-width:1.5px;}</style></defs><title>heavy-equipment-lift-hook</title><path class="a" d="M20.25,23.25h-9a3.009,3.009,0,0,1-3-3h0a3.009,3.009,0,0,1,3-3h9a3.009,3.009,0,0,1,3,3h0A3.009,3.009,0,0,1,20.25,23.25Z"/><path class="a" d="M12,19.875a.375.375,0,0,1,.375.375"/><path class="a" d="M11.625,20.25A.375.375,0,0,1,12,19.875"/><path class="a" d="M12,20.625a.375.375,0,0,1-.375-.375"/><path class="a" d="M12.375,20.25a.375.375,0,0,1-.375.375"/><path class="a" d="M15.75,19.875a.375.375,0,0,1,.375.375"/><path class="a" d="M15.375,20.25a.375.375,0,0,1,.375-.375"/><path class="a" d="M15.75,20.625a.375.375,0,0,1-.375-.375"/><path class="a" d="M16.125,20.25a.375.375,0,0,1-.375.375"/><path class="a" d="M19.5,19.875a.375.375,0,0,1,.375.375"/><path class="a" d="M19.125,20.25a.375.375,0,0,1,.375-.375"/><path class="a" d="M19.5,20.625a.375.375,0,0,1-.375-.375"/><path class="a" d="M19.875,20.25a.375.375,0,0,1-.375.375"/><path class="a" d="M21.75,17.655V12.75a1.5,1.5,0,0,0-1.5-1.5h-1.5a1.5,1.5,0,0,1-1.5-1.5V8.25a1.5,1.5,0,0,0-1.5-1.5h-4.5a1.5,1.5,0,0,0-1.5,1.5v9.405"/><line class="a" x1="12.75" y1="9.75" x2="14.25" y2="9.75"/><path class="a" d="M9.75,11.523,1.274,3.643a1.675,1.675,0,0,1-.185-2.227h0A1.675,1.675,0,0,1,3.283.986l9.9,5.745"/><path class="a" d="M5.25,15A2.25,2.25,0,1,1,3,12.75"/><line class="a" x1="3" y1="12.75" x2="3" y2="5.277"/></svg>