<svg xmlns="http://www.w3.org/2000/svg" viewBox="0 0 24 24"><defs><style>.a{fill:none;stroke:currentColor;stroke-linecap:round;stroke-linejoin:round;stroke-width:1.5px;}</style></defs><title>heavy-equipment-mortar-truck</title><circle class="a" cx="5.445" cy="18.75" r="2.25"/><circle class="a" cx="18.945" cy="18.75" r="2.25"/><path class="a" d="M3.327,19.5H2.445A1.5,1.5,0,0,1,.945,18V13.553a1.5,1.5,0,0,1,.668-1.248l1.3-.868a1.5,1.5,0,0,0,.454-.476l1.64-2.733A1.5,1.5,0,0,1,6.3,7.5H8.346a1.5,1.5,0,0,1,1.286.728L13.7,15"/><line class="a" x1="12.146" y1="4.413" x2="17.352" y2="13.594"/><line class="a" x1="15.945" y1="4.5" x2="20.644" y2="12.331"/><line class="a" x1="7.567" y1="19.5" x2="16.824" y2="19.5"/><path class="a" d="M6.945,3H9.491a1.5,1.5,0,0,1,.832.252l1.495,1a1.5,1.5,0,0,0,.832.252h6.163a1.5,1.5,0,0,1,1.311.772l2.937,5.286a1.5,1.5,0,0,1,.031,1.4l-2.586,5.171"/><path class="a" d="M9.988,16.392c2.065-.743,13.261-5.066,13.261-5.066"/><line class="a" x1="2.07" y1="12" x2="11.895" y2="12"/></svg>