<svg xmlns="http://www.w3.org/2000/svg" viewBox="0 0 24 24"><defs><style>.a,.b{fill:none;stroke:currentColor;stroke-linecap:round;stroke-linejoin:round;stroke-width:1.5px;}.b{fill-rule:evenodd;}</style></defs><title>heavy-equipment-tractor</title><circle class="a" cx="18" cy="18" r="5.25"/><circle class="a" cx="18" cy="18" r="2.25"/><circle class="a" cx="4.125" cy="19.875" r="3.375"/><path class="a" d="M4.125,20.25a.375.375,0,0,1-.375-.375"/><path class="a" d="M4.5,19.875a.375.375,0,0,1-.375.375"/><path class="a" d="M4.125,19.5a.375.375,0,0,1,.375.375"/><path class="a" d="M3.75,19.875a.375.375,0,0,1,.375-.375"/><line class="a" x1="7.479" y1="20.25" x2="13.255" y2="20.25"/><path class="b" d="M23.25,18V5.25a1.5,1.5,0,0,0-1.5-1.5H15.5a1.5,1.5,0,0,0-1.476,1.232l-.643,3.536A1.5,1.5,0,0,1,11.907,9.75H5.25a3,3,0,0,0-3,3v4.32"/><path class="b" d="M3.75.75h1.5a1.5,1.5,0,0,1,1.5,1.5v1.5"/><line class="a" x1="16.5" y1="8.25" x2="20.25" y2="8.25"/><path class="a" d="M5.75,3.75h2a.5.5,0,0,1,.5.5v5.5a0,0,0,0,1,0,0h-3a0,0,0,0,1,0,0V4.25A.5.5,0,0,1,5.75,3.75Z"/></svg>