<svg xmlns="http://www.w3.org/2000/svg" viewBox="0 0 24 24"><defs><style>.a{fill:none;stroke:currentColor;stroke-linecap:round;stroke-linejoin:round;stroke-width:1.5px;}</style></defs><title>heavy-equipment-excavator-1</title><line class="a" x1="3" y1="5.155" x2="3" y2="23.25"/><line class="a" x1="0.75" y1="10.5" x2="5.25" y2="12.75"/><line class="a" x1="0.75" y1="14.25" x2="5.25" y2="16.5"/><line class="a" x1="0.75" y1="18" x2="5.25" y2="20.25"/><path class="a" d="M8.886,10.308,1.274,3.643a1.675,1.675,0,0,1-.185-2.227h0A1.675,1.675,0,0,1,3.283.986L13.758,7.559"/><line class="a" x1="14.229" y1="20.25" x2="16.521" y2="20.25"/><path class="a" d="M9.75,16.5v-3a1.5,1.5,0,0,1,1.5-1.5h10.5a1.5,1.5,0,0,1,1.5,1.5v6.375"/><path class="a" d="M12.75,12l1.259-5.544A1.5,1.5,0,0,1,15.48,5.25h3.27a1.5,1.5,0,0,1,1.5,1.5V12"/><circle class="a" cx="10.875" cy="19.875" r="3.375"/><path class="a" d="M10.875,20.25a.375.375,0,0,1-.375-.375"/><path class="a" d="M11.25,19.875a.375.375,0,0,1-.375.375"/><path class="a" d="M10.875,19.5a.375.375,0,0,1,.375.375"/><path class="a" d="M10.5,19.875a.375.375,0,0,1,.375-.375"/><circle class="a" cx="19.875" cy="19.875" r="3.375"/><path class="a" d="M19.875,20.25a.375.375,0,0,1-.375-.375"/><path class="a" d="M20.25,19.875a.375.375,0,0,1-.375.375"/><path class="a" d="M19.875,19.5a.375.375,0,0,1,.375.375"/><path class="a" d="M19.5,19.875a.375.375,0,0,1,.375-.375"/></svg>