<svg id="Regular" xmlns="http://www.w3.org/2000/svg" viewBox="0 0 24 24"><defs><style>.cls-1{fill:none;stroke:currentColor;stroke-linecap:round;stroke-linejoin:round;stroke-width:1.5px;}</style></defs><title>hedgehog</title><path class="cls-1" d="M14.251,14.25c1.5,2.25,6.75,2.25,9-.75,0-5.25-12-9-12-9"/><path class="cls-1" d="M19.509,15.748,16.5,16.5a26.612,26.612,0,0,1-5.25.75A26.612,26.612,0,0,1,6,16.5l-.75,3"/><line class="cls-1" x1="19.501" y1="15.716" x2="19.501" y2="19.5"/><line class="cls-1" x1="9.001" y1="17.071" x2="9.001" y2="19.5"/><line class="cls-1" x1="12.751" y1="8.25" x2="4.501" y2="5.25"/><line class="cls-1" x1="8.251" y1="9.75" x2="1.501" y2="9"/><line class="cls-1" x1="5.251" y1="12" x2="0.751" y2="12.75"/><line class="cls-1" x1="3.751" y1="15" x2="1.501" y2="16.5"/><path class="cls-1" d="M18.376,11.25a.375.375,0,0,0-.375.375"/><path class="cls-1" d="M18.751,11.625a.375.375,0,0,0-.375-.375"/><path class="cls-1" d="M18.376,12a.375.375,0,0,0,.375-.375"/><path class="cls-1" d="M18,11.625a.375.375,0,0,0,.375.375"/><line class="cls-1" x1="16.501" y1="19.5" x2="16.501" y2="16.5"/></svg>