<svg id="Regular" xmlns="http://www.w3.org/2000/svg" viewBox="0 0 24 24"><defs><style>.cls-1{fill:none;stroke:currentColor;stroke-linecap:round;stroke-linejoin:round;stroke-width:1.5px;}</style></defs><title>hippo-body</title><path class="cls-1" d="M23.25,21.25v-6s.141-5.578-2.4-6.8a7.606,7.606,0,0,0-5.75.05s.75-3-1.5-3.75a3.768,3.768,0,0,0-3.75.75,4.36,4.36,0,0,0-4.5-3,4.36,4.36,0,0,0-4.5,3l6,3c1.5.75,2.25,4.5-.75,4.5H.854a3.035,3.035,0,0,0,3.083,3c3,0,4.5.75,4.5,3v2.25"/><path class="cls-1" d="M12.479,7a.375.375,0,0,1,.375.375"/><path class="cls-1" d="M12.1,7.375A.374.374,0,0,1,12.479,7"/><path class="cls-1" d="M12.479,7.75a.374.374,0,0,1-.375-.375"/><path class="cls-1" d="M12.854,7.375a.375.375,0,0,1-.375.375"/><line class="cls-1" x1="2.354" y1="13" x2="2.354" y2="11.5"/><line class="cls-1" x1="2.354" y1="6.25" x2="1.604" y2="7.75"/><line class="cls-1" x1="5.354" y1="4.75" x2="6.104" y2="4.75"/><path class="cls-1" d="M11.437,21.25V17.5a16.349,16.349,0,0,0,4.5.75,16.349,16.349,0,0,0,4.5-.75v3.75"/></svg>