<svg xmlns="http://www.w3.org/2000/svg" viewBox="0 0 24 24"><defs><style>.a{fill:none;stroke:currentColor;stroke-linecap:round;stroke-linejoin:round;stroke-width:1.5px;}</style></defs><title>history-seat</title><line class="a" x1="7.5" y1="17.625" x2="6" y2="21.375"/><path class="a" d="M19.5,13.875a1.5,1.5,0,0,0,1.5-1.5v-6h.375a1.875,1.875,0,0,0,0-3.75A3.2,3.2,0,0,0,18.235,5.2L16.5,17.625h-9L5.765,5.2a3.2,3.2,0,0,0-3.14-2.574,1.875,1.875,0,0,0,0,3.75H3v6a1.5,1.5,0,0,0,1.5,1.5"/><line class="a" x1="16.5" y1="17.625" x2="18" y2="21.375"/><line class="a" x1="17.757" y1="8.625" x2="6.243" y2="8.625"/></svg>