<svg xmlns="http://www.w3.org/2000/svg" viewBox="0 0 24 24"><defs><style>.a{fill:none;stroke:currentColor;stroke-linecap:round;stroke-linejoin:round;stroke-width:1.5px;}</style></defs><title>history-geisha-1</title><path class="a" d="M14.625,15.75a.375.375,0,0,1,.375.375"/><path class="a" d="M14.25,16.125a.375.375,0,0,1,.375-.375"/><path class="a" d="M14.625,16.5a.375.375,0,0,1-.375-.375"/><path class="a" d="M15,16.125a.375.375,0,0,1-.375.375"/><path class="a" d="M9.375,15.75a.375.375,0,0,1,.375.375"/><path class="a" d="M9,16.125a.375.375,0,0,1,.375-.375"/><path class="a" d="M9.375,16.5A.375.375,0,0,1,9,16.125"/><path class="a" d="M9.75,16.125a.375.375,0,0,1-.375.375"/><path class="a" d="M15.715,10.891a.751.751,0,0,0-1.075.272,2.989,2.989,0,0,1-5.28,0,.752.752,0,0,0-1.075-.272,6.75,6.75,0,1,0,7.43,0Z"/><path class="a" d="M15.658,4.405A9.039,9.039,0,0,1,21.75,12.75a8.788,8.788,0,0,1-3.981,7.256"/><path class="a" d="M15.75,3.75A2.25,2.25,0,0,1,13.5,6h-3a2.25,2.25,0,0,1,0-4.5h3A2.25,2.25,0,0,1,15.75,3.75Z"/><path class="a" d="M6.231,20.006A8.788,8.788,0,0,1,2.25,12.75,9.039,9.039,0,0,1,8.347,4.4"/><polyline class="a" points="18.75 0.75 15.75 3.75 19.5 3.75"/><polyline class="a" points="5.25 0.75 8.25 3.75 4.5 3.75"/></svg>