<svg xmlns="http://www.w3.org/2000/svg" viewBox="0 0 24 24"><defs><style>.a{fill:none;stroke:currentColor;stroke-linecap:round;stroke-linejoin:round;stroke-width:1.5px;}</style></defs><title>history-chinese-lantern-1</title><rect class="a" x="0.75" y="7.125" width="10.5" height="13.5" rx="2" ry="2"/><line class="a" x1="11.25" y1="10.875" x2="0.75" y2="10.875"/><line class="a" x1="11.25" y1="16.875" x2="0.75" y2="16.875"/><line class="a" x1="3" y1="20.625" x2="3" y2="22.875"/><line class="a" x1="6" y1="20.625" x2="6" y2="22.875"/><line class="a" x1="9" y1="20.625" x2="9" y2="22.875"/><path class="a" d="M3.75,7.125V4.875a.75.75,0,0,1,.75-.75h3a.75.75,0,0,1,.75.75v2.25"/><line class="a" x1="6" y1="1.125" x2="6" y2="4.125"/><rect class="a" x="14.25" y="3.375" width="9" height="11.25" rx="1.5" ry="1.5"/><line class="a" x1="18.75" y1="3.375" x2="18.75" y2="1.125"/><line class="a" x1="15.75" y1="14.625" x2="15.75" y2="16.875"/><line class="a" x1="18.75" y1="14.625" x2="18.75" y2="16.875"/><line class="a" x1="21.75" y1="14.625" x2="21.75" y2="16.875"/><line class="a" x1="14.25" y1="7.125" x2="23.25" y2="7.125"/><line class="a" x1="14.25" y1="10.875" x2="23.25" y2="10.875"/></svg>