<svg xmlns="http://www.w3.org/2000/svg" viewBox="0 0 24 24"><defs><style>.a{fill:none;stroke:currentColor;stroke-linecap:round;stroke-linejoin:round;stroke-width:1.5px;}</style></defs><title>history-man-caveman</title><path class="a" d="M7.477,6.335A8.714,8.714,0,0,0,13.751,9,8.725,8.725,0,0,0,17.2,8.29"/><path class="a" d="M17.25,9v5.25a5.25,5.25,0,0,1-10.5,0V9a5.25,5.25,0,1,1,10.5,0Z"/><path class="a" d="M20.65,23.25A9.781,9.781,0,0,0,15.085,18.5"/><path class="a" d="M8.915,18.5A9.781,9.781,0,0,0,3.35,23.25"/><polyline class="a" points="9.75 0.75 12.001 3.75 14.25 0.75"/><path class="a" d="M13.5,13.411c2.171-.282,3.754-1.282,3.754-3.661"/><path class="a" d="M6.751,9.75c0,2.379,1.582,3.378,3.752,3.661"/><path class="a" d="M10.5,12v2.25a1.5,1.5,0,0,0,3,0V12"/></svg>