<svg xmlns="http://www.w3.org/2000/svg" viewBox="0 0 24 24"><defs><style>.a{fill:none;stroke:currentColor;stroke-linecap:round;stroke-linejoin:round;stroke-width:1.5px;}</style></defs><title>history-eye-mythology</title><circle class="a" cx="15.757" cy="10.5" r="1.5"/><path class="a" d="M22.128,10.257a.452.452,0,0,1,0,.487,7.542,7.542,0,0,1-12.742,0,.452.452,0,0,1,0-.487,7.54,7.54,0,0,1,12.742,0Z"/><path class="a" d="M23.25,6.75A10.664,10.664,0,0,0,15.43,3,10.663,10.663,0,0,0,7.611,6.75H.769"/><path class="a" d="M9.315,10.5H.769"/><line class="a" x1="18.75" y1="13.642" x2="18.75" y2="21"/><path class="a" d="M15.861,14.249l-1.169,1.818A10.743,10.743,0,0,1,5.656,21H5.25a2.25,2.25,0,0,1,0-4.5H6.882"/></svg>