<svg xmlns="http://www.w3.org/2000/svg" viewBox="0 0 24 24"><defs><style>.a{fill:none;stroke:currentColor;stroke-linecap:round;stroke-linejoin:round;stroke-width:1.5px;}</style></defs><title>history-caveman-symbols</title><line class="a" x1="2.25" y1="0.75" x2="2.25" y2="23.25"/><line class="a" x1="2.25" y1="6.75" x2="6.75" y2="2.25"/><line class="a" x1="2.25" y1="12" x2="6.75" y2="7.5"/><path class="a" d="M14.25,11.25V2.075a.75.75,0,0,1,1.136-.643l6,3.6a.748.748,0,0,1,.364.643V11.25"/><path class="a" d="M6.75,23.25l6.22-6.22a.749.749,0,0,0,0-1.06l-2.69-2.69a.749.749,0,0,0-1.06,0L6.53,15.97a.749.749,0,0,0,0,1.06l6.22,6.22"/></svg>