<svg xmlns="http://www.w3.org/2000/svg" viewBox="0 0 24 24"><defs><style>.a{fill:none;stroke:currentColor;stroke-linecap:round;stroke-linejoin:round;stroke-width:1.5px;}</style></defs><title>history-sphinx</title><path class="a" d="M6.384,2.25A11.244,11.244,0,0,0,.75,12v2.75a3,3,0,0,0,.6,1.8l1.05,1.4a3,3,0,0,1,.6,1.8v.5a3,3,0,0,0,3,3H7.5v-6"/><path class="a" d="M16.5,17.25v6H18a3,3,0,0,0,3-3v-.5a3,3,0,0,1,.6-1.8l1.05-1.4a3,3,0,0,0,.6-1.8V12a11.244,11.244,0,0,0-5.634-9.75"/><path class="a" d="M6,6.75a7.5,7.5,0,1,0,12,0Z"/><path class="a" d="M10.5,6.75l-1-2.5A2.549,2.549,0,0,1,11.864.75h.272a2.549,2.549,0,0,1,2.366,3.5l-1,2.505"/><polyline class="a" points="10.474 18.595 11.25 23.25 12.75 23.25 13.526 18.595"/><path class="a" d="M10.5,10.5A1.631,1.631,0,0,0,9,9.75a1.631,1.631,0,0,0-1.5.75H6.75"/><path class="a" d="M13.5,10.5A1.631,1.631,0,0,1,15,9.75a1.631,1.631,0,0,1,1.5.75h.75"/><line class="a" x1="6" y1="6.75" x2="4.453" y2="3.657"/><line class="a" x1="18" y1="6.75" x2="19.547" y2="3.657"/></svg>