<svg xmlns="http://www.w3.org/2000/svg" viewBox="0 0 24 24"><defs><style>.a{fill:none;stroke:currentColor;stroke-linecap:round;stroke-linejoin:round;stroke-width:1.5px;}</style></defs><title>history-man-napoleon</title><path class="a" d="M8.25,18.34v.751a3.75,3.75,0,0,0,7.5,0V18.34"/><path class="a" d="M6.8,10.841a5.25,5.25,0,0,0,10.392,0"/><line class="a" x1="8.25" y1="18.341" x2="8.25" y2="23.25"/><line class="a" x1="15.75" y1="18.341" x2="15.75" y2="23.25"/><path class="a" d="M16.909,4.023C16.01,3.008,15.273.75,12,.75S7.99,3.008,7.091,4.023C4.567,4.227,3,6.356,3,8.932H21C21,6.356,19.433,4.227,16.909,4.023Z"/><path class="a" d="M8.715,14.186A2.25,2.25,0,0,1,4.671,12.23H4.506a1.1,1.1,0,0,1-.874-.432"/><path class="a" d="M15.327,14.186a2.25,2.25,0,0,0,4.044-1.956h.165a1.1,1.1,0,0,0,.874-.432"/><path class="a" d="M20.853,23.25a9.754,9.754,0,0,0-17.706,0"/></svg>