<svg xmlns="http://www.w3.org/2000/svg" viewBox="0 0 24 24"><defs><style>.a{fill:none;stroke:currentColor;stroke-linecap:round;stroke-linejoin:round;stroke-width:1.5px;}</style></defs><title>history-sphinx-1</title><path class="a" d="M14.247,5.594,18.75.75l.675,2.363a6,6,0,0,1-.991,5.278l-.178.235"/><path class="a" d="M9.753,5.594,5.25.75,4.575,3.113a6,6,0,0,0,.991,5.278l.178.235"/><line class="a" x1="10.5" y1="20.25" x2="2.239" y2="20.25"/><line class="a" x1="13.5" y1="20.25" x2="21.761" y2="20.25"/><path class="a" d="M14.25,16.3a1,1,0,0,1,1-1H17a2.5,2.5,0,0,0,2.5-2.51,7.5,7.5,0,1,0-15,0A2.5,2.5,0,0,0,7,15.293H8.75a1,1,0,0,1,1,1V18a2.25,2.25,0,0,0,4.5,0Z"/><path class="a" d="M8.332,10.891a.375.375,0,0,1,.375.375"/><path class="a" d="M7.957,11.266a.374.374,0,0,1,.375-.375"/><path class="a" d="M8.332,11.641a.374.374,0,0,1-.375-.375"/><path class="a" d="M8.707,11.266a.375.375,0,0,1-.375.375"/><path class="a" d="M15.668,10.891a.375.375,0,0,0-.375.375"/><path class="a" d="M16.043,11.266a.374.374,0,0,0-.375-.375"/><path class="a" d="M15.668,11.641a.374.374,0,0,0,.375-.375"/><path class="a" d="M15.293,11.266a.375.375,0,0,0,.375.375"/><path class="a" d="M19.446,13.305l2.761,8.283a1.262,1.262,0,0,1-1.2,1.662H14.478a.978.978,0,0,1-.978-.978V19.677"/><path class="a" d="M4.554,13.305,1.793,21.588a1.262,1.262,0,0,0,1.2,1.662H9.522a.978.978,0,0,0,.978-.978V19.677"/></svg>