<svg xmlns="http://www.w3.org/2000/svg" viewBox="0 0 24 24"><defs><style>.a{fill:none;stroke:currentColor;stroke-linecap:round;stroke-linejoin:round;stroke-width:1.5px;}</style></defs><title>history-indian-feather</title><path class="a" d="M18.16,16.3l2.845-3A11.252,11.252,0,0,0,3,13.29L5.85,16.3"/><path class="a" d="M7.45,17.42a5.252,5.252,0,0,1,9.093-.012"/><path class="a" d="M5.1,15.513a8.252,8.252,0,0,1,13.8.005"/><path class="a" d="M13.841,8.941a7.251,7.251,0,0,0,.409-2.4V4.291c0-.827-1-2.214-1.663-3.05a.751.751,0,0,0-1.173,0c-.667.835-1.664,2.223-1.664,3.05v2.25a7.251,7.251,0,0,0,.409,2.4"/><path class="a" d="M17.763,10.379a5.551,5.551,0,0,0,.54-.995L18.964,7.8a4.824,4.824,0,0,0-.214-2.413.75.75,0,0,0-1.1-.457A4.847,4.847,0,0,0,15.79,6.474l-.661,1.587A5.584,5.584,0,0,0,14.8,9.143"/><path class="a" d="M20.821,13.058a5.252,5.252,0,0,0,.593-.525l1.1-1.137a4.237,4.237,0,0,0,.638-1.988.75.75,0,0,0-.869-.843,4.234,4.234,0,0,0-1.968.7l-1.1,1.136a5.23,5.23,0,0,0-.507.609"/><path class="a" d="M6.237,10.379a5.551,5.551,0,0,1-.54-.995L5.036,7.8A4.824,4.824,0,0,1,5.25,5.384a.751.751,0,0,1,1.1-.457A4.839,4.839,0,0,1,8.21,6.474l.661,1.587A5.584,5.584,0,0,1,9.2,9.143"/><path class="a" d="M3.179,13.058a5.252,5.252,0,0,1-.593-.525L1.484,11.4A4.237,4.237,0,0,1,.846,9.408a.75.75,0,0,1,.869-.843,4.234,4.234,0,0,1,1.968.7l1.1,1.136a5.23,5.23,0,0,1,.507.609"/><circle class="a" cx="6" cy="17.791" r="1.5"/><line class="a" x1="6" y1="23.041" x2="6" y2="19.291"/><circle class="a" cx="18" cy="17.791" r="1.5"/><line class="a" x1="18" y1="23.041" x2="18" y2="19.291"/></svg>