<svg xmlns="http://www.w3.org/2000/svg" viewBox="0 0 24 24"><defs><style>.a{fill:none;stroke:currentColor;stroke-linecap:round;stroke-linejoin:round;stroke-width:1.5px;}</style></defs><title>history-babushka</title><path class="a" d="M18.237,9.8a13.912,13.912,0,0,1-1.223-4.4,5.028,5.028,0,0,0-10.028,0A13.912,13.912,0,0,1,5.763,9.8,12.879,12.879,0,0,0,4.5,15.174a11.8,11.8,0,0,0,1.984,6.551A3.423,3.423,0,0,0,9.333,23.25h5.334a3.423,3.423,0,0,0,2.849-1.525A11.8,11.8,0,0,0,19.5,15.174,12.879,12.879,0,0,0,18.237,9.8Z"/><circle class="a" cx="12" cy="6" r="2.25"/><path class="a" d="M7.693,14.386C7.869,17.81,9.711,19.5,12,19.5s4.131-1.69,4.307-5.114"/><path class="a" d="M19.5,15A9.505,9.505,0,0,1,12,11.25,9.505,9.505,0,0,1,4.5,15"/></svg>