<svg xmlns="http://www.w3.org/2000/svg" viewBox="0 0 24 24"><defs><style>.a{fill:none;stroke:currentColor;stroke-linecap:round;stroke-linejoin:round;stroke-width:1.5px;}</style></defs><title>history-spiral</title><path class="a" d="M12.114,13.862S8.428,11.468,7.47,8.727a5.469,5.469,0,0,1,3.536-6.943A4.407,4.407,0,0,1,16.56,4.612,3.527,3.527,0,0,1,14.3,9.056a2.822,2.822,0,0,1-3.555-1.81A2.256,2.256,0,0,1,12.191,4.4"/><path class="a" d="M12.114,13.862s-.23,4.389-2.124,6.589a5.469,5.469,0,0,1-7.781.41,4.409,4.409,0,0,1-.328-6.225,3.527,3.527,0,0,1,4.98-.262,2.82,2.82,0,0,1,.21,3.983,2.256,2.256,0,0,1-3.187.168"/><path class="a" d="M12.114,13.862s3.917-2,6.769-1.455a5.468,5.468,0,0,1,4.245,6.533,4.406,4.406,0,0,1-5.226,3.4,3.525,3.525,0,0,1-2.717-4.181,2.82,2.82,0,0,1,3.345-2.173,2.257,2.257,0,0,1,1.739,2.676"/></svg>