<svg xmlns="http://www.w3.org/2000/svg" viewBox="0 0 24 24"><defs><style>.a{fill:none;stroke:currentColor;stroke-linecap:round;stroke-linejoin:round;stroke-width:1.5px;}</style></defs><title>history-man-aviator</title><path class="a" d="M2.25,23.25A9.756,9.756,0,0,1,9,13.97l3,2.53,3-2.53a9.754,9.754,0,0,1,6.751,9.28"/><path class="a" d="M17.654,15.306A9.71,9.71,0,0,0,15,13.97L12,16.5l4.5,3Z"/><path class="a" d="M12,16.5,9,13.97a9.726,9.726,0,0,0-2.653,1.336L7.5,19.5Z"/><circle class="a" cx="12" cy="6" r="5.25"/><path class="a" d="M12,6.75H6.8A5.153,5.153,0,0,1,6.75,6a5.228,5.228,0,0,1,.594-2.427C8.953,3.056,11.5,3.217,12,6.75Z"/><path class="a" d="M17.2,6.75H12c.505-3.533,3.047-3.694,4.656-3.177A5.228,5.228,0,0,1,17.25,6,5.153,5.153,0,0,1,17.2,6.75Z"/><line class="a" x1="6.75" y1="6" x2="6.75" y2="12"/><line class="a" x1="17.25" y1="6" x2="17.25" y2="12"/></svg>