<svg xmlns="http://www.w3.org/2000/svg" viewBox="0 0 24 24"><defs><style>.a{fill:none;stroke:currentColor;stroke-linecap:round;stroke-linejoin:round;stroke-width:1.5px;}</style></defs><title>history-piggy</title><path class="a" d="M16.125,10.5a.375.375,0,0,1,.375.375"/><path class="a" d="M15.75,10.875a.375.375,0,0,1,.375-.375"/><path class="a" d="M16.125,11.25a.375.375,0,0,1-.375-.375"/><path class="a" d="M16.5,10.875a.375.375,0,0,1-.375.375"/><path class="a" d="M7.875,10.5a.375.375,0,0,1,.375.375"/><path class="a" d="M7.5,10.875a.375.375,0,0,1,.375-.375"/><path class="a" d="M7.875,11.25a.375.375,0,0,1-.375-.375"/><path class="a" d="M8.25,10.875a.375.375,0,0,1-.375.375"/><path class="a" d="M21.252,10.416a9.763,9.763,0,0,1-4.009,11.306L15,21l-3,2.25L9,21l-2.243.722A9.763,9.763,0,0,1,2.748,10.416"/><line class="a" x1="11.25" y1="18.75" x2="12.75" y2="18.75"/><line class="a" x1="0.75" y1="7.5" x2="23.25" y2="7.5"/><path class="a" d="M18.75,7.5,17.561,1.838A1.5,1.5,0,0,0,16.119.75H7.881A1.5,1.5,0,0,0,6.439,1.838L5.25,7.5"/><path class="a" d="M14.25,15H9.75v-.75a2.25,2.25,0,0,1,4.5,0Z"/><line class="a" x1="10.5" y1="3" x2="13.5" y2="5.25"/><line class="a" x1="13.5" y1="3" x2="10.5" y2="5.25"/></svg>