<svg xmlns="http://www.w3.org/2000/svg" viewBox="0 0 24 24"><defs><style>.a{fill:none;stroke:currentColor;stroke-linecap:round;stroke-linejoin:round;stroke-width:1.5px;}</style></defs><title>history-spartan-helmet</title><path class="a" d="M4.542,15a7.5,7.5,0,0,1,15,0v4.35a1.5,1.5,0,0,1-1.205,1.471l-12,2.4A1.5,1.5,0,0,1,4.542,21.75v-3l5.043-1.261A1.263,1.263,0,0,0,9.279,15Z"/><line class="a" x1="10.371" y1="7.687" x2="6.145" y2="1.994"/><line class="a" x1="14.52" y1="7.919" x2="15.702" y2="1.647"/><line class="a" x1="18.633" y1="11.418" x2="22.26" y2="9.484"/><path class="a" d="M19.542,15v.75a1.5,1.5,0,1,0,3,0V12A11.251,11.251,0,0,0,1.681,6.15,1.5,1.5,0,0,0,2.2,8.222L6.042,10.5"/></svg>