<svg xmlns="http://www.w3.org/2000/svg" viewBox="0 0 24 24"><defs><style>.a{fill:none;stroke:currentColor;stroke-linecap:round;stroke-linejoin:round;stroke-width:1.5px;}</style></defs><title>history-man-philosopher</title><path class="a" d="M18.865,6.75v4.5a5.25,5.25,0,0,1-10.5,0V6.75Z"/><path class="a" d="M23.25,23.25A9.763,9.763,0,0,0,16.7,15.5"/><path class="a" d="M10.53,15.5A9.763,9.763,0,0,0,3.98,23.25"/><path class="a" d="M20.365,2.25a1.5,1.5,0,0,0-1.5-1.5H8.365a1.5,1.5,0,0,0-1.5,1.5V6a.75.75,0,0,0,.75.75h12a.75.75,0,0,0,.75-.75Z"/><line class="a" x1="12.865" y1="3.75" x2="14.365" y2="3.75"/><line class="a" x1="10.615" y1="23.25" x2="18.685" y2="16.421"/><line class="a" x1="15.115" y1="23.25" x2="20.941" y2="18.32"/><path class="a" d="M8.365,7.5a6.453,6.453,0,0,0,2.315,4.415c.917.5,1.586-1.389,2.935-1.389"/><path class="a" d="M13.615,10.526c1.348,0,2.018,1.891,2.934,1.389A6.454,6.454,0,0,0,18.865,7.5"/><path class="a" d="M6.882,6.158l-.034-.029c-.925-.762-3.035.269-4.712,2.3A7.668,7.668,0,0,0,.774,13.5a7.673,7.673,0,0,0,4.712-2.3C6.893,9.488,7.549,7.618,7.178,6.609A.754.754,0,0,1,6.882,6.158Z"/></svg>