<svg xmlns="http://www.w3.org/2000/svg" viewBox="0 0 24 24"><defs><style>.a{fill:none;stroke:currentColor;stroke-linecap:round;stroke-linejoin:round;stroke-width:1.5px;}</style></defs><title>history-africa</title><path class="a" d="M12,9c3.75,3,8.25-.75,8.25,4.8A1.954,1.954,0,0,1,18.3,15.75c-1.8,0-1.046-2.25-6.3-2.25s-4.5,2.25-6.3,2.25A1.954,1.954,0,0,1,3.75,13.8C3.75,8.25,8.25,12,12,9Z"/><path class="a" d="M19.5,11.142V10.034A3,3,0,0,0,17.123,7.1C15.1,6.672,12.453,5.86,12,4.5c-.453,1.36-3.1,2.172-5.123,2.6A3,3,0,0,0,4.5,10.034v1.107"/><path class="a" d="M15.75,22.247a7.511,7.511,0,0,1-7.5,0"/><path class="a" d="M10.169,6.086A4.581,4.581,0,0,1,9.75,4.125C9.75,2.261,12,.75,12,.75s2.25,1.511,2.25,3.375a4.585,4.585,0,0,1-.419,1.961"/><path class="a" d="M15.013,6.545a4.711,4.711,0,0,1,.191-1.7c.531-1.787,3.117-2.6,3.117-2.6s1.728,2.088,1.2,3.876a4.62,4.62,0,0,1-.943,1.743"/><path class="a" d="M8.987,6.545a4.711,4.711,0,0,0-.191-1.7c-.531-1.787-3.117-2.6-3.117-2.6s-1.728,2.088-1.2,3.876A4.612,4.612,0,0,0,5.425,7.87"/><line class="a" x1="19.5" y1="15.335" x2="19.5" y2="20.25"/><circle class="a" cx="19.5" cy="21.75" r="1.5"/><line class="a" x1="4.5" y1="15.335" x2="4.5" y2="20.25"/><circle class="a" cx="4.5" cy="21.75" r="1.5"/></svg>