<svg xmlns="http://www.w3.org/2000/svg" viewBox="0 0 24 24"><defs><style>.a{fill:none;stroke:currentColor;stroke-linecap:round;stroke-linejoin:round;stroke-width:1.5px;}</style></defs><title>history-lamp-genie</title><line class="a" x1="11.25" y1="23.25" x2="23.25" y2="23.25"/><polyline class="a" points="15.75 3.75 15 0.75 19.5 0.75 18.75 3.75"/><path class="a" d="M2.25.75V15a2.25,2.25,0,0,0,4.5,0V7.82A1.5,1.5,0,0,1,9.241,6.694l2.266,2"/><line class="a" x1="0.75" y1="3" x2="3.75" y2="3"/><path class="a" d="M18.75,12.212V3.75h-3v7.061L13.629,8.689a1.5,1.5,0,0,0-2.122,2.122l2.307,2.306A5.941,5.941,0,0,0,14.4,23.25h5.7A5.962,5.962,0,0,0,18.75,12.212Z"/></svg>