<svg xmlns="http://www.w3.org/2000/svg" viewBox="0 0 24 24"><defs><style>.a{fill:none;stroke:currentColor;stroke-linecap:round;stroke-linejoin:round;stroke-width:1.5px;}</style></defs><title>history-urn</title><path class="a" d="M15.847.75c-3.913,5.38,4.339,8.12,4.4,13.011a13.466,13.466,0,0,1-3.431,8.991,1.5,1.5,0,0,1-1.117.5H8.3a1.5,1.5,0,0,1-1.117-.5,13.466,13.466,0,0,1-3.431-8.991C3.814,8.87,12.066,6.13,8.153.75"/><line class="a" x1="4.126" y1="12" x2="19.873" y2="12"/><line class="a" x1="5.044" y1="19.5" x2="18.97" y2="19.5"/><path class="a" d="M19.986,16.5h-3a.489.489,0,0,1-.489-.489v-.522A.489.489,0,0,0,16.006,15H13.982a.489.489,0,0,0-.489.489v.522A.489.489,0,0,1,13,16.5H10.991a.489.489,0,0,1-.489-.489v-.522A.489.489,0,0,0,10.013,15H7.987a.489.489,0,0,0-.489.489v.522a.489.489,0,0,1-.489.489H4.014"/><line class="a" x1="6" y1="0.75" x2="18" y2="0.75"/></svg>