<svg xmlns="http://www.w3.org/2000/svg" viewBox="0 0 24 24"><defs><style>.a{fill:none;stroke:currentColor;stroke-linecap:round;stroke-linejoin:round;stroke-width:1.5px;}</style></defs><title>history-fish</title><path class="a" d="M8.148,6.027a2.765,2.765,0,0,0-4.178.441,9.735,9.735,0,0,0-.184,10.774c-.946,1.363-1.129,4.077.714,5.305L6.75,20.3h3C9.2,16.982,7.325,16.518,6,16.5c-.019-.249-.041-.5-.041-.752A9.5,9.5,0,0,1,8.318,9.828,2.735,2.735,0,0,0,8.148,6.027Z"/><line class="a" x1="7.779" y1="10.503" x2="9.029" y2="12.735"/><line class="a" x1="3.002" y1="8.238" x2="0.747" y2="8.994"/><path class="a" d="M15.852,17.973a2.765,2.765,0,0,0,4.178-.441,9.735,9.735,0,0,0,.184-10.774c.946-1.363,1.129-4.077-.714-5.3L17.25,3.7h-3C14.8,7.018,16.675,7.482,18,7.5c.019.249.041.5.041.752a9.5,9.5,0,0,1-2.359,5.922A2.735,2.735,0,0,0,15.852,17.973Z"/><line class="a" x1="16.221" y1="13.497" x2="14.971" y2="11.265"/><line class="a" x1="20.998" y1="15.762" x2="23.253" y2="15.006"/></svg>