<svg xmlns="http://www.w3.org/2000/svg" viewBox="0 0 24 24"><defs><style>.a{fill:none;stroke:currentColor;stroke-linecap:round;stroke-linejoin:round;stroke-width:1.5px;}</style></defs><title>history-triangle</title><path class="a" d="M5.08,14.031A15.3,15.3,0,0,0,.847,20.917a.492.492,0,0,0,.359.619c2.028.48,9.835,1.812,13.764-4.964q.3-.524.537-1.041"/><path class="a" d="M16.271,9.532a15.178,15.178,0,0,0-3.892-7.348.493.493,0,0,0-.715,0C10.234,3.7,5.177,9.8,9.081,16.588a11.462,11.462,0,0,0,.782,1.188"/><path class="a" d="M14.724,21.249a15.3,15.3,0,0,0,8.083.029.493.493,0,0,0,.342-.628c-.646-1.983-3.572-9.342-11.4-9.169q-.6.014-1.168.083"/></svg>