<svg xmlns="http://www.w3.org/2000/svg" viewBox="0 0 24 24"><defs><style>.a{fill:none;stroke:currentColor;stroke-linecap:round;stroke-linejoin:round;stroke-width:1.5px;}</style></defs><title>historical-building-tower</title><path class="a" d="M19.5.75a.75.75,0,0,1,.75.75v6a.75.75,0,0,1-.75.75H4.5a.75.75,0,0,1-.75-.75v-6A.75.75,0,0,1,4.5.75H6.75a.75.75,0,0,1,.75.75v.75a1.5,1.5,0,0,0,3,0V1.5a.75.75,0,0,1,.75-.75h1.5a.75.75,0,0,1,.75.75v.75a1.5,1.5,0,0,0,3,0V1.5a.75.75,0,0,1,.75-.75Z"/><polygon class="a" points="5.25 8.25 3.75 23.25 20.25 23.25 18.75 8.25 5.25 8.25"/><path class="a" d="M14.25,23.25H9.75V18a2.25,2.25,0,0,1,4.5,0Z"/><line class="a" x1="0.75" y1="23.25" x2="23.25" y2="23.25"/></svg>