<svg xmlns="http://www.w3.org/2000/svg" viewBox="0 0 24 24"><defs><style>.a{fill:none;stroke:currentColor;stroke-linecap:round;stroke-linejoin:round;stroke-width:1.5px;}</style></defs><title>history-babushka-1</title><path class="a" d="M17.958,21.3a2.961,2.961,0,0,1-2.783,1.95H8.817a2.951,2.951,0,0,1-2.774-1.943A15.607,15.607,0,0,1,6.75,9V6a5.25,5.25,0,0,1,10.5,0V9A15.6,15.6,0,0,1,17.958,21.3Z"/><circle class="a" cx="12" cy="6" r="2.25"/><path class="a" d="M12,15.75a.375.375,0,0,1,.375.375"/><path class="a" d="M11.625,16.125A.375.375,0,0,1,12,15.75"/><path class="a" d="M12,16.5a.375.375,0,0,1-.375-.375"/><path class="a" d="M12.375,16.125A.375.375,0,0,1,12,16.5"/><path class="a" d="M12,19.5a.375.375,0,0,1,.375.375"/><path class="a" d="M11.625,19.875A.375.375,0,0,1,12,19.5"/><path class="a" d="M12,20.25a.375.375,0,0,1-.375-.375"/><path class="a" d="M12.375,19.875A.375.375,0,0,1,12,20.25"/><path class="a" d="M12,8.25A4.5,4.5,0,0,1,5.539,12.3"/><path class="a" d="M12,8.25A4.5,4.5,0,0,0,18.459,12.3"/></svg>