<svg xmlns="http://www.w3.org/2000/svg" viewBox="0 0 24 24"><defs><style>.a{fill:none;stroke:currentColor;stroke-linecap:round;stroke-linejoin:round;stroke-width:1.5px;}</style></defs><title>history-indian-eagle</title><path class="a" d="M23.25,8.183C23.236,20.158.736,20.21.75,8.183Z"/><path class="a" d="M8.25,20.933a3.75,3.75,0,0,1,7.5,0Z"/><line class="a" x1="8.25" y1="20.933" x2="8.25" y2="23.183"/><line class="a" x1="12" y1="20.933" x2="12" y2="23.183"/><line class="a" x1="15.75" y1="20.933" x2="15.75" y2="23.183"/><line class="a" x1="9.75" y1="8.183" x2="9.75" y2="17.026"/><line class="a" x1="14.25" y1="8.183" x2="14.25" y2="17.017"/><path class="a" d="M14.25,5.183v-1.5c0-5.82-7.5-1.454-7.5,1.5h3"/><line class="a" x1="22.41" y1="11.864" x2="19.071" y2="10.683"/><line class="a" x1="18.636" y1="15.603" x2="17" y2="13.774"/><line class="a" x1="1.577" y1="11.868" x2="4.929" y2="10.683"/><line class="a" x1="5.35" y1="15.619" x2="7" y2="13.774"/></svg>