<svg xmlns="http://www.w3.org/2000/svg" viewBox="0 0 24 24"><defs><style>.a{fill:none;stroke:currentColor;stroke-linecap:round;stroke-linejoin:round;stroke-width:1.5px;}</style></defs><title>history-vase</title><line class="a" x1="1.775" y1="10.5" x2="22.225" y2="10.5"/><line class="a" x1="2.317" y1="18" x2="21.683" y2="18"/><path class="a" d="M22.468,15h-5.49a.489.489,0,0,1-.489-.489v-.522A.489.489,0,0,0,16,13.5H13.976a.489.489,0,0,0-.489.489v.522A.489.489,0,0,1,13,15H10.985a.489.489,0,0,1-.489-.489v-.522a.489.489,0,0,0-.489-.489H7.981a.489.489,0,0,0-.489.489v.522A.489.489,0,0,1,7,15H1.531"/><path class="a" d="M14.25.75V2.1a3,3,0,0,0,1.389,2.531l4.082,2.6A6,6,0,0,1,22.5,12.294V14.25a9,9,0,0,1-9,9h-3a9,9,0,0,1-9-9V12.294A6,6,0,0,1,4.279,7.232l4.082-2.6A3,3,0,0,0,9.75,2.1V.75"/><line class="a" x1="7.5" y1="0.75" x2="16.5" y2="0.75"/></svg>