<svg xmlns="http://www.w3.org/2000/svg" viewBox="0 0 24 24"><defs><style>.a{fill:none;stroke:currentColor;stroke-linecap:round;stroke-linejoin:round;stroke-width:1.5px;}</style></defs><title>history-middle-east</title><path class="a" d="M7.109,8.2v2.446A4.138,4.138,0,0,0,7.546,12.5l1.277,2.554a2.292,2.292,0,0,1,.242,1.025c0,1.846-2.412,2.883-3.913,2.883s-3.913-1.036-3.913-2.883a2.292,2.292,0,0,1,.242-1.025L2.758,12.5A4.139,4.139,0,0,0,3.2,10.647V8.2"/><circle class="a" cx="5.136" cy="3" r="1.875"/><path class="a" d="M9.057,15.9a5.736,5.736,0,0,0,4.9,2.086c5.869,0,7.826-6.848,7.826-6.848"/><line class="a" x1="10.011" y1="16.844" x2="10.011" y2="19.875"/><line class="a" x1="16.011" y1="17.679" x2="16.011" y2="20.141"/><line class="a" x1="21.261" y1="12.487" x2="21.261" y2="17.625"/><path class="a" d="M20.354,5.954a.644.644,0,0,1,0,.842,7.219,7.219,0,0,1-5.093,2.579A7.224,7.224,0,0,1,10.167,6.8a.646.646,0,0,1,0-.842,7.224,7.224,0,0,1,5.094-2.579A7.219,7.219,0,0,1,20.354,5.954Z"/><path class="a" d="M11.511,21.375a1.5,1.5,0,0,1-3,0"/><path class="a" d="M17.511,21.375a1.5,1.5,0,0,1-3,0"/><path class="a" d="M22.761,18.864a1.5,1.5,0,0,1-3,0"/><circle class="a" cx="15.261" cy="6.375" r="1.5"/></svg>