<svg xmlns="http://www.w3.org/2000/svg" viewBox="0 0 24 24"><defs><style>.a{fill:none;stroke:currentColor;stroke-linecap:round;stroke-linejoin:round;stroke-width:1.5px;}</style></defs><title>history-epgyptian-mythology</title><path class="a" d="M15.375,17.25a.375.375,0,0,1,.375.375"/><path class="a" d="M15,17.625a.375.375,0,0,1,.375-.375"/><path class="a" d="M15.375,18A.375.375,0,0,1,15,17.625"/><path class="a" d="M15.75,17.625a.375.375,0,0,1-.375.375"/><path class="a" d="M.75,22.761l3.621-6.129A9.431,9.431,0,0,1,12.489,12h4.076A2.935,2.935,0,0,1,19.5,14.935v2.357a6,6,0,0,1-3.317,5.366L15,23.25"/><path class="a" d="M19.5,15h-6a3,3,0,0,0,0,6"/><path class="a" d="M6.75,6.375v.668A1.957,1.957,0,0,1,4.793,9"/><circle class="a" cx="12.375" cy="6.375" r="5.625"/><path class="a" d="M19.5,15.75a3.659,3.659,0,0,1,3.588,2.942l.162.808H19.079"/><path class="a" d="M23.25,5.087H22.109a1.467,1.467,0,0,0-1.468,1.467,2.447,2.447,0,0,1-3.225,2.319"/></svg>