<svg xmlns="http://www.w3.org/2000/svg" viewBox="0 0 24 24"><defs><style>.a{fill:none;stroke:currentColor;stroke-linecap:round;stroke-linejoin:round;stroke-width:1.5px;}</style></defs><title>history-empire</title><path class="a" d="M3,22.875H6.75a.75.75,0,0,0,.75-.75v-1.5a.75.75,0,0,0-.75-.75H5.25a.75.75,0,0,1-.75-.75v-1.5a.75.75,0,0,1,.75-.75h4.5a.75.75,0,0,1,.75.75v4.5a.75.75,0,0,0,.75.75h4.5a.75.75,0,0,0,.75-.75v-1.5a.75.75,0,0,0-.75-.75h-1.5a.75.75,0,0,1-.75-.75v-1.5a.75.75,0,0,1,.75-.75h4.5a.75.75,0,0,1,.75.75v5.25"/><rect class="a" x="3.75" y="5.625" width="16.5" height="3"/><path class="a" d="M4.5,5.625l7-4.414a1.487,1.487,0,0,1,1,0l7,4.414"/><line class="a" x1="0.75" y1="13.875" x2="23.25" y2="13.875"/><line class="a" x1="4.5" y1="8.625" x2="4.5" y2="13.875"/><line class="a" x1="9.75" y1="8.625" x2="9.75" y2="13.875"/><line class="a" x1="14.25" y1="8.625" x2="14.25" y2="13.875"/><line class="a" x1="19.5" y1="8.625" x2="19.5" y2="13.875"/></svg>