<svg xmlns="http://www.w3.org/2000/svg" viewBox="0 0 24 24"><defs><style>.a{fill:none;stroke:currentColor;stroke-linecap:round;stroke-linejoin:round;stroke-width:1.5px;}</style></defs><title>historical-building-pillar</title><line class="a" x1="14.258" y1="8.25" x2="9.758" y2="8.25"/><line class="a" x1="9.758" y1="5.25" x2="14.258" y2="5.25"/><line class="a" x1="17.25" y1="11.25" x2="17.25" y2="23.25"/><line class="a" x1="6.75" y1="23.25" x2="6.75" y2="11.25"/><line class="a" x1="9.75" y1="11.25" x2="9.75" y2="23.25"/><line class="a" x1="14.25" y1="11.25" x2="14.25" y2="23.25"/><path class="a" d="M3.774,4.359a1.876,1.876,0,0,1,1.338-.444,2.351,2.351,0,0,1,2.2,2.5A2.937,2.937,0,0,1,4.189,9.155a3.671,3.671,0,0,1-3.431-3.9V5.25a4.5,4.5,0,0,1,4.5-4.5H18.742a4.5,4.5,0,0,1,4.5,4.5v.006a3.671,3.671,0,0,1-3.431,3.9A2.937,2.937,0,0,1,16.692,6.41a2.351,2.351,0,0,1,2.2-2.495,1.874,1.874,0,0,1,1.362.465"/></svg>