<svg xmlns="http://www.w3.org/2000/svg" viewBox="0 0 24 24"><defs><style>.a{fill:none;stroke:currentColor;stroke-linecap:round;stroke-linejoin:round;stroke-width:1.5px;}</style></defs><title>history-noah&amp;apos;s-ark</title><path class="a" d="M23.25,13.5a1.5,1.5,0,0,0-1.5,1.5v.75a6,6,0,0,1-6,6h-6a6,6,0,0,1-6-6l.5-4.024a1.758,1.758,0,1,0-3.5-.218V12"/><path class="a" d="M17.25,17.25h.084a6.007,6.007,0,0,0,2.683-.633l1.733-.867"/><line class="a" x1="11.25" y1="17.25" x2="14.251" y2="17.25"/><path class="a" d="M3.75,15.75l1.733.867a6.007,6.007,0,0,0,2.683.633H8.25"/><line class="a" x1="14.25" y1="0.75" x2="14.25" y2="17.25"/><path class="a" d="M11.249,13.377a6,6,0,0,1,0-11.127"/><circle class="a" cx="9.75" cy="17.25" r="1.5"/><circle class="a" cx="15.75" cy="17.25" r="1.5"/><line class="a" x1="12.75" y1="23.25" x2="10.873" y2="18.245"/><line class="a" x1="18.75" y1="23.25" x2="16.873" y2="18.245"/></svg>