<svg xmlns="http://www.w3.org/2000/svg" viewBox="0 0 24 24"><defs><style>.a{fill:none;stroke:currentColor;stroke-linecap:round;stroke-linejoin:round;stroke-width:1.5px;}</style></defs><title>historical-building-castle-1</title><path class="a" d="M18.75,6h4.5a0,0,0,0,1,0,0V21.5a1,1,0,0,1-1,1h-3.5a0,0,0,0,1,0,0V6A0,0,0,0,1,18.75,6Z"/><line class="a" x1="15.75" y1="13.5" x2="18.75" y2="13.5"/><line class="a" x1="15.75" y1="22.5" x2="18.75" y2="22.5"/><path class="a" d="M18.75,6,20.3,1.873a.749.749,0,0,1,1.4,0L23.25,6"/><path class="a" d="M13.5,9.75a.75.75,0,0,0-.75.75v.75A.75.75,0,0,1,12,12H10.5a.75.75,0,0,1-.75-.75V10.5A.75.75,0,0,0,9,9.75H7.5a.75.75,0,0,0-.75.75v.75A.75.75,0,0,1,6,12H4.5a.75.75,0,0,1-.75-.75V10.5A.75.75,0,0,0,3,9.75H1.5a.75.75,0,0,0-.75.75V21a1.5,1.5,0,0,0,1.5,1.5h13.5v-12A.75.75,0,0,0,15,9.75Z"/><path class="a" d="M6,22.5V18a2.25,2.25,0,0,1,4.5,0v4.5"/><path class="a" d="M2.25,9.75V2.25h4.5A.75.75,0,0,1,7.5,3V5.25A.75.75,0,0,1,6.75,6H2.25"/></svg>