<svg xmlns="http://www.w3.org/2000/svg" viewBox="0 0 24 24"><defs><style>.a{fill:none;stroke:currentColor;stroke-linecap:round;stroke-linejoin:round;stroke-width:1.5px;}</style></defs><title>history-man-viking</title><path class="a" d="M17.25,6v5.25a5.25,5.25,0,0,1-10.5,0V6a5.25,5.25,0,1,1,10.5,0Z"/><path class="a" d="M21.635,23.25a9.763,9.763,0,0,0-6.55-7.752"/><path class="a" d="M8.915,15.5a9.763,9.763,0,0,0-6.55,7.752"/><line class="a" x1="6.865" y1="6.75" x2="17.25" y2="6.75"/><path class="a" d="M6.968,4.5H6.75A3.75,3.75,0,0,1,3,.75C3.071,4.47,2.989,6.609,6.75,8.2"/><path class="a" d="M17.074,4.5h.218A3.75,3.75,0,0,0,21.042.75c-.073,3.841.142,5.8-3.792,7.47"/><path class="a" d="M5.123,17.842a9,9,0,0,0,12.948-.721"/><line class="a" x1="9.75" y1="20.125" x2="9.75" y2="23.25"/><path class="a" d="M6.75,8.335A6.453,6.453,0,0,0,9.065,12.75c.917.5,1.586-1.39,2.935-1.39"/><path class="a" d="M12,11.36c1.349,0,2.018,1.892,2.935,1.39A6.453,6.453,0,0,0,17.25,8.335"/></svg>