<svg xmlns="http://www.w3.org/2000/svg" viewBox="0 0 24 24"><defs><style>.a{fill:none;stroke:currentColor;stroke-linecap:round;stroke-linejoin:round;stroke-width:1.5px;}</style></defs><title>history-silk-bug</title><circle class="a" cx="12" cy="3.75" r="3"/><path class="a" d="M12,21.75a4.5,4.5,0,0,0,4.5-4.5V13.957A1.957,1.957,0,0,0,14.543,12H9.456A1.957,1.957,0,0,0,7.5,13.957V17.25A4.5,4.5,0,0,0,12,21.75Z"/><line class="a" x1="7.501" y1="15" x2="16.499" y2="15"/><line class="a" x1="12" y1="15" x2="12" y2="21.75"/><path class="a" d="M7.5,14.328l-2.008-.6a3.5,3.5,0,0,1-1.028-6.2l1.959-1.4"/><path class="a" d="M5.25,19.5A3.751,3.751,0,0,1,7.5,16.062"/><path class="a" d="M18.75,19.5a3.751,3.751,0,0,0-2.25-3.438"/><path class="a" d="M7.5,23.25a3.739,3.739,0,0,1,1.3-2.838"/><path class="a" d="M16.5,14.328l2.008-.6a3.5,3.5,0,0,0,1.028-6.2l-1.959-1.4"/><path class="a" d="M16.5,23.25a3.739,3.739,0,0,0-1.3-2.838"/><path class="a" d="M9.877,12a2.25,2.25,0,1,1,4.373-.748,2.236,2.236,0,0,1-.128.749"/></svg>