<svg xmlns="http://www.w3.org/2000/svg" viewBox="0 0 24 24"><defs><style>.a{fill:none;stroke:currentColor;stroke-linecap:round;stroke-linejoin:round;stroke-width:1.5px;}</style></defs><title>history-fan</title><path class="a" d="M12,3.223A11.35,11.35,0,0,1,23.226,11.17a.493.493,0,0,1-.29.612L12,16.061,1.064,11.782a.494.494,0,0,1-.29-.612A11.35,11.35,0,0,1,12,3.223Z"/><path class="a" d="M15.75,19.277,12,16.061,8.25,19.277A5.438,5.438,0,0,0,15.75,19.277Z"/><line class="a" x1="13.298" y1="11.241" x2="15.348" y2="3.625"/><line class="a" x1="15.36" y1="12.109" x2="20.243" y2="6.362"/><line class="a" x1="8.64" y1="12.109" x2="3.757" y2="6.362"/><line class="a" x1="10.702" y1="11.241" x2="8.652" y2="3.625"/><path class="a" d="M16.95,14.124a4.942,4.942,0,0,0-4.95-3,4.942,4.942,0,0,0-4.95,3"/></svg>