<svg xmlns="http://www.w3.org/2000/svg" viewBox="0 0 24 24"><defs><style>.a{fill:none;stroke:currentColor;stroke-linecap:round;stroke-linejoin:round;stroke-width:1.5px;}</style></defs><title>history-alice-mad-hat</title><path class="a" d="M5.249,23.238,3.857,10.6A1.5,1.5,0,0,1,5.353,9H7.5"/><line class="a" x1="14.911" y1="17.251" x2="14.251" y2="23.238"/><path class="a" d="M.75,20.25a5.427,5.427,0,0,0,4.854,3H13.9a5.427,5.427,0,0,0,4.854-3"/><line class="a" x1="4.837" y1="19.5" x2="14.663" y2="19.5"/><path class="a" d="M15,6l-.773-1.8a2.473,2.473,0,1,1,4.546,0L18,6"/><path class="a" d="M18,6l1.8-.773a2.473,2.473,0,1,1,0,4.546L18,9"/><path class="a" d="M18,9l.773,1.8a2.473,2.473,0,1,1-4.546,0L15,9"/><path class="a" d="M15,9l-1.8.773a2.473,2.473,0,1,1,0-4.546L15,6"/><path class="a" d="M23.249,16.966a9.009,9.009,0,0,1-5.023-3.415"/></svg>