<svg xmlns="http://www.w3.org/2000/svg" viewBox="0 0 24 24"><defs><style>.a{fill:none;stroke:currentColor;stroke-linecap:round;stroke-linejoin:round;stroke-width:1.5px;}</style></defs><title>history-woman-aviator</title><path class="a" d="M2.279,23.249A9.755,9.755,0,0,1,9.028,13.97l3,2.529,3-2.53a9.754,9.754,0,0,1,6.751,9.28"/><path class="a" d="M17.683,15.306a9.682,9.682,0,0,0-2.655-1.336l-3,2.529,4.5,3Z"/><path class="a" d="M12.029,16.5l-3-2.529a9.67,9.67,0,0,0-2.653,1.336L7.529,19.5Z"/><circle class="a" cx="12.029" cy="5.999" r="5.25"/><path class="a" d="M12.029,6.749h-5.2A5.153,5.153,0,0,1,6.779,6a5.224,5.224,0,0,1,.594-2.426C8.982,3.055,11.524,3.217,12.029,6.749Z"/><path class="a" d="M17.225,6.749h-5.2c.505-3.532,3.047-3.694,4.656-3.176A5.224,5.224,0,0,1,17.279,6,5.153,5.153,0,0,1,17.225,6.749Z"/><path class="a" d="M6.829,6.749S6.776,10.5,3.776,12"/><path class="a" d="M17.223,6.749s.053,3.75,3.053,5.25"/></svg>