<svg xmlns="http://www.w3.org/2000/svg" viewBox="0 0 24 24"><defs><style>.a{fill:none;stroke:currentColor;stroke-linecap:round;stroke-linejoin:round;stroke-width:1.5px;}</style></defs><title>history-chinese-lantern</title><path class="a" d="M5.25,20.175V21.75a1.5,1.5,0,0,0,1.5,1.5h4.5a1.5,1.5,0,0,0,1.5-1.5V20.175"/><path class="a" d="M12.75,12.825V11.25a1.5,1.5,0,0,0-1.5-1.5H6.75a1.5,1.5,0,0,0-1.5,1.5v1.575"/><line class="a" x1="9" y1="9.75" x2="9" y2="2.823"/><path class="a" d="M15.75,16.5A3.75,3.75,0,0,1,12,20.25H6a3.75,3.75,0,0,1,0-7.5h6A3.75,3.75,0,0,1,15.75,16.5Z"/><path class="a" d="M.75.75S9,3.75,23.25,4.5"/><line class="a" x1="1.5" y1="0.999" x2="1.5" y2="4.5"/><line class="a" x1="5.25" y1="2.021" x2="5.25" y2="5.25"/><line class="a" x1="12.75" y1="3.457" x2="12.75" y2="6.75"/><line class="a" x1="16.5" y1="3.947" x2="16.5" y2="7.5"/><line class="a" x1="20.25" y1="4.304" x2="20.25" y2="8.25"/><ellipse class="a" cx="9" cy="16.5" rx="2.25" ry="3.75"/></svg>