<svg xmlns="http://www.w3.org/2000/svg" viewBox="0 0 24 24"><defs><style>.a{fill:none;stroke:currentColor;stroke-linecap:round;stroke-linejoin:round;stroke-width:1.5px;}</style></defs><title>history-witch-cauldron</title><path class="a" d="M3.75,14.25v.375c0,3.935,3.694,7.125,8.25,7.125s8.25-3.19,8.25-7.125V14.25"/><path class="a" d="M6.47,19.913A2.25,2.25,0,0,1,4.5,23.25"/><path class="a" d="M17.53,19.913A2.25,2.25,0,0,0,19.5,23.25"/><line class="a" x1="12" y1="14.25" x2="12" y2="6"/><line class="a" x1="15" y1="14.25" x2="15" y2="9"/><line class="a" x1="9" y1="14.25" x2="9" y2="7.5"/><path class="a" d="M15.75,6.75a1.5,1.5,0,0,1,1.5-1.5,1.5,1.5,0,0,0,1.5-1.5"/><path class="a" d="M9,4.5A1.5,1.5,0,0,1,10.5,3"/><path class="a" d="M12.75,3.75a1.5,1.5,0,0,1,1.5-1.5,1.5,1.5,0,0,0,1.5-1.5"/><line class="a" x1="1.5" y1="14.25" x2="22.5" y2="14.25"/></svg>