<svg xmlns="http://www.w3.org/2000/svg" viewBox="0 0 24 24"><defs><style>.a{fill:none;stroke:currentColor;stroke-linecap:round;stroke-linejoin:round;stroke-width:1.5px;}</style></defs><title>historical-building-castle</title><polyline class="a" points="4.5 23.25 6.75 8.25 17.25 8.25 19.5 23.25"/><line class="a" x1="12" y1="12" x2="12" y2="15"/><line class="a" x1="10.5" y1="13.5" x2="13.5" y2="13.5"/><path class="a" d="M5.25,2.25v4.5a1.5,1.5,0,0,0,1.5,1.5h10.5a1.5,1.5,0,0,0,1.5-1.5V2.25Z"/><polyline class="a" points="4.5 23.25 0.75 23.25 0.75 14.25 5.85 14.25"/><polyline class="a" points="19.5 23.25 23.25 23.25 23.25 14.25 18.15 14.25"/><path class="a" d="M14.25,23.25v-3a2.25,2.25,0,0,0-4.5,0v3"/><line class="a" x1="5.25" y1="2.25" x2="5.25" y2="0.75"/><line class="a" x1="18.75" y1="0.75" x2="18.75" y2="2.25"/><line class="a" x1="0.75" y1="14.25" x2="0.75" y2="12.75"/><line class="a" x1="23.25" y1="14.25" x2="23.25" y2="12.75"/></svg>