<svg xmlns="http://www.w3.org/2000/svg" viewBox="0 0 24 24"><defs><style>.a{fill:none;stroke:currentColor;stroke-linecap:round;stroke-linejoin:round;stroke-width:1.5px;}</style></defs><title>history-chinese-dragon</title><path class="a" d="M8.625,12.75A.375.375,0,0,1,9,13.125"/><path class="a" d="M8.25,13.125a.375.375,0,0,1,.375-.375"/><path class="a" d="M8.625,13.5a.375.375,0,0,1-.375-.375"/><path class="a" d="M9,13.125a.375.375,0,0,1-.375.375"/><path class="a" d="M15.375,12.75a.375.375,0,0,1,.375.375"/><path class="a" d="M15,13.125a.375.375,0,0,1,.375-.375"/><path class="a" d="M15.375,13.5A.375.375,0,0,1,15,13.125"/><path class="a" d="M15.75,13.125a.375.375,0,0,1-.375.375"/><path class="a" d="M12,16.785a5.177,5.177,0,0,1-2.049,1.783l-.522.3A8.58,8.58,0,0,1,4.568,20.1a4.538,4.538,0,0,1-3.312-1.494A2.246,2.246,0,0,1,.75,17.157h0a2.178,2.178,0,0,1,2.13-2.222H5.5"/><path class="a" d="M.75,7.523h0A37.6,37.6,0,0,1,12,11.894h0"/><path class="a" d="M12,23.25c-3.836,0-7.1-1.363-8.3-3.264"/><path class="a" d="M12,14.21a3.751,3.751,0,1,1-6.63-3.457"/><path class="a" d="M12,16.785a5.177,5.177,0,0,0,2.049,1.783l.522.3A8.58,8.58,0,0,0,19.432,20.1a4.538,4.538,0,0,0,3.312-1.494,2.246,2.246,0,0,0,.506-1.451h0a2.178,2.178,0,0,0-2.13-2.222H18.5"/><path class="a" d="M23.25,7.523h0A37.6,37.6,0,0,0,12,11.894h0"/><path class="a" d="M21.2,5.25c.024-.3.049-.558.073-.742a.489.489,0,0,0-.7-.467A34.579,34.579,0,0,1,14.935,6.13c0-.954-.234-1.007-1.969-4.85a1.145,1.145,0,0,0-1.932,0C9.2,5.352,9.065,5.175,9.065,6.13A34.579,34.579,0,0,1,3.432,4.041a.489.489,0,0,0-.7.467c.024.184.049.444.073.742"/><path class="a" d="M12,23.25c3.836,0,7.1-1.363,8.305-3.264"/><path class="a" d="M12,14.21a3.751,3.751,0,1,0,6.89-2.968"/><line class="a" x1="12" y1="11.894" x2="12" y2="16.785"/><path class="a" d="M20.7,8.159a6.761,6.761,0,0,1,1.357,7"/><path class="a" d="M3.3,8.159a6.761,6.761,0,0,0-1.357,7"/></svg>