<svg xmlns="http://www.w3.org/2000/svg" viewBox="0 0 24 24"><defs><style>.a{fill:none;stroke:currentColor;stroke-linecap:round;stroke-linejoin:round;stroke-width:1.5px;}</style></defs><title>history-armor-shield</title><path class="a" d="M21,15a3,3,0,0,1,0-6,.527.527,0,0,0,.514-.642,9.753,9.753,0,0,0-19.028,0A.527.527,0,0,0,3,9a3,3,0,0,1,0,6,.527.527,0,0,0-.514.642,9.753,9.753,0,0,0,19.028,0A.527.527,0,0,0,21,15Z"/><line class="a" x1="12" y1="5.25" x2="12" y2="18.75"/><line class="a" x1="16.243" y1="6.75" x2="7.757" y2="17.25"/><line class="a" x1="7.757" y1="6.75" x2="16.243" y2="17.25"/><line class="a" x1="9" y1="12" x2="15" y2="12"/></svg>