<svg xmlns="http://www.w3.org/2000/svg" viewBox="0 0 24 24"><defs><style>.a{fill:none;stroke:currentColor;stroke-linecap:round;stroke-linejoin:round;stroke-width:1.5px;}</style></defs><title>history-chinese-urn</title><path class="a" d="M15.592,1.125c-1.955,0-2.092,4.5.955,5.25,3.379.832,5.2,3.128,5.2,6.321,0,4.438-3.959,10.179-8.211,10.179H10.461c-4.252,0-8.211-5.741-8.211-10.179,0-3.193,1.824-5.489,5.2-6.321,3.047-.75,2.91-5.25.955-5.25"/><circle class="a" cx="12" cy="10.5" r="1.875"/><line class="a" x1="12" y1="12.375" x2="12" y2="16.125"/><polyline class="a" points="9.75 18.375 12 16.125 14.25 18.375"/><line class="a" x1="9" y1="14.625" x2="12" y2="13.875"/><line class="a" x1="12" y1="13.875" x2="15" y2="14.625"/><line class="a" x1="6" y1="1.125" x2="18" y2="1.125"/><path class="a" d="M16.547,6.375l2.035-2.584a2.417,2.417,0,0,1,4.283,1.893L21.75,12.375"/><path class="a" d="M7.453,6.375,5.418,3.791A2.417,2.417,0,0,0,1.135,5.684L2.25,12.375"/></svg>