<svg xmlns="http://www.w3.org/2000/svg" viewBox="0 0 24 24"><defs><style>.a{fill:none;stroke:currentColor;stroke-linecap:round;stroke-linejoin:round;stroke-width:1.5px;}</style></defs><title>history-egyptian-mythology-1</title><path class="a" d="M6.2,7.5A5.312,5.312,0,0,0,.884,12.812v9.266a.75.75,0,0,0,1.065.681l4.935-2.278V22.5a.75.75,0,0,0,.75.75h2.25a.75.75,0,0,0,.75-.75V18.75"/><path class="a" d="M11.009,7.5a.375.375,0,0,1,.375.375"/><path class="a" d="M10.634,7.875a.375.375,0,0,1,.375-.375"/><path class="a" d="M11.009,8.25a.375.375,0,0,1-.375-.375"/><path class="a" d="M11.384,7.875a.375.375,0,0,1-.375.375"/><line class="a" x1="3.884" y1="21.866" x2="3.884" y2="12.75"/><line class="a" x1="6.884" y1="14.25" x2="6.884" y2="20.481"/><path class="a" d="M15.134,18.75s-.83-1.847-.154-2.94a3.535,3.535,0,0,1,3.154-1.56h1.5A3.19,3.19,0,0,0,22.48,12L23.1,7.66a.75.75,0,0,0-.733-.91H16.7a3,3,0,0,1-2.3-1.072A4.957,4.957,0,0,0,10.634,3.75a4.5,4.5,0,0,0,0,9"/><line class="a" x1="22.587" y1="11.25" x2="18.134" y2="11.25"/><path class="a" d="M6.2,7.5,5.036,6.4A4.324,4.324,0,0,1,4.634.75L8.291,4.407"/></svg>