<svg xmlns="http://www.w3.org/2000/svg" viewBox="0 0 24 24"><defs><style>.a{fill:none;stroke:currentColor;stroke-linecap:round;stroke-linejoin:round;stroke-width:1.5px;}</style></defs><title>history-armor</title><circle class="a" cx="12" cy="13.5" r="7.5"/><line class="a" x1="16.499" y1="7.501" x2="18.75" y2="5.25"/><line class="a" x1="0.75" y1="23.25" x2="6" y2="18"/><path class="a" d="M18.75,5.25V3.331a1.5,1.5,0,0,1,1.026-1.423L23.25.75,22.092,4.224A1.5,1.5,0,0,1,20.669,5.25Z"/><line class="a" x1="7.502" y1="7.502" x2="5.25" y2="5.25"/><line class="a" x1="23.25" y1="23.25" x2="18.001" y2="18.001"/><path class="a" d="M5.25,5.25H3.331A1.5,1.5,0,0,1,1.908,4.224L.75.75,4.224,1.908A1.5,1.5,0,0,1,5.25,3.331Z"/><path class="a" d="M9,16.5l2.315-5.555a.75.75,0,0,1,1.37,0L15,16.5"/></svg>