<svg id="Regular" xmlns="http://www.w3.org/2000/svg" viewBox="0 0 24 24"><defs><style>.cls-1{fill:none;stroke:currentColor;stroke-linecap:round;stroke-linejoin:round;stroke-width:1.5px;}</style></defs><title>hockey-puck-stick</title><circle class="cls-1" cx="3" cy="13.5" r="2.25"/><path class="cls-1" d="M22.211.822a1.5,1.5,0,0,0-1.888.967S16.376,14.022,15.187,17.71a1.5,1.5,0,0,1-1.428,1.04H7.5a2.25,2.25,0,0,0,0,4.5h6.867a3,3,0,0,0,2.855-2.079l5.955-18.46A1.5,1.5,0,0,0,22.211.822Z"/><line class="cls-1" x1="9" y1="18.75" x2="13.5" y2="23.25"/><line class="cls-1" x1="16.168" y1="14.668" x2="18.551" y2="17.051"/><line class="cls-1" x1="18.546" y1="7.296" x2="20.929" y2="9.679"/></svg>