<svg id="Regular" xmlns="http://www.w3.org/2000/svg" viewBox="0 0 24 24"><defs><style>.cls-1{fill:none;stroke:currentColor;stroke-linecap:round;stroke-linejoin:round;stroke-width:1.5px;}</style></defs><title>honey</title><rect class="cls-1" x="0.723" y="15.75" width="15" height="3" rx="1.5" ry="1.5"/><path class="cls-1" d="M9.723,23.25h-3a4.5,4.5,0,0,1-4.5-4.5h12A4.5,4.5,0,0,1,9.723,23.25Z"/><circle class="cls-1" cx="21.723" cy="2.25" r="1.5"/><path class="cls-1" d="M11.973,10.413A1.881,1.881,0,0,1,10.12,12h0a1.881,1.881,0,0,1-1.875-1.875h0v.75A1.881,1.881,0,0,1,6.37,12.75h0A1.881,1.881,0,0,1,4.5,10.875v-.75"/><line class="cls-1" x1="20.293" y1="2.705" x2="14.576" y2="4.527"/><rect class="cls-1" x="11.647" y="1.982" width="3" height="6" rx="1.5" ry="1.5" transform="translate(-0.892 4.226) rotate(-17.671)"/><path class="cls-1" d="M6.038,7.375,5.546,5.829A1.5,1.5,0,0,1,6.52,3.945h0A1.5,1.5,0,0,1,8.4,4.919l.705,2.212"/><path class="cls-1" d="M8.876,6.4,7.948,3.486A1.5,1.5,0,0,1,8.921,1.6h0a1.505,1.505,0,0,1,1.885.974L11.4,4.441"/></svg>