<svg id="Regular" xmlns="http://www.w3.org/2000/svg" viewBox="0 0 24 24"><defs><style>.cls-1{fill:none;stroke:currentColor;stroke-linecap:round;stroke-linejoin:round;stroke-width:1.5px;}</style></defs><title>hoodie</title><path class="cls-1" d="M18.75,11.25v10.5s-1.5,1.5-6.75,1.5-6.75-1.5-6.75-1.5V11.25"/><path class="cls-1" d="M6.75,2.25l-1.818.779A6,6,0,0,0,1.3,8.229L.792,17.961a.749.749,0,0,0,.749.789H5.25"/><path class="cls-1" d="M18.75,18.75h3.709a.749.749,0,0,0,.749-.789L22.7,8.229a6,6,0,0,0-3.628-5.2L17.25,2.25"/><path class="cls-1" d="M17.25,2.25a3,3,0,0,1-3,3H9.75a3,3,0,0,1-3-3A1.5,1.5,0,0,1,8.25.75h7.5A1.5,1.5,0,0,1,17.25,2.25Z"/><line class="cls-1" x1="9.75" y1="5.25" x2="9.75" y2="8.25"/><line class="cls-1" x1="14.25" y1="5.25" x2="14.25" y2="11.25"/></svg>