<svg id="Regular" xmlns="http://www.w3.org/2000/svg" viewBox="0 0 24 24"><defs><style>.cls-1{fill:none;stroke:currentColor;stroke-linecap:round;stroke-linejoin:round;stroke-width:1.5px;}</style></defs><title>hospital-building</title><path class="cls-1" d="M9,23.25v-7.5a1.5,1.5,0,0,1,1.5-1.5H21a1.5,1.5,0,0,1,1.5,1.5v7.5H6"/><line class="cls-1" x1="1.5" y1="9.75" x2="1.5" y2="23.25"/><line class="cls-1" x1="13.5" y1="14.25" x2="13.5" y2="10.519"/><circle class="cls-1" cx="7.5" cy="5.25" r="4.5"/><line class="cls-1" x1="7.5" y1="3.75" x2="7.5" y2="6.75"/><line class="cls-1" x1="6" y1="5.25" x2="9" y2="5.25"/><line class="cls-1" x1="4.5" y1="14.25" x2="6" y2="14.25"/><line class="cls-1" x1="4.5" y1="18.75" x2="6" y2="18.75"/><line class="cls-1" x1="12.75" y1="20.269" x2="14.25" y2="20.269"/><line class="cls-1" x1="17.25" y1="20.269" x2="18.75" y2="20.269"/><line class="cls-1" x1="12.75" y1="17.269" x2="14.25" y2="17.269"/><line class="cls-1" x1="17.25" y1="17.269" x2="18.75" y2="17.269"/></svg>