<svg id="Regular" xmlns="http://www.w3.org/2000/svg" viewBox="0 0 24 24"><defs><style>.cls-1{fill:none;stroke:currentColor;stroke-linecap:round;stroke-linejoin:round;stroke-width:1.5px;}</style></defs><title>hospital-sign-square</title><rect class="cls-1" x="0.75" y="0.75" width="22.5" height="22.5" rx="3" ry="3"/><path class="cls-1" d="M14.25,6V9.75H9.75V6A.75.75,0,0,0,9,5.25H6A.75.75,0,0,0,5.25,6V18a.75.75,0,0,0,.75.75H9A.75.75,0,0,0,9.75,18V14.25h4.5V18a.75.75,0,0,0,.75.75h3a.75.75,0,0,0,.75-.75V6A.75.75,0,0,0,18,5.25H15A.75.75,0,0,0,14.25,6Z"/></svg>