<svg id="Regular" xmlns="http://www.w3.org/2000/svg" viewBox="0 0 24 24"><defs><style>.cls-1{fill:none;stroke:currentColor;stroke-linecap:round;stroke-linejoin:round;stroke-width:1.5px;}</style></defs><title>hospital-board</title><circle class="cls-1" cx="12" cy="12" r="11.25"/><path class="cls-1" d="M18,9.75H14.25V6a.75.75,0,0,0-.75-.75h-3A.75.75,0,0,0,9.75,6V9.75H6a.75.75,0,0,0-.75.75v3a.75.75,0,0,0,.75.75H9.75V18a.75.75,0,0,0,.75.75h3a.75.75,0,0,0,.75-.75V14.25H18a.75.75,0,0,0,.75-.75v-3A.75.75,0,0,0,18,9.75Z"/></svg>