<svg id="Regular" xmlns="http://www.w3.org/2000/svg" viewBox="0 0 24 24"><defs><style>.cls-1{fill:none;stroke:currentColor;stroke-linecap:round;stroke-linejoin:round;stroke-width:1.5px;}</style></defs><title>hospital-house</title><path class="cls-1" d="M3.75,12.75v9a1.5,1.5,0,0,0,1.5,1.5h13.5a1.5,1.5,0,0,0,1.5-1.5v-9"/><polyline class="cls-1" points="23.25 11.25 12 0.75 0.75 11.25"/><path class="cls-1" d="M16.5,13.5a.75.75,0,0,0-.75-.75H13.5V10.5a.75.75,0,0,0-.75-.75h-1.5a.75.75,0,0,0-.75.75v2.25H8.25a.75.75,0,0,0-.75.75V15a.75.75,0,0,0,.75.75H10.5V18a.75.75,0,0,0,.75.75h1.5A.75.75,0,0,0,13.5,18V15.75h2.25A.75.75,0,0,0,16.5,15Z"/></svg>