<svg id="Regular" xmlns="http://www.w3.org/2000/svg" viewBox="0 0 24 24"><defs><style>.cls-1{fill:none;stroke:currentColor;stroke-linecap:round;stroke-linejoin:round;stroke-width:1.5px;}</style></defs><title>hospital-bedroom-nurse</title><circle class="cls-1" cx="16.5" cy="3" r="2.25"/><circle class="cls-1" cx="8.25" cy="16.5" r="2.25"/><path class="cls-1" d="M12.75,14.25h8.5a2,2,0,0,1,2,2v2.5a0,0,0,0,1,0,0H12.75a0,0,0,0,1,0,0v-4.5A0,0,0,0,1,12.75,14.25Z"/><rect class="cls-1" x="2.25" y="18.75" width="21" height="3"/><line class="cls-1" x1="2.25" y1="23.25" x2="2.25" y2="14.25"/><line class="cls-1" x1="23.25" y1="23.25" x2="23.25" y2="21.75"/><path class="cls-1" d="M12.75,11.25a3,3,0,0,1,3-3h1.5a3,3,0,0,1,3,3"/><path class="cls-1" d="M9,3.75H6.75V1.5A.75.75,0,0,0,6,.75H4.5a.75.75,0,0,0-.75.75V3.75H1.5a.75.75,0,0,0-.75.75V6a.75.75,0,0,0,.75.75H3.75V9a.75.75,0,0,0,.75.75H6A.75.75,0,0,0,6.75,9V6.75H9A.75.75,0,0,0,9.75,6V4.5A.75.75,0,0,0,9,3.75Z"/></svg>