<svg id="Regular" xmlns="http://www.w3.org/2000/svg" viewBox="0 0 24 24"><defs><style>.cls-1{fill:none;stroke:currentColor;stroke-linecap:round;stroke-linejoin:round;stroke-width:1.5px;}</style></defs><title>hospital-bedroom-graph</title><circle class="cls-1" cx="7.5" cy="16.5" r="2.25"/><path class="cls-1" d="M12,14.25h8.5a2,2,0,0,1,2,2v2.5a0,0,0,0,1,0,0H12a0,0,0,0,1,0,0v-4.5A0,0,0,0,1,12,14.25Z"/><rect class="cls-1" x="1.5" y="18.75" width="21" height="3"/><line class="cls-1" x1="1.5" y1="23.25" x2="1.5" y2="14.25"/><line class="cls-1" x1="22.5" y1="23.25" x2="22.5" y2="21.75"/><rect class="cls-1" x="4.5" y="0.75" width="15" height="9" rx="1" ry="1"/><path class="cls-1" d="M4.5,5.25H7.849a.75.75,0,0,0,.624-.334l.77-1.155A.75.75,0,0,1,10.4,3.647L13.72,6.97a.749.749,0,0,0,1.06,0l1.5-1.5a.751.751,0,0,1,.531-.22H19.5"/></svg>