<svg id="Regular" xmlns="http://www.w3.org/2000/svg" viewBox="0 0 24 24"><defs><style>.cls-1{fill:none;stroke:currentColor;stroke-linecap:round;stroke-linejoin:round;stroke-width:1.5px;}</style></defs><title>hospital-sign</title><line class="cls-1" x1="1.5" y1="0.75" x2="1.5" y2="23.25"/><line class="cls-1" x1="6" y1="6.75" x2="1.5" y2="6.75"/><line class="cls-1" x1="6" y1="17.25" x2="1.5" y2="17.25"/><path class="cls-1" d="M18.75,9.75H16.5V7.5a.75.75,0,0,0-.75-.75h-3A.75.75,0,0,0,12,7.5V9.75H9.75A.75.75,0,0,0,9,10.5v3a.75.75,0,0,0,.75.75H12V16.5a.75.75,0,0,0,.75.75h3a.75.75,0,0,0,.75-.75V14.25h2.25a.75.75,0,0,0,.75-.75v-3A.75.75,0,0,0,18.75,9.75Z"/><rect class="cls-1" x="6" y="3.75" width="16.5" height="16.5" rx="1" ry="1"/></svg>