<svg id="Regular" xmlns="http://www.w3.org/2000/svg" viewBox="0 0 24 24"><defs><style>.cls-1{fill:none;stroke:currentColor;stroke-linecap:round;stroke-linejoin:round;stroke-width:1.5px;}</style></defs><title>hospital-shield</title><path class="cls-1" d="M17.25,9a.75.75,0,0,0-.75-.75H14.25V6a.75.75,0,0,0-.75-.75h-3A.75.75,0,0,0,9.75,6V8.25H7.5A.75.75,0,0,0,6.75,9v3a.75.75,0,0,0,.75.75H9.75V15a.75.75,0,0,0,.75.75h3a.75.75,0,0,0,.75-.75V12.75H16.5a.75.75,0,0,0,.75-.75Z"/><path class="cls-1" d="M2.25,3.923v7.614A11.907,11.907,0,0,0,9.882,22.65l1.041.4a3,3,0,0,0,2.154,0l1.041-.4A11.907,11.907,0,0,0,21.75,11.537V3.923a1.486,1.486,0,0,0-.868-1.362A21.7,21.7,0,0,0,12,.75,21.7,21.7,0,0,0,3.118,2.561,1.486,1.486,0,0,0,2.25,3.923Z"/></svg>