<svg xmlns="http://www.w3.org/2000/svg" viewBox="0 0 24 24"><defs><style>.a{fill:none;stroke:currentColor;stroke-linecap:round;stroke-linejoin:round;stroke-width:1.5px;}</style></defs><title>hotel-bedroom-1</title><circle class="a" cx="7.5" cy="17.849" r="2.25"/><path class="a" d="M12,15.6h6.25a2,2,0,0,1,2,2v2.5a0,0,0,0,1,0,0H12a0,0,0,0,1,0,0V15.6A0,0,0,0,1,12,15.6Z"/><polyline class="a" points="12 20.099 3.75 20.099 3.75 23.099"/><line class="a" x1="20.25" y1="20.099" x2="20.25" y2="23.099"/><line class="a" x1="20.25" y1="6.099" x2="20.25" y2="12.599"/><line class="a" x1="3.75" y1="12.599" x2="3.75" y2="6.099"/><path class="a" d="M.75,8.1,11.168,1.153a1.5,1.5,0,0,1,1.664,0L23.25,8.1"/></svg>