<svg xmlns="http://www.w3.org/2000/svg" viewBox="0 0 24 24"><defs><style>.a{fill:none;stroke:currentColor;stroke-linecap:round;stroke-linejoin:round;stroke-width:1.5px;}</style></defs><title>hotel-bunk-bed</title><line class="a" x1="0.75" y1="0.75" x2="0.75" y2="23.25"/><line class="a" x1="23.25" y1="4.5" x2="23.25" y2="23.25"/><line class="a" x1="23.25" y1="21" x2="0.75" y2="21"/><circle class="a" cx="6" cy="15.75" r="2.25"/><path class="a" d="M11.25,18V14.461a.75.75,0,0,1,.932-.728L18.067,15.2A2.883,2.883,0,0,1,20.25,18Z"/><line class="a" x1="23.25" y1="10.5" x2="0.75" y2="10.5"/><circle class="a" cx="6" cy="5.25" r="2.25"/><path class="a" d="M11.25,7.5V3.961a.75.75,0,0,1,.932-.728L18.067,4.7A2.883,2.883,0,0,1,20.25,7.5Z"/></svg>