<svg xmlns="http://www.w3.org/2000/svg" viewBox="0 0 24 24"><defs><style>.a{fill:none;stroke:currentColor;stroke-linecap:round;stroke-linejoin:round;stroke-width:1.5px;}</style></defs><title>hotel-information</title><circle class="a" cx="18" cy="6" r="5.25"/><line class="a" x1="18" y1="8.625" x2="18" y2="6"/><path class="a" d="M18,3.381a.375.375,0,1,0,.375.375A.375.375,0,0,0,18,3.381"/><circle class="a" cx="6.75" cy="16.5" r="2.25"/><path class="a" d="M11.25,14.25h10a2,2,0,0,1,2,2v2.5a0,0,0,0,1,0,0h-12a0,0,0,0,1,0,0v-4.5A0,0,0,0,1,11.25,14.25Z"/><rect class="a" x="0.75" y="18.75" width="22.5" height="3"/><line class="a" x1="0.75" y1="23.25" x2="0.75" y2="14.25"/><line class="a" x1="23.25" y1="23.25" x2="23.25" y2="21.75"/></svg>