<svg xmlns="http://www.w3.org/2000/svg" viewBox="0 0 24 24"><defs><style>.a{fill:none;stroke:currentColor;stroke-linecap:round;stroke-linejoin:round;stroke-width:1.5px;}</style></defs><title>hotel</title><polyline class="a" points="22.5 9.75 22.5 23.25 1.5 23.25 1.5 9.75"/><path class="a" d="M22.5,9.75H1.5L4.158,5.526A1.5,1.5,0,0,1,5.581,4.5H18.419a1.5,1.5,0,0,1,1.423,1.026Z"/><path class="a" d="M13.5,23.25h-3v-4.5a1.5,1.5,0,0,1,3,0Z"/><line class="a" x1="4.5" y1="12.75" x2="7.5" y2="12.75"/><line class="a" x1="10.5" y1="12.75" x2="13.5" y2="12.75"/><line class="a" x1="16.5" y1="12.75" x2="19.5" y2="12.75"/><rect class="a" x="4.5" y="15.75" width="3" height="3"/><rect class="a" x="16.5" y="15.75" width="3" height="3"/><rect class="a" x="6.75" y="0.75" width="3" height="3.75"/><rect class="a" x="14.25" y="0.75" width="3" height="3.75" transform="translate(31.5 5.25) rotate(-180)"/></svg>