<svg xmlns="http://www.w3.org/2000/svg" viewBox="0 0 24 24"><defs><style>.a{fill:none;stroke:currentColor;stroke-linecap:round;stroke-linejoin:round;stroke-width:1.5px;}</style></defs><title>hotel-bunk-bed-1</title><line class="a" x1="0.75" y1="0.75" x2="0.75" y2="23.25"/><line class="a" x1="23.25" y1="4.5" x2="23.25" y2="23.25"/><line class="a" x1="18" y1="4.5" x2="18" y2="23.25"/><line class="a" x1="18" y1="21" x2="0.75" y2="21"/><line class="a" x1="18" y1="18" x2="0.75" y2="18"/><line class="a" x1="18" y1="7.5" x2="0.75" y2="7.5"/><line class="a" x1="18" y1="10.5" x2="0.75" y2="10.5"/><line class="a" x1="18" y1="7.5" x2="23.25" y2="7.5"/><line class="a" x1="18" y1="12" x2="23.25" y2="12"/><line class="a" x1="18" y1="16.5" x2="23.25" y2="16.5"/><line class="a" x1="18" y1="21" x2="23.25" y2="21"/><path class="a" d="M5.25,7.5a1.5,1.5,0,0,1,0-3h1.5a1.5,1.5,0,0,1,0,3Z"/><path class="a" d="M5.25,18a1.5,1.5,0,0,1,0-3h1.5a1.5,1.5,0,0,1,0,3Z"/></svg>