<svg xmlns="http://www.w3.org/2000/svg" viewBox="0 0 24 24"><defs><style>.a{fill:none;stroke:currentColor;stroke-linecap:round;stroke-linejoin:round;stroke-width:1.5px;}</style></defs><title>hotel-single-bed-add</title><path class="a" d="M8.25,13.125H.75v-2.25a3,3,0,0,1,3-3H18"/><line class="a" x1="0.75" y1="13.125" x2="0.75" y2="16.125"/><path class="a" d="M18,7.875V2.625a1.5,1.5,0,0,0-1.5-1.5H4.5A1.5,1.5,0,0,0,3,2.625V7.97"/><path class="a" d="M8.5,4.875h4a1,1,0,0,1,1,1v2a0,0,0,0,1,0,0h-6a0,0,0,0,1,0,0v-2A1,1,0,0,1,8.5,4.875Z"/><circle class="a" cx="17.25" cy="16.875" r="6"/><line class="a" x1="17.25" y1="13.875" x2="17.25" y2="19.875"/><line class="a" x1="14.25" y1="16.875" x2="20.25" y2="16.875"/></svg>