<svg xmlns="http://www.w3.org/2000/svg" viewBox="0 0 24 24"><defs><style>.a{fill:none;stroke:currentColor;stroke-linecap:round;stroke-linejoin:round;stroke-width:1.5px;}</style></defs><title>hotel-single-bed-1</title><path class="a" d="M2.75,11.25h18.5a2,2,0,0,1,2,2V18a0,0,0,0,1,0,0H.75a0,0,0,0,1,0,0V13.25A2,2,0,0,1,2.75,11.25Z"/><line class="a" x1="0.75" y1="18" x2="0.75" y2="21"/><line class="a" x1="23.25" y1="18" x2="23.25" y2="21"/><path class="a" d="M21,11.25V4.5A1.5,1.5,0,0,0,19.5,3H4.5A1.5,1.5,0,0,0,3,4.5v6.75"/><path class="a" d="M8.5,7.5h7a1,1,0,0,1,1,1v2.75a0,0,0,0,1,0,0h-9a0,0,0,0,1,0,0V8.5A1,1,0,0,1,8.5,7.5Z"/></svg>