<svg xmlns="http://www.w3.org/2000/svg" viewBox="0 0 24 24"><defs><style>.a{fill:none;stroke:currentColor;stroke-linecap:round;stroke-linejoin:round;stroke-width:1.5px;}</style></defs><title>house-nature</title><line class="a" x1="11.25" y1="15.75" x2="11.25" y2="23.25"/><line class="a" x1="2.25" y1="23.25" x2="2.25" y2="15.75"/><polyline class="a" points="0.75 16.5 6.75 12 12.75 16.5"/><path class="a" d="M21.75,17.25a3,3,0,0,1-6,0c0-4.5,3-10.5,3-10.5S21.75,12.75,21.75,17.25Z"/><line class="a" x1="18.75" y1="20.25" x2="18.75" y2="23.25"/><line class="a" x1="0.75" y1="23.25" x2="23.25" y2="23.25"/><path class="a" d="M5.25,23.25v-3a1.5,1.5,0,0,1,3,0v3"/><path class="a" d="M8.25,6.75a2.25,2.25,0,1,0-1.622-3.8A2.995,2.995,0,1,0,3.75,6.75Z"/></svg>