<svg xmlns="http://www.w3.org/2000/svg" viewBox="0 0 24 24"><defs><style>.a{fill:none;stroke:currentColor;stroke-linecap:round;stroke-linejoin:round;stroke-width:1.5px;}</style></defs><title>house-modern</title><line class="a" x1="0.788" y1="20.571" x2="23.25" y2="20.571"/><polygon class="a" points="9.773 20.571 2.286 20.571 2.286 10.838 9.773 9.341 9.773 20.571"/><polygon class="a" points="21.753 20.571 9.773 20.571 9.773 4.101 21.753 9.341 21.753 20.571"/><path class="a" d="M12.768,8.967a.374.374,0,0,1,.374.374"/><path class="a" d="M12.393,9.341a.375.375,0,0,1,.375-.374"/><path class="a" d="M12.768,9.716a.375.375,0,0,1-.375-.375"/><path class="a" d="M13.142,9.341a.374.374,0,0,1-.374.375"/><path class="a" d="M18.758,20.571h-5.99V16.079a1.5,1.5,0,0,1,1.5-1.5h3a1.5,1.5,0,0,1,1.5,1.5Z"/><line class="a" x1="0.75" y1="11.146" x2="9.773" y2="9.341"/><line class="a" x1="8.238" y1="3.429" x2="23.246" y2="9.994"/><polyline class="a" points="18.758 8.022 18.758 4.101 21.753 4.101 21.753 9.341"/></svg>