<svg xmlns="http://www.w3.org/2000/svg" viewBox="0 0 24 24"><defs><style>.a{fill:none;stroke:currentColor;stroke-linecap:round;stroke-linejoin:round;stroke-width:1.5px;}</style></defs><title>house-apartment</title><polyline class="a" points="23.25 10.5 23.25 23.25 0.75 23.25 0.75 10.5"/><path class="a" d="M23.25,10.5H16.5a4.5,4.5,0,0,0-9,0H.75L3.424,1.809A1.5,1.5,0,0,1,4.858.75H19.142a1.5,1.5,0,0,1,1.434,1.059Z"/><path class="a" d="M13.5,13.5h-3V10.125C10.5,9.5,11.172,9,12,9s1.5.5,1.5,1.125Z"/><path class="a" d="M13.5,23.25h-3V18a1.5,1.5,0,0,1,3,0Z"/><line class="a" x1="3.75" y1="13.5" x2="6.75" y2="13.5"/><line class="a" x1="17.25" y1="13.5" x2="20.25" y2="13.5"/><rect class="a" x="3.75" y="16.5" width="3" height="3"/><rect class="a" x="17.25" y="16.5" width="3" height="3"/></svg>