<svg xmlns="http://www.w3.org/2000/svg" viewBox="0 0 24 24"><defs><style>.a{fill:none;stroke:currentColor;stroke-linecap:round;stroke-linejoin:round;stroke-width:1.5px;}</style></defs><title>house-garage</title><line class="a" x1="0.75" y1="22.825" x2="23.25" y2="22.825"/><rect class="a" x="2.25" y="9.325" width="19.5" height="13.5"/><path class="a" d="M23.25,7.525a.752.752,0,0,0-.4-.662l-10.5-5.6a.754.754,0,0,0-.706,0l-10.5,5.6a.752.752,0,0,0-.4.662v1.05a.75.75,0,0,0,.75.75h21a.75.75,0,0,0,.75-.75Z"/><rect class="a" x="5.25" y="12.325" width="13.5" height="10.5"/><line class="a" x1="8.25" y1="16.825" x2="15.75" y2="16.825"/><line class="a" x1="8.25" y1="19.825" x2="15.75" y2="19.825"/></svg>