<svg xmlns="http://www.w3.org/2000/svg" viewBox="0 0 24 24"><defs><style>.a{fill:none;stroke:currentColor;stroke-linecap:round;stroke-linejoin:round;stroke-width:1.5px;}</style></defs><title>house-1</title><path class="a" d="M3.75,18v3.75a1.5,1.5,0,0,0,1.5,1.5h4.5v-6a1.5,1.5,0,0,1,1.5-1.5h1.5a1.5,1.5,0,0,1,1.5,1.5v6h4.5a1.5,1.5,0,0,0,1.5-1.5V18"/><path class="a" d="M.75,16.5,10.939,6.311a1.5,1.5,0,0,1,2.122,0L23.25,16.5"/><polyline class="a" points="16.5 9.75 16.5 8.25 20.25 8.25 20.25 13.5"/><path class="a" d="M17.122.75l-.407.543a1.045,1.045,0,0,0,.16,1.436h0a1.045,1.045,0,0,1,.16,1.436l-.407.543"/><path class="a" d="M20.872.75l-.407.543a1.045,1.045,0,0,0,.16,1.436h0a1.045,1.045,0,0,1,.16,1.436l-.407.543"/></svg>