<svg xmlns="http://www.w3.org/2000/svg" viewBox="0 0 24 24"><defs><style>.a{fill:none;stroke:currentColor;stroke-linecap:round;stroke-linejoin:round;stroke-width:1.5px;}</style></defs><title>house-fire-1</title><path class="a" d="M21.4,13.447a5.381,5.381,0,0,0,.837-2.98,7.4,7.4,0,0,0-1.381-4.232.752.752,0,0,0-1.258.041,2.609,2.609,0,0,1-2.625,1.183,5.773,5.773,0,0,1-1.891-5.775.753.753,0,0,0-.811-.93A7.571,7.571,0,0,0,7.2,7.459a2.845,2.845,0,0,1-2.657-1.3A.753.753,0,0,0,3.322,6.08a6.79,6.79,0,0,0-1.145,6.656"/><path class="a" d="M4.772,18.738V23.25H9.284V18.738a1.5,1.5,0,0,1,1.5-1.5h1.5a1.5,1.5,0,0,1,1.5,1.5V23.25h4.512V18.738"/><path class="a" d="M1.764,17.986l8.712-8.712a1.5,1.5,0,0,1,2.127,0l8.712,8.712"/></svg>