<svg xmlns="http://www.w3.org/2000/svg" viewBox="0 0 24 24"><defs><style>.a{fill:none;stroke:currentColor;stroke-linecap:round;stroke-linejoin:round;stroke-width:1.5px;}</style></defs><title>house-heart</title><path class="a" d="M3.75,14v7.5A1.5,1.5,0,0,0,5.25,23h13.5a1.5,1.5,0,0,0,1.5-1.5V14"/><path class="a" d="M.75,12.629,10.939,2.439a1.5,1.5,0,0,1,2.122,0L23.25,12.629"/><polyline class="a" points="16.5 5.879 16.5 3.5 20.25 3.5 20.25 9.629"/><path class="a" d="M15.93,11.845a1.9,1.9,0,0,0-2.751,0L12,13.064l-1.179-1.219a1.9,1.9,0,0,0-2.751,0,2.06,2.06,0,0,0,0,2.845l3.511,3.631a.579.579,0,0,0,.838,0L15.93,14.69A2.06,2.06,0,0,0,15.93,11.845Z"/></svg>