<svg xmlns="http://www.w3.org/2000/svg" viewBox="0 0 24 24"><defs><style>.a{fill:none;stroke:currentColor;stroke-linecap:round;stroke-linejoin:round;stroke-width:1.5px;}</style></defs><title>house-user</title><path class="a" d="M16.5,22.5h2.25a1.5,1.5,0,0,0,1.5-1.5V13.5"/><path class="a" d="M3.75,13.5V21a1.5,1.5,0,0,0,1.5,1.5H7.5"/><path class="a" d="M.75,12.129,10.939,1.939a1.5,1.5,0,0,1,2.122,0L23.25,12.129"/><polyline class="a" points="16.5 5.379 16.5 3 20.25 3 20.25 9.129"/><circle class="a" cx="12" cy="9.75" r="2.25"/><path class="a" d="M12,13.5a3.75,3.75,0,0,0-3.75,3.75V18h1.5l.75,4.5h3l.75-4.5h1.5v-.75A3.75,3.75,0,0,0,12,13.5Z"/></svg>