<svg xmlns="http://www.w3.org/2000/svg" viewBox="0 0 24 24"><defs><style>.a{fill:none;stroke:currentColor;stroke-linecap:round;stroke-linejoin:round;stroke-width:1.5px;}</style></defs><title>human-resources-search-employees</title><path class="a" d="M.749,23.25A7.9,7.9,0,0,1,1.4,20.135c.47-.919,2.431-1.557,4.893-2.45.666-.241.557-1.943.262-2.261a4.753,4.753,0,0,1-1.279-3.73A3.2,3.2,0,0,1,8.019,8.272"/><path class="a" d="M11.4,13.1a4.187,4.187,0,0,1-1.169,2.323c-.295.318-.405,2.02.262,2.261,2.462.893,4.423,1.531,4.893,2.45a8.033,8.033,0,0,1,.666,3.115"/><path class="a" d="M19.367,23.25h2.368v-.817c0-2.894-2-3.361-4.007-4.1-.665-.247-.556-1.984-.262-2.308a4.349,4.349,0,0,0,1.2-2.551"/><circle class="a" cx="15.749" cy="6.014" r="5.25"/><line class="a" x1="23.249" y1="13.514" x2="19.461" y2="9.726"/></svg>