<svg xmlns="http://www.w3.org/2000/svg" viewBox="0 0 24 24"><defs><style>.a{fill:none;stroke:currentColor;stroke-linecap:round;stroke-linejoin:round;stroke-width:1.5px;}</style></defs><title>human-resources-network</title><path class="a" d="M23.25,23.25a6.73,6.73,0,0,0-6.337-4.5h-.006a6.729,6.729,0,0,0-6.336,4.5"/><path class="a" d="M13.353,11.031A6.857,6.857,0,0,0,21,12.567"/><circle class="a" cx="16.907" cy="13.125" r="4.125"/><line class="a" x1="16.778" y1="18.75" x2="16.778" y2="23.25"/><path class="a" d="M5.737,21.347A11.251,11.251,0,1,1,22.756,8.693q.073.24.137.483"/><path class="a" d="M7.981,19.4A26.115,26.115,0,0,1,7.076,7.565,16.281,16.281,0,0,1,9.289,1.078"/><line class="a" x1="0.775" y1="11.25" x2="9.75" y2="11.25"/><line class="a" x1="2.482" y1="6" x2="21.518" y2="6"/><line class="a" x1="1.686" y1="16.5" x2="9.75" y2="16.5"/><path class="a" d="M14.711,1.078A14.453,14.453,0,0,1,16.634,6"/></svg>