<svg xmlns="http://www.w3.org/2000/svg" viewBox="0 0 24 24"><defs><style>.a{fill:none;stroke:currentColor;stroke-linecap:round;stroke-linejoin:round;stroke-width:1.5px;}</style></defs><title>human-resources-offer-woman</title><line class="a" x1="0.749" y1="14.25" x2="0.749" y2="23.25"/><path class="a" d="M.749,21.75h15a3,3,0,0,0-3-3H9a3,3,0,0,0-3-3H.749"/><line class="a" x1="5.999" y1="18.75" x2="8.999" y2="18.75"/><path class="a" d="M18.261,12.077a7.262,7.262,0,0,0,4.988-1.339c-.75-.749-1.265-1.22-1.462-4.129C21.493,2.275,18.57.75,16.058.75s-5.435,1.525-5.729,5.859c-.2,2.909-.712,3.38-1.462,4.129a7.2,7.2,0,0,0,4.988,1.315"/><path class="a" d="M21.609,14.727c-.837-.326-1.773-.664-2.772-1.033a.882.882,0,0,1-.576-.827V11.258a.881.881,0,0,1,.287-.651,3.171,3.171,0,0,0,1.035-2.366v-2.2a5.72,5.72,0,0,1-3.525-1.994,5.72,5.72,0,0,1-3.525,1.994v2.2a3.173,3.173,0,0,0,1.035,2.366.881.881,0,0,1,.287.651v1.609a.882.882,0,0,1-.576.827c-1.018.377-1.971.72-2.82,1.052"/></svg>