<svg xmlns="http://www.w3.org/2000/svg" viewBox="0 0 24 24"><defs><style>.a{fill:none;stroke:currentColor;stroke-linecap:round;stroke-linejoin:round;stroke-width:1.5px;}</style></defs><title>human-resources-offer-woman-1</title><line class="a" x1="0.749" y1="14.25" x2="0.749" y2="23.25"/><path class="a" d="M.749,21.75h15a3,3,0,0,0-3-3H9a3,3,0,0,0-3-3H.749"/><line class="a" x1="5.999" y1="18.75" x2="8.999" y2="18.75"/><path class="a" d="M12.376,4.986v1a5.9,5.9,0,0,1-.86,3.272"/><path class="a" d="M20.623,4.986v1a5.9,5.9,0,0,0,.859,3.272"/><path class="a" d="M12.387,5.2a5.483,5.483,0,0,0,4.112-1.9,5.483,5.483,0,0,0,4.112,1.9"/><circle class="a" cx="16.499" cy="4.875" r="4.125"/><path class="a" d="M17.249,17.25h6a6.742,6.742,0,0,0-4.243-6.257L16.5,13.5l-2.507-2.507a6.783,6.783,0,0,0-3.374,2.949"/></svg>