<svg xmlns="http://www.w3.org/2000/svg" viewBox="0 0 24 24"><defs><style>.a{fill:none;stroke:currentColor;stroke-linecap:round;stroke-linejoin:round;stroke-width:1.5px;}</style></defs><title>human-resources-offer-employee</title><line class="a" x1="0.749" y1="14.25" x2="0.749" y2="23.25"/><path class="a" d="M.749,21.75h15a3,3,0,0,0-3-3H9a3,3,0,0,0-3-3H.749"/><line class="a" x1="5.999" y1="18.75" x2="8.999" y2="18.75"/><path class="a" d="M23.238,13.757c-.567-.975-2.635-1.668-5.227-2.628-.717-.266-.6-2.138-.282-2.488a5.292,5.292,0,0,0,1.377-4.1C19.106,2.2,17.578.75,15.749.75S12.392,2.2,12.392,4.538a5.292,5.292,0,0,0,1.377,4.1c.318.35.435,2.222-.282,2.488C11.128,12,9.2,12.655,8.449,13.5"/></svg>