<svg xmlns="http://www.w3.org/2000/svg" viewBox="0 0 24 24"><defs><style>.a{fill:none;stroke:currentColor;stroke-linecap:round;stroke-linejoin:round;stroke-width:1.5px;}</style></defs><title>human-resources-employee-previous-1</title><path class="a" d="M13.5,21.75A9.75,9.75,0,1,0,3.75,12v.75"/><polyline class="a" points="0.75 9.75 3.75 12.75 6.75 9.75"/><path class="a" d="M18.334,16.5c-.783-.336-1.729-.676-2.778-1.065-.652-.241-.545-1.943-.256-2.261a4.813,4.813,0,0,0,1.252-3.73A3.144,3.144,0,0,0,13.5,6a3.144,3.144,0,0,0-3.052,3.444,4.813,4.813,0,0,0,1.252,3.73c.289.318.4,2.02-.256,2.261-1.049.389-2,.729-2.778,1.065"/></svg>