<svg xmlns="http://www.w3.org/2000/svg" viewBox="0 0 24 24"><defs><style>.a{fill:none;stroke:currentColor;stroke-linecap:round;stroke-linejoin:round;stroke-width:1.5px;}</style></defs><title>human-resources-hierarchy-man</title><path class="a" d="M14.249,20.25h-1a.51.51,0,0,1-.5-.519V3.518a.509.509,0,0,1,.5-.518h1"/><line class="a" x1="10.499" y1="12" x2="12.749" y2="12"/><circle class="a" cx="19.499" cy="3" r="2.25"/><path class="a" d="M23.249,9A4.047,4.047,0,0,0,19.5,6a4.047,4.047,0,0,0-3.75,3Z"/><circle class="a" cx="19.499" cy="17.25" r="2.25"/><path class="a" d="M23.249,23.25a4.047,4.047,0,0,0-3.75-3,4.047,4.047,0,0,0-3.75,3Z"/><path class="a" d="M2.72,7.477A4.986,4.986,0,0,0,8.278,8.594"/><circle class="a" cx="5.305" cy="9" r="3"/><path class="a" d="M.805,18a4.5,4.5,0,0,1,9,0Z"/></svg>