<svg xmlns="http://www.w3.org/2000/svg" viewBox="0 0 24 24"><defs><style>.a{fill:none;stroke:currentColor;stroke-linecap:round;stroke-linejoin:round;stroke-width:1.5px;}</style></defs><title>human-resources-offer-man-1</title><line class="a" x1="0.749" y1="14.25" x2="0.749" y2="23.25"/><path class="a" d="M.749,21.75h15a3,3,0,0,0-3-3H9a3,3,0,0,0-3-3H.749"/><line class="a" x1="5.999" y1="18.75" x2="8.999" y2="18.75"/><path class="a" d="M10.722,13.763a6.751,6.751,0,0,1,12.527,3.494H16.5"/><path class="a" d="M12.944,2.788a6.848,6.848,0,0,0,4.93,2.094,6.851,6.851,0,0,0,2.713-.558"/><circle class="a" cx="16.499" cy="4.882" r="4.125"/><line class="a" x1="16.499" y1="10.507" x2="16.499" y2="13.507"/></svg>