<svg xmlns="http://www.w3.org/2000/svg" viewBox="0 0 24 24"><defs><style>.a{fill:none;stroke:currentColor;stroke-linecap:round;stroke-linejoin:round;stroke-width:1.5px;}</style></defs><title>human-resources-employee-stress</title><line class="a" x1="15.296" y1="18.458" x2="11.25" y2="23.25"/><path class="a" d="M20.259,23.256C19.331,19.849,16.054,18,12.018,18s-7.3,1.852-8.225,5.261"/><line class="a" x1="3" y1="1.866" x2="1.5" y2="0.75"/><line class="a" x1="3" y1="7.5" x2="1.5" y2="8.25"/><line class="a" x1="2.808" y1="4.5" x2="0.75" y2="4.5"/><line class="a" x1="21" y1="1.866" x2="22.5" y2="0.75"/><line class="a" x1="21" y1="7.5" x2="22.5" y2="8.25"/><line class="a" x1="21.192" y1="4.5" x2="23.25" y2="4.5"/><path class="a" d="M6,8.25V.75L9,3,12,.75,15,3,18,.75v7.5A24.375,24.375,0,0,1,6,8.25Z"/><path class="a" d="M18,8.25v1.5a6,6,0,0,1-6,6h0a6,6,0,0,1-6-6V8.25"/></svg>