<svg xmlns="http://www.w3.org/2000/svg" viewBox="0 0 24 24"><defs><style>.a{fill:none;stroke:currentColor;stroke-linecap:round;stroke-linejoin:round;stroke-width:1.5px;}</style></defs><title>human-resources-search-women</title><circle class="a" cx="15.365" cy="6" r="5.25"/><line class="a" x1="22.865" y1="13.5" x2="19.077" y2="9.712"/><path class="a" d="M6.8,7.635C4.775,8.4,3,10.261,2.76,13.769c-.22,3.255-.8,3.782-1.636,4.62a8.059,8.059,0,0,0,5.581,1.472"/><path class="a" d="M11.636,19.87a8.123,8.123,0,0,0,5.581-1.481c-.839-.838-1.416-1.365-1.637-4.62"/><path class="a" d="M16.144,23.158c-1.114-.461-2.432-.932-3.864-1.462a.986.986,0,0,1-.644-.925v-1.8a.985.985,0,0,1,.32-.727A3.552,3.552,0,0,0,13.115,15.6V13.13A6.405,6.405,0,0,1,9.17,10.9,6.4,6.4,0,0,1,5.226,13.13V15.6a3.55,3.55,0,0,0,1.159,2.648.987.987,0,0,1,.32.728v1.8a.986.986,0,0,1-.644.925c-1.432.53-2.75,1-3.864,1.461"/><path class="a" d="M19.726,19.824a7.259,7.259,0,0,0,3.482-1.4,4.071,4.071,0,0,1-1.391-2.564"/><path class="a" d="M22.251,23.245c-1.138-.476-2.5-.961-3.98-1.51"/></svg>