<svg xmlns="http://www.w3.org/2000/svg" viewBox="0 0 24 24"><defs><style>.a{fill:none;stroke:currentColor;stroke-linecap:round;stroke-linejoin:round;stroke-width:1.5px;}</style></defs><title>human-resources-woman-previous</title><path class="a" d="M13.5,21.75A9.75,9.75,0,1,0,3.75,12v.75"/><polyline class="a" points="0.75 9.75 3.75 12.75 6.75 9.75"/><path class="a" d="M9.377,9.486v1a5.9,5.9,0,0,1-.86,3.272"/><path class="a" d="M17.624,9.486v1a5.9,5.9,0,0,0,.859,3.272"/><path class="a" d="M9.388,9.7a5.483,5.483,0,0,0,4.112-1.9,5.483,5.483,0,0,0,4.112,1.9"/><circle class="a" cx="13.5" cy="9.375" r="4.125"/><path class="a" d="M18.42,17.139a6.783,6.783,0,0,0-2.413-1.646L13.5,18l-2.507-2.507A6.792,6.792,0,0,0,8.215,17.56"/></svg>