<svg xmlns="http://www.w3.org/2000/svg" viewBox="0 0 24 24"><defs><style>.a{fill:none;stroke:currentColor;stroke-linecap:round;stroke-linejoin:round;stroke-width:1.5px;}</style></defs><title>human-resources-workflow</title><circle class="a" cx="11.999" cy="9.75" r="2.25"/><path class="a" d="M15.749,15.75a4.047,4.047,0,0,0-3.75-3,4.047,4.047,0,0,0-3.75,3"/><circle class="a" cx="11.999" cy="2.625" r="1.875"/><circle class="a" cx="21.374" cy="12" r="1.875"/><circle class="a" cx="11.999" cy="21.375" r="1.875"/><circle class="a" cx="2.624" cy="12" r="1.875"/><path class="a" d="M16.5,4.2a9.041,9.041,0,0,1,3.3,3.3"/><path class="a" d="M19.8,16.5a9.041,9.041,0,0,1-3.3,3.3"/><path class="a" d="M7.5,19.8a9.041,9.041,0,0,1-3.3-3.3"/><path class="a" d="M4.2,7.5A9.041,9.041,0,0,1,7.5,4.2"/></svg>