<svg xmlns="http://www.w3.org/2000/svg" viewBox="0 0 24 24"><defs><style>.a{fill:none;stroke:currentColor;stroke-linecap:round;stroke-linejoin:round;stroke-width:1.5px;}</style></defs><title>human-resources-team-settings</title><circle class="a" cx="4.504" cy="17.625" r="2.625"/><path class="a" d="M8.254,23.25a4.25,4.25,0,0,0-7.5,0"/><circle class="a" cx="19.504" cy="17.625" r="2.625"/><path class="a" d="M23.254,23.25a4.25,4.25,0,0,0-7.5,0"/><circle class="a" cx="12.004" cy="3.375" r="2.625"/><path class="a" d="M15.253,8.25a4.269,4.269,0,0,0-6.5,0"/><path class="a" d="M9.055,19.707A8.28,8.28,0,0,0,15,19.689"/><path class="a" d="M6.353,6a8.216,8.216,0,0,0-2.6,6c0,.253.015.5.038.75"/><path class="a" d="M20.216,12.75c.023-.248.038-.5.038-.75a8.216,8.216,0,0,0-2.6-6"/><circle class="a" cx="12.004" cy="13.5" r="2.25"/><line class="a" x1="14.254" y1="13.5" x2="15.754" y2="13.5"/><line class="a" x1="8.254" y1="13.5" x2="9.754" y2="13.5"/><line class="a" x1="12.004" y1="15.75" x2="12.004" y2="17.25"/><line class="a" x1="12.004" y1="9.75" x2="12.004" y2="11.25"/><line class="a" x1="13.595" y1="15.091" x2="14.656" y2="16.151"/><line class="a" x1="9.352" y1="10.848" x2="10.413" y2="11.909"/><line class="a" x1="10.413" y1="15.091" x2="9.352" y2="16.151"/><line class="a" x1="14.656" y1="10.848" x2="13.595" y2="11.909"/></svg>