<svg id="Regular" xmlns="http://www.w3.org/2000/svg" viewBox="0 0 24 24"><defs><style>.cls-1{fill:none;stroke:currentColor;stroke-linecap:round;stroke-linejoin:round;stroke-width:1.5px;}</style></defs><title>ice-cream-truck</title><line class="cls-1" x1="6.75" y1="20.25" x2="12.75" y2="20.25"/><circle class="cls-1" cx="3.75" cy="20.25" r="3"/><circle class="cls-1" cx="17.25" cy="20.25" r="3"/><path class="cls-1" d="M20.25,20.25h1.5a1.5,1.5,0,0,0,1.5-1.5v-4.5"/><path class="cls-1" d="M14.25,20.25h-1.5v-4.5a1.5,1.5,0,0,0-1.5-1.5"/><path class="cls-1" d="M11.25,11.25a1.5,1.5,0,0,0,0,3h12v-1.5a1.5,1.5,0,0,0-1.5-1.5Z"/><path class="cls-1" d="M9.75,20.25a6,6,0,0,0-9-5.2"/><line class="cls-1" x1="12.75" y1="17.25" x2="8.947" y2="17.25"/><line class="cls-1" x1="3.75" y1="14.25" x2="3.75" y2="11.25"/><line class="cls-1" x1="0.75" y1="11.25" x2="6.75" y2="11.25"/><line class="cls-1" x1="14.25" y1="11.25" x2="14.25" y2="5.25"/><path class="cls-1" d="M22.532,4.168a1.5,1.5,0,0,1-.361,2.244A2.215,2.215,0,0,1,21,6.75a2.774,2.774,0,0,1-2.25-1.5,2.774,2.774,0,0,1-2.25,1.5,2.774,2.774,0,0,1-2.25-1.5A2.774,2.774,0,0,1,12,6.75a2.774,2.774,0,0,1-2.25-1.5A2.774,2.774,0,0,1,7.5,6.75a2.215,2.215,0,0,1-1.171-.338,1.5,1.5,0,0,1-.361-2.244C7.882,1.889,11.636.75,14.25.75S20.618,1.889,22.532,4.168Z"/><path class="cls-1" d="M9.75,5.25a4.323,4.323,0,0,1,4.5-4.5"/><path class="cls-1" d="M18.75,5.25a4.323,4.323,0,0,0-4.5-4.5"/></svg>