<svg id="Regular" xmlns="http://www.w3.org/2000/svg" viewBox="0 0 24 24"><defs><style>.cls-1{fill:none;stroke:currentColor;stroke-linecap:round;stroke-linejoin:round;stroke-width:1.5px;}</style></defs><title>ice-cream</title><path class="cls-1" d="M16.5,17.25h-9A1.5,1.5,0,0,1,6,15.75v-9a6,6,0,0,1,6-6h0a6,6,0,0,1,6,6v9A1.5,1.5,0,0,1,16.5,17.25Z"/><line class="cls-1" x1="12" y1="23.25" x2="12" y2="17.25"/><path class="cls-1" d="M12,7.5v.75a1.5,1.5,0,0,1-1.5,1.5h0A1.5,1.5,0,0,1,9,8.25v-3"/><path class="cls-1" d="M12,7.5A1.5,1.5,0,0,1,13.5,6h0A1.5,1.5,0,0,1,15,7.5V12"/></svg>