<svg id="Regular" xmlns="http://www.w3.org/2000/svg" viewBox="0 0 24 24"><defs><style>.cls-1{fill:none;stroke:currentColor;stroke-linecap:round;stroke-linejoin:round;stroke-width:1.5px;}</style></defs><title>ice-cream-bowl</title><path class="cls-1" d="M20.918,11.25A1.407,1.407,0,0,1,22.4,12.834,8.837,8.837,0,0,1,13.57,19.5a8.837,8.837,0,0,1-8.834-6.666A1.407,1.407,0,0,1,6.222,11.25Z"/><line class="cls-1" x1="13.57" y1="19.5" x2="13.57" y2="23.25"/><line class="cls-1" x1="10.57" y1="23.25" x2="16.57" y2="23.25"/><path class="cls-1" d="M6.143,11.252A3.751,3.751,0,1,1,13.57,10.5v.75"/><path class="cls-1" d="M21,11.252A3.751,3.751,0,1,0,13.57,10.5v.75"/><path class="cls-1" d="M17.32,6.75a3.75,3.75,0,0,0-7.5,0"/><line class="cls-1" x1="7.125" y1="7.892" x2="1.57" y2="0.75"/></svg>