<svg id="Regular" xmlns="http://www.w3.org/2000/svg" viewBox="0 0 24 24"><defs><style>.cls-1{fill:none;stroke:currentColor;stroke-linecap:round;stroke-linejoin:round;stroke-width:1.5px;}</style></defs><title>ice-cream-stand</title><circle class="cls-1" cx="12.724" cy="20.25" r="3"/><line class="cls-1" x1="3.724" y1="20.25" x2="3.724" y2="23.25"/><line class="cls-1" x1="8.224" y1="8.25" x2="8.224" y2="12.75"/><polyline class="cls-1" points="18.724 12.75 20.224 9.75 23.224 9.75"/><path class="cls-1" d="M4.84,6.75a4.084,4.084,0,0,1,3.14,1.5h.469a4.055,4.055,0,0,1,6.3,0,.906.906,0,0,0,.9-1.03,7.5,7.5,0,0,0-14.86,0,.906.906,0,0,0,.9,1.03A4.1,4.1,0,0,1,4.84,6.75Z"/><path class="cls-1" d="M9.724,20.25H3.8a1.573,1.573,0,0,1-1.573-1.573V12.75h16.5v5.927a1.573,1.573,0,0,1-1.573,1.573H15.724"/></svg>