<svg id="Regular" xmlns="http://www.w3.org/2000/svg" viewBox="0 0 24 24"><defs><style>.cls-1{fill:none;stroke:currentColor;stroke-linecap:round;stroke-linejoin:round;stroke-width:1.5px;}</style></defs><title>ice-cream-cone-1</title><path class="cls-1" d="M14.1,21.876a2.293,2.293,0,0,1-4.2,0L5.71,12.3A.75.75,0,0,1,6.4,11.25H17.6A.75.75,0,0,1,18.29,12.3Z"/><path class="cls-1" d="M11.25.75a1.5,1.5,0,0,0,1.5,1.5,3,3,0,0,1,2.829,2,.75.75,0,0,1-.707,1H9.75a3,3,0,0,0-2.829,2,.75.75,0,0,0,.707,1H14.25a3,3,0,0,1,3,3"/></svg>