<svg id="Regular" xmlns="http://www.w3.org/2000/svg" viewBox="0 0 24 24"><defs><style>.cls-1{fill:none;stroke:currentColor;stroke-linecap:round;stroke-linejoin:round;stroke-width:1.5px;}</style></defs><title>ice-clean</title><line class="cls-1" x1="21" y1="12.75" x2="21" y2="18"/><line class="cls-1" x1="18.75" y1="14.103" x2="23.25" y2="16.701"/><line class="cls-1" x1="18.75" y1="16.701" x2="23.25" y2="14.103"/><circle class="cls-1" cx="9.75" cy="17.992" r="3"/><path class="cls-1" d="M6.847,18.75H5.56a1.015,1.015,0,0,1-1.06-.962V10.5H12a1.5,1.5,0,0,1,1.423,1.026l.066.2A1.613,1.613,0,0,0,15,12.75h.943"/><path class="cls-1" d="M7.75,7.492h2.5a1,1,0,0,1,1,1V10.5a0,0,0,0,1,0,0H6.75a0,0,0,0,1,0,0V8.492A1,1,0,0,1,7.75,7.492Z"/><polyline class="cls-1" points="4.5 10.5 2.25 3 0.75 3"/><line class="cls-1" x1="12.596" y1="18.994" x2="16.122" y2="18.994"/><path class="cls-1" d="M20.25,21a5.25,5.25,0,0,1,0-10.5"/></svg>