<svg id="Regular" xmlns="http://www.w3.org/2000/svg" viewBox="0 0 24 24"><defs><style>.cls-1{fill:none;stroke:currentColor;stroke-linecap:round;stroke-linejoin:round;stroke-width:1.5px;}</style></defs><title>ice-water</title><path class="cls-1" d="M.75,19.322l1.458,1.246A2.008,2.008,0,0,0,3.5,21a2.012,2.012,0,0,0,1.293-.432l1.622-1.386a2.012,2.012,0,0,1,1.293-.432A2.008,2.008,0,0,1,9,19.182l1.623,1.386a2.151,2.151,0,0,0,2.586,0l1.622-1.386a2.151,2.151,0,0,1,2.586,0l1.623,1.386a2.151,2.151,0,0,0,2.586,0l1.622-1.386"/><path class="cls-1" d="M18.039,14.461l1,.857a2.151,2.151,0,0,0,2.586,0l1.622-1.386"/><path class="cls-1" d="M.75,14.072l1.458,1.246A2.008,2.008,0,0,0,3.5,15.75a2.012,2.012,0,0,0,1.293-.432l.976-.834"/><polyline class="cls-1" points="9.668 4.5 11.918 6 14.168 4.5"/><line class="cls-1" x1="11.918" y1="15" x2="11.918" y2="3"/><polyline class="cls-1" points="9.668 13.5 11.918 12 14.168 13.5"/><polyline class="cls-1" points="16.418 6.75 14.918 9 16.418 11.25"/><line class="cls-1" x1="5.918" y1="9" x2="17.918" y2="9"/><polyline class="cls-1" points="7.418 6.75 8.918 9 7.418 11.25"/></svg>