<svg xmlns="http://www.w3.org/2000/svg" viewBox="0 0 24 24"><defs><style>.a{fill:none;stroke:currentColor;stroke-linecap:round;stroke-linejoin:round;stroke-width:1.5px;}</style></defs><title>idea-settings</title><path class="a" d="M4.73,16.6l-1.308.066A1.828,1.828,0,0,1,2.1,13.484l.972-.877a1.83,1.83,0,0,0,0-2.715L2.1,9.015A1.828,1.828,0,0,1,3.422,5.832L4.73,5.9A1.828,1.828,0,0,0,6.649,3.979L6.582,2.671A1.828,1.828,0,0,1,9.765,1.353l.878.972a1.828,1.828,0,0,0,2.714,0l.878-.972a1.828,1.828,0,0,1,3.183,1.318l-.067,1.308A1.828,1.828,0,0,0,19.27,5.9l1.308-.066A1.828,1.828,0,0,1,21.9,9.015l-.972.877a1.83,1.83,0,0,0,0,2.715l.972.877a1.828,1.828,0,0,1-1.319,3.183L19.27,16.6"/><line class="a" x1="10.5" y1="22.5" x2="13.5" y2="22.5"/><path class="a" d="M17.25,12a5.25,5.25,0,1,0-6.75,5.006V19.5h3V17.006A5.234,5.234,0,0,0,17.25,12Z"/></svg>