<svg xmlns="http://www.w3.org/2000/svg" viewBox="0 0 24 24"><defs><style>.a{fill:none;stroke:currentColor;stroke-linecap:round;stroke-linejoin:round;stroke-width:1.5px;}</style></defs><title>idea-strategy</title><circle class="a" cx="3.414" cy="20.637" r="2.613"/><rect class="a" x="9.511" y="18.17" width="4.977" height="4.977"/><polygon class="a" points="23.199 23.147 17.226 23.147 20.212 17.672 23.199 23.147"/><path class="a" d="M15.733,4.585A3.733,3.733,0,1,0,10.507,8V9.811h2.986V8A3.73,3.73,0,0,0,15.733,4.585Z"/><polyline class="a" points="3.539 15.432 3.539 12.944 20.461 12.944 20.461 15.432"/><line class="a" x1="19.775" y1="5.229" x2="21.268" y2="5.229"/><line class="a" x1="19.466" y1="8.653" x2="20.521" y2="9.709"/><line class="a" x1="19.466" y1="1.806" x2="20.521" y2="0.75"/><line class="a" x1="4.225" y1="5.229" x2="2.732" y2="5.229"/><line class="a" x1="4.534" y1="8.653" x2="3.478" y2="9.709"/><line class="a" x1="4.534" y1="1.806" x2="3.478" y2="0.75"/><line class="a" x1="12" y1="9.811" x2="12" y2="14.935"/></svg>