<svg xmlns="http://www.w3.org/2000/svg" viewBox="0 0 24 24"><defs><style>.a{fill:none;stroke:currentColor;stroke-linecap:round;stroke-linejoin:round;stroke-width:1.5px;}</style></defs><title>idea-message</title><path class="a" d="M20.25,7.5a3,3,0,0,1,3,3v6.75a3,3,0,0,1-3,3h0v3l-5.25-3H8.25a3,3,0,0,1-3-3V10.5a3,3,0,0,1,3-3Z"/><path class="a" d="M.75,15.75V7.5a3,3,0,0,1,3-3h0V.75L9,4.5h6.75"/><path class="a" d="M15.75,12.75A2.25,2.25,0,1,0,12,14.416V15.75h3V14.416A2.236,2.236,0,0,0,15.75,12.75Z"/><line class="a" x1="13.5" y1="15.75" x2="13.5" y2="17.25"/></svg>