<svg xmlns="http://www.w3.org/2000/svg" viewBox="0 0 24 24"><defs><style>.a{fill:none;stroke:currentColor;stroke-linecap:round;stroke-linejoin:round;stroke-width:1.5px;}</style></defs><title>information-desk</title><circle class="a" cx="4.5" cy="12.75" r="2.625"/><path class="a" d="M8.25,20.25a3,3,0,0,0-3-3H3.75a3,3,0,0,0-3,3"/><circle class="a" cx="17.25" cy="6.75" r="6"/><line class="a" x1="17.25" y1="9.75" x2="17.25" y2="6.75"/><path class="a" d="M17.25,3.811a.375.375,0,1,0,.375.375.375.375,0,0,0-.375-.375"/><line class="a" x1="0.75" y1="23.25" x2="23.25" y2="23.25"/><path class="a" d="M15,23.25a3,3,0,0,1,6,0"/><line class="a" x1="18" y1="20.25" x2="18" y2="18.75"/></svg>