<svg xmlns="http://www.w3.org/2000/svg" viewBox="0 0 24 24"><defs><style>.a{fill:none;stroke:currentColor;stroke-linecap:round;stroke-linejoin:round;stroke-width:1.5px;}</style></defs><title>information-desk-paper</title><circle class="a" cx="3" cy="4.8" r="2.25"/><circle class="a" cx="21" cy="4.8" r="2.25"/><polyline class="a" points="17.25 22.05 13.5 22.05 12.75 13.05 13.5 13.05"/><line class="a" x1="11.25" y1="13.05" x2="12.75" y2="13.05"/><path class="a" d="M21,22.05a1.5,1.5,0,0,1-1.5-1.5V13.64a7.424,7.424,0,0,1-4.794.88,1.5,1.5,0,0,1,.575-2.944,4.355,4.355,0,0,0,4.433-2.3,1.5,1.5,0,0,1,2.786.772v10.5A1.5,1.5,0,0,1,21,22.05Z"/><path class="a" d="M3,22.05a1.5,1.5,0,0,1-1.5-1.5V10.05A1.5,1.5,0,0,1,3.671,8.708,3.371,3.371,0,0,0,8.408,7.129a1.5,1.5,0,0,1,2.684,1.342A6.469,6.469,0,0,1,4.5,12.1v8.45A1.5,1.5,0,0,1,3,22.05Z"/><polyline class="a" points="9.289 6.372 10.946 1.951 15.16 3.53 13.054 9.149 11.111 8.42"/></svg>