<svg xmlns="http://www.w3.org/2000/svg" viewBox="0 0 24 24"><defs><style>.a{fill:none;stroke:currentColor;stroke-linecap:round;stroke-linejoin:round;stroke-width:1.5px;}</style></defs><title>information-desk-hi</title><circle class="a" cx="6.75" cy="11.25" r="3"/><line class="a" x1="3.75" y1="23.25" x2="3.75" y2="20.25"/><path class="a" d="M9.75,23.25V19.171l1.765,1.412a3,3,0,0,0,3.995-.221l2.8-2.8a1.5,1.5,0,1,0-2.122-2.121l-2.8,2.8-1.879-1.5A4.5,4.5,0,0,0,8.7,15.75H5.25a4.5,4.5,0,0,0-4.5,4.5v3"/><line class="a" x1="14.25" y1="3.75" x2="14.25" y2="6.75"/><line class="a" x1="17.25" y1="3.75" x2="17.25" y2="6.75"/><line class="a" x1="14.25" y1="5.25" x2="17.25" y2="5.25"/><line class="a" x1="20.25" y1="3.75" x2="20.25" y2="6.75"/><path class="a" d="M21.75.75h-9a1.5,1.5,0,0,0-1.5,1.5v6a1.5,1.5,0,0,0,1.5,1.5h1.5v3l3.75-3h3.75a1.5,1.5,0,0,0,1.5-1.5v-6A1.5,1.5,0,0,0,21.75.75Z"/></svg>