<svg xmlns="http://www.w3.org/2000/svg" viewBox="0 0 24 24"><defs><style>.a{fill:none;stroke:currentColor;stroke-linecap:round;stroke-linejoin:round;stroke-width:1.5px;}</style></defs><title>information-desk-ticket</title><circle class="a" cx="17.25" cy="3.375" r="2.625"/><line class="a" x1="17.25" y1="19.5" x2="17.25" y2="23.25"/><path class="a" d="M20.25,23.25V15a1.5,1.5,0,0,0,3,0V12a4.5,4.5,0,0,0-4.5-4.5H16.1a4.5,4.5,0,0,0-4.025,2.488l-.177.354A3,3,0,0,1,9.218,12H9a1.5,1.5,0,0,0,0,3h.218a5.956,5.956,0,0,0,5.032-2.748v11"/><line class="a" x1="20.25" y1="15" x2="20.25" y2="12"/><circle class="a" cx="4.5" cy="4.5" r="2.25"/><path class="a" d="M.75,11.25a3,3,0,0,1,3-3h3L9.971,5.029"/><line class="a" x1="0.75" y1="14.25" x2="7.7" y2="14.25"/><line class="a" x1="2.25" y1="23.25" x2="2.25" y2="14.25"/><rect class="a" x="9.75" y="0.75" width="3" height="4.5" rx="0.5" ry="0.5"/></svg>