<svg id="Regular" xmlns="http://www.w3.org/2000/svg" viewBox="0 0 24 24"><defs><style>.cls-1{fill:none;stroke:currentColor;stroke-linecap:round;stroke-linejoin:round;stroke-width:1.5px;}</style></defs><title>insect-scorpion</title><path class="cls-1" d="M11.01,6.75V15a3,3,0,0,0,6,0V6.75Z"/><path class="cls-1" d="M11.01,6.75s-1.25,3-2.5,3S7.26,6,7.26,6"/><path class="cls-1" d="M9.51,3c0,1.657-1.007,3-2.25,3S5.01,4.657,5.01,3V.75l2.25,1.5L9.51.75Z"/><path class="cls-1" d="M17.01,6.75s1.25,3,2.5,3S20.76,6,20.76,6"/><path class="cls-1" d="M18.51,3c0,1.657,1.007,3,2.25,3s2.25-1.343,2.25-3V.75l-2.25,1.5L18.51.75Z"/><path class="cls-1" d="M14.01,18s0,5.25-5.25,5.25-5.25-6-5.25-6"/><path class="cls-1" d="M5.7,14.5A5.5,5.5,0,0,0,3.51,11.25L2.76,13.5,1.26,15a2.25,2.25,0,0,0,4.5,0A2.22,2.22,0,0,0,5.7,14.5Z"/><path class="cls-1" d="M17.01,12.75a2.078,2.078,0,0,0,3,0"/><path class="cls-1" d="M16.934,15.674a2.04,2.04,0,0,0,3.076.076"/><path class="cls-1" d="M11.01,12.749a2.078,2.078,0,0,1-3,0"/><path class="cls-1" d="M11.086,15.673a2.039,2.039,0,0,1-3.076.076"/><line class="cls-1" x1="12.51" y1="6.75" x2="12.51" y2="5.25"/><line class="cls-1" x1="15.51" y1="6.75" x2="15.51" y2="5.25"/><line class="cls-1" x1="14.01" y1="10.5" x2="14.01" y2="12.75"/></svg>