<svg id="Regular" xmlns="http://www.w3.org/2000/svg" viewBox="0 0 24 24"><defs><style>.cls-1{fill:none;stroke:currentColor;stroke-linecap:round;stroke-linejoin:round;stroke-width:1.5px;}</style></defs><title>insect-colony</title><circle class="cls-1" cx="5.491" cy="4.253" r="1.5"/><ellipse class="cls-1" cx="3.53" cy="11.103" rx="2.625" ry="1.5" transform="translate(-8.116 11.439) rotate(-74.017)"/><line class="cls-1" x1="5.216" y1="2.778" x2="4.876" y2="0.956"/><line class="cls-1" x1="6.506" y1="3.148" x2="7.76" y2="1.782"/><path class="cls-1" d="M5.581,5.751a1.884,1.884,0,0,0,2.336.931"/><path class="cls-1" d="M4.882,8.62A1.964,1.964,0,0,0,7.136,9.4"/><path class="cls-1" d="M4.623,5.476a1.882,1.882,0,0,1-2.474-.447"/><path class="cls-1" d="M3.7,8.281a1.967,1.967,0,0,1-2.329-.528"/><circle class="cls-1" cx="19.36" cy="6.579" r="1.5"/><ellipse class="cls-1" cx="20.444" cy="13.621" rx="1.5" ry="2.625" transform="matrix(0.988, -0.152, 0.152, 0.988, -1.834, 3.268)"/><line class="cls-1" x1="18.493" y1="5.354" x2="17.421" y2="3.842"/><line class="cls-1" x1="19.819" y1="5.15" x2="20.387" y2="3.385"/><path class="cls-1" d="M20.068,7.9a1.884,1.884,0,0,0,2.511-.132"/><path class="cls-1" d="M20.638,10.8a1.966,1.966,0,0,0,2.372-.233"/><path class="cls-1" d="M19.083,8.053a1.882,1.882,0,0,1-2.434.629"/><path class="cls-1" d="M19.412,10.992a1.967,1.967,0,0,1-2.332.491"/><circle class="cls-1" cx="13.15" cy="16.95" r="1.5"/><ellipse class="cls-1" cx="7.324" cy="21.053" rx="2.625" ry="1.5" transform="translate(-10.787 8.059) rotate(-35.159)"/><line class="cls-1" x1="13.86" y1="15.629" x2="14.738" y2="13.996"/><line class="cls-1" x1="14.633" y1="16.726" x2="16.466" y2="16.449"/><path class="cls-1" d="M12.28,18.173c-.132.759-.017,1.517,1.235,2.19"/><path class="cls-1" d="M9.934,19.971A1.968,1.968,0,0,0,11.2,21.994"/><path class="cls-1" d="M11.705,17.358c-.759-.132-1.433-.5-1.646-1.9"/><path class="cls-1" d="M9.222,18.96a1.965,1.965,0,0,1-1.479-1.871"/><circle class="cls-1" cx="19.819" cy="9.561" r="0.75"/><circle class="cls-1" cx="10.697" cy="18.678" r="0.75"/><circle class="cls-1" cx="4.665" cy="7.137" r="0.75"/></svg>