<svg id="Regular" xmlns="http://www.w3.org/2000/svg" viewBox="0 0 24 24"><defs><style>.cls-1{fill:none;stroke:currentColor;stroke-linecap:round;stroke-linejoin:round;stroke-width:1.5px;}</style></defs><title>insect-4</title><path class="cls-1" d="M16.76,13.838V18.75c0,2.485-2.351,4.5-5.25,4.5s-5.25-2.015-5.25-4.5V13.838"/><path class="cls-1" d="M9.941,8.054a6.107,6.107,0,0,1,3.138,0"/><path class="cls-1" d="M13.01,7.849s1.95,6,3.9,6c1.3,0,1.3-3.75,0-5.25A3.266,3.266,0,0,0,13.01,7.849Z"/><path class="cls-1" d="M10.01,7.849s-1.95,6-3.9,6c-1.3,0-1.3-3.75,0-5.25A3.266,3.266,0,0,1,10.01,7.849Z"/><path class="cls-1" d="M13.76,4.5s1.5-3,6-3.75"/><path class="cls-1" d="M10.01,4.5s-1.5-3-6-3.75"/></svg>