<svg id="Regular" xmlns="http://www.w3.org/2000/svg" viewBox="0 0 24 24"><defs><style>.cls-1{fill:none;stroke:currentColor;stroke-linecap:round;stroke-linejoin:round;stroke-width:1.5px;}</style></defs><title>insect-cricket-body</title><path class="cls-1" d="M12.016,10.5l-9-3C.764,6.75.764,3,3.764,3"/><path class="cls-1" d="M3.014,7.5s-3.75,4.5,6,7.5,14.25-.75,14.25-.75L15.009,11.5"/><path class="cls-1" d="M21.764,19.5h-2.25l-3-14.25-4.5,5.25c-.75,1.5,0,2.25,0,2.25"/><polyline class="cls-1" points="5.28 13.457 3.014 19.5 1.514 19.5"/><polyline class="cls-1" points="9.864 15.248 9.014 19.5 7.514 19.5"/><path class="cls-1" d="M6.389,10.5a.375.375,0,0,1,.375.375"/><path class="cls-1" d="M6.014,10.875a.375.375,0,0,1,.375-.375"/><path class="cls-1" d="M6.389,11.25a.375.375,0,0,1-.375-.375"/><path class="cls-1" d="M6.764,10.875a.375.375,0,0,1-.375.375"/></svg>