<svg id="Regular" xmlns="http://www.w3.org/2000/svg" viewBox="0 0 24 24"><defs><style>.cls-1{fill:none;stroke:currentColor;stroke-linecap:round;stroke-linejoin:round;stroke-width:1.5px;}</style></defs><title>insect-earth</title><circle class="cls-1" cx="10.22" cy="10.88" r="1.5"/><ellipse class="cls-1" cx="8.258" cy="17.73" rx="2.625" ry="1.5" transform="translate(-11.06 20.787) rotate(-74.017)"/><line class="cls-1" x1="9.945" y1="9.405" x2="9.604" y2="7.583"/><line class="cls-1" x1="11.235" y1="9.775" x2="12.488" y2="8.409"/><path class="cls-1" d="M10.31,12.378a1.882,1.882,0,0,0,2.335.93"/><path class="cls-1" d="M9.615,15.255a1.967,1.967,0,0,0,2.25.777"/><path class="cls-1" d="M9.351,12.1a1.882,1.882,0,0,1-2.474-.447"/><path class="cls-1" d="M8.417,14.912A1.967,1.967,0,0,1,6.1,14.38"/><path class="cls-1" d="M2.26.75h3a3.25,3.25,0,0,1,1.5,3A6.846,6.846,0,0,1,6,6.506,11.067,11.067,0,0,0,2.26,15c0,4.97,2.25,8.25,7.125,8.25,3.935,0,7.125-5.53,7.125-10.5,0-4.3-2.393-6.767-5.586-7.355A3.661,3.661,0,0,1,10.51,3.75a2.747,2.747,0,0,1,3-3h8.25"/><circle class="cls-1" cx="9.493" cy="13.993" r="0.75"/></svg>