<svg id="Regular" xmlns="http://www.w3.org/2000/svg" viewBox="0 0 24 24"><defs><style>.cls-1{fill:none;stroke:currentColor;stroke-linecap:round;stroke-linejoin:round;stroke-width:1.5px;}</style></defs><title>insect-catch</title><path class="cls-1" d="M23.26,21.174a.576.576,0,0,1-.576.576H15.76l1.5-3h2.894a3,3,0,0,1,2.5,1.336l.512.769A.573.573,0,0,1,23.26,21.174Z"/><path class="cls-1" d="M17.26,18.75l-1.1-.827a4.523,4.523,0,0,0-4.147-.673"/><line class="cls-1" x1="16.51" y1="21.75" x2="16.51" y2="23.25"/><line class="cls-1" x1="19.51" y1="21.75" x2="19.51" y2="23.25"/><line class="cls-1" x1="21.01" y1="21.75" x2="22.51" y2="23.25"/><path class="cls-1" d="M12.01,21a7.105,7.105,0,0,0,3.177.75h.573"/><ellipse class="cls-1" cx="15.835" cy="5.026" rx="5.25" ry="3" transform="translate(1.084 12.669) rotate(-45)"/><path class="cls-1" d="M12.123,8.738c5.834,5.834,9.016,4.773,11.137,3.713-1.591-1.591,0-3.182,0-5.3S22.73,4.5,19.548,1.314"/><line class="cls-1" x1="12.123" y1="8.738" x2="0.76" y2="20.101"/></svg>