<svg id="Regular" xmlns="http://www.w3.org/2000/svg" viewBox="0 0 24 24"><defs><style>.cls-1{fill:none;stroke:currentColor;stroke-linecap:round;stroke-linejoin:round;stroke-width:1.5px;}</style></defs><title>insect-1</title><path class="cls-1" d="M15.75,12.5A7.5,7.5,0,0,0,7.513,5.035,7.718,7.718,0,0,0,.75,12.822V14a1.5,1.5,0,0,0,1.5,1.5"/><line class="cls-1" x1="7.5" y1="15.5" x2="12.75" y2="15.5"/><path class="cls-1" d="M14.075,7.775l.175-.525s1.5-4.5,6-3.75"/><path class="cls-1" d="M18,15.5h2.25c3,0,3-6,3-6s-4.5.75-4.5-2.25"/><polyline class="cls-1" points="5.25 13.25 3.75 19.25 2.25 19.25"/><polyline class="cls-1" points="15 14.75 16.5 19.25 18 19.25"/><polyline class="cls-1" points="10.5 15.5 9.75 19.25 8.25 19.25"/><path class="cls-1" d="M18.375,11.75a.375.375,0,0,0-.375.375"/><path class="cls-1" d="M18.75,12.125a.375.375,0,0,0-.375-.375"/><path class="cls-1" d="M18.375,12.5a.375.375,0,0,0,.375-.375"/><path class="cls-1" d="M18,12.125a.375.375,0,0,0,.375.375"/></svg>