<svg id="Regular" xmlns="http://www.w3.org/2000/svg" viewBox="0 0 24 24"><defs><style>.cls-1{fill:none;stroke:currentColor;stroke-linecap:round;stroke-linejoin:round;stroke-width:1.5px;}</style></defs><title>insect-ant</title><ellipse class="cls-1" cx="12.01" cy="7.5" rx="2.25" ry="3"/><circle class="cls-1" cx="12.01" cy="12" r="1.5"/><path class="cls-1" d="M15.01,18c0,3-2.25,5.25-3,5.25s-3-2.25-3-5.25c0-2.486,1.343-4.5,3-4.5S15.01,15.514,15.01,18Z"/><polyline class="cls-1" points="13.322 5.063 14.26 2.25 17.26 0.75"/><polyline class="cls-1" points="10.698 5.063 9.76 2.25 6.76 0.75"/><path class="cls-1" d="M13.322,9.937l3.387-.677a3,3,0,0,0,1.984-1.4L20.26,5.25"/><path class="cls-1" d="M13.51,12l3.33.555A3,3,0,0,0,19,12.092l1.263-.842"/><path class="cls-1" d="M14.41,15.3l2.683,2.012a3,3,0,0,1,1.142,1.812l.525,2.626"/><path class="cls-1" d="M10.7,9.937,7.311,9.26a3,3,0,0,1-1.984-1.4L3.76,5.25"/><path class="cls-1" d="M10.51,12l-3.33.555a3,3,0,0,1-2.157-.463L3.76,11.25"/><path class="cls-1" d="M9.61,15.3,6.927,17.312a3,3,0,0,0-1.142,1.812L5.26,21.75"/></svg>