<svg id="Regular" xmlns="http://www.w3.org/2000/svg" viewBox="0 0 24 24"><defs><style>.cls-1{fill:none;stroke:currentColor;stroke-linecap:round;stroke-linejoin:round;stroke-width:1.5px;}</style></defs><title>insect</title><path class="cls-1" d="M5.25,16c-2.485,0-4.5-1.265-4.5-3.75,0-3,3-5.25,6-5.25h6v9Z"/><path class="cls-1" d="M12.75,7S14.25,3.25,18,3.25c3,0,3.75,1.5,3.75,1.5"/><path class="cls-1" d="M12.75,16h6c4.5,0,4.5-5.25,4.5-5.25S19.342,11.933,18,9.25A7.345,7.345,0,0,1,17.25,4l.242-.727"/><path class="cls-1" d="M2.25,20.5A4.5,4.5,0,0,1,6.75,16"/><path class="cls-1" d="M8.25,20.5a4.5,4.5,0,0,1,4.5-4.5"/><path class="cls-1" d="M14.25,16a4.5,4.5,0,0,1,4.5,4.5"/><path class="cls-1" d="M16.125,12.25a.375.375,0,0,1,.375.375"/><path class="cls-1" d="M15.75,12.625a.375.375,0,0,1,.375-.375"/><path class="cls-1" d="M16.125,13a.375.375,0,0,1-.375-.375"/><path class="cls-1" d="M16.5,12.625a.375.375,0,0,1-.375.375"/></svg>