<svg id="Regular" xmlns="http://www.w3.org/2000/svg" viewBox="0 0 24 24"><defs><style>.cls-1{fill:none;stroke:currentColor;stroke-linecap:round;stroke-linejoin:round;stroke-width:1.5px;}</style></defs><title>insect-2</title><path class="cls-1" d="M16.885,10.125a1.281,1.281,0,0,1-.375-.906V8.25a1.5,1.5,0,0,0-1.5-1.5h-6a1.5,1.5,0,0,0-1.5,1.5v.969a1.281,1.281,0,0,1-.375.906,1.279,1.279,0,0,0-.375.9V19.5c0,1.656,1.5,3.75,5.25,3.75s5.25-2.094,5.25-3.75V11.03A1.279,1.279,0,0,0,16.885,10.125Z"/><path class="cls-1" d="M8.344,6.905A12.352,12.352,0,0,1,6.76,2.25C6.76.535,8.26.75,9.01.75"/><path class="cls-1" d="M15.676,6.905A12.352,12.352,0,0,0,17.26,2.25c0-1.715-1.5-1.5-2.25-1.5"/><line class="cls-1" x1="7.015" y1="3.75" x2="8.26" y2="3.75"/><line class="cls-1" x1="17.005" y1="3.75" x2="15.76" y2="3.75"/><path class="cls-1" d="M3.01,14.25a3.049,3.049,0,0,0,3.75,0"/><path class="cls-1" d="M3.01,18.083a3.049,3.049,0,0,0,3.75,0"/><path class="cls-1" d="M21.01,14.25a3.049,3.049,0,0,1-3.75,0"/><path class="cls-1" d="M21.01,18.083a3.049,3.049,0,0,1-3.75,0"/><polyline class="cls-1" points="7.502 9.364 12.01 15 16.518 9.364"/><line class="cls-1" x1="12.01" y1="15" x2="12.01" y2="23.25"/></svg>