<svg id="Regular" xmlns="http://www.w3.org/2000/svg" viewBox="0 0 24 24"><defs><style>.cls-1{fill:none;stroke:currentColor;stroke-linecap:round;stroke-linejoin:round;stroke-width:1.5px;}</style></defs><title>insect-centipede</title><path class="cls-1" d="M6.01,7.5a2.25,2.25,0,0,1,0-4.5h8.25a9,9,0,1,1,0,18H9.01a2.25,2.25,0,1,1,0-4.5h5.25a4.5,4.5,0,1,0,0-9Z"/><path class="cls-1" d="M4.17,3.955A3.64,3.64,0,0,0,.76,3.75"/><path class="cls-1" d="M4.17,6.545A3.646,3.646,0,0,1,.76,6.75"/><path class="cls-1" d="M7.193,17.423,3.76,16.05s0-1.2,2.25-1.8"/><path class="cls-1" d="M7.193,20.077,3.76,21.45s0,1.2,2.25,1.8"/><path class="cls-1" d="M12.76,16.5a4.781,4.781,0,0,0,0,4.5"/><path class="cls-1" d="M9.76,7.5a4.781,4.781,0,0,0,0-4.5"/><path class="cls-1" d="M14.446,7.5a4.78,4.78,0,0,0,0-4.5"/><path class="cls-1" d="M18.133,9.707a4.8,4.8,0,0,0,3.129-3.362"/><path class="cls-1" d="M18.064,14.405a4.8,4.8,0,0,0,3.325,3.089"/><path class="cls-1" d="M8.26,3s.75-1.5,0-2.25"/><path class="cls-1" d="M8.26,7.5s.75,1.5,0,2.25"/><path class="cls-1" d="M14.26,3s.75-1.5,0-2.25"/><path class="cls-1" d="M20.119,5.168l.311-.186s1.44-.859,1.213-1.895"/><path class="cls-1" d="M14.26,7.5s.75,1.5,0,2.25"/><path class="cls-1" d="M12.01,21s-.75,1.5,0,2.25"/><path class="cls-1" d="M12.01,16.5s-.75-1.5,0-2.25"/><path class="cls-1" d="M20.473,18.511c.146.385.635,1.473,1.508,1.493"/><path class="cls-1" d="M17.45,15.174l-.135-.048S15.737,14.56,15.76,13.5"/></svg>