<svg id="Regular" xmlns="http://www.w3.org/2000/svg" viewBox="0 0 24 24"><defs><style>.cls-1{fill:none;stroke:currentColor;stroke-linecap:round;stroke-linejoin:round;stroke-width:1.5px;}</style></defs><title>insect-mantis</title><path class="cls-1" d="M15.638,10.042c-1.294,2.589-3.057,2.966-3.673,2.966s-2.389-.4-3.673-2.966"/><ellipse class="cls-1" cx="15.981" cy="7.532" rx="1.825" ry="2.556"/><ellipse class="cls-1" cx="7.949" cy="7.532" rx="1.825" ry="2.556"/><path class="cls-1" d="M8.652,5.172a7.554,7.554,0,0,1,3.313-.926,7.544,7.544,0,0,1,3.313.926"/><path class="cls-1" d="M14.886,2.786a5.584,5.584,0,0,1,3.65-1.461,6.394,6.394,0,0,1,4.381,1.461"/><path class="cls-1" d="M9.044,2.786a5.584,5.584,0,0,0-3.65-1.461A6.394,6.394,0,0,0,1.013,2.786"/><path class="cls-1" d="M14.156,21.039l3.8-6.968a1.461,1.461,0,0,1,1.856-.644,5.044,5.044,0,0,1,3.105,3.231,6.34,6.34,0,0,1-1.46,5.842s-.8-5.566-4.874-5.911"/><path class="cls-1" d="M9.775,21.039l-3.8-6.968a1.461,1.461,0,0,0-1.856-.644,5.044,5.044,0,0,0-3.105,3.231A6.34,6.34,0,0,0,2.473,22.5s.8-5.566,4.874-5.911"/></svg>