<svg id="Regular" xmlns="http://www.w3.org/2000/svg" viewBox="0 0 24 24"><defs><style>.cls-1{fill:none;stroke:currentColor;stroke-linecap:round;stroke-linejoin:round;stroke-width:1.5px;}</style></defs><title>insect-centipede-1</title><path class="cls-1" d="M7.819,3.825a4.037,4.037,0,1,0,0,8.074,4.443,4.443,0,0,1,4.191,4.352V18.5A4.407,4.407,0,0,0,16.444,23,4.553,4.553,0,0,0,21.01,18.46V16.946A13.156,13.156,0,0,0,7.819,3.825Z"/><circle class="cls-1" cx="16.51" cy="17.751" r="1.5"/><path class="cls-1" d="M20.234,20.993a4.9,4.9,0,0,0,3.026-1.571"/><path class="cls-1" d="M20.956,15.751a5.766,5.766,0,0,0,2.3-3.25"/><path class="cls-1" d="M19.792,11.432c.828-.978,1.844-2.55,1.536-4.122"/><path class="cls-1" d="M17.3,7.825A5.366,5.366,0,0,0,18.76,4.251"/><path class="cls-1" d="M14.192,5.455A10.268,10.268,0,0,0,14.64,2"/><path class="cls-1" d="M10.84,4.171A4.452,4.452,0,0,0,9.76,1"/><path class="cls-1" d="M7.743,3.826c-.074-.413-.459-1.576-2.483-2.4"/><path class="cls-1" d="M5.28,4.713a3.688,3.688,0,0,0-3.02-.632"/><path class="cls-1" d="M13.667,22.042a4.847,4.847,0,0,1-4.907-.063"/><path class="cls-1" d="M12.012,18.324a4.286,4.286,0,0,1-4.46-.628"/><path class="cls-1" d="M10.149,12.7A3.679,3.679,0,0,1,6.01,13.76"/><path class="cls-1" d="M5.227,10.969a3.933,3.933,0,0,1-3.467.271"/><path class="cls-1" d="M3.761,7.95a2.913,2.913,0,0,1-3-.7"/></svg>