<svg id="Regular" xmlns="http://www.w3.org/2000/svg" viewBox="0 0 24 24"><defs><style>.cls-1{fill:none;stroke:currentColor;stroke-linecap:round;stroke-linejoin:round;stroke-width:1.5px;}</style></defs><title>insect-catch-1</title><path class="cls-1" d="M18.01,13.674a.576.576,0,0,1-.576.576H10.51l1.5-3H14.9a3,3,0,0,1,2.5,1.336l.512.769A.573.573,0,0,1,18.01,13.674Z"/><path class="cls-1" d="M12.01,11.25l-1.1-.827A4.523,4.523,0,0,0,6.76,9.75"/><line class="cls-1" x1="11.26" y1="14.25" x2="11.26" y2="15.75"/><line class="cls-1" x1="14.26" y1="14.25" x2="14.26" y2="15.75"/><line class="cls-1" x1="15.76" y1="14.25" x2="17.26" y2="15.75"/><path class="cls-1" d="M6.76,13.5a7.105,7.105,0,0,0,3.177.75h.573"/><path class="cls-1" d="M2.76,5.25h18.5a2,2,0,0,1,2,2v15a1,1,0,0,1-1,1H1.76a1,1,0,0,1-1-1v-15A2,2,0,0,1,2.76,5.25Z"/><path class="cls-1" d="M17.26,5.25V3.75a3,3,0,0,0-3-3H9.76a3,3,0,0,0-3,3v1.5"/><line class="cls-1" x1="0.76" y1="18.75" x2="23.26" y2="18.75"/></svg>