<svg id="Regular" xmlns="http://www.w3.org/2000/svg" viewBox="0 0 24 24"><defs><style>.cls-1{fill:none;stroke:currentColor;stroke-linecap:round;stroke-linejoin:round;stroke-width:1.5px;}</style></defs><title>insect-head</title><path class="cls-1" d="M7.994,8.54a5.729,5.729,0,0,1,4.516-2.3,5.727,5.727,0,0,1,4.515,2.3"/><path class="cls-1" d="M18.479,13.922c-.309,4.4-2.864,5.063-5.969,5.063s-5.66-.659-5.969-5.063"/><ellipse class="cls-1" cx="17.385" cy="11.485" rx="1.875" ry="3"/><ellipse class="cls-1" cx="7.635" cy="11.485" rx="1.875" ry="3"/><path class="cls-1" d="M7.355,16.917c-.645,3.866,1.141,5.457,1.766,5.93a.749.749,0,0,0,1.2-.523,17.154,17.154,0,0,1,.712-3.406"/><path class="cls-1" d="M17.665,16.917c.645,3.866-1.141,5.457-1.766,5.93a.749.749,0,0,1-1.2-.523,17.154,17.154,0,0,0-.712-3.406"/><path class="cls-1" d="M13.929,6.425,16.26.985a8.137,8.137,0,0,1,6,6"/><path class="cls-1" d="M10.437,6.648,8.01.985a8.137,8.137,0,0,0-6,6"/></svg>