<svg id="Regular" xmlns="http://www.w3.org/2000/svg" viewBox="0 0 24 24"><defs><style>.cls-1{fill:none;stroke:currentColor;stroke-linecap:round;stroke-linejoin:round;stroke-width:1.5px;}</style></defs><title>insect-cricket</title><path class="cls-1" d="M12.01,15c-2.485,0-4.5,1.007-4.5,2.25v3c0,1.242,2.015,3,4.5,3s4.5-1.758,4.5-3v-3C16.51,16.007,14.5,15,12.01,15Z"/><ellipse class="cls-1" cx="17.26" cy="12.375" rx="2.25" ry="4.125"/><ellipse class="cls-1" cx="6.76" cy="12.375" rx="2.25" ry="4.125"/><path class="cls-1" d="M7.361,8.4A6.462,6.462,0,0,1,12.01,6.75,6.462,6.462,0,0,1,16.659,8.4"/><path class="cls-1" d="M15.01,7.327V6.75s0-6,2.25-6"/><path class="cls-1" d="M9.01,7.327V6.75s0-6-2.25-6"/><line class="cls-1" x1="12.01" y1="18" x2="12.01" y2="23.25"/><line class="cls-1" x1="10.51" y1="19.5" x2="13.51" y2="19.5"/><line class="cls-1" x1="7.51" y1="17.303" x2="7.51" y2="16.264"/><line class="cls-1" x1="16.51" y1="17.25" x2="16.51" y2="16.264"/></svg>