<svg id="Regular" xmlns="http://www.w3.org/2000/svg" viewBox="0 0 24 24"><defs><style>.cls-1{fill:none;stroke:currentColor;stroke-linecap:round;stroke-linejoin:round;stroke-width:1.5px;}</style></defs><title>insurance-hand</title><line class="cls-1" x1="0.75" y1="14.251" x2="0.75" y2="23.251"/><path class="cls-1" d="M.75,21.751h15a3,3,0,0,0-3-3H9a3,3,0,0,0-3-3H.75"/><line class="cls-1" x1="6" y1="18.751" x2="9" y2="18.751"/><path class="cls-1" d="M23.25,6a.75.75,0,0,0-.75-.75H18.75V1.5A.75.75,0,0,0,18,.75H15a.75.75,0,0,0-.75.75V5.25H10.5A.75.75,0,0,0,9.75,6V9a.75.75,0,0,0,.75.75h3.75V13.5a.75.75,0,0,0,.75.75h3a.75.75,0,0,0,.75-.75V9.75H22.5A.75.75,0,0,0,23.25,9Z"/></svg>