<svg id="Regular" xmlns="http://www.w3.org/2000/svg" viewBox="0 0 24 24"><defs><style>.cls-1{fill:none;stroke:currentColor;stroke-linecap:round;stroke-linejoin:round;stroke-width:1.5px;}</style></defs><title>insurance-umbrella-heart</title><path class="cls-1" d="M23.25,13.5a11.25,11.25,0,0,0-22.5,0l.811-.676A4.707,4.707,0,0,1,8.25,13.5a5.3,5.3,0,0,1,7.5,0,4.707,4.707,0,0,1,6.689-.676Z"/><path class="cls-1" d="M12,11.947v9.8a1.5,1.5,0,0,1-3,0"/><line class="cls-1" x1="12" y1="2.25" x2="12" y2="0.75"/><path class="cls-1" d="M22.68,16.6a1.9,1.9,0,0,0-2.751,0L18.75,17.814,17.571,16.6a1.9,1.9,0,0,0-2.751,0,2.06,2.06,0,0,0,0,2.845l3.511,3.631a.579.579,0,0,0,.838,0L22.68,19.44A2.06,2.06,0,0,0,22.68,16.6Z"/></svg>