<svg id="Regular" xmlns="http://www.w3.org/2000/svg" viewBox="0 0 24 24"><defs><style>.cls-1{fill:none;stroke:currentColor;stroke-linecap:round;stroke-linejoin:round;stroke-width:1.5px;}</style></defs><title>insurance-cheap</title><path class="cls-1" d="M23.25,4.5a.75.75,0,0,0-.75-.75H20.25V1.5A.75.75,0,0,0,19.5.75H18a.75.75,0,0,0-.75.75V3.75H15a.75.75,0,0,0-.75.75V6a.75.75,0,0,0,.75.75h2.25V9a.75.75,0,0,0,.75.75h1.5A.75.75,0,0,0,20.25,9V6.75H22.5A.75.75,0,0,0,23.25,6Z"/><line class="cls-1" x1="0.75" y1="21.75" x2="23.25" y2="15"/><polyline class="cls-1" points="12 18.375 15.433 23.25 7.933 23.25"/><path class="cls-1" d="M1.5,13.5a2.25,2.25,0,1,0,2.25-2.25A2.25,2.25,0,1,1,6,9"/><line class="cls-1" x1="3.75" y1="5.25" x2="3.75" y2="6.75"/><line class="cls-1" x1="3.75" y1="15.75" x2="3.75" y2="17.25"/></svg>