<svg id="Regular" xmlns="http://www.w3.org/2000/svg" viewBox="0 0 24 24"><defs><style>.cls-1{fill:none;stroke:currentColor;stroke-linecap:round;stroke-linejoin:round;stroke-width:1.5px;}</style></defs><title>insurance-head</title><path class="cls-1" d="M4.6,23.25V16.985A9.365,9.365,0,0,1,10.974.75c7.139,0,8.68,5.878,11.225,12.48a.751.751,0,0,1-.7,1.02H19.6v3a3,3,0,0,1-3,3H15.1v3"/><path class="cls-1" d="M16.6,9a.75.75,0,0,0-.75-.75H13.6V6a.75.75,0,0,0-.75-.75h-3A.75.75,0,0,0,9.1,6V8.25H6.849A.75.75,0,0,0,6.1,9v3a.75.75,0,0,0,.75.75H9.1V15a.75.75,0,0,0,.75.75h3A.75.75,0,0,0,13.6,15V12.75h2.25A.75.75,0,0,0,16.6,12Z"/></svg>