<svg id="Regular" xmlns="http://www.w3.org/2000/svg" viewBox="0 0 24 24"><defs><style>.cls-1{fill:none;stroke:currentColor;stroke-linecap:round;stroke-linejoin:round;stroke-width:1.5px;}</style></defs><title>insurance-expensive</title><path class="cls-1" d="M23.25,12a.75.75,0,0,0-.75-.75H20.25V9a.75.75,0,0,0-.75-.75H18a.75.75,0,0,0-.75.75v2.25H15a.75.75,0,0,0-.75.75v1.5a.75.75,0,0,0,.75.75h2.25V16.5a.75.75,0,0,0,.75.75h1.5a.75.75,0,0,0,.75-.75V14.25H22.5a.75.75,0,0,0,.75-.75Z"/><line class="cls-1" x1="23.25" y1="21.75" x2="0.75" y2="15"/><polyline class="cls-1" points="12 18.375 7.933 23.25 15.433 23.25"/><path class="cls-1" d="M1.5,9A2.25,2.25,0,1,0,3.75,6.75,2.25,2.25,0,1,1,6,4.5"/><line class="cls-1" x1="3.75" y1="0.75" x2="3.75" y2="2.25"/><line class="cls-1" x1="3.75" y1="11.25" x2="3.75" y2="12.75"/></svg>