<svg xmlns="http://www.w3.org/2000/svg" viewBox="0 0 24 24"><defs><style>.a{fill:none;stroke:currentColor;stroke-linecap:round;stroke-linejoin:round;stroke-width:1.5px;}</style></defs><title>jackclamp</title><rect class="a" x="14.25" y="16.5" width="3" height="6"/><rect class="a" x="14.25" y="1.5" width="3" height="3"/><line class="a" x1="14.25" y1="10.5" x2="17.25" y2="10.5"/><line class="a" x1="14.25" y1="7.5" x2="17.25" y2="7.5"/><line class="a" x1="14.25" y1="13.5" x2="17.25" y2="13.5"/><line class="a" x1="14.25" y1="16.5" x2="9.75" y2="16.5"/><line class="a" x1="14.25" y1="1.5" x2="9.75" y2="1.5"/><path class="a" d="M9.75,4.5H2.25a1.5,1.5,0,0,1,0-3h7.5Z"/><path class="a" d="M9.75,16.5H2.25a1.5,1.5,0,0,1,0-3h7.5Z"/><line class="a" x1="9.75" y1="21" x2="14.25" y2="21"/><line class="a" x1="17.25" y1="21" x2="20.25" y2="21"/><circle class="a" cx="21.75" cy="21" r="1.5"/></svg>