<svg id="Regular" xmlns="http://www.w3.org/2000/svg" viewBox="0 0 24 24"><defs><style>.cls-1{fill:none;stroke:currentColor;stroke-linecap:round;stroke-linejoin:round;stroke-width:1.5px;}</style></defs><title>jellyfish-group</title><path class="cls-1" d="M12.177,20.528a4.816,4.816,0,0,1,1.816-3.553l-1.162-.593a3.377,3.377,0,0,1,.291-2.091c1-1.963,3.8-2.539,6.257-1.286s3.629,3.859,2.627,5.822a3.378,3.378,0,0,1-1.523,1.462l-1.16-.592a4.821,4.821,0,0,1-1.815,3.553"/><line class="cls-1" x1="16.657" y1="18.336" x2="15.296" y2="21.001"/><path class="cls-1" d="M2.427,8.936A4.814,4.814,0,0,1,4.243,5.383L3.081,4.79A3.38,3.38,0,0,1,3.372,2.7c1-1.962,3.8-2.538,6.257-1.285s3.629,3.859,2.627,5.821A3.38,3.38,0,0,1,10.733,8.7L9.573,8.1a4.823,4.823,0,0,1-1.815,3.554"/><line class="cls-1" x1="6.907" y1="6.743" x2="5.546" y2="9.408"/></svg>