<svg xmlns="http://www.w3.org/2000/svg" viewBox="0 0 24 24"><defs><style>.a{fill:none;stroke:currentColor;stroke-linecap:round;stroke-linejoin:round;stroke-width:1.5px;}</style></defs><title>job-seach-team-woman</title><path class="a" d="M20.568,15.14a3.375,3.375,0,0,1-5.984-1.2"/><path class="a" d="M17.111,23.25h6A5.25,5.25,0,0,0,17.861,18a5.135,5.135,0,0,0-2.12.455"/><circle class="a" cx="15.625" cy="6.014" r="5.25"/><line class="a" x1="23.125" y1="13.514" x2="19.361" y2="9.75"/><path class="a" d="M3.376,10.986v1a5.9,5.9,0,0,1-.859,3.272"/><path class="a" d="M11.655,12.69a5.573,5.573,0,0,0,.828,2.564"/><path class="a" d="M3.388,11.2A5.483,5.483,0,0,0,7.5,9.305a5.571,5.571,0,0,0,1.984,1.454"/><path class="a" d="M11.323,12.427A4.125,4.125,0,1,1,7.5,6.75c.1,0,.194,0,.289.01"/><path class="a" d="M14.25,23.25a6.742,6.742,0,0,0-4.243-6.257L7.5,19.5,4.993,16.993A6.742,6.742,0,0,0,.75,23.25"/></svg>