<svg xmlns="http://www.w3.org/2000/svg" viewBox="0 0 24 24"><defs><style>.a{fill:none;stroke:currentColor;stroke-linecap:round;stroke-linejoin:round;stroke-width:1.5px;}</style></defs><title>job-search</title><path class="a" d="M.817,8.25A9.071,9.071,0,0,1,13.356,1.5"/><path class="a" d="M16.982,15.268A9.063,9.063,0,0,1,3.05,15.92"/><line class="a" x1="16.154" y1="16.22" x2="23.183" y2="23.25"/><path class="a" d="M5.183,5.25v6a1.5,1.5,0,0,1-1.5,1.5h-1.5"/><path class="a" d="M9.683,5.25a1.5,1.5,0,0,0-1.5,1.5v4.5a1.5,1.5,0,0,0,3,0V6.75A1.5,1.5,0,0,0,9.683,5.25Z"/><line class="a" x1="14.183" y1="12.75" x2="14.183" y2="5.25"/><path class="a" d="M14.183,5.25h1.5a1.5,1.5,0,0,1,1.5,1.5V7.5a1.5,1.5,0,0,1-1.5,1.5h-1.5"/><path class="a" d="M14.183,9h1.5a1.5,1.5,0,0,1,1.5,1.5v.75a1.5,1.5,0,0,1-1.5,1.5h-1.5"/><path class="a" d="M23.183,5.25h-1.5a1.5,1.5,0,0,0-1.5,1.5c0,2.25,3,2.25,3,4.5a1.5,1.5,0,0,1-1.5,1.5h-1.5"/></svg>