<svg xmlns="http://www.w3.org/2000/svg" viewBox="0 0 24 24"><defs><style>.a{fill:none;stroke:currentColor;stroke-linecap:round;stroke-linejoin:round;stroke-width:1.5px;}</style></defs><title>job-choose-candidate</title><path class="a" d="M23.011,23.25l.1-1.122a3,3,0,0,0-2.337-3.2l-3.651-.811V12.375a2.029,2.029,0,0,0-1.949-1.86,1.846,1.846,0,0,0-1.8,1.86v9.2L11.9,20.472a1.533,1.533,0,0,0-2.146,2.145l.475.633"/><circle class="a" cx="14.875" cy="3.375" r="2.625"/><path class="a" d="M18.625,9a4.25,4.25,0,0,0-7.5,0"/><circle class="a" cx="4.375" cy="12.375" r="2.625"/><path class="a" d="M8.125,18a4.25,4.25,0,0,0-7.5,0"/><line class="a" x1="9.625" y1="4.5" x2="8.125" y2="4.5"/><line class="a" x1="9.625" y1="1.5" x2="8.125" y2="0.75"/><line class="a" x1="20.125" y1="4.5" x2="21.625" y2="4.5"/><line class="a" x1="20.125" y1="1.5" x2="21.625" y2="0.75"/></svg>