<svg xmlns="http://www.w3.org/2000/svg" viewBox="0 0 24 24"><defs><style>.a{fill:none;stroke:currentColor;stroke-linecap:round;stroke-linejoin:round;stroke-width:1.5px;}</style></defs><title>job-seach-team-man</title><path class="a" d="M.611,23.25a6.75,6.75,0,0,1,13.5,0"/><path class="a" d="M3.806,8.781a6.848,6.848,0,0,0,4.93,2.094"/><path class="a" d="M10.591,13.44a4.125,4.125,0,1,1-3.23-6.69,4.237,4.237,0,0,1,.6.043"/><path class="a" d="M20.568,15.14a3.375,3.375,0,0,1-5.984-1.2"/><path class="a" d="M17.111,23.25h6A5.25,5.25,0,0,0,17.861,18a5.135,5.135,0,0,0-2.12.455"/><circle class="a" cx="15.625" cy="6.014" r="5.25"/><line class="a" x1="23.125" y1="13.514" x2="19.361" y2="9.75"/><line class="a" x1="7.361" y1="16.5" x2="7.361" y2="19.5"/></svg>