<svg id="Regular" xmlns="http://www.w3.org/2000/svg" viewBox="0 0 24 24"><defs><style>.cls-1{fill:none;stroke:currentColor;stroke-linecap:round;stroke-linejoin:round;stroke-width:1.5px;}</style></defs><title>kangaroo</title><path class="cls-1" d="M8.25,12.75a5.677,5.677,0,0,0-1.206,3A4.307,4.307,0,0,0,7.5,18,4.25,4.25,0,0,0,15,18c1.061-2.121,0-5.25-2.25-6s-4.5-2.25-4.5-5.25-1.5-4.5-3-4.5A26.52,26.52,0,0,0,.75,3V4.5S2.25,6.75,4.5,6.75c-.75,3-.75,6,0,7.5"/><path class="cls-1" d="M7.39,14.25H2.25A5.108,5.108,0,0,0,3.75,18a4.6,4.6,0,0,0,4.5,1.5l.375-.125"/><line class="cls-1" x1="6.55" y1="2.649" x2="7.5" y2="0.75"/><path class="cls-1" d="M15.129,14.522c.627,1.268,3.5,6.568,8.121,7.228"/><path class="cls-1" d="M12,20.187V21.75a1.5,1.5,0,0,1-1.5,1.5H3.75"/><path class="cls-1" d="M4.036,9.33,3.75,9.188a2.646,2.646,0,0,0-3,.75"/></svg>