<svg id="Regular" xmlns="http://www.w3.org/2000/svg" viewBox="0 0 24 24"><defs><style>.cls-1{fill:none;stroke:currentColor;stroke-linecap:round;stroke-linejoin:round;stroke-width:1.5px;}</style></defs><title>kitchen-counter-1</title><path class="cls-1" d="M.75,9.75h21a1.5,1.5,0,0,0,0-3H.75"/><line class="cls-1" x1="0.75" y1="0.75" x2="0.75" y2="23.25"/><line class="cls-1" x1="21.75" y1="9.75" x2="21.75" y2="23.25"/><line class="cls-1" x1="6.75" y1="23.25" x2="6.75" y2="15.75"/><line class="cls-1" x1="15.75" y1="23.25" x2="15.75" y2="15.75"/><path class="cls-1" d="M8.25,15.75a1.5,1.5,0,0,0,0-3h-3a1.5,1.5,0,0,0,0,3Z"/><path class="cls-1" d="M17.25,15.75a1.5,1.5,0,0,0,0-3h-3a1.5,1.5,0,0,0,0,3Z"/><polygon class="cls-1" points="19.5 2.25 15 2.25 15.75 6.75 18.75 6.75 19.5 2.25"/></svg>