<svg id="Regular" xmlns="http://www.w3.org/2000/svg" viewBox="0 0 24 24"><defs><style>.cls-1{fill:none;stroke:currentColor;stroke-linecap:round;stroke-linejoin:round;stroke-width:1.5px;}</style></defs><title>kitchen-counter</title><path class="cls-1" d="M.75,11.25h9a1.5,1.5,0,0,0,0-3h-9"/><line class="cls-1" x1="3.75" y1="11.25" x2="3.75" y2="23.25"/><path class="cls-1" d="M6.75,3.75a1.5,1.5,0,0,1-3,0v-3h3Z"/><line class="cls-1" x1="5.25" y1="5.25" x2="5.25" y2="8.25"/><path class="cls-1" d="M23.25,15.75h-9v-1.5a1.5,1.5,0,0,1,1.5-1.5h6a1.5,1.5,0,0,1,1.5,1.5Z"/><line class="cls-1" x1="15.75" y1="15.75" x2="14.25" y2="23.25"/><line class="cls-1" x1="21.75" y1="15.75" x2="23.25" y2="23.25"/><line class="cls-1" x1="14.85" y1="20.25" x2="22.65" y2="20.25"/></svg>