<svg id="Regular" xmlns="http://www.w3.org/2000/svg" viewBox="0 0 24 24"><defs><style>.cls-1{fill:none;stroke:currentColor;stroke-linecap:round;stroke-linejoin:round;stroke-width:1.5px;}</style></defs><title>kitchenware-grater</title><path class="cls-1" d="M20.622,21.65a1.506,1.506,0,0,1-1.5,1.6H4.875a1.5,1.5,0,0,1-1.5-1.6L4.585,3.55A3,3,0,0,1,7.578.75h8.844a3,3,0,0,1,2.993,2.8Z"/><line class="cls-1" x1="4.472" y1="5.25" x2="19.528" y2="5.25"/><path class="cls-1" d="M8.25,7.5a.375.375,0,1,1-.375.375A.375.375,0,0,1,8.25,7.5"/><path class="cls-1" d="M12,7.5a.375.375,0,1,1-.375.375A.375.375,0,0,1,12,7.5"/><path class="cls-1" d="M9.75,10.5a.375.375,0,1,1-.375.375A.375.375,0,0,1,9.75,10.5"/><path class="cls-1" d="M14.25,10.5a.375.375,0,1,1-.375.375.375.375,0,0,1,.375-.375"/><path class="cls-1" d="M15.75,7.5a.375.375,0,1,1-.375.375A.375.375,0,0,1,15.75,7.5"/><path class="cls-1" d="M8.25,13.5a.375.375,0,1,1-.375.375A.375.375,0,0,1,8.25,13.5"/><path class="cls-1" d="M12,13.5a.375.375,0,1,1-.375.375A.375.375,0,0,1,12,13.5"/><path class="cls-1" d="M9.75,16.5a.375.375,0,1,1-.375.375A.375.375,0,0,1,9.75,16.5"/><path class="cls-1" d="M14.25,16.5a.375.375,0,1,1-.375.375.375.375,0,0,1,.375-.375"/><path class="cls-1" d="M15.75,13.5a.375.375,0,1,1-.375.375.375.375,0,0,1,.375-.375"/><path class="cls-1" d="M8.25,19.5a.375.375,0,1,1-.375.375A.375.375,0,0,1,8.25,19.5"/><path class="cls-1" d="M12,19.5a.375.375,0,1,1-.375.375A.375.375,0,0,1,12,19.5"/><path class="cls-1" d="M15.75,19.5a.375.375,0,1,1-.375.375.375.375,0,0,1,.375-.375"/></svg>