<svg id="Regular" xmlns="http://www.w3.org/2000/svg" viewBox="0 0 24 24"><defs><style>.cls-1{fill:none;stroke:currentColor;stroke-linecap:round;stroke-linejoin:round;stroke-width:1.5px;}</style></defs><title>kitchenware-hammer-meat</title><polyline class="cls-1" points="11.25 0.75 8.25 0.75 8.25 3.75 5.25 3.75 5.25 6.75"/><polyline class="cls-1" points="23.25 12.75 23.25 15.75 20.25 15.75 20.25 18.75 17.25 18.75"/><path class="cls-1" d="M12.853,3.647a.75.75,0,0,1,1.154.114l1.328,1.992a10.512,10.512,0,0,0,2.912,2.912l1.992,1.328a.75.75,0,0,1,.114,1.154l-4.706,4.706a.75.75,0,0,1-1.154-.114l-1.328-1.992a10.512,10.512,0,0,0-2.912-2.912L8.261,9.507a.75.75,0,0,1-.114-1.154Z"/><line class="cls-1" x1="0.75" y1="23.25" x2="11.852" y2="12.148"/></svg>