<svg id="Regular" xmlns="http://www.w3.org/2000/svg" viewBox="0 0 24 24"><defs><style>.cls-1{fill:none;stroke:currentColor;stroke-linecap:round;stroke-linejoin:round;stroke-width:1.5px;}</style></defs><title>kitchenware-ladle-hot</title><path class="cls-1" d="M6.75,14.25v.605a8.251,8.251,0,1,0,16.5,0V14.25"/><path class="cls-1" d="M6.75,14.25l-1-7.346A7.307,7.307,0,0,0,.75.75h0"/><path class="cls-1" d="M12.943,6.75l-.617.823a1.585,1.585,0,0,0,.242,2.177h0a1.584,1.584,0,0,1,.243,2.177l-.162.216"/><path class="cls-1" d="M17.443,6.893l-.617.823a1.585,1.585,0,0,0,.242,2.177h0a1.584,1.584,0,0,1,.243,2.177l-.162.216"/><path class="cls-1" d="M20.455,12c1.714.55,2.8,1.355,2.8,2.251,0,1.657-3.694,3-8.25,3s-8.25-1.343-8.25-3c0-.9,1.081-1.7,2.8-2.251"/></svg>