<svg id="Regular" xmlns="http://www.w3.org/2000/svg" viewBox="0 0 24 24"><defs><style>.cls-1{fill:none;stroke:currentColor;stroke-linecap:round;stroke-linejoin:round;stroke-width:1.5px;}</style></defs><title>kitchenware-masher</title><path class="cls-1" d="M1.391,13.4,5.157,9.638a6.478,6.478,0,0,1,7.168-1.349.978.978,0,0,0,1.08-.206L20.219,1.27A1.776,1.776,0,0,1,22.73,3.781L15.917,10.6a.978.978,0,0,0-.206,1.08,6.478,6.478,0,0,1-1.349,7.168L10.6,22.609"/><path class="cls-1" d="M3.483,20.517C.941,17.975.005,14.79,1.391,13.4S5.962,12.954,8.5,15.5s3.479,5.726,2.092,7.113S6.025,23.059,3.483,20.517Z"/><path class="cls-1" d="M4.125,15.75a.375.375,0,1,1-.375.375.375.375,0,0,1,.375-.375"/><path class="cls-1" d="M7.875,19.5a.375.375,0,1,0,.375.375.375.375,0,0,0-.375-.375"/></svg>