<svg id="Regular" xmlns="http://www.w3.org/2000/svg" viewBox="0 0 24 24"><defs><style>.cls-1{fill:none;stroke:currentColor;stroke-linecap:round;stroke-linejoin:round;stroke-width:1.5px;}</style></defs><title>kitchenware-spatula-1</title><path class="cls-1" d="M10.9,15.225,3.515,22.607a1.5,1.5,0,0,1-2.122,0h0a1.5,1.5,0,0,1,0-2.122L8.775,13.1"/><path class="cls-1" d="M22.607,7.757,19.425,4.575,16.243,1.393a1.5,1.5,0,0,0-2.122,0L10.877,4.637a8.8,8.8,0,0,0-2.144,8.424l1.1,1.1,1.1,1.1a8.8,8.8,0,0,0,8.424-2.144l3.244-3.244A1.5,1.5,0,0,0,22.607,7.757Z"/><line class="cls-1" x1="4.575" y1="17.303" x2="6.697" y2="19.425"/><line class="cls-1" x1="15.182" y1="4.575" x2="11.47" y2="8.288"/><line class="cls-1" x1="17.303" y1="6.697" x2="13.591" y2="10.409"/><line class="cls-1" x1="19.425" y1="8.818" x2="15.712" y2="12.53"/></svg>