<svg id="Regular" xmlns="http://www.w3.org/2000/svg" viewBox="0 0 24 24"><defs><style>.cls-1{fill:none;stroke:currentColor;stroke-linecap:round;stroke-linejoin:round;stroke-width:1.5px;}</style></defs><title>kitchen-knife-set</title><path class="cls-1" d="M5.521,9.851,8.394,2.408a1.139,1.139,0,0,1,1.474-.653h0a1.14,1.14,0,0,1,.653,1.474L7.644,10.671"/><path class="cls-1" d="M10.753,13.249a1.138,1.138,0,0,0-.593-1.607L5.521,9.851l-1.311,3.4"/><path class="cls-1" d="M2.473,17.749,1.025,21.5a.6.6,0,0,0,.628.817c2.05-.277,4.136-1.895,6.192-4.568"/><path class="cls-1" d="M16.537,9.851,19.41,2.408a1.139,1.139,0,0,1,1.474-.653h0a1.14,1.14,0,0,1,.653,1.474L18.66,10.671"/><path class="cls-1" d="M13.489,17.749,12.041,21.5a.6.6,0,0,0,.628.817c2.051-.277,4.136-1.895,6.192-4.568"/><path class="cls-1" d="M21.769,13.249a1.138,1.138,0,0,0-.593-1.607L16.537,9.851l-1.311,3.4"/><rect class="cls-1" x="0.75" y="13.249" width="22.5" height="4.5" rx="0.75" ry="0.75"/></svg>