<svg id="Regular" xmlns="http://www.w3.org/2000/svg" viewBox="0 0 24 24"><defs><style>.cls-1{fill:none;stroke:currentColor;stroke-linecap:round;stroke-linejoin:round;stroke-width:1.5px;}</style></defs><title>kitchenware-scooper-1</title><path class="cls-1" d="M19.51,1.183a1.5,1.5,0,0,0-1.951.565A8.246,8.246,0,0,1,11.136,5.7,1.5,1.5,0,0,0,9.75,7.187v.039a6.75,6.75,0,1,0,9.76-6.043Z"/><path class="cls-1" d="M9.853,8.407a6.751,6.751,0,0,0,10.4-5.681,6.841,6.841,0,0,0-.1-1.18"/><path class="cls-1" d="M10.4,10.116l-8.77,7.738A3,3,0,0,0,5.871,22.1l7.739-8.77"/></svg>