<svg id="Regular" xmlns="http://www.w3.org/2000/svg" viewBox="0 0 24 24"><defs><style>.cls-1{fill:none;stroke:currentColor;stroke-linecap:round;stroke-linejoin:round;stroke-width:1.5px;}</style></defs><title>kitchenware-strainer</title><circle class="cls-1" cx="15.391" cy="8.609" r="7.561"/><path class="cls-1" d="M11.221,14.917,3.629,22.509a1.511,1.511,0,0,1-2.138,0h0a1.511,1.511,0,0,1,0-2.138l7.592-7.592"/><path class="cls-1" d="M15.077,4.154a.375.375,0,1,1,0,.53.375.375,0,0,1,0-.53"/><path class="cls-1" d="M17.2,6.273a.375.375,0,1,1,0,.53.375.375,0,0,1,0-.53"/><path class="cls-1" d="M19.316,8.392a.375.375,0,1,1,0,.531.375.375,0,0,1,0-.531"/><path class="cls-1" d="M12.958,6.273a.375.375,0,1,1,0,.53.375.375,0,0,1,0-.53"/><path class="cls-1" d="M15.077,8.392a.375.375,0,1,1,0,.531.377.377,0,0,1,0-.531"/><path class="cls-1" d="M17.2,10.512a.375.375,0,1,1,0,.53.374.374,0,0,1,0-.53"/><path class="cls-1" d="M10.839,8.392a.375.375,0,1,1,0,.531.375.375,0,0,1,0-.531"/><path class="cls-1" d="M12.958,10.512a.375.375,0,1,1,0,.53.374.374,0,0,1,0-.53"/><path class="cls-1" d="M15.077,12.631a.375.375,0,1,1,0,.53.375.375,0,0,1,0-.53"/><line class="cls-1" x1="4.416" y1="17.446" x2="6.554" y2="19.584"/></svg>