<svg id="Regular" xmlns="http://www.w3.org/2000/svg" viewBox="0 0 24 24"><defs><style>.cls-1{fill:none;stroke:currentColor;stroke-linecap:round;stroke-linejoin:round;stroke-width:1.5px;}</style></defs><title>kitchen-window</title><line class="cls-1" x1="0.75" y1="0.5" x2="23.25" y2="0.5"/><rect class="cls-1" x="2.25" y="0.5" width="19.5" height="18"/><path class="cls-1" d="M2.25.5V5H3.879A2.25,2.25,0,0,1,8.121,5H9.879a2.25,2.25,0,0,1,4.242,0h1.758a2.25,2.25,0,0,1,4.242,0H21.75V.5Z"/><path class="cls-1" d="M2.25,18.5V23H3.879a2.25,2.25,0,0,1,4.242,0H9.879a2.25,2.25,0,0,1,4.242,0h1.758a2.25,2.25,0,0,1,4.242,0H21.75V18.5Z"/><line class="cls-1" x1="2.25" y1="11" x2="21.75" y2="11"/><rect class="cls-1" x="2.25" y="14" width="3" height="4.5"/><rect class="cls-1" x="15.75" y="14" width="3" height="4.5"/><rect class="cls-1" x="18.75" y="14" width="3" height="4.5"/></svg>