<svg id="Regular" xmlns="http://www.w3.org/2000/svg" viewBox="0 0 24 24"><defs><style>.cls-1{fill:none;stroke:currentColor;stroke-linecap:round;stroke-linejoin:round;stroke-width:1.5px;}</style></defs><title>kitchenware-roller</title><rect class="cls-1" x="8.553" y="4.072" width="6.894" height="15.857" rx="1.838" ry="1.838" transform="translate(12 -4.971) rotate(45)"/><path class="cls-1" d="M16.585,5.489l1.994-3.317a2.368,2.368,0,0,1,2.779-1.028h0a2.371,2.371,0,0,1,1.5,1.5h0a2.368,2.368,0,0,1-1.028,2.779L18.511,7.415"/><path class="cls-1" d="M5.493,16.592,2.172,18.579a2.368,2.368,0,0,0-1.028,2.779h0a2.371,2.371,0,0,0,1.5,1.5h0a2.368,2.368,0,0,0,2.779-1.028l2-3.317"/></svg>