<svg id="Regular" xmlns="http://www.w3.org/2000/svg" viewBox="0 0 24 24"><defs><style>.cls-1{fill:none;stroke:currentColor;stroke-linecap:round;stroke-linejoin:round;stroke-width:1.5px;}</style></defs><title>kitchenware-molds</title><circle class="cls-1" cx="18.75" cy="5.25" r="4.5"/><path class="cls-1" d="M8.879,18.75A2.571,2.571,0,1,0,5.25,15.121,2.571,2.571,0,1,0,1.622,18.75,2.571,2.571,0,1,0,5.25,22.378,2.571,2.571,0,1,0,8.879,18.75Z"/><path class="cls-1" d="M22.585,15.23a2.218,2.218,0,0,0-3.21,0L18,16.652,16.625,15.23a2.218,2.218,0,0,0-3.21,0,2.4,2.4,0,0,0,0,3.319l4.1,4.236a.674.674,0,0,0,.976,0l4.1-4.236A2.4,2.4,0,0,0,22.585,15.23Z"/><path class="cls-1" d="M5.385,1.056a.557.557,0,0,1,.994,0L7.534,3.384a.551.551,0,0,0,.417.3l2.591.375a.544.544,0,0,1,.307.928L8.968,6.812a.541.541,0,0,0-.158.48l.444,2.572a.552.552,0,0,1-.8.572L6.142,9.229a.56.56,0,0,0-.519,0L3.315,10.436a.551.551,0,0,1-.8-.572l.443-2.572a.538.538,0,0,0-.157-.48L.915,4.987a.544.544,0,0,1,.308-.928l2.591-.375a.554.554,0,0,0,.417-.3Z"/></svg>