<svg id="Regular" xmlns="http://www.w3.org/2000/svg" viewBox="0 0 24 24"><defs><style>.cls-1{fill:none;stroke:currentColor;stroke-linecap:round;stroke-linejoin:round;stroke-width:1.5px;}</style></defs><title>kitchenware-spatula-2</title><path class="cls-1" d="M13.838,12.265,3.771,22.351a1.5,1.5,0,0,1-2.122,0h0a1.5,1.5,0,0,1,0-2.122l10.09-10.062"/><line class="cls-1" x1="4.836" y1="17.052" x2="6.95" y2="19.166"/><path class="cls-1" d="M16.433,13.3a1.5,1.5,0,0,1-1.8-.242L10.945,9.372a1.5,1.5,0,0,1-.242-1.8L14.12,1.588a.749.749,0,0,1,.784-.366A8.969,8.969,0,0,1,22.778,9.1a.751.751,0,0,1-.366.784Z"/><line class="cls-1" x1="14.377" y1="8.562" x2="15.438" y2="9.623"/></svg>