<svg id="Regular" xmlns="http://www.w3.org/2000/svg" viewBox="0 0 24 24"><defs><style>.cls-1{fill:none;stroke:currentColor;stroke-linecap:round;stroke-linejoin:round;stroke-width:1.5px;}</style></defs><title>kitchenware-honey</title><path class="cls-1" d="M16.713.923c.586-.586,2.485.364,4.243,2.121S23.663,6.7,23.077,7.287"/><path class="cls-1" d="M13,2.514c.586-.586,2.96.839,5.3,3.182s3.768,4.717,3.182,5.3"/><path class="cls-1" d="M10.349,5.166c.586-.586,2.96.838,5.3,3.182s3.768,4.717,3.182,5.3"/><path class="cls-1" d="M13.531,10.469C12.067,9,10.4,8.292,9.819,8.878c-.347.347-.238,1.072.212,1.909L1.409,19.409a2.25,2.25,0,0,0,3.182,3.182l8.622-8.622c.837.45,1.562.559,1.909.212C15.708,13.6,15,11.933,13.531,10.469Z"/></svg>