<svg id="Regular" xmlns="http://www.w3.org/2000/svg" viewBox="0 0 24 24"><defs><style>.cls-1{fill:none;stroke:currentColor;stroke-linecap:round;stroke-linejoin:round;stroke-width:1.5px;}</style></defs><title>knife-1</title><path class="cls-1" d="M11.59,3.052h6.8a.972.972,0,0,1,.972.972V18.116a.972.972,0,0,1-.972.972H10.618a0,0,0,0,1,0,0V4.024a.972.972,0,0,1,.972-.972Z" transform="translate(12.219 -7.358) rotate(45)"/><line class="cls-1" x1="21.692" y1="6.431" x2="10.353" y2="17.77"/><path class="cls-1" d="M16.82,6.135a.375.375,0,1,1,0,.53.374.374,0,0,1,0-.53"/><path class="cls-1" d="M1.076,20.862h0a1.458,1.458,0,0,1,0-2.061L6.23,13.647l2.062,2.061L3.138,20.862A1.459,1.459,0,0,1,1.076,20.862Z"/></svg>