<svg id="Regular" xmlns="http://www.w3.org/2000/svg" viewBox="0 0 24 24"><defs><style>.cls-1{fill:none;stroke:currentColor;stroke-linecap:round;stroke-linejoin:round;stroke-width:1.5px;}</style></defs><title>koala-bamboo</title><path class="cls-1" d="M17.51.75A2.993,2.993,0,0,0,15,2.107a5.177,5.177,0,0,0-6.988,0A3,3,0,1,0,5.51,6.75a2.952,2.952,0,0,0,.813-.126,5.221,5.221,0,0,0,10.374,0,2.952,2.952,0,0,0,.813.126,3,3,0,0,0,0-6Z"/><path class="cls-1" d="M14.2,10.5h5.473a.751.751,0,0,1,.738.886c-.2,1.109-.853,2.864-2.9,2.864h-4.5a13.5,13.5,0,0,1-.867,4.089"/><path class="cls-1" d="M5.567,11.4C4.251,13.045,2.51,15.668,2.51,18c0,3.75,2.25,5.25,4.5,5.25h7.234a1.5,1.5,0,0,0,1.393-.943L16.76,19.5"/><path class="cls-1" d="M7.76,18.75c1.168-1.168,3.7-.972,5.829.236"/><line class="cls-1" x1="11.51" y1="6" x2="11.51" y2="7.5"/></svg>