<svg id="Regular" xmlns="http://www.w3.org/2000/svg" viewBox="0 0 24 24"><defs><style>.cls-1{fill:none;stroke:currentColor;stroke-linecap:round;stroke-linejoin:round;stroke-width:1.5px;}</style></defs><title>koala-head</title><path class="cls-1" d="M4.5,7.5C5.25,7.5,6,9,6,9a9.331,9.331,0,0,0-1.5,4.266C4.5,17.531,5.864,19.5,12,19.5s7.5-1.969,7.5-6.234A9.331,9.331,0,0,0,18,9s.75-1.5,1.5-1.5"/><path class="cls-1" d="M4.724,15.705,4.5,15.75S.75,16.5.75,11.25C.75,6.75,3,4.5,5.25,4.5a3.25,3.25,0,0,1,3,1.5A9.1,9.1,0,0,1,12,5.25,9.1,9.1,0,0,1,15.75,6a3.25,3.25,0,0,1,3-1.5c2.25,0,4.5,2.25,4.5,6.75,0,5.25-3.75,4.5-3.75,4.5l-.224-.045"/><ellipse class="cls-1" cx="12" cy="13.5" rx="1.5" ry="2.25"/><polyline class="cls-1" points="10.5 17.25 12 16.5 13.5 17.25"/><path class="cls-1" d="M7.875,11.25a.375.375,0,0,1,.375.375"/><path class="cls-1" d="M7.5,11.625a.375.375,0,0,1,.375-.375"/><path class="cls-1" d="M7.875,12a.375.375,0,0,1-.375-.375"/><path class="cls-1" d="M8.25,11.625A.375.375,0,0,1,7.875,12"/><path class="cls-1" d="M16.125,11.25a.375.375,0,0,1,.375.375"/><path class="cls-1" d="M15.75,11.625a.375.375,0,0,1,.375-.375"/><path class="cls-1" d="M16.125,12a.375.375,0,0,1-.375-.375"/><path class="cls-1" d="M16.5,11.625a.375.375,0,0,1-.375.375"/><line class="cls-1" x1="12" y1="16.5" x2="12" y2="15.75"/></svg>