<svg xmlns="http://www.w3.org/2000/svg" viewBox="0 0 24 24"><defs><style>.a{fill:none;stroke:currentColor;stroke-linecap:round;stroke-linejoin:round;stroke-width:1.5px;}</style></defs><title>lab-whisk-cup</title><circle class="a" cx="14.5" cy="18.75" r="1.5"/><line class="a" x1="15.206" y1="17.426" x2="19" y2="2.25"/><line class="a" x1="12.25" y1="14.25" x2="19.75" y2="14.25"/><path class="a" d="M14.569.757a.373.373,0,0,1,.3.437"/><path class="a" d="M14.132,1.056a.373.373,0,0,1,.437-.3"/><path class="a" d="M14.431,1.494a.375.375,0,0,1-.3-.438"/><path class="a" d="M14.868,1.194a.375.375,0,0,1-.437.3"/><path class="a" d="M8.944,3.382a.375.375,0,0,1,.3.438"/><path class="a" d="M8.507,3.681a.375.375,0,0,1,.437-.3"/><path class="a" d="M8.806,4.119a.374.374,0,0,1-.3-.438"/><path class="a" d="M9.244,3.82a.376.376,0,0,1-.438.3"/><path class="a" d="M12.062,10.55a.375.375,0,0,1,.138.512"/><path class="a" d="M11.55,10.687a.376.376,0,0,1,.512-.137"/><path class="a" d="M11.687,11.2a.375.375,0,0,1-.137-.512"/><path class="a" d="M12.2,11.062a.375.375,0,0,1-.513.137"/><line class="a" x1="5.5" y1="10.5" x2="7.75" y2="10.5"/><line class="a" x1="5.5" y1="18" x2="7.75" y2="18"/><line class="a" x1="5.5" y1="14.25" x2="7.75" y2="14.25"/><path class="a" d="M13.75,6.75h-9a.75.75,0,0,0-.624,1.166l1.248.895.126.245V21.75A1.5,1.5,0,0,0,7,23.25H18.25a1.5,1.5,0,0,0,1.5-1.5V11.25"/></svg>