<svg xmlns="http://www.w3.org/2000/svg" viewBox="0 0 24 24"><defs><style>.a,.b{fill:none;stroke:currentColor;stroke-linecap:round;stroke-linejoin:round;stroke-width:1.5px;}.b{fill-rule:evenodd;}</style></defs><title>lab-tubes</title><path class="a" d="M16.125,9.75a.375.375,0,0,1,.375.375"/><path class="a" d="M15.75,10.125a.375.375,0,0,1,.375-.375"/><path class="a" d="M16.125,10.5a.375.375,0,0,1-.375-.375"/><path class="a" d="M16.5,10.125a.375.375,0,0,1-.375.375"/><path class="a" d="M7.125,13.5a.375.375,0,0,1,.375.375"/><path class="a" d="M6.75,13.875a.375.375,0,0,1,.375-.375"/><path class="a" d="M7.125,14.25a.375.375,0,0,1-.375-.375"/><path class="a" d="M7.5,13.875a.375.375,0,0,1-.375.375"/><path class="a" d="M7.875,9.75a.375.375,0,0,1,.375.375"/><path class="a" d="M7.5,10.125a.375.375,0,0,1,.375-.375"/><path class="a" d="M7.875,10.5a.375.375,0,0,1-.375-.375"/><path class="a" d="M8.25,10.125a.375.375,0,0,1-.375.375"/><path class="a" d="M16.875,13.5a.375.375,0,0,1,.375.375"/><path class="a" d="M16.5,13.875a.375.375,0,0,1,.375-.375"/><path class="a" d="M16.875,14.25a.375.375,0,0,1-.375-.375"/><path class="a" d="M17.25,13.875a.375.375,0,0,1-.375.375"/><path class="b" d="M10.5,15.75a3,3,0,0,1-6,0V.75h6Z"/><path class="b" d="M19.5,15.75a3,3,0,0,1-6,0V.75h6Z"/><path class="b" d="M22.5,10.5v9.75a3,3,0,0,1-3,3H4.5a3,3,0,0,1-3-3V10.5"/><line class="a" x1="1.5" y1="14.25" x2="4.5" y2="14.25"/><line class="a" x1="10.5" y1="14.25" x2="13.5" y2="14.25"/><line class="a" x1="19.5" y1="14.25" x2="22.5" y2="14.25"/><line class="a" x1="4.5" y1="6.75" x2="10.5" y2="6.75"/><line class="a" x1="13.5" y1="6.75" x2="19.5" y2="6.75"/></svg>