<svg xmlns="http://www.w3.org/2000/svg" viewBox="0 0 24 24"><defs><style>.a{fill:none;stroke:currentColor;stroke-linecap:round;stroke-linejoin:round;stroke-width:1.5px;}</style></defs><title>lab-flame-experiment</title><path class="a" d="M5.25,15,1.335,19.154a2.5,2.5,0,0,0,1.985,4.1h7.61a2.5,2.5,0,0,0,1.985-4.1L9,15"/><line class="a" x1="5.25" y1="8.478" x2="5.25" y2="12"/><line class="a" x1="9" y1="12" x2="9" y2="8.478"/><path class="a" d="M.964,19.74a7.117,7.117,0,0,0,2.576.506c2.049,0,3.585-1.5,6.146-1.5a9.947,9.947,0,0,1,3.457.726"/><path class="a" d="M6.843.769a.242.242,0,0,0-.3.35A2.955,2.955,0,0,1,6.7,4.347a2.07,2.07,0,0,1-.788-.921A.257.257,0,0,0,5.573,3.3,2.786,2.786,0,0,0,3.75,5.9,3.247,3.247,0,0,0,7.125,9,3.247,3.247,0,0,0,10.5,5.9,5.708,5.708,0,0,0,6.843.769Z"/><line class="a" x1="18.75" y1="12" x2="18.75" y2="1.222"/><line class="a" x1="18.75" y1="23.25" x2="18.75" y2="15"/><path class="a" d="M23.25,15H4.5A1.5,1.5,0,0,1,3,13.5H3A1.5,1.5,0,0,1,4.5,12H23.25"/></svg>