<svg xmlns="http://www.w3.org/2000/svg" viewBox="0 0 24 24"><defs><style>.a{fill:none;stroke:currentColor;stroke-linecap:round;stroke-linejoin:round;stroke-width:1.5px;}</style></defs><title>lab-protection-glasses</title><path class="a" d="M23.25,14.25V18.2a1.941,1.941,0,0,1-.811,1.593C14.37,25.462,13.927,17,12,17c-1.574,0-2.667,8.253-10.439,2.8A1.941,1.941,0,0,1,.75,18.2V14.25"/><path class="a" d="M11.723,4.629l-3.195-2.1a1.957,1.957,0,0,0-2.5.4L4.839,4.321"/><path class="a" d="M14.789,6.414l7.99,4.086a.98.98,0,0,1,.471.837V14.25H.75V11.337a.98.98,0,0,1,.471-.837L15.472,2.533a1.957,1.957,0,0,1,2.5.4l1.189,1.388"/><line class="a" x1="0.754" y1="11.25" x2="23.246" y2="11.25"/></svg>