<svg xmlns="http://www.w3.org/2000/svg" viewBox="0 0 24 24"><defs><style>.a{fill:none;stroke:currentColor;stroke-linecap:round;stroke-linejoin:round;stroke-width:1.5px;}</style></defs><title>lab-flame-bottle</title><path class="a" d="M9.75,9H5.25v5.029L1.4,18.672A2.8,2.8,0,0,0,3.623,23.25h8.5a2.8,2.8,0,0,0,2.219-4.578l-4.6-4.643Z"/><path class="a" d="M.99,19.327a7.961,7.961,0,0,0,2.878.566c2.29,0,4.007-1.679,6.869-1.679a11.123,11.123,0,0,1,3.864.812"/><line class="a" x1="3.75" y1="9" x2="11.25" y2="9"/><path class="a" d="M18.374.775a.322.322,0,0,0-.4.467,3.938,3.938,0,0,1,.216,4.3,2.742,2.742,0,0,1-1.051-1.227.344.344,0,0,0-.457-.169,3.715,3.715,0,0,0-2.43,3.465,4.33,4.33,0,0,0,4.5,4.136,4.329,4.329,0,0,0,4.5-4.136A7.613,7.613,0,0,0,18.374.775Z"/></svg>