<svg id="Regular" xmlns="http://www.w3.org/2000/svg" viewBox="0 0 24 24"><defs><style>.cls-1{fill:none;stroke:currentColor;stroke-linecap:round;stroke-linejoin:round;stroke-width:1.5px;}</style></defs><title>laboratory-sample</title><path class="cls-1" d="M19.531,9.772l-5.515,5.516a3,3,0,0,1-4.243,0L8.712,14.227a3,3,0,0,1,0-4.243l5.516-5.515"/><line class="cls-1" x1="6.738" y1="17.262" x2="9.243" y2="14.757"/><line class="cls-1" x1="12.637" y1="2.878" x2="21.122" y2="11.363"/><line class="cls-1" x1="21.653" y1="4.469" x2="17.94" y2="8.181"/><line class="cls-1" x1="15.819" y1="6.06" x2="19.531" y2="2.347"/><line class="cls-1" x1="17.94" y1="0.756" x2="23.244" y2="6.06"/><line class="cls-1" x1="14.228" y1="10.833" x2="16.349" y2="12.954"/><path class="cls-1" d="M22.432,15a3.7,3.7,0,0,1,.818,2.25c0,3.314-5.037,6-11.25,6S.75,20.564.75,17.25c0-1.575,1.138-3.009,3-4.079"/><path class="cls-1" d="M10.5,19.125a.375.375,0,0,1,.375.375"/><path class="cls-1" d="M10.125,19.5a.375.375,0,0,1,.375-.375"/><path class="cls-1" d="M10.5,19.875a.375.375,0,0,1-.375-.375"/><path class="cls-1" d="M10.875,19.5a.375.375,0,0,1-.375.375"/><path class="cls-1" d="M15.75,19.5c.678-2.415,2.776-1.293,3.75-3"/></svg>