<svg id="Regular" xmlns="http://www.w3.org/2000/svg" viewBox="0 0 24 24"><defs><style>.cls-1{fill:none;stroke:currentColor;stroke-linecap:round;stroke-linejoin:round;stroke-width:1.5px;}</style></defs><title>laboratory-chromosome</title><path class="cls-1" d="M7.227,15.527a5.354,5.354,0,0,0,1.609-3.054c.436-2.081-.054-3.945-1.1-4.163S5.5,9.6,5.068,11.684c-.013.059-.024.118-.035.176-.027-.052-.056-.1-.085-.158C3.916,9.843,2.326,8.755,1.4,9.271s-.846,2.441.186,4.3a5.352,5.352,0,0,0,2.441,2.441,5.354,5.354,0,0,0-1.609,3.054c-.436,2.081.054,3.945,1.095,4.163s2.237-1.293,2.673-3.374c.013-.059.024-.118.035-.176.027.053.056.105.085.158,1.032,1.859,2.622,2.948,3.552,2.432s.846-2.442-.186-4.3A5.352,5.352,0,0,0,7.227,15.527Z"/><line class="cls-1" x1="5.033" y1="11.86" x2="6.217" y2="19.679"/><line class="cls-1" x1="4.023" y1="16.012" x2="7.227" y2="15.527"/><path class="cls-1" d="M22.931,2.257c-.667-.588-2.161.017-3.336,1.35-.035.041-.07.081-.1.122-.01-.053-.021-.1-.032-.157C19.081,1.835,18.071.58,17.2.769s-1.266,1.75-.888,3.488A4.689,4.689,0,0,0,17.559,6.7a5.187,5.187,0,0,0-1.05,2.109c-.447,1.721-.112,3.3.748,3.521s1.921-.991,2.367-2.712a5.18,5.18,0,0,0,.109-2.354A4.685,4.685,0,0,0,22.01,5.736C23.186,4.4,23.6,2.844,22.931,2.257Z"/><path class="cls-1" d="M19.733,7.264c-1.12-.291-.242-3.535-.242-3.535S18.673,7,17.559,6.7"/><line class="cls-1" x1="23.25" y1="21.75" x2="21.75" y2="23.25"/><line class="cls-1" x1="14.25" y1="15.75" x2="15" y2="17.25"/><line class="cls-1" x1="2.25" y1="0.75" x2="0.75" y2="2.25"/><path class="cls-1" d="M9.75,3.375a.375.375,0,0,1,.375.375"/><path class="cls-1" d="M9.375,3.75a.375.375,0,0,1,.375-.375"/><path class="cls-1" d="M9.75,4.125a.375.375,0,0,1-.375-.375"/><path class="cls-1" d="M10.125,3.75a.375.375,0,0,1-.375.375"/><path class="cls-1" d="M21,16.875a.375.375,0,0,1,.375.375"/><path class="cls-1" d="M20.625,17.25A.375.375,0,0,1,21,16.875"/><path class="cls-1" d="M21,17.625a.375.375,0,0,1-.375-.375"/><path class="cls-1" d="M21.375,17.25a.375.375,0,0,1-.375.375"/></svg>