<svg id="Regular" xmlns="http://www.w3.org/2000/svg" viewBox="0 0 24 24"><defs><style>.cls-1{fill:none;stroke:currentColor;stroke-linecap:round;stroke-linejoin:round;stroke-width:1.5px;}</style></defs><title>laboratory-sperm</title><circle class="cls-1" cx="12" cy="12" r="11.25"/><path class="cls-1" d="M10.146,15.532c.8.949.939,2.151.306,2.686s-1.795.2-2.6-.75-.939-2.152-.306-2.686S9.343,14.583,10.146,15.532Z"/><path class="cls-1" d="M7.548,14.782S3.349,12.394,5.25,9s6-.75,8.25-3"/><circle class="cls-1" cx="15.75" cy="14.25" r="1.5"/><path class="cls-1" d="M18,7.875a.375.375,0,0,1,.375.375"/><path class="cls-1" d="M17.625,8.25A.375.375,0,0,1,18,7.875"/><path class="cls-1" d="M18,8.625a.375.375,0,0,1-.375-.375"/><path class="cls-1" d="M18.375,8.25A.375.375,0,0,1,18,8.625"/></svg>