<svg id="Regular" xmlns="http://www.w3.org/2000/svg" viewBox="0 0 24 24"><defs><style>.cls-1{fill:none;stroke:currentColor;stroke-linecap:round;stroke-linejoin:round;stroke-width:1.5px;}</style></defs><title>lama</title><path class="cls-1" d="M21,15.75h.75s1.5,0,1.5-2.25S21,9.75,18.75,9.75H10.5v-6a2.938,2.938,0,0,0-3-3v1.5c-.241-.047-1.989,0-2.25,0A2.27,2.27,0,0,0,3,4.5C3,5.743,4.343,6.75,6,6.75c0,0-2.25,1.5-2.25,3.75s0,5.25,2.25,6.75C6,19.5,6.75,21,8.25,21a3.226,3.226,0,0,0,3-3h4.5s.75,3,3,3S21,18.75,21,17.25v-3"/><path class="cls-1" d="M3.148,5.2,3,5.25S.75,6,.75,7.5s3,1.5,3,1.5h.336"/><polyline class="cls-1" points="8.25 21 8.25 23.25 6.75 23.25"/><polyline class="cls-1" points="18.75 21 18.75 23.25 17.25 23.25"/></svg>