<svg xmlns="http://www.w3.org/2000/svg" viewBox="0 0 24 24"><defs><style>.a{fill:none;stroke:currentColor;stroke-linecap:round;stroke-linejoin:round;stroke-width:1.5px;}</style></defs><title>landmark-wat-phra-kaew</title><path class="a" d="M23.25,22.428H.75v-2.25a1.5,1.5,0,0,1,1.5-1.5h19.5a1.5,1.5,0,0,1,1.5,1.5Z"/><line class="a" x1="2.25" y1="18.678" x2="21.75" y2="18.678"/><path class="a" d="M21.75,18.678c-2.919-2.918-3.265-9.75-9.75-9.75-6.468,0-6.881,6.881-9.75,9.75"/><path class="a" d="M15.666,9.92a19.556,19.556,0,0,1-3.3-8.048.376.376,0,0,0-.736,0,19.543,19.543,0,0,1-3.307,8.06"/><line class="a" x1="6.304" y1="11.928" x2="17.7" y2="11.928"/></svg>