<svg xmlns="http://www.w3.org/2000/svg" viewBox="0 0 24 24"><defs><style>.a{fill:none;stroke:currentColor;stroke-linecap:round;stroke-linejoin:round;stroke-width:1.5px;}</style></defs><title>landmark-hagia-sophia</title><path class="a" d="M8.25,13.5V11.25a3.75,3.75,0,0,1,7.5,0V13.5"/><line class="a" x1="2.25" y1="3.75" x2="2.25" y2="0.75"/><path class="a" d="M18.375,15.75a1.874,1.874,0,0,1,1.875,1.875V6.75l1.5-3,1.5,3v15a1.5,1.5,0,0,1-1.5,1.5H2.25a1.5,1.5,0,0,1-1.5-1.5v-15l1.5-3,1.5,3V17.625A1.874,1.874,0,0,1,5.625,15.75"/><line class="a" x1="21.75" y1="3.75" x2="21.75" y2="0.75"/><path class="a" d="M7.5,19.5a4.5,4.5,0,0,1,9,0"/><line class="a" x1="12" y1="7.5" x2="12" y2="5.25"/><line class="a" x1="15.75" y1="11.25" x2="8.25" y2="11.25"/><line class="a" x1="6" y1="19.5" x2="18" y2="19.5"/></svg>