<svg xmlns="http://www.w3.org/2000/svg" viewBox="0 0 24 24"><defs><style>.a{fill:none;stroke:currentColor;stroke-linecap:round;stroke-linejoin:round;stroke-width:1.5px;}</style></defs><title>landmark-pisa-tower</title><polyline class="a" points="3.566 23.25 7.92 5.34 18.123 7.82 14.372 23.25"/><rect class="a" x="9.626" y="3.623" width="7.5" height="3" transform="translate(1.589 -3.015) rotate(13.665)"/><line class="a" x1="5.045" y1="10.816" x2="18.163" y2="14.005"/><line class="a" x1="3.628" y1="16.646" x2="16.746" y2="19.835"/><line class="a" x1="6.463" y1="4.985" x2="19.581" y2="8.175"/><line class="a" x1="8.629" y1="2.425" x2="18.832" y2="4.905"/><line class="a" x1="14.439" y1="0.75" x2="13.731" y2="3.665"/><path class="a" d="M7.425,23.25l.418-1.72a.751.751,0,0,1,.906-.552l1.458.355a.751.751,0,0,1,.552.906l-.246,1.011"/><line class="a" x1="1.5" y1="23.25" x2="22.5" y2="23.25"/></svg>