<svg xmlns="http://www.w3.org/2000/svg" viewBox="0 0 24 24"><defs><style>.a{fill:none;stroke:currentColor;stroke-linecap:round;stroke-linejoin:round;stroke-width:1.5px;}</style></defs><title>landmark-bagan</title><path class="a" d="M4.969,5.851a.752.752,0,0,1-.938,0L3.094,5.1A2.253,2.253,0,0,1,2.25,3.345V3A2.25,2.25,0,0,1,3.342,1.071h0a2.249,2.249,0,0,1,2.316,0h0A2.25,2.25,0,0,1,6.75,3v.345A2.251,2.251,0,0,1,5.905,5.1Z"/><path class="a" d="M4.5,8.25a.375.375,0,1,1-.375.375A.375.375,0,0,1,4.5,8.25"/><path class="a" d="M10.5,17.25H12a1.5,1.5,0,0,1,1.5-1.5v-3.1a2.262,2.262,0,0,1,1.249-2.022l2.5-6.875,2.5,6.875A2.262,2.262,0,0,1,21,12.647v3.1a1.5,1.5,0,0,1,1.5,1.5"/><path class="a" d="M1.5,23.25v-3a2.262,2.262,0,0,1,1.249-2.022L4.5,14.353l1.751,3.875A2.262,2.262,0,0,1,7.5,20.25V22.5a.75.75,0,0,0,.75.75H10.5"/></svg>