<svg xmlns="http://www.w3.org/2000/svg" viewBox="0 0 24 24"><defs><style>.a{fill:none;stroke:currentColor;stroke-linecap:round;stroke-linejoin:round;stroke-width:1.5px;}</style></defs><title>landmark-shrine-of-itsukushima</title><rect class="a" x="2.25" y="7.812" width="3" height="12.438"/><path class="a" d="M1.75,20.25h4a1,1,0,0,1,1,1v1.5a.5.5,0,0,1-.5.5h-5a.5.5,0,0,1-.5-.5v-1.5A1,1,0,0,1,1.75,20.25Z"/><rect class="a" x="18.75" y="7.812" width="3" height="12.438"/><path class="a" d="M18.25,20.25h4a1,1,0,0,1,1,1v1.5a.5.5,0,0,1-.5.5h-5a.5.5,0,0,1-.5-.5v-1.5A1,1,0,0,1,18.25,20.25Z"/><path class="a" d="M23.25.75,22.5,7.812H1.5L.75.75C7.387,3.548,15.135,4.864,23.25.75Z"/><line class="a" x1="0.75" y1="12.312" x2="23.25" y2="12.312"/><rect class="a" x="9.75" y="7.812" width="4.5" height="4.5"/></svg>