<svg xmlns="http://www.w3.org/2000/svg" viewBox="0 0 24 24"><defs><style>.a{fill:none;stroke:currentColor;stroke-linecap:round;stroke-linejoin:round;stroke-width:1.5px;}</style></defs><title>landmark-cn-tower</title><polyline class="a" points="13.5 12.494 13.5 23.25 10.5 23.25 10.5 12.494"/><line class="a" x1="9" y1="15.75" x2="15" y2="15.75"/><line class="a" x1="9" y1="18.75" x2="15" y2="18.75"/><path class="a" d="M7.756,6.75a4.5,4.5,0,0,1,8.488,0"/><path class="a" d="M18,8.25a1.5,1.5,0,0,1-1.5,1.5h-9a1.5,1.5,0,0,1,0-3h9A1.5,1.5,0,0,1,18,8.25Z"/><path class="a" d="M16.244,9.75a4.5,4.5,0,0,1-8.488,0"/><line class="a" x1="12" y1="0.75" x2="12" y2="3.75"/><line class="a" x1="1.5" y1="23.25" x2="22.5" y2="23.25"/></svg>