<svg xmlns="http://www.w3.org/2000/svg" viewBox="0 0 24 24"><defs><style>.a{fill:none;stroke:currentColor;stroke-linecap:round;stroke-linejoin:round;stroke-width:1.5px;}</style></defs><title>landmark-gate</title><path class="a" d="M2.75,10.5v12a.75.75,0,0,0,.75.75h3a.75.75,0,0,0,.75-.75V21a4.5,4.5,0,0,1,9,0v1.5a.75.75,0,0,0,.75.75h3a.75.75,0,0,0,.75-.75v-12Z"/><polyline class="a" points="1.25 9 1.25 10.5 22.25 10.5 22.25 9"/><polyline class="a" points="3.5 7.5 3.5 5.25 20 5.25 20 7.5"/><path class="a" d="M9.5,5.25V4.5a2.25,2.25,0,0,1,4.5,0v.75"/><line class="a" x1="18.5" y1="3" x2="18.5" y2="5.25"/><line class="a" x1="5" y1="3" x2="5" y2="5.25"/><path class="a" d="M13.577,14.251a10,10,0,0,0-1.383-1.188.75.75,0,0,0-.887,0A9.992,9.992,0,0,0,9.924,14.25"/><line class="a" x1="7.25" y1="5.25" x2="7.25" y2="7.5"/><line class="a" x1="16.25" y1="5.25" x2="16.25" y2="7.5"/><line class="a" x1="11.75" y1="2.25" x2="11.75" y2="0.75"/></svg>