<svg xmlns="http://www.w3.org/2000/svg" viewBox="0 0 24 24"><defs><style>.a{fill:none;stroke:currentColor;stroke-linecap:round;stroke-linejoin:round;stroke-width:1.5px;}</style></defs><title>landmark-louvre</title><line class="a" x1="0.75" y1="8.249" x2="7.5" y2="8.249"/><line class="a" x1="16.5" y1="8.249" x2="23.25" y2="8.249"/><path class="a" d="M7.5,12V6a3,3,0,0,1,3-3h3a3,3,0,0,1,3,3v6"/><path class="a" d="M3.038,22.5a.374.374,0,0,1-.291-.611l8.962-11.03a.374.374,0,0,1,.582,0l8.962,11.03a.374.374,0,0,1-.291.611Z"/><line class="a" x1="15.305" y1="14.567" x2="9.375" y2="21.865"/><line class="a" x1="17.93" y1="17.798" x2="14.109" y2="22.5"/><line class="a" x1="8.695" y1="14.567" x2="14.625" y2="21.865"/><line class="a" x1="6.07" y1="17.798" x2="9.891" y2="22.5"/><line class="a" x1="7.5" y1="1.499" x2="7.5" y2="5.999"/><line class="a" x1="16.5" y1="1.499" x2="16.5" y2="5.999"/><line class="a" x1="16.5" y1="5.999" x2="7.5" y2="5.999"/><path class="a" d="M22.5,15h-3v-2.25a1.5,1.5,0,0,1,3,0Z"/><path class="a" d="M4.5,15h-3v-2.25a1.5,1.5,0,0,1,3,0Z"/><line class="a" x1="23.25" y1="5.249" x2="16.5" y2="5.249"/><line class="a" x1="7.5" y1="5.249" x2="0.75" y2="5.249"/></svg>