<svg xmlns="http://www.w3.org/2000/svg" viewBox="0 0 24 24"><defs><style>.a{fill:none;stroke:currentColor;stroke-linecap:round;stroke-linejoin:round;stroke-width:1.5px;}</style></defs><title>landmark-rialto-bridge</title><path class="a" d="M23.22,22.5c-2.068,0-3.745-1.007-3.745-2.25,0,1.243-1.677,2.25-3.745,2.25s-3.745-1.007-3.745-2.25c0,1.243-1.677,2.25-3.745,2.25S4.5,21.493,4.5,20.25C4.5,21.493,2.818,22.5.75,22.5"/><path class="a" d="M.75,19.5V14.041a.751.751,0,0,1,.513-.712l10.5-3.5a.753.753,0,0,1,.474,0l10.5,3.5a.751.751,0,0,1,.513.712V19.5"/><path class="a" d="M.75,5.25,11.763,1.579a.753.753,0,0,1,.474,0L23.25,5.25"/><path class="a" d="M2.25,13V10.5a2.25,2.25,0,0,1,4.5,0v1"/><path class="a" d="M21.75,13V10.5a2.25,2.25,0,0,0-4.5,0v1"/><path class="a" d="M9.75,10.5V6.75a2.25,2.25,0,0,1,4.5,0V10.5"/><path class="a" d="M8.25,19.5v-3a3.75,3.75,0,0,1,7.5,0v3"/></svg>