<svg xmlns="http://www.w3.org/2000/svg" viewBox="0 0 24 24"><defs><style>.a{fill:none;stroke:currentColor;stroke-linecap:round;stroke-linejoin:round;stroke-width:1.5px;}</style></defs><title>landmark-volcano</title><path class="a" d="M.75,22.5a12.547,12.547,0,0,0,7.967-7.959A1.5,1.5,0,0,1,10.145,13.5H12"/><path class="a" d="M23.25,22.5a12.547,12.547,0,0,1-7.967-7.959A1.5,1.5,0,0,0,13.855,13.5H12"/><circle class="a" cx="5.25" cy="4.5" r="3"/><path class="a" d="M7.784,16.69l1.55,1.033a.75.75,0,0,0,.832,0l1.418-.946a.75.75,0,0,1,.832,0l1.418.946a.75.75,0,0,0,.832,0l1.55-1.033"/></svg>