<svg xmlns="http://www.w3.org/2000/svg" viewBox="0 0 24 24"><defs><style>.a{fill:none;stroke:currentColor;stroke-linecap:round;stroke-linejoin:round;stroke-width:1.5px;}</style></defs><title>landmark-brooklyn-bridge</title><path class="a" d="M23.25,7.453A6,6,0,0,1,18.005,1.5a6,6,0,1,1-12,0A6,6,0,0,1,.755,7.454"/><line class="a" x1="0.75" y1="13.5" x2="23.25" y2="13.5"/><line class="a" x1="14.25" y1="13.5" x2="14.25" y2="7.066"/><line class="a" x1="18" y1="13.5" x2="18.005" y2="1.5"/><line class="a" x1="21.75" y1="13.5" x2="21.75" y2="7.062"/><line class="a" x1="9.755" y1="13.5" x2="9.755" y2="7.066"/><line class="a" x1="6.005" y1="13.5" x2="6" y2="1.5"/><line class="a" x1="2.255" y1="13.5" x2="2.255" y2="7.062"/><polyline class="a" points="16.5 17.25 16.5 13.5 19.5 13.5 19.5 17.25"/><polyline class="a" points="7.5 17.25 7.5 13.5 4.5 13.5 4.5 17.25"/><path class="a" d="M23.25,22.5a2.553,2.553,0,0,1-2.475-2.25c0,1.243-1.31,2.25-2.925,2.25s-2.925-1.007-2.925-2.25c0,1.243-1.31,2.25-2.925,2.25s-2.925-1.007-2.925-2.25c0,1.243-1.31,2.25-2.925,2.25s-2.925-1.007-2.925-2.25A2.553,2.553,0,0,1,.75,22.5"/></svg>