<svg xmlns="http://www.w3.org/2000/svg" viewBox="0 0 24 24"><defs><style>.a{fill:none;stroke:currentColor;stroke-linecap:round;stroke-linejoin:round;stroke-width:1.5px;}</style></defs><title>landmark-empire-state</title><path class="a" d="M4.5,23.25V18a.75.75,0,0,1,.75-.75H10.5"/><path class="a" d="M6,17.25v-4.5A.75.75,0,0,1,6.75,12H10.5"/><path class="a" d="M7.5,12V8.25a.75.75,0,0,1,.75-.75H10.5"/><path class="a" d="M19.5,23.25V18a.75.75,0,0,0-.75-.75H13.5"/><path class="a" d="M18,17.25v-4.5a.75.75,0,0,0-.75-.75H13.5"/><path class="a" d="M16.5,12V8.25a.75.75,0,0,0-.75-.75H13.5"/><line class="a" x1="13.5" y1="7.5" x2="13.5" y2="23.25"/><line class="a" x1="10.5" y1="23.25" x2="10.5" y2="7.501"/><polyline class="a" points="9.75 7.5 11.25 3 12.75 3 14.25 7.5"/><line class="a" x1="12" y1="3" x2="12" y2="0.75"/></svg>