<svg xmlns="http://www.w3.org/2000/svg" viewBox="0 0 24 24"><defs><style>.a{fill:none;stroke:currentColor;stroke-linecap:round;stroke-linejoin:round;stroke-width:1.5px;}</style></defs><title>landmark-chinese-pagoda</title><polyline class="a" points="9 5.25 12 2.25 15 5.25"/><line class="a" x1="12" y1="2.25" x2="12" y2="0.75"/><polyline class="a" points="3 18.75 5.25 16.5 18.75 16.5 21 18.75"/><polyline class="a" points="4.5 14.25 6.75 12 17.25 12 19.5 14.25"/><polyline class="a" points="6 9.75 8.25 7.5 15.75 7.5 18 9.75"/><path class="a" d="M18.75,20.25V22.5a.75.75,0,0,1-.75.75H6a.75.75,0,0,1-.75-.75V20.25"/><line class="a" x1="9.75" y1="21" x2="9.75" y2="23.25"/><line class="a" x1="14.25" y1="21" x2="14.25" y2="23.25"/></svg>