<svg xmlns="http://www.w3.org/2000/svg" viewBox="0 0 24 24"><defs><style>.a{fill:none;stroke:currentColor;stroke-linecap:round;stroke-linejoin:round;stroke-width:1.5px;}</style></defs><title>landmark-buckingham-palace</title><path class="a" d="M9.75,15.75V7.811a.751.751,0,0,1,.22-.531L12,5.25l2.03,2.03a.751.751,0,0,1,.22.531V15.75"/><line class="a" x1="5.25" y1="15.75" x2="18.75" y2="15.75"/><line class="a" x1="12" y1="5.25" x2="12" y2="0.75"/><line class="a" x1="8.25" y1="18.75" x2="8.25" y2="20.25"/><line class="a" x1="12" y1="18.75" x2="12" y2="20.25"/><line class="a" x1="15.75" y1="18.75" x2="15.75" y2="20.25"/><path class="a" d="M18.75,23.25V13.811a.751.751,0,0,1,.22-.531l1.5-1.5a.749.749,0,0,1,1.06,0l1.5,1.5a.751.751,0,0,1,.22.531V21.75a1.5,1.5,0,0,1-1.5,1.5H2.25a1.5,1.5,0,0,1-1.5-1.5V13.811a.751.751,0,0,1,.22-.531l1.5-1.5a.749.749,0,0,1,1.06,0l1.5,1.5a.751.751,0,0,1,.22.531V23.25"/></svg>