<svg xmlns="http://www.w3.org/2000/svg" viewBox="0 0 24 24"><defs><style>.a{fill:none;stroke:currentColor;stroke-linecap:round;stroke-linejoin:round;stroke-width:1.5px;}</style></defs><title>landmark-forbidden-city</title><path class="a" d="M20.25,10.875a15.721,15.721,0,0,0,2.985,4.485c0,.015,0,.015.015.015H.75c.015,0,.015,0,.015-.015A15.721,15.721,0,0,0,3.75,10.875"/><rect class="a" x="3.75" y="7.875" width="16.5" height="3"/><path class="a" d="M.75,15.375h22.5a0,0,0,0,1,0,0v6.5a1,1,0,0,1-1,1H1.75a1,1,0,0,1-1-1v-6.5A0,0,0,0,1,.75,15.375Z"/><path class="a" d="M21.659,7.875a.749.749,0,0,0,.585-1.219A7.7,7.7,0,0,1,20.25,1.875H3.75A7.7,7.7,0,0,1,1.756,6.656a.749.749,0,0,0,.585,1.219Z"/><line class="a" x1="3" y1="1.125" x2="3.75" y2="1.875"/><line class="a" x1="21" y1="1.125" x2="20.25" y2="1.875"/><path class="a" d="M6.75,22.875h-3v-3a1.5,1.5,0,0,1,3,0Z"/><path class="a" d="M20.25,22.875h-3v-3a1.5,1.5,0,0,1,3,0Z"/><path class="a" d="M10.75,18.375h2.5a1,1,0,0,1,1,1v3.5a0,0,0,0,1,0,0H9.75a0,0,0,0,1,0,0v-3.5A1,1,0,0,1,10.75,18.375Z"/></svg>