<svg xmlns="http://www.w3.org/2000/svg" viewBox="0 0 24 24"><defs><style>.a{fill:none;stroke:currentColor;stroke-linecap:round;stroke-linejoin:round;stroke-width:1.5px;}</style></defs><title>landmark-london-eye-1</title><circle class="a" cx="12" cy="12" r="3"/><circle class="a" cx="12" cy="3" r="2.25"/><circle class="a" cx="3" cy="6" r="2.25"/><circle class="a" cx="3.75" cy="15.75" r="2.25"/><line class="a" x1="9.75" y1="23.25" x2="11.258" y2="14.907"/><line class="a" x1="14.25" y1="23.25" x2="12.742" y2="14.907"/><line class="a" x1="0.75" y1="23.25" x2="3" y2="18"/><line class="a" x1="3.75" y1="13.5" x2="3" y2="8.25"/><line class="a" x1="12" y1="5.25" x2="12" y2="9"/><line class="a" x1="5.39" y1="17.29" x2="10.504" y2="19.079"/><line class="a" x1="5.25" y1="6" x2="9.75" y2="3"/><line class="a" x1="9.368" y1="10.561" x2="4.699" y2="7.474"/><circle class="a" cx="21" cy="6" r="2.25"/><circle class="a" cx="20.25" cy="15.75" r="2.25"/><line class="a" x1="23.25" y1="23.25" x2="21" y2="18"/><line class="a" x1="20.25" y1="13.5" x2="21" y2="8.25"/><line class="a" x1="18.61" y1="17.29" x2="13.496" y2="19.079"/><line class="a" x1="18.75" y1="6" x2="14.25" y2="3"/><line class="a" x1="14.632" y1="10.561" x2="19.301" y2="7.474"/><line class="a" x1="5.91" y1="15.121" x2="9.385" y2="13.471"/><line class="a" x1="18.09" y1="15.121" x2="14.615" y2="13.471"/></svg>