<svg xmlns="http://www.w3.org/2000/svg" viewBox="0 0 24 24"><defs><style>.a{fill:none;stroke:currentColor;stroke-linecap:round;stroke-linejoin:round;stroke-width:1.5px;}</style></defs><title>landmark-golden-temple</title><path class="a" d="M15.5,10.929a1.973,1.973,0,0,0,1-1.608C16.5,6.643,14,6.643,12,4.5,10,6.643,7.5,6.643,7.5,9.321a1.973,1.973,0,0,0,1,1.608"/><path class="a" d="M18.749,8.494a11.263,11.263,0,0,0,1.5-1.744C21,8,22.5,8.84,22.5,9.875a1.634,1.634,0,0,1-.75,1.25V14.25"/><path class="a" d="M21.75,23.25v-9a1.5,1.5,0,0,0-1.5-1.5h-1.5"/><path class="a" d="M2.25,23.25v-9a1.5,1.5,0,0,1,1.5-1.5h1.5"/><line class="a" x1="0.75" y1="15.75" x2="23.25" y2="15.75"/><path class="a" d="M14.25,23.25V21a2.25,2.25,0,0,0-4.5,0v2.25"/><line class="a" x1="20.25" y1="4.5" x2="20.25" y2="3"/><path class="a" d="M5.251,8.494A11.263,11.263,0,0,1,3.75,6.75C3,8,1.5,8.84,1.5,9.875a1.634,1.634,0,0,0,.75,1.25V14.25"/><line class="a" x1="3.75" y1="4.5" x2="3.75" y2="3"/><circle class="a" cx="12" cy="1.125" r="0.375"/><line class="a" x1="17.25" y1="18" x2="17.25" y2="23.25"/><line class="a" x1="6.75" y1="18" x2="6.75" y2="23.25"/></svg>