<svg xmlns="http://www.w3.org/2000/svg" viewBox="0 0 24 24"><defs><style>.a{fill:none;stroke:currentColor;stroke-linecap:round;stroke-linejoin:round;stroke-width:1.5px;}</style></defs><title>landmark-london-tower</title><circle class="a" cx="11.75" cy="16.439" r="3.75"/><line class="a" x1="11.75" y1="14.939" x2="11.75" y2="17.189"/><path class="a" d="M4.25,9.689h15a0,0,0,0,1,0,0v12.5a1,1,0,0,1-1,1h-13a1,1,0,0,1-1-1V9.689A0,0,0,0,1,4.25,9.689Z"/><path class="a" d="M12.28,1.22a.749.749,0,0,0-1.06,0L8.97,3.47A.747.747,0,0,0,8.75,4V5.939l-4.5,3.75h15l-4.5-3.75V4a.747.747,0,0,0-.22-.53Z"/><line class="a" x1="11.75" y1="17.189" x2="13.25" y2="17.189"/></svg>