<svg xmlns="http://www.w3.org/2000/svg" viewBox="0 0 24 24"><defs><style>.a{fill:none;stroke:currentColor;stroke-linecap:round;stroke-linejoin:round;stroke-width:1.5px;}</style></defs><title>landmark-angkor-wat</title><path class="a" d="M3.758,13.875C1.819,11.906,2.3,8.625,2.3,8.625s5.818,0,5.818,5.25"/><path class="a" d="M20.242,13.875c1.939-1.969,1.454-5.25,1.454-5.25s-5.818,0-5.818,5.25"/><path class="a" d="M15.878,13.875c0-3.281-3.878-5.25-3.878-5.25s-3.878,1.969-3.878,5.25"/><path class="a" d="M15.79,6.016A8.792,8.792,0,0,0,12,1.875,8.792,8.792,0,0,0,8.21,6.016"/><path class="a" d="M2.25,18.375v-3.75a.75.75,0,0,1,.75-.75H21a.75.75,0,0,1,.75.75v3.75"/><line class="a" x1="9.75" y1="13.875" x2="7.5" y2="22.125"/><line class="a" x1="14.25" y1="13.875" x2="16.5" y2="22.125"/><path class="a" d="M15.5,18.375h7a.75.75,0,0,1,.75.75v3"/><path class="a" d="M.75,22.125v-3a.75.75,0,0,1,.75-.75H8.523"/><path class="a" d="M4.666,9.062A6.261,6.261,0,0,1,5.32,6.4,4.873,4.873,0,0,1,7.152,4.375S7.931,5.54,8.9,7.125"/><path class="a" d="M19.334,9.062A6.261,6.261,0,0,0,18.68,6.4a4.873,4.873,0,0,0-1.832-2.023S16.069,5.54,15.1,7.125"/></svg>