<svg xmlns="http://www.w3.org/2000/svg" viewBox="0 0 24 24"><defs><style>.a{fill:none;stroke:currentColor;stroke-linecap:round;stroke-linejoin:round;stroke-width:1.5px;}</style></defs><title>landmark-chrysler</title><path class="a" d="M9.75,7.5v-3A2.25,2.25,0,0,1,12,2.25h0A2.25,2.25,0,0,1,14.25,4.5v3"/><line class="a" x1="12" y1="2.25" x2="12" y2="0.75"/><line class="a" x1="10.5" y1="20.25" x2="10.5" y2="23.25"/><line class="a" x1="13.5" y1="20.25" x2="13.5" y2="23.25"/><path class="a" d="M6,23.25V16.5a6,6,0,0,1,12,0v6.75"/><path class="a" d="M6,18H9V16.5a3,3,0,0,1,6,0V18h3"/><path class="a" d="M15.75,11.816V10.5a3.75,3.75,0,0,0-7.5,0v1.316"/></svg>