<svg xmlns="http://www.w3.org/2000/svg" viewBox="0 0 24 24"><defs><style>.a{fill:none;stroke:currentColor;stroke-linecap:round;stroke-linejoin:round;stroke-width:1.5px;}</style></defs><title>landmark-chinese-wall</title><rect class="a" x="14.25" y="8.25" width="9" height="9"/><path class="a" d="M20.25,17.25h-3V13.5a1.5,1.5,0,0,1,3,0Z"/><line class="a" x1="14.25" y1="8.25" x2="14.25" y2="6"/><line class="a" x1="18.75" y1="8.25" x2="18.75" y2="6"/><line class="a" x1="23.25" y1="8.25" x2="23.25" y2="6"/><polyline class="a" points="0.75 9 0.75 3 6.75 3 6.75 9.75"/><line class="a" x1="0.75" y1="3" x2="0.75" y2="0.75"/><line class="a" x1="3.75" y1="3" x2="3.75" y2="0.75"/><line class="a" x1="6.75" y1="3" x2="6.75" y2="0.75"/><path class="a" d="M10.25,16,1.579,11.665A1.5,1.5,0,0,1,.75,10.323V6.75l9.9,4.95"/><line class="a" x1="8.25" y1="23.25" x2="14.25" y2="17.25"/><line class="a" x1="3.75" y1="22.5" x2="14.25" y2="12"/><line class="a" x1="23.25" y1="17.25" x2="18.75" y2="23.25"/></svg>