<svg xmlns="http://www.w3.org/2000/svg" viewBox="0 0 24 24"><defs><style>.a{fill:none;stroke:currentColor;stroke-linecap:round;stroke-linejoin:round;stroke-width:1.5px;}</style></defs><title>landmark-one-world-trade-center</title><path class="a" d="M4.75,17.131h14.5a1,1,0,0,1,1,1v5a0,0,0,0,1,0,0H3.75a0,0,0,0,1,0,0v-5A1,1,0,0,1,4.75,17.131Z"/><path class="a" d="M6.25,8.131h11.5a1,1,0,0,1,1,1v8a0,0,0,0,1,0,0H5.25a0,0,0,0,1,0,0v-8A1,1,0,0,1,6.25,8.131Z"/><rect class="a" x="6.75" y="5.131" width="10.5" height="3"/><path class="a" d="M12.488,1.049a.752.752,0,0,0-.976,0L6.75,5.131h10.5Z"/><line class="a" x1="2.25" y1="23.131" x2="21.75" y2="23.131"/><path class="a" d="M9.75,13.756a.375.375,0,1,1-.375.375.375.375,0,0,1,.375-.375"/><path class="a" d="M9.75,10.756a.375.375,0,1,1-.375.375.375.375,0,0,1,.375-.375"/><path class="a" d="M8.25,19.756a.375.375,0,1,1-.375.375.375.375,0,0,1,.375-.375"/><path class="a" d="M12,19.756a.375.375,0,1,1-.375.375A.375.375,0,0,1,12,19.756"/><path class="a" d="M15.75,19.756a.375.375,0,1,1-.375.375.375.375,0,0,1,.375-.375"/><path class="a" d="M14.25,13.756a.375.375,0,1,1-.375.375.375.375,0,0,1,.375-.375"/><path class="a" d="M14.25,10.756a.375.375,0,1,1-.375.375.375.375,0,0,1,.375-.375"/></svg>