<svg xmlns="http://www.w3.org/2000/svg" viewBox="0 0 24 24"><defs><style>.a{fill:none;stroke:currentColor;stroke-linecap:round;stroke-linejoin:round;stroke-width:1.5px;}</style></defs><title>landmark-netherlands-windmill</title><path class="a" d="M15.334,17.169l1.342,4.025a1.5,1.5,0,0,1-1.423,1.975H8.915a1.5,1.5,0,0,1-1.423-1.975l1.342-4.025"/><path class="a" d="M9.963,7.834,6.1,5.256A2.46,2.46,0,1,1,9.506,1.845l2.578,3.868,2.579-3.868a2.459,2.459,0,1,1,3.41,3.411L14.206,7.834l3.867,2.579a2.459,2.459,0,1,1-3.41,3.41L12.084,9.956,9.506,13.823A2.459,2.459,0,1,1,6.1,10.413Z"/></svg>