<svg xmlns="http://www.w3.org/2000/svg" viewBox="0 0 24 24"><defs><style>.a{fill:none;stroke:currentColor;stroke-linecap:round;stroke-linejoin:round;stroke-width:1.5px;}</style></defs><title>landmark-tower</title><line class="a" x1="0.75" y1="22.75" x2="23.25" y2="22.75"/><path class="a" d="M12.75,22.75h-6L7.491,3.484a.754.754,0,0,1,.149-.421L9.15,1.05a.75.75,0,0,1,1.2,0l1.51,2.013a.754.754,0,0,1,.149.421Z"/><path class="a" d="M21,1.75a2.249,2.249,0,0,0-2.2,1.767A1.457,1.457,0,0,0,18,3.25a1.5,1.5,0,0,0,0,3h3a2.25,2.25,0,0,0,0-4.5Z"/></svg>