<svg xmlns="http://www.w3.org/2000/svg" viewBox="0 0 24 24"><defs><style>.a{fill:none;stroke:currentColor;stroke-linecap:round;stroke-linejoin:round;stroke-width:1.5px;}</style></defs><title>landmark-japan-castle</title><line class="a" x1="0.75" y1="23.25" x2="23.25" y2="23.25"/><path class="a" d="M20.25,18.75h-18l2.555-3.832a1.5,1.5,0,0,1,1.248-.668H16.447a1.5,1.5,0,0,1,1.248.668Z"/><path class="a" d="M18.181,5.242,16.342,8.921A1.5,1.5,0,0,1,15,9.75H7.5a1.5,1.5,0,0,1-1.342-.829L4.331,5.266"/><line class="a" x1="5.073" y1="6.75" x2="17.427" y2="6.75"/><path class="a" d="M8.25,6.75a3,3,0,0,1,6,0"/><line class="a" x1="11.25" y1="0.75" x2="11.25" y2="3.75"/><rect class="a" x="8.25" y="9.75" width="6" height="4.5"/><polygon class="a" points="17.25 23.25 5.25 23.25 5.25 18.75 11.25 18.75 17.25 18.75 17.25 23.25"/><line class="a" x1="11.25" y1="9.75" x2="11.25" y2="14.25"/><line class="a" x1="11.25" y1="23.25" x2="11.25" y2="18.75"/><line class="a" x1="8.25" y1="18.75" x2="8.25" y2="23.25"/><line class="a" x1="14.25" y1="18.75" x2="14.25" y2="23.25"/><line class="a" x1="0.75" y1="17.25" x2="2.25" y2="18.75"/><line class="a" x1="21.75" y1="17.25" x2="20.25" y2="18.75"/></svg>