<svg xmlns="http://www.w3.org/2000/svg" viewBox="0 0 24 24"><defs><style>.a{fill:none;stroke:currentColor;stroke-linecap:round;stroke-linejoin:round;stroke-width:1.5px;}</style></defs><title>landmark-bridge</title><path class="a" d="M8,11h8a.5.5,0,0,1,.5.5V22.25a0,0,0,0,1,0,0h-9a0,0,0,0,1,0,0V11.5A.5.5,0,0,1,8,11Z"/><path class="a" d="M13.5,22.25h-3V18.5a1.5,1.5,0,0,1,3,0Z"/><path class="a" d="M9.75,11V3.811a.751.751,0,0,1,.22-.531l1.5-1.5a.749.749,0,0,1,1.06,0l1.5,1.5a.751.751,0,0,1,.22.531V11"/><line class="a" x1="16.5" y1="14" x2="21" y2="14"/><line class="a" x1="16.5" y1="22.25" x2="21" y2="22.25"/><polyline class="a" points="23.25 22.25 21 22.25 21 12.5 23.25 12.5"/><line class="a" x1="7.5" y1="14" x2="3" y2="14"/><line class="a" x1="7.5" y1="22.25" x2="3" y2="22.25"/><polyline class="a" points="0.75 22.25 3 22.25 3 12.5 0.75 12.5"/><line class="a" x1="3" y1="10.25" x2="3" y2="12.5"/><line class="a" x1="21" y1="10.25" x2="21" y2="12.5"/></svg>