<svg xmlns="http://www.w3.org/2000/svg" viewBox="0 0 24 24"><defs><style>.a{fill:none;stroke:currentColor;stroke-linecap:round;stroke-linejoin:round;stroke-width:1.5px;}</style></defs><title>landmark-saint-basil&amp;apos;s-cathderal</title><path class="a" d="M4,9a2.1,2.1,0,0,1-.875-1.75c0-1.208,1.641-1.859,2.187-3.5C5.859,5.391,7.5,6.042,7.5,7.25A2.1,2.1,0,0,1,6.625,9"/><path class="a" d="M7.25,16.5a2.1,2.1,0,0,0,.875-1.75c0-1.208-1.641-1.859-2.188-3.5-.546,1.641-2.187,2.292-2.187,3.5a2.1,2.1,0,0,0,.875,1.75v3.75"/><path class="a" d="M11.375,16.5a2.1,2.1,0,0,1-.875-1.75c0-1.208,1.641-1.859,2.187-3.5.547,1.641,2.188,2.292,2.188,3.5A2.1,2.1,0,0,1,14,16.5"/><path class="a" d="M21.75,14.25v-1.5a3.6,3.6,0,0,0,1.5-3c0-2.071-2.812-3.188-3.75-6-.937,2.812-3.75,3.929-3.75,6a3.6,3.6,0,0,0,1.5,3"/><path class="a" d="M20.8,16.891l-2.081,2.914a1.956,1.956,0,0,0-.364,1.137V23.25H22.5a.75.75,0,0,0,.75-.75V20.942a1.956,1.956,0,0,0-.364-1.137Z"/><path class="a" d="M18.359,23.25H1.5a.75.75,0,0,1-.75-.75V20.935h0A2.935,2.935,0,0,1,3.685,18h.94"/><line class="a" x1="13.65" y1="3.45" x2="14.75" y2="6.749"/><circle class="a" cx="12.75" cy="2.25" r="1.5"/><line class="a" x1="9.75" y1="10.5" x2="11.85" y2="3.45"/><path class="a" d="M10.5,23.25V21.375a1.875,1.875,0,0,1,3.75,0V23.25"/></svg>