<svg xmlns="http://www.w3.org/2000/svg" viewBox="0 0 24 24"><defs><style>.a{fill:none;stroke:currentColor;stroke-linecap:round;stroke-linejoin:round;stroke-width:1.5px;}</style></defs><title>landmark-berlin-cathedral</title><path class="a" d="M16.5,23.25h-9V13.5l3.876-5.814a.75.75,0,0,1,1.248,0L16.5,13.5Z"/><path class="a" d="M12,13.875a.375.375,0,1,1-.375.375A.375.375,0,0,1,12,13.875"/><path class="a" d="M13.5,23.25h-3v-3a1.5,1.5,0,0,1,3,0Z"/><path class="a" d="M1.5,9.75h6a0,0,0,0,1,0,0v13.5a0,0,0,0,1,0,0h-5a1,1,0,0,1-1-1V9.75A0,0,0,0,1,1.5,9.75Z"/><path class="a" d="M16.5,9.75h6a0,0,0,0,1,0,0v12.5a1,1,0,0,1-1,1h-5a0,0,0,0,1,0,0V9.75A0,0,0,0,1,16.5,9.75Z"/><polyline class="a" points="2.25 9.75 4.5 5.25 6.75 9.75"/><polyline class="a" points="17.25 9.75 19.5 5.25 21.75 9.75"/><line class="a" x1="4.5" y1="0.75" x2="4.5" y2="5.25"/><line class="a" x1="3" y1="3.75" x2="6" y2="3.75"/><line class="a" x1="19.5" y1="0.75" x2="19.5" y2="5.25"/><line class="a" x1="18" y1="3.75" x2="21" y2="3.75"/><line class="a" x1="4.5" y1="14.25" x2="4.5" y2="15.75"/><line class="a" x1="19.5" y1="14.25" x2="19.5" y2="15.75"/><line class="a" x1="1.5" y1="15.75" x2="7.5" y2="15.75"/><line class="a" x1="16.5" y1="15.75" x2="22.5" y2="15.75"/><line class="a" x1="4.5" y1="18.75" x2="4.5" y2="20.25"/><line class="a" x1="19.5" y1="18.75" x2="19.5" y2="20.25"/></svg>