<svg xmlns="http://www.w3.org/2000/svg" viewBox="0 0 24 24"><defs><style>.a{fill:none;stroke:currentColor;stroke-linecap:round;stroke-linejoin:round;stroke-width:1.5px;}</style></defs><title>landmark-totem-pole</title><path class="a" d="M7.5,23.25v-18a4.5,4.5,0,0,1,9,0v18"/><line class="a" x1="7.5" y1="20.25" x2="16.5" y2="20.25"/><line class="a" x1="7.5" y1="17.25" x2="16.5" y2="17.25"/><line class="a" x1="13.5" y1="6" x2="13.5" y2="6.75"/><line class="a" x1="10.5" y1="6" x2="10.5" y2="6.75"/><path class="a" d="M12.237,9.079a.753.753,0,0,0-.474,0L7.5,10.5l4.02,3.35a.749.749,0,0,0,.96,0L16.5,10.5Z"/><path class="a" d="M7.5,6.75h-6a.749.749,0,0,0-.721.956L1.7,10.918A1.491,1.491,0,0,0,3.131,12a1.125,1.125,0,0,1,1.125,1.125A1.125,1.125,0,0,0,5.381,14.25H7.5"/><path class="a" d="M16.5,6.75h6a.749.749,0,0,1,.721.956L22.3,10.918A1.491,1.491,0,0,1,20.869,12a1.125,1.125,0,0,0-1.125,1.125,1.125,1.125,0,0,1-1.125,1.125H16.5"/></svg>