<svg xmlns="http://www.w3.org/2000/svg" viewBox="0 0 24 24"><defs><style>.a{fill:none;stroke:currentColor;stroke-linecap:round;stroke-linejoin:round;stroke-width:1.5px;}</style></defs><title>landmark-chinese-pagoda-1</title><path class="a" d="M17.528,12H6.471A7.81,7.81,0,0,1,1,15.214a.292.292,0,0,0-.249.27.311.311,0,0,0,.186.327,12.708,12.708,0,0,0,4.428.689H18.634a12.7,12.7,0,0,0,4.427-.689.311.311,0,0,0,.187-.327.292.292,0,0,0-.249-.27A7.814,7.814,0,0,1,17.528,12Z"/><line class="a" x1="19.5" y1="16.479" x2="19.5" y2="18.75"/><line class="a" x1="4.5" y1="16.479" x2="4.5" y2="18.75"/><path class="a" d="M18.6,6.964A20.81,20.81,0,0,1,13.225,4.5h-2.45A20.81,20.81,0,0,1,5.4,6.964c-.078.013-.141.126-.15.27a.375.375,0,0,0,.112.327,4.964,4.964,0,0,0,2.656.689H15.98a4.965,4.965,0,0,0,2.657-.689.375.375,0,0,0,.112-.327C18.74,7.09,18.677,6.977,18.6,6.964Z"/><path class="a" d="M8.689,1.5l.75-.75L10.939,3l1.5-1.5a1.061,1.061,0,0,1,1.5,0h0a1.059,1.059,0,0,1,0,1.5"/><path class="a" d="M.75,21v.75a1.5,1.5,0,0,0,1.5,1.5h19.5a1.5,1.5,0,0,0,1.5-1.5V21"/><line class="a" x1="5.25" y1="23.25" x2="5.25" y2="21"/><line class="a" x1="9.75" y1="23.25" x2="9.75" y2="21"/><line class="a" x1="14.25" y1="23.25" x2="14.25" y2="21"/><line class="a" x1="18.75" y1="23.25" x2="18.75" y2="21"/><line class="a" x1="7.5" y1="12" x2="7.5" y2="10.5"/><line class="a" x1="12" y1="12" x2="12" y2="10.5"/><line class="a" x1="16.5" y1="12" x2="16.5" y2="10.5"/></svg>