<svg xmlns="http://www.w3.org/2000/svg" viewBox="0 0 24 24"><defs><style>.a{fill:none;stroke:currentColor;stroke-linecap:round;stroke-linejoin:round;stroke-width:1.5px;}</style></defs><title>landmark-pyramid-sphinx</title><path class="a" d="M18.563,14.163l1.674-1.656a1.719,1.719,0,0,0,.513-1.224V9.4a8.751,8.751,0,0,0-17.5,0v1.879a1.719,1.719,0,0,0,.513,1.224l1.674,1.656"/><path class="a" d="M20.75,19.5V18.058A4.155,4.155,0,0,0,19.512,15.1L14,9.649"/><path class="a" d="M10,9.649,4.488,15.1A4.155,4.155,0,0,0,3.25,18.058V19.5"/><path class="a" d="M15.5,4.212a3.5,3.5,0,0,0-7,0v2.6a3.5,3.5,0,0,0,7,0Z"/><path class="a" d="M8.5,23.25V21A1.5,1.5,0,0,0,7,19.5H3A1.5,1.5,0,0,0,1.5,21v2.25"/><path class="a" d="M15.5,23.25V21A1.5,1.5,0,0,1,17,19.5h4A1.5,1.5,0,0,1,22.5,21v2.25"/><line class="a" x1="9.608" y1="14.25" x2="14.158" y2="14.25"/><line class="a" x1="9.608" y1="17.25" x2="14.158" y2="17.25"/></svg>