<svg xmlns="http://www.w3.org/2000/svg" viewBox="0 0 24 24"><defs><style>.a{fill:none;stroke:currentColor;stroke-linecap:round;stroke-linejoin:round;stroke-width:1.5px;}</style></defs><title>landmark-london-eye</title><line class="a" x1="0.75" y1="23.25" x2="23.25" y2="23.25"/><path class="a" d="M6.75,23.25l3.891-8.337a1.5,1.5,0,0,1,2.718,0L17.25,23.25"/><circle class="a" cx="12" cy="3" r="2.25"/><circle class="a" cx="18.75" cy="6.75" r="2.25"/><circle class="a" cx="19.5" cy="14.25" r="2.25"/><path class="a" d="M19.852,8.71a8.3,8.3,0,0,1,.353,3.4"/><path class="a" d="M14.228,3.3a8.239,8.239,0,0,1,3.138,1.679"/><circle class="a" cx="5.25" cy="6.75" r="2.25"/><circle class="a" cx="4.5" cy="14.25" r="2.25"/><path class="a" d="M5.463,16.284a8.252,8.252,0,0,0,13.074,0"/><path class="a" d="M4.148,8.71a8.3,8.3,0,0,0-.353,3.4"/><path class="a" d="M9.772,3.3A8.239,8.239,0,0,0,6.634,4.983"/></svg>