<svg xmlns="http://www.w3.org/2000/svg" viewBox="0 0 24 24"><defs><style>.a{fill:none;stroke:currentColor;stroke-linecap:round;stroke-linejoin:round;stroke-width:1.5px;}</style></defs><title>landmark-colosseum-1</title><path class="a" d="M2.25,22.5A1.5,1.5,0,0,1,.75,21V3a1.5,1.5,0,0,1,1.5-1.5H6.826A1.5,1.5,0,0,1,7.948,2L13.5,9h8.25a1.5,1.5,0,0,1,1.5,1.5V21a1.5,1.5,0,0,1-1.5,1.5Z"/><line class="a" x1="9.75" y1="13.5" x2="9.75" y2="16.5"/><line class="a" x1="5.25" y1="13.5" x2="5.25" y2="16.5"/><line class="a" x1="18.75" y1="13.5" x2="18.75" y2="16.5"/><line class="a" x1="14.25" y1="13.5" x2="14.25" y2="16.5"/><line class="a" x1="9.75" y1="19.5" x2="9.75" y2="22.5"/><line class="a" x1="5.25" y1="19.5" x2="5.25" y2="22.5"/><line class="a" x1="18.75" y1="19.5" x2="18.75" y2="22.5"/><line class="a" x1="14.25" y1="19.5" x2="14.25" y2="22.5"/><line class="a" x1="0.75" y1="16.5" x2="23.25" y2="16.5"/><line class="a" x1="0.75" y1="9" x2="13.5" y2="9"/></svg>