<svg xmlns="http://www.w3.org/2000/svg" viewBox="0 0 24 24"><defs><style>.a{fill:none;stroke:currentColor;stroke-linecap:round;stroke-linejoin:round;stroke-width:1.5px;}</style></defs><title>landmark-taj-mahal</title><path class="a" d="M.75,11.96h3a0,0,0,0,1,0,0v10.5a0,0,0,0,1,0,0h-2a1,1,0,0,1-1-1v-9.5A0,0,0,0,1,.75,11.96Z"/><path class="a" d="M3.75,10.46a1.5,1.5,0,0,1-3,0c0-.829,1.5-3,1.5-3S3.75,9.631,3.75,10.46Z"/><path class="a" d="M20.25,11.96h3a0,0,0,0,1,0,0v9.5a1,1,0,0,1-1,1h-2a0,0,0,0,1,0,0V11.96A0,0,0,0,1,20.25,11.96Z"/><path class="a" d="M23.25,10.46a1.5,1.5,0,0,1-3,0c0-.829,1.5-3,1.5-3S23.25,9.631,23.25,10.46Z"/><rect class="a" x="3.75" y="13.46" width="16.5" height="9"/><path class="a" d="M14.25,22.46H9.75V18.71a2.25,2.25,0,0,1,4.5,0Z"/><path class="a" d="M13.431,3.412A1.5,1.5,0,1,1,11.515,1.54"/><path class="a" d="M7.664,13.46a5.351,5.351,0,0,1-.914-3c0-2.9,5.25-6,5.25-6s5.25,3.1,5.25,6a5.162,5.162,0,0,1-.955,3"/></svg>