<svg xmlns="http://www.w3.org/2000/svg" viewBox="0 0 24 24"><defs><style>.a{fill:none;stroke:currentColor;stroke-linecap:round;stroke-linejoin:round;stroke-width:1.5px;}</style></defs><title>landmark-notre-dame</title><path class="a" d="M13.5,23.25h-3v-3a1.5,1.5,0,0,1,3,0Z"/><path class="a" d="M19.5,23.25h-3v-3a1.5,1.5,0,0,1,3,0Z"/><path class="a" d="M4.5,23.25h3v-3a1.5,1.5,0,0,0-3,0Z"/><rect class="a" x="15.75" y="3.75" width="7.5" height="12"/><rect class="a" x="0.75" y="3.75" width="7.5" height="12"/><line class="a" x1="0.75" y1="9.75" x2="23.25" y2="9.75"/><path class="a" d="M.75,15.75h22.5a0,0,0,0,1,0,0v7a.5.5,0,0,1-.5.5H1.25a.5.5,0,0,1-.5-.5v-7A0,0,0,0,1,.75,15.75Z"/><path class="a" d="M.75,3.75V1.5A.75.75,0,0,1,1.5.75h6a.75.75,0,0,1,.75.75V3.75"/><path class="a" d="M15.75,3.75V1.5A.75.75,0,0,1,16.5.75h6a.75.75,0,0,1,.75.75V3.75"/><path class="a" d="M12,12.375a.375.375,0,1,1-.375.375A.375.375,0,0,1,12,12.375"/></svg>