<svg xmlns="http://www.w3.org/2000/svg" viewBox="0 0 24 24"><defs><style>.a{fill:none;stroke:currentColor;stroke-linecap:round;stroke-linejoin:round;stroke-width:1.5px;}</style></defs><title>landmark-mesoamerican-pyramid</title><line class="a" x1="16.5" y1="3" x2="16.5" y2="9"/><line class="a" x1="7.5" y1="9" x2="7.5" y2="3"/><line class="a" x1="6" y1="3" x2="18" y2="3"/><path class="a" d="M5,9H7.5a0,0,0,0,1,0,0v3a0,0,0,0,1,0,0h-3a0,0,0,0,1,0,0V9.5A.5.5,0,0,1,5,9Z"/><path class="a" d="M3.5,12h4a0,0,0,0,1,0,0v4.5a0,0,0,0,1,0,0H3a0,0,0,0,1,0,0v-4A.5.5,0,0,1,3.5,12Z"/><path class="a" d="M1.25,16.5H7.5a0,0,0,0,1,0,0V21a0,0,0,0,1,0,0H.75a0,0,0,0,1,0,0V17A.5.5,0,0,1,1.25,16.5Z"/><path class="a" d="M16.5,9h3a0,0,0,0,1,0,0v3a0,0,0,0,1,0,0H17a.5.5,0,0,1-.5-.5V9A0,0,0,0,1,16.5,9Z" transform="translate(36 21) rotate(-180)"/><path class="a" d="M16.5,12H21a0,0,0,0,1,0,0v4.5a0,0,0,0,1,0,0H17a.5.5,0,0,1-.5-.5V12A0,0,0,0,1,16.5,12Z" transform="translate(37.5 28.5) rotate(-180)"/><path class="a" d="M16.5,16.5h6.75a0,0,0,0,1,0,0V21a0,0,0,0,1,0,0H17a.5.5,0,0,1-.5-.5v-4A0,0,0,0,1,16.5,16.5Z" transform="translate(39.75 37.5) rotate(-180)"/><path class="a" d="M7.5,9h3V7.5a1.5,1.5,0,0,1,3,0V9h3"/><line class="a" x1="10.5" y1="12" x2="13.5" y2="12"/><line class="a" x1="10.5" y1="15" x2="13.5" y2="15"/><line class="a" x1="10.5" y1="18" x2="13.5" y2="18"/><line class="a" x1="10.5" y1="21" x2="13.5" y2="21"/></svg>