<svg xmlns="http://www.w3.org/2000/svg" viewBox="0 0 24 24"><defs><style>.a{fill:none;stroke:currentColor;stroke-linecap:round;stroke-linejoin:round;stroke-width:1.5px;}</style></defs><title>landmark-japan-castle-1</title><polyline class="a" points="19.5 17.095 19.5 20.845 4.5 20.845 4.5 17.095"/><path class="a" d="M10.5,12.6H5.758a.75.75,0,0,0-.7.471L2.25,17.1"/><path class="a" d="M21.75,17.1l-2.77-3.97a.851.851,0,0,1-.062-.105.749.749,0,0,0-.676-.425H13.5"/><path class="a" d="M.75,23.1l.579-1.738a.75.75,0,0,1,.712-.512H21.959a.75.75,0,0,1,.712.512L23.25,23.1"/><path class="a" d="M9,14.1l2.47-2.47a.749.749,0,0,1,1.06,0L15,14.1"/><path class="a" d="M9,9.6l2.47-2.47a.749.749,0,0,1,1.06,0L15,9.6"/><path class="a" d="M12.749,7.345h3.96a.75.75,0,0,1,.712.512L18,9.6"/><path class="a" d="M6,9.6l.579-1.738a.75.75,0,0,1,.712-.512H11.25"/><path class="a" d="M9,4.345V3.6l2.47-2.47a.749.749,0,0,1,1.06,0L15,3.6v.75"/><line class="a" x1="21.75" y1="17.095" x2="23.25" y2="15.595"/><line class="a" x1="2.25" y1="17.095" x2="0.75" y2="15.595"/><line class="a" x1="15" y1="3.595" x2="16.5" y2="2.095"/><line class="a" x1="18" y1="9.595" x2="19.5" y2="8.095"/><line class="a" x1="6" y1="9.595" x2="4.5" y2="8.095"/><line class="a" x1="9" y1="3.595" x2="7.5" y2="2.095"/><line class="a" x1="21.75" y1="17.095" x2="2.25" y2="17.095"/></svg>