<svg id="Regular" xmlns="http://www.w3.org/2000/svg" viewBox="0 0 24 24"><defs><style>.cls-1{fill:none;stroke:currentColor;stroke-linecap:round;stroke-linejoin:round;stroke-width:1.5px;}</style></defs><title>landmarks-telescope-person</title><path class="cls-1" d="M10.181,8.319a5.255,5.255,0,0,0,6.317.242,1.557,1.557,0,0,1,2.025.3l3.59,4.039a4.5,4.5,0,0,1,1.137,2.99V21.5a1.5,1.5,0,0,1-3,0V15.89a1.5,1.5,0,0,0-.379-1l-2.835-3.188A8.267,8.267,0,0,1,8.29,10.651"/><rect class="cls-1" x="0.75" y="2" width="3" height="6"/><polygon class="cls-1" points="9 5.75 3.75 7.25 3.75 2.75 9 4.25 9 5.75"/><polyline class="cls-1" points="5.25 6.821 5.25 19.25 1.5 23"/><polyline class="cls-1" points="5.25 23 5.25 19.25 9 23"/><circle class="cls-1" cx="13.875" cy="3.875" r="2.625"/></svg>