<svg xmlns="http://www.w3.org/2000/svg" viewBox="0 0 24 24"><defs><style>.a{fill:none;stroke:currentColor;stroke-linecap:round;stroke-linejoin:round;stroke-width:1.5px;}</style></defs><title>landmark-buddha-statue</title><ellipse class="a" cx="12.533" cy="7.125" rx="3" ry="3.375"/><path class="a" d="M11.351,3.924a1.5,1.5,0,1,1,2.364,0"/><path class="a" d="M20.033,21a1.5,1.5,0,0,1-1.5,1.5h-12a1.5,1.5,0,0,1,0-3h12A1.5,1.5,0,0,1,20.033,21Z"/><path class="a" d="M8.033,10.5h7.5c3,0,3,2.843,3,4.5v4.5H8.033"/><path class="a" d="M9.533,22.5q4.5-1.5,6-3"/><path class="a" d="M14.783,10.5A25.454,25.454,0,0,1,8.9,13.981"/><path class="a" d="M8.033,10.5a2.426,2.426,0,0,0-2.171,1.342L4.125,15.316a1.5,1.5,0,0,0,.51,1.919l3.4,2.265"/><path class="a" d="M17.953,11.714l-3.17,2.536A27.682,27.682,0,0,1,9.8,17.362"/><path class="a" d="M18.533,15l-3.75,3s-.869.7-2.1,1.5"/></svg>