<svg xmlns="http://www.w3.org/2000/svg" viewBox="0 0 24 24"><defs><style>.a{fill:none;stroke:currentColor;stroke-linecap:round;stroke-linejoin:round;stroke-width:1.5px;}</style></defs><title>landmark-pyramid</title><path class="a" d="M4.591,22.5a.75.75,0,0,1-.53-1.28L13.28,12V22.5Z"/><path class="a" d="M21.97,22.5a.75.75,0,0,0,.53-1.28L13.28,12V22.5Z"/><line class="a" x1="13.28" y1="16.5" x2="17.78" y2="16.5"/><line class="a" x1="13.28" y1="19.5" x2="20.78" y2="19.5"/><circle class="a" cx="7.28" cy="7.5" r="3"/><line class="a" x1="1.28" y1="7.5" x2="2.03" y2="7.5"/><line class="a" x1="3.038" y1="11.743" x2="3.568" y2="11.212"/><line class="a" x1="7.28" y1="13.5" x2="7.28" y2="12.75"/><line class="a" x1="13.28" y1="7.5" x2="12.53" y2="7.5"/><line class="a" x1="11.523" y1="3.257" x2="10.993" y2="3.788"/><line class="a" x1="7.28" y1="1.5" x2="7.28" y2="2.25"/><line class="a" x1="3.038" y1="3.257" x2="3.568" y2="3.788"/></svg>