<svg id="Regular" xmlns="http://www.w3.org/2000/svg" viewBox="0 0 24 24"><defs><style>.cls-1{fill:none;stroke:currentColor;stroke-linecap:round;stroke-linejoin:round;stroke-width:1.5px;}</style></defs><title>landmarks-statue-flag</title><circle class="cls-1" cx="7.693" cy="3.75" r="2.625"/><path class="cls-1" d="M9.943,17.25V13.5a1.5,1.5,0,0,0,1.5-1.5v-.75a3,3,0,0,0-3-3h-1.5a3,3,0,0,0-3,3V12a1.5,1.5,0,0,0,1.5,1.5v3.75"/><line class="cls-1" x1="2.443" y1="17.25" x2="12.943" y2="17.25"/><path class="cls-1" d="M11.525,22.593a.75.75,0,0,1-.744.657H4.605a.75.75,0,0,1-.744-.657L3.193,17.25h9Z"/><rect class="cls-1" x="14.873" y="1.715" width="6" height="4.5" transform="translate(2.814 -6.446) rotate(22.15)"/><line class="cls-1" x1="14.246" y1="4.918" x2="11.443" y2="11.804"/></svg>