<svg xmlns="http://www.w3.org/2000/svg" viewBox="0 0 24 24"><defs><style>.a{fill:none;stroke:currentColor;stroke-linecap:round;stroke-linejoin:round;stroke-width:1.5px;}</style></defs><title>landmark-sydney-opera-house</title><path class="a" d="M21.75,17.25v-2.5a.5.5,0,0,0-.5-.5H12.062L8.549,12h-5.8a.5.5,0,0,0-.5.5V17.25"/><path class="a" d="M20.593,14.25l2.533-4a.5.5,0,0,0-.329-.8,7.985,7.985,0,0,0-4.713.662,6.018,6.018,0,0,0-3.011,4.137"/><path class="a" d="M12.062,14.25,10.186,2.838a.5.5,0,0,1,.632-.569A10.887,10.887,0,0,1,16.578,6.1a7.54,7.54,0,0,1,1.506,4.015"/><path class="a" d="M6.542,12,4.725,5.258a.5.5,0,0,1,.531-.637A9.7,9.7,0,0,1,8.549,5.6a5.179,5.179,0,0,1,2.509,2.509"/><path class="a" d="M3.029,12,.826,8.094a.5.5,0,0,1,.251-.737A4.657,4.657,0,0,1,3.531,7.1a3.669,3.669,0,0,1,1.946.935"/><path class="a" d="M23.25,21.75c-2.068,0-3.75-1.007-3.75-2.25,0,1.243-1.682,2.25-3.75,2.25S12,20.743,12,19.5c0,1.243-1.682,2.25-3.75,2.25S4.5,20.743,4.5,19.5c0,1.243-1.682,2.25-3.75,2.25"/></svg>