<svg xmlns="http://www.w3.org/2000/svg" viewBox="0 0 24 24"><defs><style>.a{fill:none;stroke:currentColor;stroke-linecap:round;stroke-linejoin:round;stroke-width:1.5px;}</style></defs><title>landmark-pagoda</title><polyline class="a" points="18.75 23.25 18.75 20.25 5.25 20.25 5.25 23.25"/><path class="a" d="M18.975,16.781a.752.752,0,0,0-.585-.281H5.61a.752.752,0,0,0-.585.281L2.25,20.25h19.5Z"/><line class="a" x1="0.75" y1="20.25" x2="23.25" y2="20.25"/><rect class="a" x="6.75" y="12.75" width="10.5" height="3.75"/><path class="a" d="M17.475,9.281A.752.752,0,0,0,16.89,9H7.11a.752.752,0,0,0-.585.281L3.75,12.75h16.5Z"/><line class="a" x1="2.25" y1="12.75" x2="21.75" y2="12.75"/><rect class="a" x="8.25" y="5.25" width="7.5" height="3.75"/><path class="a" d="M15.97,2.47a.751.751,0,0,0-.531-.22H8.561a.751.751,0,0,0-.531.22L5.25,5.25h13.5Z"/><line class="a" x1="3.75" y1="5.25" x2="20.25" y2="5.25"/><line class="a" x1="12" y1="2.25" x2="12" y2="0.75"/></svg>