<svg xmlns="http://www.w3.org/2000/svg" viewBox="0 0 24 24"><defs><style>.a{fill:none;stroke:currentColor;stroke-linecap:round;stroke-linejoin:round;stroke-width:1.5px;}</style></defs><title>landmark-triumph-gate</title><path class="a" d="M2.25,4.5V21a1.5,1.5,0,0,0,1.5,1.5h3A1.5,1.5,0,0,0,8.25,21V14.25a3.75,3.75,0,0,1,7.5,0V21a1.5,1.5,0,0,0,1.5,1.5h3a1.5,1.5,0,0,0,1.5-1.5V4.5"/><line class="a" x1="0.75" y1="7.5" x2="23.25" y2="7.5"/><line class="a" x1="0.75" y1="15" x2="9.75" y2="15"/><line class="a" x1="14.25" y1="15" x2="23.25" y2="15"/><line class="a" x1="4.5" y1="10.5" x2="6" y2="10.5"/><line class="a" x1="18" y1="10.5" x2="19.5" y2="10.5"/><line class="a" x1="5.25" y1="18" x2="5.25" y2="19.5"/><line class="a" x1="18.75" y1="18" x2="18.75" y2="19.5"/><rect class="a" x="0.75" y="1.5" width="22.5" height="3" rx="0.5" ry="0.5"/></svg>