<svg xmlns="http://www.w3.org/2000/svg" viewBox="0 0 24 24"><defs><style>.a{fill:none;stroke:currentColor;stroke-linecap:round;stroke-linejoin:round;stroke-width:1.5px;}</style></defs><title>landmark-japan-shrine</title><path class="a" d="M9,21.75a.75.75,0,0,1-.75.75H6.829a.752.752,0,0,1-.747-.825L7.5,7.5H9Z"/><path class="a" d="M15,21.75a.75.75,0,0,0,.75.75h1.421a.752.752,0,0,0,.747-.825L16.5,7.5H15Z"/><path class="a" d="M22.5,1.5,20.615,6.527a1.5,1.5,0,0,1-1.4.973H4.79a1.5,1.5,0,0,1-1.405-.973L1.5,1.5a35.853,35.853,0,0,0,20.986,0Z"/><line class="a" x1="9" y1="12" x2="15" y2="12"/><line class="a" x1="4.5" y1="12" x2="7.026" y2="12"/><line class="a" x1="19.5" y1="12" x2="16.974" y2="12"/><line class="a" x1="12" y1="7.5" x2="12" y2="12"/></svg>