<svg xmlns="http://www.w3.org/2000/svg" viewBox="0 0 24 24"><defs><style>.a{fill:none;stroke:currentColor;stroke-linecap:round;stroke-linejoin:round;stroke-width:1.5px;}</style></defs><title>landmark-london-bridge</title><rect class="a" x="17.25" y="5.25" width="4.5" height="10.5"/><polyline class="a" points="17.25 5.25 19.5 0.75 21.75 5.25"/><line class="a" x1="17.25" y1="9.75" x2="21.75" y2="9.75"/><path class="a" d="M21.75,15.75h.75a.75.75,0,0,1,.75.75v3.75"/><line class="a" x1="17.25" y1="15.75" x2="17.25" y2="19.5"/><line class="a" x1="17.25" y1="15.75" x2="13.5" y2="12"/><rect class="a" x="2.25" y="5.25" width="4.5" height="10.5" transform="translate(9 21) rotate(-180)"/><polyline class="a" points="6.75 5.25 4.5 0.75 2.25 5.25"/><line class="a" x1="6.75" y1="9.75" x2="2.25" y2="9.75"/><path class="a" d="M2.25,15.75H1.5a.75.75,0,0,0-.75.75v3.75"/><line class="a" x1="6.75" y1="15.75" x2="6.75" y2="19.5"/><line class="a" x1="6.75" y1="15.75" x2="10.5" y2="12"/><line class="a" x1="6.75" y1="7.5" x2="17.25" y2="7.5"/><path class="a" d="M23.25,23.25c-2.068,0-3.745-1.007-3.745-2.25,0,1.243-1.677,2.25-3.745,2.25S12.015,22.243,12.015,21c0,1.243-1.677,2.25-3.745,2.25S4.525,22.243,4.525,21c0,1.243-1.677,2.25-3.745,2.25"/></svg>