<svg xmlns="http://www.w3.org/2000/svg" viewBox="0 0 24 24"><defs><style>.a{fill:none;stroke:currentColor;stroke-linecap:round;stroke-linejoin:round;stroke-width:1.5px;}</style></defs><title>landmark-sydney-opera-house-1</title><path class="a" d="M21.75,23.25v-2.5a.5.5,0,0,0-.5-.5H12.062L8.549,18h-5.8a.5.5,0,0,0-.5.5V23.25"/><path class="a" d="M20.593,20.25l2.533-4a.5.5,0,0,0-.329-.8,7.985,7.985,0,0,0-4.713.662,6.018,6.018,0,0,0-3.011,4.137"/><path class="a" d="M12.062,20.25,10.186,8.838a.5.5,0,0,1,.632-.569,10.887,10.887,0,0,1,5.76,3.829,7.54,7.54,0,0,1,1.506,4.015"/><path class="a" d="M6.542,18,4.725,11.258a.5.5,0,0,1,.531-.637,9.7,9.7,0,0,1,3.293.976,5.179,5.179,0,0,1,2.509,2.509"/><path class="a" d="M3.029,18l-2.2-3.906a.5.5,0,0,1,.251-.737A4.657,4.657,0,0,1,3.531,13.1a3.669,3.669,0,0,1,1.946.935"/><line class="a" x1="0.75" y1="23.25" x2="23.25" y2="23.25"/><path class="a" d="M21,6.75a2.25,2.25,0,1,0-1.614-3.817A3,3,0,1,0,16.5,6.75Z"/></svg>