<svg xmlns="http://www.w3.org/2000/svg" viewBox="0 0 24 24"><defs><style>.a{fill:none;stroke:currentColor;stroke-linecap:round;stroke-linejoin:round;stroke-width:1.5px;}</style></defs><title>landmark-cologne-cathedral</title><path class="a" d="M11.25,23.25h3v-3a1.5,1.5,0,0,0-3,0Z"/><path class="a" d="M.75,9.75h7.5a0,0,0,0,1,0,0v13.5a0,0,0,0,1,0,0H1.75a1,1,0,0,1-1-1V9.75A0,0,0,0,1,.75,9.75Z"/><polyline class="a" points="0.75 9.75 4.5 5.25 8.25 9.75"/><line class="a" x1="4.5" y1="0.75" x2="4.5" y2="5.25"/><line class="a" x1="3" y1="3" x2="6" y2="3"/><line class="a" x1="4.5" y1="13.5" x2="4.5" y2="15"/><line class="a" x1="4.5" y1="18" x2="4.5" y2="19.5"/><path class="a" d="M8.25,23.25V15l3.931-4.586a.749.749,0,0,1,1.138,0L17.25,15v8.25"/><path class="a" d="M17.25,15.75l5.171,2.585a1.5,1.5,0,0,1,.829,1.342V21.75a1.5,1.5,0,0,1-1.5,1.5H8.25"/></svg>