<svg xmlns="http://www.w3.org/2000/svg" viewBox="0 0 24 24"><defs><style>.a{fill:none;stroke:currentColor;stroke-linecap:round;stroke-linejoin:round;stroke-width:1.5px;}</style></defs><title>landmark-statue-of-liberty</title><path class="a" d="M5,4.75a2,2,0,0,1-4,0c0-1.1,2-4,2-4S5,3.645,5,4.75Z"/><path class="a" d="M21,23.25H16.5l1.216-4.864a1.5,1.5,0,0,1,1.455-1.136h2.158a1.5,1.5,0,0,1,1.455,1.864L22.5,20.25"/><line class="a" x1="6.75" y1="14.25" x2="4.65" y2="9"/><line class="a" x1="1.5" y1="9" x2="5.092" y2="17.98"/><path class="a" d="M9.31,16.811,6.75,14.25,4.235,19.908a1.5,1.5,0,0,0,.471,1.809L6.75,23.25"/><line class="a" x1="15.761" y1="16.531" x2="11.562" y2="23.25"/><path class="a" d="M15.78,8.573A1.5,1.5,0,0,1,16.812,10V14.25a3,3,0,0,1-6,0V10a1.5,1.5,0,0,1,1.032-1.425A6.152,6.152,0,0,1,15.78,8.573Z"/><path class="a" d="M10.812,12a6.375,6.375,0,0,1,6,0"/><line class="a" x1="13.812" y1="5.25" x2="13.812" y2="8.25"/><line class="a" x1="10.062" y1="6.566" x2="11.71" y2="8.624"/><line class="a" x1="8.25" y1="9" x2="10.812" y2="10.036"/><line class="a" x1="17.562" y1="6.566" x2="15.915" y2="8.624"/><line class="a" x1="19.374" y1="9" x2="16.825" y2="10.031"/><path class="a" d="M20.75,20.25h2.5a0,0,0,0,1,0,0v3a0,0,0,0,1,0,0h-2.5a.5.5,0,0,1-.5-.5v-2A.5.5,0,0,1,20.75,20.25Z"/><line class="a" x1="0.75" y1="9" x2="6" y2="9"/></svg>