<svg id="Regular" xmlns="http://www.w3.org/2000/svg" viewBox="0 0 24 24"><defs><style>.cls-1{fill:none;stroke:currentColor;stroke-linecap:round;stroke-linejoin:round;stroke-width:1.5px;}</style></defs><title>lantern</title><path class="cls-1" d="M11.629,12.75a2.991,2.991,0,0,1,.3,3.409A1.066,1.066,0,0,1,10.8,15.25a2.412,2.412,0,0,0-1.25,2.273,2.728,2.728,0,0,0,2.728,2.727A2.765,2.765,0,0,0,15,17.523,4.534,4.534,0,0,0,11.629,12.75Z"/><circle class="cls-1" cx="12" cy="3" r="2.25"/><path class="cls-1" d="M16.829,20.25H7.171a1.5,1.5,0,0,0-1.455,1.136L5.25,23.25h13.5l-.466-1.864A1.5,1.5,0,0,0,16.829,20.25Z"/><line class="cls-1" x1="3.75" y1="9.75" x2="20.25" y2="9.75"/><polygon class="cls-1" points="10.5 5.25 13.5 5.25 19.5 9.75 4.5 9.75 10.5 5.25"/><polyline class="cls-1" points="17.238 20.307 19.5 9.75 4.5 9.75 6.762 20.307"/></svg>