<svg id="Regular" xmlns="http://www.w3.org/2000/svg" viewBox="0 0 24 24"><defs><style>.cls-1{fill:none;stroke:currentColor;stroke-linecap:round;stroke-linejoin:round;stroke-width:1.5px;}</style></defs><title>lantern-1</title><path class="cls-1" d="M4.875,23.25s1.5-3,6.75-3,6.75,3,6.75,3Z"/><path class="cls-1" d="M8.125,16.5h7a1,1,0,0,1,1,1v2.75a0,0,0,0,1,0,0h-9a0,0,0,0,1,0,0V17.5A1,1,0,0,1,8.125,16.5Z"/><line class="cls-1" x1="16.125" y1="18" x2="19.125" y2="18"/><line class="cls-1" x1="19.125" y1="16.5" x2="19.125" y2="18.75"/><path class="cls-1" d="M13.875,11.25a2.25,2.25,0,0,1-4.5,0c0-1.243,1.5-3.75,2.25-3.75S13.875,10.007,13.875,11.25Z"/><path class="cls-1" d="M7.875.75V7.617a5.187,5.187,0,0,0-1.5,3.633,5.25,5.25,0,0,0,10.5,0,5.187,5.187,0,0,0-1.5-3.633V.75Z"/></svg>