<svg xmlns="http://www.w3.org/2000/svg" viewBox="0 0 24 24"><defs><style>.a{fill:none;stroke:currentColor;stroke-linecap:round;stroke-linejoin:round;stroke-width:1.5px;}</style></defs><title>laptop-launch</title><path class="a" d="M13.772,20.36A11.579,11.579,0,0,1,12,23.25a11.328,11.328,0,0,1-1.816-3"/><line class="a" x1="12" y1="2.598" x2="12" y2="0.75"/><path class="a" d="M15.352,4.984,12,2.6,8.648,4.984A2.7,2.7,0,0,0,7.6,7.847l2.3,8.72h4.2l2.3-8.72A2.7,2.7,0,0,0,15.352,4.984Z"/><path class="a" d="M8.881,12.709l-1,.461a1.9,1.9,0,0,0-1.135,1.7v2.719a.473.473,0,0,0,.277.42.572.572,0,0,0,.539-.023L9.9,16.567"/><path class="a" d="M15.119,12.709l1,.461a1.9,1.9,0,0,1,1.135,1.7v2.719a.473.473,0,0,1-.277.42.572.572,0,0,1-.539-.023L14.1,16.567"/><circle class="a" cx="12" cy="7.5" r="1.5"/><path class="a" d="M23,4.25H21.25a.955.955,0,0,0-.894,1.006,1.012,1.012,0,0,0,.562.934l1.77.619a1.014,1.014,0,0,1,.562.934.955.955,0,0,1-.894,1.007H20.25"/><line class="a" x1="21.75" y1="4.25" x2="21.75" y2="3.25"/><line class="a" x1="21.75" y1="9.75" x2="21.75" y2="8.75"/><path class="a" d="M3.5,1.75H1.75A.955.955,0,0,0,.856,2.756a1.012,1.012,0,0,0,.562.934l1.77.619a1.014,1.014,0,0,1,.562.934A.955.955,0,0,1,2.856,6.25H.75"/><line class="a" x1="2.25" y1="1.75" x2="2.25" y2="0.75"/><line class="a" x1="2.25" y1="7.25" x2="2.25" y2="6.25"/></svg>