<svg xmlns="http://www.w3.org/2000/svg" viewBox="0 0 24 24"><defs><style>.a{fill:none;stroke:currentColor;stroke-linecap:round;stroke-linejoin:round;stroke-width:1.5px;}</style></defs><title>laptop-announcement</title><path class="a" d="M17.786,11.25H6.214a.941.941,0,0,0-.964.916v6.417a.942.942,0,0,0,.964.917H17.786a.942.942,0,0,0,.964-.917V12.166A.941.941,0,0,0,17.786,11.25Z"/><path class="a" d="M5.25,19.5,3.382,21.116a1.214,1.214,0,0,0,0,1.768h0a1.335,1.335,0,0,0,.922.366H19.7a1.335,1.335,0,0,0,.922-.366h0a1.214,1.214,0,0,0,0-1.768L18.75,19.5Z"/><rect class="a" x="0.75" y="0.75" width="9" height="6" rx="1" ry="1"/><polyline class="a" points="0.75 2.25 5.25 4.5 9.75 2.25"/><rect class="a" x="14.25" y="0.75" width="9" height="6" rx="1" ry="1"/><polyline class="a" points="14.25 2.25 18.75 4.5 23.25 2.25"/></svg>