<svg xmlns="http://www.w3.org/2000/svg" viewBox="0 0 24 24"><defs><style>.a{fill:none;stroke:currentColor;stroke-linecap:round;stroke-linejoin:round;stroke-width:1.5px;}</style></defs><title>laptop-idea</title><line class="a" x1="12" y1="0.75" x2="12" y2="2.25"/><line class="a" x1="4.5" y1="8.25" x2="6.107" y2="8.25"/><line class="a" x1="19.5" y1="8.25" x2="17.893" y2="8.25"/><line class="a" x1="5.814" y1="3.35" x2="7.179" y2="4.714"/><line class="a" x1="18.186" y1="3.35" x2="16.821" y2="4.714"/><path class="a" d="M6.214,11.25a.941.941,0,0,0-.964.917v6.416a.942.942,0,0,0,.964.917H17.786a.942.942,0,0,0,.964-.917V12.167a.941.941,0,0,0-.964-.917"/><path class="a" d="M5.25,19.5,3.382,21.116a1.214,1.214,0,0,0,0,1.768h0a1.335,1.335,0,0,0,.922.366H19.7a1.335,1.335,0,0,0,.922-.366h0a1.214,1.214,0,0,0,0-1.768L18.75,19.5Z"/><path class="a" d="M15.75,8.25a3.75,3.75,0,1,0-5.25,3.433V13.5h3V11.683A3.747,3.747,0,0,0,15.75,8.25Z"/><line class="a" x1="10.5" y1="15.75" x2="13.5" y2="15.75"/></svg>