<svg xmlns="http://www.w3.org/2000/svg" viewBox="0 0 24 24"><defs><style>.a{fill:none;stroke:currentColor;stroke-linecap:round;stroke-linejoin:round;stroke-width:1.5px;}</style></defs><title>laundry-hand-wash</title><path class="a" d="M23.25,18.639A4.383,4.383,0,0,1,21,17.25a3.964,3.964,0,0,1-3,1.5v-.027a4.188,4.188,0,0,1-3-1.473,3.964,3.964,0,0,1-3,1.5v-.027A4.188,4.188,0,0,1,9,17.25a3.964,3.964,0,0,1-3,1.5v-.027A4.188,4.188,0,0,1,3,17.25,4.075,4.075,0,0,1,.75,18.67v4.58h22.5Z"/><path class="a" d="M17.25.75l0,0a8.5,8.5,0,0,1-4.915,2.421,20.459,20.459,0,0,0-7.854,2.74L2.956,6.964A1.5,1.5,0,0,0,4.5,9.536L6.021,8.488A17.426,17.426,0,0,1,9.974,6.74,8.224,8.224,0,0,0,6.021,12.5,1.5,1.5,0,1,0,8.979,13a5.241,5.241,0,0,1,4.049-4.271L14.062,8.5a12.343,12.343,0,0,0-2.033,4.71,1.5,1.5,0,0,0,2.942.589,9.364,9.364,0,0,1,3.178-5.341l1.524-1.271A6.9,6.9,0,0,1,18.3,11.1a1.5,1.5,0,0,0,2.4,1.8,9.293,9.293,0,0,0,1.8-7.65l.75-.75"/></svg>