<svg xmlns="http://www.w3.org/2000/svg" viewBox="0 0 24 24"><defs><style>.a{fill:none;stroke:currentColor;stroke-linecap:round;stroke-linejoin:round;stroke-width:1.5px;}</style></defs><title>laundry-machine</title><rect class="a" x="2.25" y="0.75" width="19.5" height="22.5" rx="1" ry="1"/><line class="a" x1="2.25" y1="6.75" x2="21.75" y2="6.75"/><circle class="a" cx="12" cy="15" r="5.25"/><line class="a" x1="12.75" y1="9.804" x2="12" y2="15"/><line class="a" x1="15.927" y1="18.485" x2="12" y2="15"/><line class="a" x1="6.882" y1="16.174" x2="12" y2="15"/><line class="a" x1="9.75" y1="0.75" x2="9.75" y2="6.75"/><path class="a" d="M13.875,3.375a.375.375,0,1,1-.375.375.375.375,0,0,1,.375-.375"/><path class="a" d="M18.375,3.375A.375.375,0,1,1,18,3.75a.375.375,0,0,1,.375-.375"/></svg>