<svg xmlns="http://www.w3.org/2000/svg" viewBox="0 0 24 24"><defs><style>.a{fill:none;stroke:currentColor;stroke-linecap:round;stroke-linejoin:round;stroke-width:1.5px;}</style></defs><title>launch-go-flag</title><line class="a" x1="0.904" y1="0.75" x2="0.904" y2="23.25"/><path class="a" d="M14.4,5.25a1.5,1.5,0,0,0-1.5,1.5v4.5a1.5,1.5,0,0,0,3,0V6.75A1.5,1.5,0,0,0,14.4,5.25Z"/><path class="a" d="M9.154,9.75H9.9v1.5a1.5,1.5,0,0,1-3,0V6.75a1.5,1.5,0,0,1,1.5-1.5H9.9"/><path class="a" d="M.9,2.25H22.25A.749.749,0,0,1,22.935,3.3L20.539,8.7a.751.751,0,0,0,0,.609l2.4,5.391a.75.75,0,0,1-.685,1.055H.9"/></svg>