<svg xmlns="http://www.w3.org/2000/svg" viewBox="0 0 24 24"><defs><style>.a{fill:none;stroke:currentColor;stroke-linecap:round;stroke-linejoin:round;stroke-width:1.5px;}</style></defs><title>laundry-iron-water</title><path class="a" d="M21,14.628H3l2.211-3.791a10.5,10.5,0,0,1,9.07-5.209H21Z"/><path class="a" d="M21,5.628v-1.5a3,3,0,0,0-3-3H12.75"/><line class="a" x1="16.5" y1="4.128" x2="16.5" y2="5.628"/><line class="a" x1="4.75" y1="11.628" x2="21" y2="11.628"/><path class="a" d="M10.125,18.378a.375.375,0,1,1-.375.375.375.375,0,0,1,.375-.375"/><path class="a" d="M7.875,22.128A.375.375,0,1,1,7.5,22.5a.375.375,0,0,1,.375-.375"/><path class="a" d="M12.375,22.128A.375.375,0,1,1,12,22.5a.375.375,0,0,1,.375-.375"/><path class="a" d="M14.625,18.378a.375.375,0,1,1-.375.375.375.375,0,0,1,.375-.375"/><path class="a" d="M16.875,22.128a.375.375,0,1,1-.375.375.375.375,0,0,1,.375-.375"/></svg>