<svg xmlns="http://www.w3.org/2000/svg" viewBox="0 0 24 24"><defs><style>.a{fill:none;stroke:currentColor;stroke-linecap:round;stroke-linejoin:round;stroke-width:1.5px;}</style></defs><title>launch-go</title><line class="a" x1="0.75" y1="0.75" x2="0.75" y2="23.25"/><line class="a" x1="23.25" y1="0.75" x2="23.25" y2="23.25"/><line class="a" x1="0.75" y1="2.25" x2="23.25" y2="2.25"/><line class="a" x1="23.25" y1="15.75" x2="0.75" y2="15.75"/><path class="a" d="M15,5.25a1.5,1.5,0,0,0-1.5,1.5v4.5a1.5,1.5,0,0,0,3,0V6.75A1.5,1.5,0,0,0,15,5.25Z"/><path class="a" d="M9.75,9.75h.75v1.5a1.5,1.5,0,0,1-3,0V6.75A1.5,1.5,0,0,1,9,5.25h1.5"/></svg>