<svg xmlns="http://www.w3.org/2000/svg" viewBox="0 0 24 24"><defs><style>.a{fill:none;stroke:currentColor;stroke-linecap:round;stroke-linejoin:round;stroke-width:1.5px;}</style></defs><title>laundry-iron</title><path class="a" d="M4.094,2.736c6.894-2.652,12.2-2.652,15.379.53,3.984,3.984,4.886,9.682,1.645,14.084a1.5,1.5,0,0,1-2.263.147Z"/><path class="a" d="M4.094,2.736.912,3.692,12.579,15.464c1.464,1.464,3.309,1.994,4.773.53Z"/><line class="a" x1="18.912" y1="8.942" x2="15.912" y2="5.942"/><path class="a" d="M19.662,13.817a.375.375,0,1,1-.375.375.375.375,0,0,1,.375-.375"/><path class="a" d="M19.845,17.938c1.13,1.034,2.641,2.948.567,4.5-3,2.25-4.5-2.25-7.5-2.25s-6,3-6,3"/></svg>