<svg xmlns="http://www.w3.org/2000/svg" viewBox="0 0 24 24"><defs><style>.a{fill:none;stroke:currentColor;stroke-linecap:round;stroke-linejoin:round;stroke-width:1.5px;}</style></defs><title>layers-grid-settings</title><path class="a" d="M8.25,18.75H3.75a3,3,0,0,1-3-3v-12a3,3,0,0,1,3-3h12a3,3,0,0,1,3,3v3"/><line class="a" x1="6.75" y1="0.75" x2="6.75" y2="18.75"/><line class="a" x1="12.75" y1="0.75" x2="12.75" y2="9.75"/><line class="a" x1="18.75" y1="6.75" x2="0.75" y2="6.75"/><line class="a" x1="8.25" y1="12.75" x2="0.75" y2="12.75"/><circle class="a" cx="17.25" cy="16.5" r="1.5"/><path class="a" d="M18.525,10.7l.442,1.453a.993.993,0,0,0,1.173.681l1.473-.341a1.338,1.338,0,0,1,1.274,2.218l-1.03,1.111a1,1,0,0,0,0,1.362l1.03,1.111a1.338,1.338,0,0,1-1.274,2.218l-1.473-.341a.993.993,0,0,0-1.173.681L18.525,22.3a1.331,1.331,0,0,1-2.549,0l-.442-1.453a.993.993,0,0,0-1.173-.681l-1.473.341a1.338,1.338,0,0,1-1.274-2.218l1.03-1.111a1,1,0,0,0,0-1.362l-1.03-1.111a1.338,1.338,0,0,1,1.274-2.218l1.473.341a.993.993,0,0,0,1.173-.681l.442-1.453A1.331,1.331,0,0,1,18.525,10.7Z"/></svg>