<svg xmlns="http://www.w3.org/2000/svg" viewBox="0 0 24 24"><defs><style>.a{fill:none;stroke:currentColor;stroke-linecap:round;stroke-linejoin:round;stroke-width:1.5px;}</style></defs><title>layers-grid-lock</title><rect class="a" x="14.25" y="15.75" width="9" height="7.5" rx="1" ry="1"/><path class="a" d="M18.75,11.25h0a3,3,0,0,0-3,3v1.5h6v-1.5A3,3,0,0,0,18.75,11.25Z"/><path class="a" d="M18.75,19.154a.375.375,0,1,1-.375.375.375.375,0,0,1,.375-.375"/><path class="a" d="M11.25,18.75H3.75a3,3,0,0,1-3-3v-12a3,3,0,0,1,3-3h12a3,3,0,0,1,3,3v4.5"/><line class="a" x1="6.75" y1="0.75" x2="6.75" y2="18.75"/><line class="a" x1="12.75" y1="0.75" x2="12.75" y2="12.75"/><line class="a" x1="18.75" y1="6.75" x2="0.75" y2="6.75"/><line class="a" x1="12.75" y1="12.75" x2="0.75" y2="12.75"/></svg>