<svg xmlns="http://www.w3.org/2000/svg" viewBox="0 0 24 24"><defs><style>.a{fill:none;stroke:currentColor;stroke-linecap:round;stroke-linejoin:round;stroke-width:1.5px;}</style></defs><title>layers-select</title><path class="a" d="M15.75,23.25h-12a3,3,0,0,1-3-3v-12"/><path class="a" d="M5.25,16.5v.75a1.5,1.5,0,0,0,1.5,1.5H7.5"/><path class="a" d="M7.5.75H6.75a1.5,1.5,0,0,0-1.5,1.5V3"/><path class="a" d="M23.25,3V2.25a1.5,1.5,0,0,0-1.5-1.5H21"/><path class="a" d="M21,18.75h.75a1.5,1.5,0,0,0,1.5-1.5V16.5"/><line class="a" x1="10.5" y1="0.75" x2="12.75" y2="0.75"/><line class="a" x1="15.75" y1="0.75" x2="18" y2="0.75"/><line class="a" x1="10.5" y1="18.75" x2="12.75" y2="18.75"/><line class="a" x1="15.75" y1="18.75" x2="18" y2="18.75"/><line class="a" x1="23.25" y1="6" x2="23.25" y2="8.25"/><line class="a" x1="23.25" y1="11.25" x2="23.25" y2="13.5"/><line class="a" x1="5.25" y1="6" x2="5.25" y2="8.25"/><line class="a" x1="5.25" y1="11.25" x2="5.25" y2="13.5"/></svg>