<svg xmlns="http://www.w3.org/2000/svg" viewBox="0 0 24 24"><defs><style>.a{fill:none;stroke:currentColor;stroke-linecap:round;stroke-linejoin:round;stroke-width:1.5px;}</style></defs><title>layers-stacked</title><path class="a" d="M22.91,6.953,12.7,1.672a1.543,1.543,0,0,0-1.416,0L1.076,6.953a.615.615,0,0,0,0,1.094l10.209,5.281a1.543,1.543,0,0,0,1.416,0L22.91,8.047a.616.616,0,0,0,0-1.094Z"/><path class="a" d="M.758,12.75l10.527,5.078a1.543,1.543,0,0,0,1.416,0L23.258,12.75"/><path class="a" d="M.758,17.25l10.527,5.078a1.543,1.543,0,0,0,1.416,0L23.258,17.25"/></svg>