<svg xmlns="http://www.w3.org/2000/svg" viewBox="0 0 24 24"><defs><style>.a{fill:none;stroke:currentColor;stroke-linecap:round;stroke-linejoin:round;stroke-width:1.5px;}</style></defs><title>layers-grid-hide</title><path class="a" d="M6.75,18.75h-3a3,3,0,0,1-3-3v-12a3,3,0,0,1,3-3h12a3,3,0,0,1,3,3v9"/><line class="a" x1="6.75" y1="0.75" x2="6.75" y2="18.75"/><line class="a" x1="12.75" y1="0.75" x2="12.75" y2="12.75"/><line class="a" x1="18.75" y1="6.75" x2="0.75" y2="6.75"/><line class="a" x1="18.75" y1="12.75" x2="0.75" y2="12.75"/><path class="a" d="M16.544,15.751H16.5a10.092,10.092,0,0,0-6.455,2.367.828.828,0,0,0,0,1.266,10.2,10.2,0,0,0,1.23.882"/><path class="a" d="M16.459,21.749H16.5a10.094,10.094,0,0,0,6.455-2.367.829.829,0,0,0,0-1.266,10.28,10.28,0,0,0-1.23-.882"/><line class="a" x1="11.251" y1="23.25" x2="21.751" y2="14.25"/></svg>