<svg xmlns="http://www.w3.org/2000/svg" viewBox="0 0 24 24"><defs><style>.a{fill:none;stroke:currentColor;stroke-linecap:round;stroke-linejoin:round;stroke-width:1.5px;}</style></defs><title>layers-grid-magnet</title><path class="a" d="M8.25,18.75H3.75a3,3,0,0,1-3-3v-12a3,3,0,0,1,3-3h12a3,3,0,0,1,3,3v4.5"/><line class="a" x1="6.75" y1="0.75" x2="6.75" y2="18.75"/><line class="a" x1="12.75" y1="0.75" x2="12.75" y2="8.25"/><line class="a" x1="18.75" y1="6.75" x2="0.75" y2="6.75"/><line class="a" x1="8.25" y1="12.75" x2="0.75" y2="12.75"/><path class="a" d="M23.25,17.25a6,6,0,0,1-12,0v-4.5a1.5,1.5,0,0,1,1.5-1.5h1.5a1.5,1.5,0,0,1,1.5,1.5v4.5a1.5,1.5,0,0,0,3,0v-4.5a1.5,1.5,0,0,1,1.5-1.5h1.5a1.5,1.5,0,0,1,1.5,1.5Z"/><line class="a" x1="11.25" y1="14.25" x2="15.75" y2="14.25"/><line class="a" x1="18.75" y1="14.25" x2="23.25" y2="14.25"/></svg>