<svg xmlns="http://www.w3.org/2000/svg" viewBox="0 0 24 24"><defs><style>.a{fill:none;stroke:currentColor;stroke-linecap:round;stroke-linejoin:round;stroke-width:1.5px;}</style></defs><title>layers-off</title><path class="a" d="M3.218,5.1,1.083,6.2a.616.616,0,0,0,0,1.094L7.121,10.42"/><path class="a" d="M15.2,11.289,22.917,7.3a.616.616,0,0,0,0-1.094L12.708.922a1.543,1.543,0,0,0-1.416,0L8.613,2.308"/><path class="a" d="M17.991,15.1l4.926-2.548a.616.616,0,0,0,0-1.094L18.9,9.375"/><path class="a" d="M5.1,9.375,1.083,11.453a.616.616,0,0,0,0,1.094l10.209,5.281a1.538,1.538,0,0,0,1.3.053"/><path class="a" d="M20.782,18.9,22.917,17.8a.616.616,0,0,0,0-1.094L18.9,14.625"/><path class="a" d="M5.1,14.625,1.083,16.7a.616.616,0,0,0,0,1.094l10.209,5.281a1.543,1.543,0,0,0,1.416,0l2.679-1.386"/><line class="a" x1="3.75" y1="0.75" x2="20.25" y2="23.25"/></svg>