<svg xmlns="http://www.w3.org/2000/svg" viewBox="0 0 24 24"><defs><style>.a{fill:none;stroke:currentColor;stroke-linecap:round;stroke-linejoin:round;stroke-width:1.5px;}</style></defs><title>layers-grid-warning</title><path class="a" d="M8.25,18.75H3.75a3,3,0,0,1-3-3v-12a3,3,0,0,1,3-3h12a3,3,0,0,1,3,3v4.5"/><line class="a" x1="6.75" y1="0.75" x2="6.75" y2="18.75"/><line class="a" x1="12.75" y1="0.75" x2="12.75" y2="9.75"/><line class="a" x1="18.75" y1="6.75" x2="0.75" y2="6.75"/><line class="a" x1="9.75" y1="12.75" x2="0.75" y2="12.75"/><path class="a" d="M17.25,20.25a.375.375,0,1,1-.375.375.375.375,0,0,1,.375-.375"/><line class="a" x1="17.25" y1="18" x2="17.25" y2="15"/><path class="a" d="M23.063,20.682a1.774,1.774,0,0,1-1.587,2.568H13.024a1.773,1.773,0,0,1-1.586-2.568l4.226-8.451a1.773,1.773,0,0,1,3.173,0Z"/></svg>