<svg xmlns="http://www.w3.org/2000/svg" viewBox="0 0 24 24"><defs><style>.a{fill:none;stroke:currentColor;stroke-linecap:round;stroke-linejoin:round;stroke-width:1.5px;}</style></defs><title>legal-scale-document</title><line class="a" x1="6.75" y1="9.75" x2="21.75" y2="9.75"/><line class="a" x1="14.25" y1="8.25" x2="14.25" y2="20.25"/><path class="a" d="M11.25,23.25a3,3,0,0,1,6,0Z"/><polyline class="a" points="5.25 15.75 8.25 9.75 11.25 15.75"/><polyline class="a" points="17.25 15.75 20.25 9.75 23.25 15.75"/><path class="a" d="M11.25,15.75a3,3,0,0,1-6,0Z"/><path class="a" d="M23.25,15.75a3,3,0,0,1-6,0Z"/><path class="a" d="M6.75,21.75H2.25a1.5,1.5,0,0,1-1.5-1.5v-18A1.5,1.5,0,0,1,2.25.75H12.439a.751.751,0,0,1,.531.22l4.06,4.06a.751.751,0,0,1,.22.531V6.75"/></svg>