<svg xmlns="http://www.w3.org/2000/svg" viewBox="0 0 24 24"><defs><style>.a{fill:none;stroke:currentColor;stroke-linecap:round;stroke-linejoin:round;stroke-width:1.5px;}</style></defs><title>legal-certificate</title><circle class="a" cx="20.25" cy="3.75" r="3"/><path class="a" d="M4.814,1.018a.489.489,0,0,1,.872,0L6.7,3.06a.485.485,0,0,0,.365.263l2.273.328a.484.484,0,0,1,.39.325.474.474,0,0,1-.121.489l-1.65,1.6a.476.476,0,0,0-.138.421l.389,2.255a.475.475,0,0,1-.194.468.49.49,0,0,1-.511.034L5.477,8.185a.486.486,0,0,0-.454,0L3,9.243a.49.49,0,0,1-.511-.034.475.475,0,0,1-.194-.468l.389-2.255a.476.476,0,0,0-.138-.421L.9,4.465a.474.474,0,0,1-.121-.489.483.483,0,0,1,.39-.325l2.272-.328A.485.485,0,0,0,3.8,3.06Z"/><line class="a" x1="20.25" y1="0.75" x2="9.75" y2="0.75"/><path class="a" d="M17.25,3.75v15a4.5,4.5,0,0,1-4.5,4.5H.75a4.5,4.5,0,0,0,4.5-4.5v-6"/><line class="a" x1="8.25" y1="17.25" x2="14.25" y2="17.25"/><line class="a" x1="8.25" y1="14.25" x2="14.25" y2="14.25"/><line class="a" x1="11.25" y1="11.25" x2="14.25" y2="11.25"/><line class="a" x1="11.25" y1="8.25" x2="14.25" y2="8.25"/></svg>