<svg xmlns="http://www.w3.org/2000/svg" viewBox="0 0 24 24"><defs><style>.a{fill:none;stroke:currentColor;stroke-linecap:round;stroke-linejoin:round;stroke-width:1.5px;}</style></defs><title>legal-scale</title><path class="a" d="M17.222,22.592a.465.465,0,0,1-.075.45.563.563,0,0,1-.443.208H7.3a.563.563,0,0,1-.443-.208.465.465,0,0,1-.075-.45L7.285,21.2a1.511,1.511,0,0,1,1.438-.949h6.554a1.511,1.511,0,0,1,1.438.949Z"/><path class="a" d="M9.75,20.25V19.217A2.123,2.123,0,0,1,12,17.25a2.123,2.123,0,0,1,2.25,1.967V20.25"/><line class="a" x1="12" y1="17.239" x2="12" y2="6"/><path class="a" d="M13.843,4.227a1.823,1.823,0,0,1-3.645,0A10.865,10.865,0,0,1,11.481,1.07a.615.615,0,0,1,1.079,0A10.893,10.893,0,0,1,13.843,4.227Z"/><line class="a" x1="2.25" y1="7.5" x2="21.75" y2="7.5"/><line class="a" x1="4.5" y1="7.5" x2="4.5" y2="12"/><path class="a" d="M7.777,12a.474.474,0,0,1,.357.162.462.462,0,0,1,.111.373,3.789,3.789,0,0,1-7.49,0,.464.464,0,0,1,.111-.374A.477.477,0,0,1,1.224,12Z"/><line class="a" x1="19.5" y1="7.5" x2="19.5" y2="12"/><path class="a" d="M22.777,12a.474.474,0,0,1,.357.162.462.462,0,0,1,.111.373,3.789,3.789,0,0,1-7.49,0,.464.464,0,0,1,.111-.374A.477.477,0,0,1,16.224,12Z"/></svg>