<svg xmlns="http://www.w3.org/2000/svg" viewBox="0 0 24 24"><defs><style>.a{fill:none;stroke:currentColor;stroke-linecap:round;stroke-linejoin:round;stroke-width:1.5px;}</style></defs><title>legal-verdict</title><circle class="a" cx="18.693" cy="17.25" r="3"/><circle class="a" cx="5.193" cy="17.25" r="3"/><rect class="a" x="10.727" y="0.943" width="3.182" height="6.364" rx="0.75" ry="0.75" transform="translate(0.691 9.918) rotate(-45)"/><line class="a" x1="11.193" y1="5.25" x2="7.443" y2="9"/><path class="a" d="M15.693.75h2.25a1.5,1.5,0,0,1,1.5,1.5v7.5a1.5,1.5,0,0,1-1.5,1.5h-3L11.193,15V11.25h-6a1.5,1.5,0,0,1-1.5-1.5V2.25a1.5,1.5,0,0,1,1.5-1.5h1.5"/><path class="a" d="M9.5,23.25a5.248,5.248,0,0,0-8.615,0"/><path class="a" d="M23,23.25a5.249,5.249,0,0,0-8.616,0"/></svg>