<svg xmlns="http://www.w3.org/2000/svg" viewBox="0 0 24 24"><defs><style>.a{fill:none;stroke:currentColor;stroke-linecap:round;stroke-linejoin:round;stroke-width:1.5px;}</style></defs><title>legal-scale-unequal-1</title><line class="a" x1="12" y1="4.33" x2="12" y2="23.25"/><polyline class="a" points="0.75 17.114 4.33 9.479 7.909 17.114"/><path class="a" d="M4.33,20.693a3.494,3.494,0,0,0,3.579-3.579H.75A3.494,3.494,0,0,0,4.33,20.693Z"/><polyline class="a" points="23.25 10.977 19.67 3.272 16.091 10.977"/><path class="a" d="M19.67,14.557a3.494,3.494,0,0,1-3.579-3.58H23.25A3.494,3.494,0,0,1,19.67,14.557Z"/><line class="a" x1="2.229" y1="10.328" x2="20.752" y2="2.772"/><polyline class="a" points="7.398 23.25 11.489 23.25 16.602 23.25 9.443 23.25"/></svg>