<svg xmlns="http://www.w3.org/2000/svg" viewBox="0 0 24 24"><defs><style>.a{fill:none;stroke:currentColor;stroke-linecap:round;stroke-linejoin:round;stroke-width:1.5px;}</style></defs><title>legal-hammer</title><path class="a" d="M13.27,8.612,22.6,17.406a1.309,1.309,0,0,1,0,1.852l-.926.925a1.307,1.307,0,0,1-1.851,0l-8.794-9.325"/><path class="a" d="M3.58,8.575a19.034,19.034,0,0,0,7.407-7.407,1.307,1.307,0,0,1,1.851,0l3.51,3.51a1.307,1.307,0,0,1,0,1.851,18.119,18.119,0,0,0-7.407,7.407,1.309,1.309,0,0,1-1.852,0L3.58,10.427A1.309,1.309,0,0,1,3.58,8.575Z"/><path class="a" d="M12.75,21.75h0a1.5,1.5,0,0,0-1.5-1.5H3.75a1.5,1.5,0,0,0-1.5,1.5h0v1.5h10.5Z"/><line class="a" x1="0.75" y1="23.25" x2="14.25" y2="23.25"/></svg>