<svg xmlns="http://www.w3.org/2000/svg" viewBox="0 0 24 24"><defs><style>.a{fill:none;stroke:currentColor;stroke-linecap:round;stroke-linejoin:round;stroke-width:1.5px;}</style></defs><title>legal-judge</title><path class="a" d="M21.476,23.25a10.483,10.483,0,0,0-18.952,0"/><path class="a" d="M12,5.25s-1.434,3.6-5.031,3.745a5.25,5.25,0,1,0,10.062,0C13.434,8.847,12,5.25,12,5.25Z"/><line class="a" x1="12" y1="5.25" x2="12" y2="0.75"/><path class="a" d="M17.25,10.5V15a3,3,0,0,0,3,3,2.25,2.25,0,0,0,0-4.5,2.25,2.25,0,0,0,0-4.5A8.25,8.25,0,0,0,3.75,9a2.25,2.25,0,0,0,0,4.5,2.25,2.25,0,0,0,0,4.5,3,3,0,0,0,3-3V10.5"/><line class="a" x1="12" y1="17.25" x2="12" y2="21"/></svg>