<svg xmlns="http://www.w3.org/2000/svg" viewBox="0 0 24 24"><defs><style>.a{fill:none;stroke:currentColor;stroke-linecap:round;stroke-linejoin:round;stroke-width:1.5px;}</style></defs><title>library-sports</title><path class="a" d="M17.947,4.479l.267-1.76a2.132,2.132,0,0,1,3.077,0,2.132,2.132,0,0,1,0,3.078l-1.576.45"/><path class="a" d="M21.291,5.8s1.539-.769,1.924,1.154c.261,1.306-.326,1.2-5.5,2.659"/><path class="a" d="M18.214,2.719S18.983,1.181,17.06.8c-1.42-.284-1.335.7-2.531,5.632"/><path class="a" d="M17.711,9.61l-.53.531a2.257,2.257,0,0,1-3.182,0h0a2.257,2.257,0,0,1,0-3.182l.53-.531Z"/><path class="a" d="M15.75,13.511v8.25a1.5,1.5,0,0,1-1.5,1.5h-12a1.5,1.5,0,0,1-1.5-1.5V5.261a1.5,1.5,0,0,1,1.5-1.5h7.5"/><line class="a" x1="0.75" y1="13.511" x2="15.75" y2="13.511"/><rect class="a" x="0.75" y="7.511" width="3" height="6"/><path class="a" d="M3.75,7.511H6.243a.5.5,0,0,1,.5.5v5.5a0,0,0,0,1,0,0H3.75a0,0,0,0,1,0,0v-6A0,0,0,0,1,3.75,7.511Z"/><path class="a" d="M.75,17.261h2.5a.5.5,0,0,1,.5.5v5.5"/><path class="a" d="M7.25,17.261h2a.5.5,0,0,1,.5.5v5.5a0,0,0,0,1,0,0h-3a0,0,0,0,1,0,0v-5.5A.5.5,0,0,1,7.25,17.261Z"/><rect class="a" x="3.75" y="18.011" width="3" height="5.25"/><rect class="a" x="8.703" y="7.9" width="2.759" height="5.519" rx="0.5" ry="0.5" transform="translate(-2.215 2.656) rotate(-13.535)"/></svg>