<svg xmlns="http://www.w3.org/2000/svg" viewBox="0 0 24 24"><defs><style>.a{fill:none;stroke:currentColor;stroke-linecap:round;stroke-linejoin:round;stroke-width:1.5px;}</style></defs><title>library-music-1</title><path class="a" d="M15.75,16.5v5.25a1.5,1.5,0,0,1-1.5,1.5h-12a1.5,1.5,0,0,1-1.5-1.5V5.251a1.5,1.5,0,0,1,1.5-1.5h7.5"/><line class="a" x1="0.75" y1="13.501" x2="9.75" y2="13.501"/><rect class="a" x="0.75" y="7.501" width="3" height="6"/><path class="a" d="M3.75,7.5H6.243a.5.5,0,0,1,.5.5v5.5a0,0,0,0,1,0,0H3.75a0,0,0,0,1,0,0v-6A0,0,0,0,1,3.75,7.5Z"/><path class="a" d="M.75,17.251h2.5a.5.5,0,0,1,.5.5v5.5"/><path class="a" d="M7.25,17.251h2a.5.5,0,0,1,.5.5v5.5a0,0,0,0,1,0,0h-3a0,0,0,0,1,0,0v-5.5A.5.5,0,0,1,7.25,17.251Z"/><rect class="a" x="3.75" y="18.001" width="3" height="5.25"/><circle class="a" cx="13.875" cy="10.295" r="1.875"/><circle class="a" cx="21.375" cy="8.045" r="1.875"/><path class="a" d="M15.75,10.3V3.5a1.5,1.5,0,0,1,1.026-1.423l4.5-1.25A1.5,1.5,0,0,1,23.25,2.251V8.045"/></svg>