<svg xmlns="http://www.w3.org/2000/svg" viewBox="0 0 24 24"><defs><style>.a{fill:none;stroke:currentColor;stroke-linecap:round;stroke-linejoin:round;stroke-width:1.5px;}</style></defs><title>library-maths</title><line class="a" x1="22.75" y1="8.501" x2="17.5" y2="8.501"/><path class="a" d="M20.125,5.5a.375.375,0,0,0-.375.375"/><path class="a" d="M20.5,5.876a.375.375,0,0,0-.375-.375"/><path class="a" d="M20.125,6.251a.374.374,0,0,0,.375-.375"/><path class="a" d="M19.75,5.876a.374.374,0,0,0,.375.375"/><path class="a" d="M20.125,10.751a.375.375,0,0,0-.375.375"/><path class="a" d="M20.5,11.126a.375.375,0,0,0-.375-.375"/><path class="a" d="M20.125,11.5a.374.374,0,0,0,.375-.375"/><path class="a" d="M19.75,11.126a.374.374,0,0,0,.375.375"/><polyline class="a" points="13 3.251 14.5 5.501 16 1.001 21.25 1.001"/><path class="a" d="M16,16v5.25a1.5,1.5,0,0,1-1.5,1.5H2.5a1.5,1.5,0,0,1-1.5-1.5V4.751a1.5,1.5,0,0,1,1.5-1.5H10"/><line class="a" x1="1" y1="13.001" x2="14.5" y2="13.001"/><rect class="a" x="1" y="7.001" width="3" height="6"/><path class="a" d="M4,7H6.493a.5.5,0,0,1,.5.5V13a0,0,0,0,1,0,0H4a0,0,0,0,1,0,0V7A0,0,0,0,1,4,7Z"/><path class="a" d="M1,16.751H3.5a.5.5,0,0,1,.5.5v5.5"/><path class="a" d="M7.5,16.751h2a.5.5,0,0,1,.5.5v5.5a0,0,0,0,1,0,0H7a0,0,0,0,1,0,0v-5.5A.5.5,0,0,1,7.5,16.751Z"/><rect class="a" x="4" y="17.501" width="3" height="5.25"/><rect class="a" x="8.953" y="7.391" width="2.759" height="5.519" rx="0.5" ry="0.5" transform="translate(-2.089 2.7) rotate(-13.535)"/></svg>