<svg xmlns="http://www.w3.org/2000/svg" viewBox="0 0 24 24"><defs><style>.a{fill:none;stroke:currentColor;stroke-linecap:round;stroke-linejoin:round;stroke-width:1.5px;}</style></defs><title>library</title><rect class="a" x="2.25" y="0.751" width="19.5" height="22.5" rx="1.5" ry="1.5"/><line class="a" x1="2.25" y1="11.251" x2="21.75" y2="11.251"/><path class="a" d="M7.25,15.751h2.5a0,0,0,0,1,0,0v7.5a0,0,0,0,1,0,0h-2a1,1,0,0,1-1-1v-6A.5.5,0,0,1,7.25,15.751Z"/><rect class="a" x="2.25" y="4.501" width="3" height="6.75"/><rect class="a" x="5.25" y="3.751" width="3" height="7.5"/><path class="a" d="M8.25,3.751h2.5a.5.5,0,0,1,.5.5v7a0,0,0,0,1,0,0h-3a0,0,0,0,1,0,0v-7.5A0,0,0,0,1,8.25,3.751Z"/><path class="a" d="M16.3,10.516l-2.047.735-2.211-6.2A.754.754,0,0,1,12.5,4.09l1.341-.482a.75.75,0,0,1,.959.455l1.958,5.491A.754.754,0,0,1,16.3,10.516Z"/><polyline class="a" points="18.75 23.251 18.75 15.751 21.75 15.751"/><rect class="a" x="15.75" y="15.751" width="3" height="7.5"/><path class="a" d="M10.25,14.251h2.5a0,0,0,0,1,0,0v9a0,0,0,0,1,0,0h-3a0,0,0,0,1,0,0v-8.5A.5.5,0,0,1,10.25,14.251Z"/><path class="a" d="M12.75,14.251h2.5a.5.5,0,0,1,.5.5v8.5a0,0,0,0,1,0,0h-3a0,0,0,0,1,0,0v-9A0,0,0,0,1,12.75,14.251Z"/></svg>