<svg xmlns="http://www.w3.org/2000/svg" viewBox="0 0 24 24"><defs><style>.a{fill:none;stroke:currentColor;stroke-linecap:round;stroke-linejoin:round;stroke-width:1.5px;}</style></defs><title>library-art</title><path class="a" d="M18.457,1.293A6.16,6.16,0,0,0,15.905.751c-2.985,0-5.4,2.049-5.4,4.576A4.633,4.633,0,0,0,13.8,9.54c.767.274,1.4.051,1.845-.966a1.6,1.6,0,0,1,1.584-1.018"/><line class="a" x1="20.976" y1="6.168" x2="18.157" y2="11.897"/><path class="a" d="M20.372,4.326a1.383,1.383,0,0,0,.6,1.842,1.342,1.342,0,0,0,1.813-.614,2.959,2.959,0,0,0-.6-3.888C22.386,3.3,21.178,2.689,20.372,4.326Z"/><path class="a" d="M13.875,5.159a.378.378,0,0,1,.375.381"/><path class="a" d="M13.5,5.54a.378.378,0,0,1,.375-.381"/><path class="a" d="M13.875,5.921A.378.378,0,0,1,13.5,5.54"/><path class="a" d="M14.25,5.54a.378.378,0,0,1-.375.381"/><path class="a" d="M16.125,2.909a.378.378,0,0,1,.375.381"/><path class="a" d="M15.75,3.29a.378.378,0,0,1,.375-.381"/><path class="a" d="M16.125,3.671a.378.378,0,0,1-.375-.381"/><path class="a" d="M16.5,3.29a.378.378,0,0,1-.375.381"/><path class="a" d="M15.75,16.5v5.25a1.5,1.5,0,0,1-1.5,1.5h-12a1.5,1.5,0,0,1-1.5-1.5V5.251a1.5,1.5,0,0,1,1.5-1.5H7.5"/><line class="a" x1="0.75" y1="13.501" x2="14.25" y2="13.501"/><rect class="a" x="0.75" y="7.501" width="3" height="6"/><path class="a" d="M3.75,7.5H6.243a.5.5,0,0,1,.5.5v5.5a0,0,0,0,1,0,0H3.75a0,0,0,0,1,0,0v-6A0,0,0,0,1,3.75,7.5Z"/><path class="a" d="M.75,17.251h2.5a.5.5,0,0,1,.5.5v5.5"/><path class="a" d="M7.25,17.251h2a.5.5,0,0,1,.5.5v5.5a0,0,0,0,1,0,0h-3a0,0,0,0,1,0,0v-5.5A.5.5,0,0,1,7.25,17.251Z"/><rect class="a" x="3.75" y="18.001" width="3" height="5.25"/></svg>