<svg xmlns="http://www.w3.org/2000/svg" viewBox="0 0 24 24"><defs><style>.a{fill:none;stroke:currentColor;stroke-linecap:round;stroke-linejoin:round;stroke-width:1.5px;}</style></defs><title>lift-1</title><rect class="a" x="0.75" y="0.75" width="22.5" height="22.5" rx="1" ry="1"/><path class="a" d="M4.5,23.25V10.5a.75.75,0,0,1,.75-.75h10.5a.75.75,0,0,1,.75.75V23.25"/><line class="a" x1="10.5" y1="9.75" x2="10.5" y2="23.25"/><path class="a" d="M19.5,13.875a.375.375,0,1,1,.375.375.375.375,0,0,1-.375-.375"/><path class="a" d="M19.5,17.625a.375.375,0,1,1,.375.375.375.375,0,0,1-.375-.375"/><line class="a" x1="7.5" y1="6" x2="13.5" y2="6"/></svg>