<svg xmlns="http://www.w3.org/2000/svg" viewBox="0 0 24 24"><defs><style>.a{fill:none;stroke:currentColor;stroke-linecap:round;stroke-linejoin:round;stroke-width:1.5px;}</style></defs><title>lighthouse-bird</title><path class="a" d="M23.25,23.25c-2.068,0-3.745-1.007-3.745-2.25,0,1.243-1.677,2.25-3.745,2.25S12.015,22.243,12.015,21c0,1.243-1.677,2.25-3.745,2.25S4.525,22.243,4.525,21c0,1.243-1.677,2.25-3.745,2.25"/><path class="a" d="M10.558,18.111l2.061-9.274a.751.751,0,0,1,.732-.587h6.3a.749.749,0,0,1,.732.587l2.025,9.112"/><line class="a" x1="11.416" y1="14.25" x2="21.583" y2="14.25"/><path class="a" d="M18.75,8.25h-4.5V4.5a2.25,2.25,0,0,1,4.5,0Z"/><line class="a" x1="16.5" y1="0.75" x2="16.5" y2="2.25"/><polyline class="a" points="0.75 0.75 2.25 2.25 3.75 0.75"/><path class="a" d="M16.5,10.875a.375.375,0,1,1-.375.375.375.375,0,0,1,.375-.375"/><path class="a" d="M16.5,16.875a.375.375,0,1,1-.375.375.375.375,0,0,1,.375-.375"/></svg>