<svg id="Regular" xmlns="http://www.w3.org/2000/svg" viewBox="0 0 24 24"><defs><style>.cls-1{fill:none;stroke:currentColor;stroke-linecap:round;stroke-linejoin:round;stroke-width:1.5px;}</style></defs><title>light-bulb-1</title><path class="cls-1" d="M14.25,21a2.25,2.25,0,0,1-4.5,0V17.25h4.5Z"/><path class="cls-1" d="M14.25,17.25a8.639,8.639,0,0,0,6-8.25A8.25,8.25,0,0,0,3.75,9a8.639,8.639,0,0,0,6,8.25"/><path class="cls-1" d="M10.5,9.75H9a1.5,1.5,0,1,1,1.5-1.5Z"/><path class="cls-1" d="M13.5,9.75H15a1.5,1.5,0,1,0-1.5-1.5Z"/><polyline class="cls-1" points="10.5 17.25 10.5 9.75 13.5 9.75 13.5 17.25"/><line class="cls-1" x1="9.75" y1="20.25" x2="14.25" y2="20.25"/></svg>