<svg id="Regular" xmlns="http://www.w3.org/2000/svg" viewBox="0 0 24 24"><defs><style>.cls-1{fill:none;stroke:currentColor;stroke-linecap:round;stroke-linejoin:round;stroke-width:1.5px;}</style></defs><title>lighter</title><path class="cls-1" d="M20.25,23.25H9.75a1.5,1.5,0,0,1-1.5-1.5v-7.5h13.5v7.5A1.5,1.5,0,0,1,20.25,23.25Z"/><path class="cls-1" d="M2.25,12.75V2.25A1.5,1.5,0,0,1,3.75.75h4.5v13.5H3.75A1.5,1.5,0,0,1,2.25,12.75Z"/><path class="cls-1" d="M15.284,1.871a3.739,3.739,0,0,1,.379,4.263A1.332,1.332,0,0,1,14.242,5,3.014,3.014,0,0,0,12.679,7.84a3.411,3.411,0,0,0,3.411,3.41A3.457,3.457,0,0,0,19.5,7.84,5.672,5.672,0,0,0,15.284,1.871Z"/><rect class="cls-1" x="12.75" y="11.25" width="6" height="3"/></svg>