<svg xmlns="http://www.w3.org/2000/svg" viewBox="0 0 24 24"><defs><style>.a{fill:none;stroke:currentColor;stroke-linecap:round;stroke-linejoin:round;stroke-width:1.5px;}</style></defs><title>lighthouse</title><rect class="a" x="6.75" y="11.25" width="9" height="12"/><path class="a" d="M12.75,23.25h-3v-3a1.5,1.5,0,0,1,3,0Z"/><line class="a" x1="5.25" y1="11.25" x2="17.25" y2="11.25"/><rect class="a" x="8.25" y="5.25" width="6" height="6"/><path class="a" d="M8.25,5.25a3,3,0,0,1,6,0"/><line class="a" x1="6.75" y1="5.25" x2="15.75" y2="5.25"/><line class="a" x1="11.25" y1="0.75" x2="11.25" y2="2.25"/><line class="a" x1="0.75" y1="23.25" x2="23.25" y2="23.25"/><line class="a" x1="0.75" y1="5.25" x2="3.75" y2="6"/><line class="a" x1="0.75" y1="9.75" x2="3.75" y2="9"/><line class="a" x1="21.75" y1="5.25" x2="18.75" y2="6"/><line class="a" x1="21.75" y1="9.75" x2="18.75" y2="9"/></svg>