<svg id="Regular" xmlns="http://www.w3.org/2000/svg" viewBox="0 0 24 24"><defs><style>.cls-1{fill:none;stroke:currentColor;stroke-linecap:round;stroke-linejoin:round;stroke-width:1.5px;}</style></defs><title>lion</title><path class="cls-1" d="M22.948,10.708c-.738,8.854-9.592,12.543-11.068,12.543S1.55,19.562.812,10.708C.077,1.884,5.977-1.1,11.88,1.853,17.783-1.1,23.683,1.884,22.948,10.708Z"/><path class="cls-1" d="M19.258,9.97c0-2.853-1.982-5.165-4.427-5.165a4.073,4.073,0,0,0-2.951,1.34,4.073,4.073,0,0,0-2.951-1.34C6.484,4.805,4.5,7.117,4.5,9.97c0,2.667,1.464,4.891,3.689,5.165-.624.318-.738,1.475-.738,2.213,0,1.476,2.213,2.952,4.427.738,2.214,2.214,4.427.738,4.427-.738,0-.738-.114-1.895-.738-2.213C17.794,14.861,19.258,12.637,19.258,9.97Z"/><path class="cls-1" d="M13.356,13.659c0,.407-.661.738-1.476.738s-1.476-.331-1.476-.738"/><line class="cls-1" x1="11.88" y1="14.397" x2="11.88" y2="18.086"/><path class="cls-1" d="M15.2,9.226a.375.375,0,0,1,.375.375"/><path class="cls-1" d="M14.825,9.6a.375.375,0,0,1,.375-.375"/><path class="cls-1" d="M15.2,9.976a.375.375,0,0,1-.375-.375"/><path class="cls-1" d="M15.575,9.6a.375.375,0,0,1-.375.375"/><path class="cls-1" d="M8.56,9.226a.375.375,0,0,1,.375.375"/><path class="cls-1" d="M8.185,9.6a.375.375,0,0,1,.375-.375"/><path class="cls-1" d="M8.56,9.976A.375.375,0,0,1,8.185,9.6"/><path class="cls-1" d="M8.935,9.6a.375.375,0,0,1-.375.375"/></svg>