<svg id="Regular" xmlns="http://www.w3.org/2000/svg" viewBox="0 0 24 24"><defs><style>.cls-1{fill:none;stroke:currentColor;stroke-linecap:round;stroke-linejoin:round;stroke-width:1.5px;}</style></defs><title>lion-1</title><path class="cls-1" d="M12.01,15.751a2.25,2.25,0,0,1-4.5,0V9c0-3,3-3,4.5-1.5C13.51,6,16.51,6,16.51,9v6.75a2.25,2.25,0,0,1-4.5,0"/><line class="cls-1" x1="11.26" y1="14.251" x2="12.76" y2="14.251"/><line class="cls-1" x1="12.01" y1="15.751" x2="12.01" y2="14.251"/><path class="cls-1" d="M10.135,11.251a.375.375,0,0,1,.375.375"/><path class="cls-1" d="M9.76,11.626a.375.375,0,0,1,.375-.375"/><path class="cls-1" d="M10.135,12a.375.375,0,0,1-.375-.375"/><path class="cls-1" d="M10.51,11.626a.375.375,0,0,1-.375.375"/><path class="cls-1" d="M13.885,11.251a.375.375,0,0,1,.375.375"/><path class="cls-1" d="M13.51,11.626a.375.375,0,0,1,.375-.375"/><path class="cls-1" d="M13.885,12a.375.375,0,0,1-.375-.375"/><path class="cls-1" d="M14.26,11.626a.375.375,0,0,1-.375.375"/><path class="cls-1" d="M22.51,12c0,9-9,11.25-10.5,11.25S1.51,21,1.51,12c0-5.8,3-13.5,10.5-10.5C19.51-1.5,22.51,6.2,22.51,12Z"/></svg>