<svg id="Regular" xmlns="http://www.w3.org/2000/svg" viewBox="0 0 24 24"><defs><style>.cls-1{fill:none;stroke:currentColor;stroke-linecap:round;stroke-linejoin:round;stroke-width:1.5px;}</style></defs><title>lion-body</title><path class="cls-1" d="M3.843,12.751c-3,0-2.25-3.75-2.25-3.75h1.5a3,3,0,0,1,6,0c0,2.25-.75,3.75-3,3.75Z"/><path class="cls-1" d="M4.29,6.6C5.018,4.471,6.559,3,8.343,3c2.486,0,4.5,2.854,4.5,6.375,0,4.875-3.75,5.625-4.5,7.875-1.711,0-3.2-2.065-3.96-4.5"/><path class="cls-1" d="M12.773,8.251h4.57A3.543,3.543,0,0,1,21.093,12v7.5"/><path class="cls-1" d="M17.343,13.5c0,2.25,1.5,3,3.75,3"/><path class="cls-1" d="M18.252,15.751H13.609a1.5,1.5,0,0,0-1.286.728L10.51,19.5"/><path class="cls-1" d="M20.415,9.7A5.071,5.071,0,0,0,22.593,6"/></svg>