<svg id="Regular" xmlns="http://www.w3.org/2000/svg" viewBox="0 0 24 24"><defs><style>.cls-1{fill:none;stroke:currentColor;stroke-linecap:round;stroke-linejoin:round;stroke-width:1.5px;}</style></defs><title>lioness</title><path class="cls-1" d="M15.641,3.6A8.263,8.263,0,0,0,7.2,3.6"/><path class="cls-1" d="M4.485,6.228a8.2,8.2,0,0,0-1.312,4.466c0,4.5,3,4.5,3,6.75a2.631,2.631,0,1,0,5.25,0,2.631,2.631,0,1,0,5.25,0c0-2.25,3-2.25,3-6.75a8.216,8.216,0,0,0-1.384-4.576"/><path class="cls-1" d="M9.923,15.194a1.6,1.6,0,0,0,1.5,1.5,1.6,1.6,0,0,0,1.5-1.5"/><path class="cls-1" d="M8.048,9.944a.375.375,0,0,1,.375.375"/><path class="cls-1" d="M7.673,10.319a.374.374,0,0,1,.375-.375"/><path class="cls-1" d="M8.048,10.694a.374.374,0,0,1-.375-.375"/><path class="cls-1" d="M8.423,10.319a.375.375,0,0,1-.375.375"/><path class="cls-1" d="M14.8,9.944a.375.375,0,0,1,.375.375"/><path class="cls-1" d="M14.423,10.319a.374.374,0,0,1,.375-.375"/><path class="cls-1" d="M14.8,10.694a.374.374,0,0,1-.375-.375"/><path class="cls-1" d="M15.173,10.319a.375.375,0,0,1-.375.375"/><path class="cls-1" d="M8.43,20.232c-.13,1.852,1.431,2.462,2.993,2.462s3.122-.61,2.992-2.462"/><path class="cls-1" d="M15.641,3.6c2-2.895,3.536-1.654,4.032-1.158s1.989,2.445-.859,4.581"/><path class="cls-1" d="M7.205,3.6c-2-2.895-3.536-1.654-4.032-1.158s-1.99,2.445.858,4.581"/><line class="cls-1" x1="11.423" y1="17.444" x2="11.423" y2="16.694"/></svg>