<svg id="Regular" xmlns="http://www.w3.org/2000/svg" viewBox="0 0 24 24"><defs><style>.cls-1{fill:none;stroke:currentColor;stroke-linecap:round;stroke-linejoin:round;stroke-width:1.5px;}</style></defs><title>lion-footprint</title><path class="cls-1" d="M17.607,22.491c1.132,0,1.51.76,2.643.76a1.383,1.383,0,0,0,1.51-1.51c0-1.511-1.649-1.549-1.888-2.266-.377-1.132-.755-2.265-2.265-2.265s-1.888,1.133-2.266,2.265c-.238.717-1.887.755-1.887,2.266a1.383,1.383,0,0,0,1.51,1.51C16.1,23.251,16.474,22.491,17.607,22.491Z"/><path class="cls-1" d="M15.385,14.241a.375.375,0,0,1,.375.375"/><path class="cls-1" d="M15.01,14.616a.375.375,0,0,1,.375-.375"/><path class="cls-1" d="M15.385,14.991a.375.375,0,0,1-.375-.375"/><path class="cls-1" d="M15.76,14.616a.375.375,0,0,1-.375.375"/><path class="cls-1" d="M12.385,17.241a.375.375,0,0,1,.375.375"/><path class="cls-1" d="M12.01,17.616a.375.375,0,0,1,.375-.375"/><path class="cls-1" d="M12.385,17.991a.375.375,0,0,1-.375-.375"/><path class="cls-1" d="M12.76,17.616a.375.375,0,0,1-.375.375"/><path class="cls-1" d="M22.885,17.241a.375.375,0,0,1,.375.375"/><path class="cls-1" d="M22.51,17.616a.375.375,0,0,1,.375-.375"/><path class="cls-1" d="M22.885,17.991a.375.375,0,0,1-.375-.375"/><path class="cls-1" d="M23.26,17.616a.375.375,0,0,1-.375.375"/><path class="cls-1" d="M19.885,14.241a.375.375,0,0,1,.375.375"/><path class="cls-1" d="M19.51,14.616a.375.375,0,0,1,.375-.375"/><path class="cls-1" d="M19.885,14.991a.375.375,0,0,1-.375-.375"/><path class="cls-1" d="M20.26,14.616a.375.375,0,0,1-.375.375"/><path class="cls-1" d="M15.76,7.837c0,4.875-5.833,7.5-7.5,7.5s-7.5-2.625-7.5-7.5c0-4.5,3.333-8.25,7.5-6.75C12.427-.413,15.76,3.337,15.76,7.837Z"/><path class="cls-1" d="M12.76,7.428a4.31,4.31,0,0,0-4.5-4.091,4.309,4.309,0,0,0-4.5,4.091,3.978,3.978,0,0,0,1.866,3.3A2.638,2.638,0,0,0,8.26,12.337a2.638,2.638,0,0,0,2.634-1.605A3.978,3.978,0,0,0,12.76,7.428Z"/><path class="cls-1" d="M6.385,7.087a.375.375,0,0,1,.375.375"/><path class="cls-1" d="M6.01,7.462a.375.375,0,0,1,.375-.375"/><path class="cls-1" d="M6.385,7.837a.375.375,0,0,1-.375-.375"/><path class="cls-1" d="M6.76,7.462a.375.375,0,0,1-.375.375"/><path class="cls-1" d="M10.135,7.087a.375.375,0,0,1,.375.375"/><path class="cls-1" d="M9.76,7.462a.375.375,0,0,1,.375-.375"/><path class="cls-1" d="M10.135,7.837a.375.375,0,0,1-.375-.375"/><path class="cls-1" d="M10.51,7.462a.375.375,0,0,1-.375.375"/></svg>