<svg xmlns="http://www.w3.org/2000/svg" viewBox="0 0 24 24"><defs><style>.a{fill:none;stroke:currentColor;stroke-linecap:round;stroke-linejoin:round;stroke-width:1.5px;}</style></defs><title>list-to-do</title><path class="a" d="M21.75,21.761a1.5,1.5,0,0,1-1.5,1.5H3.75a1.5,1.5,0,0,1-1.5-1.5V2.261a1.5,1.5,0,0,1,1.5-1.5H14.379a1.5,1.5,0,0,1,1.06.439l5.872,5.872a1.5,1.5,0,0,1,.439,1.06Z"/><path class="a" d="M21.75,8.261h-6a1.5,1.5,0,0,1-1.5-1.5v-6"/><path class="a" d="M9.669,9.619,7.537,12.461a.75.75,0,0,1-1.13.08L5.25,11.385"/><path class="a" d="M9.669,16.369,7.537,19.211a.75.75,0,0,1-1.13.08L5.25,18.134"/><line class="a" x1="12.75" y1="12.761" x2="17.25" y2="12.761"/><line class="a" x1="12.75" y1="18.761" x2="17.25" y2="18.761"/></svg>