<svg id="Regular" xmlns="http://www.w3.org/2000/svg" viewBox="0 0 24 24"><defs><style>.cls-1{fill:none;stroke:currentColor;stroke-linecap:round;stroke-linejoin:round;stroke-width:1.5px;}</style></defs><title>livestock-bull-footstep</title><path class="cls-1" d="M3.385,7.75a4.871,4.871,0,0,0,.972,2.838,4.691,4.691,0,0,1,1.045,2l.327,1.634a1.749,1.749,0,0,0,1.716,1.407h2.38a1.75,1.75,0,0,0,1.716-1.407l.327-1.634a4.691,4.691,0,0,1,1.045-2,4.871,4.871,0,0,0,.972-2.838"/><path class="cls-1" d="M3.385,7.75A2.571,2.571,0,0,1,.76,5.125a3.205,3.205,0,0,1,3.5-3.5A8.814,8.814,0,0,0,6.885.75s.875,3.5-1.75,4.375"/><path class="cls-1" d="M13.885,7.75A2.571,2.571,0,0,0,16.51,5.125a3.205,3.205,0,0,0-3.5-3.5A8.814,8.814,0,0,1,10.385.75s-.875,3.5,1.75,4.375"/><path class="cls-1" d="M6.519,4.067l.366.183a4.154,4.154,0,0,0,3.854-.2"/><path class="cls-1" d="M15.985,12.75s-3.675,2.625-3.675,5.775.84,4.725,2.52,4.725,1.68-3.15,1.68-5.775A21.663,21.663,0,0,0,15.985,12.75Z"/><path class="cls-1" d="M19.585,12.75s3.675,2.625,3.675,5.775-.84,4.725-2.52,4.725-1.68-3.15-1.68-5.775A21.663,21.663,0,0,1,19.585,12.75Z"/></svg>