<svg id="Regular" xmlns="http://www.w3.org/2000/svg" viewBox="0 0 24 24"><defs><style>.cls-1{fill:none;stroke:currentColor;stroke-linecap:round;stroke-linejoin:round;stroke-width:1.5px;}</style></defs><title>livestock-cow-body</title><path class="cls-1" d="M17.84,13.186h.72a1.819,1.819,0,0,0,1.776-1.424l1.011-4.548A1.82,1.82,0,0,0,19.571,5H16.83a1.82,1.82,0,0,0-1.776,2.214l1.011,4.548A1.819,1.819,0,0,0,17.84,13.186Z"/><path class="cls-1" d="M15.038,6.5H4.51C2.26,6.5.76,8.75.76,11V21.5"/><path class="cls-1" d="M20.5,5.255,21.01,5a1.642,1.642,0,0,0,.75-2.25"/><path class="cls-1" d="M16.081,5.16,15.76,5a1.642,1.642,0,0,1-.75-2.25"/><line class="cls-1" x1="16.51" y1="16.25" x2="16.51" y2="21.5"/><path class="cls-1" d="M13.51,21.5V17a1.5,1.5,0,0,0-1.5-1.5H5.26c-1.5,0-1.5,1.5-1.5,2.25V21.5"/><path class="cls-1" d="M9.76,15.5s-.75,3-3,3h-3"/><line class="cls-1" x1="6.76" y1="18.5" x2="6.76" y2="20"/><line class="cls-1" x1="8.83" y1="17.391" x2="9.76" y2="19.25"/><line class="cls-1" x1="15.054" y1="7.214" x2="13.51" y2="8.75"/><line class="cls-1" x1="21.391" y1="6.881" x2="23.26" y2="8.75"/></svg>