<svg id="Regular" xmlns="http://www.w3.org/2000/svg" viewBox="0 0 24 24"><defs><style>.cls-1,.cls-2{fill:none;stroke:currentColor;stroke-linecap:round;stroke-linejoin:round;stroke-width:1.5px;}.cls-2{fill-rule:evenodd;}</style></defs><title>livestock-ram-1</title><path class="cls-1" d="M9.052,8.506a3,3,0,0,1,3-3A3.755,3.755,0,0,1,15.81,9.257a4.693,4.693,0,0,1-4.693,4.693A5.867,5.867,0,0,1,5.25,8.083,7.333,7.333,0,0,1,12.583.75,9.167,9.167,0,0,1,21.75,9.917V21c0,2.25-3.277,2.816-5.25,1.5A13.427,13.427,0,0,1,12.75,18"/><path class="cls-2" d="M7.54,12.734l-.04.016S3.75,14.25,3,23.25"/><path class="cls-2" d="M21.75,9.917s-3.059,2.889-6.088.515"/><path class="cls-2" d="M18.375,15.75a.375.375,0,0,1,.375.375"/><path class="cls-2" d="M18,16.125a.375.375,0,0,1,.375-.375"/><path class="cls-2" d="M18.375,16.5A.375.375,0,0,1,18,16.125"/><path class="cls-2" d="M18.75,16.125a.375.375,0,0,1-.375.375"/></svg>