<svg id="Regular" xmlns="http://www.w3.org/2000/svg" viewBox="0 0 24 24"><defs><style>.cls-1,.cls-2{fill:none;stroke:currentColor;stroke-linecap:round;stroke-linejoin:round;stroke-width:1.5px;}.cls-2{fill-rule:evenodd;}</style></defs><title>livestock-lamb-1</title><ellipse class="cls-1" cx="12.01" cy="10.5" rx="4.5" ry="5.25"/><polyline class="cls-2" points="11.26 12.75 12.01 13.5 12.76 12.75"/><line class="cls-1" x1="12.01" y1="13.5" x2="12.01" y2="15.75"/><line class="cls-1" x1="7.562" y1="9.698" x2="5.26" y2="12"/><line class="cls-1" x1="16.458" y1="9.698" x2="18.76" y2="12"/><path class="cls-1" d="M10.135,9a.375.375,0,0,1,.375.375"/><path class="cls-1" d="M9.76,9.375A.375.375,0,0,1,10.135,9"/><path class="cls-1" d="M10.135,9.75a.375.375,0,0,1-.375-.375"/><path class="cls-1" d="M10.51,9.375a.375.375,0,0,1-.375.375"/><path class="cls-1" d="M13.885,9a.375.375,0,0,1,.375.375"/><path class="cls-1" d="M13.51,9.375A.375.375,0,0,1,13.885,9"/><path class="cls-1" d="M13.885,9.75a.375.375,0,0,1-.375-.375"/><path class="cls-1" d="M14.26,9.375a.375.375,0,0,1-.375.375"/><path class="cls-1" d="M22.51,10.5a5.239,5.239,0,0,0-2.389-4.394,2.956,2.956,0,0,0,.139-.856,3,3,0,0,0-3-3,2.968,2.968,0,0,0-1.315.316,5.171,5.171,0,0,0-7.87,0A2.968,2.968,0,0,0,6.76,2.25a3,3,0,0,0-3,3,2.956,2.956,0,0,0,.139.856,5.235,5.235,0,0,0,0,8.788,2.956,2.956,0,0,0-.139.856,3,3,0,0,0,3,3,2.968,2.968,0,0,0,1.315-.316,5.171,5.171,0,0,0,7.87,0,2.968,2.968,0,0,0,1.315.316,3,3,0,0,0,3-3,2.956,2.956,0,0,0-.139-.856A5.239,5.239,0,0,0,22.51,10.5Z"/><line class="cls-1" x1="7.51" y1="18.649" x2="7.51" y2="23.25"/><line class="cls-1" x1="16.51" y1="18.649" x2="16.51" y2="23.25"/></svg>