<svg id="Regular" xmlns="http://www.w3.org/2000/svg" viewBox="0 0 24 24"><defs><style>.cls-1{fill:none;stroke:currentColor;stroke-linecap:round;stroke-linejoin:round;stroke-width:1.5px;}</style></defs><title>livestock-cow</title><path class="cls-1" d="M7.532,2.776A6.177,6.177,0,0,0,4.956,5.844,5.46,5.46,0,0,0,2.38,6.75C.13,8.25.88,12,.88,12a8.231,8.231,0,0,0,2.157.085"/><line class="cls-1" x1="9.76" y1="18.75" x2="10.51" y2="19.5"/><line class="cls-1" x1="14.26" y1="18.75" x2="13.51" y2="19.5"/><path class="cls-1" d="M16.51,3c0-1.243-2.015-2.25-4.5-2.25S7.51,1.757,7.51,3c0,1.5,2.7.75,2.7.75a1.581,1.581,0,0,0,1.8,1.5,1.581,1.581,0,0,0,1.8-1.5S16.51,4.5,16.51,3Z"/><path class="cls-1" d="M6.5,3.562,5.38,3A5.6,5.6,0,0,1,3.13.75S1.63,3,2.38,4.5A5.119,5.119,0,0,0,3.688,6.107"/><path class="cls-1" d="M18.385,11.469c0,12.535-5.366,11.781-5.721,11.781H11.356C11,23.25,5.635,24,5.635,11.469"/><path class="cls-1" d="M16.488,2.776a6.177,6.177,0,0,1,2.576,3.068,5.46,5.46,0,0,1,2.576.906c2.25,1.5,1.5,5.25,1.5,5.25a8.231,8.231,0,0,1-2.157.085"/><path class="cls-1" d="M17.8,17.6l-.526-.351a10.023,10.023,0,0,0-10.534,0l-.526.351"/><path class="cls-1" d="M17.516,3.562,18.64,3A5.6,5.6,0,0,0,20.89.75s1.5,2.25.75,3.75a5.119,5.119,0,0,1-1.308,1.607"/><path class="cls-1" d="M8.635,8.25a.375.375,0,0,1,.375.375"/><path class="cls-1" d="M8.26,8.625a.375.375,0,0,1,.375-.375"/><path class="cls-1" d="M8.635,9a.375.375,0,0,1-.375-.375"/><path class="cls-1" d="M9.01,8.625A.375.375,0,0,1,8.635,9"/><path class="cls-1" d="M15.385,8.25a.375.375,0,0,1,.375.375"/><path class="cls-1" d="M15.01,8.625a.375.375,0,0,1,.375-.375"/><path class="cls-1" d="M15.385,9a.375.375,0,0,1-.375-.375"/><path class="cls-1" d="M15.76,8.625A.375.375,0,0,1,15.385,9"/></svg>