<svg id="Regular" xmlns="http://www.w3.org/2000/svg" viewBox="0 0 24 24"><defs><style>.cls-1{fill:none;stroke:currentColor;stroke-linecap:round;stroke-linejoin:round;stroke-width:1.5px;}</style></defs><title>livestock-ram-2</title><path class="cls-1" d="M18.724,10.548c0-2.476-3.01-4.483-6.724-4.483S5.276,8.072,5.276,10.548c0,7.472,2.241,12.7,6.724,12.7S18.724,18.02,18.724,10.548Z"/><path class="cls-1" d="M13.494,18.767a1.494,1.494,0,0,1-2.988,0"/><line class="cls-1" x1="12" y1="20.261" x2="12" y2="23.25"/><path class="cls-1" d="M5.276,10.548,1.54,12.79s.78,3.12,3.933,1.39"/><path class="cls-1" d="M18.724,10.548,22.46,12.79s-.78,3.12-3.933,1.39"/><path class="cls-1" d="M8.638,12.788a.375.375,0,0,1,.375.375"/><path class="cls-1" d="M8.263,13.163a.375.375,0,0,1,.375-.375"/><path class="cls-1" d="M8.638,13.538a.375.375,0,0,1-.375-.375"/><path class="cls-1" d="M9.013,13.163a.375.375,0,0,1-.375.375"/><path class="cls-1" d="M15.362,12.788a.375.375,0,0,1,.375.375"/><path class="cls-1" d="M14.987,13.163a.375.375,0,0,1,.375-.375"/><path class="cls-1" d="M15.362,13.538a.375.375,0,0,1-.375-.375"/><path class="cls-1" d="M15.737,13.163a.375.375,0,0,1-.375.375"/><path class="cls-1" d="M13.468,6.172l.026-.107A7.5,7.5,0,0,1,17.23,1.582,9.7,9.7,0,0,1,22.46.835a27.012,27.012,0,0,0-2.988,3.736c-1.709,2.563-1.5,3.736-1.5,3.736l.045.244"/><path class="cls-1" d="M10.532,6.172l-.026-.107A7.5,7.5,0,0,0,6.77,1.582,9.7,9.7,0,0,0,1.54.835,27.012,27.012,0,0,1,4.528,4.571c1.709,2.563,1.5,3.736,1.5,3.736l-.045.244"/></svg>