<svg id="Regular" xmlns="http://www.w3.org/2000/svg" viewBox="0 0 24 24"><defs><style>.cls-1{fill:none;stroke:currentColor;stroke-linecap:round;stroke-linejoin:round;stroke-width:1.5px;}</style></defs><title>livestock-lamb</title><path class="cls-1" d="M11.26,8.55c0,2.651,2.35,7.2,5.25,7.2s5.25-4.549,5.25-7.2a5.04,5.04,0,0,0-5.25-4.8A5.04,5.04,0,0,0,11.26,8.55Z"/><path class="cls-1" d="M11.665,2.682a4.394,4.394,0,0,0-1.9-.432A4.469,4.469,0,0,0,6.315,3.887,4.478,4.478,0,0,0,1.928,11.25a4.471,4.471,0,0,0,4.387,7.363,4.443,4.443,0,0,0,6.89,0,4.379,4.379,0,0,0,3.248-.433"/><line class="cls-1" x1="3.76" y1="18.494" x2="3.76" y2="21.75"/><line class="cls-1" x1="6.76" y1="19.079" x2="6.76" y2="21.75"/><line class="cls-1" x1="12.76" y1="19.079" x2="12.76" y2="21.75"/><line class="cls-1" x1="15.76" y1="18.494" x2="15.76" y2="21.75"/><path class="cls-1" d="M14.635,9a.375.375,0,0,1,.375.375"/><path class="cls-1" d="M14.26,9.375A.375.375,0,0,1,14.635,9"/><path class="cls-1" d="M14.635,9.75a.375.375,0,0,1-.375-.375"/><path class="cls-1" d="M15.01,9.375a.375.375,0,0,1-.375.375"/><path class="cls-1" d="M18.385,9a.375.375,0,0,1,.375.375"/><path class="cls-1" d="M18.01,9.375A.375.375,0,0,1,18.385,9"/><path class="cls-1" d="M18.385,9.75a.375.375,0,0,1-.375-.375"/><path class="cls-1" d="M18.76,9.375a.375.375,0,0,1-.375.375"/><line class="cls-1" x1="11.271" y1="8.233" x2="9.76" y2="10.5"/><line class="cls-1" x1="21.749" y1="8.233" x2="23.26" y2="10.5"/></svg>