<svg id="Regular" xmlns="http://www.w3.org/2000/svg" viewBox="0 0 24 24"><defs><style>.cls-1{fill:none;stroke:currentColor;stroke-linecap:round;stroke-linejoin:round;stroke-width:1.5px;}</style></defs><title>livestock-sheep</title><path class="cls-1" d="M18.752,8.916c0,10.5-3.022,12.834-6.75,12.834s-6.75-2.334-6.75-12.834c0-4.142,3.022-7.5,6.75-7.5S18.752,4.774,18.752,8.916Z"/><path class="cls-1" d="M13.5,15.75a1.5,1.5,0,0,1-3,0"/><line class="cls-1" x1="12.002" y1="17.25" x2="12.002" y2="21.75"/><path class="cls-1" d="M8.627,9.666A.375.375,0,0,1,9,10.041"/><path class="cls-1" d="M8.252,10.041a.375.375,0,0,1,.375-.375"/><path class="cls-1" d="M8.627,10.416a.375.375,0,0,1-.375-.375"/><path class="cls-1" d="M9,10.041a.375.375,0,0,1-.375.375"/><path class="cls-1" d="M15.377,9.666a.375.375,0,0,1,.375.375"/><path class="cls-1" d="M15,10.041a.375.375,0,0,1,.375-.375"/><path class="cls-1" d="M15.377,10.416A.375.375,0,0,1,15,10.041"/><path class="cls-1" d="M15.752,10.041a.375.375,0,0,1-.375.375"/><path class="cls-1" d="M18.376,6.44l3.155,1.893a1.5,1.5,0,0,1,.641,1.791c-.467,1.3-1.506,3.121-3.569,2.5"/><path class="cls-1" d="M5.629,6.44,2.473,8.333a1.5,1.5,0,0,0-.641,1.791c.468,1.3,1.506,3.121,3.57,2.5"/></svg>