<svg id="Regular" xmlns="http://www.w3.org/2000/svg" viewBox="0 0 24 24"><defs><style>.cls-1{fill:none;stroke:currentColor;stroke-linecap:round;stroke-linejoin:round;stroke-width:1.5px;}</style></defs><title>livestock-sheep-body</title><ellipse class="cls-1" cx="17.76" cy="5" rx="3" ry="3.75"/><path class="cls-1" d="M15.01,3.5A3.448,3.448,0,0,1,12.51,5"/><path class="cls-1" d="M20.51,3.5A3.448,3.448,0,0,0,23.01,5"/><path class="cls-1" d="M18.921,8.459c.844.611,1.839,2.142,1.839,5.166a6.2,6.2,0,0,1-6,6.375,5.735,5.735,0,0,1-3.75-1.435A5.735,5.735,0,0,1,7.26,20a6.2,6.2,0,0,1-6-6.375,6.2,6.2,0,0,1,6-6.375,5.735,5.735,0,0,1,3.75,1.435"/><line class="cls-1" x1="17.01" y1="19.537" x2="17.01" y2="23"/><line class="cls-1" x1="13.26" y1="19.791" x2="13.26" y2="23"/><line class="cls-1" x1="4.26" y1="19.147" x2="4.26" y2="23"/></svg>