<svg xmlns="http://www.w3.org/2000/svg" viewBox="0 0 24 24"><defs><style>.a{fill:none;stroke:currentColor;stroke-linecap:round;stroke-linejoin:round;stroke-width:1.5px;}</style></defs><title>locker-room-wash-hands-1</title><path class="a" d="M12.75,11.25h7.5a1.5,1.5,0,0,1,0,3"/><path class="a" d="M15,11.25a1.5,1.5,0,0,0,0-3H9.158a4.5,4.5,0,0,0-3.744,2L4.2,12.082a1.5,1.5,0,0,1-1.248.668H.75"/><path class="a" d="M16.5,14.25h5.25a1.5,1.5,0,0,1,0,3H16.5"/><path class="a" d="M21,17.25a1.5,1.5,0,0,1,0,3H18.75"/><path class="a" d="M15.75,20.25h3a1.5,1.5,0,0,1,0,3H7.062a4.493,4.493,0,0,1-2.012-.475l-1.733-.866a1.492,1.492,0,0,0-.671-.159H.75"/><line class="a" x1="9" y1="0.75" x2="8.679" y2="2.215"/><line class="a" x1="8.036" y1="5.146" x2="7.867" y2="5.916"/><line class="a" x1="5.25" y1="0.75" x2="4.607" y2="2.105"/><line class="a" x1="3.321" y1="4.816" x2="2.679" y2="6.171"/><line class="a" x1="1.393" y1="8.882" x2="0.75" y2="10.237"/><line class="a" x1="13.5" y1="0.75" x2="13.821" y2="2.215"/><line class="a" x1="14.464" y1="5.146" x2="14.668" y2="6.073"/><line class="a" x1="17.25" y1="0.75" x2="17.893" y2="2.105"/><line class="a" x1="19.179" y1="4.816" x2="19.821" y2="6.171"/><line class="a" x1="21.107" y1="8.882" x2="21.353" y2="9.401"/></svg>