<svg xmlns="http://www.w3.org/2000/svg" viewBox="0 0 24 24"><defs><style>.a{fill:none;stroke:currentColor;stroke-linecap:round;stroke-linejoin:round;stroke-width:1.5px;}</style></defs><title>locker-room-wash-hands</title><path class="a" d="M12.75,11.071h7.5a1.5,1.5,0,0,1,0,3"/><path class="a" d="M15,11.071a1.5,1.5,0,0,0,0-3H9.158a4.5,4.5,0,0,0-3.744,2L4.2,11.9a1.5,1.5,0,0,1-1.248.668H.75"/><path class="a" d="M16.5,14.071h5.25a1.5,1.5,0,0,1,0,3H16.5"/><path class="a" d="M21,17.071a1.5,1.5,0,0,1,0,3H18.75"/><path class="a" d="M15.75,20.071h3a1.5,1.5,0,0,1,0,3H7.062A4.506,4.506,0,0,1,5.05,22.6l-1.733-.867a1.5,1.5,0,0,0-.671-.158H.75"/><path class="a" d="M12.75.946a.375.375,0,1,1-.375.375A.375.375,0,0,1,12.75.946"/><path class="a" d="M12.75,4.7a.375.375,0,1,1-.375.375A.375.375,0,0,1,12.75,4.7"/><path class="a" d="M16.5.946a.375.375,0,1,1-.375.375A.375.375,0,0,1,16.5.946"/><path class="a" d="M18.75,4.7a.375.375,0,1,1-.375.375A.375.375,0,0,1,18.75,4.7"/><path class="a" d="M21,8.446a.375.375,0,1,1-.375.375A.375.375,0,0,1,21,8.446"/><path class="a" d="M9,.946a.375.375,0,1,1-.375.375A.375.375,0,0,1,9,.946"/><path class="a" d="M6.75,4.7a.375.375,0,1,1-.375.375A.375.375,0,0,1,6.75,4.7"/></svg>