<svg xmlns="http://www.w3.org/2000/svg" viewBox="0 0 24 24"><defs><style>.a{fill:none;stroke:currentColor;stroke-linecap:round;stroke-linejoin:round;stroke-width:1.5px;}</style></defs><title>locker-room-hanger-man</title><circle class="a" cx="19.5" cy="3.75" r="2.625"/><path class="a" d="M17.25,21a2.25,2.25,0,0,0,4.5,0V17.25a1.5,1.5,0,0,0,1.5-1.5v-4.5a3,3,0,0,0-3-3h-1.5a3,3,0,0,0-3,3v4.5a1.5,1.5,0,0,0,1.5,1.5Z"/><path class="a" d="M6.75,2.25a1.5,1.5,0,1,1,1.5,1.5v1.5"/><polyline class="a" points="11.25 11.25 0.75 11.25 0.75 9.75 8.25 5.25 12.75 7.5"/></svg>