<svg xmlns="http://www.w3.org/2000/svg" viewBox="0 0 24 24"><defs><style>.a{fill:none;stroke:currentColor;stroke-linecap:round;stroke-linejoin:round;stroke-width:1.5px;}</style></defs><title>locker-room-suitcase-umbrella</title><rect class="a" x="6.75" y="12.75" width="16.5" height="10.5" rx="1" ry="1"/><line class="a" x1="11.25" y1="12.75" x2="11.25" y2="23.25"/><line class="a" x1="18.75" y1="12.75" x2="18.75" y2="23.25"/><path class="a" d="M12,12.75a3,3,0,0,1,6,0"/><path class="a" d="M16.014,6.831,15.75,5.25l1.366.456a2.254,2.254,0,0,0,1.718-.123L19.5,5.25l.666.333a2.254,2.254,0,0,0,1.718.123L23.25,5.25l-.75,4.5"/><path class="a" d="M16.5,2.25a1.5,1.5,0,0,1,3,0v3"/><circle class="a" cx="6" cy="6" r="5.25"/><path class="a" d="M4.359,5.016A1.641,1.641,0,1,1,6,6.657"/><path class="a" d="M6,8.578a.375.375,0,1,1-.375.375A.375.375,0,0,1,6,8.578"/></svg>