<svg xmlns="http://www.w3.org/2000/svg" viewBox="0 0 24 24"><defs><style>.a{fill:none;stroke:currentColor;stroke-linecap:round;stroke-linejoin:round;stroke-width:1.5px;}</style></defs><title>love-gift-diamond</title><polygon class="a" points="12.5 3 4.25 7.5 4.25 17.25 12.5 21.75 20.75 17.25 20.75 7.5 12.5 3"/><polygon class="a" points="12.5 7.5 8 9.75 8 15 12.5 17.25 17 15 17 9.75 12.5 7.5"/><line class="a" x1="12.5" y1="7.5" x2="12.5" y2="3"/><line class="a" x1="12.5" y1="17.25" x2="12.5" y2="21.75"/><line class="a" x1="17" y1="15" x2="20.75" y2="17.25"/><line class="a" x1="17" y1="9.75" x2="20.75" y2="7.5"/><line class="a" x1="8" y1="9.75" x2="4.25" y2="7.5"/><line class="a" x1="8" y1="15" x2="4.25" y2="17.25"/><line class="a" x1="3.5" y1="0.75" x2="3.5" y2="5.25"/><line class="a" x1="1.25" y1="3" x2="5.75" y2="3"/><line class="a" x1="21.5" y1="20.25" x2="21.5" y2="23.25"/><line class="a" x1="20" y1="21.75" x2="23" y2="21.75"/></svg>