<svg xmlns="http://www.w3.org/2000/svg" viewBox="0 0 24 24"><defs><style>.a{fill:none;stroke:currentColor;stroke-linecap:round;stroke-linejoin:round;stroke-width:1.5px;}</style></defs><title>love-heart-balloons</title><path class="a" d="M8.69,11.62a1.5,1.5,0,0,1-2.166,0L1.763,6.653a3.457,3.457,0,0,1-.648-3.991h0a3.459,3.459,0,0,1,5.538-.9l.954.955.955-.955a3.458,3.458,0,0,1,5.537.9h0a3.457,3.457,0,0,1-.647,3.991Z"/><path class="a" d="M14.4,3.558a2.823,2.823,0,0,1,3.29.986l.588.875.876-.589a2.566,2.566,0,0,1,3.96,1.521h0a2.7,2.7,0,0,1-1.1,2.963l-3.967,2.9a1.5,1.5,0,0,1-2.126-.417l-1.222-1.9"/><path class="a" d="M16.9,12.455C12.71,15.719,12,19.717,12,23.25h0l-1.722-1.339a8.479,8.479,0,0,1-2.671-9.829h0"/></svg>