<svg xmlns="http://www.w3.org/2000/svg" viewBox="0 0 24 24"><defs><style>.a{fill:none;stroke:currentColor;stroke-linecap:round;stroke-linejoin:round;stroke-width:1.5px;}</style></defs><title>love-gift-couple-box</title><path class="a" d="M21.75,9.75H2.25v12a1.5,1.5,0,0,0,1.5,1.5h16.5a1.5,1.5,0,0,0,1.5-1.5Z"/><path class="a" d="M21.75,5.25H2.25a1.5,1.5,0,0,0-1.5,1.5v3h22.5v-3A1.5,1.5,0,0,0,21.75,5.25Z"/><rect class="a" x="9.75" y="5.25" width="4.5" height="4.5"/><line class="a" x1="12" y1="5.25" x2="7.5" y2="0.75"/><line class="a" x1="12" y1="5.25" x2="16.5" y2="0.75"/><circle class="a" cx="8.25" cy="16.125" r="2.625"/><path class="a" d="M12,23.25a3.75,3.75,0,0,0-7.5,0"/><circle class="a" cx="15.75" cy="16.125" r="2.625"/><path class="a" d="M19.5,23.25a3.75,3.75,0,0,0-7.5,0"/></svg>