<svg xmlns="http://www.w3.org/2000/svg" viewBox="0 0 24 24"><defs><style>.a{fill:none;stroke:currentColor;stroke-linecap:round;stroke-linejoin:round;stroke-width:1.5px;}</style></defs><title>love-potion</title><path class="a" d="M15.93,11.839a1.9,1.9,0,0,0-2.751,0L12,13.058l-1.179-1.219a1.9,1.9,0,0,0-2.751,0,2.06,2.06,0,0,0,0,2.845l3.511,3.631a.579.579,0,0,0,.838,0l3.511-3.631A2.06,2.06,0,0,0,15.93,11.839Z"/><path class="a" d="M9,.75V5.773a9,9,0,1,0,6,0V.75"/><line class="a" x1="6.75" y1="0.75" x2="17.25" y2="0.75"/></svg>