<svg xmlns="http://www.w3.org/2000/svg" viewBox="0 0 24 24"><defs><style>.a{fill:none;stroke:currentColor;stroke-linecap:round;stroke-linejoin:round;stroke-width:1.5px;}</style></defs><title>love-boat</title><line class="a" x1="0.75" y1="10.5" x2="0.75" y2="23.25"/><circle class="a" cx="6" cy="14.25" r="2.25"/><line class="a" x1="23.25" y1="14.25" x2="23.25" y2="23.25"/><line class="a" x1="23.25" y1="19.5" x2="0.75" y2="19.5"/><path class="a" d="M11.25,16.5V12.961a.749.749,0,0,1,.932-.728L18.067,13.7a2.883,2.883,0,0,1,2.183,2.8Z"/><path class="a" d="M23.191,6.266a1.9,1.9,0,0,0-2.381-1.38l-1.631.464L18.77,3.705a1.9,1.9,0,0,0-2.381-1.38,2.061,2.061,0,0,0-1.426,2.462l1.218,4.9a.579.579,0,0,0,.725.419l4.859-1.381A2.061,2.061,0,0,0,23.191,6.266Z"/><path class="a" d="M10.313,1.058a1.9,1.9,0,0,0-2.678.632L6.768,3.148,5.34,2.232a1.9,1.9,0,0,0-2.677.633,2.059,2.059,0,0,0,.654,2.768L7.569,8.36a.579.579,0,0,0,.815-.193l2.582-4.341A2.059,2.059,0,0,0,10.313,1.058Z"/></svg>