<svg xmlns="http://www.w3.org/2000/svg" viewBox="0 0 24 24"><defs><style>.a{fill:none;stroke:currentColor;stroke-linecap:round;stroke-linejoin:round;stroke-width:1.5px;}</style></defs><title>love-song</title><circle class="a" cx="21" cy="18" r="2.25"/><circle class="a" cx="10.5" cy="21" r="2.25"/><path class="a" d="M12.75,21V11.4a2.068,2.068,0,0,1,1.415-1.962L20.527,7.71A2.068,2.068,0,0,1,23.25,9.672V18"/><path class="a" d="M5.872,8.254a1.9,1.9,0,0,0-1.79,2.089l.159,1.689-1.693.1a1.9,1.9,0,0,0-1.789,2.09,2.06,2.06,0,0,0,2.161,1.85l5.041-.305a.579.579,0,0,0,.545-.636L8.032,10.1A2.06,2.06,0,0,0,5.872,8.254Z"/><path class="a" d="M15.6,2.475a1.626,1.626,0,0,0-2.3-.507l-1.21.8-.761-1.236a1.628,1.628,0,0,0-2.3-.507,1.765,1.765,0,0,0-.524,2.379l2.268,3.682a.5.5,0,0,0,.7.154l3.6-2.389A1.763,1.763,0,0,0,15.6,2.475Z"/></svg>