<svg xmlns="http://www.w3.org/2000/svg" viewBox="0 0 24 24"><defs><style>.a{fill:none;stroke:currentColor;stroke-linecap:round;stroke-linejoin:round;stroke-width:1.5px;}</style></defs><title>love-plant</title><path class="a" d="M13.74,1.535a2.534,2.534,0,0,0-3.668,0L8.5,3.16,6.928,1.535a2.534,2.534,0,0,0-3.668,0,2.747,2.747,0,0,0,0,3.793l4.682,4.933a.77.77,0,0,0,1.116,0L13.74,5.328A2.747,2.747,0,0,0,13.74,1.535Z"/><path class="a" d="M3.1,23.25l-.518-2.282a.626.626,0,0,1,.668-.718h10.5a.626.626,0,0,1,.668.718L13.9,23.25"/><line class="a" x1="8.5" y1="10.5" x2="8.5" y2="20.25"/><path class="a" d="M21.246,13.352a1.9,1.9,0,0,0-2.1-1.783l-1.688.165-.108-1.692a1.9,1.9,0,0,0-2.1-1.783,2.061,2.061,0,0,0-1.843,2.167l.323,5.041a.579.579,0,0,0,.638.543l5.027-.491A2.061,2.061,0,0,0,21.246,13.352Z"/><path class="a" d="M13.846,15.771A6.592,6.592,0,0,1,8.5,18"/></svg>