<svg xmlns="http://www.w3.org/2000/svg" viewBox="0 0 24 24"><defs><style>.a{fill:none;stroke:currentColor;stroke-linecap:round;stroke-linejoin:round;stroke-width:1.5px;}</style></defs><title>love-gift-box-heart</title><path class="a" d="M21.365,6.8a3.643,3.643,0,0,1-1.055,4.5l-7.432,5.366a1.5,1.5,0,0,1-1.756,0L3.69,11.3a3.6,3.6,0,0,1-.921-4.719h0A5.143,5.143,0,0,1,6.75,4.564"/><path class="a" d="M2.25,8.3v6.478A3.3,3.3,0,0,0,3.689,17.3l7.432,5.366a1.5,1.5,0,0,0,1.756,0L20.309,17.3a3.3,3.3,0,0,0,1.439-2.522V8.3"/><path class="a" d="M19.591,4.641c-.879.879-4.773,1.591-4.773,1.591s.712-3.894,1.591-4.773a2.25,2.25,0,0,1,3.182,3.182Z"/><path class="a" d="M10.045,4.641c.879.879,4.773,1.591,4.773,1.591s-.712-3.894-1.591-4.773a2.25,2.25,0,0,0-3.182,3.182Z"/><line class="a" x1="14.818" y1="6.232" x2="11.818" y2="9.232"/><line class="a" x1="14.818" y1="6.232" x2="17.818" y2="9.232"/></svg>