<svg xmlns="http://www.w3.org/2000/svg" viewBox="0 0 24 24"><defs><style>.a{fill:none;stroke:currentColor;stroke-linecap:round;stroke-linejoin:round;stroke-width:1.5px;}</style></defs><title>love-candle</title><path class="a" d="M14.25,23.25H6V12a1.5,1.5,0,0,1,1.5-1.5h5.25a1.5,1.5,0,0,1,1.5,1.5Z"/><path class="a" d="M18,18.75h.75a2.25,2.25,0,0,1,0,4.5H3"/><path class="a" d="M14.43,1.339a1.9,1.9,0,0,0-2.751,0L10.5,2.558,9.321,1.339a1.9,1.9,0,0,0-2.751,0,2.06,2.06,0,0,0,0,2.845l3.511,3.631a.579.579,0,0,0,.838,0L14.43,4.184A2.06,2.06,0,0,0,14.43,1.339Z"/></svg>