<svg xmlns="http://www.w3.org/2000/svg" viewBox="0 0 24 24"><defs><style>.a{fill:none;stroke:currentColor;stroke-linecap:round;stroke-linejoin:round;stroke-width:1.5px;}</style></defs><title>love-heart-hands-hold-3</title><path class="a" d="M13.068,12.418a1.5,1.5,0,0,1-2.136,0l-5.324-5.4A3.6,3.6,0,0,1,4.9,2.781h0a3.842,3.842,0,0,1,6.057-.954L12,2.841l1.044-1.014a3.842,3.842,0,0,1,6.057.954h0a3.6,3.6,0,0,1-.709,4.241Z"/><path class="a" d="M3.75,23.25,1.736,20.869A4.5,4.5,0,0,1,.75,18.058V12.886a1.5,1.5,0,0,1,1.5-1.5h0a1.5,1.5,0,0,1,1.5,1.5v3.75"/><path class="a" d="M8.25,23.25v-3a4.5,4.5,0,0,0-.757-2.5L6.351,16.04A1.4,1.4,0,0,0,4.374,15.6h0A1.4,1.4,0,0,0,3.9,17.386l1.352,2.25"/><path class="a" d="M20.25,23.25l2.014-2.381a4.5,4.5,0,0,0,.986-2.811V12.886a1.5,1.5,0,0,0-1.5-1.5h0a1.5,1.5,0,0,0-1.5,1.5v3.75"/><path class="a" d="M15.75,23.25v-3a4.5,4.5,0,0,1,.757-2.5l1.142-1.712a1.4,1.4,0,0,1,1.977-.445h0a1.4,1.4,0,0,1,.476,1.791l-1.352,2.25"/></svg>