<svg xmlns="http://www.w3.org/2000/svg" viewBox="0 0 24 24"><defs><style>.a{fill:none;stroke:currentColor;stroke-linecap:round;stroke-linejoin:round;stroke-width:1.5px;}</style></defs><title>love-heart-ranking</title><path class="a" d="M17.29,1.543a2.559,2.559,0,0,0-3.7,0L12,3.184,10.413,1.543a2.559,2.559,0,0,0-3.7,0,2.774,2.774,0,0,0,0,3.829l4.726,4.887a.78.78,0,0,0,1.127,0L17.29,5.372A2.774,2.774,0,0,0,17.29,1.543Z"/><path class="a" d="M.75,23.25v-4.5A.75.75,0,0,1,1.5,18h6"/><path class="a" d="M23.25,23.25v-4.5A.75.75,0,0,0,22.5,18h-6"/><path class="a" d="M7.5,23.25v-9a.75.75,0,0,1,.75-.75h7.5a.75.75,0,0,1,.75.75v9"/></svg>