<svg xmlns="http://www.w3.org/2000/svg" viewBox="0 0 24 24"><defs><style>.a{fill:none;stroke:currentColor;stroke-linecap:round;stroke-linejoin:round;stroke-width:1.5px;}</style></defs><title>love-heart-arrow</title><path class="a" d="M20.713,15.459l1.447-1.446a3.736,3.736,0,1,0-5.284-5.284l-2.264,2.264L12.348,8.729a3.736,3.736,0,0,0-5.284,5.284l6.744,6.744a1.139,1.139,0,0,0,1.608,0l.829-.829"/><line class="a" x1="16.317" y1="16.313" x2="23.254" y2="23.25"/><line class="a" x1="6.218" y1="6.192" x2="8.033" y2="8.029"/><polyline class="a" points="19.18 23.25 23.254 23.25 23.254 19.176"/><path class="a" d="M6.386,2.224a1.379,1.379,0,0,1,.377,1.245L6.218,6.192,3.5,6.737A1.379,1.379,0,0,1,2.25,6.36l-1.3-1.3a.69.69,0,0,1,.09-1.051L3.13,3.083l.907-2.041A.69.69,0,0,1,5.088.952Z"/></svg>