<svg xmlns="http://www.w3.org/2000/svg" viewBox="0 0 24 24"><defs><style>.a{fill:none;stroke:currentColor;stroke-linecap:round;stroke-linejoin:round;stroke-width:1.5px;}</style></defs><title>love-fire</title><path class="a" d="M17.411,23.132A11.429,11.429,0,0,0,22.5,13.489a11.758,11.758,0,0,0-1.883-6.43l-3,3.526A15.318,15.318,0,0,1,17.6,1.718a.749.749,0,0,0-.832-.959A13.421,13.421,0,0,0,6.886,8.107L4.5,5.616a11.635,11.635,0,0,0-3,7.873,11.429,11.429,0,0,0,5.089,9.643"/><path class="a" d="M12,23.25,6.78,17.915A2.98,2.98,0,0,1,6.2,14.423h0a3.123,3.123,0,0,1,4.947-.786l.852.835.853-.835a3.122,3.122,0,0,1,4.946.786h0a2.98,2.98,0,0,1-.579,3.492Z"/></svg>