<svg xmlns="http://www.w3.org/2000/svg" viewBox="0 0 24 24"><defs><style>.a{fill:none;stroke:currentColor;stroke-linecap:round;stroke-linejoin:round;stroke-width:1.5px;}</style></defs><title>love-lollipop</title><path class="a" d="M23.25,13.5A5.25,5.25,0,0,0,18,8.25H15.75V6A5.25,5.25,0,0,0,5.25,6V17.25a1.5,1.5,0,0,0,1.5,1.5H18A5.25,5.25,0,0,0,23.25,13.5Z"/><path class="a" d="M15,11.25H12.75V9a2.25,2.25,0,0,0-4.5,0v5.25a1.5,1.5,0,0,0,1.5,1.5H15a2.25,2.25,0,0,0,0-4.5Z"/><line class="a" x1="0.75" y1="23.25" x2="5.689" y2="18.311"/></svg>