<svg xmlns="http://www.w3.org/2000/svg" viewBox="0 0 24 24"><defs><style>.a{fill:none;stroke:currentColor;stroke-linecap:round;stroke-linejoin:round;stroke-width:1.5px;}</style></defs><title>love-whale</title><path class="a" d="M17.844.936a1.576,1.576,0,0,0-2.168.715l-.612,1.267-1.246-.655a1.578,1.578,0,0,0-2.168.715,1.709,1.709,0,0,0,.739,2.242L16.1,7.169a.48.48,0,0,0,.66-.218l1.824-3.773A1.71,1.71,0,0,0,17.844.936Z"/><path class="a" d="M2.437,16.5a2.857,2.857,0,0,1-1.5-3.75c1.569,1.1,3.351.9,5.25,0,.483,2.2-.249,3.224-1.5,3.75v.926a2.143,2.143,0,0,0,1.185,1.916h0a2.148,2.148,0,0,0,2.838-.885c1.946-3.544,2.861-6.156,6.1-7.9a5.835,5.835,0,0,1,6.934.883A5.152,5.152,0,0,1,23.25,15v3A5.265,5.265,0,0,1,18,23.25H8.812C.937,23.25,2.437,16.5,2.437,16.5Z"/><path class="a" d="M19.5,14.625a.375.375,0,0,1,.375.375"/><path class="a" d="M19.125,15a.375.375,0,0,1,.375-.375"/><path class="a" d="M19.5,15.375A.375.375,0,0,1,19.125,15"/><path class="a" d="M19.875,15a.375.375,0,0,1-.375.375"/><path class="a" d="M22.74,20.25h-.369a5.122,5.122,0,0,1-3.621-1.5h0"/></svg>