<svg xmlns="http://www.w3.org/2000/svg" viewBox="0 0 24 24"><defs><style>.a{fill:none;stroke:currentColor;stroke-linecap:round;stroke-linejoin:round;stroke-width:1.5px;}</style></defs><title>love-heart-hold</title><path class="a" d="M6.989,11.386l-1.8-1.9a5.275,5.275,0,0,1-.921-5.907h0A4.816,4.816,0,0,1,12.143,2.25L13.5,3.662,14.857,2.25a4.816,4.816,0,0,1,7.874,1.329h0a5.275,5.275,0,0,1-.921,5.907L13.5,18l-2.079-2.131"/><path class="a" d="M7.5,15l1.673-1.255a1.569,1.569,0,0,1,2.247.385h0a1.569,1.569,0,0,1,0,1.74L9.775,18.337A4.5,4.5,0,0,1,7.7,20.019L5.25,21v2.25"/><path class="a" d="M6.263,10.619C-.314,13.438.75,19.486.75,23.25"/></svg>