<svg xmlns="http://www.w3.org/2000/svg" viewBox="0 0 24 24"><defs><style>.a{fill:none;stroke:currentColor;stroke-linecap:round;stroke-linejoin:round;stroke-width:1.5px;}</style></defs><title>love-heart-key</title><path class="a" d="M10.775,14.6a1.583,1.583,0,0,0-2.293,0L7.5,15.61,6.518,14.6a1.583,1.583,0,0,0-2.293,0,1.716,1.716,0,0,0,0,2.37l2.926,3.026a.483.483,0,0,0,.7,0l2.926-3.026A1.716,1.716,0,0,0,10.775,14.6Z"/><line class="a" x1="20.414" y1="3.671" x2="9.783" y2="14.111"/><line class="a" x1="19.5" y1="12.75" x2="20.553" y2="13.784"/><line class="a" x1="22.197" y1="10.216" x2="23.25" y2="11.25"/><line class="a" x1="16.576" y1="15.28" x2="17.629" y2="16.315"/><path class="a" d="M13.813,14.673l8.455-8.3a3.25,3.25,0,0,0,0-4.655,3.4,3.4,0,0,0-4.74,0L8.849,10.237a6.77,6.77,0,0,0-6.135,1.774,6.5,6.5,0,0,0,0,9.311,6.79,6.79,0,0,0,9.48,0A6.475,6.475,0,0,0,13.813,14.673Z"/></svg>