<svg xmlns="http://www.w3.org/2000/svg" viewBox="0 0 24 24"><defs><style>.a{fill:none;stroke:currentColor;stroke-linecap:round;stroke-linejoin:round;stroke-width:1.5px;}</style></defs><title>love-gift-diamond-1</title><polygon class="a" points="9 4 5.25 7.75 5.25 18.25 9 22 15 22 18.75 18.25 18.75 7.75 15 4 9 4"/><polygon class="a" points="10.5 7.75 9 9.25 9 16.75 10.5 18.25 13.5 18.25 15 16.75 15 9.25 13.5 7.75 10.5 7.75"/><line class="a" x1="10.5" y1="18.25" x2="9" y2="22"/><line class="a" x1="13.5" y1="18.25" x2="15" y2="22"/><line class="a" x1="15" y1="16.75" x2="18.75" y2="18.25"/><line class="a" x1="15" y1="9.25" x2="18.75" y2="7.75"/><line class="a" x1="15" y1="4" x2="13.5" y2="7.75"/><line class="a" x1="9" y1="4" x2="10.5" y2="7.75"/><line class="a" x1="5.25" y1="7.75" x2="9" y2="9.25"/><line class="a" x1="9" y1="16.75" x2="5.25" y2="18.25"/><line class="a" x1="3" y1="1" x2="3" y2="5.5"/><line class="a" x1="0.75" y1="3.25" x2="5.25" y2="3.25"/><line class="a" x1="21.75" y1="22.75" x2="21.75" y2="19.75"/><line class="a" x1="20.25" y1="21.25" x2="23.25" y2="21.25"/></svg>