<svg xmlns="http://www.w3.org/2000/svg" viewBox="0 0 24 24"><defs><style>.a{fill:none;stroke:currentColor;stroke-linecap:round;stroke-linejoin:round;stroke-width:1.5px;}</style></defs><title>love-plant-pot</title><path class="a" d="M14.612,23.25h-5.7a.665.665,0,0,1-.668-.482l-1.091-4.8a.627.627,0,0,1,.669-.718H15.7a.627.627,0,0,1,.669.718l-1.091,4.8A.665.665,0,0,1,14.612,23.25Z"/><line class="a" x1="11.643" y1="12" x2="11.643" y2="17.25"/><path class="a" d="M12.726,11.538a1.5,1.5,0,0,1-2.166,0L5.8,6.653a3.456,3.456,0,0,1-.648-3.991h0a3.458,3.458,0,0,1,5.538-.9l.954.955.954-.955a3.458,3.458,0,0,1,5.538.9h0a3.457,3.457,0,0,1-.648,3.991Z"/><line class="a" x1="11.643" y1="17.25" x2="15.393" y2="14.25"/><line class="a" x1="11.643" y1="17.25" x2="7.893" y2="14.25"/></svg>