<svg xmlns="http://www.w3.org/2000/svg" viewBox="0 0 24 24"><defs><style>.a{fill:none;stroke:currentColor;stroke-linecap:round;stroke-linejoin:round;stroke-width:1.5px;}</style></defs><title>love-heart-balloon</title><path class="a" d="M12.03,13.5,5.638,7.207a3.783,3.783,0,0,1-.709-4.366h0a3.782,3.782,0,0,1,6.057-.983L12.03,2.9l1.044-1.044a3.782,3.782,0,0,1,6.057.983h0a3.784,3.784,0,0,1-.709,4.366Z"/><path class="a" d="M12.03,13.49S7.5,16.678,6.374,16.937a2.095,2.095,0,1,1-.937-4.083C6.564,12.6,12.03,13.49,12.03,13.49Z"/><path class="a" d="M12.03,13.49s4.529,3.188,5.656,3.447a2.095,2.095,0,1,0,.937-4.083C17.5,12.6,12.03,13.49,12.03,13.49Z"/><path class="a" d="M12.03,13.49V19.5a3.75,3.75,0,0,0,3.75,3.75"/></svg>