<svg xmlns="http://www.w3.org/2000/svg" viewBox="0 0 24 24"><defs><style>.a{fill:none;stroke:currentColor;stroke-linecap:round;stroke-linejoin:round;stroke-width:1.5px;}</style></defs><title>love-heart-hands-hold-1</title><path class="a" d="M.75,23.25h15a3,3,0,0,0-3-3H9a3,3,0,0,0-3-3H.75"/><line class="a" x1="6" y1="20.25" x2="9" y2="20.25"/><path class="a" d="M23.25.75h-15a3,3,0,0,0,3,3H15a3,3,0,0,0,3,3h5.25"/><line class="a" x1="18" y1="3.75" x2="15" y2="3.75"/><path class="a" d="M15.93,9.589a1.9,1.9,0,0,0-2.751,0L12,10.808,10.821,9.589a1.9,1.9,0,0,0-2.751,0,2.06,2.06,0,0,0,0,2.845l3.511,3.631a.579.579,0,0,0,.838,0l3.511-3.631A2.06,2.06,0,0,0,15.93,9.589Z"/></svg>