<svg xmlns="http://www.w3.org/2000/svg" viewBox="0 0 24 24"><defs><style>.a{fill:none;stroke:currentColor;stroke-linecap:round;stroke-linejoin:round;stroke-width:1.5px;}</style></defs><title>love-hat</title><path class="a" d="M23.068,14.876a1.9,1.9,0,0,0-2.594-.917l-1.518.755-.7-1.542a1.9,1.9,0,0,0-2.593-.917,2.059,2.059,0,0,0-.949,2.681l2.1,4.594a.579.579,0,0,0,.79.28l4.521-2.252A2.061,2.061,0,0,0,23.068,14.876Z"/><path class="a" d="M9.439,14.449,2.312,9.35A3.589,3.589,0,0,1,.888,5.4h0A3.588,3.588,0,0,1,6.364,3.427l1.156.791.79-1.156a3.588,3.588,0,0,1,5.82-.143h0a3.589,3.589,0,0,1,.1,4.2Z"/><path class="a" d="M22.125,9a.375.375,0,0,1,.375.375"/><path class="a" d="M21.75,9.375A.375.375,0,0,1,22.125,9"/><path class="a" d="M22.125,9.75a.375.375,0,0,1-.375-.375"/><path class="a" d="M22.5,9.375a.375.375,0,0,1-.375.375"/><path class="a" d="M2.625,17.25A.375.375,0,0,1,3,17.625"/><path class="a" d="M2.25,17.625a.375.375,0,0,1,.375-.375"/><path class="a" d="M2.625,18a.375.375,0,0,1-.375-.375"/><path class="a" d="M3,17.625A.375.375,0,0,1,2.625,18"/><line class="a" x1="10.5" y1="19.5" x2="10.5" y2="22.5"/><line class="a" x1="12" y1="21" x2="9" y2="21"/><line class="a" x1="19.5" y1="1.5" x2="19.5" y2="4.5"/><line class="a" x1="21" y1="3" x2="18" y2="3"/></svg>