<svg id="Regular" xmlns="http://www.w3.org/2000/svg" viewBox="0 0 24 24"><defs><style>.cls-1{fill:none;stroke:currentColor;stroke-linecap:round;stroke-linejoin:round;stroke-width:1.5px;}</style></defs><title>make-up-eye</title><path class="cls-1" d="M21.007,12.54a.515.515,0,0,1,0,.587A10.928,10.928,0,0,1,11.765,17.5a10.929,10.929,0,0,1-9.242-4.373.513.513,0,0,1,0-.587,10.929,10.929,0,0,1,9.242-4.373A10.931,10.931,0,0,1,21.007,12.54Z"/><circle class="cls-1" cx="11.765" cy="12.834" r="4.667"/><path class="cls-1" d="M11.765,12.459a.375.375,0,0,1,.375.375"/><path class="cls-1" d="M11.39,12.834a.375.375,0,0,1,.375-.375"/><path class="cls-1" d="M11.765,13.209a.375.375,0,0,1-.375-.375"/><path class="cls-1" d="M12.14,12.834a.375.375,0,0,1-.375.375"/><path class="cls-1" d="M20.819,12.283A3.488,3.488,0,0,0,23.25,8.7"/><path class="cls-1" d="M17.524,9.524a3.5,3.5,0,0,0,.914-4.08"/><path class="cls-1" d="M12.524,8.187A3.7,3.7,0,0,0,12.1,3.846"/><path class="cls-1" d="M8.2,8.642A3.62,3.62,0,0,0,5.485,5.293"/><path class="cls-1" d="M4.084,10.835a3.427,3.427,0,0,0-3.3-2.287"/></svg>