<svg id="Regular" xmlns="http://www.w3.org/2000/svg" viewBox="0 0 24 24"><defs><style>.cls-1{fill:none;stroke:currentColor;stroke-linecap:round;stroke-linejoin:round;stroke-width:1.5px;}</style></defs><title>make-up-brush</title><path class="cls-1" d="M8.9,9.27,1.98,16.19a4.078,4.078,0,0,0,5.767,5.766l6.92-6.92Z"/><path class="cls-1" d="M8.9,9.27,10.334,2.1A1.62,1.62,0,0,1,12.229.818,13.891,13.891,0,0,1,19.28,4.657a13.9,13.9,0,0,1,3.839,7.051A1.621,1.621,0,0,1,21.833,13.6l-7.166,1.433"/><line class="cls-1" x1="6.594" y1="11.577" x2="12.36" y2="17.343"/><line class="cls-1" x1="19.28" y1="4.657" x2="16.973" y2="6.963"/><line class="cls-1" x1="14.991" y1="1.702" x2="13.513" y2="4.657"/><line class="cls-1" x1="22.235" y1="8.946" x2="19.28" y2="10.423"/></svg>