<svg id="Regular" xmlns="http://www.w3.org/2000/svg" viewBox="0 0 24 24"><defs><style>.cls-1{fill:none;stroke:currentColor;stroke-linecap:round;stroke-linejoin:round;stroke-width:1.5px;}</style></defs><title>make-up-nail-polisher</title><path class="cls-1" d="M18.783,15.085l-2.022,7.078a1.5,1.5,0,0,1-1.442,1.087H8.581a1.5,1.5,0,0,1-1.442-1.087L5.117,15.085a2.99,2.99,0,0,1,1.759-3.609,13.677,13.677,0,0,1,10.148,0A2.99,2.99,0,0,1,18.783,15.085Z"/><path class="cls-1" d="M8.924,10.842l.723-9.4A.75.75,0,0,1,10.4.75h3.111a.75.75,0,0,1,.747.693l.723,9.4"/><polygon class="cls-1" points="14.2 20.25 9.7 20.25 8.95 14.25 14.95 14.25 14.2 20.25"/></svg>