<svg id="Regular" xmlns="http://www.w3.org/2000/svg" viewBox="0 0 24 24"><defs><style>.cls-1{fill:none;stroke:currentColor;stroke-linecap:round;stroke-linejoin:round;stroke-width:1.5px;}</style></defs><title>make-up-mascara</title><line class="cls-1" x1="5.75" y1="0.75" x2="5.75" y2="15.75"/><line class="cls-1" x1="3.5" y1="6" x2="8" y2="6"/><line class="cls-1" x1="3.5" y1="9" x2="8" y2="9"/><line class="cls-1" x1="3.5" y1="3" x2="8" y2="3"/><path class="cls-1" d="M2.75,15.75h6a0,0,0,0,1,0,0v5.5a2,2,0,0,1-2,2h-2a2,2,0,0,1-2-2v-5.5a0,0,0,0,1,0,0Z"/><path class="cls-1" d="M19.25,3.75v-3h-3v3h-1.5v16.5a3,3,0,0,0,3,3h0a3,3,0,0,0,3-3V3.75Z"/></svg>