<svg id="Regular" xmlns="http://www.w3.org/2000/svg" viewBox="0 0 24 24"><defs><style>.cls-1{fill:none;stroke:currentColor;stroke-linecap:round;stroke-linejoin:round;stroke-width:1.5px;}</style></defs><title>make-up-brush-set</title><rect class="cls-1" x="0.75" y="0.749" width="22.5" height="22.5" rx="3" ry="3"/><path class="cls-1" d="M5.25,9.749v9a1.5,1.5,0,0,0,3,0v-9Z"/><path class="cls-1" d="M9.568,5.138,8.25,9.749h-3L3.932,5.138A.755.755,0,0,1,4.4,4.225,7.068,7.068,0,0,1,6.75,3.749,7.068,7.068,0,0,1,9.1,4.225.755.755,0,0,1,9.568,5.138Z"/><path class="cls-1" d="M12.75,14.249h6v3a1.5,1.5,0,0,1-1.5,1.5h-3a1.5,1.5,0,0,1-1.5-1.5Z"/><rect class="cls-1" x="12.75" y="9.749" width="6" height="4.5"/><path class="cls-1" d="M14.25,5.249h3a1.5,1.5,0,0,1,1.5,1.5v3h-6v-3A1.5,1.5,0,0,1,14.25,5.249Z"/></svg>