<svg id="Regular" xmlns="http://www.w3.org/2000/svg" viewBox="0 0 24 24"><defs><style>.cls-1{fill:none;stroke:currentColor;stroke-linecap:round;stroke-linejoin:round;stroke-width:1.5px;}</style></defs><title>make-up-lipstick</title><path class="cls-1" d="M3.717,12.751h8.2a.5.5,0,0,1,.5.5v7.185a1,1,0,0,1-1,1h-7.2a1,1,0,0,1-1-1V13.251a.5.5,0,0,1,.5-.5Z" transform="translate(14.376 -0.52) rotate(45)"/><path class="cls-1" d="M9.977,8.79h6.152a.5.5,0,0,1,.5.5v5.63a0,0,0,0,1,0,0H9.477a0,0,0,0,1,0,0V9.29a.5.5,0,0,1,.5-.5Z" transform="translate(12.206 -5.757) rotate(45)"/><path class="cls-1" d="M20.7,7.82l-3.675,3.674L13.414,7.882l6.714-6.714A.511.511,0,0,1,21,1.529V7.1A1.026,1.026,0,0,1,20.7,7.82Z"/></svg>