<svg id="Regular" xmlns="http://www.w3.org/2000/svg" viewBox="0 0 24 24"><defs><style>.cls-1{fill:none;stroke:currentColor;stroke-linecap:round;stroke-linejoin:round;stroke-width:1.5px;}</style></defs><title>make-up-lipstick-1</title><path class="cls-1" d="M1.75,12.75h7a1,1,0,0,1,1,1v9a.5.5,0,0,1-.5.5h-8a.5.5,0,0,1-.5-.5v-9A1,1,0,0,1,1.75,12.75Z"/><rect class="cls-1" x="14.25" y="11.25" width="9" height="12" rx="0.5" ry="0.5"/><path class="cls-1" d="M2.25,12.75V2.25a.75.75,0,0,1,1.2-.6L7.65,4.8A1.5,1.5,0,0,1,8.25,6v6.75"/><line class="cls-1" x1="3.75" y1="20.25" x2="6.75" y2="20.25"/><line class="cls-1" x1="14.25" y1="17.25" x2="23.25" y2="17.25"/><line class="cls-1" x1="14.25" y1="20.25" x2="23.25" y2="20.25"/></svg>