<svg id="Regular" xmlns="http://www.w3.org/2000/svg" viewBox="0 0 24 24"><defs><style>.cls-1{fill:none;stroke:currentColor;stroke-linecap:round;stroke-linejoin:round;stroke-width:1.5px;}</style></defs><title>make-up-mascara-small</title><path class="cls-1" d="M1.25,12.75h8a.5.5,0,0,1,.5.5v8a2,2,0,0,1-2,2h-5a2,2,0,0,1-2-2v-8A.5.5,0,0,1,1.25,12.75Z"/><path class="cls-1" d="M16.25.75h6.5a.5.5,0,0,1,.5.5v8a2,2,0,0,1-2,2h-3.5a2,2,0,0,1-2-2v-8A.5.5,0,0,1,16.25.75Z" transform="translate(39 12.001) rotate(180)"/><line class="cls-1" x1="5.25" y1="0.75" x2="5.25" y2="12.75"/><line class="cls-1" x1="3.75" y1="2.25" x2="6.75" y2="2.25"/><line class="cls-1" x1="2.25" y1="5.25" x2="8.25" y2="5.25"/><line class="cls-1" x1="3.75" y1="8.25" x2="6.75" y2="8.25"/><line class="cls-1" x1="15.75" y1="8.25" x2="23.25" y2="8.25"/></svg>