<svg xmlns="http://www.w3.org/2000/svg" viewBox="0 0 24 24"><defs><style>.a{fill:none;stroke:currentColor;stroke-linecap:round;stroke-linejoin:round;stroke-width:1.5px;}</style></defs><title>maps-search</title><path class="a" d="M23.25,11.25V4.65a1.5,1.5,0,0,0-.943-1.393l-6-2.4a1.5,1.5,0,0,0-1.114,0L8.807,3.412a1.5,1.5,0,0,1-1.114,0L1.779,1.046a.75.75,0,0,0-1.029.7V16.119a1.5,1.5,0,0,0,.943,1.393l6,2.4a1.5,1.5,0,0,0,1.114,0"/><line class="a" x1="8.25" y1="3.519" x2="8.25" y2="11.25"/><line class="a" x1="15.75" y1="0.75" x2="15.75" y2="7.5"/><circle class="a" cx="16.5" cy="16.5" r="5.25"/><line class="a" x1="23.25" y1="23.25" x2="20.236" y2="20.236"/></svg>