<svg xmlns="http://www.w3.org/2000/svg" viewBox="0 0 24 24"><defs><style>.a{fill:none;stroke:currentColor;stroke-linecap:round;stroke-linejoin:round;stroke-width:1.5px;}</style></defs><title>maps-pin-2</title><path class="a" d="M8.25,11.769a1.511,1.511,0,0,1-.557-.107L1.779,9.3a.75.75,0,0,0-1.029.7V19.35a1.5,1.5,0,0,0,.943,1.393l6,2.4a1.5,1.5,0,0,0,1.114,0l6.386-2.555a1.5,1.5,0,0,1,1.114,0l5.914,2.366a.75.75,0,0,0,1.029-.7V12.9a1.5,1.5,0,0,0-.943-1.393l-6-2.4a1.5,1.5,0,0,0-1.114,0l-.906.363"/><line class="a" x1="8.25" y1="11.769" x2="8.25" y2="23.25"/><line class="a" x1="15.75" y1="9" x2="15.75" y2="20.481"/><line class="a" x1="11.25" y1="6.75" x2="11.25" y2="15.75"/><circle class="a" cx="11.25" cy="3.75" r="3"/></svg>