<svg xmlns="http://www.w3.org/2000/svg" viewBox="0 0 24 24"><defs><style>.a{fill:none;stroke:currentColor;stroke-linecap:round;stroke-linejoin:round;stroke-width:1.5px;}</style></defs><title>maps-pin</title><path class="a" d="M12.13,4.875a.375.375,0,0,1,.375.375"/><path class="a" d="M11.755,5.25a.375.375,0,0,1,.375-.375"/><path class="a" d="M12.13,5.625a.375.375,0,0,1-.375-.375"/><path class="a" d="M12.505,5.25a.375.375,0,0,1-.375.375"/><path class="a" d="M12.13.75a4.5,4.5,0,0,1,4.5,4.5c0,1.921-2.688,5.576-3.909,7.138a.75.75,0,0,1-1.182,0C10.318,10.827,7.63,7.171,7.63,5.25A4.5,4.5,0,0,1,12.13.75Z"/><path class="a" d="M6.135,9.781a1.5,1.5,0,0,0-1.108.97l-3.441,10.5A1.5,1.5,0,0,0,3,23.25H21.26a1.5,1.5,0,0,0,1.414-2l-3.441-10.5a1.5,1.5,0,0,0-1.117-.971"/><line class="a" x1="7.63" y1="23.249" x2="9.13" y2="14.25"/><line class="a" x1="16.63" y1="23.249" x2="15.13" y2="14.25"/><line class="a" x1="2.434" y1="18.75" x2="21.855" y2="18.75"/><line class="a" x1="3.88" y1="14.25" x2="9.13" y2="14.25"/><line class="a" x1="15.13" y1="14.25" x2="20.38" y2="14.25"/></svg>