<svg id="Regular" xmlns="http://www.w3.org/2000/svg" viewBox="0 0 24 24"><defs><style>.cls-1{fill:none;stroke:currentColor;stroke-linecap:round;stroke-linejoin:round;stroke-width:1.5px;}</style></defs><title>marine-mammal-seal-ball</title><path class="cls-1" d="M3.446,20.252A3.347,3.347,0,0,0,.825,22.184a.75.75,0,0,0,.68,1.066H22.249a.751.751,0,0,0,.745-.847c-.118-.9-.713-2.215-3.162-2.241.153-1.412-.6-2.912-2.847-4.412A7.911,7.911,0,0,0,8.735,15s0-6-3.75-6.75a8.839,8.839,0,0,0-3.75,7.5,14.811,14.811,0,0,0,.157,2.233"/><circle class="cls-1" cx="4.985" cy="4.5" r="3.75"/><path class="cls-1" d="M5.36,12a.375.375,0,0,1,.375.375"/><path class="cls-1" d="M4.985,12.375A.375.375,0,0,1,5.36,12"/><path class="cls-1" d="M5.36,12.75a.375.375,0,0,1-.375-.375"/><path class="cls-1" d="M5.735,12.375a.375.375,0,0,1-.375.375"/><line class="cls-1" x1="2.333" y1="1.848" x2="7.636" y2="7.152"/><line class="cls-1" x1="7.636" y1="1.848" x2="2.333" y2="7.152"/></svg>