<svg id="Regular" xmlns="http://www.w3.org/2000/svg" viewBox="0 0 24 24"><defs><style>.cls-1{fill:none;stroke:currentColor;stroke-linecap:round;stroke-linejoin:round;stroke-width:1.5px;}</style></defs><title>marine-mammal-dolphin-2</title><path class="cls-1" d="M4.714,12l.891,1.558a1.5,1.5,0,0,1,.084,1.318A11.2,11.2,0,0,0,5.25,21l3-1.5a24.053,24.053,0,0,0,7.5,1.5c5.25,0,7.5-4.5,7.5-8.25v-9s-3,1.5-3,3.75C18,6,15.75,9.75,15.75,9.75l3.75.75a2.648,2.648,0,0,1-.75,3.75c-2.25,1.5-4.5,0-6.75-3.75-4.263-7.1-14.135-.419-9,6a10.586,10.586,0,0,0,2.04,1.957"/><path class="cls-1" d="M8.625,11.25A.375.375,0,0,1,9,11.625"/><path class="cls-1" d="M8.25,11.625a.375.375,0,0,1,.375-.375"/><path class="cls-1" d="M8.625,12a.375.375,0,0,1-.375-.375"/><path class="cls-1" d="M9,11.625A.375.375,0,0,1,8.625,12"/><polyline class="cls-1" points="2.331 10.114 0.75 3 6.063 7.554"/></svg>