<svg id="Regular" xmlns="http://www.w3.org/2000/svg" viewBox="0 0 24 24"><defs><style>.cls-1{fill:none;stroke:currentColor;stroke-linecap:round;stroke-linejoin:round;stroke-width:1.5px;}</style></defs><title>marine-mammal-dolphin-jump</title><path class="cls-1" d="M.75,21.75c1.5,0,2.25,1.5,3.75,1.5s2.25-1.5,3.75-1.5,2.25,1.5,3.75,1.5,2.25-1.5,3.75-1.5,2.25,1.5,3.75,1.5,2.25-1.5,3.75-1.5"/><path class="cls-1" d="M22.583,8.25l-2.25,1.5c-2.036-2.036-5.3-2.837-8.122-2.972.119-.887.148-2.278-.878-2.278-1.092,0-2.177,1.582-2.69,2.447-6.736,1.01-5.56,5.8-5.56,5.8s-1.974,1.577-1.5,3c.75,2.25,3.411.349,6-1.5a9.581,9.581,0,0,1,1.284-.763C9.373,14.143,10.12,15,10.583,15s.914-1.393,1.2-2.481a20.642,20.642,0,0,1,7.8.231l2.063,3.75a3.3,3.3,0,0,0,.937-4.5C24.083,10.5,22.583,8.25,22.583,8.25Z"/><path class="cls-1" d="M12.256,2.249C12.612,1.3,13.04.75,13.5.75c1.243,0,2.25,4.029,2.25,9s-1.007,9-2.25,9c-.461,0-.89-.555-1.247-1.507"/><path class="cls-1" d="M6.375,10.5a.375.375,0,0,1,.375.375"/><path class="cls-1" d="M6,10.875a.375.375,0,0,1,.375-.375"/><path class="cls-1" d="M6.375,11.25A.375.375,0,0,1,6,10.875"/><path class="cls-1" d="M6.75,10.875a.375.375,0,0,1-.375.375"/></svg>