<svg id="Regular" xmlns="http://www.w3.org/2000/svg" viewBox="0 0 24 24"><defs><style>.cls-1{fill:none;stroke:currentColor;stroke-linecap:round;stroke-linejoin:round;stroke-width:1.5px;}</style></defs><title>marine-mammal-penguin-slide</title><path class="cls-1" d="M20.6,13.1c-1.331.983-3.627-1.028-4.958-.044-1.644,1.214-4,1.282-7.27-.4S3.2,8.141,4.132,6.317a9.136,9.136,0,0,1-1.9-3.265s5.175,0,8.53,1.665C15.4,7.019,16.009,9.076,18,8.43s4.286,1.365,3.613,2.686A2.721,2.721,0,0,1,23.25,12.79"/><path class="cls-1" d="M10.838,7.941l-2.66.171a5.693,5.693,0,0,0,3.47,2.869c2.29.472,3.03-.813,3.03-.813"/><line class="cls-1" x1="0.75" y1="8.651" x2="21.539" y2="19.578"/></svg>