<svg id="Regular" xmlns="http://www.w3.org/2000/svg" viewBox="0 0 24 24"><defs><style>.cls-1{fill:none;stroke:currentColor;stroke-linecap:round;stroke-linejoin:round;stroke-width:1.5px;}</style></defs><title>marine-mammal-sea-lion</title><path class="cls-1" d="M8.126,17.75a5.857,5.857,0,0,1-1.5,3.75,4.117,4.117,0,0,1-4.954.628.75.75,0,0,1-.136-1.261A10.842,10.842,0,0,0,3.626,18.5c1.5-2.25,2.25-7.5,2.25-11.25a6.285,6.285,0,0,1,6-6,6.284,6.284,0,0,1,6,6c0,3.75.75,9,2.25,11.25a10.867,10.867,0,0,0,2.091,2.367.75.75,0,0,1-.136,1.261,4.119,4.119,0,0,1-4.955-.628,5.857,5.857,0,0,1-1.5-3.75"/><path class="cls-1" d="M7.285,20.658a6.527,6.527,0,0,0,4.591,1.592,6.528,6.528,0,0,0,4.592-1.592"/><path class="cls-1" d="M9.626,9.446V12.5a3.285,3.285,0,0,0,.75,2.25"/><path class="cls-1" d="M14.126,9.446V12.5a3.285,3.285,0,0,1-.75,2.25"/><path class="cls-1" d="M8.876,9.5c2.4,0,3-1.5,3-1.5s.6,1.5,3,1.5"/><path class="cls-1" d="M9.251,5a.374.374,0,0,1,.375.375"/><path class="cls-1" d="M8.876,5.375A.375.375,0,0,1,9.251,5"/><path class="cls-1" d="M9.251,5.75a.375.375,0,0,1-.375-.375"/><path class="cls-1" d="M9.626,5.375a.374.374,0,0,1-.375.375"/><path class="cls-1" d="M14.5,5a.374.374,0,0,1,.375.375"/><path class="cls-1" d="M14.126,5.375A.375.375,0,0,1,14.5,5"/><path class="cls-1" d="M14.5,5.75a.375.375,0,0,1-.375-.375"/><path class="cls-1" d="M14.876,5.375a.374.374,0,0,1-.375.375"/></svg>