<svg id="Regular" xmlns="http://www.w3.org/2000/svg" viewBox="0 0 24 24"><defs><style>.cls-1{fill:none;stroke:currentColor;stroke-linecap:round;stroke-linejoin:round;stroke-width:1.5px;}</style></defs><title>marine-mammal-seal</title><path class="cls-1" d="M9.431,13.77C8.4,20.444,5.25,22.02,5.25,22.02s3.75,3,6-1.5"/><path class="cls-1" d="M18.75,5c0-2.071-2.015-3.75-4.5-3.75S9.75,2.929,9.75,5"/><path class="cls-1" d="M17.25,20.52c2.25,4.5,6,1.5,6,1.5s-3.154-1.576-4.181-8.25"/><path class="cls-1" d="M10.281,21.947a14.676,14.676,0,0,0,3.969.823,14.7,14.7,0,0,0,3.97-.823"/><path class="cls-1" d="M12.375,5.75a.375.375,0,0,1,.375.375"/><path class="cls-1" d="M12,6.125a.375.375,0,0,1,.375-.375"/><path class="cls-1" d="M12.375,6.5A.375.375,0,0,1,12,6.125"/><path class="cls-1" d="M12.75,6.125a.375.375,0,0,1-.375.375"/><path class="cls-1" d="M16.125,5.75a.375.375,0,0,1,.375.375"/><path class="cls-1" d="M15.75,6.125a.375.375,0,0,1,.375-.375"/><path class="cls-1" d="M16.125,6.5a.375.375,0,0,1-.375-.375"/><path class="cls-1" d="M16.5,6.125a.375.375,0,0,1-.375.375"/><line class="cls-1" x1="13.5" y1="8.75" x2="15" y2="8.75"/><polyline class="cls-1" points="20.25 8 18 9.5 20.25 11"/><polyline class="cls-1" points="8.25 8 10.5 9.5 8.25 11"/><path class="cls-1" d="M6.862,20.52c-.922,0-3.222-.806-4.492-5.25C.12,14.52.87,11.52.87,11.52s2.88,1.5,5.13,0c.75,1.5-.75,3-.75,3"/></svg>