<svg id="Regular" xmlns="http://www.w3.org/2000/svg" viewBox="0 0 24 24"><defs><style>.cls-1{fill:none;stroke:currentColor;stroke-linecap:round;stroke-linejoin:round;stroke-width:1.5px;fill-rule:evenodd;}</style></defs><title>marine-mammal-seal-body</title><path class="cls-1" d="M4.984,9.289A2.246,2.246,0,1,1,3,6,3.75,3.75,0,0,1,6.75,2.25,4.724,4.724,0,0,1,11.25,6c.75,5.25-.75,6.75-.75,6.75"/><path class="cls-1" d="M1.5,9.927V10.5s0,3.75,3,4.5c0-2.742.1-4.857.117-5.2"/><path class="cls-1" d="M5.25,17.25c-2.25.75-1.5,4.5-1.5,4.5A5.919,5.919,0,0,0,9,18c3,1.5,8.25.75,10.5-1.5l-3,3s2.25,1.5,3.75,0a3.28,3.28,0,0,0,3,2.25V13.5c0-3.75-2.25-6-6-6H11.414"/><path class="cls-1" d="M7.125,6a.375.375,0,0,1,.375.375"/><path class="cls-1" d="M6.75,6.375A.375.375,0,0,1,7.125,6"/><path class="cls-1" d="M7.125,6.75a.375.375,0,0,1-.375-.375"/><path class="cls-1" d="M7.5,6.375a.375.375,0,0,1-.375.375"/></svg>