<svg id="Regular" xmlns="http://www.w3.org/2000/svg" viewBox="0 0 24 24"><defs><style>.cls-1,.cls-2{fill:none;stroke:currentColor;stroke-linecap:round;stroke-linejoin:round;stroke-width:1.5px;}.cls-1{fill-rule:evenodd;}</style></defs><title>marine-mammal-turtle</title><path class="cls-1" d="M7.893,8H6.882a2.852,2.852,0,0,1-1.358-.334A3.659,3.659,0,0,0,3.8,7.25c-1.656,0-3,1.5-3,3.75.75,0,1.344.75,3,.75a3.64,3.64,0,0,0,1.724-.417A2.87,2.87,0,0,1,6.882,11H8.144"/><path class="cls-1" d="M20.3,12.5a3.971,3.971,0,0,0,2.25-3c0-2.485-3-5.25-8.25-5.25-3.728,0-6.75,2.765-6.75,5.25,0,1.2.664,1.639,1.808,2.446A4.734,4.734,0,0,0,9.75,16.36a5.837,5.837,0,0,0,4.5,2.25,7.629,7.629,0,0,0-1.069-5.321,10.08,10.08,0,0,0,1.069.071,12.524,12.524,0,0,0,3.034-.4A3.217,3.217,0,0,0,19.5,15.61c2.25.75,3.75-1.5,3.75-1.5Z"/><line class="cls-2" x1="7.663" y1="10.25" x2="22.41" y2="10.25"/><line class="cls-2" x1="11.299" y1="10.25" x2="16.317" y2="4.396"/><line class="cls-2" x1="14.761" y1="6.212" x2="18.799" y2="10.25"/><line class="cls-2" x1="20.224" y1="5.826" x2="17.299" y2="8.75"/></svg>