<svg id="Regular" xmlns="http://www.w3.org/2000/svg" viewBox="0 0 24 24"><defs><style>.cls-1{fill:none;stroke:currentColor;stroke-linecap:round;stroke-linejoin:round;stroke-width:1.5px;}</style></defs><title>marine-mammal-turtle-1</title><ellipse class="cls-1" cx="12" cy="15.75" rx="6" ry="7.5"/><path class="cls-1" d="M10.5,8.465C10.547,6.046,9.75,5.3,9.75,3.75c0-1.657,1.5-3,2.25-3s2.25,1.343,2.25,3c0,1.547-.8,2.3-.748,4.715"/><path class="cls-1" d="M8.257,9.776C7.9,8.339,6.832,6.75,5.25,6.75,3,6.75.75,9.75.75,13.5a3.25,3.25,0,0,0,3-1.5"/><path class="cls-1" d="M15.743,9.776C16.1,8.339,17.168,6.75,18.75,6.75c2.25,0,4.5,3,4.5,6.75a3.25,3.25,0,0,1-3-1.5"/><path class="cls-1" d="M6.146,17.318C4.831,16.7,3.3,16.65,2.7,18a5.093,5.093,0,0,0,.66,5.25s1.318,0,1.318-2.25"/><path class="cls-1" d="M17.854,17.318C19.169,16.7,20.7,16.65,21.3,18a5.093,5.093,0,0,1-.66,5.25s-1.318,0-1.318-2.25"/><polyline class="cls-1" points="7.198 11.099 12 13.5 16.802 11.099"/><line class="cls-1" x1="10.895" y1="12.947" x2="6.642" y2="18.901"/><line class="cls-1" x1="13.105" y1="12.947" x2="17.358" y2="18.901"/><polyline class="cls-1" points="8.132 16.816 12 18.75 15.868 16.816"/><line class="cls-1" x1="11.455" y1="18.477" x2="8.96" y2="21.803"/><line class="cls-1" x1="12.6" y1="18.45" x2="14.477" y2="22.204"/></svg>