<svg id="Regular" xmlns="http://www.w3.org/2000/svg" viewBox="0 0 24 24"><defs><style>.cls-1,.cls-2{fill:none;stroke:currentColor;stroke-linecap:round;stroke-linejoin:round;stroke-width:1.5px;}.cls-1{fill-rule:evenodd;}</style></defs><title>marine-mammal-penguin-mother</title><path class="cls-1" d="M10.1,9.75H9.75S7.5,9.75,7.5,6s3-5.25,6-5.25c3.75,0,5.25,3.75,5.25,9v7.5s-3.75,0-3.75-4.5"/><path class="cls-1" d="M9.75,11.25a4.249,4.249,0,0,1,1.5-3"/><path class="cls-1" d="M18.75,17.25a16.764,16.764,0,0,0,1.5,6H13.5"/><path class="cls-1" d="M10.164,23.25h-4.5c-2.25,0-2.171-1.738-1.5-3.75.75-2.25,2.408-2.921,3.75-2.25,1.5.75,1.5,3,1.5,3"/><path class="cls-1" d="M6.414,17.055V16.5a2.323,2.323,0,0,1,.75-1.5c.75-.75,3-.75,3-.75a2.673,2.673,0,0,1-1.236,4.031"/><line class="cls-2" x1="10.164" y1="14.25" x2="12" y2="14.25"/></svg>