<svg id="Regular" xmlns="http://www.w3.org/2000/svg" viewBox="0 0 24 24"><defs><style>.cls-1{fill:none;stroke:currentColor;stroke-linecap:round;stroke-linejoin:round;stroke-width:1.5px;}</style></defs><title>marine-mammal-penguin</title><path class="cls-1" d="M4.5,23.25h15s-3-2.25-3-5.25V6A5.25,5.25,0,0,0,6,6L3.75,8.25A16.067,16.067,0,0,1,8.25,9c2.25.75,2.25,2.25,2.25,3.75a4.8,4.8,0,0,0-2.612,2.69A.75.75,0,0,0,8.57,16.5H10.5v3.75"/><path class="cls-1" d="M6.931,8.637A20.314,20.314,0,0,0,4.5,17.25a11.541,11.541,0,0,0,1.5,6"/><path class="cls-1" d="M10.875,4.5a.375.375,0,0,1,.375.375"/><path class="cls-1" d="M10.5,4.875a.375.375,0,0,1,.375-.375"/><path class="cls-1" d="M10.875,5.25a.375.375,0,0,1-.375-.375"/><path class="cls-1" d="M11.25,4.875a.375.375,0,0,1-.375.375"/></svg>