<svg id="Regular" xmlns="http://www.w3.org/2000/svg" viewBox="0 0 24 24"><defs><style>.cls-1{fill:none;stroke:currentColor;stroke-linecap:round;stroke-linejoin:round;stroke-width:1.5px;}</style></defs><title>martial-arts-mask-helmet</title><path class="cls-1" d="M15.751,8.25c0,2.9-1.679,6-3.75,6s-3.75-3.1-3.75-6S9.93,3.75,12,3.75,15.751,5.351,15.751,8.25Z"/><path class="cls-1" d="M14.251,21V18.75a.845.845,0,0,1,1.584-.411A3.859,3.859,0,0,0,19.5,20.25a3.812,3.812,0,0,0,3.648-2.2.974.974,0,0,0-.8-1.4,3.99,3.99,0,0,1-3.6-3.895V7.5a6.75,6.75,0,0,0-13.5,0v5.25a3.989,3.989,0,0,1-3.6,3.895.974.974,0,0,0-.8,1.4A3.811,3.811,0,0,0,4.5,20.25a3.856,3.856,0,0,0,3.666-1.911.845.845,0,0,1,1.584.411V21a2.25,2.25,0,0,0,4.5,0Z"/><line class="cls-1" x1="8.422" y1="6.75" x2="15.581" y2="6.75"/><line class="cls-1" x1="8.814" y1="11.25" x2="15.181" y2="11.25"/></svg>