<svg id="Regular" xmlns="http://www.w3.org/2000/svg" viewBox="0 0 24 24"><defs><style>.cls-1{fill:none;stroke:currentColor;stroke-linecap:round;stroke-linejoin:round;stroke-width:1.5px;}</style></defs><title>martial-arts-sumo</title><path class="cls-1" d="M10.5,19.1A4.422,4.422,0,0,0,7.534,22.81a.5.5,0,0,1-.5.44H5.692a.5.5,0,0,1-.485-.376,6.759,6.759,0,0,1-.187-1.58c0-1.838,1.078-4.794,2.605-5.544"/><path class="cls-1" d="M6.958,11.635a41.215,41.215,0,0,0,.667,4.115"/><path class="cls-1" d="M13.49,19.1a4.425,4.425,0,0,1,2.968,3.712.493.493,0,0,0,.5.44H18.3a.5.5,0,0,0,.485-.376,6.759,6.759,0,0,0,.187-1.58c0-1.838-1.077-4.794-2.605-5.544"/><path class="cls-1" d="M17.033,11.635a41.215,41.215,0,0,1-.667,4.115"/><path class="cls-1" d="M6.958,11.636a20.6,20.6,0,0,0-4.689,1.8.5.5,0,0,1-.664-.178L.821,11.976a.483.483,0,0,1,.12-.636,18.033,18.033,0,0,1,9.507-3.677"/><path class="cls-1" d="M17.03,11.635a20.506,20.506,0,0,1,4.692,1.8.5.5,0,0,0,.663-.176l.792-1.277a.482.482,0,0,0-.118-.639,18.031,18.031,0,0,0-9.515-3.683"/><path class="cls-1" d="M14.985,5.152a2.99,2.99,0,0,1-5.979,0"/><path class="cls-1" d="M9.006,5.152V2.6A3.6,3.6,0,0,1,12,.75,3.6,3.6,0,0,1,14.985,2.6V5.152"/><polyline class="cls-1" points="7.625 15.75 10.501 19.098 13.492 19.099 16.366 15.75"/><line class="cls-1" x1="7.442" y1="15" x2="16.55" y2="15"/></svg>