<svg id="Regular" xmlns="http://www.w3.org/2000/svg" viewBox="0 0 24 24"><defs><style>.cls-1{fill:none;stroke:currentColor;stroke-linecap:round;stroke-linejoin:round;stroke-width:1.5px;}</style></defs><title>martial-arts-helmet</title><ellipse class="cls-1" cx="12" cy="8.25" rx="6.75" ry="7.5"/><path class="cls-1" d="M9.75,18.859a11.262,11.262,0,0,1-7.268,4.373A1.5,1.5,0,0,1,.75,21.75V20.227a1.5,1.5,0,0,1,1.228-1.474,6.769,6.769,0,0,0,5.344-5.1"/><path class="cls-1" d="M14.25,18.859a11.262,11.262,0,0,0,7.268,4.373A1.5,1.5,0,0,0,23.25,21.75V20.227a1.5,1.5,0,0,0-1.228-1.474,6.769,6.769,0,0,1-5.344-5.1"/><path class="cls-1" d="M9.75,15.323V20.25a1.5,1.5,0,0,0,1.5,1.5h1.5a1.5,1.5,0,0,0,1.5-1.5V15.323"/><line class="cls-1" x1="5.559" y1="6" x2="18.441" y2="6"/><line class="cls-1" x1="5.559" y1="10.5" x2="18.441" y2="10.5"/><line class="cls-1" x1="12" y1="0.75" x2="12" y2="15.75"/></svg>