<svg id="Regular" xmlns="http://www.w3.org/2000/svg" viewBox="0 0 24 24"><defs><style>.cls-1{fill:none;stroke:currentColor;stroke-linecap:round;stroke-linejoin:round;stroke-width:1.5px;}</style></defs><title>martial-arts-karate</title><circle class="cls-1" cx="5.523" cy="5.508" r="2.625"/><polyline class="cls-1" points="7.644 2.856 2.871 7.629 0.75 7.629"/><line class="cls-1" x1="2.871" y1="9.75" x2="2.871" y2="7.629"/><path class="cls-1" d="M22.644,7.13a1.5,1.5,0,0,0-2.117.124l-5.011,5.638L11.492,9.371l.242-.272a1.518,1.518,0,0,1,.649-.43l.721-.24a4.5,4.5,0,0,0,2.755-5.94l-.318-.795a1.5,1.5,0,1,0-2.786,1.113l.318.8a1.5,1.5,0,0,1-.919,1.98l-.719.239A4.52,4.52,0,0,0,9.494,7.1L5.907,11.141a4.5,4.5,0,0,0,.18,6.169l1,1A1.5,1.5,0,1,0,9.209,16.19l-1-1a1.5,1.5,0,0,1-.06-2.056L9.5,11.613l4.649,4.069V21.75a1.5,1.5,0,0,0,3,0V15.569l5.621-6.323A1.5,1.5,0,0,0,22.644,7.13Z"/></svg>