<svg id="Regular" xmlns="http://www.w3.org/2000/svg" viewBox="0 0 24 24"><defs><style>.cls-1{fill:none;stroke:currentColor;stroke-linecap:round;stroke-linejoin:round;stroke-width:1.5px;}</style></defs><title>martial-arts-kimono</title><path class="cls-1" d="M20.25,10.5l3-3L19.889,3.579C18.958,2.517,17.25.75,12,.75S5.042,2.517,4.111,3.579L.75,7.5l3,3,3-2.25.75,6L6.322,21.482A1.5,1.5,0,0,0,7.8,23.25H16.2a1.5,1.5,0,0,0,1.475-1.768L16.5,14.25l.75-6Z"/><line class="cls-1" x1="7.5" y1="14.25" x2="15.26" y2="1.032"/><line class="cls-1" x1="11.91" y1="6.738" x2="8.74" y2="1.032"/><line class="cls-1" x1="16.5" y1="14.25" x2="7.5" y2="14.25"/><line class="cls-1" x1="12" y1="14.25" x2="10.5" y2="18.75"/><line class="cls-1" x1="12" y1="14.25" x2="13.5" y2="18.75"/></svg>