<svg id="Regular" xmlns="http://www.w3.org/2000/svg" viewBox="0 0 24 24"><defs><style>.cls-1{fill:none;stroke:currentColor;stroke-linecap:round;stroke-linejoin:round;stroke-width:1.5px;}</style></defs><title>martial-arts-swords</title><path class="cls-1" d="M9.75,16.325l-6.495,6.5A1.467,1.467,0,0,1,1.18,20.745l6.5-6.5"/><line class="cls-1" x1="4" y1="14.466" x2="9.534" y2="20"/><line class="cls-1" x1="17.978" y1="3.947" x2="20.053" y2="6.022"/><line class="cls-1" x1="20" y1="14.466" x2="14.466" y2="20"/><path class="cls-1" d="M20.745,22.82a1.467,1.467,0,0,0,2.075-2.075L3.255,1.18A1.467,1.467,0,0,0,1.18,3.255Z"/><line class="cls-1" x1="6.022" y1="3.947" x2="3.947" y2="6.022"/><path class="cls-1" d="M14.25,7.675l6.5-6.495A1.467,1.467,0,0,1,22.82,3.255l-6.5,6.5"/></svg>