<svg id="Regular" xmlns="http://www.w3.org/2000/svg" viewBox="0 0 24 24"><defs><style>.cls-1{fill:none;stroke:currentColor;stroke-linecap:round;stroke-linejoin:round;stroke-width:1.5px;}</style></defs><title>martial-arts-fencing</title><circle class="cls-1" cx="15.375" cy="4.625" r="2.625"/><path class="cls-1" d="M11.331,11.421l1.329.326-.217,2.373-1.5.188A4.5,4.5,0,0,0,7.235,20.2l.342,1.029A1.5,1.5,0,0,0,9,22.25a1.5,1.5,0,0,0,1.422-1.975l-.343-1.028a1.5,1.5,0,0,1,1.238-1.963l1.641-.2,4.731,4.732a1.5,1.5,0,0,0,2.121-2.122l-4.545-4.545.339-2.675.412.1A5.985,5.985,0,0,0,23.19,8.42a1.5,1.5,0,1,0-2.88-.84,2.994,2.994,0,0,1-3.583,2.075L12.059,8.51"/><path class="cls-1" d="M7.624,11.75A3,3,0,1,1,9.417,6.024Z"/><line class="cls-1" x1="5.657" y1="7.991" x2="0.763" y2="6.458"/></svg>