<svg id="Regular" xmlns="http://www.w3.org/2000/svg" viewBox="0 0 24 24"><defs><style>.cls-1{fill:none;stroke:currentColor;stroke-linecap:round;stroke-linejoin:round;stroke-width:1.5px;}</style></defs><title>matches-fire</title><path class="cls-1" d="M10.6,10.143a5.227,5.227,0,0,1,.53,5.957,1.862,1.862,0,0,1-1.986-1.588,4.215,4.215,0,0,0-2.185,3.972,4.766,4.766,0,0,0,4.767,4.766,4.832,4.832,0,0,0,4.766-4.766C16.668,13.783,13.938,11.235,10.6,10.143Z"/><path class="cls-1" d="M20.617,6.749H20.25l-2.632,3.29a13.344,13.344,0,0,1,.36-9.29A13.4,13.4,0,0,0,6.886,7.727L4.5,5.4A10.5,10.5,0,1,0,20.617,6.749Z"/></svg>