<svg xmlns="http://www.w3.org/2000/svg" viewBox="0 0 24 24"><defs><style>.a{fill:none;stroke:currentColor;stroke-linecap:round;stroke-linejoin:round;stroke-width:1.5px;}</style></defs><title>material-isolation</title><circle class="a" cx="4.5" cy="19.5" r="3.75"/><path class="a" d="M.75,19.5V4.5a3.75,3.75,0,0,1,7.5,0v15"/><path class="a" d="M8.25,5.25h13.5a1.5,1.5,0,0,1,1.5,1.5v15a1.5,1.5,0,0,1-1.5,1.5H4.5"/><line class="a" x1="20.25" y1="8.25" x2="20.25" y2="9.75"/><line class="a" x1="20.25" y1="12.75" x2="20.25" y2="14.25"/><line class="a" x1="20.25" y1="17.25" x2="20.25" y2="18.75"/><line class="a" x1="17.25" y1="9.75" x2="17.25" y2="11.25"/><line class="a" x1="17.25" y1="14.25" x2="17.25" y2="15.75"/><line class="a" x1="17.25" y1="18.75" x2="17.25" y2="20.25"/><line class="a" x1="14.25" y1="8.25" x2="14.25" y2="9.75"/><line class="a" x1="14.25" y1="12.75" x2="14.25" y2="14.25"/><line class="a" x1="14.25" y1="17.25" x2="14.25" y2="18.75"/><line class="a" x1="11.25" y1="9.75" x2="11.25" y2="11.25"/><line class="a" x1="11.25" y1="14.25" x2="11.25" y2="15.75"/><line class="a" x1="11.25" y1="18.75" x2="11.25" y2="20.25"/><path class="a" d="M4.5,19.125a.375.375,0,1,1-.375.375.375.375,0,0,1,.375-.375"/></svg>