<svg xmlns="http://www.w3.org/2000/svg" viewBox="0 0 24 24"><defs><style>.a{fill:none;stroke:currentColor;stroke-linecap:round;stroke-linejoin:round;stroke-width:1.5px;}</style></defs><title>material-brick</title><line class="a" x1="0.75" y1="22.5" x2="23.25" y2="22.5"/><line class="a" x1="0.75" y1="18" x2="23.25" y2="18"/><rect class="a" x="2.25" y="18" width="3" height="4.5"/><rect class="a" x="10.5" y="18" width="3" height="4.5"/><rect class="a" x="18.75" y="18" width="3" height="4.5"/><rect class="a" x="0.75" y="1.5" width="22.5" height="13.5" rx="1.5" ry="1.5"/><line class="a" x1="0.75" y1="10.5" x2="23.25" y2="10.5"/><line class="a" x1="0.75" y1="6" x2="23.25" y2="6"/><line class="a" x1="6.75" y1="1.5" x2="6.75" y2="6"/><line class="a" x1="12.75" y1="1.5" x2="12.75" y2="6"/><line class="a" x1="18.75" y1="1.5" x2="18.75" y2="6"/><line class="a" x1="6.75" y1="10.5" x2="6.75" y2="15"/><line class="a" x1="12.75" y1="10.5" x2="12.75" y2="15"/><line class="a" x1="18.75" y1="10.5" x2="18.75" y2="15"/><line class="a" x1="5.25" y1="6" x2="5.25" y2="10.5"/><line class="a" x1="11.25" y1="6" x2="11.25" y2="10.5"/><line class="a" x1="17.25" y1="6" x2="17.25" y2="10.5"/></svg>