<svg xmlns="http://www.w3.org/2000/svg" viewBox="0 0 24 24"><defs><style>.a{fill:none;stroke:currentColor;stroke-linecap:round;stroke-linejoin:round;stroke-width:1.5px;}</style></defs><title>material-tile</title><path class="a" d="M23.016,21.254,21.162,2.1A1.5,1.5,0,0,0,19.67.75H4.327A1.5,1.5,0,0,0,2.834,2.1L.984,21.217a2.245,2.245,0,0,1,1.3,2.033h3a2.25,2.25,0,0,1,4.5,0h4.5a2.25,2.25,0,0,1,4.5,0h3A2.241,2.241,0,0,1,23.016,21.254Z"/><line class="a" x1="7.534" y1="21" x2="9.034" y2="0.75"/><line class="a" x1="16.534" y1="21" x2="15.034" y2="0.75"/></svg>