<svg xmlns="http://www.w3.org/2000/svg" viewBox="0 0 24 24"><defs><style>.a{fill:none;stroke:currentColor;stroke-linecap:round;stroke-linejoin:round;stroke-width:1.5px;}</style></defs><title>material-fabric</title><path class="a" d="M8.625,20.25h13.5l.459,1.253A1.5,1.5,0,0,1,21.1,23.25H9.646A1.5,1.5,0,0,1,8.166,21.5Z"/><path class="a" d="M8.625,3.75h13.5L22.584,2.5A1.5,1.5,0,0,0,21.1.75H9.646A1.5,1.5,0,0,0,8.166,2.5Z"/><path class="a" d="M8.625,3.75A59.754,59.754,0,0,0,7.875,12a59.754,59.754,0,0,0,.75,8.25"/><path class="a" d="M22.125,3.75a59.754,59.754,0,0,1,.75,8.25,59.754,59.754,0,0,1-.75,8.25"/><path class="a" d="M5.625,23.25H3.375a2.25,2.25,0,0,1,0-4.5h2.25"/><path class="a" d="M5.625,18.75H3.375a2.25,2.25,0,0,1,0-4.5h1.5"/><path class="a" d="M4.875,14.25h-1.5a2.25,2.25,0,0,1,0-4.5h2.25"/></svg>