<svg xmlns="http://www.w3.org/2000/svg" viewBox="0 0 24 24"><defs><style>.a{fill:none;stroke:currentColor;stroke-linecap:round;stroke-linejoin:round;stroke-width:1.5px;}</style></defs><title>material-tile-roof-1</title><path class="a" d="M23.01,20.821,21.189,2.105A1.5,1.5,0,0,0,19.7.75H4.3A1.5,1.5,0,0,0,2.811,2.105L.99,20.821"/><path class="a" d="M23.011,20.821A3.751,3.751,0,0,1,15.75,19.5"/><path class="a" d="M8.25,19.5A3.751,3.751,0,0,1,.989,20.821"/><path class="a" d="M8.25,18.75v.75a3.75,3.75,0,0,0,7.5,0v-.75"/><path class="a" d="M12,15a3.75,3.75,0,0,1-7.5,0"/><path class="a" d="M19.5,15A3.75,3.75,0,0,1,12,15"/><path class="a" d="M8.25,11.25a3.75,3.75,0,0,1-6.57,2.472"/><path class="a" d="M15.75,11.25a3.75,3.75,0,0,1-7.5,0"/><path class="a" d="M22.32,13.722a3.75,3.75,0,0,1-6.57-2.472"/><path class="a" d="M12,7.5a3.75,3.75,0,0,1-7.5,0"/><path class="a" d="M19.5,7.5a3.75,3.75,0,0,1-7.5,0"/><path class="a" d="M15.75,3.75a3.75,3.75,0,0,1-7.5,0"/><path class="a" d="M21.649,6.824a3.751,3.751,0,0,1-5.9-3.074"/><path class="a" d="M2.351,6.824A3.751,3.751,0,0,0,8.25,3.75"/></svg>