<svg xmlns="http://www.w3.org/2000/svg" viewBox="0 0 24 24"><defs><style>.a{fill:none;stroke:currentColor;stroke-linecap:round;stroke-linejoin:round;stroke-width:1.5px;}</style></defs><title>maze-strategy</title><path class="a" d="M19.5,3.729H21a1.5,1.5,0,0,1,1.5,1.5v16.5a1.5,1.5,0,0,1-1.5,1.5H13.5"/><polyline class="a" points="10.5 23.229 10.5 17.229 7.5 17.229 7.5 12.729 10.5 12.729 10.5 6.729 13.5 6.729 13.5 0.729"/><polyline class="a" points="10.5 3.697 13.5 0.729 16.5 3.697"/><line class="a" x1="15" y1="15.729" x2="15" y2="20.229"/><path class="a" d="M6.75,3.729H3a1.5,1.5,0,0,0-1.5,1.5v16.5a1.5,1.5,0,0,0,1.5,1.5H7.5v-3h-3v-2.25"/><polyline class="a" points="18 23.229 18 14.229 19.5 14.229"/><polyline class="a" points="22.5 11.229 15 11.229 15 12.729"/><polyline class="a" points="4.5 7.479 4.5 9.729 6.75 9.729"/><line class="a" x1="18" y1="11.229" x2="18" y2="8.229"/></svg>