<svg id="Regular" xmlns="http://www.w3.org/2000/svg" viewBox="0 0 24 24"><defs><style>.cls-1{fill:none;stroke:currentColor;stroke-linecap:round;stroke-linejoin:round;stroke-width:1.5px;}</style></defs><title>meal-can</title><ellipse class="cls-1" cx="12" cy="4.5" rx="9" ry="3.75"/><path class="cls-1" d="M12,8.25c-4.971,0-9-1.679-9-3.75v15c0,2.071,4.029,3.75,9,3.75s9-1.679,9-3.75V4.5C21,6.571,16.971,8.25,12,8.25Z"/><path class="cls-1" d="M16.5,12.405v6a37.022,37.022,0,0,1-4.5.345,37.022,37.022,0,0,1-4.5-.345v-6a37.022,37.022,0,0,0,4.5.345A37.022,37.022,0,0,0,16.5,12.405Z"/></svg>