<svg xmlns="http://www.w3.org/2000/svg" viewBox="0 0 24 24"><defs><style>.a{fill:none;stroke:currentColor;stroke-linecap:round;stroke-linejoin:round;stroke-width:1.5px;}</style></defs><title>measure-ruler-divider</title><line class="a" x1="3.988" y1="20.291" x2="3.491" y2="23.25"/><line class="a" x1="11.995" y1="20.291" x2="12.491" y2="23.25"/><polyline class="a" points="5.045 6.43 2.509 20.043 5.467 20.54 7.659 8.982"/><polyline class="a" points="8.324 8.981 10.515 20.54 13.474 20.043 10.95 6.5"/><path class="a" d="M10.991,6a3,3,0,0,1-3.5,2.959,3.112,3.112,0,0,1-2.5-3.119V4.5a.75.75,0,0,1,.75-.75h4.5a.75.75,0,0,1,.75.75Z"/><line class="a" x1="7.991" y1="3.75" x2="7.991" y2="0.75"/><path class="a" d="M15.491,23.25h4.5a1.5,1.5,0,0,0,1.5-1.5V2.25a1.5,1.5,0,0,0-1.5-1.5h-4.5a1.5,1.5,0,0,0-1.5,1.5V7.5"/><line class="a" x1="18.491" y1="5.25" x2="21.491" y2="5.25"/><line class="a" x1="18.491" y1="9.75" x2="21.491" y2="9.75"/><line class="a" x1="18.491" y1="14.25" x2="21.491" y2="14.25"/><line class="a" x1="18.491" y1="18.75" x2="21.491" y2="18.75"/></svg>