<svg xmlns="http://www.w3.org/2000/svg" viewBox="0 0 24 24"><defs><style>.a{fill:none;stroke:currentColor;stroke-linecap:round;stroke-linejoin:round;stroke-width:1.5px;}</style></defs><title>measure-ruler-corner</title><path class="a" d="M.75,5.25v4.5a1.5,1.5,0,0,0,1.5,1.5h15v7.5a1.5,1.5,0,0,0,1.5,1.5h3a1.5,1.5,0,0,0,1.5-1.5v-15h-21A1.5,1.5,0,0,0,.75,5.25Z"/><line class="a" x1="17.25" y1="11.25" x2="23.25" y2="3.75"/><line class="a" x1="3.75" y1="9" x2="3.75" y2="11.25"/><line class="a" x1="8.25" y1="9" x2="8.25" y2="11.25"/><line class="a" x1="12.75" y1="9" x2="12.75" y2="11.25"/><line class="a" x1="6" y1="3.75" x2="6" y2="6"/><line class="a" x1="10.5" y1="3.75" x2="10.5" y2="6"/><line class="a" x1="15" y1="3.75" x2="15" y2="6"/></svg>