<svg id="Regular" xmlns="http://www.w3.org/2000/svg" viewBox="0 0 24 24"><defs><style>.cls-1{fill:none;stroke:currentColor;stroke-linecap:round;stroke-linejoin:round;stroke-width:1.5px;}</style></defs><title>medical-nanobots</title><path class="cls-1" d="M15.709,7.5l-3.75,2.25L8.209,7.5V3.85a1.5,1.5,0,0,1,.728-1.286l2.25-1.35a1.5,1.5,0,0,1,1.544,0l2.25,1.35a1.5,1.5,0,0,1,.728,1.286Z"/><line class="cls-1" x1="11.959" y1="9.751" x2="11.959" y2="12.751"/><path class="cls-1" d="M8.209,7.5l-1,.668a1.5,1.5,0,0,0-.416,2.08l.668,1"/><path class="cls-1" d="M15.709,7.5l1,.668a1.5,1.5,0,0,1,.416,2.08l-.668,1"/><line class="cls-1" x1="11.209" y1="5.251" x2="12.709" y2="5.251"/><path class="cls-1" d="M21.381,18.985l-3.047,1.828-3.047-1.828V15.754a.751.751,0,0,1,.364-.644l2.3-1.378a.753.753,0,0,1,.772,0l2.3,1.378a.751.751,0,0,1,.364.644Z"/><line class="cls-1" x1="18.334" y1="20.813" x2="18.334" y2="23.251"/><path class="cls-1" d="M15.287,18.985l-1.2.8a.75.75,0,0,0-.208,1.04l.8,1.2"/><path class="cls-1" d="M21.381,18.985l1.2.8a.75.75,0,0,1,.208,1.04l-.8,1.2"/><line class="cls-1" x1="17.724" y1="17.157" x2="18.943" y2="17.157"/><path class="cls-1" d="M8.631,18.985,5.584,20.813,2.537,18.985V15.754A.751.751,0,0,1,2.9,15.11l2.3-1.378a.753.753,0,0,1,.772,0l2.3,1.378a.752.752,0,0,1,.365.644Z"/><line class="cls-1" x1="5.584" y1="20.813" x2="5.584" y2="23.251"/><path class="cls-1" d="M2.537,18.985l-1.2.8a.75.75,0,0,0-.208,1.04l.8,1.2"/><path class="cls-1" d="M8.631,18.985l1.2.8a.75.75,0,0,1,.208,1.04l-.8,1.2"/><line class="cls-1" x1="4.974" y1="17.157" x2="6.193" y2="17.157"/></svg>