<svg id="Regular" xmlns="http://www.w3.org/2000/svg" viewBox="0 0 24 24"><defs><style>.cls-1{fill:none;stroke:currentColor;stroke-linecap:round;stroke-linejoin:round;stroke-width:1.5px;}</style></defs><title>medical-instrument-tweezers-2</title><path class="cls-1" d="M12.48,5.56,7.192,21.7a2.245,2.245,0,1,1-4.267-1.4,2.318,2.318,0,0,1,.1-.252L10.353,4.376a1.215,1.215,0,0,1,.411-.529L14.722.978a1.2,1.2,0,1,1,1.406,1.939Z"/><path class="cls-1" d="M9.9,13.437l6.336-5.884a1.224,1.224,0,0,1,.58-.336l4.746-1.171a1.2,1.2,0,0,1,.574,2.325L17.763,9.45,6.8,22.424"/></svg>