<svg id="Regular" xmlns="http://www.w3.org/2000/svg" viewBox="0 0 24 24"><defs><style>.cls-1{fill:none;stroke:currentColor;stroke-linecap:round;stroke-linejoin:round;stroke-width:1.5px;}</style></defs><title>medical-ribbon-cancer</title><path class="cls-1" d="M7.828,17.723A25.137,25.137,0,0,1,4.25,18.75l1.5,4.5a25.251,25.251,0,0,0,6.75-2.232"/><path class="cls-1" d="M19.3,14.893A12.086,12.086,0,0,0,20.75,9,8.25,8.25,0,0,0,4.25,9c0,12,15,14.25,15,14.25l1.5-4.5S8.75,16.5,8.75,9A3.5,3.5,0,0,1,12.5,5.25,3.5,3.5,0,0,1,16.25,9a6.717,6.717,0,0,1-1.327,4.005"/></svg>