<svg id="Regular" xmlns="http://www.w3.org/2000/svg" viewBox="0 0 24 24"><defs><style>.cls-1{fill:none;stroke:currentColor;stroke-linecap:round;stroke-linejoin:round;stroke-width:1.5px;}</style></defs><title>medical-app-laptop-1</title><path class="cls-1" d="M2.25,16.5V4.5A1.5,1.5,0,0,1,3.75,3h16.5a1.5,1.5,0,0,1,1.5,1.5v12"/><path class="cls-1" d="M14.986,16.5a.752.752,0,0,0-.6.3,2.97,2.97,0,0,1-4.77,0,.752.752,0,0,0-.6-.3H.75V18a3,3,0,0,0,3,3h16.5a3,3,0,0,0,3-3V16.5Z"/><path class="cls-1" d="M15.75,9A.75.75,0,0,0,15,8.25H13.5V6.75A.75.75,0,0,0,12.75,6h-1.5a.75.75,0,0,0-.75.75v1.5H9A.75.75,0,0,0,8.25,9v1.5a.75.75,0,0,0,.75.75h1.5v1.5a.75.75,0,0,0,.75.75h1.5a.75.75,0,0,0,.75-.75v-1.5H15a.75.75,0,0,0,.75-.75Z"/></svg>