<svg id="Regular" xmlns="http://www.w3.org/2000/svg" viewBox="0 0 24 24"><defs><style>.cls-1{fill:none;stroke:currentColor;stroke-linecap:round;stroke-linejoin:round;stroke-width:1.5px;}</style></defs><title>medical-condition-flu</title><path class="cls-1" d="M19.151,23.25V16.985A9.365,9.365,0,0,0,12.776.75C5.637.75,4.1,6.628,1.551,13.23a.751.751,0,0,0,.7,1.02h1.9v3a3,3,0,0,0,3,3h1.5v3"/><path class="cls-1" d="M8.651,14.625A.375.375,0,0,1,9.026,15"/><path class="cls-1" d="M8.276,15a.375.375,0,0,1,.375-.375"/><path class="cls-1" d="M8.651,15.375A.375.375,0,0,1,8.276,15"/><path class="cls-1" d="M9.026,15a.375.375,0,0,1-.375.375"/><path class="cls-1" d="M11.651,10.875a.375.375,0,0,1,.375.375"/><path class="cls-1" d="M11.276,11.25a.375.375,0,0,1,.375-.375"/><path class="cls-1" d="M11.651,11.625a.375.375,0,0,1-.375-.375"/><path class="cls-1" d="M12.026,11.25a.375.375,0,0,1-.375.375"/><path class="cls-1" d="M13.9,14.625a.375.375,0,0,1,.375.375"/><path class="cls-1" d="M13.526,15a.375.375,0,0,1,.375-.375"/><path class="cls-1" d="M13.9,15.375A.375.375,0,0,1,13.526,15"/><path class="cls-1" d="M14.276,15a.375.375,0,0,1-.375.375"/></svg>