<svg id="Regular" xmlns="http://www.w3.org/2000/svg" viewBox="0 0 24 24"><defs><style>.cls-1{fill:none;stroke:currentColor;stroke-linecap:round;stroke-linejoin:round;stroke-width:1.5px;}</style></defs><title>medical-instrument-walking-aid</title><path class="cls-1" d="M14.422,3.75a1.5,1.5,0,0,1,0-3h6a1.5,1.5,0,0,1,0,3Z"/><circle class="cls-1" cx="19.672" cy="21" r="2.25"/><path class="cls-1" d="M5.939,22.318a.75.75,0,0,1-.728.932H2.633a.75.75,0,0,1-.728-.932l.375-1.5a.749.749,0,0,1,.728-.568H4.836a.749.749,0,0,1,.728.568Z"/><path class="cls-1" d="M3.922,20.25,6.3,6.01a4.5,4.5,0,0,1,4.439-3.76h2.188"/><path class="cls-1" d="M5.172,12.75h9.987a3,3,0,0,1,2.885,2.176l.948,3.93"/></svg>