<svg id="Regular" xmlns="http://www.w3.org/2000/svg" viewBox="0 0 24 24"><defs><style>.cls-1{fill:none;stroke:currentColor;stroke-linecap:round;stroke-linejoin:round;stroke-width:1.5px;}</style></defs><title>medical-specialty-heart</title><path class="cls-1" d="M.75,2.25,3.716,6.912A7.794,7.794,0,0,0,3,11.25c.75,6.75,4.5,12,9,12s8.25-5.25,9-12a7.794,7.794,0,0,0-.716-4.338L23.25,2.25"/><path class="cls-1" d="M9.75.75V2.481A9.469,9.469,0,0,0,6.479,3.822L5.25.75"/><path class="cls-1" d="M18.75.75,17.521,3.822A9.469,9.469,0,0,0,14.25,2.481V.75"/><path class="cls-1" d="M15.655,2.884l-.009.007s-2.5,2.139-.724,4.327"/><path class="cls-1" d="M20.779,12.75s-5.765-1.7-6.495,1.716"/><path class="cls-1" d="M3,11.25s5.8.344,5.921-2.117"/><line class="cls-1" x1="6.867" y1="10.917" x2="8.921" y2="12.75"/><path class="cls-1" d="M8.41,22.073l0-.012S9.9,18.7,12,18.7"/></svg>