<svg id="Regular" xmlns="http://www.w3.org/2000/svg" viewBox="0 0 24 24"><defs><style>.cls-1{fill:none;stroke:currentColor;stroke-linecap:round;stroke-linejoin:round;stroke-width:1.5px;}</style></defs><title>medical-file</title><path class="cls-1" d="M4.636.75A1.573,1.573,0,0,0,3,2.25v19.5a1.573,1.573,0,0,0,1.636,1.5H19.364A1.573,1.573,0,0,0,21,21.75V5.871a1.438,1.438,0,0,0-.479-1.06L16.57,1.189A1.716,1.716,0,0,0,15.413.75Z"/><path class="cls-1" d="M16.5,13.5a.75.75,0,0,0-.75-.75H13.5V10.5a.75.75,0,0,0-.75-.75h-1.5a.75.75,0,0,0-.75.75v2.25H8.25a.75.75,0,0,0-.75.75V15a.75.75,0,0,0,.75.75H10.5V18a.75.75,0,0,0,.75.75h1.5A.75.75,0,0,0,13.5,18V15.75h2.25A.75.75,0,0,0,16.5,15Z"/><path class="cls-1" d="M15,.75V5.036A1.715,1.715,0,0,0,16.714,6.75H21"/></svg>