<svg id="Regular" xmlns="http://www.w3.org/2000/svg" viewBox="0 0 24 24"><defs><style>.cls-1{fill:none;stroke:currentColor;stroke-linecap:round;stroke-linejoin:round;stroke-width:1.5px;}</style></defs><title>medical-specialty</title><path class="cls-1" d="M.75,23.25H6a3.75,3.75,0,0,0,0-7.5H.75"/><line class="cls-1" x1="0.75" y1="19.5" x2="6.75" y2="19.5"/><path class="cls-1" d="M6,15.75H19.5a3.75,3.75,0,0,1,0,7.5H6"/><line class="cls-1" x1="17.25" y1="15.75" x2="17.25" y2="23.25"/><line class="cls-1" x1="14.25" y1="15.75" x2="14.25" y2="23.25"/><line class="cls-1" x1="9" y1="0.75" x2="12" y2="0.75"/><line class="cls-1" x1="10.5" y1="0.75" x2="10.5" y2="11.25"/><line class="cls-1" x1="6.75" y1="11.25" x2="14.25" y2="11.25"/><path class="cls-1" d="M3.75.75a3,3,0,0,1,3,3,3.75,3.75,0,0,0,7.5,0,3,3,0,0,1,3-3"/></svg>