<svg id="Regular" xmlns="http://www.w3.org/2000/svg" viewBox="0 0 24 24"><defs><style>.cls-1{fill:none;stroke:currentColor;stroke-linecap:round;stroke-linejoin:round;stroke-width:1.5px;}</style></defs><title>medical-condition-head-dizziness</title><path class="cls-1" d="M19.25,23.225V16.96a9.362,9.362,0,0,0,2.812-8.735"/><path class="cls-1" d="M3.576,8.225c-.653,1.546-1.254,3.238-1.926,4.98a.751.751,0,0,0,.7,1.02h1.9v3a3,3,0,0,0,3,3h1.5v3"/><path class="cls-1" d="M18.5,1.36c2.283.549,3.75,1.4,3.75,2.365,0,1.657-4.365,3-9.75,3"/><path class="cls-1" d="M5,5.642c-1.4-.52-2.25-1.188-2.25-1.917,0-1.657,4.365-3,9.75-3"/><path class="cls-1" d="M15.5,1.1a.375.375,0,0,1,.375.375"/><path class="cls-1" d="M15.125,1.475A.375.375,0,0,1,15.5,1.1"/><path class="cls-1" d="M15.5,1.85a.375.375,0,0,1-.375-.375"/><path class="cls-1" d="M15.875,1.475a.375.375,0,0,1-.375.375"/><path class="cls-1" d="M8.75,5.6a.375.375,0,0,1,.375.375"/><path class="cls-1" d="M8.375,5.975A.375.375,0,0,1,8.75,5.6"/><path class="cls-1" d="M8.75,6.35a.375.375,0,0,1-.375-.375"/><path class="cls-1" d="M9.125,5.975a.375.375,0,0,1-.375.375"/></svg>