<svg id="Regular" xmlns="http://www.w3.org/2000/svg" viewBox="0 0 24 24"><defs><style>.cls-1{fill:none;stroke:currentColor;stroke-linecap:round;stroke-linejoin:round;stroke-width:1.5px;}</style></defs><title>medical-personnel-nurse</title><circle class="cls-1" cx="17.25" cy="10.5" r="3"/><path class="cls-1" d="M23.25,19.5a4.5,4.5,0,0,0-4.5-4.5h-3a4.5,4.5,0,0,0-4.5,4.5"/><line class="cls-1" x1="0.75" y1="22.5" x2="23.25" y2="22.5"/><path class="cls-1" d="M14.789,8.784l-2.1-2.74a7.5,7.5,0,0,1,9.129.01L19.716,8.792"/><path class="cls-1" d="M9,4.5H6.75V2.25A.75.75,0,0,0,6,1.5H4.5a.75.75,0,0,0-.75.75V4.5H1.5a.75.75,0,0,0-.75.75v1.5a.75.75,0,0,0,.75.75H3.75V9.75a.75.75,0,0,0,.75.75H6a.75.75,0,0,0,.75-.75V7.5H9a.75.75,0,0,0,.75-.75V5.25A.75.75,0,0,0,9,4.5Z"/></svg>