<svg id="Regular" xmlns="http://www.w3.org/2000/svg" viewBox="0 0 24 24"><defs><style>.cls-1{fill:none;stroke:currentColor;stroke-linecap:round;stroke-linejoin:round;stroke-width:1.5px;}</style></defs><title>medical-app-tablet</title><path class="cls-1" d="M15.692,14.25,14.019,13a1.569,1.569,0,0,0-2.247.385h0a1.569,1.569,0,0,0,0,1.74l1.645,2.467a4.5,4.5,0,0,0,2.073,1.682l2.452.981V22.5"/><path class="cls-1" d="M14.942,9c5.108,2.189,7.5,2.058,7.5,13.5"/><path class="cls-1" d="M11.942,21H4.5a3,3,0,0,1-3-3V4.5a3,3,0,0,1,3-3h7.442a3,3,0,0,1,3,3v6"/><line class="cls-1" x1="8.25" y1="6.019" x2="8.25" y2="12.019"/><line class="cls-1" x1="5.25" y1="9.019" x2="11.25" y2="9.019"/></svg>