<svg id="Regular" xmlns="http://www.w3.org/2000/svg" viewBox="0 0 24 24"><defs><style>.cls-1{fill:none;stroke:currentColor;stroke-linecap:round;stroke-linejoin:round;stroke-width:1.5px;}</style></defs><title>medical-instrument-scalpel-cut</title><path class="cls-1" d="M22.1,4.964a2.25,2.25,0,0,0-2.2-3.927L3.538,10.191l.754,1.348A3,3,0,0,0,7.527,13.01l9.146-1.923a.75.75,0,0,0,.5-1.1l-.967-1.728Z"/><line class="cls-1" x1="15.319" y1="3.6" x2="21.444" y2="5.33"/><line class="cls-1" x1="0.75" y1="19.5" x2="23.25" y2="19.5"/><path class="cls-1" d="M2.25,22.125a.375.375,0,0,1,.375.375"/><path class="cls-1" d="M1.875,22.5a.375.375,0,0,1,.375-.375"/><path class="cls-1" d="M2.25,22.875a.375.375,0,0,1-.375-.375"/><path class="cls-1" d="M2.625,22.5a.375.375,0,0,1-.375.375"/><path class="cls-1" d="M21.75,22.125a.375.375,0,0,1,.375.375"/><path class="cls-1" d="M21.375,22.5a.375.375,0,0,1,.375-.375"/><path class="cls-1" d="M21.75,22.875a.375.375,0,0,1-.375-.375"/><path class="cls-1" d="M22.125,22.5a.375.375,0,0,1-.375.375"/><path class="cls-1" d="M15,22.125a.375.375,0,0,1,.375.375"/><path class="cls-1" d="M14.625,22.5A.375.375,0,0,1,15,22.125"/><path class="cls-1" d="M15,22.875a.375.375,0,0,1-.375-.375"/><path class="cls-1" d="M15.375,22.5a.375.375,0,0,1-.375.375"/><path class="cls-1" d="M8.25,22.125a.375.375,0,0,1,.375.375"/><path class="cls-1" d="M7.875,22.5a.375.375,0,0,1,.375-.375"/><path class="cls-1" d="M8.25,22.875a.375.375,0,0,1-.375-.375"/><path class="cls-1" d="M8.625,22.5a.375.375,0,0,1-.375.375"/><path class="cls-1" d="M2.25,16.875a.375.375,0,0,0,.375-.375"/><path class="cls-1" d="M1.875,16.5a.375.375,0,0,0,.375.375"/><path class="cls-1" d="M2.25,16.125a.375.375,0,0,0-.375.375"/><path class="cls-1" d="M2.625,16.5a.375.375,0,0,0-.375-.375"/><path class="cls-1" d="M21.75,16.875a.375.375,0,0,0,.375-.375"/><path class="cls-1" d="M21.375,16.5a.375.375,0,0,0,.375.375"/><path class="cls-1" d="M21.75,16.125a.375.375,0,0,0-.375.375"/><path class="cls-1" d="M22.125,16.5a.375.375,0,0,0-.375-.375"/><path class="cls-1" d="M15,16.875a.375.375,0,0,0,.375-.375"/><path class="cls-1" d="M14.625,16.5a.375.375,0,0,0,.375.375"/><path class="cls-1" d="M15,16.125a.375.375,0,0,0-.375.375"/><path class="cls-1" d="M15.375,16.5A.375.375,0,0,0,15,16.125"/><path class="cls-1" d="M8.25,16.875a.375.375,0,0,0,.375-.375"/><path class="cls-1" d="M7.875,16.5a.375.375,0,0,0,.375.375"/><path class="cls-1" d="M8.25,16.125a.375.375,0,0,0-.375.375"/><path class="cls-1" d="M8.625,16.5a.375.375,0,0,0-.375-.375"/></svg>