<svg id="Regular" xmlns="http://www.w3.org/2000/svg" viewBox="0 0 24 24"><defs><style>.cls-1{fill:none;stroke:currentColor;stroke-linecap:round;stroke-linejoin:round;stroke-width:1.5px;}</style></defs><title>medical-specialty-ear</title><path class="cls-1" d="M10.147,15A3.5,3.5,0,0,0,9.7,17.25a10.955,10.955,0,0,1-.046,2.416A4.5,4.5,0,0,1,.75,18.75"/><path class="cls-1" d="M.75,6A6.5,6.5,0,0,1,6.049.9,6.762,6.762,0,0,1,13.113,3.75"/><path class="cls-1" d="M3.942,7.67A2.751,2.751,0,0,1,8.25,5.759"/><path class="cls-1" d="M15.75,6.75h6.5a1,1,0,0,1,1,1v4a1,1,0,0,1-1,1h-6.5a0,0,0,0,1,0,0v-6A0,0,0,0,1,15.75,6.75Z"/><path class="cls-1" d="M23.25,23.25v-1.5a1.5,1.5,0,0,0-1.5-1.5h-4.5a1.5,1.5,0,0,0-1.5,1.5v1.5"/><line class="cls-1" x1="19.5" y1="12.75" x2="19.5" y2="20.25"/><path class="cls-1" d="M9.75,11.25a11.541,11.541,0,0,1,6,1.5v-6a11.541,11.541,0,0,1-6,1.5Z"/></svg>