<svg id="Regular" xmlns="http://www.w3.org/2000/svg" viewBox="0 0 24 24"><defs><style>.cls-1{fill:none;stroke:currentColor;stroke-linecap:round;stroke-linejoin:round;stroke-width:1.5px;}</style></defs><title>medical-app-smartphone-1</title><path class="cls-1" d="M13.5,17.25v3.267a2.732,2.732,0,0,1-2.733,2.733H4.233A2.732,2.732,0,0,1,1.5,20.517V4.983A2.732,2.732,0,0,1,4.233,2.25H9"/><line class="cls-1" x1="1.5" y1="18.769" x2="13.5" y2="18.769"/><path class="cls-1" d="M22.5,6a.75.75,0,0,0-.75-.75H18V1.5a.75.75,0,0,0-.75-.75h-3a.75.75,0,0,0-.75.75V5.25H9.75A.75.75,0,0,0,9,6V9a.75.75,0,0,0,.75.75H13.5V13.5a.75.75,0,0,0,.75.75h3A.75.75,0,0,0,18,13.5V9.75h3.75A.75.75,0,0,0,22.5,9Z"/></svg>