<svg id="Regular" xmlns="http://www.w3.org/2000/svg" viewBox="0 0 24 24"><defs><style>.cls-1{fill:none;stroke:currentColor;stroke-linecap:round;stroke-linejoin:round;stroke-width:1.5px;}</style></defs><title>medical-specialty-back</title><circle class="cls-1" cx="12" cy="3.375" r="2.625"/><circle class="cls-1" cx="20.25" cy="20.25" r="3"/><line class="cls-1" x1="3.75" y1="15.75" x2="3.75" y2="18.75"/><line class="cls-1" x1="12" y1="15.75" x2="12" y2="18.75"/><path class="cls-1" d="M14.25,11.379l-.311.31a1.5,1.5,0,0,0,2.122,2.122l.75-.75A1.5,1.5,0,0,0,17.25,12V10.5a3,3,0,0,0-3-3H9.75a3,3,0,0,0-3,3V12a1.5,1.5,0,0,0,.439,1.061l.75.75a1.5,1.5,0,0,0,2.122-2.122l-.311-.31"/><path class="cls-1" d="M.75,18.75H13.5a2.25,2.25,0,0,1,0,4.5H.75"/></svg>