<svg id="Regular" xmlns="http://www.w3.org/2000/svg" viewBox="0 0 24 24"><defs><style>.cls-1{fill:none;stroke:currentColor;stroke-linecap:round;stroke-linejoin:round;stroke-width:1.5px;}</style></defs><title>medical-specialty-skin</title><line class="cls-1" x1="23.25" y1="4.875" x2="0.75" y2="4.875"/><path class="cls-1" d="M1.525,17.25a.375.375,0,0,1,.375.375"/><path class="cls-1" d="M1.15,17.625a.375.375,0,0,1,.375-.375"/><path class="cls-1" d="M1.525,18a.375.375,0,0,1-.375-.375"/><path class="cls-1" d="M1.9,17.625A.375.375,0,0,1,1.525,18"/><path class="cls-1" d="M4.525,13.5a.375.375,0,0,1,.375.375"/><path class="cls-1" d="M4.15,13.875a.375.375,0,0,1,.375-.375"/><path class="cls-1" d="M4.525,14.25a.375.375,0,0,1-.375-.375"/><path class="cls-1" d="M4.9,13.875a.375.375,0,0,1-.375.375"/><path class="cls-1" d="M8.275,17.25a.375.375,0,0,1,.375.375"/><path class="cls-1" d="M7.9,17.625a.375.375,0,0,1,.375-.375"/><path class="cls-1" d="M8.275,18a.375.375,0,0,1-.375-.375"/><path class="cls-1" d="M8.65,17.625A.375.375,0,0,1,8.275,18"/><path class="cls-1" d="M22.525,17.25a.375.375,0,0,0-.375.375"/><path class="cls-1" d="M22.9,17.625a.375.375,0,0,0-.375-.375"/><path class="cls-1" d="M22.525,18a.375.375,0,0,0,.375-.375"/><path class="cls-1" d="M22.15,17.625a.375.375,0,0,0,.375.375"/><path class="cls-1" d="M19.525,13.5a.375.375,0,0,0-.375.375"/><path class="cls-1" d="M19.9,13.875a.375.375,0,0,0-.375-.375"/><path class="cls-1" d="M19.525,14.25a.375.375,0,0,0,.375-.375"/><path class="cls-1" d="M19.15,13.875a.375.375,0,0,0,.375.375"/><path class="cls-1" d="M15.775,17.25a.375.375,0,0,0-.375.375"/><path class="cls-1" d="M16.15,17.625a.375.375,0,0,0-.375-.375"/><path class="cls-1" d="M15.775,18a.375.375,0,0,0,.375-.375"/><path class="cls-1" d="M15.4,17.625a.375.375,0,0,0,.375.375"/><path class="cls-1" d="M12.025,13.5a.375.375,0,0,1,.375.375"/><path class="cls-1" d="M11.65,13.875a.375.375,0,0,1,.375-.375"/><path class="cls-1" d="M12.025,14.25a.375.375,0,0,1-.375-.375"/><path class="cls-1" d="M12.4,13.875a.375.375,0,0,1-.375.375"/><path class="cls-1" d="M23.25,10.9c-1.93-1.228-5.155-3.8-8.825-1.05a4,4,0,0,1-4.8,0l0,0C6.057,7.176,2.939,9.509.75,10.9"/></svg>