<svg id="Regular" xmlns="http://www.w3.org/2000/svg" viewBox="0 0 24 24"><defs><style>.cls-1{fill:none;stroke:currentColor;stroke-linecap:round;stroke-linejoin:round;stroke-width:1.5px;}</style></defs><title>medical-condition-cough</title><path class="cls-1" d="M20.554,22.378v-5.63A8.415,8.415,0,0,0,14.826,2.16c-6.414,0-7.8,5.282-10.086,11.214a.675.675,0,0,0,.629.917H7.076v2.7a2.7,2.7,0,0,0,2.7,2.7H11.12v2.7"/><path class="cls-1" d="M4.071,21.329a.375.375,0,0,1,.375.375"/><path class="cls-1" d="M3.7,21.7a.375.375,0,0,1,.375-.375"/><path class="cls-1" d="M4.071,22.079A.375.375,0,0,1,3.7,21.7"/><path class="cls-1" d="M4.446,21.7a.375.375,0,0,1-.375.375"/><path class="cls-1" d="M1.375,17.959a.375.375,0,0,1,.375.375"/><path class="cls-1" d="M1,18.334a.375.375,0,0,1,.375-.375"/><path class="cls-1" d="M1.375,18.709A.375.375,0,0,1,1,18.334"/><path class="cls-1" d="M1.75,18.334a.375.375,0,0,1-.375.375"/><path class="cls-1" d="M4.745,17.285a.375.375,0,0,1,.375.375"/><path class="cls-1" d="M4.37,17.66a.374.374,0,0,1,.375-.375"/><path class="cls-1" d="M4.745,18.035a.374.374,0,0,1-.375-.375"/><path class="cls-1" d="M5.12,17.66a.375.375,0,0,1-.375.375"/></svg>