<svg id="Regular" xmlns="http://www.w3.org/2000/svg" viewBox="0 0 24 24"><defs><style>.cls-1{fill:none;stroke:currentColor;stroke-linecap:round;stroke-linejoin:round;stroke-width:1.5px;}</style></defs><title>medical-nanobot-syringe</title><path class="cls-1" d="M21.08,7.257l-3.75,2.25-3.75-2.25V3.606a1.5,1.5,0,0,1,.728-1.286L16.558.97A1.5,1.5,0,0,1,18.1.97l2.25,1.35a1.5,1.5,0,0,1,.728,1.286Z"/><line class="cls-1" x1="17.33" y1="9.507" x2="17.33" y2="12.507"/><path class="cls-1" d="M13.58,7.257l-1,.668a1.5,1.5,0,0,0-.416,2.08l.668,1"/><path class="cls-1" d="M21.08,7.257l1,.668a1.5,1.5,0,0,1,.416,2.08l-.668,1"/><line class="cls-1" x1="16.58" y1="5.007" x2="18.08" y2="5.007"/><path class="cls-1" d="M4.542,10.273l9.016,9.015a1.5,1.5,0,0,0,2.121,0l3.182-3.182a1.5,1.5,0,0,0,0-2.121"/><polyline class="cls-1" points="16.209 18.758 18.861 21.41 20.982 19.288 18.331 16.637"/><line class="cls-1" x1="22.574" y1="23.001" x2="19.922" y2="20.349"/><line class="cls-1" x1="9.819" y1="4.996" x2="2.951" y2="11.864"/><line class="cls-1" x1="2.421" y1="4.97" x2="6.133" y2="8.682"/><line class="cls-1" x1="8.255" y1="6.56" x2="4.542" y2="2.848"/><line class="cls-1" x1="6.133" y1="1.257" x2="0.83" y2="6.56"/></svg>