<svg id="Regular" xmlns="http://www.w3.org/2000/svg" viewBox="0 0 24 24"><defs><style>.cls-1{fill:none;stroke:currentColor;stroke-linecap:round;stroke-linejoin:round;stroke-width:1.5px;}</style></defs><title>medical-specialty-hearing-1</title><path class="cls-1" d="M9.75,6a6.5,6.5,0,0,1,5.3-5.1,6.758,6.758,0,0,1,8.2,6.6,7.951,7.951,0,0,1-2.835,6.115A3.831,3.831,0,0,0,18.7,17.25a10.955,10.955,0,0,1-.046,2.416A4.5,4.5,0,0,1,9.75,18.75"/><path class="cls-1" d="M12.942,7.67a2.75,2.75,0,1,1,5.457.682"/><polyline class="cls-1" points="0.75 11.25 2.25 11.25 4.5 8.25 6.75 14.25 9.75 11.25 11.25 11.25"/></svg>