<svg id="Regular" xmlns="http://www.w3.org/2000/svg" viewBox="0 0 24 24"><defs><style>.cls-1{fill:none;stroke:currentColor;stroke-linecap:round;stroke-linejoin:round;stroke-width:1.5px;}</style></defs><title>medical-specialty-broken-bone</title><path class="cls-1" d="M9.506,17.724a3.212,3.212,0,0,0-.36-.294l2.419-2.418a.751.751,0,0,0-.294-1.242l-.81-.27-.778-.778a.751.751,0,0,0-1.06,0L6.531,14.814a3.426,3.426,0,0,0-.294-.36,3.237,3.237,0,1,0-2.253,5.523,3.236,3.236,0,1,0,5.522-2.253Z"/><path class="cls-1" d="M16,4.571a3.231,3.231,0,0,0,.129.446L12.228,6a.751.751,0,0,0-.416,1.178l.565.751.187,1.019a.753.753,0,0,0,.932.589l3.3-.883a3.165,3.165,0,0,0,.038.463,3.237,3.237,0,1,0,4.99-3.265A3.235,3.235,0,1,0,16,4.571Z"/><line class="cls-1" x1="5.961" y1="5.25" x2="3.711" y2="3"/><line class="cls-1" x1="8.961" y1="3.75" x2="8.211" y2="1.5"/><line class="cls-1" x1="5.211" y1="8.25" x2="2.961" y2="8.25"/><line class="cls-1" x1="17.961" y1="18.75" x2="20.211" y2="21"/><line class="cls-1" x1="19.461" y1="15.75" x2="22.461" y2="15.75"/><line class="cls-1" x1="14.961" y1="20.25" x2="14.211" y2="22.5"/></svg>