<svg id="Regular" xmlns="http://www.w3.org/2000/svg" viewBox="0 0 24 24"><defs><style>.cls-1{fill:none;stroke:currentColor;stroke-linecap:round;stroke-linejoin:round;stroke-width:1.5px;}</style></defs><title>medical-app-smartphone</title><rect class="cls-1" x="5.25" y="0.75" width="13.5" height="22.5" rx="2.25" ry="2.25"/><line class="cls-1" x1="5.25" y1="18.75" x2="18.75" y2="18.75"/><path class="cls-1" d="M15.75,9A.75.75,0,0,0,15,8.25H13.5V6.75A.75.75,0,0,0,12.75,6h-1.5a.75.75,0,0,0-.75.75v1.5H9A.75.75,0,0,0,8.25,9v1.5a.75.75,0,0,0,.75.75h1.5v1.5a.75.75,0,0,0,.75.75h1.5a.75.75,0,0,0,.75-.75v-1.5H15a.75.75,0,0,0,.75-.75Z"/></svg>