<svg id="Regular" xmlns="http://www.w3.org/2000/svg" viewBox="0 0 24 24"><defs><style>.cls-1{fill:none;stroke:currentColor;stroke-linecap:round;stroke-linejoin:round;stroke-width:1.5px;}</style></defs><title>medical-nanobot-search</title><circle class="cls-1" cx="10.5" cy="10.501" r="9.75"/><line class="cls-1" x1="17.394" y1="17.395" x2="23.25" y2="23.251"/><path class="cls-1" d="M14.25,10.5l-3.75,2.25L6.75,10.5V6.85a1.5,1.5,0,0,1,.728-1.286l2.25-1.35a1.5,1.5,0,0,1,1.544,0l2.25,1.35A1.5,1.5,0,0,1,14.25,6.85Z"/><line class="cls-1" x1="10.5" y1="12.751" x2="10.5" y2="15.751"/><path class="cls-1" d="M6.75,10.5l-1,.668a1.5,1.5,0,0,0-.416,2.08l.668,1"/><path class="cls-1" d="M14.25,10.5l1,.668a1.5,1.5,0,0,1,.416,2.08l-.668,1"/><line class="cls-1" x1="9.75" y1="8.251" x2="11.25" y2="8.251"/></svg>