<svg id="Regular" xmlns="http://www.w3.org/2000/svg" viewBox="0 0 24 24"><defs><style>.cls-1{fill:none;stroke:currentColor;stroke-linecap:round;stroke-linejoin:round;stroke-width:1.5px;}</style></defs><title>medical-condition-sore-throat</title><path class="cls-1" d="M19.4,23.25V16.985A9.365,9.365,0,0,0,13.026.75C5.887.75,4.346,6.628,1.8,13.23a.751.751,0,0,0,.7,1.02H4.4v3a3,3,0,0,0,3,3H8.9v3"/><path class="cls-1" d="M11.9,21.375a.375.375,0,0,1,.375.375"/><path class="cls-1" d="M11.526,21.75a.375.375,0,0,1,.375-.375"/><path class="cls-1" d="M11.9,22.125a.375.375,0,0,1-.375-.375"/><path class="cls-1" d="M12.276,21.75a.375.375,0,0,1-.375.375"/><path class="cls-1" d="M15.651,20.625a.375.375,0,0,1,.375.375"/><path class="cls-1" d="M15.276,21a.375.375,0,0,1,.375-.375"/><path class="cls-1" d="M15.651,21.375A.375.375,0,0,1,15.276,21"/><path class="cls-1" d="M16.026,21a.375.375,0,0,1-.375.375"/><path class="cls-1" d="M12.651,17.625a.375.375,0,0,1,.375.375"/><path class="cls-1" d="M12.276,18a.375.375,0,0,1,.375-.375"/><path class="cls-1" d="M12.651,18.375A.375.375,0,0,1,12.276,18"/><path class="cls-1" d="M13.026,18a.375.375,0,0,1-.375.375"/></svg>