<svg id="Regular" xmlns="http://www.w3.org/2000/svg" viewBox="0 0 24 24"><defs><style>.cls-1{fill:none;stroke:currentColor;stroke-linecap:round;stroke-linejoin:round;stroke-width:1.5px;}</style></defs><title>medical-specialty-knee</title><path class="cls-1" d="M14.25.75l5.768,6.921a9,9,0,0,1,2.031,4.768l1.2,10.811"/><path class="cls-1" d="M.75,8.25l6.559,5.466a9,9,0,0,1,3.064,5.149l.877,4.385"/><path class="cls-1" d="M.75,1.063,11.168,11.35a2.25,2.25,0,0,0,3.164-3.2L6.75.75"/><path class="cls-1" d="M16.5,14.25a3.226,3.226,0,0,0-3,3A3.061,3.061,0,0,0,15.75,20V23.25H19.5S20.737,14.25,16.5,14.25Z"/><path class="cls-1" d="M17.25,9.75A2.2,2.2,0,0,1,18.75,12"/></svg>