<svg id="Regular" xmlns="http://www.w3.org/2000/svg" viewBox="0 0 24 24"><defs><style>.cls-1{fill:none;stroke:currentColor;stroke-linecap:round;stroke-linejoin:round;stroke-width:1.5px;}</style></defs><title>medical-specialty-intestine</title><path class="cls-1" d="M21.75,13.5a3.75,3.75,0,0,0-.942-6.515,3.75,3.75,0,1,0-6.323-3.793,3.749,3.749,0,0,0-4.97,0A3.75,3.75,0,1,0,3.192,6.985,3.75,3.75,0,0,0,2.25,13.5a3.75,3.75,0,1,0,4.5,0,3.749,3.749,0,0,0,.558-5.485,3.755,3.755,0,0,0,1.177-.707,3.751,3.751,0,0,0,7.03,0,3.755,3.755,0,0,0,1.177.707A3.749,3.749,0,0,0,17.25,13.5a3.745,3.745,0,0,0-1.436,2.314,3.75,3.75,0,1,0,4.372,4.372A3.749,3.749,0,0,0,21.75,13.5Z"/><line class="cls-1" x1="4.5" y1="20.25" x2="4.5" y2="23.25"/><path class="cls-1" d="M12.994,20.833C11.417,21.3,9.75,22.064,9.75,23.25"/></svg>