<svg id="Regular" xmlns="http://www.w3.org/2000/svg" viewBox="0 0 24 24"><defs><style>.cls-1{fill:none;stroke:currentColor;stroke-linecap:round;stroke-linejoin:round;stroke-width:1.5px;}</style></defs><title>medical-instrument-tweezers</title><path class="cls-1" d="M9.267,19.069a3,3,0,1,0,3.938-1.578A3,3,0,0,0,9.267,19.069Z"/><path class="cls-1" d="M9.267,19.069l1.756-4.1a12.037,12.037,0,0,1,2.7-3.919c2.385-2.3,5.81-4.1,8.558-4.194"/><path class="cls-1" d="M6.509,17.889A3,3,0,1,1,4.931,13.95,3,3,0,0,1,6.509,17.889Z"/><path class="cls-1" d="M22.8,6.506a.374.374,0,0,0-.492.2"/><path class="cls-1" d="M23,7a.374.374,0,0,0-.2-.492"/><path class="cls-1" d="M22.506,7.2A.375.375,0,0,0,23,7"/><path class="cls-1" d="M22.309,6.7a.375.375,0,0,0,.2.492"/><path class="cls-1" d="M6.509,17.889l1.316-3.076A3,3,0,0,1,10.478,13l1.654-.058a7.779,7.779,0,0,1,2.347-7.954c2.479-2.1,3.645-2.721,4.16-2.9"/><path class="cls-1" d="M19.155,1.682a.375.375,0,0,0-.492.2"/><path class="cls-1" d="M19.352,2.174a.376.376,0,0,0-.2-.492"/><path class="cls-1" d="M18.86,2.371a.374.374,0,0,0,.492-.2"/><path class="cls-1" d="M18.663,1.879a.373.373,0,0,0,.2.492"/></svg>