<svg id="Regular" xmlns="http://www.w3.org/2000/svg" viewBox="0 0 24 24"><defs><style>.cls-1{fill:none;stroke:currentColor;stroke-linecap:round;stroke-linejoin:round;stroke-width:1.5px;}</style></defs><title>medical-nanobot-pill</title><path class="cls-1" d="M21,7.251,17.25,9.5,13.5,7.251V3.6a1.5,1.5,0,0,1,.728-1.287l2.25-1.35a1.5,1.5,0,0,1,1.544,0l2.25,1.35A1.5,1.5,0,0,1,21,3.6Z"/><line class="cls-1" x1="17.25" y1="9.501" x2="17.25" y2="12.501"/><path class="cls-1" d="M13.5,7.251l-1,.668A1.5,1.5,0,0,0,12.082,10l.668,1"/><path class="cls-1" d="M21,7.251l1,.668A1.5,1.5,0,0,1,22.418,10l-.668,1"/><line class="cls-1" x1="16.5" y1="5.001" x2="18" y2="5.001"/><path class="cls-1" d="M17.266,14.646a4.895,4.895,0,0,1-6.922,6.922l-8.16-8.161A4.895,4.895,0,0,1,9.106,6.485"/><line class="cls-1" x1="10.458" y1="13.21" x2="6.222" y2="17.446"/><path class="cls-1" d="M10.344,17.612,11.828,19.1a2.1,2.1,0,0,0,2.966,0h0"/></svg>