<svg id="Regular" xmlns="http://www.w3.org/2000/svg" viewBox="0 0 24 24"><defs><style>.cls-1{fill:none;stroke:currentColor;stroke-linecap:round;stroke-linejoin:round;stroke-width:1.5px;}</style></defs><title>medical-specialty-vertebra</title><path class="cls-1" d="M15.41.75a4.038,4.038,0,0,1-3.16,1.385A4.038,4.038,0,0,1,9.09.75,2.63,2.63,0,0,0,7.75,2.885C7.75,4.542,9.765,6,12.25,6s4.5-1.458,4.5-3.115A2.63,2.63,0,0,0,15.41.75Z"/><line class="cls-1" x1="7.75" y1="2.885" x2="3.25" y2="4.385"/><line class="cls-1" x1="16.75" y1="2.885" x2="21.25" y2="4.385"/><path class="cls-1" d="M15.41,9.375a4.038,4.038,0,0,1-3.16,1.385A4.038,4.038,0,0,1,9.09,9.375,2.63,2.63,0,0,0,7.75,11.51c0,1.657,2.015,3.115,4.5,3.115s4.5-1.458,4.5-3.115A2.63,2.63,0,0,0,15.41,9.375Z"/><line class="cls-1" x1="7.75" y1="11.51" x2="3.25" y2="13.01"/><line class="cls-1" x1="16.75" y1="11.51" x2="21.25" y2="13.01"/><path class="cls-1" d="M15.41,18a4.038,4.038,0,0,1-3.16,1.385A4.038,4.038,0,0,1,9.09,18a2.63,2.63,0,0,0-1.34,2.135c0,1.657,2.015,3.115,4.5,3.115s4.5-1.458,4.5-3.115A2.63,2.63,0,0,0,15.41,18Z"/><line class="cls-1" x1="7.75" y1="20.135" x2="3.25" y2="21.635"/><line class="cls-1" x1="16.75" y1="20.135" x2="21.25" y2="21.635"/></svg>