<svg id="Regular" xmlns="http://www.w3.org/2000/svg" viewBox="0 0 24 24"><defs><style>.cls-1{fill:none;stroke:currentColor;stroke-linecap:round;stroke-linejoin:round;stroke-width:1.5px;}</style></defs><title>medical-specialty-hearing</title><path class="cls-1" d="M.75,6A6.5,6.5,0,0,1,6.049.9a6.758,6.758,0,0,1,8.2,6.6,7.951,7.951,0,0,1-2.835,6.115A3.831,3.831,0,0,0,9.7,17.25a10.955,10.955,0,0,1-.046,2.416A4.5,4.5,0,0,1,.75,18.75"/><path class="cls-1" d="M3.942,7.67A2.75,2.75,0,1,1,9.4,8.352"/><line class="cls-1" x1="23.25" y1="9.75" x2="18.75" y2="9.75"/><line class="cls-1" x1="18.75" y1="5.25" x2="21.75" y2="2.25"/><line class="cls-1" x1="18.75" y1="14.25" x2="21.75" y2="17.25"/></svg>