<svg id="Regular" xmlns="http://www.w3.org/2000/svg" viewBox="0 0 24 24"><defs><style>.cls-1{fill:none;stroke:currentColor;stroke-linecap:round;stroke-linejoin:round;stroke-width:1.5px;}</style></defs><title>medical-hospital-1</title><circle class="cls-1" cx="12.033" cy="3.434" r="2.684"/><path class="cls-1" d="M15.23,12.625a1.887,1.887,0,0,1,1.807,2.523"/><line class="cls-1" x1="12.033" y1="6.118" x2="12.033" y2="23.25"/><path class="cls-1" d="M14.494,4.5h7.889c2.677,0-1.2,6.453-6.772,4.3"/><path class="cls-1" d="M9.569,4.5H1.682c-2.676,0,1.2,6.453,6.772,4.3"/><path class="cls-1" d="M8.835,12.625A1.9,1.9,0,0,0,6.916,14.5a1.975,1.975,0,0,0,1.919,1.964h5.116a1.919,1.919,0,0,1,0,3.838H10.434a1.638,1.638,0,0,0-1.6,1.675,1.708,1.708,0,0,0,.531,1.247"/></svg>