<svg id="Regular" xmlns="http://www.w3.org/2000/svg" viewBox="0 0 24 24"><defs><style>.cls-1{fill:none;stroke:currentColor;stroke-linecap:round;stroke-linejoin:round;stroke-width:1.5px;}</style></defs><title>medical-room-clock-woman</title><circle class="cls-1" cx="5.25" cy="5.25" r="4.5"/><polyline class="cls-1" points="5.25 3 5.25 5.25 6.75 5.25"/><line class="cls-1" x1="23.25" y1="23.25" x2="23.25" y2="20.25"/><polyline class="cls-1" points="0.75 23.25 0.75 20.25 6.75 20.25"/><path class="cls-1" d="M8.25,20.25H6.75a1.5,1.5,0,0,1-1.138-.524l-4.5-5.25a1.5,1.5,0,0,1,2.276-1.952L7.44,17.25h.81"/><circle class="cls-1" cx="16.5" cy="4.875" r="2.625"/><path class="cls-1" d="M14.25,18.75h-3l1.5-4.5V12a3,3,0,0,1,3-3h1.5a3,3,0,0,1,3,3v2.25l1.5,4.5h-3v3a1.5,1.5,0,0,1-1.5,1.5h-1.5a1.5,1.5,0,0,1-1.5-1.5v-3"/></svg>