<svg id="Regular" xmlns="http://www.w3.org/2000/svg" viewBox="0 0 24 24"><defs><style>.cls-1{fill:none;stroke:currentColor;stroke-linecap:round;stroke-linejoin:round;stroke-width:1.5px;}</style></defs><title>medical-specialty-stomach</title><path class="cls-1" d="M5.25,23.25v-1.5a1.5,1.5,0,0,1,1.5-1.5c.75,0,.75,3,7.5,3s9-6,9-9c0-6.75-4.5-10.5-10.5-10.5a1.5,1.5,0,0,1-1.5-1.5V.75"/><path class="cls-1" d="M.75,23.25v-1.5a6.248,6.248,0,0,1,6-6c1.506,0,6.039-3.782,3.721-9.068"/><path class="cls-1" d="M6.75.75v1.5a4.505,4.505,0,0,0,4.5,4.5h1.5"/></svg>