<svg id="Regular" xmlns="http://www.w3.org/2000/svg" viewBox="0 0 24 24"><defs><style>.cls-1{fill:none;stroke:currentColor;stroke-linecap:round;stroke-linejoin:round;stroke-width:1.5px;}</style></defs><title>medical-specialty-liver</title><path class="cls-1" d="M3.068,20.25A2.318,2.318,0,0,1,.75,17.932V11.25A10.5,10.5,0,0,1,11.25.75h8.964A3.036,3.036,0,0,1,23.25,3.786a6,6,0,0,1-4.276,5.747l-7.62,2.286A7.5,7.5,0,0,0,6.8,15.648l-1.66,3.321A2.319,2.319,0,0,1,3.068,20.25Z"/><path class="cls-1" d="M5.165,18.92c2.173.143,6.085-.128,6.085-3.92,0,0,6.633,1.327,7.423-5.377"/><line class="cls-1" x1="8.25" y1="18.693" x2="8.25" y2="23.25"/><line class="cls-1" x1="11.25" y1="15" x2="11.25" y2="23.25"/><path class="cls-1" d="M14.25.75c-2.25,0-4.5,2.25-4.5,6"/></svg>