<svg id="Regular" xmlns="http://www.w3.org/2000/svg" viewBox="0 0 24 24"><defs><style>.cls-1{fill:none;stroke:currentColor;stroke-linecap:round;stroke-linejoin:round;stroke-width:1.5px;}</style></defs><title>medical-specialty-eye</title><path class="cls-1" d="M14.25,9a3.75,3.75,0,1,1-4.5,0"/><path class="cls-1" d="M15.75,5.941a18.86,18.86,0,0,1,7.071,4.944,1.663,1.663,0,0,1,0,2.226l0,0C20.2,16,16.031,18.816,12,18.749,7.969,18.816,3.8,16,1.179,13.114l0,0a1.663,1.663,0,0,1,0-2.226A18.852,18.852,0,0,1,8.25,5.941"/><line class="cls-1" x1="2.25" y1="23.25" x2="5.49" y2="16.701"/><line class="cls-1" x1="21.75" y1="23.25" x2="18.51" y2="16.701"/><line class="cls-1" x1="2.25" y1="0.75" x2="5.49" y2="7.299"/><line class="cls-1" x1="21.75" y1="0.75" x2="18.51" y2="7.299"/><line class="cls-1" x1="12" y1="0.75" x2="12" y2="2.25"/><line class="cls-1" x1="12" y1="5.25" x2="12" y2="6.75"/><line class="cls-1" x1="12" y1="9.75" x2="12" y2="11.25"/></svg>