<svg id="Regular" xmlns="http://www.w3.org/2000/svg" viewBox="0 0 24 24"><defs><style>.cls-1{fill:none;stroke:currentColor;stroke-linecap:round;stroke-linejoin:round;stroke-width:1.5px;}</style></defs><title>medical-specialty-optometrist</title><path class="cls-1" d="M10.5,9.75H9a1.5,1.5,0,0,1-1.5-1.5v-3A1.5,1.5,0,0,1,9,3.75h1.5"/><line class="cls-1" x1="7.5" y1="6.75" x2="10.5" y2="6.75"/><path class="cls-1" d="M17.25,17.25v4.5a1.5,1.5,0,0,1-1.5,1.5H2.25a1.5,1.5,0,0,1-1.5-1.5V2.25A1.5,1.5,0,0,1,2.25.75h13.5a1.5,1.5,0,0,1,1.5,1.5v3"/><line class="cls-1" x1="3.75" y1="12.75" x2="14.25" y2="12.75"/><line class="cls-1" x1="14.25" y1="8.25" x2="23.25" y2="17.25"/><line class="cls-1" x1="6.75" y1="15.75" x2="6.75" y2="18.75"/><polyline class="cls-1" points="9.75 15.75 12.75 15.75 9.75 18.75 12.75 18.75"/></svg>