<svg id="Regular" xmlns="http://www.w3.org/2000/svg" viewBox="0 0 24 24"><defs><style>.cls-1{fill:none;stroke:currentColor;stroke-linecap:round;stroke-linejoin:round;stroke-width:1.5px;}</style></defs><title>medical-nanobot-heart</title><path class="cls-1" d="M21.08,7.251,17.33,9.5l-3.75-2.25V3.6a1.5,1.5,0,0,1,.728-1.286l2.25-1.35a1.5,1.5,0,0,1,1.544,0l2.25,1.35A1.5,1.5,0,0,1,21.08,3.6Z"/><line class="cls-1" x1="17.33" y1="9.501" x2="17.33" y2="12.501"/><path class="cls-1" d="M13.58,7.251l-1,.668A1.5,1.5,0,0,0,12.162,10l.668,1"/><path class="cls-1" d="M21.08,7.251l1,.668A1.5,1.5,0,0,1,22.5,10l-.668,1"/><line class="cls-1" x1="16.58" y1="5.001" x2="18.08" y2="5.001"/><path class="cls-1" d="M15.669,14.751a3.767,3.767,0,0,1-.947,1.581L8.33,23,1.938,16.332a3.781,3.781,0,0,1-.709-4.365h0a3.782,3.782,0,0,1,6.057-.983L8.33,12.028l1.044-1.044"/></svg>