<svg id="Regular" xmlns="http://www.w3.org/2000/svg" viewBox="0 0 24 24"><defs><style>.cls-1{fill:none;stroke:currentColor;stroke-linecap:round;stroke-linejoin:round;stroke-width:1.5px;}</style></defs><title>medical-specialty-lungs</title><line class="cls-1" x1="12" y1="0.75" x2="12" y2="10.5"/><path class="cls-1" d="M8.25,6.13A1.5,1.5,0,0,0,5.64,5.121L4.651,6.209A15,15,0,0,0,.75,16.3V20.25a3,3,0,0,0,4.114,2.785l2.443-.977a1.5,1.5,0,0,0,.943-1.393Z"/><polyline class="cls-1" points="5.25 18 5.25 15.75 12 10.5"/><line class="cls-1" x1="5.25" y1="15.75" x2="3.75" y2="14.25"/><path class="cls-1" d="M15.75,6.13a1.5,1.5,0,0,1,2.61-1.009l.989,1.088a15,15,0,0,1,3.9,10.09V20.25a3,3,0,0,1-4.114,2.785l-2.443-.977a1.5,1.5,0,0,1-.943-1.393Z"/><polyline class="cls-1" points="18.75 18 18.75 15.75 12 10.5"/><line class="cls-1" x1="18.75" y1="15.75" x2="20.25" y2="14.25"/></svg>