<svg id="Regular" xmlns="http://www.w3.org/2000/svg" viewBox="0 0 24 24"><defs><style>.cls-1{fill:none;stroke:currentColor;stroke-linecap:round;stroke-linejoin:round;stroke-width:1.5px;}</style></defs><title>medical-app-smartphone-touch</title><path class="cls-1" d="M15.75,23.25l-2.929-2.344a1.638,1.638,0,0,1-.566-1.676h0a1.637,1.637,0,0,1,2.321-1.067l1.174.587V13.5a1.5,1.5,0,0,1,1.5-1.5h0a1.5,1.5,0,0,1,1.5,1.5v3l1.993.332a3,3,0,0,1,2.507,2.959V23.25"/><path class="cls-1" d="M11.25,23.25H3A2.25,2.25,0,0,1,.75,21V3A2.25,2.25,0,0,1,3,.75h9A2.25,2.25,0,0,1,14.25,3V9.75"/><line class="cls-1" x1="0.75" y1="18.75" x2="9.75" y2="18.75"/><path class="cls-1" d="M11.25,9a.75.75,0,0,0-.75-.75H9V6.75A.75.75,0,0,0,8.25,6H6.75A.75.75,0,0,0,6,6.75v1.5H4.5A.75.75,0,0,0,3.75,9v1.5a.75.75,0,0,0,.75.75H6v1.5a.75.75,0,0,0,.75.75h1.5A.75.75,0,0,0,9,12.75v-1.5h1.5a.75.75,0,0,0,.75-.75Z"/></svg>