<svg id="Regular" xmlns="http://www.w3.org/2000/svg" viewBox="0 0 24 24"><defs><style>.cls-1{fill:none;stroke:currentColor;stroke-linecap:round;stroke-linejoin:round;stroke-width:1.5px;}</style></defs><title>medical-hospital</title><path class="cls-1" d="M22.3,7.674l-1.473-2.6a1.459,1.459,0,0,0-2.012-.549L15,6.8V2.25A1.487,1.487,0,0,0,13.527.75H10.473A1.487,1.487,0,0,0,9,2.25V6.8L5.182,4.527a1.459,1.459,0,0,0-2.012.549L1.7,7.674a1.514,1.514,0,0,0,.539,2.049L6.109,12,2.237,14.277A1.514,1.514,0,0,0,1.7,16.326l1.472,2.6a1.459,1.459,0,0,0,2.012.549L9,17.2V21.75a1.51,1.51,0,0,0,1.5,1.5h3a1.51,1.51,0,0,0,1.5-1.5V17.2l3.818,2.277a1.459,1.459,0,0,0,2.012-.549l1.473-2.6a1.514,1.514,0,0,0-.539-2.049L17.892,12l3.872-2.277A1.514,1.514,0,0,0,22.3,7.674Z"/></svg>