<svg id="Regular" xmlns="http://www.w3.org/2000/svg" viewBox="0 0 24 24"><defs><style>.cls-1{fill:none;stroke:currentColor;stroke-linecap:round;stroke-linejoin:round;stroke-width:1.5px;fill-rule:evenodd;}</style></defs><title>meerkat</title><path class="cls-1" d="M10.751,13.5A8.282,8.282,0,0,0,8.5,8.25S7.988,5.171,10,4.5c2.25-.75.75-3.75.75-3.75h-4.5A2.48,2.48,0,0,0,3.825,3.036,1.483,1.483,0,0,0,2.5,4.5,1.5,1.5,0,0,0,4,6a1.424,1.424,0,0,0,.408-.083A7.6,7.6,0,0,1,4,10.5c-.75,2.25-2.122,7.189,0,8.25,1.5.75.75,4.5.75,4.5h1.5"/><path class="cls-1" d="M7,12a3.285,3.285,0,0,1,.75,2.25"/><path class="cls-1" d="M7.751,18s.75,1.5.75,5.25H10"/><path class="cls-1" d="M20.872,15.72a6.4,6.4,0,0,0-1.737-4.055s-.4-2.378,1.158-2.9c1.738-.579.579-2.9.579-2.9H17.4a1.917,1.917,0,0,0-1.874,1.765A1.145,1.145,0,0,0,14.5,8.769a1.1,1.1,0,0,0,1.474,1.1,5.869,5.869,0,0,1-.316,3.539c-.579,1.738-1.809,5.552-.171,6.372,1.159.579.58,3.475.58,3.475h1.158"/><path class="cls-1" d="M17.976,14.561a2.54,2.54,0,0,1,.579,1.738"/><path class="cls-1" d="M18.385,19.2a10.032,10.032,0,0,1,.579,4.055h1.158"/></svg>