<svg xmlns="http://www.w3.org/2000/svg" viewBox="0 0 24 24"><defs><style>.a{fill:none;stroke:currentColor;stroke-linecap:round;stroke-linejoin:round;stroke-width:1.5px;}</style></defs><title>meeting-smartphone-message</title><path class="a" d="M12.722,16.51l-.011,4.479a2.732,2.732,0,0,1-2.693,2.271H3.483A2.733,2.733,0,0,1,.75,20.528V4.993A2.734,2.734,0,0,1,3.483,2.26H9.75"/><path class="a" d="M6.75,19.885a.375.375,0,1,0,.375.375.375.375,0,0,0-.375-.375h0"/><path class="a" d="M3.75,14.26h0a3,3,0,0,1,3-3h0a3,3,0,0,1,3,3h0"/><circle class="a" cx="6.75" cy="9.01" r="2.25"/><path class="a" d="M18,.76a5.226,5.226,0,0,0-3.937,8.69l-.657,3.779,3.423-2.11A5.246,5.246,0,1,0,18,.76Z"/></svg>