<svg xmlns="http://www.w3.org/2000/svg" viewBox="0 0 24 24"><defs><style>.a{fill:none;stroke:currentColor;stroke-linecap:round;stroke-linejoin:round;stroke-width:1.5px;}</style></defs><title>meeting-smartphone-hold</title><path class="a" d="M22.125,23.25l-3-4.5V13.5c0-2-3.8-4.139-5.25-5.25"/><path class="a" d="M15.805,14.794,12.157,11.87a1.3,1.3,0,0,0-1.843,1.843L13.848,17.7v2.5c0,1.181,1.687,3.045,1.687,3.045"/><circle class="a" cx="7.779" cy="5.394" r="2.202"/><path class="a" d="M10,9.162a4.512,4.512,0,0,0-5.125.479"/><path class="a" d="M13.848,19.468a2.756,2.756,0,0,1-2.706,2.282H4.608a2.732,2.732,0,0,1-2.733-2.733V3.482A2.732,2.732,0,0,1,4.608.75h6.267a3,3,0,0,1,3,3v9.5"/><line class="a" x1="1.875" y1="15.75" x2="7.875" y2="15.75"/><path class="a" d="M7.875,18.375a.375.375,0,1,0,.375.375.375.375,0,0,0-.375-.375h0"/></svg>