<svg xmlns="http://www.w3.org/2000/svg" viewBox="0 0 24 24"><defs><style>.a{fill:none;stroke:currentColor;stroke-linecap:round;stroke-linejoin:round;stroke-width:1.5px;}</style></defs><title>meeting-monitor-webcam</title><path class="a" d="M12,2.25a.375.375,0,1,0,.375.375A.375.375,0,0,0,12,2.25h0"/><circle class="a" cx="12" cy="9.75" r="2.25"/><path class="a" d="M15.75,15a4.25,4.25,0,0,0-7.5,0"/><path class="a" d="M15.75,3h6a1.5,1.5,0,0,1,1.5,1.5v12a1.5,1.5,0,0,1-1.5,1.5H2.25a1.5,1.5,0,0,1-1.5-1.5V4.5A1.5,1.5,0,0,1,2.25,3h6"/><polygon class="a" points="15.75 22.5 8.25 22.5 9 18 15 18 15.75 22.5"/><line class="a" x1="6" y1="22.5" x2="18" y2="22.5"/></svg>