<svg xmlns="http://www.w3.org/2000/svg" viewBox="0 0 24 24"><defs><style>.a{fill:none;stroke:currentColor;stroke-linecap:round;stroke-linejoin:round;stroke-width:1.5px;}</style></defs><title>meeting-team-monitor-woman-1</title><circle class="a" cx="15" cy="6.011" r="2.25"/><path class="a" d="M15,9.011a3.75,3.75,0,0,1,3.75,3.75"/><path class="a" d="M2.25,4.511V2.261a1.5,1.5,0,0,1,1.5-1.5h18a1.5,1.5,0,0,1,1.5,1.5v12a1.5,1.5,0,0,1-1.5,1.5h-6"/><line class="a" x1="17.25" y1="15.761" x2="17.25" y2="18.761"/><line class="a" x1="15.75" y1="18.761" x2="19.5" y2="18.761"/><path class="a" d="M.75,23.261a6.75,6.75,0,0,1,13.5,0"/><path class="a" d="M3.377,11v1a5.9,5.9,0,0,1-.86,3.272"/><path class="a" d="M11.624,11v1a5.9,5.9,0,0,0,.859,3.272"/><path class="a" d="M3.388,11.215A5.483,5.483,0,0,0,7.5,9.316a5.483,5.483,0,0,0,4.112,1.9"/><circle class="a" cx="7.5" cy="10.886" r="4.125"/></svg>