<svg xmlns="http://www.w3.org/2000/svg" viewBox="0 0 24 24"><defs><style>.a{fill:none;stroke:currentColor;stroke-linecap:round;stroke-linejoin:round;stroke-width:1.5px;}</style></defs><title>meeting-team-monitor-man-1</title><circle class="a" cx="15" cy="6.01" r="2.25"/><path class="a" d="M15,9.01a3.75,3.75,0,0,1,3.75,3.75"/><path class="a" d="M2.25,4.51V2.26A1.5,1.5,0,0,1,3.75.76h18a1.5,1.5,0,0,1,1.5,1.5v12a1.5,1.5,0,0,1-1.5,1.5h-7.5"/><line class="a" x1="17.25" y1="15.76" x2="17.25" y2="18.76"/><line class="a" x1="15.75" y1="18.76" x2="19.5" y2="18.76"/><path class="a" d="M.75,23.26a6.75,6.75,0,0,1,13.5,0"/><path class="a" d="M3.945,8.791a6.857,6.857,0,0,0,7.642,1.536"/><circle class="a" cx="7.5" cy="10.885" r="4.125"/></svg>