<svg xmlns="http://www.w3.org/2000/svg" viewBox="0 0 24 24"><defs><style>.a{fill:none;stroke:currentColor;stroke-linecap:round;stroke-linejoin:round;stroke-width:1.5px;}</style></defs><title>meeting-team-laptop-woman</title><path class="a" d="M10.172,20.569a7.182,7.182,0,0,0,4.96-1.315c-.749-.75-1.265-1.221-1.462-4.129-.294-4.335-3.217-5.86-5.729-5.86s-5.435,1.525-5.729,5.86C2.015,18.033,1.5,18.5.75,19.254a7.209,7.209,0,0,0,4.988,1.315"/><path class="a" d="M13.492,23.242c-.837-.326-1.773-.663-2.772-1.033a.882.882,0,0,1-.576-.827V19.773a.88.88,0,0,1,.287-.65,3.173,3.173,0,0,0,1.035-2.366v-2.2A5.719,5.719,0,0,1,7.941,12.56a5.716,5.716,0,0,1-3.525,1.993v2.2a3.175,3.175,0,0,0,1.035,2.366.88.88,0,0,1,.287.65v1.609a.882.882,0,0,1-.576.827c-1.018.377-1.971.72-2.82,1.052"/><path class="a" d="M21.75,12.761V1.828a1.035,1.035,0,0,0-1-1.067h-13a1.035,1.035,0,0,0-1,1.067V6.761"/><path class="a" d="M16.5,12.761h6.75a3.449,3.449,0,0,1-3,3H16.5"/><path class="a" d="M14.25,9.761H15a.75.75,0,0,0,.75-.75v-.75l3,.75v-4.5l-3,.75v-.75a.75.75,0,0,0-.75-.75H10.5a.75.75,0,0,0-.75.75v2.25"/></svg>