<svg xmlns="http://www.w3.org/2000/svg" viewBox="0 0 24 24"><defs><style>.a{fill:none;stroke:currentColor;stroke-linecap:round;stroke-linejoin:round;stroke-width:1.5px;}</style></defs><title>meeting-headphones</title><path class="a" d="M4.5,18.011H3.75a3,3,0,0,1-3-3v-3a3,3,0,0,1,3-3H4.5c.414,0,1.5.336,1.5.75v7.5C6,17.675,4.914,18.011,4.5,18.011Z"/><path class="a" d="M20.25,18.011H19.5c-.414,0-1.5-.336-1.5-.75v-7.5c0-.414,1.086-.75,1.5-.75h.75a3,3,0,0,1,3,3v3A3,3,0,0,1,20.25,18.011Z"/><path class="a" d="M3.75,9.011A8.25,8.25,0,0,1,12,.761h0a8.25,8.25,0,0,1,8.25,8.25"/><path class="a" d="M15,21.761h2.25a3,3,0,0,0,3-3h0v-.75"/><path class="a" d="M13.5,23.261h-3a1.5,1.5,0,0,1-1.5-1.5H9a1.5,1.5,0,0,1,1.5-1.5h3a1.5,1.5,0,0,1,1.5,1.5h0A1.5,1.5,0,0,1,13.5,23.261Z"/></svg>