<svg xmlns="http://www.w3.org/2000/svg" viewBox="0 0 24 24"><defs><style>.a{fill:none;stroke:currentColor;stroke-linecap:round;stroke-linejoin:round;stroke-width:1.5px;}</style></defs><title>meeting-remote</title><path class="a" d="M15,11.261H9a3,3,0,0,1,3-3h0a3,3,0,0,1,3,3Z"/><circle class="a" cx="12" cy="6.011" r="2.25"/><rect class="a" x="3.75" y="0.761" width="16.5" height="10.5" rx="3" ry="3"/><circle class="a" cx="4.5" cy="18.011" r="2.25"/><path class="a" d="M8.25,23.261a4.25,4.25,0,0,0-7.5,0"/><circle class="a" cx="19.5" cy="18.011" r="2.25"/><path class="a" d="M23.25,23.261a4.25,4.25,0,0,0-7.5,0"/><circle class="a" cx="12" cy="18.011" r="2.25"/><path class="a" d="M15.75,23.261a4.25,4.25,0,0,0-7.5,0"/></svg>