<svg xmlns="http://www.w3.org/2000/svg" viewBox="0 0 24 24"><defs><style>.a{fill:none;stroke:currentColor;stroke-linecap:round;stroke-linejoin:round;stroke-width:1.5px;}</style></defs><title>meeting-team-laptop-man-1</title><path class="a" d="M.75,23.25a6.75,6.75,0,0,1,13.5,0"/><path class="a" d="M3.945,8.781a6.858,6.858,0,0,0,7.643,1.536"/><circle class="a" cx="7.5" cy="10.875" r="4.125"/><path class="a" d="M9,.75H7.75a1.035,1.035,0,0,0-1,1.067V3.75"/><path class="a" d="M21.75,12V1.817a1.035,1.035,0,0,0-1-1.067H19.5"/><path class="a" d="M14.25,12h9a3.449,3.449,0,0,1-3,3h-6"/><circle class="a" cx="14.25" cy="3.375" r="2.625"/><path class="a" d="M17.605,8.252a4.485,4.485,0,0,0-3.355-1.5"/></svg>