<svg xmlns="http://www.w3.org/2000/svg" viewBox="0 0 24 24"><defs><style>.a{fill:none;stroke:currentColor;stroke-linecap:round;stroke-linejoin:round;stroke-width:1.5px;}</style></defs><title>meeting-smartphone</title><path class="a" d="M23.25,2.261l-3,1v-1a1.5,1.5,0,0,0-1.5-1.5h-6a1.5,1.5,0,0,0-1.5,1.5v6a1.5,1.5,0,0,0,1.5,1.5h6a1.5,1.5,0,0,0,1.5-1.5v-1l3,1Z"/><path class="a" d="M12.75,12.761v7.767a2.732,2.732,0,0,1-2.732,2.733H3.483A2.732,2.732,0,0,1,.75,20.528V4.993A2.732,2.732,0,0,1,3.483,2.261H8.25"/><line class="a" x1="0.75" y1="5.261" x2="8.25" y2="5.261"/><line class="a" x1="0.75" y1="17.261" x2="12.75" y2="17.261"/><path class="a" d="M6.75,19.886a.375.375,0,1,0,.375.375.375.375,0,0,0-.375-.375h0"/></svg>