<svg xmlns="http://www.w3.org/2000/svg" viewBox="0 0 24 24"><defs><style>.a{fill:none;stroke:currentColor;stroke-linecap:round;stroke-linejoin:round;stroke-width:1.5px;}</style></defs><title>meeting-team-laptop-man</title><path class="a" d="M14.248,23.261l-4.3-1.841V18.965s1.063-.429,1.063-3.068c.839,0,1.158-2.454-.009-2.454a3.224,3.224,0,0,0,.54-2.455c-.6-2.454-6.542-2.454-7.145,0-2.535-.527-.517,2.1-.517,2.455-1.2,0-1.2,2.454,0,2.454,0,2.639,1.159,3.068,1.159,3.068V21.42L.75,23.26"/><path class="a" d="M9,.761H7.748a1.035,1.035,0,0,0-1,1.067V6.011"/><path class="a" d="M21.75,12.761V1.828a1.035,1.035,0,0,0-1-1.067h-13a1.035,1.035,0,0,0-1,1.067l0,4.183"/><path class="a" d="M14.25,12.761h9a3.449,3.449,0,0,1-3,3h-6"/><path class="a" d="M14.25,9.761H15a.75.75,0,0,0,.75-.75v-.75l3,.75v-4.5l-3,.75v-.75a.75.75,0,0,0-.75-.75H10.5a.75.75,0,0,0-.75.75v1.5"/></svg>