<svg xmlns="http://www.w3.org/2000/svg" viewBox="0 0 24 24"><defs><style>.a{fill:none;stroke:currentColor;stroke-linecap:round;stroke-linejoin:round;stroke-width:1.5px;}</style></defs><title>meeting-team-monitor-man</title><path class="a" d="M2.25,7.511V2.261a1.5,1.5,0,0,1,1.5-1.5h18a1.5,1.5,0,0,1,1.5,1.5v12a1.5,1.5,0,0,1-1.5,1.5h-7.5"/><path class="a" d="M14.25,10.511h1.5a.75.75,0,0,0,.75-.75v-.75l3,.75v-4.5l-3,.75v-.75a.75.75,0,0,0-.75-.75h-4.5a.75.75,0,0,0-.75.75v1.5"/><path class="a" d="M14.248,23.261l-4.3-1.841V18.965s1.063-.429,1.063-3.068c.839,0,1.158-2.454-.009-2.454a3.224,3.224,0,0,0,.54-2.455c-.6-2.454-6.542-2.454-7.145,0-2.535-.527-.517,2.1-.517,2.455-1.2,0-1.2,2.454,0,2.454,0,2.639,1.159,3.068,1.159,3.068V21.42L.75,23.26"/></svg>