<svg xmlns="http://www.w3.org/2000/svg" viewBox="0 0 24 24"><defs><style>.a{fill:none;stroke:currentColor;stroke-linecap:round;stroke-linejoin:round;stroke-width:1.5px;}</style></defs><title>meeting-monitor</title><path class="a" d="M23.25,2.261l-3,1v-1a1.5,1.5,0,0,0-1.5-1.5h-6a1.5,1.5,0,0,0-1.5,1.5v6a1.5,1.5,0,0,0,1.5,1.5h6a1.5,1.5,0,0,0,1.5-1.5v-1l3,1Z"/><path class="a" d="M18.75,12.761v6a1.5,1.5,0,0,1-1.5,1.5h-15a1.5,1.5,0,0,1-1.5-1.5v-9a1.5,1.5,0,0,1,1.5-1.5h6"/><line class="a" x1="6.75" y1="23.261" x2="12.75" y2="23.261"/><line class="a" x1="9.75" y1="20.261" x2="9.75" y2="23.261"/><line class="a" x1="0.75" y1="17.261" x2="18.75" y2="17.261"/></svg>