<svg id="Regular" xmlns="http://www.w3.org/2000/svg" viewBox="0 0 24 24"><defs><style>.cls-1{fill:none;stroke:#000;stroke-linecap:round;stroke-linejoin:round;stroke-width:1.5px;}</style></defs><title>messaging-whatsapp</title><path class="cls-1" d="M12,.75A11.22,11.22,0,0,0,.74,11.91a11,11,0,0,0,2.14,6.54L1.48,22.6l4.32-1.37a11.26,11.26,0,0,0,17.44-9.32A11.22,11.22,0,0,0,12,.75m6.07,13.91c-.07-.12-.27-.2-.56-.34s-1.74-.85-2-.95-.47-.15-.66.15-.5.73-.67.92-.34.22-.64.07a9.2,9.2,0,0,1-4.14-3.58c-.17-.29,0-.45.13-.59.49-.49.5-.42.62-.66a.53.53,0,0,0,0-.51C10,9,9.45,7.58,9.2,7s-1.51-.69-2-.15C2,12.33,14.67,21.72,17.91,16a1.41,1.41,0,0,0,.16-1.32"/></svg>