<svg id="Regular" xmlns="http://www.w3.org/2000/svg" viewBox="0 0 24 24"><defs><style>.cls-1{fill:none;stroke:#000;stroke-linecap:round;stroke-linejoin:round;stroke-width:1.5px;}</style></defs><title>messaging-line-app-1</title><path class="cls-1" d="M20.8,11.85c0,4-3.94,7.18-8.8,7.18a10.59,10.59,0,0,1-2.91-.4.49.49,0,0,0-.34,0L5.12,20.34a.49.49,0,0,1-.64-.66l1.18-2.36a.49.49,0,0,0-.11-.59,6.51,6.51,0,0,1-2.35-4.89c0-4,3.94-7.18,8.8-7.18S20.8,7.88,20.8,11.85Z"/><line class="cls-1" x1="9.5" y1="9.55" x2="9.5" y2="13.47"/><polyline class="cls-1" points="11.61 13.47 11.61 9.55 14.34 13.47 14.34 9.55"/><polyline class="cls-1" points="18.05 13.47 16.4 13.47 16.4 9.55 18.05 9.55"/><line class="cls-1" x1="16.4" y1="11.51" x2="17.76" y2="11.51"/><polyline class="cls-1" points="5.63 9.55 5.63 13.47 7.49 13.47"/><rect class="cls-1" x="0.74" y="0.75" width="22.5" height="22.5" rx="4" ry="4"/></svg>