<svg id="Regular" xmlns="http://www.w3.org/2000/svg" viewBox="0 0 24 24"><defs><style>.cls-1{fill:none;stroke:#000;stroke-linecap:round;stroke-linejoin:round;stroke-width:1.5px;}</style></defs><title>messaging-icq</title><circle class="cls-1" cx="12.06" cy="12.12" r="2.46"/><path class="cls-1" d="M11.13,9.86a36.54,36.54,0,0,1-.82-6.12C10.22.48,17.59-1.7,16.89,5.92c-1.32,1.66-2.79,3.41-3.44,4.18"/><path class="cls-1" d="M16.89,5.92c2.24-2.4,7.84-.26,2.33,4.18-2.46.54-4,.93-4.86,1.16"/><path class="cls-1" d="M19.22,10.1c4.3-.43,4.3,4.18,3.72,5.25s-2.4,3-5.13.77c-1.64-1.39-2.86-2.36-3.55-2.89"/><path class="cls-1" d="M17.81,16.12c2.58,4.09-2.75,7-4.19,2.64l-.9-4.27"/><path class="cls-1" d="M10.51,14C10,14.68,9,16,7.36,18.18c-3.47,4.58,4.28,7.29,5.65,2.7.33-1.11.61-2.12.61-2.12"/><path class="cls-1" d="M9.8,13.09c-.81.25-2.37.73-4.71,1.49-3.63,1.17-2.37,5.87,2.27,3.6"/><path class="cls-1" d="M9.64,11.74C7.92,10.6,7.07,8.86,4.75,9c-2.6.18-4,1.73-4,3.44s2.68,2.59,4.3,2.12"/><path class="cls-1" d="M11.13,9.86A13,13,0,0,0,9.79,6c-1-1.66-2.8-3-4-2.15S3.82,7,7.11,9.67"/></svg>