<svg id="Regular" xmlns="http://www.w3.org/2000/svg" viewBox="0 0 24 24"><defs><style>.cls-1{fill:none;stroke:#000;stroke-linecap:round;stroke-linejoin:round;stroke-width:1.5px;}</style></defs><title>messaging-aim</title><path class="cls-1" d="M8.32,15.52c-1.4,2.69-2.45,3.6-5.32,4.26.54,1.28.76,1.75,1.56,3.45a13.67,13.67,0,0,0,7.29-4.91c2.4.61,4.15,2.15,5.6,4.94,1.51-1.26,1.67-1.39,3-2.43a12.1,12.1,0,0,0-5.78-5.63c0-.57,0-.71.06-1.16,3.43.9,6.32-2,6.32-2s-.73-1.38-1.66-2.8c-3.18,2.88-4.67-.34-8.19-1.5C9.05,9,8.22,12.25,8.32,15.52Z"/><path class="cls-1" d="M18.26,4A3.23,3.23,0,0,0,11.8,4a3.23,3.23,0,0,0,6.46,0Z"/></svg>