<svg id="Regular" xmlns="http://www.w3.org/2000/svg" viewBox="0 0 24 24"><defs><style>.cls-1{fill:none;stroke:#000;stroke-linecap:round;stroke-linejoin:round;stroke-width:1.5px;}</style></defs><title>messaging-kik</title><path class="cls-1" d="M2.46,20.94V3.05a2.18,2.18,0,0,1,2-2.3c1.12,0,1.88,1.17,1.88,2.44V13.26l5.21-5.59a2.4,2.4,0,0,1,1.79-1,1.92,1.92,0,0,1,1.79,2.06,2.89,2.89,0,0,1-.93,2L11,13.82l3.82,5.85a2.63,2.63,0,0,1,.51,1.49,2,2,0,0,1-1.9,2.09,1.88,1.88,0,0,1-1.76-1.06L8.15,16.64l-1.77,1.8v2.64a2,2,0,0,1-1.88,2.17,2.18,2.18,0,0,1-2-2.31m19.08-5a2.45,2.45,0,1,1-2.45-2.45A2.45,2.45,0,0,1,21.54,15.91Z"/></svg>