<svg id="Regular" xmlns="http://www.w3.org/2000/svg" viewBox="0 0 24 24"><defs><style>.cls-1{fill:none;stroke:#000;stroke-linecap:round;stroke-linejoin:round;stroke-width:1.5px;}</style></defs><title>messaging-msn-messenger</title><path class="cls-1" d="M.77,12.36h0c0,1,.53,1.2.53,1.2,1.15,1.53,1.9,1.7,3,1.7,0-1.13,1.71-5.56,4.65-7a5,5,0,0,0-1-.49A3,3,0,0,0,9.06,5.48a3,3,0,0,0-5.94,0A2.91,2.91,0,0,0,4.24,7.76,5.6,5.6,0,0,0,.77,12.36Z"/><path class="cls-1" d="M19.62,6.77a4.36,4.36,0,0,0-8.71,0,4.23,4.23,0,0,0,1.62,3.32h0a8.16,8.16,0,0,0-5.08,6.7c0,1.44.78,1.74.78,1.74h0A2,2,0,0,0,9.1,19c1.1,3.45,11.62,3.26,12.66,0,1.84-.36,1.64-2.56,1.09-4.24a7.67,7.67,0,0,0-4.79-4.67A4.2,4.2,0,0,0,19.62,6.77Z"/></svg>