<svg id="Regular" xmlns="http://www.w3.org/2000/svg" viewBox="0 0 24 24"><defs><style>.cls-1{fill:none;stroke:#000;stroke-linecap:round;stroke-linejoin:round;stroke-width:1.5px;}</style></defs><title>messaging-pingchat</title><path class="cls-1" d="M7.6,16.4h6.68a6.9,6.9,0,0,1-6.77,6.85A6.67,6.67,0,0,1,.75,16.67,6.75,6.75,0,0,1,7.6,10.09ZM23.25,7.11a6.47,6.47,0,0,1-6.66,6.36H10.53V7.08S10.69.75,16.86.75a6.25,6.25,0,0,1,6.39,6.36M16.4,10.88a.51.51,0,0,0,.51-.5m0,0a.51.51,0,1,0-.51.5"/><line class="cls-1" x1="16.4" y1="3.2" x2="16.4" y2="7.34"/></svg>