<svg id="Regular" xmlns="http://www.w3.org/2000/svg" viewBox="0 0 24 24"><defs><style>.cls-1{fill:none;stroke:#000;stroke-linecap:round;stroke-linejoin:round;stroke-width:1.5px;}</style></defs><title>messaging-we-chat</title><path id="path11-1" class="cls-1" d="M8,15.22c-.32-2.62,2.55-7.59,7.65-7.4a6.48,6.48,0,0,0-3.27-4.26h0A8.65,8.65,0,0,0,5.31,3,7.21,7.21,0,0,0,1.59,5.94a5.49,5.49,0,0,0-.68,4.21A6.44,6.44,0,0,0,3.7,13.92c-.25.73-.5,1.45-.73,2.19.84-.44,1.67-.89,2.51-1.34A9.4,9.4,0,0,0,8,15.22M6.08,6.39A.25.25,0,1,1,6,6.82a.25.25,0,0,1,.07-.43m4.15,0a.25.25,0,1,1-.07.43.25.25,0,0,1,.07-.43"/><path id="path13-81" class="cls-1" d="M22.86,13.62a5.67,5.67,0,0,0-2.65-2.69,7.28,7.28,0,0,0-6.53,0,5.42,5.42,0,0,0-2.89,3.56,4.58,4.58,0,0,0,.58,3.39,6.25,6.25,0,0,0,4.26,2.78,7.79,7.79,0,0,0,3.71-.24c.72.28,1.36.73,2.06,1.07q-.27-.91-.58-1.8a5.85,5.85,0,0,0,1.92-2.12,4.6,4.6,0,0,0,.11-4Zm-7.63-.09a.25.25,0,0,1,.32.32h0a.25.25,0,1,1-.32-.32m3.54.42a.4.4,0,0,1-.09-.19.28.28,0,0,1,.24-.24m0,0a.25.25,0,0,1,.25.36h0a.25.25,0,0,1-.4.07"/></svg>