<svg id="Regular" xmlns="http://www.w3.org/2000/svg" viewBox="0 0 24 24"><defs><style>.cls-1{fill:none;stroke:#000;stroke-linecap:round;stroke-linejoin:round;stroke-width:1.5px;}</style></defs><title>messaging-messages</title><path class="cls-1" d="M19.33,11.39c0,3.31-3.28,6-7.34,6A8.81,8.81,0,0,1,9.42,17L5.21,19l1.65-3.3a5.49,5.49,0,0,1-2.2-4.27c0-3.31,3.28-6,7.34-6S19.33,8.08,19.33,11.39Z"/><rect class="cls-1" x="0.74" y="0.75" width="22.5" height="22.5" rx="4" ry="4"/><path class="cls-1" d="M8.81,12a.24.24,0,1,1,0-.49"/><path class="cls-1" d="M8.81,11.51a.24.24,0,1,1,0,.49"/><path class="cls-1" d="M12.24,12a.24.24,0,1,1,0-.49"/><path class="cls-1" d="M12.24,11.51a.24.24,0,1,1,0,.49"/><path class="cls-1" d="M15.66,12a.24.24,0,1,1,0-.49"/><path class="cls-1" d="M15.66,11.51a.24.24,0,0,1,0,.49"/></svg>