<svg id="Regular" xmlns="http://www.w3.org/2000/svg" viewBox="0 0 24 24"><defs><style>.cls-1{fill:none;stroke:#000;stroke-linecap:round;stroke-linejoin:round;stroke-width:1.5px;}</style></defs><title>messaging-line-app</title><path class="cls-1" d="M23.25,11.06c0,5.07-5,9.18-11.25,9.18a13.53,13.53,0,0,1-3.77-.53.49.49,0,0,0-.34,0l-5,2.34a.49.49,0,0,1-.64-.66L4,18a.49.49,0,0,0-.12-.59A8.34,8.34,0,0,1,.75,11.06C.75,6,5.79,1.88,12,1.88S23.25,6,23.25,11.06Z"/><line class="cls-1" x1="9.3" y1="7.75" x2="9.3" y2="13.62"/><polyline class="cls-1" points="11.51 13.62 11.51 7.75 15.07 13.62 15.07 7.75"/><polyline class="cls-1" points="19.96 13.62 17.28 13.62 17.28 7.75 19.96 7.75"/><line class="cls-1" x1="17.28" y1="10.68" x2="19.97" y2="10.68"/><polyline class="cls-1" points="4.56 7.75 4.56 13.62 7.25 13.62"/></svg>