<svg id="Regular" xmlns="http://www.w3.org/2000/svg" viewBox="0 0 24 24"><defs><style>.cls-1{fill:none;stroke:#000;stroke-linecap:round;stroke-linejoin:round;stroke-width:1.5px;}</style></defs><title>messaging-gabbr</title><path id="path17-6" class="cls-1" d="M17.64,17.38c-.55-.44-1.13-.84-1.71-1.24-1.15-.81-2.2-.87-3.06.43A1.34,1.34,0,0,1,11,17,8.24,8.24,0,0,1,6.69,12.8a1.62,1.62,0,0,1,.53-2.28,1.62,1.62,0,0,0,.93-1.43c-.05-.93-2.31-4-3.21-4.37a1.63,1.63,0,0,0-1.11,0c-10.73,3.89,10.37,26.71,15.06,15,.45-1.26-.5-1.76-1.24-2.36Z"/><path class="cls-1" d="M23.11,11.27A14.69,14.69,0,0,0,13,1.15"/><path class="cls-1" d="M10.83,7.71a6.2,6.2,0,0,1,5.71,5.71"/><path class="cls-1" d="M19.9,12.47a10.44,10.44,0,0,0-8-8.08"/><path class="cls-1" d="M16.55,13.42a6.2,6.2,0,0,0-5.71-5.71"/></svg>