<svg id="Regular" xmlns="http://www.w3.org/2000/svg" viewBox="0 0 24 24"><defs><style>.cls-1{fill:none;stroke:currentColor;stroke-linecap:round;stroke-linejoin:round;stroke-width:1.5px;}</style></defs><title>milk-can</title><path class="cls-1" d="M15.75,3.75H8.25L5.5,7.872A1.5,1.5,0,0,0,5.25,8.7V21.75a1.5,1.5,0,0,0,1.5,1.5h10.5a1.5,1.5,0,0,0,1.5-1.5V8.7a1.5,1.5,0,0,0-.252-.832Z"/><path class="cls-1" d="M17.25,2.25a1.5,1.5,0,0,0-1.5-1.5H8.25a1.5,1.5,0,0,0,0,3h7.5A1.5,1.5,0,0,0,17.25,2.25Z"/><line class="cls-1" x1="5.32" y1="8.25" x2="18.679" y2="8.25"/><line class="cls-1" x1="5.25" y1="9" x2="2.25" y2="6"/><line class="cls-1" x1="18.75" y1="9" x2="21.75" y2="6"/></svg>