<svg id="Regular" xmlns="http://www.w3.org/2000/svg" viewBox="0 0 24 24"><defs><style>.cls-1{fill:none;stroke:currentColor;stroke-linecap:round;stroke-linejoin:round;stroke-width:1.5px;}</style></defs><title>milk-carton</title><path class="cls-1" d="M18,5.25H6L3.158,9.433A1.5,1.5,0,0,0,3,10.1V21.75a1.5,1.5,0,0,0,1.5,1.5h15a1.5,1.5,0,0,0,1.5-1.5V10.1a1.5,1.5,0,0,0-.158-.671Z"/><path class="cls-1" d="M18,2.25A1.5,1.5,0,0,0,16.5.75h-9A1.5,1.5,0,0,0,6,2.25v3H18Z"/><line class="cls-1" x1="6.75" y1="9.75" x2="17.25" y2="9.75"/><circle class="cls-1" cx="12" cy="17.25" r="3"/></svg>