<svg xmlns="http://www.w3.org/2000/svg" viewBox="0 0 24 24"><defs><style>.a{fill:none;stroke:currentColor;stroke-linecap:round;stroke-linejoin:round;stroke-width:1.5px;}</style></defs><title>mobile-shopping-basket</title><path class="a" d="M13.875,13.875v6.267a2.733,2.733,0,0,1-2.732,2.733H4.608a2.734,2.734,0,0,1-2.733-2.733V4.607A2.733,2.733,0,0,1,4.608,1.875h6.267"/><line class="a" x1="1.875" y1="18.375" x2="13.875" y2="18.375"/><path class="a" d="M20.624,4.875H12.953a1.5,1.5,0,0,0-1.4,2.026l1.307,3.487a.75.75,0,0,0,.7.487h6.461a.75.75,0,0,0,.7-.487L22.029,6.9A1.5,1.5,0,0,0,20.624,4.875Z"/><line class="a" x1="13.039" y1="4.875" x2="14.539" y2="1.125"/><line class="a" x1="20.539" y1="4.875" x2="19.039" y2="1.125"/><line class="a" x1="15.375" y1="8.625" x2="15.375" y2="7.125"/><line class="a" x1="18.375" y1="8.625" x2="18.375" y2="7.125"/></svg>