<svg xmlns="http://www.w3.org/2000/svg" viewBox="0 0 24 24"><defs><style>.a{fill:none;stroke:currentColor;stroke-linecap:round;stroke-linejoin:round;stroke-width:1.5px;}</style></defs><title>mobile-launch</title><path class="a" d="M15,17.25v3a3,3,0,0,1-3,3H4.5a3,3,0,0,1-3-3V3.75a3,3,0,0,1,3-3H12"/><path class="a" d="M10.367,15.27c-1.068,1.067-3.205.6-3.205.6s-.47-2.137.6-3.2a1.576,1.576,0,0,1,2.445.163A1.576,1.576,0,0,1,10.367,15.27Z"/><line class="a" x1="21.429" y1="1.821" x2="22.5" y2="0.75"/><path class="a" d="M21.572,5.563l-.143-3.742-3.743-.143a3.374,3.374,0,0,0-2.768,1.551L10.852,9.964,13.286,12.4,20.02,8.332A3.378,3.378,0,0,0,21.572,5.563Z"/><path class="a" d="M12.552,7.147l-1.115-.529a1.573,1.573,0,0,0-1.76.205L8.1,8.4a.389.389,0,0,0-.054.433.641.641,0,0,0,.383.356l2.418.779"/><path class="a" d="M16.147,10.67l.484,1.143a1.572,1.572,0,0,1-.2,1.76l-1.576,1.576a.393.393,0,0,1-.434.054.639.639,0,0,1-.355-.383l-.78-2.419"/><circle class="a" cx="17.719" cy="5.531" r="1.5"/><line class="a" x1="1.5" y1="19.5" x2="15" y2="19.5"/></svg>