<svg xmlns="http://www.w3.org/2000/svg" viewBox="0 0 24 24"><defs><style>.a{fill:none;stroke:currentColor;stroke-linecap:round;stroke-linejoin:round;stroke-width:1.5px;}</style></defs><title>mobile-shopping-cart</title><path class="a" d="M15.375,15v4.767A2.734,2.734,0,0,1,12.642,22.5H6.107a2.733,2.733,0,0,1-2.732-2.733V4.232A2.732,2.732,0,0,1,6.107,1.5h7.768"/><line class="a" x1="3.375" y1="18" x2="15.375" y2="18"/><polyline class="a" points="20.625 1.5 18.375 9 12.375 9 10.875 4.5 19.725 4.5"/><path class="a" d="M12.75,11.25a.375.375,0,1,1-.375.375.375.375,0,0,1,.375-.375"/><path class="a" d="M18,11.25a.375.375,0,1,1-.375.375A.375.375,0,0,1,18,11.25"/></svg>