<svg xmlns="http://www.w3.org/2000/svg" viewBox="0 0 24 24"><defs><style>.a{fill:none;stroke:currentColor;stroke-linecap:round;stroke-linejoin:round;stroke-width:1.5px;}</style></defs><title>mobile-shopping-cart-exchange</title><rect class="a" x="15.75" y="11.25" width="7.5" height="12" rx="1.5" ry="1.5"/><line class="a" x1="15.75" y1="20.25" x2="23.25" y2="20.25"/><path class="a" d="M3.75,15.75a6,6,0,0,0,6,6H12"/><path class="a" d="M23.25,8.25a6,6,0,0,0-6-6h-1.5"/><polyline class="a" points="17.25 0.75 15.75 2.25 17.25 3.75"/><polyline class="a" points="10.5 23.25 12 21.75 10.5 20.25"/><polyline class="a" points="10.5 0.75 8.25 8.25 2.25 8.25 0.75 3.75 9.6 3.75"/><path class="a" d="M2.625,10.5a.375.375,0,1,1-.375.375.375.375,0,0,1,.375-.375"/><path class="a" d="M7.875,10.5a.375.375,0,1,1-.375.375.375.375,0,0,1,.375-.375"/></svg>