<svg xmlns="http://www.w3.org/2000/svg" viewBox="0 0 24 24"><defs><style>.a{fill:none;stroke:currentColor;stroke-linecap:round;stroke-linejoin:round;stroke-width:1.5px;}</style></defs><title>mobile-shopping-shop-hand</title><line class="a" x1="8.25" y1="13.5" x2="8.25" y2="9"/><path class="a" d="M20.25,9V20.25a3,3,0,0,1-3,3h-6a3,3,0,0,1-3-3v-3"/><line class="a" x1="14.25" y1="18.75" x2="20.25" y2="18.75"/><path class="a" d="M8.25,17.25h3.261a1.877,1.877,0,1,0,0-3.75H6.131"/><path class="a" d="M6.294,20.124A3.1,3.1,0,0,0,8.25,17.25"/><path class="a" d="M2.279,9.026A5.85,5.85,0,0,0,.75,12.978V18.4c0,1.48.951,2.181,2.25,2.89V23.25"/><path class="a" d="M17.25,6.545A2.769,2.769,0,0,0,20.25,9a2.769,2.769,0,0,0,3-2.455L21.424,1.39a.977.977,0,0,0-.976-.64H8.052a.977.977,0,0,0-.976.64L5.25,6.545A2.769,2.769,0,0,0,8.25,9a2.769,2.769,0,0,0,3-2.455A2.769,2.769,0,0,0,14.25,9,2.769,2.769,0,0,0,17.25,6.545Z"/><line class="a" x1="11.25" y1="0.75" x2="11.25" y2="6.545"/><line class="a" x1="17.25" y1="0.75" x2="17.25" y2="6.545"/></svg>