<svg xmlns="http://www.w3.org/2000/svg" viewBox="0 0 24 24"><defs><style>.a{fill:none;stroke:currentColor;stroke-linecap:round;stroke-linejoin:round;stroke-width:1.5px;}</style></defs><title>mobile-shopping-shop-basket</title><path class="a" d="M21.749,17.25h-7.5a1.5,1.5,0,0,0-1.4,2.026l1.307,3.487a.75.75,0,0,0,.7.487h6.287a.751.751,0,0,0,.7-.487l1.307-3.487A1.5,1.5,0,0,0,21.749,17.25Z"/><line class="a" x1="14.337" y1="17.25" x2="15.837" y2="13.5"/><line class="a" x1="21.663" y1="17.25" x2="20.163" y2="13.5"/><path class="a" d="M11.25,23.25H6.75a3,3,0,0,1-3-3V9"/><line class="a" x1="15.75" y1="9" x2="15.75" y2="10.5"/><line class="a" x1="3.75" y1="18.75" x2="9.75" y2="18.75"/><path class="a" d="M12.75,6.545A2.769,2.769,0,0,0,15.75,9a2.769,2.769,0,0,0,3-2.455L16.924,1.39a.978.978,0,0,0-.976-.64H3.552a.977.977,0,0,0-.976.64L.75,6.545A2.769,2.769,0,0,0,3.75,9a2.769,2.769,0,0,0,3-2.455A2.769,2.769,0,0,0,9.75,9,2.769,2.769,0,0,0,12.75,6.545Z"/><line class="a" x1="6.75" y1="0.75" x2="6.75" y2="6.545"/><line class="a" x1="12.75" y1="0.75" x2="12.75" y2="6.545"/><line class="a" x1="16.5" y1="19.5" x2="16.5" y2="21"/><line class="a" x1="19.5" y1="19.5" x2="19.5" y2="21"/></svg>