<svg xmlns="http://www.w3.org/2000/svg" viewBox="0 0 24 24"><defs><style>.a{fill:none;stroke:currentColor;stroke-linecap:round;stroke-linejoin:round;stroke-width:1.5px;}</style></defs><title>mobile-shopping-bag</title><path class="a" d="M9.754,23.25h-6a3,3,0,0,1-3-3V3.75a3,3,0,0,1,3-3h7.5a3,3,0,0,1,3,3v6"/><line class="a" x1="0.754" y1="18.75" x2="9.754" y2="18.75"/><path class="a" d="M9.379,6.75H7.346a1.342,1.342,0,0,0-.5,2.587l2.064.825a1.342,1.342,0,0,1-.5,2.588H6.379"/><line class="a" x1="7.879" y1="6.75" x2="7.879" y2="6"/><line class="a" x1="7.879" y1="13.5" x2="7.879" y2="12.75"/><path class="a" d="M21.526,13.507H14.474a.748.748,0,0,0-.717.707l-1,8.164a.766.766,0,0,0,.718.872h9.048a.766.766,0,0,0,.718-.872l-1-8.164A.748.748,0,0,0,21.526,13.507Z"/><path class="a" d="M19.84,16.478A1.879,1.879,0,0,1,18,18h0a1.879,1.879,0,0,1-1.839-1.513"/></svg>