<svg xmlns="http://www.w3.org/2000/svg" viewBox="0 0 24 24"><defs><style>.a{fill:none;stroke:currentColor;stroke-linecap:round;stroke-linejoin:round;stroke-width:1.5px;}</style></defs><title>mobile-shopping-shop</title><path class="a" d="M22.5,6.385V12.4A1.7,1.7,0,0,1,21,14.25H13.5A1.7,1.7,0,0,1,12,12.4V6.385"/><path class="a" d="M11.473,3a2.285,2.285,0,0,0-.223.988V5.03a1.5,1.5,0,1,0,3,0,1.5,1.5,0,1,0,3,0,1.5,1.5,0,1,0,3,0,1.5,1.5,0,1,0,3,0V3.988A2.286,2.286,0,0,0,23.026,3L21.973,1.216A.805.805,0,0,0,21.25.75h-8a.805.805,0,0,0-.724.466Z"/><path class="a" d="M12.75,17.25v3.267a2.734,2.734,0,0,1-2.733,2.733H3.482A2.733,2.733,0,0,1,.75,20.517V4.982A2.732,2.732,0,0,1,3.482,2.25H7.5"/><line class="a" x1="0.75" y1="18.75" x2="12.75" y2="18.75"/><rect class="a" x="15.75" y="9.75" width="3" height="4.5"/></svg>