<svg xmlns="http://www.w3.org/2000/svg" viewBox="0 0 24 24"><defs><style>.a{fill:none;stroke:currentColor;stroke-linecap:round;stroke-linejoin:round;stroke-width:1.5px;}</style></defs><title>modern-weapon-gun</title><path class="a" d="M20.25,3.25h-15a4.5,4.5,0,0,0-4.5,4.5v4.5h0A2.771,2.771,0,0,1,3.46,15.6L2.25,21.25H9l1.674-7.814a1.5,1.5,0,0,1,1.467-1.186H20.25Z"/><path class="a" d="M20.25,4.75h2.5a.5.5,0,0,1,.5.5v3.5a.5.5,0,0,1-.5.5h-2.5a0,0,0,0,1,0,0V4.75A0,0,0,0,1,20.25,4.75Z"/><path class="a" d="M10.286,15.25h3.037a1.5,1.5,0,0,0,1.342-.829L15.75,12.25"/><line class="a" x1="9" y1="21.25" x2="11.25" y2="21.25"/><path class="a" d="M15.75,3.25V5.5a.75.75,0,0,1-.75.75H10.5a.75.75,0,0,1-.75-.75V3.25"/><line class="a" x1="11.25" y1="9.25" x2="0.75" y2="9.25"/><line class="a" x1="4.554" y1="3.304" x2="3" y2="1.75"/></svg>