<svg xmlns="http://www.w3.org/2000/svg" viewBox="0 0 24 24"><defs><style>.a{fill:none;stroke:currentColor;stroke-linecap:round;stroke-linejoin:round;stroke-width:1.5px;}</style></defs><title>modern-architecture-twin-building</title><path class="a" d="M2.75,7.75h6.5a.5.5,0,0,1,.5.5v14.5a0,0,0,0,1,0,0H2.25a0,0,0,0,1,0,0V8.25A.5.5,0,0,1,2.75,7.75Z"/><rect class="a" x="3.75" y="4.75" width="4.5" height="3"/><path class="a" d="M6.671,1.592a.75.75,0,0,0-1.342,0L3.75,4.75h4.5Z"/><line class="a" x1="5.25" y1="10.75" x2="6.75" y2="10.75"/><line class="a" x1="5.25" y1="13.75" x2="6.75" y2="13.75"/><line class="a" x1="5.25" y1="16.75" x2="6.75" y2="16.75"/><line class="a" x1="5.25" y1="19.75" x2="6.75" y2="19.75"/><path class="a" d="M14.75,7.75h6.5a.5.5,0,0,1,.5.5v14.5a0,0,0,0,1,0,0h-7.5a0,0,0,0,1,0,0V8.25A.5.5,0,0,1,14.75,7.75Z"/><rect class="a" x="15.75" y="4.75" width="4.5" height="3"/><path class="a" d="M18.671,1.592a.75.75,0,0,0-1.342,0L15.75,4.75h4.5Z"/><line class="a" x1="17.25" y1="10.75" x2="18.75" y2="10.75"/><line class="a" x1="17.25" y1="13.75" x2="18.75" y2="13.75"/><line class="a" x1="17.25" y1="16.75" x2="18.75" y2="16.75"/><line class="a" x1="17.25" y1="19.75" x2="18.75" y2="19.75"/><line class="a" x1="0.75" y1="22.75" x2="23.25" y2="22.75"/><rect class="a" x="9.75" y="10.75" width="4.5" height="3"/></svg>