<svg xmlns="http://www.w3.org/2000/svg" viewBox="0 0 24 24"><defs><style>.a{fill:none;stroke:currentColor;stroke-linecap:round;stroke-linejoin:round;stroke-width:1.5px;}</style></defs><title>modern-architecture-cloud</title><line class="a" x1="0.75" y1="22.75" x2="23.25" y2="22.75"/><path class="a" d="M3.332,18.25a.75.75,0,0,1-.7-1.013L8.439,1.746a.75.75,0,0,1,1.354-.109L12,5.5l1.472-1.962a.75.75,0,0,1,1.289.154L20.552,17.2a.749.749,0,0,1-.689,1.045Z"/><line class="a" x1="12" y1="5.5" x2="12" y2="18.25"/><line class="a" x1="4.5" y1="18.25" x2="4.5" y2="22.75"/><line class="a" x1="19.5" y1="18.25" x2="19.5" y2="22.75"/><line class="a" x1="9.75" y1="7.75" x2="6.188" y2="7.75"/><line class="a" x1="8.25" y1="10.75" x2="5.063" y2="10.75"/><line class="a" x1="7.5" y1="13.75" x2="3.938" y2="13.75"/><line class="a" x1="15" y1="10.75" x2="17.786" y2="10.75"/><line class="a" x1="15.75" y1="13.75" x2="19.071" y2="13.75"/><line class="a" x1="9" y1="18.25" x2="9" y2="22.75"/><line class="a" x1="15" y1="18.25" x2="15" y2="22.75"/></svg>