<svg xmlns="http://www.w3.org/2000/svg" viewBox="0 0 24 24"><defs><style>.a{fill:none;stroke:currentColor;stroke-linecap:round;stroke-linejoin:round;stroke-width:1.5px;}</style></defs><title>modern-weapon-tank-machine-gun</title><circle class="a" cx="9.75" cy="20.25" r="3"/><line class="a" x1="6.75" y1="20.25" x2="0.75" y2="23.25"/><path class="a" d="M12.75,20.25h6.879a1.5,1.5,0,0,1,1.06.439L23.25,23.25"/><path class="a" d="M11.568,17.864,14.03,15.4a.75.75,0,0,0,0-1.061l-2.651-2.652a1.5,1.5,0,0,0-2.122,0L5.545,15.4a.749.749,0,0,0,0,1.06L7.43,18.348"/><line class="a" x1="11.845" y1="12.155" x2="18.75" y2="5.25"/><path class="a" d="M18.75,5.25h0a1.9,1.9,0,0,0,2.825-.156L23.25,3,21,.75,18.906,2.425A1.9,1.9,0,0,0,18.75,5.25Z"/><path class="a" d="M6.723,14.223,5.561,13.061a1.5,1.5,0,0,1,0-2.122L6.75,9.75"/></svg>