<svg xmlns="http://www.w3.org/2000/svg" viewBox="0 0 24 24"><defs><style>.a{fill:none;stroke:currentColor;stroke-linecap:round;stroke-linejoin:round;stroke-width:1.5px;}</style></defs><title>modern-architecture-high-cloud-building</title><path class="a" d="M18.193,22.307a.75.75,0,0,1-.725.943H5.921a.75.75,0,0,1-.725-.943L10.751,1.475a.976.976,0,0,1,1.887,0Z"/><path class="a" d="M4.945,15.75l-.693-9.7A.75.75,0,0,1,5,5.25H18.389a.75.75,0,0,1,.748.8l-.692,9.7"/><line class="a" x1="14.645" y1="9" x2="8.745" y2="9"/><line class="a" x1="15.845" y1="13.5" x2="7.593" y2="13.5"/><line class="a" x1="17.045" y1="18" x2="6.345" y2="18"/><line class="a" x1="11.695" y1="21" x2="11.695" y2="23.25"/></svg>