<svg xmlns="http://www.w3.org/2000/svg" viewBox="0 0 24 24"><defs><style>.a{fill:none;stroke:currentColor;stroke-linecap:round;stroke-linejoin:round;stroke-width:1.5px;}</style></defs><title>modern-weapon-machine-gun</title><line class="a" x1="0.75" y1="17.25" x2="6.75" y2="23.25"/><line class="a" x1="9" y1="9" x2="10.5" y2="10.5"/><path class="a" d="M5.25,21.75,17.679,9.321a1.5,1.5,0,0,1,.766-.41l2.324-.465a1.5,1.5,0,0,0,1.177-1.177L23.25.75l-6.519,1.3a1.5,1.5,0,0,0-1.177,1.177l-.465,2.324a1.5,1.5,0,0,1-.41.766L2.25,18.75"/><line class="a" x1="13.5" y1="6" x2="18" y2="10.5"/><path class="a" d="M13.5,13.5a3.747,3.747,0,0,0,3.558.986"/><path class="a" d="M10.5,16.5l2.413,4.315a.751.751,0,0,1-.125.9L11.78,22.72a.749.749,0,0,1-1.06,0L7.5,19.5"/></svg>