<svg xmlns="http://www.w3.org/2000/svg" viewBox="0 0 24 24"><defs><style>.a{fill:none;stroke:currentColor;stroke-linecap:round;stroke-linejoin:round;stroke-width:1.5px;}</style></defs><title>modern-architecture-spiral</title><line class="a" x1="0.75" y1="23.25" x2="23.25" y2="23.25"/><line class="a" x1="7.5" y1="13.5" x2="7.5" y2="8.25"/><line class="a" x1="16.5" y1="6" x2="16.5" y2="11.25"/><path class="a" d="M18,5.25a.75.75,0,0,1-.75.75h-6V8.25H6.75A.75.75,0,0,1,6,7.5v-6A.75.75,0,0,1,6.75.75h10.5A.75.75,0,0,1,18,1.5Z"/><path class="a" d="M18,23.25V12a.75.75,0,0,0-.75-.75h-4.5V13.5h-6a.75.75,0,0,0-.75.75v9"/><line class="a" x1="6" y1="17.25" x2="9.75" y2="17.25"/><line class="a" x1="14.25" y1="20.25" x2="18" y2="20.25"/><line class="a" x1="6" y1="20.25" x2="11.25" y2="20.25"/><line class="a" x1="6" y1="3.75" x2="9.75" y2="3.75"/></svg>