<svg xmlns="http://www.w3.org/2000/svg" viewBox="0 0 24 24"><defs><style>.a{fill:none;stroke:currentColor;stroke-linecap:round;stroke-linejoin:round;stroke-width:1.5px;}</style></defs><title>modern-weapon-tank</title><path class="a" d="M6,22.5a3,3,0,0,1,0-6H18.75a3,3,0,0,1,0,6Z"/><path class="a" d="M3,19.5,1,17.628A1.5,1.5,0,0,1,.75,16.8V13.5A1.5,1.5,0,0,1,2.25,12h17.2a1.5,1.5,0,0,1,1.248.668l2.072,3.108a1.5,1.5,0,0,1,.094,1.5L21.75,19.5"/><path class="a" d="M15.75,12H9L3.884,8.787A4.5,4.5,0,0,1,3.75,7.7V4.5h10.5A1.5,1.5,0,0,1,15.75,6Z"/><line class="a" x1="3.75" y1="4.5" x2="1.5" y2="4.5"/><line class="a" x1="15.75" y1="7.5" x2="23.25" y2="7.5"/><line class="a" x1="23.25" y1="6" x2="23.25" y2="9"/><line class="a" x1="8.25" y1="1.5" x2="12.75" y2="1.5"/><path class="a" d="M12.375,19.125a.375.375,0,0,1,.375.375"/><path class="a" d="M12,19.5a.375.375,0,0,1,.375-.375"/><path class="a" d="M12.375,19.875A.375.375,0,0,1,12,19.5"/><path class="a" d="M12.75,19.5a.375.375,0,0,1-.375.375"/><path class="a" d="M6.75,19.125a.375.375,0,0,1,.375.375"/><path class="a" d="M6.375,19.5a.375.375,0,0,1,.375-.375"/><path class="a" d="M6.75,19.875a.375.375,0,0,1-.375-.375"/><path class="a" d="M7.125,19.5a.375.375,0,0,1-.375.375"/><path class="a" d="M18,19.125a.375.375,0,0,1,.375.375"/><path class="a" d="M17.625,19.5A.375.375,0,0,1,18,19.125"/><path class="a" d="M18,19.875a.375.375,0,0,1-.375-.375"/><path class="a" d="M18.375,19.5a.375.375,0,0,1-.375.375"/></svg>