<svg xmlns="http://www.w3.org/2000/svg" viewBox="0 0 24 24"><defs><style>.a{fill:none;stroke:currentColor;stroke-linecap:round;stroke-linejoin:round;stroke-width:1.5px;}</style></defs><title>modern-weapon-van-machine-gun</title><circle class="a" cx="18" cy="19.5" r="2.25"/><circle class="a" cx="6" cy="19.5" r="2.25"/><path class="a" d="M20.122,18.75H21.75a1.5,1.5,0,0,0,1.5-1.5v-1.5a3,3,0,0,0-3-3H19.5L16.932,9.006a1.5,1.5,0,0,0-1.3-.756H11.25v4.5h-9a1.5,1.5,0,0,0-1.5,1.5v3a1.5,1.5,0,0,0,1.5,1.5H3.879"/><path class="a" d="M5.25,5.25h4.5a1.5,1.5,0,0,0,0-3H5.25Z"/><line class="a" x1="11.25" y1="3.75" x2="15.75" y2="3.75"/><polyline class="a" points="9 7.5 5.25 10.5 5.25 12.75"/><path class="a" d="M5.25,3.75H3.75a1.5,1.5,0,0,0-1.5,1.5"/><line class="a" x1="15.879" y1="18.75" x2="8.121" y2="18.75"/><line class="a" x1="11.25" y1="12.75" x2="19.5" y2="12.75"/></svg>