<svg xmlns="http://www.w3.org/2000/svg" viewBox="0 0 24 24"><defs><style>.a{fill:none;stroke:currentColor;stroke-linecap:round;stroke-linejoin:round;stroke-width:1.5px;}</style></defs><title>modern-weapon-shotgun</title><path class="a" d="M11.759,12.374,9.123,6.909,4.182,9.292A6.067,6.067,0,0,0,.8,15.529l.747,6.99a.758.758,0,0,0,1.081.586L5.4,21.77A1.516,1.516,0,0,0,6.222,20.1l-.611-4.757,6.148-2.965"/><path class="a" d="M9.067,3.628h13.9a.507.507,0,0,1,.507.507V6.154a.507.507,0,0,1-.507.507H9.067a0,0,0,0,1,0,0V3.628a0,0,0,0,1,0,0Z" transform="translate(-0.62 7.58) rotate(-25.749)"/><path class="a" d="M10.724,7.843h7.584a0,0,0,0,1,0,0V9.862a1.015,1.015,0,0,1-1.015,1.015H10.724a0,0,0,0,1,0,0V7.843A0,0,0,0,1,10.724,7.843Z" transform="translate(-2.625 7.235) rotate(-25.749)"/><line class="a" x1="5.611" y1="15.339" x2="1.016" y2="17.555"/><path class="a" d="M6.059,18.631,8.9,17.5a1.517,1.517,0,0,0,.954-1.408V13.294"/></svg>