<svg xmlns="http://www.w3.org/2000/svg" viewBox="0 0 24 24"><defs><style>.a{fill:none;stroke:currentColor;stroke-linecap:round;stroke-linejoin:round;stroke-width:1.5px;}</style></defs><title>modern-weapon-bullets</title><rect class="a" x="3.75" y="6.75" width="6" height="16.5"/><path class="a" d="M3.75,6.75V6.407A6.416,6.416,0,0,1,5.629,1.871h0a1.586,1.586,0,0,1,2.242,0h0A6.416,6.416,0,0,1,9.75,6.407V6.75Z"/><line class="a" x1="2.25" y1="23.25" x2="11.25" y2="23.25"/><rect class="a" x="14.25" y="0.75" width="6" height="16.5" transform="translate(34.5 18) rotate(180)"/><path class="a" d="M20.25,17.25v.343a6.416,6.416,0,0,1-1.879,4.536h0a1.586,1.586,0,0,1-2.242,0h0a6.416,6.416,0,0,1-1.879-4.536V17.25Z"/><line class="a" x1="21.75" y1="0.75" x2="12.75" y2="0.75"/></svg>