<svg xmlns="http://www.w3.org/2000/svg" viewBox="0 0 24 24"><defs><style>.a{fill:none;stroke:currentColor;stroke-linecap:round;stroke-linejoin:round;stroke-width:1.5px;}</style></defs><title>modern-architecture-building-1</title><path class="a" d="M5.25,23.25h3v-3a1.5,1.5,0,0,0-3,0Z"/><line class="a" x1="0.75" y1="23.25" x2="23.25" y2="23.25"/><path class="a" d="M9,7.5v8.25a.75.75,0,0,0,.75.75H15"/><line class="a" x1="2.25" y1="23.25" x2="2.25" y2="7.5"/><path class="a" d="M21,.75a.75.75,0,0,1,.75.75V23.25H15v-15a.75.75,0,0,0-.75-.75h-12v-6A.75.75,0,0,1,3,.75Z"/><line class="a" x1="2.25" y1="11.25" x2="6" y2="11.25"/><line class="a" x1="2.25" y1="14.25" x2="6" y2="14.25"/><line class="a" x1="18" y1="5.25" x2="21.75" y2="5.25"/><line class="a" x1="18" y1="8.25" x2="21.75" y2="8.25"/><line class="a" x1="18" y1="11.25" x2="21.75" y2="11.25"/></svg>