<svg xmlns="http://www.w3.org/2000/svg" viewBox="0 0 24 24"><defs><style>.a{fill:none;stroke:currentColor;stroke-linecap:round;stroke-linejoin:round;stroke-width:1.5px;}</style></defs><title>modern-architecture-1</title><path class="a" d="M11.755,22.768A106.345,106.345,0,0,1,10.239,9.626c0-4.485,5.56-5.559,5.56-5.559"/><path class="a" d="M4.973,22.768A106.345,106.345,0,0,0,6.489,9.626c0-4.485-5.56-5.559-5.56-5.559"/><line class="a" x1="0.75" y1="22.768" x2="23.25" y2="22.768"/><path class="a" d="M7.236,4.71a6.9,6.9,0,0,0-3.747-2.7"/><path class="a" d="M9.489,4.715a6.9,6.9,0,0,1,3.75-2.706"/><line class="a" x1="6.305" y1="13.018" x2="10.424" y2="13.018"/><path class="a" d="M20.967,22.768s-1.516-5.971-1.516-9.1,3.538-3.538,3.538-3.538"/><path class="a" d="M14.511,22.768s1.516-5.971,1.516-9.1-3.538-3.538-3.538-3.538"/><path class="a" d="M14.739,7.768a9.06,9.06,0,0,1,4.5,5.152l.212.75"/><path class="a" d="M20.739,7.768a9.42,9.42,0,0,0-3,2.4"/><line class="a" x1="5.492" y1="2.959" x2="6.992" y2="1"/><line class="a" x1="11.175" y1="2.959" x2="9.674" y2="1"/></svg>