<svg xmlns="http://www.w3.org/2000/svg" viewBox="0 0 24 24"><defs><style>.a{fill:none;stroke:currentColor;stroke-linecap:round;stroke-linejoin:round;stroke-width:1.5px;}</style></defs><title>modern-architecture</title><path class="a" d="M.97,6.22A.75.75,0,0,0,1.5,7.5h21a.75.75,0,0,0,.75-.75V4.5a.75.75,0,0,0-.75-.75H5.925A6,6,0,0,0,1.682,5.507Z"/><path class="a" d="M6.75,7.5v15a.75.75,0,0,1-.75.75H3a.75.75,0,0,1-.75-.75V7.5"/><path class="a" d="M14.25,7.5v15a.75.75,0,0,1-.75.75h-3a.75.75,0,0,1-.75-.75V7.5"/><path class="a" d="M21.75,7.5v15a.75.75,0,0,1-.75.75H18a.75.75,0,0,1-.75-.75V7.5"/><path class="a" d="M6.5.75h2a.5.5,0,0,1,.5.5v2.5a0,0,0,0,1,0,0H6a0,0,0,0,1,0,0V1.25A.5.5,0,0,1,6.5.75Z"/><path class="a" d="M18.5.75h2a.5.5,0,0,1,.5.5v2.5a0,0,0,0,1,0,0H18a0,0,0,0,1,0,0V1.25A.5.5,0,0,1,18.5.75Z"/><line class="a" x1="2.25" y1="11.25" x2="3.75" y2="11.25"/><line class="a" x1="2.25" y1="14.25" x2="3.75" y2="14.25"/><line class="a" x1="2.25" y1="17.25" x2="3.75" y2="17.25"/><line class="a" x1="9.75" y1="11.25" x2="11.25" y2="11.25"/><line class="a" x1="9.75" y1="14.25" x2="11.25" y2="14.25"/><line class="a" x1="9.75" y1="17.25" x2="11.25" y2="17.25"/><line class="a" x1="17.25" y1="11.25" x2="18.75" y2="11.25"/><line class="a" x1="17.25" y1="14.25" x2="18.75" y2="14.25"/><line class="a" x1="17.25" y1="17.25" x2="18.75" y2="17.25"/></svg>