<svg xmlns="http://www.w3.org/2000/svg" viewBox="0 0 24 24"><defs><style>.a{fill:none;stroke:currentColor;stroke-linecap:round;stroke-linejoin:round;stroke-width:1.5px;}</style></defs><title>modern-weapon-gun-1</title><line class="a" x1="9" y1="23.25" x2="7.5" y2="23.25"/><rect class="a" x="19.5" y="6" width="3.75" height="3"/><path class="a" d="M17.651.75a.75.75,0,0,0-.624.334L15.75,3H6V2.25A1.5,1.5,0,0,0,4.5.75H2.25L.75,3v8.114a1.5,1.5,0,0,0,.775,1.314L3.469,13.5,2.355,22.407a.751.751,0,0,0,.745.843H7.5L8.719,13.5H18.75a.75.75,0,0,0,.75-.75V1.5a.75.75,0,0,0-.75-.75Z"/><line class="a" x1="0.75" y1="9" x2="19.5" y2="9"/><line class="a" x1="10.5" y1="6" x2="12" y2="6"/><path class="a" d="M8.344,16.5h2.485a1.5,1.5,0,0,0,1.455-1.136L12.75,13.5"/></svg>