<svg xmlns="http://www.w3.org/2000/svg" viewBox="0 0 24 24"><defs><style>.a{fill:none;stroke:currentColor;stroke-linecap:round;stroke-linejoin:round;stroke-width:1.5px;}</style></defs><title>modern-weapon-tank-1</title><rect class="a" x="11.25" y="3.375" width="9" height="6.75" rx="1" ry="1"/><path class="a" d="M20.25,6.375h.6a2.751,2.751,0,0,1,2.4,3v.75"/><line class="a" x1="11.25" y1="8.625" x2="0.75" y2="8.625"/><line class="a" x1="11.25" y1="5.625" x2="0.75" y2="5.625"/><line class="a" x1="2.25" y1="3.375" x2="2.25" y2="8.625"/><line class="a" x1="6.75" y1="5.625" x2="6.75" y2="8.625"/><line class="a" x1="15.75" y1="1.875" x2="15.75" y2="3.375"/><polyline class="a" points="12.75 22.125 12.75 10.125 17.25 10.125 17.25 22.125"/><line class="a" x1="12.75" y1="13.125" x2="17.25" y2="13.125"/><line class="a" x1="12.75" y1="16.125" x2="17.25" y2="16.125"/><line class="a" x1="12.75" y1="19.125" x2="17.25" y2="19.125"/><path class="a" d="M20.25,16.875l2.4,1.8a1.5,1.5,0,0,1,.6,1.2v2.25"/><path class="a" d="M9.75,16.875l-2.4,1.8a1.5,1.5,0,0,0-.6,1.2v2.25"/><line class="a" x1="14.25" y1="5.625" x2="14.25" y2="7.125"/></svg>