<svg xmlns="http://www.w3.org/2000/svg" viewBox="0 0 24 24"><defs><style>.a{fill:none;stroke:currentColor;stroke-linecap:round;stroke-linejoin:round;stroke-width:1.5px;}</style></defs><title>modern-weapon-machine-gun-1</title><path class="a" d="M.97,18.736a.749.749,0,0,0,0,1.06L4.2,23.03a.75.75,0,0,0,1.2-.2l2.534-5.069-3-3Z"/><path class="a" d="M4.939,14.766l.24-2.467a.746.746,0,0,1,.216-.458l4.749-4.749a1.5,1.5,0,0,1,2.121,0l3.174,3.174-7.5,7.5Z"/><line class="a" x1="14.689" y1="9.516" x2="23.25" y2="0.955"/><path class="a" d="M12.439,7.266,15.226,4.48a1.5,1.5,0,0,1,1.154-.437l3.559.223"/><line class="a" x1="21.697" y1="2.508" x2="19.939" y2="0.75"/><path class="a" d="M7.939,17.766,11.6,21.425a.75.75,0,0,0,1.061,0l.722-.722a.75.75,0,0,0,.062-.99l-3.254-4.2"/><path class="a" d="M22.361,13.205a.747.747,0,0,0-.829-.561,6.246,6.246,0,0,1-4.758-1.31l-1.335-1.068-2.25,2.25,1.693,1.693a6.983,6.983,0,0,0,7.447,1.577.75.75,0,0,0,.458-.881Z"/></svg>