<svg xmlns="http://www.w3.org/2000/svg" viewBox="0 0 24 24"><defs><style>.a{fill:none;stroke:currentColor;stroke-linecap:round;stroke-linejoin:round;stroke-width:1.5px;}</style></defs><title>monetization-user-monitor</title><path class="a" d="M19.5.75h1.875a1.838,1.838,0,0,1,1.875,1.8v8.4a1.838,1.838,0,0,1-1.875,1.8H15"/><path class="a" d="M8.25,3.75V2.55A1.707,1.707,0,0,1,9.969.75H12"/><line class="a" x1="15.75" y1="12.75" x2="15.75" y2="15.75"/><line class="a" x1="14.25" y1="15.75" x2="18" y2="15.75"/><path class="a" d="M14.25,23.25a6.75,6.75,0,0,0-13.5,0"/><path class="a" d="M3.945,8.781a6.857,6.857,0,0,0,7.642,1.536"/><circle class="a" cx="7.5" cy="10.875" r="4.125"/><path class="a" d="M13.892,7.094a2.221,2.221,0,0,0,1.858.875c1.139,0,2.062-.693,2.062-1.547s-.923-1.547-2.062-1.547-2.063-.693-2.063-1.548S14.611,1.78,15.75,1.78a2.224,2.224,0,0,1,1.858.875"/><line class="a" x1="15.75" y1="7.969" x2="15.75" y2="9"/><line class="a" x1="15.75" y1="0.75" x2="15.75" y2="1.78"/></svg>