<svg xmlns="http://www.w3.org/2000/svg" viewBox="0 0 24 24"><defs><style>.a{fill:none;stroke:currentColor;stroke-linecap:round;stroke-linejoin:round;stroke-width:1.5px;}</style></defs><title>money-bag-euro</title><line class="a" x1="8.279" y1="14.25" x2="12.779" y2="14.25"/><line class="a" x1="8.279" y1="17.25" x2="12.779" y2="17.25"/><path class="a" d="M12.779,11.525a4.475,4.475,0,0,0,0,8.45"/><line class="a" x1="6.779" y1="8.25" x2="17.279" y2="8.25"/><path class="a" d="M15.585,5.036,17.023,2.16a.751.751,0,0,0-1.007-1.006L14.121,2.1a.749.749,0,0,1-.959-.255l-.509-.763a.75.75,0,0,0-1.248,0l-.509.763a.75.75,0,0,1-.959.255l-1.9-.948A.75.75,0,0,0,7.035,2.16l1.41,2.82"/><path class="a" d="M7.192,10.5l-2.76,3.2a5.932,5.932,0,0,0,4.7,9.549h5.79a5.932,5.932,0,0,0,4.7-9.549l-2.76-3.2"/></svg>