<svg xmlns="http://www.w3.org/2000/svg" viewBox="0 0 24 24"><defs><style>.a{fill:none;stroke:currentColor;stroke-linecap:round;stroke-linejoin:round;stroke-width:1.5px;}</style></defs><title>monetization-approve</title><path class="a" d="M13.236.817c.249.028.5.063.743.107"/><line class="a" x1="18.111" y1="2.611" x2="18.725" y2="3.042"/><path class="a" d="M21.728,6.345c.126.216.244.437.356.661"/><path class="a" d="M8.949,22.822a5.385,5.385,0,0,1-.713-.23"/><line class="a" x1="4.434" y1="20.258" x2="3.899" y2="19.734"/><path class="a" d="M1.477,15.986q-.134-.353-.243-.711"/><circle class="a" cx="17.25" cy="17.25" r="6"/><path class="a" d="M19.924,15.505l-2.905,3.874a.751.751,0,0,1-1.131.08l-1.5-1.5"/><path class="a" d="M8.222,3.75H6.189a1.342,1.342,0,0,0-.5,2.587l2.064.825a1.342,1.342,0,0,1-.5,2.588H5.222"/><line class="a" x1="6.722" y1="3.75" x2="6.722" y2="3"/><line class="a" x1="6.722" y1="10.5" x2="6.722" y2="9.75"/><circle class="a" cx="6.722" cy="6.75" r="6"/></svg>