<svg xmlns="http://www.w3.org/2000/svg" viewBox="0 0 24 24"><defs><style>.a{fill:none;stroke:currentColor;stroke-linecap:round;stroke-linejoin:round;stroke-width:1.5px;}</style></defs><title>monetization-user-coins</title><path class="a" d="M3.454,7.1a2.225,2.225,0,0,0,1.859.875c1.138,0,2.062-.693,2.062-1.548S6.451,4.877,5.313,4.877,3.25,4.184,3.25,3.329s.924-1.547,2.063-1.547a2.221,2.221,0,0,1,1.857.875"/><line class="a" x1="5.313" y1="7.971" x2="5.313" y2="9.001"/><line class="a" x1="5.313" y1="0.751" x2="5.313" y2="1.782"/><path class="a" d="M17.034,7.094a2.221,2.221,0,0,0,1.858.875c1.139,0,2.063-.693,2.063-1.547s-.924-1.547-2.063-1.547S16.83,4.182,16.83,3.327s.924-1.547,2.062-1.547a2.224,2.224,0,0,1,1.858.875"/><line class="a" x1="18.892" y1="7.969" x2="18.892" y2="9"/><line class="a" x1="18.892" y1="0.75" x2="18.892" y2="1.78"/><line class="a" x1="10.554" y1="4.5" x2="13.554" y2="4.5"/><path class="a" d="M18.071,23.25a6.7,6.7,0,0,0-12.035,0"/><path class="a" d="M8.5,11.781a6.857,6.857,0,0,0,7.642,1.536"/><circle class="a" cx="12.054" cy="13.875" r="4.125"/></svg>