<svg xmlns="http://www.w3.org/2000/svg" viewBox="0 0 24 24"><defs><style>.a{fill:none;stroke:currentColor;stroke-linecap:round;stroke-linejoin:round;stroke-width:1.5px;}</style></defs><title>monetization-dollar-bill-magnet</title><path class="a" d="M10.329,9.344a2.225,2.225,0,0,0,1.859.875c1.138,0,2.062-.693,2.062-1.547s-.924-1.547-2.062-1.547-2.063-.693-2.063-1.548.924-1.547,2.063-1.547a2.223,2.223,0,0,1,1.857.875"/><line class="a" x1="12.188" y1="10.219" x2="12.188" y2="11.25"/><line class="a" x1="12.188" y1="3" x2="12.188" y2="4.03"/><path class="a" d="M3.75,12.75H2.25a1.5,1.5,0,0,1-1.5-1.5v-9A1.5,1.5,0,0,1,2.25.75h19.5a1.5,1.5,0,0,1,1.5,1.5v9a1.5,1.5,0,0,1-1.5,1.5h-1.5"/><path class="a" d="M13.5,13.5V18a1.5,1.5,0,0,1-3,0V13.5H6.75V18a5.25,5.25,0,0,0,10.5,0V13.5Z"/><line class="a" x1="6.75" y1="16.5" x2="10.5" y2="16.5"/><line class="a" x1="13.5" y1="16.5" x2="17.25" y2="16.5"/></svg>