<svg xmlns="http://www.w3.org/2000/svg" viewBox="0 0 24 24"><defs><style>.a{fill:none;stroke:currentColor;stroke-linecap:round;stroke-linejoin:round;stroke-width:1.5px;}</style></defs><title>monetization-touch-browser</title><path class="a" d="M19.5,6V1.868A1.128,1.128,0,0,0,18.369.75H1.875A1.121,1.121,0,0,0,.75,1.862V15.381A1.129,1.129,0,0,0,1.881,16.5H3.75"/><line class="a" x1="0.75" y1="4.5" x2="19.5" y2="4.5"/><path class="a" d="M23.136,23.25l.1-1.123a3,3,0,0,0-2.337-3.2l-3.651-.811V12.375a2,2,0,0,0-1.949-1.86,1.817,1.817,0,0,0-1.8,1.86v9.2l-1.477-1.108a1.533,1.533,0,0,0-2.146,2.145l.475.633"/><path class="a" d="M5.65,13.844a2.221,2.221,0,0,0,1.858.875c1.139,0,2.063-.693,2.063-1.547s-.924-1.547-2.063-1.547-2.062-.693-2.062-1.548S6.369,8.53,7.508,8.53A2.224,2.224,0,0,1,9.366,9.4"/><line class="a" x1="7.508" y1="14.719" x2="7.508" y2="15.75"/><line class="a" x1="7.508" y1="7.5" x2="7.508" y2="8.53"/></svg>