<svg xmlns="http://www.w3.org/2000/svg" viewBox="0 0 24 24"><defs><style>.a{fill:none;stroke:currentColor;stroke-linecap:round;stroke-linejoin:round;stroke-width:1.5px;}</style></defs><title>monetization-mouse</title><path class="a" d="M8.25,12H6.217a1.342,1.342,0,0,0-.5,2.587l2.064.825A1.342,1.342,0,0,1,7.283,18H5.25"/><line class="a" x1="6.75" y1="12" x2="6.75" y2="11.25"/><line class="a" x1="6.75" y1="18.75" x2="6.75" y2="18"/><path class="a" d="M7.635,9.064A6.146,6.146,0,0,0,6.75,9a6,6,0,1,0,.974,11.921"/><path class="a" d="M20.25,4.5h-6a3,3,0,0,0-3,3v9.75a6,6,0,0,0,12,0V7.5A3,3,0,0,0,20.25,4.5Z"/><line class="a" x1="17.25" y1="7.5" x2="17.25" y2="10.5"/><line class="a" x1="8.507" y1="2.56" x2="9.568" y2="3.621"/><line class="a" x1="12" y1="2.25" x2="12" y2="0.75"/><line class="a" x1="6.697" y1="6" x2="8.197" y2="6"/></svg>