<svg xmlns="http://www.w3.org/2000/svg" viewBox="0 0 24 24"><defs><style>.a{fill:none;stroke:currentColor;stroke-linecap:round;stroke-linejoin:round;stroke-width:1.5px;}</style></defs><title>monetization-tablet</title><path class="a" d="M22.125,23.25l-3-4.5V13.5c0-2-3.8-4.14-5.25-5.25"/><path class="a" d="M15.805,14.793,12.157,11.87a1.3,1.3,0,0,0-1.843,1.843L13.848,17.7v2.5c0,1.181,1.687,3.045,1.687,3.045"/><path class="a" d="M13.836,17.978a2.733,2.733,0,0,1-2.694,2.272H4.608a2.733,2.733,0,0,1-2.733-2.733V3.482A2.732,2.732,0,0,1,4.608.75h6.267a3,3,0,0,1,3,3v9.5"/><line class="a" x1="1.875" y1="15.75" x2="7.875" y2="15.75"/><path class="a" d="M6.017,9.344a2.221,2.221,0,0,0,1.858.875c1.139,0,2.063-.693,2.063-1.547S9.014,7.125,7.875,7.125,5.813,6.432,5.813,5.577,6.736,4.03,7.875,4.03a2.224,2.224,0,0,1,1.858.875"/><line class="a" x1="7.875" y1="10.219" x2="7.875" y2="11.25"/><line class="a" x1="7.875" y1="3" x2="7.875" y2="4.03"/></svg>