<svg xmlns="http://www.w3.org/2000/svg" viewBox="0 0 24 24"><defs><style>.a{fill:none;stroke:currentColor;stroke-linecap:round;stroke-linejoin:round;stroke-width:1.5px;}</style></defs><title>monetization-user-laptop</title><line class="a" x1="10.5" y1="23.25" x2="3.684" y2="23.25"/><path class="a" d="M13.1,15.626A.936.936,0,0,1,13.985,15h8.328a.943.943,0,0,1,.76.38.9.9,0,0,1,.129.826L20.8,23.25H10.5Z"/><path class="a" d="M16.891,17.848a1,1,0,1,1-1,1,1,1,0,0,1,1-1"/><path class="a" d="M.75,23.25A6.757,6.757,0,0,1,9.508,16.8"/><path class="a" d="M3.945,8.781a6.858,6.858,0,0,0,7.643,1.536"/><circle class="a" cx="7.5" cy="10.875" r="4.125"/><path class="a" d="M19.125,2.25H16.5A1.341,1.341,0,0,0,16,4.837l2.655.825a1.342,1.342,0,0,1-.5,2.588H15"/><line class="a" x1="17.25" y1="2.25" x2="17.25" y2="0.75"/><line class="a" x1="17.25" y1="9.75" x2="17.25" y2="8.25"/></svg>