<svg xmlns="http://www.w3.org/2000/svg" viewBox="0 0 24 24"><defs><style>.a{fill:none;stroke:currentColor;stroke-linecap:round;stroke-linejoin:round;stroke-width:1.5px;}</style></defs><title>money-atm</title><path class="a" d="M18.629,19.5H5.371a.75.75,0,0,1-.742-.861L6.75,4.5h10.5l2.121,14.139A.75.75,0,0,1,18.629,19.5Z"/><line class="a" x1="4.5" y1="22.5" x2="19.5" y2="22.5"/><path class="a" d="M13.5,9H11.467a1.342,1.342,0,0,0-.5,2.587l2.064.826a1.342,1.342,0,0,1-.5,2.587H10.5"/><line class="a" x1="12" y1="9" x2="12" y2="7.5"/><line class="a" x1="12" y1="16.5" x2="12" y2="15"/><path class="a" d="M3,9H1.5a.75.75,0,0,1-.75-.75v-6A.75.75,0,0,1,1.5,1.5h21a.75.75,0,0,1,.75.75v6A.75.75,0,0,1,22.5,9H21"/></svg>