<svg xmlns="http://www.w3.org/2000/svg" viewBox="0 0 24 24"><defs><style>.a{fill:none;stroke:currentColor;stroke-linecap:round;stroke-linejoin:round;stroke-width:1.5px;}</style></defs><title>monetization-user-monitor-1</title><line class="a" x1="11" y1="0.75" x2="12" y2="0.75"/><circle class="a" cx="6" cy="3.75" r="3"/><path class="a" d="M11.25,13.5a5.25,5.25,0,0,0-10.5,0v2.25H3l.75,7.5h4.5L9,15.75h2.25Z"/><line class="a" x1="6" y1="8.25" x2="6" y2="12.75"/><path class="a" d="M19.5.75h1.875a1.838,1.838,0,0,1,1.875,1.8v8.4a1.838,1.838,0,0,1-1.875,1.8H15"/><line class="a" x1="15.75" y1="12.75" x2="15.75" y2="15.75"/><line class="a" x1="14.25" y1="15.75" x2="18" y2="15.75"/><path class="a" d="M13.892,7.094a2.221,2.221,0,0,0,1.858.875c1.139,0,2.063-.693,2.063-1.547s-.924-1.547-2.063-1.547-2.062-.693-2.062-1.548S14.611,1.78,15.75,1.78a2.224,2.224,0,0,1,1.858.875"/><line class="a" x1="15.75" y1="7.969" x2="15.75" y2="9"/><line class="a" x1="15.75" y1="0.75" x2="15.75" y2="1.78"/></svg>