<svg xmlns="http://www.w3.org/2000/svg" viewBox="0 0 24 24"><defs><style>.a{fill:none;stroke:currentColor;stroke-linecap:round;stroke-linejoin:round;stroke-width:1.5px;}</style></defs><title>monetization-team</title><path class="a" d="M13.125,2.25H10.5A1.341,1.341,0,0,0,10,4.837l2.655.825a1.342,1.342,0,0,1-.5,2.588H9"/><line class="a" x1="11.25" y1="2.25" x2="11.25" y2="0.75"/><line class="a" x1="11.25" y1="10.5" x2="11.25" y2="8.25"/><circle class="a" cx="4.5" cy="17.625" r="2.625"/><path class="a" d="M8.25,23.25a4.25,4.25,0,0,0-7.5,0"/><circle class="a" cx="12" cy="17.625" r="2.625"/><path class="a" d="M15.75,23.25a4.25,4.25,0,0,0-7.5,0"/><circle class="a" cx="19.5" cy="17.625" r="2.625"/><path class="a" d="M23.25,23.25a4.25,4.25,0,0,0-7.5,0"/><path class="a" d="M6.375,10.5a6.895,6.895,0,0,1,0-9.75"/><path class="a" d="M16.125.75a6.895,6.895,0,0,1,0,9.75"/></svg>