<svg xmlns="http://www.w3.org/2000/svg" viewBox="0 0 24 24"><defs><style>.a{fill:none;stroke:currentColor;stroke-linecap:round;stroke-linejoin:round;stroke-width:1.5px;}</style></defs><title>money-wallet</title><path class="a" d="M21.75,18.5V20a3,3,0,0,1-3,3h-15a3,3,0,0,1-3-3V9.5a3,3,0,0,1,3-3h15a3,3,0,0,1,3,3V11"/><path class="a" d="M18.75,6.5,16.421,1.842a1.5,1.5,0,0,0-2.013-.671L3.75,6.5"/><path class="a" d="M21.75,18.5a1.5,1.5,0,0,0,1.5-1.5V12.5a1.5,1.5,0,0,0-1.5-1.5H18a3.75,3.75,0,0,0,0,7.5Z"/><path class="a" d="M18,14.375a.375.375,0,1,1-.375.375A.375.375,0,0,1,18,14.375"/></svg>