<svg xmlns="http://www.w3.org/2000/svg" viewBox="0 0 24 24"><defs><style>.a{fill:none;stroke:currentColor;stroke-linecap:round;stroke-linejoin:round;stroke-width:1.5px;}</style></defs><title>monetization-browser-bag</title><path class="a" d="M18.188,10.6l1.769-3.027a.542.542,0,0,0,0-.549.565.565,0,0,0-.487-.274H13.532a.565.565,0,0,0-.487.274.542.542,0,0,0,0,.549l1.77,3.027c-.889.568-5.063,2.1-5.063,6.6,0,3.493,3.084,6.05,6.656,6.05s6.844-2.557,6.844-6.05C23.25,12.875,19.158,11.335,18.188,10.6Z"/><path class="a" d="M19.5,3.75V1.868A1.128,1.128,0,0,0,18.369.75H1.875A1.121,1.121,0,0,0,.75,1.862V15.381A1.129,1.129,0,0,0,1.881,16.5H6"/><line class="a" x1="0.75" y1="4.5" x2="11.25" y2="4.5"/><path class="a" d="M14.642,19.094a2.221,2.221,0,0,0,1.858.875c1.139,0,2.063-.693,2.063-1.547s-.924-1.547-2.063-1.547-2.062-.693-2.062-1.548.923-1.547,2.062-1.547a2.224,2.224,0,0,1,1.858.875"/><line class="a" x1="16.5" y1="19.969" x2="16.5" y2="21"/><line class="a" x1="16.5" y1="12.75" x2="16.5" y2="13.78"/></svg>