<svg xmlns="http://www.w3.org/2000/svg" viewBox="0 0 24 24"><defs><style>.a{fill:none;stroke:currentColor;stroke-linecap:round;stroke-linejoin:round;stroke-width:1.5px;}</style></defs><title>monetization-bill-magnet</title><path class="a" d="M3.75,12.75H2.25a1.5,1.5,0,0,1-1.5-1.5v-9A1.5,1.5,0,0,1,2.25.75h19.5a1.5,1.5,0,0,1,1.5,1.5v9a1.5,1.5,0,0,1-1.5,1.5h-1.5"/><path class="a" d="M13.5,12v6a1.5,1.5,0,0,1-3,0V12H6.75v6a5.25,5.25,0,0,0,10.5,0V12Z"/><line class="a" x1="6.75" y1="15" x2="10.5" y2="15"/><line class="a" x1="13.5" y1="15" x2="17.25" y2="15"/><circle class="a" cx="12" cy="6.583" r="2.5"/><line class="a" x1="0.75" y1="6" x2="6" y2="0.75"/><line class="a" x1="23.25" y1="6" x2="18" y2="0.75"/></svg>