<svg xmlns="http://www.w3.org/2000/svg" viewBox="0 0 24 24"><defs><style>.a{fill:none;stroke:currentColor;stroke-linecap:round;stroke-linejoin:round;stroke-width:1.5px;}</style></defs><title>monetization-phone</title><path class="a" d="M18.829,13.094a2.225,2.225,0,0,0,1.859.875c1.138,0,2.062-.693,2.062-1.547s-.924-1.547-2.062-1.547-2.063-.693-2.063-1.548.924-1.547,2.063-1.547a2.223,2.223,0,0,1,1.857.875"/><line class="a" x1="20.688" y1="13.969" x2="20.688" y2="15"/><line class="a" x1="20.688" y1="6.75" x2="20.688" y2="7.78"/><path class="a" d="M1.25,18.75h13.5v1.5a3,3,0,0,1-3,3H4.25a3,3,0,0,1-3-3V3.75a3,3,0,0,1,3-3h7.5a3,3,0,0,1,3,3v1.5"/><line class="a" x1="11.75" y1="8.25" x2="14.75" y2="8.25"/><line class="a" x1="11.75" y1="14.25" x2="14.75" y2="14.25"/><line class="a" x1="9.5" y1="11.25" x2="16.25" y2="11.25"/><line class="a" x1="7.25" y1="11.25" x2="6.5" y2="11.25"/><line class="a" x1="9.5" y1="8.25" x2="8.75" y2="8.25"/><line class="a" x1="9.5" y1="14.25" x2="8.75" y2="14.25"/></svg>