<svg xmlns="http://www.w3.org/2000/svg" viewBox="0 0 24 24"><defs><style>.a{fill:none;stroke:currentColor;stroke-linecap:round;stroke-linejoin:round;stroke-width:1.5px;}</style></defs><title>monetization-structure</title><path class="a" d="M3.375,18.75V16.227a.477.477,0,0,1,.477-.477H19.4a.477.477,0,0,1,.477.477V18"/><line class="a" x1="11.625" y1="12.75" x2="11.625" y2="18.75"/><circle class="a" cx="3.375" cy="21" r="2.25"/><path class="a" d="M13.125,3.75H11.092a1.342,1.342,0,0,0-.5,2.587l2.064.825a1.342,1.342,0,0,1-.5,2.588H10.125"/><line class="a" x1="11.625" y1="3.75" x2="11.625" y2="3"/><line class="a" x1="11.625" y1="10.5" x2="11.625" y2="9.75"/><circle class="a" cx="11.625" cy="6.75" r="6"/><rect class="a" x="9.375" y="18.75" width="4.5" height="4.5"/><polygon class="a" points="16.875 23.25 22.875 23.25 19.875 18 16.875 23.25"/></svg>