<svg xmlns="http://www.w3.org/2000/svg" viewBox="0 0 24 24"><defs><style>.a{fill:none;stroke:currentColor;stroke-linecap:round;stroke-linejoin:round;stroke-width:1.5px;}</style></defs><title>monetization-idea</title><path class="a" d="M18.75,14.25H16.717a1.342,1.342,0,0,0-.5,2.587l2.064.825a1.342,1.342,0,0,1-.5,2.588H15.75"/><line class="a" x1="17.25" y1="14.25" x2="17.25" y2="13.5"/><line class="a" x1="17.25" y1="21" x2="17.25" y2="20.25"/><circle class="a" cx="17.25" cy="17.25" r="6"/><polyline class="a" points="4.5 23.25 8.25 21 6 17.25"/><path class="a" d="M.9,15.81a6.752,6.752,0,0,0,6.884,4.417"/><polyline class="a" points="19.5 0.75 15.75 3 18 6.75"/><path class="a" d="M23.1,8.189a6.752,6.752,0,0,0-6.884-4.417"/><path class="a" d="M11.25,4.5A3.75,3.75,0,1,0,6,7.933V9.75H9V7.933A3.746,3.746,0,0,0,11.25,4.5Z"/><line class="a" x1="6" y1="12" x2="9" y2="12"/></svg>