<svg id="Regular" xmlns="http://www.w3.org/2000/svg" viewBox="0 0 24 24"><defs><style>.cls-1{fill:none;stroke:currentColor;stroke-linecap:round;stroke-linejoin:round;stroke-width:1.5px;}</style></defs><title>monitor-heart-notes</title><path class="cls-1" d="M20.25,12.75V5.25a1.5,1.5,0,0,0-1.5-1.5h-3"/><path class="cls-1" d="M3.75,18.75v3a1.5,1.5,0,0,0,1.5,1.5h13.5a1.5,1.5,0,0,0,1.5-1.5v-3"/><path class="cls-1" d="M8.25,3.75h-3a1.5,1.5,0,0,0-1.5,1.5v7.5"/><path class="cls-1" d="M.75,15.75H6.518a.376.376,0,0,0,.336-.207L8.61,12.03a.375.375,0,0,1,.688.039l2.384,6.558a.375.375,0,0,0,.7.024l2.3-5.175a.375.375,0,0,1,.678-.015L16.4,15.543a.376.376,0,0,0,.336.207H23.25"/><path class="cls-1" d="M14.205,2.25A2.19,2.19,0,0,0,12,.75a2.19,2.19,0,0,0-2.2,1.5H9A.75.75,0,0,0,8.25,3V6A.75.75,0,0,0,9,6.75h6A.75.75,0,0,0,15.75,6V3A.75.75,0,0,0,15,2.25Z"/></svg>