<svg id="Regular" xmlns="http://www.w3.org/2000/svg" viewBox="0 0 24 24"><defs><style>.cls-1{fill:none;stroke:currentColor;stroke-linecap:round;stroke-linejoin:round;stroke-width:1.5px;}</style></defs><title>monkey</title><path class="cls-1" d="M16.2,17.562a3.08,3.08,0,0,1,.59-2.877A10.3,10.3,0,0,0,18.75,9c0-2.485-1.679-4.5-3.75-4.5a3.266,3.266,0,0,0-2.038.734,1.534,1.534,0,0,1-1.924,0A3.266,3.266,0,0,0,9,4.5C6.929,4.5,5.25,6.515,5.25,9a10.3,10.3,0,0,0,1.963,5.685,3.08,3.08,0,0,1,.59,2.877,7.905,7.905,0,0,0-.3,2.313c0,1.864,2.015,3.375,4.5,3.375s4.5-1.511,4.5-3.375A7.905,7.905,0,0,0,16.2,17.562Z"/><path class="cls-1" d="M9.375,9.75a.375.375,0,0,1,.375.375"/><path class="cls-1" d="M9,10.125a.375.375,0,0,1,.375-.375"/><path class="cls-1" d="M9.375,10.5A.375.375,0,0,1,9,10.125"/><path class="cls-1" d="M9.75,10.125a.375.375,0,0,1-.375.375"/><path class="cls-1" d="M14.625,9.75a.375.375,0,0,1,.375.375"/><path class="cls-1" d="M14.25,10.125a.375.375,0,0,1,.375-.375"/><path class="cls-1" d="M14.625,10.5a.375.375,0,0,1-.375-.375"/><path class="cls-1" d="M15,10.125a.375.375,0,0,1-.375.375"/><path class="cls-1" d="M7.556,18.8A6.736,6.736,0,0,0,12,20.25,6.736,6.736,0,0,0,16.444,18.8"/><line class="cls-1" x1="12" y1="13.5" x2="12" y2="15.75"/><path class="cls-1" d="M22.5,12.75c0,7.5-4.287,10.5-10.5,10.5s-10.5-3-10.5-10.5C1.5,4.5,3.75.75,12,.75S22.5,4.5,22.5,12.75Z"/></svg>