<svg id="Regular" xmlns="http://www.w3.org/2000/svg" viewBox="0 0 24 24"><defs><style>.cls-1{fill:none;stroke:currentColor;stroke-linecap:round;stroke-linejoin:round;stroke-width:1.5px;}</style></defs><title>monkey-1</title><path class="cls-1" d="M20.254,11.4A4.283,4.283,0,0,0,15.9,7.5H8.118a4.283,4.283,0,0,0-4.352,3.9A4.125,4.125,0,0,0,7.885,15.75h.25L7.781,20A3,3,0,0,0,10.77,23.25h2.479A3,3,0,0,0,16.239,20l-.354-4.251h.25A4.125,4.125,0,0,0,20.254,11.4Z"/><path class="cls-1" d="M9.76,23.25c-6.75,0-9-4.5-9-13.5,0-5.25,4.858-9,9-9h4.5c4.142,0,9,3.75,9,9,0,9-2.25,13.5-9,13.5Z"/><path class="cls-1" d="M7.885,11.25a.375.375,0,0,1,.375.375"/><path class="cls-1" d="M7.51,11.625a.375.375,0,0,1,.375-.375"/><path class="cls-1" d="M7.885,12a.375.375,0,0,1-.375-.375"/><path class="cls-1" d="M8.26,11.625A.375.375,0,0,1,7.885,12"/><path class="cls-1" d="M15.385,11.25a.375.375,0,0,1,.375.375"/><path class="cls-1" d="M15.01,11.625a.375.375,0,0,1,.375-.375"/><path class="cls-1" d="M15.385,12a.375.375,0,0,1-.375-.375"/><path class="cls-1" d="M15.76,11.625a.375.375,0,0,1-.375.375"/><path class="cls-1" d="M7.84,19.29a8.656,8.656,0,0,0,4.17.96,8.7,8.7,0,0,0,4.17-.96"/><line class="cls-1" x1="11.26" y1="15" x2="12.76" y2="15"/></svg>