<svg id="Regular" xmlns="http://www.w3.org/2000/svg" viewBox="0 0 24 24"><defs><style>.cls-1{fill:none;stroke:currentColor;stroke-linecap:round;stroke-linejoin:round;stroke-width:1.5px;}</style></defs><title>moose-body</title><path class="cls-1" d="M.705,23.242v-9a3.75,3.75,0,0,1,3.75-3.75h6.75c2.25,0,3.75-3,5.25-4.5s4.508-1.5,6,1.5c1.3,2.621.837,4.5-.75,4.5-2.25,0-3-1.5-3.75-.75s-1.5,3-1.5,6v6"/><path class="cls-1" d="M3.705,23.242v-3.5q0-1.751,2.25-1.75h5.25q2.25,0,2.25,1.75v3.5"/><path class="cls-1" d="M19.83,7.492a.375.375,0,0,1,.375.375"/><path class="cls-1" d="M19.455,7.867a.374.374,0,0,1,.375-.375"/><path class="cls-1" d="M19.83,8.242a.374.374,0,0,1-.375-.375"/><path class="cls-1" d="M20.2,7.867a.375.375,0,0,1-.375.375"/><path class="cls-1" d="M17.2,5.434c.06-1.628-.558-2.442-5.246-2.442-3.75,0-5.25,0-5.25-2.25"/><line class="cls-1" x1="10.455" y1="0.742" x2="10.455" y2="2.992"/><line class="cls-1" x1="14.205" y1="0.742" x2="14.205" y2="3.08"/><path class="cls-1" d="M13.522,9.406l-.067.336a3.749,3.749,0,0,0,3.264,4.547"/></svg>