<svg id="Regular" xmlns="http://www.w3.org/2000/svg" viewBox="0 0 24 24"><defs><style>.cls-1{fill:none;stroke:currentColor;stroke-linecap:round;stroke-linejoin:round;stroke-width:1.5px;}</style></defs><title>mortar-pestle</title><line class="cls-1" x1="0.75" y1="11" x2="23.25" y2="11"/><path class="cls-1" d="M21.75,11H2.25a9.741,9.741,0,0,0,5.265,8.653.752.752,0,0,1,.29,1.066,10.27,10.27,0,0,0-.648,1.223A.75.75,0,0,0,7.841,23h8.318a.751.751,0,0,0,.684-1.058,10.27,10.27,0,0,0-.648-1.223.753.753,0,0,1,.29-1.066A9.741,9.741,0,0,0,21.75,11Z"/><path class="cls-1" d="M14.25,8l3.957-6.595A1.316,1.316,0,0,1,19.752.834h0A1.316,1.316,0,0,1,20.584,2.5L18.75,8"/></svg>