<svg id="Regular" xmlns="http://www.w3.org/2000/svg" viewBox="0 0 24 24"><defs><style>.cls-1{fill:none;stroke:currentColor;stroke-linecap:round;stroke-linejoin:round;stroke-width:1.5px;}</style></defs><title>mouse-2</title><path class="cls-1" d="M8.1,6.127A7.126,7.126,0,0,0,6.76,6a6,6,0,0,0,0,12h15a1.5,1.5,0,1,0,0-3c-1,0-.131.495-4.305-2.844A4.1,4.1,0,0,0,13.885,6,4.183,4.183,0,0,0,9.76,10.125a4.117,4.117,0,0,0,1.5,3.179"/><path class="cls-1" d="M16.135,14.25a.375.375,0,0,1,.375.375"/><path class="cls-1" d="M15.76,14.625a.375.375,0,0,1,.375-.375"/><path class="cls-1" d="M16.135,15a.375.375,0,0,1-.375-.375"/><path class="cls-1" d="M16.51,14.625a.375.375,0,0,1-.375.375"/></svg>