<svg id="Regular" xmlns="http://www.w3.org/2000/svg" viewBox="0 0 24 24"><defs><style>.cls-1{fill:none;stroke:currentColor;stroke-linecap:round;stroke-linejoin:round;stroke-width:1.5px;}</style></defs><title>mouse-tail</title><path class="cls-1" d="M13.51,10.25c.75.75,0,3.75-3,3.75a5.25,5.25,0,0,1,0-10.5c2.25,0,3,.75,3,.75l.076.076"/><path class="cls-1" d="M14.259,6.984A3,3,0,1,1,19.51,5l3.75,1.5a5.681,5.681,0,0,1-2.25,3.75c-2.25,1.5-6.75.75-6.75.75l-.487-.081"/><polyline class="cls-1" points="17.072 11.185 18.01 14 18.76 14"/><line class="cls-1" x1="15.01" y1="14" x2="10.51" y2="14"/><path class="cls-1" d="M5.313,9.5a4.5,4.5,0,1,0-.053,9h10.5c3,0,3,3.75,0,3.75h-4.5"/><path class="cls-1" d="M18.385,7.25a.375.375,0,0,0-.375.375"/><path class="cls-1" d="M18.76,7.625a.375.375,0,0,0-.375-.375"/><path class="cls-1" d="M18.385,8a.375.375,0,0,0,.375-.375"/><path class="cls-1" d="M18.01,7.625A.375.375,0,0,0,18.385,8"/></svg>