<svg id="Regular" xmlns="http://www.w3.org/2000/svg" viewBox="0 0 24 24"><defs><style>.cls-1{fill:none;stroke:currentColor;stroke-linecap:round;stroke-linejoin:round;stroke-width:1.5px;}</style></defs><title>mouse</title><path class="cls-1" d="M14.26,18.45a2.306,2.306,0,0,1-4.5,0c0-.663,1.007-1.2,2.25-1.2S14.26,17.787,14.26,18.45Z"/><line class="cls-1" x1="12.01" y1="20.25" x2="12.01" y2="23.25"/><path class="cls-1" d="M7.885,13.5a.375.375,0,0,1,.375.375"/><path class="cls-1" d="M7.51,13.875a.375.375,0,0,1,.375-.375"/><path class="cls-1" d="M7.885,14.25a.375.375,0,0,1-.375-.375"/><path class="cls-1" d="M8.26,13.875a.375.375,0,0,1-.375.375"/><path class="cls-1" d="M16.135,13.5a.375.375,0,0,1,.375.375"/><path class="cls-1" d="M15.76,13.875a.375.375,0,0,1,.375-.375"/><path class="cls-1" d="M16.135,14.25a.375.375,0,0,1-.375-.375"/><path class="cls-1" d="M16.51,13.875a.375.375,0,0,1-.375.375"/><line class="cls-1" x1="19.882" y1="17.906" x2="23.26" y2="18.75"/><line class="cls-1" x1="17.684" y1="20.674" x2="20.26" y2="23.25"/><path class="cls-1" d="M18.01,7.37a9.551,9.551,0,0,0-12,0"/><path class="cls-1" d="M14.268,5.515A4.5,4.5,0,1,1,19.927,9.6h0a7.636,7.636,0,0,1,1.083,3.9c0,6-5.727,9.75-9,9.75s-9-3.75-9-9.75A7.636,7.636,0,0,1,4.093,9.6h0A4.5,4.5,0,1,1,9.752,5.515"/><line class="cls-1" x1="4.138" y1="17.906" x2="0.76" y2="18.75"/><line class="cls-1" x1="6.336" y1="20.674" x2="3.76" y2="23.25"/></svg>