<svg id="Regular" xmlns="http://www.w3.org/2000/svg" viewBox="0 0 24 24"><defs><style>.cls-1{fill:none;stroke:currentColor;stroke-linecap:round;stroke-linejoin:round;stroke-width:1.5px;}</style></defs><title>mouse-body</title><path class="cls-1" d="M15.436,19.5a9.445,9.445,0,0,1-3.926,3"/><path class="cls-1" d="M18.26,6.75v4.5a13.533,13.533,0,0,1-.862,4.84"/><path class="cls-1" d="M10.578,3.568a4.5,4.5,0,0,1,6.364,0"/><path class="cls-1" d="M17.51,23.25H7.76a6,6,0,0,1,0-12c1.5,0,1.5-1.5,1.5-2.25V6.75"/><path class="cls-1" d="M7.01,17.25c3,0,4.5,2.25,4.5,6"/><path class="cls-1" d="M11.885,6.75a.375.375,0,0,1,.375.375"/><path class="cls-1" d="M11.51,7.125a.375.375,0,0,1,.375-.375"/><path class="cls-1" d="M11.885,7.5a.375.375,0,0,1-.375-.375"/><path class="cls-1" d="M12.26,7.125a.375.375,0,0,1-.375.375"/><path class="cls-1" d="M15.635,6.75a.375.375,0,0,1,.375.375"/><path class="cls-1" d="M15.26,7.125a.375.375,0,0,1,.375-.375"/><path class="cls-1" d="M15.635,7.5a.375.375,0,0,1-.375-.375"/><path class="cls-1" d="M16.01,7.125a.375.375,0,0,1-.375.375"/><path class="cls-1" d="M11.911,2.657A3.37,3.37,0,1,0,8.885,7.5a3.33,3.33,0,0,0,.375-.038V6.75"/><path class="cls-1" d="M18.26,7.462a3.307,3.307,0,0,0,.375.038,3.375,3.375,0,1,0-3.026-4.843"/><path class="cls-1" d="M19.01,18.75a3,3,0,0,0-3-3h-1.5"/></svg>