<svg id="Regular" xmlns="http://www.w3.org/2000/svg" viewBox="0 0 24 24"><defs><style>.cls-1{fill:none;stroke:currentColor;stroke-linecap:round;stroke-linejoin:round;stroke-width:1.5px;}</style></defs><title>movie-cinema</title><path class="cls-1" d="M22.875,11.25a.375.375,0,0,1-.375-.375"/><path class="cls-1" d="M23.25,10.875a.375.375,0,0,1-.375.375"/><path class="cls-1" d="M22.875,10.5a.375.375,0,0,1,.375.375"/><path class="cls-1" d="M22.5,10.875a.375.375,0,0,1,.375-.375"/><path class="cls-1" d="M22.875,15a.375.375,0,0,1-.375-.375"/><path class="cls-1" d="M23.25,14.625a.375.375,0,0,1-.375.375"/><path class="cls-1" d="M22.875,14.25a.375.375,0,0,1,.375.375"/><path class="cls-1" d="M22.5,14.625a.375.375,0,0,1,.375-.375"/><path class="cls-1" d="M22.875,18.75a.375.375,0,0,1-.375-.375"/><path class="cls-1" d="M23.25,18.375a.375.375,0,0,1-.375.375"/><path class="cls-1" d="M22.875,18a.375.375,0,0,1,.375.375"/><path class="cls-1" d="M22.5,18.375A.375.375,0,0,1,22.875,18"/><path class="cls-1" d="M1.125,11.25a.375.375,0,0,1-.375-.375"/><path class="cls-1" d="M1.5,10.875a.375.375,0,0,1-.375.375"/><path class="cls-1" d="M1.125,10.5a.375.375,0,0,1,.375.375"/><path class="cls-1" d="M.75,10.875a.375.375,0,0,1,.375-.375"/><path class="cls-1" d="M1.125,15a.375.375,0,0,1-.375-.375"/><path class="cls-1" d="M1.5,14.625A.375.375,0,0,1,1.125,15"/><path class="cls-1" d="M1.125,14.25a.375.375,0,0,1,.375.375"/><path class="cls-1" d="M.75,14.625a.375.375,0,0,1,.375-.375"/><path class="cls-1" d="M1.125,18.75a.375.375,0,0,1-.375-.375"/><path class="cls-1" d="M1.5,18.375a.375.375,0,0,1-.375.375"/><path class="cls-1" d="M1.125,18a.375.375,0,0,1,.375.375"/><path class="cls-1" d="M.75,18.375A.375.375,0,0,1,1.125,18"/><path class="cls-1" d="M.75,21.75a1.5,1.5,0,0,0,1.5,1.5h19.5a1.5,1.5,0,0,0,1.5-1.5"/><path class="cls-1" d="M23.049,7.5a1.5,1.5,0,0,0-1.3-.75H18a6,6,0,0,0-12,0H2.25a1.5,1.5,0,0,0-1.3.75"/><path class="cls-1" d="M12.53,10.073l1.249,2.458h2.127a.582.582,0,0,1,.419,1l-1.953,1.922,1.082,2.485a.589.589,0,0,1-.839.737L12,17.2,9.385,18.671a.589.589,0,0,1-.839-.737l1.082-2.485L7.675,13.527a.582.582,0,0,1,.419-1h2.127l1.248-2.458A.6.6,0,0,1,12.53,10.073Z"/></svg>