<svg id="Regular" xmlns="http://www.w3.org/2000/svg" viewBox="0 0 24 24"><defs><style>.cls-1{fill:none;stroke:currentColor;stroke-linecap:round;stroke-linejoin:round;stroke-width:1.5px;}</style></defs><title>movie-cinema-clock</title><path class="cls-1" d="M4.5,12.75H2.25a1.5,1.5,0,0,1-1.5-1.5v-9A1.5,1.5,0,0,1,2.25.75H4.5"/><path class="cls-1" d="M18.75.75h3a1.5,1.5,0,0,1,1.5,1.5v9a1.5,1.5,0,0,1-1.5,1.5h-3"/><path class="cls-1" d="M.75,23.25v-3a3.75,3.75,0,0,1,7.5,0v3"/><path class="cls-1" d="M8.25,23.25v-3a3.75,3.75,0,0,1,7.5,0v3"/><path class="cls-1" d="M15.75,23.25v-3a3.75,3.75,0,0,1,7.5,0v3"/><line class="cls-1" x1="23.25" y1="23.25" x2="0.75" y2="23.25"/><circle class="cls-1" cx="12" cy="6.75" r="6"/><polyline class="cls-1" points="14.652 6.75 12 6.75 12 4.098"/></svg>