<svg id="Regular" xmlns="http://www.w3.org/2000/svg" viewBox="0 0 24 24"><defs><style>.cls-1{fill:none;stroke:currentColor;stroke-linecap:round;stroke-linejoin:round;stroke-width:1.5px;}</style></defs><title>movie-monster</title><path class="cls-1" d="M6.141,8.3,3.129,9.44s-1.112-.17-.614-1.882A19.941,19.941,0,0,1,3.3,5.325L1,5.188S.984,3.306,3.457,2.317,6.926.946,6.926.946A3.233,3.233,0,0,1,8.035.75c1.775,0,3.683,1.3,3.683,3.073l.023.993L10.4,5.694A1.236,1.236,0,1,0,11.88,7.672s4.944-2.718,6.428-3.707,2.967-.989,3.956,0a1.825,1.825,0,0,1,.593,1.643A.489.489,0,0,1,22.466,6l-2.18.436-8.279,4.684s-.128-.233.367,1.25,1.483.989,2.967.495a46.7,46.7,0,0,0,4.45-1.484,9.017,9.017,0,0,0,1.651-1.213.494.494,0,0,1,.822.371v2.043a1.5,1.5,0,0,1-1.041,1.428l-7.507,2.418a9.7,9.7,0,0,0-3.033,2.049L7.738,21.684l.581.775a.494.494,0,0,1-.4.791H6.44a2.672,2.672,0,0,1-1.506-.889,1.5,1.5,0,0,1-.085-2.079c1.2-1.342,3.224-3.61,3.569-3.955.494-.494,0-1.978,0-1.978Z"/><line class="cls-1" x1="6.44" y1="3.351" x2="7.923" y2="4.834"/><line class="cls-1" x1="6.44" y1="4.834" x2="7.923" y2="3.351"/><line class="cls-1" x1="21.382" y1="17.25" x2="21.382" y2="18.75"/><line class="cls-1" x1="2.632" y1="12.75" x2="2.632" y2="14.25"/><line class="cls-1" x1="14.632" y1="21" x2="14.632" y2="22.5"/></svg>