<svg id="Regular" xmlns="http://www.w3.org/2000/svg" viewBox="0 0 24 24"><defs><style>.cls-1{fill:none;stroke:currentColor;stroke-linecap:round;stroke-linejoin:round;stroke-width:1.5px;}</style></defs><title>movie-cinema-watch</title><path class="cls-1" d="M6.75,12H2.25a1.5,1.5,0,0,1-1.5-1.5V2.25A1.5,1.5,0,0,1,2.25.75h4.5"/><path class="cls-1" d="M15,.75h6.75a1.5,1.5,0,0,1,1.5,1.5V10.5a1.5,1.5,0,0,1-1.5,1.5H15"/><polygon class="cls-1" points="9.75 3 9.75 10.5 15.75 6.75 9.75 3"/><path class="cls-1" d="M.75,23.25v-3a3.75,3.75,0,0,1,7.5,0v3"/><path class="cls-1" d="M8.25,23.25v-3a3.75,3.75,0,0,1,7.5,0v3"/><path class="cls-1" d="M15.75,23.25v-3a3.75,3.75,0,0,1,7.5,0v3"/><line class="cls-1" x1="23.25" y1="23.25" x2="0.75" y2="23.25"/></svg>