<svg id="Regular" xmlns="http://www.w3.org/2000/svg" viewBox="0 0 24 24"><defs><style>.cls-1{fill:none;stroke:currentColor;stroke-linecap:round;stroke-linejoin:round;stroke-width:1.5px;}</style></defs><title>movie-celebrity</title><path class="cls-1" d="M8.25,17.25V15a3.75,3.75,0,0,1,7.5,0v2.25h-1.5l-.75,6h-3l-.75-6Z"/><circle class="cls-1" cx="12" cy="6.75" r="3"/><line class="cls-1" x1="0.75" y1="23.25" x2="5.25" y2="10.5"/><line class="cls-1" x1="23.25" y1="23.25" x2="18.75" y2="10.5"/><line class="cls-1" x1="22.189" y1="1.811" x2="23.25" y2="0.75"/><line class="cls-1" x1="22.189" y1="4.993" x2="23.25" y2="6.053"/><line class="cls-1" x1="19.007" y1="4.993" x2="17.947" y2="6.053"/><line class="cls-1" x1="19.007" y1="1.811" x2="17.947" y2="0.75"/><line class="cls-1" x1="4.993" y1="3.311" x2="6.053" y2="2.25"/><line class="cls-1" x1="4.993" y1="6.493" x2="6.053" y2="7.553"/><line class="cls-1" x1="1.811" y1="6.493" x2="0.75" y2="7.553"/><line class="cls-1" x1="1.811" y1="3.311" x2="0.75" y2="2.25"/></svg>