<svg id="Regular" xmlns="http://www.w3.org/2000/svg" viewBox="0 0 24 24"><defs><style>.cls-1{fill:none;stroke:currentColor;stroke-linecap:round;stroke-linejoin:round;stroke-width:1.5px;}</style></defs><title>movie-audience</title><path class="cls-1" d="M23.25,8.774a.75.75,0,0,1-.943.725l-21-5.6A.75.75,0,0,1,.75,3.174V1.5A.75.75,0,0,1,1.5.75h21a.75.75,0,0,1,.75.75Z"/><path class="cls-1" d="M6.75,21.75v-3H5.25a1.5,1.5,0,0,1-1.5-1.5v-3a1.5,1.5,0,0,1,3,0v1.5h1.5a1.5,1.5,0,0,1,1.5,1.5v4.5"/><circle class="cls-1" cx="5.25" cy="9.75" r="1.5"/><path class="cls-1" d="M17.25,23.25a1.5,1.5,0,0,1-1.5-1.5v-3a1.5,1.5,0,0,1,3,0v1.5h1.5a1.5,1.5,0,0,1,1.5,1.5v1.5"/><circle class="cls-1" cx="17.25" cy="14.25" r="1.5"/><line class="cls-1" x1="12.75" y1="17.25" x2="12.75" y2="23.25"/><path class="cls-1" d="M.75,12.75v6a3,3,0,0,0,3,3"/></svg>