<svg xmlns="http://www.w3.org/2000/svg" viewBox="0 0 24 24"><defs><style>.a{fill:none;stroke:currentColor;stroke-linecap:round;stroke-linejoin:round;stroke-width:1.5px;}</style></defs><title>moving-walkway-luggage</title><rect class="a" x="2.25" y="14.25" width="12" height="9" rx="1.5" ry="1.5"/><path class="a" d="M11.25,23.25V12.75a1.5,1.5,0,0,0-1.5-1.5h-3a1.5,1.5,0,0,0-1.5,1.5v10.5"/><circle class="a" cx="20.625" cy="3.75" r="2.625"/><path class="a" d="M21,23.25a1.5,1.5,0,0,1-1.5-1.5V11.739l-3.338.954a1.5,1.5,0,0,1-.824-2.886l5.25-1.5A1.5,1.5,0,0,1,22.5,9.75v12A1.5,1.5,0,0,1,21,23.25Z"/><line class="a" x1="0.75" y1="23.25" x2="23.25" y2="23.25"/><line class="a" x1="0.75" y1="4.5" x2="10.313" y2="4.5"/><polyline class="a" points="4.5 0.75 0.75 4.5 4.5 8.25"/></svg>