<svg id="Regular" xmlns="http://www.w3.org/2000/svg" viewBox="0 0 24 24"><defs><style>.cls-1{fill:none;stroke:currentColor;stroke-linecap:round;stroke-linejoin:round;stroke-width:1.5px;}</style></defs><title>museum-art</title><line class="cls-1" x1="4.5" y1="18.75" x2="4.5" y2="23.25"/><line class="cls-1" x1="12" y1="18.75" x2="12" y2="23.25"/><line class="cls-1" x1="4.5" y1="0.75" x2="12" y2="0.75"/><path class="cls-1" d="M13.5,8.25A5.24,5.24,0,0,0,11.591,4.2,3,3,0,0,1,10.5,1.886V.75H6V1.886A3,3,0,0,1,4.909,4.2a5.251,5.251,0,0,0,1.124,8.81L5.25,15.75h6l-.783-2.74A5.25,5.25,0,0,0,13.5,8.25Z"/><path class="cls-1" d="M15.75,17.25a1.5,1.5,0,0,1-1.5,1.5h-12a1.5,1.5,0,0,1,0-3h12A1.5,1.5,0,0,1,15.75,17.25Z"/><line class="cls-1" x1="3.506" y1="6" x2="12.994" y2="6"/><line class="cls-1" x1="3.506" y1="10.5" x2="12.994" y2="10.5"/><rect class="cls-1" x="16.5" y="4.5" width="6.75" height="3.75"/></svg>