<svg id="Regular" xmlns="http://www.w3.org/2000/svg" viewBox="0 0 24 24"><defs><style>.cls-1{fill:none;stroke:currentColor;stroke-linecap:round;stroke-linejoin:round;stroke-width:1.5px;}</style></defs><title>museum-painting</title><line class="cls-1" x1="5.25" y1="15" x2="5.25" y2="23.25"/><line class="cls-1" x1="18.75" y1="15" x2="18.75" y2="23.25"/><path class="cls-1" d="M18.75,16.484a15.785,15.785,0,0,1-13.5,0"/><path class="cls-1" d="M23.25,17.841a15.648,15.648,0,0,1-4.5-1.357"/><path class="cls-1" d="M.75,17.841a15.648,15.648,0,0,0,4.5-1.357"/><rect class="cls-1" x="3" y="0.75" width="18" height="11.25" rx="1" ry="1"/><path class="cls-1" d="M6,9,9.236,4.77a.75.75,0,0,1,1.095-.062l2.612,2.836"/><path class="cls-1" d="M12,9l3.17-4.9a.75.75,0,0,1,1.236-.053L18,6"/></svg>