<svg id="Regular" xmlns="http://www.w3.org/2000/svg" viewBox="0 0 24 24"><defs><style>.cls-1{fill:none;stroke:currentColor;stroke-linecap:round;stroke-linejoin:round;stroke-width:1.5px;}</style></defs><title>museum-exhibition</title><line class="cls-1" x1="0.75" y1="0.75" x2="23.25" y2="0.75"/><path class="cls-1" d="M1.5.75,3.849,4.86a.75.75,0,0,0,1.3,0L7.5.75"/><path class="cls-1" d="M9,.75l2.349,4.11a.75.75,0,0,0,1.3,0L15,.75"/><path class="cls-1" d="M16.5.75l2.349,4.11a.75.75,0,0,0,1.3,0L22.5.75"/><line class="cls-1" x1="5.25" y1="14.25" x2="5.25" y2="23.25"/><line class="cls-1" x1="18.75" y1="14.25" x2="18.75" y2="23.25"/><path class="cls-1" d="M18.75,15.734a15.785,15.785,0,0,1-13.5,0"/><path class="cls-1" d="M23.25,17.091a15.648,15.648,0,0,1-4.5-1.357"/><path class="cls-1" d="M.75,17.091a15.648,15.648,0,0,0,4.5-1.357"/><circle class="cls-1" cx="5.25" cy="12.75" r="1.5"/><circle class="cls-1" cx="18.75" cy="12.75" r="1.5"/></svg>