<svg id="Regular" xmlns="http://www.w3.org/2000/svg" viewBox="0 0 24 24"><defs><style>.cls-1{fill:none;stroke:currentColor;stroke-linecap:round;stroke-linejoin:round;stroke-width:1.5px;}</style></defs><title>natural-disaster-flood</title><path class="cls-1" d="M.75,16.5a8.983,8.983,0,0,1,6-2.25c3.75,0,10.5,6.333,16.5.333"/><path class="cls-1" d="M12.955,12.954a6.971,6.971,0,0,0,1.294-4.311,1.875,1.875,0,1,0-3.749,0c0,.556-.861.4-1.282-.035a1.286,1.286,0,0,1-.36-.936A4.83,4.83,0,0,1,13.685,3c5.139,0,5.831,5.465,7.623,9.091"/><path class="cls-1" d="M.75,20.25a8.983,8.983,0,0,1,6-2.25c3.75,0,10.5,6.333,16.5.333"/></svg>