<svg id="Regular" xmlns="http://www.w3.org/2000/svg" viewBox="0 0 24 24"><defs><style>.cls-1{fill:none;stroke:currentColor;stroke-linecap:round;stroke-linejoin:round;stroke-width:1.5px;}</style></defs><title>natural-disaster-flood-building</title><path class="cls-1" d="M.75,23.25V1.941A1.108,1.108,0,0,1,1.75.75h4a1.108,1.108,0,0,1,1,1.191V23.25"/><line class="cls-1" x1="6.75" y1="4.5" x2="4.5" y2="4.5"/><line class="cls-1" x1="6.75" y1="8.25" x2="4.5" y2="8.25"/><line class="cls-1" x1="6.75" y1="15.75" x2="4.5" y2="15.75"/><line class="cls-1" x1="6.75" y1="12" x2="4.5" y2="12"/><line class="cls-1" x1="6.75" y1="19.532" x2="4.5" y2="19.532"/><path class="cls-1" d="M23.25,16.944a3.185,3.185,0,0,1-2.759-1.718h0a4.4,4.4,0,0,1-3.265,1.718,3.834,3.834,0,0,1-3.011-1.718h0S12.541,17.35,10.5,16.914"/><path class="cls-1" d="M23.25,21.753a3.185,3.185,0,0,1-2.759-1.717h0a4.4,4.4,0,0,1-3.265,1.717,3.834,3.834,0,0,1-3.011-1.717h0s-1.668,2.123-3.709,1.687"/><path class="cls-1" d="M23.25,12.135a3.185,3.185,0,0,1-2.759-1.718h0a4.4,4.4,0,0,1-3.265,1.718,3.834,3.834,0,0,1-3.011-1.718h0s-1.668,2.124-3.709,1.688"/></svg>