<svg id="Regular" xmlns="http://www.w3.org/2000/svg" viewBox="0 0 24 24"><defs><style>.cls-1{fill:none;stroke:currentColor;stroke-linecap:round;stroke-linejoin:round;stroke-width:1.5px;}</style></defs><title>natural-disaster-flood-house-wave</title><path class="cls-1" d="M.75,18.75a8.983,8.983,0,0,1,6-2.25c3.75,0,10.5,6.333,16.5.333"/><path class="cls-1" d="M13.085,10.527a7.089,7.089,0,0,0,1.164-4.134,1.875,1.875,0,1,0-3.749,0c0,.556-.861.4-1.282-.035a1.286,1.286,0,0,1-.36-.936A4.83,4.83,0,0,1,13.685.75C20.3.75,19.547,9.8,23.25,12.333"/><path class="cls-1" d="M.75,22.5a8.983,8.983,0,0,1,6-2.25c3.75,0,10.5,6.333,16.5.333"/><line class="cls-1" x1="2.25" y1="17.677" x2="2.25" y2="11.75"/><line class="cls-1" x1="8.25" y1="11.75" x2="8.25" y2="16.749"/><polyline class="cls-1" points="0.75 12.75 5.25 9.75 9.75 12.75"/></svg>