<svg id="Regular" xmlns="http://www.w3.org/2000/svg" viewBox="0 0 24 24"><defs><style>.cls-1{fill:none;stroke:currentColor;stroke-linecap:round;stroke-linejoin:round;stroke-width:1.5px;}</style></defs><title>natural-disaster-flood-house-indoor</title><path class="cls-1" d="M21.75,19.947c-2.124.444-3.442-1.684-3.442-1.684h0a3.736,3.736,0,0,1-3.071,1.749,3.241,3.241,0,0,1-2.809-1.749h0A4.476,4.476,0,0,1,9.1,20.012a3.9,3.9,0,0,1-3.065-1.749h0s-1.7,2.163-3.777,1.719"/><path class="cls-1" d="M21.75,15.381c-2.124.444-3.442-1.683-3.442-1.683h0a3.736,3.736,0,0,1-3.071,1.749A3.241,3.241,0,0,1,12.425,13.7h0A4.476,4.476,0,0,1,9.1,15.447,3.9,3.9,0,0,1,6.031,13.7h0s-1.7,2.162-3.777,1.718"/><path class="cls-1" d="M21.75,6.947v14.5a1.5,1.5,0,0,1-1.5,1.5H3.75a1.5,1.5,0,0,1-1.5-1.5V6.947"/><path class="cls-1" d="M.75,7.947,11.168,1a1.5,1.5,0,0,1,1.664,0L23.25,7.947"/></svg>