<svg id="Regular" xmlns="http://www.w3.org/2000/svg" viewBox="0 0 24 24"><defs><style>.cls-1{fill:none;stroke:currentColor;stroke-linecap:round;stroke-linejoin:round;stroke-width:1.5px;}</style></defs><title>natural-disaster-earthquake</title><path class="cls-1" d="M.75,22.5v-6A1.5,1.5,0,0,1,2.25,15H7.919a1.5,1.5,0,0,1,1.423,1.026l1.235,3.705a1.5,1.5,0,0,0,2.846,0l1.235-3.705A1.5,1.5,0,0,1,16.081,15H21.75a1.5,1.5,0,0,1,1.5,1.5v6"/><line class="cls-1" x1="5.25" y1="12" x2="5.25" y2="15"/><path class="cls-1" d="M8.15,9.961A1.5,1.5,0,0,1,6.75,12h-3a1.5,1.5,0,0,1-1.4-2.039L5.25,1.5Z"/><line class="cls-1" x1="18.75" y1="12" x2="18.75" y2="15"/><path class="cls-1" d="M15.85,9.961A1.5,1.5,0,0,0,17.25,12h3a1.5,1.5,0,0,0,1.4-2.039L18.75,1.5Z"/></svg>