<svg id="Regular" xmlns="http://www.w3.org/2000/svg" viewBox="0 0 24 24"><defs><style>.cls-1{fill:none;stroke:currentColor;stroke-linecap:round;stroke-linejoin:round;stroke-width:1.5px;}</style></defs><title>natural-disaster-hurricane-radar</title><line class="cls-1" x1="10.551" y1="0.75" x2="10.551" y2="20.25"/><line class="cls-1" x1="0.75" y1="10.5" x2="10.5" y2="10.5"/><line class="cls-1" x1="10.551" y1="10.5" x2="17.301" y2="3.75"/><ellipse class="cls-1" cx="19.329" cy="14.495" rx="3.922" ry="1.471"/><path class="cls-1" d="M22.271,18.274c0,.813-1.317,1.471-2.942,1.471s-2.941-.658-2.941-1.471"/><path class="cls-1" d="M21.29,22.024c0,.677-.878,1.226-1.961,1.226s-1.961-.549-1.961-1.226"/><path class="cls-1" d="M12.954,19.939a9.76,9.76,0,1,1,7.3-9.439"/><path class="cls-1" d="M12.418,15.408A5.25,5.25,0,1,1,10.551,5.25a5.248,5.248,0,0,1,5.14,4.159"/></svg>