<svg id="Regular" xmlns="http://www.w3.org/2000/svg" viewBox="0 0 24 24"><defs><style>.cls-1{fill:none;stroke:currentColor;stroke-linecap:round;stroke-linejoin:round;stroke-width:1.5px;}</style></defs><title>natural-disaster-flood-house</title><path class="cls-1" d="M.75,18.834a8.983,8.983,0,0,1,6-2.25c3.75,0,10.5,6.333,16.5.333"/><path class="cls-1" d="M.75,22.584a8.983,8.983,0,0,1,6-2.25c3.75,0,10.5,6.333,16.5.333"/><line class="cls-1" x1="18.75" y1="6.886" x2="18.75" y2="16.007"/><line class="cls-1" x1="5.25" y1="13.332" x2="5.25" y2="6.886"/><path class="cls-1" d="M1.5,10.584,10.9,1.31a1.507,1.507,0,0,1,2.194,0l9.4,9.274"/><path class="cls-1" d="M9.75,13.605V11.334a2.25,2.25,0,0,1,4.5,0v3.943"/></svg>