<svg id="Regular" xmlns="http://www.w3.org/2000/svg" viewBox="0 0 24 24"><defs><style>.cls-1{fill:none;stroke:currentColor;stroke-linecap:round;stroke-linejoin:round;stroke-width:1.5px;}</style></defs><title>natural-disaster-draught</title><path class="cls-1" d="M.75,23.25v-6a1.5,1.5,0,0,1,1.5-1.5h19.5a1.5,1.5,0,0,1,1.5,1.5v6"/><path class="cls-1" d="M.75,18A70.8,70.8,0,0,0,7.5,20.25c.75,0,8.25-1.5,8.25-1.5l7.5,1.5"/><circle class="cls-1" cx="3.75" cy="3.75" r="3"/><line class="cls-1" x1="17.25" y1="0.75" x2="17.25" y2="15.75"/><path class="cls-1" d="M17.25,6.75h1.5a1.5,1.5,0,0,0,1.5-1.5V3"/><path class="cls-1" d="M17.25,5.25h-1.5a1.5,1.5,0,0,1-1.5-1.5V1.5"/><path class="cls-1" d="M17.25,9.75h-3a1.5,1.5,0,0,1-1.5-1.5V7.5"/><path class="cls-1" d="M17.25,11.25h3a1.5,1.5,0,0,0,1.5-1.5V9"/><line class="cls-1" x1="8.25" y1="15.75" x2="8.25" y2="23.25"/><line class="cls-1" x1="15.75" y1="15.75" x2="15.75" y2="23.25"/></svg>