<svg id="Regular" xmlns="http://www.w3.org/2000/svg" viewBox="0 0 24 24"><defs><style>.cls-1{fill:none;stroke:currentColor;stroke-linecap:round;stroke-linejoin:round;stroke-width:1.5px;}</style></defs><title>natural-disaster-volcano</title><path class="cls-1" d="M21.938,23.25H2.312a.54.54,0,0,1-.355-.946l.007-.007a17.894,17.894,0,0,0,5.9-10.746l.312-2.029A1.5,1.5,0,0,1,9.662,8.25h4.926a1.5,1.5,0,0,1,1.483,1.272l.312,2.029a17.894,17.894,0,0,0,5.9,10.746l.007.007A.54.54,0,0,1,21.938,23.25Z"/><polyline class="cls-1" points="12.875 8.25 10.625 12.75 13.625 12.75 12.125 18"/><path class="cls-1" d="M15.125,5.25s1.5-4.5,5.25-4.5"/><path class="cls-1" d="M9.125,5.25S7.625.75,3.875.75"/><path class="cls-1" d="M1.625,4.125A.375.375,0,0,1,2,4.5"/><path class="cls-1" d="M1.25,4.5a.375.375,0,0,1,.375-.375"/><path class="cls-1" d="M1.625,4.875A.375.375,0,0,1,1.25,4.5"/><path class="cls-1" d="M2,4.5a.375.375,0,0,1-.375.375"/><path class="cls-1" d="M12.125,1.125A.375.375,0,0,1,12.5,1.5"/><path class="cls-1" d="M11.75,1.5a.375.375,0,0,1,.375-.375"/><path class="cls-1" d="M12.125,1.875A.375.375,0,0,1,11.75,1.5"/><path class="cls-1" d="M12.5,1.5a.375.375,0,0,1-.375.375"/><path class="cls-1" d="M22.625,4.125A.375.375,0,0,1,23,4.5"/><path class="cls-1" d="M22.25,4.5a.375.375,0,0,1,.375-.375"/><path class="cls-1" d="M22.625,4.875A.375.375,0,0,1,22.25,4.5"/><path class="cls-1" d="M23,4.5a.375.375,0,0,1-.375.375"/></svg>