<svg id="Regular" xmlns="http://www.w3.org/2000/svg" viewBox="0 0 24 24"><defs><style>.cls-1{fill:none;stroke:currentColor;stroke-linecap:round;stroke-linejoin:round;stroke-width:1.5px;}</style></defs><title>natural-disaster-hurricane-house</title><line class="cls-1" x1="8.283" y1="0.75" x2="23.087" y2="0.75"/><line class="cls-1" x1="9.913" y1="4.5" x2="23.25" y2="4.5"/><line class="cls-1" x1="12.033" y1="8.25" x2="21.75" y2="8.25"/><line class="cls-1" x1="12.033" y1="12" x2="20.641" y2="12"/><line class="cls-1" x1="15.783" y1="15.75" x2="21" y2="15.75"/><line class="cls-1" x1="18.391" y1="19.5" x2="22.5" y2="19.5"/><line class="cls-1" x1="20.641" y1="23.25" x2="23.25" y2="23.25"/><path class="cls-1" d="M2.283,15.948v5.8a1.5,1.5,0,0,0,1.5,1.5h6a1.5,1.5,0,0,0,1.5-1.5v-5.8"/><path class="cls-1" d="M.783,17.26,5.3,13.307a2.248,2.248,0,0,1,2.963,0l4.519,3.953"/><path class="cls-1" d="M8.283,23.25h-3v-3a1.5,1.5,0,1,1,3,0Z"/></svg>