<svg id="Regular" xmlns="http://www.w3.org/2000/svg" viewBox="0 0 24 24"><defs><style>.cls-1{fill:none;stroke:currentColor;stroke-linecap:round;stroke-linejoin:round;stroke-width:1.5px;}</style></defs><title>natural-disaster-volcano-smoke</title><path class="cls-1" d="M23.25,23a12.547,12.547,0,0,1-7.967-7.959A1.5,1.5,0,0,0,13.855,14h-3.71a1.5,1.5,0,0,0-1.428,1.041A12.547,12.547,0,0,1,.75,23"/><path class="cls-1" d="M9.124,8.8a9.665,9.665,0,0,1,.485,2.076"/><path class="cls-1" d="M14.873,8.8a9.707,9.707,0,0,0-.485,2.07"/><path class="cls-1" d="M17.25,9.5H21A2.25,2.25,0,0,0,21,5a2.986,2.986,0,0,0-4.808-2.38,5.2,5.2,0,0,0-8.384,0A2.986,2.986,0,0,0,3,5,2.25,2.25,0,0,0,3,9.5H6"/><line class="cls-1" x1="12" y1="8" x2="12" y2="11"/></svg>