<svg id="Regular" xmlns="http://www.w3.org/2000/svg" viewBox="0 0 24 24"><defs><style>.cls-1{fill:none;stroke:currentColor;stroke-linecap:round;stroke-linejoin:round;stroke-width:1.5px;}</style></defs><title>natural-disaster-fire</title><path class="cls-1" d="M12.16,11.184a4.066,4.066,0,0,1-2.986,3.569,1.448,1.448,0,0,1-.219-1.966,3.277,3.277,0,0,0-3.387.983,3.709,3.709,0,0,0,0,5.245,3.76,3.76,0,0,0,5.245,0A6.165,6.165,0,0,0,12.16,11.184Z"/><path class="cls-1" d="M3.447,10.529A7.5,7.5,0,0,0,3.9,21.552a7.717,7.717,0,0,0,10.417-.68,33.639,33.639,0,0,0,7.158-10.453.748.748,0,0,0-.936-.99l-3.3,1.1,4-7.2a.75.75,0,0,0-1.028-1.016l-5.092,2.91.715-3.573A.749.749,0,0,0,14.676.882,81.95,81.95,0,0,0,3.447,10.529Z"/></svg>