<svg id="Regular" xmlns="http://www.w3.org/2000/svg" viewBox="0 0 24 24"><defs><style>.cls-1{fill:none;stroke:currentColor;stroke-linecap:round;stroke-linejoin:round;stroke-width:1.5px;}</style></defs><title>natural-disaster-water-level-rise</title><line class="cls-1" x1="15.75" y1="9" x2="15.75" y2="0.75"/><line class="cls-1" x1="15.75" y1="0.75" x2="18" y2="3"/><line class="cls-1" x1="15.75" y1="0.75" x2="13.5" y2="3"/><line class="cls-1" x1="8.25" y1="9" x2="8.25" y2="0.75"/><line class="cls-1" x1="8.25" y1="0.75" x2="10.5" y2="3"/><line class="cls-1" x1="8.25" y1="0.75" x2="6" y2="3"/><path class="cls-1" d="M.75,18.084a8.983,8.983,0,0,1,6-2.25c3.75,0,10.5,6.333,16.5.333"/><path class="cls-1" d="M.75,13.584a8.983,8.983,0,0,1,6-2.25c3.75,0,10.5,6.333,16.5.333"/><path class="cls-1" d="M.75,22.584a8.983,8.983,0,0,1,6-2.25c3.75,0,10.5,6.333,16.5.333"/></svg>