<svg id="Regular" xmlns="http://www.w3.org/2000/svg" viewBox="0 0 24 24"><defs><style>.cls-1{fill:none;stroke:currentColor;stroke-linecap:round;stroke-linejoin:round;stroke-width:1.5px;}</style></defs><title>nautic-sports-scooter-1</title><line class="cls-1" x1="23.071" y1="14" x2="0.75" y2="14"/><path class="cls-1" d="M23.25,19.25a5.511,5.511,0,0,1-4.5-1.5,4.547,4.547,0,0,1-6.75,0,4.547,4.547,0,0,1-6.75,0,5.511,5.511,0,0,1-4.5,1.5"/><path class="cls-1" d="M.75,16.25V12.5A1.5,1.5,0,0,1,2.25,11H13.5l2.25-4.5,6.334,4.434a2.732,2.732,0,0,1,.707,3.754L21.75,16.25"/><path class="cls-1" d="M8.25,11l.466-1.864A1.5,1.5,0,0,1,10.171,8H15"/><polyline class="cls-1" points="13.5 8 12.75 4.25 10.5 4.25"/></svg>