<svg id="Regular" xmlns="http://www.w3.org/2000/svg" viewBox="0 0 24 24"><defs><style>.cls-1{fill:none;stroke:currentColor;stroke-linecap:round;stroke-linejoin:round;stroke-width:1.5px;}</style></defs><title>nautic-sports-sailing</title><path class="cls-1" d="M17.256,18.964l.777-.388a6,6,0,0,0,3.009-3.469l.229-.688a.75.75,0,0,0-.961-.944l-11.3,3.989"/><path class="cls-1" d="M13.722,15.8l-5-13.559a.749.749,0,0,0-1.31-.182C6.31,3.58,4.506,6.383,4.506,8.464a38.251,38.251,0,0,0,.59,5.873.75.75,0,0,0,.993.58l9.667-3.453"/><line class="cls-1" x1="10.957" y1="8.295" x2="4.613" y2="10.674"/><path class="cls-1" d="M23.25,22.432a3.447,3.447,0,0,1-2.812-1.5,3.387,3.387,0,0,1-5.625,0,3.387,3.387,0,0,1-5.625,0,3.448,3.448,0,0,1-2.813,1.5,3.445,3.445,0,0,1-2.812-1.5,3.448,3.448,0,0,1-2.813,1.5"/></svg>