<svg id="Regular" xmlns="http://www.w3.org/2000/svg" viewBox="0 0 24 24"><defs><style>.cls-1{fill:none;stroke:currentColor;stroke-linecap:round;stroke-linejoin:round;stroke-width:1.5px;}</style></defs><title>nautic-sports-water-skiing</title><circle class="cls-1" cx="4.5" cy="3.665" r="2.625"/><path class="cls-1" d="M9.136,22.665l-1.8-4.2a.754.754,0,0,0-.543-.44l-2.589-.517a1.5,1.5,0,0,1-1.16-1.106l-1.5-6A1.5,1.5,0,0,1,3,8.54h7.5a1.5,1.5,0,0,1,0,3H4.922l.8,3.215L7,15.01a4.5,4.5,0,0,1,3.254,2.64l1.5,3.505"/><line class="cls-1" x1="12" y1="10.04" x2="23.25" y2="10.04"/><path class="cls-1" d="M12.255,21.163l4.078-2.039a4.5,4.5,0,0,0,2.256-2.6l.161-.482"/><path class="cls-1" d="M.75,22.75a4.666,4.666,0,0,0,3.75-1.9,4.649,4.649,0,0,0,7.5,0,4.649,4.649,0,0,0,7.5,0,4.666,4.666,0,0,0,3.75,1.9"/></svg>