<svg id="Regular" xmlns="http://www.w3.org/2000/svg" viewBox="0 0 24 24"><defs><style>.cls-1{fill:none;stroke:currentColor;stroke-linecap:round;stroke-linejoin:round;stroke-width:1.5px;}</style></defs><title>nautic-sports-surfing</title><circle class="cls-1" cx="6.75" cy="3.375" r="2.625"/><line class="cls-1" x1="6.75" y1="16.5" x2="6.75" y2="21.75"/><path class="cls-1" d="M11.434,13.979A6.016,6.016,0,0,1,9.75,12.252v9.5a1.5,1.5,0,0,1-3,0,1.5,1.5,0,0,1-3,0V15a1.5,1.5,0,0,1-3,0V12a4.5,4.5,0,0,1,4.5-4.5H7.9A4.5,4.5,0,0,1,11.25,9"/><line class="cls-1" x1="3.75" y1="15" x2="3.75" y2="12"/><path class="cls-1" d="M18.262,1.133a.748.748,0,0,1,.977,0A12.15,12.15,0,0,1,23.25,10.5a40.846,40.846,0,0,1-1.9,11.7,1.5,1.5,0,0,1-1.43,1.049H17.577a1.5,1.5,0,0,1-1.43-1.049,40.846,40.846,0,0,1-1.9-11.7A12.152,12.152,0,0,1,18.262,1.133Z"/><line class="cls-1" x1="14.378" y1="13.372" x2="22.294" y2="5.456"/><line class="cls-1" x1="15.251" y1="18.874" x2="23.248" y2="10.877"/></svg>