<svg id="Regular" xmlns="http://www.w3.org/2000/svg" viewBox="0 0 24 24"><defs><style>.cls-1{fill:none;stroke:currentColor;stroke-linecap:round;stroke-linejoin:round;stroke-width:1.5px;}</style></defs><title>nautic-sports-scooter</title><line class="cls-1" x1="0.789" y1="13.25" x2="23.184" y2="13.25"/><path class="cls-1" d="M20.331,17.34A10.443,10.443,0,0,0,22.7,14.605,4.309,4.309,0,0,0,23.25,12.5v-.75a3,3,0,0,0-3-3H10.5L8.245,4.8A1.5,1.5,0,0,0,6.118,4.3,11.541,11.541,0,0,0,.78,12.572a3.014,3.014,0,0,0,.227,1.438A9.593,9.593,0,0,0,3.67,17.34"/><path class="cls-1" d="M9.689,7.331,11.1,5.45a3,3,0,0,1,2.4-1.2h2.25"/><path class="cls-1" d="M.75,17.75a5.511,5.511,0,0,0,4.5-1.5,4.547,4.547,0,0,0,6.75,0,4.547,4.547,0,0,0,6.75,0,5.511,5.511,0,0,0,4.5,1.5"/><line class="cls-1" x1="1.305" y1="10.25" x2="5.25" y2="10.25"/><line class="cls-1" x1="14.25" y1="8.75" x2="18.75" y2="13.25"/></svg>