<svg id="Regular" xmlns="http://www.w3.org/2000/svg" viewBox="0 0 24 24"><defs><style>.cls-1{fill:none;stroke:currentColor;stroke-linecap:round;stroke-linejoin:round;stroke-width:1.5px;}</style></defs><title>nautic-sports-surfing-water</title><circle class="cls-1" cx="17.25" cy="3.625" r="2.625"/><path class="cls-1" d="M16.454,18.993a1.49,1.49,0,0,0,.046-.368V15.678a3,3,0,0,0-1.336-2.5l-.57-.38.7-1.758a12.508,12.508,0,0,1,1.616.91l4,2.669a1.5,1.5,0,1,0,1.665-2.5l-4-2.669a15.539,15.539,0,0,0-6.668-2.48,4.494,4.494,0,0,1-3.186-1.97,1.5,1.5,0,0,0-2.5,1.664A7.486,7.486,0,0,0,10.5,9.75L9.29,10.964a3.01,3.01,0,0,0-.79,2.848l.3,1.211L6.6,16.675a1.5,1.5,0,0,0-.473.6"/><path class="cls-1" d="M9.954,17.909l.648-.485A3,3,0,0,0,11.757,14.5c.05.044,1.743,1.18,1.743,1.18V18.5"/><line class="cls-1" x1="0.75" y1="19.375" x2="23.25" y2="23.125"/><path class="cls-1" d="M2.137,19.606l-.844,2.532a.751.751,0,0,0,1.022.92l5.509-2.5"/></svg>