<svg xmlns="http://www.w3.org/2000/svg" viewBox="0 0 24 24"><defs><style>.a{fill:none;stroke:currentColor;stroke-linecap:round;stroke-linejoin:round;stroke-width:1.5px;}</style></defs><title>navigation-car-pin</title><circle class="a" cx="9" cy="21.013" r="2.25"/><line class="a" x1="0.75" y1="21.013" x2="6.75" y2="21.013"/><path class="a" d="M11.25,21.013H13.5a1.5,1.5,0,0,0,1.5-1.5v-2.25a3,3,0,0,0-3-3H9L6.829,9.921A3,3,0,0,0,4.146,8.263H.75"/><line class="a" x1="0.75" y1="14.263" x2="9" y2="14.263"/><path class="a" d="M11.027,11.263A8.688,8.688,0,0,1,9.75,7.513a6.75,6.75,0,0,1,13.5,0c0,2.591-3.261,7.015-5.25,9.473"/><circle class="a" cx="16.5" cy="7.513" r="2.25"/></svg>