<svg xmlns="http://www.w3.org/2000/svg" viewBox="0 0 24 24"><defs><style>.a{fill:none;stroke:currentColor;stroke-linecap:round;stroke-linejoin:round;stroke-width:1.5px;}</style></defs><title>navigation-monitor</title><rect class="a" x="0.75" y="1.513" width="22.5" height="16.5" rx="1.5" ry="1.5"/><polygon class="a" points="15.75 22.513 8.25 22.513 9 18.013 15 18.013 15.75 22.513"/><line class="a" x1="6" y1="22.513" x2="18" y2="22.513"/><line class="a" x1="8.25" y1="12.013" x2="9.75" y2="12.013"/><line class="a" x1="14.25" y1="12.013" x2="15.75" y2="12.013"/><line class="a" x1="6.75" y1="14.263" x2="6.75" y2="15.763"/><line class="a" x1="17.25" y1="14.263" x2="17.25" y2="15.763"/><path class="a" d="M18.5,10.885,17.25,9.013,16.092,5.539a1.5,1.5,0,0,0-1.423-1.026H9.331A1.5,1.5,0,0,0,7.908,5.539L6.75,9.013,5.5,10.885a1.5,1.5,0,0,0-.252.832v1.046a1.5,1.5,0,0,0,1.5,1.5h10.5a1.5,1.5,0,0,0,1.5-1.5V11.717A1.5,1.5,0,0,0,18.5,10.885Z"/><line class="a" x1="6.75" y1="9.013" x2="17.25" y2="9.013"/></svg>