<svg xmlns="http://www.w3.org/2000/svg" viewBox="0 0 24 24"><defs><style>.a{fill:none;stroke:currentColor;stroke-linecap:round;stroke-linejoin:round;stroke-width:1.5px;}</style></defs><title>navigation-car-pin-1</title><circle class="a" cx="9" cy="20.939" r="2.25"/><line class="a" x1="0.75" y1="20.939" x2="6.75" y2="20.939"/><path class="a" d="M11.25,20.939H13.5a1.5,1.5,0,0,0,1.5-1.5v-2.25a3,3,0,0,0-3-3H9L6.829,9.848A3,3,0,0,0,4.146,8.189H.75"/><line class="a" x1="0.75" y1="14.189" x2="9" y2="14.189"/><path class="a" d="M18.75,4.888a.375.375,0,0,1,.375.375"/><path class="a" d="M18.375,5.263a.375.375,0,0,1,.375-.375"/><path class="a" d="M18.75,5.638a.375.375,0,0,1-.375-.375"/><path class="a" d="M19.125,5.263a.375.375,0,0,1-.375.375"/><path class="a" d="M18.75.763a4.5,4.5,0,0,1,4.5,4.5c0,1.921-2.688,5.577-3.909,7.138a.75.75,0,0,1-1.182,0c-1.221-1.562-3.909-5.217-3.909-7.138A4.5,4.5,0,0,1,18.75.763Z"/></svg>