<svg xmlns="http://www.w3.org/2000/svg" viewBox="0 0 24 24"><defs><style>.a{fill:none;stroke:currentColor;stroke-linecap:round;stroke-linejoin:round;stroke-width:1.5px;}</style></defs><title>navigation-smartphone-finger</title><path class="a" d="M12.75,23.263l-2.764-3.11a1.557,1.557,0,1,1,2.327-2.069l1.937,2.179v-9a1.5,1.5,0,1,1,3,0v6.75h1.5a4.5,4.5,0,0,1,4.5,4.5v.75"/><path class="a" d="M9,15.763H2.25a1.5,1.5,0,0,1-1.5-1.5v-9a1.5,1.5,0,0,1,1.5-1.5"/><path class="a" d="M16.5,3.763h5.25a1.5,1.5,0,0,1,1.5,1.5v9a1.5,1.5,0,0,1-1.5,1.5h-1.5"/><line class="a" x1="9" y1="4.888" x2="9" y2="4.888"/><path class="a" d="M9.375,5.263A.375.375,0,0,0,9,4.888"/><path class="a" d="M9,5.638a.375.375,0,0,0,.375-.375"/><path class="a" d="M8.625,5.263A.375.375,0,0,0,9,5.638"/><path class="a" d="M9,4.888a.375.375,0,0,0-.375.375"/><path class="a" d="M9,.763a4.5,4.5,0,0,1,4.5,4.5c0,1.921-2.688,5.577-3.909,7.138a.75.75,0,0,1-1.182,0C7.188,10.839,4.5,7.184,4.5,5.263A4.5,4.5,0,0,1,9,.763Z"/></svg>