<svg xmlns="http://www.w3.org/2000/svg" viewBox="0 0 24 24"><defs><style>.a{fill:none;stroke:currentColor;stroke-linecap:round;stroke-linejoin:round;stroke-width:1.5px;}</style></defs><title>navigation-smartphone-hand</title><path class="a" d="M8,15.013l1.673-1.255a1.569,1.569,0,0,1,2.247.385h0a1.569,1.569,0,0,1,0,1.74L10.275,18.35A4.5,4.5,0,0,1,8.2,20.032l-2.452.981v2.25"/><path class="a" d="M8.75,9.763c-5.108,2.189-7.5,2.058-7.5,13.5"/><path class="a" d="M8.75,14.45V3.763a3,3,0,0,1,3-3h7.5a3,3,0,0,1,3,3v16.5a3,3,0,0,1-3,3h-7.5a3,3,0,0,1-3-3v-.5"/><line class="a" x1="9.964" y1="18.763" x2="22.25" y2="18.763"/><line class="a" x1="16.25" y1="6.763" x2="16.25" y2="10.513"/><circle class="a" cx="16.25" cy="5.263" r="1.5"/><circle class="a" cx="16.25" cy="12.013" r="1.5"/></svg>