<svg xmlns="http://www.w3.org/2000/svg" viewBox="0 0 24 24"><defs><style>.a{fill:none;stroke:currentColor;stroke-linecap:round;stroke-linejoin:round;stroke-width:1.5px;}</style></defs><title>network-user</title><path class="a" d="M11.25,22.5a10.5,10.5,0,0,1,0-21"/><path class="a" d="M11.25,1.5S6,4.5,6,12s5.25,10.5,5.25,10.5"/><line class="a" x1="11.25" y1="7.5" x2="1.761" y2="7.5"/><line class="a" x1="11.25" y1="16.5" x2="1.761" y2="16.5"/><circle class="a" cx="18.75" cy="4.5" r="3"/><path class="a" d="M21.36,9.846,18.75,13.5,16.14,9.846A4.486,4.486,0,0,0,14.25,13.5v3a1.5,1.5,0,0,0,1.5,1.5h.75v3A1.5,1.5,0,0,0,18,22.5h1.5A1.5,1.5,0,0,0,21,21V18h.75a1.5,1.5,0,0,0,1.5-1.5v-3A4.486,4.486,0,0,0,21.36,9.846Z"/></svg>