<svg id="Regular" xmlns="http://www.w3.org/2000/svg" viewBox="0 0 24 24"><defs><style>.cls-1{fill:none;stroke:currentColor;stroke-linecap:round;stroke-linejoin:round;stroke-width:1.5px;}</style></defs><title>night-stand-retro</title><path class="cls-1" d="M21.75,6a1.5,1.5,0,0,0,0-3H2.25a1.5,1.5,0,0,0,0,3Z"/><path class="cls-1" d="M20.25,6a22.168,22.168,0,0,1,1.5,6.75c0,3-1.5,5.25-1.5,6.75A5.738,5.738,0,0,0,16.5,18c-2.25,0-2.25,1.5-4.5,1.5S9.75,18,7.5,18a5.738,5.738,0,0,0-3.75,1.5c0-1.5-1.5-3.75-1.5-6.75A22.168,22.168,0,0,1,3.75,6"/><rect class="cls-1" x="6.75" y="9" width="10.5" height="6"/><line class="cls-1" x1="11.25" y1="12" x2="12.75" y2="12"/><line class="cls-1" x1="3.75" y1="19.5" x2="2.25" y2="21"/><line class="cls-1" x1="20.25" y1="19.5" x2="21.75" y2="21"/></svg>