<svg id="Regular" xmlns="http://www.w3.org/2000/svg" viewBox="0 0 24 24"><defs><style>.cls-1{fill:none;stroke:currentColor;stroke-linecap:round;stroke-linejoin:round;stroke-width:1.5px;}</style></defs><title>non-gmo-spray</title><polyline class="cls-1" points="9.75 10.509 12 4.509 16.5 4.509"/><path class="cls-1" d="M18.47,9.762l.28.747v11.25a1.5,1.5,0,0,1-1.5,1.5h-6a1.5,1.5,0,0,1-1.5-1.5v-4.5"/><path class="cls-1" d="M21.937,6.763a5.977,5.977,0,0,1,1.313,3.746v2.25"/><line class="cls-1" x1="8.25" y1="6.009" x2="11.437" y2="6.009"/><line class="cls-1" x1="14.249" y1="4.509" x2="14.249" y2="1.509"/><line class="cls-1" x1="0.75" y1="23.259" x2="23.25" y2="0.759"/><polyline class="cls-1" points="14.25 14.259 14.25 18.759 9.75 18.759"/><line class="cls-1" x1="5.25" y1="3.759" x2="1.5" y2="2.259"/><line class="cls-1" x1="5.25" y1="8.259" x2="1.5" y2="9.759"/><line class="cls-1" x1="3.75" y1="6.009" x2="0.75" y2="6.009"/></svg>