<svg id="Regular" xmlns="http://www.w3.org/2000/svg" viewBox="0 0 24 24"><defs><style>.cls-1{fill:none;stroke:currentColor;stroke-linecap:round;stroke-linejoin:round;stroke-width:1.5px;}</style></defs><title>non-gmo-dna</title><line class="cls-1" x1="0.75" y1="23.259" x2="23.25" y2="0.759"/><path class="cls-1" d="M9.461.759l2.652,2.652a5.972,5.972,0,0,1,1.528,2.6"/><line class="cls-1" x1="9.992" y1="1.29" x2="1.506" y2="9.775"/><line class="cls-1" x1="12.113" y1="3.411" x2="3.628" y2="11.896"/><path class="cls-1" d="M10.522,9.245l-4.2,4.205A5.964,5.964,0,0,1,3.628,11.9L.976,9.245"/><path class="cls-1" d="M14.765,23.033l-2.652-2.651a5.975,5.975,0,0,1-1.652-3.123"/><line class="cls-1" x1="14.234" y1="22.503" x2="22.72" y2="14.018"/><line class="cls-1" x1="12.113" y1="20.382" x2="20.598" y2="11.896"/><path class="cls-1" d="M13.7,14.548l4.2-4.2A5.965,5.965,0,0,1,20.6,11.9l2.652,2.652"/></svg>