<svg id="Regular" xmlns="http://www.w3.org/2000/svg" viewBox="0 0 24 24"><defs><style>.cls-1{fill:none;stroke:currentColor;stroke-linecap:round;stroke-linejoin:round;stroke-width:1.5px;}</style></defs><title>non-gmo-fire</title><path class="cls-1" d="M7.256,22.153a8.145,8.145,0,0,0,3.8.933A8.294,8.294,0,0,0,19.236,14.9a16.613,16.613,0,0,0-.423-4.564"/><path class="cls-1" d="M16.165,5.086a14.788,14.788,0,0,0-5.807-4.049.375.375,0,0,0-.455.552,9.2,9.2,0,0,1,.129,9.225c-1.691.358-3.256-1.376-3.41-2.728-2.226.938-3.75,3.686-3.75,6.818a8.192,8.192,0,0,0,.294,2.179"/><line class="cls-1" x1="2" y1="23.086" x2="21.5" y2="4.336"/></svg>