<svg id="Regular" xmlns="http://www.w3.org/2000/svg" viewBox="0 0 24 24"><defs><style>.cls-1{fill:none;stroke:currentColor;stroke-linecap:round;stroke-linejoin:round;stroke-width:1.5px;}</style></defs><title>non-gmo-organic-flask</title><path class="cls-1" d="M15.75,9.759v2.25L23.043,21a1.5,1.5,0,0,1-1.293,2.26H2.25A1.5,1.5,0,0,1,.957,21l7.293-8.99V9.759"/><line class="cls-1" x1="12" y1="15.759" x2="12" y2="6.759"/><path class="cls-1" d="M16.286,5.045A6.971,6.971,0,0,1,12,6.759a6.967,6.967,0,0,1,1.714-4.285A6.975,6.975,0,0,1,18,.759,6.971,6.971,0,0,1,16.286,5.045Z"/><path class="cls-1" d="M7.714,5.045A6.971,6.971,0,0,0,12,6.759a6.967,6.967,0,0,0-1.714-4.285A6.975,6.975,0,0,0,6,.759,6.971,6.971,0,0,0,7.714,5.045Z"/><path class="cls-1" d="M16.125,18.009a.375.375,0,0,1,.375.375"/><path class="cls-1" d="M15.75,18.384a.375.375,0,0,1,.375-.375"/><path class="cls-1" d="M16.125,18.759a.375.375,0,0,1-.375-.375"/><path class="cls-1" d="M16.5,18.384a.375.375,0,0,1-.375.375"/><path class="cls-1" d="M8.625,16.509A.375.375,0,0,1,9,16.884"/><path class="cls-1" d="M8.25,16.884a.375.375,0,0,1,.375-.375"/><path class="cls-1" d="M8.625,17.259a.375.375,0,0,1-.375-.375"/><path class="cls-1" d="M9,16.884a.375.375,0,0,1-.375.375"/><path class="cls-1" d="M11.625,19.509a.375.375,0,0,1,.375.375"/><path class="cls-1" d="M11.25,19.884a.375.375,0,0,1,.375-.375"/><path class="cls-1" d="M11.625,20.259a.375.375,0,0,1-.375-.375"/><path class="cls-1" d="M12,19.884a.375.375,0,0,1-.375.375"/></svg>