<svg id="Regular" xmlns="http://www.w3.org/2000/svg" viewBox="0 0 24 24"><defs><style>.cls-1,.cls-2{fill:none;stroke:currentColor;stroke-linecap:round;stroke-linejoin:round;stroke-width:1.5px;}.cls-2{fill-rule:evenodd;}</style></defs><title>non-gmo-lab</title><path class="cls-1" d="M9.375,3.75a.375.375,0,0,1,.375.375"/><path class="cls-1" d="M9,4.125a.375.375,0,0,1,.375-.375"/><path class="cls-1" d="M9.375,4.5A.375.375,0,0,1,9,4.125"/><path class="cls-1" d="M9.75,4.125a.375.375,0,0,1-.375.375"/><path class="cls-1" d="M11.625.75A.375.375,0,0,1,12,1.125"/><path class="cls-1" d="M11.25,1.125A.375.375,0,0,1,11.625.75"/><path class="cls-1" d="M11.625,1.5a.375.375,0,0,1-.375-.375"/><path class="cls-1" d="M12,1.125a.375.375,0,0,1-.375.375"/><path class="cls-1" d="M13.875,3.75a.375.375,0,0,1,.375.375"/><path class="cls-1" d="M13.5,4.125a.375.375,0,0,1,.375-.375"/><path class="cls-1" d="M13.875,4.5a.375.375,0,0,1-.375-.375"/><path class="cls-1" d="M14.25,4.125a.375.375,0,0,1-.375.375"/><path class="cls-2" d="M15,12v8.25a3,3,0,0,1-6,0v-1.5"/><polyline class="cls-2" points="9 11.249 9 6.75 13.5 6.75"/><line class="cls-1" x1="12" y1="16.5" x2="15" y2="16.5"/><line class="cls-1" x1="0.75" y1="23.25" x2="23.25" y2="0.75"/></svg>