<svg id="Regular" xmlns="http://www.w3.org/2000/svg" viewBox="0 0 24 24"><defs><style>.cls-1{fill:none;stroke:currentColor;stroke-linecap:round;stroke-linejoin:round;stroke-width:1.5px;}</style></defs><title>non-gmo-fertilizer</title><line class="cls-1" x1="0.767" y1="23.259" x2="23.267" y2="0.759"/><path class="cls-1" d="M20.965,7.509a8.568,8.568,0,0,1,1.867,3.472,1.5,1.5,0,0,1-1.059,1.836l-.032.008a1.386,1.386,0,0,1-1.7-.975,5.778,5.778,0,0,0-1.275-2.33"/><path class="cls-1" d="M11.267,9.009v-1.5h-3v-3h6.052a8.784,8.784,0,0,1,1.447.12"/><path class="cls-1" d="M9.767,11.353a3,3,0,0,0-1.848,1.406"/><path class="cls-1" d="M7.517,20.259v1.5a1.5,1.5,0,0,0,1.5,1.5h7.5a1.5,1.5,0,0,0,1.5-1.5v-7.5A3,3,0,0,0,17,12.008"/><line class="cls-1" x1="12.767" y1="4.509" x2="12.767" y2="0.759"/><line class="cls-1" x1="9.017" y1="0.759" x2="16.517" y2="0.759"/><path class="cls-1" d="M1.142,1.509a.375.375,0,0,1,.375.375"/><path class="cls-1" d="M.767,1.884a.375.375,0,0,1,.375-.375"/><path class="cls-1" d="M1.142,2.259a.375.375,0,0,1-.375-.375"/><path class="cls-1" d="M1.517,1.884a.375.375,0,0,1-.375.375"/><path class="cls-1" d="M1.142,5.259a.375.375,0,0,1,.375.375"/><path class="cls-1" d="M.767,5.634a.375.375,0,0,1,.375-.375"/><path class="cls-1" d="M1.142,6.009a.375.375,0,0,1-.375-.375"/><path class="cls-1" d="M1.517,5.634a.375.375,0,0,1-.375.375"/><path class="cls-1" d="M4.892,3.009a.375.375,0,0,1,.375.375"/><path class="cls-1" d="M4.517,3.384a.375.375,0,0,1,.375-.375"/><path class="cls-1" d="M4.892,3.759a.375.375,0,0,1-.375-.375"/><path class="cls-1" d="M5.267,3.384a.375.375,0,0,1-.375.375"/><path class="cls-1" d="M4.892,7.509a.375.375,0,0,1,.375.375"/><path class="cls-1" d="M4.517,7.884a.375.375,0,0,1,.375-.375"/><path class="cls-1" d="M4.892,8.259a.375.375,0,0,1-.375-.375"/><path class="cls-1" d="M5.267,7.884a.375.375,0,0,1-.375.375"/><path class="cls-1" d="M1.142,9.009a.375.375,0,0,1,.375.375"/><path class="cls-1" d="M.767,9.384a.375.375,0,0,1,.375-.375"/><path class="cls-1" d="M1.142,9.759a.375.375,0,0,1-.375-.375"/><path class="cls-1" d="M1.517,9.384a.375.375,0,0,1-.375.375"/></svg>