<svg id="Regular" xmlns="http://www.w3.org/2000/svg" viewBox="0 0 24 24"><defs><style>.cls-1{fill:none;stroke:currentColor;stroke-linecap:round;stroke-linejoin:round;stroke-width:1.5px;}</style></defs><title>nuclear-energy-truck</title><path class="cls-1" d="M16.5,6.375a.375.375,0,0,1,.375.375"/><path class="cls-1" d="M16.125,6.75a.375.375,0,0,1,.375-.375"/><path class="cls-1" d="M16.5,7.125a.375.375,0,0,1-.375-.375"/><path class="cls-1" d="M16.875,6.75a.375.375,0,0,1-.375.375"/><path class="cls-1" d="M15.07,4.128,13.282.851A6.72,6.72,0,0,0,9.75,6.75H13.5A2.987,2.987,0,0,1,15.07,4.128Z"/><path class="cls-1" d="M17.93,9.372a2.894,2.894,0,0,1-2.86,0l-1.788,3.277a6.51,6.51,0,0,0,6.436,0Z"/><path class="cls-1" d="M19.718.851,17.93,4.128A2.987,2.987,0,0,1,19.5,6.75h3.75A6.72,6.72,0,0,0,19.718.851Z"/><path class="cls-1" d="M9.75,11.25H8.25a1.5,1.5,0,0,0-1.5,1.5v6.788"/><path class="cls-1" d="M17.962,21.75h.788a1.5,1.5,0,0,0,1.5-1.5v-3"/><path class="cls-1" d="M6.75,12.75h-3a3,3,0,0,0-3,3v4.5a1.5,1.5,0,0,0,1.5,1.5h2.3"/><circle class="cls-1" cx="6.375" cy="21.375" r="1.875"/><circle class="cls-1" cx="16.125" cy="21.375" r="1.875"/><line class="cls-1" x1="8.212" y1="21.75" x2="14.288" y2="21.75"/><line class="cls-1" x1="0.75" y1="17.351" x2="6.75" y2="17.351"/></svg>