<svg id="Regular" xmlns="http://www.w3.org/2000/svg" viewBox="0 0 24 24"><defs><style>.cls-1{fill:none;stroke:currentColor;stroke-linecap:round;stroke-linejoin:round;stroke-width:1.5px;}</style></defs><title>nuclear-energy-plant</title><path class="cls-1" d="M14.766,8a39.662,39.662,0,0,1-1.411-6.123.74.74,0,0,0-.74-.627h-6.2a.74.74,0,0,0-.74.627A39.754,39.754,0,0,1,4.266,8a23.1,23.1,0,0,1-2.883,5.579A.749.749,0,0,0,2,14.75H6.518"/><path class="cls-1" d="M16.266,15.875a.375.375,0,0,1,.375.375"/><path class="cls-1" d="M15.891,16.25a.374.374,0,0,1,.375-.375"/><path class="cls-1" d="M16.266,16.625a.374.374,0,0,1-.375-.375"/><path class="cls-1" d="M16.641,16.25a.375.375,0,0,1-.375.375"/><path class="cls-1" d="M14.836,13.628l-1.788-3.277a6.72,6.72,0,0,0-3.532,5.9h3.75A2.985,2.985,0,0,1,14.836,13.628Z"/><path class="cls-1" d="M17.7,18.872a2.894,2.894,0,0,1-2.86,0l-1.788,3.277a6.508,6.508,0,0,0,6.435,0Z"/><path class="cls-1" d="M19.483,10.351,17.7,13.628a2.987,2.987,0,0,1,1.57,2.622h3.75A6.721,6.721,0,0,0,19.483,10.351Z"/></svg>