<svg id="Regular" xmlns="http://www.w3.org/2000/svg" viewBox="0 0 24 24"><defs><style>.cls-1{fill:none;stroke:currentColor;stroke-linecap:round;stroke-linejoin:round;stroke-width:1.5px;}</style></defs><title>nuclear-energy-bin</title><path class="cls-1" d="M16.5,15.625a.375.375,0,0,1,.375.375"/><path class="cls-1" d="M16.125,16a.375.375,0,0,1,.375-.375"/><path class="cls-1" d="M16.5,16.375A.375.375,0,0,1,16.125,16"/><path class="cls-1" d="M16.875,16a.375.375,0,0,1-.375.375"/><path class="cls-1" d="M15.07,13.378,13.282,10.1A6.72,6.72,0,0,0,9.75,16H13.5A2.987,2.987,0,0,1,15.07,13.378Z"/><path class="cls-1" d="M17.93,18.622a2.894,2.894,0,0,1-2.86,0L13.282,21.9a6.51,6.51,0,0,0,6.436,0Z"/><path class="cls-1" d="M19.718,10.1,17.93,13.378A2.987,2.987,0,0,1,19.5,16h3.75A6.72,6.72,0,0,0,19.718,10.1Z"/><path class="cls-1" d="M6.465,16.75a3,3,0,0,1-2.985-2.7L2.25,1h12l-.525,6"/><line class="cls-1" x1="0.75" y1="1" x2="15.75" y2="1"/><line class="cls-1" x1="6" y1="1" x2="6.75" y2="13.75"/><line class="cls-1" x1="10.5" y1="1" x2="10.07" y2="8.499"/></svg>