<svg id="Regular" xmlns="http://www.w3.org/2000/svg" viewBox="0 0 24 24"><defs><style>.cls-1{fill:none;stroke:currentColor;stroke-linecap:round;stroke-linejoin:round;stroke-width:1.5px;}</style></defs><title>nuclear-energy-message</title><path class="cls-1" d="M12.75.75A10.485,10.485,0,0,0,3.833,16.775L.75,23.25l6.475-3.084A10.5,10.5,0,1,0,12.75.75Z"/><path class="cls-1" d="M12.75,10.875a.375.375,0,0,1,.375.375"/><path class="cls-1" d="M12.375,11.25a.375.375,0,0,1,.375-.375"/><path class="cls-1" d="M12.75,11.625a.375.375,0,0,1-.375-.375"/><path class="cls-1" d="M13.125,11.25a.375.375,0,0,1-.375.375"/><path class="cls-1" d="M11.32,8.628,9.532,5.351A6.72,6.72,0,0,0,6,11.25H9.75A2.987,2.987,0,0,1,11.32,8.628Z"/><path class="cls-1" d="M14.18,13.872a2.894,2.894,0,0,1-2.86,0L9.532,17.149a6.508,6.508,0,0,0,6.435,0Z"/><path class="cls-1" d="M15.967,5.351,14.18,8.628a2.987,2.987,0,0,1,1.57,2.622H19.5A6.719,6.719,0,0,0,15.967,5.351Z"/></svg>