<svg id="Regular" xmlns="http://www.w3.org/2000/svg" viewBox="0 0 24 24"><defs><style>.cls-1{fill:none;stroke:currentColor;stroke-linecap:round;stroke-linejoin:round;stroke-width:1.5px;}</style></defs><title>octopus-1</title><path class="cls-1" d="M10.285,5.945a8.079,8.079,0,0,1,3.074-3.75c4.5-3,9.75-.75,9.75,3.75s-6.75,5.25-6.75,8.25c0,3.75,2.25,2.25,4.5,3.75s.75,6-2.25,4.5"/><path class="cls-1" d="M2.859,17.945c-2.25,0-3-3-.75-4.5s3.75.75,6-1.5"/><path class="cls-1" d="M10.359,14.945c-1.5,3.75-2.25,2.25-4.5,4.5a2.136,2.136,0,1,0,3,3"/><circle class="cls-1" cx="13.734" cy="10.82" r="0.375"/><circle class="cls-1" cx="9.984" cy="9.32" r="0.375"/><path class="cls-1" d="M13.359,15.7s2.065,1.777.75,3.75c-1.5,2.25.75,3.75,1.5,3"/></svg>