<svg id="Regular" xmlns="http://www.w3.org/2000/svg" viewBox="0 0 24 24"><defs><style>.cls-1{fill:none;stroke:currentColor;stroke-linecap:round;stroke-linejoin:round;stroke-width:1.5px;}</style></defs><title>octopus</title><path class="cls-1" d="M21.524,12.258c.725,0,2.176,1.451,1.45,3.627a2.977,2.977,0,0,1-5.076.725c-1.451-2.176-.726-4.352.725-7.978C19.594,6.2,19.348.742,12.1.742S4.6,6.2,5.568,8.632c1.451,3.626,2.176,5.8.726,7.978a2.978,2.978,0,0,1-5.077-.725c-.725-2.176.725-3.627,1.45-3.627"/><circle class="cls-1" cx="9.557" cy="9.72" r="0.375"/><circle class="cls-1" cx="14.634" cy="9.72" r="0.375"/><path class="cls-1" d="M9.92,15.247A9.075,9.075,0,0,1,8.031,20.5c-3.188,3.881-5.9,1.135-4.639-.032"/><path class="cls-1" d="M14.271,15.247A9.075,9.075,0,0,0,16.16,20.5c3.189,3.881,5.9,1.135,4.639-.032"/></svg>