<svg xmlns="http://www.w3.org/2000/svg" viewBox="0 0 24 24"><defs><style>.a{fill:none;stroke:currentColor;stroke-linecap:round;stroke-linejoin:round;stroke-width:1.5px;}</style></defs><title>office-table</title><line class="a" x1="0.75" y1="20.25" x2="0.75" y2="6.75"/><rect class="a" x="14.25" y="6.75" width="9" height="4.5"/><rect class="a" x="14.25" y="11.25" width="9" height="4.5"/><path class="a" d="M14.25,15.75h9a0,0,0,0,1,0,0v4a.5.5,0,0,1-.5.5h-8a.5.5,0,0,1-.5-.5v-4a0,0,0,0,1,0,0Z"/><path class="a" d="M1.25,3.75h21.5a.5.5,0,0,1,.5.5v2.5a0,0,0,0,1,0,0H.75a0,0,0,0,1,0,0V4.25A.5.5,0,0,1,1.25,3.75Z"/></svg>