<svg xmlns="http://www.w3.org/2000/svg" viewBox="0 0 24 24"><defs><style>.a{fill:none;stroke:currentColor;stroke-linecap:round;stroke-linejoin:round;stroke-width:1.5px;}</style></defs><title>official-building-1</title><rect class="a" x="2.25" y="15.75" width="19.5" height="7.5"/><line class="a" x1="0.75" y1="23.25" x2="23.25" y2="23.25"/><line class="a" x1="0.75" y1="15.75" x2="23.25" y2="15.75"/><line class="a" x1="4.5" y1="8.25" x2="19.5" y2="8.25"/><line class="a" x1="7.5" y1="18.75" x2="7.5" y2="20.25"/><line class="a" x1="10.5" y1="18.75" x2="10.5" y2="20.25"/><line class="a" x1="13.5" y1="18.75" x2="13.5" y2="20.25"/><line class="a" x1="10.5" y1="11.25" x2="10.5" y2="12.75"/><line class="a" x1="13.5" y1="11.25" x2="13.5" y2="12.75"/><line class="a" x1="16.5" y1="18.75" x2="16.5" y2="20.25"/><rect class="a" x="6" y="8.25" width="12" height="7.5"/><line class="a" x1="12" y1="0.75" x2="12" y2="3.75"/><path class="a" d="M18,8.25c0-2.485-2.686-4.5-6-4.5S6,5.765,6,8.25"/></svg>