<svg xmlns="http://www.w3.org/2000/svg" viewBox="0 0 24 24"><defs><style>.a{fill:none;stroke:currentColor;stroke-linecap:round;stroke-linejoin:round;stroke-width:1.5px;}</style></defs><title>office-file-presentation</title><path class="a" d="M22.81,5.559a1.5,1.5,0,0,1,.439,1.06V21A2.25,2.25,0,0,1,21,23.248H3A2.25,2.25,0,0,1,.749,21V3A2.25,2.25,0,0,1,3,.748H17.378a1.5,1.5,0,0,1,1.061.439Z"/><path class="a" d="M17.249.748v4.5a1.5,1.5,0,0,0,1.5,1.5h4.5"/><path class="a" d="M17.249,9.748v4.5a.75.75,0,0,1-.75.75h-9a.75.75,0,0,1-.75-.75v-6A.75.75,0,0,1,7.5,7.5H15"/><line class="a" x1="11.999" y1="14.998" x2="11.999" y2="19.498"/><line class="a" x1="8.999" y1="19.498" x2="11.999" y2="16.498"/><line class="a" x1="14.999" y1="19.498" x2="11.999" y2="16.498"/></svg>