<svg xmlns="http://www.w3.org/2000/svg" viewBox="0 0 24 24"><defs><style>.a{fill:none;stroke:currentColor;stroke-linecap:round;stroke-linejoin:round;stroke-width:1.5px;}</style></defs><title>office-chair-table</title><line class="a" x1="0.75" y1="21.75" x2="0.75" y2="8.25"/><path class="a" d="M15.75,11.25h7.5a0,0,0,0,1,0,0v7.5a0,0,0,0,1,0,0h-7a.5.5,0,0,1-.5-.5v-7A0,0,0,0,1,15.75,11.25Z"/><path class="a" d="M15.75,11.25h7.5V9a.75.75,0,0,0-.75-.75H15.75"/><line class="a" x1="23.25" y1="18.75" x2="23.25" y2="21.75"/><path class="a" d="M19.5,14.625a.375.375,0,1,0,.375.375.375.375,0,0,0-.375-.375"/><path class="a" d="M12.75,21.75v-15a4.5,4.5,0,0,0-9,0v15"/><line class="a" x1="3.75" y1="15.75" x2="12.75" y2="15.75"/></svg>