<svg xmlns="http://www.w3.org/2000/svg" viewBox="0 0 24 24"><defs><style>.a{fill:none;stroke:currentColor;stroke-linecap:round;stroke-linejoin:round;stroke-width:1.5px;}</style></defs><title>office-file-hierarchy-alternate</title><rect class="a" x="5.249" y="14.999" width="4.5" height="4.5" rx="1" ry="1"/><rect class="a" x="8.249" y="4.499" width="6" height="4.5" rx="1" ry="1"/><rect class="a" x="12.749" y="14.999" width="4.5" height="4.5" rx="1" ry="1"/><line class="a" x1="5.999" y1="11.999" x2="16.499" y2="11.999"/><line class="a" x1="11.249" y1="11.999" x2="11.249" y2="13.499"/><path class="a" d="M22.81,5.559a1.5,1.5,0,0,1,.439,1.061V21A2.25,2.25,0,0,1,21,23.249H3A2.251,2.251,0,0,1,.749,21V3A2.25,2.25,0,0,1,3,.749H17.378a1.5,1.5,0,0,1,1.061.439Z"/><path class="a" d="M17.249.749v4.5a1.5,1.5,0,0,0,1.5,1.5h4.5"/></svg>