<svg xmlns="http://www.w3.org/2000/svg" viewBox="0 0 24 24"><defs><style>.a{fill:none;stroke:currentColor;stroke-linecap:round;stroke-linejoin:round;stroke-width:1.5px;}</style></defs><title>office-stationery</title><rect class="a" x="13.281" y="0.76" width="3.3" height="4.95" rx="1" ry="1" transform="translate(0.699 -2.32) rotate(9.095)"/><polyline class="a" points="16.69 2.681 18.514 12.164 17.7 17.248"/><rect class="a" x="19.798" y="1.803" width="3.3" height="4.95" rx="1" ry="1" transform="translate(41.95 11.893) rotate(-170.905)"/><polyline class="a" points="19.949 3.203 15.256 11.642 14.25 17.248"/><path class="a" d="M5.25,3.748h3.5a1.007,1.007,0,0,1,1,1.008V17.248H5.25Z"/><line class="a" x1="7.5" y1="3.748" x2="7.5" y2="0.748"/><path class="a" d="M23.25,18.248a1.014,1.014,0,0,0-1.023-1H1.773a1.014,1.014,0,0,0-1.023,1v4a1.014,1.014,0,0,0,1.023,1H22.227a1.014,1.014,0,0,0,1.023-1Z"/><line class="a" x1="6" y1="0.748" x2="8.795" y2="0.748"/><path class="a" d="M5.25,3.748h0a3,3,0,0,0-3,3V10.5"/></svg>