<svg xmlns="http://www.w3.org/2000/svg" viewBox="0 0 24 24"><defs><style>.a{fill:none;stroke:currentColor;stroke-linecap:round;stroke-linejoin:round;stroke-width:1.5px;}</style></defs><title>office-file-key-1</title><path class="a" d="M5.249,23.248h-3a1.5,1.5,0,0,1-1.5-1.5V2.248a1.5,1.5,0,0,1,1.5-1.5H12.878a1.5,1.5,0,0,1,1.06.439L19.81,7.059a1.5,1.5,0,0,1,.439,1.06v4.629"/><path class="a" d="M20.249,8.248h-6a1.5,1.5,0,0,1-1.5-1.5v-6"/><line class="a" x1="8.249" y1="23.248" x2="8.249" y2="15.748"/><polyline class="a" points="11.249 23.248 8.249 19.498 11.249 15.748"/><path class="a" d="M17.249,23.248h-1.5a1.5,1.5,0,0,1-1.5-1.5v-4.5a1.5,1.5,0,0,1,1.5-1.5h1.5"/><line class="a" x1="14.249" y1="20.248" x2="17.249" y2="20.248"/><path class="a" d="M20.249,15.748V18a1.5,1.5,0,0,0,3,0v-2.25"/><line class="a" x1="21.749" y1="19.498" x2="21.749" y2="23.248"/></svg>