<svg xmlns="http://www.w3.org/2000/svg" viewBox="0 0 24 24"><defs><style>.a{fill:none;stroke:currentColor;stroke-linecap:round;stroke-linejoin:round;stroke-width:1.5px;}</style></defs><title>office-file-key</title><line class="a" x1="4.502" y1="19.498" x2="4.502" y2="11.998"/><polyline class="a" points="7.502 19.498 4.502 15.748 7.502 11.998"/><path class="a" d="M13.5,19.5H12A1.5,1.5,0,0,1,10.5,18V13.5A1.5,1.5,0,0,1,12,12h1.5"/><line class="a" x1="10.502" y1="16.498" x2="13.502" y2="16.498"/><path class="a" d="M16.5,12v2.25a1.5,1.5,0,1,0,3,0V12"/><line class="a" x1="18.002" y1="15.748" x2="18.002" y2="19.498"/><path class="a" d="M22.813,5.559a1.5,1.5,0,0,1,.439,1.06V21A2.25,2.25,0,0,1,21,23.248H3A2.25,2.25,0,0,1,.752,21V3A2.25,2.25,0,0,1,3,.748H17.381a1.5,1.5,0,0,1,1.061.439Z"/><path class="a" d="M17.252.748v4.5a1.5,1.5,0,0,0,1.5,1.5h4.5"/></svg>