<svg xmlns="http://www.w3.org/2000/svg" viewBox="0 0 24 24"><defs><style>.a{fill:none;stroke:currentColor;stroke-linecap:round;stroke-linejoin:round;stroke-width:1.5px;}</style></defs><title>office-drawing-board</title><path class="a" d="M16.586,12.75H3.376a.751.751,0,0,1-.7-1.014L6.428,1.723A1.5,1.5,0,0,1,7.833.75h13.21a.75.75,0,0,1,.7,1.013L17.99,11.776A1.5,1.5,0,0,1,16.586,12.75Z"/><line class="a" x1="3.7" y1="9" x2="19.031" y2="9"/><line class="a" x1="20.625" y1="4.75" x2="20.625" y2="23.25"/><line class="a" x1="19.125" y1="23.25" x2="22.125" y2="23.25"/><path class="a" d="M10.125,19.5a1.5,1.5,0,0,1,0-3h3.75a1.5,1.5,0,0,1,0,3Z"/><line class="a" x1="10.125" y1="19.5" x2="9.375" y2="23.25"/><line class="a" x1="13.875" y1="19.5" x2="14.625" y2="23.25"/><line class="a" x1="3.375" y1="23.25" x2="3.376" y2="15"/><line class="a" x1="1.875" y1="23.25" x2="4.875" y2="23.25"/></svg>