<svg xmlns="http://www.w3.org/2000/svg" viewBox="0 0 24 24"><defs><style>.a{fill:none;stroke:currentColor;stroke-linecap:round;stroke-linejoin:round;stroke-width:1.5px;}</style></defs><title>office-file-pps</title><line class="a" x1="4.502" y1="19.498" x2="4.502" y2="11.998"/><path class="a" d="M4.5,12h.75a2.25,2.25,0,0,1,0,4.5H4.5"/><line class="a" x1="10.502" y1="19.498" x2="10.502" y2="11.998"/><path class="a" d="M10.5,12h.75a2.25,2.25,0,0,1,0,4.5H10.5"/><path class="a" d="M19.5,12H18a1.5,1.5,0,0,0-1.5,1.5c0,2.25,3,2.25,3,4.5A1.5,1.5,0,0,1,18,19.5H16.5"/><path class="a" d="M22.813,5.559a1.5,1.5,0,0,1,.439,1.06V21A2.25,2.25,0,0,1,21,23.248H3A2.25,2.25,0,0,1,.752,21V3A2.25,2.25,0,0,1,3,.748H17.381a1.5,1.5,0,0,1,1.061.439Z"/><path class="a" d="M17.252.748v4.5a1.5,1.5,0,0,0,1.5,1.5h4.5"/></svg>