<svg xmlns="http://www.w3.org/2000/svg" viewBox="0 0 24 24"><defs><style>.a{fill:none;stroke:currentColor;stroke-linecap:round;stroke-linejoin:round;stroke-width:1.5px;}</style></defs><title>office-drawer</title><rect class="a" x="0.75" y="12.814" width="22.5" height="10.435" rx="0.978" ry="0.978"/><path class="a" d="M2.25,12.814V6.977A.983.983,0,0,1,3.237,6h8.388a.987.987,0,0,1,.789.392L13.6,8.248h6.414A.983.983,0,0,1,21,9.227v3.587"/><line class="a" x1="9.065" y1="15.748" x2="14.935" y2="15.748"/><path class="a" d="M19.737,5.248V3.977A.983.983,0,0,0,18.75,3H13.6L12.414,1.14a.987.987,0,0,0-.789-.392H4.5a.983.983,0,0,0-.987.979V2.77"/></svg>