<svg xmlns="http://www.w3.org/2000/svg" viewBox="0 0 24 24"><defs><style>.a{fill:none;stroke:currentColor;stroke-linecap:round;stroke-linejoin:round;stroke-width:1.5px;}</style></defs><title>office-desk-2</title><line class="a" x1="0.75" y1="23.238" x2="0.75" y2="14.238"/><path class="a" d="M14.25,14.238h9a0,0,0,0,1,0,0v8.5a.5.5,0,0,1-.5.5h-8a.5.5,0,0,1-.5-.5v-8.5A0,0,0,0,1,14.25,14.238Z"/><path class="a" d="M1.25,11.238h21.5a.5.5,0,0,1,.5.5v2.5a0,0,0,0,1,0,0H.75a0,0,0,0,1,0,0v-2.5A.5.5,0,0,1,1.25,11.238Z"/><line class="a" x1="14.25" y1="18.738" x2="23.25" y2="18.738"/><rect class="a" x="3.75" y="0.738" width="12" height="7.5" rx="1.5" ry="1.5"/><line class="a" x1="9.75" y1="8.238" x2="9.75" y2="11.238"/></svg>