<svg xmlns="http://www.w3.org/2000/svg" viewBox="0 0 24 24"><defs><style>.a{fill:none;stroke:currentColor;stroke-linecap:round;stroke-linejoin:round;stroke-width:1.5px;}</style></defs><title>office-clipper</title><path class="a" d="M21.75,11.248H2.25A1.5,1.5,0,0,0,.776,13.025l1.688,9a1.5,1.5,0,0,0,1.474,1.223H20.062a1.5,1.5,0,0,0,1.474-1.223l1.688-9A1.5,1.5,0,0,0,21.75,11.248Z"/><path class="a" d="M17.25,3.748c0-1.656-2.35-3-5.25-3s-5.25,1.344-5.25,3c0,1.029.909,1.936,2.291,2.477L7.5,23.248h9L14.959,6.225C16.341,5.684,17.25,4.777,17.25,3.748Z"/></svg>