<svg xmlns="http://www.w3.org/2000/svg" viewBox="0 0 24 24"><defs><style>.a{fill:none;stroke:currentColor;stroke-linecap:round;stroke-linejoin:round;stroke-width:1.5px;}</style></defs><title>office-file-text-graph</title><path class="a" d="M21.748,21.748a1.5,1.5,0,0,1-1.5,1.5h-18a1.5,1.5,0,0,1-1.5-1.5V2.248a1.5,1.5,0,0,1,1.5-1.5h15a1.5,1.5,0,0,1,1.047.426l3,2.883a1.5,1.5,0,0,1,.453,1.074Z"/><line class="a" x1="16.498" y1="9.748" x2="17.248" y2="9.748"/><line class="a" x1="14.998" y1="5.248" x2="17.248" y2="5.248"/><line class="a" x1="13.498" y1="14.248" x2="17.248" y2="14.248"/><line class="a" x1="5.248" y1="18.748" x2="17.248" y2="18.748"/><circle class="a" cx="8.248" cy="8.998" r="4.5"/><polyline class="a" points="4.544 11.467 8.248 8.998 8.248 4.498"/></svg>