<svg xmlns="http://www.w3.org/2000/svg" viewBox="0 0 24 24"><defs><style>.a{fill:none;stroke:currentColor;stroke-linecap:round;stroke-linejoin:round;stroke-width:1.5px;}</style></defs><title>office-file-txt</title><line class="a" x1="17.998" y1="19.498" x2="17.998" y2="11.998"/><line class="a" x1="16.498" y1="11.998" x2="19.498" y2="11.998"/><line class="a" x1="5.998" y1="19.498" x2="5.998" y2="11.998"/><line class="a" x1="4.498" y1="11.998" x2="7.498" y2="11.998"/><line class="a" x1="10.498" y1="11.998" x2="13.498" y2="19.498"/><line class="a" x1="13.498" y1="11.998" x2="10.498" y2="19.498"/><path class="a" d="M22.809,5.559a1.5,1.5,0,0,1,.439,1.06V21A2.25,2.25,0,0,1,21,23.248H3A2.25,2.25,0,0,1,.748,21V3A2.25,2.25,0,0,1,3,.748H17.377a1.5,1.5,0,0,1,1.061.439Z"/><path class="a" d="M17.248.748v4.5a1.5,1.5,0,0,0,1.5,1.5h4.5"/></svg>