<svg xmlns="http://www.w3.org/2000/svg" viewBox="0 0 24 24"><defs><style>.a{fill:none;stroke:currentColor;stroke-linecap:round;stroke-linejoin:round;stroke-width:1.5px;}</style></defs><title>office-folder</title><path class="a" d="M23.286,12.433a1,1,0,0,0-.979-1.193H10.479a1,1,0,0,1-.978-.8L9.224,9.049a1,1,0,0,0-.978-.8H1.8A1,1,0,0,0,.825,9.442L3.418,22.447a1,1,0,0,0,.978.8H20.313a1,1,0,0,0,.978-.8C21.7,20.39,22.8,14.868,23.286,12.433Z"/><path class="a" d="M4.556,5.248l.02-3.5a1,1,0,0,1,1-1H18.538a1,1,0,0,1,1,1l.021,6.5"/><line class="a" x1="7.568" y1="3.74" x2="15.806" y2="3.748"/><line class="a" x1="12.056" y1="6.748" x2="15.806" y2="6.748"/></svg>