<svg xmlns="http://www.w3.org/2000/svg" viewBox="0 0 24 24"><defs><style>.a{fill:none;stroke:currentColor;stroke-linecap:round;stroke-linejoin:round;stroke-width:1.5px;}</style></defs><title>office-file-pdf</title><line class="a" x1="4.499" y1="19.498" x2="4.499" y2="11.998"/><path class="a" d="M4.5,12h.75a2.25,2.25,0,0,1,0,4.5H4.5"/><path class="a" d="M10.5,19.5a3,3,0,0,0,3-3V15a3,3,0,0,0-3-3Z"/><path class="a" d="M16.5,19.5v-6A1.5,1.5,0,0,1,18,12h1.5"/><line class="a" x1="16.499" y1="16.498" x2="18.749" y2="16.498"/><path class="a" d="M22.809,5.559a1.5,1.5,0,0,1,.44,1.06V21A2.25,2.25,0,0,1,21,23.248H3A2.25,2.25,0,0,1,.749,21V3A2.25,2.25,0,0,1,3,.748H17.377a1.5,1.5,0,0,1,1.061.439Z"/><path class="a" d="M17.249.748v4.5a1.5,1.5,0,0,0,1.5,1.5h4.5"/></svg>