<svg xmlns="http://www.w3.org/2000/svg" viewBox="0 0 24 24"><defs><style>.a{fill:none;stroke:currentColor;stroke-linecap:round;stroke-linejoin:round;stroke-width:1.5px;}</style></defs><title>office-file-presentation-1</title><path class="a" d="M22.5,21.748a1.5,1.5,0,0,1-1.5,1.5H3a1.5,1.5,0,0,1-1.5-1.5V2.248A1.5,1.5,0,0,1,3,.748H18a1.5,1.5,0,0,1,1.048.426l3,2.883A1.5,1.5,0,0,1,22.5,5.131Z"/><rect class="a" x="6.752" y="6.748" width="10.5" height="7.5" rx="0.5" ry="0.5"/><line class="a" x1="12.002" y1="14.248" x2="12.002" y2="18.748"/><line class="a" x1="9.002" y1="18.748" x2="12.002" y2="15.748"/><line class="a" x1="15.002" y1="18.748" x2="12.002" y2="15.748"/></svg>