<svg xmlns="http://www.w3.org/2000/svg" viewBox="0 0 24 24"><defs><style>.a{fill:none;stroke:currentColor;stroke-linecap:round;stroke-linejoin:round;stroke-width:1.5px;}</style></defs><title>official-building</title><rect class="a" x="4.5" y="14.25" width="3" height="6"/><rect class="a" x="10.5" y="14.25" width="3" height="6"/><rect class="a" x="16.5" y="14.25" width="3" height="6"/><path class="a" d="M21,13.5a.75.75,0,0,1-.75.75H3.75A.75.75,0,0,1,3,13.5a1.04,1.04,0,0,1,.712-.987l8.051-2.684a.753.753,0,0,1,.474,0l8.051,2.684A1.04,1.04,0,0,1,21,13.5Z"/><polyline class="a" points="15 8.25 18 8.25 18 11.75"/><polyline class="a" points="6 11.75 6 8.25 9 8.25"/><path class="a" d="M6,8.25a6,6,0,0,1,12,0"/><line class="a" x1="12" y1="0.75" x2="12" y2="2.25"/><line class="a" x1="1.5" y1="23.25" x2="22.5" y2="23.25"/><line class="a" x1="3" y1="20.25" x2="21" y2="20.25"/></svg>