<svg xmlns="http://www.w3.org/2000/svg" viewBox="0 0 24 24"><defs><style>.a{fill:none;stroke:currentColor;stroke-linecap:round;stroke-linejoin:round;stroke-width:1.5px;}</style></defs><title>office-file-xls-1</title><path class="a" d="M5.249,23.248h-3a1.5,1.5,0,0,1-1.5-1.5V2.248a1.5,1.5,0,0,1,1.5-1.5H12.878a1.5,1.5,0,0,1,1.06.439L19.81,7.059a1.5,1.5,0,0,1,.439,1.06v4.629"/><path class="a" d="M20.249,8.248h-6a1.5,1.5,0,0,1-1.5-1.5v-6"/><line class="a" x1="8.249" y1="15.748" x2="11.249" y2="23.248"/><line class="a" x1="11.249" y1="15.748" x2="8.249" y2="23.248"/><path class="a" d="M14.249,15.748v6a1.5,1.5,0,0,0,1.5,1.5h1.5"/><path class="a" d="M23.249,15.748h-1.5a1.5,1.5,0,0,0-1.5,1.5c0,2.25,3,2.25,3,4.5a1.5,1.5,0,0,1-1.5,1.5h-1.5"/></svg>