<svg xmlns="http://www.w3.org/2000/svg" viewBox="0 0 24 24"><defs><style>.a{fill:none;stroke:currentColor;stroke-linecap:round;stroke-linejoin:round;stroke-width:1.5px;}</style></defs><title>office-file-graph-alternate</title><path class="a" d="M22.812,5.559a1.5,1.5,0,0,1,.439,1.061V21A2.25,2.25,0,0,1,21,23.249H3A2.251,2.251,0,0,1,.751,21V3A2.25,2.25,0,0,1,3,.749H17.38a1.5,1.5,0,0,1,1.061.439Z"/><path class="a" d="M17.251.749v4.5a1.5,1.5,0,0,0,1.5,1.5h4.5"/><circle class="a" cx="9.751" cy="9.749" r="5.25"/><polyline class="a" points="4.502 9.749 9.732 9.749 10.878 14.878"/><line class="a" x1="9.732" y1="9.749" x2="13.464" y2="6.037"/><line class="a" x1="19.501" y1="16.499" x2="15.001" y2="16.499"/><line class="a" x1="19.501" y1="19.499" x2="11.251" y2="19.499"/></svg>