<svg xmlns="http://www.w3.org/2000/svg" viewBox="0 0 24 24"><defs><style>.a{fill:none;stroke:currentColor;stroke-linecap:round;stroke-linejoin:round;stroke-width:1.5px;}</style></defs><title>office-tape-2</title><line class="a" x1="1.875" y1="4.123" x2="16.407" y2="10.136"/><circle class="a" cx="16.125" cy="13.123" r="3"/><path class="a" d="M16.125,12.748a.375.375,0,1,1-.375.375.375.375,0,0,1,.375-.375"/><path class="a" d="M6.838,14.29a1.467,1.467,0,0,1-2.713-.775v-2.8A2.936,2.936,0,0,0,2.717,8.429l-.778-.6c-.448-.3-.814-.1-.814.436v7.7a3.913,3.913,0,0,0,3.913,3.913H16.125a6.75,6.75,0,0,0,0-13.5C12.589,6.373,10.311,8.709,6.838,14.29Z"/></svg>