<svg xmlns="http://www.w3.org/2000/svg" viewBox="0 0 24 24"><defs><style>.a{fill:none;stroke:currentColor;stroke-linecap:round;stroke-linejoin:round;stroke-width:1.5px;}</style></defs><title>office-outdoors-1</title><line class="a" x1="0.75" y1="4.5" x2="11.25" y2="4.5"/><line class="a" x1="0.75" y1="8.25" x2="11.25" y2="8.25"/><rect class="a" x="2.25" y="12" width="7.5" height="11.25"/><line class="a" x1="0.75" y1="23.25" x2="23.25" y2="23.25"/><rect class="a" x="4.5" y="15" width="3" height="3"/><polygon class="a" points="20.25 23.25 15.75 23.25 15 19.5 21 19.5 20.25 23.25"/><line class="a" x1="18" y1="19.5" x2="18" y2="13.5"/><rect class="a" x="0.75" y="0.75" width="10.5" height="11.25" rx="1.303" ry="1.303"/><path class="a" d="M15.751,16.536a6.183,6.183,0,0,1-2.1-4.861C13.646,8.541,15.6,6,18,6s4.354,2.541,4.354,5.675a6.183,6.183,0,0,1-2.1,4.86"/><line class="a" x1="5.25" y1="20.25" x2="6.75" y2="20.25"/></svg>