<svg xmlns="http://www.w3.org/2000/svg" viewBox="0 0 24 24"><defs><style>.a{fill:none;stroke:currentColor;stroke-linecap:round;stroke-linejoin:round;stroke-width:1.5px;}</style></defs><title>office-file-txt-1</title><path class="a" d="M5.247,23.248h-3a1.5,1.5,0,0,1-1.5-1.5V2.248a1.5,1.5,0,0,1,1.5-1.5H12.876a1.5,1.5,0,0,1,1.06.439l5.872,5.872a1.5,1.5,0,0,1,.439,1.06v4.629"/><path class="a" d="M20.247,8.248h-6a1.5,1.5,0,0,1-1.5-1.5v-6"/><line class="a" x1="21.747" y1="23.248" x2="21.747" y2="15.748"/><line class="a" x1="20.247" y1="15.748" x2="23.247" y2="15.748"/><line class="a" x1="9.747" y1="23.248" x2="9.747" y2="15.748"/><line class="a" x1="8.247" y1="15.748" x2="11.247" y2="15.748"/><line class="a" x1="14.247" y1="15.748" x2="17.247" y2="23.248"/><line class="a" x1="17.247" y1="15.748" x2="14.247" y2="23.248"/></svg>