<svg xmlns="http://www.w3.org/2000/svg" viewBox="0 0 24 24"><defs><style>.a{fill:none;stroke:currentColor;stroke-linecap:round;stroke-linejoin:round;stroke-width:1.5px;}</style></defs><title>office-file-doc</title><path class="a" d="M4.5,19.5a3,3,0,0,0,3-3V15a3,3,0,0,0-3-3Z"/><path class="a" d="M12,12a1.5,1.5,0,0,0-1.5,1.5V18a1.5,1.5,0,0,0,3,0V13.5A1.5,1.5,0,0,0,12,12Z"/><path class="a" d="M19.5,12a3,3,0,0,0-3,3v1.5a3,3,0,0,0,3,3"/><path class="a" d="M22.81,5.559a1.5,1.5,0,0,1,.439,1.06V21A2.25,2.25,0,0,1,21,23.248H3A2.25,2.25,0,0,1,.749,21V3A2.25,2.25,0,0,1,3,.748H17.378a1.5,1.5,0,0,1,1.061.439Z"/><path class="a" d="M17.249.748v4.5a1.5,1.5,0,0,0,1.5,1.5h4.5"/></svg>