<svg xmlns="http://www.w3.org/2000/svg" viewBox="0 0 24 24"><defs><style>.a{fill:none;stroke:currentColor;stroke-linecap:round;stroke-linejoin:round;stroke-width:1.5px;}</style></defs><title>office-file-glue</title><line class="a" x1="12.749" y1="11.998" x2="4.499" y2="11.998"/><line class="a" x1="8.999" y1="16.498" x2="4.499" y2="16.498"/><line class="a" x1="17.999" y1="7.498" x2="4.499" y2="7.498"/><path class="a" d="M7.5,23.248H2.249a1.5,1.5,0,0,1-1.5-1.5V2.248a1.5,1.5,0,0,1,1.5-1.5h15a1.5,1.5,0,0,1,1.047.427l3,2.882a1.5,1.5,0,0,1,.453,1.074V9"/><path class="a" d="M17.621,22.188a.75.75,0,0,1-1.061,0l-3.182-3.182a.75.75,0,0,1,0-1.061l2.063-2.063a.735.735,0,0,1,.128-.1l5.257-3.346a.751.751,0,0,1,.933.1l1.27,1.27a.749.749,0,0,1,.1.933L19.786,20a.735.735,0,0,1-.1.128Z"/><polyline class="a" points="16.03 21.657 14.439 23.248 10.499 23.248 13.909 19.536"/></svg>