<svg xmlns="http://www.w3.org/2000/svg" viewBox="0 0 24 24"><defs><style>.a{fill:none;stroke:currentColor;stroke-linecap:round;stroke-linejoin:round;stroke-width:1.5px;}</style></defs><title>office-chair-table-2</title><path class="a" d="M23.25,20.249V11.871a1.5,1.5,0,0,0-.439-1.061L20.689,8.689a1.5,1.5,0,0,0-1.06-.44H4.371a1.5,1.5,0,0,0-1.06.44L1.189,10.81A1.5,1.5,0,0,0,.75,11.871v8.378"/><line class="a" x1="4.5" y1="11.249" x2="19.5" y2="11.249"/><path class="a" d="M8.25,8.249V7.5a3.75,3.75,0,0,1,7.5,0v.75"/><line class="a" x1="8.25" y1="11.249" x2="8.25" y2="20.249"/><line class="a" x1="15.75" y1="11.249" x2="15.75" y2="20.249"/><path class="a" d="M6.75,14.249a10.376,10.376,0,0,0,5.25,1.5,10.376,10.376,0,0,0,5.25-1.5"/></svg>