<svg xmlns="http://www.w3.org/2000/svg" viewBox="0 0 24 24"><defs><style>.a{fill:none;stroke:currentColor;stroke-linecap:round;stroke-linejoin:round;stroke-width:1.5px;}</style></defs><title>office-lamp</title><line class="a" x1="20.422" y1="9.345" x2="11.191" y2="4.618"/><line class="a" x1="17.531" y1="18.545" x2="21.112" y2="11.384"/><circle class="a" cx="21.75" cy="10.042" r="1.5"/><path class="a" d="M10.125,11.264a1.305,1.305,0,0,0,.369-1.107l-.6-4.2,1.038-1.038A2.446,2.446,0,1,0,7.473,1.465L6.435,2.5l-4.2-.6A1.3,1.3,0,0,0,1.132,4.116L8.28,11.264A1.3,1.3,0,0,0,10.125,11.264Z"/><path class="a" d="M20.649,23.248a.978.978,0,0,0,.93-1.28,5.8,5.8,0,0,0-5.666-3.611,5.8,5.8,0,0,0-5.666,3.611.978.978,0,0,0,.93,1.28Z"/></svg>