<svg xmlns="http://www.w3.org/2000/svg" viewBox="0 0 24 24"><defs><style>.a{fill:none;stroke:currentColor;stroke-linecap:round;stroke-linejoin:round;stroke-width:1.5px;}</style></defs><title>office-file-stamp</title><line class="a" x1="12.748" y1="11.998" x2="4.498" y2="11.998"/><line class="a" x1="10.498" y1="16.498" x2="4.498" y2="16.498"/><line class="a" x1="17.998" y1="7.498" x2="4.498" y2="7.498"/><path class="a" d="M22.209,19.261a.751.751,0,0,0-.711-.513h-2.25V16.5a2.25,2.25,0,1,0-3,0v2.25H14a.751.751,0,0,0-.712.513l-1,3a.749.749,0,0,0,.712.987h9.5a.749.749,0,0,0,.711-.987Z"/><path class="a" d="M9,23.248H2.248a1.5,1.5,0,0,1-1.5-1.5V2.248a1.5,1.5,0,0,1,1.5-1.5h15a1.5,1.5,0,0,1,1.047.427l3,2.882a1.5,1.5,0,0,1,.453,1.074V10.5"/></svg>