<svg xmlns="http://www.w3.org/2000/svg" viewBox="0 0 24 24"><defs><style>.a{fill:none;stroke:currentColor;stroke-linecap:round;stroke-linejoin:round;stroke-width:1.5px;}</style></defs><title>office-file-glue-alternate</title><line class="a" x1="11.25" y1="14.249" x2="4.5" y2="14.249"/><line class="a" x1="9" y1="18.749" x2="4.5" y2="18.749"/><line class="a" x1="16.5" y1="9.749" x2="4.5" y2="9.749"/><path class="a" d="M17.622,22.189a.749.749,0,0,1-1.06,0L13.38,19.007a.75.75,0,0,1,0-1.061l2.063-2.063a.693.693,0,0,1,.127-.1l5.257-3.345a.749.749,0,0,1,.933.1l1.27,1.27a.749.749,0,0,1,.1.933L19.788,20a.791.791,0,0,1-.1.128Z"/><polyline class="a" points="16.031 21.659 14.44 23.249 10.5 23.249 13.91 19.537"/><path class="a" d="M7.5,23.249H3A2.25,2.25,0,0,1,.75,21V3A2.25,2.25,0,0,1,3,.749H17.379a1.5,1.5,0,0,1,1.06.44L22.811,5.56a1.5,1.5,0,0,1,.439,1.061V9.749"/><path class="a" d="M17.25.749v4.5a1.5,1.5,0,0,0,1.5,1.5h4.5"/></svg>