<svg xmlns="http://www.w3.org/2000/svg" viewBox="0 0 24 24"><defs><style>.a{fill:none;stroke:currentColor;stroke-linecap:round;stroke-linejoin:round;stroke-width:1.5px;}</style></defs><title>office-tape</title><path class="a" d="M11.624,11.828a3.221,3.221,0,0,1-3.194,2.8h0a3.223,3.223,0,0,1-3.1-2.336l-.521-1.826A1.5,1.5,0,0,0,3.369,9.373H2.25a1.5,1.5,0,0,0-1.5,1.5v4.5a4.5,4.5,0,0,0,4.5,4.5h15a3,3,0,0,0,3-3v-7.1A5.652,5.652,0,0,0,17.6,4.123h0a5.64,5.64,0,0,0-3.349,1.1"/><circle class="a" cx="17.625" cy="9.748" r="2.625"/><line class="a" x1="16.754" y1="7.271" x2="4.955" y2="10.966"/></svg>