<svg xmlns="http://www.w3.org/2000/svg" viewBox="0 0 24 24"><defs><style>.a{fill:none;stroke:currentColor;stroke-linecap:round;stroke-linejoin:round;stroke-width:1.5px;}</style></defs><title>office-stamp-document</title><path class="a" d="M6.75,6V1.727A.975.975,0,0,1,7.721.748h9.7l5.824,5.87V22.27a.975.975,0,0,1-.971.978H15.75"/><path class="a" d="M17.25.748v5a1,1,0,0,0,1,1h5"/><line class="a" x1="20.804" y1="10.498" x2="12.75" y2="10.498"/><line class="a" x1="20.804" y1="19.498" x2="18" y2="19.498"/><line class="a" x1="20.804" y1="14.998" x2="14.25" y2="14.998"/><polyline class="a" points="0.75 20.248 1.5 23.248 12 23.248 12.75 20.248"/><path class="a" d="M9.75,17.248H8.25V14.582a3,3,0,1,0-3,0v2.666H3.75a3,3,0,0,0-3,3h12A3,3,0,0,0,9.75,17.248Z"/></svg>