<svg xmlns="http://www.w3.org/2000/svg" viewBox="0 0 24 24"><defs><style>.a{fill:none;stroke:currentColor;stroke-linecap:round;stroke-linejoin:round;stroke-width:1.5px;}</style></defs><title>office-razor</title><path class="a" d="M11.207,15.372,7.649,11.813a.838.838,0,0,1,0-1.186l8.9-8.9a3.355,3.355,0,0,1,4.744,0h0a3.347,3.347,0,0,1,.007,4.74c-2.808,2.806-7.31,7.308-8.909,8.907A.832.832,0,0,1,11.207,15.372Z"/><path class="a" d="M11.207,15.372,7.649,11.813,2,17.466a.841.841,0,0,0-.243.669l.4,4.349A.839.839,0,0,0,3.577,23Z"/><line class="a" x1="9.428" y1="13.592" x2="15.359" y2="7.662"/><line class="a" x1="15.952" y1="2.324" x2="20.696" y2="7.069"/><line class="a" x1="5.869" y1="13.592" x2="6.463" y2="20.116"/></svg>