<svg xmlns="http://www.w3.org/2000/svg" viewBox="0 0 24 24"><defs><style>.a{fill:none;stroke:currentColor;stroke-linecap:round;stroke-linejoin:round;stroke-width:1.5px;}</style></defs><title>office-outdoors</title><line class="a" x1="7.598" y1="23.25" x2="7.598" y2="19.337"/><line class="a" x1="13.467" y1="23.25" x2="13.467" y2="19.337"/><line class="a" x1="5.641" y1="19.337" x2="15.424" y2="19.337"/><path class="a" d="M.75,23.25V6.958A1.007,1.007,0,0,1,1.8,6h8.4a1.007,1.007,0,0,1,1.05.958V15.75"/><path class="a" d="M8.25,3.5A.534.534,0,0,0,7.688,3H4.313a.534.534,0,0,0-.563.5V6h4.5Z"/><line class="a" x1="5.977" y1="2.706" x2="6" y2="0.913"/><line class="a" x1="3.75" y1="9.75" x2="8.25" y2="9.75"/><line class="a" x1="3.75" y1="14.25" x2="8.25" y2="14.25"/><line class="a" x1="0.75" y1="23.25" x2="23.25" y2="23.25"/><circle class="a" cx="19.5" cy="12.75" r="3.75"/><line class="a" x1="19.5" y1="23.25" x2="19.5" y2="13.5"/></svg>