<svg xmlns="http://www.w3.org/2000/svg" viewBox="0 0 24 24"><defs><style>.a{fill:none;stroke:currentColor;stroke-linecap:round;stroke-linejoin:round;stroke-width:1.5px;}</style></defs><title>office-file-rtf</title><line class="a" x1="13.5" y1="19.498" x2="13.5" y2="11.998"/><line class="a" x1="12" y1="11.998" x2="15" y2="11.998"/><path class="a" d="M18,19.5v-6A1.5,1.5,0,0,1,19.5,12H21"/><line class="a" x1="18" y1="16.498" x2="20.25" y2="16.498"/><line class="a" x1="6" y1="19.498" x2="6" y2="11.998"/><path class="a" d="M6,12H7.125a1.875,1.875,0,0,1,0,3.75H6"/><line class="a" x1="9" y1="19.498" x2="6.75" y2="15.748"/><path class="a" d="M22.811,5.559A1.5,1.5,0,0,1,23.25,6.62V21A2.25,2.25,0,0,1,21,23.248H3A2.25,2.25,0,0,1,.75,21V3A2.251,2.251,0,0,1,3,.748H17.379a1.5,1.5,0,0,1,1.061.44Z"/><path class="a" d="M17.25.748v4.5a1.5,1.5,0,0,0,1.5,1.5h4.5"/></svg>