<svg xmlns="http://www.w3.org/2000/svg" viewBox="0 0 24 24"><defs><style>.a{fill:none;stroke:currentColor;stroke-linecap:round;stroke-linejoin:round;stroke-width:1.5px;}</style></defs><title>office-file-hierarchy</title><rect class="a" x="5.999" y="15.748" width="4.5" height="4.5" rx="1" ry="1"/><rect class="a" x="8.999" y="5.248" width="6" height="4.5" rx="1" ry="1"/><rect class="a" x="13.499" y="15.748" width="4.5" height="4.5" rx="1" ry="1"/><line class="a" x1="6.749" y1="12.748" x2="17.249" y2="12.748"/><line class="a" x1="11.999" y1="12.748" x2="11.999" y2="14.248"/><path class="a" d="M22.5,21.748a1.5,1.5,0,0,1-1.5,1.5H3a1.5,1.5,0,0,1-1.5-1.5V2.248A1.5,1.5,0,0,1,3,.748H18a1.5,1.5,0,0,1,1.047.426l3,2.883A1.5,1.5,0,0,1,22.5,5.131Z"/></svg>