<svg xmlns="http://www.w3.org/2000/svg" viewBox="0 0 24 24"><defs><style>.a{fill:none;stroke:currentColor;stroke-linecap:round;stroke-linejoin:round;stroke-width:1.5px;}</style></defs><title>office-file-module-edit</title><rect class="a" x="4.498" y="13.498" width="4.5" height="4.5" rx="1" ry="1"/><rect class="a" x="7.498" y="5.998" width="6" height="4.5" rx="1" ry="1"/><path class="a" d="M13.5,18A1.5,1.5,0,0,1,12,16.5V15a1.5,1.5,0,0,1,1.5-1.5H15A1.5,1.5,0,0,1,16.5,15"/><path class="a" d="M18.277,22.742l-2.529.506.506-2.529,4.552-4.552a1.43,1.43,0,0,1,2.023,0h0a1.43,1.43,0,0,1,0,2.023Z"/><path class="a" d="M12,23.248H3A2.25,2.25,0,0,1,.748,21V3A2.25,2.25,0,0,1,3,.748H17.377a1.5,1.5,0,0,1,1.061.439l4.371,4.372a1.5,1.5,0,0,1,.439,1.06v6.129"/><path class="a" d="M17.248.748v4.5a1.5,1.5,0,0,0,1.5,1.5h4.5"/></svg>