<svg xmlns="http://www.w3.org/2000/svg" viewBox="0 0 24 24"><defs><style>.a{fill:none;stroke:currentColor;stroke-linecap:round;stroke-linejoin:round;stroke-width:1.5px;}</style></defs><title>office-tape-1</title><path class="a" d="M8.466,13.1a6,6,0,1,1,11.747-2.267"/><path class="a" d="M11.43,12.524A3,3,0,1,1,17.248,11.4"/><line class="a" x1="0.75" y1="6.835" x2="8.699" y2="9.22"/><path class="a" d="M22.764,17.605a1.957,1.957,0,0,1-1.817,1.23H4.234a1.956,1.956,0,0,1-1.9-1.482L.869,11.484A3.964,3.964,0,0,1,.75,10.52a.489.489,0,0,1,.489-.489H1.98a2.932,2.932,0,0,1,2.075.86l1.462,1.462a2.937,2.937,0,0,0,2.633.806l11.9-2.3a1.957,1.957,0,0,1,2.246,1.359l.818,2.728a3.307,3.307,0,0,1,.141.958,2.539,2.539,0,0,1-.182.943Z"/></svg>