<svg xmlns="http://www.w3.org/2000/svg" viewBox="0 0 24 24"><defs><style>.a{fill:none;stroke:currentColor;stroke-linecap:round;stroke-linejoin:round;stroke-width:1.5px;}</style></defs><title>office-file-pps-1</title><path class="a" d="M5.25,23.248h-3a1.5,1.5,0,0,1-1.5-1.5V2.248a1.5,1.5,0,0,1,1.5-1.5H12.879a1.5,1.5,0,0,1,1.061.439l5.871,5.872a1.5,1.5,0,0,1,.439,1.06v4.629"/><path class="a" d="M20.25,8.248h-6a1.5,1.5,0,0,1-1.5-1.5v-6"/><line class="a" x1="8.25" y1="23.248" x2="8.25" y2="15.748"/><path class="a" d="M8.25,15.748H9a2.25,2.25,0,0,1,0,4.5H8.25"/><line class="a" x1="14.25" y1="23.248" x2="14.25" y2="15.748"/><path class="a" d="M14.25,15.748H15a2.25,2.25,0,0,1,0,4.5h-.75"/><path class="a" d="M23.25,15.748h-1.5a1.5,1.5,0,0,0-1.5,1.5c0,2.25,3,2.25,3,4.5a1.5,1.5,0,0,1-1.5,1.5h-1.5"/></svg>