<svg xmlns="http://www.w3.org/2000/svg" viewBox="0 0 24 24"><defs><style>.a{fill:none;stroke:currentColor;stroke-linecap:round;stroke-linejoin:round;stroke-width:1.5px;}</style></defs><title>office-eraser</title><line class="a" x1="11.25" y1="19.498" x2="21" y2="19.498"/><path class="a" d="M21,22.27a1.034,1.034,0,0,1-1.083.978H12.333a1.034,1.034,0,0,1-1.083-.978V1.727A1.035,1.035,0,0,1,12.333.748h7.678A.952.952,0,0,1,21,1.727Z"/><line class="a" x1="14.25" y1="3.54" x2="14.25" y2="4.498"/><line class="a" x1="18" y1="3.54" x2="18" y2="4.498"/><line class="a" x1="11.25" y1="7.498" x2="21" y2="7.498"/><line class="a" x1="14.25" y1="10.498" x2="14.25" y2="16.498"/><line class="a" x1="18" y1="10.498" x2="18" y2="16.498"/><path class="a" d="M11.25,6.018c-3.507,2.551-7.185,5.668-8.1,10.111a5.336,5.336,0,0,0,0,2.525c.972,3.424,4.818,2.737,8.1,2.681"/></svg>