<svg xmlns="http://www.w3.org/2000/svg" viewBox="0 0 24 24"><defs><style>.a{fill:none;stroke:currentColor;stroke-linecap:round;stroke-linejoin:round;stroke-width:1.5px;}</style></defs><title>office-chair</title><path class="a" d="M18,14.25a1.5,1.5,0,0,1-1.5,1.5h-9a1.5,1.5,0,0,1,0-3h9A1.5,1.5,0,0,1,18,14.25Z"/><line class="a" x1="12" y1="15.75" x2="12" y2="23.25"/><path class="a" d="M5.463,23.25A6.658,6.658,0,0,1,12,18.75a6.66,6.66,0,0,1,6.537,4.5"/><path class="a" d="M3,9.75v3a3,3,0,0,0,3,3H7.5"/><line class="a" x1="1.5" y1="9.75" x2="4.5" y2="9.75"/><path class="a" d="M21,9.75v3a3,3,0,0,1-3,3H16.5"/><line class="a" x1="22.5" y1="9.75" x2="19.5" y2="9.75"/><path class="a" d="M16.5,5.25a4.5,4.5,0,0,0-9,0v7.5h9Z"/></svg>