<svg xmlns="http://www.w3.org/2000/svg" viewBox="0 0 24 24"><defs><style>.a{fill:none;stroke:currentColor;stroke-linecap:round;stroke-linejoin:round;stroke-width:1.5px;}</style></defs><title>office-desk</title><rect class="a" x="2.991" y="0.75" width="12" height="9" rx="1.5" ry="1.5"/><path class="a" d="M21.949,15.335a.751.751,0,0,1-.671.415H2.705a.751.751,0,0,1-.671-.415l-.75-1.5a.75.75,0,0,1,.671-1.085H22.028a.75.75,0,0,1,.671,1.085Z"/><polyline class="a" points="5.241 15.75 2.991 23.25 4.491 23.25 8.991 15.75"/><polyline class="a" points="18.741 15.75 20.991 23.25 19.491 23.25 14.991 15.75"/><line class="a" x1="2.991" y1="6.75" x2="14.991" y2="6.75"/><line class="a" x1="7.491" y1="9.75" x2="6.741" y2="12.75"/><line class="a" x1="10.491" y1="9.75" x2="11.241" y2="12.75"/><rect class="a" x="17.991" y="9.75" width="3" height="3"/><line class="a" x1="19.491" y1="9.75" x2="20.991" y2="6"/></svg>