<svg xmlns="http://www.w3.org/2000/svg" viewBox="0 0 24 24"><defs><style>.a{fill:none;stroke:currentColor;stroke-linecap:round;stroke-linejoin:round;stroke-width:1.5px;}</style></defs><title>office-work-wireless</title><circle class="a" cx="4.5" cy="7.5" r="2.25"/><path class="a" d="M9.751,23.25a1.5,1.5,0,0,1-1.343-.829l-.671-1.342A1.491,1.491,0,0,0,6.4,20.25H4.5A1.5,1.5,0,0,1,3,18.75v-6A1.5,1.5,0,0,1,5.332,11.5l1.116.744a3,3,0,0,0,1.664.5H9.75a1.5,1.5,0,0,1,0,3H8.112A5.985,5.985,0,0,1,6,15.366V17.25h.4a4.477,4.477,0,0,1,4.025,2.487l.671,1.342A1.5,1.5,0,0,1,9.751,23.25Z"/><line class="a" x1="4.5" y1="20.25" x2="1.5" y2="20.25"/><line class="a" x1="9.75" y1="15.75" x2="20.25" y2="15.75"/><line class="a" x1="15" y1="15.75" x2="15" y2="23.25"/><polyline class="a" points="14.25 12.75 20.25 12.75 22.5 7.5"/><path class="a" d="M14.25,7.125a.375.375,0,1,1-.375.375.375.375,0,0,1,.375-.375"/><path class="a" d="M11.6,4.848a3.752,3.752,0,0,1,5.3,0"/><path class="a" d="M9.477,2.727a6.75,6.75,0,0,1,9.546,0"/><line class="a" x1="3.75" y1="23.25" x2="3.75" y2="20.25"/></svg>