<svg xmlns="http://www.w3.org/2000/svg" viewBox="0 0 24 24"><defs><style>.a{fill:none;stroke:currentColor;stroke-linecap:round;stroke-linejoin:round;stroke-width:1.5px;}</style></defs><title>office-file-ppt</title><line class="a" x1="4.503" y1="19.498" x2="4.503" y2="11.998"/><path class="a" d="M4.5,12h.75a2.25,2.25,0,0,1,0,4.5H4.5"/><line class="a" x1="10.503" y1="19.498" x2="10.503" y2="11.998"/><path class="a" d="M10.5,12h.75a2.25,2.25,0,0,1,0,4.5H10.5"/><line class="a" x1="18.003" y1="19.498" x2="18.003" y2="11.998"/><line class="a" x1="16.503" y1="11.998" x2="19.503" y2="11.998"/><path class="a" d="M22.814,5.559a1.5,1.5,0,0,1,.439,1.06V21A2.25,2.25,0,0,1,21,23.248H3A2.25,2.25,0,0,1,.753,21V3A2.25,2.25,0,0,1,3,.748H17.382a1.5,1.5,0,0,1,1.06.439Z"/><path class="a" d="M17.253.748v4.5a1.5,1.5,0,0,0,1.5,1.5h4.5"/></svg>