<svg xmlns="http://www.w3.org/2000/svg" viewBox="0 0 24 24"><defs><style>.a{fill:none;stroke:currentColor;stroke-linecap:round;stroke-linejoin:round;stroke-width:1.5px;}</style></defs><title>office-file-graph</title><path class="a" d="M22.454,21.748a1.5,1.5,0,0,1-1.5,1.5H3a1.5,1.5,0,0,1-1.5-1.5V2.248A1.5,1.5,0,0,1,3,.748H18a1.5,1.5,0,0,1,1.047.426L22,4.057a1.5,1.5,0,0,1,.452,1.074Z"/><circle class="a" cx="10.454" cy="9.748" r="5.25"/><polyline class="a" points="5.205 9.748 10.435 9.748 11.581 14.877"/><line class="a" x1="10.435" y1="9.748" x2="14.167" y2="6.036"/><line class="a" x1="18.704" y1="16.498" x2="15.704" y2="16.498"/><line class="a" x1="18.704" y1="19.498" x2="11.954" y2="19.498"/></svg>