<svg xmlns="http://www.w3.org/2000/svg" viewBox="0 0 24 24"><defs><style>.a{fill:none;stroke:currentColor;stroke-linecap:round;stroke-linejoin:round;stroke-width:1.5px;}</style></defs><title>office-file-module-edit-alternate</title><rect class="a" x="5.251" y="12.749" width="4.5" height="4.5" rx="1" ry="1"/><rect class="a" x="8.251" y="5.249" width="6" height="4.5" rx="1" ry="1"/><path class="a" d="M14.251,17.249a1.5,1.5,0,0,1-1.5-1.5v-1.5a1.5,1.5,0,0,1,1.5-1.5h1.5a1.5,1.5,0,0,1,1.5,1.5"/><path class="a" d="M18.28,22.743l-2.529.506.506-2.529,4.552-4.552a1.43,1.43,0,0,1,2.023,0h0a1.43,1.43,0,0,1,0,2.023Z"/><path class="a" d="M12.751,23.249H2.251a1.5,1.5,0,0,1-1.5-1.5V2.249a1.5,1.5,0,0,1,1.5-1.5h15a1.5,1.5,0,0,1,1.048.426l3,2.883a1.5,1.5,0,0,1,.452,1.074v7.617"/></svg>