<svg xmlns="http://www.w3.org/2000/svg" viewBox="0 0 24 24"><defs><style>.a{fill:none;stroke:currentColor;stroke-linecap:round;stroke-linejoin:round;stroke-width:1.5px;}</style></defs><title>office-file-sheet</title><path class="a" d="M22.5,21.748a1.5,1.5,0,0,1-1.5,1.5H3a1.5,1.5,0,0,1-1.5-1.5V2.248A1.5,1.5,0,0,1,3,.748H18a1.5,1.5,0,0,1,1.047.426l3,2.883A1.5,1.5,0,0,1,22.5,5.131Z"/><line class="a" x1="9.749" y1="10.498" x2="9.749" y2="19.498"/><line class="a" x1="5.249" y1="14.998" x2="18.749" y2="14.998"/><rect class="a" x="5.249" y="7.498" width="13.5" height="12" rx="0.5" ry="0.5"/><line class="a" x1="5.249" y1="10.498" x2="18.749" y2="10.498"/></svg>