<svg xmlns="http://www.w3.org/2000/svg" viewBox="0 0 24 24"><defs><style>.a{fill:none;stroke:currentColor;stroke-linecap:round;stroke-linejoin:round;stroke-width:1.5px;}</style></defs><title>office-desk-lamp</title><path class="a" d="M22.468,16.5H1.562a.751.751,0,0,1-.681-1.065L4.89,6.75H19.14l4.009,8.685A.751.751,0,0,1,22.468,16.5Z"/><polyline class="a" points="3.061 23.25 5.311 16.5 7.561 23.25"/><polyline class="a" points="16.561 23.25 18.811 16.5 21.061 23.25"/><polyline class="a" points="16.14 13.5 14.64 9.75 9.39 9.75 7.89 13.5"/><path class="a" d="M19.14,6.75v-3a3,3,0,0,0-3-3H10.561a1.5,1.5,0,0,0-1.5,1.5v1.5h6v-3"/></svg>