<svg xmlns="http://www.w3.org/2000/svg" viewBox="0 0 24 24"><defs><style>.a{fill:none;stroke:currentColor;stroke-linecap:round;stroke-linejoin:round;stroke-width:1.5px;}</style></defs><title>office-printer</title><path class="a" d="M.75,9.748V7.5A1.5,1.5,0,0,1,2.25,6h19.5a1.5,1.5,0,0,1,1.5,1.5v.75a1.5,1.5,0,0,1-1.5,1.5Z"/><line class="a" x1="3.75" y1="5.998" x2="21.294" y2="0.748"/><path class="a" d="M.75,9.748V22.27a.978.978,0,0,0,.978.978H22.272a.978.978,0,0,0,.978-.978V15.227a.978.978,0,0,0-.978-.979H19.337l-1.957,1.5H13.5v-6"/><line class="a" x1="0.75" y1="20.248" x2="23.25" y2="20.248"/><line class="a" x1="13.5" y1="15.748" x2="11.511" y2="15.748"/><line class="a" x1="3.75" y1="12.748" x2="3.75" y2="14.998"/><line class="a" x1="6.75" y1="12.748" x2="6.75" y2="14.998"/></svg>