<svg xmlns="http://www.w3.org/2000/svg" viewBox="0 0 24 24"><defs><style>.a{fill:none;stroke:currentColor;stroke-linecap:round;stroke-linejoin:round;stroke-width:1.5px;}</style></defs><title>office-file-text</title><path class="a" d="M22.5,21.748a1.5,1.5,0,0,1-1.5,1.5H3a1.5,1.5,0,0,1-1.5-1.5V2.248A1.5,1.5,0,0,1,3,.748H18a1.5,1.5,0,0,1,1.047.427l3,2.882A1.5,1.5,0,0,1,22.5,5.131Z"/><line class="a" x1="9" y1="11.248" x2="9" y2="5.248"/><polyline class="a" points="6 6.748 6 5.248 12 5.248 12 6.748"/><line class="a" x1="15.75" y1="9.748" x2="18" y2="9.748"/><line class="a" x1="15.75" y1="5.248" x2="18" y2="5.248"/><line class="a" x1="6" y1="14.248" x2="18" y2="14.248"/><line class="a" x1="6" y1="18.748" x2="18" y2="18.748"/><line class="a" x1="7.5" y1="11.248" x2="10.5" y2="11.248"/></svg>