<svg xmlns="http://www.w3.org/2000/svg" viewBox="0 0 24 24"><defs><style>.a{fill:none;stroke:currentColor;stroke-linecap:round;stroke-linejoin:round;stroke-width:1.5px;}</style></defs><title>office-hole-puncher</title><path class="a" d="M4.132,4.824l-1.01,7.068a.75.75,0,0,0,.743.856H7.588a.749.749,0,0,0,.744-.657l.5-4.029a1.5,1.5,0,0,1,1.488-1.314h3.352a1.5,1.5,0,0,1,1.488,1.314l.5,4.029a.749.749,0,0,0,.744.657h3.723a.75.75,0,0,0,.743-.856l-1.01-7.068A3,3,0,0,0,16.9,2.248H7.1A3,3,0,0,0,4.132,4.824Z"/><line class="a" x1="5.25" y1="12.748" x2="5.25" y2="15.748"/><line class="a" x1="18.75" y1="12.748" x2="18.75" y2="15.748"/><polyline class="a" points="22.5 15.748 23.25 18.748 0.75 18.748 1.5 15.748"/><path class="a" d="M23.25,18.748H.75v1.5a1.5,1.5,0,0,0,1.5,1.5h19.5a1.5,1.5,0,0,0,1.5-1.5Z"/></svg>