<svg xmlns="http://www.w3.org/2000/svg" viewBox="0 0 24 24"><defs><style>.a{fill:none;stroke:currentColor;stroke-linecap:round;stroke-linejoin:round;stroke-width:1.5px;}</style></defs><title>office-stapler-1</title><path class="a" d="M2.7,14.846,13.962,1.8a3,3,0,0,1,4.23-.326l.524.449a1.5,1.5,0,0,1,.163,2.115L7.5,17.226"/><path class="a" d="M7.5,17.248h0a3,3,0,0,0-3-3h0a3,3,0,0,0-3,3v1.5a1.5,1.5,0,0,0,1.5,1.5H21.749a.75.75,0,0,0,.6-1.2l-.45-.6a3,3,0,0,0-2.4-1.2Z"/><polyline class="a" points="18.384 4.612 20.662 6.564 14.787 13.421 12.51 11.47"/><path class="a" d="M21.75,20.248l-.608,2.432a.749.749,0,0,1-.728.568H4.336a.749.749,0,0,1-.728-.568L3,20.248"/></svg>