<svg xmlns="http://www.w3.org/2000/svg" viewBox="0 0 24 24"><defs><style>.a{fill:none;stroke:currentColor;stroke-linecap:round;stroke-linejoin:round;stroke-width:1.5px;}</style></defs><title>office-business-card</title><path class="a" d="M11.25,5.623H22.272a.977.977,0,0,1,.978.971V21.153a.977.977,0,0,1-.978.97H1.728a.977.977,0,0,1-.978-.97V6.594a.977.977,0,0,1,.978-.971H5.25"/><line class="a" x1="12" y1="12.373" x2="20.25" y2="12.373"/><line class="a" x1="6.75" y1="16.873" x2="20.25" y2="16.873"/><path class="a" d="M3.75,5.623v-1.5A2.25,2.25,0,0,1,6,1.873H6a2.25,2.25,0,0,1,2.25,2.25v6.75a1.5,1.5,0,0,1-1.5,1.5h0a1.5,1.5,0,0,1-1.5-1.5V8.623"/></svg>