<svg xmlns="http://www.w3.org/2000/svg" viewBox="0 0 24 24"><defs><style>.a{fill:none;stroke:currentColor;stroke-linecap:round;stroke-linejoin:round;stroke-width:1.5px;}</style></defs><title>office-shredder</title><path class="a" d="M21,11.248H3v10.5a1.5,1.5,0,0,0,1.5,1.5h15a1.5,1.5,0,0,0,1.5-1.5Z"/><path class="a" d="M7.5,6H5.631A1.5,1.5,0,0,0,4.189,7.086L3,11.248H21L19.811,7.086A1.5,1.5,0,0,0,18.369,6H16.5"/><path class="a" d="M16.5,8.248h-9V1.5a.75.75,0,0,1,.75-.75h7.5a.75.75,0,0,1,.75.75Z"/><line class="a" x1="12" y1="11.248" x2="12" y2="19.498"/><path class="a" d="M9,11.248v1.408a8.483,8.483,0,0,1-1.413,5.417"/><path class="a" d="M15,11.248v1.408a8.483,8.483,0,0,0,1.413,5.417"/></svg>