<svg xmlns="http://www.w3.org/2000/svg" viewBox="0 0 24 24"><defs><style>.a{fill:none;stroke:currentColor;stroke-linecap:round;stroke-linejoin:round;stroke-width:1.5px;}</style></defs><title>office-table-cabinets</title><polyline class="a" points="13.5 13.5 23.25 13.5 23.25 14.445"/><path class="a" d="M16.5,22.275a.973.973,0,0,0,.964.975h4.822a.973.973,0,0,0,.964-.975V13.5H16.5Z"/><path class="a" d="M10.5,11.511v4.532A1.962,1.962,0,0,1,8.544,18H5.25"/><path class="a" d="M.75,23.25V14.478a.981.981,0,0,1,.978-.978H7.109"/><path class="a" d="M23.25,13.467V1.728A.974.974,0,0,0,22.286.75H16.5V13.467"/><line class="a" x1="9" y1="0.75" x2="9" y2="8.25"/><line class="a" x1="7.5" y1="18" x2="7.5" y2="23.25"/><line class="a" x1="6" y1="23.25" x2="9" y2="23.25"/><rect class="a" x="0.75" y="0.75" width="15.75" height="7.5"/><path class="a" d="M4.125,4.5a.375.375,0,1,1-.375.375A.375.375,0,0,1,4.125,4.5"/><path class="a" d="M12.375,4.5A.375.375,0,1,1,12,4.875a.375.375,0,0,1,.375-.375"/><path class="a" d="M19.875,9.75a.375.375,0,1,1-.375.375.375.375,0,0,1,.375-.375"/><path class="a" d="M19.875,19.5a.375.375,0,1,1-.375.375.375.375,0,0,1,.375-.375"/></svg>