<svg xmlns="http://www.w3.org/2000/svg" viewBox="0 0 24 24"><defs><style>.a{fill:none;stroke:currentColor;stroke-linecap:round;stroke-linejoin:round;stroke-width:1.5px;}</style></defs><title>old-people-man-1</title><path class="a" d="M2.25,23.25a9.75,9.75,0,0,1,19.5,0"/><polyline class="a" points="14.25 23.25 12 13.5 9.75 23.25"/><path class="a" d="M16.379,8.9a3.75,3.75,0,1,0,.871-7.4,3.735,3.735,0,0,0-1.858.493S13.333,6,17.25,6"/><path class="a" d="M7.621,8.9A3.75,3.75,0,1,1,6.75,1.5a3.735,3.735,0,0,1,1.858.493S10.667,6,6.75,6"/><path class="a" d="M17.25,6A5.25,5.25,0,0,1,6.75,6"/><path class="a" d="M15.392,1.993h0a5.25,5.25,0,0,0-6.784,0h0"/></svg>