<svg xmlns="http://www.w3.org/2000/svg" viewBox="0 0 24 24"><defs><style>.a{fill:none;stroke:currentColor;stroke-linecap:round;stroke-linejoin:round;stroke-width:1.5px;}</style></defs><title>old-people-woman-2</title><path class="a" d="M6.727,8.808A3.349,3.349,0,0,0,8.6,9.375,3.744,3.744,0,0,0,11.973,6.75a3.744,3.744,0,0,0,3.375,2.625,3.346,3.346,0,0,0,1.871-.567"/><circle class="a" cx="11.973" cy="9" r="5.25"/><polyline class="a" points="8.223 17.189 11.973 21 15.723 17.189"/><path class="a" d="M21.783,23.25a10.5,10.5,0,0,0-19.619,0"/><path class="a" d="M11.973,3.75a5.221,5.221,0,0,1,2.875.857,3,3,0,1,0-5.75,0A5.223,5.223,0,0,1,11.973,3.75Z"/><line class="a" x1="9.098" y1="4.607" x2="5.223" y2="2.25"/><line class="a" x1="14.848" y1="4.607" x2="18.723" y2="2.25"/></svg>