<svg xmlns="http://www.w3.org/2000/svg" viewBox="0 0 24 24"><defs><style>.a{fill:none;stroke:currentColor;stroke-linecap:round;stroke-linejoin:round;stroke-width:1.5px;}</style></defs><title>old-people-man-2</title><path class="a" d="M6.913,9.575a3.72,3.72,0,1,1,.979-6.847S9.933,6.7,6.049,6.7"/><path class="a" d="M17.087,9.575a3.72,3.72,0,1,0-.979-6.847S14.067,6.7,17.951,6.7"/><path class="a" d="M16.858,8.942a5.3,5.3,0,1,1-9.716,0"/><path class="a" d="M16.161,2.685a5.441,5.441,0,0,0-8.322,0"/><path class="a" d="M17.308,6.659c0,1.51-1.194,4.688-2.221,5.25-.928.508-1.721-1.488-3.087-1.488s-2.159,2-3.087,1.488c-1.027-.562-2.232-3.738-2.232-5.248"/><path class="a" d="M21.671,23.25a12.242,12.242,0,0,0-19.342,0"/></svg>