<svg id="Regular" xmlns="http://www.w3.org/2000/svg" viewBox="0 0 24 24"><defs><style>.cls-1{fill:none;stroke:currentColor;stroke-linecap:round;stroke-linejoin:round;stroke-width:1.5px;}</style></defs><title>olympics-torch</title><circle class="cls-1" cx="10.625" cy="7.125" r="2.625"/><path class="cls-1" d="M23,6a2.25,2.25,0,0,1-4.5,0A1.469,1.469,0,0,0,17,4.5a2.4,2.4,0,0,1-2.25-2.25h4.5A3.75,3.75,0,0,1,23,6Z"/><path class="cls-1" d="M13.25.75s.75,1.5,1.5,1.5"/><line class="cls-1" x1="20.121" y1="13.04" x2="19.859" y2="15.661"/><path class="cls-1" d="M16.981,23.25a1.476,1.476,0,0,0-.058-.473l-.275-.829A4.524,4.524,0,0,0,13.8,19.1l-1.926-.642.468-4.211H16.25a1.482,1.482,0,0,0,.475-.078l4.5-1.5a1.5,1.5,0,0,0-.95-2.844L16.007,11.25H6.7a4.527,4.527,0,0,0-3.86,2.184L1.464,15.728a1.5,1.5,0,1,0,2.572,1.544l1.376-2.293A1.509,1.509,0,0,1,6.7,14.25H9.324l-.5,4.484L6.9,20.344a1.5,1.5,0,0,1-2.02-.09l-.313-.313a1.5,1.5,0,1,0-2.124,2.118l.314.315a4.5,4.5,0,0,0,1.254.876"/><path class="cls-1" d="M7.847,23.25a4.526,4.526,0,0,0,.968-.6l1.754-1.461,2.283.76a1.513,1.513,0,0,1,.95.948l.117.354"/></svg>