<svg id="Regular" xmlns="http://www.w3.org/2000/svg" viewBox="0 0 24 24"><defs><style>.cls-1{fill:none;stroke:#000;stroke-linecap:round;stroke-linejoin:round;stroke-width:1.5px;}</style></defs><title>online-reading-scribd-1</title><path class="cls-1" d="M19.29,3.3A11.76,11.76,0,0,0,12,.75C7,.75,4.17,3.2,4.17,6.62A4.78,4.78,0,0,0,8.58,11a2.7,2.7,0,0,0,3-2.25C12,6.95,10.29,5.23,8.4,5.23a5.4,5.4,0,0,1,3.42-1.47c2,0,2.46.73,4.71,1.71l-.8,1.39,2.14,1.22,1.85-3.48A1,1,0,0,0,19.29,3.3Z"/><path class="cls-1" d="M4.71,20.7A11.76,11.76,0,0,0,12,23.25c5,0,7.83-2.45,7.83-5.87a4.78,4.78,0,0,0-4.4-4.4,2.7,2.7,0,0,0-3,2.25c-.5,1.82,1.26,3.54,3.15,3.54a5.4,5.4,0,0,1-3.42,1.47c-2,0-2.46-.73-4.71-1.71l.8-1.39L6.13,15.91,4.28,19.39A1,1,0,0,0,4.71,20.7Z"/></svg>