<svg id="Regular" xmlns="http://www.w3.org/2000/svg" viewBox="0 0 24 24"><defs><style>.cls-1{fill:none;stroke:#000;stroke-linecap:round;stroke-linejoin:round;stroke-width:1.5px;}</style></defs><title>online-reading-readernaut</title><path class="cls-1" d="M12,19.58C8.75,15.67.75,15.46.75,15.46v3.23A15.8,15.8,0,0,1,12,23.25h0a15.8,15.8,0,0,1,11.25-4.56V15.45S15.24,15.67,12,19.58Z"/><path class="cls-1" d="M3.17,12a8.83,8.83,0,0,1,17.67,0"/><path class="cls-1" d="M7.22,13.91a5.18,5.18,0,1,1,9.56,0"/><path class="cls-1" d="M23.25,11.48c0,1.08-1.31,2-2.43,2V8.55c1.12,0,2.43.88,2.43,2Z"/><path class="cls-1" d="M.75,11.48c0,1.08,1.32,2,2.45,2V8.55c-1.13,0-2.45.88-2.45,2Z"/><line class="cls-1" x1="20.78" y1="3.68" x2="20.78" y2="8.57"/><circle class="cls-1" cx="20.78" cy="2.22" r="1.47"/></svg>