<svg id="Regular" xmlns="http://www.w3.org/2000/svg" viewBox="0 0 24 24"><defs><style>.cls-1{fill:none;stroke:#000;stroke-linecap:round;stroke-linejoin:round;stroke-width:1.5px;}</style></defs><title>online-reading-scribd</title><circle class="cls-1" cx="19.65" cy="18.46" r="2.5"/><path class="cls-1" d="M16,14.9s0-.09,0-.13C14,9.26,6.14,9.76,6.14,6.25,6.14,4.53,7.88,4,9.6,4a4.48,4.48,0,0,1,2,.37A2.24,2.24,0,0,0,13.8,7.53,2.43,2.43,0,0,0,16.24,5.1c0-1.68-2.9-4.35-6.9-4.35C6,.75,2.8,3,2.8,6.22c0,6.63,9,5.55,9,10.62,0,3.23-4.23,3.69-5.73,1.53a2,2,0,0,0,.65-1.59,2.44,2.44,0,0,0-4.88,0,7.9,7.9,0,0,0,7.9,6.48A6.5,6.5,0,0,0,15,20.8,4.55,4.55,0,0,1,16,14.9Z"/></svg>