<svg xmlns="http://www.w3.org/2000/svg" viewBox="0 0 24 24"><defs><style>.a{fill:none;stroke:currentColor;stroke-linecap:round;stroke-linejoin:round;stroke-width:1.5px;}</style></defs><title>optimization-rocket-graph</title><path class="a" d="M18,8.947a6.368,6.368,0,0,1,.327,9.415,6.648,6.648,0,0,1-9.281,0A6.405,6.405,0,0,1,7.43,15.75"/><path class="a" d="M15.189,6.5l2.067-2.03a.949.949,0,0,1,1.326,0l1.326,1.3a.909.909,0,0,1,0,1.3L15.93,10.98a.952.952,0,0,1-1.17.124"/><polyline class="a" points="19.061 4.94 21.75 2.25 20.25 0.75"/><line class="a" x1="23.25" y1="3.75" x2="21.75" y2="2.25"/><line class="a" x1="5.182" y1="15.75" x2="10.432" y2="15.75"/><line class="a" x1="6" y1="23.25" x2="20.25" y2="23.25"/><line class="a" x1="13.5" y1="20.25" x2="13.5" y2="23.25"/><line class="a" x1="0.75" y1="12.75" x2="9" y2="12.75"/><rect class="a" x="3" y="0.75" width="3" height="12"/><rect class="a" x="9" y="3.75" width="3" height="9"/></svg>