<svg xmlns="http://www.w3.org/2000/svg" viewBox="0 0 24 24"><defs><style>.a{fill:none;stroke:currentColor;stroke-linecap:round;stroke-linejoin:round;stroke-width:1.5px;}</style></defs><title>optimization-plane</title><line class="a" x1="2.456" y1="14.275" x2="21.544" y2="14.275"/><line class="a" x1="4.816" y1="18.025" x2="6.355" y2="18.025"/><line class="a" x1="8.921" y1="18.025" x2="10.46" y2="18.025"/><line class="a" x1="13.026" y1="18.025" x2="14.566" y2="18.025"/><line class="a" x1="17.132" y1="18.025" x2="18.671" y2="18.025"/><path class="a" d="M16.371,1.641a1.779,1.779,0,0,1,1.378,1.716,1.76,1.76,0,0,1-.822,1.526l-10.143,6.3a.624.624,0,0,1-.688-.02L2.378,8.551a.343.343,0,0,1,.007-.541l1.56-1.376a.343.343,0,0,1,.332-.057L6.232,7.742l2.48-1.73L4.012,3.1a.428.428,0,0,1,.02-.667l1.149-.851a.428.428,0,0,1,.4-.058l6.477,2.412,3-2.045A1.663,1.663,0,0,1,16.371,1.641Z"/><path class="a" d="M13.5,10.525h5.854a1.547,1.547,0,0,1,1.511,1.136l2.338,9a1.514,1.514,0,0,1-1.512,1.864H2.309A1.514,1.514,0,0,1,.8,20.661l2.046-7.878"/></svg>