<svg xmlns="http://www.w3.org/2000/svg" viewBox="0 0 24 24"><defs><style>.a{fill:none;stroke:currentColor;stroke-linecap:round;stroke-linejoin:round;stroke-width:1.5px;}</style></defs><title>optimization-rocket-growth</title><path class="a" d="M17.907,8.947a6.367,6.367,0,0,1,.327,9.415,6.648,6.648,0,0,1-9.281,0A6.405,6.405,0,0,1,7.336,15.75"/><path class="a" d="M15.837,10.98a.949.949,0,0,1-1.326,0l-1.326-1.3a.909.909,0,0,1,0-1.3L17.162,4.47a.949.949,0,0,1,1.326,0l1.326,1.3a.909.909,0,0,1,0,1.3Z"/><polyline class="a" points="18.968 4.94 21.656 2.25 20.156 0.75"/><line class="a" x1="23.156" y1="3.75" x2="21.656" y2="2.25"/><line class="a" x1="5.089" y1="15.75" x2="10.339" y2="15.75"/><line class="a" x1="5.906" y1="23.25" x2="20.156" y2="23.25"/><line class="a" x1="13.406" y1="20.25" x2="13.406" y2="23.25"/><polyline class="a" points="10.406 0.75 13.406 0.75 13.406 3.75"/><path class="a" d="M13.406.75,7.272,6.774a.951.951,0,0,1-1.326,0L4.694,5.544a.949.949,0,0,0-1.326,0L.75,8.115"/></svg>