<svg xmlns="http://www.w3.org/2000/svg" viewBox="0 0 24 24"><defs><style>.a{fill:none;stroke:currentColor;stroke-linecap:round;stroke-linejoin:round;stroke-width:1.5px;}</style></defs><title>optimization-graph-line</title><path class="a" d="M10.546,2.437a1.957,1.957,0,0,0,2.908,0l.94-1.041a1.959,1.959,0,0,1,3.411,1.413l-.072,1.4A1.96,1.96,0,0,0,19.79,6.266l1.4-.071A1.959,1.959,0,0,1,22.6,9.605l-1.042.941a1.959,1.959,0,0,0,0,2.908l1.042.94a1.959,1.959,0,0,1-1.413,3.411l-1.4-.072a1.96,1.96,0,0,0-2.057,2.056l.072,1.4A1.959,1.959,0,0,1,14.394,22.6l-.94-1.041a1.959,1.959,0,0,0-2.908,0L9.606,22.6A1.959,1.959,0,0,1,6.2,21.191l.072-1.4A1.958,1.958,0,0,0,4.21,17.733l-1.4.072A1.959,1.959,0,0,1,1.4,14.394l1.042-.94a1.959,1.959,0,0,0,0-2.908L1.4,9.605A1.959,1.959,0,0,1,2.809,6.2l1.4.071A1.958,1.958,0,0,0,6.267,4.21L6.2,2.809A1.959,1.959,0,0,1,9.606,1.4Z"/><polyline class="a" points="6 14.85 7.516 12.15 10.653 14.432 13.214 10.522 15.598 12.75 18 9"/></svg>