<svg xmlns="http://www.w3.org/2000/svg" viewBox="0 0 24 24"><defs><style>.a{fill:none;stroke:currentColor;stroke-linecap:round;stroke-linejoin:round;stroke-width:1.5px;}</style></defs><title>optimization-timer-1</title><path class="a" d="M21,20.25h.75a1.5,1.5,0,0,0,1.5-1.5V2.365A1.62,1.62,0,0,0,21.635.75H2.357A1.612,1.612,0,0,0,.75,2.357V18.634A1.62,1.62,0,0,0,2.365,20.25H3"/><line class="a" x1="0.75" y1="5.25" x2="23.25" y2="5.25"/><circle class="a" cx="12" cy="17.25" r="6"/><line class="a" x1="12" y1="17.25" x2="14.081" y2="15"/><line class="a" x1="12" y1="11.25" x2="12" y2="8.25"/><line class="a" x1="10.5" y1="8.25" x2="13.5" y2="8.25"/><line class="a" x1="15.85" y1="12.583" x2="17.183" y2="11.25"/><line class="a" x1="7.85" y1="12.583" x2="6.517" y2="11.25"/></svg>