<svg id="Regular" xmlns="http://www.w3.org/2000/svg" viewBox="0 0 24 24"><defs><style>.cls-1{fill:none;stroke:currentColor;stroke-linecap:round;stroke-linejoin:round;stroke-width:1.5px;}</style></defs><title>organic-flask-1</title><path class="cls-1" d="M14.578,20.754s1.22,2.495,3.271,2.308c4.158-.38,3.88-5.907,5.4-7.859a9.1,9.1,0,0,0-8.265.075C12.83,16.5,12.677,18.548,14.578,20.754Z"/><path class="cls-1" d="M17.52,18.219s-2.7.335-4.623,5.031"/><path class="cls-1" d="M16.938,11.245A8.268,8.268,0,0,0,11.25,5.56V.75H6.75V5.56A8.252,8.252,0,0,0,9,21.75"/><line class="cls-1" x1="4.5" y1="0.75" x2="14.25" y2="0.75"/><path class="cls-1" d="M11.625,12a.375.375,0,0,1,.375.375"/><path class="cls-1" d="M11.25,12.375A.375.375,0,0,1,11.625,12"/><path class="cls-1" d="M11.625,12.75a.375.375,0,0,1-.375-.375"/><path class="cls-1" d="M12,12.375a.375.375,0,0,1-.375.375"/><path class="cls-1" d="M6.375,15a.375.375,0,0,1,.375.375"/><path class="cls-1" d="M6,15.375A.375.375,0,0,1,6.375,15"/><path class="cls-1" d="M6.375,15.75A.375.375,0,0,1,6,15.375"/><path class="cls-1" d="M6.75,15.375a.375.375,0,0,1-.375.375"/><path class="cls-1" d="M7.125,9.75a.375.375,0,0,1,.375.375"/><path class="cls-1" d="M6.75,10.125a.375.375,0,0,1,.375-.375"/><path class="cls-1" d="M7.125,10.5a.375.375,0,0,1-.375-.375"/><path class="cls-1" d="M7.5,10.125a.375.375,0,0,1-.375.375"/></svg>