<svg id="Regular" xmlns="http://www.w3.org/2000/svg" viewBox="0 0 24 24"><defs><style>.cls-1{fill:none;stroke:currentColor;stroke-linecap:round;stroke-linejoin:round;stroke-width:1.5px;}</style></defs><title>organic-flask</title><path class="cls-1" d="M12.932,17s1.22,2.495,3.27,2.307c4.158-.38,3.88-5.907,5.4-7.859a9.106,9.106,0,0,0-8.265.075C11.183,12.744,11.031,14.8,12.932,17Z"/><path class="cls-1" d="M15.873,14.469s-2.7.334-4.623,5.03"/><path class="cls-1" d="M21.747,18.86l1.3,2.129A1.5,1.5,0,0,1,21.75,23.25H2.25A1.5,1.5,0,0,1,.957,20.989L8.25,9V.75"/><line class="cls-1" x1="15.75" y1="0.75" x2="15.75" y2="7.5"/><line class="cls-1" x1="6" y1="0.75" x2="18" y2="0.75"/><line class="cls-1" x1="15.75" y1="3.75" x2="13.5" y2="3.75"/><line class="cls-1" x1="15.75" y1="6.75" x2="13.5" y2="6.75"/></svg>