<svg id="Regular" xmlns="http://www.w3.org/2000/svg" viewBox="0 0 24 24"><defs><style>.cls-1{fill:none;stroke:currentColor;stroke-linecap:round;stroke-linejoin:round;stroke-width:1.5px;}</style></defs><title>organic-sun-growth</title><circle class="cls-1" cx="15" cy="8.25" r="3"/><line class="cls-1" x1="15" y1="2.25" x2="15" y2="0.75"/><line class="cls-1" x1="19.243" y1="4.007" x2="20.303" y2="2.947"/><line class="cls-1" x1="21" y1="8.25" x2="22.5" y2="8.25"/><line class="cls-1" x1="19.243" y1="12.493" x2="20.303" y2="13.553"/><line class="cls-1" x1="15" y1="14.25" x2="15" y2="15.75"/><line class="cls-1" x1="10.757" y1="12.493" x2="9.697" y2="13.553"/><line class="cls-1" x1="9" y1="8.25" x2="7.5" y2="8.25"/><line class="cls-1" x1="10.757" y1="4.007" x2="9.697" y2="2.947"/><path class="cls-1" d="M.75,19.5S3,21,3,23.25"/><path class="cls-1" d="M5.25,19.5S3,21,3,23.25"/><path class="cls-1" d="M9.75,19.5S12,21,12,23.25"/><path class="cls-1" d="M14.25,19.5S12,21,12,23.25"/><path class="cls-1" d="M18.75,19.5S21,21,21,23.25"/><path class="cls-1" d="M23.25,19.5S21,21,21,23.25"/><line class="cls-1" x1="23.25" y1="23.25" x2="0.75" y2="23.25"/></svg>