<svg id="Regular" xmlns="http://www.w3.org/2000/svg" viewBox="0 0 24 24"><defs><style>.cls-1{fill:none;stroke:currentColor;stroke-linecap:round;stroke-linejoin:round;stroke-width:1.5px;}</style></defs><title>organic-seedling-growth</title><path class="cls-1" d="M10.941,13.508a2.25,2.25,0,0,1-2.061,4,14.063,14.063,0,0,1-2.835-3.242.75.75,0,0,1,.61-1.185A14.047,14.047,0,0,1,10.941,13.508Z"/><path class="cls-1" d="M11.858,16.636A5.126,5.126,0,0,1,13.5,19.045"/><path class="cls-1" d="M22.252,6.042a.749.749,0,0,1,.986.84c-.426,2.391-1.764,7.207-5.6,6.9A3.534,3.534,0,1,1,18.2,6.735,10.583,10.583,0,0,0,22.252,6.042Z"/><path class="cls-1" d="M13.5,23.25v-7.2a6,6,0,0,1,6-6"/><line class="cls-1" x1="0.75" y1="23.25" x2="10.5" y2="23.25"/><line class="cls-1" x1="16.5" y1="23.25" x2="23.25" y2="23.25"/><line class="cls-1" x1="0.75" y1="14.25" x2="15" y2="0.75"/><polyline class="cls-1" points="10.5 0.75 15 0.75 15 4.5"/></svg>