<svg id="Regular" xmlns="http://www.w3.org/2000/svg" viewBox="0 0 24 24"><defs><style>.cls-1{fill:none;stroke:currentColor;stroke-linecap:round;stroke-linejoin:round;stroke-width:1.5px;}</style></defs><title>organic-plant-grow-1</title><path class="cls-1" d="M.751,23.25a5.511,5.511,0,0,0,4.5-1.5,4.547,4.547,0,0,0,6.75,0,4.547,4.547,0,0,0,6.75,0,5.511,5.511,0,0,0,4.5,1.5"/><path class="cls-1" d="M20.251,7.584A8.282,8.282,0,0,0,12,15.9,8.283,8.283,0,0,0,20.251,7.584Z"/><path class="cls-1" d="M14.171,10.278A9.24,9.24,0,0,0,12.011.75a9.239,9.239,0,0,0-2.148,9.564"/><path class="cls-1" d="M3.751,7.584A8.282,8.282,0,0,1,12,15.9,8.282,8.282,0,0,1,3.751,7.584Z"/><line class="cls-1" x1="12.001" y1="19.5" x2="12.001" y2="15.899"/></svg>