<svg id="Regular" xmlns="http://www.w3.org/2000/svg" viewBox="0 0 24 24"><defs><style>.cls-1{fill:none;stroke:currentColor;stroke-linecap:round;stroke-linejoin:round;stroke-width:1.5px;}</style></defs><title>organic-rain-growth</title><line class="cls-1" x1="15.75" y1="11.25" x2="12" y2="15"/><line class="cls-1" x1="20.25" y1="11.25" x2="18" y2="13.5"/><line class="cls-1" x1="11.25" y1="11.25" x2="9" y2="13.5"/><path class="cls-1" d="M.75,19.5S3,21,3,23.25"/><path class="cls-1" d="M5.25,19.5S3,21,3,23.25"/><path class="cls-1" d="M9.75,19.5S12,21,12,23.25"/><path class="cls-1" d="M14.25,19.5S12,21,12,23.25"/><path class="cls-1" d="M18.75,19.5S21,21,21,23.25"/><path class="cls-1" d="M23.25,19.5S21,21,21,23.25"/><line class="cls-1" x1="23.25" y1="23.25" x2="0.75" y2="23.25"/><path class="cls-1" d="M18,.75a3.75,3.75,0,0,0-3.746,3.577,2.25,2.25,0,1,0-1.5,3.923H18a3.75,3.75,0,0,0,0-7.5Z"/></svg>