<svg id="Regular" xmlns="http://www.w3.org/2000/svg" viewBox="0 0 24 24"><defs><style>.cls-1{fill:none;stroke:currentColor;stroke-linecap:round;stroke-linejoin:round;stroke-width:1.5px;}</style></defs><title>organic-plant</title><path class="cls-1" d="M.85,13.5a11.429,11.429,0,0,1-.1-1.5A11.25,11.25,0,0,1,12,.75"/><path class="cls-1" d="M23.152,13.5a11.417,11.417,0,0,0,.1-1.5A11.25,11.25,0,0,0,12,.75"/><path class="cls-1" d="M20.251,12.046A8.259,8.259,0,0,0,12,20.315,8.26,8.26,0,0,0,20.251,12.046Z"/><path class="cls-1" d="M14.171,14.725a9.152,9.152,0,0,0-2.16-9.475,9.151,9.151,0,0,0-2.148,9.511"/><path class="cls-1" d="M12,20.315a8.26,8.26,0,0,0-8.25-8.269A8.259,8.259,0,0,0,12,20.315Z"/><line class="cls-1" x1="12.001" y1="23.25" x2="12.001" y2="20.315"/><path class="cls-1" d="M22.317,16.492a10.729,10.729,0,0,1-1.41,2.381"/><path class="cls-1" d="M18.738,21.006a10.576,10.576,0,0,1-2.4,1.372"/><path class="cls-1" d="M7.687,22.378a10.5,10.5,0,0,1-2.4-1.372"/><path class="cls-1" d="M3.115,18.873a10.706,10.706,0,0,1-1.41-2.381"/></svg>