<svg id="Regular" xmlns="http://www.w3.org/2000/svg" viewBox="0 0 24 24"><defs><style>.cls-1{fill:none;stroke:currentColor;stroke-linecap:round;stroke-linejoin:round;stroke-width:1.5px;}</style></defs><title>organic-bag-leaf</title><path class="cls-1" d="M8.579,14S9.8,16.5,11.849,16.312c4.158-.38,3.88-5.907,5.4-7.859a9.1,9.1,0,0,0-8.265.075C6.83,9.745,6.677,11.8,8.579,14Z"/><path class="cls-1" d="M11.52,11.469S8.822,11.8,6.9,16.5"/><path class="cls-1" d="M20.25,3.75v16.5l.592.829A1.5,1.5,0,0,1,19.5,23.25H4.5a1.5,1.5,0,0,1-1.342-2.171l.592-.829V3.75l-.592-.829A1.5,1.5,0,0,1,4.5.75h15a1.5,1.5,0,0,1,1.342,2.171Z"/></svg>