<svg id="Regular" xmlns="http://www.w3.org/2000/svg" viewBox="0 0 24 24"><defs><style>.cls-1{fill:none;stroke:currentColor;stroke-linecap:round;stroke-linejoin:round;stroke-width:1.5px;}</style></defs><title>organic-worm</title><path class="cls-1" d="M3.75,23.25a3,3,0,0,1-3-3V18A10.512,10.512,0,0,1,11.25,7.5h1.5a4.481,4.481,0,0,0,4.478-4.047,3,3,0,1,1,5.971.591A10.462,10.462,0,0,1,12.75,13.5h-1.5A4.505,4.505,0,0,0,6.75,18v2.25A3,3,0,0,1,3.75,23.25Z"/><path class="cls-1" d="M.75,18.75a10.916,10.916,0,0,1,3-.4,10.923,10.923,0,0,1,3,.4"/><path class="cls-1" d="M3.8,10.605a10.955,10.955,0,0,1,2.466,1.772,10.792,10.792,0,0,1,1.895,2.351"/><path class="cls-1" d="M12.08,7.5a11.932,11.932,0,0,1,1.144,2.961,10.889,10.889,0,0,1,.293,3.013"/><path class="cls-1" d="M16.567,5.4a11.1,11.1,0,0,1,2.666,1.5,10.773,10.773,0,0,1,2.145,2.115"/></svg>