<svg id="Regular" xmlns="http://www.w3.org/2000/svg" viewBox="0 0 24 24"><defs><style>.cls-1{fill:none;stroke:currentColor;stroke-linecap:round;stroke-linejoin:round;stroke-width:1.5px;}</style></defs><title>organic-plant-root</title><path class="cls-1" d="M22.252.792a.749.749,0,0,1,.986.84c-.426,2.391-1.764,7.207-5.6,6.9A3.534,3.534,0,1,1,18.2,1.485,10.583,10.583,0,0,0,22.252.792Z"/><path class="cls-1" d="M12,23.25V10.8a6,6,0,0,1,6-6"/><path class="cls-1" d="M1.748.792a.749.749,0,0,0-.986.84c.426,2.391,1.764,7.207,5.6,6.9A3.534,3.534,0,1,0,5.8,1.485,10.583,10.583,0,0,1,1.748.792Z"/><path class="cls-1" d="M12,10.8a6,6,0,0,0-6-6"/><line class="cls-1" x1="15" y1="15" x2="23.25" y2="15"/><line class="cls-1" x1="0.75" y1="15" x2="9" y2="15"/><path class="cls-1" d="M12,18h.75a3.75,3.75,0,0,1,3.75,3.75"/><path class="cls-1" d="M12,20.25H10.5a3,3,0,0,0-3,3"/></svg>