<svg id="Regular" xmlns="http://www.w3.org/2000/svg" viewBox="0 0 24 24"><defs><style>.cls-1{fill:none;stroke:#000;stroke-linecap:round;stroke-linejoin:round;stroke-width:1.5px;}</style></defs><title>os-system-blackberry</title><path class="cls-1" d="M4.8,8.07H1.73l.83-3.93H5.51c1.91,0,2.37,1,2.37,1.74C7.89,6.94,7.2,8.07,4.8,8.07Z"/><path class="cls-1" d="M12.65,8.07H9.84l.83-3.93h2.7c1.91,0,2.37,1,2.37,1.74C15.74,6.94,15.06,8.07,12.65,8.07Z"/><path class="cls-1" d="M20.16,11H17.35l.83-3.93h2.7c1.91,0,2.37,1,2.37,1.74C23.25,9.88,22.56,11,20.16,11Z"/><path class="cls-1" d="M19.18,16.91H16.36L17.2,13h2.7c1.91,0,2.37,1,2.37,1.74C22.27,15.78,21.58,16.91,19.18,16.91Z"/><path class="cls-1" d="M3.82,14H.75L1.58,10H4.53c1.91,0,2.37,1,2.37,1.74C6.9,12.83,6.22,14,3.82,14Z"/><path class="cls-1" d="M11.67,14H8.86L9.69,10h2.7c1.91,0,2.37,1,2.37,1.74C14.76,12.83,14.07,14,11.67,14Z"/><path class="cls-1" d="M10.69,19.86H7.87l.83-3.93h2.7c1.91,0,2.37,1,2.37,1.74C13.78,18.72,13.09,19.86,10.69,19.86Z"/></svg>