<svg id="Regular" xmlns="http://www.w3.org/2000/svg" viewBox="0 0 24 24"><defs><style>.cls-1{fill:none;stroke:#000;stroke-linecap:round;stroke-linejoin:round;stroke-width:1.5px;}</style></defs><title>os-system-microsoft</title><path class="cls-1" d="M15,22.17a9.38,9.38,0,0,1-3.83-1.35L13,14.33a6.35,6.35,0,0,0,4.06,1.32A10.53,10.53,0,0,0,20.63,15l-1.8,6.31a10.15,10.15,0,0,1-3.84.9"/><path class="cls-1" d="M8,19.89a6.35,6.35,0,0,0-3.72-1.3,9.48,9.48,0,0,0-3.52.8L2.62,12.9A10.68,10.68,0,0,1,6.33,12a6.71,6.71,0,0,1,3.59,1.24Z"/><path class="cls-1" d="M12.43,3h0l-1.9,6.51A6.32,6.32,0,0,0,6.94,8.27a9.75,9.75,0,0,0-3.63.84L5.15,2.64a9.74,9.74,0,0,1,3.48-.82A6.61,6.61,0,0,1,12.43,3Z"/><path class="cls-1" d="M17.77,11.94a7.21,7.21,0,0,1-4-1.26h0l1.9-6.57a6.46,6.46,0,0,0,4,1.34,9,9,0,0,0,3.63-.83l-1.87,6.45h0a8.39,8.39,0,0,1-3.6.87"/></svg>