<svg id="Regular" xmlns="http://www.w3.org/2000/svg" viewBox="0 0 24 24"><defs><style>.cls-1{fill:none;stroke:#000;stroke-linecap:round;stroke-linejoin:round;stroke-width:1.5px;}</style></defs><title>os-system-apple</title><path class="cls-1" d="M17.36,14a4.45,4.45,0,0,1,2.12-3.74,4.6,4.6,0,0,0-3.59-1.95c-1.53-.15-3,.9-3.76.9s-2-.88-3.24-.86a4.81,4.81,0,0,0-4.07,2.46c-1.73,3-.44,7.46,1.25,9.9.82,1.19,1.81,2.53,3.1,2.48s1.72-.8,3.22-.8,1.93.8,3.24.78,2.19-1.22,3-2.41A10.82,10.82,0,0,0,20,18,4.34,4.34,0,0,1,17.36,14Z"/><path class="cls-1" d="M15.31,4.36A5,5,0,0,0,16.48.77a5,5,0,0,0-3.31,1.7A4.72,4.72,0,0,0,12,6,4.18,4.18,0,0,0,15.31,4.36Z"/></svg>