<svg id="Regular" xmlns="http://www.w3.org/2000/svg" viewBox="0 0 24 24"><defs><style>.cls-1{fill:none;stroke:currentColor;stroke-linecap:round;stroke-linejoin:round;stroke-width:1.5px;}</style></defs><title>otter</title><path class="cls-1" d="M18.258,4.8a10.49,10.49,0,0,1-.507,5.7c-1.5,3-5.25,3-5.25,3"/><path class="cls-1" d="M3.5,18s-.176-6.861,2.25-10.5c2.375-3.563,8.511-4.775,10.964-5.125"/><path class="cls-1" d="M16.032,12.421l.219.329a10.376,10.376,0,0,1,1.5,5.25"/><path class="cls-1" d="M5.751,20.25s-1.5.75-.75,3"/><path class="cls-1" d="M2.751,20.25s-1.5.75-.75,3"/><path class="cls-1" d="M16.251,20.25s1.5.75.75,3"/><path class="cls-1" d="M19.251,20.25s1.5.75.75,3"/><line class="cls-1" x1="7.251" y1="22.5" x2="14.751" y2="22.5"/><ellipse class="cls-1" cx="18.489" cy="2.906" rx="1.637" ry="2.136" transform="translate(1.024 9.634) rotate(-30)"/><path class="cls-1" d="M12.126,6.75a.375.375,0,0,1,.375.375"/><path class="cls-1" d="M11.751,7.125a.375.375,0,0,1,.375-.375"/><path class="cls-1" d="M12.126,7.5a.375.375,0,0,1-.375-.375"/><path class="cls-1" d="M12.5,7.125a.375.375,0,0,1-.375.375"/><line class="cls-1" x1="17.362" y1="4.138" x2="15.501" y2="6"/><line class="cls-1" x1="19.626" y1="1.687" x2="21.501" y2="0.75"/><line class="cls-1" x1="20.228" y1="3.75" x2="22.251" y2="3.75"/></svg>