<svg id="Regular" xmlns="http://www.w3.org/2000/svg" viewBox="0 0 24 24"><defs><style>.cls-1{fill:none;stroke:currentColor;stroke-linecap:round;stroke-linejoin:round;stroke-width:1.5px;}</style></defs><title>outdoors-tree-valley</title><path class="cls-1" d="M7.374,1.084a.75.75,0,0,0-1.248,0L2.25,7.5H4.5L1.6,11.628A.75.75,0,0,0,2.25,12.75h9a.75.75,0,0,0,.651-1.122L9,7.5h2.25Z"/><line class="cls-1" x1="6.75" y1="12.75" x2="6.75" y2="17.332"/><path class="cls-1" d="M19.262,1.023a.614.614,0,0,0-1.021,0L15.069,6H16.91L14.332,9.582a.613.613,0,0,0,.533.918h7.77a.613.613,0,0,0,.533-.918L20.592,6h1.841Z"/><line class="cls-1" x1="18.751" y1="10.5" x2="18.751" y2="14.535"/><path class="cls-1" d="M.805,18a13.517,13.517,0,0,1,15.673,5.254"/><path class="cls-1" d="M10.969,18.518A15.7,15.7,0,0,1,21.75,14.25q.759,0,1.5.07"/></svg>