<svg id="Regular" xmlns="http://www.w3.org/2000/svg" viewBox="0 0 24 24"><defs><style>.cls-1{fill:none;stroke:currentColor;stroke-linecap:round;stroke-linejoin:round;stroke-width:1.5px;}</style></defs><title>outdoors-backpack-1</title><path class="cls-1" d="M20.25,23.25H3.75V9a8.25,8.25,0,0,1,16.5,0Z"/><line class="cls-1" x1="6.75" y1="17.25" x2="17.25" y2="17.25"/><line class="cls-1" x1="8.25" y1="17.25" x2="8.25" y2="19.5"/><path class="cls-1" d="M12,.75A8.238,8.238,0,0,0,5.5,3.918l.742,3.461A3,3,0,0,0,9.175,9.75h5.65a3,3,0,0,0,2.933-2.371L18.5,3.918A8.238,8.238,0,0,0,12,.75Z"/><path class="cls-1" d="M.75,20.25a3,3,0,0,0,3,3V15a3,3,0,0,0-3,3Z"/><path class="cls-1" d="M23.25,20.25a3,3,0,0,1-3,3V15a3,3,0,0,1,3,3Z"/><line class="cls-1" x1="9.75" y1="8.25" x2="9.75" y2="11.25"/><line class="cls-1" x1="14.25" y1="8.25" x2="14.25" y2="11.25"/></svg>