<svg id="Regular" xmlns="http://www.w3.org/2000/svg" viewBox="0 0 24 24"><defs><style>.cls-1{fill:none;stroke:currentColor;stroke-linecap:round;stroke-linejoin:round;stroke-width:1.5px;}</style></defs><title>outdoors-bird</title><path class="cls-1" d="M10.979,7.449a2.547,2.547,0,0,0-2.7-.517,2.387,2.387,0,0,0-1.529,2.2v2.591A4.866,4.866,0,0,0,11.7,16.5h6.425a.594.594,0,0,0,.438-1.018Z"/><line class="cls-1" x1="4.5" y1="9.75" x2="6.75" y2="9.75"/><path class="cls-1" d="M9.375,9.75a.375.375,0,0,1,.375.375"/><path class="cls-1" d="M9,10.125a.375.375,0,0,1,.375-.375"/><path class="cls-1" d="M9.375,10.5A.375.375,0,0,1,9,10.125"/><path class="cls-1" d="M9.75,10.125a.375.375,0,0,1-.375.375"/><circle class="cls-1" cx="12" cy="12" r="11.25"/><line class="cls-1" x1="12.75" y1="16.5" x2="12.75" y2="18.75"/></svg>