<svg id="Regular" xmlns="http://www.w3.org/2000/svg" viewBox="0 0 24 24"><defs><style>.cls-1{fill:none;stroke:currentColor;stroke-linecap:round;stroke-linejoin:round;stroke-width:1.5px;}</style></defs><title>outdoors-camp-fire-roasting</title><line class="cls-1" x1="0.75" y1="23.25" x2="2.25" y2="0.75"/><line class="cls-1" x1="23.25" y1="23.25" x2="21.75" y2="0.75"/><path class="cls-1" d="M9,6.75A2.25,2.25,0,0,0,6.75,9a1.839,1.839,0,0,0,2.957,1.46A3.672,3.672,0,0,1,12,9.75a3.672,3.672,0,0,1,2.293.71A1.839,1.839,0,0,0,17.25,9,2.25,2.25,0,0,0,15,6.75,2.25,2.25,0,0,0,17.25,4.5a1.839,1.839,0,0,0-2.957-1.46A3.672,3.672,0,0,1,12,3.75a3.672,3.672,0,0,1-2.293-.71A1.839,1.839,0,0,0,6.75,4.5,2.25,2.25,0,0,0,9,6.75Z"/><line class="cls-1" x1="15" y1="6.75" x2="22.15" y2="6.75"/><line class="cls-1" x1="9" y1="6.75" x2="1.85" y2="6.75"/><path class="cls-1" d="M13.2,14.885a.75.75,0,0,0-1.187.721,4,4,0,0,1-.442,2.528A1.332,1.332,0,0,1,10.15,17,3.014,3.014,0,0,0,8.587,19.84,3.41,3.41,0,0,0,12,23.25a3.457,3.457,0,0,0,3.41-3.41A5.549,5.549,0,0,0,13.2,14.885Z"/></svg>