<svg id="Regular" xmlns="http://www.w3.org/2000/svg" viewBox="0 0 24 24"><defs><style>.cls-1{fill:none;stroke:currentColor;stroke-linecap:round;stroke-linejoin:round;stroke-width:1.5px;}</style></defs><title>outdoors-flame-lantern</title><path class="cls-1" d="M11.526,10.871a3.742,3.742,0,0,1,.379,4.263A1.332,1.332,0,0,1,10.484,14,3.014,3.014,0,0,0,8.921,16.84a3.41,3.41,0,0,0,3.41,3.41,3.457,3.457,0,0,0,3.41-3.41A5.67,5.67,0,0,0,11.526,10.871Z"/><path class="cls-1" d="M18,23.25H5.994a3,3,0,0,1,3-3H15a3,3,0,0,1,3,3Z"/><path class="cls-1" d="M15.747,3.75h-7.5V1.5A.75.75,0,0,1,9,.75h6a.75.75,0,0,1,.75.75Z"/><path class="cls-1" d="M8.1,20.25h7.8a8.045,8.045,0,0,0,2.851-6c0-2.745-1.641-7.944-3.994-10.5H9.244C6.891,6.306,5.25,11.505,5.25,14.25A8.045,8.045,0,0,0,8.1,20.25Z"/><path class="cls-1" d="M8.25,2.25H5.944a2.25,2.25,0,0,0-2.2,1.772L.853,15.552a4.5,4.5,0,0,0,2.975,5.225l2.506,1.084"/><path class="cls-1" d="M15.75,2.25h2.306a2.25,2.25,0,0,1,2.2,1.772l2.892,11.53a4.5,4.5,0,0,1-2.975,5.225l-2.506,1.084"/></svg>