<svg id="Regular" xmlns="http://www.w3.org/2000/svg" viewBox="0 0 24 24"><defs><style>.cls-1{fill:none;stroke:currentColor;stroke-linecap:round;stroke-linejoin:round;stroke-width:1.5px;}</style></defs><title>outdoors-backpack</title><polyline class="cls-1" points="18.75 7.75 18.75 22.75 5.25 22.75 5.25 7.75"/><path class="cls-1" d="M18.75,15.25h1.5a3,3,0,0,1,3,3V22a.75.75,0,0,1-.75.75H18.75"/><path class="cls-1" d="M5.25,15.25H3.75a3,3,0,0,0-3,3V22a.75.75,0,0,0,.75.75H5.25"/><rect class="cls-1" x="2.25" y="1.75" width="19.5" height="6" rx="1" ry="1"/><path class="cls-1" d="M18.75,10a9,9,0,0,1-13.5,0"/><line class="cls-1" x1="12" y1="11.549" x2="12" y2="14.549"/><line class="cls-1" x1="6.75" y1="1.75" x2="6.75" y2="7.75"/><line class="cls-1" x1="17.25" y1="1.75" x2="17.25" y2="7.75"/><path class="cls-1" d="M9,22.75v-3A.75.75,0,0,1,9.75,19h4.5a.75.75,0,0,1,.75.75v3"/></svg>