<svg id="Regular" xmlns="http://www.w3.org/2000/svg" viewBox="0 0 24 24"><defs><style>.cls-1{fill:none;stroke:currentColor;stroke-linecap:round;stroke-linejoin:round;stroke-width:1.5px;}</style></defs><title>outdoors-rope-1</title><path class="cls-1" d="M9.51,7.389c.993-1.816,1.315-4.171,4-5.641a6.043,6.043,0,0,1,5.094-.34A7.068,7.068,0,0,1,22.61,5.419a6.041,6.041,0,0,1-.334,5.1c-1.47,2.68-3.826,3-5.646,3.994"/><path class="cls-1" d="M11.962,9.841c1.559-2.949,1.71-4.082,3.458-4.727a2.768,2.768,0,0,1,2.953.531A2.769,2.769,0,0,1,18.905,8.6c-.625,1.693-1.61,1.811-4.728,3.458"/><path class="cls-1" d="M7.389,9.51c-1.816.993-4.171,1.315-5.641,4a6.043,6.043,0,0,0-.34,5.094A7.068,7.068,0,0,0,5.419,22.61a6.041,6.041,0,0,0,5.1-.334c2.68-1.47,3-3.826,3.994-5.646"/><path class="cls-1" d="M9.841,11.962c-2.949,1.559-4.082,1.71-4.727,3.458a2.768,2.768,0,0,0,.531,2.953,2.769,2.769,0,0,0,2.953.532c1.693-.625,1.811-1.61,3.458-4.728"/><line class="cls-1" x1="7.912" y1="5.791" x2="18.519" y2="16.397"/><line class="cls-1" x1="5.791" y1="7.912" x2="16.397" y2="18.519"/></svg>