<svg id="Regular" xmlns="http://www.w3.org/2000/svg" viewBox="0 0 24 24"><defs><style>.cls-1{fill:none;stroke:currentColor;stroke-linecap:round;stroke-linejoin:round;stroke-width:1.5px;}</style></defs><title>outdoors-kite-flying-cloud</title><path class="cls-1" d="M21.323,6.75A7.193,7.193,0,0,0,7.174,6.543,4.457,4.457,0,1,0,5.242,15h4.771"/><path class="cls-1" d="M12.462,12.847a1.5,1.5,0,0,1,.117-1.619L15.3,7.6a1.5,1.5,0,0,1,2.4,0l2.721,3.628a1.5,1.5,0,0,1,.117,1.619L16.5,20.25Z"/><path class="cls-1" d="M16.5,20.25v1.279a1.722,1.722,0,0,0,2.676,1.432l.869-.579a1.72,1.72,0,0,1,1.91,0l1.3.863"/></svg>