<svg id="Regular" xmlns="http://www.w3.org/2000/svg" viewBox="0 0 24 24"><defs><style>.cls-1{fill:none;stroke:currentColor;stroke-linecap:round;stroke-linejoin:round;stroke-width:1.5px;}</style></defs><title>outdoors-pig-apple</title><path class="cls-1" d="M.75,23.25l1.243-1.243A6,6,0,0,1,6.235,20.25a4.475,4.475,0,0,0,4-2.473A1.965,1.965,0,0,0,9.1,15.034L6.75,14.25a4.262,4.262,0,0,0-1.713-2.044,2.251,2.251,0,1,0-4.171-.245"/><path class="cls-1" d="M23.25,23.25h-9a1.5,1.5,0,0,1-1.5-1.5V2.25a1.5,1.5,0,0,1,1.5-1.5h9"/><path class="cls-1" d="M18.75,10.5s3-2.25,3,2.25-3,2.25-3,2.25-3,2.25-3-2.25S18.75,10.5,18.75,10.5Z"/><line class="cls-1" x1="18.75" y1="7.5" x2="20.25" y2="6"/></svg>