<svg id="Regular" xmlns="http://www.w3.org/2000/svg" viewBox="0 0 24 24"><defs><style>.cls-1{fill:none;stroke:currentColor;stroke-linecap:round;stroke-linejoin:round;stroke-width:1.5px;}</style></defs><title>outdoors-woodchopping-1</title><path class="cls-1" d="M10.139,8.987,9.873,5.644,8.323,3.075,12.176.75l1.55,2.569L16.56,5.112A5.437,5.437,0,0,1,10.139,8.987Z"/><line class="cls-1" x1="9.098" y1="4.359" x2="0.75" y2="9.397"/><line class="cls-1" x1="12.951" y1="2.034" x2="14.235" y2="1.259"/><path class="cls-1" d="M23.25,19.5a3.75,3.75,0,0,1-3.75,3.75L18,18.75Z"/><path class="cls-1" d="M15,11.25A3.75,3.75,0,0,1,18.75,15l-4.5,1.5Z"/><path class="cls-1" d="M6.75,21a3.75,3.75,0,0,1,3.75-3.75l1.5,4.5Z"/></svg>