<svg id="Regular" xmlns="http://www.w3.org/2000/svg" viewBox="0 0 24 24"><defs><style>.cls-1{fill:none;stroke:currentColor;stroke-linecap:round;stroke-linejoin:round;stroke-width:1.5px;}</style></defs><title>outdoors-bench-sit</title><circle class="cls-1" cx="9" cy="3.625" r="2.625"/><path class="cls-1" d="M9.75,22.75a1.5,1.5,0,0,1-1.422-1.025L7.169,18.25H3.75a1.5,1.5,0,0,1-1.342-2.171l3.75-7.5a1.5,1.5,0,0,1,2.013-.671L10.854,9.25h3.4a1.5,1.5,0,0,1,0,3H10.5a1.5,1.5,0,0,1-.671-.158l-1.658-.829L6.177,15.25H8.25a1.5,1.5,0,0,1,1.422,1.025l1.5,4.5A1.5,1.5,0,0,1,9.75,22.75Z"/><polyline class="cls-1" points="0.75 18.25 3.75 18.25 3.75 22.75"/><line class="cls-1" x1="14.25" y1="12.25" x2="23.25" y2="12.25"/><line class="cls-1" x1="14.25" y1="17.5" x2="21.75" y2="17.5"/><line class="cls-1" x1="16.5" y1="12.25" x2="13.5" y2="22.75"/><line class="cls-1" x1="19.5" y1="12.25" x2="22.5" y2="22.75"/></svg>