<svg id="Regular" xmlns="http://www.w3.org/2000/svg" viewBox="0 0 24 24"><defs><style>.cls-1{fill:none;stroke:currentColor;stroke-linecap:round;stroke-linejoin:round;stroke-width:1.5px;}</style></defs><title>outdoors-camp-flame</title><path class="cls-1" d="M14.25,9.31a2.25,2.25,0,1,1-4.5,0c0-.9.185-.84.448-1.35,0,0,.9,1.128,1.352.9.527-.263.591-1.452.554-2.392a.45.45,0,0,1,.793-.309A5.106,5.106,0,0,1,14.25,9.31Z"/><rect class="cls-1" x="5.25" y="16.5" width="13.5" height="6.75" rx="1" ry="1"/><path class="cls-1" d="M6.25.75h11.5a1,1,0,0,1,1,1v2a0,0,0,0,1,0,0H5.25a0,0,0,0,1,0,0v-2A1,1,0,0,1,6.25.75Z"/><path class="cls-1" d="M18,3.75H6V12a1.5,1.5,0,0,0,1.5,1.5h3v3h3v-3h3A1.5,1.5,0,0,0,18,12Z"/><line class="cls-1" x1="5.25" y1="20.25" x2="7.5" y2="20.25"/><line class="cls-1" x1="18.75" y1="20.25" x2="16.5" y2="20.25"/><path class="cls-1" d="M12,19.875a.375.375,0,0,1,.375.375"/><path class="cls-1" d="M11.625,20.25A.375.375,0,0,1,12,19.875"/><path class="cls-1" d="M12,20.625a.375.375,0,0,1-.375-.375"/><path class="cls-1" d="M12.375,20.25a.375.375,0,0,1-.375.375"/></svg>