<svg id="Regular" xmlns="http://www.w3.org/2000/svg" viewBox="0 0 24 24"><defs><style>.cls-1{fill:none;stroke:currentColor;stroke-linecap:round;stroke-linejoin:round;stroke-width:1.5px;}</style></defs><title>outdoors-camp-fire-guitar</title><path class="cls-1" d="M11.9,5.277a.309.309,0,0,0-.39.44,4.976,4.976,0,0,1-.085,4.8A1.765,1.765,0,0,1,9.583,9.354a.3.3,0,0,0-.427-.16,4.16,4.16,0,0,0-1.767,3.771,4.616,4.616,0,0,0,9.219-.2A7.324,7.324,0,0,0,11.9,5.277Z"/><circle class="cls-1" cx="20.518" cy="5.491" r="1.5"/><polyline class="cls-1" points="21.955 5.061 20.664 0.75 23.25 1.542"/><circle class="cls-1" cx="2.25" cy="8.461" r="1.5"/><line class="cls-1" x1="3.609" y1="7.825" x2="1.699" y2="3.75"/><line class="cls-1" x1="6" y1="18.75" x2="18" y2="23.25"/><line class="cls-1" x1="18" y1="18.75" x2="6" y2="23.25"/></svg>