<svg id="Regular" xmlns="http://www.w3.org/2000/svg" viewBox="0 0 24 24"><defs><style>.cls-1{fill:none;stroke:currentColor;stroke-linecap:round;stroke-linejoin:round;stroke-width:1.5px;}</style></defs><title>outdoors-swiss-knife</title><ellipse class="cls-1" cx="18.75" cy="11.25" rx="2.25" ry="1.5"/><ellipse class="cls-1" cx="18.75" cy="8.25" rx="2.25" ry="1.5"/><ellipse class="cls-1" cx="18.75" cy="5.25" rx="2.25" ry="1.5"/><path class="cls-1" d="M18.75,3.75c-1.243,0-2.25-.672-2.25-1.5S17.507.75,18.75.75"/><line class="cls-1" x1="18.75" y1="12.75" x2="18.75" y2="15.75"/><path class="cls-1" d="M7.724,15.75l2.607-9.274A4.5,4.5,0,0,0,7.216.926L2.956,16.083"/><path class="cls-1" d="M23.25,19.5a3.75,3.75,0,0,1-3.75,3.75H4.5a3.75,3.75,0,0,1,0-7.5h15A3.75,3.75,0,0,1,23.25,19.5Z"/><path class="cls-1" d="M5.25,19.125a.375.375,0,0,1,.375.375"/><path class="cls-1" d="M4.875,19.5a.375.375,0,0,1,.375-.375"/><path class="cls-1" d="M5.25,19.875a.375.375,0,0,1-.375-.375"/><path class="cls-1" d="M5.625,19.5a.375.375,0,0,1-.375.375"/><path class="cls-1" d="M18.75,19.125a.375.375,0,0,1,.375.375"/><path class="cls-1" d="M18.375,19.5a.375.375,0,0,1,.375-.375"/><path class="cls-1" d="M18.75,19.875a.375.375,0,0,1-.375-.375"/><path class="cls-1" d="M19.125,19.5a.375.375,0,0,1-.375.375"/></svg>