<svg id="Regular" xmlns="http://www.w3.org/2000/svg" viewBox="0 0 24 24"><defs><style>.cls-1{fill:none;stroke:currentColor;stroke-linecap:round;stroke-linejoin:round;stroke-width:1.5px;}</style></defs><title>outdoors-sun-plants</title><circle class="cls-1" cx="17.25" cy="9" r="3.75"/><line class="cls-1" x1="17.25" y1="3" x2="17.25" y2="5.25"/><line class="cls-1" x1="21.493" y1="4.757" x2="19.902" y2="6.348"/><line class="cls-1" x1="23.25" y1="9" x2="21" y2="9"/><line class="cls-1" x1="21.493" y1="13.243" x2="19.902" y2="11.652"/><line class="cls-1" x1="17.25" y1="15" x2="17.25" y2="12.75"/><line class="cls-1" x1="13.007" y1="13.243" x2="14.598" y2="11.652"/><line class="cls-1" x1="11.25" y1="9" x2="13.5" y2="9"/><line class="cls-1" x1="13.007" y1="4.757" x2="14.598" y2="6.348"/><line class="cls-1" x1="17.25" y1="18" x2="17.25" y2="23.25"/><path class="cls-1" d="M17.25,22.5a3,3,0,0,1,3-3"/><path class="cls-1" d="M17.25,22.5a3,3,0,0,0-3-3"/><path class="cls-1" d="M10.5,12.534a6.375,6.375,0,1,1,.738-10.28"/></svg>