<svg id="Regular" xmlns="http://www.w3.org/2000/svg" viewBox="0 0 24 24"><defs><style>.cls-1{fill:none;stroke:currentColor;stroke-linecap:round;stroke-linejoin:round;stroke-width:1.5px;}</style></defs><title>outdoors-water-birds</title><path class="cls-1" d="M.75,23.25a5.511,5.511,0,0,0,4.5-1.5,4.547,4.547,0,0,0,6.75,0,4.547,4.547,0,0,0,6.75,0,5.511,5.511,0,0,0,4.5,1.5"/><path class="cls-1" d="M.75,18.75a5.511,5.511,0,0,0,4.5-1.5,4.547,4.547,0,0,0,6.75,0,4.547,4.547,0,0,0,6.75,0,5.511,5.511,0,0,0,4.5,1.5"/><path class="cls-1" d="M.75,14.25a5.511,5.511,0,0,0,4.5-1.5,4.547,4.547,0,0,0,6.75,0,4.547,4.547,0,0,0,6.75,0,5.511,5.511,0,0,0,4.5,1.5"/><path class="cls-1" d="M5.25.75,6.9,2.95a.75.75,0,0,0,1.2,0L9.75.75"/><path class="cls-1" d="M12,5.25l1.65,2.2a.75.75,0,0,0,1.2,0l1.65-2.2"/><path class="cls-1" d="M18.75.75l1.65,2.2a.75.75,0,0,0,1.2,0L23.25.75"/></svg>