<svg id="Regular" xmlns="http://www.w3.org/2000/svg" viewBox="0 0 24 24"><defs><style>.cls-1{fill:none;stroke:currentColor;stroke-linecap:round;stroke-linejoin:round;stroke-width:1.5px;}</style></defs><title>outdoors-water-sun</title><path class="cls-1" d="M23.251,17a5.956,5.956,0,0,1-6.75-1.633,5.928,5.928,0,0,1-9,0A5.954,5.954,0,0,1,.75,16.994"/><path class="cls-1" d="M.75,21.313A5.954,5.954,0,0,0,7.5,19.681a5.928,5.928,0,0,0,9,0,5.956,5.956,0,0,0,6.75,1.633"/><path class="cls-1" d="M6,12.75a6,6,0,0,1,12,0"/><line class="cls-1" x1="3.001" y1="12.75" x2="0.751" y2="12.75"/><line class="cls-1" x1="23.251" y1="12.75" x2="21.001" y2="12.75"/><line class="cls-1" x1="12.001" y1="2.25" x2="12.001" y2="4.5"/><line class="cls-1" x1="18.001" y1="6.75" x2="19.501" y2="5.25"/><line class="cls-1" x1="6.001" y1="6.75" x2="4.501" y2="5.25"/></svg>