<svg id="Regular" xmlns="http://www.w3.org/2000/svg" viewBox="0 0 24 24"><defs><style>.cls-1{fill:none;stroke:currentColor;stroke-linecap:round;stroke-linejoin:round;stroke-width:1.5px;}</style></defs><title>outdoors-horse</title><circle class="cls-1" cx="9.75" cy="3" r="2.25"/><path class="cls-1" d="M.75,18l.382-4.174A3,3,0,0,1,4.1,11.25H8.25V7.5a1.5,1.5,0,0,1,2.955-.363C11.29,7.428,11.86,9,14.25,9a1.5,1.5,0,0,1,0,3,6.72,6.72,0,0,1-3-.656"/><path class="cls-1" d="M5.379,11.25,4.19,12.439a1.5,1.5,0,0,0-.14,1.96l1.3,1.732-.932.622a1.5,1.5,0,0,0-.56,1.8l1.5,3.75a1.5,1.5,0,0,0,2.786-1.114L7.1,18.573l1.237-.825a1.492,1.492,0,0,0,.467-.5H12.75v4.5a1.5,1.5,0,0,0,3,0V20.139a14.993,14.993,0,0,1,1.073-5.571L18.75,9.75H21.6a1.5,1.5,0,0,0,1.423-1.026l.184-.553a.75.75,0,0,0-.433-.934L18.75,6V3a22.646,22.646,0,0,0-2.366,2.92"/></svg>