<svg id="Regular" xmlns="http://www.w3.org/2000/svg" viewBox="0 0 24 24"><defs><style>.cls-1{fill:none;stroke:currentColor;stroke-linecap:round;stroke-linejoin:round;stroke-width:1.5px;}</style></defs><title>outdoors-dog-house</title><path class="cls-1" d="M6.75,21.745a3.609,3.609,0,0,1,1.057-2.552,1.511,1.511,0,0,1,1.07-.443H12a.75.75,0,0,1,.75.75v2.25a1.5,1.5,0,0,0,3,0V19.314a8.525,8.525,0,0,1,.943-3.9,2.191,2.191,0,0,1,1.983-1.189,1.552,1.552,0,0,0,1.574-1.551,1.092,1.092,0,0,0-.6-.977l-2.4-1.2V8.25c-2.379,1.428-4.013,3.077-4.469,5.814l-.031.186H6a1.5,1.5,0,0,0-1.5,1.5v.194a8.037,8.037,0,0,1-.413,2.545,6.576,6.576,0,0,0-.337,2.077V21.75a1.5,1.5,0,0,0,3,0Z"/><path class="cls-1" d="M4.5,15.75a3.122,3.122,0,0,0-2.962,2.135L.75,20.25"/><polyline class="cls-1" points="23.25 8.25 12 0.75 0.75 8.25"/></svg>