<svg id="Regular" xmlns="http://www.w3.org/2000/svg" viewBox="0 0 24 24"><defs><style>.cls-1{fill:none;stroke:currentColor;stroke-linecap:round;stroke-linejoin:round;stroke-width:1.5px;}</style></defs><title>outdoors-flashlight</title><path class="cls-1" d="M22.88,8.054,19.915,11.02a1.5,1.5,0,0,1-2.121,0L13.08,6.306a1.5,1.5,0,0,1,0-2.121L16.046,1.22a.75.75,0,0,1,1.061,0L22.88,6.994A.749.749,0,0,1,22.88,8.054Z"/><path class="cls-1" d="M17.715,10.941,6.246,22.411a1.5,1.5,0,0,1-2.122,0L1.689,19.976a1.5,1.5,0,0,1,0-2.122L13.159,6.385"/><line class="cls-1" x1="9.172" y1="10.372" x2="8.033" y2="9.233"/></svg>