<svg id="Regular" xmlns="http://www.w3.org/2000/svg" viewBox="0 0 24 24"><defs><style>.cls-1{fill:none;stroke:currentColor;stroke-linecap:round;stroke-linejoin:round;stroke-width:1.5px;}</style></defs><title>outdoors-flashlight-1</title><path class="cls-1" d="M19.089,10.621,16.814,12.9a1.5,1.5,0,0,1-2.121,0L11.016,9.218a1.5,1.5,0,0,1,0-2.121L13.29,4.822a.75.75,0,0,1,1.061,0L19.089,9.56A.75.75,0,0,1,19.089,10.621Z"/><path class="cls-1" d="M14.787,12.99l-9.57,9.571a1.5,1.5,0,0,1-2.122,0L1.351,20.816a1.5,1.5,0,0,1,0-2.121l9.57-9.571"/><line class="cls-1" x1="7.539" y1="12.507" x2="6.572" y2="11.54"/><line class="cls-1" x1="19.25" y1="4.661" x2="21.5" y2="2.411"/><line class="cls-1" x1="20.75" y1="6.911" x2="23" y2="6.161"/><line class="cls-1" x1="17" y1="3.161" x2="17.75" y2="0.911"/></svg>