<svg id="Regular" xmlns="http://www.w3.org/2000/svg" viewBox="0 0 24 24"><defs><style>.cls-1{fill:none;stroke:currentColor;stroke-linecap:round;stroke-linejoin:round;stroke-width:1.5px;}</style></defs><title>outdoors-camp-fire</title><path class="cls-1" d="M13.01.845a.75.75,0,0,0-1.074.9,6.464,6.464,0,0,1-.475,5.136,2.181,2.181,0,0,1-2.326-1.86A4.934,4.934,0,0,0,6.577,9.673a5.582,5.582,0,0,0,5.582,5.582,5.66,5.66,0,0,0,5.582-5.582A9.056,9.056,0,0,0,13.01.845Z"/><line class="cls-1" x1="2" y1="23.25" x2="21.5" y2="16.5"/><line class="cls-1" x1="7.164" y1="18.288" x2="2" y2="16.5"/><line class="cls-1" x1="21.5" y1="23.25" x2="16.336" y2="21.462"/></svg>