<svg id="Regular" xmlns="http://www.w3.org/2000/svg" viewBox="0 0 24 24"><defs><style>.cls-1{fill:none;stroke:currentColor;stroke-linecap:round;stroke-linejoin:round;stroke-width:1.5px;}</style></defs><title>outdoors-water-flask</title><path class="cls-1" d="M8.75,6.512V2.25a1.5,1.5,0,0,1,1.5-1.5h3a1.5,1.5,0,0,1,1.5,1.5V6.512"/><line class="cls-1" x1="5.022" y1="9.022" x2="18.985" y2="22.985"/><path class="cls-1" d="M20.75,15a9,9,0,0,0-18,0v5.25a3,3,0,0,0,3,3h12a3,3,0,0,0,3-3Z"/><line class="cls-1" x1="18.478" y1="9.022" x2="4.515" y2="22.985"/><path class="cls-1" d="M2.75,15a9,9,0,0,1,18,0v5.25a3,3,0,0,1-3,3h-12a3,3,0,0,1-3-3Z"/></svg>