<svg id="Regular" xmlns="http://www.w3.org/2000/svg" viewBox="0 0 24 24"><defs><style>.cls-1{fill:none;stroke:currentColor;stroke-linecap:round;stroke-linejoin:round;stroke-width:1.5px;}</style></defs><title>outdoors-tree-gate</title><path class="cls-1" d="M16.6,18h5.9a.75.75,0,0,0,.6-1.2L19.5,12H21a.75.75,0,0,0,.6-1.2L18,6h.793a.751.751,0,0,0,.61-1.186L17.11,1.6a.75.75,0,0,0-1.22,0L13.6,4.814A.751.751,0,0,0,14.207,6H15l-3.357,4.476"/><line class="cls-1" x1="16.5" y1="18" x2="16.5" y2="22.5"/><line class="cls-1" x1="3" y1="12.75" x2="3" y2="22.5"/><line class="cls-1" x1="7.5" y1="12.75" x2="7.5" y2="22.5"/><line class="cls-1" x1="12" y1="12.75" x2="12" y2="22.5"/><line class="cls-1" x1="0.75" y1="15" x2="14.25" y2="15"/><line class="cls-1" x1="0.75" y1="20.25" x2="14.25" y2="20.25"/></svg>