<svg id="Regular" xmlns="http://www.w3.org/2000/svg" viewBox="0 0 24 24"><defs><style>.cls-1{fill:none;stroke:currentColor;stroke-linecap:round;stroke-linejoin:round;stroke-width:1.5px;}</style></defs><title>outdoors-mining</title><path class="cls-1" d="M19.27,6.877A1.5,1.5,0,0,1,19.3,9.026L17.5,10.82a1.5,1.5,0,0,1-2.343-.282c-1.815-2.982-5.793-8.95-8.577-8.95C6.584,1.588,9.544-2.359,19.27,6.877Z"/><line class="cls-1" x1="12.382" y1="6.396" x2="0.75" y2="18.028"/><polygon class="cls-1" points="15.75 21 12 23.25 8.25 21 8.25 16.5 12 14.25 15.75 16.5 15.75 21"/><polygon class="cls-1" points="23.25 18.75 21 20.25 18.75 18.75 18.75 15.75 21 14.25 23.25 15.75 23.25 18.75"/></svg>