<svg id="Regular" xmlns="http://www.w3.org/2000/svg" viewBox="0 0 24 24"><defs><style>.cls-1{fill:none;stroke:currentColor;stroke-linecap:round;stroke-linejoin:round;stroke-width:1.5px;}</style></defs><title>outdoors-camp-fire-marshmallows</title><path class="cls-1" d="M8.847,8.826a.751.751,0,0,0-1.1.864,5.438,5.438,0,0,1-.488,4.16,1.9,1.9,0,0,1-2.03-1.588A4.2,4.2,0,0,0,3,16.234,4.82,4.82,0,0,0,7.871,21a4.887,4.887,0,0,0,4.871-4.766A7.689,7.689,0,0,0,8.847,8.826Z"/><line class="cls-1" x1="9.433" y1="20.745" x2="15" y2="23.25"/><line class="cls-1" x1="6.317" y1="20.745" x2="0.75" y2="23.25"/><line class="cls-1" x1="20.318" y1="14.261" x2="23.25" y2="20.341"/><line class="cls-1" x1="16.735" y1="6.83" x2="18.364" y2="10.208"/><rect class="cls-1" x="17.091" y="9.985" width="4.5" height="4.5" rx="0.5" ry="0.5" transform="translate(-3.394 9.615) rotate(-25.742)"/><rect class="cls-1" x="13.508" y="2.553" width="4.5" height="4.5" rx="0.5" ry="0.5" transform="translate(-0.522 7.321) rotate(-25.742)"/><line class="cls-1" x1="14.781" y1="2.777" x2="13.803" y2="0.75"/></svg>