<svg id="Regular" xmlns="http://www.w3.org/2000/svg" viewBox="0 0 24 24"><defs><style>.cls-1{fill:none;stroke:currentColor;stroke-linecap:round;stroke-linejoin:round;stroke-width:1.5px;}</style></defs><title>outdoors-kite-flying</title><path class="cls-1" d="M16.881,16.269a.751.751,0,0,1-1.262,0l-5.5-8.979a.751.751,0,0,1,.133-.966l5.5-5.385a.751.751,0,0,1,1,0l5.5,5.385a.751.751,0,0,1,.133.966Z"/><line class="cls-1" x1="10.01" y1="6.75" x2="22.49" y2="6.75"/><path class="cls-1" d="M1.25,23.25l1.982-1.982a5.138,5.138,0,0,1,5.76-1.044,5.14,5.14,0,0,0,6.939-2.874l.319-.737V.75"/></svg>