<svg id="Regular" xmlns="http://www.w3.org/2000/svg" viewBox="0 0 24 24"><defs><style>.cls-1{fill:none;stroke:currentColor;stroke-linecap:round;stroke-linejoin:round;stroke-width:1.5px;}</style></defs><title>paralympics-tennis</title><path class="cls-1" d="M14.784,21.875a1.5,1.5,0,0,1-3,0v-6a1.5,1.5,0,0,1,3,0Z"/><path class="cls-1" d="M7.061,19.089a1.5,1.5,0,0,1-2.934-.626l.94-4.4A1.5,1.5,0,1,1,8,14.689Z"/><line class="cls-1" x1="7.427" y1="17.375" x2="11.784" y2="17.375"/><path class="cls-1" d="M19.512,19.089a1.5,1.5,0,1,0,2.933-.626l-.939-4.4a1.5,1.5,0,1,0-2.934.627Z"/><line class="cls-1" x1="19.145" y1="17.375" x2="14.788" y2="17.375"/><circle class="cls-1" cx="13.286" cy="3.5" r="2.625"/><path class="cls-1" d="M16.285,12.875v-2.56a11.132,11.132,0,0,1,4.028,2.024A1.5,1.5,0,1,0,22.188,10a14.292,14.292,0,0,0-8.9-3.123,11.267,11.267,0,0,1-5.3-1.321A1.5,1.5,0,0,0,6.575,8.2a14.2,14.2,0,0,0,3.71,1.335v3.341"/><ellipse class="cls-1" cx="3.312" cy="2.989" rx="1.875" ry="2.25" transform="translate(-1.14 2.698) rotate(-38.327)"/><line class="cls-1" x1="4.707" y1="4.754" x2="5.909" y2="6.274"/><path class="cls-1" d="M7.284,1.25a.375.375,0,0,1,.375.375"/><path class="cls-1" d="M6.909,1.625a.375.375,0,0,1,.375-.375"/><path class="cls-1" d="M7.284,2a.375.375,0,0,1-.375-.375"/><path class="cls-1" d="M7.659,1.625A.375.375,0,0,1,7.284,2"/></svg>