<svg id="Regular" xmlns="http://www.w3.org/2000/svg" viewBox="0 0 24 24"><defs><style>.cls-1{fill:none;stroke:currentColor;stroke-linecap:round;stroke-linejoin:round;stroke-width:1.5px;}</style></defs><title>paralympics-fencing</title><circle class="cls-1" cx="12.375" cy="3.375" r="2.625"/><path class="cls-1" d="M11.959,20.23a6,6,0,1,1-6.711-8.791"/><path class="cls-1" d="M14.3,10.224l-2.663.761L10.415,14.25H13.6a4.485,4.485,0,0,1,3.457,1.62L19.9,19.289A1.5,1.5,0,0,1,17.6,21.211l-2.85-3.42A1.49,1.49,0,0,0,13.6,17.25H8.25a1.5,1.5,0,0,1-1.405-2.027l2.25-6a1.5,1.5,0,0,1,.993-.916l3.456-.987"/><path class="cls-1" d="M16.155,5.385A2.25,2.25,0,0,1,17.25,9.75Z"/><line class="cls-1" x1="18.885" y1="7.02" x2="23.25" y2="5.926"/></svg>