<svg id="Regular" xmlns="http://www.w3.org/2000/svg" viewBox="0 0 24 24"><defs><style>.cls-1{fill:none;stroke:currentColor;stroke-linecap:round;stroke-linejoin:round;stroke-width:1.5px;}</style></defs><title>paralympics-football</title><circle class="cls-1" cx="12.058" cy="3.375" r="2.625"/><circle class="cls-1" cx="12.058" cy="21" r="2.25"/><path class="cls-1" d="M15.656,17.618a1.5,1.5,0,0,0,2.809-1.053h0a4.48,4.48,0,0,0-2.791-2.689l-2.245-.749L13.008,9.75h2.05a4.481,4.481,0,0,0,3.515-1.689l2.1-2.623a1.5,1.5,0,1,0-2.344-1.875l-2.1,2.623a1.493,1.493,0,0,1-1.172.564H8.308a4.492,4.492,0,0,0-3.744,2l-.609.914a1.5,1.5,0,1,0,2.5,1.664l.609-.914A1.5,1.5,0,0,1,8.308,9.75H9.984l.454,3.633L8.1,14.555a1.5,1.5,0,0,1-1.231.051l-2.5-1a1.5,1.5,0,1,0-1.113,2.786l2.5,1a4.506,4.506,0,0,0,3.687-.151l2.739-1.371,2.553.852a1.49,1.49,0,0,1,.929.9Z"/><path class="cls-1" d="M15.656,17.618,17.4,22.277a1.5,1.5,0,0,0,1.4.973,1.53,1.53,0,0,0,.528-.095,1.5,1.5,0,0,0,.877-1.932"/></svg>