<svg id="Regular" xmlns="http://www.w3.org/2000/svg" viewBox="0 0 24 24"><defs><style>.cls-1{fill:none;stroke:currentColor;stroke-linecap:round;stroke-linejoin:round;stroke-width:1.5px;}</style></defs><title>paralympics-discus-throwing</title><circle class="cls-1" cx="11" cy="3.375" r="2.625"/><path class="cls-1" d="M22.923,5.486a1.5,1.5,0,0,0-1.9-.948L8.256,8.793A2.99,2.99,0,0,1,4.487,7.075,1.5,1.5,0,0,0,1.7,8.188a5.972,5.972,0,0,0,7.524,3.444l1.8-.6.056,2.752-5.053,7.1a1.5,1.5,0,0,0,2.444,1.74l4.819-6.767,1.392.181A1.5,1.5,0,0,1,15.921,18l-1.093,3.278a1.5,1.5,0,1,0,2.845.95l1.092-3.279a4.5,4.5,0,0,0-3.7-5.887l-1-.13-.058-2.89,7.968-2.656A1.5,1.5,0,0,0,22.923,5.486Z"/><circle class="cls-1" cx="4.25" cy="3.375" r="1.875"/></svg>