<svg id="Regular" xmlns="http://www.w3.org/2000/svg" viewBox="0 0 24 24"><defs><style>.cls-1{fill:none;stroke:currentColor;stroke-linecap:round;stroke-linejoin:round;stroke-width:1.5px;}</style></defs><title>paralympics-running</title><circle class="cls-1" cx="15.564" cy="3.918" r="2.625"/><path class="cls-1" d="M23.158,20.734a1.5,1.5,0,0,1-2.817,1.032l-1.747-4.659"/><path class="cls-1" d="M1.794,19.51a1.5,1.5,0,1,1,.913-2.858l3.172,1.282"/><path class="cls-1" d="M20.89,6.168a1.5,1.5,0,0,1,1.72,2.458l-2.617,1.822a4.471,4.471,0,0,1-3.85.629l-1.378-.4-.784,3.137,1.825.609A4.482,4.482,0,0,1,18.6,17.107a1.5,1.5,0,0,1-2.81,1.052,1.492,1.492,0,0,0-.929-.895l-2.553-.852L9.566,17.783a4.506,4.506,0,0,1-3.687.151A1.5,1.5,0,0,1,7,15.15,1.49,1.49,0,0,0,8.225,15.1L10.9,13.76l.983-3.933L9.769,9.206a1.483,1.483,0,0,0-1.385.289l-.841.7A1.5,1.5,0,0,1,5.615,7.9l.842-.706a4.476,4.476,0,0,1,4.159-.865L16.991,8.2a1.493,1.493,0,0,0,1.283-.209Z"/></svg>