<svg id="Regular" xmlns="http://www.w3.org/2000/svg" viewBox="0 0 24 24"><defs><style>.cls-1{fill:none;stroke:currentColor;stroke-linecap:round;stroke-linejoin:round;stroke-width:1.5px;}</style></defs><title>paralympics-race-1</title><path class="cls-1" d="M13.412,21.75a1.5,1.5,0,0,1-3,0V16.5a1.5,1.5,0,0,1,3,0Z"/><path class="cls-1" d="M5.689,19.714a1.5,1.5,0,0,1-2.934-.626l.94-4.4a1.5,1.5,0,1,1,2.934.627Z"/><line class="cls-1" x1="6.055" y1="18" x2="10.412" y2="18"/><path class="cls-1" d="M18.139,19.714a1.5,1.5,0,1,0,2.934-.626l-.939-4.4a1.5,1.5,0,1,0-2.934.627Z"/><line class="cls-1" x1="17.773" y1="18" x2="13.416" y2="18"/><circle class="cls-1" cx="11.914" cy="3.375" r="2.625"/><path class="cls-1" d="M6.881,6.646a11.254,11.254,0,0,1-2.17-1.419,1.5,1.5,0,0,0-1.922,2.3A14.229,14.229,0,0,0,8.913,10.5v3"/><path class="cls-1" d="M14.913,13.5v-3a14.277,14.277,0,0,0,5.9-2.789A1.5,1.5,0,0,0,18.941,5.37a11.391,11.391,0,0,1-2,1.282"/><circle class="cls-1" cx="11.912" cy="11.25" r="1.5"/><polyline class="cls-1" points="9.662 7.5 11.912 9.75 14.162 7.5"/></svg>