<svg id="Regular" xmlns="http://www.w3.org/2000/svg" viewBox="0 0 24 24"><defs><style>.cls-1{fill:none;stroke:currentColor;stroke-linecap:round;stroke-linejoin:round;stroke-width:1.5px;}</style></defs><title>paralympics-racing</title><path class="cls-1" d="M13.535,21.75a1.5,1.5,0,0,1-3,0v-6a1.5,1.5,0,0,1,3,0Z"/><path class="cls-1" d="M5.812,18.964a1.5,1.5,0,1,1-2.934-.626l.939-4.4a1.5,1.5,0,1,1,2.934.627Z"/><line class="cls-1" x1="6.178" y1="17.25" x2="10.535" y2="17.25"/><path class="cls-1" d="M18.262,18.964a1.5,1.5,0,1,0,2.934-.626l-.94-4.4a1.5,1.5,0,1,0-2.934.627Z"/><line class="cls-1" x1="17.896" y1="17.25" x2="13.539" y2="17.25"/><circle class="cls-1" cx="12.037" cy="3.375" r="2.625"/><path class="cls-1" d="M15.036,12.75V10.19a11.115,11.115,0,0,1,4.026,2.024,1.5,1.5,0,1,0,1.875-2.341,14.246,14.246,0,0,0-18.025.182,1.5,1.5,0,1,0,1.922,2.3,11.23,11.23,0,0,1,4.2-2.195V12.75"/></svg>