<svg id="Regular" xmlns="http://www.w3.org/2000/svg" viewBox="0 0 24 24"><defs><style>.cls-1{fill:none;stroke:currentColor;stroke-linecap:round;stroke-linejoin:round;stroke-width:1.5px;}</style></defs><title>paralympics-flag</title><circle class="cls-1" cx="8.625" cy="3.375" r="2.625"/><path class="cls-1" d="M11.96,20.227A6,6,0,1,1,3.773,12.04"/><path class="cls-1" d="M12.027,8.25a1.456,1.456,0,0,0,1.284-.771l.365-.685a1.5,1.5,0,0,1,2.648,1.412s-.694,1.283-.753,1.355a4.472,4.472,0,0,1-3.512,1.689H9.75v3H13.6a4.485,4.485,0,0,1,3.457,1.62L19.9,19.289A1.5,1.5,0,0,1,17.6,21.211l-2.85-3.42A1.49,1.49,0,0,0,13.6,17.25H8.25a1.5,1.5,0,0,1-1.5-1.5v-6a1.5,1.5,0,0,1,1.5-1.5Z"/><line class="cls-1" x1="15.615" y1="6.132" x2="17.631" y2="0.75"/><path class="cls-1" d="M22.231,2.031a1.714,1.714,0,0,0-1.79-.228,1.718,1.718,0,0,1-1.79-.228L17.631.75,16.579,3.559l1.019.825a1.716,1.716,0,0,0,1.79.228,1.716,1.716,0,0,1,1.79.228l1.019.824L23.25,2.855Z"/></svg>