<svg id="Regular" xmlns="http://www.w3.org/2000/svg" viewBox="0 0 24 24"><defs><style>.cls-1{fill:none;stroke:currentColor;stroke-linecap:round;stroke-linejoin:round;stroke-width:1.5px;}</style></defs><title>paralympics-ball</title><circle class="cls-1" cx="8.625" cy="3.375" r="2.625"/><path class="cls-1" d="M11.96,20.227A6,6,0,1,1,3.773,12.04"/><path class="cls-1" d="M18.751,21.75a1.5,1.5,0,0,1-1.154-.539l-2.85-3.42A1.49,1.49,0,0,0,13.6,17.25H8.25a1.5,1.5,0,0,1-1.5-1.5v-6a1.5,1.5,0,0,1,1.5-1.5h3.809a1.492,1.492,0,0,0,1.171-.564l1.3-1.812a1.5,1.5,0,1,1,2.434,1.752L15.618,9.5a4.507,4.507,0,0,1-3.559,1.75H9.75v3H13.6a4.485,4.485,0,0,1,3.457,1.62L19.9,19.289a1.5,1.5,0,0,1-1.152,2.461Z"/><circle class="cls-1" cx="21" cy="3" r="2.25"/></svg>