<svg id="Regular" xmlns="http://www.w3.org/2000/svg" viewBox="0 0 24 24"><defs><style>.cls-1{fill:none;stroke:currentColor;stroke-linecap:round;stroke-linejoin:round;stroke-width:1.5px;}</style></defs><title>paralympics-torch</title><path class="cls-1" d="M9,21.75a1.5,1.5,0,0,0,3,0v-6a1.5,1.5,0,0,0-3,0Z"/><path class="cls-1" d="M16.727,18.964a1.5,1.5,0,1,0,2.934-.626l-.94-4.4a1.5,1.5,0,1,0-2.933.627Z"/><line class="cls-1" x1="16.361" y1="17.25" x2="12.004" y2="17.25"/><path class="cls-1" d="M4.277,18.964a1.5,1.5,0,0,1-2.934-.626l.94-4.4a1.5,1.5,0,1,1,2.934.627Z"/><line class="cls-1" x1="4.643" y1="17.25" x2="9" y2="17.25"/><circle class="cls-1" cx="10.502" cy="3.375" r="2.625"/><path class="cls-1" d="M13.5,12.75V9.968c.594.057,1.19.106,1.784.106a6.4,6.4,0,0,0,4.34-1.423,1.5,1.5,0,1,0-1.921-2.3c-1.054.879-2.4.792-4.508.578A26.553,26.553,0,0,0,10.5,6.75,14.29,14.29,0,0,0,1.6,9.873a1.5,1.5,0,0,0,1.875,2.341A11.136,11.136,0,0,1,7.5,10.19v2.56"/><path class="cls-1" d="M23.25,4.313a1.688,1.688,0,0,1-3.375,0A1.1,1.1,0,0,0,18.75,3.188,1.8,1.8,0,0,1,17.062,1.5h3.375A2.812,2.812,0,0,1,23.25,4.313Z"/><path class="cls-1" d="M16.453.778c.154.26.476.722.8.722"/><line class="cls-1" x1="20.25" y1="5.373" x2="20.25" y2="11.25"/></svg>