<svg id="Regular" xmlns="http://www.w3.org/2000/svg" viewBox="0 0 24 24"><defs><style>.cls-1{fill:none;stroke:currentColor;stroke-linecap:round;stroke-linejoin:round;stroke-width:1.5px;}</style></defs><title>paralympics-swimming</title><circle class="cls-1" cx="19.5" cy="5.875" r="2.625"/><path class="cls-1" d="M7.379,11.307,11.21,8.912,9.9,7.41a1.5,1.5,0,1,1,2.258-1.975L16.673,10.6"/><path class="cls-1" d="M.75,19.75a4.666,4.666,0,0,0,3.75-1.9,4.649,4.649,0,0,0,7.5,0,4.649,4.649,0,0,0,7.5,0,4.666,4.666,0,0,0,3.75,1.9"/><path class="cls-1" d="M.75,15.25a4.666,4.666,0,0,0,3.75-1.9,4.649,4.649,0,0,0,7.5,0,4.649,4.649,0,0,0,7.5,0,4.666,4.666,0,0,0,3.75,1.9"/></svg>