<svg id="Regular" xmlns="http://www.w3.org/2000/svg" viewBox="0 0 24 24"><defs><style>.cls-1{fill:none;stroke:currentColor;stroke-linecap:round;stroke-linejoin:round;stroke-width:1.5px;}</style></defs><title>paralympics-weightlifting</title><path class="cls-1" d="M20.249,3.754a45.5,45.5,0,0,0-16.5,0"/><path class="cls-1" d="M23.25,5.25a1.5,1.5,0,0,1-3,0v-3a1.5,1.5,0,0,1,3,0Z"/><path class="cls-1" d="M3.75,5.25a1.5,1.5,0,0,1-3,0v-3a1.5,1.5,0,0,1,3,0Z"/><path class="cls-1" d="M17.689,6.44a1.5,1.5,0,0,0-.433,1.185c0,.036.243,3.644-1.7,5.759a4.538,4.538,0,0,1-1.13.866H9.575A4.6,4.6,0,0,1,8.457,13.4C6.5,11.278,6.74,7.689,6.746,7.62a1.5,1.5,0,0,0-.435-1.181"/><path class="cls-1" d="M3.837,9.739a10.226,10.226,0,0,0,2.4,5.677A7.582,7.582,0,0,0,9,17.32v4.43a1.5,1.5,0,0,0,3,0,1.5,1.5,0,0,0,3,0V17.32a7.582,7.582,0,0,0,2.76-1.9,10.226,10.226,0,0,0,2.4-5.677"/><circle class="cls-1" cx="12" cy="9.375" r="2.625"/><line class="cls-1" x1="9" y1="18.75" x2="15" y2="18.75"/></svg>