<svg xmlns="http://www.w3.org/2000/svg" viewBox="0 0 24 24"><defs><style>.a{fill:none;stroke:currentColor;stroke-linecap:round;stroke-linejoin:round;stroke-width:1.5px;}</style></defs><title>parking-ramp</title><path class="a" d="M17.25,9.75h5a1,1,0,0,1,1,1v11.5a1,1,0,0,1-1,1h-4a1,1,0,0,1-1-1V9.75A0,0,0,0,1,17.25,9.75Z"/><line class="a" x1="17.25" y1="21.75" x2="23.25" y2="15.75"/><line class="a" x1="17.25" y1="17.25" x2="23.25" y2="11.25"/><line class="a" x1="17.25" y1="9.75" x2="4.5" y2="0.75"/><path class="a" d="M12.049,13.608,10.3,9.71A2.251,2.251,0,0,0,8.191,8.25H.75"/><path class="a" d="M13.5,20.049v1.7a1.5,1.5,0,0,1-3,0v-1.5"/><path class="a" d="M10.875,16.5a.375.375,0,0,1,.375.375"/><path class="a" d="M10.5,16.875a.375.375,0,0,1,.375-.375"/><path class="a" d="M10.875,17.25a.375.375,0,0,1-.375-.375"/><path class="a" d="M11.25,16.875a.375.375,0,0,1-.375.375"/><path class="a" d="M.75,13.5h10.5a3,3,0,0,1,3,3v2.25a1.5,1.5,0,0,1-1.5,1.5H.75"/></svg>