<svg xmlns="http://www.w3.org/2000/svg" viewBox="0 0 24 24"><defs><style>.a{fill:none;stroke:currentColor;stroke-linecap:round;stroke-linejoin:round;stroke-width:1.5px;}</style></defs><title>park-bench-light</title><path class="a" d="M12.75,20.25v-4.5a1.5,1.5,0,0,1,1.5-1.5h6a1.5,1.5,0,0,1,1.5,1.5v4.5"/><line class="a" x1="11.25" y1="20.25" x2="23.25" y2="20.25"/><line class="a" x1="14.25" y1="20.25" x2="14.25" y2="23.25"/><line class="a" x1="20.25" y1="20.25" x2="20.25" y2="23.25"/><path class="a" d="M8.182,22.438a.749.749,0,0,1-.747.812H4.565a.749.749,0,0,1-.747-.812l.558-6.693a1.63,1.63,0,0,1,3.249,0Z"/><line class="a" x1="6" y1="13.5" x2="6" y2="5.25"/><circle class="a" cx="9.75" cy="2.25" r="1.5"/><path class="a" d="M6,7.5h.75a3,3,0,0,0,3-3V3.75"/><circle class="a" cx="2.25" cy="2.25" r="1.5"/><path class="a" d="M6,7.5H5.25a3,3,0,0,1-3-3V3.75"/></svg>