<svg xmlns="http://www.w3.org/2000/svg" viewBox="0 0 24 24"><defs><style>.a{fill:none;stroke:currentColor;stroke-linecap:round;stroke-linejoin:round;stroke-width:1.5px;}</style></defs><title>park-fonutain-1</title><path class="a" d="M9.154,6.75a1.5,1.5,0,0,1,3,0"/><path class="a" d="M15.154,6.75a1.5,1.5,0,0,0-3,0"/><path class="a" d="M4.654,4.5a3.75,3.75,0,0,1,7.5,0"/><path class="a" d="M12.154,9.75V4.5a3.75,3.75,0,0,1,7.5,0"/><path class="a" d="M21.25,16.5a.75.75,0,0,1,.649,1.126,11.253,11.253,0,0,1-19.489,0A.749.749,0,0,1,3.059,16.5Z"/><path class="a" d="M16.592,9.75a.75.75,0,0,1,.6,1.194,6.251,6.251,0,0,1-10.084,0,.75.75,0,0,1,.6-1.194Z"/></svg>