<svg xmlns="http://www.w3.org/2000/svg" viewBox="0 0 24 24"><defs><style>.a{fill:none;stroke:currentColor;stroke-linecap:round;stroke-linejoin:round;stroke-width:1.5px;}</style></defs><title>parking-ramp-1</title><path class="a" d="M.75,20.25h12a1.5,1.5,0,0,0,1.5-1.5,3.624,3.624,0,0,0-1.061-2.561L11.25,14.25H.75"/><line class="a" x1="13.925" y1="17.25" x2="9.75" y2="17.25"/><path class="a" d="M.75,8.25H7.441A2.249,2.249,0,0,1,9.547,9.71l1.7,4.54H.75"/><path class="a" d="M12.75,20.25v1.5a1.5,1.5,0,0,1-3,0v-1.5Z"/><path class="a" d="M17.25,9.75h5a1,1,0,0,1,1,1v11.5a1,1,0,0,1-1,1h-4a1,1,0,0,1-1-1V9.75A0,0,0,0,1,17.25,9.75Z"/><line class="a" x1="17.25" y1="21.75" x2="23.25" y2="15.75"/><line class="a" x1="17.25" y1="17.25" x2="23.25" y2="11.25"/><line class="a" x1="17.25" y1="9.75" x2="4.5" y2="0.75"/></svg>