<svg xmlns="http://www.w3.org/2000/svg" viewBox="0 0 24 24"><defs><style>.a{fill:none;stroke:currentColor;stroke-linecap:round;stroke-linejoin:round;stroke-width:1.5px;}</style></defs><title>parking-p-1</title><circle class="a" cx="16.875" cy="6.75" r="6"/><path class="a" d="M15.375,6.75h1.5a1.5,1.5,0,0,0,0-3h-1.5v6"/><path class="a" d="M3.327,13.607l1.75-3.9A2.251,2.251,0,0,1,7.184,8.25h.691"/><path class="a" d="M1.875,20.049v1.7a1.5,1.5,0,0,0,3,0v-1.5"/><path class="a" d="M21.375,20.049v1.7a1.5,1.5,0,0,1-3,0v-1.5"/><path class="a" d="M18.75,16.5a.375.375,0,0,1,.375.375"/><path class="a" d="M18.375,16.875a.375.375,0,0,1,.375-.375"/><path class="a" d="M18.75,17.25a.375.375,0,0,1-.375-.375"/><path class="a" d="M19.125,16.875a.375.375,0,0,1-.375.375"/><path class="a" d="M4.5,16.5a.375.375,0,0,0-.375.375"/><path class="a" d="M4.875,16.875A.375.375,0,0,0,4.5,16.5"/><path class="a" d="M4.5,17.25a.375.375,0,0,0,.375-.375"/><path class="a" d="M4.125,16.875a.375.375,0,0,0,.375.375"/><path class="a" d="M10.875,13.5H4.125a3,3,0,0,0-3,3v2.25a1.5,1.5,0,0,0,1.5,1.5h18a1.5,1.5,0,0,0,1.5-1.5V16.5a2.977,2.977,0,0,0-.4-1.5"/></svg>