<svg xmlns="http://www.w3.org/2000/svg" viewBox="0 0 24 24"><defs><style>.a{fill:none;stroke:currentColor;stroke-linecap:round;stroke-linejoin:round;stroke-width:1.5px;}</style></defs><title>parking-p</title><path class="a" d="M3.75,14.25,1.811,16.189A3.624,3.624,0,0,0,.75,18.75a1.5,1.5,0,0,0,1.5,1.5h19.5a1.5,1.5,0,0,0,1.5-1.5,3.624,3.624,0,0,0-1.061-2.561L21,15"/><line class="a" x1="1.075" y1="17.25" x2="5.25" y2="17.25"/><line class="a" x1="22.925" y1="17.25" x2="18.75" y2="17.25"/><path class="a" d="M12.75,14.25h-9l1.7-4.54A2.249,2.249,0,0,1,7.559,8.25H8.25"/><path class="a" d="M2.25,20.25v1.5a1.5,1.5,0,0,0,3,0v-1.5Z"/><path class="a" d="M21.75,20.25v1.5a1.5,1.5,0,0,1-3,0v-1.5Z"/><circle class="a" cx="17.25" cy="6.75" r="6"/><path class="a" d="M15.75,6.75h1.5a1.5,1.5,0,0,0,0-3h-1.5v6"/></svg>