<svg xmlns="http://www.w3.org/2000/svg" viewBox="0 0 24 24"><defs><style>.a{fill:none;stroke:currentColor;stroke-linecap:round;stroke-linejoin:round;stroke-width:1.5px;}</style></defs><title>park-bench</title><path class="a" d="M8,18.25H1.25a.375.375,0,0,1-.3-.6l3.6-4.8a.375.375,0,0,0-.3-.6H2.75a.375.375,0,0,1-.3-.6l3.6-4.8a.375.375,0,0,0-.3-.6H4.979a.374.374,0,0,1-.3-.593L7.7,1.427a.375.375,0,0,1,.61,0l3.021,4.23a.374.374,0,0,1-.3.593H10.25a.375.375,0,0,0-.3.6l2.907,3.875"/><line class="a" x1="8" y1="18.25" x2="8" y2="22.75"/><path class="a" d="M12.5,19.75v-4.5a1.5,1.5,0,0,1,1.5-1.5h6a1.5,1.5,0,0,1,1.5,1.5v4.5"/><line class="a" x1="11" y1="19.75" x2="23" y2="19.75"/><line class="a" x1="14" y1="19.75" x2="14" y2="22.75"/><line class="a" x1="20" y1="19.75" x2="20" y2="22.75"/></svg>