<svg id="Regular" xmlns="http://www.w3.org/2000/svg" viewBox="0 0 24 24"><defs><style>.cls-1{fill:none;stroke:currentColor;stroke-linecap:round;stroke-linejoin:round;stroke-width:1.5px;}</style></defs><title>parrot</title><path class="cls-1" d="M16.753,23a8.323,8.323,0,0,0-.316-2.275"/><path class="cls-1" d="M17.733,13.259c.092-.006.186-.009.28-.009a4.5,4.5,0,0,1,4.37,3.423A4.5,4.5,0,0,0,18.763,9.5a4.531,4.531,0,0,0-.751.062"/><path class="cls-1" d="M21.465,14.864c-1.155,3.777-4.317,3.713-6.69,2.136.661,0,2.667.037,2.941-3.52L18,9.73A3,3,0,0,0,15.013,6.5h-1.5A6,6,0,0,1,7.533,1h0A5.251,5.251,0,0,0,5.75,9.135l.011.009a12.716,12.716,0,0,0-5,10.106V23"/><path class="cls-1" d="M13.888,10.25a.375.375,0,0,1,.375.375"/><path class="cls-1" d="M13.513,10.625a.375.375,0,0,1,.375-.375"/><path class="cls-1" d="M13.888,11a.375.375,0,0,1-.375-.375"/><path class="cls-1" d="M14.263,10.625a.375.375,0,0,1-.375.375"/></svg>