<svg id="Regular" xmlns="http://www.w3.org/2000/svg" viewBox="0 0 24 24"><defs><style>.cls-1{fill:none;stroke:currentColor;stroke-linecap:round;stroke-linejoin:round;stroke-width:1.5px;}</style></defs><title>parrot-1</title><path class="cls-1" d="M13.527,12.75C12.027,22.5.777,23.25.777,23.25.777,19.7-.1,9.875,12.012,7.51a3.982,3.982,0,0,1-.735-2.26c0-2.485,2.35-4.5,5.25-4.5s5.25,1.265,5.25,3.75c0,1.5-.75,1.5-.75,1.5"/><path class="cls-1" d="M19.527,9a2.877,2.877,0,0,0,3.736,0,3.338,3.338,0,0,0-2.236-3S18.777,6,19.527,9Z"/><path class="cls-1" d="M16.9,4.5a.375.375,0,0,0-.375.375"/><path class="cls-1" d="M17.277,4.875A.375.375,0,0,0,16.9,4.5"/><path class="cls-1" d="M16.9,5.25a.375.375,0,0,0,.375-.375"/><path class="cls-1" d="M16.527,4.875a.375.375,0,0,0,.375.375"/><path class="cls-1" d="M19.527,9a10.17,10.17,0,0,1-3,9,14.069,14.069,0,0,1-5.166,3.5"/><line class="cls-1" x1="16.42" y1="18.107" x2="17.277" y2="23.25"/><line class="cls-1" x1="14.277" y1="19.932" x2="14.277" y2="23.25"/></svg>