<svg id="Regular" xmlns="http://www.w3.org/2000/svg" viewBox="0 0 24 24"><defs><style>.cls-1{fill:none;stroke:currentColor;stroke-linecap:round;stroke-linejoin:round;stroke-width:1.5px;}</style></defs><title>party-dance</title><path class="cls-1" d="M20.3,18.943l-.746-1.866a4.48,4.48,0,0,0-4.179-2.827H13.04l-.478-3h1.864a4.527,4.527,0,0,0,3.86-2.184l1.375-2.294a1.5,1.5,0,0,0-2.572-1.544L15.713,7.521a1.509,1.509,0,0,1-1.287.729h-5.8A4.476,4.476,0,0,0,5.443,9.568L3.322,11.689a1.5,1.5,0,0,0,2.121,2.122l2.121-2.122a1.515,1.515,0,0,1,1.061-.439h.9l1.165,7.327a1.49,1.49,0,0,1-.228,1.09l-.835,1.251a1.5,1.5,0,1,0,2.5,1.664l.836-1.252a4.465,4.465,0,0,0,.69-3.248l-.132-.832h1.858a1.494,1.494,0,0,1,1.393.942l.746,1.865A1.5,1.5,0,0,0,20.3,18.943Z"/><circle class="cls-1" cx="10.5" cy="3.375" r="2.625"/><line class="cls-1" x1="2.25" y1="3" x2="2.25" y2="6"/><line class="cls-1" x1="0.75" y1="4.5" x2="3.75" y2="4.5"/><line class="cls-1" x1="21.75" y1="0.75" x2="21.75" y2="3.75"/><line class="cls-1" x1="20.25" y1="2.25" x2="23.25" y2="2.25"/><path class="cls-1" d="M18.1,4.526,16.625,2.985a.748.748,0,0,0-1.06-.023L14.481,4a.751.751,0,0,0-.023,1.061l1.68,1.754"/><path class="cls-1" d="M17.842,9.679l1.78,1.858a1.5,1.5,0,0,0,2.121.046l1.083-1.037a1.5,1.5,0,0,0,.046-2.121l-1.819-1.9a3.04,3.04,0,0,0-1.2-.766"/><path class="cls-1" d="M22.5,15.375a.375.375,0,0,1,.375.375"/><path class="cls-1" d="M22.125,15.75a.375.375,0,0,1,.375-.375"/><path class="cls-1" d="M22.5,16.125a.375.375,0,0,1-.375-.375"/><path class="cls-1" d="M22.875,15.75a.375.375,0,0,1-.375.375"/><path class="cls-1" d="M5.25,6.375a.375.375,0,0,1,.375.375"/><path class="cls-1" d="M4.875,6.75a.375.375,0,0,1,.375-.375"/><path class="cls-1" d="M5.25,7.125a.375.375,0,0,1-.375-.375"/><path class="cls-1" d="M5.625,6.75a.375.375,0,0,1-.375.375"/></svg>