<svg id="Regular" xmlns="http://www.w3.org/2000/svg" viewBox="0 0 24 24"><defs><style>.cls-1{fill:none;stroke:currentColor;stroke-linecap:round;stroke-linejoin:round;stroke-width:1.5px;}</style></defs><title>party-balloons</title><path class="cls-1" d="M22.133,18.525a.375.375,0,0,1,.375.375"/><path class="cls-1" d="M21.758,18.9a.375.375,0,0,1,.375-.375"/><path class="cls-1" d="M22.133,19.275a.375.375,0,0,1-.375-.375"/><path class="cls-1" d="M22.508,18.9a.375.375,0,0,1-.375.375"/><path class="cls-1" d="M10.875,21.5a.375.375,0,0,1,.375.375"/><path class="cls-1" d="M10.5,21.875a.375.375,0,0,1,.375-.375"/><path class="cls-1" d="M10.875,22.25a.375.375,0,0,1-.375-.375"/><path class="cls-1" d="M11.25,21.875a.375.375,0,0,1-.375.375"/><path class="cls-1" d="M22.875,7.25a.375.375,0,0,1,.375.375"/><path class="cls-1" d="M22.5,7.625a.375.375,0,0,1,.375-.375"/><path class="cls-1" d="M22.875,8a.375.375,0,0,1-.375-.375"/><path class="cls-1" d="M23.25,7.625A.375.375,0,0,1,22.875,8"/><path class="cls-1" d="M1.125,17a.375.375,0,0,1,.375.375"/><path class="cls-1" d="M.75,17.375A.375.375,0,0,1,1.125,17"/><path class="cls-1" d="M1.125,17.75a.375.375,0,0,1-.375-.375"/><path class="cls-1" d="M1.5,17.375a.375.375,0,0,1-.375.375"/><ellipse class="cls-1" cx="15" cy="7.25" rx="4.5" ry="5.25"/><path class="cls-1" d="M15,12.5l-1.35,1.8a.75.75,0,0,0,.6,1.2h1.5a.75.75,0,0,0,.6-1.2Z"/><path class="cls-1" d="M15.157,15.5a2.641,2.641,0,0,0,.283,3.4,2.639,2.639,0,0,1,0,3.733"/><path class="cls-1" d="M9,1.953a4.007,4.007,0,0,0-2.252-.7c-2.485,0-4.5,2.351-4.5,5.25s2.015,5.25,4.5,5.25a4,4,0,0,0,2.25-.7"/><path class="cls-1" d="M6.75,11.75l1.35,1.8a.75.75,0,0,1-.6,1.2H6a.75.75,0,0,1-.6-1.2Z"/><path class="cls-1" d="M6.593,14.75a2.641,2.641,0,0,1-.283,3.4,2.639,2.639,0,0,0,0,3.733"/></svg>