<svg id="Regular" xmlns="http://www.w3.org/2000/svg" viewBox="0 0 24 24"><defs><style>.cls-1{fill:none;stroke:currentColor;stroke-linecap:round;stroke-linejoin:round;stroke-width:1.5px;}</style></defs><title>party-decoration-1</title><path class="cls-1" d="M.75,8.091c5.25,3.75,13.37,5.392,22.5,4.5"/><path class="cls-1" d="M2.965,9.46l-.089,4.194a1.067,1.067,0,0,0,1.733.77L7.8,11.407"/><path class="cls-1" d="M9.962,11.96l.929,4.36a1.067,1.067,0,0,0,1.862.362l2.581-3.962"/><path class="cls-1" d="M16.97,12.805l1.77,4.131a1.067,1.067,0,0,0,1.9-.028l1.732-4.238"/><path class="cls-1" d="M17.625,9.25A.375.375,0,0,1,18,9.625"/><path class="cls-1" d="M17.25,9.625a.375.375,0,0,1,.375-.375"/><path class="cls-1" d="M17.625,10a.375.375,0,0,1-.375-.375"/><path class="cls-1" d="M18,9.625a.375.375,0,0,1-.375.375"/><path class="cls-1" d="M4.125,19a.375.375,0,0,1,.375.375"/><path class="cls-1" d="M3.75,19.375A.375.375,0,0,1,4.125,19"/><path class="cls-1" d="M4.125,19.75a.375.375,0,0,1-.375-.375"/><path class="cls-1" d="M4.5,19.375a.375.375,0,0,1-.375.375"/><path class="cls-1" d="M4.875,2.5a.375.375,0,0,1,.375.375"/><path class="cls-1" d="M4.5,2.875A.375.375,0,0,1,4.875,2.5"/><path class="cls-1" d="M4.875,3.25A.375.375,0,0,1,4.5,2.875"/><path class="cls-1" d="M5.25,2.875a.375.375,0,0,1-.375.375"/><line class="cls-1" x1="19.5" y1="1" x2="19.5" y2="4"/><line class="cls-1" x1="21" y1="2.5" x2="18" y2="2.5"/><line class="cls-1" x1="9" y1="4.75" x2="9" y2="7.75"/><line class="cls-1" x1="10.5" y1="6.25" x2="7.5" y2="6.25"/><line class="cls-1" x1="17.25" y1="19.75" x2="17.25" y2="22.75"/><line class="cls-1" x1="18.75" y1="21.25" x2="15.75" y2="21.25"/></svg>