<svg id="Regular" xmlns="http://www.w3.org/2000/svg" viewBox="0 0 24 24"><defs><style>.cls-1{fill:none;stroke:currentColor;stroke-linecap:round;stroke-linejoin:round;stroke-width:1.5px;}</style></defs><title>party-music</title><path class="cls-1" d="M12.686,17.839a1.5,1.5,0,0,1,1.24-1.651,3.012,3.012,0,0,0,1.658-.83c1.465-1.464,1.1-4.206-.819-6.123s-4.659-2.284-6.123-.819a3.012,3.012,0,0,0-.83,1.658,1.5,1.5,0,0,1-1.651,1.24,4.738,4.738,0,0,0-3.98,1.248C.131,14.612.541,18.346,3.1,20.9s6.291,2.966,8.341.916A4.738,4.738,0,0,0,12.686,17.839Z"/><rect class="cls-1" x="17.708" y="2.167" width="5.25" height="3" rx="1.5" ry="1.5" transform="translate(3.363 15.452) rotate(-45)"/><line class="cls-1" x1="18.477" y1="5.523" x2="14.765" y2="9.235"/><line class="cls-1" x1="19.007" y1="0.75" x2="20.068" y2="1.811"/><line class="cls-1" x1="22.189" y1="3.932" x2="23.25" y2="4.993"/><line class="cls-1" x1="20.598" y1="5.523" x2="21.659" y2="6.584"/><line class="cls-1" x1="17.416" y1="2.341" x2="18.477" y2="3.402"/><circle class="cls-1" cx="11.052" cy="12.948" r="1.5"/><line class="cls-1" x1="5.219" y1="16.66" x2="7.34" y2="18.781"/><path class="cls-1" d="M9.492,5.259,6.77,2A3.394,3.394,0,1,0,2,6.771L4.5,8.87"/><path class="cls-1" d="M16.288,18.745l1.722,1.442-.5.5a1.5,1.5,0,0,0,2.122,2.122l3.182-3.182a1.5,1.5,0,0,0-2.122-2.122l-.537.538L18.863,16.5"/></svg>