<svg id="Regular" xmlns="http://www.w3.org/2000/svg" viewBox="0 0 24 24"><defs><style>.cls-1{fill:none;stroke:currentColor;stroke-linecap:round;stroke-linejoin:round;stroke-width:1.5px;}</style></defs><title>party-music-dance</title><path class="cls-1" d="M18.75,12a9.129,9.129,0,0,0,4.061-2.366,1.5,1.5,0,1,0-2.122-2.121,6.227,6.227,0,0,1-4.371,1.811h-.386a6.227,6.227,0,0,1-4.371-1.811A1.5,1.5,0,1,0,9.439,9.634,9.129,9.129,0,0,0,13.5,12v2.55l-2.493,1.782a3,3,0,0,0-1.257,2.44V21.75a1.5,1.5,0,0,0,3,0V18.772l3-2.143v1.5a3.023,3.023,0,0,0,.879,2.121l2.56,2.561a1.5,1.5,0,0,0,2.122-2.122l-2.561-2.56Z"/><circle class="cls-1" cx="16.5" cy="3.75" r="2.625"/><circle class="cls-1" cx="2.25" cy="6.75" r="1.5"/><path class="cls-1" d="M4.886.75A1.5,1.5,0,0,0,3.75,2.205V6.75"/><circle class="cls-1" cx="5.25" cy="15.75" r="1.5"/><line class="cls-1" x1="6.75" y1="12" x2="6.75" y2="15.75"/></svg>