<svg id="Regular" xmlns="http://www.w3.org/2000/svg" viewBox="0 0 24 24"><defs><style>.cls-1{fill:none;stroke:currentColor;stroke-linecap:round;stroke-linejoin:round;stroke-width:1.5px;}</style></defs><title>party-music-dance-woman</title><circle class="cls-1" cx="19.5" cy="6.75" r="1.5"/><path class="cls-1" d="M22.136.75A1.5,1.5,0,0,0,21,2.205V6.75"/><circle class="cls-1" cx="21.75" cy="15.75" r="1.5"/><line class="cls-1" x1="23.25" y1="12" x2="23.25" y2="15.75"/><circle class="cls-1" cx="7.5" cy="3.75" r="2.625"/><path class="cls-1" d="M11.708,10.493c.91-.265,1.817-.512,2.741-.819A1.5,1.5,0,0,0,13.5,6.829c-4.369,1.456-7.745,1.8-12.311,6.36a1.5,1.5,0,0,0,2.122,2.122,18.714,18.714,0,0,1,3.241-2.634L4.519,18.9a.375.375,0,0,0,.425.485l1.293-.242L5.843,21.5a1.5,1.5,0,0,0,1.233,1.725,1.381,1.381,0,0,0,.247.021A1.5,1.5,0,0,0,8.8,22l.64-3.841,1.422-.437.807,1.076a.749.749,0,0,1,.129.63l-.491,1.961a1.5,1.5,0,0,0,1.09,1.82,1.534,1.534,0,0,0,.366.045,1.5,1.5,0,0,0,1.453-1.135l.491-1.963a3.73,3.73,0,0,0-.639-3.158l-.16-.213.981-.166a.374.374,0,0,0,.213-.623Z"/></svg>