<svg id="Regular" xmlns="http://www.w3.org/2000/svg" viewBox="0 0 24 24"><defs><style>.cls-1{fill:none;stroke:currentColor;stroke-linecap:round;stroke-linejoin:round;stroke-width:1.5px;}</style></defs><title>party-beer-cheers</title><path class="cls-1" d="M23.25,12.75H21a1.5,1.5,0,0,0-1.5,1.5v7.5a1.5,1.5,0,0,0,1.5,1.5h2.25"/><path class="cls-1" d="M19.5,15H18.177a2.714,2.714,0,0,1-2.427-1.5h0A2.714,2.714,0,0,0,13.323,12H12.75v1.5a1.5,1.5,0,0,1-1.5,1.5H6.75a1.5,1.5,0,0,0-1.475,1.768l.954,5.25A1.5,1.5,0,0,0,7.705,23.25H13.9a1.5,1.5,0,0,0,.671-.158L19.5,21"/><path class="cls-1" d="M6.75,15V8.852A4.466,4.466,0,0,1,7.5,6.375h0A4.466,4.466,0,0,0,8.25,3.9V1.5A.75.75,0,0,1,9,.749h1.5a.75.75,0,0,1,.75.75V3.9A4.466,4.466,0,0,0,12,6.375h0a4.466,4.466,0,0,1,.75,2.477V12"/><line class="cls-1" x1="6.75" y1="9" x2="12.75" y2="9"/><line class="cls-1" x1="18.75" y1="2.25" x2="18.75" y2="5.25"/><line class="cls-1" x1="17.25" y1="3.75" x2="20.25" y2="3.75"/><line class="cls-1" x1="2.25" y1="10.5" x2="2.25" y2="13.5"/><line class="cls-1" x1="0.75" y1="12" x2="3.75" y2="12"/><path class="cls-1" d="M18.038,7.875a.375.375,0,0,1,.375.375"/><path class="cls-1" d="M17.663,8.25a.375.375,0,0,1,.375-.375"/><path class="cls-1" d="M18.038,8.625a.375.375,0,0,1-.375-.375"/><path class="cls-1" d="M18.413,8.25a.375.375,0,0,1-.375.375"/><path class="cls-1" d="M2.625.75A.375.375,0,0,1,3,1.125"/><path class="cls-1" d="M2.25,1.125A.375.375,0,0,1,2.625.75"/><path class="cls-1" d="M2.625,1.5a.375.375,0,0,1-.375-.375"/><path class="cls-1" d="M3,1.125a.375.375,0,0,1-.375.375"/></svg>