<svg id="Regular" xmlns="http://www.w3.org/2000/svg" viewBox="0 0 24 24"><defs><style>.cls-1{fill:none;stroke:currentColor;stroke-linecap:round;stroke-linejoin:round;stroke-width:1.5px;}</style></defs><title>party-hats</title><path class="cls-1" d="M5.552,15.408a2.625,2.625,0,1,1-4.359.007"/><path class="cls-1" d="M7.514,22.984A4.5,4.5,0,0,0,.75,21.1"/><path class="cls-1" d="M16.715,23.25a6.066,6.066,0,0,0-9.429,0"/><line class="cls-1" x1="16.5" y1="4.5" x2="19.5" y2="4.5"/><line class="cls-1" x1="18" y1="3" x2="18" y2="6"/><line class="cls-1" x1="4.5" y1="2.25" x2="7.5" y2="2.25"/><line class="cls-1" x1="6" y1="0.75" x2="6" y2="3.75"/><polygon class="cls-1" points="1.194 15.416 3.375 9 5.556 15.415 1.194 15.416"/><path class="cls-1" d="M18.448,15.408a2.625,2.625,0,1,0,4.359.007"/><path class="cls-1" d="M16.486,22.984A4.5,4.5,0,0,1,23.25,21.1"/><polygon class="cls-1" points="22.806 15.416 20.625 9 18.444 15.415 22.806 15.416"/><polygon class="cls-1" points="9.194 14.25 12 6 14.806 14.25 9.194 14.25"/><path class="cls-1" d="M14.806,14.25a3.375,3.375,0,1,1-5.612,0"/></svg>