<svg id="Regular" xmlns="http://www.w3.org/2000/svg" viewBox="0 0 24 24"><defs><style>.cls-1{fill:none;stroke:currentColor;stroke-linecap:round;stroke-linejoin:round;stroke-width:1.5px;}</style></defs><title>party-confetti-whistle</title><path class="cls-1" d="M3.584,23.25l9.423-9.424a1.5,1.5,0,0,1,2.122,2.122l-7.3,7.3"/><path class="cls-1" d="M15.129,13.826l5.3-5.3a4.5,4.5,0,0,0,0-6.364A2.25,2.25,0,0,0,17.25,5.341a1.5,1.5,0,0,0,2.121,0"/><line class="cls-1" x1="4.5" y1="4.5" x2="7.5" y2="4.5"/><line class="cls-1" x1="6" y1="3" x2="6" y2="6"/><line class="cls-1" x1="18.75" y1="16.5" x2="21.75" y2="16.5"/><line class="cls-1" x1="20.25" y1="15" x2="20.25" y2="18"/><path class="cls-1" d="M10.125,9a.375.375,0,0,1,.375.375"/><path class="cls-1" d="M9.75,9.375A.375.375,0,0,1,10.125,9"/><path class="cls-1" d="M10.125,9.75a.375.375,0,0,1-.375-.375"/><path class="cls-1" d="M10.5,9.375a.375.375,0,0,1-.375.375"/><path class="cls-1" d="M12.375.75a.375.375,0,0,1,.375.375"/><path class="cls-1" d="M12,1.125A.375.375,0,0,1,12.375.75"/><path class="cls-1" d="M12.375,1.5A.375.375,0,0,1,12,1.125"/><path class="cls-1" d="M12.75,1.125a.375.375,0,0,1-.375.375"/><path class="cls-1" d="M1.125,8.25a.375.375,0,0,1,.375.375"/><path class="cls-1" d="M.75,8.625a.375.375,0,0,1,.375-.375"/><path class="cls-1" d="M1.125,9A.375.375,0,0,1,.75,8.625"/><path class="cls-1" d="M1.5,8.625A.375.375,0,0,1,1.125,9"/><path class="cls-1" d="M22.875,10.5a.375.375,0,0,1,.375.375"/><path class="cls-1" d="M22.5,10.875a.375.375,0,0,1,.375-.375"/><path class="cls-1" d="M22.875,11.25a.375.375,0,0,1-.375-.375"/><path class="cls-1" d="M23.25,10.875a.375.375,0,0,1-.375.375"/></svg>