<svg id="Regular" xmlns="http://www.w3.org/2000/svg" viewBox="0 0 24 24"><defs><style>.cls-1{fill:none;stroke:currentColor;stroke-linecap:round;stroke-linejoin:round;stroke-width:1.5px;}</style></defs><title>party-decoration</title><line class="cls-1" x1="0.75" y1="1.75" x2="23.25" y2="5.337"/><path class="cls-1" d="M2.293,2,3.307,6.153a1.066,1.066,0,0,0,1.873.3L7.436,2.816"/><path class="cls-1" d="M9.494,3.144,10.508,7.3a1.066,1.066,0,0,0,1.872.3l2.257-3.636"/><path class="cls-1" d="M16.694,4.292l1.014,4.157a1.066,1.066,0,0,0,1.873.3l2.256-3.636"/><line class="cls-1" x1="0.759" y1="19.793" x2="23.25" y2="11.098"/><path class="cls-1" d="M2.3,19.2l3.143,3.266a1.13,1.13,0,0,0,1.874-.725l.129-4.531"/><path class="cls-1" d="M9.507,16.411l3.143,3.266a1.13,1.13,0,0,0,1.874-.724l.129-4.531"/><path class="cls-1" d="M16.711,13.626l3.144,3.266a1.129,1.129,0,0,0,1.873-.725l.129-4.531"/></svg>