<svg id="Regular" xmlns="http://www.w3.org/2000/svg" viewBox="0 0 24 24"><defs><style>.cls-1{fill:none;stroke:currentColor;stroke-linecap:round;stroke-linejoin:round;stroke-width:1.5px;}</style></defs><title>party-mask</title><line class="cls-1" x1="23.25" y1="0.75" x2="23.25" y2="23.25"/><ellipse class="cls-1" cx="8.25" cy="5.883" rx="1.688" ry="2.25" transform="translate(-0.241 11.413) rotate(-68.566)"/><ellipse class="cls-1" cx="15.749" cy="5.883" rx="2.25" ry="1.688" transform="translate(-1.061 6.162) rotate(-21.434)"/><path class="cls-1" d="M19.717,1.945a2.615,2.615,0,0,1-2.6-.312,3.783,3.783,0,0,0-4.712.173L12,2.154l-.407-.348a3.783,3.783,0,0,0-4.712-.173,2.616,2.616,0,0,1-2.6.312L.75.75A29.68,29.68,0,0,0,.932,4.585,7.355,7.355,0,0,0,12,9.892,7.354,7.354,0,0,0,23.067,4.585,29.488,29.488,0,0,0,23.25.75Z"/></svg>