<svg id="Regular" xmlns="http://www.w3.org/2000/svg" viewBox="0 0 24 24"><defs><style>.cls-1{fill:none;stroke:currentColor;stroke-linecap:round;stroke-linejoin:round;stroke-width:1.5px;}</style></defs><title>party-balloon</title><path class="cls-1" d="M18.75,8.625A7.7,7.7,0,0,0,11.25.75a7.7,7.7,0,0,0-7.5,7.875A7.792,7.792,0,0,0,9.495,16.26l-.7,1.4a.75.75,0,0,0,.671,1.085h3.572a.75.75,0,0,0,.671-1.085l-.7-1.4A7.792,7.792,0,0,0,18.75,8.625Z"/><path class="cls-1" d="M11.25,18.75v1.5a1.5,1.5,0,0,0,1.5,1.5h1.5a1.5,1.5,0,0,0,1.5-1.5h0a1.5,1.5,0,0,1,1.5-1.5h0a1.5,1.5,0,0,1,1.5,1.5v3"/></svg>