<svg id="Regular" xmlns="http://www.w3.org/2000/svg" viewBox="0 0 24 24"><defs><style>.cls-1{fill:none;stroke:currentColor;stroke-linecap:round;stroke-linejoin:round;stroke-width:1.5px;}</style></defs><title>party-water-gun</title><path class="cls-1" d="M15.75,10.969V14.25a1.5,1.5,0,0,1-1.5,1.5h-9a1.5,1.5,0,0,1-1.5-1.5V11"/><path class="cls-1" d="M20.25,8.146a1.5,1.5,0,0,1-.767,1.309,14.292,14.292,0,0,1-5.233,1.8h-9a4.5,4.5,0,0,1-4.5-4.5h0a4.5,4.5,0,0,1,4.5-4.5h9a14.292,14.292,0,0,1,5.233,1.8,1.5,1.5,0,0,1,.767,1.309Z"/><line class="cls-1" x1="15.75" y1="14.25" x2="18.75" y2="14.25"/><path class="cls-1" d="M18.75,12.75h3.5a1,1,0,0,1,1,1v1a1,1,0,0,1-1,1h-3.5a0,0,0,0,1,0,0v-3A0,0,0,0,1,18.75,12.75Z"/><path class="cls-1" d="M8.615,20.777a1.5,1.5,0,0,1-1.4.973H4.832a.75.75,0,0,1-.7-1.013L6,15.75h4.5Z"/><line class="cls-1" x1="11.25" y1="15.75" x2="12.75" y2="18.75"/><line class="cls-1" x1="20.25" y1="6.75" x2="23.25" y2="6.75"/><line class="cls-1" x1="14.25" y1="2.25" x2="14.25" y2="11.25"/></svg>