<svg xmlns="http://www.w3.org/2000/svg" viewBox="0 0 24 24"><defs><style>.a{fill:none;stroke:currentColor;stroke-linecap:round;stroke-linejoin:round;stroke-width:1.5px;}</style></defs><title>passport-globe</title><path class="a" d="M4.838,2.754,10.227,4.8a1.5,1.5,0,0,1,.944,1.7l-.314,1.569A1.5,1.5,0,0,1,9.75,9.23l-2.079.52L6.517,12.634A2.991,2.991,0,0,1,5.4,14.016L3.416,15.3"/><path class="a" d="M16.908,3.43l-.976,1.315a3,3,0,0,0-.438,2.737l.256.768"/><rect class="a" x="13.5" y="11.25" width="9" height="12" rx="1.5" ry="1.5"/><path class="a" d="M9,18.626A9,9,0,1,1,19.374,8.24"/><circle class="a" cx="18" cy="17.25" r="2.25"/></svg>