<svg xmlns="http://www.w3.org/2000/svg" viewBox="0 0 24 24"><defs><style>.a{fill:none;stroke:currentColor;stroke-linecap:round;stroke-linejoin:round;stroke-width:1.5px;}</style></defs><title>passport-ticket</title><path class="a" d="M8.25,21.75h-6a1.5,1.5,0,0,1-1.5-1.5v-18A1.5,1.5,0,0,1,2.25.75h13.5a1.5,1.5,0,0,1,1.5,1.5v4.5"/><path class="a" d="M6.753,16A5.251,5.251,0,1,1,13.309,8.25"/><path class="a" d="M21.439,12.954a1.5,1.5,0,0,1-2.121-2.122L17.727,9.241a.75.75,0,0,0-1.061,0L9.242,16.666a.75.75,0,0,0,0,1.061l1.591,1.591a1.5,1.5,0,0,1,2.121,2.121l1.591,1.591a.75.75,0,0,0,1.061,0l7.424-7.425a.749.749,0,0,0,0-1.06Z"/><line class="a" x1="9" y1="6" x2="9" y2="13.5"/><line class="a" x1="3.75" y1="11.25" x2="11.25" y2="11.25"/></svg>