<svg id="Regular" xmlns="http://www.w3.org/2000/svg" viewBox="0 0 24 24"><defs><style>.cls-1{fill:none;stroke:currentColor;stroke-linecap:round;stroke-linejoin:round;stroke-width:1.5px;}</style></defs><title>pasta-plate-warm</title><path class="cls-1" d="M12,.75l-.617.823a1.584,1.584,0,0,0,.242,2.177h0a1.584,1.584,0,0,1,.242,2.177l-.617.823"/><path class="cls-1" d="M5.807,4.5l-.618.823A1.584,1.584,0,0,0,5.432,7.5h0a1.585,1.585,0,0,1,.242,2.177l-.617.823"/><path class="cls-1" d="M17.637,4.5l.617.823A1.584,1.584,0,0,1,18.012,7.5h0a1.585,1.585,0,0,0-.243,2.177l.618.823"/><line class="cls-1" x1="0.75" y1="18.75" x2="23.25" y2="18.75"/><path class="cls-1" d="M21.44,18.75c-.577-1.7-1.9-3.118-3.44-3.118a3.048,3.048,0,0,0-1.422.361A5.317,5.317,0,0,0,12,13.5a5.317,5.317,0,0,0-4.578,2.493A3.048,3.048,0,0,0,6,15.632c-1.54,0-2.863,1.417-3.44,3.118"/><path class="cls-1" d="M17.256,23.25H6.744a1.878,1.878,0,0,1-1.475-.668L2.25,18.75h19.5l-3.019,3.832A1.878,1.878,0,0,1,17.256,23.25Z"/></svg>