<svg id="Regular" xmlns="http://www.w3.org/2000/svg" viewBox="0 0 24 24"><defs><style>.cls-1{fill:none;stroke:currentColor;stroke-linecap:round;stroke-linejoin:round;stroke-width:1.5px;}</style></defs><title>pasta-noodles</title><path class="cls-1" d="M13.114,23.25H4.886A1.5,1.5,0,0,1,3.406,22L1.51,10.623a.75.75,0,0,1,.74-.873h13.5a.75.75,0,0,1,.74.873L14.594,22A1.5,1.5,0,0,1,13.114,23.25Z"/><path class="cls-1" d="M9.557,13.5l-.618.823A1.584,1.584,0,0,0,9.182,16.5h0a1.585,1.585,0,0,1,.242,2.177l-.617.823"/><line class="cls-1" x1="6" y1="9.75" x2="6" y2="2.25"/><line class="cls-1" x1="9" y1="6.75" x2="9" y2="0.75"/><line class="cls-1" x1="12" y1="6.75" x2="12" y2="3"/><line class="cls-1" x1="14.654" y1="3.448" x2="22.5" y2="3.75"/><line class="cls-1" x1="1.5" y1="2.25" x2="3" y2="2.25"/><line class="cls-1" x1="14.852" y1="6.618" x2="22.5" y2="7.5"/><line class="cls-1" x1="1.5" y1="5.25" x2="3.044" y2="5.25"/></svg>