<svg id="Regular" xmlns="http://www.w3.org/2000/svg" viewBox="0 0 24 24"><defs><style>.cls-1{fill:none;stroke:currentColor;stroke-linecap:round;stroke-linejoin:round;stroke-width:1.5px;}</style></defs><title>pasta-bowl</title><path class="cls-1" d="M21.75,12a9.75,9.75,0,0,1-19.5,0Z"/><line class="cls-1" x1="0.75" y1="12" x2="23.25" y2="12"/><line class="cls-1" x1="2.25" y1="22.5" x2="5.492" y2="19.258"/><line class="cls-1" x1="21.75" y1="22.5" x2="18.508" y2="19.258"/><path class="cls-1" d="M14.061,9A6,6,0,0,0,2.439,9"/><path class="cls-1" d="M10.848,9a3,3,0,0,0-5.2,0"/><path class="cls-1" d="M14.25,4.5A4.5,4.5,0,0,1,18.75,9"/><path class="cls-1" d="M21.75,9A7.5,7.5,0,0,0,11.392,2.064"/><path class="cls-1" d="M12,14.625a.375.375,0,1,1-.375.375A.375.375,0,0,1,12,14.625"/><path class="cls-1" d="M6.75,14.625A.375.375,0,1,1,6.375,15a.375.375,0,0,1,.375-.375"/><path class="cls-1" d="M17.25,14.625a.375.375,0,1,1-.375.375.375.375,0,0,1,.375-.375"/><path class="cls-1" d="M9.75,17.625A.375.375,0,1,1,9.375,18a.375.375,0,0,1,.375-.375"/><path class="cls-1" d="M14.25,17.625a.375.375,0,1,1-.375.375.375.375,0,0,1,.375-.375"/></svg>