<svg id="Regular" xmlns="http://www.w3.org/2000/svg" viewBox="0 0 24 24"><defs><style>.cls-1{fill:none;stroke:currentColor;stroke-linecap:round;stroke-linejoin:round;stroke-width:1.5px;}</style></defs><title>pasta-fork</title><line class="cls-1" x1="20.25" y1="1.485" x2="20.25" y2="13.485"/><path class="cls-1" d="M.75,8.985H6.3a5.031,5.031,0,0,0,4.949,3v-9a5.032,5.032,0,0,0-4.949,3H.75"/><line class="cls-1" x1="11.25" y1="2.985" x2="14.25" y2="2.985"/><line class="cls-1" x1="11.25" y1="5.985" x2="14.25" y2="5.985"/><line class="cls-1" x1="11.25" y1="8.985" x2="14.25" y2="8.985"/><line class="cls-1" x1="11.25" y1="11.985" x2="14.202" y2="11.985"/><line class="cls-1" x1="20.25" y1="2.985" x2="23.25" y2="2.985"/><line class="cls-1" x1="20.25" y1="5.985" x2="23.25" y2="5.985"/><line class="cls-1" x1="20.25" y1="8.985" x2="23.25" y2="8.985"/><line class="cls-1" x1="20.25" y1="11.985" x2="23.25" y2="11.985"/><path class="cls-1" d="M8.3,22.328,9.132,19.4A2.983,2.983,0,0,1,12,17.235h0a2.25,2.25,0,0,0,2.25-2.25V1.485"/><path class="cls-1" d="M17.25,1.485v13.5c0,1.975-.48,3.895-2.25,4.5-.952.326-2.467.868-2.711,1.844l-.3,1.186"/></svg>