<svg xmlns="http://www.w3.org/2000/svg" viewBox="0 0 24 24"><defs><style>.a{fill:none;stroke:currentColor;stroke-linecap:round;stroke-linejoin:round;stroke-width:1.5px;}</style></defs><title>pathfinder-exclude</title><path class="a" d="M8.25,6.75a1.5,1.5,0,0,0-1.5,1.5"/><line class="a" x1="11.25" y1="6.75" x2="12.75" y2="6.75"/><line class="a" x1="15.75" y1="6.75" x2="17.25" y2="6.75"/><line class="a" x1="6.75" y1="17.25" x2="6.75" y2="15.75"/><line class="a" x1="6.75" y1="11.25" x2="6.75" y2="12.75"/><path class="a" d="M17.25,15.75a1.5,1.5,0,0,1-1.5,1.5"/><line class="a" x1="17.25" y1="12.75" x2="17.25" y2="11.25"/><line class="a" x1="17.25" y1="8.25" x2="17.25" y2="6.75"/><line class="a" x1="6.75" y1="17.25" x2="8.25" y2="17.25"/><line class="a" x1="12.75" y1="17.25" x2="11.25" y2="17.25"/><path class="a" d="M17.25,6.75V2.25a1.5,1.5,0,0,0-1.5-1.5H2.25a1.5,1.5,0,0,0-1.5,1.5v13.5a1.5,1.5,0,0,0,1.5,1.5h4.5v4.5a1.5,1.5,0,0,0,1.5,1.5h13.5a1.5,1.5,0,0,0,1.5-1.5V8.25a1.5,1.5,0,0,0-1.5-1.5Z"/></svg>