<svg xmlns="http://www.w3.org/2000/svg" viewBox="0 0 24 24"><defs><style>.a{fill:none;stroke:currentColor;stroke-linecap:round;stroke-linejoin:round;stroke-width:1.5px;}</style></defs><title>pathfinder-divide</title><path class="a" d="M17.25,6.75v9a1.5,1.5,0,0,1-1.5,1.5h-9v4.5a1.5,1.5,0,0,0,1.5,1.5h13.5a1.5,1.5,0,0,0,1.5-1.5V8.25a1.5,1.5,0,0,0-1.5-1.5Z"/><path class="a" d="M2.25.75a1.5,1.5,0,0,0-1.5,1.5"/><line class="a" x1="0.75" y1="5.25" x2="0.75" y2="7.5"/><line class="a" x1="0.75" y1="10.5" x2="0.75" y2="12.75"/><path class="a" d="M.75,15.75a1.5,1.5,0,0,0,1.5,1.5"/><line class="a" x1="6.75" y1="17.25" x2="5.25" y2="17.25"/><line class="a" x1="5.25" y1="0.75" x2="7.5" y2="0.75"/><line class="a" x1="10.5" y1="0.75" x2="12.75" y2="0.75"/><path class="a" d="M15.75.75a1.5,1.5,0,0,1,1.5,1.5"/><line class="a" x1="17.25" y1="6.75" x2="17.25" y2="5.25"/></svg>