<svg xmlns="http://www.w3.org/2000/svg" viewBox="0 0 24 24"><defs><style>.a{fill:none;stroke:currentColor;stroke-linecap:round;stroke-linejoin:round;stroke-width:1.5px;}</style></defs><title>pathfinder-outline</title><path class="a" d="M5.25,6A.75.75,0,0,1,6,5.25h7.5a.75.75,0,0,0,.75-.75v-3A.75.75,0,0,0,13.5.75H2.25a1.5,1.5,0,0,0-1.5,1.5V13.5a.75.75,0,0,0,.75.75h3a.75.75,0,0,0,.75-.75Z"/><path class="a" d="M18.75,18a.75.75,0,0,1-.75.75H10.5a.75.75,0,0,0-.75.75v3a.75.75,0,0,0,.75.75H21.75a1.5,1.5,0,0,0,1.5-1.5V10.5a.75.75,0,0,0-.75-.75h-3a.75.75,0,0,0-.75.75Z"/><rect class="a" x="8.25" y="8.25" width="7.5" height="7.5" rx="1" ry="1"/></svg>