<svg xmlns="http://www.w3.org/2000/svg" viewBox="0 0 24 24"><defs><style>.a{fill:none;stroke:currentColor;stroke-linecap:round;stroke-linejoin:round;stroke-width:1.5px;}</style></defs><title>pathfinder-merge</title><path class="a" d="M17.25,6.75V2.25a1.5,1.5,0,0,0-1.5-1.5H2.25a1.5,1.5,0,0,0-1.5,1.5v13.5a1.5,1.5,0,0,0,1.5,1.5h4.5"/><path class="a" d="M21.75,23.25a1.5,1.5,0,0,0,1.5-1.5"/><path class="a" d="M15.75,17.25a1.5,1.5,0,0,0,1.5-1.5"/><line class="a" x1="23.25" y1="18.75" x2="23.25" y2="16.5"/><line class="a" x1="23.25" y1="13.5" x2="23.25" y2="11.25"/><path class="a" d="M23.25,8.25a1.5,1.5,0,0,0-1.5-1.5"/><line class="a" x1="17.25" y1="6.75" x2="18.75" y2="6.75"/><line class="a" x1="18.75" y1="23.25" x2="16.5" y2="23.25"/><line class="a" x1="13.5" y1="23.25" x2="11.25" y2="23.25"/><path class="a" d="M8.25,23.25a1.5,1.5,0,0,1-1.5-1.5"/><line class="a" x1="6.75" y1="17.25" x2="6.75" y2="18.75"/><line class="a" x1="17.25" y1="12.75" x2="17.25" y2="11.25"/><line class="a" x1="17.25" y1="8.25" x2="17.25" y2="6.75"/><line class="a" x1="12.75" y1="17.25" x2="11.25" y2="17.25"/><line class="a" x1="8.25" y1="17.25" x2="6.75" y2="17.25"/></svg>