<svg xmlns="http://www.w3.org/2000/svg" viewBox="0 0 24 24"><defs><style>.a{fill:none;stroke:currentColor;stroke-linecap:round;stroke-linejoin:round;stroke-width:1.5px;}</style></defs><title>pathfinder-intersect</title><path class="a" d="M7.75,6.75h9.5a0,0,0,0,1,0,0v9.5a1,1,0,0,1-1,1H6.75a0,0,0,0,1,0,0V7.75A1,1,0,0,1,7.75,6.75Z"/><path class="a" d="M.75,2.25A1.5,1.5,0,0,1,2.25.75"/><line class="a" x1="5.25" y1="0.75" x2="7.5" y2="0.75"/><line class="a" x1="10.5" y1="0.75" x2="12.75" y2="0.75"/><path class="a" d="M15.75.75a1.5,1.5,0,0,1,1.5,1.5"/><line class="a" x1="17.25" y1="6.75" x2="17.25" y2="5.25"/><line class="a" x1="0.75" y1="5.25" x2="0.75" y2="7.5"/><line class="a" x1="0.75" y1="10.5" x2="0.75" y2="12.75"/><path class="a" d="M.75,15.75a1.5,1.5,0,0,0,1.5,1.5"/><line class="a" x1="6.75" y1="17.25" x2="5.25" y2="17.25"/><path class="a" d="M21.75,23.25a1.5,1.5,0,0,0,1.5-1.5"/><line class="a" x1="23.25" y1="18.75" x2="23.25" y2="16.5"/><line class="a" x1="23.25" y1="13.5" x2="23.25" y2="11.25"/><path class="a" d="M23.25,8.25a1.5,1.5,0,0,0-1.5-1.5"/><line class="a" x1="17.25" y1="6.75" x2="18.75" y2="6.75"/><line class="a" x1="18.75" y1="23.25" x2="16.5" y2="23.25"/><line class="a" x1="13.5" y1="23.25" x2="11.25" y2="23.25"/><path class="a" d="M8.25,23.25a1.5,1.5,0,0,1-1.5-1.5"/><line class="a" x1="6.75" y1="17.25" x2="6.75" y2="18.75"/></svg>