<svg xmlns="http://www.w3.org/2000/svg" viewBox="0 0 24 24"><defs><style>.a{fill:none;stroke:currentColor;stroke-linecap:round;stroke-linejoin:round;stroke-width:1.5px;}</style></defs><title>pathfinder-minus-back</title><path class="a" d="M.75,6a1.5,1.5,0,0,1,1.5-1.5"/><path class="a" d="M2.25,19.5A1.5,1.5,0,0,1,.75,18"/><path class="a" d="M23.25,18a1.5,1.5,0,0,1-1.5,1.5"/><path class="a" d="M14.25,4.5h8a1,1,0,0,1,1,1V9a0,0,0,0,1,0,0h-8a1,1,0,0,1-1-1V4.5A0,0,0,0,1,14.25,4.5Z"/><line class="a" x1="5.25" y1="19.5" x2="7.5" y2="19.5"/><line class="a" x1="5.25" y1="4.5" x2="7.5" y2="4.5"/><line class="a" x1="0.75" y1="10.5" x2="0.75" y2="9"/><line class="a" x1="0.75" y1="15" x2="0.75" y2="13.5"/><line class="a" x1="23.25" y1="15" x2="23.25" y2="13.5"/><line class="a" x1="23.25" y1="10.5" x2="23.25" y2="9"/><line class="a" x1="10.5" y1="19.5" x2="13.5" y2="19.5"/><line class="a" x1="10.5" y1="4.5" x2="14.25" y2="4.5"/><line class="a" x1="16.5" y1="19.5" x2="18.75" y2="19.5"/></svg>