<svg id="Regular" xmlns="http://www.w3.org/2000/svg" viewBox="0 0 24 24"><defs><style>.cls-1{fill:none;stroke:#000;stroke-linecap:round;stroke-linejoin:round;stroke-width:1.5px;}</style></defs><title>payment-stripe</title><path class="cls-1" d="M12.89,10c-1.83-.71-1.83-1.07-1.83-1.46s.35-.85,1.33-.85a4,4,0,0,1,1.89.47l.63.28A.5.5,0,0,0,15.61,8V5.28a.52.52,0,0,0-.31-.47,7,7,0,0,0-2.86-.54c-3,0-5.09,1.87-5.09,4.44,0,3.11,3,4.18,4,4.52,1.7.65,1.7,1.12,1.7,1.53,0,1-1,1.11-1.59,1.11a4.69,4.69,0,0,1-2.36-.67l-1.22-.7v4a7.83,7.83,0,0,0,3.47.79c3.75,0,5.42-2.33,5.42-4.64C16.75,11.82,14.68,10.66,12.89,10Z"/><rect class="cls-1" x="0.74" y="0.75" width="22.5" height="22.5" rx="1" ry="1"/></svg>