<svg id="Regular" xmlns="http://www.w3.org/2000/svg" viewBox="0 0 24 24"><defs><style>.cls-1{fill:none;stroke:currentColor;stroke-linecap:round;stroke-linejoin:round;stroke-width:1.5px;}</style></defs><title>peacock-feather</title><path class="cls-1" d="M10.951,2.66A3.772,3.772,0,0,1,6.861,9C5.11,7.869,1.544,3.324,1.51,1.057,3.589.154,9.2,1.53,10.951,2.66Z"/><path class="cls-1" d="M8.591,5.626a.375.375,0,0,1,.518-.112"/><path class="cls-1" d="M8.7,6.144a.374.374,0,0,1-.111-.518"/><path class="cls-1" d="M9.221,6.032a.376.376,0,0,1-.519.112"/><path class="cls-1" d="M9.109,5.514a.375.375,0,0,1,.112.518"/><path class="cls-1" d="M12.054,7.909c7.2,4.493,8.76,11.5,9.529,15.341"/><path class="cls-1" d="M11.083,12.75a5.875,5.875,0,0,0,5.25-1.5c2.25-2.25.75-5.25.75-5.25"/><path class="cls-1" d="M12.779,15.3a5.875,5.875,0,0,0,5.437-.5c2.629-1.793,1.712-5.019,1.712-5.019"/><path class="cls-1" d="M14.659,18.78a5.874,5.874,0,0,0,5.459-.123c2.746-1.608,2.053-4.89,2.053-4.89"/></svg>