<svg id="Regular" xmlns="http://www.w3.org/2000/svg" viewBox="0 0 24 24"><defs><style>.cls-1{fill:none;stroke:currentColor;stroke-linecap:round;stroke-linejoin:round;stroke-width:1.5px;}</style></defs><title>peacock-feathers</title><path class="cls-1" d="M15.385,8.375a3.375,3.375,0,0,1-6.75,0C8.635,5,11.635,2,12.01,2S15.385,5,15.385,8.375Z"/><path class="cls-1" d="M12.01,8a.375.375,0,0,1,.375.375"/><path class="cls-1" d="M11.635,8.375A.375.375,0,0,1,12.01,8"/><path class="cls-1" d="M12.01,8.75a.375.375,0,0,1-.375-.375"/><path class="cls-1" d="M12.385,8.375a.375.375,0,0,1-.375.375"/><path class="cls-1" d="M7.77,13.987A3.375,3.375,0,0,1,3,18.76C.611,16.374.611,12.131.876,11.866S5.384,11.6,7.77,13.987Z"/><path class="cls-1" d="M5.119,16.109a.374.374,0,0,1,.53,0"/><path class="cls-1" d="M5.119,16.639a.374.374,0,0,1,0-.53"/><path class="cls-1" d="M5.649,16.639a.375.375,0,0,1-.53,0"/><path class="cls-1" d="M5.649,16.109a.375.375,0,0,1,0,.53"/><path class="cls-1" d="M16.25,13.987a3.375,3.375,0,0,0,4.773,4.773c2.386-2.386,2.386-6.629,2.121-6.894S18.636,11.6,16.25,13.987Z"/><path class="cls-1" d="M18.9,16.109a.374.374,0,0,0-.53,0"/><path class="cls-1" d="M18.9,16.639a.374.374,0,0,0,0-.53"/><path class="cls-1" d="M18.371,16.639a.375.375,0,0,0,.53,0"/><path class="cls-1" d="M18.371,16.109a.375.375,0,0,0,0,.53"/><path class="cls-1" d="M21.938,8.438c1.956-2.751,1.249-6.934.943-7.151-.265-.189-3.454.319-5.569,2.257"/><path class="cls-1" d="M19.54,6.259a.376.376,0,0,0-.506.161"/><path class="cls-1" d="M19.7,6.765a.376.376,0,0,0-.16-.506"/><path class="cls-1" d="M19.2,6.925a.374.374,0,0,0,.5-.16"/><path class="cls-1" d="M19.034,6.42a.375.375,0,0,0,.161.5"/><path class="cls-1" d="M2.082,8.438C.126,5.687.833,1.5,1.139,1.287,1.4,1.1,4.593,1.606,6.708,3.544"/><path class="cls-1" d="M4.48,6.259a.376.376,0,0,1,.506.161"/><path class="cls-1" d="M4.32,6.765a.375.375,0,0,1,.16-.506"/><path class="cls-1" d="M4.825,6.925a.374.374,0,0,1-.5-.16"/><path class="cls-1" d="M4.986,6.42a.375.375,0,0,1-.161.5"/><polyline class="cls-1" points="7.77 18.76 12.01 23 16.25 18.76"/><line class="cls-1" x1="12.01" y1="23" x2="12.01" y2="11.75"/></svg>