<svg id="Regular" xmlns="http://www.w3.org/2000/svg" viewBox="0 0 24 24"><defs><style>.cls-1{fill:none;stroke:currentColor;stroke-linecap:round;stroke-linejoin:round;stroke-width:1.5px;}</style></defs><title>peacock-feathers-up</title><path class="cls-1" d="M14.26,8.875A2.19,2.19,0,0,1,12.01,11c-1.243,0-4.5-2.125-4.5-2.125s3.257-2.125,4.5-2.125A2.19,2.19,0,0,1,14.26,8.875Z"/><path class="cls-1" d="M13.179,10.691A17.092,17.092,0,0,1,15.01,17.25a3,3,0,0,1-6,0,17.1,17.1,0,0,1,1.83-6.558"/><line class="cls-1" x1="10.598" y1="19.898" x2="9.76" y2="23.25"/><line class="cls-1" x1="9.01" y1="23.25" x2="10.51" y2="23.25"/><line class="cls-1" x1="13.422" y1="19.898" x2="14.26" y2="23.25"/><line class="cls-1" x1="13.51" y1="23.25" x2="15.01" y2="23.25"/><path class="cls-1" d="M18.01,18.75H21a11.25,11.25,0,1,0-17.97,0H6.01"/><line class="cls-1" x1="0.777" y1="12.628" x2="6.01" y2="13.5"/><line class="cls-1" x1="8.213" y1="1.407" x2="9.76" y2="4.5"/><line class="cls-1" x1="2.648" y1="5.759" x2="5.26" y2="7.5"/><line class="cls-1" x1="23.243" y1="12.628" x2="18.01" y2="13.5"/><line class="cls-1" x1="15.807" y1="1.407" x2="14.26" y2="4.5"/><line class="cls-1" x1="21.371" y1="5.759" x2="16.51" y2="9"/></svg>