<svg id="Regular" xmlns="http://www.w3.org/2000/svg" viewBox="0 0 24 24"><defs><style>.cls-1{fill:none;stroke:currentColor;stroke-linecap:round;stroke-linejoin:round;stroke-width:1.5px;}</style></defs><title>peacock-feathers-up-1</title><path class="cls-1" d="M15.707,11.187a3.847,3.847,0,0,0-.1-1.814,3.7,3.7,0,0,0-2.565-2.489,3.753,3.753,0,0,0-4.725,4.18,5.542,5.542,0,0,1-.645,4.019A5.247,5.247,0,1,0,17.271,18a5.157,5.157,0,0,0-.816-2.793A5.519,5.519,0,0,1,15.707,11.187Z"/><line class="cls-1" x1="12.021" y1="12" x2="12.021" y2="13.5"/><path class="cls-1" d="M6.818,17.3,1.633,11.469A2.95,2.95,0,0,1,.9,9.01C1.729,4.333,6.392.75,12.021.75s10.292,3.583,11.12,8.26a2.957,2.957,0,0,1-.731,2.459L17.225,17.3"/><line class="cls-1" x1="3.532" y1="4.102" x2="5.973" y2="8.17"/><line class="cls-1" x1="8.22" y1="1.321" x2="9.136" y2="4.528"/><line class="cls-1" x1="20.51" y1="4.102" x2="18.069" y2="8.17"/><line class="cls-1" x1="15.822" y1="1.321" x2="14.906" y2="4.528"/></svg>