<svg id="Regular" xmlns="http://www.w3.org/2000/svg" viewBox="0 0 24 24"><defs><style>.cls-1{fill:none;stroke:currentColor;stroke-linecap:round;stroke-linejoin:round;stroke-width:1.5px;}</style></defs><title>pelican</title><path class="cls-1" d="M.75,21.75c1.5,0,2.25,1.5,3.75,1.5s2.25-1.5,3.75-1.5,2.25,1.5,3.75,1.5,2.25-1.5,3.75-1.5,2.25,1.5,3.75,1.5,2.25-1.5,3.75-1.5"/><path class="cls-1" d="M11.25,14.25,15.341,4.024a1.5,1.5,0,0,0-.531-1.785A7.71,7.71,0,0,0,10.5.75,3.742,3.742,0,0,0,6.75,3l-6,3.75S.75,12,5.25,12,10.5,7.5,10.5,7.5"/><line class="cls-1" x1="0.811" y1="7.5" x2="6" y2="7.5"/><path class="cls-1" d="M12.44,11.275l7.749-.775s0,7.5-6.75,7.5"/><path class="cls-1" d="M20.021,12.042l3.168-.792s.75,6.75-3,8.25"/><path class="cls-1" d="M8.159,11.177,7.5,12s-3,3.75-.75,7.5"/><path class="cls-1" d="M10.875,3.75a.375.375,0,0,1,.375.375"/><path class="cls-1" d="M10.5,4.125a.375.375,0,0,1,.375-.375"/><path class="cls-1" d="M10.875,4.5a.375.375,0,0,1-.375-.375"/><path class="cls-1" d="M11.25,4.125a.375.375,0,0,1-.375.375"/></svg>