<svg xmlns="http://www.w3.org/2000/svg" viewBox="0 0 24 24"><defs><style>.a{fill:none;stroke:currentColor;stroke-linecap:round;stroke-linejoin:round;stroke-width:1.5px;}</style></defs><title>people-man-5</title><circle class="a" cx="12" cy="9" r="5.25"/><path class="a" d="M7.476,6.334A8.722,8.722,0,0,0,17.2,8.289"/><path class="a" d="M8.25,17.249V18a3.75,3.75,0,0,0,7.5,0v-.751"/><path class="a" d="M21.279,23.25a9.753,9.753,0,0,0-18.558,0"/><path class="a" d="M3.75,10.5a.75.75,0,0,0,.75.75H6.75V6.75H4.5a.75.75,0,0,0-.75.75Z"/><path class="a" d="M19.5,11.25H17.25V6.75H19.5a.75.75,0,0,1,.75.75v3A.75.75,0,0,1,19.5,11.25Z"/><path class="a" d="M18.708,6.75a6.75,6.75,0,0,0-13.416,0"/></svg>