<svg xmlns="http://www.w3.org/2000/svg" viewBox="0 0 24 24"><defs><style>.a{fill:none;stroke:currentColor;stroke-linecap:round;stroke-linejoin:round;stroke-width:1.5px;}</style></defs><title>people-woman-glasses-3</title><circle class="a" cx="11.973" cy="6" r="5.25"/><path class="a" d="M5.973,6.75c4.5-2,7.5-2,12,0"/><path class="a" d="M6.776,6.75S6.723,10.5,3.723,12"/><path class="a" d="M17.17,6.75s.053,3.75,3.053,5.25"/><path class="a" d="M8.825,13.982a10.4,10.4,0,0,0-2.746,1.334L7.473,19.5l4.5-3Z"/><path class="a" d="M15.121,13.982,11.973,16.5l4.5,3,1.394-4.184A10.4,10.4,0,0,0,15.121,13.982Z"/><path class="a" d="M22.446,23.25a10.508,10.508,0,0,0-7.325-9.27v0L11.973,16.5,8.825,13.982v0A10.508,10.508,0,0,0,1.5,23.25"/></svg>