<svg xmlns="http://www.w3.org/2000/svg" viewBox="0 0 24 24"><defs><style>.a{fill:none;stroke:currentColor;stroke-linecap:round;stroke-linejoin:round;stroke-width:1.5px;}</style></defs><title>people-woman-ribbon</title><path class="a" d="M21.449,23.25a10.484,10.484,0,0,0-18.953,0"/><path class="a" d="M6.776,11.25a5.25,5.25,0,0,0,10.393,0"/><path class="a" d="M3.723,10.5v.576a4.5,4.5,0,0,1-.364,1.773l-1.376,3.21a1.5,1.5,0,0,0,.762,1.961,14.607,14.607,0,0,0,3.391,1.007"/><path class="a" d="M17.809,19.027A14.607,14.607,0,0,0,21.2,18.02a1.5,1.5,0,0,0,.762-1.961l-1.376-3.21a4.5,4.5,0,0,1-.363-1.773V10.5"/><path class="a" d="M17.677.811,13.861,3.278a2.244,2.244,0,0,1,0,2.443l3.815,2.467A.75.75,0,0,0,18.723,7.5v-6A.75.75,0,0,0,17.677.811Z"/><path class="a" d="M9.723,4.5a2.231,2.231,0,0,1,.361-1.222L6.268.811A.75.75,0,0,0,5.223,1.5v6a.75.75,0,0,0,1.045.689l3.815-2.467A2.238,2.238,0,0,1,9.723,4.5Z"/><circle class="a" cx="11.973" cy="4.5" r="2.25"/><line class="a" x1="9.723" y1="23.25" x2="7.148" y2="18.416"/><line class="a" x1="14.223" y1="23.25" x2="16.797" y2="18.416"/></svg>