<svg xmlns="http://www.w3.org/2000/svg" viewBox="0 0 24 24"><defs><style>.a{fill:none;stroke:currentColor;stroke-linecap:round;stroke-linejoin:round;stroke-width:1.5px;}</style></defs><title>people-woman-10</title><path class="a" d="M8.825,13.982a10.4,10.4,0,0,0-2.746,1.334L7.473,19.5l4.5-3Z"/><path class="a" d="M15.121,13.982,11.973,16.5l4.5,3,1.394-4.184A10.4,10.4,0,0,0,15.121,13.982Z"/><path class="a" d="M22.446,23.25a10.508,10.508,0,0,0-7.325-9.27v0L11.973,16.5,8.825,13.982v0A10.508,10.508,0,0,0,1.5,23.25"/><path class="a" d="M6.727,5.808A3.353,3.353,0,0,0,8.6,6.374c1.864,0,3.938-1.875,3.938-2.625"/><path class="a" d="M11.973.749a5.25,5.25,0,1,0,3.963,8.693"/><path class="a" d="M11.973.749c0,5.25,4.5,6.75,4.5,11.25,0,0,1.5-.75,1.5-6C17.973,1.5,14.223.749,11.973.749Z"/></svg>