<svg xmlns="http://www.w3.org/2000/svg" viewBox="0 0 24 24"><defs><style>.a{fill:none;stroke:currentColor;stroke-linecap:round;stroke-linejoin:round;stroke-width:1.5px;}</style></defs><title>people-woman-cap-3</title><circle class="a" cx="12" cy="6" r="5.25"/><line class="a" x1="6.804" y1="6.75" x2="17.197" y2="6.75"/><line class="a" x1="11.25" y1="3.75" x2="12.75" y2="3.75"/><line class="a" x1="11.25" y1="17.24" x2="11.25" y2="23.25"/><path class="a" d="M15.375,19.5a.375.375,0,1,0,.375.375.375.375,0,0,0-.375-.375h0"/><path class="a" d="M15.673,14.171a3.75,3.75,0,0,1-7.4,0"/><path class="a" d="M6.8,6.75S6.75,10.5,3.75,12"/><path class="a" d="M17.2,6.75S17.25,10.5,20.25,12"/><path class="a" d="M22.446,23.25a10.5,10.5,0,0,0-20.946,0"/></svg>