<svg xmlns="http://www.w3.org/2000/svg" viewBox="0 0 24 24"><defs><style>.a{fill:none;stroke:currentColor;stroke-linecap:round;stroke-linejoin:round;stroke-width:1.5px;}</style></defs><title>people-woman-8</title><path class="a" d="M21.449,23.25a10.483,10.483,0,0,0-18.952,0"/><line class="a" x1="14.223" y1="23.25" x2="16.257" y2="18.164"/><line class="a" x1="7.689" y1="18.164" x2="9.723" y2="23.25"/><polyline class="a" points="17.223 7.5 17.223 9.75 6.723 9.75 6.723 7.5"/><path class="a" d="M6.777,9.75a5.25,5.25,0,1,0,10.446.75,5.142,5.142,0,0,0-.054-.75Z"/><line class="a" x1="14.223" y1="9.75" x2="14.223" y2="8.25"/><line class="a" x1="9.723" y1="9.75" x2="9.723" y2="8.25"/><circle class="a" cx="17.223" cy="3" r="2.25"/><path class="a" d="M20.223,21.274V9a8.228,8.228,0,0,0-.311-2.25"/><path class="a" d="M13.473.886A8.257,8.257,0,0,0,3.723,9V21.274"/></svg>