<svg xmlns="http://www.w3.org/2000/svg" viewBox="0 0 24 24"><defs><style>.a{fill:none;stroke:currentColor;stroke-linecap:round;stroke-linejoin:round;stroke-width:1.5px;}</style></defs><title>people-woman-glasses-1</title><path class="a" d="M21.449,23.25a10.483,10.483,0,0,0-18.952,0"/><line class="a" x1="14.223" y1="23.25" x2="16.257" y2="18.164"/><line class="a" x1="7.689" y1="18.164" x2="9.723" y2="23.25"/><path class="a" d="M11.973,5.25s-1.433,3.6-5.031,3.745A5.25,5.25,0,1,0,17,8.995C13.407,8.847,11.973,5.25,11.973,5.25Z"/><path class="a" d="M17.809,19.027A14.652,14.652,0,0,0,21.2,18.02a1.5,1.5,0,0,0,.762-1.961l-1.376-3.21a4.505,4.505,0,0,1-.364-1.774V9a8.218,8.218,0,0,0-1.987-5.37"/><path class="a" d="M5.711,3.63A8.213,8.213,0,0,0,3.723,9v2.075a4.505,4.505,0,0,1-.364,1.774l-1.376,3.21a1.5,1.5,0,0,0,.763,1.961,14.625,14.625,0,0,0,3.391,1.007"/><line class="a" x1="12.723" y1="0.75" x2="11.223" y2="0.75"/><path class="a" d="M11.223.75h-6a3.342,3.342,0,0,0,1.5,3.75C8.562,5.017,10.646,4.282,11.223.75Z"/><path class="a" d="M12.723.75h6a3.342,3.342,0,0,1-1.5,3.75C15.384,5.017,13.3,4.282,12.723.75Z"/></svg>