<svg xmlns="http://www.w3.org/2000/svg" viewBox="0 0 24 24"><defs><style>.a{fill:none;stroke:currentColor;stroke-linecap:round;stroke-linejoin:round;stroke-width:1.5px;}</style></defs><title>people-man-beard-2</title><path class="a" d="M7.477,3.334A8.711,8.711,0,0,0,13.751,6,8.709,8.709,0,0,0,17.2,5.289"/><path class="a" d="M17.25,6v5.25a5.25,5.25,0,0,1-10.5,0V6a5.25,5.25,0,1,1,10.5,0Z"/><path class="a" d="M17.251,6.75c0,1.522-1.215,4.683-2.25,5.25-.937.512-1.622-1.5-3-1.5S9.938,12.512,9,12c-1.035-.567-2.25-3.728-2.25-5.25"/><path class="a" d="M21.635,23.25a9.763,9.763,0,0,0-6.55-7.752"/><path class="a" d="M8.915,15.5a9.763,9.763,0,0,0-6.55,7.752"/><line class="a" x1="12.115" y1="23.25" x2="12.115" y2="16.5"/><line class="a" x1="15.115" y1="21.75" x2="18.115" y2="21.75"/></svg>