<svg xmlns="http://www.w3.org/2000/svg" viewBox="0 0 24 24"><defs><style>.a{fill:none;stroke:currentColor;stroke-linecap:round;stroke-linejoin:round;stroke-width:1.5px;}</style></defs><title>peopleman-moustache-2</title><path class="a" d="M2.25,23.25a9.73,9.73,0,0,1,3.659-7.614"/><path class="a" d="M7.691,9a5.25,5.25,0,1,1,8.618,0"/><path class="a" d="M6.871,4.875H9a3.743,3.743,0,0,0,3-1.5,3.743,3.743,0,0,0,3,1.5h2.129"/><path class="a" d="M11.25,9c1.1,2.343-2.968,3.411-5.4,2.53C6.729,9.1,10.152,6.657,11.25,9Z"/><path class="a" d="M12.75,9c-1.1,2.343,2.968,3.411,5.4,2.53C17.271,9.1,13.848,6.657,12.75,9Z"/><path class="a" d="M21.75,23.25a9.73,9.73,0,0,0-3.659-7.614"/><path class="a" d="M15,14.25c0,3.812-3,4.5-3,4.5s-3-.688-3-4.5"/></svg>