<svg xmlns="http://www.w3.org/2000/svg" viewBox="0 0 24 24"><defs><style>.a{fill:none;stroke:currentColor;stroke-linecap:round;stroke-linejoin:round;stroke-width:1.5px;}</style></defs><title>people-man-10</title><path class="a" d="M8.251,17.249V18a3.75,3.75,0,0,0,7.5,0v-.751"/><path class="a" d="M21.28,23.25a9.753,9.753,0,0,0-18.558,0"/><path class="a" d="M12,7.5c-1.97,0-3,1.5-5.1.249a5.251,5.251,0,1,0,10.2,0C15,9,13.97,7.5,12,7.5Z"/><path class="a" d="M17.1,7.749l.118-5.467A1.5,1.5,0,0,0,15.718.75H8.283a1.5,1.5,0,0,0-1.5,1.532L6.9,7.749"/><line class="a" x1="9.751" y1="0.75" x2="9.751" y2="3.75"/><line class="a" x1="14.251" y1="0.75" x2="14.251" y2="3.75"/></svg>