<svg xmlns="http://www.w3.org/2000/svg" viewBox="0 0 24 24"><defs><style>.a{fill:none;stroke:currentColor;stroke-linecap:round;stroke-linejoin:round;stroke-width:1.5px;}</style></defs><title>people-woman-beanie</title><circle class="a" cx="11.973" cy="7.5" r="5.25"/><line class="a" x1="5.973" y1="8.25" x2="17.973" y2="8.25"/><path class="a" d="M11.973.75a.375.375,0,1,0,.375.375A.375.375,0,0,0,11.973.75h0"/><path class="a" d="M14.914,18.75a2.25,2.25,0,1,0,0-4.5h-6a2.25,2.25,0,0,0,0,4.5Z"/><line class="a" x1="8.223" y1="18.75" x2="8.223" y2="23.25"/><line class="a" x1="11.223" y1="18.75" x2="11.223" y2="23.25"/><path class="a" d="M21.608,23.25A9.763,9.763,0,0,0,17.166,16.5"/><path class="a" d="M6.7,16.55a9.757,9.757,0,0,0-4.357,6.7"/><path class="a" d="M6.776,8.25s.7,2.25-2.3,3.75"/><path class="a" d="M17.17,8.25s-.7,2.25,2.3,3.75"/></svg>