<svg xmlns="http://www.w3.org/2000/svg" viewBox="0 0 24 24"><defs><style>.a{fill:none;stroke:currentColor;stroke-linecap:round;stroke-linejoin:round;stroke-width:1.5px;}</style></defs><title>people-man-8</title><circle class="a" cx="12" cy="6" r="5.25"/><path class="a" d="M7.491,3.35A8.712,8.712,0,0,0,13.75,6a8.7,8.7,0,0,0,3.429-.7"/><path class="a" d="M2.25,23.25A9.756,9.756,0,0,1,9,13.97l3,2.53,3-2.53a9.753,9.753,0,0,1,6.751,9.28"/><path class="a" d="M17.654,15.306A9.71,9.71,0,0,0,15,13.97L12,16.5l4.5,3Z"/><path class="a" d="M12,16.5,9,13.97a9.726,9.726,0,0,0-2.653,1.336L7.5,19.5Z"/><line class="a" x1="12" y1="23.25" x2="12" y2="16.5"/><line class="a" x1="15" y1="22.5" x2="18" y2="22.5"/></svg>