<svg xmlns="http://www.w3.org/2000/svg" viewBox="0 0 24 24"><defs><style>.a{fill:none;stroke:currentColor;stroke-linecap:round;stroke-linejoin:round;stroke-width:1.5px;}</style></defs><title>people-woman-12</title><path class="a" d="M17.809,19.026A14.584,14.584,0,0,0,21.2,18.02a1.5,1.5,0,0,0,.763-1.961l-1.376-3.21a4.5,4.5,0,0,1-.364-1.773V9a8.25,8.25,0,1,0-16.5,0v2.076a4.5,4.5,0,0,1-.364,1.773l-1.376,3.21a1.5,1.5,0,0,0,.763,1.961,14.584,14.584,0,0,0,3.391,1.006"/><path class="a" d="M8.825,17.732a10.4,10.4,0,0,0-2.746,1.334L7.473,23.25l4.5-3Z"/><path class="a" d="M15.121,17.732,11.973,20.25l4.5,3,1.394-4.184A10.4,10.4,0,0,0,15.121,17.732Z"/><path class="a" d="M2.5,23.25a10.573,10.573,0,0,1,3.582-4.184,10.4,10.4,0,0,1,2.746-1.334l3.148,2.518,3.148-2.518a10.4,10.4,0,0,1,2.746,1.334,10.573,10.573,0,0,1,3.582,4.184"/><polyline class="a" points="17.223 7.5 17.223 9.75 6.723 9.75 6.723 7.5"/><path class="a" d="M6.777,9.75a5.142,5.142,0,0,0-.054.75,5.25,5.25,0,0,0,10.5,0,5.142,5.142,0,0,0-.054-.75Z"/><line class="a" x1="14.223" y1="9.75" x2="14.223" y2="8.25"/><line class="a" x1="9.723" y1="9.75" x2="9.723" y2="8.25"/></svg>