<svg xmlns="http://www.w3.org/2000/svg" viewBox="0 0 24 24"><defs><style>.a{fill:none;stroke:currentColor;stroke-linecap:round;stroke-linejoin:round;stroke-width:1.5px;}</style></defs><title>people-woman-1</title><path class="a" d="M17.809,19.026A14.584,14.584,0,0,0,21.2,18.02a1.5,1.5,0,0,0,.763-1.961l-1.376-3.21a4.5,4.5,0,0,1-.364-1.773V9a8.25,8.25,0,1,0-16.5,0v2.076a4.5,4.5,0,0,1-.364,1.773l-1.375,3.21a1.5,1.5,0,0,0,.762,1.961,14.584,14.584,0,0,0,3.391,1.006"/><path class="a" d="M21.449,23.25a10.483,10.483,0,0,0-18.952,0"/><line class="a" x1="14.223" y1="23.25" x2="16.257" y2="18.164"/><line class="a" x1="7.689" y1="18.164" x2="9.723" y2="23.25"/><path class="a" d="M11.973,5.25s-1.433,3.6-5.031,3.745A5.25,5.25,0,1,0,17,8.995C13.407,8.847,11.973,5.25,11.973,5.25Z"/></svg>