<svg xmlns="http://www.w3.org/2000/svg" viewBox="0 0 24 24"><defs><style>.a{fill:none;stroke:currentColor;stroke-linecap:round;stroke-linejoin:round;stroke-width:1.5px;}</style></defs><title>people-man-beard-3</title><path class="a" d="M17.25,6v5.25a5.25,5.25,0,0,1-10.5,0V6a5.25,5.25,0,1,1,10.5,0Z"/><path class="a" d="M17.654,17.556A9.71,9.71,0,0,0,15,16.22l-3,2.53L16.5,21Z"/><path class="a" d="M12,18.75,9,16.22a9.726,9.726,0,0,0-2.653,1.336L7.5,21Z"/><path class="a" d="M21.489,23.25A9.768,9.768,0,0,0,15,16.22l-3,2.53L9,16.22a9.769,9.769,0,0,0-6.488,7.03"/><line class="a" x1="6" y1="6.75" x2="18" y2="6.75"/><path class="a" d="M17.25,6.75c0,1.522-1.215,4.683-2.25,5.25-.937.512-1.622-1.5-3-1.5S9.937,12.512,9,12c-1.035-.567-2.25-3.728-2.25-5.25"/></svg>