<svg xmlns="http://www.w3.org/2000/svg" viewBox="0 0 24 24"><defs><style>.a{fill:none;stroke:currentColor;stroke-linecap:round;stroke-linejoin:round;stroke-width:1.5px;}</style></defs><title>people-woman-glasses-6</title><path class="a" d="M17.809,19.026A14.616,14.616,0,0,0,21.2,18.02a1.5,1.5,0,0,0,.762-1.961l-1.375-3.21a4.486,4.486,0,0,1-.364-1.773V9a8.25,8.25,0,1,0-16.5,0v2.076a4.5,4.5,0,0,1-.364,1.773l-1.376,3.21a1.5,1.5,0,0,0,.762,1.961,14.616,14.616,0,0,0,3.391,1.006"/><path class="a" d="M21.449,23.25a10.483,10.483,0,0,0-18.952,0"/><line class="a" x1="14.223" y1="23.25" x2="16.257" y2="18.164"/><line class="a" x1="7.688" y1="18.164" x2="9.723" y2="23.25"/><path class="a" d="M17.169,9.75A5.256,5.256,0,0,0,17,8.995a5.152,5.152,0,0,1-3.042-1.144,7.033,7.033,0,0,1-1.988-2.6,7.043,7.043,0,0,1-1.989,2.6A5.149,5.149,0,0,1,6.942,8.995a5.256,5.256,0,0,0-.166.755"/><path class="a" d="M7.705,13.558a5.25,5.25,0,0,0,8.535,0"/><path class="a" d="M11.973,9.75h-6a3.342,3.342,0,0,0,1.5,3.75C9.312,14.017,11.4,13.282,11.973,9.75Z"/><path class="a" d="M11.973,9.75h6a3.344,3.344,0,0,1-1.5,3.75C14.634,14.017,12.549,13.282,11.973,9.75Z"/></svg>