<svg xmlns="http://www.w3.org/2000/svg" viewBox="0 0 24 24"><defs><style>.a{fill:none;stroke:currentColor;stroke-linecap:round;stroke-linejoin:round;stroke-width:1.5px;}</style></defs><title>people-man-4</title><path class="a" d="M8.25,17.226v.751a3.75,3.75,0,0,0,7.5,0v-.751"/><path class="a" d="M8.594,4.982a5.25,5.25,0,1,0,6.812,0"/><path class="a" d="M14.25,2.977a3,3,0,0,1-2.893-2.2A3.286,3.286,0,0,0,8.25,3.727c0,1.657,1.679,3,3.75,3s3.75-1.343,3.75-3a.75.75,0,0,0-.75-.75Z"/><path class="a" d="M21.279,23.227a9.753,9.753,0,0,0-18.558,0"/></svg>