<svg xmlns="http://www.w3.org/2000/svg" viewBox="0 0 24 24"><defs><style>.a{fill:none;stroke:currentColor;stroke-linecap:round;stroke-linejoin:round;stroke-width:1.5px;}</style></defs><title>people-woman-7</title><path class="a" d="M3.724,10.5a.75.75,0,0,0,.75.75h2.25V6.75H4.474a.75.75,0,0,0-.75.75Z"/><path class="a" d="M19.474,11.25h-2.25V6.75h2.25a.75.75,0,0,1,.75.75v3A.75.75,0,0,1,19.474,11.25Z"/><path class="a" d="M18.682,6.75a6.75,6.75,0,0,0-13.416,0"/><path class="a" d="M8.224,17.189V18a3.75,3.75,0,0,0,7.5,0v-.811"/><path class="a" d="M6.728,8.808A3.349,3.349,0,0,0,8.6,9.375,3.744,3.744,0,0,0,11.974,6.75a3.744,3.744,0,0,0,3.375,2.625,3.346,3.346,0,0,0,1.871-.567"/><circle class="a" cx="11.974" cy="9" r="5.25"/><path class="a" d="M21.784,23.25a10.5,10.5,0,0,0-19.619,0"/><path class="a" d="M6.724,11.25a5.329,5.329,0,0,1-3,4.5"/><path class="a" d="M17.224,11.25a5.329,5.329,0,0,0,3,4.5"/></svg>