<svg xmlns="http://www.w3.org/2000/svg" viewBox="0 0 24 24"><defs><style>.a{fill:none;stroke:currentColor;stroke-linecap:round;stroke-linejoin:round;stroke-width:1.5px;}</style></defs><title>people-woman-glasses-2</title><path class="a" d="M11.354,5.25s-1.433,3.6-5.031,3.745a5.25,5.25,0,1,0,10.062,0C12.788,8.847,11.354,5.25,11.354,5.25Z"/><path class="a" d="M15.029,14.249A4.575,4.575,0,0,0,19.6,9.674v-.32A8.49,8.49,0,0,0,12.163.788,8.252,8.252,0,0,0,3.1,9v2.25a1.5,1.5,0,0,0,1.5,1.5H6.61"/><ellipse class="a" cx="4.604" cy="15" rx="1.5" ry="2.25"/><path class="a" d="M6.1,18.75c0,.828-1.5,3-1.5,3s-1.5-2.172-1.5-3a1.5,1.5,0,0,1,3,0Z"/><path class="a" d="M8.643,21.4a3.75,3.75,0,0,0,6.4-2.651v-.834"/><path class="a" d="M20.83,23.25h.013A10.511,10.511,0,0,0,9.1,17.494"/></svg>