<svg xmlns="http://www.w3.org/2000/svg" viewBox="0 0 24 24"><defs><style>.a{fill:none;stroke:currentColor;stroke-linecap:round;stroke-linejoin:round;stroke-width:1.5px;}</style></defs><title>people-man-moustache-1</title><path class="a" d="M2.25,23.25A9.756,9.756,0,0,1,9,13.97l3,2.53,3-2.53a9.753,9.753,0,0,1,6.751,9.28"/><path class="a" d="M17.654,15.306A9.71,9.71,0,0,0,15,13.97L12,16.5l4.5,3Z"/><path class="a" d="M12,16.5,9,13.97a9.726,9.726,0,0,0-2.653,1.336L7.5,19.5Z"/><path class="a" d="M7.691,9a5.25,5.25,0,1,1,8.618,0"/><path class="a" d="M17.25,6h-3A3.75,3.75,0,0,1,10.5,2.25V.968"/><path class="a" d="M11.25,9c1.1,2.343-2.968,3.411-5.4,2.53C6.729,9.1,10.152,6.657,11.25,9Z"/><path class="a" d="M12.75,9c-1.1,2.343,2.968,3.411,5.4,2.53C17.271,9.1,13.848,6.657,12.75,9Z"/></svg>