<svg xmlns="http://www.w3.org/2000/svg" viewBox="0 0 24 24"><defs><style>.a{fill:none;stroke:currentColor;stroke-linecap:round;stroke-linejoin:round;stroke-width:1.5px;}</style></defs><title>people-woman-3</title><path class="a" d="M6.727,8.808A3.35,3.35,0,0,0,8.6,9.375,3.745,3.745,0,0,0,11.974,6.75a3.744,3.744,0,0,0,3.375,2.625,3.349,3.349,0,0,0,1.871-.567"/><circle class="a" cx="11.974" cy="9" r="5.25"/><path class="a" d="M17.224.75a3,3,0,0,0-3,3,2.963,2.963,0,0,0,.047.528A5.265,5.265,0,0,1,16.7,6.7a3.173,3.173,0,0,0,.529.047,3,3,0,0,0,0-6Z"/><path class="a" d="M6.724.75a3,3,0,0,1,3,3,2.963,2.963,0,0,1-.048.528A5.265,5.265,0,0,0,7.252,6.7a3.17,3.17,0,0,1-.528.047,3,3,0,0,1,0-6Z"/><path class="a" d="M8.224,17.189V18a3.75,3.75,0,0,0,7.5,0v-.811"/><path class="a" d="M21.783,23.25a10.5,10.5,0,0,0-19.619,0"/></svg>