<svg xmlns="http://www.w3.org/2000/svg" viewBox="0 0 24 24"><defs><style>.a{fill:none;stroke:currentColor;stroke-linecap:round;stroke-linejoin:round;stroke-width:1.5px;}</style></defs><title>performance-tablet-increase</title><path class="a" d="M23.25,20.985,21.76,18.75V13.5c0-2-3.8-4.14-5.25-5.25"/><path class="a" d="M18.44,14.793,14.792,11.87a1.3,1.3,0,0,0-1.843,1.843L16.482,17.7v2.5c0,1.181,1.688,3.045,1.688,3.045"/><path class="a" d="M13.51,21.75H2.134A1.375,1.375,0,0,1,.76,20.375V2.124A1.374,1.374,0,0,1,2.134.75h13A1.375,1.375,0,0,1,16.51,2.124V13.247"/><polyline class="a" points="9.76 3.75 12.76 3.75 12.76 6.75"/><line class="a" x1="12.76" y1="3.75" x2="3.76" y2="12"/><line class="a" x1="5.25" y1="15.75" x2="5.25" y2="18.75"/><line class="a" x1="8.25" y1="13.5" x2="8.25" y2="18.75"/></svg>