<svg xmlns="http://www.w3.org/2000/svg" viewBox="0 0 24 24"><defs><style>.a{fill:none;stroke:currentColor;stroke-linecap:round;stroke-linejoin:round;stroke-width:1.5px;}</style></defs><title>performance-presentation-cart</title><line class="a" x1="12" y1="0.75" x2="12" y2="2.188"/><rect class="a" x="0.75" y="2.188" width="22.5" height="15.75" rx="1" ry="1"/><line class="a" x1="12" y1="17.938" x2="12" y2="20.938"/><polyline class="a" points="8.922 23.247 12 20.938 15.079 23.248"/><polyline class="a" points="17.625 4.5 15.375 12 9.375 12 7.875 7.5 16.725 7.5"/><path class="a" d="M9.75,14.25a.375.375,0,1,1-.375.375.375.375,0,0,1,.375-.375"/><path class="a" d="M15,14.25a.375.375,0,1,1-.375.375A.375.375,0,0,1,15,14.25"/></svg>