<svg xmlns="http://www.w3.org/2000/svg" viewBox="0 0 24 24"><defs><style>.a{fill:none;stroke:currentColor;stroke-linecap:round;stroke-linejoin:round;stroke-width:1.5px;}</style></defs><title>performance-increase-mail</title><path class="a" d="M22.5,11.25v10.5a1.5,1.5,0,0,1-1.5,1.5H3a1.5,1.5,0,0,1-1.5-1.5V11.25"/><path class="a" d="M1.805,10.742l8.342,6.617a3,3,0,0,0,3.706,0L22.2,10.742"/><polyline class="a" points="18.584 5.048 19.5 1.665 16.118 0.75"/><path class="a" d="M19.5,1.665l-5.055,2.9a.778.778,0,0,1-1.063-.287L12.238,2.286A.778.778,0,0,0,11.176,2L6.6,4.626"/><path class="a" d="M17.25,14.664V8.25a.75.75,0,0,0-.75-.75H14.25a.75.75,0,0,0-.75.75V17.6"/><path class="a" d="M10.5,17.6V9.75A.75.75,0,0,0,9.75,9H7.5a.75.75,0,0,0-.75.75v4.914"/><line class="a" x1="1.5" y1="11.25" x2="3.75" y2="7.5"/><line class="a" x1="22.5" y1="11.25" x2="20.25" y2="7.5"/></svg>