<svg xmlns="http://www.w3.org/2000/svg" viewBox="0 0 24 24"><defs><style>.a{fill:none;stroke:currentColor;stroke-linecap:round;stroke-linejoin:round;stroke-width:1.5px;}</style></defs><title>performance-decrease</title><line class="a" x1="23.25" y1="23.25" x2="0.75" y2="23.25"/><path class="a" d="M18,17.25h3a.75.75,0,0,1,.75.75v5.25h-4.5V18A.75.75,0,0,1,18,17.25Z"/><path class="a" d="M10.5,12.75h3a.75.75,0,0,1,.75.75v9.75H9.75V13.5A.75.75,0,0,1,10.5,12.75Z"/><path class="a" d="M3,9.75H6a.75.75,0,0,1,.75.75V23.25H2.25V10.5A.75.75,0,0,1,3,9.75Z"/><line class="a" x1="4.5" y1="0.75" x2="20.568" y2="8.047"/><polyline class="a" points="19.374 4.866 20.568 8.047 17.387 9.241"/></svg>