<svg xmlns="http://www.w3.org/2000/svg" viewBox="0 0 24 24"><defs><style>.a{fill:none;stroke:currentColor;stroke-linecap:round;stroke-linejoin:round;stroke-width:1.5px;}</style></defs><title>performance-increase-2</title><line class="a" x1="0.75" y1="23.25" x2="22.5" y2="23.25"/><path class="a" d="M2.75,18.75H5.5a.5.5,0,0,1,.5.5v4a0,0,0,0,1,0,0H2.25a0,0,0,0,1,0,0v-4A.5.5,0,0,1,2.75,18.75Z"/><path class="a" d="M10.25,9.75H13a.5.5,0,0,1,.5.5v13a0,0,0,0,1,0,0H9.75a0,0,0,0,1,0,0v-13A.5.5,0,0,1,10.25,9.75Z"/><path class="a" d="M17.75,14.25H20.5a.5.5,0,0,1,.5.5v8.5a0,0,0,0,1,0,0H17.25a0,0,0,0,1,0,0v-8.5A.5.5,0,0,1,17.75,14.25Z"/><polyline class="a" points="21.75 5.25 21.75 0.75 17.25 0.75"/><path class="a" d="M21.75.75,16.7,5.8a2.249,2.249,0,0,1-2.237.564L8.754,4.838a2.251,2.251,0,0,0-2.172.583L.75,11.253"/></svg>