<svg xmlns="http://www.w3.org/2000/svg" viewBox="0 0 24 24"><defs><style>.a{fill:none;stroke:currentColor;stroke-linecap:round;stroke-linejoin:round;stroke-width:1.5px;}</style></defs><title>performance-decrease-1</title><line class="a" x1="23.25" y1="23.25" x2="0.75" y2="23.25"/><path class="a" d="M18,17.25h3a.75.75,0,0,1,.75.75v5.25h-4.5V18A.75.75,0,0,1,18,17.25Z"/><path class="a" d="M10.5,9.75h3a.75.75,0,0,1,.75.75V23.25H9.75V10.5A.75.75,0,0,1,10.5,9.75Z"/><path class="a" d="M3,12.75H6a.75.75,0,0,1,.75.75v9.75H2.25V13.5A.75.75,0,0,1,3,12.75Z"/><polyline class="a" points="23.25 6.753 23.25 11.253 18.75 11.253"/><path class="a" d="M23.25,11.253,18.2,6.2a2.249,2.249,0,0,0-2.237-.564L10.254,7.165a2.251,2.251,0,0,1-2.172-.583L2.25.75"/></svg>