<svg xmlns="http://www.w3.org/2000/svg" viewBox="0 0 24 24"><defs><style>.a{fill:none;stroke:currentColor;stroke-linecap:round;stroke-linejoin:round;stroke-width:1.5px;}</style></defs><title>performance-presentation-graph</title><path class="a" d="M3.75,11.7,5.583,9.866a.972.972,0,0,1,1.374,0L8.1,11.012a.972.972,0,0,0,1.374,0L12.2,8.291a.972.972,0,0,1,1.374,0l2.091,2.091a.972.972,0,0,0,1.374,0L20.25,7.2"/><line class="a" x1="11.808" y1="0.75" x2="11.808" y2="2.188"/><rect class="a" x="0.75" y="2.188" width="22.5" height="15.75" rx="1" ry="1"/><line class="a" x1="12" y1="17.938" x2="12" y2="20.938"/><polyline class="a" points="8.921 23.247 12 20.938 15.076 23.245"/></svg>