<svg xmlns="http://www.w3.org/2000/svg" viewBox="0 0 24 24"><defs><style>.a{fill:none;stroke:currentColor;stroke-linecap:round;stroke-linejoin:round;stroke-width:1.5px;}</style></defs><title>performance-phone-increase</title><polyline class="a" points="21.75 9.625 21.171 6.169 17.715 6.748"/><path class="a" d="M21.171,6.169l-3.384,4.745A.777.777,0,0,1,16.7,11.1l-1.87-1.333a.779.779,0,0,0-1.086.182l-3.064,4.3"/><path class="a" d="M15.75,14.992v5.25a3,3,0,0,1-3,3H5.25a3,3,0,0,1-3-3V3.742a3,3,0,0,1,3-3h7.5a3,3,0,0,1,3,3"/><line class="a" x1="2.25" y1="18.742" x2="15.75" y2="18.742"/></svg>