<svg xmlns="http://www.w3.org/2000/svg" viewBox="0 0 24 24"><defs><style>.a{fill:none;stroke:currentColor;stroke-linecap:round;stroke-linejoin:round;stroke-width:1.5px;}</style></defs><title>performance-graph-calculator</title><path class="a" d="M8.25,15.75H1.714a.952.952,0,0,1-.964-.938V1.687A.951.951,0,0,1,1.714.75H20.036A.951.951,0,0,1,21,1.687V5.25"/><path class="a" d="M15.375,17.25a.375.375,0,1,1-.375.375.375.375,0,0,1,.375-.375"/><path class="a" d="M19.125,17.25a.375.375,0,1,1-.375.375.375.375,0,0,1,.375-.375"/><path class="a" d="M15.375,20.25a.375.375,0,1,1-.375.375.375.375,0,0,1,.375-.375"/><path class="a" d="M19.125,20.25a.375.375,0,1,1-.375.375.375.375,0,0,1,.375-.375"/><path class="a" d="M20.25,13.75c0,.353-.214.5-.429.5H14.679c-.215,0-.428-.164-.428-.518V11.75c0-.354.214-.5.429-.5h5.142c.215,0,.429.146.429.5Z"/><rect class="a" x="11.25" y="8.25" width="12" height="15" rx="1.16" ry="1.16"/><polyline class="a" points="3.75 8.25 6 6 9 7.5 12.75 3.75"/><polyline class="a" points="10.5 3.75 12.75 3.75 12.75 6"/></svg>