<svg xmlns="http://www.w3.org/2000/svg" viewBox="0 0 24 24"><defs><style>.a{fill:none;stroke:currentColor;stroke-linecap:round;stroke-linejoin:round;stroke-width:1.5px;}</style></defs><title>performance-increase</title><line class="a" x1="0.75" y1="23.25" x2="23.25" y2="23.25"/><path class="a" d="M6,17.25H3a.75.75,0,0,0-.75.75v5.25h4.5V18A.75.75,0,0,0,6,17.25Z"/><path class="a" d="M13.5,12.75h-3a.75.75,0,0,0-.75.75v9.75h4.5V13.5A.75.75,0,0,0,13.5,12.75Z"/><path class="a" d="M21,9.75H18a.75.75,0,0,0-.75.75V23.25h4.5V10.5A.75.75,0,0,0,21,9.75Z"/><line class="a" x1="4.182" y1="9.241" x2="20.25" y2="1.944"/><polyline class="a" points="19.056 5.126 20.25 1.944 17.068 0.75"/></svg>