<svg xmlns="http://www.w3.org/2000/svg" viewBox="0 0 24 24"><defs><style>.a{fill:none;stroke:currentColor;stroke-linecap:round;stroke-linejoin:round;stroke-width:1.5px;}</style></defs><title>performance-user-graph</title><circle class="a" cx="5.25" cy="3.75" r="3"/><line class="a" x1="5.25" y1="8.25" x2="5.25" y2="14.25"/><path class="a" d="M7.5,23.25l.75-7.5h1.5v-3a4.5,4.5,0,0,0-9,0v3h1.5L3,23.25Z"/><path class="a" d="M12.75,14.25h9a1.5,1.5,0,0,0,1.5-1.5V2.25a1.5,1.5,0,0,0-1.5-1.5H11.25"/><polyline class="a" points="12 9 14.25 6.75 16.5 9 20.25 5.25"/><polyline class="a" points="17.25 5.25 20.25 5.25 20.25 8.25"/><line class="a" x1="15.75" y1="14.25" x2="15.75" y2="19.5"/><line class="a" x1="12.75" y1="19.5" x2="18.75" y2="19.5"/></svg>