<svg xmlns="http://www.w3.org/2000/svg" viewBox="0 0 24 24"><defs><style>.a{fill:none;stroke:currentColor;stroke-linecap:round;stroke-linejoin:round;stroke-width:1.5px;}</style></defs><title>perspective-grid</title><rect class="a" x="0.75" y="0.75" width="22.5" height="22.5" rx="1" ry="1"/><path class="a" d="M.75,10.532l2.1-1.94a7.906,7.906,0,0,1,9.285-1.055A7.906,7.906,0,0,0,21.65,6.263l1.6-1.6"/><path class="a" d="M.75,18.358l2.1-1.941a7.907,7.907,0,0,1,9.285-1.054,7.906,7.906,0,0,0,9.512-1.274l1.6-1.6"/><path class="a" d="M3.808.751A15.609,15.609,0,0,1,8.576,12a15.607,15.607,0,0,1-4.77,11.25"/><path class="a" d="M12.612.751a15.653,15.653,0,0,1,0,22.5"/></svg>