<svg id="Regular" xmlns="http://www.w3.org/2000/svg" viewBox="0 0 24 24"><defs><style>.cls-1{fill:none;stroke:currentColor;stroke-linecap:round;stroke-linejoin:round;stroke-width:1.5px;}</style></defs><title>pet-tracking-cat-location</title><path class="cls-1" d="M18.75,15.445a.375.375,0,0,1,.375.375"/><path class="cls-1" d="M18.375,15.82a.375.375,0,0,1,.375-.375"/><path class="cls-1" d="M18.75,16.2a.375.375,0,0,1-.375-.375"/><path class="cls-1" d="M19.125,15.82a.375.375,0,0,1-.375.375"/><path class="cls-1" d="M18.75,11.32a4.5,4.5,0,0,1,4.5,4.5c0,1.921-2.688,5.576-3.909,7.138a.751.751,0,0,1-1.182,0C16.938,21.4,14.25,17.741,14.25,15.82A4.5,4.5,0,0,1,18.75,11.32Z"/><path class="cls-1" d="M14.752,8.246H6a2.25,2.25,0,0,0,0,4.5h6"/><line class="cls-1" x1="6.75" y1="12.746" x2="6.75" y2="18.746"/><line class="cls-1" x1="4.571" y1="12.234" x2="3.75" y2="18.746"/><path class="cls-1" d="M4.362,8.953,1.682,6h0a3.181,3.181,0,0,1,0-4.5,2.546,2.546,0,0,1,3.6,0,2.037,2.037,0,0,1,0,2.88"/><path class="cls-1" d="M20.25,9.146a2.849,2.849,0,0,0,1.5-2.4V2.306a.75.75,0,0,0-1.219-.585L18.937,3a1.5,1.5,0,0,1-1.874,0L15.469,1.721a.75.75,0,0,0-1.219.585v4.44a2.849,2.849,0,0,0,1.5,2.4"/></svg>