<svg id="Regular" xmlns="http://www.w3.org/2000/svg" viewBox="0 0 24 24"><defs><style>.cls-1{fill:none;stroke:currentColor;stroke-linecap:round;stroke-linejoin:round;stroke-width:1.5px;}</style></defs><title>pet-tracking-cat-search</title><path class="cls-1" d="M14.752,8.25H6a2.25,2.25,0,0,0,0,4.5H8.25"/><line class="cls-1" x1="6.75" y1="12.75" x2="6.75" y2="18.75"/><line class="cls-1" x1="4.57" y1="12.238" x2="3.75" y2="18.75"/><path class="cls-1" d="M4.362,8.957,1.682,6h0a3.181,3.181,0,0,1,0-4.5,2.546,2.546,0,0,1,3.6,0,2.037,2.037,0,0,1,0,2.88"/><path class="cls-1" d="M20.25,9.15a2.848,2.848,0,0,0,1.5-2.4V2.311a.75.75,0,0,0-1.219-.586L18.937,3a1.5,1.5,0,0,1-1.874,0L15.469,1.725a.75.75,0,0,0-1.219.586V6.75a2.581,2.581,0,0,0,.625,1.659"/><circle class="cls-1" cx="15.75" cy="15.75" r="5.25"/><line class="cls-1" x1="23.25" y1="23.25" x2="19.462" y2="19.463"/></svg>