<svg id="Regular" xmlns="http://www.w3.org/2000/svg" viewBox="0 0 24 24"><defs><style>.cls-1{fill:none;stroke:currentColor;stroke-linecap:round;stroke-linejoin:round;stroke-width:1.5px;}</style></defs><title>pet-tracking-tablet</title><path class="cls-1" d="M16.5,15l-1.673-1.255a1.57,1.57,0,0,0-2.247.385h0a1.571,1.571,0,0,0,0,1.741l1.645,2.467A4.5,4.5,0,0,0,16.3,20.02L18.75,21v2.25"/><path class="cls-1" d="M15.75,9.75l3.595,1.541a4.5,4.5,0,0,1,2.364,2.364L22.886,16.4a4.508,4.508,0,0,1,.364,1.773V23.25"/><path class="cls-1" d="M15.75,14.438V3A2.25,2.25,0,0,0,13.5.75H3A2.25,2.25,0,0,0,.75,3V21A2.25,2.25,0,0,0,3,23.25H13.5A2.25,2.25,0,0,0,15.75,21V19.756"/><line class="cls-1" x1="13.5" y1="17.25" x2="0.75" y2="17.25"/><line class="cls-1" x1="8.25" y1="19.875" x2="8.25" y2="19.875"/><path class="cls-1" d="M8.625,20.25a.375.375,0,0,0-.375-.375"/><path class="cls-1" d="M8.25,20.625a.374.374,0,0,0,.375-.375"/><path class="cls-1" d="M7.875,20.25a.374.374,0,0,0,.375.375"/><path class="cls-1" d="M8.25,19.875a.375.375,0,0,0-.375.375"/><path class="cls-1" d="M8.25,6.343a.375.375,0,0,1,.375.375"/><path class="cls-1" d="M7.875,6.718a.375.375,0,0,1,.375-.375"/><path class="cls-1" d="M8.25,7.093a.375.375,0,0,1-.375-.375"/><path class="cls-1" d="M8.625,6.718a.375.375,0,0,1-.375.375"/><path class="cls-1" d="M5.25,7.843a.375.375,0,0,1,.375.375"/><path class="cls-1" d="M4.875,8.218a.375.375,0,0,1,.375-.375"/><path class="cls-1" d="M5.25,8.593a.375.375,0,0,1-.375-.375"/><path class="cls-1" d="M5.625,8.218a.375.375,0,0,1-.375.375"/><path class="cls-1" d="M11.25,7.843a.375.375,0,0,1,.375.375"/><path class="cls-1" d="M10.875,8.218a.375.375,0,0,1,.375-.375"/><path class="cls-1" d="M11.25,8.593a.375.375,0,0,1-.375-.375"/><path class="cls-1" d="M11.625,8.218a.375.375,0,0,1-.375.375"/><path class="cls-1" d="M8.78,10.281a.749.749,0,0,0-1.06,0L6.53,11.47a.751.751,0,0,0,.531,1.28H9.439a.751.751,0,0,0,.531-1.28Z"/></svg>