<svg id="Regular" xmlns="http://www.w3.org/2000/svg" viewBox="0 0 24 24"><defs><style>.cls-1{fill:none;stroke:currentColor;stroke-linecap:round;stroke-linejoin:round;stroke-width:1.5px;}</style></defs><title>pet-tracking-dog-location</title><path class="cls-1" d="M12,12H5.25a3,3,0,0,1-3-3V7.5a3,3,0,0,1,3-3H12.9a3.006,3.006,0,0,0,2.555-1.425,5.931,5.931,0,0,0,.456-.917A2.253,2.253,0,0,1,18,.75c1.5,0,2.25,1.758,2.25,3A.75.75,0,0,0,21,4.5h.75a1.5,1.5,0,0,1,0,3H19.5L18.347,9.113"/><path class="cls-1" d="M.75,2.25S.75,5.5,3.283,5.236"/><line class="cls-1" x1="3.75" y1="11.599" x2="3.75" y2="16.501"/><line class="cls-1" x1="6.75" y1="12.001" x2="6.75" y2="16.501"/><line class="cls-1" x1="18.488" y1="8.917" x2="14.105" y2="4.247"/><path class="cls-1" d="M18.75,15.376a.375.375,0,0,1,.375.375"/><path class="cls-1" d="M18.375,15.751a.375.375,0,0,1,.375-.375"/><path class="cls-1" d="M18.75,16.126a.375.375,0,0,1-.375-.375"/><path class="cls-1" d="M19.125,15.751a.375.375,0,0,1-.375.375"/><path class="cls-1" d="M18.75,11.251a4.5,4.5,0,0,1,4.5,4.5c0,1.92-2.688,5.576-3.909,7.137a.751.751,0,0,1-1.182,0c-1.221-1.562-3.909-5.218-3.909-7.138A4.5,4.5,0,0,1,18.75,11.251Z"/></svg>