<svg id="Regular" xmlns="http://www.w3.org/2000/svg" viewBox="0 0 24 24"><defs><style>.cls-1{fill:none;stroke:currentColor;stroke-linecap:round;stroke-linejoin:round;stroke-width:1.5px;}</style></defs><title>pet-tracking-dog-smartphone</title><path class="cls-1" d="M12,12H5.25a3,3,0,0,1-3-3V7.5a3,3,0,0,1,3-3H12.9a3.005,3.005,0,0,0,2.555-1.424,5.931,5.931,0,0,0,.456-.917A2.253,2.253,0,0,1,18,.75c1.5,0,2.25,1.758,2.25,3A.75.75,0,0,0,21,4.5h.75a1.5,1.5,0,0,1,0,3H19.5l-.615.86"/><path class="cls-1" d="M.75,2.25S.75,5.5,3.283,5.235"/><line class="cls-1" x1="3.75" y1="11.599" x2="3.75" y2="16.501"/><line class="cls-1" x1="6.75" y1="12" x2="6.75" y2="16.501"/><line class="cls-1" x1="16.976" y1="7.306" x2="14.105" y2="4.247"/><rect class="cls-1" x="15.75" y="11.251" width="7.5" height="12" rx="1" ry="1"/><path class="cls-1" d="M19.5,19.125a.375.375,0,0,1,.375.375"/><path class="cls-1" d="M19.125,19.5a.375.375,0,0,1,.375-.375"/><path class="cls-1" d="M19.5,19.875a.374.374,0,0,1-.375-.375"/><path class="cls-1" d="M19.875,19.5a.374.374,0,0,1-.375.375"/></svg>