<svg id="Regular" xmlns="http://www.w3.org/2000/svg" viewBox="0 0 24 24"><defs><style>.cls-1{fill:none;stroke:currentColor;stroke-linecap:round;stroke-linejoin:round;stroke-width:1.5px;}</style></defs><title>pet-tracking-dog-signal</title><path class="cls-1" d="M11.25,23.25,7.189,17.7c-.536-.537-1.105-.44-1.939-.44-2.485,0-4.5-.521-4.5-3.007v-1.5a1.5,1.5,0,0,1,1.5-1.5h3C5.712,9.4,6.4,7.962,8.25,7.5L9.75,3S13.5,3,13.5,8.25l9.6,8.061"/><line class="cls-1" x1="9.525" y1="20.892" x2="18.75" y2="12.659"/><line class="cls-1" x1="11.25" y1="23.25" x2="20.967" y2="14.52"/><path class="cls-1" d="M9.375,10.5a.375.375,0,0,1,.375.375"/><path class="cls-1" d="M9,10.875a.375.375,0,0,1,.375-.375"/><path class="cls-1" d="M9.375,11.25A.374.374,0,0,1,9,10.875"/><path class="cls-1" d="M9.75,10.875a.374.374,0,0,1-.375.375"/><path class="cls-1" d="M23.25,2.21a6.559,6.559,0,0,0-8.25,0"/><path class="cls-1" d="M16.719,4.771a3.828,3.828,0,0,1,4.812,0"/><path class="cls-1" d="M19.125,6.563a.375.375,0,0,1,.375.375"/><path class="cls-1" d="M18.75,6.938a.375.375,0,0,1,.375-.375"/><path class="cls-1" d="M19.125,7.313a.375.375,0,0,1-.375-.375"/><path class="cls-1" d="M19.5,6.938a.375.375,0,0,1-.375.375"/></svg>