<svg id="Regular" xmlns="http://www.w3.org/2000/svg" viewBox="0 0 24 24"><defs><style>.cls-1{fill:none;stroke:currentColor;stroke-linecap:round;stroke-linejoin:round;stroke-width:1.5px;}</style></defs><title>pet-tracking-cat-signal</title><path class="cls-1" d="M21.75,14.25,13.5,7.5C11.25,2.25,8.25,2.25,8.25,2.25V7.5"/><path class="cls-1" d="M8.25,6l-1.72.344A3,3,0,0,0,4.16,8.793L4,9.771A1.771,1.771,0,0,1,2.25,11.25h0a1.5,1.5,0,0,0-1.5,1.5v2.094A3,3,0,0,0,3.1,17.772l2.9.645a4.5,4.5,0,0,1,2.48,1.512L11.25,23.25"/><line class="cls-1" x1="9.394" y1="21.023" x2="18.679" y2="11.738"/><line class="cls-1" x1="11.25" y1="23.25" x2="20.925" y2="13.575"/><path class="cls-1" d="M7.5,10.5a.375.375,0,0,1,.375.375"/><path class="cls-1" d="M7.125,10.875A.375.375,0,0,1,7.5,10.5"/><path class="cls-1" d="M7.5,11.25a.374.374,0,0,1-.375-.375"/><path class="cls-1" d="M7.875,10.875a.374.374,0,0,1-.375.375"/><path class="cls-1" d="M23.25,2.21a6.559,6.559,0,0,0-8.25,0"/><path class="cls-1" d="M16.719,4.771a3.828,3.828,0,0,1,4.812,0"/><path class="cls-1" d="M19.125,6.563a.375.375,0,0,1,.375.375"/><path class="cls-1" d="M18.75,6.938a.375.375,0,0,1,.375-.375"/><path class="cls-1" d="M19.125,7.313a.375.375,0,0,1-.375-.375"/><path class="cls-1" d="M19.5,6.938a.375.375,0,0,1-.375.375"/></svg>