<svg id="Regular" xmlns="http://www.w3.org/2000/svg" viewBox="0 0 24 24"><defs><style>.cls-1{fill:none;stroke:currentColor;stroke-linecap:round;stroke-linejoin:round;stroke-width:1.5px;}</style></defs><title>pet-tracking-dog-search</title><path class="cls-1" d="M9,12H5.25a3,3,0,0,1-3-3V7.5a3,3,0,0,1,3-3H12.9a3.006,3.006,0,0,0,2.555-1.425,5.931,5.931,0,0,0,.456-.917A2.253,2.253,0,0,1,18,.75c1.5,0,2.25,1.758,2.25,3A.75.75,0,0,0,21,4.5h.75a1.5,1.5,0,0,1,0,3H19.5l-.75.75"/><path class="cls-1" d="M.75,2.25S.75,5.5,3.283,5.235"/><line class="cls-1" x1="3.75" y1="11.599" x2="3.75" y2="16.501"/><line class="cls-1" x1="6.75" y1="12" x2="6.75" y2="16.501"/><line class="cls-1" x1="17.25" y1="7.501" x2="14.105" y2="4.247"/><circle class="cls-1" cx="15.75" cy="15.751" r="5.25"/><line class="cls-1" x1="23.25" y1="23.251" x2="19.462" y2="19.463"/></svg>