<svg id="Regular" xmlns="http://www.w3.org/2000/svg" viewBox="0 0 24 24"><defs><style>.cls-1{fill:none;stroke:currentColor;stroke-linecap:round;stroke-linejoin:round;stroke-width:1.5px;}</style></defs><title>pet-tracking-dog-chip</title><path class="cls-1" d="M12,12H5.25a3,3,0,0,1-3-3V7.5a3,3,0,0,1,3-3H12.9a3.007,3.007,0,0,0,2.555-1.424,5.977,5.977,0,0,0,.456-.917A2.253,2.253,0,0,1,18,.75c1.5,0,2.25,1.757,2.25,3A.75.75,0,0,0,21,4.5h.75a1.5,1.5,0,0,1,0,3H19.5L18.347,9.113"/><path class="cls-1" d="M.75,2.25S.75,5.5,3.283,5.235"/><line class="cls-1" x1="3.75" y1="11.599" x2="3.75" y2="16.5"/><line class="cls-1" x1="6.75" y1="12" x2="6.75" y2="16.5"/><line class="cls-1" x1="18.488" y1="8.916" x2="14.105" y2="4.246"/><rect class="cls-1" x="14.25" y="14.25" width="7.5" height="7.5" rx="1" ry="1"/><line class="cls-1" x1="15.75" y1="14.25" x2="15.75" y2="12.75"/><line class="cls-1" x1="20.25" y1="14.25" x2="20.25" y2="12.75"/><line class="cls-1" x1="15.75" y1="23.25" x2="15.75" y2="21.75"/><line class="cls-1" x1="20.25" y1="23.25" x2="20.25" y2="21.75"/><line class="cls-1" x1="21.75" y1="15.75" x2="23.25" y2="15.75"/><line class="cls-1" x1="21.75" y1="20.25" x2="23.25" y2="20.25"/><line class="cls-1" x1="12.75" y1="15.75" x2="14.25" y2="15.75"/><line class="cls-1" x1="12.75" y1="20.25" x2="14.25" y2="20.25"/><line class="cls-1" x1="18.75" y1="18.75" x2="17.25" y2="18.75"/></svg>