<svg id="Regular" xmlns="http://www.w3.org/2000/svg" viewBox="0 0 24 24"><defs><style>.cls-1{fill:none;stroke:currentColor;stroke-linecap:round;stroke-linejoin:round;stroke-width:1.5px;}</style></defs><title>pets-paw-medal</title><circle class="cls-1" cx="12" cy="15.75" r="7.5"/><polyline class="cls-1" points="6.603 10.542 0.75 0.75 6.75 0.75 10.554 8.389"/><polyline class="cls-1" points="17.397 10.542 23.25 0.75 17.25 0.75 13.446 8.389"/><path class="cls-1" d="M12,12.342a.375.375,0,0,1,.375.375"/><path class="cls-1" d="M11.625,12.717A.375.375,0,0,1,12,12.342"/><path class="cls-1" d="M12,13.092a.375.375,0,0,1-.375-.375"/><path class="cls-1" d="M12.375,12.717a.375.375,0,0,1-.375.375"/><path class="cls-1" d="M9,13.842a.375.375,0,0,1,.375.375"/><path class="cls-1" d="M8.625,14.217A.375.375,0,0,1,9,13.842"/><path class="cls-1" d="M9,14.592a.375.375,0,0,1-.375-.375"/><path class="cls-1" d="M9.375,14.217A.375.375,0,0,1,9,14.592"/><path class="cls-1" d="M15,13.842a.375.375,0,0,1,.375.375"/><path class="cls-1" d="M14.625,14.217A.375.375,0,0,1,15,13.842"/><path class="cls-1" d="M15,14.592a.375.375,0,0,1-.375-.375"/><path class="cls-1" d="M15.375,14.217a.375.375,0,0,1-.375.375"/><path class="cls-1" d="M12.53,16.28a.749.749,0,0,0-1.06,0l-1.19,1.189a.751.751,0,0,0,.531,1.281h2.378a.751.751,0,0,0,.531-1.281Z"/></svg>