<svg id="Regular" xmlns="http://www.w3.org/2000/svg" viewBox="0 0 24 24"><defs><style>.cls-1{fill:none;stroke:currentColor;stroke-linecap:round;stroke-linejoin:round;stroke-width:1.5px;}</style></defs><title>pets-paw-soap</title><path class="cls-1" d="M12,12.342a.375.375,0,0,1,.375.375"/><path class="cls-1" d="M11.625,12.717A.375.375,0,0,1,12,12.342"/><path class="cls-1" d="M12,13.092a.375.375,0,0,1-.375-.375"/><path class="cls-1" d="M12.375,12.717a.375.375,0,0,1-.375.375"/><path class="cls-1" d="M9,13.842a.375.375,0,0,1,.375.375"/><path class="cls-1" d="M8.625,14.217A.375.375,0,0,1,9,13.842"/><path class="cls-1" d="M9,14.592a.375.375,0,0,1-.375-.375"/><path class="cls-1" d="M9.375,14.217A.375.375,0,0,1,9,14.592"/><path class="cls-1" d="M15,13.842a.375.375,0,0,1,.375.375"/><path class="cls-1" d="M14.625,14.217A.375.375,0,0,1,15,13.842"/><path class="cls-1" d="M15,14.592a.375.375,0,0,1-.375-.375"/><path class="cls-1" d="M15.375,14.217a.375.375,0,0,1-.375.375"/><path class="cls-1" d="M12.53,16.28a.749.749,0,0,0-1.06,0l-1.5,1.189a.751.751,0,0,0,.53,1.281h3a.751.751,0,0,0,.53-1.281Z"/><rect class="cls-1" x="6" y="8.25" width="12" height="15" rx="1" ry="1"/><line class="cls-1" x1="12" y1="0.75" x2="12" y2="5.25"/><path class="cls-1" d="M8.25,8.25,9.335,6.079a1.5,1.5,0,0,1,1.342-.829h2.646a1.5,1.5,0,0,1,1.342.829L15.75,8.25"/><polyline class="cls-1" points="7.5 2.25 8.25 0.75 15 0.75"/></svg>