<svg id="Regular" xmlns="http://www.w3.org/2000/svg" viewBox="0 0 24 24"><defs><style>.cls-1{fill:none;stroke:currentColor;stroke-linecap:round;stroke-linejoin:round;stroke-width:1.5px;}</style></defs><title>pets-certificate</title><rect class="cls-1" x="0.75" y="3.75" width="22.5" height="16.5" rx="1" ry="1"/><path class="cls-1" d="M12,9a.375.375,0,0,1,.375.375"/><path class="cls-1" d="M11.625,9.375A.375.375,0,0,1,12,9"/><path class="cls-1" d="M12,9.75a.375.375,0,0,1-.375-.375"/><path class="cls-1" d="M12.375,9.375A.375.375,0,0,1,12,9.75"/><path class="cls-1" d="M9,10.5a.375.375,0,0,1,.375.375"/><path class="cls-1" d="M8.625,10.875A.375.375,0,0,1,9,10.5"/><path class="cls-1" d="M9,11.25a.375.375,0,0,1-.375-.375"/><path class="cls-1" d="M9.375,10.875A.375.375,0,0,1,9,11.25"/><path class="cls-1" d="M15,10.5a.375.375,0,0,1,.375.375"/><path class="cls-1" d="M14.625,10.875A.375.375,0,0,1,15,10.5"/><path class="cls-1" d="M15,11.25a.375.375,0,0,1-.375-.375"/><path class="cls-1" d="M15.375,10.875A.375.375,0,0,1,15,11.25"/><path class="cls-1" d="M12.53,12.938a.749.749,0,0,0-1.06,0l-1.5,1.189a.75.75,0,0,0,.53,1.28h3a.75.75,0,0,0,.53-1.28Z"/><path class="cls-1" d="M23.25,9A5.251,5.251,0,0,1,18,3.75"/><path class="cls-1" d="M.75,9A5.251,5.251,0,0,0,6,3.75"/><path class="cls-1" d="M23.25,15A5.251,5.251,0,0,0,18,20.25"/><path class="cls-1" d="M.75,15A5.251,5.251,0,0,1,6,20.25"/></svg>