<svg id="Regular" xmlns="http://www.w3.org/2000/svg" viewBox="0 0 24 24"><defs><style>.cls-1{fill:none;stroke:currentColor;stroke-linecap:round;stroke-linejoin:round;stroke-width:1.5px;}</style></defs><title>pets-tick-free</title><path class="cls-1" d="M7.557,13.5C7.8,10.362,8.789,7.932,10.14,6.75h3.585"/><path class="cls-1" d="M16.044,11.245A15.838,15.838,0,0,1,16.5,15c0,2.49-2.01,5.25-4.5,5.25a4.107,4.107,0,0,1-3.025-1.5"/><path class="cls-1" d="M13.725,6.75H10.14l.93-2.265a.956.956,0,0,1,1.86,0Z"/><path class="cls-1" d="M8.721,8.724A6.508,6.508,0,0,1,8.3.751"/><path class="cls-1" d="M2.25,6l.725,1.812a4.5,4.5,0,0,0,2.755,2.6l2.176.725"/><path class="cls-1" d="M2.25,17.25a5.4,5.4,0,0,1,4.536-4.291l.833-.119"/><line class="cls-1" x1="6" y1="23.25" x2="6" y2="21.746"/><path class="cls-1" d="M16.7,3a6.465,6.465,0,0,0-1-2.251"/><path class="cls-1" d="M21.75,6l-.725,1.812a4.5,4.5,0,0,1-2.755,2.6l-2.226.835"/><path class="cls-1" d="M21.75,17.25a5.4,5.4,0,0,0-4.536-4.291l-.865-.123"/><path class="cls-1" d="M18,23.25V21.235a6,6,0,0,0-1.757-4.242l-.1-.1"/><line class="cls-1" x1="23.25" y1="0.745" x2="0.75" y2="23.246"/></svg>