<svg id="Regular" xmlns="http://www.w3.org/2000/svg" viewBox="0 0 24 24"><defs><style>.cls-1{fill:none;stroke:currentColor;stroke-linecap:round;stroke-linejoin:round;stroke-width:1.5px;}</style></defs><title>pets-paw-bubble</title><path class="cls-1" d="M20.787,14.9a.792.792,0,0,1,.271-1.01L22.9,12.659a.792.792,0,0,0,0-1.318l-1.839-1.227a.792.792,0,0,1-.271-1.01l.98-1.981a.792.792,0,0,0-.66-1.142l-2.2-.143a.791.791,0,0,1-.74-.739L18.02,2.893a.793.793,0,0,0-1.142-.66l-1.982.98a.791.791,0,0,1-1.01-.271L12.659,1.1a.792.792,0,0,0-1.318,0L10.114,2.942a.791.791,0,0,1-1.01.271l-1.982-.98a.793.793,0,0,0-1.142.66L5.838,5.1a.791.791,0,0,1-.74.739l-2.2.143a.792.792,0,0,0-.66,1.142L3.213,9.1a.792.792,0,0,1-.271,1.01L1.1,11.341a.792.792,0,0,0,0,1.318l1.839,1.227a.792.792,0,0,1,.271,1.01l-.98,1.982a.793.793,0,0,0,.66,1.142l2.205.142a.791.791,0,0,1,.74.74l.142,2.2a.793.793,0,0,0,1.142.66l1.982-.98a.793.793,0,0,1,1.01.271L11.341,22.9a.792.792,0,0,0,1.318,0l1.227-1.839a.793.793,0,0,1,1.01-.271l1.982.98a.793.793,0,0,0,1.142-.66l.142-2.2a.791.791,0,0,1,.74-.74l2.2-.142a.793.793,0,0,0,.66-1.142Z"/><path class="cls-1" d="M12,7.629A.374.374,0,0,1,12.375,8"/><path class="cls-1" d="M11.625,8A.374.374,0,0,1,12,7.629"/><path class="cls-1" d="M12,8.379A.375.375,0,0,1,11.625,8"/><path class="cls-1" d="M12.375,8A.375.375,0,0,1,12,8.379"/><path class="cls-1" d="M8.83,9.213a.375.375,0,0,1,.375.375"/><path class="cls-1" d="M8.455,9.588a.375.375,0,0,1,.375-.375"/><path class="cls-1" d="M8.83,9.963a.375.375,0,0,1-.375-.375"/><path class="cls-1" d="M9.205,9.588a.375.375,0,0,1-.375.375"/><path class="cls-1" d="M15.17,9.213a.375.375,0,0,1,.375.375"/><path class="cls-1" d="M14.8,9.588a.375.375,0,0,1,.375-.375"/><path class="cls-1" d="M15.17,9.963a.375.375,0,0,1-.375-.375"/><path class="cls-1" d="M15.545,9.588a.375.375,0,0,1-.375.375"/><path class="cls-1" d="M12.873,11.9a1.235,1.235,0,0,0-1.746,0L9.169,13.855a1.235,1.235,0,0,0,.873,2.107h3.916a1.235,1.235,0,0,0,.873-2.107Z"/></svg>