<svg id="Regular" xmlns="http://www.w3.org/2000/svg" viewBox="0 0 24 24"><defs><style>.cls-1{fill:none;stroke:currentColor;stroke-linecap:round;stroke-linejoin:round;stroke-width:1.5px;}</style></defs><title>pets-paw-ribbon</title><circle class="cls-1" cx="12.357" cy="8.75" r="7.5"/><polyline class="cls-1" points="10.612 16.046 6.18 22.537 5.168 20.03 2.464 20 6.746 13.727"/><polyline class="cls-1" points="17.967 13.727 22.25 20 19.546 20.03 18.534 22.537 14.102 16.046"/><path class="cls-1" d="M12.357,5.343a.375.375,0,0,1,.375.375"/><path class="cls-1" d="M11.982,5.718a.375.375,0,0,1,.375-.375"/><path class="cls-1" d="M12.357,6.093a.375.375,0,0,1-.375-.375"/><path class="cls-1" d="M12.732,5.718a.375.375,0,0,1-.375.375"/><path class="cls-1" d="M9.357,6.843a.375.375,0,0,1,.375.375"/><path class="cls-1" d="M8.982,7.218a.375.375,0,0,1,.375-.375"/><path class="cls-1" d="M9.357,7.593a.375.375,0,0,1-.375-.375"/><path class="cls-1" d="M9.732,7.218a.375.375,0,0,1-.375.375"/><path class="cls-1" d="M15.357,6.843a.375.375,0,0,1,.375.375"/><path class="cls-1" d="M14.982,7.218a.375.375,0,0,1,.375-.375"/><path class="cls-1" d="M15.357,7.593a.375.375,0,0,1-.375-.375"/><path class="cls-1" d="M15.732,7.218a.375.375,0,0,1-.375.375"/><path class="cls-1" d="M12.887,9.28a.75.75,0,0,0-1.061,0l-1.189,1.19a.751.751,0,0,0,.53,1.28h2.379a.75.75,0,0,0,.53-1.28Z"/></svg>