<svg id="Regular" xmlns="http://www.w3.org/2000/svg" viewBox="0 0 24 24"><defs><style>.cls-1{fill:none;stroke:currentColor;stroke-linecap:round;stroke-linejoin:round;stroke-width:1.5px;}</style></defs><title>pets-nail-clipper</title><path class="cls-1" d="M15,.75a1.7,1.7,0,0,1,1.632,2.163l-1.215,2.3a1.5,1.5,0,0,1-1.289.8C10.662,6.1,7.5,6.822,7.5,10.5"/><path class="cls-1" d="M5.25,21a2.25,2.25,0,0,0,4.5,0V12a1.5,1.5,0,0,0-1.5-1.5H6.75A1.5,1.5,0,0,0,5.25,12Z"/><path class="cls-1" d="M9,.75A1.7,1.7,0,0,0,7.368,2.913l1.215,2.3a1.5,1.5,0,0,0,1.289.8C13.338,6.1,16.5,6.822,16.5,10.5"/><path class="cls-1" d="M18.75,21a2.25,2.25,0,0,1-4.5,0V12a1.5,1.5,0,0,1,1.5-1.5h1.5a1.5,1.5,0,0,1,1.5,1.5Z"/></svg>