<svg id="Regular" xmlns="http://www.w3.org/2000/svg" viewBox="0 0 24 24"><defs><style>.cls-1{fill:none;stroke:currentColor;stroke-linecap:round;stroke-linejoin:round;stroke-width:1.5px;}</style></defs><title>pets-paw-bowl</title><ellipse class="cls-1" cx="12.004" cy="18" rx="3" ry="2.25"/><circle class="cls-1" cx="12.004" cy="11.25" r="1.5"/><circle class="cls-1" cx="6.754" cy="13.5" r="1.5"/><circle class="cls-1" cx="17.254" cy="13.5" r="1.5"/><path class="cls-1" d="M20.377,7.4a2.986,2.986,0,0,1,.036-1.283l.933-3.733a.751.751,0,0,0-1.03-.868,7.879,7.879,0,0,1-3.062.736c-2.25,0-3-1.5-5.25-1.5s-3,1.5-5.25,1.5a7.879,7.879,0,0,1-3.062-.736.75.75,0,0,0-1.03.868l.932,3.729A3,3,0,0,1,3.631,7.4l-2.345,12.4A3,3,0,0,0,4.251,23.25H19.757a3,3,0,0,0,2.965-3.456Z"/></svg>