<svg id="Regular" xmlns="http://www.w3.org/2000/svg" viewBox="0 0 24 24"><defs><style>.cls-1{fill:none;stroke:currentColor;stroke-linecap:round;stroke-linejoin:round;stroke-width:1.5px;}</style></defs><title>pets-paw-hospital</title><path class="cls-1" d="M20.25,12V8.25a1.5,1.5,0,0,0-1.5-1.5h-4.5V2.25a1.5,1.5,0,0,0-1.5-1.5H8.25a1.5,1.5,0,0,0-1.5,1.5v4.5H2.25a1.5,1.5,0,0,0-1.5,1.5v4.5a1.5,1.5,0,0,0,1.5,1.5h4.5v4.5a1.5,1.5,0,0,0,1.5,1.5h4.5"/><path class="cls-1" d="M18.875,14.625A.375.375,0,0,1,19.25,15"/><path class="cls-1" d="M18.5,15a.375.375,0,0,1,.375-.375"/><path class="cls-1" d="M18.875,15.375A.375.375,0,0,1,18.5,15"/><path class="cls-1" d="M19.25,15a.375.375,0,0,1-.375.375"/><path class="cls-1" d="M15.125,16.125a.375.375,0,0,1,.375.375"/><path class="cls-1" d="M14.75,16.5a.375.375,0,0,1,.375-.375"/><path class="cls-1" d="M15.125,16.875a.375.375,0,0,1-.375-.375"/><path class="cls-1" d="M15.5,16.5a.375.375,0,0,1-.375.375"/><path class="cls-1" d="M22.625,16.125A.375.375,0,0,1,23,16.5"/><path class="cls-1" d="M22.25,16.5a.375.375,0,0,1,.375-.375"/><path class="cls-1" d="M22.625,16.875a.375.375,0,0,1-.375-.375"/><path class="cls-1" d="M23,16.5a.375.375,0,0,1-.375.375"/><path class="cls-1" d="M19.762,19.118a1.252,1.252,0,0,0-1.774,0L16,21.108a1.255,1.255,0,0,0,.887,2.142h3.98a1.255,1.255,0,0,0,.887-2.142Z"/></svg>