<svg id="Regular" xmlns="http://www.w3.org/2000/svg" viewBox="0 0 24 24"><defs><style>.cls-1{fill:none;stroke:currentColor;stroke-linecap:round;stroke-linejoin:round;stroke-width:1.5px;}</style></defs><title>pets-paw-can</title><line class="cls-1" x1="0.75" y1="20.25" x2="0.75" y2="3.75"/><line class="cls-1" x1="23.25" y1="3.75" x2="23.25" y2="20.25"/><ellipse class="cls-1" cx="12" cy="3.75" rx="11.25" ry="3"/><path class="cls-1" d="M23.25,20.25c0,1.657-5.037,3-11.25,3S.75,21.907.75,20.25"/><path class="cls-1" d="M12,10.5a.375.375,0,0,1,.375.375"/><path class="cls-1" d="M11.625,10.875A.375.375,0,0,1,12,10.5"/><path class="cls-1" d="M12,11.25a.375.375,0,0,1-.375-.375"/><path class="cls-1" d="M12.375,10.875A.375.375,0,0,1,12,11.25"/><path class="cls-1" d="M8.25,12a.375.375,0,0,1,.375.375"/><path class="cls-1" d="M7.875,12.375A.375.375,0,0,1,8.25,12"/><path class="cls-1" d="M8.25,12.75a.375.375,0,0,1-.375-.375"/><path class="cls-1" d="M8.625,12.375a.375.375,0,0,1-.375.375"/><path class="cls-1" d="M15.75,12a.375.375,0,0,1,.375.375"/><path class="cls-1" d="M15.375,12.375A.375.375,0,0,1,15.75,12"/><path class="cls-1" d="M15.75,12.75a.375.375,0,0,1-.375-.375"/><path class="cls-1" d="M16.125,12.375a.375.375,0,0,1-.375.375"/><path class="cls-1" d="M12.887,14.993a1.252,1.252,0,0,0-1.774,0l-1.99,1.99a1.255,1.255,0,0,0,.887,2.142h3.98a1.255,1.255,0,0,0,.887-2.142Z"/></svg>