<svg id="Regular" xmlns="http://www.w3.org/2000/svg" viewBox="0 0 24 24"><defs><style>.cls-1{fill:none;stroke:currentColor;stroke-linecap:round;stroke-linejoin:round;stroke-width:1.5px;}</style></defs><title>pets-paw-bag</title><path class="cls-1" d="M12,20.25H3.75a3,3,0,0,1-3-3v-9a3,3,0,0,1,3-3h15a3,3,0,0,1,3,3v3"/><path class="cls-1" d="M7.5,5.25v-3A1.5,1.5,0,0,1,9,.75h4.5A1.5,1.5,0,0,1,15,2.25v3"/><path class="cls-1" d="M18.375,14.625A.375.375,0,0,1,18.75,15"/><path class="cls-1" d="M18,15a.375.375,0,0,1,.375-.375"/><path class="cls-1" d="M18.375,15.375A.375.375,0,0,1,18,15"/><path class="cls-1" d="M18.75,15a.375.375,0,0,1-.375.375"/><path class="cls-1" d="M14.625,16.125A.375.375,0,0,1,15,16.5"/><path class="cls-1" d="M14.25,16.5a.375.375,0,0,1,.375-.375"/><path class="cls-1" d="M14.625,16.875a.375.375,0,0,1-.375-.375"/><path class="cls-1" d="M15,16.5a.375.375,0,0,1-.375.375"/><path class="cls-1" d="M22.125,16.125a.375.375,0,0,1,.375.375"/><path class="cls-1" d="M21.75,16.5a.375.375,0,0,1,.375-.375"/><path class="cls-1" d="M22.125,16.875a.375.375,0,0,1-.375-.375"/><path class="cls-1" d="M22.5,16.5a.375.375,0,0,1-.375.375"/><path class="cls-1" d="M19.262,19.118a1.252,1.252,0,0,0-1.774,0l-1.99,1.99a1.255,1.255,0,0,0,.887,2.142h3.98a1.255,1.255,0,0,0,.887-2.142Z"/></svg>