<svg id="Regular" xmlns="http://www.w3.org/2000/svg" viewBox="0 0 24 24"><defs><style>.cls-1{fill:none;stroke:currentColor;stroke-linecap:round;stroke-linejoin:round;stroke-width:1.5px;}</style></defs><title>pets-paw-heart</title><path class="cls-1" d="M10.032,20.911C3.572,13.305,5,15.291,2.3,12.075a6.986,6.986,0,0,1,0-8.754,4.68,4.68,0,0,1,7.41,0L12,6.032l2.3-2.711a4.68,4.68,0,0,1,7.41,0,7.035,7.035,0,0,1,.766,7.616"/><circle class="cls-1" cx="16.5" cy="12.75" r="1.5"/><circle class="cls-1" cx="11.25" cy="15.75" r="1.5"/><circle class="cls-1" cx="21.75" cy="15.75" r="1.5"/><path class="cls-1" d="M13.5,22.5a.748.748,0,0,1-.6-1.2l3-4a.751.751,0,0,1,1.2,0l3,4a.75.75,0,0,1-.6,1.2Z"/></svg>