<svg id="Regular" xmlns="http://www.w3.org/2000/svg" viewBox="0 0 24 24"><defs><style>.cls-1{fill:none;stroke:currentColor;stroke-linecap:round;stroke-linejoin:round;stroke-width:1.5px;}</style></defs><title>pets-hospital</title><path class="cls-1" d="M9,3.75H6.75V1.5A.75.75,0,0,0,6,.75H4.5a.75.75,0,0,0-.75.75V3.75H1.5a.75.75,0,0,0-.75.75V6a.75.75,0,0,0,.75.75H3.75V9a.75.75,0,0,0,.75.75H6A.75.75,0,0,0,6.75,9V6.75H9A.75.75,0,0,0,9.75,6V4.5A.75.75,0,0,0,9,3.75Z"/><path class="cls-1" d="M14.25,20.25h-9a3,3,0,0,1-3-3v-1.5a3,3,0,0,1,3-3H12.9a3.007,3.007,0,0,0,2.555-1.424,6.067,6.067,0,0,0,.457-.917A2.25,2.25,0,0,1,18,9a2.1,2.1,0,0,1,2.25,2.25,1.5,1.5,0,0,0,1.5,1.5,1.5,1.5,0,0,1,0,3H19.5l-2.136,2.988a3,3,0,0,1-2.605,1.512H14.25"/><path class="cls-1" d="M.75,10.5s0,3.246,2.533,2.985"/><line class="cls-1" x1="14.25" y1="20.25" x2="14.25" y2="23.25"/><line class="cls-1" x1="17.25" y1="23.25" x2="16.522" y2="19.677"/><line class="cls-1" x1="3.75" y1="19.849" x2="3.75" y2="23.25"/><line class="cls-1" x1="6.75" y1="20.25" x2="6.75" y2="23.25"/><line class="cls-1" x1="18.488" y1="17.166" x2="14.105" y2="12.496"/></svg>