<svg id="Regular" xmlns="http://www.w3.org/2000/svg" viewBox="0 0 24 24"><defs><style>.cls-1{fill:none;stroke:currentColor;stroke-linecap:round;stroke-linejoin:round;stroke-width:1.5px;}</style></defs><title>pets-paw-search</title><circle class="cls-1" cx="9.75" cy="9.75" r="9"/><line class="cls-1" x1="16.114" y1="16.114" x2="23.25" y2="23.25"/><path class="cls-1" d="M9.75,5.625A.375.375,0,0,1,10.125,6"/><path class="cls-1" d="M9.375,6a.375.375,0,0,1,.375-.375"/><path class="cls-1" d="M9.75,6.375A.375.375,0,0,1,9.375,6"/><path class="cls-1" d="M10.125,6a.375.375,0,0,1-.375.375"/><path class="cls-1" d="M6,7.125a.375.375,0,0,1,.375.375"/><path class="cls-1" d="M5.625,7.5A.375.375,0,0,1,6,7.125"/><path class="cls-1" d="M6,7.875A.375.375,0,0,1,5.625,7.5"/><path class="cls-1" d="M6.375,7.5A.375.375,0,0,1,6,7.875"/><path class="cls-1" d="M13.5,7.125a.375.375,0,0,1,.375.375"/><path class="cls-1" d="M13.125,7.5a.375.375,0,0,1,.375-.375"/><path class="cls-1" d="M13.5,7.875a.375.375,0,0,1-.375-.375"/><path class="cls-1" d="M13.875,7.5a.375.375,0,0,1-.375.375"/><path class="cls-1" d="M10.637,10.118a1.252,1.252,0,0,0-1.774,0l-1.99,1.99A1.256,1.256,0,0,0,7.76,14.25h3.98a1.256,1.256,0,0,0,.887-2.142Z"/></svg>