<svg id="Regular" xmlns="http://www.w3.org/2000/svg" viewBox="0 0 24 24"><defs><style>.cls-1{fill:none;stroke:currentColor;stroke-linecap:round;stroke-linejoin:round;stroke-width:1.5px;}</style></defs><title>pets-paw</title><ellipse class="cls-1" cx="3" cy="12" rx="2.25" ry="3.75"/><ellipse class="cls-1" cx="8.25" cy="4.5" rx="2.25" ry="3.75"/><ellipse class="cls-1" cx="21" cy="11.25" rx="2.25" ry="3.75"/><ellipse class="cls-1" cx="15.75" cy="4.5" rx="2.25" ry="3.75"/><path class="cls-1" d="M16.324,15.653a1.506,1.506,0,0,1-.578-1.257c0-.048,0-.1,0-.146a3.75,3.75,0,0,0-7.5,0c0,.049,0,.1,0,.146a1.5,1.5,0,0,1-.578,1.257A3.963,3.963,0,0,0,6,18.75c0,2.485,2.686,4.5,6,4.5s6-2.015,6-4.5A3.963,3.963,0,0,0,16.324,15.653Z"/></svg>