<svg xmlns="http://www.w3.org/2000/svg" viewBox="0 0 24 24"><defs><style>.a{fill:none;stroke:currentColor;stroke-linecap:round;stroke-linejoin:round;stroke-width:1.5px;}</style></defs><title>phone-translate</title><path class="a" d="M5.25,3.75a3,3,0,0,1,3-3h7.5a3,3,0,0,1,3,3"/><path class="a" d="M18.75,15.75v4.5a3,3,0,0,1-3,3H8.25a3,3,0,0,1-3-3v-4.5"/><line class="a" x1="5.25" y1="17.25" x2="18.75" y2="17.25"/><path class="a" d="M12,19.875a.375.375,0,1,0,.375.375A.375.375,0,0,0,12,19.875h0"/><path class="a" d="M.75,12.75V8.25a1.5,1.5,0,0,1,3,0v4.5"/><line class="a" x1="0.75" y1="11.25" x2="3.75" y2="11.25"/><line class="a" x1="20.25" y1="6.75" x2="20.25" y2="8.25"/><line class="a" x1="17.25" y1="8.25" x2="23.25" y2="8.25"/><path class="a" d="M21.75,8.25s-1.5,4.5-4.5,4.5"/><path class="a" d="M20.249,11.017a3.932,3.932,0,0,0,3,1.733"/><path class="a" d="M12.75,14.25a7.155,7.155,0,0,0,0-9"/><path class="a" d="M8.364,7.125a4.175,4.175,0,0,1,0,5.25"/></svg>