<svg id="Regular" xmlns="http://www.w3.org/2000/svg" viewBox="0 0 24 24"><defs><style>.cls-1{fill:none;stroke:currentColor;stroke-linecap:round;stroke-linejoin:round;stroke-width:1.5px;}</style></defs><title>pie</title><path class="cls-1" d="M19.483,20.2l-1.43,2.331a1.5,1.5,0,0,1-1.279.716H7.411a1.5,1.5,0,0,1-1.279-.716l-1.409-2.3"/><path class="cls-1" d="M21.95,18.684a1.35,1.35,0,0,0,.527-1.173C22.019,13.2,17.5,9.821,12,9.821S1.981,13.2,1.523,17.511a1.35,1.35,0,0,0,.527,1.173l1.189.952a2.8,2.8,0,0,0,3.5,0v0a2.806,2.806,0,0,1,3.5,0v0a2.806,2.806,0,0,0,3.5,0v0a2.806,2.806,0,0,1,3.5,0v0a2.8,2.8,0,0,0,3.5,0Z"/><line class="cls-1" x1="12.017" y1="14.25" x2="12" y2="12.714"/><line class="cls-1" x1="15.733" y1="14.25" x2="14.983" y2="12.75"/><line class="cls-1" x1="8.233" y1="14.25" x2="8.983" y2="12.75"/><path class="cls-1" d="M12.733.75l-.617.823a1.584,1.584,0,0,0,.242,2.177h0A1.585,1.585,0,0,1,12.6,5.927l-.618.823"/><path class="cls-1" d="M6.21,2.25l-.617.823A1.585,1.585,0,0,0,5.835,5.25h0a1.584,1.584,0,0,1,.243,2.177L5.46,8.25"/><path class="cls-1" d="M18.733,2.25l.618.823a1.585,1.585,0,0,1-.243,2.177h0a1.584,1.584,0,0,0-.242,2.177l.617.823"/></svg>