<svg xmlns="http://www.w3.org/2000/svg" viewBox="0 0 24 24"><defs><style>.a{fill:none;stroke:currentColor;stroke-linecap:round;stroke-linejoin:round;stroke-width:1.5px;}</style></defs><title>pin-map-1</title><path class="a" d="M17.75,15.75v1.5a1.5,1.5,0,0,1-1.5,1.5h-12a1.5,1.5,0,0,1-1.5-1.5v-15A1.5,1.5,0,0,1,4.25.75H11"/><line class="a" x1="2.75" y1="15" x2="9.875" y2="7.875"/><line class="a" x1="6.5" y1="11.25" x2="15.5" y2="18.75"/><line class="a" x1="10.25" y1="18.75" x2="10.25" y2="23.25"/><line class="a" x1="5.75" y1="23.25" x2="14.75" y2="23.25"/><path class="a" d="M17,4.875a.375.375,0,0,1,.375.375"/><path class="a" d="M16.625,5.25A.375.375,0,0,1,17,4.875"/><path class="a" d="M17,5.625a.375.375,0,0,1-.375-.375"/><path class="a" d="M17.375,5.25A.375.375,0,0,1,17,5.625"/><path class="a" d="M17,.75a4.5,4.5,0,0,1,4.5,4.5c0,1.921-2.688,5.576-3.909,7.138a.75.75,0,0,1-1.182,0C15.188,10.827,12.5,7.171,12.5,5.25A4.5,4.5,0,0,1,17,.75Z"/></svg>