<svg xmlns="http://www.w3.org/2000/svg" viewBox="0 0 24 24"><defs><style>.a{fill:none;stroke:currentColor;stroke-linecap:round;stroke-linejoin:round;stroke-width:1.5px;}</style></defs><title>pin-map</title><path class="a" d="M17.25,6.309c0,3.07-5.25,7.941-5.25,7.941S6.75,9.379,6.75,6.309A5.411,5.411,0,0,1,12,.75,5.412,5.412,0,0,1,17.25,6.309Z"/><path class="a" d="M20.25,5.25h1.272a.981.981,0,0,1,.978.978V22.272a.981.981,0,0,1-.978.978H2.478a.981.981,0,0,1-.978-.978V6.228a.981.981,0,0,1,.978-.978H3.75"/></svg>