<svg xmlns="http://www.w3.org/2000/svg" viewBox="0 0 24 24"><defs><style>.a{fill:none;stroke:currentColor;stroke-linecap:round;stroke-linejoin:round;stroke-width:1.5px;}</style></defs><title>pin-monitor</title><path class="a" d="M21.75,15v.75H.75V5.25a1.5,1.5,0,0,1,1.5-1.5h9"/><path class="a" d="M21.75,15.75v3a1.5,1.5,0,0,1-1.5,1.5h-18a1.5,1.5,0,0,1-1.5-1.5v-3"/><path class="a" d="M18.75,4.875a.375.375,0,0,1,.375.375"/><path class="a" d="M18.375,5.25a.375.375,0,0,1,.375-.375"/><path class="a" d="M18.75,5.625a.375.375,0,0,1-.375-.375"/><path class="a" d="M19.125,5.25a.375.375,0,0,1-.375.375"/><path class="a" d="M18.75.75a4.5,4.5,0,0,1,4.5,4.5c0,1.921-2.688,5.576-3.909,7.138a.75.75,0,0,1-1.182,0C16.938,10.827,14.25,7.171,14.25,5.25A4.5,4.5,0,0,1,18.75.75Z"/><path class="a" d="M11.25,17.625a.375.375,0,0,1,.375.375"/><path class="a" d="M10.875,18a.375.375,0,0,1,.375-.375"/><path class="a" d="M11.25,18.375A.375.375,0,0,1,10.875,18"/><path class="a" d="M11.625,18a.375.375,0,0,1-.375.375"/><line class="a" x1="11.25" y1="20.25" x2="11.25" y2="23.25"/><line class="a" x1="6" y1="23.25" x2="15.75" y2="23.25"/><line class="a" x1="9.75" y1="3.75" x2="0.75" y2="12.75"/><line class="a" x1="6" y1="7.5" x2="14.25" y2="15.75"/></svg>