<svg xmlns="http://www.w3.org/2000/svg" viewBox="0 0 24 24"><defs><style>.a{fill:none;stroke:currentColor;stroke-linecap:round;stroke-linejoin:round;stroke-width:1.5px;}</style></defs><title>pin-location-2</title><circle class="a" cx="12" cy="6" r="4.5"/><path class="a" d="M11.625,4.5A.375.375,0,0,1,12,4.875"/><path class="a" d="M11.25,4.875a.375.375,0,0,1,.375-.375"/><path class="a" d="M11.625,5.25a.375.375,0,0,1-.375-.375"/><path class="a" d="M12,4.875a.375.375,0,0,1-.375.375"/><line class="a" x1="12" y1="10.5" x2="12" y2="18.75"/><path class="a" d="M15,15.155c4.338.461,7.5,1.9,7.5,3.6,0,2.071-4.7,3.75-10.5,3.75S1.5,20.821,1.5,18.75c0-1.7,3.149-3.127,7.471-3.592"/></svg>