<svg xmlns="http://www.w3.org/2000/svg" viewBox="0 0 24 24"><defs><style>.a{fill:none;stroke:currentColor;stroke-linecap:round;stroke-linejoin:round;stroke-width:1.5px;}</style></defs><title>pin-star</title><path class="a" d="M19.5,8.25c0,4.221-2.933,6.649-5.131,9-1.316,1.408-2.369,6-2.369,6s-1.049-4.589-2.363-5.993C7.439,14.907,4.5,12.475,4.5,8.25a7.5,7.5,0,0,1,15,0Z"/><path class="a" d="M11.564,4.018a.489.489,0,0,1,.872,0L13.448,6.06a.485.485,0,0,0,.366.263l2.271.328a.483.483,0,0,1,.391.325.474.474,0,0,1-.121.489l-1.65,1.6a.476.476,0,0,0-.138.421l.389,2.255a.475.475,0,0,1-.194.468.49.49,0,0,1-.511.034l-2.024-1.058a.486.486,0,0,0-.454,0L9.749,12.243a.49.49,0,0,1-.511-.034.475.475,0,0,1-.194-.468l.389-2.255A.476.476,0,0,0,9.3,9.065l-1.65-1.6a.474.474,0,0,1-.121-.489.483.483,0,0,1,.391-.325l2.271-.328a.485.485,0,0,0,.366-.263Z"/></svg>