<svg id="Regular" xmlns="http://www.w3.org/2000/svg" viewBox="0 0 24 24"><defs><style>.cls-1{fill:none;stroke:currentColor;stroke-linecap:round;stroke-linejoin:round;stroke-width:1.5px;}</style></defs><title>ping-pong-player</title><path class="cls-1" d="M16.651,8.55a1.5,1.5,0,0,0-2.1.3l-1.4,1.866L9.832,8.5A1.5,1.5,0,0,0,9,8.25H5.782A4.478,4.478,0,0,0,1.6,11.079L.857,12.942a1.5,1.5,0,0,0,.837,1.95,1.5,1.5,0,0,0,1.949-.837l.746-1.862a1.493,1.493,0,0,1,1.393-.943H7.354l-.535,3.208L3.229,20.2A1.5,1.5,0,1,0,5.772,21.8L8.657,17.18l.494.37a1.508,1.508,0,0,1,.6,1.2V21a1.5,1.5,0,0,0,3,0V18.75a4.517,4.517,0,0,0-1.8-3.6l-1.071-.8.331-1.987,1.277.851a3,3,0,0,0,4.063-.7l1.4-1.863A1.5,1.5,0,0,0,16.651,8.55Z"/><circle class="cls-1" cx="10.5" cy="4.125" r="2.625"/><line class="cls-1" x1="20.25" y1="15" x2="20.25" y2="22.5"/><line class="cls-1" x1="17.25" y1="15" x2="23.25" y2="15"/><path class="cls-1" d="M21.75,11.625a.375.375,0,0,1,.375.375"/><path class="cls-1" d="M21.375,12a.375.375,0,0,1,.375-.375"/><path class="cls-1" d="M21.75,12.375A.375.375,0,0,1,21.375,12"/><path class="cls-1" d="M22.125,12a.375.375,0,0,1-.375.375"/><line class="cls-1" x1="16.812" y1="8.689" x2="18.75" y2="6.75"/><ellipse class="cls-1" cx="20.606" cy="4.894" rx="2.625" ry="1.969" transform="translate(2.575 16.004) rotate(-45)"/></svg>