<svg id="Regular" xmlns="http://www.w3.org/2000/svg" viewBox="0 0 24 24"><defs><style>.cls-1{fill:none;stroke:currentColor;stroke-linecap:round;stroke-linejoin:round;stroke-width:1.5px;}</style></defs><title>plant</title><path class="cls-1" d="M15.011,6.35c0,3.083-3.006,5.583-3.006,5.583S9,9.433,9,6.35,12.005.766,12.005.766,15.011,3.266,15.011,6.35Z"/><path class="cls-1" d="M20.187,20.2C17.079,23.313,12,23.266,12,23.266s-.047-5.084,3.061-8.192,8.192-3.06,8.192-3.06S23.294,17.1,20.187,20.2Z"/><path class="cls-1" d="M3.808,20.2C6.916,23.313,12,23.266,12,23.266s.047-5.084-3.061-8.192S.748,12.014.748,12.014.7,17.1,3.808,20.2Z"/><line class="cls-1" x1="12.005" y1="11.933" x2="12.005" y2="23.266"/></svg>