<svg xmlns="http://www.w3.org/2000/svg" viewBox="0 0 24 24"><defs><style>.a{fill:none;stroke:currentColor;stroke-linecap:round;stroke-linejoin:round;stroke-width:1.5px;}</style></defs><title>plane-trip-international</title><path class="a" d="M20.777,12.789l-8.886,2.987L10.7,14.593l-1.766.594a.749.749,0,0,0-.32,1.21l2.389,2.674a1.5,1.5,0,0,0,1.6.422l2.617-.879-.53,3.78a.75.75,0,0,0,.981.816l1.361-.458a.752.752,0,0,0,.46-.439l1.994-5.133,2.488-.836a1.875,1.875,0,0,0-1.2-3.555Z"/><path class="a" d="M18.289,13.626l-2.78-1.915a.752.752,0,0,0-.664-.093l-1.338.45a.749.749,0,0,0-.29,1.242l1.517,1.51"/><path class="a" d="M6,17.932A9,9,0,1,1,18.75,9.75"/><path class="a" d="M4.025,2.805l5.281,2a1.5,1.5,0,0,1,.944,1.7L9.936,8.069A1.5,1.5,0,0,1,8.829,9.23L6.75,9.75,5.6,12.634a2.991,2.991,0,0,1-1.121,1.382L2.644,15.273"/><path class="a" d="M16,3.269,14.528,6.194a1.5,1.5,0,0,0-.082,1.145L15,9"/></svg>