<svg xmlns="http://www.w3.org/2000/svg" viewBox="0 0 24 24"><defs><style>.a{fill:none;stroke:currentColor;stroke-linecap:round;stroke-linejoin:round;stroke-width:1.5px;}</style></defs><title>plane-trip-1</title><path class="a" d="M20.424,20.571l.684-.684a1.5,1.5,0,0,0,.39-1.442L19.065,9.2l3.217-3.217a3.109,3.109,0,0,0,.441-3.97,3,3,0,0,0-4.57-.386l-3.33,3.331L5.58,2.526a1.5,1.5,0,0,0-1.443.39L3.453,3.6a1.5,1.5,0,0,0,.289,2.347L10.05,9.732l-4.8,5.44-1.5.022a1.5,1.5,0,0,0-1.282.387L.97,16.953a.749.749,0,0,0,.235,1.219L4.1,19.805,6,22.8a.751.751,0,0,0,1.22.235l1.309-1.248a1.5,1.5,0,0,0,.447-1.36L9,18.922l5.292-4.948,3.785,6.308A1.5,1.5,0,0,0,20.424,20.571Z"/></svg>