<svg id="Regular" xmlns="http://www.w3.org/2000/svg" viewBox="0 0 24 24"><defs><style>.cls-1{fill:none;stroke:currentColor;stroke-linecap:round;stroke-linejoin:round;stroke-width:1.5px;}</style></defs><title>plant-bamboo</title><line class="cls-1" x1="9.738" y1="0.766" x2="9.738" y2="23.266"/><line class="cls-1" x1="14.238" y1="0.766" x2="14.238" y2="23.266"/><line class="cls-1" x1="7.488" y1="0.766" x2="16.488" y2="0.766"/><line class="cls-1" x1="7.488" y1="8.266" x2="16.488" y2="8.266"/><line class="cls-1" x1="7.488" y1="15.766" x2="16.488" y2="15.766"/><line class="cls-1" x1="7.488" y1="23.266" x2="16.488" y2="23.266"/><path class="cls-1" d="M21.24,12.263a5.716,5.716,0,0,1-4,1.248,5.719,5.719,0,0,1,1.248-4,5.716,5.716,0,0,1,4-1.248A5.719,5.719,0,0,1,21.24,12.263Z"/><path class="cls-1" d="M2.736,19.772a5.719,5.719,0,0,0,4,1.248,5.713,5.713,0,0,0-1.249-4,5.716,5.716,0,0,0-4-1.248A5.716,5.716,0,0,0,2.736,19.772Z"/></svg>