<svg id="Regular" xmlns="http://www.w3.org/2000/svg" viewBox="0 0 24 24"><defs><style>.cls-1{fill:none;stroke:currentColor;stroke-linecap:round;stroke-linejoin:round;stroke-width:1.5px;}</style></defs><title>plant-pot-2</title><path class="cls-1" d="M9.236,5.135a22.646,22.646,0,0,1,2.755-4.1.666.666,0,0,1,1.013,0,22.6,22.6,0,0,1,2.755,4.1"/><path class="cls-1" d="M12.5,11.266,17.972.975c.157-.295.356-.275.441.046l.63,2.366c1.064,4-2.156,7.879-6.546,7.879Z"/><path class="cls-1" d="M12.5,11.266,7.023.975C6.866.68,6.667.7,6.582,1.021l-.63,2.366c-1.064,4,2.156,7.879,6.545,7.879Z"/><path class="cls-1" d="M17.227,22.043a1.5,1.5,0,0,1-1.474,1.223H9.242a1.5,1.5,0,0,1-1.474-1.223l-1.687-9a1.5,1.5,0,0,1,1.474-1.777H17.44a1.5,1.5,0,0,1,1.474,1.777Z"/></svg>