<svg xmlns="http://www.w3.org/2000/svg" viewBox="0 0 24 24"><defs><style>.a{fill:none;stroke:currentColor;stroke-linecap:round;stroke-linejoin:round;stroke-width:1.5px;}</style></defs><title>plane-trip-take-off-check</title><path class="a" d="M14.573,9.044,15,7.955l3.2-1.076A2.412,2.412,0,0,0,16.66,2.306L5.228,6.149,3.7,4.627,1.427,5.39a.965.965,0,0,0-.412,1.558l3.073,3.44a1.931,1.931,0,0,0,2.054.543L9.508,9.8l-.682,4.864"/><path class="a" d="M13.459,3.382,9.883.92A.962.962,0,0,0,9.028.8l-1.721.578a.965.965,0,0,0-.373,1.6L8.886,4.919"/><circle class="a" cx="17.242" cy="17.26" r="5.989"/><polyline class="a" points="19.889 17.26 17.242 17.26 17.242 14.613"/></svg>