<svg id="Regular" xmlns="http://www.w3.org/2000/svg" viewBox="0 0 24 24"><defs><style>.cls-1{fill:none;stroke:currentColor;stroke-linecap:round;stroke-linejoin:round;stroke-width:1.5px;}</style></defs><title>plant-1</title><path class="cls-1" d="M14.372,5.641a7.781,7.781,0,0,1-2.255,4.875A7.781,7.781,0,0,1,9.862,5.641,7.785,7.785,0,0,1,12.117.766,7.785,7.785,0,0,1,14.372,5.641Z"/><path class="cls-1" d="M17.481,14.676a7.783,7.783,0,0,1-5.357-.39,7.786,7.786,0,0,1,3.766-3.831,7.78,7.78,0,0,1,5.357.391A7.78,7.78,0,0,1,17.481,14.676Z"/><path class="cls-1" d="M17.481,22.176a7.783,7.783,0,0,1-5.357-.39,7.786,7.786,0,0,1,3.766-3.831,7.78,7.78,0,0,1,5.357.391A7.78,7.78,0,0,1,17.481,22.176Z"/><path class="cls-1" d="M6.763,14.676a7.783,7.783,0,0,0,5.357-.39,7.782,7.782,0,0,0-3.765-3.831A7.784,7.784,0,0,0,3,10.846,7.786,7.786,0,0,0,6.763,14.676Z"/><path class="cls-1" d="M6.763,22.176a7.783,7.783,0,0,0,5.357-.39,7.782,7.782,0,0,0-3.765-3.831A7.784,7.784,0,0,0,3,18.346,7.786,7.786,0,0,0,6.763,22.176Z"/><line class="cls-1" x1="12.119" y1="10.516" x2="12.127" y2="23.266"/></svg>