<svg id="Regular" xmlns="http://www.w3.org/2000/svg" viewBox="0 0 24 24"><defs><style>.cls-1{fill:none;stroke:currentColor;stroke-linecap:round;stroke-linejoin:round;stroke-width:1.5px;}</style></defs><title>plant-pot-1</title><path class="cls-1" d="M10.653,8.984s-1.53,2.62-3.75,2.25c-4.5-.75-3.75-6.75-5.25-9a9.947,9.947,0,0,1,9,.75C12.9,4.484,12.9,6.734,10.653,8.984Z"/><path class="cls-1" d="M15.575,11.182S16.638,13,18.18,12.745c3.125-.521,2.6-4.688,3.646-6.251a6.913,6.913,0,0,0-6.251.521C14.013,8.057,14.013,9.62,15.575,11.182Z"/><path class="cls-1" d="M7.653,5.984s4.5,2.25,5.25,9.75c1.5-4.5,3.75-6,3.75-6"/><path class="cls-1" d="M16.038,23.234H9.768a.75.75,0,0,1-.735-.6l-1.2-6a.75.75,0,0,1,.735-.9h8.67a.75.75,0,0,1,.736.9l-1.2,6A.751.751,0,0,1,16.038,23.234Z"/></svg>