<svg xmlns="http://www.w3.org/2000/svg" viewBox="0 0 24 24"><defs><style>.a{fill:none;stroke:currentColor;stroke-linecap:round;stroke-linejoin:round;stroke-width:1.5px;}</style></defs><title>plane-trip-food-service</title><path class="a" d="M13.9,9.056l1.063-2.668,2.5-.816a1.875,1.875,0,1,0-1.165-3.564L7.381,4.919,6.2,3.726l-1.771.579A.75.75,0,0,0,4.1,5.513L6.467,8.207a1.5,1.5,0,0,0,1.593.436l2.624-.858L10.517,8.9"/><path class="a" d="M13.8,2.823,11.034.885a.751.751,0,0,0-.664-.1l-1.342.438a.75.75,0,0,0-.3,1.24l1.5,1.523"/><line class="a" x1="3" y1="12" x2="21" y2="12"/><path class="a" d="M11.25,15v1.5a3,3,0,0,1-6,0V15"/><line class="a" x1="8.25" y1="15" x2="8.25" y2="23.25"/><path class="a" d="M14.25,23.25V15s3,2.25,3,5.25h-3"/></svg>