<svg xmlns="http://www.w3.org/2000/svg" viewBox="0 0 24 24"><defs><style>.a{fill:none;stroke:currentColor;stroke-linecap:round;stroke-linejoin:round;stroke-width:1.5px;}</style></defs><title>plane-trip-person</title><path class="a" d="M8.625,13V11.815a4.5,4.5,0,0,0-2.6,2.018,1.5,1.5,0,0,1-1.295.74,1.5,1.5,0,0,1-1.292-2.261,7.487,7.487,0,0,1,12.445-.7,1.5,1.5,0,0,1-2.4,1.8,4.442,4.442,0,0,0-1.859-1.426v2.633l2.4,1.8a1.489,1.489,0,0,1,.38.415L16.717,20.6a1.5,1.5,0,0,1-2.558,1.57L12,18.643l-1.2-.9-.773,1.933a1.52,1.52,0,0,1-.332.5l-2.25,2.25A1.5,1.5,0,0,1,5.314,20.3l.44-.439"/><circle class="a" cx="10.125" cy="4.49" r="2.625"/><rect class="a" x="1.125" y="15.365" width="6" height="4.5" rx="0.5" ry="0.5"/><polyline class="a" points="19.125 1.115 19.125 7.115 17.625 8.615"/><line class="a" x1="20.625" y1="8.615" x2="19.125" y2="7.115"/><polyline class="a" points="15.375 5.615 19.125 3.365 22.875 5.615"/></svg>