<svg xmlns="http://www.w3.org/2000/svg" viewBox="0 0 24 24"><defs><style>.a{fill:none;stroke:currentColor;stroke-linecap:round;stroke-linejoin:round;stroke-width:1.5px;}</style></defs><title>plane-trip-land-cancel</title><path class="a" d="M14.97,8.558,4.446,3.956,4.335,1.8,2.137.838a.966.966,0,0,0-1.353.878L.75,6.334A1.93,1.93,0,0,0,1.908,8.118L5.166,9.543,1.389,12.691a.967.967,0,0,0,.232,1.628l1.693.74a.968.968,0,0,0,.82-.021l4.6-2.3,1.747-.874"/><path class="a" d="M12.412,7.44l-1-4.232a.964.964,0,0,0-.553-.663L9.2,1.816a.966.966,0,0,0-1.351.935l.141,2.754"/><circle class="a" cx="17.254" cy="17.246" r="5.996"/><line class="a" x1="13.014" y1="21.485" x2="21.493" y2="13.007"/></svg>