<svg xmlns="http://www.w3.org/2000/svg" viewBox="0 0 24 24"><defs><style>.a{fill:none;stroke:currentColor;stroke-linecap:round;stroke-linejoin:round;stroke-width:1.5px;}</style></defs><title>plane-board-arrival-departure</title><rect class="a" x="0.75" y="2.25" width="22.5" height="19.5" rx="1" ry="1"/><polyline class="a" points="3.75 5.25 3.75 7.5 9.75 9"/><line class="a" x1="6.75" y1="8.25" x2="6.75" y2="5.25"/><polyline class="a" points="14.25 6.75 14.25 9 20.25 7.5"/><line class="a" x1="17.25" y1="8.25" x2="17.25" y2="5.25"/><line class="a" x1="3.75" y1="12.75" x2="4.5" y2="12.75"/><line class="a" x1="7.5" y1="12.75" x2="10.5" y2="12.75"/><line class="a" x1="3.75" y1="15.75" x2="4.5" y2="15.75"/><line class="a" x1="7.5" y1="15.75" x2="10.5" y2="15.75"/><line class="a" x1="3.75" y1="18.75" x2="4.5" y2="18.75"/><line class="a" x1="7.5" y1="18.75" x2="10.5" y2="18.75"/><line class="a" x1="13.5" y1="12.75" x2="14.25" y2="12.75"/><line class="a" x1="17.25" y1="12.75" x2="20.25" y2="12.75"/><line class="a" x1="13.5" y1="15.75" x2="14.25" y2="15.75"/><line class="a" x1="17.25" y1="15.75" x2="20.25" y2="15.75"/><line class="a" x1="13.5" y1="18.75" x2="14.25" y2="18.75"/><line class="a" x1="17.25" y1="18.75" x2="20.25" y2="18.75"/></svg>