<svg id="Regular" xmlns="http://www.w3.org/2000/svg" viewBox="0 0 24 24"><defs><style>.cls-1{fill:none;stroke:currentColor;stroke-linecap:round;stroke-linejoin:round;stroke-width:1.5px;}</style></defs><title>plant-pot</title><path class="cls-1" d="M16.485,22.663a.75.75,0,0,1-.735.6H8.25a.75.75,0,0,1-.735-.6l-.75-3a.75.75,0,0,1,.735-.9h9a.75.75,0,0,1,.735.9Z"/><line class="cls-1" x1="12" y1="6.766" x2="12" y2="18.766"/><path class="cls-1" d="M12,.766a3,3,0,0,1,3,3v.75a1.5,1.5,0,0,0,1.5,1.5h.75a2.25,2.25,0,0,1,0,4.5A2.25,2.25,0,0,0,15,12.766a.75.75,0,0,0,.75.75h1.875a1.875,1.875,0,0,1,1.125,3.375"/><path class="cls-1" d="M12,.766a3,3,0,0,0-3,3v.75a1.5,1.5,0,0,1-1.5,1.5H6.75a2.25,2.25,0,0,0,0,4.5A2.25,2.25,0,0,1,9,12.766a.75.75,0,0,1-.75.75H6.375A1.875,1.875,0,0,0,5.249,16.89"/></svg>