<svg xmlns="http://www.w3.org/2000/svg" viewBox="0 0 24 24"><defs><style>.a{fill:none;stroke:currentColor;stroke-linecap:round;stroke-linejoin:round;stroke-width:1.5px;}</style></defs><title>plane-trip-return-1</title><path class="a" d="M21.75,18.75a1.5,1.5,0,0,0,0-3H19.5l-3-4.5H15l.75,4.5H12L9.75,15v4.5L12,18.75h3.75L15,23.25h2.25l2.25-4.5Z"/><line class="a" x1="6.75" y1="17.25" x2="5.25" y2="17.25"/><line class="a" x1="2.25" y1="17.25" x2="0.75" y2="17.25"/><path class="a" d="M2.25,8.25a1.5,1.5,0,0,1,0-3H4.5l3-4.5H9l-.75,4.5H12l2.25-.75V9L12,8.25H8.25L9,12.75H6.75L4.5,8.25Z"/><line class="a" x1="17.25" y1="6.75" x2="18.75" y2="6.75"/><line class="a" x1="21.75" y1="6.75" x2="23.25" y2="6.75"/></svg>