<svg id="Regular" xmlns="http://www.w3.org/2000/svg" viewBox="0 0 24 24"><defs><style>.cls-1{fill:none;stroke:currentColor;stroke-linecap:round;stroke-linejoin:round;stroke-width:1.5px;}</style></defs><title>plant-bonsai</title><path class="cls-1" d="M14.861,23.266H9.368c-.261,0-.483-.265-.526-.626l-.355-3c-.054-.458.2-.874.526-.874h6.2c.329,0,.58.416.526.874l-.356,3C15.344,23,15.122,23.266,14.861,23.266Z"/><path class="cls-1" d="M19,14.266a3.632,3.632,0,0,0,3.5-3.75A3.632,3.632,0,0,0,19,6.766,3.362,3.362,0,0,0,16.588,7.81,5.553,5.553,0,0,0,16.9,6.016,5.085,5.085,0,0,0,12,.766a5.085,5.085,0,0,0-4.9,5.25A5.553,5.553,0,0,0,7.412,7.81,3.362,3.362,0,0,0,5,6.766a3.632,3.632,0,0,0-3.5,3.75A3.632,3.632,0,0,0,5,14.266Z"/><line class="cls-1" x1="12" y1="14.266" x2="12" y2="18.766"/></svg>