<svg xmlns="http://www.w3.org/2000/svg" viewBox="0 0 24 24"><defs><style>.a{fill:none;stroke:currentColor;stroke-linecap:round;stroke-linejoin:round;stroke-width:1.5px;}</style></defs><title>plane-1</title><path class="a" d="M20.506,8.25,5.24,8.272l-1.1-2.2-2.293-.1A1.1,1.1,0,0,0,.84,7.5l2.067,4.668A2.2,2.2,0,0,0,4.924,13.5H8.965L6.481,18.668a1.086,1.086,0,0,0,.967,1.582h2.1a1.1,1.1,0,0,0,.843-.395L15.55,13.5h4.956a2.616,2.616,0,0,0,2.744-2.589A2.674,2.674,0,0,0,20.506,8.25Z"/><path class="a" d="M15.72,8.209l-2.992-4.02a1.1,1.1,0,0,0-.878-.439H9.782A1.1,1.1,0,0,0,8.8,5.339L10.239,8.25"/></svg>