<svg id="Regular" xmlns="http://www.w3.org/2000/svg" viewBox="0 0 24 24"><defs><style>.cls-1{fill:none;stroke:currentColor;stroke-linecap:round;stroke-linejoin:round;stroke-width:1.5px;}</style></defs><title>plant-bonsai-1</title><path class="cls-1" d="M14.111,23.266H8.618c-.261,0-.483-.265-.526-.626l-.355-3c-.054-.458.2-.874.525-.874h6.205c.329,0,.58.416.526.874l-.356,3C14.594,23,14.372,23.266,14.111,23.266Z"/><path class="cls-1" d="M21,11.266a2.25,2.25,0,1,0-.81-4.343A3.741,3.741,0,0,0,16.5,3.766a3.7,3.7,0,0,0-.5.05,5.242,5.242,0,0,0-10,2.2c0,.111.026.215.033.325A2.994,2.994,0,1,0,3.75,11.266Z"/><line class="cls-1" x1="11.25" y1="11.266" x2="11.25" y2="18.766"/><path class="cls-1" d="M11.25,16.516a4.2,4.2,0,0,0,4.5-4.5v-.75"/><path class="cls-1" d="M11.25,15.767c-3.6,0-4.5-2.25-4.5-3.75v-.751"/></svg>