<svg xmlns="http://www.w3.org/2000/svg" viewBox="0 0 24 24"><defs><style>.a{fill:none;stroke:currentColor;stroke-linecap:round;stroke-linejoin:round;stroke-width:1.5px;}</style></defs><title>plane-trip-round</title><path class="a" d="M9.939,15.333a.863.863,0,0,0,1.6-.476L11.315,8.78l2.731-3.009A1.54,1.54,0,0,0,11.87,3.6L8.861,6.326,2.784,6.1a.863.863,0,0,0-.476,1.6l3.4,2.04L4.481,11.07a.97.97,0,0,1-.41.265l-1.763.588a.723.723,0,0,0-.282,1.2.973.973,0,0,0,.5.268l.8.16a.977.977,0,0,1,.767.767l.16.8a.972.972,0,0,0,.268.5.723.723,0,0,0,1.2-.283l.588-1.763a.981.981,0,0,1,.264-.409L7.9,11.933Z"/><path class="a" d="M16.5,2C19.246.627,21.509.32,22.594,1.405c2.085,2.085-.968,8.518-6.819,14.37S3.49,24.679,1.406,22.594c-.985-.985-.824-2.939.237-5.345"/></svg>