<svg id="Regular" xmlns="http://www.w3.org/2000/svg" viewBox="0 0 24 24"><defs><style>.cls-1{fill:none;stroke:currentColor;stroke-linecap:round;stroke-linejoin:round;stroke-width:1.5px;}</style></defs><title>plant-cactus</title><path class="cls-1" d="M18.6,17.547a.729.729,0,0,0-.575-.281H5.98a.73.73,0,0,0-.708.907l.678,2.712A3.143,3.143,0,0,0,9,23.266h6a3.143,3.143,0,0,0,3.049-2.381l.678-2.712A.726.726,0,0,0,18.6,17.547Z"/><line class="cls-1" x1="12" y1="0.766" x2="12" y2="3.016"/><line class="cls-1" x1="1.5" y1="5.668" x2="2.25" y2="6.967"/><line class="cls-1" x1="4.5" y1="5.668" x2="3.75" y2="6.967"/><line class="cls-1" x1="7.757" y1="2.266" x2="9.172" y2="4.016"/><line class="cls-1" x1="16.243" y1="2.266" x2="14.828" y2="4.016"/><line class="cls-1" x1="22.5" y1="7.168" x2="21.75" y2="8.467"/><line class="cls-1" x1="19.5" y1="7.168" x2="20.25" y2="8.467"/><path class="cls-1" d="M21,8.266a1.5,1.5,0,0,0-1.5,1.5,1.5,1.5,0,0,1-1.5,1.5H16.5V7.516a4.5,4.5,0,0,0-9,0v2.25H6a1.5,1.5,0,0,1-1.5-1.5,1.5,1.5,0,0,0-3,0,4.5,4.5,0,0,0,4.5,4.5H7.5v4.5h9v-3H18a4.5,4.5,0,0,0,4.5-4.5A1.5,1.5,0,0,0,21,8.266Z"/></svg>