<svg xmlns="http://www.w3.org/2000/svg" viewBox="0 0 24 24"><defs><style>.a{fill:none;stroke:currentColor;stroke-linecap:round;stroke-linejoin:round;stroke-width:1.5px;}</style></defs><title>plane-boarding-pass</title><rect class="a" x="0.75" y="3" width="22.5" height="18" rx="1.5" ry="1.5"/><path class="a" d="M17.777,7.609,8.891,10.6,7.7,9.413l-1.766.593a.75.75,0,0,0-.32,1.211L8.005,13.89a1.5,1.5,0,0,0,1.6.423l2.617-.88-.53,3.781a.749.749,0,0,0,.981.815l1.361-.457a.751.751,0,0,0,.46-.44L16.484,12l2.488-.837a1.875,1.875,0,1,0-1.2-3.554Z"/><path class="a" d="M15.289,8.445l-2.78-1.914a.746.746,0,0,0-.664-.093l-1.338.449a.75.75,0,0,0-.29,1.243l1.517,1.51"/><line class="a" x1="3.75" y1="6" x2="3.75" y2="7.5"/><line class="a" x1="3.75" y1="16.5" x2="3.75" y2="18"/></svg>