<svg xmlns="http://www.w3.org/2000/svg" viewBox="0 0 24 24"><defs><style>.a{fill:none;stroke:currentColor;stroke-linecap:round;stroke-linejoin:round;stroke-width:1.5px;}</style></defs><title>plane-boarding-pass-check</title><path class="a" d="M21.75,9.75V2.25a1.5,1.5,0,0,0-1.5-1.5h-18a1.5,1.5,0,0,0-1.5,1.5V16.5A1.5,1.5,0,0,0,2.25,18h6"/><path class="a" d="M23.25,18A5.25,5.25,0,1,1,18,12.75"/><path class="a" d="M23.25,14.062l-4.786,4.786a.657.657,0,0,1-.928,0l-1.5-1.5"/><line class="a" x1="12.047" y1="7.967" x2="5.212" y2="12.587"/><polyline class="a" points="6.219 7.38 9.562 9.647 10.419 13.594"/><polyline class="a" points="3.75 11.764 5.212 12.587 5.43 14.25"/><line class="a" x1="0.75" y1="4.5" x2="21.75" y2="4.5"/></svg>