<svg id="Regular" xmlns="http://www.w3.org/2000/svg" viewBox="0 0 24 24"><defs><style>.cls-1{fill:none;stroke:currentColor;stroke-linecap:round;stroke-linejoin:round;stroke-width:1.5px;}</style></defs><title>plant-sad</title><path class="cls-1" d="M8.985,14.28a.375.375,0,0,0-.375.375"/><path class="cls-1" d="M9.36,14.655a.375.375,0,0,0-.375-.375"/><path class="cls-1" d="M8.985,15.03a.375.375,0,0,0,.375-.375"/><path class="cls-1" d="M8.61,14.655a.375.375,0,0,0,.375.375"/><path class="cls-1" d="M14.985,14.28a.375.375,0,0,0-.375.375"/><path class="cls-1" d="M15.36,14.655a.375.375,0,0,0-.375-.375"/><path class="cls-1" d="M14.985,15.03a.375.375,0,0,0,.375-.375"/><path class="cls-1" d="M14.61,14.655a.375.375,0,0,0,.375.375"/><path class="cls-1" d="M18.626,21.436a2,2,0,0,1-1.99,1.83h-9.3a2,2,0,0,1-1.989-1.83L4.5,11.288H19.471Z"/><line class="cls-1" x1="3.5" y1="11.288" x2="20.47" y2="11.288"/><path class="cls-1" d="M15.107,20.272a3.439,3.439,0,0,0-6.245,0"/><path class="cls-1" d="M11.985,11.288,17.01,2.151a.482.482,0,0,1,.861.034,6.455,6.455,0,0,1-5.886,9.1Z"/><path class="cls-1" d="M11.985,11.288,6.959,2.151a.481.481,0,0,0-.86.034,6.455,6.455,0,0,0,5.886,9.1Z"/><path class="cls-1" d="M9.009,5.878a40.73,40.73,0,0,1,2.548-4.869.5.5,0,0,1,.856,0,42.584,42.584,0,0,1,2.547,4.87"/></svg>