<svg id="Regular" xmlns="http://www.w3.org/2000/svg" viewBox="0 0 24 24"><defs><style>.cls-1{fill:none;stroke:currentColor;stroke-linecap:round;stroke-linejoin:round;stroke-width:1.5px;}</style></defs><title>plant-smile</title><path class="cls-1" d="M18.656,21.436a2,2,0,0,1-1.989,1.83h-9.3a2,2,0,0,1-1.99-1.83L4.529,11.288H19.5Z"/><line class="cls-1" x1="3.531" y1="11.288" x2="20.5" y2="11.288"/><path class="cls-1" d="M10.672,14.9a1.246,1.246,0,0,0-2.151,0"/><path class="cls-1" d="M13.359,14.9a1.245,1.245,0,0,1,2.15,0"/><path class="cls-1" d="M8.893,18.274a3.439,3.439,0,0,0,6.244,0"/><path class="cls-1" d="M12.015,11.288l5.026-9.137a.481.481,0,0,1,.86.034,6.455,6.455,0,0,1-5.886,9.1Z"/><path class="cls-1" d="M12.015,11.288,6.99,2.151a.482.482,0,0,0-.861.034,6.455,6.455,0,0,0,5.886,9.1Z"/><path class="cls-1" d="M9.04,5.878a40.738,40.738,0,0,1,2.547-4.869.5.5,0,0,1,.856,0,42.574,42.574,0,0,1,2.548,4.87"/></svg>