<svg xmlns="http://www.w3.org/2000/svg" viewBox="0 0 24 24"><defs><style>.a{fill:none;stroke:currentColor;stroke-linecap:round;stroke-linejoin:round;stroke-width:1.5px;}</style></defs><title>plane-land</title><path class="a" d="M19.577,13.67l-12.72-6.2L6.851,5.013,4.843,3.9a1.1,1.1,0,0,0-1.584.921l-.295,5.239a2.2,2.2,0,0,0,1.215,2.089l3.618,1.8L3.336,17.308a1.1,1.1,0,0,0,.173,1.86L5.39,20.1a1.1,1.1,0,0,0,.93.022L13.7,16.875l3.44,1.71a2.744,2.744,0,0,0,2.442-4.915Z"/><path class="a" d="M16.276,12.06l-.9-4.918a1.1,1.1,0,0,0-.591-.784l-1.852-.919a1.1,1.1,0,0,0-1.586.986V9.658"/></svg>