<svg xmlns="http://www.w3.org/2000/svg" viewBox="0 0 24 24"><defs><style>.a{fill:none;stroke:currentColor;stroke-linecap:round;stroke-linejoin:round;stroke-width:1.5px;}</style></defs><title>plane-trip-land-check</title><path class="a" d="M14.972,8.554,4.448,3.952,4.337,1.793,2.138.832A.966.966,0,0,0,.784,1.71L.75,6.331A1.932,1.932,0,0,0,1.909,8.116l3.26,1.425L1.39,12.692a.967.967,0,0,0,.231,1.628l1.695.741a.968.968,0,0,0,.82-.021l4.6-2.3.972-.486"/><path class="a" d="M12.419,7.437l-1-4.234a.968.968,0,0,0-.554-.664L9.2,1.81a.967.967,0,0,0-1.352.936L7.991,5.5"/><circle class="a" cx="17.25" cy="17.25" r="6"/><polyline class="a" points="19.902 17.25 17.25 17.25 17.25 14.598"/></svg>