<svg xmlns="http://www.w3.org/2000/svg" viewBox="0 0 24 24"><defs><style>.a{fill:none;stroke:currentColor;stroke-linecap:round;stroke-linejoin:round;stroke-width:1.5px;}</style></defs><title>plane-boarding-pass-hand</title><path class="a" d="M7.5,15l1.673-1.256a1.57,1.57,0,0,1,2.247.385h0a1.571,1.571,0,0,1,0,1.741L9.775,18.337A4.5,4.5,0,0,1,7.7,20.019L5.25,21"/><path class="a" d="M8.25,9.75,4.655,11.29a4.5,4.5,0,0,0-2.364,2.364L1.114,16.4A4.5,4.5,0,0,0,.75,18.173V23.25"/><path class="a" d="M8.25,19.755V21a2.25,2.25,0,0,0,2.25,2.25H21A2.25,2.25,0,0,0,23.25,21V3A2.25,2.25,0,0,0,21,.75H18.75a3,3,0,0,1-6,0H10.5A2.25,2.25,0,0,0,8.25,3V14.437"/><polyline class="a" points="12.286 9.525 13.67 10.328 19.5 7.475"/><line class="a" x1="17.069" y1="8.665" x2="13.786" y2="6.75"/><line class="a" x1="23.25" y1="18.75" x2="20.25" y2="18.75"/><line class="a" x1="17.25" y1="18.75" x2="15" y2="18.75"/></svg>