<svg xmlns="http://www.w3.org/2000/svg" viewBox="0 0 24 24"><defs><style>.a{fill:none;stroke:currentColor;stroke-linecap:round;stroke-linejoin:round;stroke-width:1.5px;}</style></defs><title>plane-trip-time</title><path class="a" d="M17.216,13.25,4.5,13.268,3.58,11.439l-1.911-.087a.914.914,0,0,0-.841,1.275L2.55,16.516a1.83,1.83,0,0,0,1.682,1.109H7.6l-2.07,4.307a.9.9,0,0,0,.806,1.318h1.75a.918.918,0,0,0,.7-.329l4.3-5.3h4.13A2.18,2.18,0,0,0,19.5,15.468,2.229,2.229,0,0,0,17.216,13.25Z"/><path class="a" d="M13.228,13.216l-2.493-3.35A.916.916,0,0,0,10,9.5H8.28a.914.914,0,0,0-.818,1.323l1.2,2.426"/><circle class="a" cx="18.753" cy="5.25" r="4.5"/><polyline class="a" points="20.253 5.25 18.753 5.25 18.753 3.75"/></svg>