<svg xmlns="http://www.w3.org/2000/svg" viewBox="0 0 24 24"><defs><style>.a{fill:none;stroke:currentColor;stroke-linecap:round;stroke-linejoin:round;stroke-width:1.5px;}</style></defs><title>plane-boarding-pass-smartphone-check</title><path class="a" d="M15.751,9.75v-6a3,3,0,0,0-3-3H4.5a3,3,0,0,0-3,3v16.5a3,3,0,0,0,3,3h6"/><path class="a" d="M22.5,18a5.25,5.25,0,1,1-5.25-5.25"/><path class="a" d="M22.5,14.062l-4.785,4.786a.658.658,0,0,1-.929,0l-1.5-1.5"/><line class="a" x1="1.5" y1="19.5" x2="9.001" y2="19.5"/><line class="a" x1="11.7" y1="5.25" x2="6.75" y2="11.85"/><polyline class="a" points="6 6.6 9.9 7.65 12 11.1"/><polyline class="a" points="5.1 11.55 6.75 11.85 7.5 13.35"/></svg>