<svg id="Regular" xmlns="http://www.w3.org/2000/svg" viewBox="0 0 24 24"><defs><style>.cls-1{fill:none;stroke:currentColor;stroke-linecap:round;stroke-linejoin:round;stroke-width:1.5px;}</style></defs><title>plant-2</title><path class="cls-1" d="M11.609,3.809a2.4,2.4,0,0,0-2.4,2.4A3.005,3.005,0,0,0,12.21,9.218a3.756,3.756,0,0,0,3.757-3.756,4.7,4.7,0,0,0-4.7-4.7A5.869,5.869,0,0,0,5.4,6.636S5.4,10.06,9.8,13c5.306,3.537,2.445,10.271,2.445,10.271"/><path class="cls-1" d="M15.152,14.266A3,3,0,0,1,12.789,17.2"/><path class="cls-1" d="M17,20.267a3,3,0,0,1-4.19,1.043"/></svg>