<svg xmlns="http://www.w3.org/2000/svg" viewBox="0 0 24 24"><defs><style>.a{fill:none;stroke:currentColor;stroke-linecap:round;stroke-linejoin:round;stroke-width:1.5px;}</style></defs><title>plane-trip-cocktail-service</title><path class="a" d="M13.9,9.056l1.063-2.668,2.5-.816a1.875,1.875,0,1,0-1.165-3.564L7.381,4.919,6.2,3.726l-1.771.579A.75.75,0,0,0,4.1,5.513L6.467,8.207a1.5,1.5,0,0,0,1.593.436l2.624-.858L10.517,8.9"/><path class="a" d="M13.8,2.823,11.034.885a.751.751,0,0,0-.664-.1l-1.342.438a.75.75,0,0,0-.3,1.24l1.5,1.523"/><line class="a" x1="3" y1="12" x2="21" y2="12"/><line class="a" x1="10.5" y1="20.25" x2="10.5" y2="23.25"/><line class="a" x1="9" y1="23.25" x2="12" y2="23.25"/><path class="a" d="M8.812,15.75a11.446,11.446,0,0,0-.562,2.812c0,1.125,1.125,1.688,2.25,1.688s2.25-.563,2.25-1.688a11.446,11.446,0,0,0-.562-2.812Z"/></svg>