<svg id="Regular" xmlns="http://www.w3.org/2000/svg" viewBox="0 0 24 24"><defs><style>.cls-1{fill:none;stroke:currentColor;stroke-linecap:round;stroke-linejoin:round;stroke-width:1.5px;}</style></defs><title>plant-cacti</title><path class="cls-1" d="M16.033,23.266H6.967a.92.92,0,0,1-.868-.835l-.587-4a.969.969,0,0,1,.868-1.165H16.62a.969.969,0,0,1,.868,1.165l-.587,4A.92.92,0,0,1,16.033,23.266Z"/><path class="cls-1" d="M16,7.516a4.5,4.5,0,0,0-9,0v9.75h9Z"/><line class="cls-1" x1="11.5" y1="3.016" x2="11.5" y2="0.766"/><line class="cls-1" x1="15.035" y1="4.731" x2="16.75" y2="3.016"/><line class="cls-1" x1="8.027" y1="4.655" x2="6.25" y2="3.766"/><line class="cls-1" x1="16" y1="9.016" x2="17.5" y2="8.266"/><line class="cls-1" x1="7" y1="9.016" x2="5.5" y2="8.266"/><line class="cls-1" x1="7" y1="12.766" x2="5.5" y2="12.766"/><line class="cls-1" x1="16" y1="14.266" x2="17.5" y2="14.266"/><line class="cls-1" x1="12.25" y1="9.016" x2="13" y2="7.516"/><line class="cls-1" x1="10.75" y1="14.266" x2="10" y2="12.766"/></svg>