<svg xmlns="http://www.w3.org/2000/svg" viewBox="0 0 24 24"><defs><style>.a{fill:none;stroke:currentColor;stroke-linecap:round;stroke-linejoin:round;stroke-width:1.5px;}</style></defs><title>plane-take-off</title><path class="a" d="M18.668,4.24,6.038,10.623,4.079,9.145l-2.1.925a1.1,1.1,0,0,0-.224,1.819l3.995,3.4a2.191,2.191,0,0,0,2.4.3l3.62-1.8v5.587a1.085,1.085,0,0,0,1.569.986l1.881-.933a1.1,1.1,0,0,0,.58-.729l1.87-7.838,3.441-1.707A2.744,2.744,0,1,0,18.668,4.24Z"/><path class="a" d="M15.391,5.9l-4.46-2.259a1.1,1.1,0,0,0-.982,0L8.1,4.554a1.1,1.1,0,0,0-.173,1.859L10.5,8.368"/></svg>