<svg id="Regular" xmlns="http://www.w3.org/2000/svg" viewBox="0 0 24 24"><defs><style>.cls-1{fill:none;stroke:currentColor;stroke-linecap:round;stroke-linejoin:round;stroke-width:1.5px;}</style></defs><title>plant-flower</title><path class="cls-1" d="M17.25,14.312A1.984,1.984,0,0,1,18,15.766c0,1.657-2.686,3-6,3s-6-1.343-6-3a1.981,1.981,0,0,1,.75-1.453"/><path class="cls-1" d="M17.953,16.138,16.5,21.016c-.393,1.179-2.015,2.25-4.5,2.25S7.893,22.2,7.5,21.016L6.047,16.138"/><path class="cls-1" d="M14.25,5.266a2.25,2.25,0,0,1-4.5,0c0-1.242,2.25-4.5,2.25-4.5S14.25,4.024,14.25,5.266Z"/><path class="cls-1" d="M6.7,7.75a2.25,2.25,0,0,1-1.863,4.1C3.7,11.332,1.5,8.266,1.5,8.266S5.564,7.236,6.7,7.75Z"/><path class="cls-1" d="M17.54,7.75a2.25,2.25,0,1,0,1.862,4.1c1.131-.514,3.1-3.58,3.1-3.58S18.671,7.236,17.54,7.75Z"/><line class="cls-1" x1="12" y1="7.516" x2="12" y2="15.766"/><polyline class="cls-1" points="7.649 11.026 12 12.766 16.708 11.197"/></svg>