<svg id="Regular" xmlns="http://www.w3.org/2000/svg" viewBox="0 0 24 24"><defs><style>.cls-1{fill:none;stroke:currentColor;stroke-linecap:round;stroke-linejoin:round;stroke-width:1.5px;}</style></defs><title>plant-pot-3</title><path class="cls-1" d="M20.247,13.516a1.5,1.5,0,0,1-1.5,1.5H5.247a1.5,1.5,0,1,1,0-3h13.5A1.5,1.5,0,0,1,20.247,13.516Z"/><path class="cls-1" d="M18.747,15.016l-1.3,6.978a1.5,1.5,0,0,1-1.482,1.272H8.034a1.5,1.5,0,0,1-1.482-1.272l-1.3-6.978"/><line class="cls-1" x1="11.997" y1="0.766" x2="11.997" y2="12.016"/><path class="cls-1" d="M17.61,2.266a4.5,4.5,0,0,1-5.613,3"/><path class="cls-1" d="M6.385.766a4.5,4.5,0,0,0,5.612,3"/><path class="cls-1" d="M6.385,6.016a4.5,4.5,0,0,0,5.612,3"/></svg>