<svg xmlns="http://www.w3.org/2000/svg" viewBox="0 0 24 24"><defs><style>.a{fill:none;stroke:currentColor;stroke-linecap:round;stroke-linejoin:round;stroke-width:1.5px;}</style></defs><title>plane-trip-return</title><path class="a" d="M21,18.75H19.5l-3.75-4.5H13.964a.749.749,0,0,0-.671,1.085L15,18.75H12l-.75-1.5H9.211a.75.75,0,0,0-.728.931l.983,3.933a1.5,1.5,0,0,0,1.455,1.136H21a2.25,2.25,0,0,0,0-4.5Z"/><line class="a" x1="0.75" y1="21.75" x2="2.25" y2="21.75"/><line class="a" x1="5.25" y1="21.75" x2="6.75" y2="21.75"/><path class="a" d="M3,5.25H4.5L8.25.75h1.786a.749.749,0,0,1,.671,1.085L9,5.25h3l.75-1.5h2.039a.75.75,0,0,1,.728.931l-.983,3.933A1.5,1.5,0,0,1,13.079,9.75H3a2.25,2.25,0,0,1,0-4.5Z"/><line class="a" x1="23.25" y1="8.25" x2="21.75" y2="8.25"/><line class="a" x1="18.75" y1="8.25" x2="17.25" y2="8.25"/></svg>