<svg id="Regular" xmlns="http://www.w3.org/2000/svg" viewBox="0 0 24 24"><defs><style>.cls-1{fill:none;stroke:currentColor;stroke-linecap:round;stroke-linejoin:round;stroke-width:1.5px;}</style></defs><title>platypus</title><path class="cls-1" d="M12.033,13.212a3.678,3.678,0,0,1,7.356,0c0,2.031-.736,4.413-5.149,4.413H7.23"/><path class="cls-1" d="M19.389,13.212h3.678s.735,2.942-.736,3.678-3.678-.736-3.678-.736l-.1-.069"/><path class="cls-1" d="M12.315,11.8l-.282-.056a40.637,40.637,0,0,0-6.62-.736C1,11.005.264,14.683,1,16.89s2.207,2.942,4.414,2.942H8.355"/><path class="cls-1" d="M6.148,14.683a3.556,3.556,0,0,1,0,5.149"/><path class="cls-1" d="M12.769,17.625s-.736,2.207,2.942,2.207"/><path class="cls-1" d="M2.013,12.157l-.278-.416a5.3,5.3,0,0,1,0-5.149C3.206,3.649,3.822,1.323,6.148,3.649c2.207,2.207,1.471,2.207,0,3.678-1.523,1.523-2.257,2.258-2.2,3.836"/><path class="cls-1" d="M16.079,12.469a.375.375,0,0,0-.375.375"/><path class="cls-1" d="M16.454,12.844a.375.375,0,0,0-.375-.375"/><path class="cls-1" d="M16.079,13.219a.375.375,0,0,0,.375-.375"/><path class="cls-1" d="M15.7,12.844a.375.375,0,0,0,.375.375"/></svg>