<svg xmlns="http://www.w3.org/2000/svg" viewBox="0 0 24 24"><defs><style>.a{fill:none;stroke:currentColor;stroke-linecap:round;stroke-linejoin:round;stroke-width:1.5px;}</style></defs><title>police-man-3</title><path class="a" d="M18.75,8.25c0-5.063-3.022-7.5-6.75-7.5S5.25,3.187,5.25,8.25Z"/><path class="a" d="M5.25,8.25c.781,4.351,12.714,4.381,13.5,0"/><path class="a" d="M12,5.121a.375.375,0,1,0,.375.375A.375.375,0,0,0,12,5.121h0"/><path class="a" d="M16.309,13.5a5.251,5.251,0,0,1-8.618,0"/><path class="a" d="M3,23.25a10.657,10.657,0,0,1,18,0"/><line class="a" x1="12" y1="23.25" x2="12" y2="18.3"/><line class="a" x1="15.75" y1="23.25" x2="17.25" y2="23.25"/></svg>