<svg xmlns="http://www.w3.org/2000/svg" viewBox="0 0 24 24"><defs><style>.a{fill:none;stroke:currentColor;stroke-linecap:round;stroke-linejoin:round;stroke-width:1.5px;}</style></defs><title>police-hat</title><line class="a" x1="1.5" y1="13.75" x2="22.5" y2="13.75"/><line class="a" x1="22.5" y1="16.75" x2="1.5" y2="16.75"/><path class="a" d="M3,16.75s.9,6,9,6,9-6,9-6"/><path class="a" d="M3,13.75A5.625,5.625,0,0,1,.75,9.25C.75,6.25,7.5,1,12,1S23.25,6.25,23.25,9.25A5.625,5.625,0,0,1,21,13.75"/><path class="a" d="M12.232,10.673,12,10.75l-.232-.077A3.5,3.5,0,0,1,9.375,7.352V6.25a.75.75,0,0,1,.75-.75h3.75a.75.75,0,0,1,.75.75v1.1A3.5,3.5,0,0,1,12.232,10.673Z"/></svg>