<svg xmlns="http://www.w3.org/2000/svg" viewBox="0 0 24 24"><defs><style>.a{fill:none;stroke:currentColor;stroke-linecap:round;stroke-linejoin:round;stroke-width:1.5px;}</style></defs><title>police-rotating-light</title><path class="a" d="M18.75,18.75H5.25a3,3,0,0,0-3,3,1.5,1.5,0,0,0,1.5,1.5h16.5a1.5,1.5,0,0,0,1.5-1.5A3,3,0,0,0,18.75,18.75Z"/><path class="a" d="M14.565,5.25H9.435A3,3,0,0,0,6.453,7.919L5.25,18.75h13.5l-1.2-10.831A3,3,0,0,0,14.565,5.25Z"/><circle class="a" cx="12" cy="13.5" r="2.25"/><line class="a" x1="12" y1="15.75" x2="12" y2="18.75"/><line class="a" x1="12" y1="2.25" x2="12" y2="0.75"/><line class="a" x1="2.25" y1="9.75" x2="0.75" y2="9.75"/><line class="a" x1="2.25" y1="2.25" x2="3.75" y2="3.75"/><line class="a" x1="21.75" y1="9.75" x2="23.25" y2="9.75"/><line class="a" x1="21.75" y1="2.25" x2="20.25" y2="3.75"/></svg>