<svg xmlns="http://www.w3.org/2000/svg" viewBox="0 0 24 24"><defs><style>.a{fill:none;stroke:currentColor;stroke-linecap:round;stroke-linejoin:round;stroke-width:1.5px;}</style></defs><title>police-man-2</title><path class="a" d="M17.2,9.75A5.251,5.251,0,0,1,6.8,9.75"/><path class="a" d="M2.25,23.25a10.671,10.671,0,0,1,19.5,0"/><line class="a" x1="12" y1="23.25" x2="12" y2="16.916"/><path class="a" d="M2.25,6.75a64.13,64.13,0,0,0,19.5,0"/><path class="a" d="M6.393,7.25,7.628,2.925A3,3,0,0,1,10.513.75h2.974a3,3,0,0,1,2.885,2.175L17.607,7.25"/><path class="a" d="M12,3.375a.375.375,0,1,0,.375.375A.375.375,0,0,0,12,3.375h0"/><line class="a" x1="16.125" y1="23.25" x2="17.625" y2="23.25"/></svg>