<svg xmlns="http://www.w3.org/2000/svg" viewBox="0 0 24 24"><defs><style>.a{fill:none;stroke:currentColor;stroke-linecap:round;stroke-linejoin:round;stroke-width:1.5px;}</style></defs><title>police-woman-3</title><path class="a" d="M2.424,23.252a10.669,10.669,0,0,1,19.5,0"/><line class="a" x1="12.174" y1="23.248" x2="12.174" y2="16.915"/><path class="a" d="M2.076,6.748a64.067,64.067,0,0,0,19.5,0"/><path class="a" d="M6.219,7.248,7.454,2.924A3,3,0,0,1,10.339.748h2.974A3,3,0,0,1,16.2,2.924l1.236,4.324"/><path class="a" d="M11.826,3.373a.375.375,0,1,0,.375.375.375.375,0,0,0-.375-.375h0"/><line class="a" x1="15.924" y1="23.248" x2="17.424" y2="23.248"/><path class="a" d="M6.258,7.123S6.2,11.141,2.987,12.748"/><path class="a" d="M17.394,7.123s.057,4.018,3.271,5.625"/><path class="a" d="M6.842,7.3l-.048.161A5.26,5.26,0,1,0,16.809,7.3"/></svg>