<svg xmlns="http://www.w3.org/2000/svg" viewBox="0 0 24 24"><defs><style>.a{fill:none;stroke:currentColor;stroke-linecap:round;stroke-linejoin:round;stroke-width:1.5px;}</style></defs><title>police-woman-spy-2</title><circle class="a" cx="12" cy="6" r="5.25"/><path class="a" d="M12,5.25H6.8A5.153,5.153,0,0,0,6.75,6a5.228,5.228,0,0,0,.594,2.427C8.953,8.944,11.5,8.783,12,5.25Z"/><path class="a" d="M17.2,5.25H12c.505,3.533,3.047,3.694,4.656,3.177A5.228,5.228,0,0,0,17.25,6,5.153,5.153,0,0,0,17.2,5.25Z"/><line class="a" x1="6" y1="5.25" x2="18" y2="5.25"/><line class="a" x1="3.957" y1="17.25" x2="20.043" y2="17.25"/><line class="a" x1="2.19" y1="20.25" x2="21.81" y2="20.25"/><path class="a" d="M22.473,23.25a10.5,10.5,0,0,0-20.946,0"/><path class="a" d="M6.8,6.75S6.75,10.5,3.75,12"/><path class="a" d="M17.2,6.75S17.25,10.5,20.25,12"/></svg>