<svg xmlns="http://www.w3.org/2000/svg" viewBox="0 0 24 24"><defs><style>.a{fill:none;stroke:currentColor;stroke-linecap:round;stroke-linejoin:round;stroke-width:1.5px;}</style></defs><title>police-woman-2</title><path class="a" d="M18.75,8.25c0-5.063-3.022-7.5-6.75-7.5S5.25,3.187,5.25,8.25Z"/><path class="a" d="M5.25,8.25c.781,4.352,12.714,4.381,13.5,0"/><path class="a" d="M12,5.122a.375.375,0,1,0,.375.375A.375.375,0,0,0,12,5.122h0"/><path class="a" d="M17.245,10.272a5.25,5.25,0,1,1-10.49-.007"/><path class="a" d="M3,23.25a10.658,10.658,0,0,1,18,0"/><line class="a" x1="12" y1="23.25" x2="12" y2="18.301"/><line class="a" x1="15.75" y1="23.25" x2="17.25" y2="23.25"/><path class="a" d="M6.432,10.039s-.057,4.1-3.271,5.711"/><path class="a" d="M17.568,10.045s.057,4.1,3.271,5.705"/></svg>