<svg xmlns="http://www.w3.org/2000/svg" viewBox="0 0 24 24"><defs><style>.a{fill:none;stroke:currentColor;stroke-linecap:round;stroke-linejoin:round;stroke-width:1.5px;}</style></defs><title>police-hat-8</title><circle class="a" cx="12" cy="8.25" r="3"/><path class="a" d="M11.7,23.186a.752.752,0,0,0,.606,0A34.652,34.652,0,0,1,21.7,20.452a.75.75,0,0,0,.444-1.268L20.25,17.25V9A8.25,8.25,0,0,0,3.75,9v8.25L1.861,19.184a.75.75,0,0,0,.445,1.268A34.645,34.645,0,0,1,11.7,23.186Z"/><line class="a" x1="3.75" y1="17.25" x2="20.25" y2="17.25"/><line class="a" x1="3.75" y1="14.25" x2="20.25" y2="14.25"/></svg>