<svg xmlns="http://www.w3.org/2000/svg" viewBox="0 0 24 24"><defs><style>.a{fill:none;stroke:currentColor;stroke-linecap:round;stroke-linejoin:round;stroke-width:1.5px;}</style></defs><title>police-hat-1</title><path class="a" d="M16.5,12h5.966c.188-.377.4-.817.619-1.246a1.5,1.5,0,0,0-.944-2.134,7.425,7.425,0,0,1-4.122-2.98A7.4,7.4,0,0,0,12,2.25,7.4,7.4,0,0,0,5.981,5.64,7.425,7.425,0,0,1,1.859,8.62a1.5,1.5,0,0,0-.944,2.134c.22.429.431.869.619,1.246H7.5"/><path class="a" d="M1.5,15A12.055,12.055,0,0,0,12,21.75,12.055,12.055,0,0,0,22.5,15Z"/><polygon class="a" points="14.415 10.335 12 12.75 9.585 10.335 9.585 7.115 14.415 7.115 14.415 10.335"/><line class="a" x1="1.5" y1="12" x2="1.5" y2="15"/><line class="a" x1="22.5" y1="12" x2="22.5" y2="15"/></svg>