<svg xmlns="http://www.w3.org/2000/svg" viewBox="0 0 24 24"><defs><style>.a{fill:none;stroke:currentColor;stroke-linecap:round;stroke-linejoin:round;stroke-width:1.5px;}</style></defs><title>police-footsteps</title><path class="a" d="M10.182,17.434A3.761,3.761,0,1,1,2.75,18.6l-.116-.743a1.5,1.5,0,0,1,1.253-1.719l4.46-.7a1.5,1.5,0,0,1,1.719,1.253Z"/><path class="a" d="M4.3.849A4.685,4.685,0,0,0,.812,6.215L1.7,11.908a1.505,1.505,0,0,0,1.719,1.254l4.459-.7a1.5,1.5,0,0,0,1.254-1.719L9.112,10.6a4.493,4.493,0,0,1,.359-2.571A4.475,4.475,0,0,0,9.83,5.456l-.139-.89A4.514,4.514,0,0,0,4.3.849Z"/><path class="a" d="M13.541,18.82a3.762,3.762,0,0,0,7.4,1.336l.133-.741a1.506,1.506,0,0,0-1.213-1.748l-4.442-.8a1.5,1.5,0,0,0-1.748,1.214Z"/><path class="a" d="M19.812,2.376a4.686,4.686,0,0,1,3.357,5.445l-1.023,5.672A1.5,1.5,0,0,1,20.4,14.706l-4.442-.8a1.5,1.5,0,0,1-1.214-1.748l.026-.146a4.478,4.478,0,0,0-.3-2.578,4.481,4.481,0,0,1-.3-2.579l.16-.886A4.513,4.513,0,0,1,19.812,2.376Z"/></svg>