<svg xmlns="http://www.w3.org/2000/svg" viewBox="0 0 24 24"><defs><style>.a{fill:none;stroke:currentColor;stroke-linecap:round;stroke-linejoin:round;stroke-width:1.5px;}</style></defs><title>police-woman-spy-1</title><path class="a" d="M6.961,10.959,7.691,12a5.251,5.251,0,0,0,8.618,0l.732-1.041"/><path class="a" d="M2.25,23.25a10.67,10.67,0,0,1,19.5,0"/><line class="a" x1="3" y1="6.75" x2="21" y2="6.75"/><path class="a" d="M6,6.752,7.66,1.776A1.5,1.5,0,0,1,9.854.964l1.374.825a1.5,1.5,0,0,0,1.544,0L14.146.964a1.5,1.5,0,0,1,2.194.812L18,6.752"/><polyline class="a" points="12 23.25 8.589 17.471 6.75 21.75 9 23.25"/><polyline class="a" points="12 23.25 15.411 17.471 17.25 21.75 15 23.25"/><path class="a" d="M18.75,7.5v.75a3,3,0,0,1-3,3H14.121a1.5,1.5,0,0,1-1.06-.439L12,9.75l-1.061,1.061a1.5,1.5,0,0,1-1.06.439H8.25a3,3,0,0,1-3-3V7.5"/><path class="a" d="M6.778,10.864A6.1,6.1,0,0,1,3.75,15.75"/><path class="a" d="M17.222,10.864A6.1,6.1,0,0,0,20.25,15.75"/></svg>