<svg xmlns="http://www.w3.org/2000/svg" viewBox="0 0 24 24"><defs><style>.a{fill:none;stroke:currentColor;stroke-linecap:round;stroke-linejoin:round;stroke-width:1.5px;}</style></defs><title>police-polygraph</title><rect class="a" x="0.75" y="14.25" width="22.5" height="9" rx="1.5" ry="1.5"/><path class="a" d="M23.25,5.25v-3a1.5,1.5,0,0,0-1.5-1.5h-3a1.5,1.5,0,0,0-1.5,1.5v3a3,3,0,0,0,6,0Z"/><line class="a" x1="17.25" y1="3.75" x2="23.25" y2="3.75"/><path class="a" d="M20.25,8.25v1.5a1.5,1.5,0,0,1-1.5,1.5h-6a3,3,0,0,1-3-3V3.75a3,3,0,0,0-6,0v10.5"/><line class="a" x1="0.75" y1="17.25" x2="3.75" y2="17.25"/><line class="a" x1="0.75" y1="20.25" x2="3.75" y2="20.25"/><rect class="a" x="6.75" y="17.25" width="9" height="3"/><path class="a" d="M19.5,18.375a.375.375,0,0,1,.375.375"/><path class="a" d="M19.125,18.75a.375.375,0,0,1,.375-.375"/><path class="a" d="M19.5,19.125a.375.375,0,0,1-.375-.375"/><path class="a" d="M19.875,18.75a.375.375,0,0,1-.375.375"/></svg>