<svg xmlns="http://www.w3.org/2000/svg" viewBox="0 0 24 24"><defs><style>.a{fill:none;stroke:currentColor;stroke-linecap:round;stroke-linejoin:round;stroke-width:1.5px;}</style></defs><title>police-hat-2</title><path class="a" d="M20.25,16.5c0,3.314-3.694,6-8.25,6s-8.25-2.686-8.25-6"/><path class="a" d="M20.25,14.1a6.409,6.409,0,0,0,3-5.1c0-4.142-5.037-7.5-11.25-7.5S.75,4.858.75,9a6.407,6.407,0,0,0,3,5.1"/><line class="a" x1="6.75" y1="13.5" x2="6.75" y2="8.795"/><line class="a" x1="17.25" y1="13.5" x2="17.25" y2="8.795"/><line class="a" x1="3.75" y1="13.5" x2="20.25" y2="13.5"/><circle class="a" cx="12" cy="7.5" r="3"/><path class="a" d="M9.139,8.4a20.381,20.381,0,0,0-4.378.943A1.5,1.5,0,0,0,3.75,10.766V16.5h16.5V10.766a1.5,1.5,0,0,0-1.011-1.418A20.381,20.381,0,0,0,14.861,8.4"/></svg>