<svg xmlns="http://www.w3.org/2000/svg" viewBox="0 0 24 24"><defs><style>.a{fill:none;stroke:currentColor;stroke-linecap:round;stroke-linejoin:round;stroke-width:1.5px;}</style></defs><title>police-man-spy-2</title><path class="a" d="M2.25,23.25a10.669,10.669,0,0,1,19.5,0"/><path class="a" d="M17.25,9.162a5.23,5.23,0,0,1-.941,3"/><path class="a" d="M7.691,12.163a5.23,5.23,0,0,1-.941-3"/><path class="a" d="M11.25,12.162c1.1,2.344-2.968,3.412-5.4,2.531C6.729,12.26,10.152,9.819,11.25,12.162Z"/><path class="a" d="M12.75,12.162c-1.1,2.344,2.968,3.412,5.4,2.531C17.271,12.26,13.848,9.819,12.75,12.162Z"/><line class="a" x1="3" y1="6.75" x2="21" y2="6.75"/><path class="a" d="M6,6.751,7.66,1.775A1.5,1.5,0,0,1,9.854.963l1.374.825a1.5,1.5,0,0,0,1.544,0L14.146.963a1.5,1.5,0,0,1,2.194.812L18,6.751"/><polyline class="a" points="12 23.25 8.589 17.47 6.75 21.75 9 23.25"/><polyline class="a" points="12 23.25 15.411 17.47 17.25 21.75 15 23.25"/></svg>