<svg xmlns="http://www.w3.org/2000/svg" viewBox="0 0 24 24"><defs><style>.a{fill:none;stroke:currentColor;stroke-linecap:round;stroke-linejoin:round;stroke-width:1.5px;}</style></defs><title>police-footstep</title><path class="a" d="M17.437,10.5c0-2.071-2.35-3.75-5.25-3.75S6.938,8.429,6.938,10.5v9.589a3.112,3.112,0,0,0,2.5,3.12,3,3,0,0,0,3.5-2.959V18.788a6.869,6.869,0,0,1,1.373-4.119h0a7.289,7.289,0,0,1,1.6-1.525A3.3,3.3,0,0,0,17.437,10.5Z"/><circle class="a" cx="18.187" cy="3" r="2.25"/><circle class="a" cx="11.438" cy="2.25" r="1.5"/><path class="a" d="M6.938,3.375a.375.375,0,0,1,.375.375"/><path class="a" d="M6.563,3.75a.374.374,0,0,1,.375-.375"/><path class="a" d="M6.938,4.125a.374.374,0,0,1-.375-.375"/><path class="a" d="M7.313,3.75a.375.375,0,0,1-.375.375"/><path class="a" d="M4.688,5.625A.375.375,0,0,1,5.063,6"/><path class="a" d="M4.313,6a.374.374,0,0,1,.375-.375"/><path class="a" d="M4.688,6.375A.374.374,0,0,1,4.313,6"/><path class="a" d="M5.063,6a.375.375,0,0,1-.375.375"/></svg>