<svg xmlns="http://www.w3.org/2000/svg" viewBox="0 0 24 24"><defs><style>.a{fill:none;stroke:currentColor;stroke-linecap:round;stroke-linejoin:round;stroke-width:1.5px;}</style></defs><title>police-hat-6</title><path class="a" d="M2,10.5V3.2A1.507,1.507,0,0,1,2.99,1.79,33.282,33.282,0,0,1,11.75.75a33.282,33.282,0,0,1,8.76,1.04A1.507,1.507,0,0,1,21.5,3.2v7.3"/><path class="a" d="M2,16.5s.75,6.75,9.75,6.75S21.5,16.5,21.5,16.5Z"/><line class="a" x1="2" y1="13.5" x2="21.5" y2="13.5"/><path class="a" d="M11.75,10.5C9.8,9.325,8.593,8.929,8.593,7.007V4.5h6V7.007C14.593,8.789,13.477,9.294,11.75,10.5Z"/></svg>