<svg xmlns="http://www.w3.org/2000/svg" viewBox="0 0 24 24"><defs><style>.a{fill:none;stroke:currentColor;stroke-linecap:round;stroke-linejoin:round;stroke-width:1.5px;}</style></defs><title>police-man-spy-1</title><path class="a" d="M6.972,10.964,7.691,12a5.251,5.251,0,0,0,8.618,0l.719-1.036"/><path class="a" d="M2.25,23.25a10.669,10.669,0,0,1,19.5,0"/><line class="a" x1="3" y1="6.75" x2="21" y2="6.75"/><path class="a" d="M6,6.751,7.66,1.775A1.5,1.5,0,0,1,9.854.963l1.374.825a1.5,1.5,0,0,0,1.544,0L14.146.963a1.5,1.5,0,0,1,2.194.812L18,6.751"/><polyline class="a" points="12 23.25 8.589 17.47 6.75 21.75 9 23.25"/><polyline class="a" points="12 23.25 15.411 17.47 17.25 21.75 15 23.25"/><path class="a" d="M18.75,6.751v1.5a3,3,0,0,1-3,3H14.121a1.5,1.5,0,0,1-1.06-.44L12,9.75l-1.061,1.06a1.5,1.5,0,0,1-1.06.44H8.25a3,3,0,0,1-3-3v-1.5"/></svg>