<svg id="Regular" xmlns="http://www.w3.org/2000/svg" viewBox="0 0 24 24"><defs><style>.cls-1{fill:none;stroke:currentColor;stroke-linecap:round;stroke-linejoin:round;stroke-width:1.5px;}</style></defs><title>pollution-pm10</title><path class="cls-1" d="M22.815,14.251A10.5,10.5,0,1,0,3.833,16.775L.75,23.25l6.475-3.084A10.431,10.431,0,0,0,12.75,21.75"/><line class="cls-1" x1="6.75" y1="14.25" x2="6.75" y2="6.75"/><path class="cls-1" d="M6.75,6.75H7.5a2.25,2.25,0,0,1,0,4.5H6.75"/><polyline class="cls-1" points="16.5 14.25 16.5 6.75 14.25 10.5 12 6.75 12 14.25"/><path class="cls-1" d="M15.75,17.25h.75a.75.75,0,0,1,.75.75v3.75"/><line class="cls-1" x1="15.75" y1="21.75" x2="18.75" y2="21.75"/><path class="cls-1" d="M23.25,20.25a1.5,1.5,0,0,1-3,0v-1.5a1.5,1.5,0,0,1,3,0Z"/></svg>