<svg id="Regular" xmlns="http://www.w3.org/2000/svg" viewBox="0 0 24 24"><defs><style>.cls-1{fill:none;stroke:currentColor;stroke-linecap:round;stroke-linejoin:round;stroke-width:1.5px;}</style></defs><title>pollution-water</title><path class="cls-1" d="M.75,23.25a5.511,5.511,0,0,0,4.5-1.5,4.547,4.547,0,0,0,6.75,0,4.547,4.547,0,0,0,6.75,0,5.511,5.511,0,0,0,4.5,1.5"/><path class="cls-1" d="M4.842,10.5a7.5,7.5,0,1,1,14.315,0"/><path class="cls-1" d="M19.5,16.345l.97.969a.749.749,0,0,0,1.06,0l.97-.969"/><path class="cls-1" d="M.75,14.25l.97.97a.749.749,0,0,0,1.06,0l.97-.97"/><path class="cls-1" d="M15.75,20.25V10.5a9.75,9.75,0,0,0-7.5,0v9.75"/><path class="cls-1" d="M8.253,10.743a4.5,4.5,0,1,1,7.5-.005"/><line class="cls-1" x1="11.25" y1="12.75" x2="11.25" y2="14.25"/><line class="cls-1" x1="12.75" y1="17.25" x2="12.75" y2="18.75"/></svg>