<svg id="Regular" xmlns="http://www.w3.org/2000/svg" viewBox="0 0 24 24"><defs><style>.cls-1{fill:none;stroke:currentColor;stroke-linecap:round;stroke-linejoin:round;stroke-width:1.5px;}</style></defs><title>pollution-fish</title><path class="cls-1" d="M20.679,18.854c-6.227-.31-10.521.267-14.386-3.6A11.253,11.253,0,0,1,3.157,5.407a11.253,11.253,0,0,1,9.849,3.136c4.071,4.071,3.223,8.3,3.223,14.707"/><line class="cls-1" x1="8.027" y1="8.142" x2="8.027" y2="10.629"/><line class="cls-1" x1="9.271" y1="9.386" x2="6.784" y2="9.386"/><path class="cls-1" d="M.75,2.25A5.511,5.511,0,0,0,5.25.75a4.638,4.638,0,0,0,3.375,1.5A4.638,4.638,0,0,0,12,.75a4.638,4.638,0,0,0,3.375,1.5A4.638,4.638,0,0,0,18.75.75a5.511,5.511,0,0,0,4.5,1.5"/></svg>