<svg id="Regular" xmlns="http://www.w3.org/2000/svg" viewBox="0 0 24 24"><defs><style>.cls-1{fill:none;stroke:currentColor;stroke-linecap:round;stroke-linejoin:round;stroke-width:1.5px;}</style></defs><title>pollution-rain-skull</title><line class="cls-1" x1="9.75" y1="19.5" x2="6" y2="23.25"/><line class="cls-1" x1="18.75" y1="19.5" x2="15" y2="23.25"/><line class="cls-1" x1="14.25" y1="19.5" x2="12" y2="21.75"/><line class="cls-1" x1="5.25" y1="19.5" x2="3" y2="21.75"/><path class="cls-1" d="M23.25,4.125c0-1.864-2.015-3.375-4.5-3.375s-4.5,1.511-4.5,3.375c0,1.246.16,2.322,1.5,2.907V9.75h6V7.032C23.09,6.447,23.25,5.371,23.25,4.125Z"/><line class="cls-1" x1="18.75" y1="7.5" x2="18.75" y2="9.75"/><path class="cls-1" d="M17.25,4.125a.375.375,0,0,1,.375.375"/><path class="cls-1" d="M16.875,4.5a.375.375,0,0,1,.375-.375"/><path class="cls-1" d="M17.25,4.875a.375.375,0,0,1-.375-.375"/><path class="cls-1" d="M17.625,4.5a.375.375,0,0,1-.375.375"/><path class="cls-1" d="M20.25,4.125a.375.375,0,0,1,.375.375"/><path class="cls-1" d="M19.875,4.5a.375.375,0,0,1,.375-.375"/><path class="cls-1" d="M20.25,4.875a.375.375,0,0,1-.375-.375"/><path class="cls-1" d="M20.625,4.5a.375.375,0,0,1-.375.375"/><path class="cls-1" d="M10.513,4.686a6,6,0,0,0-4.4,4.692A3.745,3.745,0,1,0,4.5,16.5h15a3.75,3.75,0,0,0,3.75-3.75"/></svg>