<svg id="Regular" xmlns="http://www.w3.org/2000/svg" viewBox="0 0 24 24"><defs><style>.cls-1{fill:none;stroke:currentColor;stroke-linecap:round;stroke-linejoin:round;stroke-width:1.5px;}</style></defs><title>pollution-faucet-water</title><path class="cls-1" d="M.75,23a5.511,5.511,0,0,0,4.5-1.5,4.547,4.547,0,0,0,6.75,0,4.547,4.547,0,0,0,6.75,0,5.511,5.511,0,0,0,4.5,1.5"/><line class="cls-1" x1="7.5" y1="13.25" x2="0.75" y2="13.25"/><line class="cls-1" x1="0.75" y1="5.75" x2="7.5" y2="5.75"/><rect class="cls-1" x="7.5" y="4.25" width="4.5" height="10.5" rx="1" ry="1"/><path class="cls-1" d="M18,1l1.65,2.2a.75.75,0,0,0,1.2,0L22.5,1"/><path class="cls-1" d="M15.184,13.89a8.226,8.226,0,0,0-3-.635H12"/><path class="cls-1" d="M17.958,15.8a8.264,8.264,0,0,1,1.673,2.568"/><path class="cls-1" d="M15.054,8.355a13.21,13.21,0,0,1,2.914,1.051"/><path class="cls-1" d="M20.811,11.282a13.3,13.3,0,0,1,2.094,2.283"/></svg>