<svg id="Regular" xmlns="http://www.w3.org/2000/svg" viewBox="0 0 24 24"><defs><style>.cls-1{fill:none;stroke:currentColor;stroke-linecap:round;stroke-linejoin:round;stroke-width:1.5px;}</style></defs><title>pollution-skull-1</title><circle class="cls-1" cx="12" cy="12" r="10.5"/><path class="cls-1" d="M16.5,10.875C16.5,9.011,14.485,7.5,12,7.5S7.5,9.011,7.5,10.875c0,1.246.16,2.322,1.5,2.907V16.5h6V13.782C16.34,13.2,16.5,12.121,16.5,10.875Z"/><line class="cls-1" x1="12" y1="14.25" x2="12" y2="16.5"/><path class="cls-1" d="M10.5,10.875a.375.375,0,0,1,.375.375"/><path class="cls-1" d="M10.125,11.25a.375.375,0,0,1,.375-.375"/><path class="cls-1" d="M10.5,11.625a.375.375,0,0,1-.375-.375"/><path class="cls-1" d="M10.875,11.25a.375.375,0,0,1-.375.375"/><path class="cls-1" d="M13.5,10.875a.375.375,0,0,1,.375.375"/><path class="cls-1" d="M13.125,11.25a.375.375,0,0,1,.375-.375"/><path class="cls-1" d="M13.5,11.625a.375.375,0,0,1-.375-.375"/><path class="cls-1" d="M13.875,11.25a.375.375,0,0,1-.375.375"/></svg>