<svg id="Regular" xmlns="http://www.w3.org/2000/svg" viewBox="0 0 24 24"><defs><style>.cls-1{fill:none;stroke:currentColor;stroke-linecap:round;stroke-linejoin:round;stroke-width:1.5px;}</style></defs><title>pollution-drop-skull</title><path class="cls-1" d="M16.5,13.125c0-1.864-2.015-3.375-4.5-3.375s-4.5,1.511-4.5,3.375c0,1.246.16,2.322,1.5,2.907V18.75h6V16.032C16.34,15.447,16.5,14.371,16.5,13.125Z"/><line class="cls-1" x1="12" y1="16.5" x2="12" y2="18.75"/><path class="cls-1" d="M10.5,13.125a.375.375,0,0,1,.375.375"/><path class="cls-1" d="M10.125,13.5a.375.375,0,0,1,.375-.375"/><path class="cls-1" d="M10.5,13.875a.375.375,0,0,1-.375-.375"/><path class="cls-1" d="M10.875,13.5a.375.375,0,0,1-.375.375"/><path class="cls-1" d="M13.5,13.125a.375.375,0,0,1,.375.375"/><path class="cls-1" d="M13.125,13.5a.375.375,0,0,1,.375-.375"/><path class="cls-1" d="M13.5,13.875a.375.375,0,0,1-.375-.375"/><path class="cls-1" d="M13.875,13.5a.375.375,0,0,1-.375.375"/><path class="cls-1" d="M21,14.25a9,9,0,0,1-18,0c0-3.878,5.477-10.334,7.886-13a1.5,1.5,0,0,1,2.229,0C15.525,3.918,21,10.373,21,14.25Z"/></svg>