<svg id="Regular" xmlns="http://www.w3.org/2000/svg" viewBox="0 0 24 24"><defs><style>.cls-1{fill:none;stroke:currentColor;stroke-linecap:round;stroke-linejoin:round;stroke-width:1.5px;}</style></defs><title>pollution-barrel</title><line class="cls-1" x1="2.25" y1="23.25" x2="21.75" y2="23.25"/><line class="cls-1" x1="2.25" y1="3.75" x2="21.75" y2="3.75"/><rect class="cls-1" x="3.75" y="3.75" width="16.5" height="19.5"/><line class="cls-1" x1="18.75" y1="9.75" x2="21.75" y2="9.75"/><line class="cls-1" x1="2.25" y1="9.75" x2="5.25" y2="9.75"/><line class="cls-1" x1="18" y1="17.25" x2="21.75" y2="17.25"/><line class="cls-1" x1="2.25" y1="17.25" x2="6" y2="17.25"/><path class="cls-1" d="M15.25.75h2.5a1,1,0,0,1,1,1v2a0,0,0,0,1,0,0h-4.5a0,0,0,0,1,0,0v-2A1,1,0,0,1,15.25.75Z"/><path class="cls-1" d="M16.5,12.375C16.5,10.511,14.485,9,12,9s-4.5,1.511-4.5,3.375c0,1.246.161,2.322,1.5,2.907V18h6V15.282C16.34,14.7,16.5,13.621,16.5,12.375Z"/><line class="cls-1" x1="12" y1="15.75" x2="12" y2="18"/><path class="cls-1" d="M10.5,12.375a.375.375,0,0,1,.375.375"/><path class="cls-1" d="M10.125,12.75a.375.375,0,0,1,.375-.375"/><path class="cls-1" d="M10.5,13.125a.375.375,0,0,1-.375-.375"/><path class="cls-1" d="M10.875,12.75a.375.375,0,0,1-.375.375"/><path class="cls-1" d="M13.5,12.375a.375.375,0,0,1,.375.375"/><path class="cls-1" d="M13.125,12.75a.375.375,0,0,1,.375-.375"/><path class="cls-1" d="M13.5,13.125a.375.375,0,0,1-.375-.375"/><path class="cls-1" d="M13.875,12.75a.375.375,0,0,1-.375.375"/></svg>