<svg id="Regular" xmlns="http://www.w3.org/2000/svg" viewBox="0 0 24 24"><defs><style>.cls-1{fill:none;stroke:currentColor;stroke-linecap:round;stroke-linejoin:round;stroke-width:1.5px;}</style></defs><title>pool-table</title><path class="cls-1" d="M14.25,17.5h-12A1.5,1.5,0,0,1,.75,16V4a1.5,1.5,0,0,1,1.5-1.5h19.5A1.5,1.5,0,0,1,23.25,4V16a1.5,1.5,0,0,1-1.5,1.5"/><path class="cls-1" d="M5.25,11.875a.375.375,0,0,1,.375-.375"/><path class="cls-1" d="M5.625,12.25a.375.375,0,0,1-.375-.375"/><path class="cls-1" d="M6,11.875a.375.375,0,0,1-.375.375"/><path class="cls-1" d="M5.625,11.5A.375.375,0,0,1,6,11.875"/><path class="cls-1" d="M5.25,7.375A.375.375,0,0,1,5.625,7"/><path class="cls-1" d="M5.625,7.75a.375.375,0,0,1-.375-.375"/><path class="cls-1" d="M6,7.375a.375.375,0,0,1-.375.375"/><path class="cls-1" d="M5.625,7A.375.375,0,0,1,6,7.375"/><path class="cls-1" d="M17.625,7.75A.375.375,0,0,1,18,8.125"/><path class="cls-1" d="M17.25,8.125a.375.375,0,0,1,.375-.375"/><path class="cls-1" d="M17.625,8.5a.375.375,0,0,1-.375-.375"/><path class="cls-1" d="M18,8.125a.375.375,0,0,1-.375.375"/><path class="cls-1" d="M8.25,9.625a.375.375,0,0,1,.375-.375"/><path class="cls-1" d="M8.625,10a.375.375,0,0,1-.375-.375"/><path class="cls-1" d="M9,9.625A.375.375,0,0,1,8.625,10"/><path class="cls-1" d="M8.625,9.25A.375.375,0,0,1,9,9.625"/><line class="cls-1" x1="12" y1="11.5" x2="22.5" y2="22"/></svg>