<svg id="Regular" xmlns="http://www.w3.org/2000/svg" viewBox="0 0 24 24"><defs><style>.cls-1{fill:none;stroke:currentColor;stroke-linecap:round;stroke-linejoin:round;stroke-width:1.5px;}</style></defs><title>pool-player</title><circle class="cls-1" cx="12.75" cy="3.373" r="2.625"/><path class="cls-1" d="M7.277,8.9a1.5,1.5,0,0,0-1.63.325L4.061,10.809A1.5,1.5,0,0,1,1.939,8.688L3.526,7.1A4.487,4.487,0,0,1,8.42,6.123l10.9,4.488"/><path class="cls-1" d="M13.566,14.968l2.8,6.159a1.5,1.5,0,1,1-2.73,1.242L11.25,17.124,8.865,22.369a1.5,1.5,0,1,1-2.73-1.242l2.8-6.159"/><line class="cls-1" x1="3" y1="11.248" x2="22.5" y2="13.498"/></svg>