<svg id="Regular" xmlns="http://www.w3.org/2000/svg" viewBox="0 0 24 24"><defs><style>.cls-1{fill:none;stroke:currentColor;stroke-linecap:round;stroke-linejoin:round;stroke-width:1.5px;}</style></defs><title>pool-player-table</title><circle class="cls-1" cx="6.75" cy="3.375" r="2.625"/><line class="cls-1" x1="6.75" y1="16.5" x2="6.75" y2="21.75"/><path class="cls-1" d="M12.885,14.694A5.962,5.962,0,0,1,9.75,12.252v9.5a1.5,1.5,0,0,1-3,0,1.5,1.5,0,0,1-3,0V15a1.5,1.5,0,0,1-3,0V12a4.5,4.5,0,0,1,4.5-4.5H7.9a4.5,4.5,0,0,1,4.025,2.487l.177.354a3,3,0,0,0,1.744,1.508,1.5,1.5,0,0,1-.957,2.845Z"/><line class="cls-1" x1="3.75" y1="15" x2="3.75" y2="12"/><path class="cls-1" d="M23.25,12.75h-4.5a1.5,1.5,0,0,0-1.5,1.5h0a1.5,1.5,0,0,0,1.5,1.5h4.5"/><line class="cls-1" x1="18.75" y1="15.75" x2="20.25" y2="23.25"/><line class="cls-1" x1="11.25" y1="23.25" x2="13.516" y2="14.751"/><line class="cls-1" x1="14.233" y1="12.063" x2="17.25" y2="0.75"/></svg>