<svg xmlns="http://www.w3.org/2000/svg" viewBox="0 0 24 24"><defs><style>.a{fill:none;stroke:currentColor;stroke-linecap:round;stroke-linejoin:round;stroke-width:1.5px;}</style></defs><title>power-tools-electric-saw-1</title><path class="a" d="M12.339,18.4a3.75,3.75,0,1,0,5.3-5.3L7.142,2.6a3.75,3.75,0,1,0-5.3,5.3Z"/><path class="a" d="M11.074,6.53a3.75,3.75,0,0,1-5.3,5.3"/><line class="a" x1="5.24" y1="7.061" x2="6.301" y2="6"/><line class="a" x1="7.362" y1="9.182" x2="8.422" y2="8.121"/><path class="a" d="M14.725,15.485a.375.375,0,1,1,0,.53.375.375,0,0,1,0-.53"/><path class="a" d="M6.554,12.616A8.967,8.967,0,0,0,6.721,19.3l4.559-1.959"/><path class="a" d="M8.1,18.71a7.5,7.5,0,0,0,13.785-5.92"/><path class="a" d="M18.436,14.27,23.26,12.2a8.995,8.995,0,0,0-7.272-5.393"/><path class="a" d="M13.379,8.835l5.452-4.244A2.25,2.25,0,1,0,15.65,1.409L11.405,6.861"/></svg>