<svg xmlns="http://www.w3.org/2000/svg" viewBox="0 0 24 24"><defs><style>.a{fill:none;stroke:currentColor;stroke-linecap:round;stroke-linejoin:round;stroke-width:1.5px;}</style></defs><title>power-tools-drill</title><path class="a" d="M10.75,2.25h10.5a2,2,0,0,1,2,2v5a2,2,0,0,1-2,2H10.75a1,1,0,0,1-1-1v-7A1,1,0,0,1,10.75,2.25Z"/><path class="a" d="M16.977,19.838a2.227,2.227,0,0,0,4.41-.63L20.25,11.25h-4.5Z"/><path class="a" d="M6.25,3.75h3.5a0,0,0,0,1,0,0v6a0,0,0,0,1,0,0H6.25a1,1,0,0,1-1-1v-4A1,1,0,0,1,6.25,3.75Z"/><line class="a" x1="5.25" y1="6.75" x2="0.75" y2="6.75"/><path class="a" d="M12.75,11.25l.268,1.338A3,3,0,0,0,15.959,15h.327"/><line class="a" x1="15.75" y1="5.25" x2="18.75" y2="5.25"/><line class="a" x1="15.75" y1="8.25" x2="18.75" y2="8.25"/></svg>