<svg xmlns="http://www.w3.org/2000/svg" viewBox="0 0 24 24"><defs><style>.a{fill:none;stroke:currentColor;stroke-linecap:round;stroke-linejoin:round;stroke-width:1.5px;}</style></defs><title>power-tools-wood-cutter</title><line class="a" x1="5.25" y1="11.25" x2="5.25" y2="15.75"/><path class="a" d="M.75,16.5A2.25,2.25,0,0,0,3,18.75H17.25"/><line class="a" x1="14.25" y1="14.25" x2="14.25" y2="18.75"/><path class="a" d="M16.5,14.25a6.75,6.75,0,0,0,0-13.5H6.75a3,3,0,0,0-3,3V10.5a.75.75,0,0,0,.75.75h3a.75.75,0,0,1,.75.75v1.5a.75.75,0,0,0,.75.75Z"/><line class="a" x1="5.25" y1="21.75" x2="5.25" y2="23.25"/><line class="a" x1="14.25" y1="9.75" x2="18.75" y2="9.75"/><line class="a" x1="18.75" y1="6.75" x2="15.75" y2="6.75"/><path class="a" d="M6.75,4.125a.375.375,0,1,1,.375-.375.375.375,0,0,1-.375.375"/></svg>