<svg xmlns="http://www.w3.org/2000/svg" viewBox="0 0 24 24"><defs><style>.a{fill:none;stroke:currentColor;stroke-linecap:round;stroke-linejoin:round;stroke-width:1.5px;}</style></defs><title>power-tools-wood-cutter-1</title><path class="a" d="M23.25.75a3,3,0,0,1-3,3H3.75a3,3,0,0,1-3-3"/><path class="a" d="M19.5,3.75a7.5,7.5,0,0,1-15,0"/><path class="a" d="M15.75,3.75a3.75,3.75,0,0,1-7.5,0"/><line class="a" x1="4.626" y1="5.124" x2="3" y2="6.75"/><line class="a" x1="7.757" y1="9.936" x2="7.757" y2="12.235"/><line class="a" x1="13.374" y1="11.124" x2="15" y2="12.75"/><line class="a" x1="18.186" y1="7.993" x2="20.485" y2="7.993"/><path class="a" d="M23.25,23.25v-4.5a1.5,1.5,0,0,0-1.5-1.5H2.25a1.5,1.5,0,0,0-1.5,1.5v4.5"/><line class="a" x1="0.75" y1="20.25" x2="5.25" y2="20.25"/><line class="a" x1="8.25" y1="20.25" x2="11.25" y2="20.25"/><path class="a" d="M20.68,23.25a1.447,1.447,0,0,1-1.35-.859,2.251,2.251,0,0,0-4.16,0,1.447,1.447,0,0,1-1.35.859H10.5"/><line class="a" x1="7.5" y1="23.25" x2="5.25" y2="23.25"/></svg>