<svg xmlns="http://www.w3.org/2000/svg" viewBox="0 0 24 24"><defs><style>.a{fill:none;stroke:currentColor;stroke-linecap:round;stroke-linejoin:round;stroke-width:1.5px;}</style></defs><title>power-tools-electric-saw</title><path class="a" d="M8.78,3.047a3.75,3.75,0,1,0-5.3,5.3l7.553,7.5,5.25-5.25Z"/><path class="a" d="M10.811,16.07,17.03,9.851l3.75,3.75-5.25,8.25-4.719-4.72A.75.75,0,0,1,10.811,16.07Z"/><path class="a" d="M15.53,21.851l.419.419a3,3,0,0,0,4.941-1.1l.737-2.028a3,3,0,0,0-.7-3.147l-1.024-1.023"/><path class="a" d="M17.03,9.851l1.5-1.5a1.5,1.5,0,0,1,2.122,0L22.28,9.979a1.5,1.5,0,0,1,0,2.122l-1.5,1.5"/><line class="a" x1="14.03" y1="16.601" x2="16.28" y2="14.351"/><line class="a" x1="1.28" y1="0.851" x2="3.477" y2="3.047"/><line class="a" x1="3.504" y1="8.377" x2="2.03" y2="9.851"/><line class="a" x1="6.514" y1="11.366" x2="5.03" y2="12.851"/><line class="a" x1="10.28" y1="1.601" x2="8.807" y2="3.074"/><line class="a" x1="13.28" y1="4.601" x2="11.796" y2="6.085"/></svg>