<svg xmlns="http://www.w3.org/2000/svg" viewBox="0 0 24 24"><defs><style>.a{fill:none;stroke:currentColor;stroke-linecap:round;stroke-linejoin:round;stroke-width:1.5px;}</style></defs><title>power-tools-circular-saw</title><circle class="a" cx="12" cy="15" r="2.25"/><circle class="a" cx="12" cy="15" r="6"/><line class="a" x1="12" y1="21" x2="12" y2="23.25"/><line class="a" x1="6.046" y1="15.75" x2="3.75" y2="15.75"/><line class="a" x1="20.25" y1="15.75" x2="17.953" y2="15.75"/><line class="a" x1="17.834" y1="20.834" x2="16.243" y2="19.243"/><line class="a" x1="7.757" y1="19.243" x2="6.166" y2="20.834"/><path class="a" d="M17.564,12.75H21.6a.75.75,0,0,0,.731-.92A10.551,10.551,0,0,0,12,3.75,10.551,10.551,0,0,0,1.669,11.83a.75.75,0,0,0,.73.92H6.436"/><path class="a" d="M3,8.656V2.25A1.5,1.5,0,0,1,4.5.75H6a1.5,1.5,0,0,1,1.5,1.5V4.73"/></svg>