<svg id="Regular" xmlns="http://www.w3.org/2000/svg" viewBox="0 0 24 24"><defs><style>.cls-1{fill:none;stroke:currentColor;stroke-linecap:round;stroke-linejoin:round;stroke-width:1.5px;}</style></defs><title>pregnancy-sperm-1</title><path class="cls-1" d="M12,7c0,1.5,2.25,3.75,6,3.75,2.9,0,5.25-1.679,5.25-3.75S20.9,3.25,18,3.25C14.25,3.25,12,5.5,12,7Z"/><path class="cls-1" d="M9.75,17.5c0,.9,1.35,2.25,3.6,2.25,1.74,0,3.15-1.007,3.15-2.25s-1.41-2.25-3.15-2.25C11.1,15.25,9.75,16.6,9.75,17.5Z"/><path class="cls-1" d="M12,7C10.5,7,9.75,5.5,8.25,5.5S6,7.75,4.5,7.75,2.25,7,.75,7"/><path class="cls-1" d="M9.75,17.5c-1.2,0-1.8-1.5-3-1.5s-1.8,2.25-3,2.25-1.8-.75-3-.75"/></svg>