<svg id="Regular" xmlns="http://www.w3.org/2000/svg" viewBox="0 0 24 24"><defs><style>.cls-1{fill:none;stroke:currentColor;stroke-linecap:round;stroke-linejoin:round;stroke-width:1.5px;}</style></defs><title>pregnancy-vgr</title><path class="cls-1" d="M17.213,21.145,3.731,23.219a2.587,2.587,0,0,1-2.95-2.95L2.855,6.787A4.7,4.7,0,0,1,6.787,2.855L20.269.781a2.587,2.587,0,0,1,2.95,2.95L21.145,17.213A4.7,4.7,0,0,1,17.213,21.145Z"/><line class="cls-1" x1="17.834" y1="11.47" x2="12.53" y2="6.166"/><path class="cls-1" d="M12.53,6.166l.8-.795a1.875,1.875,0,0,1,2.651,2.652l-.795.8"/><line class="cls-1" x1="19.955" y1="9.348" x2="15.712" y2="8.288"/><path class="cls-1" d="M4.045,14.652l1.8,1.8a8.932,8.932,0,0,0,4.564,2.442,8.932,8.932,0,0,0-2.442-4.563l-1.8-1.8"/><path class="cls-1" d="M13.061,12l.53-.53,1.061,1.06a1.5,1.5,0,0,1-2.122,2.122l-1.591-1.591L9.348,11.47a1.5,1.5,0,0,1,0-2.122l1.061-1.06"/></svg>