<svg xmlns="http://www.w3.org/2000/svg" viewBox="0 0 24 24"><defs><style>.a{fill:none;stroke:currentColor;stroke-linecap:round;stroke-linejoin:round;stroke-width:1.5px;}</style></defs><title>presentation-speaker</title><line class="a" x1="4.5" y1="15.75" x2="19.5" y2="15.75"/><polygon class="a" points="15.75 23.25 8.25 23.25 7.5 15.75 16.5 15.75 15.75 23.25"/><circle class="a" cx="12" cy="7.875" r="2.625"/><path class="a" d="M15.249,12.75a4.269,4.269,0,0,0-6.5,0"/><path class="a" d="M4.5,12.75H2.25a1.5,1.5,0,0,1-1.5-1.5v-9A1.5,1.5,0,0,1,2.25.75h19.5a1.5,1.5,0,0,1,1.5,1.5v9a1.5,1.5,0,0,1-1.5,1.5H19.5"/></svg>