<svg xmlns="http://www.w3.org/2000/svg" viewBox="0 0 24 24"><defs><style>.a{fill:none;stroke:currentColor;stroke-linecap:round;stroke-linejoin:round;stroke-width:1.5px;}</style></defs><title>presentation-projector-screen-cart</title><rect class="a" x="0.75" y="0.75" width="21" height="3" rx="0.75" ry="0.75"/><polyline class="a" points="2.25 17.25 2.25 3.75 20.25 3.75 20.25 9"/><line class="a" x1="0.75" y1="17.25" x2="9" y2="17.25"/><path class="a" d="M12,12l2.821,7.756a.749.749,0,0,0,.7.494h5.368a.749.749,0,0,0,.689-.455l1.607-4.5A.749.749,0,0,0,22.5,14.25H12.818"/><path class="a" d="M19.875,22.5a.375.375,0,1,0,.375.375.375.375,0,0,0-.375-.375"/><path class="a" d="M16.125,22.5a.375.375,0,1,0,.375.375.375.375,0,0,0-.375-.375"/></svg>