<svg xmlns="http://www.w3.org/2000/svg" viewBox="0 0 24 24"><defs><style>.a{fill:none;stroke:currentColor;stroke-linecap:round;stroke-linejoin:round;stroke-width:1.5px;}</style></defs><title>presentation-projector-screen-settings</title><circle class="a" cx="17.25" cy="16.5" r="1.5"/><path class="a" d="M18.524,10.7l.442,1.453a.994.994,0,0,0,1.174.681l1.472-.342a1.339,1.339,0,0,1,1.275,2.219l-1.031,1.111a1,1,0,0,0,0,1.362l1.031,1.111a1.339,1.339,0,0,1-1.275,2.218l-1.472-.341a.993.993,0,0,0-1.174.681L18.524,22.3a1.33,1.33,0,0,1-2.548,0l-.442-1.452a.993.993,0,0,0-1.174-.681l-1.472.341a1.339,1.339,0,0,1-1.275-2.218l1.031-1.111a1,1,0,0,0,0-1.362l-1.031-1.111a1.339,1.339,0,0,1,1.275-2.219l1.472.342a.994.994,0,0,0,1.174-.681l.442-1.453A1.33,1.33,0,0,1,18.524,10.7Z"/><rect class="a" x="0.75" y="0.75" width="21" height="3" rx="0.75" ry="0.75"/><polyline class="a" points="2.25 17.25 2.25 3.75 20.25 3.75 20.25 7.5"/><line class="a" x1="0.75" y1="17.25" x2="8.25" y2="17.25"/></svg>