<svg xmlns="http://www.w3.org/2000/svg" viewBox="0 0 24 24"><defs><style>.a{fill:none;stroke:currentColor;stroke-linecap:round;stroke-linejoin:round;stroke-width:1.5px;}</style></defs><title>presentation-projector-screen-chat</title><rect class="a" x="0.75" y="0.75" width="21" height="3" rx="0.75" ry="0.75"/><polyline class="a" points="2.25 17.25 2.25 3.75 20.25 3.75 20.25 8.25"/><line class="a" x1="0.75" y1="17.25" x2="8.25" y2="17.25"/><path class="a" d="M21.75,20.25h-3l-4.5,3v-3h-1.5a1.5,1.5,0,0,1-1.5-1.5v-6a1.5,1.5,0,0,1,1.5-1.5h9a1.5,1.5,0,0,1,1.5,1.5v6A1.5,1.5,0,0,1,21.75,20.25Z"/><line class="a" x1="14.25" y1="14.25" x2="20.25" y2="14.25"/><line class="a" x1="14.25" y1="17.25" x2="20.25" y2="17.25"/></svg>