<svg xmlns="http://www.w3.org/2000/svg" viewBox="0 0 24 24"><defs><style>.a{fill:none;stroke:currentColor;stroke-linecap:round;stroke-linejoin:round;stroke-width:1.5px;}</style></defs><title>presentation-projector</title><path class="a" d="M11.506,7.5H3.75a3,3,0,0,0-3,3V15a1.5,1.5,0,0,0,1.5,1.5h19.5a1.5,1.5,0,0,0,1.5-1.5V10.5a3,3,0,0,0-3-3h-.256"/><circle class="a" cx="15.75" cy="9" r="4.5"/><line class="a" x1="3.75" y1="11.25" x2="3.75" y2="12.75"/><line class="a" x1="6.75" y1="11.25" x2="6.75" y2="12.75"/><line class="a" x1="3.75" y1="16.5" x2="3.75" y2="19.5"/><line class="a" x1="20.25" y1="16.5" x2="20.25" y2="19.5"/><path class="a" d="M15.75,8.625A.375.375,0,1,1,15.375,9a.374.374,0,0,1,.375-.375"/></svg>