<svg xmlns="http://www.w3.org/2000/svg" viewBox="0 0 24 24"><defs><style>.a{fill:none;stroke:currentColor;stroke-linecap:round;stroke-linejoin:round;stroke-width:1.5px;}</style></defs><title>presentation-projector-1</title><rect class="a" x="2.25" y="12.75" width="19.5" height="3" rx="0.75" ry="0.75"/><path class="a" d="M20.25,15.75H3.75v6a1.5,1.5,0,0,0,1.5,1.5h13.5a1.5,1.5,0,0,0,1.5-1.5Z"/><path class="a" d="M14.25,6.75h-6V1.5A.75.75,0,0,1,9,.75h4.5a.75.75,0,0,1,.75.75Z"/><path class="a" d="M14.25,3.75h4.5a1.5,1.5,0,0,1,1.5,1.5v7.5"/><line class="a" x1="6.75" y1="6.75" x2="15.75" y2="6.75"/><path class="a" d="M11.25,3.375a.375.375,0,1,1-.375.375.375.375,0,0,1,.375-.375"/><line class="a" x1="17.25" y1="18.75" x2="17.25" y2="20.25"/></svg>