<svg xmlns="http://www.w3.org/2000/svg" viewBox="0 0 24 24"><defs><style>.a{fill:none;stroke:currentColor;stroke-linecap:round;stroke-linejoin:round;stroke-width:1.5px;}</style></defs><title>presentation-projector-screen-image</title><rect class="a" x="0.75" y="0.75" width="21" height="3" rx="0.75" ry="0.75"/><polyline class="a" points="2.25 17.25 2.25 3.75 20.25 3.75 20.25 8.25"/><line class="a" x1="0.75" y1="17.25" x2="8.25" y2="17.25"/><rect class="a" x="11.25" y="11.25" width="12" height="12" rx="1.5" ry="1.5"/><path class="a" d="M15.375,14.25a.375.375,0,1,1-.375.375.375.375,0,0,1,.375-.375"/><path class="a" d="M23.25,21l-2.391-3.587a.749.749,0,0,0-1.238-.014l-2,2.851-1.236-.989a.749.749,0,0,0-.584-.156.758.758,0,0,0-.509.325L12.75,23.25"/></svg>