<svg xmlns="http://www.w3.org/2000/svg" viewBox="0 0 24 24"><defs><style>.a{fill:none;stroke:currentColor;stroke-linecap:round;stroke-linejoin:round;stroke-width:1.5px;}</style></defs><title>presentation-microphone-1</title><path class="a" d="M10.668,22.5V14.25a.75.75,0,0,1,.75-.75h1.5a.75.75,0,0,1,.75.75V22.5"/><path class="a" d="M10.668,16.5H7.208A1.5,1.5,0,0,1,5.8,15.526L4.3,11.513A.75.75,0,0,1,5,10.5H19.336a.749.749,0,0,1,.7,1.013l-1.5,4.013a1.5,1.5,0,0,1-1.4.974H13.668"/><rect class="a" x="9.918" y="1.5" width="4.5" height="6" rx="2.25" ry="2.25"/><line class="a" x1="12.168" y1="7.5" x2="12.168" y2="10.5"/><path class="a" d="M18.168,5.25h0a3.332,3.332,0,0,1,1.246,4.011l-.5,1.239"/><path class="a" d="M6.153,5.25h0A3.334,3.334,0,0,0,4.907,9.261L5.4,10.5"/></svg>