<svg xmlns="http://www.w3.org/2000/svg" viewBox="0 0 24 24"><defs><style>.a{fill:none;stroke:currentColor;stroke-linecap:round;stroke-linejoin:round;stroke-width:1.5px;}</style></defs><title>presentation-projector-screen-pin</title><rect class="a" x="0.75" y="0.75" width="21" height="3" rx="0.75" ry="0.75"/><polyline class="a" points="2.25 17.25 2.25 3.75 20.25 3.75 20.25 8.25"/><line class="a" x1="0.75" y1="17.25" x2="11.25" y2="17.25"/><path class="a" d="M18.75,15.42a.375.375,0,1,1-.375.375.375.375,0,0,1,.375-.375"/><path class="a" d="M18.75,11.3a4.5,4.5,0,0,1,4.5,4.5c0,1.941-2.744,5.652-3.946,7.186a.7.7,0,0,1-1.107,0c-1.2-1.533-3.947-5.245-3.947-7.186A4.5,4.5,0,0,1,18.75,11.3Z"/></svg>