<svg xmlns="http://www.w3.org/2000/svg" viewBox="0 0 24 24"><defs><style>.a{fill:none;stroke:currentColor;stroke-linecap:round;stroke-linejoin:round;stroke-width:1.5px;}</style></defs><title>presentation-projector-screen-budget-analytics</title><rect class="a" x="1.5" y="1.75" width="21" height="3" rx="0.75" ry="0.75"/><rect class="a" x="3" y="4.75" width="18" height="13.5"/><line class="a" x1="12" y1="21.25" x2="12" y2="18.25"/><line class="a" x1="1.5" y1="18.25" x2="22.5" y2="18.25"/><path class="a" d="M13.5,22.25c0-.552-.672-1-1.5-1s-1.5.448-1.5,1"/><path class="a" d="M6.694,13.517a1.756,1.756,0,0,0,1.521.8A1.567,1.567,0,0,0,9.9,12.906,1.567,1.567,0,0,0,8.215,11.5a1.567,1.567,0,0,1-1.688-1.407A1.568,1.568,0,0,1,8.215,8.686a1.757,1.757,0,0,1,1.52.8"/><line class="a" x1="8.215" y1="14.312" x2="8.215" y2="15.249"/><line class="a" x1="8.215" y1="7.749" x2="8.215" y2="8.686"/><line class="a" x1="13.5" y1="15.25" x2="13.5" y2="12.25"/><line class="a" x1="16.5" y1="15.25" x2="16.5" y2="9.25"/></svg>