<svg xmlns="http://www.w3.org/2000/svg" viewBox="0 0 24 24"><defs><style>.a{fill:none;stroke:currentColor;stroke-linecap:round;stroke-linejoin:round;stroke-width:1.5px;}</style></defs><title>presentation-microphone</title><path class="a" d="M9.75,17.25H3a1.5,1.5,0,0,1-1.455-1.136l-.75-3A1.5,1.5,0,0,1,2.25,11.25h19.5a1.5,1.5,0,0,1,1.455,1.864l-.75,3A1.5,1.5,0,0,1,21,17.25H14.25"/><line class="a" x1="9.75" y1="15" x2="9.75" y2="23.25"/><line class="a" x1="14.25" y1="15" x2="14.25" y2="23.25"/><line class="a" x1="12" y1="11.25" x2="12" y2="8.25"/><path class="a" d="M14.25,6a2.25,2.25,0,0,1-4.5,0V3a2.25,2.25,0,0,1,4.5,0Z"/><path class="a" d="M18,11.25l2.689-2.69a1.5,1.5,0,0,0,0-2.121L19.81,5.56"/><circle class="a" cx="18.75" cy="4.5" r="1.5"/><path class="a" d="M6,11.25,3.311,8.56a1.5,1.5,0,0,1,0-2.121L4.19,5.56"/><circle class="a" cx="5.25" cy="4.5" r="1.5"/></svg>