<svg xmlns="http://www.w3.org/2000/svg" viewBox="0 0 24 24"><defs><style>.a{fill:none;stroke:currentColor;stroke-linecap:round;stroke-linejoin:round;stroke-width:1.5px;}</style></defs><title>presentation-amphitheater</title><circle class="a" cx="12" cy="3.375" r="2.625"/><path class="a" d="M14.25,16.125v-2.25a1.5,1.5,0,0,0,1.5-1.5v-1.5a3,3,0,0,0-3-3h-1.5a3,3,0,0,0-3,3v1.5a1.5,1.5,0,0,0,1.5,1.5v2.25"/><path class="a" d="M.75,20.25a25.535,25.535,0,0,0,11.25,3,25.535,25.535,0,0,0,11.25-3"/><path class="a" d="M3,17.25a23.273,23.273,0,0,0,9,2.25,23.273,23.273,0,0,0,9-2.25"/></svg>