<svg xmlns="http://www.w3.org/2000/svg" viewBox="0 0 24 24"><defs><style>.a{fill:none;stroke:currentColor;stroke-linecap:round;stroke-linejoin:round;stroke-width:1.5px;}</style></defs><title>presentation-audience</title><line class="a" x1="4.5" y1="11.25" x2="19.5" y2="11.25"/><polyline class="a" points="7.8 14.25 7.5 11.25 16.5 11.25 16.2 14.25"/><circle class="a" cx="12" cy="3.375" r="2.625"/><path class="a" d="M15.249,8.25a4.269,4.269,0,0,0-6.5,0"/><circle class="a" cx="3.999" cy="18.375" r="2.625"/><path class="a" d="M7.248,23.25a4.269,4.269,0,0,0-6.5,0"/><circle class="a" cx="12" cy="18.375" r="2.625"/><path class="a" d="M15.249,23.25a4.269,4.269,0,0,0-6.5,0"/><circle class="a" cx="20.001" cy="18.375" r="2.625"/><path class="a" d="M23.25,23.25a4.269,4.269,0,0,0-6.5,0"/></svg>