<svg xmlns="http://www.w3.org/2000/svg" viewBox="0 0 24 24"><defs><style>.a{fill:none;stroke:currentColor;stroke-linecap:round;stroke-linejoin:round;stroke-width:1.5px;}</style></defs><title>primitive-symbols-animal-1</title><line class="a" x1="5.457" y1="16.565" x2="1" y2="23.25"/><line class="a" x1="8.924" y1="17.38" x2="5.5" y2="22.272"/><line class="a" x1="13" y1="17.38" x2="18.87" y2="21.293"/><line class="a" x1="17.017" y1="16.618" x2="21.543" y2="19.826"/><line class="a" x1="5.26" y1="10.533" x2="1" y2="10.533"/><path class="a" d="M23.109,5.087A2.026,2.026,0,0,0,21.73,2.725l-.386-.12a2.934,2.934,0,0,0-3.892,1.634L15.635,8.911a1.007,1.007,0,0,1-.939.643H7.848a3.913,3.913,0,0,0,0,7.826H14.7a3.913,3.913,0,0,0,3.913-3.913,10.506,10.506,0,0,0-.4-2.514L19.89,6.624a.978.978,0,0,1,1.3-.545,1.4,1.4,0,0,0,1.922-.992Z"/><line class="a" x1="16.75" y1="0.75" x2="19.044" y2="2.6"/></svg>