<svg xmlns="http://www.w3.org/2000/svg" viewBox="0 0 24 24"><defs><style>.a{fill:none;stroke:currentColor;stroke-linecap:round;stroke-linejoin:round;stroke-width:1.5px;}</style></defs><title>primitive-symbols-animal</title><polygon class="a" points="7.25 17.25 5.75 12.75 11.75 7.5 17.75 9.75 11.75 12 7.25 17.25"/><path class="a" d="M11.75,7.5,15.5,3h6s-1.5,3-3,3H13"/><path class="a" d="M15.5,3H11A3.25,3.25,0,0,1,8,1.5"/><line class="a" x1="11.75" y1="1.5" x2="11.75" y2="3"/><path class="a" d="M17.75,9.75c.75,3.75,0,4.5-.75,5.25"/><path class="a" d="M7.25,17.25V19.5a2.747,2.747,0,0,0,3,3"/><path class="a" d="M5.75,12.75a2.078,2.078,0,0,1-3,0"/><path class="a" d="M6.364,14.591,3.5,16.5v3.75c0,1.5.75,2.25,1.5,2.25"/></svg>