<svg xmlns="http://www.w3.org/2000/svg" viewBox="0 0 24 24"><defs><style>.a{fill:none;stroke:currentColor;stroke-linecap:round;stroke-linejoin:round;stroke-width:1.5px;}</style></defs><title>primitive-symbols-mother</title><circle class="a" cx="11.769" cy="4.5" r="3.75"/><path class="a" d="M5.5,23.25H18.038a1.5,1.5,0,0,0,1.443-1.907l-1.937-6.869A6,6,0,0,0,6,14.474L4.057,21.343A1.5,1.5,0,0,0,5.5,23.25Z"/><path class="a" d="M15.519,4.5c0,2.25.75,3.75,2.25,3.75"/><path class="a" d="M8.019,4.5c0,2.25-.75,3.75-2.25,3.75"/><circle class="a" cx="11.769" cy="14.583" r="1.833"/><line class="a" x1="11.769" y1="19.333" x2="14.519" y2="21"/><polyline class="a" points="9.019 17.333 11.769 16.417 11.769 19.333 9.019 21"/><line class="a" x1="11.769" y1="16.417" x2="14.519" y2="17.333"/></svg>