<svg xmlns="http://www.w3.org/2000/svg" viewBox="0 0 24 24"><defs><style>.a{fill:none;stroke:currentColor;stroke-linecap:round;stroke-linejoin:round;stroke-width:1.5px;}</style></defs><title>primitive-symbols-shaman</title><ellipse class="a" cx="12" cy="5.625" rx="2.25" ry="2.625"/><path class="a" d="M9.773,6H6A3,3,0,0,1,3,3V.75"/><line class="a" x1="6.75" y1="3" x2="6.75" y2="6"/><path class="a" d="M14.227,6H18a3,3,0,0,0,3-3V.75"/><line class="a" x1="17.25" y1="3" x2="17.25" y2="6"/><polyline class="a" points="6.75 23.25 12 18 17.25 23.25"/><line class="a" x1="12" y1="8.25" x2="12" y2="18"/><path class="a" d="M4.5,10.5l1.576,2.627a1.5,1.5,0,0,0,1.877.607L12,12l4.047,1.734a1.5,1.5,0,0,0,1.877-.607L19.5,10.5"/></svg>