<svg xmlns="http://www.w3.org/2000/svg" viewBox="0 0 24 24"><defs><style>.a{fill:none;stroke:currentColor;stroke-linecap:round;stroke-linejoin:round;stroke-width:1.5px;}</style></defs><title>products-gift-tag</title><path class="a" d="M19.125,22.986a.861.861,0,0,0,1.217,0L23,20.33a.861.861,0,0,0,0-1.217L19.125,15.24a.863.863,0,0,0-.609-.252H15.861a.86.86,0,0,0-.861.861v2.656a.861.861,0,0,0,.252.608Z"/><line class="a" x1="15.168" y1="15.339" x2="13.317" y2="13.488"/><path class="a" d="M12,17.238H3a.75.75,0,0,1-.75-.75V9.738"/><line class="a" x1="15.75" y1="9.738" x2="15.75" y2="11.988"/><rect class="a" x="0.75" y="5.988" width="16.5" height="3.75" rx="0.75" ry="0.75"/><line class="a" x1="9" y1="17.238" x2="9" y2="5.988"/><path class="a" d="M4.734,3.867A11.863,11.863,0,0,0,8.976,5.988,11.837,11.837,0,0,0,6.855,1.746C5.537.428,4.79.63,4.2,1.216S3.416,2.549,4.734,3.867Z"/><path class="a" d="M13.266,3.867A11.864,11.864,0,0,1,9.023,5.988a11.855,11.855,0,0,1,2.121-4.242C12.463.428,13.21.63,13.8,1.216S14.584,2.549,13.266,3.867Z"/></svg>