<svg xmlns="http://www.w3.org/2000/svg" viewBox="0 0 24 24"><defs><style>.a{fill:none;stroke:currentColor;stroke-linecap:round;stroke-linejoin:round;stroke-width:1.5px;}</style></defs><title>products-shopping-bags</title><path class="a" d="M15.75,8.25V7.5A1.5,1.5,0,0,0,14.25,6h-12A1.5,1.5,0,0,0,.75,7.5V21.656a1.583,1.583,0,0,0,1.5,1.594H10.5"/><rect class="a" x="14.25" y="14.156" width="9" height="9" rx="0.75" ry="0.75"/><path class="a" d="M11.25,9.75v-6a3.009,3.009,0,0,0-3-3h0a3.009,3.009,0,0,0-3,3v6"/><line class="a" x1="18.75" y1="14.156" x2="18.75" y2="23.156"/><line class="a" x1="14.25" y1="18.656" x2="23.25" y2="18.656"/><line class="a" x1="16.5" y1="11.156" x2="18.75" y2="14.156"/><line class="a" x1="21" y1="11.156" x2="18.75" y2="14.156"/></svg>