<svg xmlns="http://www.w3.org/2000/svg" viewBox="0 0 24 24"><defs><style>.a{fill:none;stroke:currentColor;stroke-linecap:round;stroke-linejoin:round;stroke-width:1.5px;}</style></defs><title>products-gifts</title><line class="a" x1="6.053" y1="20.25" x2="9.053" y2="20.25"/><line class="a" x1="6.053" y1="4.5" x2="6.053" y2="13.5"/><line class="a" x1="0.803" y1="9" x2="11.303" y2="9"/><line class="a" x1="3.803" y1="0.75" x2="6.053" y2="4.5"/><line class="a" x1="8.303" y1="0.75" x2="6.053" y2="4.5"/><path class="a" d="M15.8,23.25a3,3,0,0,0-3-3H9.053a3,3,0,0,0-3-3H.8v6Z"/><rect class="a" x="0.803" y="4.5" width="10.5" height="9" rx="0.5" ry="0.5"/><path class="a" d="M13.86,8.575,14.217,5.9a.749.749,0,0,1,.743-.651h6.187a.749.749,0,0,1,.743.651l1.3,9.75a.765.765,0,0,1-.743.849H12.8"/><path class="a" d="M15.8,5.25V3.75a2.25,2.25,0,0,1,4.5,0v1.5"/></svg>