<svg xmlns="http://www.w3.org/2000/svg" viewBox="0 0 24 24"><defs><style>.a{fill:none;stroke:currentColor;stroke-linecap:round;stroke-linejoin:round;stroke-width:1.5px;}</style></defs><title>products-give-gift</title><path class="a" d="M15.75,23.238a3,3,0,0,0-3-3H9a3,3,0,0,0-3-3H.75v6Z"/><line class="a" x1="6" y1="20.238" x2="9" y2="20.238"/><path class="a" d="M11.25,17.238H21a.75.75,0,0,0,.75-.75V9.738"/><line class="a" x1="8.25" y1="9.738" x2="8.25" y2="14.238"/><rect class="a" x="6.75" y="5.988" width="16.5" height="3.75" rx="0.75" ry="0.75"/><line class="a" x1="15" y1="17.238" x2="15" y2="5.988"/><path class="a" d="M19.265,3.867a11.855,11.855,0,0,1-4.242,2.121,11.855,11.855,0,0,1,2.121-4.242C18.463.428,19.21.63,19.8,1.216S20.584,2.549,19.265,3.867Z"/><path class="a" d="M10.734,3.867a11.863,11.863,0,0,0,4.242,2.121,11.837,11.837,0,0,0-2.121-4.242C11.537.428,10.79.63,10.2,1.216S9.416,2.549,10.734,3.867Z"/></svg>