<svg xmlns="http://www.w3.org/2000/svg" viewBox="0 0 24 24"><defs><style>.a{fill:none;stroke:currentColor;stroke-linecap:round;stroke-linejoin:round;stroke-width:1.5px;}</style></defs><title>products-give-purse</title><path class="a" d="M15.75,23.25a3,3,0,0,0-3-3H9a3,3,0,0,0-3-3H.75v6Z"/><line class="a" x1="6" y1="20.25" x2="9" y2="20.25"/><path class="a" d="M12,17.25h9.75a1.6,1.6,0,0,0,1.5-1.688V8.75"/><line class="a" x1="6.75" y1="8.75" x2="6.75" y2="14.25"/><path class="a" d="M21.562,5.25H8.437A1.719,1.719,0,0,0,6.75,7V8.75A1.719,1.719,0,0,0,8.437,10.5H21.562A1.72,1.72,0,0,0,23.25,8.75V7A1.72,1.72,0,0,0,21.562,5.25Z"/><line class="a" x1="15" y1="9" x2="15" y2="12"/><path class="a" d="M18.8,5.156a3.8,3.8,0,1,0-7.483.094"/></svg>