<svg xmlns="http://www.w3.org/2000/svg" viewBox="0 0 24 24"><defs><style>.a{fill:none;stroke:currentColor;stroke-linecap:round;stroke-linejoin:round;stroke-width:1.5px;}</style></defs><title>products-purse-1</title><path class="a" d="M21.2,12.075l1.16,4.89a5.123,5.123,0,0,1-5.016,6.285H6.655a5.123,5.123,0,0,1-5.016-6.285L2.8,12.075"/><path class="a" d="M9.75,14.25H6.583A4.289,4.289,0,0,1,2.25,10.007V6.75a1.5,1.5,0,0,1,1.5-1.5h16.5a1.5,1.5,0,0,1,1.5,1.5v3.257a4.289,4.289,0,0,1-4.333,4.243H14.25"/><circle class="a" cx="12" cy="14.25" r="2.25"/><path class="a" d="M10.25.75h3.5a2,2,0,0,1,2,2v2.5a0,0,0,0,1,0,0H8.25a0,0,0,0,1,0,0V2.75A2,2,0,0,1,10.25.75Z"/></svg>