<svg xmlns="http://www.w3.org/2000/svg" viewBox="0 0 24 24"><defs><style>.a{fill:none;stroke:currentColor;stroke-linecap:round;stroke-linejoin:round;stroke-width:1.5px;}</style></defs><title>professions-woman-post</title><path class="a" d="M3.608,12.749c3-1.5,3.053-5.25,3.053-5.25v-.75"/><path class="a" d="M20.108,12.749c-3-1.5-3.054-5.25-3.054-5.25v-.75"/><path class="a" d="M6.722,6.749V3.9a1.522,1.522,0,0,1,.909-1.4L11.381.873a1.481,1.481,0,0,1,1.182,0L16.313,2.5a1.52,1.52,0,0,1,.909,1.4V6.749"/><path class="a" d="M11.972,3.374a.375.375,0,1,0,.375.375.375.375,0,0,0-.375-.375h0"/><line class="a" x1="5.222" y1="6.749" x2="18.722" y2="6.749"/><path class="a" d="M21.608,23.249A9.754,9.754,0,0,0,11.972,15h0a9.753,9.753,0,0,0-9.635,8.25"/><path class="a" d="M16.23,6.749a4.511,4.511,0,1,1-8.515,0"/><line class="a" x1="14.858" y1="21.749" x2="17.858" y2="21.749"/><line class="a" x1="11.858" y1="14.999" x2="11.858" y2="23.249"/></svg>