<svg xmlns="http://www.w3.org/2000/svg" viewBox="0 0 24 24"><defs><style>.a{fill:none;stroke:currentColor;stroke-linecap:round;stroke-linejoin:round;stroke-width:1.5px;}</style></defs><title>professions-man-farmer</title><path class="a" d="M2.193,23.25a9.75,9.75,0,0,1,19.5,0"/><polyline class="a" points="17.193 23.25 17.193 18.75 6.693 18.75 6.693 23.25"/><line class="a" x1="15.693" y1="18.75" x2="15.693" y2="14.248"/><line class="a" x1="8.193" y1="18.75" x2="8.193" y2="14.248"/><path class="a" d="M6.746,6.75a5.25,5.25,0,0,0,10.393,0Z"/><path class="a" d="M3.693,6.75a4.5,4.5,0,0,0,4.5-4.5c0-.829,1.679-1.5,3.75-1.5s3.75.671,3.75,1.5a4.5,4.5,0,0,0,4.5,4.5Z"/></svg>