<svg xmlns="http://www.w3.org/2000/svg" viewBox="0 0 24 24"><defs><style>.a{fill:none;stroke:currentColor;stroke-linecap:round;stroke-linejoin:round;stroke-width:1.5px;}</style></defs><title>professions-man-bellboy</title><path class="a" d="M17.25,8.25v-6a1.5,1.5,0,0,0-1.5-1.5H8.25a1.5,1.5,0,0,0-1.5,1.5v6a5.25,5.25,0,0,0,10.5,0Z"/><line class="a" x1="6.75" y1="7.5" x2="17.25" y2="7.5"/><line class="a" x1="11.25" y1="15.78" x2="11.25" y2="23.25"/><line class="a" x1="14.25" y1="22.5" x2="14.25" y2="22.5"/><path class="a" d="M14.25,22.5a.375.375,0,1,0,.375.375.375.375,0,0,0-.375-.375"/><line class="a" x1="14.25" y1="19.125" x2="14.25" y2="19.125"/><path class="a" d="M14.25,19.125a.375.375,0,1,0,.375.375.375.375,0,0,0-.375-.375"/><line class="a" x1="6.75" y1="4.5" x2="17.25" y2="4.5"/><path class="a" d="M21.479,23.25a9.74,9.74,0,0,0-18.958,0"/></svg>