<svg xmlns="http://www.w3.org/2000/svg" viewBox="0 0 24 24"><defs><style>.a{fill:none;stroke:currentColor;stroke-linecap:round;stroke-linejoin:round;stroke-width:1.5px;}</style></defs><title>professions-man-clown</title><path class="a" d="M6.75,13.172a5.25,5.25,0,0,0,10.5,0"/><path class="a" d="M12,11.25a1.875,1.875,0,1,0,1.875,1.875A1.875,1.875,0,0,0,12,11.25Z"/><path class="a" d="M6.728,8.065a2.241,2.241,0,0,0-3.685,2.114c-.015,0-.028-.007-.043-.007a2.25,2.25,0,1,0,1.263,4.112A3.734,3.734,0,0,0,7.5,16.172c.063,0,.126,0,.188-.006"/><path class="a" d="M16.312,16.166c.062,0,.125.006.188.006a3.734,3.734,0,0,0,3.237-1.888A2.25,2.25,0,1,0,21,10.172c-.015,0-.028.007-.043.007a2.241,2.241,0,0,0-3.685-2.114"/><polygon class="a" points="14.25 5.25 9.75 5.25 9 0.75 15 0.75 14.25 5.25"/><line class="a" x1="6" y1="5.25" x2="18" y2="5.25"/><path class="a" d="M9.142,9.33a1.124,1.124,0,0,1,1.591,0"/><path class="a" d="M13.267,9.33a1.124,1.124,0,0,1,1.591,0"/><path class="a" d="M19.145,23.25a10.2,10.2,0,0,0-14.29,0"/></svg>