<svg xmlns="http://www.w3.org/2000/svg" viewBox="0 0 24 24"><defs><style>.a{fill:none;stroke:currentColor;stroke-linecap:round;stroke-linejoin:round;stroke-width:1.5px;}</style></defs><title>professions-woman-magician</title><path class="a" d="M6.941,11.249S6.888,15,3.888,16.5"/><path class="a" d="M17.335,11.249s.053,3.75,3.053,5.25"/><path class="a" d="M17.388,11.249a5.25,5.25,0,0,1-10.5,0Z"/><path class="a" d="M6.138,2.25l.75,9h10.5l.75-9a1.5,1.5,0,0,0-1.5-1.5h-9A1.5,1.5,0,0,0,6.138,2.25Z"/><line class="a" x1="3.888" y1="11.249" x2="20.388" y2="11.249"/><line class="a" x1="6.638" y1="8.249" x2="17.634" y2="8.249"/><path class="a" d="M8.528,18.833a.6.6,0,0,0-.3-.083.587.587,0,0,0-.587.587v3.325a.587.587,0,0,0,.89.5l7.221-4.333a.588.588,0,0,1,.889.5v3.325a.587.587,0,0,1-.889.5Z"/></svg>