<svg xmlns="http://www.w3.org/2000/svg" viewBox="0 0 24 24"><defs><style>.a{fill:none;stroke:currentColor;stroke-linecap:round;stroke-linejoin:round;stroke-width:1.5px;}</style></defs><title>professions-woman-bellboy</title><path class="a" d="M17.222,8.25v-6a1.5,1.5,0,0,0-1.5-1.5h-7.5a1.5,1.5,0,0,0-1.5,1.5v6a5.25,5.25,0,0,0,10.5,0Z"/><line class="a" x1="6.722" y1="7.5" x2="17.222" y2="7.5"/><line class="a" x1="11.222" y1="15.78" x2="11.222" y2="23.25"/><path class="a" d="M14.222,22.5a.375.375,0,1,0,.375.375.375.375,0,0,0-.375-.375h0"/><path class="a" d="M14.222,19.125a.375.375,0,1,0,.375.375.375.375,0,0,0-.375-.375h0"/><line class="a" x1="6.722" y1="4.5" x2="17.222" y2="4.5"/><path class="a" d="M21.451,23.25a9.739,9.739,0,0,0-18.957,0"/><path class="a" d="M6.722,8.25s0,3.75-3,5.25"/><path class="a" d="M17.222,8.25s0,3.75,3,5.25"/></svg>