<svg xmlns="http://www.w3.org/2000/svg" viewBox="0 0 24 24"><defs><style>.a{fill:none;stroke:currentColor;stroke-linecap:round;stroke-linejoin:round;stroke-width:1.5px;}</style></defs><title>professions-man-office-3</title><path class="a" d="M2.193,23.25a9.754,9.754,0,0,1,6.749-9.28l3,2.53,3-2.53a9.754,9.754,0,0,1,6.751,9.28"/><path class="a" d="M17.6,15.306a9.724,9.724,0,0,0-2.655-1.336l-3,2.53,3.4,4.075Z"/><path class="a" d="M11.943,16.5l-3-2.53a9.746,9.746,0,0,0-2.654,1.336l2.258,5.269Z"/><line class="a" x1="14.193" y1="23.25" x2="15.339" y2="20.575"/><line class="a" x1="8.546" y1="20.575" x2="9.693" y2="23.25"/><circle class="a" cx="11.943" cy="6" r="5.25"/><path class="a" d="M7.419,3.334A8.711,8.711,0,0,0,13.693,6a8.725,8.725,0,0,0,3.452-.71"/></svg>