<svg xmlns="http://www.w3.org/2000/svg" viewBox="0 0 24 24"><defs><style>.a{fill:none;stroke:currentColor;stroke-linecap:round;stroke-linejoin:round;stroke-width:1.5px;}</style></defs><title>professions-man-diver</title><path class="a" d="M21.665,22.875a9.755,9.755,0,0,0-7.939-8.837"/><path class="a" d="M10.161,14.038a9.756,9.756,0,0,0-7.939,8.837"/><path class="a" d="M16.688,4.125a5.252,5.252,0,0,0-9.489,0"/><circle class="a" cx="11.944" cy="11.625" r="3"/><path class="a" d="M14.541,10.125h1.153a3,3,0,0,0,3-3v-1.5a1.5,1.5,0,0,0-1.5-1.5H6.694a1.5,1.5,0,0,0-1.5,1.5v1.5a3,3,0,0,0,3,3H9.346"/><path class="a" d="M3.319,1.125a.375.375,0,1,0,.375.375.375.375,0,0,0-.375-.375h0"/><path class="a" d="M1.069,5.625A.375.375,0,1,0,1.444,6a.375.375,0,0,0-.375-.375h0"/><path class="a" d="M20.569,1.125a.375.375,0,1,0,.375.375.375.375,0,0,0-.375-.375h0"/><line class="a" x1="22.819" y1="5.625" x2="22.819" y2="5.625"/><path class="a" d="M22.819,5.625A.375.375,0,1,0,23.194,6a.375.375,0,0,0-.375-.375"/><path class="a" d="M2.944,19.869V14.625a2.25,2.25,0,0,1,4.5,0v.349"/><path class="a" d="M20.944,19.869V14.625a2.25,2.25,0,0,0-4.5,0v.349"/><line class="a" x1="11.756" y1="23.063" x2="11.756" y2="18.563"/></svg>