<svg xmlns="http://www.w3.org/2000/svg" viewBox="0 0 24 24"><defs><style>.a{fill:none;stroke:currentColor;stroke-linecap:round;stroke-linejoin:round;stroke-width:1.5px;}</style></defs><title>professions-man-artist</title><path class="a" d="M14.885,3A16.977,16.977,0,0,0,7.385.75c-3,0-3.75,1.5-3.75,3,0,1.657.675,3,2.25,3h9c1.3,0,2.25-.127,2.25-1.5A1.989,1.989,0,0,0,14.885,3Z"/><path class="a" d="M14.885,3A2.25,2.25,0,0,1,17.135.75"/><path class="a" d="M6.635,15.748a9.762,9.762,0,0,0-5.886,7.5"/><path class="a" d="M22.823,13.382A2.25,2.25,0,1,1,19.006,11c.794-1.272,2.7-.08,3.895-1.989C22.9,9.009,23.481,12.328,22.823,13.382Z"/><path class="a" d="M19.722,14.1a2.035,2.035,0,0,0-2.9.825l-3.262,5.935a1.658,1.658,0,0,0,2.8,1.747l3.9-5.535A2.036,2.036,0,0,0,19.722,14.1Z"/><path class="a" d="M5.2,6.653a5.25,5.25,0,1,0,10.375.076"/></svg>