<svg xmlns="http://www.w3.org/2000/svg" viewBox="0 0 24 24"><defs><style>.a{fill:none;stroke:currentColor;stroke-linecap:round;stroke-linejoin:round;stroke-width:1.5px;}</style></defs><title>professions-man-magician</title><path class="a" d="M17.2,11.25a5.25,5.25,0,0,1-10.5,0Z"/><path class="a" d="M5.948,2.25l.75,9H17.2l.75-9a1.5,1.5,0,0,0-1.5-1.5h-9A1.5,1.5,0,0,0,5.948,2.25Z"/><line class="a" x1="3.698" y1="11.25" x2="20.198" y2="11.25"/><line class="a" x1="6.698" y1="8.25" x2="17.198" y2="8.25"/><path class="a" d="M8.338,18.833a.6.6,0,0,0-.3-.083.587.587,0,0,0-.587.587v3.325a.587.587,0,0,0,.89.5l7.221-4.333a.588.588,0,0,1,.889.5v3.325a.587.587,0,0,1-.889.5Z"/></svg>