<svg id="Regular" xmlns="http://www.w3.org/2000/svg" viewBox="0 0 24 24"><defs><style>.cls-1{fill:none;stroke:#000;stroke-linecap:round;stroke-linejoin:round;stroke-width:1.5px;}</style></defs><title>professional-tool-evernote</title><path class="cls-1" d="M3.18,5.31a.5.5,0,0,1-.35-.85L6.12,1.16A.5.5,0,0,1,7,1.51V4.81a.5.5,0,0,1-.5.5Zm13.18-3h-2A2.72,2.72,0,0,0,11.75.75c-2.06,0-2.11.95-2.11,1.73V7.92h-6s-1.26-.23-1.26,1.5c0,10.89,9.1,7,9.1,5.47,0-1,0-2.53,0-2.53s1.25,2.39,3.14,2.39,3,1.09,3,2.2v1.22c0,1.19-.61,2.26-1.82,2.26-2.15,0-1.89-2-.91-2.43l-1.07-1.16s-2.52.84-2.52,3.13a3.21,3.21,0,0,0,3.38,3.28h2.44c.77,0,4.41-.57,4.41-9.28C21.6,6.86,21.08,2.32,16.36,2.32Zm-.14,9s.11-.71.52-.71,1,1,1,1-1.29-.24-1.5-.24"/></svg>