<svg id="Regular" xmlns="http://www.w3.org/2000/svg" viewBox="0 0 24 24"><defs><style>.cls-1{fill:none;stroke:#000;stroke-linecap:round;stroke-linejoin:round;stroke-width:1.5px;}</style></defs><title>professional-network-beta-list</title><path class="cls-1" d="M.75,6.13H2.66a2,2,0,0,1,2,2V9a2,2,0,0,1-2,2H.75a0,0,0,0,1,0,0V6.13A0,0,0,0,1,.75,6.13Z"/><path class="cls-1" d="M.75,1.24H2.66a2,2,0,0,1,2,2v.89a2,2,0,0,1-2,2H.75a0,0,0,0,1,0,0V1.24A0,0,0,0,1,.75,1.24Z"/><polyline class="cls-1" points="10.53 1.24 7.6 1.24 7.6 11.02 10.53 11.02"/><line class="cls-1" x1="7.6" y1="6.13" x2="10.53" y2="6.13"/><line class="cls-1" x1="13.47" y1="1.24" x2="17.38" y2="1.24"/><line class="cls-1" x1="15.42" y1="1.24" x2="15.42" y2="11.02"/><line class="cls-1" x1="19.34" y1="13.96" x2="23.25" y2="13.96"/><line class="cls-1" x1="21.29" y1="13.96" x2="21.29" y2="22.76"/><polyline class="cls-1" points="18.36 11.02 20.8 1.24 23.25 11.02"/><line class="cls-1" x1="19.09" y1="8.09" x2="22.52" y2="8.09"/><polyline class="cls-1" points="0.75 13.96 0.75 22.76 4.17 22.76"/><line class="cls-1" x1="8.58" y1="13.96" x2="8.58" y2="22.76"/><path class="cls-1" d="M14,21.57a1.67,1.67,0,0,0,.42.69,1.76,1.76,0,0,0,2.48,0h0a1.76,1.76,0,0,0,0-2.48L14.32,17a1.76,1.76,0,0,1,0-2.48h0a1.76,1.76,0,0,1,2.48,0,1.68,1.68,0,0,1,.32.46"/></svg>