<svg xmlns="http://www.w3.org/2000/svg" viewBox="0 0 24 24"><defs><style>.a{fill:none;stroke:currentColor;stroke-linecap:round;stroke-linejoin:round;stroke-width:1.5px;}</style></defs><title>professions-man-chef-3</title><path class="a" d="M17.2,11.25a5.25,5.25,0,0,1-10.5,0Z"/><path class="a" d="M17.2,6.75a1.5,1.5,0,0,0,1.5-1.5,3,3,0,0,0-4.051-2.811,3,3,0,0,0-5.4,0A3,3,0,0,0,5.2,5.25a1.5,1.5,0,0,0,1.5,1.5v4.5H17.2Z"/><path class="a" d="M19.605,23.25a9.692,9.692,0,0,0-15.314,0"/><line class="a" x1="11.948" y1="19.5" x2="11.948" y2="23.25"/></svg>