<svg xmlns="http://www.w3.org/2000/svg" viewBox="0 0 24 24"><defs><style>.a{fill:none;stroke:currentColor;stroke-linecap:round;stroke-linejoin:round;stroke-width:1.5px;}</style></defs><title>professions-woman-telecommunicator</title><path class="a" d="M21.614,23.25a10.483,10.483,0,0,0-18.952,0"/><path class="a" d="M17.974,19.026a14.584,14.584,0,0,0,3.391-1.006,1.5,1.5,0,0,0,.762-1.961l-1.375-3.211a4.5,4.5,0,0,1-.364-1.772V9a8.25,8.25,0,0,0-16.5,0"/><path class="a" d="M11.388,13.874a.375.375,0,1,0,.375.375.375.375,0,0,0-.375-.375h0"/><path class="a" d="M5.388,11.25a3,3,0,0,0,3,3h3"/><path class="a" d="M14.388,15.244a5.25,5.25,0,0,0,3-4.744,5.25,5.25,0,0,1-5.25-5.25,5.253,5.253,0,0,1-3.75,5.032"/><path class="a" d="M16.422,18.165c-1.284,2.085-4.284,2.085-4.284,5.085,0-3-3-3-4.284-5.085"/><path class="a" d="M17.974,19.026a14.584,14.584,0,0,0,3.391-1.006,1.5,1.5,0,0,0,.762-1.961l-1.375-3.211"/><path class="a" d="M3.138,13.749l-.99,2.31A1.5,1.5,0,0,0,2.91,18.02,14.611,14.611,0,0,0,6.3,19.026"/></svg>