<svg xmlns="http://www.w3.org/2000/svg" viewBox="0 0 24 24"><defs><style>.a{fill:none;stroke:currentColor;stroke-linecap:round;stroke-linejoin:round;stroke-width:1.5px;}</style></defs><title>professions-man-clerk</title><path class="a" d="M2.25,23.25A9.76,9.76,0,0,1,8.946,15l3,3.28,3-3.28a9.758,9.758,0,0,1,6.7,8.25"/><path class="a" d="M17.2,6.908V7.5a5.25,5.25,0,0,1-10.5,0V6.888"/><path class="a" d="M5.686,6.75c1.893-1.856,3.4-3,6.261-3s4.6,1.144,6.489,3h0l-3.443.439a30.1,30.1,0,0,1-6.092,0L5.686,6.75Z"/><path class="a" d="M7.453,5.192,8.2,1.646l.84-.336a7.835,7.835,0,0,1,5.819,0l.841.336.714,3.409"/><path class="a" d="M13.936,23.25v-1.5a.75.75,0,0,1,.75-.75h3a.75.75,0,0,1,.75.75v1.5"/></svg>