<svg xmlns="http://www.w3.org/2000/svg" viewBox="0 0 24 24"><defs><style>.a{fill:none;stroke:currentColor;stroke-linecap:round;stroke-linejoin:round;stroke-width:1.5px;}</style></defs><title>professions-woman-clerk</title><path class="a" d="M6.945,8.273s-.111,4.053-3.111,5.553"/><path class="a" d="M17.327,8.25s.007,4.076,3.007,5.576"/><path class="a" d="M2.442,23.25A9.759,9.759,0,0,1,9.137,15l3,3.28,3-3.28a9.757,9.757,0,0,1,6.7,8.25"/><path class="a" d="M6.888,6.893V7.5a5.25,5.25,0,0,0,10.5,0V6.9"/><path class="a" d="M5.877,6.75c1.894-1.856,3.4-3,6.261-3s4.6,1.144,6.489,3h0l-3.443.439a30.1,30.1,0,0,1-6.092,0L5.877,6.75Z"/><path class="a" d="M7.645,5.192l.743-3.546.841-.336a7.832,7.832,0,0,1,5.818,0l.841.336L16.6,5.055"/><path class="a" d="M14.127,23.25v-1.5a.75.75,0,0,1,.75-.75h3a.75.75,0,0,1,.75.75v1.5"/></svg>