<svg xmlns="http://www.w3.org/2000/svg" viewBox="0 0 24 24"><defs><style>.a{fill:none;stroke:currentColor;stroke-linecap:round;stroke-linejoin:round;stroke-width:1.5px;}</style></defs><title>professions-man-nurse-2</title><line class="a" x1="11.944" y1="18" x2="11.944" y2="23.25"/><path class="a" d="M17.194,6.75V2.25a1.5,1.5,0,0,0-1.5-1.5h-7.5a1.5,1.5,0,0,0-1.5,1.5v4.5a5.25,5.25,0,1,0,10.5,0Z"/><line class="a" x1="6.694" y1="6" x2="17.194" y2="6"/><path class="a" d="M11.944,18a4.5,4.5,0,0,0,4.172-2.814,9.766,9.766,0,0,0-8.344,0A4.5,4.5,0,0,0,11.944,18Z"/><line class="a" x1="15.694" y1="20.625" x2="15.694" y2="20.625"/><path class="a" d="M15.694,20.625a.375.375,0,1,0,.375.375.375.375,0,0,0-.375-.375"/><path class="a" d="M21.656,23.25a9.74,9.74,0,0,0-19.424,0"/></svg>