<svg xmlns="http://www.w3.org/2000/svg" viewBox="0 0 24 24"><defs><style>.a{fill:none;stroke:currentColor;stroke-linecap:round;stroke-linejoin:round;stroke-width:1.5px;}</style></defs><title>professions-man-telecommunicator</title><path class="a" d="M6.723,5.477a5.251,5.251,0,1,1,8.225,4.831"/><path class="a" d="M7.439,3.35A8.71,8.71,0,0,0,13.7,6a8.706,8.706,0,0,0,3.429-.7"/><path class="a" d="M10.823,9.75a1.5,1.5,0,1,0,1.5,1.5,1.5,1.5,0,0,0-1.5-1.5Z"/><path class="a" d="M9.323,11.25h-1.5a3,3,0,0,1-3-3V7.172"/><path class="a" d="M21.7,23.25a9.741,9.741,0,0,0-5.25-8.644"/><path class="a" d="M7.448,14.606A9.741,9.741,0,0,0,2.2,23.25"/></svg>