<svg xmlns="http://www.w3.org/2000/svg" viewBox="0 0 24 24"><defs><style>.a{fill:none;stroke:currentColor;stroke-linecap:round;stroke-linejoin:round;stroke-width:1.5px;}</style></defs><title>professions-woman-nurse-2</title><path class="a" d="M21.614,23.25a10.483,10.483,0,0,0-18.952,0"/><polyline class="a" points="7.854 18.164 12.138 23.25 16.422 18.164"/><path class="a" d="M17.974,19.026a14.584,14.584,0,0,0,3.391-1.006,1.5,1.5,0,0,0,.763-1.961l-1.376-3.211a4.5,4.5,0,0,1-.364-1.772V9a8.218,8.218,0,0,0-2.169-5.575"/><path class="a" d="M6.057,3.425A8.218,8.218,0,0,0,3.888,9v2.076a4.5,4.5,0,0,1-.364,1.772L2.148,16.059a1.5,1.5,0,0,0,.763,1.961A14.584,14.584,0,0,0,6.3,19.026"/><path class="a" d="M12.356,6.75H11.92A5.252,5.252,0,0,1,6.888,10.5a5.25,5.25,0,0,0,10.5,0A5.252,5.252,0,0,1,12.356,6.75Z"/><path class="a" d="M17.388,6.75H6.888L5.854,2.613A1.5,1.5,0,0,1,7.309.75h9.658a1.5,1.5,0,0,1,1.455,1.863Z"/></svg>