<svg xmlns="http://www.w3.org/2000/svg" viewBox="0 0 24 24"><defs><style>.a{fill:none;stroke:currentColor;stroke-linecap:round;stroke-linejoin:round;stroke-width:1.5px;}</style></defs><title>professions-man-post</title><path class="a" d="M6.7,6.749V3.9a1.52,1.52,0,0,1,.909-1.4L11.358.873a1.481,1.481,0,0,1,1.182,0L16.29,2.5A1.522,1.522,0,0,1,17.2,3.9V6.749"/><path class="a" d="M11.949,3.374a.375.375,0,1,0,.375.375.375.375,0,0,0-.375-.375h0"/><line class="a" x1="5.199" y1="6.749" x2="18.699" y2="6.749"/><path class="a" d="M21.584,23.249A9.754,9.754,0,0,0,11.949,15h0a9.754,9.754,0,0,0-9.636,8.25"/><path class="a" d="M16.386,9A4.5,4.5,0,0,1,7.511,9"/><line class="a" x1="14.834" y1="21.749" x2="17.834" y2="21.749"/><line class="a" x1="11.834" y1="14.999" x2="11.834" y2="23.249"/></svg>