<svg xmlns="http://www.w3.org/2000/svg" viewBox="0 0 24 24"><defs><style>.a{fill:none;stroke:currentColor;stroke-linecap:round;stroke-linejoin:round;stroke-width:1.5px;}</style></defs><title>professions-woman-doctor-2</title><path class="a" d="M6.707,19.139A10.567,10.567,0,0,0,3.231,23.25"/><path class="a" d="M22.183,23.25a10.489,10.489,0,0,0-9.476-6"/><path class="a" d="M12.707,5.25s-1.434,3.6-5.031,3.745a5.25,5.25,0,1,0,10.062,0C14.14,8.847,12.707,5.25,12.707,5.25Z"/><circle class="a" cx="2.957" cy="12.75" r="1.5"/><path class="a" d="M16.457,17.25a3.75,3.75,0,0,1-7.5,0"/><path class="a" d="M4.457,12.844a3,3,0,0,1,2.25,2.906V21a2.25,2.25,0,0,0,2.25,2.25h1.5A2.251,2.251,0,0,0,12.707,21"/><path class="a" d="M4.457,9a8.25,8.25,0,0,1,16.5,0v2.076a4.5,4.5,0,0,0,.364,1.772L22.7,16.059a1.5,1.5,0,0,1-.762,1.961,14.584,14.584,0,0,1-3.391,1.006"/></svg>