<svg xmlns="http://www.w3.org/2000/svg" viewBox="0 0 24 24"><defs><style>.a{fill:none;stroke:currentColor;stroke-linecap:round;stroke-linejoin:round;stroke-width:1.5px;}</style></defs><title>professions-woman-welder</title><path class="a" d="M17.222,6a5.25,5.25,0,0,0-10.5,0v6.75s1.5,1.5,5.25,1.5,5.25-1.5,5.25-1.5Z"/><path class="a" d="M8.222,14.249V15c0,2.071,0,3.75,3.75,3.75s3.75-1.679,3.75-3.75v-.751"/><line class="a" x1="5.222" y1="23.25" x2="5.222" y2="16.215"/><line class="a" x1="18.722" y1="23.25" x2="18.722" y2="16.215"/><path class="a" d="M21.722,23.25A9.754,9.754,0,0,0,14.8,13.916"/><path class="a" d="M9.147,13.916A9.754,9.754,0,0,0,2.222,23.25"/><rect class="a" x="8.972" y="5.25" width="6" height="3"/><path class="a" d="M6.722,9s0,3.749-3,5.249"/><path class="a" d="M17.222,9s.054,3.75,3.054,5.25"/></svg>