<svg id="Regular" xmlns="http://www.w3.org/2000/svg" viewBox="0 0 24 24"><defs><style>.cls-1{fill:none;stroke:#000;stroke-linecap:round;stroke-linejoin:round;stroke-width:1.5px;}</style></defs><title>professional-tool-basecamp</title><path class="cls-1" d="M2.57,18.88a13.59,13.59,0,0,0,7.22,2.4,25.6,25.6,0,0,0,4.79,0c5.43-.57,8.56-3.32,8.66-4.59a3.73,3.73,0,0,0-.1-1c-1.92-9.49-7.42-13-10.89-13h-.69C6.11,2.62.75,11.06.75,16.48.75,17.29,1.94,18.39,2.57,18.88Z"/><path class="cls-1" d="M2.6,18.86c-.4-.57-.28-.66-.22-.9.34-1.44,2.54-5.39,4-5.86S8.54,14.35,10,14.26c1.27-.08,3.79-4.53,4.77-4.85a.65.65,0,0,1,.48,0c1,.45,3.53,2.85,6,7.23a2.46,2.46,0,0,1,.44,2"/></svg>