<svg xmlns="http://www.w3.org/2000/svg" viewBox="0 0 24 24"><defs><style>.a{fill:none;stroke:currentColor;stroke-linecap:round;stroke-linejoin:round;stroke-width:1.5px;}</style></defs><title>professions-man-welder</title><path class="a" d="M17.2,6A5.25,5.25,0,0,0,6.7,6v6.75s1.5,1.5,5.25,1.5,5.25-1.5,5.25-1.5Z"/><path class="a" d="M8.2,14.249V15c0,2.071,0,3.75,3.75,3.75S15.7,17.071,15.7,15v-.751"/><line class="a" x1="5.199" y1="23.25" x2="5.199" y2="16.216"/><line class="a" x1="18.699" y1="23.25" x2="18.699" y2="16.216"/><path class="a" d="M21.7,23.25a9.754,9.754,0,0,0-6.925-9.334"/><path class="a" d="M9.124,13.916A9.754,9.754,0,0,0,2.2,23.25"/><rect class="a" x="8.949" y="5.25" width="6" height="3"/></svg>