<svg xmlns="http://www.w3.org/2000/svg" viewBox="0 0 24 24"><defs><style>.a{fill:none;stroke:currentColor;stroke-linecap:round;stroke-linejoin:round;stroke-width:1.5px;}</style></defs><title>programming-hold-code-2</title><path class="a" d="M3.75,23.25,1.736,20.733A4.5,4.5,0,0,1,.75,17.922V12.75a1.5,1.5,0,0,1,1.5-1.5h0a1.5,1.5,0,0,1,1.5,1.5V16.5"/><path class="a" d="M8.25,23.25V20.114a4.493,4.493,0,0,0-.757-2.5L6.351,15.9a1.4,1.4,0,0,0-1.977-.445h0A1.4,1.4,0,0,0,3.9,17.25L5.25,19.5"/><path class="a" d="M20.25,23.25l2.014-2.517a4.5,4.5,0,0,0,.986-2.811V12.75a1.5,1.5,0,0,0-1.5-1.5h0a1.5,1.5,0,0,0-1.5,1.5V16.5"/><path class="a" d="M15.75,23.25V20.114a4.493,4.493,0,0,1,.757-2.5L17.649,15.9a1.4,1.4,0,0,1,1.977-.445h0A1.4,1.4,0,0,1,20.1,17.25L18.75,19.5"/><polyline class="a" points="7.417 2.583 3.75 5.333 7.417 8.083"/><polyline class="a" points="16.583 2.583 20.25 5.333 16.583 8.083"/><line class="a" x1="12.917" y1="0.75" x2="11.083" y2="9.917"/></svg>