<svg xmlns="http://www.w3.org/2000/svg" viewBox="0 0 24 24"><defs><style>.a{fill:none;stroke:currentColor;stroke-linecap:round;stroke-linejoin:round;stroke-width:1.5px;}</style></defs><title>project-blueprint-buildings</title><circle class="a" cx="3.75" cy="20.25" r="3"/><path class="a" d="M.75,20.25V3.75a3,3,0,0,1,6,0v16.5"/><path class="a" d="M3.75,23.25h18a1.5,1.5,0,0,0,1.5-1.5V6a1.5,1.5,0,0,0-1.5-1.5h-15"/><path class="a" d="M12,18.75h6V9a.75.75,0,0,0-.75-.75h-4.5A.75.75,0,0,0,12,9Z"/><line class="a" x1="15" y1="12" x2="18" y2="12"/><line class="a" x1="15" y1="15" x2="18" y2="15"/><line class="a" x1="19.5" y1="18.75" x2="18" y2="18.75"/><line class="a" x1="12" y1="18.75" x2="10.5" y2="18.75"/></svg>