<svg xmlns="http://www.w3.org/2000/svg" viewBox="0 0 24 24"><defs><style>.a{fill:none;stroke:currentColor;stroke-linecap:round;stroke-linejoin:round;stroke-width:1.5px;}</style></defs><title>project-home-shopping</title><path class="a" d="M4.5,5.032V12A1.5,1.5,0,0,0,6,13.5h6A1.5,1.5,0,0,0,13.5,12V5.032"/><path class="a" d="M16.5,7.732,10,1.885A1.5,1.5,0,0,0,8,1.885L1.5,7.732"/><line class="a" x1="15" y1="6.382" x2="15" y2="2.25"/><path class="a" d="M.75,16.5H16.708a1.5,1.5,0,0,0,1.484-1.277L20.058,2.777A1.5,1.5,0,0,1,21.542,1.5H23.25"/><circle class="a" cx="4.125" cy="20.625" r="1.875"/><circle class="a" cx="14.625" cy="20.625" r="1.875"/></svg>