<svg xmlns="http://www.w3.org/2000/svg" viewBox="0 0 24 24"><defs><style>.a{fill:none;stroke:currentColor;stroke-linecap:round;stroke-linejoin:round;stroke-width:1.5px;}</style></defs><title>project-book-building</title><path class="a" d="M9,20.25h6V10.5a.75.75,0,0,0-.75-.75H9.75A.75.75,0,0,0,9,10.5Z"/><line class="a" x1="12" y1="12.75" x2="15" y2="12.75"/><line class="a" x1="12" y1="15.75" x2="15" y2="15.75"/><line class="a" x1="16.5" y1="20.25" x2="15" y2="20.25"/><line class="a" x1="9" y1="20.25" x2="7.5" y2="20.25"/><path class="a" d="M20.25.75H6.91a3.111,3.111,0,0,0-3.119,2.5A3,3,0,0,0,6.75,6.75H19.5a.75.75,0,0,1,.75.75v15a.75.75,0,0,1-.75.75H6.75a3,3,0,0,1-3-3V3.75"/><line class="a" x1="6.75" y1="3.75" x2="18.75" y2="3.75"/></svg>