<svg xmlns="http://www.w3.org/2000/svg" viewBox="0 0 24 24"><defs><style>.a{fill:none;stroke:currentColor;stroke-linecap:round;stroke-linejoin:round;stroke-width:1.5px;}</style></defs><title>project-notes-house</title><polyline class="a" points="15 12.095 15 17.845 9 17.845 9 12.095"/><polyline class="a" points="7.5 13.345 12 9.595 16.5 13.345"/><path class="a" d="M15.75,4.5H19.5A1.5,1.5,0,0,1,21,6V21.75a1.5,1.5,0,0,1-1.5,1.5H4.5A1.5,1.5,0,0,1,3,21.75V6A1.5,1.5,0,0,1,4.5,4.5H8.25a3.75,3.75,0,0,1,7.5,0Z"/><path class="a" d="M12,3.75a.375.375,0,0,1,.375.375"/><path class="a" d="M11.625,4.125A.375.375,0,0,1,12,3.75"/><path class="a" d="M12,4.5a.375.375,0,0,1-.375-.375"/><path class="a" d="M12.375,4.125A.375.375,0,0,1,12,4.5"/></svg>