<svg xmlns="http://www.w3.org/2000/svg" viewBox="0 0 24 24"><defs><style>.a{fill:none;stroke:currentColor;stroke-linecap:round;stroke-linejoin:round;stroke-width:1.5px;}</style></defs><title>project-building-shopping</title><path class="a" d="M.75,17.444H16.193a1.452,1.452,0,0,0,1.436-1.237L19.436,4.164a1.451,1.451,0,0,1,1.435-1.237h1.653"/><circle class="a" cx="4.016" cy="21.435" r="1.815"/><circle class="a" cx="14.177" cy="21.435" r="1.815"/><path class="a" d="M4.153,6.556H9.685a.5.5,0,0,1,.5.5V14.54a0,0,0,0,1,0,0H3.653a0,0,0,0,1,0,0V7.056A.5.5,0,0,1,4.153,6.556Z"/><path class="a" d="M10.185,14.54h5.081V1.476A.726.726,0,0,0,14.54.75H8.008a.726.726,0,0,0-.726.726v5.08"/><line class="a" x1="3.653" y1="14.54" x2="2.202" y2="14.54"/><line class="a" x1="7.282" y1="9.46" x2="10.185" y2="9.46"/><line class="a" x1="13.089" y1="3.653" x2="15.266" y2="3.653"/><line class="a" x1="13.089" y1="6.556" x2="15.266" y2="6.556"/></svg>