<svg xmlns="http://www.w3.org/2000/svg" viewBox="0 0 24 24"><defs><style>.a{fill:none;stroke:currentColor;stroke-linecap:round;stroke-linejoin:round;stroke-width:1.5px;}</style></defs><title>project-blueprint-create</title><path class="a" d="M13.045,14.137l-3.712.53.53-3.712,9.546-9.546a2.25,2.25,0,0,1,3.182,3.182Z"/><path class="a" d="M23.25,8.25v13.5a1.5,1.5,0,0,1-1.5,1.5H2.25a1.5,1.5,0,0,1-1.5-1.5V5.25a1.5,1.5,0,0,1,1.5-1.5h10.5"/><polyline class="a" points="9 6.75 3.75 6.75 3.75 20.25 20.25 20.25 20.25 11.25"/><line class="a" x1="3.75" y1="11.25" x2="6.75" y2="11.25"/><polyline class="a" points="3.75 17.25 8.25 17.25 8.25 20.25"/><line class="a" x1="15.75" y1="17.25" x2="20.25" y2="17.25"/><line class="a" x1="17.25" y1="14.25" x2="20.25" y2="14.25"/></svg>