<svg xmlns="http://www.w3.org/2000/svg" viewBox="0 0 24 24"><defs><style>.a{fill:none;stroke:currentColor;stroke-linecap:round;stroke-linejoin:round;stroke-width:1.5px;}</style></defs><title>project-book-house</title><path class="a" d="M20,.75H6.66a3.111,3.111,0,0,0-3.119,2.5A3,3,0,0,0,6.5,6.75H19.25A.75.75,0,0,1,20,7.5v15a.75.75,0,0,1-.75.75H6.5a3,3,0,0,1-3-3V3.75"/><line class="a" x1="6.5" y1="3.75" x2="18.5" y2="3.75"/><polyline class="a" points="15.5 16.5 15.5 18.75 9.5 18.75 9.5 16.5"/><polyline class="a" points="8 14.25 12.5 10.5 17 14.25"/></svg>