<svg xmlns="http://www.w3.org/2000/svg" viewBox="0 0 24 24"><defs><style>.a{fill:none;stroke:currentColor;stroke-linecap:round;stroke-linejoin:round;stroke-width:1.5px;}</style></defs><title>project-plan-pen</title><path class="a" d="M22.811,1.189a1.5,1.5,0,0,1,0,2.122L16.768,9.354a1.5,1.5,0,0,1-.767.41l-2.206.441L14.236,8a1.5,1.5,0,0,1,.41-.767l6.043-6.043A1.5,1.5,0,0,1,22.811,1.189Z"/><line class="a" x1="15.916" y1="5.962" x2="18.038" y2="8.084"/><polyline class="a" points="12.75 20.25 12.75 23.25 6.75 23.25 6.75 20.25"/><polyline class="a" points="5.25 18 9.75 14.25 14.25 18"/><line class="a" x1="11.25" y1="10.5" x2="5.25" y2="10.5"/><line class="a" x1="0.75" y1="10.5" x2="2.25" y2="10.5"/></svg>