<svg xmlns="http://www.w3.org/2000/svg" viewBox="0 0 24 24"><defs><style>.a{fill:none;stroke:currentColor;stroke-linecap:round;stroke-linejoin:round;stroke-width:1.5px;}</style></defs><title>project-blueprint-idea</title><path class="a" d="M5.25,6.75h-3a1.5,1.5,0,0,0-1.5,1.5v13.5a1.5,1.5,0,0,0,1.5,1.5h18a1.5,1.5,0,0,0,1.5-1.5V12"/><line class="a" x1="0.75" y1="11.25" x2="3.75" y2="11.25"/><polyline class="a" points="0.75 18.75 6 18.75 6 23.25"/><line class="a" x1="17.25" y1="18.75" x2="21.75" y2="18.75"/><polyline class="a" points="0.75 15 9.75 15 9.75 17.25"/><line class="a" x1="9.75" y1="20.25" x2="9.75" y2="23.25"/><line class="a" x1="15.75" y1="13.5" x2="15.75" y2="15.75"/><path class="a" d="M19.5,8.25a3.75,3.75,0,1,0-5.25,3.437V13.5h3V11.687A3.751,3.751,0,0,0,19.5,8.25Z"/><line class="a" x1="15.75" y1="0.75" x2="15.75" y2="2.25"/><line class="a" x1="21.053" y1="2.947" x2="19.993" y2="4.007"/><line class="a" x1="23.25" y1="8.25" x2="21.75" y2="8.25"/><line class="a" x1="10.447" y1="2.947" x2="11.507" y2="4.007"/><line class="a" x1="8.25" y1="8.25" x2="9.75" y2="8.25"/></svg>