<svg xmlns="http://www.w3.org/2000/svg" viewBox="0 0 24 24"><defs><style>.a{fill:none;stroke:currentColor;stroke-linecap:round;stroke-linejoin:round;stroke-width:1.5px;}</style></defs><title>promo-mail</title><path class="a" d="M.75,16.4V1.728A.978.978,0,0,1,1.728.75H13.272a.978.978,0,0,1,.978.978V6.75"/><line class="a" x1="3.75" y1="3.75" x2="3.75" y2="12.75"/><circle class="a" cx="8.25" cy="5.25" r="1.5"/><path class="a" d="M15.2,13.5a1.5,1.5,0,1,1,1.3,2.252"/><path class="a" d="M9.75,12.717V10.728a.978.978,0,0,1,.978-.978H22.272a.978.978,0,0,1,.978.978v7.043a.978.978,0,0,1-.978.979H17.25"/><rect class="a" x="3.75" y="15.75" width="10.5" height="7.5" rx="1" ry="1"/><polyline class="a" points="3.75 17.25 9 20.25 14.25 17.25"/></svg>