<svg xmlns="http://www.w3.org/2000/svg" viewBox="0 0 24 24"><defs><style>.a{fill:none;stroke:currentColor;stroke-linecap:round;stroke-linejoin:round;stroke-width:1.5px;}</style></defs><title>protection-helmet</title><path class="a" d="M16.25,11.436A1.5,1.5,0,0,1,18,12.915v1.008a1.5,1.5,0,0,1-.829,1.342l-1.342.67A1.5,1.5,0,0,0,15,17.277v5.072a.75.75,0,0,0,1.238.569l4.238-2.99A1.5,1.5,0,0,0,21,18.789V10.127A9.25,9.25,0,0,0,12.277.754,9,9,0,0,0,3,9.75v9.039a1.5,1.5,0,0,0,.524,1.139l4.238,2.99A.75.75,0,0,0,9,22.349V17.521a1.5,1.5,0,0,0-1.136-1.455l-.728-.182A1.5,1.5,0,0,1,6,14.429V12.915a1.5,1.5,0,0,1,1.75-1.479A27.29,27.29,0,0,0,12,11.85,27.29,27.29,0,0,0,16.25,11.436Z"/><line class="a" x1="12" y1="11.85" x2="12" y2="17.25"/></svg>