<svg xmlns="http://www.w3.org/2000/svg" viewBox="0 0 24 24"><defs><style>.a{fill:none;stroke:currentColor;stroke-linecap:round;stroke-linejoin:round;stroke-width:1.5px;}</style></defs><title>protection-water-fortress</title><path class="a" d="M3.75,18.75V15.621a1.5,1.5,0,0,1,.439-1.06l5.872-5.872a1.5,1.5,0,0,1,1.06-.439h9.258a1.5,1.5,0,0,1,1.06.439l1.372,1.372a1.5,1.5,0,0,1,.439,1.06V20.25a1.5,1.5,0,0,1-1.5,1.5H15a3.591,3.591,0,0,1-3,1.5,3.3,3.3,0,0,1-2.812-1.563,3.314,3.314,0,0,1-5.63-.005A3.3,3.3,0,0,1,.75,23.25"/><path class="a" d="M4.5,14.25h8.25a1.5,1.5,0,0,0,0-3H7.5"/><path class="a" d="M17.25,8.25V.75H21a.75.75,0,0,1,.75.75V3a.75.75,0,0,1-.75.75H17.25"/></svg>