<svg xmlns="http://www.w3.org/2000/svg" viewBox="0 0 24 24"><defs><style>.a{fill:none;stroke:currentColor;stroke-linecap:round;stroke-linejoin:round;stroke-width:1.5px;}</style></defs><title>protection-sand-bag-1</title><path class="a" d="M.75,23.25h4.5a2.25,2.25,0,0,0,0-4.5H.75"/><path class="a" d="M23.25,18.75h-4.5a2.25,2.25,0,0,0,0,4.5h4.5"/><path class="a" d="M14.25,18.75H9.75a2.25,2.25,0,0,0,0,4.5h4.5a2.25,2.25,0,0,0,0-4.5Z"/><path class="a" d="M.75,14.25H3a2.25,2.25,0,0,1,0,4.5H.75"/><path class="a" d="M23.25,14.25H21a2.25,2.25,0,0,0,0,4.5h2.25"/><path class="a" d="M2.25,11.25a4.5,4.5,0,0,1,4.5-4.5h10.5a4.5,4.5,0,0,1,4.5,4.5"/><line class="a" x1="6.75" y1="11.25" x2="17.25" y2="11.25"/><path class="a" d="M12.75.75h4a.5.5,0,0,1,.5.5v2a.5.5,0,0,1-.5.5h-4a0,0,0,0,1,0,0v-3A0,0,0,0,1,12.75.75Z"/><line class="a" x1="12.75" y1="3.75" x2="12.75" y2="6.75"/></svg>