<svg xmlns="http://www.w3.org/2000/svg" viewBox="0 0 24 24"><defs><style>.a{fill:none;stroke:currentColor;stroke-linecap:round;stroke-linejoin:round;stroke-width:1.5px;}</style></defs><title>protection-shield-skull</title><path class="a" d="M17.25,9a5.25,5.25,0,1,0-7.5,4.745V15a.75.75,0,0,0,.75.75h3a.75.75,0,0,0,.75-.75V13.745A5.251,5.251,0,0,0,17.25,9Z"/><line class="a" x1="9.75" y1="8.625" x2="9.75" y2="8.625"/><path class="a" d="M10.125,9a.375.375,0,0,0-.375-.375"/><path class="a" d="M9.75,9.375A.375.375,0,0,0,10.125,9"/><path class="a" d="M9.375,9a.375.375,0,0,0,.375.375"/><path class="a" d="M9.75,8.625A.375.375,0,0,0,9.375,9"/><line class="a" x1="14.25" y1="8.625" x2="14.25" y2="8.625"/><path class="a" d="M14.625,9a.375.375,0,0,0-.375-.375"/><path class="a" d="M14.25,9.375A.375.375,0,0,0,14.625,9"/><path class="a" d="M13.875,9a.375.375,0,0,0,.375.375"/><path class="a" d="M14.25,8.625A.375.375,0,0,0,13.875,9"/><path class="a" d="M21.165,16.593l-8.25,6.346a1.5,1.5,0,0,1-1.83,0l-8.25-6.346A1.5,1.5,0,0,1,2.25,15.4V2.25A1.5,1.5,0,0,1,3.75.75h16.5a1.5,1.5,0,0,1,1.5,1.5V15.4A1.5,1.5,0,0,1,21.165,16.593Z"/></svg>