<svg xmlns="http://www.w3.org/2000/svg" viewBox="0 0 24 24"><defs><style>.a{fill:none;stroke:currentColor;stroke-linecap:round;stroke-linejoin:round;stroke-width:1.5px;}</style></defs><title>protection-vest</title><path class="a" d="M19.772,3.779,20.079,1.5,15.231.75H8.764L3.923,1.5,4.23,3.781A6.261,6.261,0,0,1,1.5,9.749h0L3.7,22.015A1.5,1.5,0,0,0,5.178,23.25H18.822A1.5,1.5,0,0,0,20.3,22.015L22.5,9.75h0A6.26,6.26,0,0,1,19.772,3.779Z"/><path class="a" d="M2.038,12.75H8.25a1.5,1.5,0,0,1,1.5,1.5v3a1.5,1.5,0,0,1-1.5,1.5H3.115"/><path class="a" d="M21.962,12.75H15.75a1.5,1.5,0,0,0-1.5,1.5v3a1.5,1.5,0,0,0,1.5,1.5h5.135"/><path class="a" d="M9,.75v.823a8.344,8.344,0,0,0,1.829,5.213h0a1.5,1.5,0,0,0,2.342,0h0A8.344,8.344,0,0,0,15,1.573V.75"/></svg>