<svg xmlns="http://www.w3.org/2000/svg" viewBox="0 0 24 24"><defs><style>.a{fill:none;stroke:currentColor;stroke-linecap:round;stroke-linejoin:round;stroke-width:1.5px;}</style></defs><title>protection-castle-gate</title><path class="a" d="M23.259,20.25h-10.5a1.5,1.5,0,0,0-1.5,1.5v1.5"/><rect class="a" x="14.259" y="6.75" width="7.5" height="13.5"/><path class="a" d="M12.759.75h10.5a0,0,0,0,1,0,0v5a1,1,0,0,1-1,1h-8.5a1,1,0,0,1-1-1v-5A0,0,0,0,1,12.759.75Z"/><line class="a" x1="15.759" y1="0.75" x2="15.759" y2="2.25"/><line class="a" x1="20.259" y1="0.75" x2="20.259" y2="2.25"/><path class="a" d="M.75,21.653a3.013,3.013,0,0,0,.759.1,2.981,2.981,0,0,0,2.25-1.035,2.963,2.963,0,0,0,4.5,0"/><polyline class="a" points="14.259 19.147 2.259 13.5 3.536 10.786 14.263 15.834"/><line class="a" x1="14.259" y1="6.75" x2="6.055" y2="11.971"/></svg>