<svg xmlns="http://www.w3.org/2000/svg" viewBox="0 0 24 24"><defs><style>.a{fill:none;stroke:currentColor;stroke-linecap:round;stroke-linejoin:round;stroke-width:1.5px;}</style></defs><title>protection-helmet-viking</title><path class="a" d="M14.757,8.628l.221.063a8.253,8.253,0,0,1,5.272,7.7v3.95a1.5,1.5,0,0,1-1.5,1.5H5.25a1.5,1.5,0,0,1-1.5-1.5v-3.95A8.254,8.254,0,0,1,9.061,8.676l.182-.048"/><line class="a" x1="3.75" y1="17.337" x2="20.25" y2="17.337"/><path class="a" d="M10.5,17.337,9.013,7.035a1.5,1.5,0,0,1,1.487-1.7h3a1.5,1.5,0,0,1,1.487,1.7L13.5,17.337Z"/><path class="a" d="M19.665,13.331A9.049,9.049,0,0,0,23.25,6.837a7.428,7.428,0,0,0-1.156-3.989.753.753,0,0,0-1.37.25A10.722,10.722,0,0,1,16.2,9.288"/><path class="a" d="M4.335,13.331A9.049,9.049,0,0,1,.75,6.837,7.428,7.428,0,0,1,1.906,2.848a.752.752,0,0,1,1.369.25A10.728,10.728,0,0,0,7.8,9.288"/></svg>