<svg xmlns="http://www.w3.org/2000/svg" viewBox="0 0 24 24"><defs><style>.a{fill:none;stroke:currentColor;stroke-linecap:round;stroke-linejoin:round;stroke-width:1.5px;}</style></defs><title>protection-shield</title><path class="a" d="M9.75,20.829a1.5,1.5,0,0,0,.919,1.383A15.063,15.063,0,0,0,16.5,23.25a15.063,15.063,0,0,0,5.831-1.038,1.5,1.5,0,0,0,.919-1.383V7.426a1.5,1.5,0,0,0-1.944-1.434A16.476,16.476,0,0,1,16.5,6.75a16.476,16.476,0,0,1-4.806-.758A1.5,1.5,0,0,0,9.75,7.426Z"/><line class="a" x1="14.25" y1="11.25" x2="18.75" y2="11.25"/><path class="a" d="M13.5,3.75a3,3,0,0,1,6,0"/><path class="a" d="M3.75,21.75a1.5,1.5,0,0,0,3,0v-15a1.5,1.5,0,0,0-3,0Z"/><line class="a" x1="6.75" y1="15.75" x2="0.75" y2="15.75"/><line class="a" x1="3.75" y1="18.75" x2="6" y2="18.75"/></svg>