<svg xmlns="http://www.w3.org/2000/svg" viewBox="0 0 24 24"><defs><style>.a{fill:none;stroke:currentColor;stroke-linecap:round;stroke-linejoin:round;stroke-width:1.5px;}</style></defs><title>protection-shield-5</title><path class="a" d="M14.25,8.25V.857C13.541.789,12.79.75,12,.75S10.459.789,9.75.857V8.25H2.25v3.287a11.9,11.9,0,0,0,.062,1.213H9.75V22.6l.132.053,1.041.4a3,3,0,0,0,2.154,0l1.041-.4.132-.053V12.75h7.438a11.9,11.9,0,0,0,.062-1.213V8.25Z"/><path class="a" d="M2.25,3.923v7.614A11.907,11.907,0,0,0,9.882,22.65l1.041.4a3,3,0,0,0,2.154,0l1.041-.4A11.907,11.907,0,0,0,21.75,11.537V3.923a1.487,1.487,0,0,0-.868-1.362A21.72,21.72,0,0,0,12,.75,21.72,21.72,0,0,0,3.118,2.561,1.487,1.487,0,0,0,2.25,3.923Z"/></svg>