<svg xmlns="http://www.w3.org/2000/svg" viewBox="0 0 24 24"><defs><style>.a{fill:none;stroke:currentColor;stroke-linecap:round;stroke-linejoin:round;stroke-width:1.5px;}</style></defs><title>protection-mask-1</title><path class="a" d="M7.091,19.864C4.357,17.616,1.5,14.491,1.5,11.25,1.5,5.037,5.309.75,12,.75s10.5,4.287,10.5,10.5c0,3.241-2.857,6.366-5.591,8.614"/><circle class="a" cx="12" cy="18" r="5.25"/><path class="a" d="M12.265,15.083a.375.375,0,0,1,0,.531"/><path class="a" d="M11.735,15.083a.375.375,0,0,1,.53,0"/><path class="a" d="M11.735,15.614a.375.375,0,0,1,0-.531"/><path class="a" d="M12.265,15.614a.375.375,0,0,1-.53,0"/><path class="a" d="M14.917,17.735a.375.375,0,0,1,0,.53"/><path class="a" d="M14.386,17.735a.375.375,0,0,1,.531,0"/><path class="a" d="M14.386,18.265a.375.375,0,0,1,0-.53"/><path class="a" d="M14.917,18.265a.375.375,0,0,1-.531,0"/><path class="a" d="M9.614,17.735a.375.375,0,0,1,0,.53"/><path class="a" d="M9.083,17.735a.375.375,0,0,1,.531,0"/><path class="a" d="M9.083,18.265a.375.375,0,0,1,0-.53"/><path class="a" d="M9.614,18.265a.375.375,0,0,1-.531,0"/><path class="a" d="M12.265,20.386a.375.375,0,0,1,0,.531"/><path class="a" d="M11.735,20.386a.375.375,0,0,1,.53,0"/><path class="a" d="M11.735,20.917a.375.375,0,0,1,0-.531"/><path class="a" d="M12.265,20.917a.375.375,0,0,1-.53,0"/><circle class="a" cx="16.125" cy="7.875" r="2.625"/><circle class="a" cx="7.875" cy="7.875" r="2.625"/></svg>