<svg xmlns="http://www.w3.org/2000/svg" viewBox="0 0 24 24"><defs><style>.a{fill:none;stroke:currentColor;stroke-linecap:round;stroke-linejoin:round;stroke-width:1.5px;}</style></defs><title>protection-shield-1</title><path class="a" d="M2.25,3.923v7.614A11.907,11.907,0,0,0,9.882,22.65l1.041.4a3,3,0,0,0,2.154,0l1.041-.4A11.907,11.907,0,0,0,21.75,11.537V3.923a1.487,1.487,0,0,0-.868-1.362A21.7,21.7,0,0,0,12,.75,21.7,21.7,0,0,0,3.118,2.561,1.487,1.487,0,0,0,2.25,3.923Z"/><line class="a" x1="8.715" y1="18.316" x2="18.75" y2="8.281"/><line class="a" x1="17.145" y1="4.588" x2="6.221" y2="15.507"/><path class="a" d="M5.25,5.916v5.8a8.214,8.214,0,0,0,5.3,7.586l.711.274a2.047,2.047,0,0,0,1.47,0l.711-.274a8.214,8.214,0,0,0,5.3-7.586v-5.8a1.016,1.016,0,0,0-.592-.93A15.381,15.381,0,0,0,12,3.75,15.381,15.381,0,0,0,5.842,4.986,1.016,1.016,0,0,0,5.25,5.916Z"/></svg>