<svg xmlns="http://www.w3.org/2000/svg" viewBox="0 0 24 24"><defs><style>.a{fill:none;stroke:currentColor;stroke-linecap:round;stroke-linejoin:round;stroke-width:1.5px;}</style></defs><title>protection-sand-bag-soldier-1</title><path class="a" d="M.75,23.25H1.5a2.25,2.25,0,0,0,0-4.5H.75"/><path class="a" d="M10.5,18.75H6a2.25,2.25,0,0,0,0,4.5h4.5a2.25,2.25,0,0,0,0-4.5Z"/><path class="a" d="M7.5,14.25H3a2.25,2.25,0,0,0,0,4.5H7.5a2.25,2.25,0,0,0,0-4.5Z"/><circle class="a" cx="18" cy="3.75" r="3"/><path class="a" d="M23.25,13.5a5.25,5.25,0,0,0-10.5,0v2.25H15l.75,7.5h4.5l.75-7.5h2.25Z"/><polyline class="a" points="14.283 9.793 9.69 6.786 10.271 5.899"/></svg>