<svg xmlns="http://www.w3.org/2000/svg" viewBox="0 0 24 24"><defs><style>.a{fill:none;stroke:currentColor;stroke-linecap:round;stroke-linejoin:round;stroke-width:1.5px;}</style></defs><title>protection-shield-2</title><line class="a" x1="12" y1="0.75" x2="12" y2="23.25"/><line class="a" x1="21" y1="11.25" x2="3" y2="11.25"/><path class="a" d="M3,3.923v7.614c0,4.927,2.284,9.344,6.882,11.113l1.041.4a3,3,0,0,0,2.154,0l1.041-.4C18.716,20.881,21,16.464,21,11.537V3.923a1.487,1.487,0,0,0-.868-1.362A17.563,17.563,0,0,0,12,.75,17.563,17.563,0,0,0,3.868,2.561,1.487,1.487,0,0,0,3,3.923Z"/></svg>