<svg xmlns="http://www.w3.org/2000/svg" viewBox="0 0 24 24"><defs><style>.a{fill:none;stroke:currentColor;stroke-linecap:round;stroke-linejoin:round;stroke-width:1.5px;}</style></defs><title>protection-sand-bag-soldier</title><path class="a" d="M7.5,18.5H3A2.25,2.25,0,0,0,3,23H7.5a2.25,2.25,0,0,0,0-4.5Z"/><path class="a" d="M16.5,18.5H12A2.25,2.25,0,0,0,12,23h4.5a2.25,2.25,0,0,0,0-4.5Z"/><path class="a" d="M13.5,14H9a2.25,2.25,0,0,0,0,4.5h4.5a2.25,2.25,0,0,0,0-4.5Z"/><path class="a" d="M9,14H6.177a1.5,1.5,0,0,1-1.342-.829L3.75,11H12"/><polyline class="a" points="0.75 9.5 0.75 11 3.75 11"/><path class="a" d="M21.675,6.5a3.75,3.75,0,1,1-7.35,0"/><path class="a" d="M23.25,6.5a5.25,5.25,0,0,0-10.5,0Z"/><path class="a" d="M18,11h0a5.251,5.251,0,0,1,5.25,5.25V23"/></svg>