<svg xmlns="http://www.w3.org/2000/svg" viewBox="0 0 24 24"><defs><style>.a{fill:none;stroke:currentColor;stroke-linecap:round;stroke-linejoin:round;stroke-width:1.5px;}</style></defs><title>protection-shield-star</title><path class="a" d="M2.25,3.923v7.614A11.907,11.907,0,0,0,9.882,22.65l1.041.4a3,3,0,0,0,2.154,0l1.041-.4A11.907,11.907,0,0,0,21.75,11.537V3.923a1.487,1.487,0,0,0-.868-1.362A21.7,21.7,0,0,0,12,.75,21.7,21.7,0,0,0,3.118,2.561,1.487,1.487,0,0,0,2.25,3.923Z"/><path class="a" d="M11.564,6.494a.488.488,0,0,1,.872,0l1.012,2.041a.485.485,0,0,0,.366.263l2.272.329a.482.482,0,0,1,.39.324.473.473,0,0,1-.121.489l-1.65,1.6a.473.473,0,0,0-.138.42l.389,2.256a.474.474,0,0,1-.194.467.491.491,0,0,1-.511.035L12.227,13.66a.492.492,0,0,0-.454,0L9.749,14.719a.491.491,0,0,1-.511-.035.474.474,0,0,1-.194-.467l.389-2.256a.473.473,0,0,0-.138-.42l-1.65-1.6a.473.473,0,0,1-.121-.489.483.483,0,0,1,.39-.324L10.187,8.8a.485.485,0,0,0,.365-.263Z"/></svg>