<svg xmlns="http://www.w3.org/2000/svg" viewBox="0 0 24 24"><defs><style>.a{fill:none;stroke:currentColor;stroke-linecap:round;stroke-linejoin:round;stroke-width:1.5px;}</style></defs><title>pstyle-two-in-cart</title><polyline class="a" points="17.163 5.254 14.913 12.754 8.913 12.754 7.413 8.254 16.263 8.254"/><path class="a" d="M9.288,15a.375.375,0,0,1,.375.375"/><path class="a" d="M8.913,15.379A.375.375,0,0,1,9.288,15"/><path class="a" d="M9.288,15.754a.375.375,0,0,1-.375-.375"/><path class="a" d="M9.663,15.379a.375.375,0,0,1-.375.375"/><path class="a" d="M14.538,15a.375.375,0,0,1,.375.375"/><path class="a" d="M14.163,15.379A.375.375,0,0,1,14.538,15"/><path class="a" d="M14.538,15.754a.375.375,0,0,1-.375-.375"/><path class="a" d="M14.913,15.379a.375.375,0,0,1-.375.375"/><path class="a" d="M21,9.754c0,7.9-6.932,12.331-8.629,13.3a.749.749,0,0,1-.743,0C9.931,22.084,3,17.652,3,9.754a9,9,0,0,1,18,0Z"/></svg>