<svg xmlns="http://www.w3.org/2000/svg" viewBox="0 0 24 24"><defs><style>.a{fill:none;stroke:currentColor;stroke-linecap:round;stroke-linejoin:round;stroke-width:1.5px;}</style></defs><title>public-service-ambulance</title><path class="a" d="M3.75,20.263v1.5a1.5,1.5,0,0,0,3,0v-1.5"/><path class="a" d="M20.25,20.263v1.5a1.5,1.5,0,1,1-3,0v-1.5"/><path class="a" d="M2.25,14.263h19.5a0,0,0,0,1,0,0v5a1,1,0,0,1-1,1H3.25a1,1,0,0,1-1-1v-5A0,0,0,0,1,2.25,14.263Z"/><line class="a" x1="2.25" y1="17.263" x2="5.25" y2="17.263"/><line class="a" x1="18.75" y1="17.263" x2="21.75" y2="17.263"/><rect class="a" x="8.25" y="17.263" width="7.5" height="3"/><path class="a" d="M3.25,3.763h17.5a1,1,0,0,1,1,1v9.5a0,0,0,0,1,0,0H2.25a0,0,0,0,1,0,0v-9.5A1,1,0,0,1,3.25,3.763Z"/><path class="a" d="M15.592,1.592A1.5,1.5,0,0,0,14.25.763H9.75a1.5,1.5,0,0,0-1.342.829L7.323,3.763h9.354Z"/><path class="a" d="M4.5,14.263c.558-4.2.292-7.5,3.531-7.5h7.938c3.475,0,3.068,4.013,3.531,7.5"/></svg>