<svg xmlns="http://www.w3.org/2000/svg" viewBox="0 0 24 24"><defs><style>.a{fill:none;stroke:currentColor;stroke-linecap:round;stroke-linejoin:round;stroke-width:1.5px;}</style></defs><title>public-service-firefighter-truck</title><path class="a" d="M3,20.263v1.5a1.5,1.5,0,0,0,3,0v-1.5"/><path class="a" d="M21,20.263v1.5a1.5,1.5,0,1,1-3,0v-1.5"/><path class="a" d="M6,12.388a.375.375,0,0,1,.375.375"/><path class="a" d="M5.625,12.763A.375.375,0,0,1,6,12.388"/><path class="a" d="M6,13.138a.375.375,0,0,1-.375-.375"/><path class="a" d="M6.375,12.763A.375.375,0,0,1,6,13.138"/><path class="a" d="M18,12.388a.375.375,0,0,1,.375.375"/><path class="a" d="M17.625,12.763A.375.375,0,0,1,18,12.388"/><path class="a" d="M18,13.138a.375.375,0,0,1-.375-.375"/><path class="a" d="M18.375,12.763a.375.375,0,0,1-.375.375"/><rect class="a" x="1.5" y="15.763" width="21" height="4.5" rx="0.5" ry="0.5"/><rect class="a" x="3" y="9.763" width="18" height="6"/><line class="a" x1="10.5" y1="12.763" x2="13.5" y2="12.763"/><path class="a" d="M4,3.763H20a1,1,0,0,1,1,1v5a0,0,0,0,1,0,0H3a0,0,0,0,1,0,0v-5A1,1,0,0,1,4,3.763Z"/><line class="a" x1="12" y1="9.763" x2="12" y2="3.763"/><line class="a" x1="3" y1="6.763" x2="1.5" y2="6.763"/><line class="a" x1="6" y1="3.763" x2="6" y2="2.263"/><line class="a" x1="18" y1="3.763" x2="18" y2="2.263"/><line class="a" x1="22.5" y1="6.763" x2="21" y2="6.763"/><path class="a" d="M10,.763h4a1,1,0,0,1,1,1v2a0,0,0,0,1,0,0H9a0,0,0,0,1,0,0v-2A1,1,0,0,1,10,.763Z"/><line class="a" x1="4.5" y1="20.263" x2="7.5" y2="15.763"/><line class="a" x1="9" y1="20.263" x2="12" y2="15.763"/><line class="a" x1="19.5" y1="20.263" x2="16.5" y2="15.763"/><line class="a" x1="15" y1="20.263" x2="12" y2="15.763"/></svg>