<svg xmlns="http://www.w3.org/2000/svg" viewBox="0 0 24 24"><defs><style>.a{fill:none;stroke:currentColor;stroke-linecap:round;stroke-linejoin:round;stroke-width:1.5px;}</style></defs><title>public-service-police-van</title><circle class="a" cx="18.75" cy="20.213" r="1.5"/><circle class="a" cx="5.25" cy="20.213" r="1.5"/><path class="a" d="M20.25,20.213h1.5a1.5,1.5,0,0,0,1.5-1.5V15.444a1.5,1.5,0,0,0-.279-.872l-3.022-4.231a1.5,1.5,0,0,0-1.221-.628H14.25"/><path class="a" d="M14.25,20.213V6.713a1.5,1.5,0,0,0-1.5-1.5H2.25a1.5,1.5,0,0,0-1.5,1.5v12a1.5,1.5,0,0,0,1.5,1.5h1.5"/><line class="a" x1="17.25" y1="20.213" x2="6.75" y2="20.213"/><path class="a" d="M11.25,2.213a1.5,1.5,0,0,1,1.5,1.5v1.5h-3v-1.5A1.5,1.5,0,0,1,11.25,2.213Z"/><polygon class="a" points="3.75 11.004 6.218 10.629 7.5 8.213 8.782 10.629 11.25 11.004 9.305 12.935 9.874 15.519 7.5 14.17 5.126 15.519 5.695 12.935 3.75 11.004"/><line class="a" x1="22.714" y1="14.213" x2="14.25" y2="14.213"/></svg>