<svg xmlns="http://www.w3.org/2000/svg" viewBox="0 0 24 24"><defs><style>.a{fill:none;stroke:currentColor;stroke-linecap:round;stroke-linejoin:round;stroke-width:1.5px;}</style></defs><title>public-service-ambulance-1</title><path class="a" d="M5.25,20.25v1.5a1.5,1.5,0,0,0,3,0v-1.5"/><path class="a" d="M18.75,20.25v1.5a1.5,1.5,0,0,1-3,0v-1.5"/><path class="a" d="M3.749,17.25H2.25a1.5,1.5,0,0,1-1.5-1.5V2.25A1.5,1.5,0,0,1,2.25.75h19.5a1.5,1.5,0,0,1,1.5,1.5v13.5a1.5,1.5,0,0,1-1.5,1.5h-1.5"/><line class="a" x1="15.75" y1="17.25" x2="17.25" y2="17.25"/><line class="a" x1="6.75" y1="17.25" x2="8.25" y2="17.25"/><line class="a" x1="3.75" y1="3.75" x2="5.25" y2="3.75"/><line class="a" x1="18.75" y1="3.75" x2="20.25" y2="3.75"/><line class="a" x1="8.25" y1="3.75" x2="15.75" y2="3.75"/><line class="a" x1="3.75" y1="14.25" x2="20.25" y2="14.25"/><path class="a" d="M18.321,7.819A1.5,1.5,0,0,0,16.884,6.75H7.116A1.5,1.5,0,0,0,5.679,7.819L3.75,14.25v4.5a1.5,1.5,0,0,0,1.5,1.5h13.5a1.5,1.5,0,0,0,1.5-1.5v-4.5Z"/></svg>