<svg xmlns="http://www.w3.org/2000/svg" viewBox="0 0 24 24"><defs><style>.a{fill:none;stroke:currentColor;stroke-linecap:round;stroke-linejoin:round;stroke-width:1.5px;}</style></defs><title>public-service-firefighter-truck-1</title><circle class="a" cx="18.75" cy="21.713" r="1.5"/><circle class="a" cx="5.25" cy="21.713" r="1.5"/><path class="a" d="M20.25,21.713h1.5a1.5,1.5,0,0,0,1.5-1.5V16.944a1.5,1.5,0,0,0-.279-.872l-3.022-4.231a1.5,1.5,0,0,0-1.221-.628H15.75a1.5,1.5,0,0,0-1.5,1.5v9"/><line class="a" x1="23.25" y1="17.213" x2="14.25" y2="17.213"/><path class="a" d="M11.25,21.713v-9a1.5,1.5,0,0,0-1.5-1.5H2.25a1.5,1.5,0,0,0-1.5,1.5v7.5a1.5,1.5,0,0,0,1.5,1.5h1.5"/><line class="a" x1="17.25" y1="21.713" x2="6.75" y2="21.713"/><line class="a" x1="14.25" y1="14.213" x2="11.25" y2="14.213"/><line class="a" x1="2.25" y1="11.213" x2="23.25" y2="0.763"/></svg>