<svg xmlns="http://www.w3.org/2000/svg" viewBox="0 0 24 24"><defs><style>.a{fill:none;stroke:currentColor;stroke-linecap:round;stroke-linejoin:round;stroke-width:1.5px;}</style></defs><title>public-service-police</title><path class="a" d="M21.75,20.263a1.5,1.5,0,0,0,1.5-1.5V16.512a1.809,1.809,0,0,0-.53-1.279l-2.47-2.47H3.75l-2.47,2.47a1.809,1.809,0,0,0-.53,1.279v2.251a1.5,1.5,0,0,0,1.5,1.5Z"/><path class="a" d="M.913,15.763H3.838a3,3,0,0,1,2.846,2.051L7.5,20.263"/><path class="a" d="M23.088,15.763H20.162a3,3,0,0,0-2.846,2.051L16.5,20.263"/><path class="a" d="M3.75,12.763l1.723-4.6A2.166,2.166,0,0,1,7.5,6.763h9a2.166,2.166,0,0,1,2.027,1.4l1.723,4.6Z"/><path class="a" d="M3.75,12.763,2.689,11.7a1.5,1.5,0,0,0-1.06-.439H.75"/><path class="a" d="M20.25,12.763,21.311,11.7a1.5,1.5,0,0,1,1.06-.439h.879"/><path class="a" d="M2.25,20.263v1.5a1.5,1.5,0,0,0,3,0v-1.5Z"/><path class="a" d="M21.75,20.263v1.5a1.5,1.5,0,1,1-3,0v-1.5Z"/><line class="a" x1="9.75" y1="17.263" x2="14.25" y2="17.263"/><path class="a" d="M17.25,5.263a1.5,1.5,0,0,1-1.5,1.5H8.25a1.5,1.5,0,0,1,0-3h7.5A1.5,1.5,0,0,1,17.25,5.263Z"/><line class="a" x1="12" y1="3.763" x2="12" y2="6.763"/><line class="a" x1="4.5" y1="0.763" x2="6" y2="2.263"/><line class="a" x1="1.766" y1="3.763" x2="3.75" y2="4.513"/><line class="a" x1="22.234" y1="3.763" x2="20.25" y2="4.513"/><line class="a" x1="19.5" y1="0.763" x2="18" y2="2.263"/></svg>