<svg id="Regular" xmlns="http://www.w3.org/2000/svg" viewBox="0 0 24 24"><defs><style>.cls-1{fill:none;stroke:currentColor;stroke-linecap:round;stroke-linejoin:round;stroke-width:1.5px;}</style></defs><title>puma</title><path class="cls-1" d="M12.01,11.251c-.75,3-3.75.75-3.75.75a2.2,2.2,0,0,1-2.25,2.25s-1.5-.75-.75-3.75C5.916,7.878,9.01,9,9.01,9"/><path class="cls-1" d="M11.233,12.557l.777.194s4.322,1.05,5.23,3.178"/><path class="cls-1" d="M17.26,14.251A3.029,3.029,0,0,0,19.51,18l1.5,3.75L23.26,21l-.58-5.8a4.467,4.467,0,0,0-1.427-2.862C16.291,7.84,12.552,5.5,9.76,4.445V2.251L6.787,3.737A3.942,3.942,0,0,0,3.01,5.251L.76,6l.75,3a12.584,12.584,0,0,0,4.062.741"/><path class="cls-1" d="M6.385,6a.375.375,0,0,1,.375.375"/><path class="cls-1" d="M6.01,6.376A.375.375,0,0,1,6.385,6"/><path class="cls-1" d="M6.385,6.751a.375.375,0,0,1-.375-.375"/><path class="cls-1" d="M6.76,6.376a.375.375,0,0,1-.375.375"/><path class="cls-1" d="M21.7,12.811l.06-.06a4.95,4.95,0,0,0,0-6.75"/></svg>