<svg xmlns="http://www.w3.org/2000/svg" viewBox="0 0 24 24"><defs><style>.a{fill:none;stroke:currentColor;stroke-linecap:round;stroke-linejoin:round;stroke-width:1.5px;}</style></defs><title>punishment-prisoner-bars</title><rect class="a" x="0.75" y="0.75" width="22.5" height="22.5" rx="1" ry="1"/><circle class="a" cx="12" cy="7.5" r="3.75"/><line class="a" x1="8.25" y1="0.75" x2="8.25" y2="16.5"/><line class="a" x1="15.75" y1="0.75" x2="15.75" y2="16.5"/><line class="a" x1="3.75" y1="0.75" x2="3.75" y2="23.25"/><line class="a" x1="20.25" y1="0.75" x2="20.25" y2="23.25"/><path class="a" d="M15.75,18.75a2.25,2.25,0,0,0,0,4.5h.75a3.75,3.75,0,0,0,3.75-3.75v-.75a4.5,4.5,0,0,0-4.5-4.5H8.25a4.5,4.5,0,0,0-4.5,4.5v.75A3.75,3.75,0,0,0,7.5,23.25h.75a2.25,2.25,0,0,0,0-4.5"/></svg>