<svg xmlns="http://www.w3.org/2000/svg" viewBox="0 0 24 24"><defs><style>.a{fill:none;stroke:currentColor;stroke-linecap:round;stroke-linejoin:round;stroke-width:1.5px;}</style></defs><title>punishment-prisoner-ball</title><circle class="a" cx="4.5" cy="3.625" r="2.625"/><path class="a" d="M2.25,20.5a2.25,2.25,0,0,0,4.5,0V16.75a1.5,1.5,0,0,0,1.5-1.5v-4.5a3,3,0,0,0-3-3H3.75a3,3,0,0,0-3,3v4.5a1.5,1.5,0,0,0,1.5,1.5Z"/><line class="a" x1="0.75" y1="10.75" x2="8.25" y2="10.75"/><line class="a" x1="0.75" y1="13.75" x2="8.25" y2="13.75"/><line class="a" x1="2.25" y1="16.75" x2="6.75" y2="16.75"/><path class="a" d="M2.25,19.75H9a2.25,2.25,0,0,0,2.25-2.25,2.25,2.25,0,0,1,2.25-2.25h1.9"/><circle class="a" cx="18.75" cy="12.25" r="4.5"/></svg>