<svg id="Regular" xmlns="http://www.w3.org/2000/svg" viewBox="0 0 24 24"><defs><style>.cls-1{fill:none;stroke:#000;stroke-linecap:round;stroke-linejoin:round;stroke-width:1.5px;}</style></defs><title>q&amp;amp;a-quora</title><path class="cls-1" d="M17.6,19.28A10.16,10.16,0,0,0,12,.75,10.07,10.07,0,0,0,2,10.89,10.07,10.07,0,0,0,12,21a9.88,9.88,0,0,0,2.36-.29c.95,1.73,2.39,3,5.47,2.37V21.38A3.59,3.59,0,0,1,17.6,19.28Zm-.42-7.18A5.94,5.94,0,0,1,16,15.72a7.44,7.44,0,0,0-5.14-2.25v2.25a4.19,4.19,0,0,1,2,1.93,5.38,5.38,0,0,1-1.28.15C9,17.81,7,15.25,7,12.1V9.74C7,6.59,9.53,4,12.08,4s5.11,2.56,5.11,5.71V12.1Z"/></svg>