<svg id="Regular" xmlns="http://www.w3.org/2000/svg" viewBox="0 0 24 24"><defs><style>.cls-1{fill:none;stroke:currentColor;stroke-linecap:round;stroke-linejoin:round;stroke-width:1.5px;}</style></defs><title>rabbit</title><path class="cls-1" d="M7.773,11.038a7.572,7.572,0,0,1,1.3-.694,7.489,7.489,0,0,1,7.037.694"/><line class="cls-1" x1="10.44" y1="18.775" x2="13.44" y2="18.775"/><path class="cls-1" d="M8.565,14.275a.375.375,0,0,1,.375.375"/><path class="cls-1" d="M8.19,14.65a.375.375,0,0,1,.375-.375"/><path class="cls-1" d="M8.565,15.025a.375.375,0,0,1-.375-.375"/><path class="cls-1" d="M8.94,14.65a.375.375,0,0,1-.375.375"/><path class="cls-1" d="M15.315,14.275a.375.375,0,0,1,.375.375"/><path class="cls-1" d="M14.94,14.65a.375.375,0,0,1,.375-.375"/><path class="cls-1" d="M15.315,15.025a.375.375,0,0,1-.375-.375"/><path class="cls-1" d="M15.69,14.65a.375.375,0,0,1-.375.375"/><path class="cls-1" d="M13.44,9.928V3.775a3,3,0,1,1,6,0v15.75a3.75,3.75,0,0,1-7.5,0,3.75,3.75,0,0,1-7.5,0V3.775a3,3,0,1,1,6,0V9.928"/><line class="cls-1" x1="11.94" y1="19.525" x2="11.94" y2="18.775"/></svg>