<svg id="Regular" xmlns="http://www.w3.org/2000/svg" viewBox="0 0 24 24"><defs><style>.cls-1{fill:none;stroke:currentColor;stroke-linecap:round;stroke-linejoin:round;stroke-width:1.5px;}</style></defs><title>rabbit-running</title><path class="cls-1" d="M7.5,12.018a4.832,4.832,0,0,1,3.75,1.5A18.614,18.614,0,0,1,14.307,20"/><path class="cls-1" d="M18.75,23.268H12.858a1.5,1.5,0,0,1-1.262-.687,10.945,10.945,0,0,0-4.1-3.813c-3-1.5-6-3-6-6.75,0-5.25,3.75-6,6-6,3.75,0,7.5,3.75,9.75,4.5-1.5-2.25-4.576-9.285-2.25-9.75,3.75-.75,6,10.5,6,10.5a3.742,3.742,0,0,1,2.25,3.75c0,2.25-1.5,2.25-3.75,2.25s-3,.75-3,.75"/><path class="cls-1" d="M19.875,13.518a.375.375,0,0,1,.375.375"/><path class="cls-1" d="M19.5,13.893a.375.375,0,0,1,.375-.375"/><path class="cls-1" d="M19.875,14.268a.375.375,0,0,1-.375-.375"/><path class="cls-1" d="M20.25,13.893a.375.375,0,0,1-.375.375"/><path class="cls-1" d="M2.5,8.212a2.25,2.25,0,1,1,2.733-1.9"/></svg>