<svg id="Regular" xmlns="http://www.w3.org/2000/svg" viewBox="0 0 24 24"><defs><style>.cls-1{fill:none;stroke:currentColor;stroke-linecap:round;stroke-linejoin:round;stroke-width:1.5px;}</style></defs><title>rabbit-side</title><path class="cls-1" d="M14.25,23.25c3.314,0,5.25-2.686,5.25-6a5.9,5.9,0,0,0-.229-1.553A4.484,4.484,0,0,0,23.25,11.25c0-3.75-2.25-4.5-7.5-7.5S8.25,0,7.5,1.5s.75,3,3.75,4.5l4.265,2.132A4.479,4.479,0,0,0,14.25,11.25c0,.026.007.05.008.076a5.915,5.915,0,0,0-.758-.076H6.75a6,6,0,0,0,0,12H10.5"/><path class="cls-1" d="M5.25,17.25c3,0,4.5,3,3,6"/><line class="cls-1" x1="14.25" y1="23.25" x2="18.75" y2="23.25"/><path class="cls-1" d="M19.875,10.5a.375.375,0,0,1,.375.375"/><path class="cls-1" d="M19.5,10.875a.375.375,0,0,1,.375-.375"/><path class="cls-1" d="M19.875,11.25a.375.375,0,0,1-.375-.375"/><path class="cls-1" d="M20.25,10.875a.375.375,0,0,1-.375.375"/></svg>