<svg id="Regular" xmlns="http://www.w3.org/2000/svg" viewBox="0 0 24 24"><defs><style>.cls-1{fill:none;stroke:currentColor;stroke-linecap:round;stroke-linejoin:round;stroke-width:1.5px;}</style></defs><title>rabbit-2</title><polyline class="cls-1" points="10.471 17.096 12.01 17.865 13.548 17.096"/><path class="cls-1" d="M9.51,13.26a.375.375,0,0,1,.375.375"/><path class="cls-1" d="M9.135,13.635a.375.375,0,0,1,.375-.375"/><path class="cls-1" d="M9.51,14.01a.375.375,0,0,1-.375-.375"/><path class="cls-1" d="M9.885,13.635a.375.375,0,0,1-.375.375"/><path class="cls-1" d="M14.9,13.26a.375.375,0,0,1,.375.375"/><path class="cls-1" d="M14.52,13.635a.374.374,0,0,1,.375-.375"/><path class="cls-1" d="M14.9,14.01a.374.374,0,0,1-.375-.375"/><path class="cls-1" d="M15.27,13.635a.375.375,0,0,1-.375.375"/><path class="cls-1" d="M12.01,7.865a7.9,7.9,0,0,0-2.91.554l-.025.011C8.786,4.466,7.2.75,2.816.75,1.33.75.76,1.225.76,1.959.76,3.808,3.623,7.2,5.344,8.853"/><path class="cls-1" d="M17.731,11.753a4.794,4.794,0,0,1,.24,1.5v1.556a3.835,3.835,0,0,1-2.307,6.906,3.687,3.687,0,0,1-3.654-3.847,3.687,3.687,0,0,1-3.654,3.847,3.835,3.835,0,0,1-2.308-6.906V13.25a4.765,4.765,0,0,1,.241-1.5"/><path class="cls-1" d="M14.922,21.639l-.027.073A2.872,2.872,0,0,1,12.01,23.25a2.872,2.872,0,0,1-2.885-1.538L9.1,21.639"/><path class="cls-1" d="M12.01,7.865a7.9,7.9,0,0,1,2.91.554l.025.011C15.234,4.466,16.819.75,21.2.75c1.486,0,2.056.475,2.056,1.209,0,1.849-2.863,5.244-4.585,6.894"/></svg>