<svg id="Regular" xmlns="http://www.w3.org/2000/svg" viewBox="0 0 24 24"><defs><style>.cls-1{fill:none;stroke:currentColor;stroke-linecap:round;stroke-linejoin:round;stroke-width:1.5px;}</style></defs><title>raccoon-1</title><path class="cls-1" d="M14.251,15.75S12,15,12.751,8.25c-5.25,0-9,0-9-3.75,3,0,3-3.75,8.25-3.75A11.25,11.25,0,1,1,.751,12C7.5,12,7.824,14.735,9,16.5a6.049,6.049,0,0,0,6.75,2.25A5.082,5.082,0,0,0,19.5,13.5"/><line class="cls-1" x1="9.001" y1="16.5" x2="5.76" y2="21.362"/><line class="cls-1" x1="12.182" y1="18.776" x2="11.073" y2="23.212"/><line class="cls-1" x1="15.524" y1="18.82" x2="16.664" y2="22.241"/><path class="cls-1" d="M10.126,3.75a.375.375,0,0,1,.375.375"/><path class="cls-1" d="M9.751,4.125a.375.375,0,0,1,.375-.375"/><path class="cls-1" d="M10.126,4.5a.375.375,0,0,1-.375-.375"/><path class="cls-1" d="M10.5,4.125a.375.375,0,0,1-.375.375"/><path class="cls-1" d="M14.251,4.5s2.479,2.48,4.836-1.238"/></svg>