<svg id="Regular" xmlns="http://www.w3.org/2000/svg" viewBox="0 0 24 24"><defs><style>.cls-1{fill:none;stroke:currentColor;stroke-linecap:round;stroke-linejoin:round;stroke-width:1.5px;}</style></defs><title>raccoon</title><path class="cls-1" d="M11.279,9.439A8.255,8.255,0,0,0,.751,17.37v5.88"/><path class="cls-1" d="M23.251,15.87a6,6,0,0,0-12,0h.587a3,3,0,0,1,2.544,1.41l1.6,1.635a1.5,1.5,0,0,0,2.544,0l1.6-1.635a3,3,0,0,1,2.544-1.41Z"/><path class="cls-1" d="M.751,20.37a4.323,4.323,0,0,0,4.5-4.5"/><path class="cls-1" d="M4.309,18.743l.192.127a11.541,11.541,0,0,0,6,1.5c3.75,0,5.478-1.455,5.478-1.455"/><line class="cls-1" x1="12.751" y1="20.179" x2="12.751" y2="23.25"/><path class="cls-1" d="M15.376,13.62a.375.375,0,0,1,.375.375"/><path class="cls-1" d="M15,14a.375.375,0,0,1,.375-.375"/><path class="cls-1" d="M15.376,14.37A.375.375,0,0,1,15,14"/><path class="cls-1" d="M15.751,14a.375.375,0,0,1-.375.375"/><path class="cls-1" d="M19.126,13.62A.375.375,0,0,1,19.5,14"/><path class="cls-1" d="M18.751,14a.375.375,0,0,1,.375-.375"/><path class="cls-1" d="M19.126,14.37A.375.375,0,0,1,18.751,14"/><path class="cls-1" d="M19.5,14a.375.375,0,0,1-.375.375"/><path class="cls-1" d="M18.706,10.048l.045-.178s.75-3,3-2.25c2.776.926.984,5.278.261,4.6"/><path class="cls-1" d="M15.8,10.048l-.044-.178s-.75-3-3-2.25c-2.777.926-.985,5.278-.262,4.6"/><path class="cls-1" d="M2.47,12.329,2.251,12a11.541,11.541,0,0,1-1.5-6A5.092,5.092,0,0,1,6,.75c2.25,0,4.5,0,4.5,2.25,0,3-3.75,2.25-5.25,3C2.832,7.209,4.5,9.75,4.5,9.75l.329.5"/><line class="cls-1" x1="0.771" y1="6.755" x2="3.973" y2="7.555"/><line class="cls-1" x1="2.236" y1="2.232" x2="5.251" y2="6"/><line class="cls-1" x1="6.751" y1="0.75" x2="7.545" y2="5.516"/></svg>