<svg id="Regular" xmlns="http://www.w3.org/2000/svg" viewBox="0 0 24 24"><defs><style>.cls-1{fill:none;stroke:currentColor;stroke-linecap:round;stroke-linejoin:round;stroke-width:1.5px;}</style></defs><title>radiology-scan-doctor</title><path class="cls-1" d="M20.25,5.25a4.927,4.927,0,0,0-3.75-1.5,4.927,4.927,0,0,0-3.75,1.5"/><path class="cls-1" d="M20.25,9A4.927,4.927,0,0,0,16.5,7.5,4.927,4.927,0,0,0,12.75,9"/><line class="cls-1" x1="16.5" y1="3.75" x2="16.5" y2="11.25"/><circle class="cls-1" cx="5.25" cy="3.75" r="3"/><line class="cls-1" x1="5.25" y1="8.25" x2="5.25" y2="14.25"/><path class="cls-1" d="M7.5,23.25l.75-7.5h1.5v-3a4.5,4.5,0,0,0-9,0v3h1.5L3,23.25Z"/><path class="cls-1" d="M11.25.75h10.5a1.5,1.5,0,0,1,1.5,1.5v10.5a1.5,1.5,0,0,1-1.5,1.5H13.5"/></svg>