<svg id="Regular" xmlns="http://www.w3.org/2000/svg" viewBox="0 0 24 24"><defs><style>.cls-1{fill:none;stroke:currentColor;stroke-linecap:round;stroke-linejoin:round;stroke-width:1.5px;}</style></defs><title>radiology-scan-mri</title><path class="cls-1" d="M23.25,23.25V3.75a1.5,1.5,0,0,0-1.5-1.5H17.616a11.263,11.263,0,0,0-11.232,0H2.25a1.5,1.5,0,0,0-1.5,1.5v19.5"/><path class="cls-1" d="M15.365,15.223a1.5,1.5,0,0,0-1.4-.973H10.039a1.5,1.5,0,0,0-1.4.973L6.75,20.25h10.5Z"/><path class="cls-1" d="M6.75,20.25v1.5a1.5,1.5,0,0,0,1.5,1.5h7.5a1.5,1.5,0,0,0,1.5-1.5v-1.5"/><path class="cls-1" d="M3.75,4.875a.375.375,0,0,1,.375.375"/><path class="cls-1" d="M3.375,5.25a.375.375,0,0,1,.375-.375"/><path class="cls-1" d="M3.75,5.625a.375.375,0,0,1-.375-.375"/><path class="cls-1" d="M4.125,5.25a.375.375,0,0,1-.375.375"/><path class="cls-1" d="M20.25,4.875a.375.375,0,0,1,.375.375"/><path class="cls-1" d="M19.875,5.25a.375.375,0,0,1,.375-.375"/><path class="cls-1" d="M20.25,5.625a.375.375,0,0,1-.375-.375"/><path class="cls-1" d="M20.625,5.25a.375.375,0,0,1-.375.375"/><path class="cls-1" d="M7.5,12a4.5,4.5,0,0,1,9,0"/><path class="cls-1" d="M18.875,15a7.5,7.5,0,1,0-13.75,0"/></svg>