<svg id="Regular" xmlns="http://www.w3.org/2000/svg" viewBox="0 0 24 24"><defs><style>.cls-1{fill:none;stroke:currentColor;stroke-linecap:round;stroke-linejoin:round;stroke-width:1.5px;}</style></defs><title>radiology-scan-hand</title><path class="cls-1" d="M16.5,14.25,14.827,13a1.569,1.569,0,0,0-2.247.385h0a1.569,1.569,0,0,0,0,1.74l1.645,2.467A4.5,4.5,0,0,0,16.3,19.269l2.452.981V22.5"/><path class="cls-1" d="M15.75,9c5.108,2.189,7.5,2.058,7.5,13.5"/><path class="cls-1" d="M12.126,7.5A5.18,5.18,0,0,0,8.25,6,5.18,5.18,0,0,0,4.374,7.5"/><path class="cls-1" d="M12.126,11.25A5.18,5.18,0,0,0,8.25,9.75a5.18,5.18,0,0,0-3.876,1.5"/><line class="cls-1" x1="8.25" y1="6" x2="8.25" y2="13.5"/><path class="cls-1" d="M12.75,21h-9a3,3,0,0,1-3-3V4.5a3,3,0,0,1,3-3h9a3,3,0,0,1,3,3v6"/></svg>