<svg id="Regular" xmlns="http://www.w3.org/2000/svg" viewBox="0 0 24 24"><defs><style>.cls-1{fill:none;stroke:currentColor;stroke-linecap:round;stroke-linejoin:round;stroke-width:1.5px;}</style></defs><title>radiology-scanner</title><line class="cls-1" x1="0.75" y1="21.5" x2="3.75" y2="21.5"/><line class="cls-1" x1="0.75" y1="17" x2="3.75" y2="17"/><circle class="cls-1" cx="6.75" cy="21.5" r="0.375"/><circle class="cls-1" cx="6.75" cy="17" r="0.375"/><line class="cls-1" x1="9.75" y1="17" x2="12.75" y2="17"/><line class="cls-1" x1="9.75" y1="20.75" x2="12.75" y2="20"/><line class="cls-1" x1="15.75" y1="20" x2="15.75" y2="16.25"/><line class="cls-1" x1="0.75" y1="8" x2="3.75" y2="8"/><line class="cls-1" x1="0.75" y1="12.5" x2="3.75" y2="12.5"/><circle class="cls-1" cx="6.75" cy="8" r="0.375"/><circle class="cls-1" cx="6.75" cy="12.5" r="0.375"/><line class="cls-1" x1="9.75" y1="12.5" x2="12.75" y2="12.5"/><line class="cls-1" x1="9.75" y1="8.75" x2="12.75" y2="9.5"/><line class="cls-1" x1="15.75" y1="9.5" x2="15.75" y2="13.25"/><line class="cls-1" x1="18.75" y1="16.25" x2="23.25" y2="16.25"/><line class="cls-1" x1="18.75" y1="19.25" x2="23.25" y2="18.5"/><line class="cls-1" x1="18.75" y1="13.25" x2="23.25" y2="13.25"/><line class="cls-1" x1="18.75" y1="10.25" x2="23.25" y2="11"/><circle class="cls-1" cx="18.75" cy="3.5" r="0.375"/><line class="cls-1" x1="21" y1="5" x2="23.25" y2="7.25"/><line class="cls-1" x1="15.75" y1="2" x2="12" y2="1.25"/></svg>