<svg id="Regular" xmlns="http://www.w3.org/2000/svg" viewBox="0 0 24 24"><defs><style>.cls-1{fill:none;stroke:currentColor;stroke-linecap:round;stroke-linejoin:round;stroke-width:1.5px;}</style></defs><title>radiology-scanning</title><path class="cls-1" d="M18,12.75V12A4.5,4.5,0,0,0,14.1,9.75H9.9A4.5,4.5,0,0,0,6,12v.75"/><circle class="cls-1" cx="12" cy="4.5" r="3.75"/><path class="cls-1" d="M1.5,23.25v-9a1.453,1.453,0,0,1,1.4-1.5H21.1a1.453,1.453,0,0,1,1.4,1.5v9"/><path class="cls-1" d="M6,23.25A7.64,7.64,0,0,1,11.684,21,10.229,10.229,0,0,1,18,23.25"/><path class="cls-1" d="M6,19.5a7.64,7.64,0,0,1,5.684-2.25A10.229,10.229,0,0,1,18,19.5"/><line class="cls-1" x1="12" y1="15.75" x2="12" y2="23.25"/></svg>