<svg xmlns="http://www.w3.org/2000/svg" viewBox="0 0 24 24"><defs><style>.a{fill:none;stroke:currentColor;stroke-linecap:round;stroke-linejoin:round;stroke-width:1.5px;}</style></defs><title>railroad-train</title><path class="a" d="M15.375,15.013a.375.375,0,0,1,.375.375"/><path class="a" d="M15,15.388a.375.375,0,0,1,.375-.375"/><path class="a" d="M15.375,15.763A.375.375,0,0,1,15,15.388"/><path class="a" d="M15.75,15.388a.375.375,0,0,1-.375.375"/><path class="a" d="M8.625,15.013A.375.375,0,0,1,9,15.388"/><path class="a" d="M8.25,15.388a.375.375,0,0,1,.375-.375"/><path class="a" d="M8.625,15.763a.375.375,0,0,1-.375-.375"/><path class="a" d="M9,15.388a.375.375,0,0,1-.375.375"/><path class="a" d="M7.25,5.263h9.5a2,2,0,0,1,2,2v10.5a1,1,0,0,1-1,1H6.25a1,1,0,0,1-1-1V7.263A2,2,0,0,1,7.25,5.263Z"/><line class="a" x1="0.75" y1="23.263" x2="3.75" y2="21.013"/><line class="a" x1="23.25" y1="23.263" x2="20.25" y2="21.013"/><line class="a" x1="18.75" y1="12.013" x2="5.25" y2="12.013"/><line class="a" x1="12" y1="5.263" x2="12" y2="0.763"/><line class="a" x1="9" y1="0.763" x2="15" y2="0.763"/></svg>