<svg xmlns="http://www.w3.org/2000/svg" viewBox="0 0 24 24"><defs><style>.a{fill:none;stroke:currentColor;stroke-linecap:round;stroke-linejoin:round;stroke-width:1.5px;}</style></defs><title>railroad-train-back</title><path class="a" d="M21,19.513H3a.75.75,0,0,1-.75-.75V3.862a1.5,1.5,0,0,1,.728-1.286l.884-.53A9,9,0,0,1,8.493.763h7.014a9,9,0,0,1,4.631,1.283l.884.53a1.5,1.5,0,0,1,.728,1.286v14.9A.75.75,0,0,1,21,19.513Z"/><rect class="a" x="3.75" y="19.513" width="3" height="3.75"/><rect class="a" x="17.25" y="19.513" width="3" height="3.75"/><line class="a" x1="0.75" y1="23.263" x2="23.25" y2="23.263"/><path class="a" d="M9.25,7.513h5.5a1,1,0,0,1,1,1v11a0,0,0,0,1,0,0H8.25a0,0,0,0,1,0,0v-11A1,1,0,0,1,9.25,7.513Z"/><line class="a" x1="9" y1="4.513" x2="15" y2="4.513"/><line class="a" x1="18.75" y1="8.263" x2="18.75" y2="11.263"/><line class="a" x1="18.75" y1="15.013" x2="18.75" y2="16.513"/><line class="a" x1="5.25" y1="8.263" x2="5.25" y2="11.263"/><line class="a" x1="5.25" y1="15.013" x2="5.25" y2="16.513"/><line class="a" x1="8.25" y1="12.763" x2="15.75" y2="12.763"/></svg>