<svg xmlns="http://www.w3.org/2000/svg" viewBox="0 0 24 24"><defs><style>.a{fill:none;stroke:currentColor;stroke-linecap:round;stroke-linejoin:round;stroke-width:1.5px;}</style></defs><title>railroad-wagon</title><path class="a" d="M2.159,19.875A1.409,1.409,0,0,1,.75,18.466V4.5a1,1,0,0,1,1-1H11v8H21.25a2,2,0,0,1,2,2v4.375a2,2,0,0,1-2,2h-.409"/><circle class="a" cx="4.5" cy="20.75" r="2.5"/><circle class="a" cx="11.5" cy="20.75" r="2.5"/><circle class="a" cx="18.5" cy="20.75" r="2.5"/><polyline class="a" points="20.5 11.5 20.5 6.5 16 6.5 16 11.5"/><line class="a" x1="11" y1="3.5" x2="12.5" y2="3.5"/><polyline class="a" points="11 7 4.5 7 4.5 11.5 11 11.5"/></svg>