<svg xmlns="http://www.w3.org/2000/svg" viewBox="0 0 24 24"><defs><style>.a{fill:none;stroke:currentColor;stroke-linecap:round;stroke-linejoin:round;stroke-width:1.5px;}</style></defs><title>railroad-fast-train</title><path class="a" d="M.75,17.263H20.12a3.129,3.129,0,0,0,2.123-5.429l-7.45-6.878a4.5,4.5,0,0,0-3.052-1.193H.75"/><path class="a" d="M2.25,17.263a3,3,0,0,0,6,0"/><path class="a" d="M8.25,17.263a3,3,0,0,0,6,0"/><path class="a" d="M21.625,11.263h-7.96a4.5,4.5,0,0,1-2.929-1.083L9.829,9.4a1.5,1.5,0,0,1,.976-2.639H16.75Z"/><path class="a" d="M21.625,11.263s-2.875,1.5-2.875,6"/><path class="a" d="M8.25,17.263a5.425,5.425,0,0,0-4.854-3H.75"/></svg>