<svg xmlns="http://www.w3.org/2000/svg" viewBox="0 0 24 24"><defs><style>.a{fill:none;stroke:currentColor;stroke-linecap:round;stroke-linejoin:round;stroke-width:1.5px;}</style></defs><title>railroad-metro</title><line class="a" x1="0.75" y1="23.263" x2="3.12" y2="20.534"/><line class="a" x1="23.25" y1="23.263" x2="20.88" y2="20.534"/><path class="a" d="M21.75,9.013c0,4.971-3.537,12.75-9.75,12.75S2.25,13.984,2.25,9.013,5.787.763,12,.763,21.75,4.042,21.75,9.013Z"/><path class="a" d="M12,21.763A7.978,7.978,0,0,0,17.944,18.9c-.4-2.2-2.908-3.886-5.944-3.886S6.455,16.7,6.056,18.9A7.978,7.978,0,0,0,12,21.763Z"/><path class="a" d="M15.75,5.263H8.25a2.25,2.25,0,0,0,0,4.5h7.5a2.25,2.25,0,0,0,0-4.5Z"/></svg>