<svg xmlns="http://www.w3.org/2000/svg" viewBox="0 0 24 24"><defs><style>.a{fill:none;stroke:currentColor;stroke-linecap:round;stroke-linejoin:round;stroke-width:1.5px;}</style></defs><title>railroad-cargo-train</title><circle class="a" cx="11.75" cy="12.013" r="6"/><circle class="a" cx="11.75" cy="12.013" r="2.25"/><polyline class="a" points="14.757 6.82 14 0.763 9.5 0.763 8.743 6.82"/><line class="a" x1="8.75" y1="0.763" x2="14.75" y2="0.763"/><path class="a" d="M3.5,6.013s1.6-2.131,5.694-2.8"/><polygon class="a" points="4.25 19.513 11.75 18.013 19.25 19.513 18.5 21.763 11.75 23.263 5 21.763 4.25 19.513"/><line class="a" x1="4.946" y1="4.774" x2="5.75" y2="12.013"/><path class="a" d="M20,6.013s-1.6-2.131-5.694-2.8"/><line class="a" x1="18.554" y1="4.774" x2="17.75" y2="12.013"/><path class="a" d="M5,19.513v-2.25a1.5,1.5,0,0,1,1.5-1.5h.566"/><path class="a" d="M18.5,19.513v-2.25a1.5,1.5,0,0,0-1.5-1.5h-.566"/></svg>