<svg xmlns="http://www.w3.org/2000/svg" viewBox="0 0 24 24"><defs><style>.a{fill:none;stroke:currentColor;stroke-linecap:round;stroke-linejoin:round;stroke-width:1.5px;}</style></defs><title>railroad-train-1</title><path class="a" d="M5.75.763h12.5a2,2,0,0,1,2,2v13.5a1,1,0,0,1-1,1H4.75a1,1,0,0,1-1-1V2.763A2,2,0,0,1,5.75.763Z"/><line class="a" x1="1.5" y1="23.263" x2="3.75" y2="20.263"/><line class="a" x1="22.5" y1="23.263" x2="20.25" y2="20.263"/><line class="a" x1="3.75" y1="9.763" x2="20.25" y2="9.763"/><line class="a" x1="12" y1="0.763" x2="12" y2="9.763"/><line class="a" x1="3.75" y1="12.763" x2="7.5" y2="12.763"/><line class="a" x1="20.25" y1="12.763" x2="16.5" y2="12.763"/><polyline class="a" points="8.25 17.263 9.75 14.263 14.25 14.263 15.75 17.263"/></svg>