<svg id="Regular" xmlns="http://www.w3.org/2000/svg" viewBox="0 0 24 24"><defs><style>.cls-1{fill:none;stroke:currentColor;stroke-linecap:round;stroke-linejoin:round;stroke-width:1.5px;}</style></defs><title>rain-coat-umbrella</title><path class="cls-1" d="M11.827,23.25H1.673a.964.964,0,0,1-.923-1V11.927A1,1,0,0,1,1.33,11L3,10.5l3.75,2.75L10.5,10.5l1.67.5a1,1,0,0,1,.58.928V22.25A.964.964,0,0,1,11.827,23.25Z"/><path class="cls-1" d="M3,10.5.75,7.75a7.9,7.9,0,0,1,6-2.5,7.9,7.9,0,0,1,6,2.5L10.5,10.5"/><path class="cls-1" d="M12.75,7.75s-1-7-6-7-6,7-6,7"/><line class="cls-1" x1="6.75" y1="13.25" x2="6.75" y2="23.25"/><path class="cls-1" d="M23.25,6.75,19.5,23.25,15.75,6.75c1.607,1.5,3.75,0,3.75,0S21.643,8.25,23.25,6.75Z"/><path class="cls-1" d="M19.5,6.75V2.625A1.874,1.874,0,0,1,21.375.75h0A1.874,1.874,0,0,1,23.25,2.625V3"/></svg>