<svg id="Regular" xmlns="http://www.w3.org/2000/svg" viewBox="0 0 24 24"><defs><style>.cls-1{fill:none;stroke:currentColor;stroke-linecap:round;stroke-linejoin:round;stroke-width:1.5px;}</style></defs><title>rain-umbrella-case</title><path class="cls-1" d="M5.309,15.75,3.139,7.316a1.978,1.978,0,0,0,3.432-.63A1.976,1.976,0,0,0,10,6.056L9.9,15.75"/><path class="cls-1" d="M6.571,6.686,5.815,2.569a1.405,1.405,0,1,1,2.745-.5"/><path class="cls-1" d="M13.143,15.75l.228-9.621a1.977,1.977,0,0,0,3.395.8,1.976,1.976,0,0,0,3.4.8l-2.3,8.019"/><path class="cls-1" d="M16.766,6.93l.961-4.074a1.405,1.405,0,1,1,2.716.641"/><polyline class="cls-1" points="4.712 23.25 3.139 15.75 19.823 15.75 18.25 23.25"/></svg>