<svg id="Regular" xmlns="http://www.w3.org/2000/svg" viewBox="0 0 24 24"><defs><style>.cls-1,.cls-2{fill:none;stroke:currentColor;stroke-linejoin:round;stroke-width:1.5px;}.cls-2{stroke-linecap:round;}</style></defs><title>rain-umbrella-1</title><path class="cls-1" d="M11.5,18.872c.591-2.363,4.72-2.363,5.311,0,.018-2.381,4.443-2.363,4.428,0C21.5,13.072,17.284,8.25,11.5,8.25s-10,4.822-9.739,10.622c-.015-2.363,4.41-2.381,4.428,0C6.78,16.509,10.909,16.509,11.5,18.872Z"/><line class="cls-2" x1="11.498" y1="8.25" x2="11.498" y2="6.75"/><line class="cls-2" x1="11.5" y1="23.25" x2="11.498" y2="18.872"/><line class="cls-2" x1="22" y1="0.75" x2="19.75" y2="3.75"/><line class="cls-2" x1="17.5" y1="0.75" x2="15.25" y2="3.75"/><line class="cls-2" x1="13" y1="0.75" x2="10.75" y2="3.75"/><line class="cls-2" x1="4" y1="0.75" x2="1.75" y2="3.75"/><line class="cls-2" x1="8.5" y1="0.75" x2="6.25" y2="3.75"/></svg>