<svg id="Regular" xmlns="http://www.w3.org/2000/svg" viewBox="0 0 24 24"><defs><style>.cls-1,.cls-2{fill:none;stroke:currentColor;stroke-linejoin:round;stroke-width:1.5px;}.cls-2{stroke-linecap:round;}</style></defs><title>rain-umbrella-sun</title><path class="cls-1" d="M8.25,17.185c.454-1.821,3.631-1.821,4.086,0,.014-1.835,3.417-1.821,3.4,0A7.575,7.575,0,0,0,8.25,9,7.575,7.575,0,0,0,.759,17.185c-.012-1.821,3.391-1.835,3.406,0C4.619,15.364,7.8,15.364,8.25,17.185Z"/><line class="cls-2" x1="8.25" y1="9.016" x2="8.25" y2="7.5"/><path class="cls-2" d="M12.562,6.55A4.05,4.05,0,1,1,17.3,11.47"/><line class="cls-2" x1="16.5" y1="3.45" x2="16.5" y2="0.75"/><line class="cls-2" x1="13.636" y1="4.636" x2="11.727" y2="2.727"/><line class="cls-2" x1="20.55" y1="7.5" x2="23.25" y2="7.5"/><line class="cls-2" x1="19.364" y1="4.636" x2="21.273" y2="2.727"/><line class="cls-2" x1="19.364" y1="10.364" x2="21.273" y2="12.273"/><path class="cls-2" d="M8.25,17.185V21.75a1.5,1.5,0,0,0,3,0"/></svg>