<svg id="Regular" xmlns="http://www.w3.org/2000/svg" viewBox="0 0 24 24"><defs><style>.cls-1,.cls-2{fill:none;stroke:currentColor;stroke-linejoin:round;stroke-width:1.5px;}.cls-1{stroke-linecap:round;}</style></defs><title>rain-umbrella-boots</title><path class="cls-1" d="M1.7,12a.948.948,0,0,0-.953.944v9.362a.948.948,0,0,0,.953.944H12.1c2.568-4.364-3.105-6.23-5.674-4.144l.486-6.087A.949.949,0,0,0,5.961,12Z"/><line class="cls-1" x1="6.692" y1="15.75" x2="3.75" y2="15.75"/><path class="cls-2" d="M16.5,9.75c.409-1.669,3.268-1.669,3.677,0,.013-1.682,3.076-1.669,3.065,0A6.892,6.892,0,0,0,16.5,2.25a6.892,6.892,0,0,0-6.742,7.5c-.011-1.669,3.052-1.682,3.065,0C13.232,8.081,16.091,8.081,16.5,9.75Z"/><line class="cls-1" x1="16.5" y1="2.25" x2="16.5" y2="0.75"/><path class="cls-1" d="M16.5,9.75V15a1.5,1.5,0,0,0,3,0"/></svg>