<svg id="Regular" xmlns="http://www.w3.org/2000/svg" viewBox="0 0 24 24"><defs><style>.cls-1{fill:none;stroke:currentColor;stroke-linecap:round;stroke-linejoin:round;stroke-width:1.5px;}</style></defs><title>rain-cloud-umbrella</title><path class="cls-1" d="M7.877,9.009A7.587,7.587,0,0,0,.759,17.185c-.012-1.821,3.391-1.835,3.406,0,.454-1.821,3.631-1.821,4.085,0,.454-1.821,3.631-1.821,4.086,0,.014-1.835,3.417-1.821,3.4,0A8.35,8.35,0,0,0,15.2,13.8"/><path class="cls-1" d="M8.25,17.185V21.75a1.5,1.5,0,0,0,3,0"/><line class="cls-1" x1="14.062" y1="11.25" x2="15.482" y2="8.917"/><line class="cls-1" x1="17.062" y1="11.25" x2="18.562" y2="8.958"/><path class="cls-1" d="M14.25,5.25a4.523,4.523,0,0,0,.035.562,4.523,4.523,0,0,1-.035-.562,4.411,4.411,0,0,1,.085-.842"/><path class="cls-1" d="M21.066,9.109a4.5,4.5,0,1,0-6.731-4.7,2.808,2.808,0,0,0-2.756,4.879"/></svg>