<svg id="Regular" xmlns="http://www.w3.org/2000/svg" viewBox="0 0 24 24"><defs><style>.cls-1{fill:none;stroke:currentColor;stroke-linecap:round;stroke-linejoin:round;stroke-width:1.5px;}</style></defs><title>rat-curve</title><path class="cls-1" d="M12.879,1.5a10.5,10.5,0,1,1-10.5,10.451"/><path class="cls-1" d="M3.879,12c-2.25.75-3.53-2.159-3-3.75.75-2.25,2.25-1.5,2.25-1.5A3.742,3.742,0,0,1,6.879,4.5a28.379,28.379,0,0,1,6,.75s.75,6-3.75,6A5.454,5.454,0,0,0,12.879,15"/><path class="cls-1" d="M14.688,19.416A8.454,8.454,0,0,1,17.379,15"/><path class="cls-1" d="M9.879,17.25a3.344,3.344,0,0,1,3-2.25,3.25,3.25,0,0,1,3,1.5l.054.107"/><path class="cls-1" d="M11.066,14.127l.313-.627a1.642,1.642,0,0,1,2.25-.75"/><path class="cls-1" d="M7.254,7.5a.375.375,0,0,1,.375.375"/><path class="cls-1" d="M6.879,7.875A.375.375,0,0,1,7.254,7.5"/><path class="cls-1" d="M7.254,8.25a.375.375,0,0,1-.375-.375"/><path class="cls-1" d="M7.629,7.875a.375.375,0,0,1-.375.375"/></svg>