<svg id="Regular" xmlns="http://www.w3.org/2000/svg" viewBox="0 0 24 24"><defs><style>.cls-1{fill:none;stroke:currentColor;stroke-linecap:round;stroke-linejoin:round;stroke-width:1.5px;}</style></defs><title>rat</title><path class="cls-1" d="M7.81,21.45a5.923,5.923,0,0,0,4.2,1.8"/><path class="cls-1" d="M19.066,16.172A18.965,18.965,0,0,0,19.51,12a6.019,6.019,0,0,0-.45-2.25,4.456,4.456,0,0,0,4.2-4.5,4.5,4.5,0,1,0-9,0v.3a11.579,11.579,0,0,0-2.25-.3,11.579,11.579,0,0,0-2.25.3v-.3A4.42,4.42,0,0,0,5.26.75a4.42,4.42,0,0,0-4.5,4.5,4.456,4.456,0,0,0,4.2,4.5A6.019,6.019,0,0,0,4.51,12a18.965,18.965,0,0,0,.444,4.172"/><path class="cls-1" d="M16.21,21.45a5.923,5.923,0,0,1-4.2,1.8"/><line class="cls-1" x1="11.26" y1="20.25" x2="12.76" y2="20.25"/><line class="cls-1" x1="18.01" y1="15.75" x2="21.76" y2="17.25"/><line class="cls-1" x1="17.26" y1="18" x2="19.51" y2="20.25"/><line class="cls-1" x1="6.01" y1="15.75" x2="2.26" y2="17.25"/><line class="cls-1" x1="6.76" y1="18" x2="4.51" y2="20.25"/><path class="cls-1" d="M8.185,11.7a.375.375,0,0,1,.375-.375"/><path class="cls-1" d="M8.56,12.075a.375.375,0,0,1-.375-.375"/><path class="cls-1" d="M8.935,11.7a.375.375,0,0,1-.375.375"/><path class="cls-1" d="M8.56,11.325a.375.375,0,0,1,.375.375"/><path class="cls-1" d="M14.935,11.7a.375.375,0,0,1,.375-.375"/><path class="cls-1" d="M15.31,12.075a.375.375,0,0,1-.375-.375"/><path class="cls-1" d="M15.685,11.7a.375.375,0,0,1-.375.375"/><path class="cls-1" d="M15.31,11.325a.375.375,0,0,1,.375.375"/></svg>