<svg xmlns="http://www.w3.org/2000/svg" viewBox="0 0 24 24"><defs><style>.a{fill:none;stroke:currentColor;stroke-linecap:round;stroke-linejoin:round;stroke-width:1.5px;}</style></defs><title>rating-five-star</title><path class="a" d="M5.779,12.7l1.248,2.457H9.153a.582.582,0,0,1,.419,1L7.62,18.074,8.7,20.558a.589.589,0,0,1-.839.736l-2.614-1.47-2.615,1.47a.589.589,0,0,1-.839-.736l1.082-2.484L.925,16.152a.582.582,0,0,1,.419-1H3.47L4.718,12.7A.6.6,0,0,1,5.779,12.7Z"/><path class="a" d="M12.529,2.949l1.248,2.457H15.9a.582.582,0,0,1,.419,1L14.37,8.324l1.082,2.484a.589.589,0,0,1-.839.736L12,10.074l-2.615,1.47a.589.589,0,0,1-.839-.736L9.627,8.324,7.675,6.4a.582.582,0,0,1,.419-1H10.22l1.248-2.457A.6.6,0,0,1,12.529,2.949Z"/><path class="a" d="M18.221,12.7l-1.248,2.457H14.847a.582.582,0,0,0-.419,1l1.952,1.922L15.3,20.558a.589.589,0,0,0,.839.736l2.614-1.47,2.615,1.47a.589.589,0,0,0,.839-.736l-1.082-2.484,1.952-1.922a.582.582,0,0,0-.419-1H20.53L19.282,12.7A.6.6,0,0,0,18.221,12.7Z"/></svg>