<svg xmlns="http://www.w3.org/2000/svg" viewBox="0 0 24 24"><defs><style>.a{fill:none;stroke:currentColor;stroke-linecap:round;stroke-linejoin:round;stroke-width:1.5px;}</style></defs><title>rating-five-star-hotel</title><line class="a" x1="12" y1="0.749" x2="12" y2="2.999"/><polyline class="a" points="10.5 5.249 12 2.999 13.5 5.249"/><polyline class="a" points="9.75 2.249 12 2.999 14.25 2.249"/><line class="a" x1="5.25" y1="3.749" x2="5.25" y2="5.999"/><polyline class="a" points="3.75 8.249 5.25 5.999 6.75 8.249"/><polyline class="a" points="3 5.249 5.25 5.999 7.5 5.249"/><line class="a" x1="18.75" y1="3.749" x2="18.75" y2="5.999"/><polyline class="a" points="17.25 8.249 18.75 5.999 20.25 8.249"/><polyline class="a" points="16.5 5.249 18.75 5.999 21 5.249"/><line class="a" x1="3" y1="11.249" x2="3" y2="13.499"/><polyline class="a" points="1.5 15.749 3 13.499 4.5 15.749"/><polyline class="a" points="0.75 12.749 3 13.499 5.25 12.749"/><line class="a" x1="21" y1="11.249" x2="21" y2="13.499"/><polyline class="a" points="19.5 15.749 21 13.499 22.5 15.749"/><polyline class="a" points="18.75 12.749 21 13.499 23.25 12.749"/><polygon class="a" points="15.75 18.749 15.75 12.749 12 8.999 8.25 12.749 8.25 18.749 5.25 18.749 5.25 23.249 18.75 23.249 18.75 18.749 15.75 18.749"/><line class="a" x1="12" y1="23.249" x2="12" y2="20.999"/><line class="a" x1="8.25" y1="14.249" x2="15.75" y2="14.249"/></svg>