<svg xmlns="http://www.w3.org/2000/svg" viewBox="0 0 24 24"><defs><style>.a{fill:none;stroke:currentColor;stroke-linecap:round;stroke-linejoin:round;stroke-width:1.5px;}</style></defs><title>rating-booklet</title><path class="a" d="M17.25,5.249v-3A1.5,1.5,0,0,0,15.349.8L4.849,3.72a1.6,1.6,0,0,0-1.1,1.529"/><path class="a" d="M3.75,21.749a1.5,1.5,0,0,0,1.5,1.5h13.5a1.5,1.5,0,0,0,1.5-1.5V6.743a1.5,1.5,0,0,0-1.5-1.5l-15,.006Z"/><path class="a" d="M12.531,8.572l1.248,2.457h2.127a.583.583,0,0,1,.419,1l-1.953,1.922,1.082,2.485a.589.589,0,0,1-.839.736L12,15.7l-2.615,1.47a.589.589,0,0,1-.839-.736l1.082-2.485L7.675,12.026a.583.583,0,0,1,.419-1h2.127L11.47,8.572A.6.6,0,0,1,12.531,8.572Z"/><line class="a" x1="8.25" y1="20.249" x2="15.75" y2="20.249"/></svg>