<svg xmlns="http://www.w3.org/2000/svg" viewBox="0 0 24 24"><defs><style>.a{fill:none;stroke:currentColor;stroke-linecap:round;stroke-linejoin:round;stroke-width:1.5px;}</style></defs><title>rating-hotel</title><line class="a" x1="0.75" y1="10.5" x2="0.75" y2="23.25"/><line class="a" x1="23.25" y1="14.25" x2="23.25" y2="23.25"/><line class="a" x1="23.25" y1="19.5" x2="0.75" y2="19.5"/><circle class="a" cx="6" cy="14.25" r="2.25"/><path class="a" d="M11.25,16.5V12.961a.75.75,0,0,1,.932-.728L18.067,13.7a2.883,2.883,0,0,1,2.183,2.8Z"/><path class="a" d="M19.28,1.073l1.249,2.458h2.127a.582.582,0,0,1,.419,1L21.122,6.449,22.2,8.934a.589.589,0,0,1-.839.736L18.75,8.2,16.135,9.67a.589.589,0,0,1-.839-.736l1.082-2.485L14.425,4.527a.582.582,0,0,1,.419-1h2.127l1.248-2.458A.6.6,0,0,1,19.28,1.073Z"/><line class="a" x1="0.75" y1="2.25" x2="7.5" y2="2.25"/><path class="a" d="M11.25,2.25a.375.375,0,1,1-.375-.375.375.375,0,0,1,.375.375"/><line class="a" x1="0.75" y1="6.75" x2="7.5" y2="6.75"/><path class="a" d="M11.25,6.75a.375.375,0,1,1-.375-.375.375.375,0,0,1,.375.375"/></svg>