<svg id="Regular" xmlns="http://www.w3.org/2000/svg" viewBox="0 0 24 24"><defs><style>.cls-1{fill:none;stroke:currentColor;stroke-linecap:round;stroke-linejoin:round;stroke-width:1.5px;}</style></defs><title>ray-1</title><path class="cls-1" d="M17.925,16.868s2.652-3.713,1.591-5.834c-.99-1.981-1.056-3.037.236-7.056A.75.75,0,0,0,19.062,3,14.766,14.766,0,0,0,4.056,18a.751.751,0,0,0,.98.69c4.018-1.291,5.074-1.226,7.056-.235C14.213,19.519,17.925,16.868,17.925,16.868Z"/><line class="cls-1" x1="7.319" y1="13.686" x2="8.379" y2="11.564"/><line class="cls-1" x1="9.44" y1="14.746" x2="10.501" y2="12.625"/><line class="cls-1" x1="14.743" y1="6.261" x2="12.622" y2="7.322"/><line class="cls-1" x1="15.804" y1="8.382" x2="13.683" y2="9.443"/><path class="cls-1" d="M6.953,8.962A3.591,3.591,0,0,1,4.667,6.791"/><path class="cls-1" d="M10.02,5.9A3.591,3.591,0,0,0,7.849,3.609"/></svg>