<svg id="Regular" xmlns="http://www.w3.org/2000/svg" viewBox="0 0 24 24"><defs><style>.cls-1{fill:none;stroke:currentColor;stroke-linecap:round;stroke-linejoin:round;stroke-width:1.5px;}</style></defs><title>ray</title><path class="cls-1" d="M18.849,14.7c2.929-2.929,3.167-7.441.531-10.077s-7.148-2.4-10.077.531l1.591,1.591L8.773,10.984l4.243,4.243,4.242-2.121Z"/><line class="cls-1" x1="14.076" y1="9.924" x2="1" y2="23"/><line class="cls-1" x1="8.773" y1="10.984" x2="6.652" y2="10.984"/><line class="cls-1" x1="9.985" y1="8.56" x2="7.712" y2="7.802"/><line class="cls-1" x1="13.016" y1="15.227" x2="13.016" y2="17.348"/><line class="cls-1" x1="15.44" y1="14.015" x2="16.198" y2="16.288"/><path class="cls-1" d="M14.872,5.416a.375.375,0,0,1,0,.53"/><path class="cls-1" d="M14.341,5.416a.375.375,0,0,1,.531,0"/><path class="cls-1" d="M14.341,5.946a.375.375,0,0,1,0-.53"/><path class="cls-1" d="M14.872,5.946a.375.375,0,0,1-.531,0"/><path class="cls-1" d="M18.584,9.128a.375.375,0,0,1,0,.531"/><path class="cls-1" d="M18.054,9.128a.375.375,0,0,1,.53,0"/><path class="cls-1" d="M18.054,9.659a.375.375,0,0,1,0-.531"/><path class="cls-1" d="M18.584,9.659a.375.375,0,0,1-.53,0"/></svg>