<svg xmlns="http://www.w3.org/2000/svg" viewBox="0 0 24 24"><defs><style>.a{fill:none;stroke:currentColor;stroke-linecap:round;stroke-linejoin:round;stroke-width:1.5px;}</style></defs><title>read-maths</title><path class="a" d="M12,23.251c-.507-1.667-3.918-3.617-9.843-3.886A1.5,1.5,0,0,1,.75,17.858V4.507a1.482,1.482,0,0,1,.83-1.344"/><path class="a" d="M12,23.251c.507-1.667,3.918-3.617,9.843-3.886a1.5,1.5,0,0,0,1.407-1.507V4.507a1.482,1.482,0,0,0-.83-1.344"/><line class="a" x1="12" y1="14.251" x2="12" y2="23.251"/><line class="a" x1="17.25" y1="1.501" x2="17.25" y2="6.001"/><line class="a" x1="15" y1="3.751" x2="19.5" y2="3.751"/><line class="a" x1="7.5" y1="7.501" x2="12.75" y2="7.501"/><path class="a" d="M10.125,4.5a.375.375,0,0,1,.375.375"/><path class="a" d="M9.75,4.876a.375.375,0,0,1,.375-.375"/><path class="a" d="M10.125,5.251a.374.374,0,0,1-.375-.375"/><path class="a" d="M10.5,4.876a.374.374,0,0,1-.375.375"/><path class="a" d="M10.125,9.751a.375.375,0,0,1,.375.375"/><path class="a" d="M9.75,10.126a.375.375,0,0,1,.375-.375"/><path class="a" d="M10.125,10.5a.374.374,0,0,1-.375-.375"/><path class="a" d="M10.5,10.126a.374.374,0,0,1-.375.375"/><polyline class="a" points="4.5 3.001 5.25 3.751 6 0.751 10.5 0.751"/></svg>