<svg xmlns="http://www.w3.org/2000/svg" viewBox="0 0 24 24"><defs><style>.a{fill:none;stroke:currentColor;stroke-linecap:round;stroke-linejoin:round;stroke-width:1.5px;}</style></defs><title>read-glasses-1</title><path class="a" d="M12,23.251l-8.778-3.34a1.405,1.405,0,0,1-.972-1.337V11.251A1.406,1.406,0,0,1,4.091,9.914L12,12.972Z"/><path class="a" d="M20.778,19.911,12,23.251V12.972l7.909-3.058a1.406,1.406,0,0,1,1.841,1.337v7.323A1.405,1.405,0,0,1,20.778,19.911Z"/><circle class="a" cx="6.75" cy="4.501" r="3.75"/><circle class="a" cx="17.25" cy="4.501" r="3.75"/><path class="a" d="M10.5,4.572a1.5,1.5,0,1,1,3,0"/><line class="a" x1="23.25" y1="4.501" x2="21" y2="4.501"/><line class="a" x1="3" y1="4.501" x2="0.75" y2="4.501"/><line class="a" x1="15.75" y1="15.751" x2="18" y2="15.001"/></svg>