<svg xmlns="http://www.w3.org/2000/svg" viewBox="0 0 24 24"><defs><style>.a{fill:none;stroke:currentColor;stroke-linecap:round;stroke-linejoin:round;stroke-width:1.5px;}</style></defs><title>read-search</title><path class="a" d="M21.75,9.752V2.259A1.5,1.5,0,0,0,20.037.768a15.934,15.934,0,0,0-7.851,3.574,1.525,1.525,0,0,1-1.872,0A15.93,15.93,0,0,0,2.463.768,1.5,1.5,0,0,0,.75,2.259v13.6a1.492,1.492,0,0,0,1.3,1.481,14.64,14.64,0,0,1,5.44,1.741"/><line class="a" x1="11.25" y1="4.663" x2="11.25" y2="7.501"/><path class="a" d="M8.254,7.23A14.875,14.875,0,0,0,4.542,5.548"/><path class="a" d="M8.254,10.975A10.342,10.342,0,0,0,3.738,9.084"/><path class="a" d="M14.246,7.23a14.875,14.875,0,0,1,3.712-1.682"/><circle class="a" cx="15.75" cy="15.751" r="6"/><line class="a" x1="23.25" y1="23.251" x2="19.993" y2="19.994"/><line class="a" x1="15.75" y1="17.251" x2="15.75" y2="14.251"/><line class="a" x1="14.25" y1="14.251" x2="17.25" y2="14.251"/></svg>