<svg xmlns="http://www.w3.org/2000/svg" viewBox="0 0 24 24"><defs><style>.a{fill:none;stroke:currentColor;stroke-linecap:round;stroke-linejoin:round;stroke-width:1.5px;}</style></defs><title>read-art</title><path class="a" d="M13.957,5.043A6.16,6.16,0,0,0,11.405,4.5C8.42,4.5,6,6.55,6,9.077A4.633,4.633,0,0,0,9.3,13.29c.767.274,1.4.051,1.845-.966a1.6,1.6,0,0,1,1.584-1.018"/><line class="a" x1="16.476" y1="9.918" x2="13.657" y2="15.647"/><path class="a" d="M15.872,8.076a1.383,1.383,0,0,0,.6,1.842A1.342,1.342,0,0,0,18.289,9.3a2.959,2.959,0,0,0-.6-3.888C17.886,7.053,16.678,6.439,15.872,8.076Z"/><path class="a" d="M9.375,8.909a.378.378,0,0,1,.375.381"/><path class="a" d="M9,9.29a.378.378,0,0,1,.375-.381"/><path class="a" d="M9.375,9.671A.378.378,0,0,1,9,9.29"/><path class="a" d="M9.75,9.29a.378.378,0,0,1-.375.381"/><path class="a" d="M11.625,6.659A.378.378,0,0,1,12,7.04"/><path class="a" d="M11.25,7.04a.378.378,0,0,1,.375-.381"/><path class="a" d="M11.625,7.421a.378.378,0,0,1-.375-.381"/><path class="a" d="M12,7.04a.378.378,0,0,1-.375.381"/><path class="a" d="M21,23.251H5.25A2.25,2.25,0,0,1,3,21H3a2.25,2.25,0,0,1,2.25-2.25H19.5a1.5,1.5,0,0,0,1.5-1.5v-15a1.5,1.5,0,0,0-1.5-1.5H4.957A1.957,1.957,0,0,0,3,2.708V21.3"/><line class="a" x1="19.5" y1="18.751" x2="19.5" y2="23.251"/></svg>