<svg xmlns="http://www.w3.org/2000/svg" viewBox="0 0 24 24"><defs><style>.a{fill:none;stroke:currentColor;stroke-linecap:round;stroke-linejoin:round;stroke-width:1.5px;}</style></defs><title>read-light-idea</title><path class="a" d="M12,23.251c-.528-1.663-3.943-3.6-9.843-3.866A1.5,1.5,0,0,1,.75,17.878V4.527a1.5,1.5,0,0,1,1.607-1.5c3.865.2,6.608,1.125,8.157,2.205"/><path class="a" d="M12,23.251c.528-1.663,3.943-3.6,9.843-3.866a1.5,1.5,0,0,0,1.407-1.507V9"/><path class="a" d="M9.342,8.773a24.438,24.438,0,0,0-5.574-1.3"/><path class="a" d="M9.342,12.588a25.017,25.017,0,0,0-5.574-1.3"/><path class="a" d="M9.342,16.632a25.247,25.247,0,0,0-5.625-1.3"/><line class="a" x1="12" y1="10.501" x2="12" y2="23.251"/><line class="a" x1="17.25" y1="0.751" x2="17.25" y2="2.251"/><line class="a" x1="12.439" y1="3.221" x2="13.5" y2="4.282"/><line class="a" x1="22.061" y1="3.221" x2="21" y2="4.282"/><line class="a" x1="17.25" y1="12.751" x2="17.25" y2="14.251"/><path class="a" d="M20.25,8.251a3,3,0,1,0-4.5,2.584v1.916h3V10.835A2.986,2.986,0,0,0,20.25,8.251Z"/></svg>