<svg xmlns="http://www.w3.org/2000/svg" viewBox="0 0 24 24"><defs><style>.a{fill:none;stroke:currentColor;stroke-linecap:round;stroke-linejoin:round;stroke-width:1.5px;}</style></defs><title>read-human</title><path class="a" d="M5,19.251v1a.905.905,0,0,0,.589.887L12.5,23.251V14.418L6.027,12.045A.817.817,0,0,0,5,12.919v1.844"/><path class="a" d="M20.013,19.1v1.157a.9.9,0,0,1-.588.887L12.5,23.251V14.418l6.486-2.373a.817.817,0,0,1,1.027.874v1.988"/><path class="a" d="M6.487,18.358c0,.5-.563.9-1.251.893-1.378-.006-2.491-.816-2.486-1.81l0-.9c0-.993,1.125-1.793,2.5-1.787.689,0,1.245.408,1.243.9Z"/><path class="a" d="M17.757,18.358c0,.5.563.9,1.253.893,1.38-.006,2.495-.816,2.49-1.81l0-.9c0-.993-1.127-1.793-2.507-1.787-.689,0-1.247.408-1.244.9Z"/><circle class="a" cx="12.512" cy="4.876" r="4.125"/></svg>