<svg xmlns="http://www.w3.org/2000/svg" viewBox="0 0 24 24"><defs><style>.a{fill:none;stroke:currentColor;stroke-linecap:round;stroke-linejoin:round;stroke-width:1.5px;}</style></defs><title>read-home-2</title><path class="a" d="M21,23.251H5.25A2.25,2.25,0,0,1,3,21H3a2.25,2.25,0,0,1,2.25-2.25H19.5a1.5,1.5,0,0,0,1.5-1.5v-15a1.5,1.5,0,0,0-1.5-1.5H4.957A1.957,1.957,0,0,0,3,2.708V21"/><line class="a" x1="19.5" y1="18.751" x2="19.5" y2="23.251"/><polyline class="a" points="15 8.751 15 14.251 9 14.251 9 8.751"/><polyline class="a" points="7.5 9.751 12 6.751 16.5 9.751"/></svg>