<svg xmlns="http://www.w3.org/2000/svg" viewBox="0 0 24 24"><defs><style>.a{fill:none;stroke:currentColor;stroke-linecap:round;stroke-linejoin:round;stroke-width:1.5px;}</style></defs><title>read-home</title><path class="a" d="M12,23.251s2.043-2.533,7.768-2.669a.491.491,0,0,0,.482-.489V10.241a.492.492,0,0,0-.507-.489c-5.7.142-7.743,3-7.743,3s-2.038-2.857-7.743-3a.493.493,0,0,0-.507.489v9.852a.491.491,0,0,0,.482.489C9.957,20.718,12,23.251,12,23.251Z"/><line class="a" x1="12" y1="12.751" x2="12" y2="23.251"/><polyline class="a" points="0.75 7.599 12 0.751 23.25 7.501"/><polyline class="a" points="18.75 0.751 21 0.751 21 3.001"/></svg>