<svg xmlns="http://www.w3.org/2000/svg" viewBox="0 0 24 24"><defs><style>.a{fill:none;stroke:currentColor;stroke-linecap:round;stroke-linejoin:round;stroke-width:1.5px;}</style></defs><title>read-world</title><rect class="a" x="12.75" y="11.251" width="10.5" height="12" rx="0.75" ry="0.75"/><line class="a" x1="18" y1="14.251" x2="20.25" y2="14.251"/><line class="a" x1="15.75" y1="17.251" x2="20.25" y2="17.251"/><line class="a" x1="15.75" y1="20.251" x2="20.25" y2="20.251"/><path class="a" d="M9.754,20.223A9.75,9.75,0,1,1,19.99,8.255"/><path class="a" d="M6.75,19.5V15s1.009-.46,1.27-1.048a1.3,1.3,0,0,0-.04-1.139L6.721,10.448A1.3,1.3,0,0,0,5.259,9.8l-4.5,1.122"/><path class="a" d="M5.25,2.284V6.236A1.3,1.3,0,0,0,6.235,7.5l1.9.65A1.3,1.3,0,0,0,9.75,6.886V5.518l4.164-.686A1.3,1.3,0,0,0,15,3.55V1.85"/></svg>