<svg xmlns="http://www.w3.org/2000/svg" viewBox="0 0 24 24"><defs><style>.a{fill:none;stroke:currentColor;stroke-linecap:round;stroke-linejoin:round;stroke-width:1.5px;}</style></defs><title>read-music</title><circle class="a" cx="10.125" cy="13.126" r="1.875"/><path class="a" d="M12,13.126V5.661a.476.476,0,0,1,.75-.327l3,1.963"/><path class="a" d="M21,23.251H5.25A2.25,2.25,0,0,1,3,21H3a2.25,2.25,0,0,1,2.25-2.25H19.5a1.5,1.5,0,0,0,1.5-1.5v-15a1.5,1.5,0,0,0-1.5-1.5H4.957A1.957,1.957,0,0,0,3,2.708V21.3"/><line class="a" x1="19.5" y1="18.751" x2="19.5" y2="23.251"/></svg>