<svg id="Regular" xmlns="http://www.w3.org/2000/svg" viewBox="0 0 24 24"><defs><style>.cls-1{fill:none;stroke:currentColor;stroke-linecap:round;stroke-linejoin:round;stroke-width:1.5px;}</style></defs><title>real-estate-action-house-settings</title><path class="cls-1" d="M8.25,19.535h-3a1.5,1.5,0,0,1-1.5-1.5v-7.5"/><path class="cls-1" d="M.75,9.035l8.781-7.43a1.5,1.5,0,0,1,1.938,0L17.249,6.5"/><polyline class="cls-1" points="15.75 1.535 18.75 1.535 18.75 4.535"/><circle class="cls-1" cx="17.25" cy="15.785" r="1.5"/><path class="cls-1" d="M18.524,9.982l.442,1.453a.994.994,0,0,0,1.174.681l1.472-.341a1.339,1.339,0,0,1,1.275,2.218L21.856,15.1a1,1,0,0,0,0,1.362l1.031,1.111A1.339,1.339,0,0,1,21.612,19.8l-1.472-.341a.994.994,0,0,0-1.174.681l-.442,1.453a1.33,1.33,0,0,1-2.548,0l-.442-1.453a.994.994,0,0,0-1.174-.681l-1.472.341a1.339,1.339,0,0,1-1.275-2.218l1.031-1.111a1,1,0,0,0,0-1.362l-1.031-1.111a1.339,1.339,0,0,1,1.275-2.218l1.472.341a.994.994,0,0,0,1.174-.681l.442-1.453A1.33,1.33,0,0,1,18.524,9.982Z"/></svg>