<svg id="Regular" xmlns="http://www.w3.org/2000/svg" viewBox="0 0 24 24"><defs><style>.cls-1{fill:none;stroke:currentColor;stroke-linecap:round;stroke-linejoin:round;stroke-width:1.5px;}</style></defs><title>real-estate-action-house-wrench</title><path class="cls-1" d="M20.25,10.75v10.5a1.5,1.5,0,0,1-1.5,1.5H5.25a1.5,1.5,0,0,1-1.5-1.5V10.75"/><path class="cls-1" d="M.75,9.25l10.363-7.6a1.5,1.5,0,0,1,1.774,0L23.25,9.25"/><polyline class="cls-1" points="18.75 1.75 21.75 1.75 21.75 4.75"/><path class="cls-1" d="M13.5,19.75V17.224a4.438,4.438,0,0,0,2.444-6.35s-2.048,2.092-2.265,2.37a1.373,1.373,0,0,1-2.054.13h0a1.373,1.373,0,0,1,.13-2.053c.278-.218,2.37-2.265,2.37-2.265a4.36,4.36,0,0,0-3.793-.228,4.479,4.479,0,0,0,.168,8.4V19.75"/></svg>