<svg id="Regular" xmlns="http://www.w3.org/2000/svg" viewBox="0 0 24 24"><defs><style>.cls-1{fill:none;stroke:currentColor;stroke-linecap:round;stroke-linejoin:round;stroke-width:1.5px;}</style></defs><title>real-estate-sign-board-sold</title><line class="cls-1" x1="1.5" y1="8.5" x2="22.5" y2="8.5"/><line class="cls-1" x1="1.5" y1="20.5" x2="22.5" y2="20.5"/><path class="cls-1" d="M7.5,8.5l3.9-5.2a.75.75,0,0,1,1.2,0l3.9,5.2"/><path class="cls-1" d="M9,11.5A1.5,1.5,0,0,0,7.5,13v3a1.5,1.5,0,0,0,3,0V13A1.5,1.5,0,0,0,9,11.5Z"/><path class="cls-1" d="M13.5,11.5V16A1.5,1.5,0,0,0,15,17.5h1.5"/><path class="cls-1" d="M4.5,11.5H3a1.375,1.375,0,0,0-1.5,1.2c0,1.8,3,1.8,3,3.6A1.375,1.375,0,0,1,3,17.5H1.5"/><path class="cls-1" d="M19.5,17.5a2.75,2.75,0,0,0,3-2.4V13.9a2.751,2.751,0,0,0-3-2.4Z"/></svg>