<svg id="Regular" xmlns="http://www.w3.org/2000/svg" viewBox="0 0 24 24"><defs><style>.cls-1{fill:none;stroke:currentColor;stroke-linecap:round;stroke-linejoin:round;stroke-width:1.5px;}</style></defs><title>real-estate-dimensions-plan</title><path class="cls-1" d="M10.25,15H16a.5.5,0,0,1,.5.5v7.75a0,0,0,0,1,0,0H9.75a0,0,0,0,1,0,0V15.5A.5.5,0,0,1,10.25,15Z"/><path class="cls-1" d="M16.5,23.25h5.25v-12A.75.75,0,0,0,21,10.5H14.25a.75.75,0,0,0-.75.75V15"/><line class="cls-1" x1="9.75" y1="23.25" x2="8.25" y2="23.25"/><line class="cls-1" x1="23.25" y1="23.25" x2="21.75" y2="23.25"/><line class="cls-1" x1="13.5" y1="18" x2="16.5" y2="18"/><line class="cls-1" x1="19.5" y1="15" x2="21.75" y2="15"/><line class="cls-1" x1="19.5" y1="18" x2="21.75" y2="18"/><line class="cls-1" x1="19.5" y1="10.5" x2="19.5" y2="8.25"/><path class="cls-1" d="M23.25,1.5A.75.75,0,0,0,22.5.75H1.5a.75.75,0,0,0-.75.75v21a.75.75,0,0,0,.75.75h3a.75.75,0,0,0,.75-.75V5.25H22.5a.75.75,0,0,0,.75-.75Z"/><line class="cls-1" x1="3.75" y1="11.25" x2="5.25" y2="11.25"/><line class="cls-1" x1="3.75" y1="17.25" x2="5.25" y2="17.25"/><line class="cls-1" x1="11.25" y1="5.25" x2="11.25" y2="3.75"/><line class="cls-1" x1="17.25" y1="5.25" x2="17.25" y2="3.75"/><polyline class="cls-1" points="0.75 5.25 5.25 5.25 5.25 0.75"/></svg>