<svg id="Regular" xmlns="http://www.w3.org/2000/svg" viewBox="0 0 24 24"><defs><style>.cls-1{fill:none;stroke:currentColor;stroke-linecap:round;stroke-linejoin:round;stroke-width:1.5px;}</style></defs><title>real-estate-settings-house</title><path class="cls-1" d="M10.546,2.438a1.959,1.959,0,0,0,2.908,0l.94-1.042a1.959,1.959,0,0,1,3.411,1.413l-.072,1.4A1.961,1.961,0,0,0,19.79,6.267l1.4-.072A1.959,1.959,0,0,1,22.6,9.606l-1.042.94a1.959,1.959,0,0,0,0,2.908l1.042.94a1.959,1.959,0,0,1-1.413,3.411l-1.4-.072a1.96,1.96,0,0,0-2.057,2.057l.072,1.4A1.959,1.959,0,0,1,14.394,22.6l-.94-1.042a1.959,1.959,0,0,0-2.908,0L9.606,22.6A1.959,1.959,0,0,1,6.2,21.191l.072-1.4A1.958,1.958,0,0,0,4.21,17.733l-1.4.072A1.959,1.959,0,0,1,1.4,14.394l1.042-.94a1.959,1.959,0,0,0,0-2.908L1.4,9.606A1.959,1.959,0,0,1,2.809,6.2l1.4.072A1.96,1.96,0,0,0,6.267,4.21L6.2,2.809A1.959,1.959,0,0,1,9.606,1.4Z"/><path class="cls-1" d="M15,10v5a.75.75,0,0,1-.75.75H9.75A.75.75,0,0,1,9,15V10"/><polyline class="cls-1" points="7.5 11.25 12 7.5 16.5 11.25"/></svg>