<svg id="Regular" xmlns="http://www.w3.org/2000/svg" viewBox="0 0 24 24"><defs><style>.cls-1{fill:none;stroke:currentColor;stroke-linecap:round;stroke-linejoin:round;stroke-width:1.5px;}</style></defs><title>real-estate-message-house-buy</title><polyline class="cls-1" points="12.75 17.365 12.75 23.25 0.75 23.25 0.75 15.75 6.75 11.25 7.5 12.014"/><path class="cls-1" d="M16.25.75a6.989,6.989,0,0,0-5.944,10.683L8.25,15.75l4.317-2.056A7,7,0,1,0,16.25.75Z"/><path class="cls-1" d="M17.625,4.5H15.592a1.342,1.342,0,0,0-.5,2.587l2.064.826a1.342,1.342,0,0,1-.5,2.587H14.625"/><line class="cls-1" x1="16.125" y1="4.5" x2="16.125" y2="3.75"/><line class="cls-1" x1="16.125" y1="11.25" x2="16.125" y2="10.5"/></svg>