<svg id="Regular" xmlns="http://www.w3.org/2000/svg" viewBox="0 0 24 24"><defs><style>.cls-1{fill:none;stroke:currentColor;stroke-linecap:round;stroke-linejoin:round;stroke-width:1.5px;}</style></defs><title>real-estate-settings-building-2</title><path class="cls-1" d="M21.562,10.546a1.959,1.959,0,0,0,0,2.908l1.042.94a1.959,1.959,0,0,1-1.413,3.411l-1.4-.072a1.96,1.96,0,0,0-2.057,2.057l.072,1.4A1.959,1.959,0,0,1,14.394,22.6l-.94-1.042a1.959,1.959,0,0,0-2.908,0L9.606,22.6A1.959,1.959,0,0,1,6.2,21.191l.072-1.4A1.958,1.958,0,0,0,4.21,17.733l-1.4.072A1.959,1.959,0,0,1,1.4,14.394l1.042-.94a1.959,1.959,0,0,0,0-2.908"/><path class="cls-1" d="M15.438,13.5a3.752,3.752,0,0,1-6.876,0"/><path class="cls-1" d="M9,10.5h6v-9a.75.75,0,0,0-.75-.75H9.75A.75.75,0,0,0,9,1.5Z"/><line class="cls-1" x1="12" y1="4.5" x2="15" y2="4.5"/><line class="cls-1" x1="12" y1="7.5" x2="15" y2="7.5"/><line class="cls-1" x1="16.5" y1="10.5" x2="15" y2="10.5"/><line class="cls-1" x1="9" y1="10.5" x2="7.5" y2="10.5"/></svg>