<svg id="Regular" xmlns="http://www.w3.org/2000/svg" viewBox="0 0 24 24"><defs><style>.cls-1{fill:none;stroke:currentColor;stroke-linecap:round;stroke-linejoin:round;stroke-width:1.5px;}</style></defs><title>real-estate-insurance-building</title><line class="cls-1" x1="0.75" y1="14.25" x2="0.75" y2="23.25"/><path class="cls-1" d="M15.75,21.75a3,3,0,0,0-3-3H9a3,3,0,0,0-3-3H.75v6Z"/><line class="cls-1" x1="6" y1="18.75" x2="9" y2="18.75"/><path class="cls-1" d="M10.25,5.25H16a.5.5,0,0,1,.5.5V13.5a0,0,0,0,1,0,0H9.75a0,0,0,0,1,0,0V5.75A.5.5,0,0,1,10.25,5.25Z"/><path class="cls-1" d="M16.5,13.5h5.25V1.5A.75.75,0,0,0,21,.75H14.25a.75.75,0,0,0-.75.75V5.25"/><line class="cls-1" x1="9.75" y1="13.5" x2="8.25" y2="13.5"/><line class="cls-1" x1="21.75" y1="13.5" x2="23.25" y2="13.5"/><line class="cls-1" x1="13.5" y1="8.25" x2="16.5" y2="8.25"/><line class="cls-1" x1="19.5" y1="5.25" x2="21.75" y2="5.25"/><line class="cls-1" x1="19.5" y1="8.25" x2="21.75" y2="8.25"/></svg>