<svg id="Regular" xmlns="http://www.w3.org/2000/svg" viewBox="0 0 24 24"><defs><style>.cls-1{fill:none;stroke:currentColor;stroke-linecap:round;stroke-linejoin:round;stroke-width:1.5px;}</style></defs><title>real-estate-action-house-warning</title><path class="cls-1" d="M8.25,19.5h-3A1.5,1.5,0,0,1,3.75,18V10.5"/><path class="cls-1" d="M.75,9,9.531,1.57a1.5,1.5,0,0,1,1.938,0l7.284,6.164"/><polyline class="cls-1" points="15.75 1.5 18.75 1.5 18.75 4.5"/><path class="cls-1" d="M17.25,19.5a.375.375,0,1,1-.375.375.375.375,0,0,1,.375-.375"/><line class="cls-1" x1="17.25" y1="17.25" x2="17.25" y2="14.25"/><path class="cls-1" d="M23.063,19.932A1.774,1.774,0,0,1,21.476,22.5H13.024a1.774,1.774,0,0,1-1.587-2.568l4.226-8.451a1.774,1.774,0,0,1,3.174,0Z"/></svg>