<svg id="Regular" xmlns="http://www.w3.org/2000/svg" viewBox="0 0 24 24"><defs><style>.cls-1{fill:none;stroke:currentColor;stroke-linecap:round;stroke-linejoin:round;stroke-width:1.5px;}</style></defs><title>real-estate-sign-board-sale</title><path class="cls-1" d="M13.25,11v4.5a1.5,1.5,0,0,0,1.5,1.5h1.5"/><path class="cls-1" d="M4.25,11H2.75a1.375,1.375,0,0,0-1.5,1.2c0,1.8,3,1.8,3,3.6A1.375,1.375,0,0,1,2.75,17H1.25"/><path class="cls-1" d="M7.25,17V12.5a1.5,1.5,0,0,1,3,0V17"/><line class="cls-1" x1="7.25" y1="14" x2="10.25" y2="14"/><path class="cls-1" d="M22.25,17h-1.5a1.5,1.5,0,0,1-1.5-1.5v-3a1.5,1.5,0,0,1,1.5-1.5h1.5"/><line class="cls-1" x1="19.25" y1="14" x2="22.25" y2="14"/><line class="cls-1" x1="1.25" y1="8" x2="22.25" y2="8"/><line class="cls-1" x1="1.25" y1="20" x2="22.25" y2="20"/><path class="cls-1" d="M7.25,8l3.9-5.2a.75.75,0,0,1,1.2,0L16.25,8"/></svg>