<svg id="Regular" xmlns="http://www.w3.org/2000/svg" viewBox="0 0 24 24"><defs><style>.cls-1{fill:none;stroke:currentColor;stroke-linecap:round;stroke-linejoin:round;stroke-width:1.5px;}</style></defs><title>real-estate-app-house-laptop-1</title><path class="cls-1" d="M2.25,14.25V3.75a1.5,1.5,0,0,1,1.5-1.5h16.5a1.5,1.5,0,0,1,1.5,1.5v10.5"/><path class="cls-1" d="M14.584,17.25a2.976,2.976,0,0,1-5.168,0H.75v1.5a3,3,0,0,0,3,3h16.5a3,3,0,0,0,3-3v-1.5Z"/><path class="cls-1" d="M15,8.5v4.25a.75.75,0,0,1-.75.75H9.75A.75.75,0,0,1,9,12.75V8.5"/><polyline class="cls-1" points="7.5 9.75 12 6 16.5 9.75"/></svg>