<svg id="Regular" xmlns="http://www.w3.org/2000/svg" viewBox="0 0 24 24"><defs><style>.cls-1{fill:none;stroke:currentColor;stroke-linecap:round;stroke-linejoin:round;stroke-width:1.5px;}</style></defs><title>real-estate-update-building-refresh</title><polyline class="cls-1" points="8.538 0.75 12.94 3.685 9.027 7.109"/><path class="cls-1" d="M20.25,18.675a9.783,9.783,0,1,1-8.283-14.99h.973"/><path class="cls-1" d="M21.75,13.467a9.819,9.819,0,0,1-.308,2.447"/><path class="cls-1" d="M20.25,8.26A9.737,9.737,0,0,1,21.3,10.535"/><path class="cls-1" d="M16.494,4.793a9.75,9.75,0,0,1,1.832,1.24"/><path class="cls-1" d="M9,18h6V9.75A.75.75,0,0,0,14.25,9H9.75A.75.75,0,0,0,9,9.75Z"/><line class="cls-1" x1="12" y1="12" x2="15" y2="12"/><line class="cls-1" x1="12" y1="15" x2="15" y2="15"/><line class="cls-1" x1="16.5" y1="18" x2="15" y2="18"/><line class="cls-1" x1="9" y1="18" x2="7.5" y2="18"/></svg>