<svg id="Regular" xmlns="http://www.w3.org/2000/svg" viewBox="0 0 24 24"><defs><style>.cls-1{fill:none;stroke:currentColor;stroke-linecap:round;stroke-linejoin:round;stroke-width:1.5px;}</style></defs><title>real-estate-action-house-dollar</title><path class="cls-1" d="M8.25,19.75h-3a1.5,1.5,0,0,1-1.5-1.5v-7.5"/><path class="cls-1" d="M.75,9.25,9.531,1.82a1.5,1.5,0,0,1,1.938,0l7.279,6.159"/><polyline class="cls-1" points="15.75 1.75 18.75 1.75 18.75 4.75"/><path class="cls-1" d="M18.75,13.75H16.717a1.342,1.342,0,0,0-.5,2.587l2.064.826a1.342,1.342,0,0,1-.5,2.587H15.75"/><line class="cls-1" x1="17.25" y1="13.75" x2="17.25" y2="13"/><line class="cls-1" x1="17.25" y1="20.5" x2="17.25" y2="19.75"/><circle class="cls-1" cx="17.25" cy="16.75" r="6"/></svg>