<svg id="Regular" xmlns="http://www.w3.org/2000/svg" viewBox="0 0 24 24"><defs><style>.cls-1{fill:none;stroke:currentColor;stroke-linecap:round;stroke-linejoin:round;stroke-width:1.5px;}</style></defs><title>real-estate-market-calculator-house</title><path class="cls-1" d="M21,10.5V21.9a1.347,1.347,0,0,1-1.348,1.348H4.348A1.347,1.347,0,0,1,3,21.9V10.5"/><line class="cls-1" x1="12" y1="6.75" x2="12" y2="23.25"/><line class="cls-1" x1="3" y1="14.25" x2="20.842" y2="14.25"/><line class="cls-1" x1="7.5" y1="8.25" x2="7.5" y2="11.25"/><line class="cls-1" x1="6" y1="9.75" x2="9" y2="9.75"/><line class="cls-1" x1="9" y1="17.25" x2="6" y2="20.25"/><line class="cls-1" x1="6" y1="17.25" x2="9" y2="20.25"/><line class="cls-1" x1="15" y1="9.75" x2="18" y2="9.75"/><line class="cls-1" x1="15" y1="17.25" x2="18" y2="17.25"/><line class="cls-1" x1="15" y1="20.25" x2="18" y2="20.25"/><polyline class="cls-1" points="0.75 8.25 12 0.75 23.25 8.25"/></svg>