<svg id="Regular" xmlns="http://www.w3.org/2000/svg" viewBox="0 0 24 24"><defs><style>.cls-1{fill:none;stroke:currentColor;stroke-linecap:round;stroke-linejoin:round;stroke-width:1.5px;}</style></defs><title>real-estate-favorite-building-choose</title><path class="cls-1" d="M12.75,23.25,9.986,20.14a1.557,1.557,0,1,1,2.327-2.069L14.25,20.25v-9a1.5,1.5,0,0,1,3,0V18h1.5a4.5,4.5,0,0,1,4.5,4.5v.75"/><path class="cls-1" d="M2.75,6.75H8.5a.5.5,0,0,1,.5.5V15a0,0,0,0,1,0,0H2.25a0,0,0,0,1,0,0V7.25A.5.5,0,0,1,2.75,6.75Z"/><path class="cls-1" d="M14.25,7.5v-6A.75.75,0,0,0,13.5.75H6.75A.75.75,0,0,0,6,1.5V6.75"/><line class="cls-1" x1="9" y1="15" x2="11.25" y2="15"/><line class="cls-1" x1="2.25" y1="15" x2="0.75" y2="15"/><line class="cls-1" x1="6" y1="9.75" x2="9" y2="9.75"/><line class="cls-1" x1="12" y1="3.75" x2="14.25" y2="3.75"/><line class="cls-1" x1="12" y1="6.75" x2="14.25" y2="6.75"/></svg>