<svg id="Regular" xmlns="http://www.w3.org/2000/svg" viewBox="0 0 24 24"><defs><style>.cls-1{fill:none;stroke:currentColor;stroke-linecap:round;stroke-linejoin:round;stroke-width:1.5px;}</style></defs><title>real-estate-deal-document-building</title><path class="cls-1" d="M10.5,23.25H2.25a1.5,1.5,0,0,1-1.5-1.5V2.25A1.5,1.5,0,0,1,2.25.75H18a1.5,1.5,0,0,1,1.5,1.5v7.5"/><path class="cls-1" d="M23.253,17.25a6,6,0,1,1-6-6"/><path class="cls-1" d="M23.253,12.75l-5.469,5.469a.75.75,0,0,1-1.061,0L15,16.5"/><path class="cls-1" d="M12,10.5v-6a.75.75,0,0,0-.75-.75H6.75A.75.75,0,0,0,6,4.5v9.75"/><line class="cls-1" x1="9" y1="7.5" x2="12" y2="7.5"/><line class="cls-1" x1="9" y1="10.5" x2="12" y2="10.5"/><line class="cls-1" x1="9" y1="14.25" x2="4.5" y2="14.25"/></svg>