<svg id="Regular" xmlns="http://www.w3.org/2000/svg" viewBox="0 0 24 24"><defs><style>.cls-1{fill:none;stroke:currentColor;stroke-linecap:round;stroke-linejoin:round;stroke-width:1.5px;}</style></defs><title>real-estate-app-building-laptop-1</title><path class="cls-1" d="M2.25,14.25V3.75a1.5,1.5,0,0,1,1.5-1.5h16.5a1.5,1.5,0,0,1,1.5,1.5v10.5"/><path class="cls-1" d="M14.584,17.25a2.976,2.976,0,0,1-5.168,0H.75v1.5a3,3,0,0,0,3,3h16.5a3,3,0,0,0,3-3v-1.5Z"/><line class="cls-1" x1="9" y1="14.25" x2="7.5" y2="14.25"/><path class="cls-1" d="M9,14.25h6V6a.75.75,0,0,0-.75-.75H9.75A.75.75,0,0,0,9,6Z"/><line class="cls-1" x1="12" y1="8.25" x2="15" y2="8.25"/><line class="cls-1" x1="12" y1="11.25" x2="15" y2="11.25"/><line class="cls-1" x1="16.5" y1="14.25" x2="15" y2="14.25"/></svg>