<svg id="Regular" xmlns="http://www.w3.org/2000/svg" viewBox="0 0 24 24"><defs><style>.cls-1{fill:none;stroke:currentColor;stroke-linecap:round;stroke-linejoin:round;stroke-width:1.5px;}</style></defs><title>real-estate-action-house-star</title><path class="cls-1" d="M8.229,19.535h-3a1.5,1.5,0,0,1-1.5-1.5v-7.5"/><path class="cls-1" d="M.729,9.035,9.51,1.605a1.5,1.5,0,0,1,1.937,0l7.3,6.177"/><polyline class="cls-1" points="15.729 1.535 18.729 1.535 18.729 4.535"/><path class="cls-1" d="M17.947,10.965l1.541,4.07h3a.735.735,0,0,1,.518,1.283l-2.6,1.816,1.442,3.313a.785.785,0,0,1-1.119.982L17.24,20.468l-3.487,1.961a.785.785,0,0,1-1.119-.982l1.443-3.313-2.6-1.816a.734.734,0,0,1,.515-1.283h3l1.544-4.07A.8.8,0,0,1,17.947,10.965Z"/></svg>