<svg id="Regular" xmlns="http://www.w3.org/2000/svg" viewBox="0 0 24 24"><defs><style>.cls-1{fill:none;stroke:currentColor;stroke-linecap:round;stroke-linejoin:round;stroke-width:1.5px;}</style></defs><title>real-estate-message-person-building-1</title><circle class="cls-1" cx="4.5" cy="6.75" r="3"/><path class="cls-1" d="M8.25,17.25V15a3.75,3.75,0,0,0-7.5,0v2.25h1.5l.75,6H6l.75-6Z"/><path class="cls-1" d="M11.25,15.75h3v4.5l4.5-4.5h3a1.5,1.5,0,0,0,1.5-1.5v-12a1.5,1.5,0,0,0-1.5-1.5h-12a1.5,1.5,0,0,0-1.5,1.5"/><path class="cls-1" d="M12.75,12.75h6V4.5A.75.75,0,0,0,18,3.75H13.5a.75.75,0,0,0-.75.75Z"/><line class="cls-1" x1="15.75" y1="6.75" x2="18.75" y2="6.75"/><line class="cls-1" x1="15.75" y1="9.75" x2="18.75" y2="9.75"/><line class="cls-1" x1="20.25" y1="12.75" x2="18.75" y2="12.75"/><line class="cls-1" x1="12.75" y1="12.75" x2="11.25" y2="12.75"/></svg>