<svg id="Regular" xmlns="http://www.w3.org/2000/svg" viewBox="0 0 24 24"><defs><style>.cls-1{fill:none;stroke:currentColor;stroke-linecap:round;stroke-linejoin:round;stroke-width:1.5px;}</style></defs><title>real-estate-couple-search-house</title><path class="cls-1" d="M5.25,3a1.5,1.5,0,0,0-1.5,1.5v6A1.5,1.5,0,0,0,5.25,12H10.5v4.5L15,12h3.75a1.5,1.5,0,0,0,1.5-1.5v-6A1.5,1.5,0,0,0,18.75,3"/><circle class="cls-1" cx="4.5" cy="17.625" r="2.625"/><path class="cls-1" d="M8.25,23.25a4.25,4.25,0,0,0-7.5,0"/><circle class="cls-1" cx="19.5" cy="17.625" r="2.625"/><path class="cls-1" d="M23.25,23.25a4.25,4.25,0,0,0-7.5,0"/><path class="cls-1" d="M15,3.25v5a.75.75,0,0,1-.75.75H9.75A.75.75,0,0,1,9,8.25v-5"/><polyline class="cls-1" points="7.5 4.5 12 0.75 16.5 4.5"/></svg>