<svg id="Regular" xmlns="http://www.w3.org/2000/svg" viewBox="0 0 24 24"><defs><style>.cls-1{fill:none;stroke:currentColor;stroke-linecap:round;stroke-linejoin:round;stroke-width:1.5px;}</style></defs><title>real-estate-update-house-refresh</title><polyline class="cls-1" points="8.353 0.75 12.755 3.685 8.842 7.109"/><path class="cls-1" d="M20.066,18.675a9.783,9.783,0,1,1-8.283-14.99h.972"/><path class="cls-1" d="M21.565,13.467a9.819,9.819,0,0,1-.308,2.447"/><path class="cls-1" d="M20.065,8.26a9.737,9.737,0,0,1,1.053,2.275"/><path class="cls-1" d="M16.31,4.793a9.775,9.775,0,0,1,1.831,1.24"/><path class="cls-1" d="M14.815,15.75V18a.75.75,0,0,1-.75.75h-4.5a.75.75,0,0,1-.75-.75V15.75"/><polyline class="cls-1" points="7.315 13.5 11.815 9.75 16.315 13.5"/></svg>