<svg id="Regular" xmlns="http://www.w3.org/2000/svg" viewBox="0 0 24 24"><defs><style>.cls-1{fill:none;stroke:currentColor;stroke-linecap:round;stroke-linejoin:round;stroke-width:1.5px;}</style></defs><title>real-estate-action-house-heart</title><path class="cls-1" d="M8.25,19.75h-3a1.5,1.5,0,0,1-1.5-1.5v-7.5"/><path class="cls-1" d="M.75,9.25,9.531,1.82a1.5,1.5,0,0,1,1.938,0L20.25,9.25"/><polyline class="cls-1" points="15.75 1.75 18.75 1.75 18.75 4.75"/><path class="cls-1" d="M17.25,22.75l-5.114-5.335a3.025,3.025,0,0,1-.567-3.492h0a3.026,3.026,0,0,1,4.846-.786l.835.835.835-.835a3.026,3.026,0,0,1,4.846.786h0a3.025,3.025,0,0,1-.567,3.492Z"/></svg>