<svg id="Regular" xmlns="http://www.w3.org/2000/svg" viewBox="0 0 24 24"><defs><style>.cls-1{fill:none;stroke:currentColor;stroke-linecap:round;stroke-linejoin:round;stroke-width:1.5px;}</style></defs><title>real-estate-dimensions-building</title><line class="cls-1" x1="3" y1="23.25" x2="3" y2="7.5"/><polyline class="cls-1" points="0.75 21 3 23.25 5.25 21"/><polyline class="cls-1" points="5.25 9.75 3 7.5 0.75 9.75"/><line class="cls-1" x1="7.5" y1="3" x2="23.25" y2="3"/><polyline class="cls-1" points="9.75 0.75 7.5 3 9.75 5.25"/><polyline class="cls-1" points="21 5.25 23.25 3 21 0.75"/><path class="cls-1" d="M10.25,15H16a.5.5,0,0,1,.5.5v7.75a0,0,0,0,1,0,0H9.75a0,0,0,0,1,0,0V15.5A.5.5,0,0,1,10.25,15Z"/><path class="cls-1" d="M16.5,23.25h5.25V9.75A.75.75,0,0,0,21,9H14.25a.75.75,0,0,0-.75.75V15"/><line class="cls-1" x1="9.75" y1="23.25" x2="8.25" y2="23.25"/><line class="cls-1" x1="23.25" y1="23.25" x2="21.75" y2="23.25"/><line class="cls-1" x1="13.5" y1="18" x2="16.5" y2="18"/><line class="cls-1" x1="19.5" y1="12" x2="21.75" y2="12"/><line class="cls-1" x1="19.5" y1="15" x2="21.75" y2="15"/></svg>