<svg id="Regular" xmlns="http://www.w3.org/2000/svg" viewBox="0 0 24 24"><defs><style>.cls-1{fill:none;stroke:currentColor;stroke-linecap:round;stroke-linejoin:round;stroke-width:1.5px;}</style></defs><title>real-estate-sign-board-sold-1</title><line class="cls-1" x1="18.75" y1="14" x2="18.75" y2="22.25"/><line class="cls-1" x1="1.5" y1="2" x2="22.5" y2="2"/><line class="cls-1" x1="1.5" y1="14" x2="22.5" y2="14"/><path class="cls-1" d="M9,5A1.5,1.5,0,0,0,7.5,6.5v3a1.5,1.5,0,0,0,3,0v-3A1.5,1.5,0,0,0,9,5Z"/><path class="cls-1" d="M13.5,5V9.5A1.5,1.5,0,0,0,15,11h1.5"/><path class="cls-1" d="M4.5,5H3A1.375,1.375,0,0,0,1.5,6.2c0,1.8,3,1.8,3,3.6A1.375,1.375,0,0,1,3,11H1.5"/><path class="cls-1" d="M19.5,11a2.75,2.75,0,0,0,3-2.4V7.4a2.751,2.751,0,0,0-3-2.4Z"/><line class="cls-1" x1="5.25" y1="14" x2="5.25" y2="22.25"/></svg>