<svg id="Regular" xmlns="http://www.w3.org/2000/svg" viewBox="0 0 24 24"><defs><style>.cls-1{fill:none;stroke:currentColor;stroke-linecap:round;stroke-linejoin:round;stroke-width:1.5px;}</style></defs><title>real-estate-dimensions-block</title><rect class="cls-1" x="8.25" y="8.25" width="15" height="15" rx="1.5" ry="1.5"/><line class="cls-1" x1="8.25" y1="12.75" x2="12" y2="12.75"/><polyline class="cls-1" points="8.25 20.25 12.75 20.25 12.75 23.25"/><line class="cls-1" x1="18.75" y1="18.75" x2="23.25" y2="18.75"/><polyline class="cls-1" points="23.25 12 18 12 18 8.25"/><polyline class="cls-1" points="15 8.25 15 16.5 11.25 16.5"/><line class="cls-1" x1="3" y1="5.25" x2="3" y2="23.25"/><polyline class="cls-1" points="0.75 21 3 23.25 5.25 21"/><polyline class="cls-1" points="5.25 7.5 3 5.25 0.75 7.5"/><line class="cls-1" x1="23.25" y1="3" x2="5.25" y2="3"/><polyline class="cls-1" points="7.5 0.75 5.25 3 7.5 5.25"/><polyline class="cls-1" points="21 5.25 23.25 3 21 0.75"/><line class="cls-1" x1="18.75" y1="16.5" x2="18.75" y2="23.25"/></svg>