<svg id="Regular" xmlns="http://www.w3.org/2000/svg" viewBox="0 0 24 24"><defs><style>.cls-1{fill:none;stroke:currentColor;stroke-linecap:round;stroke-linejoin:round;stroke-width:1.5px;}</style></defs><title>real-estate-settings-house-2</title><path class="cls-1" d="M21.562,10.046a1.959,1.959,0,0,0,0,2.908l1.042.94a1.959,1.959,0,0,1-1.413,3.411l-1.4-.072a1.96,1.96,0,0,0-2.057,2.057l.072,1.4A1.959,1.959,0,0,1,14.394,22.1l-.94-1.042a1.959,1.959,0,0,0-2.908,0L9.606,22.1A1.959,1.959,0,0,1,6.2,20.691l.072-1.4A1.958,1.958,0,0,0,4.21,17.233l-1.4.072A1.959,1.959,0,0,1,1.4,13.894l1.042-.94a1.959,1.959,0,0,0,0-2.908"/><path class="cls-1" d="M15.675,12.25a3.751,3.751,0,0,1-7.35,0"/><path class="cls-1" d="M15,3.5v5a.75.75,0,0,1-.75.75H9.75A.75.75,0,0,1,9,8.5v-5"/><polyline class="cls-1" points="7.5 4.75 12 1 16.5 4.75"/></svg>