<svg id="Regular" xmlns="http://www.w3.org/2000/svg" viewBox="0 0 24 24"><defs><style>.cls-1{fill:none;stroke:currentColor;stroke-linecap:round;stroke-linejoin:round;stroke-width:1.5px;}</style></defs><title>real-estate-action-house-settings-1</title><path class="cls-1" d="M20.25,10.5V21a1.5,1.5,0,0,1-1.5,1.5H5.25A1.5,1.5,0,0,1,3.75,21V10.5"/><path class="cls-1" d="M.75,9,11.113,1.4a1.5,1.5,0,0,1,1.774,0L23.25,9"/><polyline class="cls-1" points="18.75 1.5 21.75 1.5 21.75 4.5"/><circle class="cls-1" cx="12" cy="14.25" r="2.7"/><line class="cls-1" x1="12" y1="11.55" x2="12" y2="9.75"/><line class="cls-1" x1="12" y1="18.75" x2="12" y2="16.95"/><line class="cls-1" x1="14.7" y1="14.25" x2="16.5" y2="14.25"/><line class="cls-1" x1="7.5" y1="14.25" x2="9.3" y2="14.25"/><line class="cls-1" x1="9.236" y1="17.432" x2="10.311" y2="16.357"/><line class="cls-1" x1="9.236" y1="11.068" x2="10.311" y2="12.143"/><line class="cls-1" x1="14.764" y1="17.432" x2="13.689" y2="16.357"/><line class="cls-1" x1="14.764" y1="11.068" x2="13.689" y2="12.143"/></svg>