<svg id="Regular" xmlns="http://www.w3.org/2000/svg" viewBox="0 0 24 24"><defs><style>.cls-1{fill:none;stroke:currentColor;stroke-linecap:round;stroke-linejoin:round;stroke-width:1.5px;}</style></defs><title>real-estate-dimensions-map</title><path class="cls-1" d="M2.724.827A1.5,1.5,0,0,0,.75,2.25V19.5a1.5,1.5,0,0,0,.891,1.371l5.306,2.25a1.507,1.507,0,0,0,1.122.039l7.143-2.844a1.5,1.5,0,0,1,1.07.017l4.911,1.93a1.5,1.5,0,0,0,2.057-1.392V4.116a1.5,1.5,0,0,0-1.069-1.437L16.161.873a1.5,1.5,0,0,0-.825-.01l-7.4,2.084a1.5,1.5,0,0,1-.869-.024Z"/><polygon class="cls-1" points="3.75 4.5 3.75 18.75 7.5 20.25 15.75 17.25 20.25 18.75 20.25 5.25 15.75 3.75 7.5 6 3.75 4.5"/><polyline class="cls-1" points="3.75 9.879 7.5 11.379 11.25 9.879"/><line class="cls-1" x1="14.25" y1="4.159" x2="14.25" y2="8.063"/><polyline class="cls-1" points="3.75 14.379 7.5 15.75 9.75 15.129 9.75 19.432"/><polyline class="cls-1" points="14.25 17.795 14.25 14.25 15.75 13.5 20.25 15"/></svg>