<svg id="Regular" xmlns="http://www.w3.org/2000/svg" viewBox="0 0 24 24"><defs><style>.cls-1{fill:none;stroke:currentColor;stroke-linecap:round;stroke-linejoin:round;stroke-width:1.5px;}</style></defs><title>real-estate-message-chat-building</title><path class="cls-1" d="M17.25,15.75h-6l-6,4.5v-4.5h-3a1.5,1.5,0,0,1-1.5-1.5v-12A1.5,1.5,0,0,1,2.25.75h15a1.5,1.5,0,0,1,1.5,1.5v12A1.5,1.5,0,0,1,17.25,15.75Z"/><path class="cls-1" d="M21,8.25h.75a1.5,1.5,0,0,1,1.5,1.5v7.5a1.5,1.5,0,0,1-1.5,1.5h-1.5v4.5l-4.5-4.5H12"/><path class="cls-1" d="M6.75,12.75h6V4.5A.75.75,0,0,0,12,3.75H7.5a.75.75,0,0,0-.75.75Z"/><line class="cls-1" x1="9.75" y1="6.75" x2="12.75" y2="6.75"/><line class="cls-1" x1="9.75" y1="9.75" x2="12.75" y2="9.75"/><line class="cls-1" x1="14.25" y1="12.75" x2="12.75" y2="12.75"/><line class="cls-1" x1="6.75" y1="12.75" x2="5.25" y2="12.75"/></svg>