<svg id="Regular" xmlns="http://www.w3.org/2000/svg" viewBox="0 0 24 24"><defs><style>.cls-1{fill:none;stroke:currentColor;stroke-linecap:round;stroke-linejoin:round;stroke-width:1.5px;}</style></defs><title>real-estate-sign-for-sale</title><path class="cls-1" d="M4.5,10.5V6A1.5,1.5,0,0,1,6,4.5H7.5"/><line class="cls-1" x1="4.5" y1="7.5" x2="6.75" y2="7.5"/><line class="cls-1" x1="16.5" y1="10.5" x2="16.5" y2="4.5"/><path class="cls-1" d="M16.5,4.5h1.125a1.875,1.875,0,0,1,0,3.75H16.5"/><line class="cls-1" x1="19.5" y1="10.5" x2="17.25" y2="8.25"/><path class="cls-1" d="M12,4.5A1.5,1.5,0,0,0,10.5,6V9a1.5,1.5,0,0,0,3,0V6A1.5,1.5,0,0,0,12,4.5Z"/><path class="cls-1" d="M13.5,13.5V18A1.5,1.5,0,0,0,15,19.5h1.5"/><path class="cls-1" d="M4.5,13.5H3a1.375,1.375,0,0,0-1.5,1.2c0,1.8,3,1.8,3,3.6A1.375,1.375,0,0,1,3,19.5H1.5"/><path class="cls-1" d="M7.5,19.5V15a1.5,1.5,0,0,1,3,0v4.5"/><line class="cls-1" x1="7.5" y1="16.5" x2="10.5" y2="16.5"/><path class="cls-1" d="M22.5,19.5H21A1.5,1.5,0,0,1,19.5,18V15A1.5,1.5,0,0,1,21,13.5h1.5"/><line class="cls-1" x1="19.5" y1="16.5" x2="22.5" y2="16.5"/><line class="cls-1" x1="1.5" y1="1.5" x2="22.5" y2="1.5"/><line class="cls-1" x1="1.5" y1="22.5" x2="22.5" y2="22.5"/></svg>