<svg id="Regular" xmlns="http://www.w3.org/2000/svg" viewBox="0 0 24 24"><defs><style>.cls-1{fill:none;stroke:currentColor;stroke-linecap:round;stroke-linejoin:round;stroke-width:1.5px;}</style></defs><title>real-estate-market-building-rise</title><path class="cls-1" d="M7.5,23.25l6.22-6.22a.749.749,0,0,1,1.06,0l1.94,1.94a.749.749,0,0,0,1.06,0l5.47-5.47"/><polyline class="cls-1" points="19.5 13.5 23.25 13.5 23.25 17.25"/><path class="cls-1" d="M15.75,13.5V1.5A.75.75,0,0,0,14.737.8l-8.25,4.27A.75.75,0,0,0,6,5.77V9.75"/><line class="cls-1" x1="13.5" y1="5.25" x2="15.75" y2="5.25"/><line class="cls-1" x1="12" y1="8.25" x2="15.75" y2="8.25"/><line class="cls-1" x1="0.75" y1="12.75" x2="3" y2="12.75"/><line class="cls-1" x1="0.75" y1="15.75" x2="4.5" y2="15.75"/><line class="cls-1" x1="8.25" y1="4.156" x2="8.25" y2="0.751"/><path class="cls-1" d="M8.25,18V11.25a1.5,1.5,0,0,0-1.5-1.5H2.25a1.5,1.5,0,0,0-1.5,1.5v12h3"/></svg>