<svg id="Regular" xmlns="http://www.w3.org/2000/svg" viewBox="0 0 24 24"><defs><style>.cls-1{fill:none;stroke:currentColor;stroke-linecap:round;stroke-linejoin:round;stroke-width:1.5px;}</style></defs><title>real-estate-deal-shake-building</title><line class="cls-1" x1="19.167" y1="19.453" x2="13.928" y2="20.501"/><path class="cls-1" d="M14.5,14.583,12.028,15.6a1.6,1.6,0,0,1-1.309-2.916l2.47-1.2a2.215,2.215,0,0,1,1.745-.1l4.509,1.726"/><path class="cls-1" d="M4.5,20.583H6.365l3.106,2.362a.911.911,0,0,0,1.258.1L15.39,19.3a.912.912,0,0,0,.141-1.266l-2.563-2.823"/><path class="cls-1" d="M10.514,12.817l-.334-.275A1.957,1.957,0,0,0,8.293,12.3L4.5,13.917"/><path class="cls-1" d="M1.167,21.917h2A1.333,1.333,0,0,0,4.5,20.583V13.917a1.333,1.333,0,0,0-1.333-1.334h-2"/><path class="cls-1" d="M22.5,21.917h-2a1.333,1.333,0,0,1-1.333-1.334V13.917A1.333,1.333,0,0,1,20.5,12.583h2"/><path class="cls-1" d="M3.583,9.75V1.5A.751.751,0,0,1,4.6.8l8.25,4.27a.751.751,0,0,1,.486.7V9"/><line class="cls-1" x1="5.833" y1="5.251" x2="3.583" y2="5.251"/><line class="cls-1" x1="7.333" y1="8.251" x2="3.583" y2="8.251"/><line class="cls-1" x1="9.583" y1="3.379" x2="9.583" y2="0.751"/><path class="cls-1" d="M13.333,6.75h6a1.5,1.5,0,0,1,1.5,1.5V9"/></svg>