<svg id="Regular" xmlns="http://www.w3.org/2000/svg" viewBox="0 0 24 24"><defs><style>.cls-1{fill:none;stroke:currentColor;stroke-linecap:round;stroke-linejoin:round;stroke-width:1.5px;}</style></defs><title>real-estate-location-house-pin</title><path class="cls-1" d="M8.25,4.875a.375.375,0,1,1-.375.375.375.375,0,0,1,.375-.375"/><path class="cls-1" d="M8.25.75a4.5,4.5,0,0,1,4.5,4.5c0,1.921-2.688,5.65-3.909,7.212a.75.75,0,0,1-1.182,0C6.438,10.9,3.75,7.171,3.75,5.25A4.5,4.5,0,0,1,8.25.75Z"/><path class="cls-1" d="M3.75,17.25v4.5a1.5,1.5,0,0,0,1.5,1.5h6a1.5,1.5,0,0,0,1.5-1.5v-4.5"/><line class="cls-1" x1="4.083" y1="12.75" x2="0.75" y2="15.75"/><line class="cls-1" x1="15.75" y1="15.75" x2="12.416" y2="12.749"/><path class="cls-1" d="M21.75,17.5v5a.75.75,0,0,1-.75.75H15.75"/><line class="cls-1" x1="18.75" y1="15" x2="23.25" y2="18.75"/></svg>