<svg id="Regular" xmlns="http://www.w3.org/2000/svg" viewBox="0 0 24 24"><defs><style>.cls-1{fill:none;stroke:currentColor;stroke-linecap:round;stroke-linejoin:round;stroke-width:1.5px;}</style></defs><title>real-estate-action-house-star-1</title><path class="cls-1" d="M20.25,10.75v10.5a1.5,1.5,0,0,1-1.5,1.5H5.25a1.5,1.5,0,0,1-1.5-1.5V10.75"/><path class="cls-1" d="M.75,9.25l10.363-7.6a1.5,1.5,0,0,1,1.774,0L23.25,9.25"/><polyline class="cls-1" points="18.75 1.75 21.75 1.75 21.75 4.75"/><path class="cls-1" d="M12.314,9.219a.489.489,0,0,1,.872,0L14.2,11.261a.485.485,0,0,0,.366.263l2.271.328a.483.483,0,0,1,.391.325.474.474,0,0,1-.121.489l-1.65,1.6a.476.476,0,0,0-.138.421l.389,2.255a.473.473,0,0,1-.194.467.488.488,0,0,1-.511.035l-2.024-1.058a.486.486,0,0,0-.454,0L10.5,17.444a.488.488,0,0,1-.511-.035.473.473,0,0,1-.194-.467l.389-2.255a.476.476,0,0,0-.138-.421l-1.65-1.6a.474.474,0,0,1-.121-.489.483.483,0,0,1,.391-.325l2.271-.328a.485.485,0,0,0,.366-.263Z"/></svg>