<svg id="Regular" xmlns="http://www.w3.org/2000/svg" viewBox="0 0 24 24"><defs><style>.cls-1{fill:none;stroke:currentColor;stroke-linecap:round;stroke-linejoin:round;stroke-width:1.5px;}</style></defs><title>real-estate-deal-pay-building</title><path class="cls-1" d="M12.75.75h4.5a3,3,0,0,1,3,3v3"/><polyline class="cls-1" points="18 4.5 20.25 6.75 22.5 4.5"/><path class="cls-1" d="M10.5,23.25H6a3,3,0,0,1-3-3v-3"/><polyline class="cls-1" points="5.25 19.5 3 17.25 0.75 19.5"/><path class="cls-1" d="M18.75,14.25H16.717a1.342,1.342,0,0,0-.5,2.587l2.064.826a1.342,1.342,0,0,1-.5,2.587H15.75"/><line class="cls-1" x1="17.25" y1="14.25" x2="17.25" y2="13.5"/><line class="cls-1" x1="17.25" y1="21" x2="17.25" y2="20.25"/><circle class="cls-1" cx="17.25" cy="17.25" r="6"/><path class="cls-1" d="M2.25,11.25h6V1.5A.75.75,0,0,0,7.5.75H3a.75.75,0,0,0-.75.75Z"/><line class="cls-1" x1="5.25" y1="4.5" x2="8.25" y2="4.5"/><line class="cls-1" x1="5.25" y1="7.5" x2="8.25" y2="7.5"/><line class="cls-1" x1="9.75" y1="11.25" x2="8.25" y2="11.25"/><line class="cls-1" x1="2.25" y1="11.25" x2="0.75" y2="11.25"/></svg>