<svg id="Regular" xmlns="http://www.w3.org/2000/svg" viewBox="0 0 24 24"><defs><style>.cls-1{fill:none;stroke:currentColor;stroke-linecap:round;stroke-linejoin:round;stroke-width:1.5px;}</style></defs><title>real-estate-insurance-house</title><line class="cls-1" x1="1" y1="13.482" x2="1" y2="22.482"/><path class="cls-1" d="M16,20.982a3,3,0,0,0-3-3H9.25a3,3,0,0,0-3-3H1v6Z"/><line class="cls-1" x1="6.25" y1="17.982" x2="9.25" y2="17.982"/><path class="cls-1" d="M10,8.232v3.75a1.5,1.5,0,0,0,1.5,1.5h6a1.5,1.5,0,0,0,1.5-1.5V8.232"/><path class="cls-1" d="M22,7.482,15.5,1.635a1.5,1.5,0,0,0-2.006,0L7,7.482"/><line class="cls-1" x1="20.5" y1="6.132" x2="20.5" y2="2.232"/></svg>