<svg id="Regular" xmlns="http://www.w3.org/2000/svg" viewBox="0 0 24 24"><defs><style>.cls-1{fill:none;stroke:currentColor;stroke-linecap:round;stroke-linejoin:round;stroke-width:1.5px;}</style></defs><title>real-estate-person-search-house-1</title><circle class="cls-1" cx="4.5" cy="6.75" r="3"/><path class="cls-1" d="M8.25,17.25V15a3.75,3.75,0,0,0-7.5,0v2.25h1.5l.75,6H6l.75-6Z"/><path class="cls-1" d="M11.25,15.75h3v4.5l4.5-4.5h3a1.5,1.5,0,0,0,1.5-1.5v-12a1.5,1.5,0,0,0-1.5-1.5h-12a1.5,1.5,0,0,0-1.5,1.5"/><path class="cls-1" d="M18.75,6.25v5A.75.75,0,0,1,18,12H13.5a.75.75,0,0,1-.75-.75v-5"/><polyline class="cls-1" points="11.25 7.5 15.75 3.75 20.25 7.5"/></svg>