<svg id="Regular" xmlns="http://www.w3.org/2000/svg" viewBox="0 0 24 24"><defs><style>.cls-1{fill:none;stroke:currentColor;stroke-linecap:round;stroke-linejoin:round;stroke-width:1.5px;}</style></defs><title>real-estate-sign-rent</title><line class="cls-1" x1="1.5" y1="1.75" x2="22.5" y2="1.75"/><line class="cls-1" x1="1.5" y1="13.75" x2="22.5" y2="13.75"/><line class="cls-1" x1="21" y1="10.75" x2="21" y2="4.75"/><line class="cls-1" x1="19.5" y1="4.75" x2="22.5" y2="4.75"/><line class="cls-1" x1="1.5" y1="10.75" x2="1.5" y2="4.75"/><path class="cls-1" d="M1.5,4.75H2.625a1.875,1.875,0,0,1,0,3.75H1.5"/><line class="cls-1" x1="4.5" y1="10.75" x2="2.25" y2="8.5"/><polyline class="cls-1" points="13.5 10.75 13.5 4.75 16.5 10.75 16.5 4.75"/><path class="cls-1" d="M10.5,10.75H9a1.5,1.5,0,0,1-1.5-1.5v-3A1.5,1.5,0,0,1,9,4.75h1.5"/><line class="cls-1" x1="7.5" y1="7.75" x2="10.5" y2="7.75"/><line class="cls-1" x1="5.25" y1="13.75" x2="5.25" y2="22"/><line class="cls-1" x1="18.75" y1="13.75" x2="18.75" y2="22"/></svg>