<svg id="Regular" xmlns="http://www.w3.org/2000/svg" viewBox="0 0 24 24"><defs><style>.cls-1{fill:none;stroke:currentColor;stroke-linecap:round;stroke-linejoin:round;stroke-width:1.5px;}</style></defs><title>real-estate-location-house-pin-1</title><path class="cls-1" d="M11.25,18.232V21.75a1.5,1.5,0,0,0,1.5,1.5h6a1.5,1.5,0,0,0,1.5-1.5V18.232"/><path class="cls-1" d="M23.25,17.482l-6.5-5.847a1.5,1.5,0,0,0-2.006,0l-6.5,5.847"/><line class="cls-1" x1="21.75" y1="16.132" x2="21.75" y2="12"/><circle class="cls-1" cx="8.25" cy="8.25" r="3.75"/><path class="cls-1" d="M8.25,23.25a.749.749,0,0,1-.625-.336C5.824,20.2.75,11.657.75,8.25a7.5,7.5,0,0,1,15,0"/></svg>