<svg id="Regular" xmlns="http://www.w3.org/2000/svg" viewBox="0 0 24 24"><defs><style>.cls-1{fill:none;stroke:currentColor;stroke-linecap:round;stroke-linejoin:round;stroke-width:1.5px;}</style></defs><title>real-estate-message-person-building</title><path class="cls-1" d="M12.75,15.75h3v4.5l4.5-4.5h1.494a1.506,1.506,0,0,0,1.506-1.506V2.25a1.5,1.5,0,0,0-1.5-1.5h-12a1.5,1.5,0,0,0-1.5,1.5v4.5"/><circle class="cls-1" cx="6.75" cy="13.125" r="3.375"/><path class="cls-1" d="M12.75,23.25a6.054,6.054,0,0,0-12,0"/><path class="cls-1" d="M13.5,12.75h6V4.5a.75.75,0,0,0-.75-.75h-4.5a.75.75,0,0,0-.75.75Z"/><line class="cls-1" x1="16.5" y1="6.75" x2="19.5" y2="6.75"/><line class="cls-1" x1="16.5" y1="9.75" x2="19.5" y2="9.75"/></svg>