<svg id="Regular" xmlns="http://www.w3.org/2000/svg" viewBox="0 0 24 24"><defs><style>.cls-1{fill:none;stroke:currentColor;stroke-linecap:round;stroke-linejoin:round;stroke-width:1.5px;}</style></defs><title>real-estate-action-house-shield</title><path class="cls-1" d="M8.25,19.75h-3a1.5,1.5,0,0,1-1.5-1.5v-7.5"/><path class="cls-1" d="M.75,9.25,9.531,1.82a1.5,1.5,0,0,1,1.938,0l7.279,6.159"/><polyline class="cls-1" points="15.75 1.75 18.75 1.75 18.75 4.75"/><path class="cls-1" d="M23.25,15.25a7.669,7.669,0,0,1-6,7.5,7.669,7.669,0,0,1-6-7.5v-3a1.5,1.5,0,0,1,1.5-1.5h9a1.5,1.5,0,0,1,1.5,1.5Z"/><line class="cls-1" x1="17.25" y1="14.5" x2="17.25" y2="19"/><line class="cls-1" x1="15" y1="16.75" x2="19.5" y2="16.75"/></svg>