<svg id="Regular" xmlns="http://www.w3.org/2000/svg" viewBox="0 0 24 24"><defs><style>.cls-1{fill:none;stroke:currentColor;stroke-linecap:round;stroke-linejoin:round;stroke-width:1.5px;}</style></defs><title>real-estate-sign-building-sold</title><path class="cls-1" d="M9,17.25a1.5,1.5,0,0,0-1.5,1.5v3a1.5,1.5,0,0,0,3,0v-3A1.5,1.5,0,0,0,9,17.25Z"/><path class="cls-1" d="M13.5,17.25v4.5a1.5,1.5,0,0,0,1.5,1.5h1.5"/><path class="cls-1" d="M4.5,17.25H3a1.375,1.375,0,0,0-1.5,1.2c0,1.8,3,1.8,3,3.6A1.375,1.375,0,0,1,3,23.25H1.5"/><path class="cls-1" d="M19.5,23.25a2.751,2.751,0,0,0,3-2.4v-1.2a2.75,2.75,0,0,0-3-2.4Z"/><path class="cls-1" d="M3.75,14.25V1.5A.75.75,0,0,1,4.763.8l8.25,4.27a.75.75,0,0,1,.487.7v8.48"/><line class="cls-1" x1="6" y1="5.251" x2="3.75" y2="5.251"/><line class="cls-1" x1="7.5" y1="8.251" x2="3.75" y2="8.251"/><line class="cls-1" x1="17.25" y1="9.75" x2="13.5" y2="9.75"/><line class="cls-1" x1="17.25" y1="12.75" x2="13.5" y2="12.75"/><line class="cls-1" x1="9.75" y1="3.379" x2="9.75" y2="0.751"/><path class="cls-1" d="M13.5,6.75h6A1.5,1.5,0,0,1,21,8.25v6"/></svg>