<svg id="Regular" xmlns="http://www.w3.org/2000/svg" viewBox="0 0 24 24"><defs><style>.cls-1{fill:none;stroke:currentColor;stroke-linecap:round;stroke-linejoin:round;stroke-width:1.5px;}</style></defs><title>real-estate-action-building-disable</title><circle class="cls-1" cx="17.25" cy="17.25" r="6"/><line class="cls-1" x1="13.008" y1="21.491" x2="21.492" y2="13.008"/><path class="cls-1" d="M15.75,8.25V1.5A.75.75,0,0,0,14.737.8l-8.25,4.27A.75.75,0,0,0,6,5.77V9.75"/><line class="cls-1" x1="13.5" y1="5.25" x2="15.75" y2="5.25"/><line class="cls-1" x1="12" y1="8.25" x2="15.75" y2="8.25"/><line class="cls-1" x1="0.75" y1="12.75" x2="3" y2="12.75"/><line class="cls-1" x1="0.75" y1="15.75" x2="4.5" y2="15.75"/><line class="cls-1" x1="8.25" y1="4.156" x2="8.25" y2="0.751"/><path class="cls-1" d="M8.25,23.25v-12a1.5,1.5,0,0,0-1.5-1.5H2.25a1.5,1.5,0,0,0-1.5,1.5v12h9"/></svg>