<svg id="Regular" xmlns="http://www.w3.org/2000/svg" viewBox="0 0 24 24"><defs><style>.cls-1{fill:none;stroke:currentColor;stroke-linecap:round;stroke-linejoin:round;stroke-width:1.5px;}</style></defs><title>real-estate-favorite-hold-house</title><path class="cls-1" d="M7.5,7.732V11.25A1.5,1.5,0,0,0,9,12.75h6a1.5,1.5,0,0,0,1.5-1.5V7.732"/><path class="cls-1" d="M19.5,6.982,13,1.135a1.5,1.5,0,0,0-2.006,0L4.5,6.982"/><line class="cls-1" x1="18" y1="5.632" x2="18" y2="1.5"/><path class="cls-1" d="M3.75,23.25,1.736,20.733A4.5,4.5,0,0,1,.75,17.921V12.75a1.5,1.5,0,0,1,1.5-1.5h0a1.5,1.5,0,0,1,1.5,1.5V16.5"/><path class="cls-1" d="M8.25,23.114v-3a4.493,4.493,0,0,0-.757-2.5L6.351,15.9a1.4,1.4,0,0,0-1.977-.445h0A1.4,1.4,0,0,0,3.9,17.25L5.25,19.5"/><path class="cls-1" d="M20.25,23.25l2.014-2.517a4.5,4.5,0,0,0,.986-2.812V12.75a1.5,1.5,0,0,0-1.5-1.5h0a1.5,1.5,0,0,0-1.5,1.5V16.5"/><path class="cls-1" d="M15.75,23.114v-3a4.493,4.493,0,0,1,.757-2.5L17.649,15.9a1.4,1.4,0,0,1,1.977-.445h0A1.4,1.4,0,0,1,20.1,17.25L18.75,19.5"/></svg>