<svg id="Regular" xmlns="http://www.w3.org/2000/svg" viewBox="0 0 24 24"><defs><style>.cls-1{fill:none;stroke:currentColor;stroke-linecap:round;stroke-linejoin:round;stroke-width:1.5px;}</style></defs><title>real-estate-dimensions-house</title><line class="cls-1" x1="3" y1="23.25" x2="3" y2="7.5"/><polyline class="cls-1" points="0.75 21 3 23.25 5.25 21"/><polyline class="cls-1" points="5.25 9.75 3 7.5 0.75 9.75"/><line class="cls-1" x1="7.5" y1="3" x2="23.25" y2="3"/><polyline class="cls-1" points="9.75 0.75 7.5 3 9.75 5.25"/><polyline class="cls-1" points="21 5.25 23.25 3 21 0.75"/><path class="cls-1" d="M11.25,13.05v7.2a1.5,1.5,0,0,0,1.5,1.5h6a1.5,1.5,0,0,0,1.5-1.5v-7.2"/><path class="cls-1" d="M23.25,15.75,16.753,9.9a1.5,1.5,0,0,0-2.006,0L8.25,15.75"/></svg>