<svg id="Regular" xmlns="http://www.w3.org/2000/svg" viewBox="0 0 24 24"><defs><style>.cls-1{fill:none;stroke:currentColor;stroke-linecap:round;stroke-linejoin:round;stroke-width:1.5px;}</style></defs><title>real-estate-market-building-decrease</title><line class="cls-1" x1="19.5" y1="0.75" x2="11.25" y2="8.25"/><polyline class="cls-1" points="15.75 8.25 11.25 8.25 11.25 3.75"/><line class="cls-1" x1="23.25" y1="3.75" x2="23.25" y2="23.25"/><line class="cls-1" x1="19.5" y1="9" x2="19.5" y2="23.25"/><line class="cls-1" x1="15.75" y1="14.25" x2="15.75" y2="23.25"/><line class="cls-1" x1="23.25" y1="23.25" x2="11.25" y2="23.25"/><path class="cls-1" d="M6,15h5.25a0,0,0,0,1,0,0v7.75a.5.5,0,0,1-.5.5H6.5a.5.5,0,0,1-.5-.5V15a0,0,0,0,1,0,0Z" transform="translate(17.25 38.25) rotate(-180)"/><path class="cls-1" d="M6,23.25H.75v-12a.75.75,0,0,1,.75-.75h6a.75.75,0,0,1,.75.75V15"/><line class="cls-1" x1="3" y1="15" x2="0.75" y2="15"/><line class="cls-1" x1="3" y1="18" x2="0.75" y2="18"/></svg>