<svg id="Regular" xmlns="http://www.w3.org/2000/svg" viewBox="0 0 24 24"><defs><style>.cls-1{fill:none;stroke:currentColor;stroke-linecap:round;stroke-linejoin:round;stroke-width:1.5px;}</style></defs><title>real-estate-action-house-location</title><path class="cls-1" d="M9.75,19.5H5.25A1.5,1.5,0,0,1,3.75,18V10.5"/><path class="cls-1" d="M.75,9,9.531,1.57a1.5,1.5,0,0,1,1.938,0l7.3,6.177"/><polyline class="cls-1" points="15.75 1.5 18.75 1.5 18.75 4.5"/><path class="cls-1" d="M10.561,10.745l5.216,11.393a.682.682,0,0,0,1.253-.122l1.527-4.209,4.209-1.527a.682.682,0,0,0,.122-1.253L11.5,9.811A.716.716,0,0,0,10.561,10.745Z"/></svg>