<svg id="Regular" xmlns="http://www.w3.org/2000/svg" viewBox="0 0 24 24"><defs><style>.cls-1{fill:none;stroke:currentColor;stroke-linecap:round;stroke-linejoin:round;stroke-width:1.5px;}</style></defs><title>real-estate-message-couple-building</title><path class="cls-1" d="M5.246,3a1.5,1.5,0,0,0-1.5,1.5V12a1.5,1.5,0,0,0,1.5,1.5H10.5V18L15,13.5h3.75a1.5,1.5,0,0,0,1.5-1.5V4.5a1.5,1.5,0,0,0-1.5-1.5"/><circle class="cls-1" cx="4.496" cy="18.375" r="2.625"/><path class="cls-1" d="M7.744,23.249a4.268,4.268,0,0,0-6.5,0"/><circle class="cls-1" cx="19.496" cy="18.375" r="2.625"/><path class="cls-1" d="M22.75,23.256a4.269,4.269,0,0,0-6.5-.006"/><path class="cls-1" d="M9,10.5h6v-9a.75.75,0,0,0-.75-.75h-4.5A.75.75,0,0,0,9,1.5Z"/><line class="cls-1" x1="11.996" y1="4.5" x2="14.996" y2="4.5"/><line class="cls-1" x1="11.996" y1="7.5" x2="14.996" y2="7.5"/><line class="cls-1" x1="16.496" y1="10.5" x2="14.996" y2="10.5"/><line class="cls-1" x1="8.996" y1="10.5" x2="7.496" y2="10.5"/></svg>