<svg id="Regular" xmlns="http://www.w3.org/2000/svg" viewBox="0 0 24 24"><defs><style>.cls-1{fill:none;stroke:currentColor;stroke-linecap:round;stroke-linejoin:round;stroke-width:1.5px;}</style></defs><title>real-estate-favorite-heart-building</title><path class="cls-1" d="M12.153,22.25C7.868,18.532-1.05,9.49,1.5,4.387h0a5.673,5.673,0,0,1,9.086-1.474l1.566,1.565,1.566-1.565A5.672,5.672,0,0,1,22.8,4.387h0C25.338,9.458,16.444,18.575,12.153,22.25Z"/><path class="cls-1" d="M9.15,16.25h6V8a.75.75,0,0,0-.75-.75H9.9c-.373.1-.75.336-.75.75Z"/><line class="cls-1" x1="12.15" y1="10.25" x2="15.15" y2="10.25"/><line class="cls-1" x1="12.15" y1="13.25" x2="15.15" y2="13.25"/></svg>