<svg id="Regular" xmlns="http://www.w3.org/2000/svg" viewBox="0 0 24 24"><defs><style>.cls-1{fill:none;stroke:currentColor;stroke-linecap:round;stroke-linejoin:round;stroke-width:1.5px;}</style></defs><title>real-estate-favorite-hands-heart</title><path class="cls-1" d="M3.75,23,1.736,20.483A4.5,4.5,0,0,1,.75,17.671V12.5A1.5,1.5,0,0,1,2.25,11h0a1.5,1.5,0,0,1,1.5,1.5v3.75"/><path class="cls-1" d="M8.25,22.864v-3a4.493,4.493,0,0,0-.757-2.5L6.351,15.654a1.4,1.4,0,0,0-1.977-.445h0A1.4,1.4,0,0,0,3.9,17L5.25,19.25"/><path class="cls-1" d="M20.25,23l2.014-2.517a4.5,4.5,0,0,0,.986-2.812V12.5a1.5,1.5,0,0,0-1.5-1.5h0a1.5,1.5,0,0,0-1.5,1.5v3.75"/><path class="cls-1" d="M15.75,22.864v-3a4.493,4.493,0,0,1,.757-2.5l1.142-1.712a1.4,1.4,0,0,1,1.977-.445h0A1.4,1.4,0,0,1,20.1,17L18.75,19.25"/><path class="cls-1" d="M4.023,7.25l7.008-5.93a1.5,1.5,0,0,1,1.938,0L19.98,7.252"/><path class="cls-1" d="M15.93,8.589a1.9,1.9,0,0,0-2.751,0L12,9.808,10.821,8.589a1.9,1.9,0,0,0-2.751,0,2.06,2.06,0,0,0,0,2.845l3.511,3.631a.579.579,0,0,0,.838,0l3.511-3.631A2.06,2.06,0,0,0,15.93,8.589Z"/></svg>