<svg id="Regular" xmlns="http://www.w3.org/2000/svg" viewBox="0 0 24 24"><defs><style>.cls-1{fill:none;stroke:currentColor;stroke-linecap:round;stroke-linejoin:round;stroke-width:1.5px;}</style></defs><title>real-estate-market-calculator-building</title><path class="cls-1" d="M21.75,14.25a1.5,1.5,0,0,1,1.5,1.5V21.9A1.347,1.347,0,0,1,21.9,23.25H6.6A1.347,1.347,0,0,1,5.25,21.9V15.75a1.5,1.5,0,0,1,1.5-1.5Z"/><line class="cls-1" x1="14.25" y1="14.25" x2="14.25" y2="23.25"/><line class="cls-1" x1="9.75" y1="17.25" x2="9.75" y2="20.25"/><line class="cls-1" x1="8.25" y1="18.75" x2="11.25" y2="18.75"/><line class="cls-1" x1="17.25" y1="18.75" x2="20.25" y2="18.75"/><path class="cls-1" d="M.75,23.25V1.5A.75.75,0,0,1,1.763.8l8.25,4.27a.75.75,0,0,1,.487.7v5.481"/><line class="cls-1" x1="3" y1="5.251" x2="0.75" y2="5.251"/><line class="cls-1" x1="4.5" y1="8.251" x2="0.75" y2="8.251"/><line class="cls-1" x1="6.75" y1="11.25" x2="0.75" y2="11.25"/><line class="cls-1" x1="6.75" y1="3.379" x2="6.75" y2="0.751"/><path class="cls-1" d="M10.5,6.75h6A1.5,1.5,0,0,1,18,8.25v3"/></svg>