<svg id="Regular" xmlns="http://www.w3.org/2000/svg" viewBox="0 0 24 24"><defs><style>.cls-1{fill:none;stroke:currentColor;stroke-linecap:round;stroke-linejoin:round;stroke-width:1.5px;}</style></defs><title>real-estate-sign-house-sold</title><line class="cls-1" x1="3.75" y1="13.75" x2="3.75" y2="10.75"/><line class="cls-1" x1="17.25" y1="10.75" x2="17.25" y2="13.75"/><polyline class="cls-1" points="0.75 9.25 10.5 1 20.25 9.25"/><polyline class="cls-1" points="15.75 1.75 18.75 1.75 18.75 4.75"/><path class="cls-1" d="M9.75,16.75a1.5,1.5,0,0,0-1.5,1.5v3a1.5,1.5,0,0,0,3,0v-3A1.5,1.5,0,0,0,9.75,16.75Z"/><path class="cls-1" d="M14.25,16.75v4.5a1.5,1.5,0,0,0,1.5,1.5h1.5"/><path class="cls-1" d="M5.25,16.75H3.75a1.375,1.375,0,0,0-1.5,1.2c0,1.8,3,1.8,3,3.6a1.375,1.375,0,0,1-1.5,1.2H2.25"/><path class="cls-1" d="M20.25,22.75a2.751,2.751,0,0,0,3-2.4v-1.2a2.751,2.751,0,0,0-3-2.4Z"/></svg>