<svg id="Regular" xmlns="http://www.w3.org/2000/svg" viewBox="0 0 24 24"><defs><style>.cls-1{fill:none;stroke:currentColor;stroke-linecap:round;stroke-linejoin:round;stroke-width:1.5px;}</style></defs><title>real-estate-message-building-1</title><path class="cls-1" d="M21.75,18.75H11.25l-6,4.5v-4.5h-3a1.5,1.5,0,0,1-1.5-1.5v-15A1.5,1.5,0,0,1,2.25.75h19.5a1.5,1.5,0,0,1,1.5,1.5v15A1.5,1.5,0,0,1,21.75,18.75Z"/><path class="cls-1" d="M9,14.25h6v-9a.75.75,0,0,0-.75-.75H9.75A.75.75,0,0,0,9,5.25Z"/><line class="cls-1" x1="12" y1="7.5" x2="15" y2="7.5"/><line class="cls-1" x1="12" y1="10.5" x2="15" y2="10.5"/><line class="cls-1" x1="16.5" y1="14.25" x2="15" y2="14.25"/><line class="cls-1" x1="9" y1="14.25" x2="7.5" y2="14.25"/></svg>