<svg id="Regular" xmlns="http://www.w3.org/2000/svg" viewBox="0 0 24 24"><defs><style>.cls-1{fill:none;stroke:currentColor;stroke-linecap:round;stroke-linejoin:round;stroke-width:1.5px;}</style></defs><title>real-estate-deal-key-1</title><polyline class="cls-1" points="11.379 5.871 2.893 14.357 0.772 12.235"/><line class="cls-1" x1="2.893" y1="10.114" x2="5.015" y2="12.235"/><path class="cls-1" d="M13.5,6.75a3,3,0,1,1,2.123-5.121,3.029,3.029,0,0,1,.478.621"/><path class="cls-1" d="M11.25,18v3.75a1.5,1.5,0,0,0,1.5,1.5h6a1.5,1.5,0,0,0,1.5-1.5V18"/><path class="cls-1" d="M23.25,17.25l-6.5-5.847a1.5,1.5,0,0,0-2.006,0L8.25,17.25"/><line class="cls-1" x1="21.75" y1="15.9" x2="21.75" y2="12"/><path class="cls-1" d="M13.5,3.75h0A2.25,2.25,0,0,1,15.75,6v9"/></svg>