<svg id="Regular" xmlns="http://www.w3.org/2000/svg" viewBox="0 0 24 24"><defs><style>.cls-1{fill:none;stroke:currentColor;stroke-linecap:round;stroke-linejoin:round;stroke-width:1.5px;}</style></defs><title>real-estate-favorite-house-rating</title><path class="cls-1" d="M12.531,1.076l1.248,2.457h2.127a.583.583,0,0,1,.419,1L14.373,6.452l1.081,2.485a.589.589,0,0,1-.839.736L12,8.2,9.385,9.673a.589.589,0,0,1-.839-.736L9.628,6.452,7.675,4.53a.583.583,0,0,1,.419-1h2.127L11.47,1.076A.594.594,0,0,1,12.531,1.076Z"/><path class="cls-1" d="M5.25,2.25a.588.588,0,0,0-.53.326L3.471,5.033H1.344a.583.583,0,0,0-.419,1L2.878,7.952,1.8,10.437a.589.589,0,0,0,.839.736L5.25,9.7l.692.389"/><path class="cls-1" d="M18.75,2.25a.59.59,0,0,1,.531.326l1.248,2.457h2.127a.583.583,0,0,1,.419,1L21.122,7.952,22.2,10.437a.589.589,0,0,1-.839.736L18.75,9.7l-.692.389"/><path class="cls-1" d="M7.5,18.235v3.518a1.5,1.5,0,0,0,1.5,1.5h6a1.5,1.5,0,0,0,1.5-1.5V18.235"/><path class="cls-1" d="M19.5,17.485,13,11.638a1.5,1.5,0,0,0-2.006,0L4.5,17.485"/></svg>