<svg id="Regular" xmlns="http://www.w3.org/2000/svg" viewBox="0 0 24 24"><defs><style>.cls-1{fill:none;stroke:currentColor;stroke-linecap:round;stroke-linejoin:round;stroke-width:1.5px;}</style></defs><title>real-estate-building-person</title><circle class="cls-1" cx="19.5" cy="6.75" r="3"/><path class="cls-1" d="M23.25,17.25V15a3.75,3.75,0,0,0-7.5,0v2.25h1.5l.75,6h3l.75-6Z"/><path class="cls-1" d="M9,13.5H2.25V5.75a.5.5,0,0,1,.5-.5H8.5a.5.5,0,0,1,.5.5Z"/><path class="cls-1" d="M9,13.5h5.25V1.5A.75.75,0,0,0,13.5.75H6.75A.75.75,0,0,0,6,1.5V5.25"/><line class="cls-1" x1="2.25" y1="13.5" x2="0.75" y2="13.5"/><line class="cls-1" x1="6" y1="8.25" x2="9" y2="8.25"/><line class="cls-1" x1="12" y1="5.25" x2="14.25" y2="5.25"/><line class="cls-1" x1="12" y1="8.25" x2="14.25" y2="8.25"/></svg>