<svg id="Regular" xmlns="http://www.w3.org/2000/svg" viewBox="0 0 24 24"><defs><style>.cls-1{fill:none;stroke:currentColor;stroke-linecap:round;stroke-linejoin:round;stroke-width:1.5px;}</style></defs><title>real-estate-insurance-dollar-hand</title><line class="cls-1" x1="0.75" y1="14.25" x2="0.75" y2="23.25"/><path class="cls-1" d="M15.75,21.75a3,3,0,0,0-3-3H9a3,3,0,0,0-3-3H.75v6Z"/><line class="cls-1" x1="6" y1="18.75" x2="9" y2="18.75"/><path class="cls-1" d="M10.5,9v5.25a1.5,1.5,0,0,0,1.5,1.5h7.5a1.5,1.5,0,0,0,1.5-1.5V9"/><path class="cls-1" d="M23.25,6.982l-6.5-5.847a1.5,1.5,0,0,0-2.006,0L8.25,6.982"/><path class="cls-1" d="M17.25,6H14.842a1.342,1.342,0,0,0-.5,2.587l2.814.826a1.342,1.342,0,0,1-.5,2.587H14.25"/><line class="cls-1" x1="15.75" y1="6" x2="15.75" y2="5.25"/><line class="cls-1" x1="15.75" y1="12.75" x2="15.75" y2="12"/></svg>