<svg id="Regular" xmlns="http://www.w3.org/2000/svg" viewBox="0 0 24 24"><defs><style>.cls-1{fill:none;stroke:currentColor;stroke-linecap:round;stroke-linejoin:round;stroke-width:1.5px;}</style></defs><title>real-estate-sign-rent-1</title><line class="cls-1" x1="20.999" y1="9.75" x2="20.999" y2="3.75"/><line class="cls-1" x1="19.499" y1="3.75" x2="22.499" y2="3.75"/><line class="cls-1" x1="1.499" y1="9.75" x2="1.499" y2="3.75"/><path class="cls-1" d="M1.5,3.75H2.624a1.875,1.875,0,0,1,0,3.75H1.5"/><line class="cls-1" x1="4.499" y1="9.75" x2="2.249" y2="7.5"/><polyline class="cls-1" points="13.499 9.75 13.499 3.75 16.499 9.75 16.499 3.75"/><path class="cls-1" d="M10.5,9.75H9a1.5,1.5,0,0,1-1.5-1.5v-3A1.5,1.5,0,0,1,9,3.75h1.5"/><line class="cls-1" x1="7.499" y1="6.75" x2="10.499" y2="6.75"/><line class="cls-1" x1="0.749" y1="0.75" x2="23.249" y2="0.75"/><line class="cls-1" x1="23.25" y1="12.75" x2="0.75" y2="12.75"/><line class="cls-1" x1="12" y1="12.75" x2="12" y2="21"/><path class="cls-1" d="M.75,23.25a29.25,29.25,0,0,1,22.5,0"/></svg>