<svg id="Regular" xmlns="http://www.w3.org/2000/svg" viewBox="0 0 24 24"><defs><style>.cls-1{fill:none;stroke:currentColor;stroke-linecap:round;stroke-linejoin:round;stroke-width:1.5px;}</style></defs><title>real-estate-message-chat-house</title><path class="cls-1" d="M17.25,15.75h-6l-6,4.5v-4.5h-3a1.5,1.5,0,0,1-1.5-1.5v-12A1.5,1.5,0,0,1,2.25.75h15a1.5,1.5,0,0,1,1.5,1.5v12A1.5,1.5,0,0,1,17.25,15.75Z"/><path class="cls-1" d="M21,8.25h.75a1.5,1.5,0,0,1,1.5,1.5v7.5a1.5,1.5,0,0,1-1.5,1.5h-1.5v4.5l-4.5-4.5H12"/><path class="cls-1" d="M12.75,6.25v5A.75.75,0,0,1,12,12H7.5a.75.75,0,0,1-.75-.75v-5"/><polyline class="cls-1" points="5.25 7.5 9.75 3.75 14.25 7.5"/></svg>