<svg id="Regular" xmlns="http://www.w3.org/2000/svg" viewBox="0 0 24 24"><defs><style>.cls-1{fill:none;stroke:currentColor;stroke-linecap:round;stroke-linejoin:round;stroke-width:1.5px;}</style></defs><title>real-estate-sign-board-rent</title><line class="cls-1" x1="1.5" y1="8.25" x2="22.5" y2="8.25"/><line class="cls-1" x1="1.5" y1="20.25" x2="22.5" y2="20.25"/><path class="cls-1" d="M7.5,8.25l3.9-5.2a.75.75,0,0,1,1.2,0l3.9,5.2"/><line class="cls-1" x1="21" y1="17.25" x2="21" y2="11.25"/><line class="cls-1" x1="19.5" y1="11.25" x2="22.5" y2="11.25"/><line class="cls-1" x1="1.5" y1="17.25" x2="1.5" y2="11.25"/><path class="cls-1" d="M1.5,11.25H2.625a1.875,1.875,0,0,1,0,3.75H1.5"/><line class="cls-1" x1="4.5" y1="17.25" x2="2.25" y2="15"/><polyline class="cls-1" points="13.5 17.25 13.5 11.25 16.5 17.25 16.5 11.25"/><path class="cls-1" d="M10.5,17.25H9a1.5,1.5,0,0,1-1.5-1.5v-3A1.5,1.5,0,0,1,9,11.25h1.5"/><line class="cls-1" x1="7.5" y1="14.25" x2="10.5" y2="14.25"/></svg>