<svg id="Regular" xmlns="http://www.w3.org/2000/svg" viewBox="0 0 24 24"><defs><style>.cls-1{fill:none;stroke:currentColor;stroke-linecap:round;stroke-linejoin:round;stroke-width:1.5px;}</style></defs><title>real-estate-neighbourhood</title><path class="cls-1" d="M15,3.75v5a.75.75,0,0,1-.75.75H9.75A.75.75,0,0,1,9,8.75v-5"/><polyline class="cls-1" points="7.5 5 12 1.25 16.5 5"/><path class="cls-1" d="M21.75,17.25v5A.75.75,0,0,1,21,23H16.5a.75.75,0,0,1-.75-.75v-5"/><polyline class="cls-1" points="14.25 18.5 18.75 14.75 23.25 18.5"/><path class="cls-1" d="M8.25,17.25v5A.75.75,0,0,1,7.5,23H3a.75.75,0,0,1-.75-.75v-5"/><polyline class="cls-1" points="0.75 18.5 5.25 14.75 9.75 18.5"/></svg>