<svg id="Regular" xmlns="http://www.w3.org/2000/svg" viewBox="0 0 24 24"><defs><style>.cls-1{fill:none;stroke:currentColor;stroke-linecap:round;stroke-linejoin:round;stroke-width:1.5px;}</style></defs><title>real-estate-dimensions-plan-1</title><path class="cls-1" d="M13.5,11.25V22.5a.75.75,0,0,1-.75.75H1.5a.75.75,0,0,1-.75-.75V12a.75.75,0,0,1,.75-.75H6.75"/><path class="cls-1" d="M4.5,11.25V1.5A.75.75,0,0,1,5.25.75h10.5a.75.75,0,0,1,.75.75v9a.75.75,0,0,1-.75.75h-4.5"/><path class="cls-1" d="M16.5,6h6a.75.75,0,0,1,.75.75v9a.75.75,0,0,1-.75.75h-9"/><polyline class="cls-1" points="0.75 17.25 6 17.25 6 23.25"/><line class="cls-1" x1="6" y1="20.25" x2="0.75" y2="20.25"/></svg>