<svg id="Regular" xmlns="http://www.w3.org/2000/svg" viewBox="0 0 24 24"><defs><style>.cls-1{fill:none;stroke:currentColor;stroke-linecap:round;stroke-linejoin:round;stroke-width:1.5px;}</style></defs><title>real-estate-deal-document</title><path class="cls-1" d="M23.25,17.25a6,6,0,1,1-6-6"/><path class="cls-1" d="M23.25,12.75l-5.47,5.469a.749.749,0,0,1-1.06,0L15,16.5"/><path class="cls-1" d="M10.5,23.25H2.247a1.5,1.5,0,0,1-1.5-1.5V2.25a1.5,1.5,0,0,1,1.5-1.5H18a1.5,1.5,0,0,1,1.5,1.5v7.5"/><path class="cls-1" d="M8.991,13.279h-3a.75.75,0,0,1-.75-.75v-2.25"/><polyline class="cls-1" points="3.741 8.029 8.241 4.279 12.741 8.029"/></svg>