<svg id="Regular" xmlns="http://www.w3.org/2000/svg" viewBox="0 0 24 24"><defs><style>.cls-1{fill:none;stroke:currentColor;stroke-linecap:round;stroke-linejoin:round;stroke-width:1.5px;}</style></defs><title>real-estate-action-building-star</title><path class="cls-1" d="M17.947,11.68l1.541,4.07h3a.735.735,0,0,1,.518,1.283l-2.6,1.816,1.442,3.313a.786.786,0,0,1-1.119.982L17.24,21.183l-3.487,1.961a.786.786,0,0,1-1.119-.982l1.443-3.313-2.6-1.816a.734.734,0,0,1,.515-1.283h3l1.544-4.07A.8.8,0,0,1,17.947,11.68Z"/><path class="cls-1" d="M15.729,8.25V1.5A.751.751,0,0,0,14.715.8l-8.25,4.27a.751.751,0,0,0-.486.7V9.75"/><line class="cls-1" x1="13.479" y1="5.25" x2="15.729" y2="5.25"/><line class="cls-1" x1="11.979" y1="8.25" x2="15.729" y2="8.25"/><line class="cls-1" x1="0.729" y1="12.75" x2="2.979" y2="12.75"/><line class="cls-1" x1="0.729" y1="15.75" x2="4.479" y2="15.75"/><line class="cls-1" x1="8.229" y1="4.156" x2="8.229" y2="0.751"/><path class="cls-1" d="M8.229,23.25v-12a1.5,1.5,0,0,0-1.5-1.5h-4.5a1.5,1.5,0,0,0-1.5,1.5v12h9"/></svg>