<svg id="Regular" xmlns="http://www.w3.org/2000/svg" viewBox="0 0 24 24"><defs><style>.cls-1{fill:none;stroke:currentColor;stroke-linecap:round;stroke-linejoin:round;stroke-width:1.5px;}</style></defs><title>real-estate-building-house</title><path class="cls-1" d="M11.25,14.781v6.968a1.5,1.5,0,0,0,1.5,1.5h6a1.5,1.5,0,0,0,1.5-1.5V14.781"/><path class="cls-1" d="M23.25,17.481l-6.5-5.847a1.5,1.5,0,0,0-2.006,0l-6.5,5.847"/><path class="cls-1" d="M8.25,23.25h-6V1.5A.749.749,0,0,1,3.263.8l10.5,4.27a.748.748,0,0,1,.487.7V8.25"/><line class="cls-1" x1="2.25" y1="23.25" x2="0.75" y2="23.25"/><line class="cls-1" x1="4.5" y1="6" x2="2.25" y2="6"/><line class="cls-1" x1="6" y1="9" x2="2.25" y2="9"/><line class="cls-1" x1="8.25" y1="12" x2="2.25" y2="12"/><line class="cls-1" x1="10.5" y1="3.74" x2="10.5" y2="0.75"/></svg>