<svg id="Regular" xmlns="http://www.w3.org/2000/svg" viewBox="0 0 24 24"><defs><style>.cls-1{fill:none;stroke:currentColor;stroke-linecap:round;stroke-linejoin:round;stroke-width:1.5px;}</style></defs><title>real-estate-favorite-hold-building</title><path class="cls-1" d="M3.75,22.5,1.736,19.983A4.5,4.5,0,0,1,.75,17.171V12a1.5,1.5,0,0,1,1.5-1.5h0A1.5,1.5,0,0,1,3.75,12v3.75"/><path class="cls-1" d="M8.25,22.364v-3a4.493,4.493,0,0,0-.757-2.5L6.351,15.154a1.4,1.4,0,0,0-1.977-.445h0A1.4,1.4,0,0,0,3.9,16.5L5.25,18.75"/><path class="cls-1" d="M20.25,22.5l2.014-2.517a4.5,4.5,0,0,0,.986-2.812V12a1.5,1.5,0,0,0-1.5-1.5h0a1.5,1.5,0,0,0-1.5,1.5v3.75"/><path class="cls-1" d="M15.75,22.364v-3a4.493,4.493,0,0,1,.757-2.5l1.142-1.712a1.4,1.4,0,0,1,1.977-.445h0A1.4,1.4,0,0,1,20.1,16.5L18.75,18.75"/><path class="cls-1" d="M8.25,12h7.5V2.25A.75.75,0,0,0,15,1.5H9a.75.75,0,0,0-.75.75Z"/><line class="cls-1" x1="12" y1="4.5" x2="15.75" y2="4.5"/><line class="cls-1" x1="12" y1="7.5" x2="15.75" y2="7.5"/><line class="cls-1" x1="17.25" y1="12" x2="15.75" y2="12"/><line class="cls-1" x1="8.25" y1="12" x2="6.75" y2="12"/></svg>