<svg id="Regular" xmlns="http://www.w3.org/2000/svg" viewBox="0 0 24 24"><defs><style>.cls-1{fill:none;stroke:currentColor;stroke-linecap:round;stroke-linejoin:round;stroke-width:1.5px;}</style></defs><title>real-estate-search-house-2</title><circle class="cls-1" cx="15.75" cy="8.25" r="7.5"/><path class="cls-1" d="M6.749,15H6a.75.75,0,0,0-.75.75v7.5H12V18"/><path class="cls-1" d="M5.25,23.25H.75V4.5a.75.75,0,0,1,.75-.75H6.75"/><line class="cls-1" x1="8.25" y1="18" x2="5.25" y2="18"/><line class="cls-1" x1="3" y1="8.25" x2="0.75" y2="8.25"/><line class="cls-1" x1="5.25" y1="11.25" x2="0.75" y2="11.25"/><polyline class="cls-1" points="12 18.75 15.75 20.25 15.75 23.25"/><line class="cls-1" x1="2.25" y1="3.75" x2="2.25" y2="0.75"/><line class="cls-1" x1="5.25" y1="2.25" x2="5.25" y2="3.75"/><path class="cls-1" d="M18.75,6.25v5A.75.75,0,0,1,18,12H13.5a.75.75,0,0,1-.75-.75v-5"/><polyline class="cls-1" points="11.25 7.5 15.75 3.75 20.25 7.5"/></svg>