<svg id="Regular" xmlns="http://www.w3.org/2000/svg" viewBox="0 0 24 24"><defs><style>.cls-1{fill:none;stroke:currentColor;stroke-linecap:round;stroke-linejoin:round;stroke-width:1.5px;}</style></defs><title>real-estate-action-house-key</title><path class="cls-1" d="M8.25,19.535h-3a1.5,1.5,0,0,1-1.5-1.5v-7.5"/><path class="cls-1" d="M.75,9.035l8.781-7.43a1.5,1.5,0,0,1,1.938,0l7.279,6.159"/><polyline class="cls-1" points="15.75 1.535 18.75 1.535 18.75 4.535"/><path class="cls-1" d="M15.64,18.21a.375.375,0,1,1-.53,0,.374.374,0,0,1,.53,0"/><path class="cls-1" d="M19.087,17l3.687-3.687a1.624,1.624,0,0,0-2.3-2.3L16.79,14.7a4.06,4.06,0,1,0,2.3,2.3Z"/></svg>