<svg id="Regular" xmlns="http://www.w3.org/2000/svg" viewBox="0 0 24 24"><defs><style>.cls-1{fill:none;stroke:currentColor;stroke-linecap:round;stroke-linejoin:round;stroke-width:1.5px;}</style></defs><title>real-estate-sign-sold</title><path class="cls-1" d="M9,3.75a1.5,1.5,0,0,0-1.5,1.5v3a1.5,1.5,0,1,0,3,0v-3A1.5,1.5,0,0,0,9,3.75Z"/><path class="cls-1" d="M13.5,3.75v4.5A1.5,1.5,0,0,0,15,9.75h1.5"/><path class="cls-1" d="M4.5,3.75H3a1.375,1.375,0,0,0-1.5,1.2c0,1.8,3,1.8,3,3.6A1.375,1.375,0,0,1,3,9.75H1.5"/><path class="cls-1" d="M19.5,9.75a2.751,2.751,0,0,0,3-2.4V6.15a2.75,2.75,0,0,0-3-2.4Z"/><line class="cls-1" x1="12" y1="12.75" x2="12" y2="21"/><path class="cls-1" d="M.75,23.25a29.25,29.25,0,0,1,22.5,0"/><line class="cls-1" x1="0.75" y1="0.75" x2="23.25" y2="0.75"/><line class="cls-1" x1="23.25" y1="12.75" x2="0.75" y2="12.75"/></svg>