<svg id="Regular" xmlns="http://www.w3.org/2000/svg" viewBox="0 0 24 24"><defs><style>.cls-1{fill:none;stroke:currentColor;stroke-linecap:round;stroke-linejoin:round;stroke-width:1.5px;}</style></defs><title>real-estate-sign-sale</title><path class="cls-1" d="M13.5,5V9.5A1.5,1.5,0,0,0,15,11h1.5"/><path class="cls-1" d="M4.5,5H3A1.375,1.375,0,0,0,1.5,6.2c0,1.8,3,1.8,3,3.6A1.375,1.375,0,0,1,3,11H1.5"/><path class="cls-1" d="M7.5,11V6.5a1.5,1.5,0,0,1,3,0V11"/><line class="cls-1" x1="7.5" y1="8" x2="10.5" y2="8"/><path class="cls-1" d="M22.5,11H21a1.5,1.5,0,0,1-1.5-1.5v-3A1.5,1.5,0,0,1,21,5h1.5"/><line class="cls-1" x1="19.5" y1="8" x2="22.5" y2="8"/><line class="cls-1" x1="1.5" y1="2" x2="22.5" y2="2"/><line class="cls-1" x1="1.5" y1="14" x2="22.5" y2="14"/><line class="cls-1" x1="5.25" y1="14" x2="5.25" y2="22.25"/><line class="cls-1" x1="18.75" y1="14" x2="18.75" y2="22.25"/></svg>