<svg id="Regular" xmlns="http://www.w3.org/2000/svg" viewBox="0 0 24 24"><defs><style>.cls-1{fill:none;stroke:currentColor;stroke-linecap:round;stroke-linejoin:round;stroke-width:1.5px;}</style></defs><title>real-estate-market-building-fall</title><polyline class="cls-1" points="15.75 19.5 15.75 23.25 12 23.25"/><path class="cls-1" d="M.75,14.25l3.97,3.97a.749.749,0,0,0,1.06,0l1.94-1.94a.749.749,0,0,1,1.06,0l6.97,6.97"/><path class="cls-1" d="M8.25,12.75V1.5A.75.75,0,0,1,9.263.8l8.25,4.27a.75.75,0,0,1,.487.7V9.75"/><line class="cls-1" x1="10.5" y1="5.25" x2="8.25" y2="5.25"/><line class="cls-1" x1="12" y1="8.25" x2="8.25" y2="8.25"/><line class="cls-1" x1="23.25" y1="12.75" x2="21" y2="12.75"/><line class="cls-1" x1="23.25" y1="15.75" x2="19.5" y2="15.75"/><line class="cls-1" x1="15.75" y1="4.156" x2="15.75" y2="0.751"/><path class="cls-1" d="M15.75,16.5V11.25a1.5,1.5,0,0,1,1.5-1.5h4.5a1.5,1.5,0,0,1,1.5,1.5v12h-3"/></svg>