<svg id="Regular" xmlns="http://www.w3.org/2000/svg" viewBox="0 0 24 24"><defs><style>.cls-1{fill:none;stroke:currentColor;stroke-linecap:round;stroke-linejoin:round;stroke-width:1.5px;}</style></defs><title>real-estate-sign-building-rent</title><line class="cls-1" x1="21" y1="23.25" x2="21" y2="17.25"/><line class="cls-1" x1="19.5" y1="17.25" x2="22.5" y2="17.25"/><line class="cls-1" x1="1.5" y1="23.25" x2="1.5" y2="17.25"/><path class="cls-1" d="M1.5,17.25H2.625a1.875,1.875,0,0,1,0,3.75H1.5"/><line class="cls-1" x1="4.5" y1="23.25" x2="2.25" y2="21"/><polyline class="cls-1" points="13.5 23.25 13.5 17.25 16.5 23.25 16.5 17.25"/><path class="cls-1" d="M10.5,23.25H9a1.5,1.5,0,0,1-1.5-1.5v-3A1.5,1.5,0,0,1,9,17.25h1.5"/><line class="cls-1" x1="7.5" y1="20.25" x2="10.5" y2="20.25"/><path class="cls-1" d="M3.75,14.25V1.5A.75.75,0,0,1,4.763.8l8.25,4.27a.75.75,0,0,1,.487.7v8.48"/><line class="cls-1" x1="6" y1="5.251" x2="3.75" y2="5.251"/><line class="cls-1" x1="7.5" y1="8.251" x2="3.75" y2="8.251"/><line class="cls-1" x1="17.25" y1="9.75" x2="13.5" y2="9.75"/><line class="cls-1" x1="17.25" y1="12.75" x2="13.5" y2="12.75"/><line class="cls-1" x1="9.75" y1="3.379" x2="9.75" y2="0.751"/><path class="cls-1" d="M13.5,6.75h6A1.5,1.5,0,0,1,21,8.25v6"/></svg>