<svg id="Regular" xmlns="http://www.w3.org/2000/svg" viewBox="0 0 24 24"><defs><style>.cls-1{fill:none;stroke:currentColor;stroke-linecap:round;stroke-linejoin:round;stroke-width:1.5px;}</style></defs><title>real-estate-sign-for-rent</title><path class="cls-1" d="M4.5,10.5V6A1.5,1.5,0,0,1,6,4.5H7.5"/><line class="cls-1" x1="4.5" y1="7.5" x2="6.75" y2="7.5"/><line class="cls-1" x1="16.5" y1="10.5" x2="16.5" y2="4.5"/><path class="cls-1" d="M16.5,4.5h1.125a1.875,1.875,0,0,1,0,3.75H16.5"/><line class="cls-1" x1="19.5" y1="10.5" x2="17.25" y2="8.25"/><path class="cls-1" d="M12,4.5A1.5,1.5,0,0,0,10.5,6V9a1.5,1.5,0,0,0,3,0V6A1.5,1.5,0,0,0,12,4.5Z"/><line class="cls-1" x1="1.5" y1="1.5" x2="22.5" y2="1.5"/><line class="cls-1" x1="1.5" y1="22.5" x2="22.5" y2="22.5"/><line class="cls-1" x1="21" y1="19.5" x2="21" y2="13.5"/><line class="cls-1" x1="19.5" y1="13.5" x2="22.5" y2="13.5"/><line class="cls-1" x1="1.5" y1="19.5" x2="1.5" y2="13.5"/><path class="cls-1" d="M1.5,13.5H2.625a1.875,1.875,0,0,1,0,3.75H1.5"/><line class="cls-1" x1="4.5" y1="19.5" x2="2.25" y2="17.25"/><polyline class="cls-1" points="13.5 19.5 13.5 13.5 16.5 19.5 16.5 13.5"/><path class="cls-1" d="M10.5,19.5H9A1.5,1.5,0,0,1,7.5,18V15A1.5,1.5,0,0,1,9,13.5h1.5"/><line class="cls-1" x1="7.5" y1="16.5" x2="10.5" y2="16.5"/></svg>