<svg id="Regular" xmlns="http://www.w3.org/2000/svg" viewBox="0 0 24 24"><defs><style>.cls-1{fill:none;stroke:currentColor;stroke-linecap:round;stroke-linejoin:round;stroke-width:1.5px;}</style></defs><title>real-estate-action-house-percent</title><path class="cls-1" d="M8.25,19.535h-3a1.5,1.5,0,0,1-1.5-1.5v-7.5"/><path class="cls-1" d="M.75,9.035l8.781-7.43a1.5,1.5,0,0,1,1.938,0l7.284,6.164"/><polyline class="cls-1" points="15.75 1.535 18.75 1.535 18.75 4.535"/><circle class="cls-1" cx="17.25" cy="16.535" r="6"/><line class="cls-1" x1="15" y1="18.784" x2="19.5" y2="14.285"/><path class="cls-1" d="M15,13.91a.375.375,0,1,1-.375.375A.375.375,0,0,1,15,13.91"/><path class="cls-1" d="M19.5,18.41a.375.375,0,1,1-.375.375.375.375,0,0,1,.375-.375"/></svg>