<svg id="Regular" xmlns="http://www.w3.org/2000/svg" viewBox="0 0 24 24"><defs><style>.cls-1{fill:none;stroke:currentColor;stroke-linecap:round;stroke-linejoin:round;stroke-width:1.5px;}</style></defs><title>real-estate-message-house-1</title><path class="cls-1" d="M21.75,18.75H11.25l-6,4.5v-4.5h-3a1.5,1.5,0,0,1-1.5-1.5v-15A1.5,1.5,0,0,1,2.25.75h19.5a1.5,1.5,0,0,1,1.5,1.5v15A1.5,1.5,0,0,1,21.75,18.75Z"/><path class="cls-1" d="M15,7.75v5a.75.75,0,0,1-.75.75H9.75A.75.75,0,0,1,9,12.75v-5"/><polyline class="cls-1" points="7.5 9 12 5.25 16.5 9"/></svg>