<svg id="Regular" xmlns="http://www.w3.org/2000/svg" viewBox="0 0 24 24"><defs><style>.cls-1{fill:none;stroke:currentColor;stroke-linecap:round;stroke-linejoin:round;stroke-width:1.5px;}</style></defs><title>real-estate-sign-building-sale</title><path class="cls-1" d="M13.5,17.25v4.5a1.5,1.5,0,0,0,1.5,1.5h1.5"/><path class="cls-1" d="M4.5,17.25H3a1.375,1.375,0,0,0-1.5,1.2c0,1.8,3,1.8,3,3.6A1.375,1.375,0,0,1,3,23.25H1.5"/><path class="cls-1" d="M7.5,23.25v-4.5a1.5,1.5,0,0,1,3,0v4.5"/><line class="cls-1" x1="7.5" y1="20.25" x2="10.5" y2="20.25"/><path class="cls-1" d="M22.5,23.25H21a1.5,1.5,0,0,1-1.5-1.5v-3a1.5,1.5,0,0,1,1.5-1.5h1.5"/><line class="cls-1" x1="19.5" y1="20.25" x2="22.5" y2="20.25"/><path class="cls-1" d="M3.751,14.25V1.5A.75.75,0,0,1,4.764.8l8.25,4.27a.75.75,0,0,1,.487.7v8.48"/><line class="cls-1" x1="6.001" y1="5.251" x2="3.751" y2="5.251"/><line class="cls-1" x1="7.501" y1="8.251" x2="3.751" y2="8.251"/><line class="cls-1" x1="17.251" y1="9.75" x2="13.501" y2="9.75"/><line class="cls-1" x1="17.251" y1="12.75" x2="13.501" y2="12.75"/><line class="cls-1" x1="9.751" y1="3.379" x2="9.751" y2="0.751"/><path class="cls-1" d="M13.5,6.75h6A1.5,1.5,0,0,1,21,8.25v6"/></svg>