<svg id="Regular" xmlns="http://www.w3.org/2000/svg" viewBox="0 0 24 24"><defs><style>.cls-1{fill:none;stroke:currentColor;stroke-linecap:round;stroke-linejoin:round;stroke-width:1.5px;}</style></defs><title>real-estate-location-building-pin</title><circle class="cls-1" cx="8.25" cy="8.25" r="3.75"/><path class="cls-1" d="M6.878,21.75C4.714,18.285.75,11.261.75,8.25A7.5,7.5,0,0,1,15.406,6"/><path class="cls-1" d="M11.75,15H17.5a.5.5,0,0,1,.5.5v7.75a0,0,0,0,1,0,0H11.25a0,0,0,0,1,0,0V15.5A.5.5,0,0,1,11.75,15Z"/><path class="cls-1" d="M18,23.25h5.25V9.75A.75.75,0,0,0,22.5,9H15.75a.75.75,0,0,0-.75.75V15"/><line class="cls-1" x1="11.25" y1="23.25" x2="9.75" y2="23.25"/><line class="cls-1" x1="15" y1="18" x2="18" y2="18"/><line class="cls-1" x1="21" y1="12" x2="23.25" y2="12"/><line class="cls-1" x1="21" y1="15" x2="23.25" y2="15"/></svg>