<svg id="Regular" xmlns="http://www.w3.org/2000/svg" viewBox="0 0 24 24"><defs><style>.cls-1{fill:none;stroke:currentColor;stroke-linecap:round;stroke-linejoin:round;stroke-width:1.5px;}</style></defs><title>real-estate-market-building</title><path class="cls-1" d="M11.75,15H17.5a.5.5,0,0,1,.5.5v7.75a0,0,0,0,1,0,0H11.25a0,0,0,0,1,0,0V15.5A.5.5,0,0,1,11.75,15Z"/><path class="cls-1" d="M18,23.25h5.25v-12a.75.75,0,0,0-.75-.75H15.75a.75.75,0,0,0-.75.75V15"/><line class="cls-1" x1="11.25" y1="23.25" x2="9.75" y2="23.25"/><line class="cls-1" x1="15" y1="18" x2="18" y2="18"/><line class="cls-1" x1="21" y1="15" x2="23.25" y2="15"/><line class="cls-1" x1="21" y1="18" x2="23.25" y2="18"/><line class="cls-1" x1="10.5" y1="0.75" x2="10.5" y2="5.25"/><line class="cls-1" x1="1.223" y1="7.5" x2="5.505" y2="8.885"/><path class="cls-1" d="M7.8,15a5.25,5.25,0,1,1,7.011-7.5"/><path class="cls-1" d="M7.5,19.78A9.752,9.752,0,1,1,19.78,7.5"/></svg>