<svg xmlns="http://www.w3.org/2000/svg" viewBox="0 0 24 24"><defs><style>.a{fill:none;stroke:currentColor;stroke-linecap:round;stroke-linejoin:round;stroke-width:1.5px;}</style></defs><title>receipt-1</title><line class="a" x1="7.5" y1="4.5" x2="9.75" y2="4.5"/><line class="a" x1="8.25" y1="8.25" x2="14.25" y2="8.25"/><line class="a" x1="8.25" y1="12" x2="14.25" y2="12"/><line class="a" x1="8.25" y1="15.75" x2="14.25" y2="15.75"/><line class="a" x1="8.25" y1="19.5" x2="11.25" y2="19.5"/><path class="a" d="M19.5.75H21a1.5,1.5,0,0,1,1.5,1.5V6.5a1,1,0,0,1-1,1H18a0,0,0,0,1,0,0V2.25A1.5,1.5,0,0,1,19.5.75Z"/><path class="a" d="M20.25.75H7.5a3,3,0,0,0-3,3v15c0,3-1.5,3.876-3,4.5h12a4.5,4.5,0,0,0,4.5-4.5V7.5"/></svg>