<svg xmlns="http://www.w3.org/2000/svg" viewBox="0 0 24 24"><defs><style>.a{fill:none;stroke:currentColor;stroke-linecap:round;stroke-linejoin:round;stroke-width:1.5px;}</style></defs><title>receipt-slip</title><path class="a" d="M16.5,23.25a2.605,2.605,0,0,1,4.5,0"/><path class="a" d="M12,23.25a2.605,2.605,0,0,1,4.5,0"/><path class="a" d="M21,23.25V.75a2.614,2.614,0,0,1-2.25,1.293A2.613,2.613,0,0,1,16.5.75a2.614,2.614,0,0,1-2.25,1.293A2.613,2.613,0,0,1,12,.75,2.614,2.614,0,0,1,9.75,2.043,2.613,2.613,0,0,1,7.5.75,2.614,2.614,0,0,1,5.25,2.043,2.613,2.613,0,0,1,3,.75v22.5a2.605,2.605,0,0,1,4.5,0,2.605,2.605,0,0,1,4.5,0"/><line class="a" x1="6" y1="6.75" x2="12" y2="6.75"/><line class="a" x1="6" y1="11.25" x2="12" y2="11.25"/><line class="a" x1="6" y1="15.75" x2="12" y2="15.75"/><line class="a" x1="16.5" y1="6.75" x2="18" y2="6.75"/><line class="a" x1="16.5" y1="11.25" x2="18" y2="11.25"/><line class="a" x1="16.5" y1="15.75" x2="18" y2="15.75"/></svg>