<svg xmlns="http://www.w3.org/2000/svg" viewBox="0 0 24 24"><defs><style>.a{fill:none;stroke:currentColor;stroke-linecap:round;stroke-linejoin:round;stroke-width:1.5px;}</style></defs><title>reception-hotel-24</title><path class="a" d="M3.375.75v3a2.625,2.625,0,0,0,5.25,0v-3Z"/><path class="a" d="M9.75,11.25a3,3,0,0,0-3-3H5.25a3,3,0,0,0-3,3"/><path class="a" d="M23.25,23.25v-7.5a1.5,1.5,0,0,0-1.5-1.5H2.25a1.5,1.5,0,0,0-1.5,1.5v7.5"/><line class="a" x1="9.75" y1="17.25" x2="9.75" y2="21.75"/><line class="a" x1="12.75" y1="17.25" x2="12.75" y2="21.75"/><line class="a" x1="9.75" y1="19.5" x2="12.75" y2="19.5"/><line class="a" x1="3.375" y1="3.75" x2="8.625" y2="3.75"/><rect class="a" x="15.75" y="8.25" width="6" height="3"/><line class="a" x1="18.75" y1="11.25" x2="18.75" y2="14.25"/><path class="a" d="M21.75,3.75H19.5V3A2.25,2.25,0,0,1,21.75.75v4.5"/><path class="a" d="M15,1.875A1.125,1.125,0,0,1,16.125.75h0A1.125,1.125,0,0,1,17.25,1.875h0a1.608,1.608,0,0,1-.351,1L15,5.25h2.25"/></svg>