<svg xmlns="http://www.w3.org/2000/svg" viewBox="0 0 24 24"><defs><style>.a{fill:none;stroke:currentColor;stroke-linecap:round;stroke-linejoin:round;stroke-width:1.5px;}</style></defs><title>receipt-register-print</title><path class="a" d="M7.062,13.438a.375.375,0,1,1-.375.375.374.374,0,0,1,.375-.375"/><path class="a" d="M12.312,13.438a.375.375,0,1,1-.375.375.374.374,0,0,1,.375-.375"/><path class="a" d="M17.562,13.438a.375.375,0,1,1-.375.375.374.374,0,0,1,.375-.375"/><rect class="a" x="0.75" y="17.25" width="22.5" height="6" rx="1.5" ry="1.5"/><line class="a" x1="17.25" y1="6.75" x2="17.25" y2="3.75"/><rect class="a" x="14.25" y="0.75" width="6" height="3" rx="1.5" ry="1.5"/><line class="a" x1="6.75" y1="9.75" x2="12.75" y2="9.75"/><path class="a" d="M5.25,6.75H4.4A1.5,1.5,0,0,0,2.9,8.143L2.25,17.25"/><path class="a" d="M21.75,17.25,21.1,8.143A1.5,1.5,0,0,0,19.6,6.75H14.25"/><polygon class="a" points="11.25 3.75 8.25 4.5 8.25 9.75 11.25 9.75 11.25 3.75"/><line class="a" x1="9.75" y1="20.25" x2="14.25" y2="20.25"/></svg>