<svg xmlns="http://www.w3.org/2000/svg" viewBox="0 0 24 24"><defs><style>.a{fill:none;stroke:currentColor;stroke-linecap:round;stroke-linejoin:round;stroke-width:1.5px;}</style></defs><title>reception-bell-call</title><path class="a" d="M22.875,4.11l-.234,4.154a1.557,1.557,0,0,1-3.11-.175L19.7,5.178l-6.349,6.38a1.5,1.5,0,1,1-2.126-2.117l4.761-4.784L14.919,3.6A4.48,4.48,0,0,1,13.606.75"/><line class="a" x1="7.072" y1="14.249" x2="7.072" y2="17.249"/><line class="a" x1="3.322" y1="14.249" x2="10.822" y2="14.249"/><path class="a" d="M1.876,23.249a.751.751,0,0,1-.743-.856,6,6,0,0,1,11.878,0,.751.751,0,0,1-.742.857Z"/></svg>