<svg xmlns="http://www.w3.org/2000/svg" viewBox="0 0 24 24"><defs><style>.a{fill:none;stroke:currentColor;stroke-linecap:round;stroke-linejoin:round;stroke-width:1.5px;}</style></defs><title>receipt-dollar</title><line class="a" x1="6" y1="6.75" x2="12" y2="6.75"/><line class="a" x1="6" y1="11.25" x2="9.75" y2="11.25"/><line class="a" x1="6" y1="15.75" x2="9.75" y2="15.75"/><line class="a" x1="16.5" y1="6.75" x2="18" y2="6.75"/><path class="a" d="M13.892,16.564a2.221,2.221,0,0,0,1.858.875c1.139,0,2.062-.693,2.062-1.547s-.923-1.547-2.062-1.547-2.063-.693-2.063-1.548.924-1.547,2.063-1.547a2.223,2.223,0,0,1,1.858.875"/><line class="a" x1="15.75" y1="17.439" x2="15.75" y2="18.469"/><line class="a" x1="15.75" y1="10.22" x2="15.75" y2="11.25"/><path class="a" d="M16.5,23.25a2.605,2.605,0,0,1,4.5,0V.75a2.614,2.614,0,0,1-2.25,1.293A2.613,2.613,0,0,1,16.5.75a2.614,2.614,0,0,1-2.25,1.293A2.613,2.613,0,0,1,12,.75,2.614,2.614,0,0,1,9.75,2.043,2.613,2.613,0,0,1,7.5.75,2.614,2.614,0,0,1,5.25,2.043,2.613,2.613,0,0,1,3,.75v22.5a2.605,2.605,0,0,1,4.5,0,2.605,2.605,0,0,1,4.5,0"/><path class="a" d="M12,23.25a2.605,2.605,0,0,1,4.5,0"/></svg>