<svg xmlns="http://www.w3.org/2000/svg" viewBox="0 0 24 24"><defs><style>.a{fill:none;stroke:currentColor;stroke-linecap:round;stroke-linejoin:round;stroke-width:1.5px;}</style></defs><title>receipt-slip-1</title><path class="a" d="M21,23.25v-21A1.5,1.5,0,0,0,19.5.75H4.5A1.5,1.5,0,0,0,3,2.25v21l3-3,3,3,3-3,3,3,3-3Z"/><line class="a" x1="6" y1="6" x2="12" y2="6"/><line class="a" x1="6" y1="10.5" x2="12" y2="10.5"/><line class="a" x1="6" y1="15" x2="12" y2="15"/><path class="a" d="M17.625,5.25a.375.375,0,1,1-.375.375.375.375,0,0,1,.375-.375"/><path class="a" d="M17.625,9.75a.375.375,0,1,1-.375.375.375.375,0,0,1,.375-.375"/><path class="a" d="M17.625,14.25a.375.375,0,1,1-.375.375.375.375,0,0,1,.375-.375"/></svg>