<svg xmlns="http://www.w3.org/2000/svg" viewBox="0 0 24 24"><defs><style>.a{fill:none;stroke:currentColor;stroke-linecap:round;stroke-linejoin:round;stroke-width:1.5px;}</style></defs><title>reception-desk</title><path class="a" d="M5.25,18.75h-3a1.5,1.5,0,0,1-1.5-1.5v-1.5a1.5,1.5,0,0,1,1.5-1.5h19.5a1.5,1.5,0,0,1,1.5,1.5v1.5a1.5,1.5,0,0,1-1.5,1.5h-3"/><path class="a" d="M15,23.25H9a.75.75,0,0,1-.75-.75V14.25h7.5V22.5A.75.75,0,0,1,15,23.25Z"/><line class="a" x1="2.25" y1="18.75" x2="2.25" y2="23.25"/><line class="a" x1="21.75" y1="18.75" x2="21.75" y2="23.25"/><line class="a" x1="8.25" y1="20.25" x2="15.75" y2="20.25"/><circle class="a" cx="12" cy="6" r="5.25"/><rect class="a" x="2.25" y="11.25" width="3" height="3"/><rect class="a" x="18.75" y="9.75" width="3" height="4.5"/></svg>