<svg xmlns="http://www.w3.org/2000/svg" viewBox="0 0 24 24"><defs><style>.a{fill:none;stroke:currentColor;stroke-linecap:round;stroke-linejoin:round;stroke-width:1.5px;}</style></defs><title>reception-hotel</title><circle class="a" cx="19.5" cy="3.75" r="2.625"/><path class="a" d="M17.25,21a2.25,2.25,0,0,0,4.5,0V17.25a1.5,1.5,0,0,0,1.5-1.5v-4.5a3,3,0,0,0-3-3h-1.5a3,3,0,0,0-3,3v4.5a1.5,1.5,0,0,0,1.5,1.5Z"/><path class="a" d="M3.375.75v3a2.625,2.625,0,0,0,5.25,0v-3Z"/><path class="a" d="M9.75,11.25a3,3,0,0,0-3-3H5.25a3,3,0,0,0-3,3"/><path class="a" d="M12.75,14.25h-9a3,3,0,0,0-3,3v6"/><line class="a" x1="5.25" y1="17.25" x2="5.25" y2="21.75"/><line class="a" x1="8.25" y1="17.25" x2="8.25" y2="21.75"/><line class="a" x1="5.25" y1="19.5" x2="8.25" y2="19.5"/><line class="a" x1="3.375" y1="3.75" x2="8.625" y2="3.75"/></svg>