<svg xmlns="http://www.w3.org/2000/svg" viewBox="0 0 24 24"><defs><style>.a{fill:none;stroke:currentColor;stroke-linecap:round;stroke-linejoin:round;stroke-width:1.5px;}</style></defs><title>receipt-register</title><path class="a" d="M17.625,18h3a1.5,1.5,0,0,1,1.5,1.5v2.25a1.5,1.5,0,0,1-1.5,1.5H3.375a1.5,1.5,0,0,1-1.5-1.5V18h5.25"/><line class="a" x1="11.453" y1="17.034" x2="8.707" y2="14.35"/><ellipse class="a" cx="12.483" cy="18.114" rx="1.5" ry="1.487"/><path class="a" d="M1.875,4.5h6.75L9.814,3.311A1.5,1.5,0,0,0,8.754.75H3.375a1.5,1.5,0,0,0-1.5,1.5V18"/><line class="a" x1="13.717" y1="7.598" x2="14.704" y2="8.087"/><line class="a" x1="16.385" y1="9.291" x2="17.222" y2="10.003"/><line class="a" x1="18.403" y1="11.59" x2="18.961" y2="12.533"/><path class="a" d="M8.625,4.5V7.737A12.219,12.219,0,0,1,18.917,18"/><circle class="a" cx="7.125" cy="12.75" r="2.25"/></svg>