<svg xmlns="http://www.w3.org/2000/svg" viewBox="0 0 24 24"><defs><style>.a{fill:none;stroke:currentColor;stroke-linecap:round;stroke-linejoin:round;stroke-width:1.5px;}</style></defs><title>receipt</title><path class="a" d="M12.75,23.25v-4.5a1.5,1.5,0,0,1,1.5-1.5h0a1.476,1.476,0,0,1,1.5,1.289V20.25a1.5,1.5,0,0,0,1.5,1.5h0a1.5,1.5,0,0,0,1.5-1.5V.75H8.25a3,3,0,0,0-3,3v13.5"/><path class="a" d="M12.75,23.25H.75v-3a3,3,0,0,1,3-3h10.5"/><line class="a" x1="17.25" y1="21.75" x2="12.75" y2="21.75"/><line class="a" x1="8.25" y1="12.75" x2="15.75" y2="12.75"/><line class="a" x1="8.25" y1="9.75" x2="15.75" y2="9.75"/><line class="a" x1="8.25" y1="6.75" x2="15.75" y2="6.75"/><path class="a" d="M20.25.75h-1.5v4.5h4.5V3.75A3,3,0,0,0,20.25.75Z"/></svg>