<svg id="Regular" xmlns="http://www.w3.org/2000/svg" viewBox="0 0 24 24"><defs><style>.cls-1{fill:none;stroke:currentColor;stroke-linecap:round;stroke-linejoin:round;stroke-width:1.5px;}</style></defs><title>recycling-refresh</title><path class="cls-1" d="M18,4.33A9.75,9.75,0,0,0,2.25,12.014v2.25"/><path class="cls-1" d="M6,19.7A9.751,9.751,0,0,0,21.75,12.014V9.764"/><polyline class="cls-1" points="0.75 12.764 2.25 14.264 3.75 12.764"/><polyline class="cls-1" points="23.25 11.264 21.75 9.764 20.25 11.264"/><path class="cls-1" d="M9.932,15.6s2.205,1.688,3.956.606c3.552-2.2.838-7.017,1.329-9.443a9.106,9.106,0,0,0-7.364,3.754C6.467,12.568,7.247,14.474,9.932,15.6Z"/><path class="cls-1" d="M11.434,12.02S9.57,13.256,9.5,17.264"/></svg>