<svg id="Regular" xmlns="http://www.w3.org/2000/svg" viewBox="0 0 24 24"><defs><style>.cls-1{fill:none;stroke:currentColor;stroke-linecap:round;stroke-linejoin:round;stroke-width:1.5px;}</style></defs><title>recycling-bottle</title><path class="cls-1" d="M9.751,3.889V2.264a1.5,1.5,0,0,0-1.5-1.5h-1.5a1.5,1.5,0,0,0-1.5,1.5V3.889"/><path class="cls-1" d="M14.128,8.271A5.691,5.691,0,0,0,8.561,3.764H6.44A5.689,5.689,0,0,0,.751,9.453a.754.754,0,0,0,.219.531l.75.75a.749.749,0,0,1,0,1.06l-.75.75a.754.754,0,0,0-.219.531v2.378a.754.754,0,0,0,.219.531l.75.75a.749.749,0,0,1,0,1.06l-.75.75a.754.754,0,0,0-.219.531v2.689a1.5,1.5,0,0,0,1.5,1.5H9"/><line class="cls-1" x1="1.94" y1="11.264" x2="10.501" y2="11.264"/><line class="cls-1" x1="1.94" y1="17.264" x2="8.251" y2="17.264"/><polyline class="cls-1" points="15.001 18.764 11.251 18.764 11.251 22.514"/><path class="cls-1" d="M22.668,19.5a5.572,5.572,0,0,1-10.74-.733"/><polyline class="cls-1" points="19.501 15.764 23.251 15.764 23.251 12.014"/><path class="cls-1" d="M11.834,15.031a5.572,5.572,0,0,1,10.74.733"/></svg>