<svg id="Regular" xmlns="http://www.w3.org/2000/svg" viewBox="0 0 24 24"><defs><style>.cls-1{fill:none;stroke:currentColor;stroke-linecap:round;stroke-linejoin:round;stroke-width:1.5px;}</style></defs><title>recycling-paper</title><path class="cls-1" d="M14.444,20.754s1.219,2.495,3.27,2.308c4.158-.38,3.88-5.907,5.4-7.859a9.1,9.1,0,0,0-8.265.075C12.7,16.494,12.542,18.548,14.444,20.754Z"/><path class="cls-1" d="M17.385,18.219s-2.7.335-4.623,5.031"/><path class="cls-1" d="M9.885,20.25h-7.5a1.5,1.5,0,0,1-1.5-1.5V2.25a1.5,1.5,0,0,1,1.5-1.5h9.129a1.5,1.5,0,0,1,1.06.44l2.872,2.871a1.5,1.5,0,0,1,.439,1.061V11.25"/><path class="cls-1" d="M11.385.75v3a1.5,1.5,0,0,0,1.5,1.5h3"/></svg>