<svg id="Regular" xmlns="http://www.w3.org/2000/svg" viewBox="0 0 24 24"><defs><style>.cls-1{fill:none;stroke:currentColor;stroke-linecap:round;stroke-linejoin:round;stroke-width:1.5px;}</style></defs><title>recycling-trash-bin-2</title><path class="cls-1" d="M22.9,1.3A1.5,1.5,0,0,0,21.75.764H2.25A1.5,1.5,0,0,0,.772,2.521l3.387,19.5a1.5,1.5,0,0,0,1.478,1.243H18.363a1.5,1.5,0,0,0,1.478-1.243l3.387-19.5A1.5,1.5,0,0,0,22.9,1.3Z"/><polyline class="cls-1" points="10.125 13.514 6.375 13.514 6.375 17.264"/><path class="cls-1" d="M17.792,14.247a5.572,5.572,0,0,1-10.74-.733"/><polyline class="cls-1" points="14.625 10.514 18.375 10.514 18.375 6.764"/><path class="cls-1" d="M6.958,9.781a5.572,5.572,0,0,1,10.74.733"/></svg>