<svg id="Regular" xmlns="http://www.w3.org/2000/svg" viewBox="0 0 24 24"><defs><style>.cls-1{fill:none;stroke:currentColor;stroke-linecap:round;stroke-linejoin:round;stroke-width:1.5px;}</style></defs><title>recycling-label</title><path class="cls-1" d="M14.069,20s1.219,2.495,3.27,2.308c4.158-.38,3.88-5.907,5.4-7.859a9.1,9.1,0,0,0-8.265.075C12.32,15.744,12.167,17.8,14.069,20Z"/><path class="cls-1" d="M17.01,17.469s-2.7.335-4.623,5.031"/><path class="cls-1" d="M9.2,19.906a1.5,1.5,0,0,1-2.121,0L1.7,14.527a1.5,1.5,0,0,1,0-2.121L12.2,1.94A1.5,1.5,0,0,1,13.26,1.5h5.25A1.5,1.5,0,0,1,20.01,3V8.345a1.5,1.5,0,0,1-.439,1.061"/><path class="cls-1" d="M16.389,4.841a.375.375,0,0,1,.375.375"/><path class="cls-1" d="M16.014,5.216a.374.374,0,0,1,.375-.375"/><path class="cls-1" d="M16.389,5.591a.374.374,0,0,1-.375-.375"/><path class="cls-1" d="M16.764,5.216a.375.375,0,0,1-.375.375"/></svg>