<svg id="Regular" xmlns="http://www.w3.org/2000/svg" viewBox="0 0 24 24"><defs><style>.cls-1{fill:none;stroke:currentColor;stroke-linecap:round;stroke-linejoin:round;stroke-width:1.5px;}</style></defs><title>recycling-hand-trash</title><path class="cls-1" d="M22.9,7.317l-7.5,3s-1.186-1.814,0-3a10.789,10.789,0,0,1,2.25-1.5l-1.61-1.074a1.489,1.489,0,0,0-1.333-.166A18.938,18.938,0,0,1,9.4,5.817c-2.25,0-2.25-1.5-2.25-1.5l6.929-3.15A4.5,4.5,0,0,1,16.823.851L22.9,2.067"/><polygon class="cls-1" points="12.399 23.264 3.399 23.264 2.649 12.764 13.149 12.764 12.399 23.264"/><line class="cls-1" x1="1.149" y1="12.764" x2="14.649" y2="12.764"/><line class="cls-1" x1="6.399" y1="15.764" x2="6.399" y2="20.264"/><line class="cls-1" x1="9.399" y1="15.764" x2="9.399" y2="20.264"/></svg>