<svg id="Regular" xmlns="http://www.w3.org/2000/svg" viewBox="0 0 24 24"><defs><style>.cls-1{fill:none;stroke:currentColor;stroke-linecap:round;stroke-linejoin:round;stroke-width:1.5px;}</style></defs><title>recycling-trash-bin-1</title><path class="cls-1" d="M22.939,4.756,20.306,1.335A1.5,1.5,0,0,0,19.117.75H4.883a1.5,1.5,0,0,0-1.189.585L1.061,4.756a1.5,1.5,0,0,0-.3,1.1L2.771,21.936A1.5,1.5,0,0,0,4.26,23.25H19.74a1.5,1.5,0,0,0,1.489-1.314L23.238,5.857A1.5,1.5,0,0,0,22.939,4.756Z"/><line class="cls-1" x1="0.808" y1="5.259" x2="23.192" y2="5.259"/><polyline class="cls-1" points="9.705 15.759 5.955 15.759 5.955 19.509"/><path class="cls-1" d="M17.372,16.492a5.572,5.572,0,0,1-10.74-.733"/><polyline class="cls-1" points="14.205 12.759 17.955 12.759 17.955 9.009"/><path class="cls-1" d="M6.538,12.025a5.573,5.573,0,0,1,10.74.734"/></svg>