<svg id="Regular" xmlns="http://www.w3.org/2000/svg" viewBox="0 0 24 24"><defs><style>.cls-1{fill:none;stroke:currentColor;stroke-linecap:round;stroke-linejoin:round;stroke-width:1.5px;}</style></defs><title>recycling-bag-1</title><path class="cls-1" d="M2.393,23.25A1.5,1.5,0,0,1,.9,21.614l1.227-15A1.5,1.5,0,0,1,3.62,5.25H20.38a1.5,1.5,0,0,1,1.494,1.364l1.227,15a1.5,1.5,0,0,1-1.494,1.636Z"/><path class="cls-1" d="M15.75,5.25V4.5a3.75,3.75,0,0,0-7.5,0v.75"/><polyline class="cls-1" points="9.75 15.75 6 15.75 6 19.5"/><path class="cls-1" d="M17.417,16.483a5.572,5.572,0,0,1-10.74-.733"/><polyline class="cls-1" points="14.25 12.75 18 12.75 18 9"/><path class="cls-1" d="M6.583,12.017a5.572,5.572,0,0,1,10.74.733"/></svg>