<svg xmlns="http://www.w3.org/2000/svg" viewBox="0 0 24 24"><defs><style>.a{fill:none;stroke:currentColor;stroke-linecap:round;stroke-linejoin:round;stroke-width:1.5px;}</style></defs><title>reflect-left</title><path class="a" d="M7.72,17.03,2.78,21.97a.75.75,0,0,1-1.28-.531V11.561a.75.75,0,0,1,1.28-.531l4.94,4.94A.749.749,0,0,1,7.72,17.03Z"/><path class="a" d="M16.28,17.03l4.94,4.94a.75.75,0,0,0,1.28-.531V11.561a.75.75,0,0,0-1.28-.531l-4.94,4.94A.749.749,0,0,0,16.28,17.03Z"/><line class="a" x1="12" y1="23.25" x2="12" y2="9.75"/><polyline class="a" points="3 1.5 3.697 6.757 8.954 6.06"/><path class="a" d="M19.349,6.75A7.5,7.5,0,0,0,4.677,6.628"/></svg>