<svg xmlns="http://www.w3.org/2000/svg" viewBox="0 0 24 24"><defs><style>.a{fill:none;stroke:currentColor;stroke-linecap:round;stroke-linejoin:round;stroke-width:1.5px;}</style></defs><title>religion-shield</title><path class="a" d="M16.373,14.4a.75.75,0,0,0,1.14-.641v-3.3a.751.751,0,0,0-1.185-.611,3.478,3.478,0,0,1-1.933.766.75.75,0,0,1-.8-.792A8.47,8.47,0,0,1,14.65,6.344a.75.75,0,0,0-.667-1.094H10.538a.75.75,0,0,0-.644,1.135,6.27,6.27,0,0,1,.9,3.493.752.752,0,0,1-.8.737,3.166,3.166,0,0,1-1.782-.742.75.75,0,0,0-1.2.6v3.271a.75.75,0,0,0,1.148.635,6.647,6.647,0,0,1,1.681-.865.751.751,0,0,1,.951.721,6.237,6.237,0,0,1-.9,3.376.75.75,0,0,0,.644,1.135h3.446a.75.75,0,0,0,.665-1.094,8.582,8.582,0,0,1-1.043-3.364.752.752,0,0,1,.928-.784A6.706,6.706,0,0,1,16.373,14.4Z"/><path class="a" d="M2.513,3.953v7.471a12.02,12.02,0,0,0,7.632,11.22l1.041.4a2.976,2.976,0,0,0,2.154,0l1.041-.4a12.02,12.02,0,0,0,7.632-11.22V3.953a1.5,1.5,0,0,0-.867-1.374A21.534,21.534,0,0,0,12.263.75,21.532,21.532,0,0,0,3.381,2.579,1.5,1.5,0,0,0,2.513,3.953Z"/></svg>