<svg xmlns="http://www.w3.org/2000/svg" viewBox="0 0 24 24"><defs><style>.a{fill:none;stroke:currentColor;stroke-linecap:round;stroke-linejoin:round;stroke-width:1.5px;}</style></defs><title>religion-hands</title><path class="a" d="M4.5,23.25,2.486,20.733A4.5,4.5,0,0,1,1.5,17.921V12.75A1.5,1.5,0,0,1,3,11.25H3a1.5,1.5,0,0,1,1.5,1.5V16.5"/><path class="a" d="M9,23.25V20.114a4.493,4.493,0,0,0-.757-2.5L7.1,15.9a1.4,1.4,0,0,0-1.977-.445h0a1.4,1.4,0,0,0-.476,1.791L6,19.5"/><path class="a" d="M19.5,23.25l2.014-2.517a4.5,4.5,0,0,0,.986-2.812V12.75a1.5,1.5,0,0,0-1.5-1.5h0a1.5,1.5,0,0,0-1.5,1.5V16.5"/><path class="a" d="M15,23.25V20.114a4.493,4.493,0,0,1,.757-2.5L16.9,15.9a1.4,1.4,0,0,1,1.977-.445h0a1.4,1.4,0,0,1,.476,1.791L18,19.5"/><path class="a" d="M16.5,4.5a.75.75,0,0,0-.75-.75h-1.5A.75.75,0,0,1,13.5,3V1.5a.75.75,0,0,0-.75-.75h-1.5a.75.75,0,0,0-.75.75V3a.75.75,0,0,1-.75.75H8.25a.75.75,0,0,0-.75.75V6a.75.75,0,0,0,.75.75h1.5a.75.75,0,0,1,.75.75v6a.75.75,0,0,0,.75.75h1.5a.75.75,0,0,0,.75-.75v-6a.75.75,0,0,1,.75-.75h1.5A.75.75,0,0,0,16.5,6Z"/></svg>