<svg xmlns="http://www.w3.org/2000/svg" viewBox="0 0 24 24"><defs><style>.a{fill:none;stroke:currentColor;stroke-linecap:round;stroke-linejoin:round;stroke-width:1.5px;}</style></defs><title>religion-jainism</title><path class="a" d="M13.5,12.751a7.21,7.21,0,0,0-4.892,2.47.712.712,0,0,0,0,.976A7.2,7.2,0,0,0,13.5,18.669,7.2,7.2,0,0,0,18.393,16.2a.712.712,0,0,0,0-.976A7.21,7.21,0,0,0,13.5,12.751Z"/><path class="a" d="M13.5,15.335a.375.375,0,0,1,.375.375"/><path class="a" d="M13.125,15.71a.375.375,0,0,1,.375-.375"/><path class="a" d="M13.5,16.085a.375.375,0,0,1-.375-.375"/><path class="a" d="M13.875,15.71a.375.375,0,0,1-.375.375"/><path class="a" d="M20.25,13.5V5.25a1.5,1.5,0,0,0-1.5-1.5h0a1.5,1.5,0,0,0-1.5,1.5v4.5"/><path class="a" d="M6.25,13.048a1.54,1.54,0,0,0-2.242.348h0a1.542,1.542,0,0,0,0,1.708l2.9,5.474A6,6,0,0,0,11.9,23.25h3.228a5.122,5.122,0,0,0,3.621-1.5h0a5.126,5.126,0,0,0,1.421-2.724"/><path class="a" d="M11.25,9.75v-6a1.5,1.5,0,0,0-1.5-1.5h0a1.5,1.5,0,0,0-1.5,1.5V10.5"/><path class="a" d="M14.25,3.75V2.25a1.5,1.5,0,0,0-1.5-1.5h0a1.5,1.5,0,0,0-1.5,1.5v1.5"/><path class="a" d="M17.25,5.25V3.75a1.5,1.5,0,0,0-1.5-1.5h0a1.5,1.5,0,0,0-1.5,1.5v6"/></svg>