<svg xmlns="http://www.w3.org/2000/svg" viewBox="0 0 24 24"><defs><style>.a{fill:none;stroke:currentColor;stroke-linecap:round;stroke-linejoin:round;stroke-width:1.5px;}</style></defs><title>religion-cross</title><path class="a" d="M17.25,11.25V9.75A.75.75,0,0,0,16.5,9H14.25a.75.75,0,0,1-.75-.75V6a.75.75,0,0,0-.75-.75h-1.5A.75.75,0,0,0,10.5,6V8.25A.75.75,0,0,1,9.75,9H7.5a.75.75,0,0,0-.75.75v1.5A.75.75,0,0,0,7.5,12H9.75a.75.75,0,0,1,.75.75v6a.75.75,0,0,0,.75.75h1.5a.75.75,0,0,0,.75-.75v-6a.75.75,0,0,1,.75-.75H16.5A.75.75,0,0,0,17.25,11.25Z"/><line class="a" x1="7.5" y1="4.5" x2="4.5" y2="0.75"/><line class="a" x1="0.75" y1="7.5" x2="4.5" y2="9"/><line class="a" x1="0.75" y1="17.25" x2="4.5" y2="15"/><line class="a" x1="7.5" y1="19.5" x2="4.5" y2="23.25"/><line class="a" x1="16.5" y1="4.5" x2="19.5" y2="0.75"/><line class="a" x1="23.25" y1="7.5" x2="19.5" y2="9"/><line class="a" x1="23.25" y1="17.25" x2="19.5" y2="15"/><line class="a" x1="16.5" y1="19.5" x2="19.5" y2="23.25"/></svg>