<svg xmlns="http://www.w3.org/2000/svg" viewBox="0 0 24 24"><defs><style>.a{fill:none;stroke:currentColor;stroke-linecap:round;stroke-linejoin:round;stroke-width:1.5px;}</style></defs><title>religion-man-muslim-2</title><path class="a" d="M17.311,6a5.25,5.25,0,0,0-10.5,0v.75a37.084,37.084,0,0,1,10.5,0Z"/><path class="a" d="M5.014,19.514A9.745,9.745,0,0,0,2.783,23.25"/><path class="a" d="M6.811,6.75C.41,18,7.04,16.276,12.035,23.214L8.271,6.571"/><path class="a" d="M19.056,19.514a9.745,9.745,0,0,1,2.231,3.736"/><path class="a" d="M17.259,6.75c6.4,11.25-.229,9.526-5.224,16.464L15.8,6.565"/><path class="a" d="M12.061,10.525C10.9,10.525,10.247,11.919,9.5,12"/><path class="a" d="M12.061,10.525c1.132,0,1.785,1.332,2.507,1.464"/></svg>