<svg xmlns="http://www.w3.org/2000/svg" viewBox="0 0 24 24"><defs><style>.a{fill:none;stroke:currentColor;stroke-linecap:round;stroke-linejoin:round;stroke-width:1.5px;}</style></defs><title>religion-ankh</title><path class="a" d="M21.75,11.25a1.5,1.5,0,0,0-1.5-1.5H16.5A32.437,32.437,0,0,0,17.25,6,5.25,5.25,0,0,0,6.75,6,32.437,32.437,0,0,0,7.5,9.75H3.75a1.5,1.5,0,0,0-1.5,1.5v1.5a1.5,1.5,0,0,0,1.5,1.5h4.5a1.5,1.5,0,0,1,1.5,1.5v6a1.5,1.5,0,0,0,1.5,1.5h1.5a1.5,1.5,0,0,0,1.5-1.5v-6a1.5,1.5,0,0,1,1.5-1.5h4.5a1.5,1.5,0,0,0,1.5-1.5Z"/><path class="a" d="M14.25,6C14.25,7.243,12,9.75,12,9.75S9.75,7.243,9.75,6a2.25,2.25,0,0,1,4.5,0Z"/></svg>