<svg xmlns="http://www.w3.org/2000/svg" viewBox="0 0 24 24"><defs><style>.a{fill:none;stroke:currentColor;stroke-linecap:round;stroke-linejoin:round;stroke-width:1.5px;}</style></defs><title>religion-islam-hand</title><line class="a" x1="0.75" y1="14.243" x2="0.75" y2="23.243"/><path class="a" d="M15.75,21.743a3,3,0,0,0-3-3H9a3,3,0,0,0-3-3H.75v6Z"/><line class="a" x1="6" y1="18.743" x2="9" y2="18.743"/><path class="a" d="M12.108,1.041l1.145,1.952H15.2a.534.534,0,0,1,.385.913L13.8,5.381l.992,2.784a.54.54,0,0,1-.77.675l-2.4-1.347L9.226,8.84a.54.54,0,0,1-.769-.675l.991-2.784L7.659,3.906a.534.534,0,0,1,.384-.913H9.992l1.144-1.952A.545.545,0,0,1,12.108,1.041Z"/><path class="a" d="M21.477,2.89a.751.751,0,0,0-1.318.612,7.98,7.98,0,0,1-9.145,9.153.751.751,0,0,0-.612,1.318A7.875,7.875,0,0,0,21.477,2.89Z"/></svg>