<svg xmlns="http://www.w3.org/2000/svg" viewBox="0 0 24 24"><defs><style>.a{fill:none;stroke:currentColor;stroke-linecap:round;stroke-linejoin:round;stroke-width:1.5px;}</style></defs><title>religion-devil</title><polyline class="a" points="23.25 13.5 21.75 12 20.25 13.5"/><circle class="a" cx="13.5" cy="7.5" r="3.75"/><path class="a" d="M.75,6.75v4.5a1.5,1.5,0,0,0,1.5,1.5h3a1.5,1.5,0,0,0,1.5-1.5V6.75"/><line class="a" x1="3.75" y1="5.25" x2="3.75" y2="23.25"/><path class="a" d="M16.1,20.25H18.75a3,3,0,0,0,3-3V12"/><path class="a" d="M15.75,10.5h.563a1.5,1.5,0,0,1,1.49,1.675l-2.053,9.75a1.5,1.5,0,0,1-1.49,1.325H12.74a1.5,1.5,0,0,1-1.49-1.325L9.2,12.175a1.5,1.5,0,0,1,1.49-1.675h.563"/><path class="a" d="M9,.75H9a3.106,3.106,0,0,0,1.223,3.566l.789.379"/><path class="a" d="M18,.75h0a3.106,3.106,0,0,1-1.223,3.566l-.7.463"/></svg>