<svg xmlns="http://www.w3.org/2000/svg" viewBox="0 0 24 24"><defs><style>.a{fill:none;stroke:currentColor;stroke-linecap:round;stroke-linejoin:round;stroke-width:1.5px;}</style></defs><title>religion-angel</title><ellipse class="a" cx="12.263" cy="3.375" rx="9" ry="2.625"/><path class="a" d="M14.513,15.449a1.633,1.633,0,0,1,2.25,0"/><path class="a" d="M10.013,15.449a1.633,1.633,0,0,0-2.25,0"/><path class="a" d="M19.726,12.75c-9.161,0-9.713-3.068-9.713-3.068-1.018,3.068-4.5,3.068-4.5,3.068H4.8"/><path class="a" d="M14.063,18.922a2.537,2.537,0,0,1-3.6,0"/><path class="a" d="M17.619,8.25a7.475,7.475,0,0,1,2.144,5.25v2.25a7.5,7.5,0,0,1-15,0V13.5A7.475,7.475,0,0,1,6.907,8.25"/></svg>