<svg xmlns="http://www.w3.org/2000/svg" viewBox="0 0 24 24"><defs><style>.a{fill:none;stroke:currentColor;stroke-linecap:round;stroke-linejoin:round;stroke-width:1.5px;}</style></defs><title>religion-islam</title><path class="a" d="M18.314,6.311a.489.489,0,0,1,.872,0L20.2,8.352a.483.483,0,0,0,.366.263l2.271.329a.477.477,0,0,1,.27.814l-1.65,1.6a.475.475,0,0,0-.138.421l.389,2.255a.484.484,0,0,1-.7.5l-2.024-1.059a.492.492,0,0,0-.454,0L16.5,14.536a.484.484,0,0,1-.7-.5l.389-2.255a.475.475,0,0,0-.138-.421l-1.65-1.6a.477.477,0,0,1,.27-.814l2.271-.329a.483.483,0,0,0,.366-.263Z"/><path class="a" d="M8.25,12.043c0-3.818,2.945-8.4,7.838-8.959a.751.751,0,0,0,.2-1.438A11.249,11.249,0,1,0,12,23.293a11.164,11.164,0,0,0,4.285-.851.751.751,0,0,0-.2-1.439A9.142,9.142,0,0,1,8.25,12.043Z"/></svg>