<svg xmlns="http://www.w3.org/2000/svg" viewBox="0 0 24 24"><defs><style>.a{fill:none;stroke:currentColor;stroke-linecap:round;stroke-linejoin:round;stroke-width:1.5px;}</style></defs><title>religion-shinto</title><path class="a" d="M19.152,11.369h1.863a1.485,1.485,0,0,1,0,2.97H19.409"/><path class="a" d="M5.057,11.369H3.194a1.485,1.485,0,0,0,0,2.97H4.8"/><line class="a" x1="7.893" y1="11.369" x2="16.315" y2="11.369"/><line class="a" x1="16.56" y1="14.339" x2="7.649" y2="14.339"/><path class="a" d="M17.3,2.459H6.906A5.136,5.136,0,0,1,3.343,1.018a.966.966,0,0,0-1.634.7,5.212,5.212,0,0,0,5.2,5.2H17.3a5.213,5.213,0,0,0,5.2-5.2.966.966,0,0,0-1.634-.7A5.137,5.137,0,0,1,17.3,2.459Z"/><path class="a" d="M7.739,6.914A35.994,35.994,0,0,1,5.421,23.25H1.709A25.345,25.345,0,0,0,4.721,6.429"/><path class="a" d="M16.469,6.914A36.007,36.007,0,0,0,18.787,23.25H22.5A25.352,25.352,0,0,1,19.487,6.429"/><line class="a" x1="12.104" y1="6.914" x2="12.104" y2="11.369"/></svg>