<svg xmlns="http://www.w3.org/2000/svg" viewBox="0 0 24 24"><defs><style>.a{fill:none;stroke:currentColor;stroke-linecap:round;stroke-linejoin:round;stroke-width:1.5px;}</style></defs><title>religion-cao-dai-hand-1</title><polyline class="a" points="19.291 6.378 16.125 0.75 12.959 6.378"/><polyline class="a" points="11.882 8.293 9.375 12.75 22.875 12.75 20.368 8.293"/><path class="a" d="M16.125,5.25A6.454,6.454,0,0,0,11.8,7.368a.6.6,0,0,0,0,.836,6.44,6.44,0,0,0,4.329,2.119A6.44,6.44,0,0,0,20.454,8.2a.6.6,0,0,0,0-.836A6.454,6.454,0,0,0,16.125,5.25Z"/><path class="a" d="M16.125,7.412a.375.375,0,0,1,.375.375"/><path class="a" d="M15.75,7.787a.375.375,0,0,1,.375-.375"/><path class="a" d="M16.125,8.162a.375.375,0,0,1-.375-.375"/><path class="a" d="M16.5,7.787a.375.375,0,0,1-.375.375"/><line class="a" x1="1.125" y1="14.25" x2="1.125" y2="23.25"/><path class="a" d="M16.125,21.75a3,3,0,0,0-3-3H9.375a3,3,0,0,0-3-3H1.125v6Z"/><line class="a" x1="6.375" y1="18.75" x2="9.375" y2="18.75"/></svg>