<svg xmlns="http://www.w3.org/2000/svg" viewBox="0 0 24 24"><defs><style>.a{fill:none;stroke:currentColor;stroke-linecap:round;stroke-linejoin:round;stroke-width:1.5px;}</style></defs><title>religion-hand-1</title><path class="a" d="M16.5,4.5a.75.75,0,0,0-.75-.75h-1.5A.75.75,0,0,1,13.5,3V1.5a.75.75,0,0,0-.75-.75h-1.5a.75.75,0,0,0-.75.75V3a.75.75,0,0,1-.75.75H8.25a.75.75,0,0,0-.75.75V6a.75.75,0,0,0,.75.75h1.5a.75.75,0,0,1,.75.75v6.75h3V7.5a.75.75,0,0,1,.75-.75h1.5A.75.75,0,0,0,16.5,6Z"/><path class="a" d="M16.784,15.224a1.476,1.476,0,0,0-1.455-.974H8.671a1.476,1.476,0,0,0-1.455.974L6,23.25H18Z"/><line class="a" x1="1.5" y1="23.25" x2="22.5" y2="23.25"/></svg>