<svg xmlns="http://www.w3.org/2000/svg" viewBox="0 0 24 24"><defs><style>.a{fill:none;stroke:currentColor;stroke-linecap:round;stroke-linejoin:round;stroke-width:1.5px;}</style></defs><title>religion-shield-1</title><path class="a" d="M16.763,9a.75.75,0,0,0-.75-.75h-1.5a.75.75,0,0,1-.75-.75V6a.75.75,0,0,0-.75-.75h-1.5a.75.75,0,0,0-.75.75V7.5a.75.75,0,0,1-.75.75h-1.5a.75.75,0,0,0-.75.75v1.5a.75.75,0,0,0,.75.75h1.5a.75.75,0,0,1,.75.75v4.5a.75.75,0,0,0,.75.75h1.5a.75.75,0,0,0,.75-.75V12a.75.75,0,0,1,.75-.75h1.5a.75.75,0,0,0,.75-.75Z"/><path class="a" d="M3.263,3.953v7.471a12,12,0,0,0,7.011,11.22l.964.4a2.567,2.567,0,0,0,2,0l.963-.4a12.043,12.043,0,0,0,7.067-11.22V3.953a1.514,1.514,0,0,0-.8-1.374A18.713,18.713,0,0,0,12.235.75,18.406,18.406,0,0,0,4.067,2.579,1.514,1.514,0,0,0,3.263,3.953Z"/></svg>