<svg xmlns="http://www.w3.org/2000/svg" viewBox="0 0 24 24"><defs><style>.a{fill:none;stroke:currentColor;stroke-linecap:round;stroke-linejoin:round;stroke-width:1.5px;}</style></defs><title>religion-man-indian</title><path class="a" d="M21.313,23.25a9.779,9.779,0,0,0-4.73-5.625"/><path class="a" d="M7.488,17.625A9.78,9.78,0,0,0,2.757,23.25"/><path class="a" d="M17.285,11.034a5.473,5.473,0,0,0,2.25-4.284c0-3.314-3.358-6-7.5-6s-7.5,2.686-7.5,6a5.476,5.476,0,0,0,2.25,4.284"/><line class="a" x1="9.785" y1="1.025" x2="9.785" y2="6.966"/><path class="a" d="M17.286,10.5c0,2.9-2.35,3.75-5.25,3.75s-5.25-.851-5.25-3.75"/><path class="a" d="M9.8,6.964C8.017,7.324,6.786,8.1,6.786,9v6a5.25,5.25,0,0,0,10.5,0V9c0-.9-1.231-1.676-3.01-2.036"/><circle class="a" cx="12.035" cy="6.75" r="2.25"/></svg>