<svg xmlns="http://www.w3.org/2000/svg" viewBox="0 0 24 24"><defs><style>.a{fill:none;stroke:currentColor;stroke-linecap:round;stroke-linejoin:round;stroke-width:1.5px;}</style></defs><title>religion-devil-head</title><path class="a" d="M14.25,7.5l1.629-1.629A7.242,7.242,0,0,0,18,.75a6.115,6.115,0,0,1,.568,7.993L17.25,10.5"/><path class="a" d="M9.75,7.5,8.121,5.871A7.242,7.242,0,0,1,6,.75a6.115,6.115,0,0,0-.568,7.993L6.75,10.5"/><path class="a" d="M5.319,8.588A7.476,7.476,0,0,0,4.5,12v3.75a7.5,7.5,0,0,0,15,0V12a7.476,7.476,0,0,0-.819-3.412"/><path class="a" d="M16.054,5.689a7.506,7.506,0,0,0-8.108,0"/><path class="a" d="M19.5,12l3.75-1.5a5.539,5.539,0,0,1-3.482,5.143l-.268.107"/><path class="a" d="M4.5,12,.75,10.5a5.539,5.539,0,0,0,3.482,5.143l.268.107"/><line class="a" x1="8.25" y1="12.75" x2="10.5" y2="14.25"/><line class="a" x1="15.75" y1="12.75" x2="13.5" y2="14.25"/><path class="a" d="M14.488,18.75a4.5,4.5,0,0,1-4.976,0"/></svg>