<svg xmlns="http://www.w3.org/2000/svg" viewBox="0 0 24 24"><defs><style>.a{fill:none;stroke:currentColor;stroke-linecap:round;stroke-linejoin:round;stroke-width:1.5px;}</style></defs><title>religion-hinduism</title><path class="a" d="M14.063,11.146c-.465,0-1.594-.031-1.594-.031a6.284,6.284,0,0,0-7.642-9.1,1.4,1.4,0,1,0,1,2.609,3.452,3.452,0,0,1,1.257-.234A3.488,3.488,0,0,1,10.07,9.692a6.9,6.9,0,0,0-2.283-.415,1.4,1.4,0,1,0,0,2.8A4.192,4.192,0,1,1,3.6,16.263a1.4,1.4,0,0,0-2.795,0,6.987,6.987,0,1,0,13.973,0,6.909,6.909,0,0,0-.418-2.293A4.177,4.177,0,0,1,17.591,20.4a1.4,1.4,0,1,0,2.35,1.514,6.988,6.988,0,0,0-5.878-10.765Z"/><path class="a" d="M13.116,6.089a15.77,15.77,0,0,0,8.185.346,1.5,1.5,0,1,1,.809,2.888,10.171,10.171,0,0,1-8.735-1.386"/><circle class="a" cx="17.73" cy="2.625" r="1.875"/></svg>