<svg xmlns="http://www.w3.org/2000/svg" viewBox="0 0 24 24"><defs><style>.a{fill:none;stroke:currentColor;stroke-linecap:round;stroke-linejoin:round;stroke-width:1.5px;}</style></defs><title>religion-wicca</title><polygon class="a" points="16.66 0.75 7.34 0.75 0.75 7.34 0.75 16.66 7.34 23.25 16.66 23.25 23.25 16.66 23.25 7.34 16.66 0.75"/><polygon class="a" points="14.796 5.25 9.204 5.25 5.25 9.204 5.25 14.796 9.204 18.75 14.796 18.75 18.75 14.796 18.75 9.204 14.796 5.25"/><polygon class="a" points="12.932 9.75 11.068 9.75 9.75 11.068 9.75 12.932 11.068 14.25 12.932 14.25 14.25 12.932 14.25 11.068 12.932 9.75"/><line class="a" x1="7.34" y1="0.75" x2="11.068" y2="9.75"/><line class="a" x1="16.66" y1="0.75" x2="12.932" y2="9.75"/><line class="a" x1="14.25" y1="11.068" x2="23.25" y2="7.34"/><line class="a" x1="12.932" y1="14.25" x2="16.66" y2="23.25"/><line class="a" x1="14.25" y1="12.932" x2="23.25" y2="16.66"/><line class="a" x1="11.068" y1="14.25" x2="7.34" y2="23.25"/><line class="a" x1="9.75" y1="12.932" x2="0.75" y2="16.66"/><line class="a" x1="9.75" y1="11.068" x2="0.75" y2="7.34"/></svg>