<svg xmlns="http://www.w3.org/2000/svg" viewBox="0 0 24 24"><defs><style>.a{fill:none;stroke:currentColor;stroke-linecap:round;stroke-linejoin:round;stroke-width:1.5px;}</style></defs><title>religion-cross-necklace</title><path class="a" d="M18.749,11.25a1.5,1.5,0,0,0-1.5-1.5h-3v-3a1.5,1.5,0,0,0-1.5-1.5h-1.5a1.5,1.5,0,0,0-1.5,1.5v3h-3a1.5,1.5,0,0,0-1.5,1.5v1.5a1.5,1.5,0,0,0,1.5,1.5h3v7.5a1.5,1.5,0,0,0,1.5,1.5h1.5a1.5,1.5,0,0,0,1.5-1.5v-7.5h3a1.5,1.5,0,0,0,1.5-1.5Z"/><path class="a" d="M9.747,7.215A9.015,9.015,0,0,1,3.284.756"/><path class="a" d="M20.716.75a9.016,9.016,0,0,1-6.467,6.466"/></svg>