<svg xmlns="http://www.w3.org/2000/svg" viewBox="0 0 24 24"><defs><style>.a{fill:none;stroke:currentColor;stroke-linecap:round;stroke-linejoin:round;stroke-width:1.5px;}</style></defs><title>religion-man-muslim-1</title><path class="a" d="M17.285,6.75v6a5.25,5.25,0,0,1-10.5,0v-6"/><path class="a" d="M21.313,23.25A9.774,9.774,0,0,0,15.12,17"/><path class="a" d="M8.951,17A9.774,9.774,0,0,0,2.757,23.25"/><path class="a" d="M12.035.75a11.257,11.257,0,0,1,4.1.525.745.745,0,0,1,.455.588l.7,4.887H6.785l.7-4.887a.746.746,0,0,1,.456-.588A11.259,11.259,0,0,1,12.035.75Z"/><line class="a" x1="12.785" y1="17.944" x2="12.785" y2="23.25"/><path class="a" d="M15.41,20.25a.375.375,0,1,0,.375.375.375.375,0,0,0-.375-.375h0"/><path class="a" d="M12.035,12.025c-1.348,0-2.018,1.892-2.934,1.39A6.454,6.454,0,0,1,6.785,9"/><path class="a" d="M12.035,12.025c1.349,0,2.018,1.892,2.935,1.39A6.453,6.453,0,0,0,17.285,9"/></svg>