<svg id="Regular" xmlns="http://www.w3.org/2000/svg" viewBox="0 0 24 24"><defs><style>.cls-1{fill:none;stroke:currentColor;stroke-linecap:round;stroke-linejoin:round;stroke-width:1.5px;}</style></defs><title>renewable-energy-water-dam-1</title><path class="cls-1" d="M23.25,23.139A4.383,4.383,0,0,1,21,21.75a3.964,3.964,0,0,1-3,1.5v-.027a4.188,4.188,0,0,1-3-1.473,3.964,3.964,0,0,1-3,1.5v-.027A4.188,4.188,0,0,1,9,21.75a3.964,3.964,0,0,1-3,1.5v-.027A4.188,4.188,0,0,1,3,21.75,4.07,4.07,0,0,1,.75,23.169"/><path class="cls-1" d="M2.25.75,4.333,2.139A5.426,5.426,0,0,1,6.75,6.654V12.4a5.425,5.425,0,0,0,3,4.854h0"/><path class="cls-1" d="M8.25.75l2.083,1.389A5.426,5.426,0,0,1,12.75,6.654V12.4a5.425,5.425,0,0,0,3,4.854h0"/><path class="cls-1" d="M14.25.75l2.083,1.389A5.426,5.426,0,0,1,18.75,6.654V12.4a5.425,5.425,0,0,0,3,4.854h0"/></svg>