<svg id="Regular" xmlns="http://www.w3.org/2000/svg" viewBox="0 0 24 24"><defs><style>.cls-1{fill:none;stroke:currentColor;stroke-linecap:round;stroke-linejoin:round;stroke-width:1.5px;}</style></defs><title>renewable-energy-battery-leaf</title><path class="cls-1" d="M13.579,20.754s1.219,2.495,3.27,2.307c4.158-.38,3.88-5.907,5.4-7.859a9.106,9.106,0,0,0-8.265.075C11.83,16.494,11.677,18.548,13.579,20.754Z"/><path class="cls-1" d="M16.52,18.219s-2.7.334-4.623,5.03"/><path class="cls-1" d="M8.75,23.25H3.5A1.5,1.5,0,0,1,2,21.75V5.25a1.5,1.5,0,0,1,1.5-1.5H14a1.5,1.5,0,0,1,1.5,1.5V12"/><path class="cls-1" d="M6.75.75h4a1,1,0,0,1,1,1v2a0,0,0,0,1,0,0h-6a0,0,0,0,1,0,0v-2A1,1,0,0,1,6.75.75Z"/></svg>