<svg id="Regular" xmlns="http://www.w3.org/2000/svg" viewBox="0 0 24 24"><defs><style>.cls-1{fill:none;stroke:currentColor;stroke-linecap:round;stroke-linejoin:round;stroke-width:1.5px;}</style></defs><title>renewable-energy-power-socket</title><path class="cls-1" d="M11.25,4.5h-9A1.5,1.5,0,0,0,.75,6V22.5a.75.75,0,0,0,.75.75H7.037a.748.748,0,0,0,.67-.415l.336-.67a.75.75,0,0,1,.671-.415h6.573a.749.749,0,0,1,.67.415l.336.67a.748.748,0,0,0,.671.415H22.5a.75.75,0,0,0,.75-.75V12.75"/><line class="cls-1" x1="0.75" y1="18.75" x2="23.25" y2="18.75"/><circle class="cls-1" cx="9" cy="14.25" r="1.5"/><line class="cls-1" x1="19.5" y1="15" x2="19.5" y2="18.75"/><path class="cls-1" d="M4.5,18.75V10.5a.75.75,0,0,1,.75-.75h6"/><path class="cls-1" d="M20.428.75,14.3,6.875a.429.429,0,0,0,.3.732H17V12.75l6.125-6.125a.429.429,0,0,0-.3-.732H20.428Z"/></svg>