<svg id="Regular" xmlns="http://www.w3.org/2000/svg" viewBox="0 0 24 24"><defs><style>.cls-1{fill:none;stroke:currentColor;stroke-linecap:round;stroke-linejoin:round;stroke-width:1.5px;}</style></defs><title>renewable-energy-wind-turbine</title><circle class="cls-1" cx="12.385" cy="13.949" r="1.976"/><path class="cls-1" d="M17.651,6.786a8.882,8.882,0,0,1,3.538,5.925"/><path class="cls-1" d="M7.119,6.786a8.886,8.886,0,0,0-3.538,5.925"/><path class="cls-1" d="M16.209,21.976a8.886,8.886,0,0,1-7.956-.155"/><path class="cls-1" d="M11.713,12.091l-1.17-1a2.9,2.9,0,0,1-.807-3.266L12.1,1.872a1.122,1.122,0,0,1,2.174.47L13.5,12.319"/><path class="cls-1" d="M11.112,15.46l-.284,1.515A2.893,2.893,0,0,1,8.4,19.307l-6.334.928a1.123,1.123,0,0,1-.681-2.118l9.027-4.32"/><path class="cls-1" d="M14.33,14.3l1.454-.512a2.894,2.894,0,0,1,3.232.934l3.971,5.022a1.123,1.123,0,0,1-1.494,1.648l-8.255-5.657"/></svg>