<svg id="Regular" xmlns="http://www.w3.org/2000/svg" viewBox="0 0 24 24"><defs><style>.cls-1{fill:none;stroke:currentColor;stroke-linecap:round;stroke-linejoin:round;stroke-width:1.5px;}</style></defs><title>renewable-energy-charging</title><path class="cls-1" d="M6.75,6.75a3,3,0,0,0,0-6H4.5v6Z"/><line class="cls-1" x1="4.5" y1="2.25" x2="1.5" y2="2.25"/><line class="cls-1" x1="4.5" y1="5.25" x2="1.5" y2="5.25"/><path class="cls-1" d="M9.75,3.75H18a4.5,4.5,0,0,1,0,9H6.75a3.75,3.75,0,0,0,0,7.5h10.5"/><path class="cls-1" d="M14.1,23.25a3,3,0,0,1-2.959-3.5,3.112,3.112,0,0,1,3.12-2.5h2.522a6,6,0,0,1,3.329,1.008l2.052,1.368a.75.75,0,0,1,0,1.248l-2.052,1.368a6,6,0,0,1-3.329,1.008Z"/></svg>