<svg id="Regular" xmlns="http://www.w3.org/2000/svg" viewBox="0 0 24 24"><defs><style>.cls-1{fill:none;stroke:currentColor;stroke-linecap:round;stroke-linejoin:round;stroke-width:1.5px;}</style></defs><title>renewable-energy-water-dam</title><path class="cls-1" d="M23.249,18.5a5.876,5.876,0,0,1-3,.82,5.961,5.961,0,0,1-4.5-2.069,6.08,6.08,0,0,1-1.717,1.286"/><path class="cls-1" d="M23.25,12.679a5.871,5.871,0,0,1-3,.821,5.961,5.961,0,0,1-4.5-2.069A5.963,5.963,0,0,1,11.429,13.5"/><path class="cls-1" d="M.749,2.25v19.5a1.5,1.5,0,0,0,1.5,1.5h9.98a.752.752,0,0,0,.653-1.117C9.666,16.269,6.931,11.814,6.749,2.239A1.506,1.506,0,0,0,5.251.75h-3A1.5,1.5,0,0,0,.749,2.25Z"/></svg>