<svg id="Regular" xmlns="http://www.w3.org/2000/svg" viewBox="0 0 24 24"><defs><style>.cls-1{fill:none;stroke:currentColor;stroke-linecap:round;stroke-linejoin:round;stroke-width:1.5px;}</style></defs><title>renewable-energy-battery-leaf-1</title><rect class="cls-1" x="5.25" y="3.75" width="13.5" height="19.5" rx="1.5" ry="1.5"/><path class="cls-1" d="M10,.75h4a1,1,0,0,1,1,1v2a0,0,0,0,1,0,0H9a0,0,0,0,1,0,0v-2A1,1,0,0,1,10,.75Z"/><path class="cls-1" d="M9.907,15.4s1.205,1.725,2.718,1.345c3.069-.771,2.214-4.876,3.125-6.516a6.9,6.9,0,0,0-6.18,1.023C8.1,12.414,8.225,13.97,9.907,15.4Z"/><path class="cls-1" d="M11.813,13.157s-1.905.544-2.82,4.093"/></svg>