<svg id="Regular" xmlns="http://www.w3.org/2000/svg" viewBox="0 0 24 24"><defs><style>.cls-1{fill:none;stroke:currentColor;stroke-linecap:round;stroke-linejoin:round;stroke-width:1.5px;}</style></defs><title>renewable-energy-accumulator</title><path class="cls-1" d="M10.5.75,4.589,7.632a.376.376,0,0,0,.286.618H7.5v6l5.911-6.882a.376.376,0,0,0-.286-.618H10.5Z"/><path class="cls-1" d="M13.5,2.25H21a1.5,1.5,0,0,1,1.5,1.5v18a1.5,1.5,0,0,1-1.5,1.5H3a1.5,1.5,0,0,1-1.5-1.5v-18A1.5,1.5,0,0,1,3,2.25H5.25"/><line class="cls-1" x1="9" y1="17.25" x2="9" y2="20.25"/><line class="cls-1" x1="13.5" y1="15" x2="13.5" y2="20.25"/><line class="cls-1" x1="18" y1="11.25" x2="18" y2="20.25"/><line class="cls-1" x1="7.5" y1="20.25" x2="19.5" y2="20.25"/></svg>