<svg id="Regular" xmlns="http://www.w3.org/2000/svg" viewBox="0 0 24 24"><defs><style>.cls-1{fill:none;stroke:currentColor;stroke-linecap:round;stroke-linejoin:round;stroke-width:1.5px;}</style></defs><title>renewable-energy-solar-power</title><path class="cls-1" d="M20.25,9.75l-5.911,6.882a.376.376,0,0,0,.286.618H17.25v6l5.911-6.882a.376.376,0,0,0-.286-.618H20.25Z"/><path class="cls-1" d="M13.5,21.722c-.247.018-.5.028-.749.028a9.748,9.748,0,0,1-8.656-5.259"/><path class="cls-1" d="M14.251,2.365a9.749,9.749,0,0,1,6.717,4.386"/><circle class="cls-1" cx="6.75" cy="6.75" r="2.25"/><line class="cls-1" x1="6.75" y1="2.25" x2="6.75" y2="0.75"/><line class="cls-1" x1="11.25" y1="6.75" x2="12.75" y2="6.75"/><line class="cls-1" x1="6.75" y1="11.25" x2="6.75" y2="12.75"/><line class="cls-1" x1="2.25" y1="6.75" x2="0.75" y2="6.75"/><line class="cls-1" x1="3.568" y1="3.568" x2="2.507" y2="2.507"/><line class="cls-1" x1="9.932" y1="3.568" x2="10.993" y2="2.507"/><line class="cls-1" x1="9.932" y1="9.932" x2="10.993" y2="10.993"/><line class="cls-1" x1="3.568" y1="9.932" x2="2.507" y2="10.993"/></svg>