<svg id="Regular" xmlns="http://www.w3.org/2000/svg" viewBox="0 0 24 24"><defs><style>.cls-1{fill:none;stroke:currentColor;stroke-linecap:round;stroke-linejoin:round;stroke-width:1.5px;}</style></defs><title>renewable-energy-solar-monitor</title><path class="cls-1" d="M13.5,12.75a.75.75,0,0,0-.75-.75H1.5a.75.75,0,0,0-.75.75V22.5a.75.75,0,0,0,.75.75H3.209a.751.751,0,0,0,.712-.513l.408-1.224A.751.751,0,0,1,5.041,21H9.209a.751.751,0,0,1,.712.513l.408,1.224a.751.751,0,0,0,.712.513H12.75a.75.75,0,0,0,.75-.75Z"/><polyline class="cls-1" points="3 12 3.75 15 10.5 15 11.25 12"/><line class="cls-1" x1="5.25" y1="18" x2="9" y2="18"/><path class="cls-1" d="M18.75,14.25v3a1.5,1.5,0,0,1-1.5,1.5H13.5"/><rect class="cls-1" x="12.75" y="0.75" width="10.5" height="7.5" rx="1.5" ry="1.5"/><line class="cls-1" x1="18" y1="8.25" x2="18" y2="11.25"/><line class="cls-1" x1="15.75" y1="11.25" x2="20.25" y2="11.25"/></svg>