<svg id="Regular" xmlns="http://www.w3.org/2000/svg" viewBox="0 0 24 24"><defs><style>.cls-1{fill:none;stroke:currentColor;stroke-linecap:round;stroke-linejoin:round;stroke-width:1.5px;}</style></defs><title>renewable-energy-paper-turbine</title><path class="cls-1" d="M10.409,10.409,2.78,2.78a.75.75,0,0,0-1.28.531V12"/><path class="cls-1" d="M22.5,12v8.689a.75.75,0,0,1-1.28.531l-7.629-7.629"/><path class="cls-1" d="M10.409,13.591,2.78,21.22a.75.75,0,0,0,.531,1.28H12"/><path class="cls-1" d="M12,1.5h8.689a.75.75,0,0,1,.531,1.28l-7.629,7.629"/><line class="cls-1" x1="12" y1="22.5" x2="17.25" y2="17.25"/><line class="cls-1" x1="22.5" y1="12" x2="17.25" y2="6.75"/><line class="cls-1" x1="12" y1="1.5" x2="6.75" y2="6.75"/><line class="cls-1" x1="1.5" y1="12" x2="6.75" y2="17.25"/><circle class="cls-1" cx="12" cy="12" r="2.25"/></svg>