<svg id="Regular" xmlns="http://www.w3.org/2000/svg" viewBox="0 0 24 24"><defs><style>.cls-1{fill:none;stroke:currentColor;stroke-linecap:round;stroke-linejoin:round;stroke-width:1.5px;}</style></defs><title>renewable-energy-water-power</title><path class="cls-1" d="M20.25,9.75l-5.911,6.882a.376.376,0,0,0,.286.618H17.25v6l5.911-6.882a.376.376,0,0,0-.286-.618H20.25Z"/><path class="cls-1" d="M9.75,9a4.5,4.5,0,0,1-9,0C.75,6,4.5.75,5.25.75S9.75,6,9.75,9Z"/><path class="cls-1" d="M5.25,10.5A1.5,1.5,0,0,1,3.75,9"/><path class="cls-1" d="M13.5,21.722c-.247.018-.5.028-.749.028a9.748,9.748,0,0,1-8.656-5.259"/><path class="cls-1" d="M11.25,2.365a9.764,9.764,0,0,1,9.718,4.386"/></svg>