<svg id="Regular" xmlns="http://www.w3.org/2000/svg" viewBox="0 0 24 24"><defs><style>.cls-1{fill:none;stroke:currentColor;stroke-linecap:round;stroke-linejoin:round;stroke-width:1.5px;}</style></defs><title>renewable-energy-earth</title><path class="cls-1" d="M14.579,20.754s1.219,2.495,3.27,2.308c4.158-.38,3.88-5.907,5.4-7.859a9.105,9.105,0,0,0-8.265.075C12.83,16.5,12.677,18.548,14.579,20.754Z"/><path class="cls-1" d="M17.52,18.219s-2.7.335-4.623,5.031"/><path class="cls-1" d="M18.75,11.251v-4.5l-5.25,2.6v-2.6L9,9.356v-2.6l-4.5,2.6-.75-4.1H1.5l-.75,4.5v7.5a1.5,1.5,0,0,0,1.5,1.5h7.5"/><path class="cls-1" d="M3,3S3,1.5,6.75,1.5c3,0,3.75-.75,3.75-.75"/></svg>