<svg id="Regular" xmlns="http://www.w3.org/2000/svg" viewBox="0 0 24 24"><defs><style>.cls-1{fill:none;stroke:currentColor;stroke-linecap:round;stroke-linejoin:round;stroke-width:1.5px;}</style></defs><title>renewable-energy-battery-charge</title><path class="cls-1" d="M14.25,8.25V6.75H9.75v1.5H9A.75.75,0,0,0,8.25,9v7.5a.75.75,0,0,0,.75.75h6a.75.75,0,0,0,.75-.75V9A.75.75,0,0,0,15,8.25Z"/><path class="cls-1" d="M20.25,18.75a3,3,0,0,1-3,3H6.75a3,3,0,0,1-3-3V9"/><path class="cls-1" d="M3.75,5.25a3,3,0,0,1,3-3h10.5a3,3,0,0,1,3,3V15"/><polyline class="cls-1" points="22.5 12.75 20.25 15 18 12.75"/><polyline class="cls-1" points="1.5 11.25 3.75 9 6 11.25"/></svg>