<svg id="Regular" xmlns="http://www.w3.org/2000/svg" viewBox="0 0 24 24"><defs><style>.cls-1{fill:none;stroke:currentColor;stroke-linecap:round;stroke-linejoin:round;stroke-width:1.5px;}</style></defs><title>renewable-energy-solar-electricity</title><path class="cls-1" d="M11.25,12H1.5a.75.75,0,0,0-.75.75V22.5a.75.75,0,0,0,.75.75H3.209a.751.751,0,0,0,.712-.513l.408-1.224A.751.751,0,0,1,5.041,21H9.209a.751.751,0,0,1,.712.513l.408,1.224a.751.751,0,0,0,.712.513H12.75a.75.75,0,0,0,.75-.75V18"/><line class="cls-1" x1="15.75" y1="0.75" x2="15.75" y2="2.25"/><line class="cls-1" x1="21.053" y1="2.947" x2="19.993" y2="4.007"/><line class="cls-1" x1="23.25" y1="8.25" x2="21.75" y2="8.25"/><line class="cls-1" x1="21.053" y1="13.553" x2="19.993" y2="12.493"/><line class="cls-1" x1="10.447" y1="2.947" x2="11.507" y2="4.007"/><line class="cls-1" x1="8.25" y1="8.25" x2="9.75" y2="8.25"/><line class="cls-1" x1="15.75" y1="13.5" x2="15.75" y2="15.75"/><path class="cls-1" d="M19.5,8.25a3.75,3.75,0,1,0-5.25,3.437V13.5h3V11.687A3.751,3.751,0,0,0,19.5,8.25Z"/><polyline class="cls-1" points="3 12 3.75 15 10.5 15 11.25 12"/><line class="cls-1" x1="5.25" y1="18" x2="9" y2="18"/></svg>