<svg id="Regular" xmlns="http://www.w3.org/2000/svg" viewBox="0 0 24 24"><defs><style>.cls-1{fill:none;stroke:currentColor;stroke-linecap:round;stroke-linejoin:round;stroke-width:1.5px;}</style></defs><title>renewable-energy-solar-panel</title><path class="cls-1" d="M22.5,20.25H6.314a.749.749,0,0,1-.706-1l3.214-9a.749.749,0,0,1,.706-.5h9.114a.749.749,0,0,1,.689.455l3.858,9A.75.75,0,0,1,22.5,20.25Z"/><line class="cls-1" x1="12" y1="20.25" x2="12" y2="23.25"/><line class="cls-1" x1="16.5" y1="20.25" x2="16.5" y2="23.25"/><path class="cls-1" d="M4.9,11.251A4.5,4.5,0,1,1,12.147,6"/><line class="cls-1" x1="8.25" y1="1.5" x2="8.25" y2="0.75"/><line class="cls-1" x1="13.5" y1="3.75" x2="14.25" y2="3"/><line class="cls-1" x1="3" y1="3.75" x2="2.25" y2="3"/><line class="cls-1" x1="1.5" y1="8.25" x2="0.75" y2="8.25"/><line class="cls-1" x1="3" y1="12.75" x2="2.25" y2="13.5"/><line class="cls-1" x1="14.25" y1="9.75" x2="14.25" y2="20.25"/><line class="cls-1" x1="7.393" y1="14.25" x2="21.07" y2="14.25"/></svg>