<svg id="Regular" xmlns="http://www.w3.org/2000/svg" viewBox="0 0 24 24"><defs><style>.cls-1{fill:none;stroke:currentColor;stroke-linecap:round;stroke-linejoin:round;stroke-width:1.5px;}</style></defs><title>reptile-cobra</title><path class="cls-1" d="M14.26,21.75v-6a5.064,5.064,0,0,1,3-4.5c2.25-.75,3.75-2.015,3.75-4.5a4.5,4.5,0,0,0-4.5-4.5H8.26a4.5,4.5,0,0,0-4.5,4.5c0,2.485,1.5,3.75,3.75,4.5a5.064,5.064,0,0,1,3,4.5v3C10.51,21,11.26,21.75,14.26,21.75Z"/><path class="cls-1" d="M14.26,21.75h7.125a1.875,1.875,0,1,0,0-3.75H14.26"/><path class="cls-1" d="M10.51,18H2.635a1.875,1.875,0,1,0,0,3.75H7.51"/><polygon class="cls-1" points="8.26 2.25 12.385 6.75 16.51 2.25 8.26 2.25"/><line class="cls-1" x1="12.385" y1="6.75" x2="12.385" y2="8.25"/><polyline class="cls-1" points="10.735 9.75 12.385 8.25 14.035 9.75"/></svg>