<svg id="Regular" xmlns="http://www.w3.org/2000/svg" viewBox="0 0 24 24"><defs><style>.cls-1{fill:none;stroke:currentColor;stroke-linecap:round;stroke-linejoin:round;stroke-width:1.5px;}</style></defs><title>reptile-hippo</title><path class="cls-1" d="M.75,14.5C2.25,14.5,3,16,4.5,16s2.25-1.5,3.75-1.5S10.5,16,12,16s2.25-1.5,3.75-1.5S18,16,19.5,16s2.25-1.5,3.75-1.5"/><path class="cls-1" d="M.75,11.5s-.092-3.75,3-3.75c2.25,0,3,.75,3,.75a3.344,3.344,0,0,1,3-2.25,2.938,2.938,0,0,1,3,3,9.211,9.211,0,0,1,6.75-1.5c3.75.75,3.75,3.75,3.75,3.75"/><path class="cls-1" d="M9.375,9.25a.375.375,0,0,1,.375.375"/><path class="cls-1" d="M9,9.625a.375.375,0,0,1,.375-.375"/><path class="cls-1" d="M9.375,10A.375.375,0,0,1,9,9.625"/><path class="cls-1" d="M9.75,9.625A.375.375,0,0,1,9.375,10"/><line class="cls-1" x1="3.75" y1="10" x2="4.5" y2="10"/></svg>