<svg id="Regular" xmlns="http://www.w3.org/2000/svg" viewBox="0 0 24 24"><defs><style>.cls-1{fill:none;stroke:currentColor;stroke-linecap:round;stroke-linejoin:round;stroke-width:1.5px;}</style></defs><title>reptile-hippo-1</title><path class="cls-1" d="M.75,17.976c1.494,0,2.242,1.5,3.736,1.5s2.242-1.5,3.736-1.5,2.242,1.5,3.736,1.5,2.242-1.5,3.737-1.5,2.241,1.5,3.736,1.5,2.242-1.5,3.736-1.5"/><path class="cls-1" d="M.75,14.24H5.981c2.989,0,2.241-3.736.747-4.483L.75,6.768A4.343,4.343,0,0,1,5.233,3.779,4.344,4.344,0,0,1,9.717,6.768a3.754,3.754,0,0,1,3.736-.747c2.242.747,1.494,3.736,1.494,3.736s3.305-1.337,5.978,0a4.012,4.012,0,0,1,2.242,4.483"/><path class="cls-1" d="M12.332,8.261a.375.375,0,0,1,.375.375"/><path class="cls-1" d="M11.957,8.636a.375.375,0,0,1,.375-.375"/><path class="cls-1" d="M12.332,9.011a.375.375,0,0,1-.375-.375"/><path class="cls-1" d="M12.707,8.636a.375.375,0,0,1-.375.375"/><line class="cls-1" x1="2.244" y1="14.24" x2="2.244" y2="12.746"/><line class="cls-1" x1="2.244" y1="7.515" x2="1.497" y2="9.01"/><line class="cls-1" x1="5.233" y1="6.021" x2="5.981" y2="6.021"/></svg>