<svg id="Regular" xmlns="http://www.w3.org/2000/svg" viewBox="0 0 24 24"><defs><style>.cls-1{fill:none;stroke:currentColor;stroke-linecap:round;stroke-linejoin:round;stroke-width:1.5px;}</style></defs><title>reptile-crocodile-water</title><path class="cls-1" d="M.75,16.25c1.5,0,2.25,1.5,3.75,1.5s2.25-1.5,3.75-1.5,2.25,1.5,3.75,1.5,2.25-1.5,3.75-1.5,2.25,1.5,3.75,1.5,2.25-1.5,3.75-1.5"/><path class="cls-1" d="M15,14c0-1.5,1.5-2.25,3-2.25h3.75a1.5,1.5,0,0,0,1.5-1.5v-3"/><path class="cls-1" d="M23.25,8.75h-7.5a3.344,3.344,0,0,0-3-2.25,3.344,3.344,0,0,0-3,2.25H5.25l-1.5-1.5-1.5,1.5H.75"/><path class="cls-1" d="M13.125,9.5a.375.375,0,0,1,.375.375"/><path class="cls-1" d="M12.75,9.875a.375.375,0,0,1,.375-.375"/><path class="cls-1" d="M13.125,10.25a.375.375,0,0,1-.375-.375"/><path class="cls-1" d="M13.5,9.875a.375.375,0,0,1-.375.375"/></svg>