<svg id="Regular" xmlns="http://www.w3.org/2000/svg" viewBox="0 0 24 24"><defs><style>.cls-1{fill:none;stroke:currentColor;stroke-linecap:round;stroke-linejoin:round;stroke-width:1.5px;}</style></defs><title>reptile-crocodile</title><path class="cls-1" d="M6,18A5.251,5.251,0,0,1,.75,12.75C.75,9.851,3,7.5,5.25,7.5L6.75,6l1.5,1.5L9.75,6l1.5,1.5h1.5a3.344,3.344,0,0,1,3-2.25,3.344,3.344,0,0,1,3,2.25h4.5"/><path class="cls-1" d="M23.25,6V9a1.5,1.5,0,0,1-1.5,1.5h-3a1.51,1.51,0,1,0,0,3H22.5"/><path class="cls-1" d="M4.5,15s0-1.5,3-1.5h6.75"/><polyline class="cls-1" points="13.5 13.5 13.5 16.5 15 16.5"/><polyline class="cls-1" points="8.25 13.5 8.25 16.5 9.75 16.5"/><path class="cls-1" d="M15.75,7.875a.375.375,0,0,1,.375.375"/><path class="cls-1" d="M15.375,8.25a.375.375,0,0,1,.375-.375"/><path class="cls-1" d="M15.75,8.625a.375.375,0,0,1-.375-.375"/><path class="cls-1" d="M16.125,8.25a.375.375,0,0,1-.375.375"/></svg>