<svg xmlns="http://www.w3.org/2000/svg" viewBox="0 0 24 24"><defs><style>.a{fill:none;stroke:currentColor;stroke-linecap:round;stroke-linejoin:round;stroke-width:1.5px;}</style></defs><title>resize-expand-sides</title><path class="a" d="M20.561.75l2.47,2.47a.749.749,0,0,1,0,1.06l-2.47,2.47"/><path class="a" d="M3.75,23.25v-18a1.5,1.5,0,0,1,1.5-1.5h18"/><path class="a" d="M6.75,20.561,4.281,23.03a.75.75,0,0,1-1.061,0L.75,20.561"/><path class="a" d="M21.75,23.25a1.5,1.5,0,0,0,1.5-1.5"/><line class="a" x1="18.75" y1="23.25" x2="17.25" y2="23.25"/><line class="a" x1="14.25" y1="23.25" x2="12.75" y2="23.25"/><line class="a" x1="9.75" y1="23.25" x2="8.25" y2="23.25"/><line class="a" x1="23.25" y1="18.75" x2="23.25" y2="17.25"/><line class="a" x1="23.25" y1="14.25" x2="23.25" y2="12.75"/><line class="a" x1="23.25" y1="9.75" x2="23.25" y2="8.25"/></svg>