<svg xmlns="http://www.w3.org/2000/svg" viewBox="0 0 24 24"><defs><style>.a{fill:none;stroke:currentColor;stroke-linecap:round;stroke-linejoin:round;stroke-width:1.5px;}</style></defs><title>resize-expand</title><rect class="a" x="5.25" y="5.25" width="13.5" height="13.5" rx="1.5" ry="1.5"/><path class="a" d="M23.25,20.25v1.5a1.5,1.5,0,0,1-1.5,1.5h-1.5"/><path class="a" d="M20.25.75h1.5a1.5,1.5,0,0,1,1.5,1.5v1.5"/><path class="a" d="M.75,3.75V2.25A1.5,1.5,0,0,1,2.25.75h1.5"/><path class="a" d="M3.75,23.25H2.25a1.5,1.5,0,0,1-1.5-1.5v-1.5"/><line class="a" x1="23.25" y1="7.5" x2="23.25" y2="9.75"/><line class="a" x1="23.25" y1="14.25" x2="23.25" y2="16.5"/><line class="a" x1="0.75" y1="7.5" x2="0.75" y2="9.75"/><line class="a" x1="0.75" y1="14.25" x2="0.75" y2="16.5"/><line class="a" x1="16.5" y1="23.25" x2="14.25" y2="23.25"/><line class="a" x1="9.75" y1="23.25" x2="7.5" y2="23.25"/><line class="a" x1="16.5" y1="0.75" x2="14.25" y2="0.75"/><line class="a" x1="9.75" y1="0.75" x2="7.5" y2="0.75"/></svg>