<svg xmlns="http://www.w3.org/2000/svg" viewBox="0 0 24 24"><defs><style>.a{fill:none;stroke:currentColor;stroke-linecap:round;stroke-linejoin:round;stroke-width:1.5px;}</style></defs><title>resize-shrink</title><path class="a" d="M11.25,18.75h10.5a1.5,1.5,0,0,0,1.5-1.5v-15a1.5,1.5,0,0,0-1.5-1.5h-15a1.5,1.5,0,0,0-1.5,1.5v10.5"/><path class="a" d="M17.25,11.25H13.5a.75.75,0,0,1-.75-.75V6.75"/><line class="a" x1="20.25" y1="3.75" x2="12.97" y2="11.03"/><line class="a" x1="0.75" y1="18.75" x2="0.75" y2="17.25"/><path class="a" d="M.75,14.25a1.5,1.5,0,0,1,1.5-1.5"/><line class="a" x1="11.25" y1="18.75" x2="11.25" y2="17.25"/><path class="a" d="M11.25,14.25a1.5,1.5,0,0,0-1.5-1.5"/><path class="a" d="M.75,21.75a1.5,1.5,0,0,0,1.5,1.5"/><path class="a" d="M11.25,21.75a1.5,1.5,0,0,1-1.5,1.5"/><line class="a" x1="5.25" y1="12.75" x2="6.75" y2="12.75"/><line class="a" x1="5.25" y1="23.25" x2="6.75" y2="23.25"/></svg>