<svg id="Regular" xmlns="http://www.w3.org/2000/svg" viewBox="0 0 24 24"><defs><style>.cls-1{fill:none;stroke:currentColor;stroke-linecap:round;stroke-linejoin:round;stroke-width:1.5px;}</style></defs><title>restaurant-food-truck</title><circle class="cls-1" cx="5.25" cy="18.75" r="2.25"/><circle class="cls-1" cx="18.75" cy="18.75" r="2.25"/><path class="cls-1" d="M23.25,10.5V18a1.5,1.5,0,0,1-1.5,1.5h-.878"/><line class="cls-1" x1="16.628" y1="19.5" x2="7.372" y2="19.5"/><path class="cls-1" d="M3.128,19.5H2.25A1.5,1.5,0,0,1,.75,18V12.75L3.323,8.278A1.5,1.5,0,0,1,4.638,7.5H6"/><line class="cls-1" x1="8.25" y1="11.25" x2="8.25" y2="19.5"/><line class="cls-1" x1="0.75" y1="12.75" x2="8.25" y2="12.75"/><path class="cls-1" d="M14.25,6.75a1.5,1.5,0,0,1-3,0"/><path class="cls-1" d="M17.25,6.75a1.5,1.5,0,0,1-3,0"/><path class="cls-1" d="M20.25,6.75a1.5,1.5,0,0,1-3,0"/><path class="cls-1" d="M20.25,6.75a1.5,1.5,0,0,0,3,0L21.75,3h-12L8.25,6.75a1.5,1.5,0,0,0,3,0"/><polyline class="cls-1" points="20.25 10.5 20.25 13.5 11.25 13.5 11.25 10.5"/></svg>