<svg id="Regular" xmlns="http://www.w3.org/2000/svg" viewBox="0 0 24 24"><defs><style>.cls-1{fill:none;stroke:currentColor;stroke-linecap:round;stroke-linejoin:round;stroke-width:1.5px;}</style></defs><title>restaurant-dishes</title><path class="cls-1" d="M11.25,17.25l-3.2-3.334A1.891,1.891,0,0,1,7.7,11.733h0a1.89,1.89,0,0,1,3.028-.491l.522.522.522-.522a1.89,1.89,0,0,1,3.028.491h0a1.891,1.891,0,0,1-.354,2.183Z"/><line class="cls-1" x1="2.25" y1="9" x2="2.25" y2="22.5"/><path class="cls-1" d="M20.247,15H22.5a.75.75,0,0,0,.75-.748c.008-3.831.028-8.458-1.559-12.289a.75.75,0,0,0-1.443.287V22.5"/><path class="cls-1" d="M.75,1.5v6A1.5,1.5,0,0,0,2.25,9h0a1.5,1.5,0,0,0,1.5-1.5v-6"/><path class="cls-1" d="M16.5,8.565a7.176,7.176,0,0,0-10.5,0"/><path class="cls-1" d="M6,18.435a7.176,7.176,0,0,0,10.5,0"/></svg>