<svg id="Regular" xmlns="http://www.w3.org/2000/svg" viewBox="0 0 24 24"><defs><style>.cls-1{fill:none;stroke:currentColor;stroke-linecap:round;stroke-linejoin:round;stroke-width:1.5px;}</style></defs><title>restaurant-seat</title><circle class="cls-1" cx="3.75" cy="3.563" r="2.625"/><path class="cls-1" d="M8.25,23.063a1.5,1.5,0,0,1-1.5-1.5v-3h-3a3,3,0,0,1-3-3v-6a1.5,1.5,0,0,1,2.4-1.2c.025.017,2.652,1.95,5.1,1.95a1.5,1.5,0,0,1,0,3,10.823,10.823,0,0,1-4.5-1.143v3.393h3a3,3,0,0,1,3,3v3A1.5,1.5,0,0,1,8.25,23.063Z"/><line class="cls-1" x1="3.75" y1="21.563" x2="0.75" y2="21.563"/><path class="cls-1" d="M23.25,12.563h-9a1.5,1.5,0,0,0,0,3h9"/><line class="cls-1" x1="20.25" y1="15.563" x2="20.25" y2="23.063"/><polygon class="cls-1" points="19.5 8.063 15 8.063 15.75 12.563 18.75 12.563 19.5 8.063"/></svg>