<svg id="Regular" xmlns="http://www.w3.org/2000/svg" viewBox="0 0 24 24"><defs><style>.cls-1{fill:none;stroke:currentColor;stroke-linecap:round;stroke-linejoin:round;stroke-width:1.5px;}</style></defs><title>restaurant-eating-set</title><line class="cls-1" x1="2.25" y1="9" x2="2.25" y2="22.5"/><path class="cls-1" d="M20.247,15H22.5a.75.75,0,0,0,.75-.748c.008-3.831.028-8.458-1.559-12.289a.75.75,0,0,0-1.443.287V22.5"/><path class="cls-1" d="M.75,1.5v6A1.5,1.5,0,0,0,2.25,9h0a1.5,1.5,0,0,0,1.5-1.5v-6"/><path class="cls-1" d="M16.5,8.283a7.173,7.173,0,0,0-9.744-.7"/><path class="cls-1" d="M6,18.717a7.178,7.178,0,0,0,10.5,0"/></svg>