<svg id="Regular" xmlns="http://www.w3.org/2000/svg" viewBox="0 0 24 24"><defs><style>.cls-1{fill:none;stroke:currentColor;stroke-linecap:round;stroke-linejoin:round;stroke-width:1.5px;}</style></defs><title>rhino</title><path class="cls-1" d="M11.4,4.227C13.141,5.308,14.824,6.482,16.25,7.5,21.5,11.25,23,15,21.5,18A7.531,7.531,0,0,1,17,21.75L14.75,19.5"/><path class="cls-1" d="M2.75.75A13.017,13.017,0,0,1,8.1,2.373"/><path class="cls-1" d="M5,11.25c-2.25,2.25-2.25,5.25,1.5,7.5,3.991,2.394,7.981,4.789,9.26,1.76"/><path class="cls-1" d="M4.45,17.05l-.2.2A8.282,8.282,0,0,0,2,22.5"/><path class="cls-1" d="M16.723,7.846,20,3.75s2.25.75,1.5,3.75a5.5,5.5,0,0,1-1.5,3l-.194.147"/><path class="cls-1" d="M5,3.75l6.75-3S12.5,6,8.75,6"/><circle class="cls-1" cx="12.125" cy="10.125" r="0.375"/><path class="cls-1" d="M17.75,15s.75,0,.75,1.5"/></svg>