<svg id="Regular" xmlns="http://www.w3.org/2000/svg" viewBox="0 0 24 24"><defs><style>.cls-1{fill:none;stroke:currentColor;stroke-linecap:round;stroke-linejoin:round;stroke-width:1.5px;}</style></defs><title>rhino-body</title><path class="cls-1" d="M20.3,15.45l-.3.3S17.75,18,14,15"/><path class="cls-1" d="M16.152,6.75h.1c.75,0,2.25,0,4.5,2.25,3,3,2.25,6.75,0,6.75l-2.25-1.5"/><path class="cls-1" d="M14.781,15.566,14.1,19.623a.749.749,0,0,1-.739.627h-1.75a.751.751,0,0,1-.736-.6L10.25,16.5H4.5l-.629,3.147a.751.751,0,0,1-.736.6H1.5a.75.75,0,0,1-.75-.75V11.25q0-4.5,4.5-4.5H12.5l3-3s1.5,3,0,4.5"/><path class="cls-1" d="M19.974,8.285,22.25,5.25s2.386,3.182-.214,5.449"/><path class="cls-1" d="M17.375,10.5a.375.375,0,0,0-.375.375"/><path class="cls-1" d="M17.75,10.875a.375.375,0,0,0-.375-.375"/><path class="cls-1" d="M17.375,11.25a.375.375,0,0,0,.375-.375"/><path class="cls-1" d="M17,10.875a.375.375,0,0,0,.375.375"/></svg>