<svg xmlns="http://www.w3.org/2000/svg" viewBox="0 0 24 24"><defs><style>.a{fill:none;stroke:currentColor;stroke-linecap:round;stroke-linejoin:round;stroke-width:1.5px;}</style></defs><title>road-tunnel</title><path class="a" d="M12,.763a10.5,10.5,0,0,0-10.5,10.5v10.5a1.5,1.5,0,0,0,1.5,1.5H21a1.5,1.5,0,0,0,1.5-1.5v-10.5A10.5,10.5,0,0,0,12,.763Z"/><path class="a" d="M12,8.263a3,3,0,0,0-3,3v4.5h6v-4.5A3,3,0,0,0,12,8.263Z"/><line class="a" x1="9" y1="15.763" x2="1.939" y2="22.824"/><line class="a" x1="15" y1="15.763" x2="22.061" y2="22.824"/><line class="a" x1="12" y1="23.263" x2="12" y2="20.263"/><line class="a" x1="12" y1="15.763" x2="12" y2="17.263"/></svg>