<svg xmlns="http://www.w3.org/2000/svg" viewBox="0 0 24 24"><defs><style>.a{fill:none;stroke:currentColor;stroke-linecap:round;stroke-linejoin:round;stroke-width:1.5px;}</style></defs><title>road-sign-no-buses</title><circle class="a" cx="8.25" cy="15.75" r="1.5"/><circle class="a" cx="15.75" cy="15.75" r="1.5"/><path class="a" d="M6.75,15.75H5.25A.75.75,0,0,1,4.5,15V12.75A.75.75,0,0,1,5.25,12h3V8.25A.75.75,0,0,1,9,7.5h9.75a.75.75,0,0,1,.75.75v6a1.5,1.5,0,0,1-1.5,1.5h-.75"/><line class="a" x1="9.75" y1="15.75" x2="14.25" y2="15.75"/><line class="a" x1="8.25" y1="12" x2="19.5" y2="12"/><line class="a" x1="12" y1="12" x2="12" y2="7.5"/><line class="a" x1="15.75" y1="12" x2="15.75" y2="7.5"/><circle class="a" cx="12" cy="12" r="11.25"/><line class="a" x1="7.189" y1="16.811" x2="4.045" y2="19.955"/><line class="a" x1="19.955" y1="4.045" x2="16.5" y2="7.5"/></svg>