<svg xmlns="http://www.w3.org/2000/svg" viewBox="0 0 24 24"><defs><style>.a{fill:none;stroke:currentColor;stroke-linecap:round;stroke-linejoin:round;stroke-width:1.5px;}</style></defs><title>road-sign-roundabout</title><path class="a" d="M2.56,14.25l-1.5-1.5a1.063,1.063,0,0,1,0-1.5L11.248,1.061a1.064,1.064,0,0,1,1.5,0l4.5,4.5"/><path class="a" d="M21.44,9.75l1.5,1.5a1.063,1.063,0,0,1,0,1.5L12.752,22.939a1.064,1.064,0,0,1-1.5,0l-4.5-4.5"/><polyline class="a" points="6.75 15.75 6.75 12.75 9.75 12.75"/><polyline class="a" points="17.25 8.25 17.25 11.25 14.25 11.25"/><path class="a" d="M7.576,12.75a4.476,4.476,0,0,0,8.3,1.5"/><path class="a" d="M16.424,11.25a4.476,4.476,0,0,0-8.3-1.5"/></svg>