<svg xmlns="http://www.w3.org/2000/svg" viewBox="0 0 24 24"><defs><style>.a{fill:none;stroke:currentColor;stroke-linecap:round;stroke-linejoin:round;stroke-width:1.5px;}</style></defs><title>road-sign-2.5m-wide</title><polyline class="a" points="0.75 12.67 2.25 11.17 0.75 9.67"/><polyline class="a" points="23.25 9.67 21.75 11.17 23.25 12.67"/><path class="a" d="M6,6.67a1.5,1.5,0,0,1,1.5-1.5h0A1.5,1.5,0,0,1,9,6.67H9a2.139,2.139,0,0,1-.468,1.336L6,11.17H9"/><path class="a" d="M18,5.17H15V7.42a.75.75,0,0,0,.75.75h.75a1.5,1.5,0,0,1,0,3H15"/><path class="a" d="M12,10.8a.375.375,0,0,1,.375.375"/><path class="a" d="M11.625,11.17A.375.375,0,0,1,12,10.8"/><path class="a" d="M12,11.545a.375.375,0,0,1-.375-.375"/><path class="a" d="M12.375,11.17a.375.375,0,0,1-.375.375"/><polyline class="a" points="14.25 20.92 14.25 14.92 12 18.67 9.75 14.92 9.75 20.92"/></svg>