<svg xmlns="http://www.w3.org/2000/svg" viewBox="0 0 24 24"><defs><style>.a{fill:none;stroke:currentColor;stroke-linecap:round;stroke-linejoin:round;stroke-width:1.5px;}</style></defs><title>road-sign</title><path class="a" d="M17.711,14.264a1.5,1.5,0,0,1,1.4.973L20.677,19.4a1.329,1.329,0,0,0,2.573-.467V11.263a1.5,1.5,0,0,0-1.5-1.5H2.25a1.5,1.5,0,0,0-1.5,1.5v7.671a1.329,1.329,0,0,0,2.573.467l1.562-4.164a1.5,1.5,0,0,1,1.4-.973Z"/><line class="a" x1="16.5" y1="6.763" x2="16.5" y2="0.763"/><line class="a" x1="7.5" y1="0.763" x2="7.5" y2="6.763"/><line class="a" x1="16.5" y1="23.263" x2="16.5" y2="18.763"/><line class="a" x1="7.5" y1="18.763" x2="7.5" y2="23.263"/><line class="a" x1="12" y1="5.263" x2="12" y2="6.763"/><line class="a" x1="12" y1="0.763" x2="12" y2="2.263"/><line class="a" x1="12" y1="17.263" x2="12" y2="18.763"/><line class="a" x1="12" y1="21.763" x2="12" y2="23.263"/></svg>