<svg xmlns="http://www.w3.org/2000/svg" viewBox="0 0 24 24"><defs><style>.a{fill:none;stroke:currentColor;stroke-linecap:round;stroke-linejoin:round;stroke-width:1.5px;}</style></defs><title>road-curvy</title><line class="a" x1="15.75" y1="18.763" x2="15.75" y2="23.263"/><line class="a" x1="15.75" y1="9.763" x2="15.75" y2="14.263"/><polyline class="a" points="23.25 18.763 18.75 18.763 18.75 12.763 23.25 12.763"/><path class="a" d="M18.75,23.263V9.763a9,9,0,1,0-9,9h3v-6h-3a3,3,0,1,1,3-3v13.5"/><line class="a" x1="21.75" y1="15.763" x2="18.75" y2="15.763"/><path class="a" d="M9.75,3.763A5.985,5.985,0,0,1,13.993,5.52"/><path class="a" d="M3.75,9.763A5.985,5.985,0,0,1,5.507,5.52"/><path class="a" d="M9.75,15.763a5.985,5.985,0,0,1-4.243-1.757"/></svg>