<svg xmlns="http://www.w3.org/2000/svg" viewBox="0 0 24 24"><defs><style>.a{fill:none;stroke:currentColor;stroke-linecap:round;stroke-linejoin:round;stroke-width:1.5px;}</style></defs><title>road-sign-mudslide</title><rect class="a" x="3.779" y="3.78" width="16.441" height="16.441" rx="0.907" ry="0.907" transform="translate(-4.971 12.001) rotate(-45.002)"/><polyline class="a" points="7.5 15.75 7.5 9 10.5 10.5 10.5 12.75 12.75 15.75"/><line class="a" x1="7.5" y1="15.75" x2="16.5" y2="15.75"/><path class="a" d="M13.125,9.75a.375.375,0,0,1,.375.375"/><path class="a" d="M12.75,10.125a.375.375,0,0,1,.375-.375"/><path class="a" d="M13.125,10.5a.375.375,0,0,1-.375-.375"/><path class="a" d="M13.5,10.125a.375.375,0,0,1-.375.375"/><path class="a" d="M15.375,12.75a.375.375,0,0,1,.375.375"/><path class="a" d="M15,13.125a.375.375,0,0,1,.375-.375"/><path class="a" d="M15.375,13.5A.375.375,0,0,1,15,13.125"/><path class="a" d="M15.75,13.125a.375.375,0,0,1-.375.375"/></svg>