<svg xmlns="http://www.w3.org/2000/svg" viewBox="0 0 24 24"><defs><style>.a{fill:none;stroke:currentColor;stroke-linecap:round;stroke-linejoin:round;stroke-width:1.5px;}</style></defs><title>road-sign-slippery</title><rect class="a" x="4.045" y="4.045" width="15.91" height="15.91" rx="1" ry="1" transform="translate(12 -4.971) rotate(45)"/><line class="a" x1="9.75" y1="9" x2="9.75" y2="10.5"/><line class="a" x1="14.25" y1="9" x2="14.25" y2="10.5"/><polygon class="a" points="12.75 6 11.25 6 9.75 7.5 9.75 9 14.25 9 14.25 7.5 12.75 6"/><path class="a" d="M9.714,13.38a1.21,1.21,0,0,0,.312,1.56,1.21,1.21,0,0,1,.312,1.56"/><path class="a" d="M14.214,13.38a1.21,1.21,0,0,0,.312,1.56,1.21,1.21,0,0,1,.312,1.56"/></svg>