<svg xmlns="http://www.w3.org/2000/svg" viewBox="0 0 24 24"><defs><style>.a{fill:none;stroke:currentColor;stroke-linecap:round;stroke-linejoin:round;stroke-width:1.5px;}</style></defs><title>road-sign-cattle</title><rect class="a" x="3.779" y="3.78" width="16.441" height="16.441" rx="0.907" ry="0.907" transform="translate(-4.971 12.001) rotate(-45.002)"/><path class="a" d="M10.378,11.25a1.5,1.5,0,0,0-1.413,2l1.274,3.571A1.5,1.5,0,0,0,11.7,18H12.3a1.5,1.5,0,0,0,1.464-1.175l1.274-3.571a1.5,1.5,0,0,0-1.413-2Z"/><line class="a" x1="14.848" y1="11.886" x2="16.5" y2="12.75"/><line class="a" x1="9.152" y1="11.886" x2="7.5" y2="12.75"/><path class="a" d="M17.156,9a3,3,0,0,1-2.906,2.25H13.5"/><path class="a" d="M6.809,9a3,3,0,0,0,2.906,2.25h.75"/></svg>