<svg xmlns="http://www.w3.org/2000/svg" viewBox="0 0 24 24"><defs><style>.a{fill:none;stroke:currentColor;stroke-linecap:round;stroke-linejoin:round;stroke-width:1.5px;}</style></defs><title>road-sign-2.5m-high</title><polyline class="a" points="10.5 0.75 12 2.25 13.5 0.75"/><polyline class="a" points="13.5 23.25 12 21.75 10.5 23.25"/><path class="a" d="M6,5.25a1.5,1.5,0,0,1,1.5-1.5h0A1.5,1.5,0,0,1,9,5.25H9a2.139,2.139,0,0,1-.468,1.336L6,9.75H9"/><path class="a" d="M18,3.75H15V6a.75.75,0,0,0,.75.75h.75a1.5,1.5,0,0,1,0,3H15"/><path class="a" d="M12,9.375a.375.375,0,0,1,.375.375"/><path class="a" d="M11.625,9.75A.375.375,0,0,1,12,9.375"/><path class="a" d="M12,10.125a.375.375,0,0,1-.375-.375"/><path class="a" d="M12.375,9.75a.375.375,0,0,1-.375.375"/><polyline class="a" points="14.25 19.5 14.25 13.5 12 17.25 9.75 13.5 9.75 19.5"/></svg>