<svg xmlns="http://www.w3.org/2000/svg" viewBox="0 0 24 24"><defs><style>.a{fill:none;stroke:currentColor;stroke-linecap:round;stroke-linejoin:round;stroke-width:1.5px;}</style></defs><title>road-traffic-lights-1</title><path class="a" d="M9.75.763h5a2,2,0,0,1,2,2v18a1,1,0,0,1-1,1h-7a1,1,0,0,1-1-1v-18A2,2,0,0,1,9.75.763Z"/><circle class="a" cx="12.25" cy="5.263" r="1.5"/><circle class="a" cx="12.25" cy="11.263" r="1.5"/><circle class="a" cx="12.25" cy="17.263" r="1.5"/><line class="a" x1="12.25" y1="21.763" x2="12.25" y2="23.263"/><path class="a" d="M7.75,3.763H4.177a.927.927,0,0,0-.415,1.756L7.75,7.513"/><path class="a" d="M7.75,9.763H4.177a.927.927,0,0,0-.415,1.756L7.75,13.513"/><path class="a" d="M7.75,15.763H4.177a.927.927,0,0,0-.415,1.756L7.75,19.513"/><path class="a" d="M16.75,3.763h3.573a.927.927,0,0,1,.415,1.756L16.75,7.513"/><path class="a" d="M16.75,9.763h3.573a.927.927,0,0,1,.415,1.756L16.75,13.513"/><path class="a" d="M16.75,15.763h3.573a.927.927,0,0,1,.415,1.756L16.75,19.513"/></svg>