<svg xmlns="http://www.w3.org/2000/svg" viewBox="0 0 24 24"><defs><style>.a{fill:none;stroke:currentColor;stroke-linecap:round;stroke-linejoin:round;stroke-width:1.5px;}</style></defs><title>robot-1</title><circle class="a" cx="12" cy="11.052" r="8.25"/><path class="a" d="M19.707,14a2.948,2.948,0,0,0,.543.05,3,3,0,0,0,0-6,3.038,3.038,0,0,0-.543.05"/><path class="a" d="M18.408,5.853a3.042,3.042,0,0,0,.315-.445,3,3,0,0,0-5.2-3,2.914,2.914,0,0,0-.228.5"/><path class="a" d="M10.7,2.9a2.919,2.919,0,0,0-.229-.5,3,3,0,0,0-5.2,3,3.042,3.042,0,0,0,.315.445"/><path class="a" d="M4.294,8.1a3.049,3.049,0,0,0-.544-.05,3,3,0,0,0,0,6A2.959,2.959,0,0,0,4.294,14"/><path class="a" d="M5.592,16.251a3.051,3.051,0,0,0-.315.446A3,3,0,1,0,10.7,19.2"/><path class="a" d="M13.3,19.2a3,3,0,1,0,5.424-2.5,3.051,3.051,0,0,0-.315-.446"/><line class="a" x1="12" y1="19.302" x2="12" y2="23.052"/><circle class="a" cx="9" cy="11.052" r="2.25"/><circle class="a" cx="15" cy="11.052" r="2.25"/></svg>