<svg xmlns="http://www.w3.org/2000/svg" viewBox="0 0 24 24"><defs><style>.a{fill:none;stroke:currentColor;stroke-linecap:round;stroke-linejoin:round;stroke-width:1.5px;}</style></defs><title>robot-head-1</title><path class="a" d="M18.751,14.25C22.5,3.75,16.087.751,12,.75h0c-4.088,0-10.5,3-6.751,13.5"/><path class="a" d="M21.751,23.25l.818-5.563A3,3,0,0,0,19.6,14.25H4.4a3.006,3.006,0,0,0-2.972,3.437l.819,5.563"/><circle class="a" cx="15.001" cy="8.25" r="1.5"/><circle class="a" cx="9.001" cy="8.25" r="1.5"/><line class="a" x1="15.751" y1="18.75" x2="18.751" y2="18.75"/><line class="a" x1="15.751" y1="21.75" x2="18.751" y2="21.75"/><line class="a" x1="19.875" y1="9" x2="23.251" y2="9"/><line class="a" x1="4.117" y1="9" x2="0.751" y2="9"/><rect class="a" x="5.251" y="18.75" width="7.5" height="4.5" rx="0.75" ry="0.75"/></svg>