<svg xmlns="http://www.w3.org/2000/svg" viewBox="0 0 24 24"><defs><style>.a{fill:none;stroke:currentColor;stroke-linecap:round;stroke-linejoin:round;stroke-width:1.5px;}</style></defs><title>robot-head</title><line class="a" x1="11.258" y1="2.25" x2="11.258" y2="0.75"/><circle class="a" cx="8.258" cy="10.5" r="1.5"/><circle class="a" cx="14.258" cy="10.5" r="1.5"/><path class="a" d="M18.758,14.25s.561,9-7.5,9-7.5-9-7.5-9l0-5.508A3.007,3.007,0,0,1,7.121,5.769a38.307,38.307,0,0,0,8.264,0,3.007,3.007,0,0,1,3.368,2.967Z"/><path class="a" d="M3.75,15a3,3,0,0,1,0-6"/><path class="a" d="M18.75,15a3,3,0,0,0,0-6"/><line class="a" x1="3.75" y1="15" x2="18.75" y2="15"/><path class="a" d="M6.285,5.79A5.252,5.252,0,0,1,16.2,5.745"/><path class="a" d="M8.25,18.5a.25.25,0,1,1-.25.25.25.25,0,0,1,.25-.25"/><path class="a" d="M11.25,18.5a.25.25,0,1,1-.25.25.25.25,0,0,1,.25-.25"/><path class="a" d="M14.25,18.5a.25.25,0,1,1-.25.25.25.25,0,0,1,.25-.25"/></svg>