<svg xmlns="http://www.w3.org/2000/svg" viewBox="0 0 24 24"><defs><style>.a{fill:none;stroke:currentColor;stroke-linecap:round;stroke-linejoin:round;stroke-width:1.5px;}</style></defs><title>robot</title><path class="a" d="M.75,23.25v-1.5a1.5,1.5,0,0,1,3,0v1.5"/><path class="a" d="M21.75,20.25v-4.5a1.5,1.5,0,0,0-1.5-1.5H3.75a1.5,1.5,0,0,0-1.5,1.5v4.5"/><path class="a" d="M23.25,23.25v-1.5a1.5,1.5,0,0,0-3,0v1.5"/><path class="a" d="M18,19.026a3.006,3.006,0,0,0,1.5-2.6V11.25a7.5,7.5,0,0,0-15,0v5.176a3,3,0,0,0,1.5,2.6A12.01,12.01,0,0,0,18,19.026Z"/><line class="a" x1="9" y1="9" x2="9" y2="10.5"/><line class="a" x1="15" y1="9" x2="15" y2="10.5"/><line class="a" x1="12" y1="3.75" x2="12" y2="0.75"/></svg>