<svg id="Regular" xmlns="http://www.w3.org/2000/svg" viewBox="0 0 24 24"><defs><style>.cls-1{fill:none;stroke:currentColor;stroke-linecap:round;stroke-linejoin:round;stroke-width:1.5px;}</style></defs><title>roe</title><path class="cls-1" d="M11.02,15.064c-.226,1.181-.95,2.178-2.173,2.178H.747"/><line class="cls-1" x1="21.597" y1="23.242" x2="21.597" y2="16.055"/><path class="cls-1" d="M23.1.742c-2.25,0-3.75,2.25-3.75,2.25l-.089.133a5.24,5.24,0,0,0-5.822,0l-.089-.133S11.847.742,9.6.742c-.75,3.75,1.5,4.5,1.5,4.5l.444.148a5.224,5.224,0,0,0-.444,2.1c0,1.926-.311,3.09,2.9,7.1a3.006,3.006,0,0,0,4.7,0c3.3-4.12,2.9-5.392,2.9-7.1a5.224,5.224,0,0,0-.444-2.1l.444-.148S23.847,4.492,23.1.742Z"/><path class="cls-1" d="M13.722,7.492a.375.375,0,0,1,.375.375"/><path class="cls-1" d="M13.347,7.867a.375.375,0,0,1,.375-.375"/><path class="cls-1" d="M13.722,8.242a.375.375,0,0,1-.375-.375"/><path class="cls-1" d="M14.1,7.867a.375.375,0,0,1-.375.375"/><path class="cls-1" d="M18.972,7.492a.375.375,0,0,1,.375.375"/><path class="cls-1" d="M18.6,7.867a.375.375,0,0,1,.375-.375"/><path class="cls-1" d="M18.972,8.242a.375.375,0,0,1-.375-.375"/><path class="cls-1" d="M19.347,7.867a.375.375,0,0,1-.375.375"/><line class="cls-1" x1="15.597" y1="11.992" x2="17.097" y2="11.992"/></svg>