<svg id="Regular" xmlns="http://www.w3.org/2000/svg" viewBox="0 0 24 24"><defs><style>.cls-1{fill:none;stroke:currentColor;stroke-linecap:round;stroke-linejoin:round;stroke-width:1.5px;}</style></defs><title>rollerblades-person</title><circle class="cls-1" cx="19.5" cy="3.375" r="2.625"/><line class="cls-1" x1="3.75" y1="13.5" x2="3.75" y2="19.5"/><line class="cls-1" x1="12" y1="20.25" x2="18" y2="20.25"/><path class="cls-1" d="M1.125,13.125A.375.375,0,0,1,1.5,13.5"/><path class="cls-1" d="M.75,13.5a.375.375,0,0,1,.375-.375"/><path class="cls-1" d="M1.125,13.875A.375.375,0,0,1,.75,13.5"/><path class="cls-1" d="M1.5,13.5a.375.375,0,0,1-.375.375"/><path class="cls-1" d="M1.125,16.125A.375.375,0,0,1,1.5,16.5"/><path class="cls-1" d="M.75,16.5a.375.375,0,0,1,.375-.375"/><path class="cls-1" d="M1.125,16.875A.375.375,0,0,1,.75,16.5"/><path class="cls-1" d="M1.5,16.5a.375.375,0,0,1-.375.375"/><path class="cls-1" d="M1.125,19.125A.375.375,0,0,1,1.5,19.5"/><path class="cls-1" d="M.75,19.5a.375.375,0,0,1,.375-.375"/><path class="cls-1" d="M1.125,19.875A.375.375,0,0,1,.75,19.5"/><path class="cls-1" d="M1.5,19.5a.375.375,0,0,1-.375.375"/><path class="cls-1" d="M12,22.5a.375.375,0,0,1,.375.375"/><path class="cls-1" d="M11.625,22.875A.375.375,0,0,1,12,22.5"/><path class="cls-1" d="M12,23.25a.375.375,0,0,1-.375-.375"/><path class="cls-1" d="M12.375,22.875A.375.375,0,0,1,12,23.25"/><path class="cls-1" d="M15,22.5a.375.375,0,0,1,.375.375"/><path class="cls-1" d="M14.625,22.875A.375.375,0,0,1,15,22.5"/><path class="cls-1" d="M15,23.25a.375.375,0,0,1-.375-.375"/><path class="cls-1" d="M15.375,22.875A.375.375,0,0,1,15,23.25"/><path class="cls-1" d="M18,22.5a.375.375,0,0,1,.375.375"/><path class="cls-1" d="M17.625,22.875A.375.375,0,0,1,18,22.5"/><path class="cls-1" d="M18,23.25a.375.375,0,0,1-.375-.375"/><path class="cls-1" d="M18.375,22.875A.375.375,0,0,1,18,23.25"/><path class="cls-1" d="M21.75,9.749H19.277L15.938,7.077a1.485,1.485,0,0,0-.926-.326H7.5a1.5,1.5,0,0,0,0,3h4.109L7.283,14.509A1.5,1.5,0,0,1,6.173,15H3.75v3H6.174A4.5,4.5,0,0,0,9.5,16.527l1.624-1.786.714.357A3,3,0,0,1,13.5,17.782V20.25h3V17.782a5.966,5.966,0,0,0-3.278-5.345L15.163,10.3l2.239,1.79a3,3,0,0,0,1.874.657H21.75a1.5,1.5,0,0,0,0-3Z"/></svg>