<svg id="Regular" xmlns="http://www.w3.org/2000/svg" viewBox="0 0 24 24"><defs><style>.cls-1{fill:none;stroke:currentColor;stroke-linecap:round;stroke-linejoin:round;stroke-width:1.5px;}</style></defs><title>rollerblades</title><line class="cls-1" x1="3.75" y1="21.75" x2="2.25" y2="21.75"/><line class="cls-1" x1="21.75" y1="21.75" x2="20.25" y2="21.75"/><circle class="cls-1" cx="5.25" cy="21.75" r="1.5"/><circle class="cls-1" cx="12" cy="21.75" r="1.5"/><circle class="cls-1" cx="18.75" cy="21.75" r="1.5"/><path class="cls-1" d="M18.519,9.9a3.688,3.688,0,0,1-.463,7.348H5.25a3,3,0,0,1-3-3v-12A1.5,1.5,0,0,1,3.75.75h6a1.5,1.5,0,0,1,1.5,1.5V7.675a1.5,1.5,0,0,0,1.315,1.488Z"/><line class="cls-1" x1="6.75" y1="21.75" x2="10.5" y2="21.75"/><line class="cls-1" x1="13.5" y1="21.75" x2="17.25" y2="21.75"/><line class="cls-1" x1="11.25" y1="3.75" x2="8.25" y2="3.75"/><line class="cls-1" x1="11.25" y1="6.75" x2="6.75" y2="6.75"/></svg>