<svg xmlns="http://www.w3.org/2000/svg" viewBox="0 0 24 24"><defs><style>.a{fill:none;stroke:currentColor;stroke-linecap:round;stroke-linejoin:round;stroke-width:1.5px;}</style></defs><title>room-service-cart-1</title><line class="a" x1="1.5" y1="20.254" x2="22.5" y2="20.254"/><line class="a" x1="12" y1="0.754" x2="12" y2="5.254"/><path class="a" d="M3,20.254v-12a6,6,0,0,1,6-6h6a6,6,0,0,1,6,6v12"/><line class="a" x1="9" y1="5.254" x2="15" y2="5.254"/><rect class="a" x="6" y="11.254" width="12" height="9" rx="1.5" ry="1.5"/><path class="a" d="M13.5,8.254h-3A1.5,1.5,0,0,0,9,9.754v1.5h6v-1.5A1.5,1.5,0,0,0,13.5,8.254Z"/><path class="a" d="M7.5,21A2.25,2.25,0,0,1,3,21v-.75H7.5Z"/><path class="a" d="M21,21a2.25,2.25,0,1,1-4.5,0v-.75H21Z"/></svg>