<svg xmlns="http://www.w3.org/2000/svg" viewBox="0 0 24 24"><defs><style>.a{fill:none;stroke:currentColor;stroke-linecap:round;stroke-linejoin:round;stroke-width:1.5px;}</style></defs><title>room-service-plates</title><circle class="a" cx="11.993" cy="3.379" r="2.625"/><line class="a" x1="11.993" y1="17.254" x2="11.993" y2="21.754"/><path class="a" d="M20.332,7.756a1.5,1.5,0,0,0-2.08.416A1.9,1.9,0,0,1,16,8.9a11.36,11.36,0,0,0-7.988,0,1.9,1.9,0,0,1-2.259-.728,1.5,1.5,0,1,0-2.5,1.664,4.893,4.893,0,0,0,5.741,1.9V21.754a1.5,1.5,0,0,0,3,0,1.5,1.5,0,0,0,3,0L15,11.73a4.947,4.947,0,0,0,1.674.294,4.886,4.886,0,0,0,4.074-2.188A1.5,1.5,0,0,0,20.332,7.756Z"/><path class="a" d="M17.25,5.254a3,3,0,0,1,6,0Z"/><line class="a" x1="20.25" y1="2.254" x2="20.25" y2="0.754"/><path class="a" d="M.75,5.254a3,3,0,0,1,6,0Z"/><line class="a" x1="3.75" y1="2.254" x2="3.75" y2="0.754"/></svg>