<svg xmlns="http://www.w3.org/2000/svg" viewBox="0 0 24 24"><defs><style>.a{fill:none;stroke:currentColor;stroke-linecap:round;stroke-linejoin:round;stroke-width:1.5px;}</style></defs><title>room-service-champagne</title><circle class="a" cx="4.5" cy="3.566" r="2.625"/><path class="a" d="M9.75,15.566h3a1.5,1.5,0,0,0,0-3h-3a1.5,1.5,0,0,1-1.5-1.5,3,3,0,0,0-3-3H3.75a3,3,0,0,0-3,3v4.5a1.5,1.5,0,0,0,1.5,1.5v3.75a2.25,2.25,0,0,0,4.5,0v-6"/><line class="a" x1="11.25" y1="9.566" x2="23.25" y2="9.566"/><path class="a" d="M15.75,5.066a1.5,1.5,0,0,1-3,0v-3h3Z"/><line class="a" x1="14.25" y1="6.566" x2="14.25" y2="9.566"/><path class="a" d="M21.75,5.066a1.5,1.5,0,0,1-3,0v-3h3Z"/><line class="a" x1="20.25" y1="6.566" x2="20.25" y2="9.566"/></svg>