<svg xmlns="http://www.w3.org/2000/svg" viewBox="0 0 24 24"><defs><style>.a{fill:none;stroke:currentColor;stroke-linecap:round;stroke-linejoin:round;stroke-width:1.5px;}</style></defs><title>room-service-food</title><path class="a" d="M23.168,21.254,18.668,8.5a1.5,1.5,0,0,0-1.3-.986,1.52,1.52,0,0,0-1.443.8c-.048.089-1.22,2.19-4.668,2.19a1.5,1.5,0,0,0,0,3,8.809,8.809,0,0,0,5.409-1.666l.924,2.619-2.249,1.928a4.509,4.509,0,0,0-1.251,1.746L12.86,21.2a1.5,1.5,0,1,0,2.786,1.113l1.226-3.064a1.5,1.5,0,0,1,.416-.582l1.369-1.173,1.681,4.762a1.5,1.5,0,1,0,2.83-1Z"/><path class="a" d="M19.128,4.129a2.625,2.625,0,0,1-5.25,0,1.511,1.511,0,0,1,.045-.375h5.16A1.511,1.511,0,0,1,19.128,4.129Z"/><path class="a" d="M11.253,13.5v5.25a1.5,1.5,0,0,1-1.5,1.5h-9"/><path class="a" d="M1.5,22.879a.375.375,0,1,1,.375-.375.374.374,0,0,1-.375.375"/><path class="a" d="M8.253,22.879a.375.375,0,1,1,.375-.375.374.374,0,0,1-.375.375"/><polygon class="a" points="19.503 3.754 13.503 3.754 14.253 0.754 18.753 0.754 19.503 3.754"/><rect class="a" x="0.753" y="12.754" width="7.5" height="4.5" rx="0.5" ry="0.5"/><path class="a" d="M3,12.754v-1.5a1.5,1.5,0,0,1,3,0v1.5"/></svg>