<svg xmlns="http://www.w3.org/2000/svg" viewBox="0 0 24 24"><defs><style>.a{fill:none;stroke:currentColor;stroke-linecap:round;stroke-linejoin:round;stroke-width:1.5px;}</style></defs><title>room-service-cart</title><path class="a" d="M12,9H6.3a1.5,1.5,0,0,0-1.411.991L.836,21.25a1.5,1.5,0,1,0,2.83,1l1.623-4.6A5.732,5.732,0,0,1,7.5,21.75a1.5,1.5,0,0,0,3,0c0-3.883-3.133-6.368-4.161-7.079L7.5,12H12"/><path class="a" d="M10.5,3.75a2.625,2.625,0,0,1-5.25,0v-3H10.5Z"/><line class="a" x1="5.25" y1="3.75" x2="10.5" y2="3.75"/><circle class="a" cx="15.75" cy="21.75" r="1.5"/><path class="a" d="M23.25,20.25h-7.5V7.5A3.75,3.75,0,0,1,19.5,3.75h3.75"/><line class="a" x1="23.25" y1="0.75" x2="23.25" y2="6.75"/><line class="a" x1="20.25" y1="6.75" x2="23.25" y2="6.75"/><path class="a" d="M21,20.25A2.25,2.25,0,0,1,18.75,18V15A2.25,2.25,0,0,1,21,12.75h2.25"/></svg>