<svg xmlns="http://www.w3.org/2000/svg" viewBox="0 0 24 24"><defs><style>.a{fill:none;stroke:currentColor;stroke-linecap:round;stroke-linejoin:round;stroke-width:1.5px;}</style></defs><title>room-service-bring-plate</title><path class="a" d="M3.75,11.579a9,9,0,0,1,18,0Z"/><line class="a" x1="2.25" y1="11.579" x2="23.25" y2="11.579"/><line class="a" x1="12.75" y1="1.079" x2="12.75" y2="2.579"/><path class="a" d="M.75,22.079l3.75-3.65,5.25,4.5,12.062-8.711a1.17,1.17,0,0,0-.083-1.952h0a4.5,4.5,0,0,0-4.5-.075L14.3,13.816a4.6,4.6,0,0,1-5.434-.769l-.59-.589A3,3,0,0,0,4.816,11.9l0,0a.856.856,0,0,0-.222,1.37l.458.458A4.5,4.5,0,0,1,6.278,17.79l-.372,1.843"/></svg>