<svg xmlns="http://www.w3.org/2000/svg" viewBox="0 0 24 24"><defs><style>.a{fill:none;stroke:currentColor;stroke-linecap:round;stroke-linejoin:round;stroke-width:1.5px;}</style></defs><title>room-service-cart-food</title><path class="a" d="M.75,5.254a3,3,0,0,1,3,3v3"/><path class="a" d="M23.25,23.254H3.75v-12h18a1.5,1.5,0,0,1,1.5,1.5Z"/><line class="a" x1="9.75" y1="23.254" x2="9.75" y2="15.754"/><line class="a" x1="14.25" y1="23.254" x2="14.25" y2="15.754"/><line class="a" x1="18.75" y1="23.254" x2="18.75" y2="15.754"/><path class="a" d="M8.25,8.254a6,6,0,1,1,12,0Z"/><line class="a" x1="6.75" y1="8.254" x2="21.75" y2="8.254"/><path class="a" d="M20.25,9A2.25,2.25,0,0,1,18,11.254H10.5A2.25,2.25,0,0,1,8.25,9v-.75h12Z"/><line class="a" x1="14.25" y1="2.254" x2="14.25" y2="0.754"/></svg>