<svg xmlns="http://www.w3.org/2000/svg" viewBox="0 0 24 24"><defs><style>.a{fill:none;stroke:currentColor;stroke-linecap:round;stroke-linejoin:round;stroke-width:1.5px;}</style></defs><title>room-service-staff</title><path class="a" d="M17.625,3.754a3,3,0,0,1-6,0v-3h6Z"/><line class="a" x1="14.625" y1="17.254" x2="14.625" y2="21.754"/><path class="a" d="M17.632,12l-.007,9.75a1.5,1.5,0,1,1-3,0,1.5,1.5,0,1,1-3,0V12"/><path class="a" d="M17.625,17.254a3,3,0,0,0,3-3v-3a3,3,0,0,0-3-3h-6a3,3,0,0,0-3,3,1.5,1.5,0,0,1-1.5,1.5H4.875a1.5,1.5,0,1,0,0,3h3.75"/><line class="a" x1="11.625" y1="3.754" x2="17.625" y2="3.754"/></svg>