<svg id="Regular" xmlns="http://www.w3.org/2000/svg" viewBox="0 0 24 24"><defs><style>.cls-1{fill:none;stroke:currentColor;stroke-linecap:round;stroke-linejoin:round;stroke-width:1.5px;}</style></defs><title>rooster-1</title><path class="cls-1" d="M17.977,13.515a8.25,8.25,0,0,0-16.467.747v9"/><path class="cls-1" d="M15.243,8.1A3,3,0,1,0,12.58,2.776,2.983,2.983,0,0,0,6.8,3.348a2.994,2.994,0,1,0-2.678,4.89"/><path class="cls-1" d="M17.785,13.512a4.539,4.539,0,0,1,4.354,2.679.75.75,0,0,1-.677,1.071H17.785A1.881,1.881,0,1,1,17.785,13.512Z"/><path class="cls-1" d="M9.01,16.512a2.747,2.747,0,0,1,3,3c0,2.25,1.5,3.75,3,3.75s3-1.5,3-3.75v-2.25"/><path class="cls-1" d="M12.01,11.637a.375.375,0,0,1,.375.375"/><path class="cls-1" d="M11.635,12.012a.375.375,0,0,1,.375-.375"/><path class="cls-1" d="M12.01,12.387a.374.374,0,0,1-.375-.375"/><path class="cls-1" d="M12.385,12.012a.374.374,0,0,1-.375.375"/></svg>