<svg id="Regular" xmlns="http://www.w3.org/2000/svg" viewBox="0 0 24 24"><defs><style>.cls-1{fill:none;stroke:currentColor;stroke-linecap:round;stroke-linejoin:round;stroke-width:1.5px;}</style></defs><title>rooster-2</title><path class="cls-1" d="M.75,9.012s.75-4.5,6-3.75c4.7.671,4.5,6,4.5,6h1.5a2.747,2.747,0,0,0,3-3,3,3,0,0,1,6,0v3.75a6.75,6.75,0,1,1-13.5,0c0-2.25-4.5-3-5.25,0"/><line class="cls-1" x1="15" y1="18.762" x2="15" y2="22.512"/><line class="cls-1" x1="17.25" y1="22.512" x2="13.5" y2="22.512"/><polyline class="cls-1" points="23.25 8.262 21.75 9.012 23.25 10.512"/><path class="cls-1" d="M19.125,8.262a.375.375,0,0,0-.375.375"/><path class="cls-1" d="M19.5,8.637a.375.375,0,0,0-.375-.375"/><path class="cls-1" d="M19.125,9.012a.374.374,0,0,0,.375-.375"/><path class="cls-1" d="M18.75,8.637a.374.374,0,0,0,.375.375"/><path class="cls-1" d="M16.629,6.141,16.5,6.012c-.75-.75-1.5-1.5-1.5-2.25a2.248,2.248,0,0,1,4.125-1.24,2.248,2.248,0,0,1,4.125,1.24c0,.75-.75,1.5-1.5,2.25l-.537.537"/><path class="cls-1" d="M16.5,13.512a2.2,2.2,0,0,1-2.25,2.25,2.774,2.774,0,0,1-2.25-1.5"/></svg>