<svg xmlns="http://www.w3.org/2000/svg" viewBox="0 0 24 24"><defs><style>.a{fill:none;stroke:currentColor;stroke-linecap:round;stroke-linejoin:round;stroke-width:1.5px;}</style></defs><title>rotate-vertical</title><rect class="a" x="3.75" y="9.75" width="10.5" height="16.5" rx="1" ry="1" transform="translate(-9 27) rotate(-90)"/><path class="a" d="M23.25,15.75a1.5,1.5,0,0,1-1.5,1.5"/><path class="a" d="M23.25,2.25a1.5,1.5,0,0,0-1.5-1.5"/><line class="a" x1="17.25" y1="17.25" x2="18.75" y2="17.25"/><line class="a" x1="17.25" y1="0.75" x2="18.75" y2="0.75"/><line class="a" x1="23.25" y1="12.75" x2="23.25" y2="10.5"/><line class="a" x1="23.25" y1="7.5" x2="23.25" y2="5.25"/><path class="a" d="M12.75,2.25a1.5,1.5,0,0,1,1.5-1.5"/><line class="a" x1="12.75" y1="12.75" x2="12.75" y2="10.5"/><line class="a" x1="12.75" y1="7.5" x2="12.75" y2="5.25"/><path class="a" d="M1.5,8.561,3.22,10.28a.749.749,0,0,0,1.06,0L6,8.561"/><path class="a" d="M8.561,6,10.28,4.28a.749.749,0,0,0,0-1.06L8.561,1.5"/><path class="a" d="M3.75,10.5V6.75a3,3,0,0,1,3-3H10.5"/></svg>