<svg xmlns="http://www.w3.org/2000/svg" viewBox="0 0 24 24"><defs><style>.a{fill:none;stroke:currentColor;stroke-linecap:round;stroke-linejoin:round;stroke-width:1.5px;}</style></defs><title>rotate-front</title><polyline class="a" points="16.5 0.763 14.25 3.013 16.5 5.263"/><polyline class="a" points="18.75 7.513 21 9.763 23.25 7.513"/><path class="a" d="M14.25,3.013h1.687A5.063,5.063,0,0,1,21,8.076V9.763"/><rect class="a" x="0.75" y="4.5" width="11.25" height="12" rx="1" ry="1"/><path class="a" d="M12,11.25h5.752a1,1,0,0,1,1,1v10a1,1,0,0,1-1,1h-10a1,1,0,0,1-1-1V16.5"/><path class="a" d="M11.993,14.263H15.25a.5.5,0,0,1,.5.5v5a.5.5,0,0,1-.5.5h-5a.5.5,0,0,1-.5-.5V16.5"/></svg>