<svg xmlns="http://www.w3.org/2000/svg" viewBox="0 0 24 24"><defs><style>.a{fill:none;stroke:currentColor;stroke-linecap:round;stroke-linejoin:round;stroke-width:1.5px;}</style></defs><title>rotate-horizontal</title><rect class="a" x="0.75" y="0.75" width="10.5" height="16.5" rx="1" ry="1"/><path class="a" d="M8.25,23.25a1.5,1.5,0,0,1-1.5-1.5"/><path class="a" d="M21.75,23.25a1.5,1.5,0,0,0,1.5-1.5"/><line class="a" x1="6.75" y1="17.25" x2="6.75" y2="18.75"/><line class="a" x1="23.25" y1="17.25" x2="23.25" y2="18.75"/><line class="a" x1="11.25" y1="23.25" x2="13.5" y2="23.25"/><line class="a" x1="16.5" y1="23.25" x2="18.75" y2="23.25"/><path class="a" d="M21.75,12.75a1.5,1.5,0,0,1,1.5,1.5"/><line class="a" x1="11.25" y1="12.75" x2="13.5" y2="12.75"/><line class="a" x1="16.5" y1="12.75" x2="18.75" y2="12.75"/><path class="a" d="M15.439,1.5,13.72,3.22a.749.749,0,0,0,0,1.06L15.439,6"/><path class="a" d="M18,8.561l1.72,1.719a.749.749,0,0,0,1.06,0L22.5,8.561"/><path class="a" d="M13.5,3.75h3.75a3,3,0,0,1,3,3V10.5"/></svg>