<svg xmlns="http://www.w3.org/2000/svg" viewBox="0 0 24 24"><defs><style>.a{fill:none;stroke:currentColor;stroke-linecap:round;stroke-linejoin:round;stroke-width:1.5px;}</style></defs><title>safety-warning-cliff</title><path class="a" d="M13.462,1.653a1.636,1.636,0,0,0-2.924,0L.923,20.884A1.636,1.636,0,0,0,2.385,23.25H21.616a1.636,1.636,0,0,0,1.462-2.366Z"/><circle class="a" cx="13.5" cy="10.5" r="1.5"/><path class="a" d="M9,10.5l.935,1.246a5.473,5.473,0,0,0,3.477,2.114,5.467,5.467,0,0,1,3.653,2.362l.185.278"/><line class="a" x1="13.065" y1="13.79" x2="9.75" y2="19.5"/><path class="a" d="M11.53,16.434a4.038,4.038,0,0,0-4.78.816"/><line class="a" x1="4.5" y1="20.25" x2="6.75" y2="20.25"/></svg>