<svg xmlns="http://www.w3.org/2000/svg" viewBox="0 0 24 24"><defs><style>.a{fill:none;stroke:currentColor;stroke-linecap:round;stroke-linejoin:round;stroke-width:1.5px;}</style></defs><title>safety-call-firefighters-1</title><path class="a" d="M2.341,8.181l-.008.008a4.5,4.5,0,0,0-1.042,5.534l.419.786a1.5,1.5,0,0,0,2.03.617l3.308-1.765a1.5,1.5,0,0,0,.618-2.029h0A1.5,1.5,0,0,1,8.283,9.3l5.294-2.824a1.5,1.5,0,0,1,2.029.617h0a1.5,1.5,0,0,0,2.03.618l3.308-1.766a1.5,1.5,0,0,0,.618-2.029l-.419-.786A4.5,4.5,0,0,0,15.966.915l-.011,0A40.623,40.623,0,0,0,2.341,8.181Z"/><path class="a" d="M18.739,23.25c-2.25,0-4.5-1.727-4.5-3.857,0-2.314,1.012-3.857,2.7-3.857-.225,1.286-.338,2.314,1.012,2.314,2.025,0,1.438-3.792-.712-6.6,2.8,0,6,3.643,6,6.857C23.239,20.679,22,23.25,18.739,23.25Z"/></svg>