<svg xmlns="http://www.w3.org/2000/svg" viewBox="0 0 24 24"><defs><style>.a{fill:none;stroke:currentColor;stroke-linecap:round;stroke-linejoin:round;stroke-width:1.5px;}</style></defs><title>safety-float</title><path class="a" d="M14.251,2.511A9.765,9.765,0,0,1,21.489,9.75"/><path class="a" d="M2.511,9.751A9.765,9.765,0,0,1,9.75,2.511"/><path class="a" d="M14.251,21.489a9.764,9.764,0,0,0,7.238-7.238"/><path class="a" d="M2.511,14.25A9.764,9.764,0,0,0,9.75,21.489"/><circle class="a" cx="12" cy="12" r="3.75"/><path class="a" d="M15,9.75H21.75a1.5,1.5,0,0,1,1.5,1.5v1.5a1.5,1.5,0,0,1-1.5,1.5H15"/><path class="a" d="M14.25,15V21.75a1.5,1.5,0,0,1-1.5,1.5h-1.5a1.5,1.5,0,0,1-1.5-1.5V15"/><path class="a" d="M9,14.25H2.25a1.5,1.5,0,0,1-1.5-1.5v-1.5a1.5,1.5,0,0,1,1.5-1.5H9"/><path class="a" d="M9.75,9V2.25a1.5,1.5,0,0,1,1.5-1.5h1.5a1.5,1.5,0,0,1,1.5,1.5V9"/></svg>