<svg xmlns="http://www.w3.org/2000/svg" viewBox="0 0 24 24"><defs><style>.a{fill:none;stroke:currentColor;stroke-linecap:round;stroke-linejoin:round;stroke-width:1.5px;}</style></defs><title>safety-fire-exit</title><path class="a" d="M15.246,15.021l-3.609-.6-1.033-3.1c1.461-.835,1.255-.859,2.9-.819a1.5,1.5,0,0,0,0-3,8.391,8.391,0,0,0-6.328,2.707C6.654,10.761,5.38,12,2.25,12a1.5,1.5,0,0,0,0,3,9.9,9.9,0,0,0,5.865-1.665l.632,1.9L6.939,16.679A4.474,4.474,0,0,0,5.25,20.192V21.75a1.5,1.5,0,0,0,3,0V20.192a1.491,1.491,0,0,1,.564-1.171l2.1-1.681S14.824,18,15,18a1.5,1.5,0,0,0,.245-2.979Z"/><circle class="a" cx="4.5" cy="6.75" r="2.625"/><path class="a" d="M23.25,1.411A6.343,6.343,0,0,0,20.55.75c2.867,3.64,3.6,8,.9,8-1.8,0-1.65-1.333-1.35-3-1.35,0-3.6,2-3.6,5,0,3.333,3,5,6,5,.26,0,.509-.012.75-.035"/></svg>