<svg xmlns="http://www.w3.org/2000/svg" viewBox="0 0 24 24"><defs><style>.a{fill:none;stroke:currentColor;stroke-linecap:round;stroke-linejoin:round;stroke-width:1.5px;}</style></defs><title>safety-rocky-road</title><circle class="a" cx="15.723" cy="3.401" r="2.625"/><path class="a" d="M17.986,14.015a2.235,2.235,0,0,1-1.141-1.579A7.7,7.7,0,0,0,12.918,7,6.007,6.007,0,0,0,4.782,9.409,1.5,1.5,0,1,0,7.419,10.84a3.006,3.006,0,0,1,3.363-1.479l-.237.436A16.311,16.311,0,0,1,3.8,16.463a1.5,1.5,0,1,0,1.4,2.654,19.414,19.414,0,0,0,4.168-2.962,8.033,8.033,0,0,1,.906,5.309,1.5,1.5,0,1,0,2.953.523,11.047,11.047,0,0,0-1.76-8.132,19.494,19.494,0,0,0,1.714-2.627l.012-.023a4.725,4.725,0,0,1,.7,1.76,5.224,5.224,0,0,0,2.663,3.687,1.5,1.5,0,0,0,1.431-2.637Z"/><polyline class="a" points="16.5 23.225 18.75 20.975 21 23.225"/></svg>