<svg xmlns="http://www.w3.org/2000/svg" viewBox="0 0 24 24"><defs><style>.a{fill:none;stroke:currentColor;stroke-linecap:round;stroke-linejoin:round;stroke-width:1.5px;}</style></defs><title>safety-fire-exit-stairs</title><polyline class="a" points="23.25 14.063 20.25 14.063 20.25 17.063 15.75 17.063 15.75 20.063 11.25 20.063 11.25 23.063 5.25 23.063"/><path class="a" d="M15.246,11.833l-3.609-.6L10.6,8.132c1.461-.835,1.255-.86,2.9-.819a1.5,1.5,0,0,0,0-3A8.391,8.391,0,0,0,7.172,7.02C6.654,7.574,5.38,8.813,2.25,8.813a1.5,1.5,0,0,0,0,3,9.908,9.908,0,0,0,5.865-1.665l.632,1.9L6.939,13.491A4.475,4.475,0,0,0,5.25,17v1.559a1.5,1.5,0,0,0,3,0V17a1.487,1.487,0,0,1,.564-1.17l2.1-1.682s3.909.661,4.086.661a1.5,1.5,0,0,0,.245-2.98Z"/><circle class="a" cx="4.5" cy="3.563" r="2.625"/><path class="a" d="M20.088,3.142a.25.25,0,0,0-.315.362,3.07,3.07,0,0,1,.1,3.059,2.019,2.019,0,0,1-.689-.856.252.252,0,0,0-.142-.149.247.247,0,0,0-.206.007,2.694,2.694,0,0,0-1.588,2.5,3,3,0,1,0,6,0A5.523,5.523,0,0,0,20.088,3.142Z"/></svg>