<svg xmlns="http://www.w3.org/2000/svg" viewBox="0 0 24 24"><defs><style>.a{fill:none;stroke:currentColor;stroke-linecap:round;stroke-linejoin:round;stroke-width:1.5px;}</style></defs><title>safety-911</title><path class="a" d="M9.877,3.352,7.747,4.488A30.038,30.038,0,0,0,2.341,8.181l-.008.008a4.5,4.5,0,0,0-1.042,5.534l.419.786a1.5,1.5,0,0,0,2.03.617l3.308-1.765a1.5,1.5,0,0,0,.618-2.029h0A1.5,1.5,0,0,1,8.283,9.3l5.294-2.824a1.5,1.5,0,0,1,2.029.617h0a1.5,1.5,0,0,0,2.03.618l3.308-1.766a1.5,1.5,0,0,0,.618-2.029l-.419-.786A4.5,4.5,0,0,0,15.966.915l-.011,0A29.9,29.9,0,0,0,9.877,3.352Z"/><path class="a" d="M21.739,23.25V16.5a.75.75,0,0,0-1.2-.6l-1.05.6"/><line class="a" x1="20.239" y1="23.25" x2="23.239" y2="23.25"/><path class="a" d="M16.489,23.25V16.5a.75.75,0,0,0-1.2-.6l-1.05.6"/><line class="a" x1="14.989" y1="23.25" x2="17.989" y2="23.25"/><circle class="a" cx="9.739" cy="18" r="2.25"/><path class="a" d="M8.989,23.25a3,3,0,0,0,3-3V18"/></svg>