<svg xmlns="http://www.w3.org/2000/svg" viewBox="0 0 24 24"><defs><style>.a{fill:none;stroke:currentColor;stroke-linecap:round;stroke-linejoin:round;stroke-width:1.5px;}</style></defs><title>safety-exit-left</title><path class="a" d="M21.75,14.063H18.6a1.5,1.5,0,0,1-1.122-.5l-4.1-4.612.571-.38a2.99,2.99,0,0,1,1.665-.5H18.75a1.5,1.5,0,0,0,0-3H15.612a5.988,5.988,0,0,0-3.328,1.008L8.219,8.781a2.987,2.987,0,0,1-2.253.445L4.044,8.842a1.5,1.5,0,1,0-.588,2.941l1.921.384a6.1,6.1,0,0,0,1.191.119,5.953,5.953,0,0,0,3.315-1.009l.974-.649,2.313,2.6-1.416.944a4.491,4.491,0,0,0-2,3.744v3.645a1.5,1.5,0,1,0,3,0V17.918a1.5,1.5,0,0,1,.668-1.248L15.182,15.5l.052.059A4.508,4.508,0,0,0,18.6,17.063H21.75a1.5,1.5,0,1,0,0-3Z"/><circle class="a" cx="8.25" cy="3.563" r="2.625"/><polyline class="a" points="3 16.313 0.75 18.563 3 20.813"/><line class="a" x1="0.75" y1="18.563" x2="6" y2="18.563"/></svg>