<svg xmlns="http://www.w3.org/2000/svg" viewBox="0 0 24 24"><defs><style>.a{fill:none;stroke:currentColor;stroke-linecap:round;stroke-linejoin:round;stroke-width:1.5px;}</style></defs><title>safety-vest</title><line class="a" x1="0.75" y1="14.25" x2="23.25" y2="14.25"/><line class="a" x1="0.75" y1="18.75" x2="23.25" y2="18.75"/><line class="a" x1="17.25" y1="12.75" x2="17.25" y2="20.25"/><line class="a" x1="6.75" y1="12.75" x2="6.75" y2="20.25"/><path class="a" d="M18.75,6.75V1.5A.75.75,0,0,0,18,.75H15.674a.748.748,0,0,0-.734.6,3,3,0,0,1-5.88,0,.75.75,0,0,0-.734-.6H6a.75.75,0,0,0-.75.75V6.75a4.5,4.5,0,0,1-4.5,4.5v10.5a1.5,1.5,0,0,0,1.5,1.5h19.5a1.5,1.5,0,0,0,1.5-1.5V11.25A4.5,4.5,0,0,1,18.75,6.75Z"/></svg>