<svg xmlns="http://www.w3.org/2000/svg" viewBox="0 0 24 24"><defs><style>.a{fill:none;stroke:currentColor;stroke-linecap:round;stroke-linejoin:round;stroke-width:1.5px;}</style></defs><title>safety-fire</title><rect class="a" x="0.75" y="0.75" width="22.5" height="22.5" rx="1" ry="1"/><path class="a" d="M4.5,11.25v-6A1.5,1.5,0,0,1,6,3.75H7.5"/><line class="a" x1="4.5" y1="8.25" x2="6.75" y2="8.25"/><line class="a" x1="9.75" y1="11.25" x2="9.75" y2="3.75"/><line class="a" x1="12" y1="11.25" x2="12" y2="3.75"/><path class="a" d="M12,3.75h1.125a1.875,1.875,0,0,1,0,3.75H12"/><line class="a" x1="15" y1="11.25" x2="12.75" y2="7.5"/><path class="a" d="M19.5,11.25h-.75a1.5,1.5,0,0,1-1.5-1.5V5.25a1.5,1.5,0,0,1,1.5-1.5h.75"/><line class="a" x1="17.25" y1="8.25" x2="19.5" y2="8.25"/><line class="a" x1="0.75" y1="14.25" x2="23.25" y2="14.25"/><polyline class="a" points="5.25 17.25 6.75 18.75 5.25 20.25"/><polyline class="a" points="18.75 17.25 17.25 18.75 18.75 20.25"/><circle class="a" cx="12" cy="18.75" r="2.25"/></svg>