<svg xmlns="http://www.w3.org/2000/svg" viewBox="0 0 24 24"><defs><style>.a{fill:none;stroke:currentColor;stroke-linecap:round;stroke-linejoin:round;stroke-width:1.5px;}</style></defs><title>safety-call-firefighters-2</title><path class="a" d="M12.75,23.25c-3,0-6-1.666-6-5,0-3,2.25-5,3.6-5-.3,1.667-.45,3,1.35,3,2.7,0,1.967-4.36-.9-8,3.728,0,7.95,4.167,7.95,8.334C18.75,19.917,17.1,23.25,12.75,23.25Z"/><path class="a" d="M.75,9A8.25,8.25,0,0,1,9,.75"/><path class="a" d="M5.25,9A3.75,3.75,0,0,1,9,5.25"/><path class="a" d="M23.25,9A8.25,8.25,0,0,0,15,.75"/><path class="a" d="M18.75,9A3.75,3.75,0,0,0,15,5.25"/></svg>