<svg xmlns="http://www.w3.org/2000/svg" viewBox="0 0 24 24"><defs><style>.a{fill:none;stroke:currentColor;stroke-linecap:round;stroke-linejoin:round;stroke-width:1.5px;}</style></defs><title>safety-extinguish-fire</title><path class="a" d="M13.829,3.75H10.171A1.5,1.5,0,0,1,8.716,2.614L8.25.75h7.5l-.466,1.864A1.5,1.5,0,0,1,13.829,3.75Z"/><path class="a" d="M10.871,13.872a3.739,3.739,0,0,1,.379,4.263A1.332,1.332,0,0,1,9.829,17,3.015,3.015,0,0,0,8.266,19.84a3.41,3.41,0,0,0,3.41,3.41,3.458,3.458,0,0,0,3.411-3.41A5.67,5.67,0,0,0,10.871,13.872Z"/><line class="a" x1="12" y1="6.75" x2="12" y2="10.5"/><line class="a" x1="15.75" y1="6.75" x2="18.75" y2="10.5"/><line class="a" x1="8.25" y1="6.75" x2="5.25" y2="10.5"/></svg>