<svg xmlns="http://www.w3.org/2000/svg" viewBox="0 0 24 24"><defs><style>.a{fill:none;stroke:currentColor;stroke-linecap:round;stroke-linejoin:round;stroke-width:1.5px;}</style></defs><title>safety-call-firefighters</title><path class="a" d="M2.341,8.181l-.009.008a4.5,4.5,0,0,0-1.041,5.534l.419.786a1.5,1.5,0,0,0,2.029.617l3.309-1.765a1.5,1.5,0,0,0,.617-2.029h0A1.5,1.5,0,0,1,8.283,9.3l5.293-2.824a1.5,1.5,0,0,1,2.03.617h0a1.5,1.5,0,0,0,2.029.618l3.309-1.766a1.5,1.5,0,0,0,.617-2.029l-.419-.786A4.5,4.5,0,0,0,15.965.915l-.011,0A40.628,40.628,0,0,0,2.341,8.181Z"/><path class="a" d="M17.927,12.75H14.978a.377.377,0,0,1-.208-.063L12.615,11.25a5.386,5.386,0,0,0,5.312,4.5h1.432a5.382,5.382,0,0,1,2.987.905l.893.595A5.386,5.386,0,0,0,17.927,12.75Z"/><path class="a" d="M23.239,20.25H19.416a.377.377,0,0,1-.208-.063L17.053,18.75a5.386,5.386,0,0,0,5.312,4.5h.874"/></svg>