<svg xmlns="http://www.w3.org/2000/svg" viewBox="0 0 24 24"><defs><style>.a{fill:none;stroke:currentColor;stroke-linecap:round;stroke-linejoin:round;stroke-width:1.5px;}</style></defs><title>safety-fire-alarm</title><path class="a" d="M17.669,8.25H6.331A1.5,1.5,0,0,1,4.908,7.225L3.75,3.75v-3h16.5v3L19.092,7.225A1.5,1.5,0,0,1,17.669,8.25Z"/><path class="a" d="M18,8.213V8.25c0,2.486-2.686,4.5-6,4.5s-6-2.014-6-4.5V8.213"/><line class="a" x1="4.25" y1="5.25" x2="19.75" y2="5.25"/><path class="a" d="M6.75,16.5c-1.437,2.873,2.9,3.882.75,6.75"/><path class="a" d="M11.548,16.5c-1.437,2.873,2.9,3.882.75,6.75"/><path class="a" d="M16.346,16.5c-1.436,2.873,2.9,3.882.75,6.75"/><line class="a" x1="9.75" y1="5.25" x2="9.75" y2="8.25"/><line class="a" x1="14.25" y1="5.25" x2="14.25" y2="8.25"/></svg>