<svg id="Regular" xmlns="http://www.w3.org/2000/svg" viewBox="0 0 24 24"><defs><style>.cls-1{fill:none;stroke:currentColor;stroke-linecap:round;stroke-linejoin:round;stroke-width:1.5px;}</style></defs><title>safety-electricity-danger_1</title><circle class="cls-1" cx="6.008" cy="4.563" r="2.625"/><path class="cls-1" d="M3.758,21.813a2.25,2.25,0,1,0,4.5,0v-3.75a1.5,1.5,0,0,0,1.5-1.5v-4.5a3,3,0,0,0-3-3h-1.5a3,3,0,0,0-3,3v4.5a1.5,1.5,0,0,0,1.5,1.5Z"/><path class="cls-1" d="M19.864,6.419a2.639,2.639,0,0,1-1.177.677"/><path class="cls-1" d="M16.152,6.419a2.639,2.639,0,0,1-.677-1.177"/><path class="cls-1" d="M16.152,2.707a2.639,2.639,0,0,1,1.177-.677"/><path class="cls-1" d="M19.864,2.707a2.639,2.639,0,0,1,.677,1.177"/><line class="cls-1" x1="21.758" y1="14.922" x2="21.758" y2="13.258"/><path class="cls-1" d="M21.029,10.106a3.032,3.032,0,0,0-1.371-.9"/><path class="cls-1" d="M16.357,9.2a3.029,3.029,0,0,0-1.37.9"/><line class="cls-1" x1="14.258" y1="13.258" x2="14.258" y2="14.922"/><path class="cls-1" d="M15.769,22.041a2.262,2.262,0,0,0,.732,1.44"/><path class="cls-1" d="M19.514,23.481a2.258,2.258,0,0,0,.732-1.44"/><path class="cls-1" d="M15.038,17.879a1.508,1.508,0,0,0,.72.184v.75"/><path class="cls-1" d="M20.977,17.879a1.5,1.5,0,0,1-.719.184v.75"/></svg>