<svg xmlns="http://www.w3.org/2000/svg" viewBox="0 0 24 24"><defs><style>.a{fill:none;stroke:currentColor;stroke-linecap:round;stroke-linejoin:round;stroke-width:1.5px;}</style></defs><title>safety-fire-exit-1</title><path class="a" d="M15.246,15.021l-3.609-.6-1.033-3.1c1.461-.835,1.255-.859,2.9-.819a1.5,1.5,0,0,0,0-3,8.391,8.391,0,0,0-6.328,2.707C6.654,10.761,5.38,12,2.25,12a1.5,1.5,0,0,0,0,3,9.9,9.9,0,0,0,5.865-1.665l.632,1.9L6.939,16.679A4.474,4.474,0,0,0,5.25,20.192V21.75a1.5,1.5,0,0,0,3,0V20.192a1.491,1.491,0,0,1,.564-1.171l2.1-1.681S14.824,18,15,18a1.5,1.5,0,0,0,.245-2.979Z"/><circle class="a" cx="4.5" cy="6.75" r="2.625"/><path class="a" d="M17.938,2.25H14.989a.377.377,0,0,1-.208-.063L12.626.75a5.385,5.385,0,0,0,5.312,4.5H19.37a5.384,5.384,0,0,1,2.987.905l.893.595A5.387,5.387,0,0,0,17.938,2.25Z"/><path class="a" d="M23.25,9.75H19.427a.377.377,0,0,1-.208-.063L17.064,8.25a5.385,5.385,0,0,0,5.312,4.5h.874"/></svg>