<svg xmlns="http://www.w3.org/2000/svg" viewBox="0 0 24 24"><defs><style>.a{fill:none;stroke:currentColor;stroke-linecap:round;stroke-linejoin:round;stroke-width:1.5px;}</style></defs><title>safety-exit-right</title><circle class="a" cx="19.5" cy="3.563" r="2.625"/><path class="a" d="M10.409,15.525l1.635,2.288H7.457a1.5,1.5,0,0,0,0,3H13.5a2.251,2.251,0,0,0,1.831-3.558l-2.772-3.88L14.8,11.138l.385.193a3.717,3.717,0,0,1,1.947,2.424A3,3,0,0,0,18.7,15.714l2.383,1.191a1.5,1.5,0,1,0,1.342-2.684l-2.384-1.192a6.713,6.713,0,0,0-3.515-4.382L14.1,7.433a9.05,9.05,0,0,0-7.187-.377l-2.937,1.1a1.5,1.5,0,0,0,1.055,2.81l2.936-1.1a6.023,6.023,0,0,1,3.953-.091L1.189,20.5A1.5,1.5,0,0,0,3.31,22.623L4.435,21.5"/></svg>