<svg xmlns="http://www.w3.org/2000/svg" viewBox="0 0 24 24"><defs><style>.a{fill:none;stroke:currentColor;stroke-linecap:round;stroke-linejoin:round;stroke-width:1.5px;}</style></defs><title>safety-exit-door-left</title><polyline class="a" points="20.25 1.5 18 3.75 20.25 6"/><line class="a" x1="18" y1="3.75" x2="23.25" y2="3.75"/><path class="a" d="M23.25,18.238a1.5,1.5,0,0,0-1.5-1.5H20.111a1.5,1.5,0,0,1-1.128-.512l-3.738-4.273.594-.424a1.494,1.494,0,0,1,.872-.279H20.25a1.5,1.5,0,0,0,0-3H16.711a4.468,4.468,0,0,0-2.615.838l-3.685,2.634A1.493,1.493,0,0,1,9.539,12H7.5a1.5,1.5,0,0,0,0,3H9.539a4.468,4.468,0,0,0,2.615-.838l.638-.456L14.5,15.663l-1.565,1.253a4.475,4.475,0,0,0-1.689,3.513V21.75a1.5,1.5,0,0,0,3,0V20.429a1.487,1.487,0,0,1,.564-1.17l1.668-1.335.244.278a4.5,4.5,0,0,0,3.385,1.536H21.75A1.5,1.5,0,0,0,23.25,18.238Z"/><circle class="a" cx="9.75" cy="6" r="2.625"/><path class="a" d="M14.25,2.25a1.5,1.5,0,0,0-1.5-1.5H2.25a1.5,1.5,0,0,0-1.5,1.5v19.5a1.5,1.5,0,0,0,1.5,1.5h4.5"/></svg>