<svg xmlns="http://www.w3.org/2000/svg" viewBox="0 0 24 24"><defs><style>.a{fill:none;stroke:currentColor;stroke-linecap:round;stroke-linejoin:round;stroke-width:1.5px;}</style></defs><title>safety-danger-mudslide</title><path class="a" d="M.75.75l2.624,2.1A3,3,0,0,1,4.5,5.192V7.758a3,3,0,0,0,.879,2.121l7.571,7.572a2.988,2.988,0,0,1,.764,1.3l.74,2.59a1.5,1.5,0,0,1-1.443,1.912H.75"/><circle class="a" cx="17.25" cy="11.25" r="3"/><circle class="a" cx="21" cy="21" r="2.25"/><path class="a" d="M11.25,4.125a.375.375,0,1,1-.375.375.375.375,0,0,1,.375-.375"/><path class="a" d="M22.5,14.625a.375.375,0,1,1-.375.375.375.375,0,0,1,.375-.375"/><path class="a" d="M10.5,10.125a.375.375,0,1,1-.375.375.375.375,0,0,1,.375-.375"/></svg>