<svg xmlns="http://www.w3.org/2000/svg" viewBox="0 0 24 24"><defs><style>.a{fill:none;stroke:currentColor;stroke-linecap:round;stroke-linejoin:round;stroke-width:1.5px;}</style></defs><title>safety-electricity-danger</title><circle class="a" cx="20.25" cy="6.001" r="2.625"/><path class="a" d="M3.034,12.409l-1.259.42a1.5,1.5,0,1,0,.949,2.844l5.458-1.819,1.51,3.4H6.75a1.5,1.5,0,0,0-1.061.439l-3,3A1.5,1.5,0,0,0,4.81,22.812l2.561-2.561h3.668a6,6,0,0,0,4.992-2.672l2.1-3.152a13.636,13.636,0,0,1,2.175,4.736,1.5,1.5,0,0,0,2.886-.824,14.454,14.454,0,0,0-5.737-8.625l-.19-.128C16.4,9.005,14.1,7.464,12.7,1.888A1.5,1.5,0,1,0,9.8,2.614a17.639,17.639,0,0,0,3.678,7.631l-2.111,3.377-.991-2.23a1.5,1.5,0,0,0-1.846-.813"/><path class="a" d="M3,.751l5.14,5.36a.375.375,0,0,1-.265.64H6v4.5L.86,5.891a.375.375,0,0,1,.265-.64H3Z"/></svg>