<svg xmlns="http://www.w3.org/2000/svg" viewBox="0 0 24 24"><defs><style>.a{fill:none;stroke:currentColor;stroke-linecap:round;stroke-linejoin:round;stroke-width:1.5px;}</style></defs><title>safety-heart-electricity</title><path class="a" d="M6.754,9.75.843,16.632a.375.375,0,0,0,.286.618H3.754v6l5.911-6.882a.375.375,0,0,0-.286-.618H6.754Z"/><path class="a" d="M12.754,21.75S19,14.541,21.705,11.325a6.986,6.986,0,0,0,0-8.754,4.68,4.68,0,0,0-7.41,0L12,5.282,9.705,2.571a4.68,4.68,0,0,0-7.41,0,7.034,7.034,0,0,0-.765,7.616"/></svg>