<svg xmlns="http://www.w3.org/2000/svg" viewBox="0 0 24 24"><defs><style>.a{fill:none;stroke:currentColor;stroke-linecap:round;stroke-linejoin:round;stroke-width:1.5px;}</style></defs><title>safety-warning-rocky-road</title><path class="a" d="M13.462,1.653a1.636,1.636,0,0,0-2.924,0L.923,20.884A1.636,1.636,0,0,0,2.385,23.25H21.616a1.636,1.636,0,0,0,1.462-2.366Z"/><circle class="a" cx="13.5" cy="11.25" r="1.5"/><path class="a" d="M6.75,14.25a4.7,4.7,0,0,1,5.175-1A8.526,8.526,0,0,1,15.75,16.5"/><path class="a" d="M12,13.5l-3,3-.553,1.66a1.5,1.5,0,0,1-.752.867L5.25,20.25"/><path class="a" d="M9.75,15.75l1.6,1.594a1.5,1.5,0,0,1,.362,1.535L11.25,20.25"/><polyline class="a" points="14.25 20.25 15 19.5 15.75 20.25"/></svg>