<svg xmlns="http://www.w3.org/2000/svg" viewBox="0 0 24 24"><defs><style>.a{fill:none;stroke:currentColor;stroke-linecap:round;stroke-linejoin:round;stroke-width:1.5px;}</style></defs><title>safety-fire-shield</title><path class="a" d="M10.938,4.894a4.927,4.927,0,0,1,.5,5.616,1.756,1.756,0,0,1-1.872-1.5,3.971,3.971,0,0,0-2.059,3.744A4.494,4.494,0,0,0,12,17.25a4.555,4.555,0,0,0,4.493-4.493A7.468,7.468,0,0,0,10.938,4.894Z"/><path class="a" d="M2.25,3.923v7.614A11.907,11.907,0,0,0,9.882,22.65l1.041.4a3,3,0,0,0,2.154,0l1.041-.4A11.907,11.907,0,0,0,21.75,11.537V3.923a1.487,1.487,0,0,0-.868-1.362A21.72,21.72,0,0,0,12,.75,21.72,21.72,0,0,0,3.118,2.561,1.487,1.487,0,0,0,2.25,3.923Z"/></svg>