<svg xmlns="http://www.w3.org/2000/svg" viewBox="0 0 24 24"><defs><style>.a{fill:none;stroke:currentColor;stroke-linecap:round;stroke-linejoin:round;stroke-width:1.5px;}</style></defs><title>safety-do-not-touch-fire</title><line class="a" x1="5.25" y1="23.25" x2="15.75" y2="23.25"/><path class="a" d="M6.75,21l-.544-.544a1.109,1.109,0,0,1,.169-1.706,1.109,1.109,0,0,0,.169-1.706L6,16.5"/><path class="a" d="M10.5,21l-.544-.544a1.109,1.109,0,0,1,.169-1.706,1.109,1.109,0,0,0,.169-1.706L9.75,16.5"/><path class="a" d="M14.25,21l-.544-.544a1.109,1.109,0,0,1,.169-1.706,1.109,1.109,0,0,0,.169-1.706L13.5,16.5"/><path class="a" d="M11.131,10.03l-6.5,2.437a1.5,1.5,0,0,1-1.764-2.426L8.156,6.4a5.654,5.654,0,0,1,5.078-.807,1.5,1.5,0,0,0,1.69-.6L18,.75"/><path class="a" d="M23.25,4.5,20.456,9.623a6,6,0,0,1-5.268,3.127H12a1.5,1.5,0,0,1,0-3h2.25"/><line class="a" x1="4.5" y1="4.5" x2="0.75" y2="0.75"/><line class="a" x1="23.25" y1="23.25" x2="17.25" y2="17.25"/></svg>