<svg xmlns="http://www.w3.org/2000/svg" viewBox="0 0 24 24"><defs><style>.a{fill:none;stroke:currentColor;stroke-linecap:round;stroke-linejoin:round;stroke-width:1.5px;}</style></defs><title>safety-helmet-mine-1</title><path class="a" d="M7.5,6.079a9,9,0,0,0-4.5,7.8v1.5"/><path class="a" d="M16.5,6.079a9,9,0,0,1,4.5,7.8v1.5"/><line class="a" x1="7.5" y1="4.125" x2="7.5" y2="10.875"/><line class="a" x1="16.5" y1="4.125" x2="16.5" y2="10.875"/><path class="a" d="M13.5,9.375a1.5,1.5,0,0,1-3,0v-6h3Z"/><line class="a" x1="0.75" y1="15.375" x2="23.25" y2="15.375"/><path class="a" d="M3.75,18.375a2.774,2.774,0,0,1,1.5,2.25h13.5a2.774,2.774,0,0,1,1.5-2.25"/></svg>