<svg xmlns="http://www.w3.org/2000/svg" viewBox="0 0 24 24"><defs><style>.a{fill:none;stroke:currentColor;stroke-linecap:round;stroke-linejoin:round;stroke-width:1.5px;}</style></defs><title>safety-vest-1</title><line class="a" x1="0.75" y1="14.25" x2="23.25" y2="14.25"/><line class="a" x1="0.75" y1="18.75" x2="4.5" y2="18.75"/><line class="a" x1="8.25" y1="18.75" x2="12" y2="18.75"/><path class="a" d="M18.75,4.5v-3A.75.75,0,0,0,18,.75H15.674a.687.687,0,0,0-.674.6V7.5A1.5,1.5,0,0,1,13.5,9h-3A1.5,1.5,0,0,1,9,7.5V1.351a.768.768,0,0,0-.75-.6H6a.75.75,0,0,0-.75.75v3c0,3.75-2.015,6.75-4.5,6.75v10.5a1.5,1.5,0,0,0,1.5,1.5h19.5a1.5,1.5,0,0,0,1.5-1.5V11.25C20.765,11.25,18.75,8.25,18.75,4.5Z"/><line class="a" x1="12" y1="9" x2="12" y2="23.25"/><path class="a" d="M4.5,14.25v4.5A1.5,1.5,0,0,0,6,20.25h.75a1.5,1.5,0,0,0,1.5-1.5v-4.5"/><line class="a" x1="12" y1="18.75" x2="15.75" y2="18.75"/><line class="a" x1="19.5" y1="18.75" x2="23.25" y2="18.75"/><path class="a" d="M15.75,14.25v4.5a1.5,1.5,0,0,0,1.5,1.5H18a1.5,1.5,0,0,0,1.5-1.5v-4.5"/></svg>