<svg xmlns="http://www.w3.org/2000/svg" viewBox="0 0 24 24"><defs><style>.a{fill:none;stroke:currentColor;stroke-linecap:round;stroke-linejoin:round;stroke-width:1.5px;}</style></defs><title>safety-fire-right</title><path class="a" d="M4.362,14.25a4.5,4.5,0,0,0-2.5.756L.75,15.75l.257-2.058A4.5,4.5,0,0,1,5.473,9.75H9.138a4.5,4.5,0,0,0,2.5-.756L12.75,8.25l-.257,2.058A4.5,4.5,0,0,1,8.027,14.25Z"/><path class="a" d="M.75,18.75H3.3a8.932,8.932,0,0,0,4.954-1.5,6.849,6.849,0,0,1-6.8,6H.75"/><path class="a" d="M.75,2.25H3.3A8.932,8.932,0,0,0,8.25.75a6.849,6.849,0,0,1-6.8,6H.75"/><polyline class="a" points="20.25 0.75 23.25 3.75 20.25 6.75"/><line class="a" x1="23.25" y1="3.75" x2="16.5" y2="3.75"/></svg>