<svg id="Regular" xmlns="http://www.w3.org/2000/svg" viewBox="0 0 24 24"><defs><style>.cls-1{fill:none;stroke:currentColor;stroke-linecap:round;stroke-linejoin:round;stroke-width:1.5px;}</style></defs><title>sailing-boat-water</title><path class="cls-1" d="M17.25,19.536A4.681,4.681,0,0,0,19.3,17.33l.892-2.067a.769.769,0,0,0-.808-1.013H4.612A.769.769,0,0,0,3.8,15.263L4.7,17.33a4.683,4.683,0,0,0,2.052,2.207"/><path class="cls-1" d="M21,20.25a3,3,0,0,0,2.25,2.905"/><path class="cls-1" d="M15,20.25a3,3,0,1,0,6,0"/><path class="cls-1" d="M9,20.25a3,3,0,0,0,6,0"/><path class="cls-1" d="M3,20.25a3,3,0,0,0,6,0"/><path class="cls-1" d="M.75,23.155A3,3,0,0,0,3,20.25"/><polyline class="cls-1" points="12.748 14.25 12.748 0.75 5.998 9.75 12.75 9.75"/><line class="cls-1" x1="4.498" y1="9.75" x2="5.998" y2="9.75"/></svg>