<svg id="Regular" xmlns="http://www.w3.org/2000/svg" viewBox="0 0 24 24"><defs><style>.cls-1{fill:none;stroke:currentColor;stroke-linecap:round;stroke-linejoin:round;stroke-width:1.5px;}</style></defs><title>sailing-boat-3</title><path class="cls-1" d="M.75,19.5V16.2a1.5,1.5,0,0,1,1.887-1.449l16.128,4.3"/><circle class="cls-1" cx="15" cy="15.714" r="2.25"/><line class="cls-1" x1="19.966" y1="14.906" x2="23.25" y2="15.93"/><line class="cls-1" x1="11.374" y1="12.227" x2="2.782" y2="9.547"/><path class="cls-1" d="M23.25,5.717,9.65,1.476a.75.75,0,0,0-.968.8,9.59,9.59,0,0,0,6.671,8.046l7.9,2.462"/><line class="cls-1" x1="15" y1="3.144" x2="18" y2="0.75"/><path class="cls-1" d="M23.25,23.25a3.449,3.449,0,0,1-2.812-1.5,3.387,3.387,0,0,1-5.625,0,3.387,3.387,0,0,1-5.625,0,3.451,3.451,0,0,1-2.813,1.5,3.448,3.448,0,0,1-2.812-1.5A3.451,3.451,0,0,1,.75,23.25"/></svg>