<svg id="Regular" xmlns="http://www.w3.org/2000/svg" viewBox="0 0 24 24"><defs><style>.cls-1{fill:none;stroke:currentColor;stroke-linecap:round;stroke-linejoin:round;stroke-width:1.5px;}</style></defs><title>sailing-archor</title><circle class="cls-1" cx="12" cy="2.25" r="1.5"/><line class="cls-1" x1="12" y1="3.75" x2="12" y2="13.5"/><path class="cls-1" d="M8.25,8.25H6.75a5.25,5.25,0,0,0,10.5,0h-1.5"/><line class="cls-1" x1="10.5" y1="6.75" x2="13.5" y2="6.75"/><path class="cls-1" d="M.75,23.29a4.666,4.666,0,0,0,3.75-1.9,4.649,4.649,0,0,0,7.5,0,4.649,4.649,0,0,0,7.5,0,4.666,4.666,0,0,0,3.75,1.9"/><path class="cls-1" d="M.75,18.641a4.668,4.668,0,0,0,3.75-1.9,4.649,4.649,0,0,0,7.5,0,4.649,4.649,0,0,0,7.5,0,4.668,4.668,0,0,0,3.75,1.9"/></svg>