<svg id="Regular" xmlns="http://www.w3.org/2000/svg" viewBox="0 0 24 24"><defs><style>.cls-1{fill:none;stroke:currentColor;stroke-linecap:round;stroke-linejoin:round;stroke-width:1.5px;}</style></defs><title>sailing-boat-person</title><path class="cls-1" d="M.75,20.367a3.947,3.947,0,0,0,3.76,2.882,3.947,3.947,0,0,0,3.637-3.036,3.947,3.947,0,0,0,3.76,2.882,3.947,3.947,0,0,0,3.637-3.035,3.95,3.95,0,0,0,3.761,2.882,3.95,3.95,0,0,0,3.637-3.036"/><path class="cls-1" d="M4.418,18.811c-1.495-.709-2.3-3.653-1.587-5.148,4.454.648,17.075,2.606,17.075,2.606l.786,2.2"/><line class="cls-1" x1="4.818" y1="13.957" x2="8.641" y2="8.362"/><path class="cls-1" d="M15.461,15.582l.366-1.6a1.479,1.479,0,0,1,1.655-1.135l1.516.22a1.479,1.479,0,0,1,1.23,1.793l-.322,1.412"/><circle class="cls-1" cx="13.11" cy="9.75" r="2.22"/><line class="cls-1" x1="4.789" y1="1.042" x2="18.843" y2="0.75"/><line class="cls-1" x1="4.85" y1="4.001" x2="15.946" y2="3.77"/></svg>