<svg id="Regular" xmlns="http://www.w3.org/2000/svg" viewBox="0 0 24 24"><defs><style>.cls-1{fill:none;stroke:currentColor;stroke-linecap:round;stroke-linejoin:round;stroke-width:1.5px;}</style></defs><title>sailing-boat-1</title><path class="cls-1" d="M1.664,22.032A.75.75,0,0,0,2.25,23.25H19.44a3,3,0,0,0,3-3,.75.75,0,0,0-.75-.75H4.05a.752.752,0,0,0-.586.282Z"/><path class="cls-1" d="M17.94,19.5V7.5A11.253,11.253,0,0,0,15.69.75s-9,6-9,13.5a29.87,29.87,0,0,0,11.25,2.022"/><line class="cls-1" x1="17.94" y1="12.875" x2="7.991" y2="9.182"/><line class="cls-1" x1="17.94" y1="8.989" x2="10.021" y2="6.05"/></svg>