<svg xmlns="http://www.w3.org/2000/svg" viewBox="0 0 24 24"><defs><style>.a{fill:none;stroke:currentColor;stroke-linecap:round;stroke-linejoin:round;stroke-width:1.5px;}</style></defs><title>sauna-heat</title><polyline class="a" points="20 7.074 20 22.127 3.5 22.127 3.5 7.074"/><path class="a" d="M.5,9.074,10.918,2.128a1.5,1.5,0,0,1,1.664,0L23,9.074"/><path class="a" d="M14.823,10.094A3.725,3.725,0,0,0,14,12.231c0,1.337.823,2.673.823,4.008A3.737,3.737,0,0,1,14,18.377"/><path class="a" d="M9.573,10.094a3.725,3.725,0,0,0-.823,2.137c0,1.337.823,2.673.823,4.008a3.737,3.737,0,0,1-.823,2.138"/></svg>