<svg xmlns="http://www.w3.org/2000/svg" viewBox="0 0 24 24"><defs><style>.a{fill:none;stroke:currentColor;stroke-linecap:round;stroke-linejoin:round;stroke-width:1.5px;}</style></defs><title>sauna-heat-1</title><path class="a" d="M19.177.752a3.731,3.731,0,0,0-.822,2.137c0,1.336.822,2.672.822,4.008a3.731,3.731,0,0,1-.822,2.137"/><path class="a" d="M15.354.752a3.731,3.731,0,0,0-.822,2.137c0,1.336.822,2.672.822,4.008a3.731,3.731,0,0,1-.822,2.137"/><path class="a" d="M23,.752a3.732,3.732,0,0,0-.823,2.137c0,1.336.823,2.672.823,4.008a3.725,3.725,0,0,1-.823,2.137"/><path class="a" d="M3.5,16.5v6.75h6v-4.5a1.5,1.5,0,0,1,1.5-1.5h1.5a1.5,1.5,0,0,1,1.5,1.5v4.5h6V16.5"/><line class="a" x1="20.005" y1="12.044" x2="23" y2="15.002"/><path class="a" d="M.5,15,10.689,4.941a1.5,1.5,0,0,1,1.06-.439"/></svg>