<svg xmlns="http://www.w3.org/2000/svg" viewBox="0 0 24 24"><defs><style>.a{fill:none;stroke:currentColor;stroke-linecap:round;stroke-linejoin:round;stroke-width:1.5px;}</style></defs><title>sauna-heat-person-1</title><circle class="a" cx="11.75" cy="3.752" r="3"/><path class="a" d="M16.25,12.752a4.5,4.5,0,0,0-5.391-4.415A4.61,4.61,0,0,0,7.25,12.918V15a.75.75,0,0,0,.75.75H9.5V19.5a.75.75,0,0,0,.75.75h3A.75.75,0,0,0,14,19.5v-3.75h1.5a.75.75,0,0,0,.75-.75Z"/><path class="a" d="M4.25,9A2.447,2.447,0,0,0,5,7.161C5,5.933,3.5,5.32,3.5,4.092a2.443,2.443,0,0,1,.75-1.84"/><path class="a" d="M20.75,9a2.447,2.447,0,0,0,.75-1.841C21.5,5.933,20,5.32,20,4.092a2.443,2.443,0,0,1,.75-1.84"/><path class="a" d="M19.252,14.328c1.855.947,3,2.244,3,3.674,0,2.9-4.7,5.25-10.5,5.25S1.25,20.9,1.25,18c0-1.431,1.144-2.727,3-3.674"/></svg>