<svg xmlns="http://www.w3.org/2000/svg" viewBox="0 0 24 24"><defs><style>.a{fill:none;stroke:currentColor;stroke-linecap:round;stroke-linejoin:round;stroke-width:1.5px;}</style></defs><title>saving-safe-open</title><path class="a" d="M17.182,17.558A1.956,1.956,0,0,1,15.3,19H2.705A1.955,1.955,0,0,1,.75,17.045V5.205A1.955,1.955,0,0,1,2.705,3.25H15.3a1.955,1.955,0,0,1,1.941,1.722"/><path class="a" d="M15,6.25V16H4.589a.838.838,0,0,1-.839-.839V7.089a.838.838,0,0,1,.839-.839H7.5"/><path class="a" d="M20.25,19.75,15,16V6.25l5.25-3h2.022a.978.978,0,0,1,.978.978V18.772a.978.978,0,0,1-.978.978Z"/><line class="a" x1="3.75" y1="19" x2="3.75" y2="21.25"/><line class="a" x1="14.25" y1="19" x2="14.25" y2="21.25"/><line class="a" x1="20.25" y1="3.25" x2="20.25" y2="19.75"/><polygon class="a" points="12.75 16 11.304 13 7.446 13 6 16 12.75 16"/><line class="a" x1="10.5" y1="10" x2="10.5" y2="7"/><line class="a" x1="12" y1="8.5" x2="9" y2="8.5"/><line class="a" x1="17.25" y1="4.972" x2="17.25" y2="17.607"/></svg>