<svg xmlns="http://www.w3.org/2000/svg" viewBox="0 0 24 24"><defs><style>.a{fill:none;stroke:currentColor;stroke-linecap:round;stroke-linejoin:round;stroke-width:1.5px;}</style></defs><title>saving-wallet-international</title><path class="a" d="M22.5,20.25v1.227a1.7,1.7,0,0,1-1.607,1.773H12.857a1.7,1.7,0,0,1-1.607-1.773v-6.2A1.7,1.7,0,0,1,12.857,13.5h8.036A1.7,1.7,0,0,1,22.5,15.273v.977"/><path class="a" d="M21.04,13.507l-1.282-2.565a.8.8,0,0,0-1.074-.357L12.857,13.5"/><path class="a" d="M22.45,20.25a.8.8,0,0,0,.8-.8v-2.4a.8.8,0,0,0-.8-.8h-2a2,2,0,0,0,0,4Z"/><path class="a" d="M5.737,21.347A11.251,11.251,0,1,1,22.756,8.693q.073.242.137.483"/><path class="a" d="M7.981,19.4A26.114,26.114,0,0,1,7.076,7.565,16.27,16.27,0,0,1,9.289,1.079"/><line class="a" x1="0.775" y1="11.25" x2="11.25" y2="11.25"/><line class="a" x1="2.482" y1="6" x2="21.518" y2="6"/><line class="a" x1="1.687" y1="16.5" x2="7.245" y2="16.5"/><path class="a" d="M14.711,1.079a14.9,14.9,0,0,1,2,5.309q.177.87.286,1.737"/></svg>