<svg xmlns="http://www.w3.org/2000/svg" viewBox="0 0 24 24"><defs><style>.a{fill:none;stroke:currentColor;stroke-linecap:round;stroke-linejoin:round;stroke-width:1.5px;}</style></defs><title>saving-money-tree</title><line class="a" x1="12.5" y1="20.25" x2="12.5" y2="15.75"/><path class="a" d="M9.5,23.25l-.781-2.342a.5.5,0,0,1,.475-.658h6.612a.5.5,0,0,1,.475.658L15.5,23.25"/><path class="a" d="M18.054,17.188A2.5,2.5,0,0,0,20,14.75c0-1.225-1.5-2.5-3-2.454A9.49,9.49,0,0,0,18.5,7.25s.562-6.5-6.194-6.5S6.5,7.25,6.5,7.25a8.4,8.4,0,0,0,.5,3c-2,0-3.5,1-3.5,3,0,2.236,1.067,3.5,3,3.5"/><path class="a" d="M12.5,17.75a3.891,3.891,0,0,1-3-1.5"/><path class="a" d="M12.5,17.75a3.891,3.891,0,0,0,3-1.5"/><path class="a" d="M14.545,5.352H11.477c-.673,0-1.022.2-1.022,1.023,0,1.337,4.09,2.754,4.09,4.091a.9.9,0,0,1-1.022,1.023H10.455"/><line class="a" x1="12.5" y1="5.352" x2="12.5" y2="3.818"/><line class="a" x1="12.5" y1="13.023" x2="12.5" y2="11.489"/></svg>