<svg xmlns="http://www.w3.org/2000/svg" viewBox="0 0 24 24"><defs><style>.a{fill:none;stroke:currentColor;stroke-linecap:round;stroke-linejoin:round;stroke-width:1.5px;}</style></defs><title>saving-bank-drawer</title><line class="a" x1="9.75" y1="0.75" x2="9.75" y2="23.25"/><line class="a" x1="0.75" y1="8.25" x2="18.75" y2="8.25"/><line class="a" x1="0.75" y1="15.75" x2="18.75" y2="15.75"/><path class="a" d="M18.75,2.3A1.776,1.776,0,0,0,17.25.75h-15A1.776,1.776,0,0,0,.75,2.3V21.7a1.776,1.776,0,0,0,1.5,1.552h15a1.776,1.776,0,0,0,1.5-1.552Z"/><path class="a" d="M23.25,16.056a.749.749,0,0,1-.959.72L18.75,15.75V8.25l3.611-.583a.75.75,0,0,1,.889.737Z"/><path class="a" d="M4.125,4.5a.375.375,0,1,1-.375.375A.375.375,0,0,1,4.125,4.5"/><path class="a" d="M4.125,12a.375.375,0,1,1-.375.375A.375.375,0,0,1,4.125,12"/><path class="a" d="M4.125,19.5a.375.375,0,1,1-.375.375.375.375,0,0,1,.375-.375"/><path class="a" d="M13.125,19.5a.375.375,0,1,1-.375.375.375.375,0,0,1,.375-.375"/><path class="a" d="M12.982,4.529a.374.374,0,1,1-.2.489.374.374,0,0,1,.2-.489"/><polygon class="a" points="12 15.75 12.9 12.75 15.6 12.75 16.5 15.75 12 15.75"/></svg>