<svg xmlns="http://www.w3.org/2000/svg" viewBox="0 0 24 24"><defs><style>.a{fill:none;stroke:currentColor;stroke-linecap:round;stroke-linejoin:round;stroke-width:1.5px;}</style></defs><title>saving-money-egg</title><path class="a" d="M10.892,10.844a2.221,2.221,0,0,0,1.858.875c1.139,0,2.062-.693,2.062-1.547s-.923-1.546-2.062-1.546-2.062-.693-2.062-1.548.923-1.547,2.062-1.547a2.221,2.221,0,0,1,1.858.875"/><line class="a" x1="12.75" y1="11.719" x2="12.75" y2="12.75"/><line class="a" x1="12.75" y1="4.5" x2="12.75" y2="5.531"/><path class="a" d="M19.5,12.375C19.5,10.875,17.636.75,12.75.75S6,10.875,6,12.375"/><path class="a" d="M3.75,15.75a9.15,9.15,0,0,0,18,0Z"/><line class="a" x1="1.5" y1="14.25" x2="3.75" y2="15.75"/><line class="a" x1="2.25" y1="18" x2="4.085" y2="17.082"/><line class="a" x1="20.191" y1="19.461" x2="22.5" y2="21"/></svg>