<svg xmlns="http://www.w3.org/2000/svg" viewBox="0 0 24 24"><defs><style>.a{fill:none;stroke:currentColor;stroke-linecap:round;stroke-linejoin:round;stroke-width:1.5px;}</style></defs><title>saving-safe</title><rect class="a" x="0.75" y="0.75" width="22.5" height="21" rx="1.5" ry="1.5"/><rect class="a" x="5.25" y="3.75" width="15" height="15" rx="1.5" ry="1.5"/><line class="a" x1="3.75" y1="21.75" x2="3.75" y2="23.25"/><line class="a" x1="20.25" y1="21.75" x2="20.25" y2="23.25"/><line class="a" x1="3.75" y1="8.25" x2="6.75" y2="8.25"/><line class="a" x1="3.75" y1="14.25" x2="6.75" y2="14.25"/><circle class="a" cx="12.75" cy="11.25" r="2.7"/><line class="a" x1="12.75" y1="8.55" x2="12.75" y2="6.75"/><line class="a" x1="12.75" y1="15.75" x2="12.75" y2="13.95"/><line class="a" x1="15.45" y1="11.25" x2="17.25" y2="11.25"/><line class="a" x1="8.25" y1="11.25" x2="10.05" y2="11.25"/><line class="a" x1="9.986" y1="14.432" x2="11.061" y2="13.357"/><line class="a" x1="9.986" y1="8.068" x2="11.061" y2="9.143"/><line class="a" x1="15.514" y1="14.432" x2="14.439" y2="13.357"/><line class="a" x1="15.514" y1="8.068" x2="14.439" y2="9.143"/></svg>