<svg xmlns="http://www.w3.org/2000/svg" viewBox="0 0 24 24"><defs><style>.a{fill:none;stroke:currentColor;stroke-linecap:round;stroke-linejoin:round;stroke-width:1.5px;}</style></defs><title>saving-piggy-dollars</title><path class="a" d="M17.25,19.637a8.228,8.228,0,0,0,2.62-3.765"/><path class="a" d="M7.5,10.125a.375.375,0,1,1-.375.375.375.375,0,0,1,.375-.375"/><path class="a" d="M18.75,3.75H16.717a1.342,1.342,0,0,0-.5,2.587l2.064.826a1.342,1.342,0,0,1-.5,2.587H15.75"/><line class="a" x1="17.25" y1="3.75" x2="17.25" y2="3"/><line class="a" x1="17.25" y1="10.5" x2="17.25" y2="9.75"/><circle class="a" cx="17.25" cy="6.75" r="6"/><path class="a" d="M9.037,5.531,7.054,3.878a.75.75,0,0,0-1.224.484L5.474,7.206A8.22,8.22,0,0,0,2.6,11.25H.75v6H3.24a9.114,9.114,0,0,0,8.01,4.5,8.911,8.911,0,0,0,8.689-6.092"/><line class="a" x1="6.011" y1="20.204" x2="5.25" y2="23.25"/><line class="a" x1="16.49" y1="20.209" x2="17.25" y2="23.25"/></svg>