<svg xmlns="http://www.w3.org/2000/svg" viewBox="0 0 24 24"><defs><style>.a{fill:none;stroke:currentColor;stroke-linecap:round;stroke-linejoin:round;stroke-width:1.5px;}</style></defs><title>saving-piggy-coins-alternate</title><path class="a" d="M23.25,10.5a3,3,0,0,1-3,3"/><path class="a" d="M6,6.8A8.318,8.318,0,0,0,2.6,11.25H.75v6H3.24a8.467,8.467,0,0,0,2.01,2.372V22.5a.75.75,0,0,0,.75.75H7.5a.75.75,0,0,0,.75-.75V21.259a9.512,9.512,0,0,0,6,.011V22.5a.75.75,0,0,0,.75.75h1.5a.75.75,0,0,0,.75-.75V19.637a7.941,7.941,0,0,0,3-6.137,8.053,8.053,0,0,0-3.757-6.706"/><path class="a" d="M8.25,7.5a6.763,6.763,0,0,1,6,0"/><circle class="a" cx="11.25" cy="3.75" r="3"/></svg>