<svg xmlns="http://www.w3.org/2000/svg" viewBox="0 0 24 24"><defs><style>.a{fill:none;stroke:currentColor;stroke-linecap:round;stroke-linejoin:round;stroke-width:1.5px;}</style></defs><title>saving-bag-increase</title><path class="a" d="M14.16,16a.638.638,0,0,0-.66.609V21.4a.628.628,0,0,0,.65.6h8.44a.638.638,0,0,0,.66-.609V16.75a.784.784,0,0,0-.813-.75Z"/><path class="a" d="M18.375,18.631A.369.369,0,1,1,18,19a.372.372,0,0,1,.375-.369"/><path class="a" d="M13.5,18.853A7.289,7.289,0,0,1,7.5,22C4.111,22,.75,19.482.75,16.375c0-3.068,2.659-6.458,4.705-7.875C4.865,7.2,4.39,6.175,4.02,5.385A1.5,1.5,0,0,1,5.379,3.25H10.5"/><path class="a" d="M11.8,10.646A10.1,10.1,0,0,1,14.237,16"/><path class="a" d="M5.829,17.844a2.224,2.224,0,0,0,1.858.875c1.139,0,2.063-.693,2.063-1.547s-.924-1.546-2.063-1.546-2.062-.693-2.062-1.548.924-1.547,2.062-1.547a2.221,2.221,0,0,1,1.858.875"/><line class="a" x1="7.687" y1="18.719" x2="7.687" y2="19.75"/><line class="a" x1="7.687" y1="11.5" x2="7.687" y2="12.531"/><polyline class="a" points="23.25 5.286 23.25 1.75 19.714 1.75"/><path class="a" d="M23.25,1.753,20,5a1.444,1.444,0,0,1-1.438.363l-3.671-.981a1.449,1.449,0,0,0-1.4.375L9.745,8.507"/></svg>