<svg xmlns="http://www.w3.org/2000/svg" viewBox="0 0 24 24"><defs><style>.a{fill:none;stroke:currentColor;stroke-linecap:round;stroke-linejoin:round;stroke-width:1.5px;}</style></defs><title>saving-bull-decrease</title><path class="a" d="M12.669,14.211l.747,1.867A1.878,1.878,0,0,1,13,18.1l-1.455,1.454a1.655,1.655,0,0,0-.483,1.168,1.652,1.652,0,0,1-1.13,1.567l-1.09.364a1.88,1.88,0,0,1-1.186,0l-1.09-.364a1.651,1.651,0,0,1-1.129-1.567,1.656,1.656,0,0,0-.484-1.168L3.5,18.1a1.878,1.878,0,0,1-.415-2.023l.695-1.736"/><line class="a" x1="9" y1="18.246" x2="7.5" y2="18.246"/><path class="a" d="M13.086,15.253,14.662,14.2a2.442,2.442,0,0,0,1.088-2.033h0a2.443,2.443,0,0,0-2.443-2.443h0a1.467,1.467,0,0,1-1.22-.653l-1.44-2.159A3.53,3.53,0,0,0,9.266,8.99a.991.991,0,0,1-1.016.746A.988.988,0,0,1,7.234,8.99,3.53,3.53,0,0,0,5.853,6.914L4.413,9.073a1.467,1.467,0,0,1-1.22.653h0A2.443,2.443,0,0,0,.75,12.169h0A2.442,2.442,0,0,0,1.838,14.2l1.576,1.051"/><polyline class="a" points="23.25 7.75 23.25 12.25 18.75 12.25"/><line class="a" x1="4.266" y1="3.68" x2="2.25" y2="1.664"/><path class="a" d="M23.25,12.25,18.2,7.2a2.252,2.252,0,0,0-2.237-.565l-1.456.39"/></svg>