<svg xmlns="http://www.w3.org/2000/svg" viewBox="0 0 24 24"><defs><style>.a{fill:none;stroke:currentColor;stroke-linecap:round;stroke-linejoin:round;stroke-width:1.5px;}</style></defs><title>saving-safe-1</title><rect class="a" x="0.75" y="3.75" width="22.5" height="18" rx="1.5" ry="1.5"/><rect class="a" x="5.25" y="6.75" width="15" height="12" rx="1.5" ry="1.5"/><line class="a" x1="3.75" y1="21.75" x2="3.75" y2="23.25"/><line class="a" x1="20.25" y1="21.75" x2="20.25" y2="23.25"/><line class="a" x1="3.75" y1="11.25" x2="6.75" y2="11.25"/><line class="a" x1="3.75" y1="15.75" x2="6.75" y2="15.75"/><path class="a" d="M13.875,14.25a.375.375,0,1,1-.375.375.375.375,0,0,1,.375-.375"/><path class="a" d="M16.875,14.25a.375.375,0,1,1-.375.375.375.375,0,0,1,.375-.375"/><path class="a" d="M13.875,10.5a.375.375,0,1,1-.375.375.375.375,0,0,1,.375-.375"/><path class="a" d="M16.875,10.5a.375.375,0,1,1-.375.375.375.375,0,0,1,.375-.375"/></svg>