<svg xmlns="http://www.w3.org/2000/svg" viewBox="0 0 24 24"><defs><style>.a{fill:none;stroke:currentColor;stroke-linecap:round;stroke-linejoin:round;stroke-width:1.5px;}</style></defs><title>saving-bank-international</title><line class="a" x1="9.75" y1="23.25" x2="22.5" y2="23.25"/><line class="a" x1="11.25" y1="15.75" x2="11.25" y2="23.25"/><line class="a" x1="14.25" y1="15.75" x2="14.25" y2="23.25"/><line class="a" x1="18" y1="15.75" x2="18" y2="23.25"/><line class="a" x1="21" y1="15.75" x2="21" y2="23.25"/><path class="a" d="M23.25,15.75H9l6.575-4.321a.933.933,0,0,1,1.1,0Z"/><path class="a" d="M5.737,21.347a11.253,11.253,0,1,1,17.49-10.1"/><path class="a" d="M6.844,13.493a26.32,26.32,0,0,1,.232-5.928A16.27,16.27,0,0,1,9.289,1.079"/><line class="a" x1="0.775" y1="11.25" x2="6.75" y2="11.25"/><line class="a" x1="2.482" y1="6" x2="21.518" y2="6"/><line class="a" x1="1.686" y1="16.5" x2="6" y2="16.5"/><path class="a" d="M14.711,1.079a17.056,17.056,0,0,1,2.312,7.2"/></svg>