<svg xmlns="http://www.w3.org/2000/svg" viewBox="0 0 24 24"><defs><style>.a{fill:none;stroke:currentColor;stroke-linecap:round;stroke-linejoin:round;stroke-width:1.5px;}</style></defs><title>saving-bear</title><path class="a" d="M10.386,22.823c.075.267.121.427.121.427h2.709a.75.75,0,0,0,.712-.987l-.75-2.25A3.005,3.005,0,0,0,14.937,17.9"/><path class="a" d="M18.007,9l1,.335a4.509,4.509,0,0,0,2.519.1l.795-.2a.751.751,0,0,1,.932.728v1.575a.75.75,0,0,1-.415.671L20.257,13.5"/><path class="a" d="M21,13.87l-.974-.487A3.855,3.855,0,0,1,18.007,9l1.652-.826a5.153,5.153,0,0,0,2.848-4.608A.566.566,0,0,0,21.941,3l-2.895-.552a3,3,0,0,0-1.973.3.4.4,0,0,1-.314,0,.408.408,0,0,1-.217-.228l-.108-.287a1.125,1.125,0,0,0-2.105.793.8.8,0,0,1-.447,1.022L12.757,4.5A7.9,7.9,0,0,0,10.38,6.37,7.288,7.288,0,0,1,6.8,8.986a7.825,7.825,0,0,0-3.616,2.492,1.641,1.641,0,0,0-2.159-.184c-.646.7-.065,1.981.9,2.6a4.52,4.52,0,0,0,.044,3.192A4.707,4.707,0,0,0,3.664,19l1.41,3.761a.751.751,0,0,0,.7.487H7.642a.75.75,0,0,0,.735-.6l.8-3.971.8-.317a10.3,10.3,0,0,0,4.544-3.542,6.377,6.377,0,0,0,2.777,1.189l2.488.414a.749.749,0,0,0,.748-.324l.76-1.139A.751.751,0,0,0,21,13.87Z"/></svg>