<svg xmlns="http://www.w3.org/2000/svg" viewBox="0 0 24 24"><defs><style>.a{fill:none;stroke:currentColor;stroke-linecap:round;stroke-linejoin:round;stroke-width:1.5px;}</style></defs><title>saving-bank-cash</title><line class="a" x1="5.25" y1="23.25" x2="23.25" y2="23.25"/><path class="a" d="M15.575,6.572l7.406,4.937a.6.6,0,0,1,.269.5V12.9a.6.6,0,0,1-.6.6H5.25"/><rect class="a" x="2.625" y="1.875" width="6.75" height="10.5" rx="0.887" ry="0.887" transform="translate(-1.125 13.125) rotate(-90)"/><path class="a" d="M4.443,3.75l.3-2.009A1.163,1.163,0,0,1,6.066.763l6.769,1.013A1.163,1.163,0,0,1,13.813,3.1l-.529,3.531a1.187,1.187,0,0,1-2.034.625"/><path class="a" d="M6,6.75a.375.375,0,1,1-.375.375A.375.375,0,0,1,6,6.75"/><line class="a" x1="21" y1="23.25" x2="21" y2="13.5"/><line class="a" x1="16.5" y1="23.25" x2="16.5" y2="13.5"/><line class="a" x1="12" y1="23.25" x2="12" y2="13.5"/><line class="a" x1="7.5" y1="23.25" x2="7.5" y2="13.5"/></svg>