<svg xmlns="http://www.w3.org/2000/svg" viewBox="0 0 24 24"><defs><style>.a{fill:none;stroke:currentColor;stroke-linecap:round;stroke-linejoin:round;stroke-width:1.5px;}</style></defs><title>saving-bull-increase</title><path class="a" d="M10.831,13.714l-.747,1.868A1.876,1.876,0,0,0,10.5,17.6l1.455,1.455a1.654,1.654,0,0,1,.484,1.168,1.652,1.652,0,0,0,1.129,1.567l1.09.363a1.866,1.866,0,0,0,1.186,0l1.09-.363a1.652,1.652,0,0,0,1.129-1.567,1.654,1.654,0,0,1,.484-1.168L20,17.6a1.876,1.876,0,0,0,.415-2.022l-.7-1.736"/><line class="a" x1="16" y1="17.75" x2="14.5" y2="17.75"/><path class="a" d="M10.414,14.756,8.838,13.705A2.442,2.442,0,0,1,7.75,11.673h0A2.443,2.443,0,0,1,10.193,9.23h0a1.467,1.467,0,0,0,1.22-.653l1.44-2.16a3.53,3.53,0,0,1,1.381,2.076,1.065,1.065,0,0,0,2.032,0,3.53,3.53,0,0,1,1.381-2.076l1.44,2.16a1.467,1.467,0,0,0,1.22.653h0a2.443,2.443,0,0,1,2.443,2.443h0a2.442,2.442,0,0,1-1.088,2.032l-1.576,1.051"/><polyline class="a" points="22.75 5.75 22.75 1.25 18.25 1.25"/><path class="a" d="M9.754,5.339a2.249,2.249,0,0,0-2.172.582L1.75,11.754"/><line class="a" x1="22.75" y1="1.25" x2="19.811" y2="4.189"/></svg>