<svg xmlns="http://www.w3.org/2000/svg" viewBox="0 0 24 24"><defs><style>.a{fill:none;stroke:currentColor;stroke-linecap:round;stroke-linejoin:round;stroke-width:1.5px;}</style></defs><title>saving-piggy-coins</title><path class="a" d="M4.363,8.192A9.019,9.019,0,0,1,12.75,2.918a9.628,9.628,0,0,1,2.213.282L16.946.926a.749.749,0,0,1,1.224.485l.356,3.471A8.261,8.261,0,0,1,21.4,8.945H23.25v6.028H20.76a8.433,8.433,0,0,1-2.01,2.4,8.91,8.91,0,0,1-2.925,1.611"/><ellipse class="a" cx="6.75" cy="14.25" rx="6" ry="3"/><path class="a" d="M12.75,14.25v6c0,1.657-2.686,3-6,3s-6-1.343-6-3v-6"/><path class="a" d="M.75,17.25c0,1.657,2.686,3,6,3s6-1.343,6-3"/><path class="a" d="M16.875,7.5a.375.375,0,1,0,.375.375.375.375,0,0,0-.375-.375"/><line class="a" x1="17.957" y1="17.956" x2="18.75" y2="21"/></svg>