<svg xmlns="http://www.w3.org/2000/svg" viewBox="0 0 24 24"><defs><style>.a{fill:none;stroke:currentColor;stroke-linecap:round;stroke-linejoin:round;stroke-width:1.5px;}</style></defs><title>saving-bull</title><path class="a" d="M18.889,20.353l.561.253a1.5,1.5,0,0,1,.9,1.373V22.5a.75.75,0,0,0,.75.75h.914a.751.751,0,0,0,.728-.568l.467-1.87a1.5,1.5,0,0,0-.133-1.073l-.269-.5a4.993,4.993,0,0,1-.5-2.428,3.693,3.693,0,0,0-.39-1.678h0A3.691,3.691,0,0,0,19.3,13.157L17.9,12.888a2.06,2.06,0,0,1-.955-.54l-1.226-1.227A7.242,7.242,0,0,0,10.6,9h0a5.934,5.934,0,0,0-3.643,1.25L3.172,13.182"/><path class="a" d="M5.346,15a5.5,5.5,0,0,1-2.784,3.267h0a.825.825,0,0,1-1.178-.576c-.6-2.99-.566-2.812-.566-2.812"/><path class="a" d="M2.168,15.506c.332.055.755-.929.832-1.256a5.086,5.086,0,0,0-.917-4.5L.8,14.25C.543,15.115,1.277,15.357,2.168,15.506Z"/><ellipse class="a" cx="18.516" cy="5.684" rx="1.875" ry="1.125" transform="translate(7.863 21.861) rotate(-73.7)"/><path class="a" d="M17.99,7.484h0a2.105,2.105,0,0,0,1.68,2.653l1.093.183a2.534,2.534,0,0,1,1.692,1.094h0a2.532,2.532,0,0,1,.062,2.712l-.605,1.006"/><path class="a" d="M4.605,16.5l3.128,1.043A1.5,1.5,0,0,1,8.7,19.381l-.832,2.913a.75.75,0,0,0,.721.956h1.542a.751.751,0,0,0,.671-.415l1.037-2.073A3.64,3.64,0,0,1,15.1,18.75h.625"/><path class="a" d="M6.846,17.25,4.493,19.6a.749.749,0,0,0,.114,1.154l.977.652"/><path class="a" d="M15.1,15.75a3.252,3.252,0,0,0,.42,2.506,1.609,1.609,0,0,1,.232,1.079l-.507,3.042a.75.75,0,0,0,.74.873H17.51a.751.751,0,0,0,.728-.568l.479-1.915a1.5,1.5,0,0,1,.555-.837l.068-.037a8.448,8.448,0,0,0,2.965-2.752h0"/></svg>