<svg xmlns="http://www.w3.org/2000/svg" viewBox="0 0 24 24"><defs><style>.a{fill:none;stroke:currentColor;stroke-linecap:round;stroke-linejoin:round;stroke-width:1.5px;}</style></defs><title>saving-dog-guard-increase</title><polyline class="a" points="22.5 5.25 22.5 0.75 18 0.75"/><path class="a" d="M22.5.75,17.45,5.8a2.252,2.252,0,0,1-2.237.565L9.5,4.839a2.249,2.249,0,0,0-2.172.582L1.5,11.254"/><path class="a" d="M19.3,21.076a5.565,5.565,0,0,0,3.2-4.954,4.6,4.6,0,0,0-.73-2.492A2.25,2.25,0,1,0,18.1,11.305l.008-.024a5.378,5.378,0,0,0-.707-.042l-1.814.015a5.259,5.259,0,0,0-.689.051A2.25,2.25,0,1,0,11.23,13.63a4.606,4.606,0,0,0-.73,2.492,5.565,5.565,0,0,0,3.2,4.954"/><path class="a" d="M18.771,15.691l.479,4.939a2.2,2.2,0,0,1-2.119,2.624H15.869A2.2,2.2,0,0,1,13.75,20.63l.479-4.939"/><line class="a" x1="16.5" y1="19.504" x2="16.5" y2="20.254"/></svg>