<svg xmlns="http://www.w3.org/2000/svg" viewBox="0 0 24 24"><defs><style>.a{fill:none;stroke:currentColor;stroke-linecap:round;stroke-linejoin:round;stroke-width:1.5px;}</style></defs><title>school-teacher-maths</title><circle class="a" cx="5.25" cy="3.75" r="3"/><line class="a" x1="5.25" y1="8.25" x2="5.25" y2="14.25"/><path class="a" d="M7.5,23.25l.75-7.5h1.5v-3a4.5,4.5,0,0,0-9,0v3h1.5L3,23.25Z"/><line class="a" x1="23.25" y1="0.75" x2="11.25" y2="0.75"/><line class="a" x1="12.75" y1="16.5" x2="23.25" y2="16.5"/><polyline class="a" points="11.25 6.75 12.75 8.25 13.5 3.75 17.25 3.75"/><line class="a" x1="17.25" y1="10.5" x2="22.5" y2="10.5"/><path class="a" d="M19.875,12.75a.375.375,0,0,1,.375.375"/><path class="a" d="M19.5,13.125a.375.375,0,0,1,.375-.375"/><path class="a" d="M19.875,13.5a.375.375,0,0,1-.375-.375"/><path class="a" d="M20.25,13.125a.375.375,0,0,1-.375.375"/><path class="a" d="M19.875,7.5a.375.375,0,0,1,.375.375"/><path class="a" d="M19.5,7.875a.375.375,0,0,1,.375-.375"/><path class="a" d="M19.875,8.25a.375.375,0,0,1-.375-.375"/><path class="a" d="M20.25,7.875a.375.375,0,0,1-.375.375"/></svg>