<svg xmlns="http://www.w3.org/2000/svg" viewBox="0 0 24 24"><defs><style>.a{fill:none;stroke:currentColor;stroke-linecap:round;stroke-linejoin:round;stroke-width:1.5px;}</style></defs><title>school-locker-2</title><rect class="a" x="0.75" y="2.25" width="22.5" height="19.5" rx="1" ry="1"/><line class="a" x1="3.75" y1="18" x2="5.25" y2="18"/><line class="a" x1="3.75" y1="15" x2="5.25" y2="15"/><line class="a" x1="3.75" y1="8.25" x2="5.25" y2="8.25"/><line class="a" x1="3.75" y1="5.25" x2="5.25" y2="5.25"/><line class="a" x1="8.25" y1="2.25" x2="8.25" y2="21.75"/><line class="a" x1="11.25" y1="18" x2="13.5" y2="18"/><line class="a" x1="11.25" y1="15" x2="13.5" y2="15"/><line class="a" x1="11.25" y1="8.25" x2="13.5" y2="8.25"/><line class="a" x1="11.25" y1="5.25" x2="13.5" y2="5.25"/><line class="a" x1="16.5" y1="2.25" x2="16.5" y2="21.75"/><line class="a" x1="16.5" y1="10.5" x2="23.25" y2="10.5"/><path class="a" d="M19.5,15.75h3.75a0,0,0,0,1,0,0v5a1,1,0,0,1-1,1H19.5a0,0,0,0,1,0,0v-6A0,0,0,0,1,19.5,15.75Z"/><path class="a" d="M16.5,6h2.75a1,1,0,0,1,1,1v3.5a0,0,0,0,1,0,0H16.5a0,0,0,0,1,0,0V6A0,0,0,0,1,16.5,6Z"/><line class="a" x1="20.25" y1="15.75" x2="20.25" y2="14.25"/></svg>