<svg xmlns="http://www.w3.org/2000/svg" viewBox="0 0 24 24"><defs><style>.a{fill:none;stroke:currentColor;stroke-linecap:round;stroke-linejoin:round;stroke-width:1.5px;}</style></defs><title>school-teacher-art</title><circle class="a" cx="5.25" cy="3.75" r="3"/><line class="a" x1="5.25" y1="8.25" x2="5.25" y2="14.25"/><path class="a" d="M7.5,23.25l.75-7.5h1.5v-3a4.5,4.5,0,0,0-9,0v3h1.5L3,23.25Z"/><line class="a" x1="23.25" y1="0.75" x2="11.25" y2="0.75"/><line class="a" x1="12.75" y1="16.5" x2="23.25" y2="16.5"/><path class="a" d="M18.635,3.839a7.18,7.18,0,0,0-1.688-.2c-2.721,0-5.293,1.776-5.682,3.86-.443,2.377,1.6,4.056,2.985,4.5a2.061,2.061,0,0,0,2.43-.97"/><line class="a" x1="20.164" y1="10.265" x2="18.172" y2="14.25"/><path class="a" d="M19.368,8.258a1.448,1.448,0,0,0,2.59,1.3,3.088,3.088,0,0,0-.648-4.1C21.526,7.178,20.231,6.531,19.368,8.258Z"/><path class="a" d="M14.577,8.14a.375.375,0,0,1,.375.375"/><path class="a" d="M14.2,8.515a.375.375,0,0,1,.375-.375"/><path class="a" d="M14.577,8.89a.375.375,0,0,1-.375-.375"/><path class="a" d="M14.952,8.515a.375.375,0,0,1-.375.375"/><path class="a" d="M17.577,5.89a.375.375,0,0,1,.375.375"/><path class="a" d="M17.2,6.265a.375.375,0,0,1,.375-.375"/><path class="a" d="M17.577,6.64a.375.375,0,0,1-.375-.375"/><path class="a" d="M17.952,6.265a.375.375,0,0,1-.375.375"/></svg>