<svg xmlns="http://www.w3.org/2000/svg" viewBox="0 0 24 24"><defs><style>.a{fill:none;stroke:currentColor;stroke-linecap:round;stroke-linejoin:round;stroke-width:1.5px;}</style></defs><title>school-teacher-blind</title><circle class="a" cx="5.25" cy="3.75" r="3"/><line class="a" x1="5.25" y1="8.25" x2="5.25" y2="14.25"/><path class="a" d="M7.5,23.25l.75-7.5h1.5v-3a4.5,4.5,0,0,0-9,0v3h1.5L3,23.25Z"/><line class="a" x1="23.25" y1="0.75" x2="11.25" y2="0.75"/><line class="a" x1="12.75" y1="16.5" x2="23.25" y2="16.5"/><path class="a" d="M12.094,8.185a.559.559,0,0,1,0-.62A6.522,6.522,0,0,1,17.25,4.5a6.522,6.522,0,0,1,5.156,3.065.559.559,0,0,1,0,.62A6.522,6.522,0,0,1,17.25,11.25,6.522,6.522,0,0,1,12.094,8.185Z"/><line class="a" x1="19.726" y1="5.111" x2="14.774" y2="10.639"/></svg>