<svg xmlns="http://www.w3.org/2000/svg" viewBox="0 0 24 24"><defs><style>.a{fill:none;stroke:currentColor;stroke-linecap:round;stroke-linejoin:round;stroke-width:1.5px;}</style></defs><title>school-teacher-braille</title><circle class="a" cx="5.25" cy="3.75" r="3"/><line class="a" x1="5.25" y1="8.25" x2="5.25" y2="14.25"/><path class="a" d="M7.5,23.25l.75-7.5h1.5v-3a4.5,4.5,0,0,0-9,0v3h1.5L3,23.25Z"/><line class="a" x1="23.25" y1="0.75" x2="11.25" y2="0.75"/><line class="a" x1="12.75" y1="16.5" x2="23.25" y2="16.5"/><path class="a" d="M13.875,3.75a.375.375,0,0,1,.375.375"/><path class="a" d="M13.5,4.125a.375.375,0,0,1,.375-.375"/><path class="a" d="M13.875,4.5a.375.375,0,0,1-.375-.375"/><path class="a" d="M14.25,4.125a.375.375,0,0,1-.375.375"/><path class="a" d="M13.875,8.25a.375.375,0,0,1,.375.375"/><path class="a" d="M13.5,8.625a.375.375,0,0,1,.375-.375"/><path class="a" d="M13.875,9a.375.375,0,0,1-.375-.375"/><path class="a" d="M14.25,8.625A.375.375,0,0,1,13.875,9"/><path class="a" d="M13.875,12.75a.375.375,0,0,1,.375.375"/><path class="a" d="M13.5,13.125a.375.375,0,0,1,.375-.375"/><path class="a" d="M13.875,13.5a.375.375,0,0,1-.375-.375"/><path class="a" d="M14.25,13.125a.375.375,0,0,1-.375.375"/><path class="a" d="M19.875,8.25a.375.375,0,0,1,.375.375"/><path class="a" d="M19.5,8.625a.375.375,0,0,1,.375-.375"/><path class="a" d="M19.875,9a.375.375,0,0,1-.375-.375"/><path class="a" d="M20.25,8.625A.375.375,0,0,1,19.875,9"/><path class="a" d="M19.875,3.75a.375.375,0,0,1,.375.375"/><path class="a" d="M19.5,4.125a.375.375,0,0,1,.375-.375"/><path class="a" d="M19.875,4.5a.375.375,0,0,1-.375-.375"/><path class="a" d="M20.25,4.125a.375.375,0,0,1-.375.375"/></svg>