<svg xmlns="http://www.w3.org/2000/svg" viewBox="0 0 24 24"><defs><style>.a{fill:none;stroke:currentColor;stroke-linecap:round;stroke-linejoin:round;stroke-width:1.5px;}</style></defs><title>school-locker-1</title><path class="a" d="M1.75,2.25H19.5a0,0,0,0,1,0,0v19.5a0,0,0,0,1,0,0H1.75a1,1,0,0,1-1-1V3.25A1,1,0,0,1,1.75,2.25Z"/><line class="a" x1="9.75" y1="2.25" x2="9.75" y2="21.75"/><line class="a" x1="3.75" y1="18" x2="6.75" y2="18"/><line class="a" x1="3.75" y1="15" x2="6.75" y2="15"/><line class="a" x1="3.75" y1="8.25" x2="6.75" y2="8.25"/><line class="a" x1="3.75" y1="5.25" x2="6.75" y2="5.25"/><line class="a" x1="9.75" y1="10.5" x2="19.5" y2="10.5"/><path class="a" d="M14.75,16.5H19.5a0,0,0,0,1,0,0v5.25a0,0,0,0,1,0,0H14.25a0,0,0,0,1,0,0V17A.5.5,0,0,1,14.75,16.5Z"/><path class="a" d="M9.75,13.5H16.5c.414,0,.75.241.75.539V16.5"/><path class="a" d="M9.75,5.25h2.5a.5.5,0,0,1,.5.5V10.5a0,0,0,0,1,0,0h-3a0,0,0,0,1,0,0V5.25A0,0,0,0,1,9.75,5.25Z"/><path class="a" d="M16.5,5.25h3a0,0,0,0,1,0,0V10a.5.5,0,0,1-.5.5H16.5a0,0,0,0,1,0,0V5.25a0,0,0,0,1,0,0Z" transform="translate(36 15.75) rotate(-180)"/><path class="a" d="M22.707,23.211,19.5,21.75V2.25L22.707.789a.375.375,0,0,1,.543.33V22.881A.375.375,0,0,1,22.707,23.211Z"/><line class="a" x1="12.75" y1="7.5" x2="16.5" y2="7.5"/></svg>