<svg xmlns="http://www.w3.org/2000/svg" viewBox="0 0 24 24"><defs><style>.a{fill:none;stroke:currentColor;stroke-linecap:round;stroke-linejoin:round;stroke-width:1.5px;}</style></defs><title>school-book</title><path class="a" d="M18.75,23.25H3A2.25,2.25,0,0,1,.75,21"/><path class="a" d="M18.75.75h-15a3,3,0,0,0-3,3V21A2.25,2.25,0,0,1,3,18.75H18.75"/><line class="a" x1="17.25" y1="23.25" x2="17.25" y2="18.75"/><path class="a" d="M5.25,12.75v-6a1.5,1.5,0,0,1,3,0v6"/><line class="a" x1="5.25" y1="9.75" x2="8.25" y2="9.75"/><line class="a" x1="12.75" y1="15.75" x2="12.75" y2="8.25"/><path class="a" d="M12.75,8.25h1.5a1.5,1.5,0,0,1,1.5,1.5v.75a1.5,1.5,0,0,1-1.5,1.5h-1.5"/><path class="a" d="M12.75,12h1.5a1.5,1.5,0,0,1,1.5,1.5v.75a1.5,1.5,0,0,1-1.5,1.5h-1.5"/><path class="a" d="M23.25,5.25a3,3,0,0,0-3,3v1.5a3,3,0,0,0,3,3"/></svg>