<svg xmlns="http://www.w3.org/2000/svg" viewBox="0 0 24 24"><defs><style>.a{fill:none;stroke:currentColor;stroke-linecap:round;stroke-linejoin:round;stroke-width:1.5px;}</style></defs><title>school-building</title><path class="a" d="M7.5,23.25H.75V15a1.5,1.5,0,0,1,1.5-1.5H7.5"/><path class="a" d="M16.5,13.5h5.25a1.5,1.5,0,0,1,1.5,1.5v8.25H16.5"/><path class="a" d="M13.5,19.313A1.416,1.416,0,0,0,12,18a1.416,1.416,0,0,0-1.5,1.313V23.25h3Z"/><line class="a" x1="12" y1="6.75" x2="12" y2="0.75"/><path class="a" d="M12,.75h4a.5.5,0,0,1,.5.5v2a.5.5,0,0,1-.5.5H12a0,0,0,0,1,0,0v-3A0,0,0,0,1,12,.75Z"/><circle class="a" cx="12" cy="11.283" r="1.467"/><path class="a" d="M16.5,11.118A4.435,4.435,0,0,0,12,6.75a4.435,4.435,0,0,0-4.5,4.368V23.25h9Z"/><line class="a" x1="3.75" y1="16.5" x2="4.5" y2="16.5"/><line class="a" x1="3.75" y1="20.25" x2="4.5" y2="20.25"/><line class="a" x1="19.5" y1="16.5" x2="20.25" y2="16.5"/><line class="a" x1="19.5" y1="20.25" x2="20.25" y2="20.25"/></svg>