<svg xmlns="http://www.w3.org/2000/svg" viewBox="0 0 24 24"><defs><style>.a{fill:none;stroke:currentColor;stroke-linecap:round;stroke-linejoin:round;stroke-width:1.5px;}</style></defs><title>school-board-maths</title><rect class="a" x="0.75" y="0.75" width="22.5" height="15" rx="1" ry="1"/><line class="a" x1="3.75" y1="15.75" x2="3.75" y2="23.25"/><line class="a" x1="20.25" y1="15.75" x2="20.25" y2="23.25"/><line class="a" x1="3.75" y1="20.25" x2="20.25" y2="20.25"/><path class="a" d="M4.5,6.75A1.5,1.5,0,0,1,6,5.25H6a1.5,1.5,0,0,1,1.5,1.5h0a2.139,2.139,0,0,1-.468,1.336L4.5,11.25h3"/><path class="a" d="M17.25,5.25H18a.75.75,0,0,1,.75.75v5.25"/><line class="a" x1="17.25" y1="11.25" x2="20.25" y2="11.25"/><line class="a" x1="10.5" y1="8.25" x2="15" y2="8.25"/><line class="a" x1="12.75" y1="6" x2="12.75" y2="10.5"/></svg>