<svg xmlns="http://www.w3.org/2000/svg" viewBox="0 0 24 24"><defs><style>.a,.b{fill:none;stroke:currentColor;stroke-linecap:round;stroke-width:1.5px;}.a{stroke-linejoin:round;}.b{stroke-miterlimit:10;}</style></defs><title>school-board-chemistry</title><path class="a" d="M21.75,12V1.8A1.04,1.04,0,0,0,20.724.75H3.276A1.04,1.04,0,0,0,2.25,1.8V12"/><line class="a" x1="3" y1="18" x2="3" y2="23.25"/><line class="a" x1="21" y1="18" x2="21" y2="23.25"/><line class="a" x1="3" y1="21" x2="21" y2="21"/><path class="a" d="M9.439,6.063,7.751,5.3a.614.614,0,0,0-.5,0l-1.688.76a.506.506,0,0,0-.311.454V8.4a.5.5,0,0,0,.306.451l1.944.9,1.944-.9A.5.5,0,0,0,9.75,8.4V6.517A.506.506,0,0,0,9.439,6.063Z"/><line class="b" x1="12.75" y1="10.045" x2="9.398" y2="8.877"/><line class="a" x1="7.5" y1="9.75" x2="7.5" y2="12"/><line class="a" x1="15" y1="7.5" x2="15" y2="5.25"/><line class="a" x1="17.25" y1="3.75" x2="18.75" y2="3.75"/><path class="a" d="M21.506,18H2.494a1.522,1.522,0,0,1-1.483-1.136l-.238-.932A.754.754,0,0,1,1.515,15h20.97a.754.754,0,0,1,.742.932l-.238.932A1.522,1.522,0,0,1,21.506,18Z"/><path class="a" d="M13.061,11.186l1.687.76a.609.609,0,0,0,.5,0l1.688-.76a.5.5,0,0,0,.311-.453V8.849a.5.5,0,0,0-.306-.45L15,7.5l-1.944.9a.5.5,0,0,0-.306.45v1.884A.5.5,0,0,0,13.061,11.186Z"/></svg>