<svg xmlns="http://www.w3.org/2000/svg" viewBox="0 0 24 24"><defs><style>.a{fill:none;stroke:currentColor;stroke-linecap:round;stroke-linejoin:round;stroke-width:1.5px;}</style></defs><title>school-book-apple</title><rect class="a" x="0.75" y="17.25" width="22.5" height="6" rx="1.5" ry="1.5"/><line class="a" x1="3.75" y1="20.25" x2="15.75" y2="20.25"/><path class="a" d="M19.125,20.25a.375.375,0,0,1,.375-.375"/><path class="a" d="M19.5,20.625a.375.375,0,0,1-.375-.375"/><path class="a" d="M19.875,20.25a.375.375,0,0,1-.375.375"/><path class="a" d="M19.5,19.875a.375.375,0,0,1,.375.375"/><path class="a" d="M10.24.75h0c1.48,0,2.51,1.5,2.51,3.75"/><path class="a" d="M14.861,3.75,12.75,4.5l-1.959-.75a3.03,3.03,0,0,0-3.55.442,3.749,3.749,0,0,1-1.083,5.922c.706,2.985,2.485,5.39,4.316,5.629a1,1,0,0,0,.572-.115l1.4-.7a1.078,1.078,0,0,1,.959,0l1.395.7a1.006,1.006,0,0,0,.572.115c1.989-.26,4.326-3.076,4.883-6.414C20.721,6.5,19.055,1.888,14.861,3.75Z"/></svg>