<svg xmlns="http://www.w3.org/2000/svg" viewBox="0 0 24 24"><defs><style>.a{fill:none;stroke:currentColor;stroke-linecap:round;stroke-linejoin:round;stroke-width:1.5px;}</style></defs><title>school-teacher-physical-education</title><circle class="a" cx="5.25" cy="3.75" r="3"/><line class="a" x1="5.25" y1="8.25" x2="5.25" y2="14.25"/><path class="a" d="M7.5,23.25l.75-7.5h1.5v-3a4.5,4.5,0,0,0-9,0v3h1.5L3,23.25Z"/><line class="a" x1="23.25" y1="0.75" x2="11.25" y2="0.75"/><line class="a" x1="12.75" y1="16.5" x2="23.25" y2="16.5"/><path class="a" d="M17.281,7.362l.263-1.709a2.115,2.115,0,0,1,3.028,0,2.053,2.053,0,0,1,0,2.99l-1.551.437"/><path class="a" d="M20.572,8.643s1.515-.748,1.893,1.121c.266,1.312-.447,1.2-5.416,2.583"/><path class="a" d="M17.544,5.653s.757-1.495-1.136-1.869c-1.391-.274-1.309.659-2.49,5.472"/><path class="a" d="M17.049,12.347l-.522.515a2.239,2.239,0,0,1-3.131,0h0a2.172,2.172,0,0,1,0-3.091l.522-.515Z"/></svg>