<svg xmlns="http://www.w3.org/2000/svg" viewBox="0 0 24 24"><defs><style>.a{fill:none;stroke:currentColor;stroke-linecap:round;stroke-linejoin:round;stroke-width:1.5px;}</style></defs><title>school-exam-a</title><path class="a" d="M23.25,10.5v3.129a1.5,1.5,0,0,1-.439,1.061l-8.122,8.121a1.5,1.5,0,0,1-1.06.439H2.25a1.5,1.5,0,0,1-1.5-1.5V2.25A1.5,1.5,0,0,1,2.25.75h13.5"/><path class="a" d="M14.25,23.115V15.75a1.5,1.5,0,0,1,1.5-1.5h7.365"/><path class="a" d="M18.75,8.25v-6a1.5,1.5,0,0,1,3,0v6"/><line class="a" x1="18.75" y1="5.25" x2="21.75" y2="5.25"/><line class="a" x1="7.5" y1="6.75" x2="12.75" y2="6.75"/><line class="a" x1="4.5" y1="11.25" x2="12.75" y2="11.25"/><line class="a" x1="4.5" y1="15.75" x2="10.5" y2="15.75"/></svg>