<svg xmlns="http://www.w3.org/2000/svg" viewBox="0 0 24 24"><defs><style>.a{fill:none;stroke:currentColor;stroke-linecap:round;stroke-linejoin:round;stroke-width:1.5px;}</style></defs><title>science-projection</title><path class="a" d="M20.78,22.75H3.22a.941.941,0,0,1-.907-1.267L2.8,20.217A1.938,1.938,0,0,1,4.619,19H19.381A1.938,1.938,0,0,1,21.2,20.217l.491,1.266A.941.941,0,0,1,20.78,22.75Z"/><circle class="a" cx="12" cy="7.75" r="6.75"/><line class="a" x1="18.087" y1="19" x2="23.25" y2="6.609"/><line class="a" x1="5.707" y1="19" x2="0.75" y2="6.609"/><line class="a" x1="13.5" y1="19" x2="13.5" y2="22.75"/><line class="a" x1="16.5" y1="19" x2="16.5" y2="22.75"/><line class="a" x1="6.387" y1="4" x2="9.75" y2="4"/><line class="a" x1="14.25" y1="4" x2="17.613" y2="4"/><line class="a" x1="15" y1="7.75" x2="18" y2="7.75"/><line class="a" x1="9" y1="7.75" x2="12" y2="7.75"/><line class="a" x1="5.952" y1="10.75" x2="9" y2="10.75"/><line class="a" x1="12.75" y1="10.75" x2="15.75" y2="10.75"/></svg>