<svg xmlns="http://www.w3.org/2000/svg" viewBox="0 0 24 24"><defs><style>.a{fill:none;stroke:currentColor;stroke-linecap:round;stroke-linejoin:round;stroke-width:1.5px;}</style></defs><title>science-dna</title><path class="a" d="M23.024,9.211l-2.652,2.652a6,6,0,0,1-8.485-8.485L14.538.726"/><path class="a" d="M9.235,23l2.652-2.652A6,6,0,0,0,3.4,11.863L.75,14.515"/><line class="a" x1="22.493" y1="9.742" x2="14.008" y2="1.256"/><line class="a" x1="20.372" y1="11.863" x2="11.887" y2="3.378"/><line class="a" x1="14.538" y1="10.272" x2="10.333" y2="6.067"/><path class="a" d="M.75,14.515,3.4,11.863a6,6,0,0,1,8.485,8.485L9.235,23"/><line class="a" x1="1.28" y1="13.984" x2="9.766" y2="22.47"/><line class="a" x1="3.402" y1="11.863" x2="11.887" y2="20.348"/><line class="a" x1="9.235" y1="13.454" x2="13.44" y2="17.659"/></svg>