<svg xmlns="http://www.w3.org/2000/svg" viewBox="0 0 24 24"><defs><style>.a{fill:none;stroke:currentColor;stroke-linecap:round;stroke-linejoin:round;stroke-width:1.5px;}</style></defs><title>science-axis</title><line class="a" x1="12" y1="0.75" x2="12" y2="23.25"/><line class="a" x1="1.5" y1="20.25" x2="22.5" y2="20.25"/><polyline class="a" points="3.75 18 1.5 20.25 3.75 22.5"/><polyline class="a" points="20.25 18 22.5 20.25 20.25 22.5"/><polyline class="a" points="9.75 3 12 0.75 14.25 3"/><polyline class="a" points="15.75 9 18 6.75 20.25 9"/><polyline class="a" points="3.75 9 6 6.75 8.25 9"/><line class="a" x1="10.5" y1="15.75" x2="13.5" y2="15.75"/><line class="a" x1="10.5" y1="11.25" x2="13.5" y2="11.25"/><line class="a" x1="10.5" y1="6.75" x2="13.5" y2="6.75"/><path class="a" d="M18,6.75v7.5a6,6,0,0,1-12,0V6.75"/></svg>