<svg xmlns="http://www.w3.org/2000/svg" viewBox="0 0 24 24"><defs><style>.a{fill:none;stroke:currentColor;stroke-linecap:round;stroke-linejoin:round;stroke-width:1.5px;}</style></defs><title>science-fiction-robot</title><path class="a" d="M.75,16.5a1.5,1.5,0,0,1,3,0"/><path class="a" d="M2.25,15V9.75a3,3,0,0,1,3-3h1.5"/><path class="a" d="M23.25,16.5a1.5,1.5,0,0,0-3,0"/><path class="a" d="M21.75,15V9.75a3,3,0,0,0-3-3h-1.5"/><path class="a" d="M17.25,6.75a10.886,10.886,0,0,1,.75,4.5,14.012,14.012,0,0,1-.372,3.363,1.5,1.5,0,0,1-1.456,1.137H7.828a1.5,1.5,0,0,1-1.456-1.137A14.012,14.012,0,0,1,6,11.25a10.886,10.886,0,0,1,.75-4.5Z"/><path class="a" d="M10.5,15.75V22.5a.75.75,0,0,1-.75.75H7.5V15.714"/><line class="a" x1="5.25" y1="23.25" x2="7.5" y2="23.25"/><path class="a" d="M13.5,15.75V22.5a.75.75,0,0,0,.75.75H16.5V15.714"/><line class="a" x1="18.75" y1="23.25" x2="16.5" y2="23.25"/><path class="a" d="M12,.75a3,3,0,0,0-3,3v3h6v-3A3,3,0,0,0,12,.75Z"/><path class="a" d="M14.625,9.75a.375.375,0,0,1,.375.375"/><path class="a" d="M14.25,10.125a.375.375,0,0,1,.375-.375"/><path class="a" d="M14.625,10.5a.375.375,0,0,1-.375-.375"/><path class="a" d="M15,10.125a.375.375,0,0,1-.375.375"/><line class="a" x1="9" y1="10.5" x2="11.25" y2="10.5"/></svg>