<svg xmlns="http://www.w3.org/2000/svg" viewBox="0 0 24 24"><defs><style>.a{fill:none;stroke:currentColor;stroke-linecap:round;stroke-linejoin:round;stroke-width:1.5px;}</style></defs><title>science-perspective</title><path class="a" d="M18,5.922c2.72.678,4.5,1.8,4.5,3.078,0,2.071-4.7,3.75-10.5,3.75S1.5,11.071,1.5,9C1.5,7.726,3.28,6.6,6,5.922"/><line class="a" x1="12" y1="9.75" x2="12" y2="0.75"/><polyline class="a" points="9 3.75 12 0.75 15 3.75"/><path class="a" d="M16.626,23.25c-.08-.922-.126-1.922-.126-3a29.859,29.859,0,0,1,1.015-8.059A25.965,25.965,0,0,1,12,12.75a25.965,25.965,0,0,1-5.515-.559A29.859,29.859,0,0,1,7.5,20.25c0,1.078-.047,2.078-.126,3"/><path class="a" d="M16.655,17.082c-1.5.11-3.06.168-4.655.168s-3.14-.057-4.638-.166"/><path class="a" d="M16.2,8.25c0,.828-1.88,1.5-4.2,1.5s-4.2-.672-4.2-1.5"/><path class="a" d="M16.526,21.648q-2.223.1-4.526.1t-4.533-.1"/><line class="a" x1="12" y1="12.75" x2="12" y2="23.25"/></svg>