<svg xmlns="http://www.w3.org/2000/svg" viewBox="0 0 24 24"><defs><style>.a{fill:none;stroke:currentColor;stroke-linecap:round;stroke-linejoin:round;stroke-width:1.5px;}</style></defs><title>science-bacteria</title><circle class="a" cx="13.143" cy="11.25" r="7.5"/><line class="a" x1="13.143" y1="3.75" x2="13.143" y2="0.75"/><line class="a" x1="16.358" y1="4.473" x2="17.086" y2="2.94"/><line class="a" x1="18.953" y1="6.506" x2="23" y2="3.202"/><line class="a" x1="20.426" y1="9.454" x2="21.963" y2="9.075"/><line class="a" x1="20.493" y1="12.749" x2="22.194" y2="13.096"/><line class="a" x1="19.141" y1="15.755" x2="22.707" y2="18.594"/><line class="a" x1="16.631" y1="17.89" x2="19.44" y2="23.244"/><line class="a" x1="9.931" y1="4.473" x2="8.164" y2="0.75"/><line class="a" x1="7.336" y1="6.506" x2="5.643" y2="5.124"/><line class="a" x1="5.863" y1="9.454" x2="4.181" y2="9.04"/><line class="a" x1="5.796" y1="12.749" x2="1.147" y2="13.698"/><line class="a" x1="7.148" y1="15.755" x2="4.75" y2="17.557"/><line class="a" x1="9.658" y1="17.89" x2="8.264" y2="20.547"/><line class="a" x1="13.143" y1="18.75" x2="13.143" y2="20.25"/><circle class="a" cx="15.395" cy="10.5" r="2.25"/><path class="a" d="M9.77,12.75a.375.375,0,0,1,.375.375"/><path class="a" d="M9.4,13.125a.374.374,0,0,1,.375-.375"/><path class="a" d="M9.77,13.5a.374.374,0,0,1-.375-.375"/><path class="a" d="M10.145,13.125a.375.375,0,0,1-.375.375"/></svg>