<svg xmlns="http://www.w3.org/2000/svg" viewBox="0 0 24 24"><defs><style>.a{fill:none;stroke:currentColor;stroke-linecap:round;stroke-linejoin:round;stroke-width:1.5px;}</style></defs><title>science-atom-positive-negative</title><circle class="a" cx="11.748" cy="12.748" r="6"/><line class="a" x1="9.498" y1="12.748" x2="13.998" y2="12.748"/><line class="a" x1="11.748" y1="10.498" x2="11.748" y2="14.998"/><line class="a" x1="18.498" y1="3.748" x2="19.998" y2="3.748"/><path class="a" d="M7.248,3.26A10.477,10.477,0,0,1,11,2.272"/><path class="a" d="M1.685,9.748a10.432,10.432,0,0,1,1.444-3"/><path class="a" d="M3.5,19.241A10.56,10.56,0,0,1,1.94,16.5"/><path class="a" d="M11.747,23.25A10.629,10.629,0,0,1,8,22.558"/><path class="a" d="M19.794,19.5a10.552,10.552,0,0,1-2.638,2.25"/><path class="a" d="M22.1,10.989a10.458,10.458,0,0,1,.039,3.259"/><circle class="a" cx="19.248" cy="3.748" r="3"/></svg>