<svg xmlns="http://www.w3.org/2000/svg" viewBox="0 0 24 24"><defs><style>.a{fill:none;stroke:currentColor;stroke-linecap:round;stroke-linejoin:round;stroke-width:1.5px;}</style></defs><title>science-neurons</title><circle class="a" cx="12" cy="5.285" r="2.25"/><circle class="a" cx="18" cy="8.25" r="2.25"/><circle class="a" cx="18" cy="15.75" r="2.25"/><circle class="a" cx="6" cy="8.25" r="2.25"/><circle class="a" cx="6" cy="15.75" r="2.25"/><circle class="a" cx="12" cy="18.75" r="2.25"/><path class="a" d="M.75,3.75a1.5,1.5,0,0,1,0,3"/><line class="a" x1="8.013" y1="7.244" x2="9.973" y2="6.263"/><line class="a" x1="14.027" y1="6.263" x2="15.987" y2="7.244"/><line class="a" x1="8.013" y1="16.756" x2="9.987" y2="17.744"/><line class="a" x1="14.013" y1="17.744" x2="15.987" y2="16.756"/><line class="a" x1="6" y1="10.5" x2="6" y2="13.5"/><line class="a" x1="12" y1="21" x2="12" y2="23.25"/><line class="a" x1="12" y1="0.75" x2="12" y2="3.035"/><line class="a" x1="18" y1="10.5" x2="18" y2="13.5"/><line class="a" x1="4.02" y1="7.18" x2="2.102" y2="5.901"/><path class="a" d="M.75,20.25a1.5,1.5,0,0,0,0-3"/><line class="a" x1="4.02" y1="16.82" x2="2.102" y2="18.099"/><path class="a" d="M23.25,3.75a1.5,1.5,0,0,0,0,3"/><line class="a" x1="19.98" y1="7.18" x2="21.898" y2="5.901"/><path class="a" d="M23.25,20.25a1.5,1.5,0,0,1,0-3"/><line class="a" x1="19.98" y1="16.82" x2="21.898" y2="18.099"/></svg>