<svg xmlns="http://www.w3.org/2000/svg" viewBox="0 0 24 24"><defs><style>.a{fill:none;stroke:currentColor;stroke-linecap:round;stroke-linejoin:round;stroke-width:1.5px;}</style></defs><title>science-physics-law_1</title><line class="a" x1="0.75" y1="0.75" x2="23.25" y2="0.75"/><path class="a" d="M12,4.616a4.6,4.6,0,0,1-1.5,8.915A4.6,4.6,0,0,1,9,4.616"/><line class="a" x1="6" y1="9.074" x2="6" y2="17.25"/><line class="a" x1="14.614" y1="7.08" x2="23.25" y2="18.75"/><rect class="a" x="2.25" y="17.25" width="7.5" height="6" rx="1" ry="1"/><polyline class="a" points="23.25 15.75 23.25 18.75 20.25 18.75"/><path class="a" d="M9,.75h3a0,0,0,0,1,0,0v8a1,1,0,0,1-1,1H10a1,1,0,0,1-1-1v-8A0,0,0,0,1,9,.75Z"/><line class="a" x1="2.646" y1="22.765" x2="9.354" y2="17.735"/></svg>