<svg xmlns="http://www.w3.org/2000/svg" viewBox="0 0 24 24"><defs><style>.a{fill:none;stroke:currentColor;stroke-linecap:round;stroke-linejoin:round;stroke-width:1.5px;}</style></defs><title>science-magnet</title><path class="a" d="M7.45,3.188a.375.375,0,0,1-.138.512"/><path class="a" d="M6.937,3.05a.376.376,0,0,1,.513.138"/><path class="a" d="M6.8,3.563a.377.377,0,0,1,.137-.513"/><path class="a" d="M7.312,3.7A.376.376,0,0,1,6.8,3.563"/><path class="a" d="M2.95,6.938a.376.376,0,0,1-.137.512"/><path class="a" d="M2.438,6.8a.375.375,0,0,1,.512.138"/><path class="a" d="M2.3,7.313A.376.376,0,0,1,2.438,6.8"/><path class="a" d="M2.813,7.45A.377.377,0,0,1,2.3,7.313"/><path class="a" d="M1.45,12.188a.376.376,0,0,1-.137.512"/><path class="a" d="M.938,12.05a.375.375,0,0,1,.512.138"/><path class="a" d="M.8,12.563a.376.376,0,0,1,.138-.513"/><path class="a" d="M1.313,12.7A.377.377,0,0,1,.8,12.563"/><path class="a" d="M2.95,17.437a.375.375,0,0,1-.137.512"/><path class="a" d="M2.438,17.3a.376.376,0,0,1,.512.137"/><path class="a" d="M2.3,17.812a.375.375,0,0,1,.138-.512"/><path class="a" d="M2.813,17.949a.375.375,0,0,1-.513-.137"/><path class="a" d="M7.45,20.437a.375.375,0,0,1-.137.512"/><path class="a" d="M6.938,20.3a.376.376,0,0,1,.512.137"/><path class="a" d="M6.8,20.812a.375.375,0,0,1,.138-.512"/><path class="a" d="M7.313,20.949a.375.375,0,0,1-.513-.137"/><path class="a" d="M16.55,3.188a.375.375,0,0,0,.138.512"/><path class="a" d="M17.063,3.05a.376.376,0,0,0-.513.138"/><path class="a" d="M17.2,3.563a.377.377,0,0,0-.137-.513"/><path class="a" d="M16.688,3.7a.376.376,0,0,0,.512-.137"/><path class="a" d="M21.05,6.938a.376.376,0,0,0,.137.512"/><path class="a" d="M21.562,6.8a.375.375,0,0,0-.512.138"/><path class="a" d="M21.7,7.313a.376.376,0,0,0-.138-.513"/><path class="a" d="M21.187,7.45a.377.377,0,0,0,.513-.137"/><path class="a" d="M22.55,12.188a.376.376,0,0,0,.137.512"/><path class="a" d="M23.062,12.05a.375.375,0,0,0-.512.138"/><path class="a" d="M23.2,12.563a.376.376,0,0,0-.138-.513"/><path class="a" d="M22.687,12.7a.377.377,0,0,0,.513-.137"/><path class="a" d="M21.05,17.437a.375.375,0,0,0,.137.512"/><path class="a" d="M21.562,17.3a.376.376,0,0,0-.512.137"/><path class="a" d="M21.7,17.812a.375.375,0,0,0-.138-.512"/><path class="a" d="M21.187,17.949a.375.375,0,0,0,.513-.137"/><path class="a" d="M16.55,20.437a.375.375,0,0,0,.137.512"/><path class="a" d="M17.062,20.3a.376.376,0,0,0-.512.137"/><path class="a" d="M17.2,20.812a.375.375,0,0,0-.138-.512"/><path class="a" d="M16.687,20.949a.375.375,0,0,0,.513-.137"/><polyline class="a" points="10.5 8.25 10.5 0.75 13.5 8.25 13.5 0.75"/><path class="a" d="M13.5,15.75H12a1.5,1.5,0,0,0-1.5,1.5c0,2.25,3,2.25,3,4.5a1.5,1.5,0,0,1-1.5,1.5H10.5"/></svg>