<svg xmlns="http://www.w3.org/2000/svg" viewBox="0 0 24 24"><defs><style>.a{fill:none;stroke:currentColor;stroke-linecap:round;stroke-linejoin:round;stroke-width:1.5px;}</style></defs><title>science-fiction-ship</title><line class="a" x1="6" y1="8.252" x2="18" y2="8.252"/><path class="a" d="M12,4.125a.375.375,0,0,1,.375.375"/><path class="a" d="M11.625,4.5A.375.375,0,0,1,12,4.125"/><path class="a" d="M12,4.875a.375.375,0,0,1-.375-.375"/><path class="a" d="M12.375,4.5A.375.375,0,0,1,12,4.875"/><line class="a" x1="9" y1="11.25" x2="15" y2="11.25"/><circle class="a" cx="10.5" cy="15.75" r="1.5"/><polygon class="a" points="15 23.25 9 23.25 9.75 20.25 14.25 20.25 15 23.25"/><path class="a" d="M18,6.75a6,6,0,0,0-12,0v13.5H18Z"/><path class="a" d="M18,23.25h4.5V12.75A4.5,4.5,0,0,0,18,8.25Z"/><line class="a" x1="22.5" y1="20.25" x2="18" y2="20.25"/><path class="a" d="M6,23.25H1.5V12.75A4.5,4.5,0,0,1,6,8.25Z"/><line class="a" x1="1.5" y1="20.25" x2="6" y2="20.25"/></svg>