<svg xmlns="http://www.w3.org/2000/svg" viewBox="0 0 24 24"><defs><style>.a{fill:none;stroke:currentColor;stroke-linecap:round;stroke-linejoin:round;stroke-width:1.5px;}</style></defs><title>science-elecricity-power</title><path class="a" d="M4.75,20.25h14.5a1,1,0,0,1,1,1v1.5a.5.5,0,0,1-.5.5H4.25a.5.5,0,0,1-.5-.5v-1.5A1,1,0,0,1,4.75,20.25Z"/><line class="a" x1="10.5" y1="9.75" x2="13.5" y2="9.75"/><line class="a" x1="10.5" y1="6.75" x2="13.5" y2="6.75"/><line class="a" x1="10.5" y1="12.75" x2="13.5" y2="12.75"/><line class="a" x1="10.5" y1="15.75" x2="13.5" y2="15.75"/><line class="a" x1="9.75" y1="20.25" x2="7.5" y2="17.25"/><path class="a" d="M6,4.5.854,9.86a.378.378,0,0,0,.251.64H3V15L8.147,9.64A.378.378,0,0,0,7.9,9H6Z"/><path class="a" d="M21,4.5,15.854,9.86a.378.378,0,0,0,.251.64H18V15l5.147-5.36A.378.378,0,0,0,22.9,9H21Z"/><line class="a" x1="14.25" y1="20.25" x2="16.5" y2="17.25"/><path class="a" d="M18,.75h0a1.5,1.5,0,0,1-1.5,1.5h-9A1.5,1.5,0,0,1,6,.75H6"/></svg>