<svg xmlns="http://www.w3.org/2000/svg" viewBox="0 0 24 24"><defs><style>.a{fill:none;stroke:currentColor;stroke-linecap:round;stroke-linejoin:round;stroke-width:1.5px;}</style></defs><title>science-fiction-alien</title><path class="a" d="M20.25,18.75a2.25,2.25,0,0,1,0,4.5H3.75a2.25,2.25,0,0,1,0-4.5A.75.75,0,0,0,4.5,18V15.75a7.5,7.5,0,0,1,15,0V18A.75.75,0,0,0,20.25,18.75Z"/><circle class="a" cx="12" cy="15.75" r="3.75"/><path class="a" d="M12,15.375a.375.375,0,0,1,.375.375"/><path class="a" d="M11.625,15.75A.375.375,0,0,1,12,15.375"/><path class="a" d="M12,16.125a.375.375,0,0,1-.375-.375"/><path class="a" d="M12.375,15.75a.375.375,0,0,1-.375.375"/><circle class="a" cx="12" cy="3" r="2.25"/><circle class="a" cx="19.5" cy="4.5" r="2.25"/><line class="a" x1="12" y1="5.25" x2="12" y2="8.25"/><line class="a" x1="18.386" y1="6.455" x2="16.017" y2="9.416"/><circle class="a" cx="4.5" cy="4.5" r="2.25"/><line class="a" x1="5.614" y1="6.455" x2="7.983" y2="9.416"/></svg>