<svg xmlns="http://www.w3.org/2000/svg" viewBox="0 0 24 24"><defs><style>.a{fill:none;stroke:currentColor;stroke-linecap:round;stroke-linejoin:round;stroke-width:1.5px;}</style></defs><title>science-cells</title><line class="a" x1="3" y1="12.75" x2="3" y2="11.25"/><line class="a" x1="7.5" y1="21" x2="6" y2="20.25"/><line class="a" x1="6" y1="3.75" x2="7.5" y2="3"/><path class="a" d="M13.728,22.615a1.828,1.828,0,0,1-1.383.635,1.875,1.875,0,0,1,0-3.75,1.828,1.828,0,0,1,1.38.631"/><path class="a" d="M13.728,3.865a1.828,1.828,0,0,1-1.383.635A1.86,1.86,0,0,1,10.5,2.625,1.86,1.86,0,0,1,12.345.75a1.828,1.828,0,0,1,1.38.631"/><path class="a" d="M4.728,8.365A1.828,1.828,0,0,1,3.345,9a1.875,1.875,0,0,1,0-3.75,1.828,1.828,0,0,1,1.38.631"/><path class="a" d="M4.728,18.115a1.828,1.828,0,0,1-1.383.635,1.875,1.875,0,0,1,0-3.75,1.828,1.828,0,0,1,1.38.631"/><line class="a" x1="21" y1="12.75" x2="21" y2="11.25"/><line class="a" x1="16.5" y1="21" x2="18" y2="20.25"/><line class="a" x1="18" y1="3.75" x2="16.5" y2="3"/><path class="a" d="M22.5,8.365A1.83,1.83,0,0,1,21.116,9a1.875,1.875,0,0,1,0-3.75,1.828,1.828,0,0,1,1.38.631"/><path class="a" d="M22.5,18.115a1.83,1.83,0,0,1-1.384.635,1.875,1.875,0,0,1,0-3.75,1.828,1.828,0,0,1,1.38.631"/></svg>