<svg xmlns="http://www.w3.org/2000/svg" viewBox="0 0 24 24"><defs><style>.a{fill:none;stroke:currentColor;stroke-linecap:round;stroke-linejoin:round;stroke-width:1.5px;}</style></defs><title>science-fiction-alien-1</title><path class="a" d="M21.75,10.5c0,4.142-4.365,12-9.75,12s-9.75-7.858-9.75-12,4.365-9,9.75-9S21.75,6.358,21.75,10.5Z"/><path class="a" d="M5.335,9.835A3.248,3.248,0,0,1,8.517,10.9a3.252,3.252,0,0,1,1.061,3.183A3.252,3.252,0,0,1,6.4,13.017,3.248,3.248,0,0,1,5.335,9.835Z"/><path class="a" d="M18.665,9.835a3.248,3.248,0,0,0-3.182,1.06,3.252,3.252,0,0,0-1.061,3.183,3.252,3.252,0,0,0,3.183-1.061A3.248,3.248,0,0,0,18.665,9.835Z"/></svg>