<svg xmlns="http://www.w3.org/2000/svg" viewBox="0 0 24 24"><defs><style>.a{fill:none;stroke:currentColor;stroke-linecap:round;stroke-linejoin:round;stroke-width:1.5px;}</style></defs><title>science-fiction-weapon</title><path class="a" d="M23.25,19.5,20.25,9c0-2.133-2.473-3.919-5.792-4.383A1.5,1.5,0,0,0,12.75,6.105v5.788a1.5,1.5,0,0,0,1.712,1.487,10.689,10.689,0,0,0,2.365-.611L18.75,19.5Z"/><line class="a" x1="17.25" y1="19.5" x2="18.75" y2="19.5"/><circle class="a" cx="2.25" cy="9" r="1.5"/><line class="a" x1="3.75" y1="9" x2="12.75" y2="9"/><line class="a" x1="9.75" y1="6" x2="9.75" y2="12"/><line class="a" x1="6.75" y1="7.5" x2="6.75" y2="10.5"/><path class="a" d="M12.75,15.75A2.25,2.25,0,0,0,15,13.5v-.21"/></svg>