<svg xmlns="http://www.w3.org/2000/svg" viewBox="0 0 24 24"><defs><style>.a{fill:none;stroke:currentColor;stroke-linecap:round;stroke-linejoin:round;stroke-width:1.5px;}</style></defs><title>science-molecules</title><path class="a" d="M7.545,8.216A7.5,7.5,0,1,1,4.5,14.25a7.652,7.652,0,0,1,.055-.913"/><circle class="a" cx="20.985" cy="3" r="2.265"/><path class="a" d="M19.506,7.689a48.685,48.685,0,0,1-6.31,7.562C7.686,20.761,2.223,24.232.994,23c-.875-.875.67-3.93,3.6-7.584"/><path class="a" d="M13.118,6.833a35.952,35.952,0,0,1,3.2-2.358"/><path class="a" d="M10.225,6.961c-3.718-3-6.843-4.6-7.728-3.718C-.728,6.468,18.948,25.558,21.5,23c.758-.759-.274-3.132-2.473-6.134"/></svg>