<svg xmlns="http://www.w3.org/2000/svg" viewBox="0 0 24 24"><defs><style>.a{fill:none;stroke:currentColor;stroke-linecap:round;stroke-linejoin:round;stroke-width:1.5px;}</style></defs><title>science-electricity</title><line class="a" x1="6" y1="9.75" x2="5.25" y2="9.75"/><polyline class="a" points="23.25 11.25 23.25 9.75 21.75 9.75"/><line class="a" x1="18" y1="9.75" x2="18.75" y2="9.75"/><polyline class="a" points="0.75 11.25 0.75 9.75 2.25 9.75"/><line class="a" x1="3" y1="19.5" x2="6" y2="19.5"/><line class="a" x1="4.5" y1="18" x2="4.5" y2="21"/><line class="a" x1="11.25" y1="21.75" x2="12.75" y2="21.75"/><line class="a" x1="12" y1="12.75" x2="12" y2="14.25"/><path class="a" d="M16.891,5.641A4.891,4.891,0,1,0,10.5,10.274v.976a1.5,1.5,0,0,0,1.5,1.5h0a1.5,1.5,0,0,0,1.5-1.5v-.976A4.874,4.874,0,0,0,16.891,5.641Z"/><circle class="a" cx="4.5" cy="19.5" r="3.75"/><line class="a" x1="18" y1="19.5" x2="21" y2="19.5"/><circle class="a" cx="19.5" cy="19.5" r="3.75"/><line class="a" x1="0.75" y1="15" x2="0.75" y2="14.25"/><line class="a" x1="23.25" y1="15" x2="23.25" y2="14.25"/></svg>