<svg xmlns="http://www.w3.org/2000/svg" viewBox="0 0 24 24"><defs><style>.a{fill:none;stroke:currentColor;stroke-linecap:round;stroke-linejoin:round;stroke-width:1.5px;}</style></defs><title>science-brain</title><path class="a" d="M4.724,3.738C5.259,1.929,6.135.75,7.125.75s1.866,1.179,2.4,2.988"/><path class="a" d="M9.525,12.012C8.991,13.821,8.115,15,7.125,15s-1.866-1.179-2.4-2.988"/><ellipse class="a" cx="7.125" cy="7.875" rx="7.151" ry="2.937" transform="translate(-2.973 4.587) rotate(-29.829)"/><ellipse class="a" cx="7.125" cy="7.875" rx="2.937" ry="7.151" transform="translate(-3.251 10.139) rotate(-60.171)"/><path class="a" d="M7.125,7.5a.375.375,0,0,1,.375.375"/><path class="a" d="M6.75,7.875A.375.375,0,0,1,7.125,7.5"/><path class="a" d="M7.125,8.25a.375.375,0,0,1-.375-.375"/><path class="a" d="M7.5,7.875a.375.375,0,0,1-.375.375"/><line class="a" x1="5.25" y1="23.25" x2="5.25" y2="19.5"/><path class="a" d="M11.625.75c7.139,0,8.68,5.878,11.225,12.48a.751.751,0,0,1-.7,1.02h-1.9v3a3,3,0,0,1-3,3h-1.5v3"/></svg>