<svg xmlns="http://www.w3.org/2000/svg" viewBox="0 0 24 24"><defs><style>.a{fill:none;stroke:currentColor;stroke-linecap:round;stroke-linejoin:round;stroke-width:1.5px;}</style></defs><title>science-apple-gravity</title><line class="a" x1="3" y1="14.25" x2="3" y2="19.5"/><polyline class="a" points="0.75 18 3 19.5 5.25 18"/><line class="a" x1="21" y1="13.5" x2="21" y2="18.75"/><polyline class="a" points="18.75 17.25 21 18.75 23.25 17.25"/><line class="a" x1="12" y1="18" x2="12" y2="23.25"/><polyline class="a" points="9.75 21.75 12 23.25 14.25 21.75"/><path class="a" d="M8,12.359c.819.706-.2.782,1.441,2.193s5.876-.382,7.758-2.566,1.929-5,.291-6.41S15.607,4.64,15.061,4.17s-.261-1.2-1.9-2.614S8.748.606,6.865,2.79,3.984,9.847,5.622,11.258,7.184,11.654,8,12.359Z"/><line class="a" x1="15.061" y1="4.17" x2="16.978" y2="1.717"/></svg>