<svg xmlns="http://www.w3.org/2000/svg" viewBox="0 0 24 24"><defs><style>.a{fill:none;stroke:currentColor;stroke-linecap:round;stroke-linejoin:round;stroke-width:1.5px;}</style></defs><title>science-physics-law</title><path class="a" d="M16.5,15a3,3,0,0,0-3,3v1.5a3,3,0,0,0,3,3"/><polyline class="a" points="10.5 22.5 10.5 15 8.25 18.75 6 15 6 22.5"/><path class="a" d="M4.5,9H3A1.5,1.5,0,0,1,1.5,7.5V3A1.5,1.5,0,0,1,3,1.5H4.5"/><line class="a" x1="1.5" y1="6" x2="4.5" y2="6"/><path class="a" d="M19.5,9A1.5,1.5,0,0,1,21,7.5h0A1.5,1.5,0,0,1,22.5,9h0a2.139,2.139,0,0,1-.468,1.336L19.5,13.5h3"/><line class="a" x1="8.25" y1="4.5" x2="12" y2="4.5"/><line class="a" x1="8.25" y1="7.5" x2="12" y2="7.5"/></svg>