<svg xmlns="http://www.w3.org/2000/svg" viewBox="0 0 24 24"><defs><style>.a{fill:none;stroke:currentColor;stroke-linecap:round;stroke-linejoin:round;stroke-width:1.5px;}</style></defs><title>scooter-sport</title><circle class="a" cx="20.25" cy="19" r="3"/><path class="a" d="M17.88,7.386,2.25,8.5a1.5,1.5,0,0,0,0,3H3.99a6,6,0,0,1,4.556,2.1L10.8,16.226a1.5,1.5,0,0,0,1.139.524h1.607a1.5,1.5,0,0,0,1.153-.54l2.026-2.431A4.249,4.249,0,0,1,23,13.5l.255.255"/><circle class="a" cx="3.75" cy="19" r="3"/><path class="a" d="M20.25,19,17.126,3.691A1.5,1.5,0,0,0,15.658,2.5H13.875"/><line class="a" x1="3.75" y1="19" x2="9.489" y2="14.696"/><path class="a" d="M14.25,7.645V10a1.5,1.5,0,0,1-1.5,1.5H11.121a1.5,1.5,0,0,1-1.06-.439l-2.91-2.91"/><path class="a" d="M22.125,9.25a1.875,1.875,0,0,1,0-3.75h.75V9.25Z"/></svg>