<svg xmlns="http://www.w3.org/2000/svg" viewBox="0 0 24 24"><defs><style>.a{fill:none;stroke:currentColor;stroke-linecap:round;stroke-linejoin:round;stroke-width:1.5px;}</style></defs><title>scooter</title><path class="a" d="M13.239,13.206A5.027,5.027,0,0,0,9,11.25H6.2A5.5,5.5,0,0,0,.8,15.373,1.5,1.5,0,0,0,2.251,17.25h10.5a4.5,4.5,0,0,0,4.5-4.5V5.25a3,3,0,0,0-3-3h-1.5"/><path class="a" d="M12.75,17.25H22.5a.749.749,0,0,0,.612-.317,7.174,7.174,0,0,0,.1-2.183,3,3,0,0,0-2.829-2H17.25"/><path class="a" d="M20.25,8.25a1.125,1.125,0,0,1-1.8.9,3,3,0,0,1,0-4.8,1.125,1.125,0,0,1,1.8.9Z"/><line class="a" x1="11.25" y1="8.25" x2="3.75" y2="8.25"/><path class="a" d="M9.75,18a3.75,3.75,0,0,1-7.5,0v-.75h7.5Z"/><path class="a" d="M21.75,18a3.75,3.75,0,0,1-7.5,0v-.75h7.5Z"/></svg>