<svg xmlns="http://www.w3.org/2000/svg" viewBox="0 0 24 24"><defs><style>.a{fill:none;stroke:currentColor;stroke-linecap:round;stroke-linejoin:round;stroke-width:1.5px;}</style></defs><title>scooter-1</title><path class="a" d="M10.5,6.939V10.5a.75.75,0,0,0,.75.75h1.5a.75.75,0,0,0,.75-.75V6.939"/><line class="a" x1="4.5" y1="3.75" x2="1.5" y2="3.75"/><line class="a" x1="22.5" y1="3.75" x2="19.5" y2="3.75"/><path class="a" d="M9.4,2.25H6a1.5,1.5,0,0,0,0,3H9.4"/><path class="a" d="M14.6,5.25H18a1.5,1.5,0,0,0,0-3H14.6"/><circle class="a" cx="12" cy="3.75" r="3"/><path class="a" d="M12,14.25a1.5,1.5,0,0,0-1.5,1.5v6a1.5,1.5,0,0,0,3,0v-6A1.5,1.5,0,0,0,12,14.25Z"/><path class="a" d="M13.5,20.25H15a3,3,0,0,0,3-3v-4.5a6,6,0,0,0-12,0v4.5a3,3,0,0,0,3,3h1.5"/></svg>