<svg xmlns="http://www.w3.org/2000/svg" viewBox="0 0 24 24"><defs><style>.a{fill:none;stroke:currentColor;stroke-linecap:round;stroke-linejoin:round;stroke-width:1.5px;}</style></defs><title>sea-transport-small-boat</title><path class="a" d="M.75,20.263a5.511,5.511,0,0,0,4.5-1.5,4.547,4.547,0,0,0,6.75,0,4.547,4.547,0,0,0,6.75,0,5.511,5.511,0,0,0,4.5,1.5"/><path class="a" d="M2.25,17.263v-1.5a1.5,1.5,0,0,1,1.5-1.5H22.5a.751.751,0,0,1,.631,1.156l-1.024,1.592"/><path class="a" d="M5.25,14.263v-3a1.5,1.5,0,0,0-1.5-1.5,1.5,1.5,0,0,1,0-3h7.582a1.5,1.5,0,0,1,1.115.5l6.3,7"/><line class="a" x1="9.75" y1="6.763" x2="6.75" y2="3.013"/><line class="a" x1="14.7" y1="9.763" x2="9.75" y2="9.763"/></svg>