<svg xmlns="http://www.w3.org/2000/svg" viewBox="0 0 24 24"><defs><style>.a{fill:none;stroke:currentColor;stroke-linecap:round;stroke-linejoin:round;stroke-width:1.5px;}</style></defs><title>sea-transport-ship-cargo</title><path class="a" d="M.75,23.263a5.511,5.511,0,0,0,4.5-1.5,4.547,4.547,0,0,0,6.75,0,4.547,4.547,0,0,0,6.75,0,5.511,5.511,0,0,0,4.5,1.5"/><line class="a" x1="1.106" y1="18.763" x2="23.132" y2="18.763"/><path class="a" d="M22.275,20.448c.976-1.161.975-1.976.972-3.867a.834.834,0,0,0-.194-.574.752.752,0,0,0-.554-.244H10.849a1.5,1.5,0,0,1-1.3-.75,1.5,1.5,0,0,0-1.3-.75H1.5a.752.752,0,0,0-.554.244.834.834,0,0,0-.194.574c0,1.949,0,3.953,1.254,5.237"/><line class="a" x1="20.25" y1="9.763" x2="20.25" y2="12.763"/><path class="a" d="M8.75,3.763h2a.5.5,0,0,1,.5.5v4a0,0,0,0,1,0,0h-3a0,0,0,0,1,0,0v-4A.5.5,0,0,1,8.75,3.763Z"/><line class="a" x1="6.75" y1="11.263" x2="9.75" y2="11.263"/><path class="a" d="M18.75,1.513a3.285,3.285,0,0,1-2.25.75c-2.4,0-2.1-1.5-4.5-1.5a3.285,3.285,0,0,0-2.25.75"/><path class="a" d="M21.75,15.763v-1.5a1.5,1.5,0,0,0-1.5-1.5h-4.5a1.5,1.5,0,0,1-1.5-1.5,3,3,0,0,0-3-3h-3a1.5,1.5,0,0,0-1.5,1.5v4.5"/><line class="a" x1="17.25" y1="9.763" x2="17.25" y2="12.763"/><line class="a" x1="13.849" y1="9.763" x2="21.75" y2="9.763"/></svg>