<svg xmlns="http://www.w3.org/2000/svg" viewBox="0 0 24 24"><defs><style>.a{fill:none;stroke:currentColor;stroke-linecap:round;stroke-linejoin:round;stroke-width:1.5px;}</style></defs><title>sea-transport-ship</title><path class="a" d="M.75,23.263a5.511,5.511,0,0,0,4.5-1.5,4.547,4.547,0,0,0,6.75,0,4.547,4.547,0,0,0,6.75,0,5.511,5.511,0,0,0,4.5,1.5"/><path class="a" d="M22.479,20.864a7.963,7.963,0,0,0,.768-2.783.75.75,0,0,0-.747-.818H1.5a.75.75,0,0,0-.747.818,8.07,8.07,0,0,0,.62,2.465"/><path class="a" d="M19.664,12.577a1.5,1.5,0,0,0-1.488-1.314H5.824a1.5,1.5,0,0,0-1.488,1.314L3.75,17.263h16.5Z"/><line class="a" x1="6.75" y1="14.263" x2="8.25" y2="14.263"/><line class="a" x1="15.75" y1="14.263" x2="17.25" y2="14.263"/><line class="a" x1="11.25" y1="14.263" x2="12.75" y2="14.263"/><path class="a" d="M7.25,6.763h2a.5.5,0,0,1,.5.5v4a0,0,0,0,1,0,0h-3a0,0,0,0,1,0,0v-4A.5.5,0,0,1,7.25,6.763Z"/><path class="a" d="M14.25,6.763h3a0,0,0,0,1,0,0v4a.5.5,0,0,1-.5.5h-2a.5.5,0,0,1-.5-.5v-4a0,0,0,0,1,0,0Z" transform="translate(31.5 18.026) rotate(180)"/><path class="a" d="M8.25,3.763c0-1.5,3-1.5,3-3"/><path class="a" d="M15.75,3.763c0-1.5,3-1.5,3-3"/></svg>