<svg xmlns="http://www.w3.org/2000/svg" viewBox="0 0 24 24"><defs><style>.a{fill:none;stroke:currentColor;stroke-linecap:round;stroke-linejoin:round;stroke-width:1.5px;}</style></defs><title>sea-transport-buoy-1</title><path class="a" d="M.75,22.263A3.307,3.307,0,0,0,3.565,20.7a3.308,3.308,0,0,0,5.621,0,3.315,3.315,0,0,0,5.628,0,3.308,3.308,0,0,0,5.621,0,3.307,3.307,0,0,0,2.815,1.563"/><path class="a" d="M7.856,18.413,8.973,14a3,3,0,0,1,3.644-2.173l2.909.735A3,3,0,0,1,17.7,16.2l-.575,2.277"/><polyline class="a" points="14.071 12.192 16.646 2.013 21 6.209 15.359 7.103"/><line class="a" x1="14.807" y1="9.284" x2="17.715" y2="10.02"/></svg>