<svg xmlns="http://www.w3.org/2000/svg" viewBox="0 0 24 24"><defs><style>.a{fill:none;stroke:currentColor;stroke-linecap:round;stroke-linejoin:round;stroke-width:1.5px;}</style></defs><title>sea-transport-boat</title><path class="a" d="M18,13.548V8.263a3,3,0,0,0-3-3H9a3,3,0,0,0-3,3v5.285"/><path class="a" d="M22.5,15.348,12.557,11.37a1.5,1.5,0,0,0-1.114,0L1.5,15.348"/><line class="a" x1="3.358" y1="14.604" x2="4.948" y2="19.364"/><line class="a" x1="12" y1="18.763" x2="12" y2="11.263"/><line class="a" x1="20.642" y1="14.604" x2="18.979" y2="19.581"/><polyline class="a" points="19.647 17.582 12 14.523 4.353 17.582"/><path class="a" d="M.75,23.263a5.511,5.511,0,0,0,4.5-1.5,4.547,4.547,0,0,0,6.75,0,4.547,4.547,0,0,0,6.75,0,5.511,5.511,0,0,0,4.5,1.5"/><line class="a" x1="9" y1="8.263" x2="15" y2="8.263"/><path class="a" d="M13.5,1.513a.75.75,0,0,0-.75-.75h-1.5a.75.75,0,0,0-.75.75v3.75h3Z"/></svg>