<svg xmlns="http://www.w3.org/2000/svg" viewBox="0 0 24 24"><defs><style>.a{fill:none;stroke:currentColor;stroke-linecap:round;stroke-linejoin:round;stroke-width:1.5px;}</style></defs><title>sea-transport-submarine</title><line class="a" x1="0.937" y1="17.263" x2="23.25" y2="17.263"/><line class="a" x1="21.75" y1="14.263" x2="21.75" y2="20.263"/><path class="a" d="M12.75,9.763h-6a6,6,0,0,0,0,12h6a6,6,0,0,0,0-12Z"/><path class="a" d="M6,13.138a.375.375,0,0,1,.375.375"/><path class="a" d="M5.625,13.513A.375.375,0,0,1,6,13.138"/><path class="a" d="M6,13.888a.375.375,0,0,1-.375-.375"/><path class="a" d="M6.375,13.513A.375.375,0,0,1,6,13.888"/><path class="a" d="M9.75,13.138a.375.375,0,0,1,.375.375"/><path class="a" d="M9.375,13.513a.375.375,0,0,1,.375-.375"/><path class="a" d="M9.75,13.888a.375.375,0,0,1-.375-.375"/><path class="a" d="M10.125,13.513a.375.375,0,0,1-.375.375"/><path class="a" d="M13.5,13.138a.375.375,0,0,1,.375.375"/><path class="a" d="M13.125,13.513a.375.375,0,0,1,.375-.375"/><path class="a" d="M13.5,13.888a.375.375,0,0,1-.375-.375"/><path class="a" d="M13.875,13.513a.375.375,0,0,1-.375.375"/><path class="a" d="M7.75,6.763h2.5a1,1,0,0,1,1,1v2a0,0,0,0,1,0,0H6.75a0,0,0,0,1,0,0v-2A1,1,0,0,1,7.75,6.763Z"/><path class="a" d="M5.25,2.263h1.5a1.5,1.5,0,0,1,1.5,1.5v3"/></svg>