<svg xmlns="http://www.w3.org/2000/svg" viewBox="0 0 24 24"><defs><style>.a{fill:none;stroke:currentColor;stroke-linecap:round;stroke-linejoin:round;stroke-width:1.5px;}</style></defs><title>sea-transport-bark-1</title><path class="a" d="M4.291,20.263c-2.1,0-3.1-2.205-3.507-3.528a.749.749,0,0,1,.716-.972h21a.752.752,0,0,1,.717.972c-.41,1.323-1.407,3.528-3.508,3.528Z"/><line class="a" x1="5.25" y1="23.263" x2="8.25" y2="18.763"/><line class="a" x1="9.75" y1="23.263" x2="12.75" y2="18.763"/><line class="a" x1="14.25" y1="23.263" x2="17.25" y2="18.763"/><line class="a" x1="12.75" y1="15.763" x2="12.75" y2="12.763"/><path class="a" d="M18.75,12.763H6a.75.75,0,0,1-.577-1.229A7.249,7.249,0,0,0,6.991,6.763,7.254,7.254,0,0,0,5.423,1.991.749.749,0,0,1,6,.763H18.75s3,.75,3,6S18.75,12.763,18.75,12.763Z"/></svg>