<svg xmlns="http://www.w3.org/2000/svg" viewBox="0 0 24 24"><defs><style>.a{fill:none;stroke:currentColor;stroke-linecap:round;stroke-linejoin:round;stroke-width:1.5px;}</style></defs><title>sea-transport-bark</title><path class="a" d="M18.477,19.492a.751.751,0,0,0-.465-.975l-6.012-2-6.012,2a.751.751,0,0,0-.465.975"/><path class="a" d="M23.25,23.263a5.511,5.511,0,0,1-4.5-1.5,4.547,4.547,0,0,1-6.75,0,4.547,4.547,0,0,1-6.75,0,5.511,5.511,0,0,1-4.5,1.5"/><line class="a" x1="12" y1="16.513" x2="12" y2="14.263"/><line class="a" x1="12" y1="0.763" x2="12" y2="2.263"/><line class="a" x1="22.5" y1="2.263" x2="1.5" y2="2.263"/><path class="a" d="M20.25,2.263l2.25,10.5s-2.25,1.5-10.5,1.5-10.5-1.5-10.5-1.5l2.25-10.5"/></svg>