<svg xmlns="http://www.w3.org/2000/svg" viewBox="0 0 24 24"><defs><style>.a{fill:none;stroke:currentColor;stroke-linecap:round;stroke-linejoin:round;stroke-width:1.5px;}</style></defs><title>sea-transport-sailing-boat</title><path class="a" d="M.75,23.263a5.511,5.511,0,0,0,4.5-1.5,4.547,4.547,0,0,0,6.75,0,4.547,4.547,0,0,0,6.75,0,5.511,5.511,0,0,0,4.5,1.5"/><path class="a" d="M21.757,20.271a6.228,6.228,0,0,0,1.429-1.954.75.75,0,0,0-.686-1.054H1.5a.75.75,0,0,0-.686,1.054A6.455,6.455,0,0,0,2.6,20.591"/><path class="a" d="M11.25,17.263V2.03a1.267,1.267,0,0,0-2.284-.756L2.271,11.6A.75.75,0,0,0,2.9,12.761l8.348-.012"/><path class="a" d="M15.631,5.911a.75.75,0,0,0-1.381.406v7.946h5.376a.751.751,0,0,0,.631-1.156Z"/></svg>