<svg xmlns="http://www.w3.org/2000/svg" viewBox="0 0 24 24"><defs><style>.a{fill:none;stroke:currentColor;stroke-linecap:round;stroke-linejoin:round;stroke-width:1.5px;}</style></defs><title>sea-transport-ship-cargo-birds</title><path class="a" d="M.75,21.013a5.508,5.508,0,0,0,4.5-1.5,4.547,4.547,0,0,0,6.75,0,4.547,4.547,0,0,0,6.75,0,5.511,5.511,0,0,0,4.5,1.5"/><path class="a" d="M22.53,18.507a8.008,8.008,0,0,0,.716-2.676.75.75,0,0,0-.747-.818H1.5a.75.75,0,0,0-.747.818,8.011,8.011,0,0,0,.7,2.631"/><path class="a" d="M21.749,15.013h-6v-6a1.5,1.5,0,0,1,1.5-1.5h1.5a3,3,0,0,1,3,3Z"/><line class="a" x1="15.749" y1="10.513" x2="18.749" y2="10.513"/><path class="a" d="M12.749,15.013v-9a3,3,0,0,0-3-3H2.25"/><path class="a" d="M3.25,12.013h4a1,1,0,0,1,1,1v2a0,0,0,0,1,0,0h-6a0,0,0,0,1,0,0v-2A1,1,0,0,1,3.25,12.013Z"/><line class="a" x1="5.249" y1="3.013" x2="5.249" y2="4.513"/><line class="a" x1="5.249" y1="7.513" x2="5.249" y2="9.013"/></svg>