<svg xmlns="http://www.w3.org/2000/svg" viewBox="0 0 24 24"><defs><style>.a{fill:none;stroke:currentColor;stroke-linecap:round;stroke-linejoin:round;stroke-width:1.5px;}</style></defs><title>sea-transport-buoy</title><path class="a" d="M.75,22.263a5.511,5.511,0,0,0,4.5-1.5,4.547,4.547,0,0,0,6.75,0,4.547,4.547,0,0,0,6.75,0,5.511,5.511,0,0,0,4.5,1.5"/><circle class="a" cx="12" cy="14.763" r="3"/><line class="a" x1="12" y1="11.763" x2="12" y2="1.263"/><line class="a" x1="12" y1="2.763" x2="18" y2="2.763"/><line class="a" x1="12" y1="5.763" x2="18" y2="5.763"/><path class="a" d="M23.25,17.763a5.511,5.511,0,0,1-4.5-1.5,5.454,5.454,0,0,1-1.277.962"/><path class="a" d="M6.527,17.225a5.454,5.454,0,0,1-1.277-.962,5.511,5.511,0,0,1-4.5,1.5"/></svg>