<svg xmlns="http://www.w3.org/2000/svg" viewBox="0 0 24 24"><defs><style>.a{fill:none;stroke:currentColor;stroke-linecap:round;stroke-linejoin:round;stroke-width:1.5px;}</style></defs><title>sea-transport-yacht</title><path class="a" d="M.756,20.513a3.3,3.3,0,0,0,2.8-1.568,3.315,3.315,0,0,0,5.631,0A3.3,3.3,0,0,0,12,20.513c1.46,0,3.871-2.216,5.381-3.769a.746.746,0,0,1,1.275.423c.1.927.477,1.846,1.591,1.846a3.344,3.344,0,0,0,3-2.25"/><path class="a" d="M11.25,16.763,7.8,15.9A6,6,0,0,1,3.99,12.953L.75,7.013l22.5,4.5"/><polyline class="a" points="6.107 8.084 11.25 5.513 21 7.013"/><path class="a" d="M19.5,10.763,21,7.013,22.568,4.4a.749.749,0,0,0-.643-1.136H19.5L15.81,6.215"/></svg>