<svg id="Regular" xmlns="http://www.w3.org/2000/svg" viewBox="0 0 24 24"><defs><style>.cls-1{fill:none;stroke:currentColor;stroke-linecap:round;stroke-linejoin:round;stroke-width:1.5px;}</style></defs><title>seafood-salmon</title><ellipse class="cls-1" cx="5.994" cy="12.023" rx="5.25" ry="6.75"/><ellipse class="cls-1" cx="5.994" cy="12.023" rx="2.25" ry="3.75"/><path class="cls-1" d="M5.994,18.773c5.25,0,11.3-1.692,13.5-6-2.2-4.308-8.373-8-13.5-7.5"/><path class="cls-1" d="M22.331,11.407A4.608,4.608,0,0,1,19.5,12.773a4.828,4.828,0,0,1,.922-3.057A4.608,4.608,0,0,1,23.253,8.35,4.828,4.828,0,0,1,22.331,11.407Z"/><path class="cls-1" d="M22.331,14.138A4.61,4.61,0,0,0,19.5,12.773a4.829,4.829,0,0,0,.922,3.057A4.61,4.61,0,0,0,23.253,17.2,4.828,4.828,0,0,0,22.331,14.138Z"/></svg>