<svg id="Regular" xmlns="http://www.w3.org/2000/svg" viewBox="0 0 24 24"><defs><style>.cls-1{fill:none;stroke:currentColor;stroke-linecap:round;stroke-linejoin:round;stroke-width:1.5px;}</style></defs><title>seafood-crab</title><line class="cls-1" x1="12" y1="12.75" x2="12" y2="14.25"/><line class="cls-1" x1="8.287" y1="13.5" x2="9.337" y2="14.561"/><line class="cls-1" x1="15.713" y1="13.5" x2="14.663" y2="14.561"/><path class="cls-1" d="M18.629,11.423a18.464,18.464,0,0,0-13.258,0,1.528,1.528,0,0,0-.9,2.061c1.732,3.907,2.849,5.509,5.614,7.9a1.51,1.51,0,0,0,.978.366h1.872a1.51,1.51,0,0,0,.978-.366c2.765-2.391,3.882-3.993,5.614-7.9A1.528,1.528,0,0,0,18.629,11.423Z"/><path class="cls-1" d="M18.5,15.669a7.89,7.89,0,0,1,3.718,2.8l.182.277"/><path class="cls-1" d="M17.166,17.92a7.481,7.481,0,0,1,3.563,2.8l.183.277"/><path class="cls-1" d="M15.381,20.032a8.219,8.219,0,0,1,3.739,2.941l.182.277"/><path class="cls-1" d="M5.5,15.669a7.89,7.89,0,0,0-3.718,2.8L1.6,18.75"/><path class="cls-1" d="M6.834,17.92a7.481,7.481,0,0,0-3.563,2.8L3.088,21"/><path class="cls-1" d="M8.619,20.032A8.219,8.219,0,0,0,4.88,22.973L4.7,23.25"/><path class="cls-1" d="M4.524,12.143l-.4-.272A7.028,7.028,0,0,1,1.6,5.25"/><path class="cls-1" d="M5.316,4.5l4.6-1.573a2.41,2.41,0,0,0-.3-.9C8.7.5,6.241.316,4.122,1.614S1.03,5.2,1.949,6.732s3.38,1.714,5.5.416A6.1,6.1,0,0,0,8.495,6.32Z"/><path class="cls-1" d="M19.476,12.143l.4-.272A7.028,7.028,0,0,0,22.4,5.25"/><path class="cls-1" d="M18.684,4.5l-4.6-1.573a2.41,2.41,0,0,1,.3-.9C15.3.5,17.759.316,19.878,1.614S22.97,5.2,22.051,6.732s-3.38,1.714-5.5.416a6.1,6.1,0,0,1-1.047-.828Z"/></svg>