<svg id="Regular" xmlns="http://www.w3.org/2000/svg" viewBox="0 0 24 24"><defs><style>.cls-1{fill:none;stroke:currentColor;stroke-linecap:round;stroke-linejoin:round;stroke-width:1.5px;}</style></defs><title>seafood-sardine-can</title><path class="cls-1" d="M12.75,16.5H2.25A1.5,1.5,0,0,1,.75,15V3a1.5,1.5,0,0,1,1.5-1.5h19.5A1.5,1.5,0,0,1,23.25,3V15a1.5,1.5,0,0,1-1.5,1.5h-4.5"/><path class="cls-1" d="M15.75,18h-1.5c-.828,0-1.5-1.422-1.5-1.5V6.75c0-1.578.672-2.25,1.5-2.25h1.5A1.5,1.5,0,0,1,17.25,6V16.5A1.5,1.5,0,0,1,15.75,18Z"/><line class="cls-1" x1="20.25" y1="5.25" x2="20.25" y2="13.5"/><path class="cls-1" d="M14.25,4.5H6.227a.751.751,0,0,0-.416.126l-1.125.75a.75.75,0,0,0,0,1.248l1.125.75a.751.751,0,0,0,.416.126H12.75"/><path class="cls-1" d="M12.75,7.5H6.227a.751.751,0,0,0-.416.126l-1.125.75a.75.75,0,0,0,0,1.248l1.125.75a.751.751,0,0,0,.416.126H12.75"/><path class="cls-1" d="M12.75,10.5H6.227a.751.751,0,0,0-.416.126l-1.125.75a.75.75,0,0,0,0,1.248l1.125.75a.751.751,0,0,0,.416.126H12.75"/><path class="cls-1" d="M13.5,22.5h3.75a1.5,1.5,0,0,0,0-3h-1.5V18"/></svg>