<svg id="Regular" xmlns="http://www.w3.org/2000/svg" viewBox="0 0 24 24"><defs><style>.cls-1{fill:none;stroke:currentColor;stroke-linecap:round;stroke-linejoin:round;stroke-width:1.5px;}</style></defs><title>seafood-shrimp</title><path class="cls-1" d="M23.227,11.25H11.25A10.5,10.5,0,0,1,.75.75H13.5a9.75,9.75,0,0,1,0,19.5H6.75a4.5,4.5,0,0,1,4.5-4.5h3"/><path class="cls-1" d="M14.25,20.221V11.25c0-2.25-1.5-10.5-6-10.5"/><line class="cls-1" x1="14.25" y1="11.25" x2="21.1" y2="4.4"/><line class="cls-1" x1="14.25" y1="11.25" x2="20.394" y2="17.394"/><path class="cls-1" d="M8.625,5.25a.375.375,0,1,1-.375.375.375.375,0,0,1,.375-.375"/><polygon class="cls-1" points="6.75 20.25 2.25 17.25 2.25 23.25 6.75 20.25"/></svg>