<svg id="Regular" xmlns="http://www.w3.org/2000/svg" viewBox="0 0 24 24"><defs><style>.cls-1{fill:none;stroke:currentColor;stroke-linecap:round;stroke-linejoin:round;stroke-width:1.5px;}</style></defs><title>seafood-tuna</title><path class="cls-1" d="M4,7.5s3-3,6-3H23.5A8.934,8.934,0,0,1,22,9c-1.177,1.765-5.25,3-9.75,3C8.426,12,4,7.5,4,7.5Z"/><polyline class="cls-1" points="1 4.5 4 7.5 1 10.5"/><path class="cls-1" d="M17.5,4.5s-3-3.75-6-3.75V4.5"/><polyline class="cls-1" points="6.25 9.75 5.5 14.25 12.25 12"/><path class="cls-1" d="M17.875,6.75a.375.375,0,1,1-.375.375.375.375,0,0,1,.375-.375"/><line class="cls-1" x1="12.25" y1="8.25" x2="10" y2="7.5"/><path class="cls-1" d="M5.5,17.25s0,3,4.5,3H23.5v-3H1a7.127,7.127,0,0,0,7.5,6h9v-6"/></svg>