<svg id="Regular" xmlns="http://www.w3.org/2000/svg" viewBox="0 0 24 24"><defs><style>.cls-1{fill:none;stroke:currentColor;stroke-linecap:round;stroke-linejoin:round;stroke-width:1.5px;}</style></defs><title>seafood-fish</title><path class="cls-1" d="M11.8,3.555c-3.173.016-6.3,1.619-7.362,3.8A1.452,1.452,0,0,0,4.757,9L7.3,11.541"/><path class="cls-1" d="M9.88,17.267c8.571-1.513,14.234-5.933,13.262-15.125A1.458,1.458,0,0,0,21.858.858C12.666-.114,8.246,5.549,6.733,14.12L1.16,16.6a.742.742,0,0,0,.1,1.367l3.9.87.87,3.9a.742.742,0,0,0,1.367.1Z"/><path class="cls-1" d="M20.445,12.2c-.016,3.173-1.619,6.3-3.8,7.362A1.452,1.452,0,0,1,15,19.243L12.462,16.7"/><line class="cls-1" x1="6.733" y1="14.12" x2="9.88" y2="17.267"/><path class="cls-1" d="M16.875,4.5a.375.375,0,1,1-.375.375.375.375,0,0,1,.375-.375"/></svg>