<svg id="Regular" xmlns="http://www.w3.org/2000/svg" viewBox="0 0 24 24"><defs><style>.cls-1{fill:none;stroke:currentColor;stroke-linecap:round;stroke-linejoin:round;stroke-width:1.5px;}</style></defs><title>seafood-sushi</title><path class="cls-1" d="M20.25,14.5v2.75a3,3,0,0,1-3,3H6.75a3,3,0,0,1-3-3V14.5"/><path class="cls-1" d="M12,11.25a11.735,11.735,0,0,1,8.647,3.658,1.5,1.5,0,0,0,2.6-1.014v-.019C23.25,8.283,18.213,3.75,12,3.75S.75,8.283.75,13.875v.019a1.5,1.5,0,0,0,2.6,1.014A11.735,11.735,0,0,1,12,11.25Z"/><line class="cls-1" x1="4.72" y1="13.661" x2="8.73" y2="4.184"/><line class="cls-1" x1="11.74" y1="11.25" x2="14.782" y2="4.062"/><line class="cls-1" x1="17.509" y1="12.548" x2="19.97" y2="6.729"/></svg>