<svg id="Regular" xmlns="http://www.w3.org/2000/svg" viewBox="0 0 24 24"><defs><style>.cls-1{fill:none;stroke:currentColor;stroke-linecap:round;stroke-linejoin:round;stroke-width:1.5px;}</style></defs><title>seafood-squid</title><path class="cls-1" d="M7.5,17.25v3a3.009,3.009,0,0,1-3,3h0a3.009,3.009,0,0,1-3-3h0"/><path class="cls-1" d="M16.5,17.25v3a3.009,3.009,0,0,0,3,3h0a3.009,3.009,0,0,0,3-3h0"/><path class="cls-1" d="M14.853,6.75h4.823a.75.75,0,0,0,.372-1.4l-7.3-4.4a1.5,1.5,0,0,0-1.488,0l-7.3,4.4a.75.75,0,0,0,.372,1.4H9.147"/><path class="cls-1" d="M10.128,5.058h0A15.642,15.642,0,0,0,7.5,13.737V17.25h9V13.737a15.642,15.642,0,0,0-2.628-8.679h0A2.25,2.25,0,0,0,10.128,5.058Z"/><line class="cls-1" x1="10.5" y1="17.25" x2="10.5" y2="21.75"/><line class="cls-1" x1="13.5" y1="17.25" x2="13.5" y2="21.75"/></svg>