<svg id="Regular" xmlns="http://www.w3.org/2000/svg" viewBox="0 0 24 24"><defs><style>.cls-1{fill:none;stroke:currentColor;stroke-linecap:round;stroke-linejoin:round;stroke-width:1.5px;}</style></defs><title>seahorse</title><path class="cls-1" d="M7.352,18.5c-1.419-.851-2.96,1.481-1.48,2.961a5.353,5.353,0,0,0,8.881-1.48c.74-2.221,0-5.181,0-10.362A9.965,9.965,0,0,1,17.1,2.817a.741.741,0,0,0-.205-1.149A9.234,9.234,0,0,0,12.533.742c-3.7,0-3.767,1.682-5.921,2.221-1.588.4-2.537.581-3.076.666a.739.739,0,0,0-.624.73V5.31a.739.739,0,0,0,.607.728,35.633,35.633,0,0,0,5.313.625c2.22,0,1.48,2.22.74,2.96a7.937,7.937,0,0,0-1.48,4.441c0,2.22,2.22,3.7,2.22,3.7"/><path class="cls-1" d="M12.163,3.7a.375.375,0,0,1,.375.375"/><path class="cls-1" d="M11.788,4.073a.374.374,0,0,1,.375-.375"/><path class="cls-1" d="M12.163,4.448a.374.374,0,0,1-.375-.375"/><path class="cls-1" d="M12.538,4.073a.375.375,0,0,1-.375.375"/><path class="cls-1" d="M14.753,10.363s2.22-2.22,3.7-1.48,1.48,5.181,0,6.661c-.423.424-1.5,1.458-3.477-.517"/><line class="cls-1" x1="14.833" y1="12.584" x2="16.973" y2="12.584"/></svg>