<svg id="Regular" xmlns="http://www.w3.org/2000/svg" viewBox="0 0 24 24"><defs><style>.cls-1{fill:none;stroke:#000;stroke-linecap:round;stroke-linejoin:round;stroke-width:1.5px;}</style></defs><title>search-engine-bing-1</title><path class="cls-1" d="M.75,2.25v12h0C.93,18.42,5.89,21.75,12,21.75s11.25-3.44,11.25-7.7-5-7.7-11.25-7.7A15.38,15.38,0,0,0,4.66,8.12V2.25ZM12,9.39c4,0,7.2,2.09,7.2,4.66S16,18.71,12,18.71s-7.2-2.09-7.2-4.66S8,9.39,12,9.39M9.5,14.05c0-1,1.12-1.79,2.5-1.79s2.5.8,2.5,1.79-1.12,1.79-2.5,1.79S9.5,15,9.5,14.05"/></svg>