<svg id="Regular" xmlns="http://www.w3.org/2000/svg" viewBox="0 0 24 24"><defs><style>.cls-1{fill:none;stroke:#000;stroke-linecap:round;stroke-linejoin:round;stroke-width:1.5px;}</style></defs><title>search-engine-google</title><path class="cls-1" d="M17.41,5.27a7.56,7.56,0,0,0-2.6-1.46,6.59,6.59,0,0,0-5,.43,7.89,7.89,0,0,0-4,8.6,8.68,8.68,0,0,0,7.65,7.32A10.79,10.79,0,0,0,17,19.91c.8-.26.61-.34.61-.82V16.43H14.17l2.39-2H23l-1.48,1.9v5C17.1,23.56,10.2,24.2,6,21.34A11.28,11.28,0,0,1,1,11.8,11.58,11.58,0,0,1,7.5,2.09C11.74-.05,18.15.35,21.88,3.44L17.35,8Z"/></svg>