<svg id="Regular" xmlns="http://www.w3.org/2000/svg" viewBox="0 0 24 24"><defs><style>.cls-1{fill:none;stroke:currentColor;stroke-linecap:round;stroke-linejoin:round;stroke-width:1.5px;}</style></defs><title>seasoning-salt</title><path class="cls-1" d="M16.437,8.25H7.563a.813.813,0,0,1-.813-.813V6A5.25,5.25,0,0,1,12,.75h0A5.25,5.25,0,0,1,17.25,6V7.437A.813.813,0,0,1,16.437,8.25Z"/><path class="cls-1" d="M13.875,3.75a.375.375,0,1,1-.375.375.375.375,0,0,1,.375-.375"/><path class="cls-1" d="M10.125,3.75a.375.375,0,1,1-.375.375.375.375,0,0,1,.375-.375"/><path class="cls-1" d="M15.75,8.25H8.25q-5.814,11.627-.362,14.8a1.533,1.533,0,0,0,.768.2h6.688a1.533,1.533,0,0,0,.768-.2Q21.563,19.877,15.75,8.25Z"/><line class="cls-1" x1="5.48" y1="15.75" x2="18.52" y2="15.75"/><line class="cls-1" x1="5.282" y1="18.75" x2="18.718" y2="18.75"/></svg>