<svg id="Regular" xmlns="http://www.w3.org/2000/svg" viewBox="0 0 24 24"><defs><style>.cls-1{fill:none;stroke:currentColor;stroke-linecap:round;stroke-linejoin:round;stroke-width:1.5px;}</style></defs><title>seasoning-chilli</title><path class="cls-1" d="M12.915,22.017a22.679,22.679,0,0,0,8.521-8.464,4.516,4.516,0,0,0-.867-5.721h0A4.513,4.513,0,0,0,13.7,8.883l-3.555,5.924A9.077,9.077,0,0,1,2.36,19.214H1.5a.75.75,0,0,0-.569,1.238h0A10.376,10.376,0,0,0,12.915,22.017Z"/><path class="cls-1" d="M16.749,6.766c1.043-1.916,3.217-2.7,4.739-1.761,1.463.9,1.77,3.059.686,4.814l-.2.365"/><line class="cls-1" x1="21.2" y1="4.85" x2="23.25" y2="0.75"/></svg>