<svg id="Regular" xmlns="http://www.w3.org/2000/svg" viewBox="0 0 24 24"><defs><style>.cls-1{fill:none;stroke:currentColor;stroke-linecap:round;stroke-linejoin:round;stroke-width:1.5px;}</style></defs><title>seasoning-pepper-ground</title><circle class="cls-1" cx="12" cy="2.25" r="1.5"/><path class="cls-1" d="M9.118,3.75h5.793A2.339,2.339,0,0,1,17.25,6.089V8.815a.935.935,0,0,1-.935.935H7.685a.935.935,0,0,1-.935-.935v-2.7A2.368,2.368,0,0,1,9.118,3.75Z"/><path class="cls-1" d="M8.68,9.75,8.4,15.542A3.5,3.5,0,0,0,6.75,18.508v.339a1.4,1.4,0,0,0,1.4,1.4h7.694a1.4,1.4,0,0,0,1.4-1.4v-.339A3.5,3.5,0,0,0,15.6,15.541L15.322,9.75"/><rect class="cls-1" x="6.75" y="20.25" width="10.5" height="3" rx="0.866" ry="0.866"/></svg>