<svg id="Regular" xmlns="http://www.w3.org/2000/svg" viewBox="0 0 24 24"><defs><style>.cls-1{fill:none;stroke:currentColor;stroke-linecap:round;stroke-linejoin:round;stroke-width:1.5px;}</style></defs><title>season-spring</title><path class="cls-1" d="M14.579,20.754s1.219,2.495,3.27,2.308c4.158-.38,3.88-5.907,5.4-7.859a9.1,9.1,0,0,0-8.265.075C12.83,16.494,12.677,18.548,14.579,20.754Z"/><path class="cls-1" d="M17.52,18.219s-2.7.334-4.623,5.031"/><line class="cls-1" x1="5.25" y1="18" x2="1.5" y2="21.75"/><line class="cls-1" x1="10.5" y1="18" x2="6.75" y2="21.75"/><path class="cls-1" d="M20.814,10.726a7.047,7.047,0,0,0,.6-2.851A7.188,7.188,0,0,0,7.174,6.543,4.457,4.457,0,1,0,5.242,15h4.771"/></svg>