<svg id="Regular" xmlns="http://www.w3.org/2000/svg" viewBox="0 0 24 24"><defs><style>.cls-1{fill:none;stroke:currentColor;stroke-linecap:round;stroke-linejoin:round;stroke-width:1.5px;}</style></defs><title>seasoning-pepper</title><path class="cls-1" d="M5.97,12.915c-4.073,0-5,6.152-5.217,8.963A1.394,1.394,0,0,0,2.26,23.25H9.681a1.393,1.393,0,0,0,1.506-1.372C10.975,19.067,10.044,12.915,5.97,12.915Z"/><line class="cls-1" x1="15.75" y1="0.75" x2="18.75" y2="0.75"/><line class="cls-1" x1="17.25" y1="3.75" x2="17.25" y2="0.75"/><rect class="cls-1" x="12" y="3.75" width="10.5" height="3" rx="1.5" ry="1.5"/><rect class="cls-1" x="14.25" y="6.75" width="6" height="6"/><path class="cls-1" d="M14.25,23.25h7.5a1.5,1.5,0,0,0,1.5-1.5v-6a3,3,0,0,0-3-3h-6a2.986,2.986,0,0,0-1.649.494"/><path class="cls-1" d="M6,15.75a.375.375,0,1,1-.375.375A.375.375,0,0,1,6,15.75"/></svg>