<svg id="Regular" xmlns="http://www.w3.org/2000/svg" viewBox="0 0 24 24"><defs><style>.cls-1{fill:none;stroke:currentColor;stroke-linecap:round;stroke-linejoin:round;stroke-width:1.5px;}</style></defs><title>seasoning-food</title><path class="cls-1" d="M19.81,13.583a.753.753,0,0,0-.746-.833H2.646a.753.753,0,0,0-.746.833A8.366,8.366,0,0,0,7.374,20.35a.751.751,0,0,1,.481.7V22.5a.75.75,0,0,0,.75.75h4.5a.75.75,0,0,0,.75-.75V21.05a.751.751,0,0,1,.481-.7A8.366,8.366,0,0,0,19.81,13.583Z"/><path class="cls-1" d="M22.022,3.826a.75.75,0,0,1-.325,1.01L18.362,6.549a2.25,2.25,0,1,1-2.056-4L19.642.833a.749.749,0,0,1,1.009.325Z"/><line class="cls-1" x1="10.855" y1="6" x2="11.605" y2="5.25"/><line class="cls-1" x1="11.605" y1="9" x2="12.355" y2="8.25"/><line class="cls-1" x1="14.605" y1="9.75" x2="15.355" y2="9"/></svg>