<svg id="Regular" xmlns="http://www.w3.org/2000/svg" viewBox="0 0 24 24"><defs><style>.cls-1{fill:none;stroke:currentColor;stroke-linecap:round;stroke-linejoin:round;stroke-width:1.5px;}</style></defs><title>season-winter</title><path class="cls-1" d="M14.579,20.379s1.219,2.495,3.27,2.308c4.158-.38,3.88-5.907,5.4-7.859a9.1,9.1,0,0,0-8.265.075C12.83,16.12,12.677,18.173,14.579,20.379Z"/><path class="cls-1" d="M17.52,17.844s-2.7.335-4.623,5.031"/><line class="cls-1" x1="9.75" y1="1.125" x2="9.75" y2="19.125"/><line class="cls-1" x1="18.75" y1="10.125" x2="0.75" y2="10.125"/><line class="cls-1" x1="7.5" y1="12.375" x2="4.607" y2="15.268"/><line class="cls-1" x1="14.893" y1="4.982" x2="12" y2="7.875"/><line class="cls-1" x1="4.607" y1="4.982" x2="7.5" y2="7.875"/><polyline class="cls-1" points="7.179 1.768 9.75 4.339 12.321 1.768"/><line class="cls-1" x1="18.107" y1="7.554" x2="15.536" y2="10.125"/><line class="cls-1" x1="9.75" y1="15.911" x2="7.179" y2="18.482"/><polyline class="cls-1" points="1.393 12.696 3.964 10.125 1.393 7.554"/></svg>