<svg id="Regular" xmlns="http://www.w3.org/2000/svg" viewBox="0 0 24 24"><defs><style>.cls-1{fill:none;stroke:currentColor;stroke-linecap:round;stroke-linejoin:round;stroke-width:1.5px;}</style></defs><title>season-summer</title><path class="cls-1" d="M14.579,20.754s1.219,2.495,3.27,2.308c4.158-.38,3.88-5.907,5.4-7.859a9.1,9.1,0,0,0-8.265.075C12.83,16.494,12.677,18.548,14.579,20.754Z"/><path class="cls-1" d="M17.52,18.219s-2.7.334-4.623,5.031"/><path class="cls-1" d="M10.5,18.583a6.751,6.751,0,1,1,8.209-7.333"/><line class="cls-1" x1="12" y1="2.25" x2="12" y2="0.75"/><line class="cls-1" x1="18.894" y1="5.106" x2="19.955" y2="4.045"/><line class="cls-1" x1="5.106" y1="18.895" x2="4.045" y2="19.955"/><line class="cls-1" x1="2.25" y1="12" x2="0.75" y2="12"/><line class="cls-1" x1="5.106" y1="5.106" x2="4.045" y2="4.045"/></svg>