<svg xmlns="http://www.w3.org/2000/svg" viewBox="0 0 24 24"><defs><style>.a{fill:none;stroke:currentColor;stroke-linecap:round;stroke-linejoin:round;stroke-width:1.5px;}</style></defs><title>seat-child</title><circle class="a" cx="8.99" cy="4.123" r="2.625"/><circle class="a" cx="16.49" cy="4.873" r="1.875"/><path class="a" d="M15.009,21.237,14.486,18H11.662a3,3,0,0,1-2.911-2.274L7.535,10.861a1.5,1.5,0,0,1,2.91-.727L11.66,15h2.826a2.987,2.987,0,0,1,2.962,2.522l.523,3.239a1.5,1.5,0,1,1-2.962.478Z"/><path class="a" d="M19.49,14.248l-.579-1.737A.75.75,0,0,0,18.2,12H16.49a.751.751,0,0,1-.728-.568l-.375-1.5A.751.751,0,0,1,16.115,9H19.49"/><path class="a" d="M4.49,11.248,6.2,18.672A3,3,0,0,0,9.126,21H12.74"/></svg>