<svg xmlns="http://www.w3.org/2000/svg" viewBox="0 0 24 24"><defs><style>.a{fill:none;stroke:currentColor;stroke-linecap:round;stroke-linejoin:round;stroke-width:1.5px;}</style></defs><title>seat-vip</title><line class="a" x1="17.25" y1="6.75" x2="17.25" y2="0.75"/><line class="a" x1="20.25" y1="6.75" x2="20.25" y2="0.75"/><path class="a" d="M20.25.75H21a2.25,2.25,0,0,1,0,4.5h-.75"/><path class="a" d="M11.25.75V1.8a8.932,8.932,0,0,0,1.5,4.954A8.932,8.932,0,0,0,14.25,1.8V.75"/><circle class="a" cx="6" cy="4.874" r="2.625"/><path class="a" d="M13.667,23.241a1.5,1.5,0,0,1-1.659-1.325l-.379-3.4a1.491,1.491,0,0,0-1.481-1.271H8.02a2.992,2.992,0,0,1-2.959-2.5L4.52,11.5A1.5,1.5,0,1,1,7.479,11l.541,3.246h2.128a4.478,4.478,0,0,1,4.446,3.808c.006.042.4,3.526.4,3.526A1.5,1.5,0,0,1,13.667,23.241Z"/><path class="a" d="M.75,23.25H8.132a.9.9,0,0,0,.895-1L8.892,21.03a.879.879,0,0,0-.872-.781A5.983,5.983,0,0,1,2.1,15.241l-.331-1.988A1.5,1.5,0,0,0,.73,12.065"/></svg>