<svg xmlns="http://www.w3.org/2000/svg" viewBox="0 0 24 24"><defs><style>.a{fill:none;stroke:currentColor;stroke-linecap:round;stroke-linejoin:round;stroke-width:1.5px;}</style></defs><title>seat-regular</title><circle class="a" cx="6.75" cy="4.874" r="2.625"/><path class="a" d="M14.417,23.241a1.5,1.5,0,0,1-1.659-1.325l-.379-3.4A1.491,1.491,0,0,0,10.9,17.249H8.77a2.992,2.992,0,0,1-2.959-2.5L5.27,11.5A1.5,1.5,0,1,1,8.229,11l.541,3.246H10.9a4.478,4.478,0,0,1,4.446,3.808c.006.042.4,3.526.4,3.526A1.5,1.5,0,0,1,14.417,23.241Z"/><path class="a" d="M1.5,23.25H8.882a.9.9,0,0,0,.895-1L9.642,21.03a.879.879,0,0,0-.872-.781,5.983,5.983,0,0,1-5.918-5.008l-.331-1.988A1.5,1.5,0,0,0,1.48,12.065"/><rect class="a" x="15" y="0.75" width="7.5" height="9" rx="1" ry="1"/></svg>