<svg xmlns="http://www.w3.org/2000/svg" viewBox="0 0 24 24"><defs><style>.a{fill:none;stroke:currentColor;stroke-linecap:round;stroke-linejoin:round;stroke-width:1.5px;}</style></defs><title>seat-settings</title><path class="a" d="M7.506,2.58A3,3,0,0,0,4.742.75H2.292A1.506,1.506,0,0,0,.8,2.35L2,20.45A3,3,0,0,0,5,23.25H18.647a3,3,0,0,0,2.9-2.21l.414-1.521a3,3,0,0,0-3.387-3.749l-8.88,1.48A28.884,28.884,0,0,0,7.506,2.58Z"/><polygon class="a" points="16.294 2.856 18.946 9.75 20.537 7.099 23.189 5.508 16.294 2.856"/><line class="a" x1="23.189" y1="9.75" x2="20.537" y2="7.099"/></svg>