<svg xmlns="http://www.w3.org/2000/svg" viewBox="0 0 24 24"><defs><style>.a{fill:none;stroke:currentColor;stroke-linecap:round;stroke-linejoin:round;stroke-width:1.5px;}</style></defs><title>security-officer-passport</title><path class="a" d="M12.75,6.75h1.5v1.5a3,3,0,0,0,6,0V6.75"/><line class="a" x1="20.25" y1="20.25" x2="20.25" y2="17.25"/><path class="a" d="M20.25,23.25v-3a1.5,1.5,0,0,0,3,0v-3a4.5,4.5,0,0,0-4.5-4.5L17.25,15l-1.5-2.25a5.124,5.124,0,0,0-3.438,1.316l-1.5,1.5a1.5,1.5,0,0,1-2.122,0L6.311,13.189A1.5,1.5,0,0,0,4.189,15.31l2.379,2.379a4.507,4.507,0,0,0,6.364,0l1.318-1.318h0V23.25"/><polygon class="a" points="20.25 6.75 14.25 6.75 13.5 3.75 21 4.5 20.25 6.75"/><path class="a" d="M.75.75H7.5a.75.75,0,0,1,.75.75v6a.75.75,0,0,1-.75.75H5.25"/><path class="a" d="M5.25,9.286a.75.75,0,0,1-1.085.671l-3-1.5A.751.751,0,0,1,.75,7.786V.75L4.835,2.792a.751.751,0,0,1,.415.671Z"/></svg>