<svg xmlns="http://www.w3.org/2000/svg" viewBox="0 0 24 24"><defs><style>.a{fill:none;stroke:currentColor;stroke-linecap:round;stroke-linejoin:round;stroke-width:1.5px;}</style></defs><title>security-officer-plant</title><path class="a" d="M15,5.25h1.5v1.5a3,3,0,0,0,6,0V5.25"/><polygon class="a" points="22.499 5.25 16.499 5.25 15.749 2.25 23.249 3 22.499 5.25"/><path class="a" d="M23.251,11.852A4.485,4.485,0,0,0,21,11.25L19.5,13.5,18,11.25H16.5a1.5,1.5,0,0,0-1.06.439l-5.25,5.25A1.5,1.5,0,0,0,12.31,19.06L16.5,14.871h0V21.75"/><line class="a" x1="0.749" y1="21.75" x2="23.249" y2="21.75"/><line class="a" x1="4.499" y1="7.5" x2="4.499" y2="21.75"/><path class="a" d="M.749,15s3,0,3.75,2.25"/><path class="a" d="M8.249,15s-3,0-3.75,2.25"/><path class="a" d="M1.488,12.071A3.594,3.594,0,0,1,4.5,14.25"/><path class="a" d="M7.511,12.071A3.6,3.6,0,0,0,4.5,14.25"/><path class="a" d="M2.4,9.3A3.165,3.165,0,0,1,4.5,11.25"/><path class="a" d="M6.594,9.3A3.167,3.167,0,0,0,4.5,11.25"/></svg>