<svg xmlns="http://www.w3.org/2000/svg" viewBox="0 0 24 24"><defs><style>.a{fill:none;stroke:currentColor;stroke-linecap:round;stroke-linejoin:round;stroke-width:1.5px;}</style></defs><title>security-officer-camera</title><path class="a" d="M15,5.25h1.5v1.5a3,3,0,0,0,6,0V5.25"/><polygon class="a" points="22.499 5.25 16.499 5.25 15.749 2.25 23.249 3 22.499 5.25"/><path class="a" d="M23.251,11.852A4.485,4.485,0,0,0,21,11.25L19.5,13.5,18,11.25H16.5a1.5,1.5,0,0,0-1.06.439l-5.25,5.25A1.5,1.5,0,0,0,12.31,19.06L16.5,14.871h0V21.75"/><line class="a" x1="0.749" y1="21.75" x2="23.249" y2="21.75"/><path class="a" d="M8.249,16.5A2.25,2.25,0,0,1,6,18.75H3a2.25,2.25,0,0,1,0-4.5H6A2.25,2.25,0,0,1,8.249,16.5Z"/><path class="a" d="M4.5,16.125a.375.375,0,1,1-.375.375.374.374,0,0,1,.375-.375"/><line class="a" x1="4.499" y1="18.75" x2="4.499" y2="21.75"/></svg>