<svg xmlns="http://www.w3.org/2000/svg" viewBox="0 0 24 24"><defs><style>.a{fill:none;stroke:currentColor;stroke-linecap:round;stroke-linejoin:round;stroke-width:1.5px;}</style></defs><title>security-officer-scanner-beep</title><path class="a" d="M5.25,23.25V6.75a3,3,0,0,1,3-3h7.5a3,3,0,0,1,3,3v16.5"/><path class="a" d="M15.75,3.75H8.25V2.25A1.5,1.5,0,0,1,9.75.75h4.5a1.5,1.5,0,0,1,1.5,1.5Z"/><circle class="a" cx="12" cy="9" r="2.25"/><path class="a" d="M12,12.75A4.046,4.046,0,0,0,8.25,16.5v3h1.5v3.75h4.5V19.5h1.5v-3A4.046,4.046,0,0,0,12,12.75Z"/><line class="a" x1="3" y1="14.25" x2="0.75" y2="14.25"/><line class="a" x1="3" y1="9.75" x2="1.5" y2="9"/><line class="a" x1="3" y1="18.75" x2="1.5" y2="19.5"/><line class="a" x1="21" y1="14.25" x2="23.25" y2="14.25"/><line class="a" x1="21" y1="9.75" x2="22.5" y2="9"/><line class="a" x1="21" y1="18.75" x2="22.5" y2="19.5"/></svg>