<svg xmlns="http://www.w3.org/2000/svg" viewBox="0 0 24 24"><defs><style>.a{fill:none;stroke:currentColor;stroke-linecap:round;stroke-linejoin:round;stroke-width:1.5px;}</style></defs><title>security-officer-animal</title><path class="a" d="M15,6.75h1.5v1.5a3,3,0,0,0,6,0V6.75"/><polygon class="a" points="22.499 6.75 16.499 6.75 15.749 3.75 23.249 4.5 22.499 6.75"/><path class="a" d="M23.251,13.353A4.475,4.475,0,0,0,21,12.75L19.5,15,18,12.75H16.5a1.5,1.5,0,0,0-1.06.439l-5.25,5.25a1.5,1.5,0,0,0,2.121,2.122l4.189-4.19h0V23.25"/><line class="a" x1="0.749" y1="23.25" x2="23.249" y2="23.25"/><path class="a" d="M7.5.75A1.5,1.5,0,0,0,6,2.25v1.5l-4.5,3H6a3,3,0,0,0,3-3V2.25A1.5,1.5,0,0,0,7.5.75Z"/><line class="a" x1="5.249" y1="6.75" x2="5.249" y2="8.25"/><line class="a" x1="8.999" y1="2.25" x2="10.499" y2="2.25"/><path class="a" d="M7.5,17.25A1.5,1.5,0,0,1,6,18.75H4.5A1.5,1.5,0,0,1,3,17.25a2.25,2.25,0,0,1,4.5,0Z"/><path class="a" d="M5.249,11.625A.375.375,0,1,1,4.874,12a.374.374,0,0,1,.375-.375"/><path class="a" d="M1.5,13.875a.375.375,0,1,1-.375.375.374.374,0,0,1,.375-.375"/><path class="a" d="M9,13.875a.375.375,0,1,1-.375.375A.374.374,0,0,1,9,13.875"/></svg>