<svg xmlns="http://www.w3.org/2000/svg" viewBox="0 0 24 24"><defs><style>.a{fill:none;stroke:currentColor;stroke-linecap:round;stroke-linejoin:round;stroke-width:1.5px;}</style></defs><title>security-officer-gate</title><path class="a" d="M18,23.15h3.75a1.5,1.5,0,0,0,1.5-1.5V7.55a1.5,1.5,0,0,0-.794-1.324l-9.75-5.2a1.5,1.5,0,0,0-1.412,0l-9.75,5.2A1.5,1.5,0,0,0,.75,7.55v14.1a1.5,1.5,0,0,0,1.5,1.5H6"/><path class="a" d="M17.2,17.15a5.251,5.251,0,0,1-10.394,0"/><path class="a" d="M18,12.65a11.867,11.867,0,0,0,1.5-4.5,8.368,8.368,0,0,1-5.766-.633L12,6.65l-1.734.867A8.368,8.368,0,0,1,4.5,8.15,11.9,11.9,0,0,0,6,12.65Z"/><path class="a" d="M6.054,12.65c.364,2.542,3.3,3,5.946,3s5.582-.458,5.946-3Z"/><line class="a" x1="12" y1="9.65" x2="12" y2="9.65"/><path class="a" d="M12,9.65a.375.375,0,1,0,.375.375A.374.374,0,0,0,12,9.65"/></svg>