<svg xmlns="http://www.w3.org/2000/svg" viewBox="0 0 24 24"><defs><style>.a{fill:none;stroke:currentColor;stroke-linecap:round;stroke-linejoin:round;stroke-width:1.5px;}</style></defs><title>security-officer</title><path class="a" d="M9,4.5h1.5V6a3,3,0,0,0,6,0V4.5"/><polygon class="a" points="16.5 4.5 10.5 4.5 9.75 1.5 17.25 2.25 16.5 4.5"/><path class="a" d="M10.5,22.5V14.121h0L6.311,18.31a1.5,1.5,0,0,1-2.122-2.121l5.25-5.25A1.5,1.5,0,0,1,10.5,10.5H12l1.5,2.25L15,10.5A4.5,4.5,0,0,1,19.5,15v4.5a1.5,1.5,0,0,1-3,0V15"/><line class="a" x1="0.75" y1="22.5" x2="23.25" y2="22.5"/></svg>