<svg xmlns="http://www.w3.org/2000/svg" viewBox="0 0 24 24"><defs><style>.a{fill:none;stroke:currentColor;stroke-linecap:round;stroke-linejoin:round;stroke-width:1.5px;}</style></defs><title>security-officer-scanner</title><circle class="a" cx="19.5" cy="7.5" r="2.625"/><path class="a" d="M17.25,21a2.25,2.25,0,0,0,4.5,0V18.75a1.5,1.5,0,0,0,1.5-1.5V15a3,3,0,0,0-3-3h-1.5a3,3,0,0,0-3,3v2.25a1.5,1.5,0,0,0,1.5,1.5Z"/><path class="a" d="M12.75,23.25V3.75a3,3,0,0,1,3-3h7.5"/><path class="a" d="M7.125,7.5a2.625,2.625,0,0,1-5.25,0Z"/><path class="a" d="M2.25,21a2.25,2.25,0,0,0,4.5,0V18.75a1.5,1.5,0,0,0,1.5-1.5V15a3,3,0,0,0-3-3H3.75a3,3,0,0,0-3,3v2.25a1.5,1.5,0,0,0,1.5,1.5Z"/><polyline class="a" points="7.125 7.5 8.25 4.5 4.5 3 0.75 4.5 1.875 7.5"/><line class="a" x1="2.25" y1="18.75" x2="7.712" y2="13.288"/></svg>