<svg xmlns="http://www.w3.org/2000/svg" viewBox="0 0 24 24"><defs><style>.a{fill:none;stroke:currentColor;stroke-linecap:round;stroke-linejoin:round;stroke-width:1.5px;}</style></defs><title>security-officer-luggage-reject</title><path class="a" d="M12.75,6.75h1.5v1.5a3,3,0,0,0,6,0V6.75"/><line class="a" x1="20.25" y1="20.25" x2="20.25" y2="17.25"/><polyline class="a" points="12.932 17.689 14.25 16.371 14.25 16.371 14.25 23.25"/><path class="a" d="M20.25,23.25v-3a1.5,1.5,0,0,0,3,0v-3a4.5,4.5,0,0,0-4.5-4.5L17.25,15l-1.5-2.25a5.124,5.124,0,0,0-3.438,1.316L9.065,17.314"/><polygon class="a" points="20.25 6.75 14.25 6.75 13.5 3.75 21 4.5 20.25 6.75"/><path class="a" d="M2.25,20.25h9a0,0,0,0,1,0,0v2a1,1,0,0,1-1,1h-7a1,1,0,0,1-1-1v-2A0,0,0,0,1,2.25,20.25Z"/><path class="a" d="M3.75,13.5v6.75H2.25a1.5,1.5,0,0,1-1.5-1.5v-6"/><circle class="a" cx="5.69" cy="5.625" r="4.875"/><line class="a" x1="2.243" y1="9.071" x2="9.136" y2="2.178"/></svg>