<svg xmlns="http://www.w3.org/2000/svg" viewBox="0 0 24 24"><defs><style>.a{fill:none;stroke:currentColor;stroke-linecap:round;stroke-linejoin:round;stroke-width:1.5px;}</style></defs><title>security-officer-luggage</title><path class="a" d="M12.75,5.25h1.5v1.5a3,3,0,0,0,6,0V5.25"/><line class="a" x1="20.25" y1="18.75" x2="20.25" y2="15.75"/><polyline class="a" points="12.932 16.189 14.25 14.871 14.25 14.871 14.25 21.75"/><path class="a" d="M20.25,21.75v-3a1.5,1.5,0,0,0,3,0v-3a4.5,4.5,0,0,0-4.5-4.5l-1.5,2.25-1.5-2.25a5.124,5.124,0,0,0-3.438,1.316L9.065,15.814"/><polygon class="a" points="20.25 5.25 14.25 5.25 13.5 2.25 21 3 20.25 5.25"/><path class="a" d="M2.25,18.75h9a0,0,0,0,1,0,0v2a1,1,0,0,1-1,1h-7a1,1,0,0,1-1-1v-2A0,0,0,0,1,2.25,18.75Z"/><path class="a" d="M-2.25,12.75h9a0,0,0,0,1,0,0v2a1,1,0,0,1-1,1h-7a1,1,0,0,1-1-1v-2A0,0,0,0,1-2.25,12.75Z" transform="translate(16.5 12) rotate(90)"/></svg>