<svg xmlns="http://www.w3.org/2000/svg" viewBox="0 0 24 24"><defs><style>.a{fill:none;stroke:currentColor;stroke-linecap:round;stroke-linejoin:round;stroke-width:1.5px;}</style></defs><title>segway-person</title><path class="a" d="M20.222,3.193A2.25,2.25,0,1,1,18.174.758,2.249,2.249,0,0,1,20.222,3.193Z"/><circle class="a" cx="16.5" cy="19.5" r="3.75"/><path class="a" d="M16.5,19.125a.375.375,0,0,1,.375.375"/><path class="a" d="M16.125,19.5a.375.375,0,0,1,.375-.375"/><path class="a" d="M16.5,19.875a.375.375,0,0,1-.375-.375"/><path class="a" d="M16.875,19.5a.375.375,0,0,1-.375.375"/><path class="a" d="M14.578,16.28l.71-8.242a2.25,2.25,0,0,1,4.484.386l-.451,5.23-.785,2.7"/><line class="a" x1="12" y1="4.5" x2="9" y2="4.5"/><line class="a" x1="12" y1="7.5" x2="6.75" y2="7.5"/><line class="a" x1="12" y1="10.5" x2="3.75" y2="10.5"/></svg>