<svg xmlns="http://www.w3.org/2000/svg" viewBox="0 0 24 24"><defs><style>.a{fill:none;stroke:currentColor;stroke-linecap:round;stroke-linejoin:round;stroke-width:1.5px;}</style></defs><title>segway</title><path class="a" d="M5.222,21.359A2.25,2.25,0,0,1,.779,20.64l.839-5.182a2.25,2.25,0,1,1,4.442.719Z"/><path class="a" d="M18.778,21.359a2.25,2.25,0,0,0,4.443-.719l-.839-5.182a2.25,2.25,0,1,0-4.442.719Z"/><line class="a" x1="18.119" y1="17.283" x2="5.881" y2="17.283"/><line class="a" x1="18.604" y1="20.283" x2="5.396" y2="20.283"/><line class="a" x1="12" y1="0.75" x2="12" y2="17.283"/><path class="a" d="M7.5,2.69l.659-.549a6,6,0,0,1,7.682,0l.659.549"/></svg>