<svg xmlns="http://www.w3.org/2000/svg" viewBox="0 0 24 24"><defs><style>.a{fill:none;stroke:currentColor;stroke-linecap:round;stroke-linejoin:round;stroke-width:1.5px;}</style></defs><title>segway-1</title><path class="a" d="M3,12.75A2.25,2.25,0,0,0,.75,15v6a2.25,2.25,0,0,0,4.5,0V15A2.25,2.25,0,0,0,3,12.75Z"/><path class="a" d="M21,12.75A2.25,2.25,0,0,0,18.75,15v6a2.25,2.25,0,0,0,4.5,0V15A2.25,2.25,0,0,0,21,12.75Z"/><rect class="a" x="10.5" y="5.25" width="3" height="15"/><path class="a" d="M10.5,20.25h-3a2.251,2.251,0,0,1-2.135-2.962L6.628,13.5A3.291,3.291,0,0,1,9.75,11.25h.75"/><path class="a" d="M13.5,20.25h3a2.251,2.251,0,0,0,2.135-2.962L17.372,13.5a3.291,3.291,0,0,0-3.122-2.25H13.5"/><rect class="a" x="7.5" y="0.75" width="9" height="4.5" rx="1" ry="1"/><line class="a" x1="7.5" y1="3.75" x2="3" y2="3.75"/><line class="a" x1="16.5" y1="3.75" x2="21" y2="3.75"/></svg>