<svg xmlns="http://www.w3.org/2000/svg" viewBox="0 0 24 24"><defs><style>.a{fill:none;stroke:currentColor;stroke-linecap:round;stroke-linejoin:round;stroke-width:1.5px;}</style></defs><title>self-payment</title><path class="a" d="M20.878,19.259a.456.456,0,0,1,.122.308v3.2a.5.5,0,0,1-.525.482H3.525A.5.5,0,0,1,3,22.768v-3.2a.456.456,0,0,1,.122-.308l2.346-2.586a.546.546,0,0,1,.4-.173H18.129a.546.546,0,0,1,.4.173Z"/><line class="a" x1="21" y1="19.5" x2="3" y2="19.5"/><line class="a" x1="12" y1="13.5" x2="12" y2="16.5"/><path class="a" d="M14.829,9.344a2.224,2.224,0,0,0,1.858.875c1.139,0,2.063-.693,2.063-1.547s-.924-1.546-2.063-1.546-2.062-.693-2.062-1.548.924-1.547,2.062-1.547a2.221,2.221,0,0,1,1.858.875"/><line class="a" x1="16.687" y1="10.219" x2="16.687" y2="11.25"/><line class="a" x1="16.687" y1="3" x2="16.687" y2="4.031"/><line class="a" x1="6" y1="0.75" x2="6" y2="13.5"/><line class="a" x1="10.5" y1="13.5" x2="10.5" y2="0.75"/><line class="a" x1="1.5" y1="5.25" x2="10.5" y2="5.25"/><line class="a" x1="1.5" y1="9.75" x2="10.5" y2="9.75"/><rect class="a" x="1.5" y="0.75" width="21" height="12.75" rx="1" ry="1"/></svg>