<svg xmlns="http://www.w3.org/2000/svg" viewBox="0 0 24 24"><defs><style>.a{fill:none;stroke:currentColor;stroke-linecap:round;stroke-linejoin:round;stroke-width:1.5px;}</style></defs><title>self-payment-touch</title><path class="a" d="M6.75,23.25H1.275a.5.5,0,0,1-.525-.482v-3.2a.456.456,0,0,1,.122-.308l2.346-2.586a.546.546,0,0,1,.4-.173H10.5"/><line class="a" x1="6.75" y1="19.5" x2="0.75" y2="19.5"/><line class="a" x1="10.5" y1="13.5" x2="10.5" y2="16.5"/><path class="a" d="M5.829,9.344a2.224,2.224,0,0,0,1.858.875c1.139,0,2.063-.693,2.063-1.547S8.826,7.126,7.687,7.126,5.625,6.433,5.625,5.578s.924-1.547,2.062-1.547a2.221,2.221,0,0,1,1.858.875"/><line class="a" x1="7.687" y1="10.219" x2="7.687" y2="11.25"/><line class="a" x1="7.687" y1="3" x2="7.687" y2="4.031"/><path class="a" d="M23.136,23.25l.1-1.122a3,3,0,0,0-2.337-3.2l-3.651-.812V12.375a2.075,2.075,0,0,0-1.949-1.86,1.884,1.884,0,0,0-1.8,1.86v9.2l-1.477-1.108a1.533,1.533,0,0,0-2.146,2.146l.475.632"/><path class="a" d="M10.5,13.5H2.25A1.5,1.5,0,0,1,.75,12V2.25A1.5,1.5,0,0,1,2.25.75h18a1.5,1.5,0,0,1,1.5,1.5V12a1.5,1.5,0,0,1-1.5,1.5"/></svg>