<svg xmlns="http://www.w3.org/2000/svg" viewBox="0 0 24 24"><defs><style>.a{fill:none;stroke:currentColor;stroke-linecap:round;stroke-linejoin:round;stroke-width:1.5px;}</style></defs><title>seo-network-map</title><path class="a" d="M10.118,3.75c0,1.362-2.03,4.542-2.75,5.628a.3.3,0,0,1-.5,0c-.721-1.086-2.75-4.267-2.75-5.629a3,3,0,0,1,6,0Z"/><path class="a" d="M7.118,3.375a.375.375,0,1,1-.375.375.375.375,0,0,1,.375-.375"/><circle class="a" cx="15.368" cy="15.75" r="5.25"/><line class="a" x1="22.868" y1="23.25" x2="19.08" y2="19.462"/><path class="a" d="M11.18,23.188A9.007,9.007,0,0,1,1.118,14.25,8.964,8.964,0,0,1,2.6,9.293"/><path class="a" d="M12.759,5.643A9,9,0,0,1,16.8,8.222"/><path class="a" d="M1.867,10.65H3.818a1.8,1.8,0,0,1,1.8,1.8V14.4a1.8,1.8,0,0,0,.527,1.273l1.386,1.386a1.8,1.8,0,0,1,.435,1.842L7.6,20.016a1.792,1.792,0,0,1-.627.871L5.509,21.981"/></svg>