<svg xmlns="http://www.w3.org/2000/svg" viewBox="0 0 24 24"><defs><style>.a{fill:none;stroke:currentColor;stroke-linecap:round;stroke-linejoin:round;stroke-width:1.5px;}</style></defs><title>seo-search-reward</title><path class="a" d="M16.628,10.5a1.02,1.02,0,0,1-1.012.715H6.884A1.02,1.02,0,0,1,5.872,10.5L4.5,3.75,8.134,6.519,11.25,3.75l3.115,2.769L18,3.75Z"/><circle class="a" cx="4.5" cy="2.25" r="1.5"/><circle class="a" cx="11.25" cy="2.25" r="1.5"/><circle class="a" cx="18" cy="2.25" r="1.5"/><line class="a" x1="3" y1="18.75" x2="3" y2="23.25"/><line class="a" x1="5.25" y1="21" x2="0.75" y2="21"/><line class="a" x1="21.75" y1="5.25" x2="21.75" y2="8.25"/><line class="a" x1="23.25" y1="6.75" x2="20.25" y2="6.75"/><path class="a" d="M6.053,14.045A5.626,5.626,0,0,0,6,14.659a5.523,5.523,0,0,0,11.045,0,5.388,5.388,0,0,0-.053-.614"/><line class="a" x1="15.091" y1="18.84" x2="19.5" y2="23.25"/></svg>