<svg xmlns="http://www.w3.org/2000/svg" viewBox="0 0 24 24"><defs><style>.a{fill:none;stroke:currentColor;stroke-linecap:round;stroke-linejoin:round;stroke-width:1.5px;}</style></defs><title>seo-search-star</title><path class="a" d="M18.817,3.961A8.84,8.84,0,0,0,3.161,9.589V12"/><path class="a" d="M5.57,15.654A8.839,8.839,0,0,0,20.839,9.589V7.982"/><polyline class="a" points="0.75 9.589 3.161 12 5.571 9.589"/><polyline class="a" points="23.25 10.393 20.839 7.982 18.429 10.393"/><path class="a" d="M11.564,5.219a.489.489,0,0,1,.872,0l1.012,2.042a.484.484,0,0,0,.366.262l2.271.329a.482.482,0,0,1,.391.324.476.476,0,0,1-.121.49l-1.65,1.6a.475.475,0,0,0-.138.421l.389,2.255a.473.473,0,0,1-.194.467.491.491,0,0,1-.511.035l-2.024-1.059a.492.492,0,0,0-.454,0L9.749,13.444a.491.491,0,0,1-.511-.035.473.473,0,0,1-.194-.467l.389-2.255a.475.475,0,0,0-.138-.421l-1.65-1.6a.476.476,0,0,1-.121-.49.482.482,0,0,1,.391-.324l2.271-.329a.484.484,0,0,0,.366-.262Z"/><line class="a" x1="23.25" y1="23.25" x2="17.357" y2="16.62"/></svg>