<svg xmlns="http://www.w3.org/2000/svg" viewBox="0 0 24 24"><defs><style>.a{fill:none;stroke:currentColor;stroke-linecap:round;stroke-linejoin:round;stroke-width:1.5px;}</style></defs><title>seo-network-1</title><circle class="a" cx="16.875" cy="11.875" r="6.375"/><line class="a" x1="10.5" y1="11.875" x2="23.25" y2="11.875"/><path class="a" d="M18.378,5.678a18.972,18.972,0,0,1,.888,6.2,18.965,18.965,0,0,1-.888,6.2"/><path class="a" d="M15.372,5.678a18.972,18.972,0,0,0-.888,6.2,18.965,18.965,0,0,0,.888,6.2"/><path class="a" d="M2.25,8.125a1.5,1.5,0,0,0-1.5,1.5c0,2.25,1.5,2.25,1.5,4.5a1.5,1.5,0,0,1-1.5,1.5"/><path class="a" d="M7.5,15.625H6.75a1.5,1.5,0,0,1-1.5-1.5v-4.5a1.5,1.5,0,0,1,1.5-1.5H7.5"/><line class="a" x1="5.25" y1="11.875" x2="7.5" y2="11.875"/></svg>