<svg xmlns="http://www.w3.org/2000/svg" viewBox="0 0 24 24"><defs><style>.a{fill:none;stroke:currentColor;stroke-linecap:round;stroke-linejoin:round;stroke-width:1.5px;}</style></defs><title>seo-network</title><circle class="a" cx="16.875" cy="11.875" r="6.375"/><path class="a" d="M11.114,9.143h1.207a1.975,1.975,0,0,1,1.822,1.821v1.7c0,.415.607.735.926,1.028l1.308,1.2a1.477,1.477,0,0,1,.411,1.6l-.35.965a1.567,1.567,0,0,1-.543.72"/><path class="a" d="M18.324,5.665S17.262,6.5,16.873,6.8a1.513,1.513,0,0,0-.287,2.107l.914,1.219a1.516,1.516,0,0,0,1.211.606H19.6a1.51,1.51,0,0,1,1.07.443l1.166,1.165a1.513,1.513,0,0,0,1.356.416"/><path class="a" d="M2.25,8.125a1.5,1.5,0,0,0-1.5,1.5c0,2.25,1.5,2.25,1.5,4.5a1.5,1.5,0,0,1-1.5,1.5"/><path class="a" d="M7.5,15.625H6.75a1.5,1.5,0,0,1-1.5-1.5v-4.5a1.5,1.5,0,0,1,1.5-1.5H7.5"/><line class="a" x1="5.25" y1="11.875" x2="7.5" y2="11.875"/></svg>