<svg xmlns="http://www.w3.org/2000/svg" viewBox="0 0 24 24"><defs><style>.a{fill:none;stroke:currentColor;stroke-linecap:round;stroke-linejoin:round;stroke-width:1.5px;}</style></defs><title>seo-search-settings</title><circle class="a" cx="9.813" cy="9.812" r="9.063" transform="translate(-3.056 4.62) rotate(-23.025)"/><line class="a" x1="16.221" y1="16.22" x2="23.25" y2="23.25"/><circle class="a" cx="9.813" cy="9.812" r="3.75"/><line class="a" x1="9.813" y1="6.062" x2="9.813" y2="4.262"/><line class="a" x1="9.813" y1="15.362" x2="9.813" y2="13.562"/><line class="a" x1="13.563" y1="9.812" x2="15.363" y2="9.812"/><line class="a" x1="4.263" y1="9.812" x2="6.063" y2="9.812"/><line class="a" x1="6.272" y1="5.853" x2="7.378" y2="6.96"/><line class="a" x1="13.354" y1="5.853" x2="12.247" y2="6.96"/><line class="a" x1="6.272" y1="13.771" x2="7.378" y2="12.665"/><line class="a" x1="13.354" y1="13.771" x2="12.247" y2="12.665"/><path class="a" d="M9.813,9.062a.75.75,0,1,1-.75.75.75.75,0,0,1,.75-.75"/></svg>