<svg xmlns="http://www.w3.org/2000/svg" viewBox="0 0 24 24"><defs><style>.a{fill:none;stroke:currentColor;stroke-linecap:round;stroke-linejoin:round;stroke-width:1.5px;}</style></defs><title>seo-search-laptop</title><line class="a" x1="18.25" y1="3.005" x2="18.25" y2="1.028"/><line class="a" x1="14.84" y1="3.5" x2="13.851" y2="2.511"/><line class="a" x1="21.761" y1="3.5" x2="22.75" y2="2.511"/><circle class="a" cx="18.176" cy="9.5" r="3.75"/><line class="a" x1="20.426" y1="12.5" x2="23" y2="15.074"/><path class="a" d="M5.275,16.25A1.338,1.338,0,0,1,4,14.857V7.893A1.338,1.338,0,0,1,5.275,6.5H12.25"/><path class="a" d="M20.356,21.046l-1.652-3.3a2.7,2.7,0,0,0-2.415-1.492H5.211A2.7,2.7,0,0,0,2.8,17.742l-1.652,3.3A1.35,1.35,0,0,0,2.352,23h16.8A1.35,1.35,0,0,0,20.356,21.046Z"/><line class="a" x1="9.775" y1="20" x2="12.475" y2="20"/><polyline class="a" points="12.25 10.25 7 10.25 7 13.25 12.25 13.25"/></svg>