<svg xmlns="http://www.w3.org/2000/svg" viewBox="0 0 24 24"><defs><style>.a{fill:none;stroke:currentColor;stroke-linecap:round;stroke-linejoin:round;stroke-width:1.5px;}</style></defs><title>seo-eye</title><circle class="a" cx="12" cy="12" r="7.5"/><circle class="a" cx="12" cy="12" r="2.25"/><path class="a" d="M4.5,12.17a8.919,8.919,0,0,0,7.479,4.33,8.918,8.918,0,0,0,7.478-4.33l.043-.079"/><path class="a" d="M4.5,11.829A8.919,8.919,0,0,1,11.979,7.5a8.918,8.918,0,0,1,7.478,4.329l.043.078"/><line class="a" x1="12" y1="0.75" x2="12" y2="4.5"/><line class="a" x1="0.75" y1="12" x2="4.5" y2="12"/><line class="a" x1="12" y1="23.25" x2="12" y2="19.5"/><line class="a" x1="23.25" y1="12" x2="19.5" y2="12"/><line class="a" x1="23.182" y1="12" x2="19.5" y2="12"/><line class="a" x1="23.25" y1="0.75" x2="20.25" y2="3.75"/><line class="a" x1="0.75" y1="0.75" x2="3.75" y2="3.75"/><line class="a" x1="23.25" y1="23.25" x2="20.25" y2="20.25"/><line class="a" x1="0.75" y1="23.25" x2="3.75" y2="20.25"/></svg>