<svg xmlns="http://www.w3.org/2000/svg" viewBox="0 0 24 24"><defs><style>.a{fill:none;stroke:currentColor;stroke-linecap:round;stroke-linejoin:round;stroke-width:1.5px;}</style></defs><title>seo-search</title><circle class="a" cx="18.875" cy="4.625" r="3.125"/><line class="a" x1="21.085" y1="6.834" x2="23.25" y2="9"/><path class="a" d="M12.75,7.5H2.25A1.5,1.5,0,0,1,.75,6V4.5A1.5,1.5,0,0,1,2.25,3h10.5"/><path class="a" d="M2.625,11.25a.375.375,0,1,1-.375.375.375.375,0,0,1,.375-.375"/><line class="a" x1="6" y1="12" x2="18" y2="12"/><path class="a" d="M2.625,16.5a.375.375,0,1,1-.375.375.375.375,0,0,1,.375-.375"/><line class="a" x1="6" y1="17.25" x2="18" y2="17.25"/><path class="a" d="M2.625,21.75a.375.375,0,1,1-.375.375.375.375,0,0,1,.375-.375"/><line class="a" x1="6" y1="22.5" x2="18" y2="22.5"/></svg>