<svg xmlns="http://www.w3.org/2000/svg" viewBox="0 0 24 24"><defs><style>.a{fill:none;stroke:currentColor;stroke-linecap:round;stroke-linejoin:round;stroke-width:1.5px;}</style></defs><title>seo-zoom</title><path class="a" d="M4.986,7.349C6.3,6.671,9.76,6.25,12,6.25c2.1,0,5.283.143,6.75.75h3.522a.978.978,0,0,1,.978.978v4.043a.978.978,0,0,1-.978.979H18.75A22.349,22.349,0,0,1,12,14.076a21.842,21.842,0,0,1-6.852-1.022"/><path class="a" d="M2.25,13H1.728A.989.989,0,0,1,.75,12V8a.989.989,0,0,1,.978-1H2.25"/><line class="a" x1="9" y1="9.25" x2="9" y2="10.75"/><line class="a" x1="12" y1="9.25" x2="12" y2="10.75"/><circle class="a" cx="12" cy="10" r="7.5"/><line class="a" x1="16.891" y1="15.686" x2="23.25" y2="21.25"/></svg>