<svg xmlns="http://www.w3.org/2000/svg" viewBox="0 0 24 24"><defs><style>.a{fill:none;stroke:currentColor;stroke-linecap:round;stroke-linejoin:round;stroke-width:1.5px;}</style></defs><title>settings-human</title><path class="a" d="M19.5,23.25V16.985A9.365,9.365,0,0,0,13.125.75C5.621.75,4.3,7.245,1.5,14.25h3v3a3,3,0,0,0,3,3H9v3"/><circle class="a" cx="12.75" cy="10.5" r="1.5"/><path class="a" d="M11.476,4.7,11.034,6.15a.994.994,0,0,1-1.174.681L8.388,6.49A1.339,1.339,0,0,0,7.113,8.708L8.144,9.819a1,1,0,0,1,0,1.362L7.113,12.292A1.339,1.339,0,0,0,8.388,14.51l1.472-.341a.994.994,0,0,1,1.174.681l.442,1.453a1.33,1.33,0,0,0,2.548,0l.442-1.453a.994.994,0,0,1,1.174-.681l1.472.341a1.339,1.339,0,0,0,1.275-2.218l-1.031-1.111a1,1,0,0,1,0-1.362l1.031-1.111A1.339,1.339,0,0,0,17.112,6.49l-1.472.341a.994.994,0,0,1-1.174-.681L14.024,4.7A1.33,1.33,0,0,0,11.476,4.7Z"/></svg>