<svg xmlns="http://www.w3.org/2000/svg" viewBox="0 0 24 24"><defs><style>.a{fill:none;stroke:currentColor;stroke-linecap:round;stroke-linejoin:round;stroke-width:1.5px;}</style></defs><title>settings-user</title><path class="a" d="M10.5,11.25a5.25,5.25,0,0,1,0-10.5Z"/><path class="a" d="M10.5,23.25H.75A9.75,9.75,0,0,1,10.5,13.5Z"/><line class="a" x1="15.621" y1="3.879" x2="17.25" y2="2.25"/><line class="a" x1="15.621" y1="8.121" x2="17.25" y2="9.75"/><path class="a" d="M13.5,3a3,3,0,0,1,0,6"/><line class="a" x1="13.5" y1="3" x2="13.5" y2="0.75"/><line class="a" x1="13.5" y1="9" x2="13.5" y2="11.25"/><line class="a" x1="16.5" y1="6" x2="18.75" y2="6"/><path class="a" d="M23.25,23.25v-1.5h-2.4a7.472,7.472,0,0,0-1.093-2.636l1.7-1.7L19.334,15.3l-1.7,1.7A7.479,7.479,0,0,0,15,15.9V13.5H13.5"/><path class="a" d="M13.5,19.5a3.75,3.75,0,0,1,3.75,3.75"/></svg>