<svg xmlns="http://www.w3.org/2000/svg" viewBox="0 0 24 24"><defs><style>.a{fill:none;stroke:currentColor;stroke-linecap:round;stroke-linejoin:round;stroke-width:1.5px;}</style></defs><title>shape-cube</title><path class="a" d="M16.629,23.25a1.5,1.5,0,0,0,1.06-.439l5.122-5.122a1.5,1.5,0,0,0,.439-1.06V2.25a1.5,1.5,0,0,0-1.5-1.5H7.371a1.5,1.5,0,0,0-1.06.439L1.189,6.311A1.5,1.5,0,0,0,.75,7.371V21.75a1.5,1.5,0,0,0,1.5,1.5Z"/><line class="a" x1="17.25" y1="23.115" x2="17.25" y2="6.75"/><line class="a" x1="6.75" y1="17.25" x2="23.115" y2="17.25"/><line class="a" x1="1.189" y1="22.811" x2="6.75" y2="17.25"/><line class="a" x1="17.25" y1="6.75" x2="22.811" y2="1.189"/><line class="a" x1="17.25" y1="6.75" x2="0.885" y2="6.75"/><line class="a" x1="6.75" y1="0.885" x2="6.75" y2="17.25"/></svg>