<svg xmlns="http://www.w3.org/2000/svg" viewBox="0 0 24 24"><defs><style>.a{fill:none;stroke:currentColor;stroke-linecap:round;stroke-linejoin:round;stroke-width:1.5px;}</style></defs><title>shapes</title><rect class="a" x="0.75" y="0.75" width="9" height="9" rx="1" ry="1"/><circle class="a" cx="18.75" cy="5.25" r="4.5"/><path class="a" d="M18.786,13.977a.886.886,0,0,0-1.572,0l-4.337,7.807a1.027,1.027,0,0,0-.007.976.905.905,0,0,0,.793.49h8.674a.905.905,0,0,0,.793-.49,1.027,1.027,0,0,0-.007-.976Z"/><path class="a" d="M5.851,13.034a.778.778,0,0,0-1.2,0L.941,17.471a.827.827,0,0,0,0,1.058l3.708,4.437a.778.778,0,0,0,1.2,0l3.708-4.437a.827.827,0,0,0,0-1.058Z"/></svg>