<svg id="Regular" xmlns="http://www.w3.org/2000/svg" viewBox="0 0 24 24"><defs><style>.cls-1,.cls-2{fill:none;stroke:currentColor;stroke-linecap:round;stroke-linejoin:round;stroke-width:1.5px;}.cls-2{fill-rule:evenodd;}</style></defs><title>shark-fish</title><path class="cls-1" d="M23.036,4.994a.751.751,0,0,0-1-.845,5.874,5.874,0,0,0-2.519,2.024,47.138,47.138,0,0,0-6.845-1.324l-.461-2.763a.75.75,0,0,0-1.222-.451A5.259,5.259,0,0,0,9.112,4.693,23.334,23.334,0,0,0,1.477,6.6.753.753,0,0,0,1.1,7.627c1.468,2.935,3.48,4.575,7.434,4.5a3.823,3.823,0,0,0,2.529,2.14.751.751,0,0,0,.955-.722V11.992a20.7,20.7,0,0,0,7.5-2.819A3.552,3.552,0,0,0,22,11.268a.749.749,0,0,0,.921-.89A14.072,14.072,0,0,1,23.036,4.994Z"/><path class="cls-1" d="M6.4,7.673a.374.374,0,0,1,.375.375"/><path class="cls-1" d="M6.022,8.048A.375.375,0,0,1,6.4,7.673"/><path class="cls-1" d="M6.4,8.423a.375.375,0,0,1-.375-.375"/><path class="cls-1" d="M6.772,8.048a.374.374,0,0,1-.375.375"/><line class="cls-1" x1="10.522" y1="7.673" x2="9.772" y2="9.173"/><line class="cls-1" x1="13.522" y1="7.673" x2="12.772" y2="9.173"/><path class="cls-2" d="M9.022,19.492s-1.5,3-4.5,3c-2.5,0-3-1.5-3-1.5s.5-1.5,3-1.5c3,0,4.5,3,4.5,3"/><path class="cls-2" d="M22.522,15.742s-1.5,3-4.5,3c-2.5,0-3-1.5-3-1.5s.5-1.5,3-1.5c3,0,4.5,3,4.5,3"/></svg>