<svg xmlns="http://www.w3.org/2000/svg" viewBox="0 0 24 24"><defs><style>.a{fill:none;stroke:currentColor;stroke-linecap:round;stroke-linejoin:round;stroke-width:1.5px;}</style></defs><title>share-location-hand-1</title><line class="a" x1="2.25" y1="13.5" x2="2.25" y2="22.5"/><path class="a" d="M17.25,21a3,3,0,0,0-3-3H10.5a3,3,0,0,0-3-3H2.25v6Z"/><line class="a" x1="7.5" y1="18" x2="10.5" y2="18"/><path class="a" d="M17.25,5.7a.375.375,0,0,1,.375.375"/><path class="a" d="M16.875,6.074A.375.375,0,0,1,17.25,5.7"/><path class="a" d="M17.25,6.449a.375.375,0,0,1-.375-.375"/><path class="a" d="M17.625,6.074a.375.375,0,0,1-.375.375"/><path class="a" d="M17.25,1.574a4.5,4.5,0,0,1,4.5,4.5c0,1.921-2.688,5.576-3.909,7.138a.75.75,0,0,1-1.182,0C15.438,11.651,12.75,8,12.75,6.074A4.5,4.5,0,0,1,17.25,1.574Z"/></svg>