<svg id="Regular" xmlns="http://www.w3.org/2000/svg" viewBox="0 0 24 24"><defs><style>.cls-1{fill:none;stroke:currentColor;stroke-linecap:round;stroke-linejoin:round;stroke-width:1.5px;}</style></defs><title>shark</title><path class="cls-1" d="M15.551,15.8A14.434,14.434,0,0,0,19.23,13.96,6.64,6.64,0,0,0,22.1,16.94a.751.751,0,0,0,1.1-.807,18.936,18.936,0,0,1,0-7.666.751.751,0,0,0-1.1-.807,7.123,7.123,0,0,0-1.864,1.466,2.25,2.25,0,0,1-2.676.515A18.259,18.259,0,0,0,11.98,7.955a9.561,9.561,0,0,1,.085-2.836.75.75,0,0,0-.924-.853A4.951,4.951,0,0,0,7.114,8.114C3.369,8.9,1.05,11.082,1.05,12.3c0,1.438,3.2,4.253,8.2,4.485v.033A5.191,5.191,0,0,0,11.2,18.636a.75.75,0,0,0,1.1-.665V15.3"/><path class="cls-1" d="M5.925,11.55a.375.375,0,0,1,.375.375"/><path class="cls-1" d="M5.55,11.925a.375.375,0,0,1,.375-.375"/><path class="cls-1" d="M5.925,12.3a.375.375,0,0,1-.375-.375"/><path class="cls-1" d="M6.3,11.925a.375.375,0,0,1-.375.375"/><line class="cls-1" x1="9.3" y1="10.8" x2="10.05" y2="12.3"/><line class="cls-1" x1="11.55" y1="10.8" x2="12.3" y2="12.3"/></svg>