<svg xmlns="http://www.w3.org/2000/svg" viewBox="0 0 24 24"><defs><style>.a{fill:none;stroke:currentColor;stroke-linecap:round;stroke-linejoin:round;stroke-width:1.5px;}</style></defs><title>share-location-hand</title><line class="a" x1="2.25" y1="14.25" x2="2.25" y2="23.25"/><path class="a" d="M17.25,21.75a3,3,0,0,0-3-3H10.5a3,3,0,0,0-3-3H2.25v6Z"/><line class="a" x1="7.5" y1="18.75" x2="10.5" y2="18.75"/><path class="a" d="M17.785,16.528a27.3,27.3,0,0,0,3.56-7.648h0a17.2,17.2,0,0,0,.405-2.13,6,6,0,0,0-12,0,17.2,17.2,0,0,0,.4,2.13h0a26.715,26.715,0,0,0,3.342,7.3"/><circle class="a" cx="15.75" cy="6.75" r="2.25"/></svg>