<svg id="Regular" xmlns="http://www.w3.org/2000/svg" viewBox="0 0 24 24"><defs><style>.cls-1{fill:none;stroke:currentColor;stroke-linecap:round;stroke-linejoin:round;stroke-width:1.5px;}</style></defs><title>shark-hammer-fish</title><path class="cls-1" d="M5.659,14.332c2,6.673,5.74,9.278,9.929,8.16a8.675,8.675,0,0,0,3.963-1.9,3.745,3.745,0,0,0,3.5-.623A9.108,9.108,0,0,0,20.131,17.5a9.09,9.09,0,0,0-1.743-3.4,3.738,3.738,0,0,0-1.177,4.215,2.023,2.023,0,0,1-1.866.365c-2.846-.585-2.227-4.17-2.54-6.443"/><line class="cls-1" x1="8.676" y1="11.14" x2="9.257" y2="13.314"/><path class="cls-1" d="M12.888,13.15l4.044-1.722a.75.75,0,0,0,.192-1.261C14.171,7.646,13.36,11.789,9.381,7.2a.705.705,0,0,1,.564-1.167,11.411,11.411,0,0,1,1.428.161,1.5,1.5,0,0,0,1.7-1.867l-.529-1.981A8.985,8.985,0,0,0,6.162,1.72,9.187,9.187,0,0,0,1.409,4.793a1.5,1.5,0,0,0-.282,1.33l.384,1.44a1.5,1.5,0,0,0,2.352.812c.408-.308.833-.61,1.207-.842a.7.7,0,0,1,1.07.731c-1.008,5.168-2.127,1.73-3.6,6.066a10.293,10.293,0,0,0-.553,2.616.751.751,0,0,0,1.162.675l2.954-1.946"/></svg>