<svg id="Regular" xmlns="http://www.w3.org/2000/svg" viewBox="0 0 24 24"><defs><style>.cls-1{fill:none;stroke:currentColor;stroke-linecap:round;stroke-linejoin:round;stroke-width:1.5px;}</style></defs><title>shark-fin</title><path class="cls-1" d="M.75,17.611c1.5,0,2.25,1.5,3.75,1.5s2.25-1.5,3.75-1.5,2.25,1.5,3.75,1.5,2.25-1.5,3.75-1.5,2.25,1.5,3.75,1.5,2.25-1.5,3.75-1.5"/><path class="cls-1" d="M.75,13.861c1.5,0,2.25,1.5,3.75,1.5s2.25-1.5,3.75-1.5,2.25,1.5,3.75,1.5,2.25-1.5,3.75-1.5,2.25,1.5,3.75,1.5,2.25-1.5,3.75-1.5"/><path class="cls-1" d="M7.5,10.861a11.756,11.756,0,0,1,6.9-7.782c.615-.261,1.345.1,1.345.665v7.117"/></svg>