<svg id="Regular" xmlns="http://www.w3.org/2000/svg" viewBox="0 0 24 24"><defs><style>.cls-1{fill:none;stroke:currentColor;stroke-linecap:round;stroke-linejoin:round;stroke-width:1.5px;}</style></defs><title>shell</title><path class="cls-1" d="M15.164,16.109a20.83,20.83,0,0,1,5.056,4.575,1.573,1.573,0,0,1-1.226,2.566H4.022a1.588,1.588,0,0,1-1.577-1.686c.267-4.121,1.6-6.279,4.438-6.914"/><path class="cls-1" d="M4.78,15.6c-.431-3.882,1.276-7.306,5.486-7.306,6.3,0,8.659,4.723,9.447,7.085a5.377,5.377,0,0,1-.245,4.426"/><path class="cls-1" d="M8.666,8.471c.765-5.354,5.379-4.383,6.323-4.114,5.017,1.434,5.571,7.643,4.6,10.668"/><path class="cls-1" d="M13.636,4.128A12.751,12.751,0,0,1,19.082.788a.787.787,0,0,1,.992.977A24.178,24.178,0,0,0,18.925,7.6"/></svg>