<svg id="Regular" xmlns="http://www.w3.org/2000/svg" viewBox="0 0 24 24"><defs><style>.cls-1{fill:none;stroke:currentColor;stroke-linecap:round;stroke-linejoin:round;stroke-width:1.5px;}</style></defs><title>shelf-books-round</title><circle class="cls-1" cx="12" cy="12" r="11.25"/><line class="cls-1" x1="3.75" y1="23.25" x2="20.25" y2="23.25"/><line class="cls-1" x1="0.775" y1="12.75" x2="23.225" y2="12.75"/><path class="cls-1" d="M7.25,6.75h2.5a0,0,0,0,1,0,0v6a0,0,0,0,1,0,0h-3a0,0,0,0,1,0,0V7.25A.5.5,0,0,1,7.25,6.75Z"/><path class="cls-1" d="M9.75,6.75h2.5a.5.5,0,0,1,.5.5v5.5a0,0,0,0,1,0,0h-3a0,0,0,0,1,0,0v-6A0,0,0,0,1,9.75,6.75Z"/><path class="cls-1" d="M12.75,23.225V17.25H10.5a.75.75,0,0,0-.75.75v5.025"/><path class="cls-1" d="M15.75,22.609V18a.75.75,0,0,0-.75-.75H12.75v5.975"/></svg>