<svg id="Regular" xmlns="http://www.w3.org/2000/svg" viewBox="0 0 24 24"><defs><style>.cls-1{fill:none;stroke:currentColor;stroke-linecap:round;stroke-linejoin:round;stroke-width:1.5px;}</style></defs><title>shellfish-shrimp</title><path class="cls-1" d="M9.571,10.5a4.5,4.5,0,0,1,0,9h-.75V18.132a.752.752,0,0,0-.97-.718,2.727,2.727,0,0,0-2.03,2.836,3.026,3.026,0,0,0-2.576,1.911.75.75,0,0,0,.669,1.089h7.157a9,9,0,1,0,0-18H2.4A.751.751,0,0,0,1.707,6.3C2.365,7.827,3.9,10.5,6.571,10.5Z"/><line class="cls-1" x1="12.789" y1="11.855" x2="10.321" y2="13.5"/><path class="cls-1" d="M13.96,5.724c1.583,3.958-.914,5.346-1.7,5.667"/><path class="cls-1" d="M14.071,15a5.132,5.132,0,0,0,5.967.024"/><path class="cls-1" d="M11.228,19.185a5.215,5.215,0,0,0-.157,4.065"/><path class="cls-1" d="M9.2,7.5a.375.375,0,0,1,.375.375"/><path class="cls-1" d="M8.821,7.875A.375.375,0,0,1,9.2,7.5"/><path class="cls-1" d="M9.2,8.25a.375.375,0,0,1-.375-.375"/><path class="cls-1" d="M9.571,7.875A.375.375,0,0,1,9.2,8.25"/><path class="cls-1" d="M8.071,5.25a2.25,2.25,0,0,1,0-4.5h12"/></svg>