<svg id="Regular" xmlns="http://www.w3.org/2000/svg" viewBox="0 0 24 24"><defs><style>.cls-1{fill:none;stroke:currentColor;stroke-linecap:round;stroke-linejoin:round;stroke-width:1.5px;}</style></defs><title>shelf-books-1</title><path class="cls-1" d="M21.75,23.25a1.5,1.5,0,0,0,0-3H2.25a1.5,1.5,0,0,0,0,3Z"/><path class="cls-1" d="M21.75,11.25a1.5,1.5,0,0,0,0-3H2.25a1.5,1.5,0,0,0,0,3Z"/><path class="cls-1" d="M5.75,14.25h2.5a0,0,0,0,1,0,0v6a0,0,0,0,1,0,0h-3a0,0,0,0,1,0,0v-5.5A.5.5,0,0,1,5.75,14.25Z"/><rect class="cls-1" x="8.25" y="14.25" width="3" height="6"/><path class="cls-1" d="M11.25,14.25h2.5a.5.5,0,0,1,.5.5v5.5a0,0,0,0,1,0,0h-3a0,0,0,0,1,0,0v-6A0,0,0,0,1,11.25,14.25Z"/><path class="cls-1" d="M13.25,2.25h2.5a0,0,0,0,1,0,0v6a0,0,0,0,1,0,0h-3a0,0,0,0,1,0,0V2.75A.5.5,0,0,1,13.25,2.25Z"/><path class="cls-1" d="M15.75,2.25h2.5a.5.5,0,0,1,.5.5v5.5a0,0,0,0,1,0,0h-3a0,0,0,0,1,0,0v-6A0,0,0,0,1,15.75,2.25Z"/><line class="cls-1" x1="21.75" y1="8.25" x2="21.75" y2="0.75"/><line class="cls-1" x1="21.75" y1="20.25" x2="21.75" y2="11.25"/><line class="cls-1" x1="2.25" y1="8.25" x2="2.25" y2="0.75"/><line class="cls-1" x1="2.25" y1="20.25" x2="2.25" y2="11.25"/></svg>