<svg id="Regular" xmlns="http://www.w3.org/2000/svg" viewBox="0 0 24 24"><defs><style>.cls-1{fill:none;stroke:currentColor;stroke-linecap:round;stroke-linejoin:round;stroke-width:1.5px;}</style></defs><title>shellfish-lobster</title><path class="cls-1" d="M15.387,14.018c0,4.365-1.405,8.563-3.137,8.563s-3.137-4.2-3.137-8.563a3.147,3.147,0,0,1,3.137-1.976A3.147,3.147,0,0,1,15.387,14.018Z"/><path class="cls-1" d="M9.113,14.018,8.486,12.8C8.486,8.483,11,6.02,12.25,6.02s3.764,2.463,3.764,6.775l-.627,1.223"/><path class="cls-1" d="M9.721,18.927l-2.2,2.927a.754.754,0,0,0,.345,1.16,2.543,2.543,0,0,0,3.306-.989"/><path class="cls-1" d="M14.781,18.93l2.194,2.924a.754.754,0,0,1-.345,1.16,2.543,2.543,0,0,1-3.306-.989"/><path class="cls-1" d="M9.249,16.383a4.557,4.557,0,0,1,3-1.33,4.624,4.624,0,0,1,3,1.33"/><path class="cls-1" d="M9.743,19.01a4.023,4.023,0,0,1,2.507-.946,4.023,4.023,0,0,1,2.507.946"/><path class="cls-1" d="M13.747,6.784l1.514-2.27a15.2,15.2,0,0,1,7.528,13.55"/><path class="cls-1" d="M10.753,6.784,9.239,4.514a15.2,15.2,0,0,0-7.528,13.55"/><path class="cls-1" d="M17.17,3.008A3.057,3.057,0,0,1,19.778.75c1.663,0,3.011,2.022,3.011,4.517a6.308,6.308,0,0,1-.4,2.258"/><line class="cls-1" x1="19.778" y1="0.75" x2="19.778" y2="3.761"/><path class="cls-1" d="M7.33,3.008A3.057,3.057,0,0,0,4.722.75C3.059.75,1.711,2.772,1.711,5.267a6.308,6.308,0,0,0,.4,2.258"/><line class="cls-1" x1="4.722" y1="0.75" x2="4.722" y2="3.761"/><line class="cls-1" x1="15.361" y1="15.053" x2="18.272" y2="15.053"/><line class="cls-1" x1="15.127" y1="17.278" x2="18.272" y2="18.064"/><line class="cls-1" x1="9.143" y1="15.053" x2="6.228" y2="15.053"/><line class="cls-1" x1="9.373" y1="17.278" x2="6.228" y2="18.064"/></svg>