<svg id="Regular" xmlns="http://www.w3.org/2000/svg" viewBox="0 0 24 24"><defs><style>.cls-1{fill:none;stroke:currentColor;stroke-linecap:round;stroke-linejoin:round;stroke-width:1.5px;}</style></defs><title>shell-1</title><path class="cls-1" d="M17.77,6.7A1.5,1.5,0,0,1,17.6,4.53L18.887,3.1A1.553,1.553,0,0,0,17.6.75H6.4A1.553,1.553,0,0,0,5.113,3.1L6.4,4.53A1.505,1.505,0,0,1,6.23,6.7C4.275,8.289.75,11.782.75,16.267.75,20.124,5.787,23.25,12,23.25s11.25-3.126,11.25-6.983C23.25,11.782,19.725,8.289,17.77,6.7Z"/><path class="cls-1" d="M6,10.5a14.262,14.262,0,0,0-.7,11.376"/><path class="cls-1" d="M18,10.5a14.262,14.262,0,0,1,.7,11.376"/><path class="cls-1" d="M9.75,12.75s-2.475,5.774.362,10.4"/><path class="cls-1" d="M14.25,12.75a18.058,18.058,0,0,1-.2,10.384"/></svg>