<svg id="Regular" xmlns="http://www.w3.org/2000/svg" viewBox="0 0 24 24"><defs><style>.cls-1{fill:none;stroke:currentColor;stroke-linecap:round;stroke-linejoin:round;stroke-width:1.5px;}</style></defs><title>shell-2</title><path class="cls-1" d="M6,19.5H18a0,0,0,0,1,0,0v2.75a1,1,0,0,1-1,1H7a1,1,0,0,1-1-1V19.5A0,0,0,0,1,6,19.5Z"/><path class="cls-1" d="M20.1,18.04A7.36,7.36,0,0,0,23.25,12,11.25,11.25,0,0,0,.75,12,7.36,7.36,0,0,0,3.9,18.04L6,19.5H18Z"/><line class="cls-1" x1="15" y1="6.75" x2="14.25" y2="12.75"/><line class="cls-1" x1="18.75" y1="12" x2="17.25" y2="14.25"/><line class="cls-1" x1="9" y1="6.75" x2="9.75" y2="12.75"/><line class="cls-1" x1="5.25" y1="12" x2="6.75" y2="14.25"/></svg>