<svg id="Regular" xmlns="http://www.w3.org/2000/svg" viewBox="0 0 24 24"><defs><style>.cls-1{fill:none;stroke:currentColor;stroke-linecap:round;stroke-linejoin:round;stroke-width:1.5px;}</style></defs><title>shelf-tv</title><path class="cls-1" d="M2.25,15a.75.75,0,0,0-.75.75v6a.75.75,0,0,0,.75.75h3A.75.75,0,0,0,6,21.75v-1.5a.75.75,0,0,1,.75-.75h10.5a.75.75,0,0,1,.75.75v1.5a.75.75,0,0,0,.75.75h3a.75.75,0,0,0,.75-.75v-6a.75.75,0,0,0-.75-.75Z"/><rect class="cls-1" x="4.5" y="1.5" width="15" height="10.5" rx="1.5" ry="1.5"/><line class="cls-1" x1="10.5" y1="12" x2="9.75" y2="15"/><line class="cls-1" x1="13.5" y1="12" x2="14.25" y2="15"/></svg>