<svg id="Regular" xmlns="http://www.w3.org/2000/svg" viewBox="0 0 24 24"><defs><style>.cls-1{fill:none;stroke:currentColor;stroke-linecap:round;stroke-linejoin:round;stroke-width:1.5px;}</style></defs><title>shellfish-crab</title><path class="cls-1" d="M19.087,13.494a7.235,7.235,0,0,1-14.47,0l2.825-2.26A2.9,2.9,0,0,1,9.25,10.6h5.205a2.9,2.9,0,0,1,1.808.634Z"/><path class="cls-1" d="M5.22,16.388c-3.415,0-4.05,2.213-4.22,2.894"/><path class="cls-1" d="M6.489,18.35c-2.93,1.438-2.535,3.76-2.4,4.4"/><path class="cls-1" d="M18.485,16.388c3.415,0,4.05,2.213,4.22,2.894"/><path class="cls-1" d="M17.216,18.35c2.93,1.438,2.535,3.76,2.4,4.4"/><path class="cls-1" d="M6.225,7.864C4.554,9.25,2.613,9.176,1.593,7.946S.859,4.8,2.53,3.409A13.945,13.945,0,0,1,4.947,1.84a.723.723,0,0,1,1.038.81L5.491,4.713l2.119-.1a.724.724,0,0,1,.6,1.17A14.017,14.017,0,0,1,6.225,7.864Z"/><path class="cls-1" d="M1.9,8.256A3.169,3.169,0,0,0,1,10.6c0,2.171,1.447,2.894,3.617,2.894"/><path class="cls-1" d="M17.48,7.864c1.671,1.386,3.612,1.312,4.632.082s.734-3.151-.937-4.537A13.945,13.945,0,0,0,18.758,1.84a.723.723,0,0,0-1.038.81l.494,2.063-2.119-.1a.724.724,0,0,0-.6,1.17A14.017,14.017,0,0,0,17.48,7.864Z"/><path class="cls-1" d="M21.808,8.256a3.169,3.169,0,0,1,.9,2.344c0,2.171-1.447,2.894-3.618,2.894"/><path class="cls-1" d="M10.044,7.693a.375.375,0,0,1,.375.375"/><path class="cls-1" d="M9.669,8.068a.375.375,0,0,1,.375-.375"/><path class="cls-1" d="M10.044,8.443a.375.375,0,0,1-.375-.375"/><path class="cls-1" d="M10.419,8.068a.375.375,0,0,1-.375.375"/><path class="cls-1" d="M13.661,7.693a.375.375,0,0,1,.375.375"/><path class="cls-1" d="M13.286,8.068a.375.375,0,0,1,.375-.375"/><path class="cls-1" d="M13.661,8.443a.375.375,0,0,1-.375-.375"/><path class="cls-1" d="M14.036,8.068a.375.375,0,0,1-.375.375"/><line class="cls-1" x1="10.405" y1="14.218" x2="10.405" y2="16.388"/><line class="cls-1" x1="13.299" y1="14.218" x2="13.299" y2="16.388"/></svg>