<svg id="Regular" xmlns="http://www.w3.org/2000/svg" viewBox="0 0 24 24"><defs><style>.cls-1{fill:none;stroke:currentColor;stroke-linecap:round;stroke-linejoin:round;stroke-width:1.5px;}</style></defs><title>shelf-books</title><rect class="cls-1" x="0.75" y="0.75" width="22.5" height="22.5" rx="1.5" ry="1.5"/><line class="cls-1" x1="0.75" y1="12.75" x2="23.25" y2="12.75"/><rect class="cls-1" x="0.75" y="6.75" width="3" height="6"/><rect class="cls-1" x="3.75" y="6.75" width="3" height="6"/><path class="cls-1" d="M6.75,6.75h2.5a.5.5,0,0,1,.5.5v5.5a0,0,0,0,1,0,0h-3a0,0,0,0,1,0,0v-6A0,0,0,0,1,6.75,6.75Z"/><path class="cls-1" d="M8.75,17.25h2.5a0,0,0,0,1,0,0v6a0,0,0,0,1,0,0h-3a0,0,0,0,1,0,0v-5.5A.5.5,0,0,1,8.75,17.25Z"/><rect class="cls-1" x="11.25" y="17.25" width="3" height="6"/><path class="cls-1" d="M14.25,17.25h2.5a.5.5,0,0,1,.5.5v5.5a0,0,0,0,1,0,0h-3a0,0,0,0,1,0,0v-6A0,0,0,0,1,14.25,17.25Z"/><path class="cls-1" d="M17.75,6.75h2.5a0,0,0,0,1,0,0v6a0,0,0,0,1,0,0h-3a0,0,0,0,1,0,0V7.25A.5.5,0,0,1,17.75,6.75Z"/><rect class="cls-1" x="20.25" y="6.75" width="3" height="6"/></svg>