<svg id="Regular" xmlns="http://www.w3.org/2000/svg" viewBox="0 0 24 24"><defs><style>.cls-1{fill:none;stroke:currentColor;stroke-linecap:round;stroke-linejoin:round;stroke-width:1.5px;}</style></defs><title>shelf-drawers</title><rect class="cls-1" x="3" y="12.5" width="18" height="9" rx="1.5" ry="1.5"/><line class="cls-1" x1="4.5" y1="21.5" x2="4.5" y2="23"/><line class="cls-1" x1="19.5" y1="21.5" x2="19.5" y2="23"/><line class="cls-1" x1="12" y1="21.5" x2="12" y2="12.5"/><path class="cls-1" d="M9,16.625A.375.375,0,1,1,8.625,17,.375.375,0,0,1,9,16.625"/><path class="cls-1" d="M15,16.625a.375.375,0,1,1-.375.375A.375.375,0,0,1,15,16.625"/><line class="cls-1" x1="4.5" y1="12.5" x2="4.5" y2="0.5"/><line class="cls-1" x1="19.5" y1="12.5" x2="19.5" y2="0.5"/><line class="cls-1" x1="3" y1="3.5" x2="21" y2="3.5"/><line class="cls-1" x1="3" y1="8" x2="21" y2="8"/></svg>