<svg xmlns="http://www.w3.org/2000/svg" viewBox="0 0 24 24"><defs><style>.a{fill:none;stroke:currentColor;stroke-linecap:round;stroke-linejoin:round;stroke-width:1.5px;}</style></defs><title>shipment-in-transit</title><line class="a" x1="0.766" y1="13.222" x2="3.703" y2="14.709"/><line class="a" x1="0.86" y1="9.234" x2="3.672" y2="10.74"/><line class="a" x1="2.045" y1="5.918" x2="3.734" y2="6.959"/><line class="a" x1="10.859" y1="5.151" x2="19.109" y2="9.366"/><path class="a" d="M14.062,3.514,7.874,6.676a2.113,2.113,0,0,0-1.14,1.885V15.44a2.113,2.113,0,0,0,1.141,1.885l6.187,3.161a2.022,2.022,0,0,0,1.845,0l6.187-3.161a2.112,2.112,0,0,0,1.14-1.885V8.561a2.111,2.111,0,0,0-1.14-1.885L15.907,3.514A2.028,2.028,0,0,0,14.062,3.514Z"/><polyline class="a" points="22.908 7.425 14.984 11.473 7.061 7.425"/><line class="a" x1="14.984" y1="11.473" x2="14.984" y2="20.709"/><line class="a" x1="19.109" y1="9.366" x2="19.109" y2="12.278"/></svg>