<svg xmlns="http://www.w3.org/2000/svg" viewBox="0 0 24 24"><defs><style>.a{fill:none;stroke:currentColor;stroke-linecap:round;stroke-linejoin:round;stroke-width:1.5px;}</style></defs><title>shipment-crane</title><polyline class="a" points="13.5 23.25 14.25 8.25 17.25 8.25 18 23.25"/><path class="a" d="M19.5,6.75A1.5,1.5,0,0,1,18,8.25H13.5A1.5,1.5,0,0,1,12,6.75V3.15a1.5,1.5,0,0,1,1.206-1.471l4.5-.9A1.5,1.5,0,0,1,19.5,2.25Z"/><path class="a" d="M1.579,6.335a.751.751,0,0,0,.671.415H12v-3H1.5A.75.75,0,0,0,.829,4.835Z"/><path class="a" d="M23.228,4.682A.75.75,0,0,0,22.5,3.75h-3v3h2.625a.751.751,0,0,0,.728-.568Z"/><path class="a" d="M6.75,13.5A2.25,2.25,0,1,1,4.5,11.25"/><line class="a" x1="4.5" y1="11.25" x2="4.5" y2="6.75"/><line class="a" x1="12" y1="5.25" x2="15" y2="5.25"/><rect class="a" x="0.75" y="18.75" width="8.25" height="4.5" rx="0.5" ry="0.5"/></svg>