<svg xmlns="http://www.w3.org/2000/svg" viewBox="0 0 24 24"><defs><style>.a{fill:none;stroke:currentColor;stroke-linecap:round;stroke-linejoin:round;stroke-width:1.5px;}</style></defs><title>shipment-download</title><path class="a" d="M11.25,17.25a6,6,0,1,1,6,6,6,6,0,0,1-6-6"/><line class="a" x1="17.25" y1="20.25" x2="17.25" y2="14.25"/><line class="a" x1="17.25" y1="14.25" x2="15" y2="16.5"/><line class="a" x1="17.25" y1="14.25" x2="19.5" y2="16.5"/><path class="a" d="M8.25,18.75h-6a1.5,1.5,0,0,1-1.5-1.5V6.75a1.5,1.5,0,0,1,1.5-1.5h15a1.5,1.5,0,0,1,1.5,1.5v1.5"/><path class="a" d="M18.266,5.647,15.445,1.418A1.5,1.5,0,0,0,14.2.75H5.3a1.5,1.5,0,0,0-1.248.668L1.234,5.647"/><line class="a" x1="9.75" y1="0.75" x2="9.75" y2="5.25"/></svg>