<svg xmlns="http://www.w3.org/2000/svg" viewBox="0 0 24 24"><defs><style>.a{fill:none;stroke:currentColor;stroke-linecap:round;stroke-linejoin:round;stroke-width:1.5px;}</style></defs><title>shipment-weight-kg</title><circle class="a" cx="12" cy="14.25" r="9"/><line class="a" x1="7.5" y1="18" x2="7.5" y2="10.5"/><polyline class="a" points="10.5 18 7.5 14.25 10.5 10.5"/><path class="a" d="M15.75,15h.75v1.5a1.5,1.5,0,0,1-3,0V12A1.5,1.5,0,0,1,15,10.5h1.5"/><path class="a" d="M16.917,6.711C16.768,5.3,16.6,3.889,16.5,2.474a1.989,1.989,0,0,0-.345-1.185A1.5,1.5,0,0,0,15,.75H9a1.5,1.5,0,0,0-1.151.539A1.99,1.99,0,0,0,7.5,2.474C7.4,3.889,7.232,5.3,7.084,6.711"/></svg>