<svg xmlns="http://www.w3.org/2000/svg" viewBox="0 0 24 24"><defs><style>.a{fill:none;stroke:currentColor;stroke-linecap:round;stroke-linejoin:round;stroke-width:1.5px;}</style></defs><title>shipment-smartphone-arrive</title><path class="a" d="M14.25,19.5v.75a3,3,0,0,1-3,3H3.75a3,3,0,0,1-3-3V3.75a3,3,0,0,1,3-3H10.5"/><path class="a" d="M12.829,3.908l-4.5,2.25A1.5,1.5,0,0,0,7.5,7.5v4.9a1.5,1.5,0,0,0,.829,1.342l4.5,2.249a1.5,1.5,0,0,0,1.342,0l4.5-2.25A1.5,1.5,0,0,0,19.5,12.4V7.5a1.5,1.5,0,0,0-.829-1.342l-4.5-2.25A1.5,1.5,0,0,0,12.829,3.908Z"/><polyline class="a" points="19.263 6.692 13.5 9.573 7.738 6.692"/><line class="a" x1="13.5" y1="9.573" x2="13.5" y2="16.146"/><line class="a" x1="20.287" y1="3.049" x2="19.827" y2="3.641"/><line class="a" x1="17.457" y1="1.802" x2="17.324" y2="0.75"/><line class="a" x1="22.198" y1="5.48" x2="23.25" y2="5.347"/><line class="a" x1="0.75" y1="18.52" x2="8.25" y2="18.52"/></svg>