<svg xmlns="http://www.w3.org/2000/svg" viewBox="0 0 24 24"><defs><style>.a{fill:none;stroke:currentColor;stroke-linecap:round;stroke-linejoin:round;stroke-width:1.5px;}</style></defs><title>shipment-cargo-boat</title><path class="a" d="M.75,23.25a5.511,5.511,0,0,0,4.5-1.5,4.547,4.547,0,0,0,6.75,0,4.547,4.547,0,0,0,6.75,0,5.511,5.511,0,0,0,4.5,1.5"/><path class="a" d="M22.881,20.2l.264-2.111a.751.751,0,0,0-.745-.843H1.5a.751.751,0,0,0-.748.818,8.143,8.143,0,0,0,.538,2.266"/><path class="a" d="M21.75,17.25h-6v-12a1.5,1.5,0,0,1,1.5-1.5h3a1.5,1.5,0,0,1,1.5,1.5Z"/><rect class="a" x="2.25" y="13.5" width="6" height="3.75"/><polyline class="a" points="15.75 13.5 8.25 13.5 8.25 17.25"/><path class="a" d="M8.25,9.75H3.75a1.5,1.5,0,0,0-1.5,1.5V13.5h6Z"/><polyline class="a" points="15.75 9.75 8.25 9.75 8.25 13.5 15.75 13.5"/><line class="a" x1="18.75" y1="6.75" x2="15.75" y2="6.75"/><line class="a" x1="19.5" y1="3.75" x2="19.5" y2="0.75"/></svg>