<svg xmlns="http://www.w3.org/2000/svg" viewBox="0 0 24 24"><defs><style>.a{fill:none;stroke:currentColor;stroke-linecap:round;stroke-linejoin:round;stroke-width:1.5px;}</style></defs><title>shipment-warning</title><path class="a" d="M17.25,20.25a.375.375,0,1,1-.375.375.375.375,0,0,1,.375-.375"/><line class="a" x1="17.25" y1="18" x2="17.25" y2="15"/><path class="a" d="M23.063,20.682a1.774,1.774,0,0,1-1.587,2.568H13.024a1.774,1.774,0,0,1-1.587-2.568l4.226-8.451a1.774,1.774,0,0,1,3.174,0Z"/><path class="a" d="M8.25,18.75h-6a1.5,1.5,0,0,1-1.5-1.5V6.75a1.5,1.5,0,0,1,1.5-1.5h15a1.5,1.5,0,0,1,1.5,1.5v1.5"/><path class="a" d="M18.266,5.647,15.445,1.418A1.5,1.5,0,0,0,14.2.75H5.3a1.5,1.5,0,0,0-1.248.668L1.234,5.647"/><line class="a" x1="9.75" y1="0.75" x2="9.75" y2="5.25"/></svg>