<svg xmlns="http://www.w3.org/2000/svg" viewBox="0 0 24 24"><defs><style>.a{fill:none;stroke:currentColor;stroke-linecap:round;stroke-linejoin:round;stroke-width:1.5px;}</style></defs><title>shipment-approve-smartphone</title><path class="a" d="M20.631,22.027a1.991,1.991,0,0,1-1.783,1.223H14.826a2.137,2.137,0,0,1-2-2.25V12.04a2.138,2.138,0,0,1,2-2.25l4.01-.026a2.135,2.135,0,0,1,2.015,2.249v.737"/><line class="a" x1="12.823" y1="20.25" x2="16.178" y2="20.25"/><polyline class="a" points="23.25 14.25 19.245 18.75 16.574 16.5"/><path class="a" d="M12.75,6.75V4.5a1.5,1.5,0,0,0-.829-1.342L7.421.908a1.5,1.5,0,0,0-1.342,0l-4.5,2.25A1.5,1.5,0,0,0,.75,4.5V9.4a1.5,1.5,0,0,0,.829,1.342l4.5,2.249a1.5,1.5,0,0,0,1.342,0L10.4,11.5"/><polyline class="a" points="12.512 3.692 6.75 6.573 0.988 3.692"/><line class="a" x1="6.75" y1="6.573" x2="6.75" y2="13.146"/></svg>