<svg xmlns="http://www.w3.org/2000/svg" viewBox="0 0 24 24"><defs><style>.a{fill:none;stroke:currentColor;stroke-linecap:round;stroke-linejoin:round;stroke-width:1.5px;}</style></defs><title>shipment-sign-smartphone</title><path class="a" d="M20.25,18.04V21A2.25,2.25,0,0,1,18,23.25H13.481A2.25,2.25,0,0,1,11.231,21V12.04a2.25,2.25,0,0,1,2.25-2.25H17.25"/><line class="a" x1="11.231" y1="20.25" x2="20.231" y2="20.25"/><path class="a" d="M20.747,10.066l-6.34,4.794-.926,2.661,2.812-.168,6.339-4.8a1.557,1.557,0,0,0,.3-2.182l-.005-.008A1.557,1.557,0,0,0,20.747,10.066Z"/><path class="a" d="M12.75,6.75V4.5a1.5,1.5,0,0,0-.829-1.342L7.421.908a1.5,1.5,0,0,0-1.342,0l-4.5,2.25A1.5,1.5,0,0,0,.75,4.5V9.4a1.5,1.5,0,0,0,.829,1.342l4.5,2.249a1.5,1.5,0,0,0,1.342,0l.758-.379"/><polyline class="a" points="12.513 3.692 6.75 6.573 0.987 3.692"/><line class="a" x1="6.75" y1="6.573" x2="6.75" y2="13.146"/></svg>