<svg xmlns="http://www.w3.org/2000/svg" viewBox="0 0 24 24"><defs><style>.a{fill:none;stroke:currentColor;stroke-linecap:round;stroke-linejoin:round;stroke-width:1.5px;}</style></defs><title>shipment-truck-1</title><circle class="a" cx="18" cy="21" r="2.25"/><path class="a" d="M23.25,21.293V16.676a.977.977,0,0,0-.741-.948L17.25,14.25v-1.5a3.059,3.059,0,0,0-1.585-2.8l-2.2-1.373"/><line class="a" x1="13.467" y1="14.25" x2="17.25" y2="14.25"/><line class="a" x1="23.25" y1="18" x2="21.75" y2="18"/><line class="a" x1="0.75" y1="5.25" x2="3" y2="5.25"/><rect class="a" x="3" y="5.25" width="4.5" height="14.25"/><path class="a" d="M6.75,5.25V2.581A1.5,1.5,0,0,0,5.724,1.158L4.5.75"/><line class="a" x1="3" y1="19.5" x2="0.75" y2="19.5"/><path class="a" d="M.819,21.783a1.948,1.948,0,0,0,3.775,0"/><path class="a" d="M7.5,19.5h6L13.467,9A3.729,3.729,0,0,0,9.756,5.25H7.5"/><path class="a" d="M7.5,22.5h4.079a1.5,1.5,0,0,0,1.455-1.136L13.5,19.5"/></svg>