<svg xmlns="http://www.w3.org/2000/svg" viewBox="0 0 24 24"><defs><style>.a{fill:none;stroke:currentColor;stroke-linecap:round;stroke-linejoin:round;stroke-width:1.5px;}</style></defs><title>shipment-sync</title><path class="a" d="M8.25,18.75h-6a1.5,1.5,0,0,1-1.5-1.5V6.75a1.5,1.5,0,0,1,1.5-1.5h15a1.5,1.5,0,0,1,1.5,1.5v1.5"/><path class="a" d="M18.266,5.647,15.445,1.418A1.5,1.5,0,0,0,14.2.75H5.3a1.5,1.5,0,0,0-1.248.668L1.234,5.647"/><line class="a" x1="9.75" y1="0.75" x2="9.75" y2="5.25"/><polyline class="a" points="15 18.75 11.25 18.75 11.25 22.5"/><path class="a" d="M22.667,19.483a5.572,5.572,0,0,1-10.74-.733"/><polyline class="a" points="19.5 15.75 23.25 15.75 23.25 12"/><path class="a" d="M11.833,15.017a5.572,5.572,0,0,1,10.74.733"/></svg>