<svg xmlns="http://www.w3.org/2000/svg" viewBox="0 0 24 24"><defs><style>.a{fill:none;stroke:currentColor;stroke-linecap:round;stroke-linejoin:round;stroke-width:1.5px;}</style></defs><title>shipment-truck</title><circle class="a" cx="17.25" cy="21" r="2.25"/><circle class="a" cx="3" cy="21" r="2.25"/><circle class="a" cx="9.75" cy="21" r="2.25"/><path class="a" d="M9.75,18.75V2.8C9.75,1.666,9.1.75,8.306.75H.75"/><line class="a" x1="7.5" y1="21" x2="5.25" y2="21"/><path class="a" d="M23.25,12.75H20.109A2.036,2.036,0,0,1,18,10.8V6"/><line class="a" x1="0.75" y1="15" x2="9.75" y2="15"/><line class="a" x1="2.25" y1="12" x2="2.25" y2="3.818"/><line class="a" x1="6" y1="12" x2="6" y2="3.818"/><path class="a" d="M19.5,21h2.25a1.5,1.5,0,0,0,1.5-1.5v-9A4.5,4.5,0,0,0,18.75,6H13.5V18"/><path class="a" d="M13.5,6V2.25c2.665-.131,4.255,1.36,5.25,3.75"/></svg>