<svg xmlns="http://www.w3.org/2000/svg" viewBox="0 0 24 24"><defs><style>.a{fill:none;stroke:currentColor;stroke-linecap:round;stroke-linejoin:round;stroke-width:1.5px;}</style></defs><title>shipment-crane-hook</title><line class="a" x1="12" y1="12.75" x2="12" y2="15.75"/><path class="a" d="M15.75,19.5A3.75,3.75,0,1,1,12,15.75"/><path class="a" d="M14.475,12.48a.751.751,0,0,1-.576.27H10.1a.751.751,0,0,1-.576-.27L6.174,8.459A.754.754,0,0,1,6,7.978V1.5A.75.75,0,0,1,6.75.75h10.5A.75.75,0,0,1,18,1.5V7.978a.754.754,0,0,1-.174.481Z"/><line class="a" x1="6" y1="7.5" x2="12.75" y2="0.75"/><line class="a" x1="9.068" y1="11.932" x2="18" y2="3"/></svg>