<svg xmlns="http://www.w3.org/2000/svg" viewBox="0 0 24 24"><defs><style>.a{fill:none;stroke:currentColor;stroke-linecap:round;stroke-linejoin:round;stroke-width:1.5px;}</style></defs><title>shipment-online-monitor</title><polygon class="a" points="15.75 23.25 8.25 23.25 9 18.75 15 18.75 15.75 23.25"/><line class="a" x1="6" y1="23.25" x2="18" y2="23.25"/><line class="a" x1="0.75" y1="14.25" x2="23.25" y2="14.25"/><rect class="a" x="0.75" y="0.75" width="22.5" height="18" rx="2" ry="2"/><path class="a" d="M6,11.25V7.75a1,1,0,0,1,1-1H17a1,1,0,0,1,1,1v3.5"/><path class="a" d="M17.677,7.015,15.8,4.2a1,1,0,0,0-.832-.445H9.035A1,1,0,0,0,8.2,4.2l-1.88,2.82"/><line class="a" x1="12" y1="3.75" x2="12" y2="6.75"/><line class="a" x1="15" y1="10.5" x2="13.5" y2="10.5"/></svg>