<svg xmlns="http://www.w3.org/2000/svg" viewBox="0 0 24 24"><defs><style>.a{fill:none;stroke:currentColor;stroke-linecap:round;stroke-linejoin:round;stroke-width:1.5px;}</style></defs><title>shipment-smartphone</title><path class="a" d="M16.5,16.5v3.75a3,3,0,0,1-3,3H6a3,3,0,0,1-3-3V3.75a3,3,0,0,1,3-3H7.5"/><line class="a" x1="3" y1="18.52" x2="16.5" y2="18.52"/><path class="a" d="M14.329.908l-4.5,2.25A1.5,1.5,0,0,0,9,4.5V9.4a1.5,1.5,0,0,0,.829,1.342l4.5,2.249a1.5,1.5,0,0,0,1.342,0l4.5-2.25A1.5,1.5,0,0,0,21,9.4V4.5a1.5,1.5,0,0,0-.829-1.342l-4.5-2.25A1.5,1.5,0,0,0,14.329.908Z"/><polyline class="a" points="20.762 3.692 15 6.573 9.238 3.692"/><line class="a" x1="15" y1="6.573" x2="15" y2="13.146"/></svg>