<svg xmlns="http://www.w3.org/2000/svg" viewBox="0 0 24 24"><defs><style>.a{fill:none;stroke:currentColor;stroke-linecap:round;stroke-linejoin:round;stroke-width:1.5px;}</style></defs><title>shipment-international</title><path class="a" d="M7.538,21.75H6.75a1.5,1.5,0,0,1-1.5-1.5v-6a1.5,1.5,0,0,1,1.5-1.5h9a1.5,1.5,0,0,1,1.5,1.5v5.288"/><path class="a" d="M17.25,14.25h3a3,3,0,0,1,3,3v3a1.5,1.5,0,0,1-1.5,1.5H19.462"/><circle class="a" cx="17.625" cy="21.375" r="1.875"/><circle class="a" cx="9.375" cy="21.375" r="1.875"/><line class="a" x1="15.788" y1="21.75" x2="11.212" y2="21.75"/><line class="a" x1="23.25" y1="17.25" x2="20.25" y2="17.25"/><path class="a" d="M1.757,13.891A9,9,0,1,1,18.75,9.75"/><path class="a" d="M9.75.75A11.855,11.855,0,0,0,6,9.75"/><path class="a" d="M9.75.75a11.855,11.855,0,0,1,3.75,9"/><line class="a" x1="1.263" y1="6.75" x2="18.234" y2="6.75"/></svg>