<svg xmlns="http://www.w3.org/2000/svg" viewBox="0 0 24 24"><defs><style>.a{fill:none;stroke:currentColor;stroke-linecap:round;stroke-linejoin:round;stroke-width:1.5px;}</style></defs><title>shipment-barcode</title><path class="a" d="M15.75,9.163a.524.524,0,0,1-.271.457.547.547,0,0,1-.54-.007L12,8.25,9.033,9.691a.544.544,0,0,1-.525-.017.523.523,0,0,1-.258-.449V.75h7.5Z"/><line class="a" x1="17.25" y1="20.25" x2="17.25" y2="14.25"/><line class="a" x1="14.25" y1="20.25" x2="14.25" y2="18.871"/><line class="a" x1="11.25" y1="20.25" x2="11.25" y2="14.469"/><rect class="a" x="0.75" y="0.75" width="22.5" height="22.5" rx="1.5" ry="1.5"/><line class="a" x1="14.25" y1="16.426" x2="14.25" y2="14.469"/><line class="a" x1="20.25" y1="20.031" x2="20.25" y2="18.652"/><line class="a" x1="20.25" y1="16.207" x2="20.25" y2="14.25"/></svg>