<svg xmlns="http://www.w3.org/2000/svg" viewBox="0 0 24 24"><defs><style>.a{fill:none;stroke:currentColor;stroke-linecap:round;stroke-linejoin:round;stroke-width:1.5px;}</style></defs><title>shipment-smartphone-1</title><path class="a" d="M22.389,18.04V21a2.137,2.137,0,0,1-2,2.25H16.364a2.137,2.137,0,0,1-2-2.25V12.04a2.138,2.138,0,0,1,2-2.25h4.022a2.138,2.138,0,0,1,2,2.25Z"/><line class="a" x1="14.361" y1="20.25" x2="22.372" y2="20.25"/><path class="a" d="M13.611,6.75V4.5a1.5,1.5,0,0,0-.829-1.342L8.282.908a1.5,1.5,0,0,0-1.342,0l-4.5,2.25A1.5,1.5,0,0,0,1.611,4.5V9.4a1.5,1.5,0,0,0,.829,1.342l4.5,2.249a1.5,1.5,0,0,0,1.342,0L11.265,11.5"/><polyline class="a" points="13.373 3.692 7.611 6.573 1.849 3.692"/><line class="a" x1="7.611" y1="6.573" x2="7.611" y2="13.146"/></svg>