<svg xmlns="http://www.w3.org/2000/svg" viewBox="0 0 24 24"><defs><style>.a{fill:none;stroke:currentColor;stroke-linecap:round;stroke-linejoin:round;stroke-width:1.5px;}</style></defs><title>shipment-packages</title><path class="a" d="M12,12H2.625A1.914,1.914,0,0,0,.75,13.95V19.8a1.914,1.914,0,0,0,1.875,1.95h7.5A1.913,1.913,0,0,0,12,19.8V12"/><rect class="a" x="4.5" y="12" width="3.75" height="5.25"/><path class="a" d="M17.25,12V4.2a1.913,1.913,0,0,0-1.875-1.95h-7.5A1.914,1.914,0,0,0,6,4.2V12"/><rect class="a" x="9.75" y="2.25" width="3.75" height="5.25"/><path class="a" d="M12,12v7.8a1.914,1.914,0,0,0,1.875,1.95h7.5A1.913,1.913,0,0,0,23.25,19.8V13.95A1.913,1.913,0,0,0,21.375,12H12"/><rect class="a" x="15.75" y="12" width="3.75" height="5.25"/></svg>