<svg xmlns="http://www.w3.org/2000/svg" viewBox="0 0 24 24"><defs><style>.a{fill:none;stroke:currentColor;stroke-linecap:round;stroke-linejoin:round;stroke-width:1.5px;}</style></defs><title>shipment-touch</title><path class="a" d="M19.646,23.25l.306-3.372a3,3,0,0,0-2.337-3.2l-3.83-.851V10.875a1.875,1.875,0,0,0-3.75,0V20.25L8.194,18.869A1.67,1.67,0,0,0,6.056,21.43l1.962,1.82"/><path class="a" d="M7.035,14.25h-1.5a1.5,1.5,0,0,1-1.5-1.5V2.25a1.5,1.5,0,0,1,1.5-1.5h12a1.5,1.5,0,0,1,1.5,1.5v10.5a1.5,1.5,0,0,1-1.5,1.5h-.75"/><rect class="a" x="9.285" y="0.75" width="4.5" height="5.25"/></svg>