<svg xmlns="http://www.w3.org/2000/svg" viewBox="0 0 24 24"><defs><style>.a{fill:none;stroke:currentColor;stroke-linecap:round;stroke-linejoin:round;stroke-width:1.5px;}</style></defs><title>shipment-online-monitor-1</title><line class="a" x1="8.25" y1="23.25" x2="15.75" y2="23.25"/><rect class="a" x="0.75" y="0.75" width="22.5" height="18.75" rx="2" ry="2"/><line class="a" x1="12" y1="23.25" x2="12" y2="19.5"/><path class="a" d="M11.329,4.086l-4.5,2.25A1.5,1.5,0,0,0,6,7.677v4.9a1.5,1.5,0,0,0,.829,1.342l4.5,2.25a1.5,1.5,0,0,0,1.342,0l4.5-2.25A1.5,1.5,0,0,0,18,12.573v-4.9a1.5,1.5,0,0,0-.829-1.341l-4.5-2.25A1.5,1.5,0,0,0,11.329,4.086Z"/><polyline class="a" points="17.762 6.869 12 9.75 6.224 6.889"/><line class="a" x1="12" y1="9.75" x2="12" y2="16.323"/></svg>