<svg xmlns="http://www.w3.org/2000/svg" viewBox="0 0 24 24"><defs><style>.a{fill:none;stroke:currentColor;stroke-linecap:round;stroke-linejoin:round;stroke-width:1.5px;}</style></defs><title>shipment-lift</title><polyline class="a" points="2.217 15.75 6.75 12 11.022 15.75"/><line class="a" x1="6.75" y1="5.25" x2="6.75" y2="12"/><rect class="a" x="20.25" y="9" width="3" height="4.5" rx="0.433" ry="0.433"/><rect class="a" x="0.75" y="15.75" width="12" height="7.5" rx="0.645" ry="0.645"/><line class="a" x1="3.75" y1="18.75" x2="3.75" y2="20.25"/><line class="a" x1="6.75" y1="18.75" x2="6.75" y2="20.25"/><line class="a" x1="9.75" y1="18.75" x2="9.75" y2="20.25"/><line class="a" x1="21.75" y1="5.25" x2="21.75" y2="9"/><path class="a" d="M16.967.78a.865.865,0,0,1,.767.162L23.25,5.25H.75Z"/><path class="a" d="M17.25,9.033h-.5c-4-.473-4-3.31-4-3.31V5.25"/><line class="a" x1="17.25" y1="0.797" x2="17.25" y2="23.25"/></svg>