<svg xmlns="http://www.w3.org/2000/svg" viewBox="0 0 24 24"><defs><style>.a{fill:none;stroke:currentColor;stroke-linecap:round;stroke-linejoin:round;stroke-width:1.5px;}</style></defs><title>shipment-fragile</title><path class="a" d="M15.75,9.163a.524.524,0,0,1-.271.457.547.547,0,0,1-.54-.007L12,8.25,9.033,9.691a.544.544,0,0,1-.525-.017.523.523,0,0,1-.258-.449V.75h7.5Z"/><rect class="a" x="0.75" y="0.75" width="22.5" height="22.5" rx="1.5" ry="1.5"/><polyline class="a" points="15.75 15 18 12.75 20.25 15"/><line class="a" x1="18" y1="12.75" x2="18" y2="20.25"/><line class="a" x1="11.25" y1="17.25" x2="11.25" y2="20.25"/><line class="a" x1="9.75" y1="20.25" x2="12.75" y2="20.25"/><path class="a" d="M11.25,17.25a2.081,2.081,0,0,1-1.974-1.423,2.278,2.278,0,0,1-.056-1.485l.53-1.592h3l.531,1.592a2.311,2.311,0,0,1-.056,1.485A2.082,2.082,0,0,1,11.25,17.25Z"/></svg>