<svg xmlns="http://www.w3.org/2000/svg" viewBox="0 0 24 24"><defs><style>.a{fill:none;stroke:currentColor;stroke-linecap:round;stroke-linejoin:round;stroke-width:1.5px;}</style></defs><title>shipment-boat</title><path class="a" d="M20.669,22.5H14.427a1.5,1.5,0,0,1-1.342-.829L11.25,18h12l-1.158,3.474A1.5,1.5,0,0,1,20.669,22.5Z"/><path class="a" d="M22.5,12.75H20.25a.75.75,0,0,0-.75.75V18h3.75V13.5A.75.75,0,0,0,22.5,12.75Z"/><path class="a" d="M17.25,18h-4.5V15.75A.75.75,0,0,1,13.5,15h3"/><line class="a" x1="21.75" y1="12.75" x2="21.75" y2="10.5"/><path class="a" d="M8.25,19.5h-6A1.5,1.5,0,0,1,.75,18V7.5A1.5,1.5,0,0,1,2.25,6h15a1.5,1.5,0,0,1,1.5,1.5V9"/><path class="a" d="M18.266,6.4,15.445,2.168A1.5,1.5,0,0,0,14.2,1.5H5.3a1.5,1.5,0,0,0-1.248.668L1.234,6.4"/><line class="a" x1="9.75" y1="1.5" x2="9.75" y2="6"/></svg>