<svg xmlns="http://www.w3.org/2000/svg" viewBox="0 0 24 24"><defs><style>.a{fill:none;stroke:currentColor;stroke-linecap:round;stroke-linejoin:round;stroke-width:1.5px;}</style></defs><title>shipment-delivered</title><path class="a" d="M7.5,14.25H2.25a1.5,1.5,0,0,1-1.5-1.5V2.25A1.5,1.5,0,0,1,2.25.75h12a1.5,1.5,0,0,1,1.5,1.5V6"/><path class="a" d="M23.25,21.939c-3.442,1.657-3.683,1.273-7.437,1.273-1.776,0-2.671-1.157-3.194-2.854l0-.011-1.24-4.2,0-.008a1.352,1.352,0,0,1,.205-1.2,2.2,2.2,0,0,1,1.086-.7h3.309c.527,0,1.021,0,1.277-.332a1.348,1.348,0,0,0,.236-1.168l-.8-2.3a1.17,1.17,0,0,1,2.063-.958l3.3,4.675a1.35,1.35,0,0,0,1.1.571"/><rect class="a" x="6" y="0.75" width="4.5" height="7.5"/></svg>