<svg xmlns="http://www.w3.org/2000/svg" viewBox="0 0 24 24"><defs><style>.a{fill:none;stroke:currentColor;stroke-linecap:round;stroke-linejoin:round;stroke-width:1.5px;}</style></defs><title>shipment-lift-1</title><polyline class="a" points="2.217 12.727 6.75 8.977 11.022 12.727"/><line class="a" x1="6.75" y1="5.227" x2="6.75" y2="8.977"/><rect class="a" x="20.25" y="8.977" width="3" height="4.5" rx="0.433" ry="0.433"/><rect class="a" x="0.75" y="12.727" width="12" height="7.5" rx="0.645" ry="0.645"/><line class="a" x1="3.75" y1="15.727" x2="3.75" y2="17.227"/><line class="a" x1="6.75" y1="15.727" x2="6.75" y2="17.227"/><line class="a" x1="9.75" y1="15.727" x2="9.75" y2="17.227"/><line class="a" x1="21.75" y1="5.227" x2="21.75" y2="8.977"/><line class="a" x1="18.75" y1="15.727" x2="18.75" y2="23.227"/><line class="a" x1="18.75" y1="0.773" x2="18.75" y2="7.477"/><line class="a" x1="15" y1="10.477" x2="15" y2="23.227"/><line class="a" x1="15" y1="0.773" x2="15" y2="10.477"/><line class="a" x1="0.75" y1="5.227" x2="15" y2="5.227"/><line class="a" x1="18.75" y1="5.227" x2="23.25" y2="5.227"/><polyline class="a" points="17.55 13.477 15 15.727 18.75 18.727 15 21.727"/><polyline class="a" points="15 1.477 18.75 4.477 15 8.227 17.547 10.473"/></svg>