<svg xmlns="http://www.w3.org/2000/svg" viewBox="0 0 24 24"><defs><style>.a{fill:none;stroke:currentColor;stroke-linecap:round;stroke-linejoin:round;stroke-width:1.5px;}</style></defs><title>shipment-next</title><polyline class="a" points="20.25 12 23.25 15 20.25 18"/><path class="a" d="M23.25,15h-3a7.5,7.5,0,0,0-7.5,7.5h0"/><path class="a" d="M8.25,19.5h-6A1.5,1.5,0,0,1,.75,18V7.5A1.5,1.5,0,0,1,2.25,6h15a1.5,1.5,0,0,1,1.5,1.5V9"/><path class="a" d="M18.266,6.4,15.445,2.168A1.5,1.5,0,0,0,14.2,1.5H5.3a1.5,1.5,0,0,0-1.248.668L1.234,6.4"/><line class="a" x1="9.75" y1="1.5" x2="9.75" y2="6"/></svg>