<svg xmlns="http://www.w3.org/2000/svg" viewBox="0 0 24 24"><defs><style>.a{fill:none;stroke:currentColor;stroke-linecap:round;stroke-linejoin:round;stroke-width:1.5px;}</style></defs><title>shipment-plane</title><path class="a" d="M20.777,11.915,11.891,14.9,10.7,13.719l-1.766.594a.749.749,0,0,0-.32,1.21L11.005,18.2a1.5,1.5,0,0,0,1.6.422l2.617-.879-.53,3.78a.749.749,0,0,0,.981.815l1.361-.457a.752.752,0,0,0,.46-.439l1.994-5.133,2.488-.836a1.875,1.875,0,1,0-1.2-3.555Z"/><path class="a" d="M18.289,12.751l-2.78-1.914a.749.749,0,0,0-.664-.093l-1.338.45a.749.749,0,0,0-.29,1.242l1.517,1.51"/><path class="a" d="M8.25,19.625h-6a1.5,1.5,0,0,1-1.5-1.5V7.625a1.5,1.5,0,0,1,1.5-1.5h15a1.5,1.5,0,0,1,1.5,1.5v1.5"/><path class="a" d="M18.266,6.521,15.445,2.293A1.5,1.5,0,0,0,14.2,1.625H5.3a1.5,1.5,0,0,0-1.248.668L1.234,6.521"/><line class="a" x1="9.75" y1="1.625" x2="9.75" y2="6.125"/></svg>