<svg id="Regular" xmlns="http://www.w3.org/2000/svg" viewBox="0 0 24 24"><defs><style>.cls-1{fill:none;stroke:currentColor;stroke-linecap:round;stroke-linejoin:round;stroke-width:1.5px;}</style></defs><title>shirt</title><path class="cls-1" d="M6,8.25V22.5a.75.75,0,0,0,.75.75h10.5A.75.75,0,0,0,18,22.5V8.25"/><path class="cls-1" d="M18,12.75h3.75A.75.75,0,0,0,22.5,12V6.75a6,6,0,0,0-6-6H15a3,3,0,0,1-6,0H7.5a6,6,0,0,0-6,6V12a.75.75,0,0,0,.75.75H6"/><line class="cls-1" x1="12" y1="3.75" x2="12" y2="6.75"/><line class="cls-1" x1="15" y1="9.75" x2="13.5" y2="9.75"/></svg>