<svg id="Regular" xmlns="http://www.w3.org/2000/svg" viewBox="0 0 24 24"><defs><style>.cls-1{fill:none;stroke:currentColor;stroke-linecap:round;stroke-linejoin:round;stroke-width:1.5px;}</style></defs><title>shooting-rifle-target</title><line class="cls-1" x1="13.608" y1="8.712" x2="23.25" y2="1.495"/><line class="cls-1" x1="21.643" y1="2.698" x2="20.185" y2="0.75"/><path class="cls-1" d="M3,23.01A.586.586,0,0,0,3.943,23l4.392-6.12,6.631-4.963a.75.75,0,0,0,.151-1.05L13.608,8.712,6.376,14.125,5.651,15.89l-4.7,3.55a.5.5,0,0,0-.1.7Z"/><circle class="cls-1" cx="5.25" cy="5.25" r="3"/><line class="cls-1" x1="5.25" y1="2.25" x2="5.25" y2="0.75"/><line class="cls-1" x1="8.25" y1="5.25" x2="9.75" y2="5.25"/><line class="cls-1" x1="5.25" y1="8.25" x2="5.25" y2="9.75"/><line class="cls-1" x1="2.25" y1="5.25" x2="0.75" y2="5.25"/></svg>