<svg id="Regular" xmlns="http://www.w3.org/2000/svg" viewBox="0 0 24 24"><defs><style>.cls-1{fill:none;stroke:currentColor;stroke-linecap:round;stroke-linejoin:round;stroke-width:1.5px;}</style></defs><title>shooting-target</title><path class="cls-1" d="M20.25,23.25V18a8.247,8.247,0,0,0-5.268-7.686,5.25,5.25,0,1,0-5.964,0A8.247,8.247,0,0,0,3.75,18v5.25"/><circle class="cls-1" cx="12" cy="18" r="3.75"/><path class="cls-1" d="M12,17.625a.375.375,0,0,1,.375.375"/><path class="cls-1" d="M11.625,18A.375.375,0,0,1,12,17.625"/><path class="cls-1" d="M12,18.375A.375.375,0,0,1,11.625,18"/><path class="cls-1" d="M12.375,18a.375.375,0,0,1-.375.375"/></svg>