<svg id="Regular" xmlns="http://www.w3.org/2000/svg" viewBox="0 0 24 24"><defs><style>.cls-1{fill:none;stroke:currentColor;stroke-linecap:round;stroke-linejoin:round;stroke-width:1.5px;}</style></defs><title>shooting-rifle-aim</title><path class="cls-1" d="M14.25,11.25v1.5a1.5,1.5,0,0,1-1.5,1.5H8.25L3.022,17.387A1.5,1.5,0,0,1,.75,16.1V14.25a1.5,1.5,0,0,1,1.5-1.5h3l2.25-1.5H23.25"/><line class="cls-1" x1="21.75" y1="11.25" x2="21.75" y2="9"/><path class="cls-1" d="M3.261,9.75A9.752,9.752,0,0,1,20.44,6.005"/><path class="cls-1" d="M22.239,14.251A9.752,9.752,0,0,1,6.526,19.505"/><line class="cls-1" x1="12.75" y1="8.25" x2="12.75" y2="0.75"/><line class="cls-1" x1="12.75" y1="23.25" x2="12.75" y2="17.25"/><path class="cls-1" d="M9.076,8.25a5.251,5.251,0,0,1,7.353,0"/><path class="cls-1" d="M17.494,14.251A5.253,5.253,0,0,1,10.041,16.5"/></svg>