<svg id="Regular" xmlns="http://www.w3.org/2000/svg" viewBox="0 0 24 24"><defs><style>.cls-1{fill:none;stroke:currentColor;stroke-linecap:round;stroke-linejoin:round;stroke-width:1.5px;}</style></defs><title>shooting-rifle-person-aim</title><circle class="cls-1" cx="6" cy="3.375" r="2.625"/><path class="cls-1" d="M.978,20.955,4.5,15.32V9.75A1.5,1.5,0,0,1,6.961,8.6l2.616,2.181a1.507,1.507,0,0,0,1.9.019l1.836-1.469a1.5,1.5,0,1,1,1.875,2.344l-1.836,1.469A4.525,4.525,0,0,1,7.5,12.952v2.367l3.521,5.636a1.5,1.5,0,1,1-2.543,1.59L6,18.58,3.521,22.545a1.5,1.5,0,0,1-1.273.7,1.48,1.48,0,0,1-.793-.229A1.5,1.5,0,0,1,.978,20.955Z"/><path class="cls-1" d="M23.25,3.75v1.5H13.11a3,3,0,0,0-1.953.722l-3.621,3.1"/><line class="cls-1" x1="16.5" y1="3" x2="12" y2="3"/><path class="cls-1" d="M19.5,5.25v1.5A1.5,1.5,0,0,1,18,8.25h-.75"/></svg>