<svg xmlns="http://www.w3.org/2000/svg" viewBox="0 0 24 24"><defs><style>.a{fill:none;stroke:currentColor;stroke-linecap:round;stroke-linejoin:round;stroke-width:1.5px;}</style></defs><title>shopping-basket-rating</title><path class="a" d="M16.7,23.25H7.3a1.116,1.116,0,0,1-1.086-.84l-1.68-6.033A1.111,1.111,0,0,1,5.62,15H18.379a1.111,1.111,0,0,1,1.087,1.377l-1.68,6.033A1.116,1.116,0,0,1,16.7,23.25Z"/><line class="a" x1="6.857" y1="15" x2="8.25" y2="12"/><line class="a" x1="17.143" y1="15" x2="15.75" y2="12"/><path class="a" d="M11.566,1.018a.485.485,0,0,1,.868,0L13.443,3.06a.484.484,0,0,0,.363.263l2.263.328a.479.479,0,0,1,.389.325.474.474,0,0,1-.12.489L14.7,6.065a.476.476,0,0,0-.138.421l.387,2.255a.475.475,0,0,1-.193.467.487.487,0,0,1-.509.035L12.226,8.184a.49.49,0,0,0-.453,0L9.758,9.243a.487.487,0,0,1-.509-.035.473.473,0,0,1-.194-.467l.387-2.255a.473.473,0,0,0-.137-.421l-1.643-1.6a.474.474,0,0,1-.121-.489.481.481,0,0,1,.389-.325l2.263-.328a.484.484,0,0,0,.364-.263Z"/><path class="a" d="M6.322,10.138l-.863-.454a.49.49,0,0,0-.453,0L2.99,10.743a.487.487,0,0,1-.509-.035.475.475,0,0,1-.193-.467l.387-2.255a.478.478,0,0,0-.137-.421L.894,5.965a.474.474,0,0,1-.12-.489.48.48,0,0,1,.389-.325l2.263-.328A.484.484,0,0,0,3.79,4.56L4.8,2.518a.484.484,0,0,1,.434-.268"/><path class="a" d="M17.678,10.138l.863-.454a.49.49,0,0,1,.453,0l2.015,1.059a.489.489,0,0,0,.51-.035.475.475,0,0,0,.193-.467l-.387-2.255a.475.475,0,0,1,.137-.421l1.644-1.6a.476.476,0,0,0,.12-.489.481.481,0,0,0-.389-.325l-2.263-.328a.484.484,0,0,1-.364-.263L19.2,2.518a.483.483,0,0,0-.434-.268"/><line class="a" x1="9.75" y1="17.625" x2="9.75" y2="20.625"/><line class="a" x1="14.25" y1="17.625" x2="14.25" y2="20.625"/></svg>