<svg xmlns="http://www.w3.org/2000/svg" viewBox="0 0 24 24"><defs><style>.a{fill:none;stroke:currentColor;stroke-linecap:round;stroke-linejoin:round;stroke-width:1.5px;}</style></defs><title>shop-arrow</title><path class="a" d="M9.7.75H1.5l2.85,3H8.4a4.747,4.747,0,0,1,2.878.938l.439.337L10.05,6.75h5.7V1.95l-1.425,1.2L12.727,1.8A4.714,4.714,0,0,0,9.7.75Z"/><path class="a" d="M1.479,7.217.75,10.5a2.25,2.25,0,0,0,4.5,0,2.25,2.25,0,0,0,4.5,0,2.25,2.25,0,0,0,4.5,0,2.25,2.25,0,0,0,4.5,0,2.25,2.25,0,0,0,4.5,0L21.88,4.337a.749.749,0,0,0-.732-.587h-2.4"/><polyline class="a" points="2.25 15.75 2.25 23.25 21.75 23.25 21.75 15.75"/><line class="a" x1="15.75" y1="23.25" x2="15.75" y2="15.75"/><line class="a" x1="2.25" y1="19.5" x2="15.75" y2="19.5"/></svg>