<svg xmlns="http://www.w3.org/2000/svg" viewBox="0 0 24 24"><defs><style>.a{fill:none;stroke:currentColor;stroke-linecap:round;stroke-linejoin:round;stroke-width:1.5px;}</style></defs><title>shopping-basket-arrow-in</title><path class="a" d="M18.936,23.25H5.064a1.442,1.442,0,0,1-1.383-1.137l-2.138-9A1.484,1.484,0,0,1,2.926,11.25H21.074a1.485,1.485,0,0,1,1.383,1.863l-2.138,9A1.442,1.442,0,0,1,18.936,23.25Z"/><line class="a" x1="6" y1="11.25" x2="1.5" y2="5.25"/><line class="a" x1="18" y1="11.25" x2="22.5" y2="5.25"/><line class="a" x1="16.5" y1="15" x2="16.5" y2="19.5"/><line class="a" x1="12" y1="15" x2="12" y2="19.5"/><line class="a" x1="7.5" y1="15" x2="7.5" y2="19.5"/><line class="a" x1="12" y1="0.75" x2="12" y2="8.5"/><line class="a" x1="12" y1="8.5" x2="15.75" y2="4.75"/><line class="a" x1="12" y1="8.5" x2="8.25" y2="4.75"/></svg>