<svg xmlns="http://www.w3.org/2000/svg" viewBox="0 0 24 24"><defs><style>.a{fill:none;stroke:currentColor;stroke-linecap:round;stroke-linejoin:round;stroke-width:1.5px;}</style></defs><title>shopping-basket-cash</title><path class="a" d="M18.75,14.25H16.717a1.342,1.342,0,0,0-.5,2.587l2.063.825a1.342,1.342,0,0,1-.5,2.588H15.75"/><line class="a" x1="17.25" y1="14.25" x2="17.25" y2="13.5"/><line class="a" x1="17.25" y1="21" x2="17.25" y2="20.25"/><circle class="a" cx="17.25" cy="17.25" r="6"/><path class="a" d="M7.875,17.25H4.314a1.442,1.442,0,0,1-1.383-1.136l-2.138-9A1.484,1.484,0,0,1,2.176,5.25H20.324a1.484,1.484,0,0,1,1.383,1.864l-.3,1.256"/><line class="a" x1="3.75" y1="5.25" x2="8.25" y2="0.75"/><line class="a" x1="18.75" y1="5.25" x2="14.25" y2="0.752"/></svg>