<svg xmlns="http://www.w3.org/2000/svg" viewBox="0 0 24 24"><defs><style>.a{fill:none;stroke:currentColor;stroke-linecap:round;stroke-linejoin:round;stroke-width:1.5px;}</style></defs><title>shopping-bag-user-message</title><path class="a" d="M15.518,4.5H8.466a.747.747,0,0,0-.717.706l-1,8.165a.765.765,0,0,0,.718.871h9.048a.765.765,0,0,0,.718-.871l-1-8.165A.747.747,0,0,0,15.518,4.5Z"/><path class="a" d="M13.832,7.47a1.878,1.878,0,0,1-1.841,1.522h0a1.879,1.879,0,0,1-1.839-1.513"/><path class="a" d="M23.242,16.5a1.5,1.5,0,0,1-1.5,1.5h-3.75v5.25L10.492,18H2.242a1.5,1.5,0,0,1-1.5-1.5V2.25a1.5,1.5,0,0,1,1.5-1.5h19.5a1.5,1.5,0,0,1,1.5,1.5Z"/></svg>