<svg xmlns="http://www.w3.org/2000/svg" viewBox="0 0 24 24"><defs><style>.a{fill:none;stroke:currentColor;stroke-linecap:round;stroke-linejoin:round;stroke-width:1.5px;}</style></defs><title>shop-dislike</title><path class="a" d="M4.785.75a.962.962,0,0,0-.895.664L2.376,5.691A2.207,2.207,0,0,0,2.362,7.12,2.655,2.655,0,0,0,4.844,9,2.741,2.741,0,0,0,7.479,6.164,2.741,2.741,0,0,0,10.114,9,2.742,2.742,0,0,0,12.75,6.164,2.741,2.741,0,0,0,15.385,9a2.742,2.742,0,0,0,2.636-2.836A2.741,2.741,0,0,0,20.656,9a2.656,2.656,0,0,0,2.482-1.88,2.207,2.207,0,0,0-.014-1.429L21.61,1.414a.963.963,0,0,0-.9-.664Z"/><path class="a" d="M21.75,8.744V19.5a1.5,1.5,0,0,1-1.5,1.5h-4.5"/><path class="a" d="M3.75,12.749a3.026,3.026,0,0,0,.779-.115l1.817-.519A2.979,2.979,0,0,1,7.169,12H9.612A3,3,0,0,1,12.6,14.7l.15,2.549a2.25,2.25,0,0,1-1.7,2.3l-.728.159a.749.749,0,0,0-.568.727v1.692a1.125,1.125,0,0,1-2.25,0v-.777A3.75,3.75,0,0,0,3.75,17.6Z"/><polyline class="a" points="0.75 12 3.75 12 3.75 18.75 0.75 18.75"/></svg>