<svg xmlns="http://www.w3.org/2000/svg" viewBox="0 0 24 24"><defs><style>.a{fill:none;stroke:currentColor;stroke-linecap:round;stroke-linejoin:round;stroke-width:1.5px;}</style></defs><title>shop-close</title><path class="a" d="M21.148,1.5H2.852a.751.751,0,0,0-.733.587L.75,8.25a2.25,2.25,0,0,0,4.5,0,2.25,2.25,0,0,0,4.5,0,2.25,2.25,0,0,0,4.5,0,2.25,2.25,0,0,0,4.5,0,2.25,2.25,0,0,0,4.5,0L21.88,2.087A.749.749,0,0,0,21.148,1.5Z"/><path class="a" d="M3.75,15a3,3,0,0,0-3,3v1.5a3,3,0,0,0,3,3"/><path class="a" d="M11.25,15a1.5,1.5,0,0,0-1.5,1.5V21a1.5,1.5,0,0,0,3,0V16.5A1.5,1.5,0,0,0,11.25,15Z"/><path class="a" d="M5.25,15v6a1.5,1.5,0,0,0,1.5,1.5h1.5"/><path class="a" d="M18,15H16.5A1.5,1.5,0,0,0,15,16.5c0,2.25,3,2.25,3,4.5a1.5,1.5,0,0,1-1.5,1.5H15"/><path class="a" d="M23.25,22.5h-1.5a1.5,1.5,0,0,1-1.5-1.5V16.5a1.5,1.5,0,0,1,1.5-1.5h1.5"/><line class="a" x1="20.25" y1="19.5" x2="23.25" y2="19.5"/></svg>