<svg xmlns="http://www.w3.org/2000/svg" viewBox="0 0 24 24"><defs><style>.a{fill:none;stroke:currentColor;stroke-linecap:round;stroke-linejoin:round;stroke-width:1.5px;}</style></defs><title>shopping-basket-smile-1</title><path class="a" d="M9,2.006A7.953,7.953,0,0,0,4.417,6"/><path class="a" d="M19.583,6A7.951,7.951,0,0,0,15,2.006"/><rect class="a" x="9" y="0.75" width="6" height="3" rx="1.125" ry="1.125"/><path class="a" d="M18.936,23.25H5.064a1.442,1.442,0,0,1-1.383-1.136l-2.138-10.5A1.484,1.484,0,0,1,2.926,9.75H21.074a1.484,1.484,0,0,1,1.383,1.864l-2.138,10.5A1.442,1.442,0,0,1,18.936,23.25Z"/><path class="a" d="M9,13.017a.375.375,0,1,1-.375.375A.375.375,0,0,1,9,13.017"/><path class="a" d="M15,13.017a.375.375,0,1,1-.375.375A.375.375,0,0,1,15,13.017"/><path class="a" d="M16.21,18a5.064,5.064,0,0,1-8.42,0"/></svg>