<svg xmlns="http://www.w3.org/2000/svg" viewBox="0 0 24 24"><defs><style>.a{fill:none;stroke:currentColor;stroke-linecap:round;stroke-linejoin:round;stroke-width:1.5px;}</style></defs><title>shop-cashier-woman</title><path class="a" d="M18.75,15.75a6.789,6.789,0,0,0-3.724-4.533L12,15,8.974,11.217A6.789,6.789,0,0,0,5.25,15.75"/><path class="a" d="M7.876,4.97v1a5.9,5.9,0,0,1-.859,3.272"/><path class="a" d="M16.123,4.97v1a5.9,5.9,0,0,0,.86,3.272"/><path class="a" d="M7.888,5.188A5.483,5.483,0,0,0,12,3.289a5.483,5.483,0,0,0,4.112,1.9"/><path class="a" d="M16.125,4.859A4.125,4.125,0,1,1,12,.75,4.125,4.125,0,0,1,16.125,4.859Z"/><path class="a" d="M21.75,23.25v-3a1.5,1.5,0,0,0-1.5-1.5H3.75a1.5,1.5,0,0,0-1.5,1.5v3"/></svg>