<svg xmlns="http://www.w3.org/2000/svg" viewBox="0 0 24 24"><defs><style>.a{fill:none;stroke:currentColor;stroke-linecap:round;stroke-linejoin:round;stroke-width:1.5px;}</style></defs><title>shopping-basket-woman</title><path class="a" d="M14.25,18.75l.75,4.5h4.5l.75-4.5h3L21,12c-.75-2.25-1.679-3.75-3.75-3.75s-3,1.5-3.75,3.75l-.8,2.4"/><circle class="a" cx="17.25" cy="3.75" r="3"/><path class="a" d="M9.922,17.25H2.251a1.5,1.5,0,0,0-1.4,2.026l1.307,3.487a.75.75,0,0,0,.7.487H9.317a.749.749,0,0,0,.7-.487l1.308-3.487A1.5,1.5,0,0,0,9.922,17.25Z"/><line class="a" x1="2.337" y1="17.25" x2="3.837" y2="13.5"/><line class="a" x1="9.837" y1="17.25" x2="8.337" y2="13.5"/></svg>