<svg xmlns="http://www.w3.org/2000/svg" viewBox="0 0 24 24"><defs><style>.a{fill:none;stroke:currentColor;stroke-linecap:round;stroke-linejoin:round;stroke-width:1.5px;}</style></defs><title>shopping-basket-like</title><path class="a" d="M2.25,22.5a3.026,3.026,0,0,1,.779.115l1.817.519a2.98,2.98,0,0,0,.823.116H8.112a3,3,0,0,0,2.985-2.7L11.247,18a2.249,2.249,0,0,0-1.7-2.3l-.728-.16a.749.749,0,0,1-.568-.727V13.125a1.125,1.125,0,0,0-2.25,0V13.9a3.75,3.75,0,0,1-3.75,3.75Z"/><polyline class="a" points="0.75 16.5 2.25 16.5 2.25 23.25 0.75 23.25"/><path class="a" d="M2.952,10.636,2.293,7.863A1.484,1.484,0,0,1,3.676,6H21.824a1.484,1.484,0,0,1,1.383,1.863l-2.138,9A1.442,1.442,0,0,1,19.686,18H14.25"/><line class="a" x1="5.25" y1="6" x2="9.75" y2="0.75"/><line class="a" x1="20.25" y1="6" x2="15.75" y2="0.75"/></svg>