<svg xmlns="http://www.w3.org/2000/svg" viewBox="0 0 24 24"><defs><style>.a{fill:none;stroke:currentColor;stroke-linecap:round;stroke-linejoin:round;stroke-width:1.5px;}</style></defs><title>shopping-bag-barcode</title><path class="a" d="M19.009,12.742l-.773-4.579A1.5,1.5,0,0,0,16.8,6.75H4.186A1.5,1.5,0,0,0,2.75,8.163l-2,11.842A1.533,1.533,0,0,0,2.187,21.75h8.306"/><path class="a" d="M14.178,3.807A3.763,3.763,0,0,0,10.493.75h0A3.764,3.764,0,0,0,6.811,3.788"/><line class="a" x1="14.243" y1="17.25" x2="14.243" y2="18"/><line class="a" x1="14.243" y1="21" x2="14.243" y2="23.25"/><line class="a" x1="23.243" y1="21" x2="23.243" y2="23.25"/><line class="a" x1="23.243" y1="17.25" x2="23.243" y2="18"/><line class="a" x1="20.243" y1="17.25" x2="20.243" y2="23.25"/><line class="a" x1="17.243" y1="17.25" x2="17.243" y2="19.5"/><line class="a" x1="17.243" y1="22.5" x2="17.243" y2="23.25"/></svg>