<svg xmlns="http://www.w3.org/2000/svg" viewBox="0 0 24 24"><defs><style>.a{fill:none;stroke:currentColor;stroke-linecap:round;stroke-linejoin:round;stroke-width:1.5px;}</style></defs><title>shop-sale-1</title><path class="a" d="M21.148,1.5H2.852a.751.751,0,0,0-.733.587L.75,8.25a2.25,2.25,0,0,0,4.5,0,2.25,2.25,0,0,0,4.5,0,2.25,2.25,0,0,0,4.5,0,2.25,2.25,0,0,0,4.5,0,2.25,2.25,0,0,0,4.5,0L21.88,2.087A.749.749,0,0,0,21.148,1.5Z"/><path class="a" d="M13.5,15v6A1.5,1.5,0,0,0,15,22.5h1.5"/><path class="a" d="M4.5,15H3a1.5,1.5,0,0,0-1.5,1.5c0,2.25,3,2.25,3,4.5A1.5,1.5,0,0,1,3,22.5H1.5"/><path class="a" d="M7.5,22.5v-6a1.5,1.5,0,0,1,3,0v6"/><line class="a" x1="7.5" y1="19.5" x2="10.5" y2="19.5"/><path class="a" d="M22.5,22.5H21A1.5,1.5,0,0,1,19.5,21V16.5A1.5,1.5,0,0,1,21,15h1.5"/><line class="a" x1="19.5" y1="19.5" x2="22.5" y2="19.5"/></svg>