<svg xmlns="http://www.w3.org/2000/svg" viewBox="0 0 24 24"><defs><style>.a{fill:none;stroke:currentColor;stroke-linecap:round;stroke-linejoin:round;stroke-width:1.5px;}</style></defs><title>shopping-basket-sync</title><polyline class="a" points="15 18.75 11.25 18.75 11.25 22.5"/><path class="a" d="M22.667,19.483a5.572,5.572,0,0,1-10.74-.733"/><polyline class="a" points="19.5 15.75 23.25 15.75 23.25 12"/><path class="a" d="M11.833,15.017a5.572,5.572,0,0,1,10.74.733"/><path class="a" d="M7.875,17.25H4.314a1.442,1.442,0,0,1-1.383-1.136l-2.138-9A1.484,1.484,0,0,1,2.176,5.25H20.324a1.485,1.485,0,0,1,1.383,1.864l-.3,1.256"/><line class="a" x1="3.75" y1="5.25" x2="8.25" y2="0.75"/><line class="a" x1="18.75" y1="5.25" x2="14.25" y2="0.752"/></svg>