<svg xmlns="http://www.w3.org/2000/svg" viewBox="0 0 24 24"><defs><style>.a{fill:none;stroke:currentColor;stroke-linecap:round;stroke-linejoin:round;stroke-width:1.5px;}</style></defs><title>shopping-cart-man-message</title><polyline class="a" points="16.875 3.75 14.625 11.25 8.625 11.25 7.125 6.75 15.975 6.75"/><path class="a" d="M9,13.5a.375.375,0,1,1-.375.375A.374.374,0,0,1,9,13.5"/><path class="a" d="M14.25,13.5a.375.375,0,1,1-.375.375.374.374,0,0,1,.375-.375"/><path class="a" d="M23.25,16.5a1.5,1.5,0,0,1-1.5,1.5H18v5.25L10.5,18H2.25a1.5,1.5,0,0,1-1.5-1.5V2.25A1.5,1.5,0,0,1,2.25.75h19.5a1.5,1.5,0,0,1,1.5,1.5Z"/></svg>