<svg xmlns="http://www.w3.org/2000/svg" viewBox="0 0 24 24"><defs><style>.a{fill:none;stroke:currentColor;stroke-linecap:round;stroke-linejoin:round;stroke-width:1.5px;}</style></defs><title>shopping-basket-star</title><path class="a" d="M17.956,11.68,19.5,15.75h2.994a.735.735,0,0,1,.518,1.283l-2.6,1.815,1.44,3.314a.785.785,0,0,1-1.117.982L17.25,21.183l-3.48,1.961a.785.785,0,0,1-1.117-.982l1.44-3.314-2.6-1.815a.734.734,0,0,1,.514-1.283h3l1.541-4.07A.794.794,0,0,1,17.956,11.68Z"/><path class="a" d="M7.875,17.25H4.314a1.442,1.442,0,0,1-1.383-1.136l-2.138-9A1.484,1.484,0,0,1,2.176,5.25H20.324a1.485,1.485,0,0,1,1.383,1.864l-.3,1.256"/><line class="a" x1="3.75" y1="5.25" x2="8.25" y2="0.75"/><line class="a" x1="18.75" y1="5.25" x2="14.25" y2="0.752"/></svg>