<svg xmlns="http://www.w3.org/2000/svg" viewBox="0 0 24 24"><defs><style>.a{fill:none;stroke:currentColor;stroke-linecap:round;stroke-linejoin:round;stroke-width:1.5px;}</style></defs><title>shop-cart</title><path class="a" d="M21.148.75H2.852a.751.751,0,0,0-.733.587L.75,7.5a2.25,2.25,0,0,0,4.5,0,2.25,2.25,0,0,0,4.5,0,2.25,2.25,0,0,0,4.5,0,2.25,2.25,0,0,0,4.5,0,2.25,2.25,0,0,0,4.5,0L21.88,1.337A.749.749,0,0,0,21.148.75Z"/><line class="a" x1="21.75" y1="23.25" x2="21.75" y2="12.75"/><line class="a" x1="2.25" y1="12.75" x2="2.25" y2="23.25"/><path class="a" d="M15.749,17.25H8.078a1.5,1.5,0,0,0-1.4,2.026l1.308,3.487a.748.748,0,0,0,.7.487h6.46a.751.751,0,0,0,.7-.487l1.307-3.487A1.5,1.5,0,0,0,15.749,17.25Z"/><line class="a" x1="8.163" y1="17.25" x2="9.663" y2="13.5"/><line class="a" x1="15.663" y1="17.25" x2="14.163" y2="13.5"/><line class="a" x1="10.5" y1="21" x2="10.5" y2="19.5"/><line class="a" x1="13.5" y1="21" x2="13.5" y2="19.5"/></svg>