<svg xmlns="http://www.w3.org/2000/svg" viewBox="0 0 24 24"><defs><style>.a{fill:none;stroke:currentColor;stroke-linecap:round;stroke-linejoin:round;stroke-width:1.5px;}</style></defs><title>shop</title><path class="a" d="M21.75,12.75v9a1.5,1.5,0,0,1-1.5,1.5H3.75a1.5,1.5,0,0,1-1.5-1.5v-9"/><path class="a" d="M21.148.75H2.852a.751.751,0,0,0-.733.587L.75,7.5a2.25,2.25,0,0,0,4.5,0,2.25,2.25,0,0,0,4.5,0,2.25,2.25,0,0,0,4.5,0,2.25,2.25,0,0,0,4.5,0,2.25,2.25,0,0,0,4.5,0L21.88,1.337A.749.749,0,0,0,21.148.75Z"/><line class="a" x1="2.25" y1="17.25" x2="15" y2="17.25"/><line class="a" x1="15" y1="23.25" x2="15" y2="12.75"/></svg>