<svg xmlns="http://www.w3.org/2000/svg" viewBox="0 0 24 24"><defs><style>.a{fill:none;stroke:currentColor;stroke-linecap:round;stroke-linejoin:round;stroke-width:1.5px;}</style></defs><title>shopping-basket-smile</title><line class="a" x1="4.5" y1="8.25" x2="8.25" y2="2.25"/><line class="a" x1="19.5" y1="8.25" x2="15.75" y2="2.25"/><path class="a" d="M18.936,21.75H5.064a1.442,1.442,0,0,1-1.383-1.136l-2.138-10.5A1.484,1.484,0,0,1,2.926,8.25H21.074a1.484,1.484,0,0,1,1.383,1.864l-2.138,10.5A1.442,1.442,0,0,1,18.936,21.75Z"/><path class="a" d="M9,11.517a.375.375,0,1,1-.375.375A.375.375,0,0,1,9,11.517"/><path class="a" d="M15,11.517a.375.375,0,1,1-.375.375A.375.375,0,0,1,15,11.517"/><path class="a" d="M16.21,16.5a5.064,5.064,0,0,1-8.42,0"/></svg>