<svg xmlns="http://www.w3.org/2000/svg" viewBox="0 0 24 24"><defs><style>.a{fill:none;stroke:currentColor;stroke-linecap:round;stroke-linejoin:round;stroke-width:1.5px;}</style></defs><title>shopping-basket-handle</title><path class="a" d="M18.936,23.25H5.064a1.442,1.442,0,0,1-1.383-1.136l-2.138-9A1.484,1.484,0,0,1,2.926,11.25H21.074a1.484,1.484,0,0,1,1.383,1.864l-2.138,9A1.442,1.442,0,0,1,18.936,23.25Z"/><line class="a" x1="7.5" y1="14.25" x2="7.5" y2="20.25"/><line class="a" x1="12" y1="14.25" x2="12" y2="20.25"/><line class="a" x1="16.5" y1="14.25" x2="16.5" y2="20.25"/><path class="a" d="M9,2.006A7.585,7.585,0,0,0,3.782,8.271"/><path class="a" d="M20.221,8.309A7.579,7.579,0,0,0,15,2.006"/><rect class="a" x="9" y="0.75" width="6" height="3" rx="1.125" ry="1.125"/></svg>