<svg xmlns="http://www.w3.org/2000/svg" viewBox="0 0 24 24"><defs><style>.a{fill:none;stroke:currentColor;stroke-linecap:round;stroke-linejoin:round;stroke-width:1.5px;}</style></defs><title>shopping-bag-duty-free</title><line class="a" x1="5.992" y1="16.778" x2="7.375" y2="17.728"/><path class="a" d="M15.907,13.01,13.938,14.1,9.791,11.25,7.822,12.338l3.491,3.213L7.375,17.728l2,1.375a1.5,1.5,0,0,0,1.575.076l6.409-3.543a1.5,1.5,0,1,0-1.452-2.626Z"/><path class="a" d="M19.049,6.75H4.936A1.4,1.4,0,0,0,3.5,7.907l-2,13.915A1.357,1.357,0,0,0,2.937,23.25H21.048a1.356,1.356,0,0,0,1.436-1.428l-2-13.915A1.4,1.4,0,0,0,19.049,6.75Z"/><path class="a" d="M15.662,3.807A3.765,3.765,0,0,0,11.976.75h0A3.763,3.763,0,0,0,8.3,3.788"/></svg>