<svg xmlns="http://www.w3.org/2000/svg" viewBox="0 0 24 24"><defs><style>.a{fill:none;stroke:currentColor;stroke-linecap:round;stroke-linejoin:round;stroke-width:1.5px;}</style></defs><title>shopping-cart-star</title><path class="a" d="M10.368,2.219l1.346,2.9h2.621a.642.642,0,0,1,.452,1.121L12.513,8.48l1.26,2.894a.686.686,0,0,1-.977.858L9.75,10.519,6.705,12.232a.686.686,0,0,1-.977-.858L6.988,8.48,4.713,6.242a.642.642,0,0,1,.45-1.121H7.784l1.349-2.9A.7.7,0,0,1,10.368,2.219Z"/><circle class="a" cx="6.375" cy="20.968" r="1.875"/><circle class="a" cx="13.875" cy="20.968" r="1.875"/><path class="a" d="M.75,7.093,3.08,14.98a1.5,1.5,0,0,0,1.449,1.113H15.348A1.5,1.5,0,0,0,16.8,14.98L20.038,2.826a2.25,2.25,0,0,1,2.174-1.67H23.25"/></svg>