<svg xmlns="http://www.w3.org/2000/svg" viewBox="0 0 24 24"><defs><style>.a{fill:none;stroke:currentColor;stroke-linecap:round;stroke-linejoin:round;stroke-width:1.5px;}</style></defs><title>shopping-basket-dislike</title><path class="a" d="M2.553,8.956l-.26-1.093A1.484,1.484,0,0,1,3.676,6H21.824a1.484,1.484,0,0,1,1.383,1.863l-2.138,9A1.442,1.442,0,0,1,19.686,18H14.25"/><line class="a" x1="5.25" y1="6" x2="9.75" y2="0.75"/><line class="a" x1="20.25" y1="6" x2="15.75" y2="0.75"/><path class="a" d="M2.25,12.749a3.026,3.026,0,0,0,.779-.115l1.817-.519A2.979,2.979,0,0,1,5.669,12H8.112A3,3,0,0,1,11.1,14.7l.15,2.549a2.25,2.25,0,0,1-1.7,2.3l-.728.159a.749.749,0,0,0-.568.727v1.692a1.125,1.125,0,0,1-2.25,0v-.777A3.75,3.75,0,0,0,2.25,17.6Z"/><polyline class="a" points="0.75 12 2.25 12 2.25 18.75 0.75 18.75"/></svg>