<svg xmlns="http://www.w3.org/2000/svg" viewBox="0 0 24 24"><defs><style>.a{fill:none;stroke:currentColor;stroke-linecap:round;stroke-linejoin:round;stroke-width:1.5px;}</style></defs><title>shopping-bag-man</title><path class="a" d="M9.268,17.832A.877.877,0,0,0,8.4,17.25H2.831a.877.877,0,0,0-.865.582L.779,21.922a1.117,1.117,0,0,0,1.2,1.328h7.27a1.117,1.117,0,0,0,1.2-1.328Z"/><path class="a" d="M8.242,17.25l-.587-2.517A1.986,1.986,0,0,0,5.617,13.5a1.986,1.986,0,0,0-2.038,1.233L2.992,17.25"/><path class="a" d="M22.018,17.832a.877.877,0,0,0-.865-.582H15.581a.877.877,0,0,0-.865.582l-1.187,4.09a1.117,1.117,0,0,0,1.2,1.328H22a1.117,1.117,0,0,0,1.2-1.328Z"/><path class="a" d="M20.992,17.25l-.587-2.517A1.986,1.986,0,0,0,18.367,13.5a1.986,1.986,0,0,0-2.038,1.233l-.587,2.517"/><path class="a" d="M16.5,11.641a6.757,6.757,0,0,0-7.507-.005"/><path class="a" d="M9.187,2.781a6.848,6.848,0,0,0,4.93,2.094,6.843,6.843,0,0,0,2.712-.558"/><circle class="a" cx="12.742" cy="4.875" r="4.125"/></svg>