<svg xmlns="http://www.w3.org/2000/svg" viewBox="0 0 24 24"><defs><style>.a{fill:none;stroke:currentColor;stroke-linecap:round;stroke-linejoin:round;stroke-width:1.5px;}</style></defs><title>shop-sign-open</title><line class="a" x1="0.75" y1="22.75" x2="23.25" y2="22.75"/><line class="a" x1="23.25" y1="9.25" x2="0.75" y2="9.25"/><path class="a" d="M16.5,6.25l-3.3-4.4a1.5,1.5,0,0,0-2.4,0L7.5,6.25"/><line class="a" x1="7.5" y1="19.749" x2="7.5" y2="12.249"/><path class="a" d="M7.5,12.249h.75a2.25,2.25,0,1,1,0,4.5H7.5"/><path class="a" d="M3,12.25a1.5,1.5,0,0,0-1.5,1.5v4.5a1.5,1.5,0,0,0,3,0v-4.5A1.5,1.5,0,0,0,3,12.25Z"/><path class="a" d="M16.5,19.749H15a1.5,1.5,0,0,1-1.5-1.5v-4.5a1.5,1.5,0,0,1,1.5-1.5h1.5"/><line class="a" x1="13.5" y1="16.749" x2="16.5" y2="16.749"/><polyline class="a" points="19.5 19.749 19.5 12.249 22.5 19.749 22.5 12.249"/></svg>