<svg xmlns="http://www.w3.org/2000/svg" viewBox="0 0 24 24"><defs><style>.a{fill:none;stroke:currentColor;stroke-linecap:round;stroke-linejoin:round;stroke-width:1.5px;}</style></defs><title>shop-assistant</title><ellipse class="a" cx="12" cy="7.925" rx="6.75" ry="7.175"/><path class="a" d="M6.633,3.573A10.831,10.831,0,0,0,14.25,6.75a10.648,10.648,0,0,0,4.221-.874"/><path class="a" d="M12.274,19.916l-5.2-2.422a1.14,1.14,0,0,0-1.652.952v3.738a1.147,1.147,0,0,0,1.775.885Z"/><path class="a" d="M12.274,19.916l4.454-2.422a.984.984,0,0,1,1.416.951v3.739a.978.978,0,0,1-1.521.885Z"/><path class="a" d="M14.121,11.121a3,3,0,0,1-4.242,0"/></svg>