<svg xmlns="http://www.w3.org/2000/svg" viewBox="0 0 24 24"><defs><style>.a{fill:none;stroke:currentColor;stroke-linecap:round;stroke-linejoin:round;stroke-width:1.5px;}</style></defs><title>shopping-bag-barcode-1</title><path class="a" d="M19.049,6.75H4.936A1.394,1.394,0,0,0,3.5,7.907l-2,13.915A1.356,1.356,0,0,0,2.937,23.25H21.048a1.357,1.357,0,0,0,1.437-1.428l-2-13.915A1.4,1.4,0,0,0,19.049,6.75Z"/><path class="a" d="M15.662,3.807A3.763,3.763,0,0,0,11.977.75h0A3.765,3.765,0,0,0,8.3,3.788"/><line class="a" x1="5.993" y1="12.75" x2="5.993" y2="18.75"/><line class="a" x1="8.993" y1="12.75" x2="8.993" y2="13.5"/><line class="a" x1="8.993" y1="16.5" x2="8.993" y2="18.75"/><line class="a" x1="17.993" y1="16.5" x2="17.993" y2="18.75"/><line class="a" x1="17.993" y1="12.75" x2="17.993" y2="13.5"/><line class="a" x1="14.993" y1="12.75" x2="14.993" y2="18.75"/><line class="a" x1="11.993" y1="12.75" x2="11.993" y2="15"/><line class="a" x1="11.993" y1="18" x2="11.993" y2="18.75"/></svg>