<svg xmlns="http://www.w3.org/2000/svg" viewBox="0 0 24 24"><defs><style>.a{fill:none;stroke:currentColor;stroke-linecap:round;stroke-linejoin:round;stroke-width:1.5px;}</style></defs><title>shop-open</title><path class="a" d="M21.148,1.5H2.852a.751.751,0,0,0-.733.587L.75,8.25a2.25,2.25,0,0,0,4.5,0,2.25,2.25,0,0,0,4.5,0,2.25,2.25,0,0,0,4.5,0,2.25,2.25,0,0,0,4.5,0,2.25,2.25,0,0,0,4.5,0L21.88,2.087A.749.749,0,0,0,21.148,1.5Z"/><line class="a" x1="7.5" y1="22.5" x2="7.5" y2="15"/><path class="a" d="M7.5,15h.75a2.25,2.25,0,0,1,0,4.5H7.5"/><path class="a" d="M3,15a1.5,1.5,0,0,0-1.5,1.5V21a1.5,1.5,0,0,0,3,0V16.5A1.5,1.5,0,0,0,3,15Z"/><path class="a" d="M16.5,22.5H15A1.5,1.5,0,0,1,13.5,21V16.5A1.5,1.5,0,0,1,15,15h1.5"/><line class="a" x1="13.5" y1="19.5" x2="16.5" y2="19.5"/><polyline class="a" points="19.5 22.5 19.5 15 22.5 22.5 22.5 15"/></svg>