<svg xmlns="http://www.w3.org/2000/svg" viewBox="0 0 24 24"><defs><style>.a{fill:none;stroke:currentColor;stroke-linecap:round;stroke-linejoin:round;stroke-width:1.5px;}</style></defs><title>shopping-basket-edit</title><path class="a" d="M22.63,14.869,15,22.5l-3.75.75L12,19.5l7.63-7.631a2.115,2.115,0,0,1,2.991,0l.009.009A2.115,2.115,0,0,1,22.63,14.869Z"/><path class="a" d="M7.875,17.25H4.314a1.442,1.442,0,0,1-1.383-1.136l-2.138-9A1.484,1.484,0,0,1,2.176,5.25H20.324a1.485,1.485,0,0,1,1.383,1.864l-.3,1.256"/><line class="a" x1="3.75" y1="5.25" x2="8.25" y2="0.75"/><line class="a" x1="18.75" y1="5.25" x2="14.25" y2="0.752"/></svg>