<svg xmlns="http://www.w3.org/2000/svg" viewBox="0 0 24 24"><defs><style>.a{fill:none;stroke:currentColor;stroke-linecap:round;stroke-linejoin:round;stroke-width:1.5px;}</style></defs><title>shopping-cart-man</title><circle class="a" cx="18" cy="3.75" r="3"/><path class="a" d="M23.25,13.5a5.25,5.25,0,0,0-10.5,0v2.25H15l.75,7.5h4.5l.75-7.5h2.25Z"/><polyline class="a" points="10.5 12.75 8.25 20.25 2.25 20.25 0.75 15.75 9.6 15.75"/><path class="a" d="M2.625,22.5a.375.375,0,1,1-.375.375.375.375,0,0,1,.375-.375"/><path class="a" d="M7.875,22.5a.375.375,0,1,1-.375.375.375.375,0,0,1,.375-.375"/></svg>