<svg xmlns="http://www.w3.org/2000/svg" viewBox="0 0 24 24"><defs><style>.a{fill:none;stroke:currentColor;stroke-linecap:round;stroke-linejoin:round;stroke-width:1.5px;}</style></defs><title>shop-street-sign</title><path class="a" d="M15.136,23.25,17.221,2.4A1.5,1.5,0,0,0,15.729.75H4.494A1.5,1.5,0,0,0,3,2.1L.886,23.25"/><line class="a" x1="17.04" y1="4.211" x2="23.113" y2="23.245"/><line class="a" x1="21.2" y1="17.25" x2="15.736" y2="17.25"/><path class="a" d="M13.051,11.436a1.5,1.5,0,0,1-1.489,1.314H6.335a1.5,1.5,0,0,1-1.488-1.687l.375-3A1.5,1.5,0,0,1,6.71,6.75h5.227a1.5,1.5,0,0,1,1.489,1.686Z"/><line class="a" x1="6.886" y1="3.75" x2="12.136" y2="3.75"/><line class="a" x1="1.336" y1="18.75" x2="15.586" y2="18.75"/></svg>