<svg xmlns="http://www.w3.org/2000/svg" viewBox="0 0 24 24"><defs><style>.a{fill:none;stroke:currentColor;stroke-linecap:round;stroke-linejoin:round;stroke-width:1.5px;}</style></defs><title>shopping-cart-woman</title><polyline class="a" points="10.5 12.75 8.25 20.25 2.25 20.25 0.75 15.75 9.6 15.75"/><path class="a" d="M2.625,22.5a.375.375,0,1,1-.375.375.375.375,0,0,1,.375-.375"/><path class="a" d="M7.875,22.5a.375.375,0,1,1-.375.375.375.375,0,0,1,.375-.375"/><path class="a" d="M19.5,23.25l.75-4.5h3L21,12c-.75-2.25-1.679-3.75-3.75-3.75s-3,1.5-3.75,3.75l-2.25,6.75h3l.75,4.5Z"/><circle class="a" cx="17.25" cy="3.75" r="3"/></svg>