<svg xmlns="http://www.w3.org/2000/svg" viewBox="0 0 24 24"><defs><style>.a{fill:none;stroke:currentColor;stroke-linecap:round;stroke-linejoin:round;stroke-width:1.5px;}</style></defs><title>shopping-voucher-mail</title><path class="a" d="M19.5,12.879V2.25A1.5,1.5,0,0,0,18,.75H6a1.5,1.5,0,0,0-1.5,1.5V12.879"/><path class="a" d="M21.284,11.464a.751.751,0,0,1,1.216.588v9.7a1.5,1.5,0,0,1-1.5,1.5H3a1.5,1.5,0,0,1-1.5-1.5v-9.7a.751.751,0,0,1,1.216-.588l7.431,5.9a3,3,0,0,0,3.706,0Z"/><line class="a" x1="15.808" y1="15.808" x2="18.75" y2="18.75"/><line class="a" x1="8.192" y1="15.808" x2="5.25" y2="18.75"/><polyline class="a" points="16.606 3.646 14.55 10.5 9 10.5 7.5 6 15.9 6"/><path class="a" d="M9.375,12.75A.375.375,0,1,1,9,13.125a.375.375,0,0,1,.375-.375"/><path class="a" d="M14.175,12.75a.375.375,0,1,1-.375.375.375.375,0,0,1,.375-.375"/></svg>