<svg xmlns="http://www.w3.org/2000/svg" viewBox="0 0 24 24"><defs><style>.a{fill:none;stroke:currentColor;stroke-linecap:round;stroke-linejoin:round;stroke-width:1.5px;}</style></defs><title>shop-barista</title><path class="a" d="M.75,22.5V18a1.5,1.5,0,0,1,1.5-1.5h19.5a1.5,1.5,0,0,1,1.5,1.5v4.5"/><path class="a" d="M3,16.5v-4a1.94,1.94,0,0,1,1.875-2h5.25A1.941,1.941,0,0,1,12,12.5v4"/><line class="a" x1="5.25" y1="10.5" x2="5.25" y2="8.25"/><line class="a" x1="6" y1="13.5" x2="7.5" y2="13.5"/><circle class="a" cx="17.25" cy="4.5" r="3"/><path class="a" d="M21.75,13.5a4.5,4.5,0,0,0-7.691-3.174"/><rect class="a" x="2.25" y="5.266" width="6" height="3" rx="0.5" ry="0.5"/></svg>