<svg xmlns="http://www.w3.org/2000/svg" viewBox="0 0 24 24"><defs><style>.a{fill:none;stroke:currentColor;stroke-linecap:round;stroke-linejoin:round;stroke-width:1.5px;}</style></defs><title>shopping-cart-cash</title><path class="a" d="M11.925,3.493H9.485a1.61,1.61,0,0,0-.6,3.105l2.476.99a1.61,1.61,0,0,1-.6,3.1H8.325"/><line class="a" x1="10.125" y1="3.493" x2="10.125" y2="2.593"/><line class="a" x1="10.125" y1="11.593" x2="10.125" y2="10.693"/><circle class="a" cx="6.375" cy="20.968" r="1.875"/><circle class="a" cx="13.875" cy="20.968" r="1.875"/><path class="a" d="M.75,7.093,3.079,14.98a1.5,1.5,0,0,0,1.45,1.113H15.347A1.5,1.5,0,0,0,16.8,14.98L20.038,2.826a2.249,2.249,0,0,1,2.174-1.67H23.25"/></svg>