<svg xmlns="http://www.w3.org/2000/svg" viewBox="0 0 24 24"><defs><style>.a{fill:none;stroke:currentColor;stroke-linecap:round;stroke-linejoin:round;stroke-width:1.5px;}</style></defs><title>shop-sign-close</title><line class="a" x1="0.75" y1="22.75" x2="23.25" y2="22.75"/><line class="a" x1="23.25" y1="9.25" x2="0.75" y2="9.25"/><path class="a" d="M16.5,6.25l-3.3-4.4a1.5,1.5,0,0,0-2.4,0L7.5,6.25"/><path class="a" d="M3.75,12.25a3,3,0,0,0-3,3v1.5a3,3,0,0,0,3,3"/><path class="a" d="M11.25,12.25a1.5,1.5,0,0,0-1.5,1.5v4.5a1.5,1.5,0,0,0,3,0v-4.5A1.5,1.5,0,0,0,11.25,12.25Z"/><path class="a" d="M5.25,12.25v6a1.5,1.5,0,0,0,1.5,1.5h1.5"/><path class="a" d="M18,12.25H16.5a1.5,1.5,0,0,0-1.5,1.5c0,2.25,3,2.25,3,4.5a1.5,1.5,0,0,1-1.5,1.5H15"/><path class="a" d="M23.25,19.75h-1.5a1.5,1.5,0,0,1-1.5-1.5v-4.5a1.5,1.5,0,0,1,1.5-1.5h1.5"/><line class="a" x1="20.25" y1="16.75" x2="23.25" y2="16.75"/></svg>