<svg xmlns="http://www.w3.org/2000/svg" viewBox="0 0 24 24"><defs><style>.a{fill:none;stroke:currentColor;stroke-linecap:round;stroke-linejoin:round;stroke-width:1.5px;}</style></defs><title>shopping-bag-hang</title><path class="a" d="M5.634,3a.375.375,0,1,1-.375.375A.375.375,0,0,1,5.634,3"/><line class="a" x1="3.779" y1="19.5" x2="20.206" y2="19.5"/><path class="a" d="M16.394,12.75,13.325,4.682a1.419,1.419,0,0,0-2.666,0L7.59,12.75"/><path class="a" d="M20.2,19.4l-.832-8.685A1.064,1.064,0,0,0,18.3,9.75H5.683a1.064,1.064,0,0,0-1.062.96L3.788,19.4c-.03.32-.046.641-.046.961A2.9,2.9,0,0,0,6.655,23.25H17.33a2.9,2.9,0,0,0,2.912-2.894C20.242,20.036,20.227,19.715,20.2,19.4Z"/><path class="a" d="M6.742,6H3.367A2.634,2.634,0,0,1,.742,3.375h0A2.633,2.633,0,0,1,3.367.75h17.25a2.632,2.632,0,0,1,2.625,2.625h0A2.633,2.633,0,0,1,20.617,6H17.242"/><path class="a" d="M18.351,3a.375.375,0,1,0,.375.375A.375.375,0,0,0,18.351,3"/></svg>