<svg xmlns="http://www.w3.org/2000/svg" viewBox="0 0 24 24"><defs><style>.a{fill:none;stroke:currentColor;stroke-linecap:round;stroke-linejoin:round;stroke-width:1.5px;}</style></defs><title>shop-pin</title><path class="a" d="M21.88,1.337A.749.749,0,0,0,21.148.75H2.852a.751.751,0,0,0-.733.587L.75,7.5a2.25,2.25,0,0,0,4.5,0,2.25,2.25,0,0,0,4.5,0,2.25,2.25,0,0,0,4.5,0,2.25,2.25,0,0,0,4.5,0,2.25,2.25,0,0,0,4.5,0Z"/><path class="a" d="M2.25,9.621V18.75a1.5,1.5,0,0,0,1.5,1.5H8.379a1.5,1.5,0,0,1,1.06.439L12,23.25l2.561-2.561a1.5,1.5,0,0,1,1.06-.439H20.25a1.5,1.5,0,0,0,1.5-1.5V9.621"/><line class="a" x1="2.25" y1="15" x2="21.75" y2="15"/></svg>