<svg id="Regular" xmlns="http://www.w3.org/2000/svg" viewBox="0 0 24 24"><defs><style>.cls-1{fill:none;stroke:currentColor;stroke-linecap:round;stroke-linejoin:round;stroke-width:1.5px;}</style></defs><title>shorts</title><line class="cls-1" x1="10.5" y1="3.75" x2="10.5" y2="9"/><path class="cls-1" d="M23.248,21.076,21.8,1.445A.75.75,0,0,0,21.053.75H2.947a.75.75,0,0,0-.748.7L.752,21.076a.75.75,0,0,0,.616.793L9,23.238a.75.75,0,0,0,.872-.616l1.253-7.632a.884.884,0,0,1,1.744,0l1.253,7.632a.75.75,0,0,0,.872.616l7.635-1.369A.75.75,0,0,0,23.248,21.076Z"/><line class="cls-1" x1="21.964" y1="3.75" x2="2.036" y2="3.75"/><line class="cls-1" x1="13.5" y1="3.75" x2="13.5" y2="9"/><path class="cls-1" d="M1.568,10.292A6,6,0,0,0,6,4.5a5.993,5.993,0,0,0-.047-.75H2.036Z"/><path class="cls-1" d="M22.431,10.292A6,6,0,0,1,18,4.5a6.19,6.19,0,0,1,.046-.75h3.918Z"/></svg>