<svg id="Regular" xmlns="http://www.w3.org/2000/svg" viewBox="0 0 24 24"><defs><style>.cls-1{fill:none;stroke:currentColor;stroke-linecap:round;stroke-linejoin:round;stroke-width:1.5px;}</style></defs><title>shorts-2</title><path class="cls-1" d="M2.5,3.75h19a1,1,0,0,1,1,1v2a0,0,0,0,1,0,0H1.5a0,0,0,0,1,0,0v-2A1,1,0,0,1,2.5,3.75Z"/><path class="cls-1" d="M22.5,11.25A4.5,4.5,0,0,1,18,6.75"/><path class="cls-1" d="M1.5,11.25A4.5,4.5,0,0,0,6,6.75"/><path class="cls-1" d="M10.314,14.238a1.7,1.7,0,0,1,3.372,0l.736,4.742A1.5,1.5,0,0,0,15.9,20.25H21a1.5,1.5,0,0,0,1.5-1.5v-12H1.5v12A1.5,1.5,0,0,0,3,20.25H8.1a1.5,1.5,0,0,0,1.483-1.27Z"/></svg>