<svg id="Regular" xmlns="http://www.w3.org/2000/svg" viewBox="0 0 24 24"><defs><style>.cls-1{fill:none;stroke:currentColor;stroke-linecap:round;stroke-linejoin:round;stroke-width:1.5px;}</style></defs><title>shorts-1</title><path class="cls-1" d="M1.75,2.25h20.5a1,1,0,0,1,1,1v2a0,0,0,0,1,0,0H.75a0,0,0,0,1,0,0v-2A1,1,0,0,1,1.75,2.25Z"/><path class="cls-1" d="M12,12a1.748,1.748,0,0,1,1.728,1.483L14.9,21.114a.75.75,0,0,0,.741.636H21.75a1.5,1.5,0,0,0,1.5-1.5v-15H.75v15a1.5,1.5,0,0,0,1.5,1.5H8.356a.75.75,0,0,0,.742-.636l1.174-7.631A1.748,1.748,0,0,1,12,12Z"/><line class="cls-1" x1="3.75" y1="5.25" x2="3.75" y2="21.75"/><line class="cls-1" x1="20.25" y1="5.25" x2="20.25" y2="21.75"/><line class="cls-1" x1="10.5" y1="5.25" x2="9" y2="9.75"/><line class="cls-1" x1="13.5" y1="5.25" x2="15" y2="9.75"/></svg>