<svg id="Regular" xmlns="http://www.w3.org/2000/svg" viewBox="0 0 24 24"><defs><style>.cls-1{fill:none;stroke:currentColor;stroke-linecap:round;stroke-linejoin:round;stroke-width:1.5px;}</style></defs><title>show-rabbit-hat</title><path class="cls-1" d="M6.5,14.25H17a0,0,0,0,1,0,0v8a1,1,0,0,1-1,1H7.5a1,1,0,0,1-1-1v-8A0,0,0,0,1,6.5,14.25Z"/><line class="cls-1" x1="3.5" y1="14.25" x2="20" y2="14.25"/><path class="cls-1" d="M7.812,11.32,5.172,4.366A2.669,2.669,0,0,1,7.029.837h0a2.669,2.669,0,0,1,3.287,2.257l.759,5.956"/><path class="cls-1" d="M15.7,11.276l2.624-6.91A2.669,2.669,0,0,0,16.471.837h0a2.669,2.669,0,0,0-3.287,2.257L12.425,9.05"/><line class="cls-1" x1="6.5" y1="17.25" x2="17" y2="17.25"/><path class="cls-1" d="M16.25,14.25V13.5a4.5,4.5,0,0,0-9,0v.75"/></svg>