<svg id="Regular" xmlns="http://www.w3.org/2000/svg" viewBox="0 0 24 24"><defs><style>.cls-1{fill:none;stroke:currentColor;stroke-linecap:round;stroke-linejoin:round;stroke-width:1.5px;}</style></defs><title>show-person</title><path class="cls-1" d="M6.75.75v21a1.5,1.5,0,0,1-3,0"/><line class="cls-1" x1="3.75" y1="21.75" x2="3.75" y2="6.75"/><path class="cls-1" d="M3.75,21.75a1.5,1.5,0,0,1-3,0V2.25A1.5,1.5,0,0,1,2.25.75h19.5a1.5,1.5,0,0,1,1.5,1.5v19.5a1.5,1.5,0,0,1-3,0v-1.5"/><line class="cls-1" x1="6.75" y1="21" x2="10.5" y2="21"/><path class="cls-1" d="M12,17.25V15a3.75,3.75,0,0,1,7.5,0v2.25H18l-.75,6h-3l-.75-6Z"/><circle class="cls-1" cx="15.75" cy="6.75" r="3"/></svg>