<svg id="Regular" xmlns="http://www.w3.org/2000/svg" viewBox="0 0 24 24"><defs><style>.cls-1{fill:none;stroke:currentColor;stroke-linecap:round;stroke-linejoin:round;stroke-width:1.5px;}</style></defs><title>show-theater-mask-sad</title><path class="cls-1" d="M3.492.833A1.5,1.5,0,0,0,1.5,2.25v8.643a11.156,11.156,0,0,0,1.008,4.9c1.637,3.359,4.817,5.8,8.965,7.362a1.5,1.5,0,0,0,1.055,0c4.148-1.558,7.327-4,8.964-7.362a11.156,11.156,0,0,0,1.008-4.9V2.25A1.5,1.5,0,0,0,20.508.833,25.235,25.235,0,0,1,3.492.833Z"/><path class="cls-1" d="M7.5,17.625A4.325,4.325,0,0,1,12,13.5a4.325,4.325,0,0,1,4.5,4.125"/><path class="cls-1" d="M9,6.375a1.875,1.875,0,0,1-3.75,0"/><path class="cls-1" d="M18.75,6.375a1.875,1.875,0,0,1-3.75,0"/></svg>