<svg id="Regular" xmlns="http://www.w3.org/2000/svg" viewBox="0 0 24 24"><defs><style>.cls-1{fill:none;stroke:currentColor;stroke-linecap:round;stroke-linejoin:round;stroke-width:1.5px;}</style></defs><title>show-hat-cards</title><path class="cls-1" d="M17.625,12l1.122,8.9a1.5,1.5,0,0,1-1.5,1.6H6.75a1.5,1.5,0,0,1-1.5-1.6L6.375,12"/><line class="cls-1" x1="18.098" y1="15.75" x2="5.902" y2="15.75"/><line class="cls-1" x1="2.25" y1="12" x2="21.75" y2="12"/><path class="cls-1" d="M6.375,9.063V2.25a.75.75,0,0,1,.75-.75h6a.75.75,0,0,1,.75.75V4.3"/><path class="cls-1" d="M10.743,9.465l.868-4.81a.751.751,0,0,1,.871-.605l5.905,1.067a.749.749,0,0,1,.605.871L17.906,12"/></svg>