<svg id="Regular" xmlns="http://www.w3.org/2000/svg" viewBox="0 0 24 24"><defs><style>.cls-1{fill:none;stroke:currentColor;stroke-linecap:round;stroke-linejoin:round;stroke-width:1.5px;}</style></defs><title>show-theater</title><path class="cls-1" d="M6.75,5.25v16.5a1.5,1.5,0,0,1-3,0"/><line class="cls-1" x1="3.75" y1="21.75" x2="3.75" y2="11.25"/><path class="cls-1" d="M17.25,5.25v16.5a1.5,1.5,0,0,0,3,0"/><path class="cls-1" d="M20.25,21.75a1.5,1.5,0,0,0,3,0V2.25a1.5,1.5,0,0,0-1.5-1.5H2.25a1.5,1.5,0,0,0-1.5,1.5v19.5a1.5,1.5,0,0,0,3,0"/><line class="cls-1" x1="20.25" y1="21.75" x2="20.25" y2="11.25"/><line class="cls-1" x1="0.75" y1="5.25" x2="23.25" y2="5.25"/><line class="cls-1" x1="5.25" y1="23.25" x2="18.75" y2="23.25"/></svg>