<svg id="Regular" xmlns="http://www.w3.org/2000/svg" viewBox="0 0 24 24"><defs><style>.cls-1{fill:none;stroke:currentColor;stroke-linecap:round;stroke-linejoin:round;stroke-width:1.5px;}</style></defs><title>show-theater-play</title><line class="cls-1" x1="14.44" y1="17.25" x2="9.56" y2="17.25"/><polyline class="cls-1" points="0.75 14.25 0.75 0.75 23.25 0.75 23.25 14.25"/><path class="cls-1" d="M.75.75H12a0,0,0,0,1,0,0V5a5.5,5.5,0,0,1-5.5,5.5H.75a0,0,0,0,1,0,0V.75A0,0,0,0,1,.75.75Z"/><path class="cls-1" d="M12,.75h5.75a5.5,5.5,0,0,1,5.5,5.5V10.5a0,0,0,0,1,0,0H12a0,0,0,0,1,0,0V.75A0,0,0,0,1,12,.75Z" transform="translate(35.25 11.25) rotate(-180)"/><path class="cls-1" d="M.75,14.25H5.487A4.263,4.263,0,0,1,9.75,18.513V22.25a1,1,0,0,1-1,1h-7a1,1,0,0,1-1-1v-8a0,0,0,0,1,0,0Z"/><path class="cls-1" d="M15.25,14.25h7a1,1,0,0,1,1,1v3.737a4.263,4.263,0,0,1-4.263,4.263H14.25a0,0,0,0,1,0,0v-8a1,1,0,0,1,1-1Z" transform="translate(37.5 37.5) rotate(-180)"/><line class="cls-1" x1="18.75" y1="10.5" x2="18.75" y2="14.25"/><line class="cls-1" x1="5.25" y1="10.5" x2="5.25" y2="14.25"/><line class="cls-1" x1="3.75" y1="0.75" x2="3.75" y2="4.5"/><line class="cls-1" x1="6.75" y1="0.75" x2="6.75" y2="4.5"/><line class="cls-1" x1="17.25" y1="0.75" x2="17.25" y2="4.5"/><line class="cls-1" x1="20.25" y1="0.75" x2="20.25" y2="4.5"/></svg>