<svg id="Regular" xmlns="http://www.w3.org/2000/svg" viewBox="0 0 24 24"><defs><style>.cls-1{fill:none;stroke:currentColor;stroke-linecap:round;stroke-linejoin:round;stroke-width:1.5px;}</style></defs><title>show-theater-show-masks</title><path class="cls-1" d="M8.739.75A9.757,9.757,0,0,1,9,3,9.751,9.751,0,0,1,.75,12.635"/><path class="cls-1" d="M23.25,6.75V2.25a1.5,1.5,0,0,0-1.5-1.5H2.25a1.5,1.5,0,0,0-1.5,1.5v18a1.5,1.5,0,0,0,1.5,1.5h7.5"/><path class="cls-1" d="M.75,14.4a7.5,7.5,0,0,1,6,7.35"/><path class="cls-1" d="M15.261.75a9.777,9.777,0,0,0,1.272,7.5"/><path class="cls-1" d="M23.25,15.143v-4.02a.75.75,0,0,0-1.056-.684,15.11,15.11,0,0,1-9.888,0,.751.751,0,0,0-1.056.685v4.019c0,4.457,4.412,8.107,6,8.107S23.25,19.6,23.25,15.143Z"/><path class="cls-1" d="M15.582,18.75a2.23,2.23,0,0,0,3.336,0"/><path class="cls-1" d="M19.875,14.25a.375.375,0,0,1,.375.375"/><path class="cls-1" d="M19.5,14.625a.375.375,0,0,1,.375-.375"/><path class="cls-1" d="M19.875,15a.375.375,0,0,1-.375-.375"/><path class="cls-1" d="M20.25,14.625a.375.375,0,0,1-.375.375"/><path class="cls-1" d="M14.625,14.25a.375.375,0,0,1,.375.375"/><path class="cls-1" d="M14.25,14.625a.375.375,0,0,1,.375-.375"/><path class="cls-1" d="M14.625,15a.375.375,0,0,1-.375-.375"/><path class="cls-1" d="M15,14.625a.375.375,0,0,1-.375.375"/></svg>