<svg id="Regular" xmlns="http://www.w3.org/2000/svg" viewBox="0 0 24 24"><defs><style>.cls-1{fill:none;stroke:currentColor;stroke-linecap:round;stroke-linejoin:round;stroke-width:1.5px;}</style></defs><title>skateboard-1</title><path class="cls-1" d="M20.823,7.839,7.918,20.745a4.912,4.912,0,0,1-2.757,1.378,1.993,1.993,0,0,1-.386.015L2.583,22a1.875,1.875,0,0,1,.241-3.743l1.951.126a1.14,1.14,0,0,0,.492-.287l12.905-12.9a1.14,1.14,0,0,0,.287-.492l-.126-1.951A1.875,1.875,0,0,1,22.076,2.5L22.217,4.7a1.993,1.993,0,0,1-.015.386A4.907,4.907,0,0,1,20.823,7.839Z"/><path class="cls-1" d="M12.515,19.33a2.25,2.25,0,1,1-3.182,0A2.251,2.251,0,0,1,12.515,19.33Z"/><path class="cls-1" d="M19.409,12.436a2.25,2.25,0,1,0,0-3.182A2.251,2.251,0,0,0,19.409,12.436Z"/></svg>