<svg id="Regular" xmlns="http://www.w3.org/2000/svg" viewBox="0 0 24 24"><defs><style>.cls-1{fill:none;stroke:currentColor;stroke-linecap:round;stroke-linejoin:round;stroke-width:1.5px;}</style></defs><title>skating</title><circle class="cls-1" cx="19.086" cy="3.375" r="2.625"/><path class="cls-1" d="M21.711,21.75a1.5,1.5,0,0,1-1.5,1.5h-7.5"/><path class="cls-1" d="M9.922,21.763a1.5,1.5,0,0,1-2.111.215L2,17.237"/><line class="cls-1" x1="8.766" y1="18.683" x2="6.437" y2="16.783"/><line class="cls-1" x1="14.211" y1="20.25" x2="17.211" y2="20.25"/><path class="cls-1" d="M6.614,21l5.151-5.547.788.394a2.985,2.985,0,0,1,1.658,2.684V23.25"/><path class="cls-1" d="M17.211,23.25V18.532A5.967,5.967,0,0,0,13.9,13.165l0,0,2.918-3.142a1.5,1.5,0,0,0-1.1-2.521h-7.5a1.5,1.5,0,1,0,0,3h4.061L4.285,19.1"/></svg>