<svg id="Regular" xmlns="http://www.w3.org/2000/svg" viewBox="0 0 24 24"><defs><style>.cls-1{fill:none;stroke:currentColor;stroke-linecap:round;stroke-linejoin:round;stroke-width:1.5px;}</style></defs><title>skateboard</title><path class="cls-1" d="M5.856,10.1a1.5,1.5,0,0,0-2.122,0L2.143,11.689a1.5,1.5,0,0,0,2.122,2.122L5.856,12.22A1.5,1.5,0,0,0,5.856,10.1Z"/><path class="cls-1" d="M13.9,18.144a1.5,1.5,0,0,0-2.122,0l-1.591,1.591a1.5,1.5,0,0,0,2.122,2.122L13.9,20.266A1.5,1.5,0,0,0,13.9,18.144Z"/><path class="cls-1" d="M10.1,5.856a1.5,1.5,0,0,1,0-2.122l1.591-1.591a1.5,1.5,0,0,1,2.122,2.122L12.22,5.856A1.5,1.5,0,0,1,10.1,5.856Z"/><path class="cls-1" d="M18.144,13.9a1.5,1.5,0,0,1,0-2.122l1.591-1.591a1.5,1.5,0,0,1,2.122,2.122L20.266,13.9A1.5,1.5,0,0,1,18.144,13.9Z"/><path class="cls-1" d="M13.819,2.153a5.689,5.689,0,0,1,8.028,8.027"/><line class="cls-1" x1="5.856" y1="10.098" x2="10.098" y2="5.856"/><path class="cls-1" d="M10.181,21.847a5.69,5.69,0,0,1-8.028-8.028"/><line class="cls-1" x1="18.144" y1="13.902" x2="13.902" y2="18.144"/><line class="cls-1" x1="18.939" y1="10.985" x2="13.015" y2="5.06"/><line class="cls-1" x1="10.985" y1="18.94" x2="5.061" y2="13.016"/></svg>