<svg id="Regular" xmlns="http://www.w3.org/2000/svg" viewBox="0 0 24 24"><defs><style>.cls-1{fill:none;stroke:currentColor;stroke-linecap:round;stroke-linejoin:round;stroke-width:1.5px;}</style></defs><title>skating-1</title><path class="cls-1" d="M1.75,18H7.174A4.5,4.5,0,0,0,10.5,16.527l1.624-1.786.715.357A3,3,0,0,1,14.5,17.782V23.25"/><path class="cls-1" d="M17.5,23.25V17.782a5.966,5.966,0,0,0-3.278-5.345L17.11,9.259A1.5,1.5,0,0,0,16,6.75H7a1.5,1.5,0,0,0,0,3h5.609L8.283,14.509A1.5,1.5,0,0,1,7.173,15H1.75"/><circle class="cls-1" cx="20.5" cy="3.375" r="2.625"/><path class="cls-1" d="M20.5,21.75a1.5,1.5,0,0,1-1.5,1.5H11.5"/><path class="cls-1" d="M3.25,21a1.5,1.5,0,0,1-1.5-1.5V12"/><line class="cls-1" x1="4.75" y1="15" x2="4.75" y2="18"/><line class="cls-1" x1="14.5" y1="20.25" x2="17.5" y2="20.25"/></svg>