<svg id="Regular" xmlns="http://www.w3.org/2000/svg" viewBox="0 0 24 24"><defs><style>.cls-1{fill:none;stroke:currentColor;stroke-linecap:round;stroke-linejoin:round;stroke-width:1.5px;}</style></defs><title>skating-shoes</title><path class="cls-1" d="M21.75,20.25H2.25a1.5,1.5,0,0,0,0,3h19.5a1.5,1.5,0,0,0,0-3Z"/><line class="cls-1" x1="6.75" y1="20.25" x2="6.75" y2="17.25"/><line class="cls-1" x1="17.25" y1="20.25" x2="17.25" y2="17.25"/><path class="cls-1" d="M18.75,17.25h-12a4.5,4.5,0,0,1-4.5-4.5v-9A1.5,1.5,0,0,1,3.386,2.3l6-1.5A1.5,1.5,0,0,1,11.25,2.25v4.5a3,3,0,0,0,3,3H16.5c2.25,0,5.25,1.5,5.25,4.5A2.747,2.747,0,0,1,18.75,17.25Z"/><path class="cls-1" d="M11.25,5.25h-3a1.5,1.5,0,0,0-1.5,1.5v1.5a4.5,4.5,0,0,0,4.5,4.5H21.47"/><line class="cls-1" x1="11.651" y1="8.25" x2="9.75" y2="8.25"/></svg>