<svg id="Regular" xmlns="http://www.w3.org/2000/svg" viewBox="0 0 24 24"><defs><style>.cls-1{fill:none;stroke:currentColor;stroke-linecap:round;stroke-linejoin:round;stroke-width:1.5px;}</style></defs><title>skateboard-person-1</title><path class="cls-1" d="M15.75,20.25V17.782a5.965,5.965,0,0,0-3.279-5.345L14.914,9.75H21a1.5,1.5,0,0,0,0-3H5.25a1.5,1.5,0,0,0,0,3h5.609L6.532,14.509A1.5,1.5,0,0,1,5.423,15H3a1.5,1.5,0,0,0,0,3H5.423a4.507,4.507,0,0,0,3.329-1.472l1.625-1.787.715.357a2.985,2.985,0,0,1,1.658,2.684V20.25"/><line class="cls-1" x1="6.75" y1="20.25" x2="21" y2="20.25"/><circle class="cls-1" cx="9.75" cy="21.75" r="1.5"/><circle class="cls-1" cx="18" cy="21.75" r="1.5"/><circle class="cls-1" cx="15.75" cy="3.375" r="2.625"/></svg>