<svg id="Regular" xmlns="http://www.w3.org/2000/svg" viewBox="0 0 24 24"><defs><style>.cls-1{fill:none;stroke:currentColor;stroke-linecap:round;stroke-linejoin:round;stroke-width:1.5px;}</style></defs><title>skiing-cable-car-1</title><circle class="cls-1" cx="4.868" cy="5.625" r="2.625"/><path class="cls-1" d="M14.033,20.3l-1.985-4.628L9.772,17.036a1.5,1.5,0,0,1-2.165-.729l-1.5-3.75a1.5,1.5,0,0,1,2.786-1.114l.845,2.114,2.24-1.343a1.5,1.5,0,0,1,2.15.7l2.535,5.914"/><line class="cls-1" x1="14.25" y1="0.75" x2="14.25" y2="8.25"/><path class="cls-1" d="M8.773,23.25,20.092,16.9a3,3,0,0,0,1.42-1.8l.238-.846"/><path class="cls-1" d="M2.993,13.468,5.41,18.313a3,3,0,0,0,4.026,1.344L9.75,19.5"/></svg>