<svg id="Regular" xmlns="http://www.w3.org/2000/svg" viewBox="0 0 24 24"><defs><style>.cls-1{fill:none;stroke:currentColor;stroke-linecap:round;stroke-linejoin:round;stroke-width:1.5px;}</style></defs><title>skiing-snow-scooter-person</title><circle class="cls-1" cx="7.5" cy="3" r="2.25"/><path class="cls-1" d="M23.25,20.25a3,3,0,0,1-3,3H.75"/><path class="cls-1" d="M15.86,12.816,17.25,10.5l5.011,3.132a2.1,2.1,0,0,1,.107,3.5l-3.586,2.561a2.993,2.993,0,0,1-1.743.559H2.671a1.5,1.5,0,0,1-1.455-1.864l.75-3A1.5,1.5,0,0,1,3.421,14.25H6V8.243a1.5,1.5,0,0,1,2.971-.295c.055.245.666,2.545,3.779,2.545a1.5,1.5,0,0,1,0,3A7.3,7.3,0,0,1,9,12.549"/><line class="cls-1" x1="17.25" y1="10.5" x2="15.75" y2="7.5"/><line class="cls-1" x1="1.5" y1="17.25" x2="22.2" y2="17.25"/></svg>