<svg id="Regular" xmlns="http://www.w3.org/2000/svg" viewBox="0 0 24 24"><defs><style>.cls-1{fill:none;stroke:currentColor;stroke-linecap:round;stroke-linejoin:round;stroke-width:1.5px;}</style></defs><title>skiing-slide-down</title><circle class="cls-1" cx="15.066" cy="3.375" r="2.625"/><path class="cls-1" d="M17.558,19.507l-1.43-3.337A4.5,4.5,0,0,0,14,13.917l-2.252-1.126L12.818,10.3,18.9,13.342a1.5,1.5,0,0,0,1.341-2.684l-7.5-3.75a1.5,1.5,0,0,0-.671-.158H9.008a1.491,1.491,0,0,1-1.171-.564l-2.1-2.623A1.5,1.5,0,1,0,3.4,5.438L5.5,8.061A4.475,4.475,0,0,0,9.008,9.75h.784L8.438,12.91a1.474,1.474,0,0,0-.122.59v1.758a1.506,1.506,0,0,1-.439,1.06l-1,1"/><path class="cls-1" d="M10,18.439A4.454,4.454,0,0,0,11.254,15.9l1.41.7a1.507,1.507,0,0,1,.708.75l.767,1.791"/><path class="cls-1" d="M21.348,22.1a1.5,1.5,0,0,1-1.782,1.151L3.435,19.782A1.5,1.5,0,0,1,2.284,18"/></svg>