<svg id="Regular" xmlns="http://www.w3.org/2000/svg" viewBox="0 0 24 24"><defs><style>.cls-1{fill:none;stroke:currentColor;stroke-linecap:round;stroke-linejoin:round;stroke-width:1.5px;}</style></defs><title>skiing-ice-skates</title><path class="cls-1" d="M4.443,3.373,11,.75v9.285a3,3,0,0,0,2.7,2.985l.747.075A4.5,4.5,0,0,1,18.5,17.572V18A1.5,1.5,0,0,1,17,19.5H6.5a3,3,0,0,1-3-3V4.766A1.5,1.5,0,0,1,4.443,3.373Z"/><path class="cls-1" d="M11.256,11.25H8.75V13.5a3,3,0,0,0,3,3h6.62"/><path class="cls-1" d="M2.75,23.25h16.5a1.469,1.469,0,0,0,1.5-1.5"/><line class="cls-1" x1="7.25" y1="19.5" x2="7.25" y2="23.25"/><line class="cls-1" x1="14.75" y1="19.5" x2="14.75" y2="23.25"/></svg>