<svg id="Regular" xmlns="http://www.w3.org/2000/svg" viewBox="0 0 24 24"><defs><style>.cls-1{fill:none;stroke:currentColor;stroke-linecap:round;stroke-linejoin:round;stroke-width:1.5px;}</style></defs><title>skiing-cable-car</title><path class="cls-1" d="M12.75,23.25h-.766A5.984,5.984,0,0,1,6,17.266V10.5a6,6,0,0,1,6-6V1.875"/><circle class="cls-1" cx="12" cy="9.375" r="2.625"/><line class="cls-1" x1="0.75" y1="3" x2="23.25" y2="0.75"/><path class="cls-1" d="M17.25,23.25a1.5,1.5,0,0,1-1.5-1.5v-1.5h-3a3,3,0,0,1-3-3V15a1.5,1.5,0,0,1,3,0v2.25h3a3,3,0,0,1,3,3v1.5A1.5,1.5,0,0,1,17.25,23.25Z"/></svg>