<svg id="Regular" xmlns="http://www.w3.org/2000/svg" viewBox="0 0 24 24"><defs><style>.cls-1{fill:none;stroke:currentColor;stroke-linecap:round;stroke-linejoin:round;stroke-width:1.5px;}</style></defs><title>skiing-skiis</title><line class="cls-1" x1="12.786" y1="17.122" x2="15.706" y2="17.437"/><line class="cls-1" x1="12.294" y1="12.542" x2="16.19" y2="12.963"/><path class="cls-1" d="M8.759.791a2.25,2.25,0,0,0-2,2.478L8.777,21.911a1.5,1.5,0,0,0,1.652,1.33l1.492-.161a1.5,1.5,0,0,0,1.33-1.652L11.237,2.786A2.249,2.249,0,0,0,8.759.791Z"/><path class="cls-1" d="M12,23.069l.079.011,1.492.161a1.5,1.5,0,0,0,1.652-1.33L17.237,3.269a2.25,2.25,0,0,0-4.474-.483L12,9.848"/><line class="cls-1" x1="12.768" y1="16.954" x2="8.294" y2="17.437"/><line class="cls-1" x1="12.284" y1="12.48" x2="7.81" y2="12.963"/><line class="cls-1" x1="2.25" y1="6.75" x2="2.25" y2="23.25"/><line class="cls-1" x1="0.75" y1="20.25" x2="3.75" y2="20.25"/><path class="cls-1" d="M2.25.75a1.5,1.5,0,0,0-1.5,1.5v4.5h3V2.25A1.5,1.5,0,0,0,2.25.75Z"/><line class="cls-1" x1="21.75" y1="6.75" x2="21.75" y2="23.25"/><line class="cls-1" x1="20.25" y1="20.25" x2="23.25" y2="20.25"/><path class="cls-1" d="M21.75.75a1.5,1.5,0,0,0-1.5,1.5v4.5h3V2.25A1.5,1.5,0,0,0,21.75.75Z"/></svg>