<svg id="Regular" xmlns="http://www.w3.org/2000/svg" viewBox="0 0 24 24"><defs><style>.cls-1{fill:none;stroke:currentColor;stroke-linecap:round;stroke-linejoin:round;stroke-width:1.5px;}</style></defs><title>skiing-chest-slide</title><path class="cls-1" d="M.832,15.638l17.479,4.3a2.25,2.25,0,0,0,2.441-.984"/><line class="cls-1" x1="1.548" y1="12.725" x2="11.016" y2="15.052"/><path class="cls-1" d="M23.206,15.731a1.5,1.5,0,0,1-1.814,1.1l-4.917-1.209a4.5,4.5,0,0,1-3.157-2.838l-.1-.279-4.4-1.081a4.512,4.512,0,0,1-1.681-.812L1.8,6.475A1.5,1.5,0,0,1,3.638,4.1L8.978,8.24a1.478,1.478,0,0,0,.557.269l5.1,1.253a1.5,1.5,0,0,1,1,.828l.358,1.1a1.5,1.5,0,0,0,1.068.991l5.045,1.24A1.5,1.5,0,0,1,23.206,15.731Z"/><circle class="cls-1" cx="20.543" cy="9.284" r="2.625"/></svg>