<svg id="Regular" xmlns="http://www.w3.org/2000/svg" viewBox="0 0 24 24"><defs><style>.cls-1{fill:none;stroke:currentColor;stroke-linecap:round;stroke-linejoin:round;stroke-width:1.5px;}</style></defs><title>skiing-cross-country-1</title><circle class="cls-1" cx="13.75" cy="3" r="2.25"/><path class="cls-1" d="M20.5,9.75H18.408a1.488,1.488,0,0,1-.832-.252L14.588,7.506a4.483,4.483,0,0,0-2.5-.756h-3.1A4.472,4.472,0,0,0,5.811,8.068L3.689,10.189a1.5,1.5,0,0,0,2.122,2.122l2.121-2.122a1.511,1.511,0,0,1,1.06-.439h1.736L7.122,18.158a1.5,1.5,0,0,0,.786,1.97,1.481,1.481,0,0,0,.592.122,1.5,1.5,0,0,0,1.378-.908l1.333-3.107,1.251.416a1.5,1.5,0,0,1,.983,1.06l.35,1.4a1.5,1.5,0,0,0,1.454,1.137,1.518,1.518,0,0,0,.364-.045A1.5,1.5,0,0,0,16.7,18.387l-.351-1.4a4.48,4.48,0,0,0-2.944-3.18L12.4,13.468,13.671,10.5l2.241,1.494a4.483,4.483,0,0,0,2.5.756H20.5a1.5,1.5,0,0,0,0-3Z"/><path class="cls-1" d="M11.311,22.264A4.479,4.479,0,0,1,8.5,23.25c-2.485,0-4.5-1.5-6.75-4.5H4"/><path class="cls-1" d="M18.764,21.561a4.5,4.5,0,0,1-4.254,1.628"/></svg>