<svg id="Regular" xmlns="http://www.w3.org/2000/svg" viewBox="0 0 24 24"><defs><style>.cls-1{fill:none;stroke:currentColor;stroke-linecap:round;stroke-linejoin:round;stroke-width:1.5px;}</style></defs><title>skiing-board-slide</title><circle class="cls-1" cx="20.625" cy="7.216" r="2.625"/><path class="cls-1" d="M1.708,12.891a1.5,1.5,0,0,1,.172-2.852l3.768-.96A1.494,1.494,0,0,0,6.77,7.486l-.159-1.71A3,3,0,0,1,10.686,2.7l4.029,1.567a1.5,1.5,0,0,1,.93,1.117l1.055,5.55a1.493,1.493,0,0,0,.761,1.041l4.065,2.194A1.5,1.5,0,1,1,20.1,16.81l-4.066-2.195a4.486,4.486,0,0,1-2.282-3.121l-.9-4.732L9.6,5.5l.158,1.71a4.476,4.476,0,0,1-3.369,4.777l-3.768.96A1.487,1.487,0,0,1,1.708,12.891Z"/><path class="cls-1" d="M22.106,19.956a2.249,2.249,0,0,1-2.843,1.429L.75,15.261"/></svg>