<svg id="Regular" xmlns="http://www.w3.org/2000/svg" viewBox="0 0 24 24"><defs><style>.cls-1{fill:none;stroke:currentColor;stroke-linecap:round;stroke-linejoin:round;stroke-width:1.5px;}</style></defs><title>skiing-bobsled</title><line class="cls-1" x1="15.75" y1="14.75" x2="16.5" y2="17.75"/><line class="cls-1" x1="14.25" y1="17.75" x2="18.75" y2="17.75"/><line class="cls-1" x1="6" y1="14.75" x2="5.25" y2="17.75"/><line class="cls-1" x1="7.5" y1="17.75" x2="3" y2="17.75"/><path class="cls-1" d="M23.25,10.25a4.5,4.5,0,0,0-4.5-4.5H15l-.509,2.544A1.5,1.5,0,0,1,13.02,9.5H3.381a1.5,1.5,0,0,0-1.442,1.088L.808,12.838A1.5,1.5,0,0,0,2.25,14.75h16.5A4.5,4.5,0,0,0,23.25,10.25Z"/></svg>