<svg id="Regular" xmlns="http://www.w3.org/2000/svg" viewBox="0 0 24 24"><defs><style>.cls-1{fill:none;stroke:currentColor;stroke-linecap:round;stroke-linejoin:round;stroke-width:1.5px;}</style></defs><title>skiing-snow-scooter</title><line class="cls-1" x1="22.878" y1="11.5" x2="18.75" y2="11.5"/><line class="cls-1" x1="18.75" y1="14.5" x2="20.25" y2="19"/><path class="cls-1" d="M23.25,16.75A2.25,2.25,0,0,1,21,19H15.75"/><path class="cls-1" d="M9.677,19A3.073,3.073,0,1,0,8.6,13.05L1.9,15.568A1.773,1.773,0,0,0,2.523,19Z"/><path class="cls-1" d="M15.625,7.425l-1-2.494a1.5,1.5,0,0,0-1.392-.943H12"/><path class="cls-1" d="M5.768,14.115a3.007,3.007,0,0,1-.64-.474L1.067,9.694A1.7,1.7,0,0,1,2.454,7H6.129a1.5,1.5,0,0,1,1.06.439L8.561,8.811a1.5,1.5,0,0,0,1.06.439H13.5a1.5,1.5,0,0,0,1.2-.6l1.8-2.4a1.5,1.5,0,0,1,2.127-.509,11.018,11.018,0,0,1,4.573,6.887A1.5,1.5,0,0,1,21.749,14.5L12.4,14.493"/><path class="cls-1" d="M9.75,15.613a.375.375,0,0,0-.375.375"/><path class="cls-1" d="M10.125,15.988a.375.375,0,0,0-.375-.375"/><path class="cls-1" d="M9.75,16.363a.375.375,0,0,0,.375-.375"/><path class="cls-1" d="M9.375,15.988a.375.375,0,0,0,.375.375"/></svg>