<svg id="Regular" xmlns="http://www.w3.org/2000/svg" viewBox="0 0 24 24"><defs><style>.cls-1{fill:none;stroke:currentColor;stroke-linecap:round;stroke-linejoin:round;stroke-width:1.5px;}</style></defs><title>skiing-cross-country</title><circle class="cls-1" cx="15.75" cy="3.375" r="2.625"/><path class="cls-1" d="M2.25,15.75h4.5a1.5,1.5,0,0,0,1.06-.439l.941-.941L10.71,16a1.5,1.5,0,0,1,.54,1.153V20.25"/><path class="cls-1" d="M14.25,20.25V17.155A4.5,4.5,0,0,0,12.631,13.7l-1.75-1.458,1.573-1.573a7.524,7.524,0,0,0,4.077,1.22,7.46,7.46,0,0,0,2.944-.6l2.115-.907a1.5,1.5,0,1,0-1.18-2.756l-2.119.907a4.5,4.5,0,0,1-4.417-.5L10.417,5.517A7.5,7.5,0,0,0,4.77,4.184l-2.018.337a1.5,1.5,0,0,0,.5,2.958l2.017-.336a4.5,4.5,0,0,1,3.387.8L9.975,8.9,6.129,12.75H.75"/><line class="cls-1" x1="3.547" y1="8.92" x2="3.19" y2="7.494"/><line class="cls-1" x1="2.464" y1="4.599" x2="1.5" y2="0.75"/><line class="cls-1" x1="21.75" y1="5.25" x2="21.75" y2="7.701"/><line class="cls-1" x1="21.75" y1="10.299" x2="21.75" y2="18.75"/><line class="cls-1" x1="20.25" y1="17.25" x2="23.25" y2="17.25"/><path class="cls-1" d="M5.25,23.25H18.257a3,3,0,0,0,2.122-.879L21,21.75"/><path class="cls-1" d="M.988,17.581l1.339,1.562a3,3,0,0,0,2.047,1.039l.876.068"/></svg>