<svg id="Regular" xmlns="http://www.w3.org/2000/svg" viewBox="0 0 24 24"><defs><style>.cls-1{fill:none;stroke:currentColor;stroke-linecap:round;stroke-linejoin:round;stroke-width:1.5px;}</style></defs><title>skirt</title><path class="cls-1" d="M6.25,3h11.5a1,1,0,0,1,1,1V6a0,0,0,0,1,0,0H5.25a0,0,0,0,1,0,0V4A1,1,0,0,1,6.25,3Z"/><path class="cls-1" d="M18.75,6H5.25A20.059,20.059,0,0,1,1.383,18.038a.751.751,0,0,0,.289,1.16A26.489,26.489,0,0,0,12,21a26.478,26.478,0,0,0,10.327-1.8.75.75,0,0,0,.29-1.16A20.052,20.052,0,0,1,18.75,6Z"/><line class="cls-1" x1="8.999" y1="15" x2="8.277" y2="20.803"/><line class="cls-1" x1="14.999" y1="15" x2="15.721" y2="20.803"/></svg>