<svg id="Regular" xmlns="http://www.w3.org/2000/svg" viewBox="0 0 24 24"><defs><style>.cls-1{fill:none;stroke:currentColor;stroke-linecap:round;stroke-linejoin:round;stroke-width:1.5px;}</style></defs><title>skirt-1</title><rect class="cls-1" x="5.25" y="0.75" width="13.5" height="3"/><path class="cls-1" d="M5.25,3.75s-3,1.5-3,4.5c0,2.638,0,8.175-1.02,9.983a.751.751,0,0,0,.29,1.025A8.2,8.2,0,0,0,5.5,20.25"/><path class="cls-1" d="M18.75,3.75s3,1.5,3,4.5c0,2.638,0,8.175,1.02,9.983a.751.751,0,0,1-.29,1.025,8.2,8.2,0,0,1-3.976.992"/><path class="cls-1" d="M14.25,3.75s3,3,3,9a21.735,21.735,0,0,0,1.792,8.839.75.75,0,0,1-.586,1.053c-1.648.218-4.833.608-6.456.608s-4.808-.39-6.456-.608a.75.75,0,0,1-.586-1.053A21.735,21.735,0,0,0,6.75,12.75c0-6,3-9,3-9"/><line class="cls-1" x1="12" y1="3.75" x2="12" y2="23.25"/></svg>