<svg id="Regular" xmlns="http://www.w3.org/2000/svg" viewBox="0 0 24 24"><defs><style>.cls-1{fill:none;stroke:currentColor;stroke-linecap:round;stroke-linejoin:round;stroke-width:1.5px;}</style></defs><title>skunk</title><path class="cls-1" d="M7.647,18.25A13.3,13.3,0,0,0,6.908,22"/><line class="cls-1" x1="17.197" y1="18.8" x2="17.985" y2="22"/><path class="cls-1" d="M23.154,11.5c0-1.5-2.37-2.25-4.154-2.25a3.122,3.122,0,0,0-3.231,3A2.84,2.84,0,0,0,16.381,14c-2.41.335-5.042.007-5.042-.995,0-1.5,1.477-1.5,1.477-5.25a5.954,5.954,0,0,0-5.908-6A5.953,5.953,0,0,0,1,7.75,6.031,6.031,0,0,0,2.3,11.5S2.442,6.459,6.17,7c5.169.75,1.477,11.25,1.477,11.25s.738,1.5,5.907,1.5c3.934,0,5.3-2.172,5.728-4.532C21.025,15.051,23.154,12.25,23.154,11.5Z"/><path class="cls-1" d="M19.092,11.494a.378.378,0,0,1,.375.381"/><path class="cls-1" d="M18.717,11.875a.378.378,0,0,1,.375-.381"/><path class="cls-1" d="M19.092,12.256a.378.378,0,0,1-.375-.381"/><path class="cls-1" d="M19.467,11.875a.378.378,0,0,1-.375.381"/><path class="cls-1" d="M4.693,7.108A7.272,7.272,0,0,1,9.524,6.5"/><path class="cls-1" d="M16.732,10.114,16.508,10a1.651,1.651,0,0,1-.739-2.25"/></svg>