<svg id="Regular" xmlns="http://www.w3.org/2000/svg" viewBox="0 0 24 24"><defs><style>.cls-1{fill:none;stroke:currentColor;stroke-linecap:round;stroke-linejoin:round;stroke-width:1.5px;}</style></defs><title>sky</title><line class="cls-1" x1="21.75" y1="23.25" x2="21.75" y2="15.948"/><line class="cls-1" x1="12.75" y1="15.948" x2="12.75" y2="23.25"/><polyline class="cls-1" points="11.25 17.26 17.25 12.01 23.25 17.26"/><path class="cls-1" d="M4.63,5.25a4.523,4.523,0,0,0,.035.562,4.365,4.365,0,0,1,.049-1.4"/><path class="cls-1" d="M9.065,9.75A4.468,4.468,0,0,0,13.5,5.25a4.427,4.427,0,0,0-8.786-.842,2.717,2.717,0,0,0-1.192-.283,2.813,2.813,0,0,0,0,5.625Z"/><polyline class="cls-1" points="6.75 18.75 4.5 20.25 2.25 18.75"/><polyline class="cls-1" points="6.75 14.25 4.5 12.75 2.25 14.25"/><line class="cls-1" x1="0.75" y1="23.25" x2="23.25" y2="23.25"/><line class="cls-1" x1="4.5" y1="12.75" x2="4.5" y2="20.25"/></svg>