<svg xmlns="http://www.w3.org/2000/svg" viewBox="0 0 24 24"><defs><style>.a{fill:none;stroke:currentColor;stroke-linecap:round;stroke-linejoin:round;stroke-width:1.5px;}</style></defs><title>smart-house-window</title><path class="a" d="M13.7,3a5.248,5.248,0,0,0,7.424,0"/><path class="a" d="M11.582,5.122a8.251,8.251,0,0,0,11.668,0"/><path class="a" d="M8.25,5.25h-6a1.5,1.5,0,0,0-1.5,1.5v15a1.5,1.5,0,0,0,1.5,1.5h15a1.5,1.5,0,0,0,1.5-1.5V11.25"/><path class="a" d="M17.416.75a.375.375,0,1,0,.375.375A.375.375,0,0,0,17.416.75h0"/><line class="a" x1="0.75" y1="14.25" x2="18.75" y2="14.25"/><line class="a" x1="9.75" y1="8.25" x2="9.75" y2="23.25"/></svg>