<svg xmlns="http://www.w3.org/2000/svg" viewBox="0 0 24 24"><defs><style>.a{fill:none;stroke:currentColor;stroke-linecap:round;stroke-linejoin:round;stroke-width:1.5px;}</style></defs><title>smart-house-open</title><path class="a" d="M9.75,12.75v9a1.5,1.5,0,0,1-1.5,1.5h-6a1.5,1.5,0,0,1-1.5-1.5V11.25a1.5,1.5,0,0,1,1.5-1.5h3"/><polyline class="a" points="6.75 14.25 3.75 16.5 6.75 18.75"/><path class="a" d="M14.25,12.75v9a1.5,1.5,0,0,0,1.5,1.5h6a1.5,1.5,0,0,0,1.5-1.5V11.25a1.5,1.5,0,0,0-1.5-1.5h-3"/><polyline class="a" points="17.25 14.25 20.25 16.5 17.25 18.75"/><path class="a" d="M4.75,4.875a8.253,8.253,0,0,0,14.7,0"/><path class="a" d="M15.537,2.625a3.75,3.75,0,0,1-6.874,0"/><path class="a" d="M12.1.75a.375.375,0,1,0,.375.375A.375.375,0,0,0,12.1.75h0"/></svg>