<svg xmlns="http://www.w3.org/2000/svg" viewBox="0 0 24 24"><defs><style>.a{fill:none;stroke:currentColor;stroke-linecap:round;stroke-linejoin:round;stroke-width:1.5px;}</style></defs><title>smart-house-phone-connect</title><rect class="a" x="15.75" y="11.25" width="7.5" height="12" rx="1.5" ry="1.5"/><line class="a" x1="15.75" y1="20.25" x2="23.25" y2="20.25"/><polyline class="a" points="10.5 3.563 10.5 10.5 3 10.5 3 3.563"/><polyline class="a" points="0.75 5.25 6.75 0.75 12.75 5.25"/><path class="a" d="M20.005,5.72A8.945,8.945,0,0,1,21.325,8.4"/><path class="a" d="M10.1,20.815a9.766,9.766,0,0,1-2.807-1.024"/><path class="a" d="M3.979,16.8a9.811,9.811,0,0,1-1.3-2.688"/><path class="a" d="M13.3,1.588a9.833,9.833,0,0,1,2.867.846"/></svg>