<svg xmlns="http://www.w3.org/2000/svg" viewBox="0 0 24 24"><defs><style>.a{fill:none;stroke:currentColor;stroke-linecap:round;stroke-linejoin:round;stroke-width:1.5px;}</style></defs><title>smart-house-call</title><path class="a" d="M9.583,9.577l.567.568a1.573,1.573,0,0,0,2.224,0l.834-.834a.788.788,0,0,0,0-1.112L11.586,6.578a.787.787,0,0,0-1.186.077c-1.7,2.307-.67,4.737,1.418,6.825S16.336,16.6,18.643,14.9a.788.788,0,0,0,.077-1.186L17.1,12.09a.785.785,0,0,0-1.111,0l-.834.834a1.572,1.572,0,0,0,0,2.223l.573.574"/><path class="a" d="M5.25,12.75V6.862a1.5,1.5,0,0,1,.744-1.3L14.25.75l8.256,4.816a1.5,1.5,0,0,1,.744,1.3V18.75a1.5,1.5,0,0,1-1.5,1.5H12.313"/><path class="a" d="M2.438,20.654a3.978,3.978,0,0,1,5.625,0"/><path class="a" d="M.75,17.989a6.364,6.364,0,0,1,9,0"/><path class="a" d="M5.25,22.5a.375.375,0,1,1-.375.375A.375.375,0,0,1,5.25,22.5"/></svg>