<svg xmlns="http://www.w3.org/2000/svg" viewBox="0 0 24 24"><defs><style>.a{fill:none;stroke:currentColor;stroke-linecap:round;stroke-linejoin:round;stroke-width:1.5px;}</style></defs><title>smart-house-garage-1</title><polyline class="a" points="23.25 8.25 15.75 0.75 8.25 8.25"/><rect class="a" x="0.75" y="14.25" width="6" height="9" rx="1.5" ry="1.5"/><path class="a" d="M3.75,19.875a.375.375,0,1,0,.375.375.375.375,0,0,0-.375-.375h0"/><path class="a" d="M1.629,10.629a3,3,0,0,1,4.242,0"/><path class="a" d="M21.75,6.75v7.5a1.5,1.5,0,0,1-1.5,1.5h-9a1.5,1.5,0,0,1-1.5-1.5V6.75"/><rect class="a" x="12.75" y="9.75" width="6" height="6"/><line class="a" x1="12.75" y1="12.75" x2="18.75" y2="12.75"/></svg>