<svg xmlns="http://www.w3.org/2000/svg" viewBox="0 0 24 24"><defs><style>.a{fill:none;stroke:currentColor;stroke-linecap:round;stroke-linejoin:round;stroke-width:1.5px;}</style></defs><title>smartphone-pay-dollar-1</title><path class="a" d="M12.75,14.25v7.5a1.5,1.5,0,0,1-1.5,1.5h-9a1.5,1.5,0,0,1-1.5-1.5v-18a1.5,1.5,0,0,1,1.5-1.5H9"/><line class="a" x1="0.75" y1="18.75" x2="12.75" y2="18.75"/><path class="a" d="M18.75,3.75H16.717a1.341,1.341,0,0,0-.5,2.587l2.063.826a1.342,1.342,0,0,1-.5,2.587H15.75"/><line class="a" x1="17.25" y1="3.75" x2="17.25" y2="3"/><line class="a" x1="17.25" y1="10.5" x2="17.25" y2="9.75"/><circle class="a" cx="17.25" cy="6.75" r="6"/></svg>