<svg xmlns="http://www.w3.org/2000/svg" viewBox="0 0 24 24"><defs><style>.a{fill:none;stroke:currentColor;stroke-linecap:round;stroke-linejoin:round;stroke-width:1.5px;}</style></defs><title>smartphone-pay-dollar</title><path class="a" d="M12.767,7.844a2.221,2.221,0,0,0,1.858.875c1.139,0,2.063-.693,2.063-1.547s-.924-1.546-2.063-1.546-2.062-.693-2.062-1.548.923-1.547,2.062-1.547a2.221,2.221,0,0,1,1.858.875"/><line class="a" x1="14.625" y1="8.719" x2="14.625" y2="9.75"/><line class="a" x1="14.625" y1="1.5" x2="14.625" y2="2.531"/><path class="a" d="M12.75,15v6.75a1.5,1.5,0,0,1-1.5,1.5h-9a1.5,1.5,0,0,1-1.5-1.5V5.25a1.5,1.5,0,0,1,1.5-1.5"/><line class="a" x1="0.75" y1="19.5" x2="12.75" y2="19.5"/><path class="a" d="M18,.75h3.75a1.5,1.5,0,0,1,1.5,1.5V10.5a1.5,1.5,0,0,1-1.5,1.5h-15a1.5,1.5,0,0,1-1.5-1.5V2.25A1.5,1.5,0,0,1,6.75.75h4.5"/></svg>