<svg xmlns="http://www.w3.org/2000/svg" viewBox="0 0 24 24"><defs><style>.a{fill:none;stroke:currentColor;stroke-linecap:round;stroke-linejoin:round;stroke-width:1.5px;}</style></defs><title>smart-house-phone-cctv</title><rect class="a" x="15.718" y="11.25" width="7.5" height="12" rx="1.5" ry="1.5"/><line class="a" x1="15.718" y1="20.25" x2="23.218" y2="20.25"/><path class="a" d="M3.718,15.75a6,6,0,0,0,6,6h2.25"/><path class="a" d="M23.218,8.25a6,6,0,0,0-6-6h-1.5"/><polyline class="a" points="17.218 0.75 15.718 2.25 17.218 3.75"/><polyline class="a" points="10.468 23.25 11.968 21.75 10.468 20.25"/><path class="a" d="M8.7,2.459,1.029,4.836a.346.346,0,0,0-.183.581l2.793,3.6a.832.832,0,0,0,.838.264l5.781-1.792A2.635,2.635,0,1,0,8.7,2.459Z"/><path class="a" d="M9.629,7.687l.585,1.888a1.317,1.317,0,0,0,1.648.868l1.606-.5"/></svg>