<svg xmlns="http://www.w3.org/2000/svg" viewBox="0 0 24 24"><defs><style>.a{fill:none;stroke:currentColor;stroke-linecap:round;stroke-linejoin:round;stroke-width:1.5px;}</style></defs><title>smart-house-phone</title><path class="a" d="M12.75,23.25,9.986,20.14a1.557,1.557,0,1,1,2.327-2.069L14.25,20.25v-9a1.5,1.5,0,0,1,3,0V18h1.5a4.5,4.5,0,0,1,4.5,4.5v.75"/><path class="a" d="M9,23.25H3.75a3,3,0,0,1-3-3V3.75a3,3,0,0,1,3-3h9a3,3,0,0,1,3,3v3"/><line class="a" x1="0.75" y1="18.75" x2="6.75" y2="18.75"/><polyline class="a" points="11.25 7 11.25 12.75 5.25 12.75 5.25 7"/><polyline class="a" points="3.75 8.25 8.25 4.5 12.75 8.25"/></svg>