<svg xmlns="http://www.w3.org/2000/svg" viewBox="0 0 24 24"><defs><style>.a{fill:none;stroke:currentColor;stroke-linecap:round;stroke-linejoin:round;stroke-width:1.5px;}</style></defs><title>smart-house-phone-power-1</title><path class="a" d="M3.75,6.467V17.25a1.5,1.5,0,0,0,1.5,1.5h7.519"/><line class="a" x1="10.52" y1="0.75" x2="0.75" y2="9"/><line class="a" x1="10.52" y1="0.75" x2="14.072" y2="3.75"/><rect class="a" x="15.75" y="11.25" width="7.5" height="12" rx="1.5" ry="1.5"/><line class="a" x1="15.75" y1="20.25" x2="23.25" y2="20.25"/><line class="a" x1="10.519" y1="7.5" x2="10.519" y2="10"/><path class="a" d="M8.4,8.879a3,3,0,1,0,4.243,0"/><path class="a" d="M17.823,8.25a2.25,2.25,0,0,1,3.354,0"/><path class="a" d="M15.75,6.076a5.249,5.249,0,0,1,7.5,0"/></svg>