<svg xmlns="http://www.w3.org/2000/svg" viewBox="0 0 24 24"><defs><style>.a{fill:none;stroke:currentColor;stroke-linecap:round;stroke-linejoin:round;stroke-width:1.5px;}</style></defs><title>smart-house-eye</title><path class="a" d="M20.25,10.5s-2.25,3.75-6,3.75-6-3.75-6-3.75,2.25-3.75,6-3.75S20.25,10.5,20.25,10.5Z"/><path class="a" d="M14.25,10.125a.375.375,0,1,0,.375.375.375.375,0,0,0-.375-.375h0"/><path class="a" d="M5.25,12.75V6.862a1.5,1.5,0,0,1,.744-1.3L14.25.75l8.256,4.816a1.5,1.5,0,0,1,.744,1.3V18.75a1.5,1.5,0,0,1-1.5,1.5H12.313"/><path class="a" d="M2.438,20.654a3.978,3.978,0,0,1,5.625,0"/><path class="a" d="M.75,17.989a6.364,6.364,0,0,1,9,0"/><path class="a" d="M5.25,22.5a.375.375,0,1,1-.375.375A.375.375,0,0,1,5.25,22.5"/></svg>