<svg xmlns="http://www.w3.org/2000/svg" viewBox="0 0 24 24"><defs><style>.a{fill:none;stroke:currentColor;stroke-linecap:round;stroke-linejoin:round;stroke-width:1.5px;}</style></defs><title>smartwatch-shopping-cart</title><rect class="a" x="3.75" y="3.75" width="16.5" height="16.5" rx="3" ry="3"/><path class="a" d="M17.25,3.75H6.75V2.25A1.5,1.5,0,0,1,8.25.75h7.5a1.5,1.5,0,0,1,1.5,1.5Z"/><path class="a" d="M17.25,20.25v1.5a1.5,1.5,0,0,1-1.5,1.5H8.25a1.5,1.5,0,0,1-1.5-1.5v-1.5"/><polyline class="a" points="16.875 6.742 14.625 14.242 8.625 14.242 7.125 9.742 15.975 9.742"/><path class="a" d="M9,16.492a.375.375,0,1,1-.375.375A.375.375,0,0,1,9,16.492"/><path class="a" d="M14.25,16.492a.375.375,0,1,1-.375.375.375.375,0,0,1,.375-.375"/></svg>