<svg xmlns="http://www.w3.org/2000/svg" viewBox="0 0 24 24"><defs><style>.a{fill:none;stroke:currentColor;stroke-linecap:round;stroke-linejoin:round;stroke-width:1.5px;}</style></defs><title>smartphone-payment-touch</title><path class="a" d="M23.25,18.75V13.5c0-2-3.8-4.139-5.25-5.25"/><path class="a" d="M19.93,14.794,16.282,11.87a1.3,1.3,0,0,0-1.843,1.843L17.973,17.7v2.5c0,1.181,1.687,3.045,1.687,3.045"/><path class="a" d="M8.733.75H16.5A1.5,1.5,0,0,1,18,2.25v11"/><path class="a" d="M15,21.75H7.5A1.5,1.5,0,0,1,6,20.25v-7.5"/><line class="a" x1="6" y1="18" x2="12" y2="18"/><path class="a" d="M10.329,9.344a2.224,2.224,0,0,0,1.858.875c1.139,0,2.063-.693,2.063-1.547s-.924-1.546-2.063-1.546-2.062-.693-2.062-1.548.924-1.547,2.062-1.547a2.221,2.221,0,0,1,1.858.875"/><line class="a" x1="12.187" y1="10.219" x2="12.187" y2="11.25"/><line class="a" x1="12.187" y1="3" x2="12.187" y2="4.031"/><line class="a" x1="3.75" y1="3.75" x2="3.75" y2="6.75"/><path class="a" d="M2.2,1.182A2.976,2.976,0,0,1,3.75.75h0a3.009,3.009,0,0,1,3,3v3c0,.076,0,.151-.008.225"/><path class="a" d="M5.383,9.263A2.972,2.972,0,0,1,3.75,9.75h0a3.009,3.009,0,0,1-3-3v-3"/></svg>