<svg xmlns="http://www.w3.org/2000/svg" viewBox="0 0 24 24"><defs><style>.a{fill:none;stroke:currentColor;stroke-linecap:round;stroke-linejoin:round;stroke-width:1.5px;}</style></defs><title>smart-house-phone-lock</title><path class="a" d="M3.75,6.462V17.25a1.5,1.5,0,0,0,1.5,1.5h7.519"/><polyline class="a" points="14.046 3.75 10.5 0.75 0.75 9"/><rect class="a" x="7.5" y="10.5" width="6" height="4.5" rx="0.375" ry="0.375"/><path class="a" d="M8.25,10.5V9a2.25,2.25,0,0,1,4.5,0v1.5"/><rect class="a" x="15.75" y="11.25" width="7.5" height="12" rx="1.5" ry="1.5"/><line class="a" x1="15.75" y1="20.25" x2="23.25" y2="20.25"/><path class="a" d="M17.823,8.25a2.25,2.25,0,0,1,3.354,0"/><path class="a" d="M15.75,6.076a5.249,5.249,0,0,1,7.5,0"/></svg>