<svg id="Regular" xmlns="http://www.w3.org/2000/svg" viewBox="0 0 24 24"><defs><style>.cls-1{fill:none;stroke:currentColor;stroke-linecap:round;stroke-linejoin:round;stroke-width:1.5px;}</style></defs><title>smart-light-wifi</title><polyline class="cls-1" points="7.5 16.492 7.5 12.742 5.25 10.492"/><line class="cls-1" x1="7.5" y1="12.742" x2="9.75" y2="10.492"/><line class="cls-1" x1="7.5" y1="23.242" x2="7.5" y2="21.742"/><path class="cls-1" d="M10.5,18.742a3,3,0,0,1-6,0v-2.25h6Z"/><path class="cls-1" d="M7.5,3.742a6.751,6.751,0,0,0-3,12.8v-.048h6v.048a6.751,6.751,0,0,0-3-12.8Z"/><path class="cls-1" d="M18.142,7.492a.375.375,0,1,1-.375.375.375.375,0,0,1,.375-.375"/><path class="cls-1" d="M14.857,4.722a6.006,6.006,0,0,1,6.57,0"/><path class="cls-1" d="M23.25,2.352a8.982,8.982,0,0,0-10.216,0"/></svg>