<svg xmlns="http://www.w3.org/2000/svg" viewBox="0 0 24 24"><defs><style>.a{fill:none;stroke:currentColor;stroke-linecap:round;stroke-linejoin:round;stroke-width:1.5px;}</style></defs><title>smart-house-ventilator</title><path class="a" d="M10.75,10.5c0-2.625.875-5.25,3.5-5.25V10.5"/><path class="a" d="M14.25,14C11.625,14,9,13.125,9,10.5h5.25"/><path class="a" d="M17.75,10.5c0,2.625-.875,5.25-3.5,5.25V10.5"/><path class="a" d="M14.25,7c2.625,0,5.25.875,5.25,3.5H14.25"/><path class="a" d="M5.25,12.75V6.862a1.5,1.5,0,0,1,.744-1.3L14.25.75l8.256,4.816a1.5,1.5,0,0,1,.744,1.3V18.75a1.5,1.5,0,0,1-1.5,1.5H12.313"/><path class="a" d="M2.438,20.654a3.978,3.978,0,0,1,5.625,0"/><path class="a" d="M.75,17.989a6.364,6.364,0,0,1,9,0"/><path class="a" d="M5.25,22.5a.375.375,0,1,1-.375.375A.375.375,0,0,1,5.25,22.5"/></svg>