<svg xmlns="http://www.w3.org/2000/svg" viewBox="0 0 24 24"><defs><style>.a{fill:none;stroke:currentColor;stroke-linecap:round;stroke-linejoin:round;stroke-width:1.5px;}</style></defs><title>smartwatch-shopping-basket</title><rect class="a" x="3.75" y="3.75" width="16.5" height="16.5" rx="3" ry="3"/><path class="a" d="M17.25,3.75H6.75V2.25A1.5,1.5,0,0,1,8.25.75h7.5a1.5,1.5,0,0,1,1.5,1.5Z"/><path class="a" d="M15.75,23.25H8.25a1.5,1.5,0,0,1-1.5-1.5v-1.5h10.5v1.5A1.5,1.5,0,0,1,15.75,23.25Z"/><path class="a" d="M15.836,11.25H8.165a1.5,1.5,0,0,0-1.4,2.027l1.308,3.486a.749.749,0,0,0,.7.487h6.461a.75.75,0,0,0,.7-.487l1.307-3.486A1.5,1.5,0,0,0,15.836,11.25Z"/><line class="a" x1="8.25" y1="11.25" x2="9.75" y2="7.5"/><line class="a" x1="15.75" y1="11.25" x2="14.25" y2="7.5"/><line class="a" x1="10.5" y1="15" x2="10.5" y2="13.5"/><line class="a" x1="13.5" y1="15" x2="13.5" y2="13.5"/></svg>