<svg xmlns="http://www.w3.org/2000/svg" viewBox="0 0 24 24"><defs><style>.a{fill:none;stroke:currentColor;stroke-linecap:round;stroke-linejoin:round;stroke-width:1.5px;}</style></defs><title>smart-house-unlock</title><path class="a" d="M14.25,11.875a.375.375,0,1,0,.375.375.375.375,0,0,0-.375-.375h0"/><rect class="a" x="10.5" y="9.25" width="7.5" height="6" rx="0.375" ry="0.375"/><path class="a" d="M12.266,5.5A3,3,0,0,1,17.25,7.75v1.5"/><path class="a" d="M5.25,13V7.112a1.5,1.5,0,0,1,.744-1.3L14.25,1l8.256,4.816a1.5,1.5,0,0,1,.744,1.3V19a1.5,1.5,0,0,1-1.5,1.5H12.313"/><path class="a" d="M2.438,20.654a3.978,3.978,0,0,1,5.625,0"/><path class="a" d="M.75,17.989a6.364,6.364,0,0,1,9,0"/><path class="a" d="M5.25,22.5a.375.375,0,1,1-.375.375A.375.375,0,0,1,5.25,22.5"/></svg>