<svg xmlns="http://www.w3.org/2000/svg" viewBox="0 0 24 24"><defs><style>.a{fill:none;stroke:currentColor;stroke-linecap:round;stroke-linejoin:round;stroke-width:1.5px;}</style></defs><title>smart-house-car</title><polyline class="a" points="15.75 8.25 8.25 0.75 0.75 8.25"/><path class="a" d="M8.25,15.75H3.75a1.5,1.5,0,0,1-1.5-1.5V6.75"/><line class="a" x1="14.25" y1="6.75" x2="14.25" y2="9.75"/><path class="a" d="M21,15.75v-1.5a1.5,1.5,0,0,0-1.5-1.5h-6a1.5,1.5,0,0,0-1.5,1.5v1.5L9.75,18.757V21.75h13.5V18.757Z"/><line class="a" x1="12" y1="15.75" x2="21" y2="15.75"/><line class="a" x1="9.75" y1="18.75" x2="12.75" y2="18.75"/><line class="a" x1="20.25" y1="18.75" x2="23.25" y2="18.75"/><line class="a" x1="11.25" y1="21.75" x2="11.25" y2="23.25"/><line class="a" x1="21.75" y1="21.75" x2="21.75" y2="23.25"/><path class="a" d="M5.6,8.6a3.75,3.75,0,0,1,5.3,0"/><path class="a" d="M8.25,10.875a.375.375,0,1,0,.375.375.375.375,0,0,0-.375-.375h0"/></svg>