<svg xmlns="http://www.w3.org/2000/svg" viewBox="0 0 24 24"><defs><style>.a{fill:none;stroke:currentColor;stroke-linecap:round;stroke-linejoin:round;stroke-width:1.5px;}</style></defs><title>smart-house-remote</title><path class="a" d="M5.252,12.75V6.862A1.5,1.5,0,0,1,6,5.566L14.252.75l8.256,4.816a1.5,1.5,0,0,1,.744,1.3V18.75a1.5,1.5,0,0,1-1.5,1.5H12.315"/><path class="a" d="M2.44,20.654a3.978,3.978,0,0,1,5.625,0"/><path class="a" d="M.752,17.989a6.364,6.364,0,0,1,9,0"/><path class="a" d="M5.252,22.5a.375.375,0,1,1-.375.375.375.375,0,0,1,.375-.375"/></svg>