<svg xmlns="http://www.w3.org/2000/svg" viewBox="0 0 24 24"><defs><style>.a,.b{fill:none;stroke:currentColor;stroke-linecap:round;stroke-linejoin:round;stroke-width:1.5px;}.b{fill-rule:evenodd;}</style></defs><title>smart-house-light-on</title><path class="a" d="M6.75,3.75V2.25A1.5,1.5,0,0,1,8.25.75h9a1.5,1.5,0,0,1,1.5,1.5v1.5"/><circle class="a" cx="12" cy="17.625" r="2.625"/><path class="a" d="M15.75,23.25a4.25,4.25,0,0,0-7.5,0"/><path class="b" d="M20.871,8.872a3,3,0,0,1-4.242,0"/><path class="b" d="M14.25,10.719a6,6,0,0,0,9,0"/><path class="b" d="M18.75,6a.375.375,0,1,1-.375.375A.375.375,0,0,1,18.75,6"/><circle class="a" cx="6.75" cy="8.25" r="2.25"/><line class="a" x1="6.75" y1="12.75" x2="6.75" y2="14.25"/><line class="a" x1="9.932" y1="5.068" x2="10.993" y2="4.008"/><line class="a" x1="11.25" y1="8.25" x2="12.75" y2="8.25"/><line class="a" x1="3.568" y1="5.068" x2="2.507" y2="4.008"/><line class="a" x1="2.25" y1="8.25" x2="0.75" y2="8.25"/><line class="a" x1="9.932" y1="11.432" x2="10.993" y2="12.493"/><line class="a" x1="3.568" y1="11.432" x2="2.507" y2="12.493"/></svg>