<svg id="Regular" xmlns="http://www.w3.org/2000/svg" viewBox="0 0 24 24"><defs><style>.cls-1{fill:none;stroke:currentColor;stroke-linecap:round;stroke-linejoin:round;stroke-width:1.5px;}</style></defs><title>smart-light-smartphone</title><path class="cls-1" d="M5.25,21.75H3.75a1.5,1.5,0,0,1-1.5-1.5V18h4.5v2.25A1.5,1.5,0,0,1,5.25,21.75Z"/><path class="cls-1" d="M4.5,11.25A3.75,3.75,0,0,0,2.25,18h4.5A3.75,3.75,0,0,0,4.5,11.25Z"/><line class="cls-1" x1="4.5" y1="21.75" x2="4.5" y2="23.25"/><path class="cls-1" d="M10.812,12.606A6.765,6.765,0,0,0,6.486,8.547"/><path class="cls-1" d="M17.826,9.945A14.285,14.285,0,0,0,8.692,1.377"/><path class="cls-1" d="M7.589,4.962a10.527,10.527,0,0,1,6.73,6.313"/><path class="cls-1" d="M15.75.75h4.5a3,3,0,0,1,3,3v16.5a3,3,0,0,1-3,3h-7.5a3,3,0,0,1-3-3"/><line class="cls-1" x1="12.75" y1="17.25" x2="23.25" y2="17.25"/><line class="cls-1" x1="16.5" y1="19.875" x2="16.5" y2="19.875"/><path class="cls-1" d="M16.5,19.875a.375.375,0,1,0,.375.375.375.375,0,0,0-.375-.375"/></svg>