<svg id="Regular" xmlns="http://www.w3.org/2000/svg" viewBox="0 0 24 24"><defs><style>.cls-1{fill:none;stroke:currentColor;stroke-linecap:round;stroke-linejoin:round;stroke-width:1.5px;}</style></defs><title>snail-shell</title><path class="cls-1" d="M12.576,10.039a2.135,2.135,0,0,1,2.135,2.135"/><path class="cls-1" d="M9.374,13.241a3.2,3.2,0,0,1,3.2-3.2"/><path class="cls-1" d="M13.644,17.511a4.27,4.27,0,0,1-4.27-4.27"/><path class="cls-1" d="M18.981,12.174a5.338,5.338,0,0,1-5.337,5.337"/><path class="cls-1" d="M12.576,5.769a6.405,6.405,0,0,1,6.405,6.4"/><path class="cls-1" d="M5.1,13.241a7.472,7.472,0,0,1,7.472-7.472"/><path class="cls-1" d="M5.1,13.241a8.54,8.54,0,0,0,8.54,8.539"/><path class="cls-1" d="M23.25,12.174a9.606,9.606,0,0,1-9.606,9.606"/><path class="cls-1" d="M12.576,1.5A10.675,10.675,0,0,1,23.25,12.174"/><path class="cls-1" d="M12.576,1.5A11.741,11.741,0,0,0,.835,13.241H5.1"/></svg>