<svg id="Regular" xmlns="http://www.w3.org/2000/svg" viewBox="0 0 24 24"><defs><style>.cls-1{fill:none;stroke:currentColor;stroke-linecap:round;stroke-linejoin:round;stroke-width:1.5px;}</style></defs><title>soccer-ball</title><path class="cls-1" d="M12,.75A11.25,11.25,0,1,0,23.25,12,11.25,11.25,0,0,0,12,.75Z"/><polygon class="cls-1" points="8.895 16.754 6.985 10.854 12 7.208 17.015 10.854 15.105 16.754 8.895 16.754"/><polyline class="cls-1" points="16.301 1.601 12 4.5 7.699 1.601"/><polyline class="cls-1" points="14.599 22.948 16.738 18.582 21.622 17.832"/><polyline class="cls-1" points="23.214 12.909 19.787 9.496 20.522 4.657"/><line class="cls-1" x1="12" y1="4.5" x2="12" y2="7.208"/><line class="cls-1" x1="17.015" y1="10.854" x2="19.787" y2="9.496"/><polyline class="cls-1" points="0.786 12.909 4.213 9.496 3.478 4.657"/><line class="cls-1" x1="6.985" y1="10.854" x2="4.213" y2="9.496"/><line class="cls-1" x1="15.105" y1="16.754" x2="16.738" y2="18.582"/><polyline class="cls-1" points="9.401 22.948 7.262 18.582 2.378 17.832"/><line class="cls-1" x1="8.895" y1="16.754" x2="7.262" y2="18.582"/></svg>