<svg id="Regular" xmlns="http://www.w3.org/2000/svg" viewBox="0 0 24 24"><defs><style>.cls-1{fill:none;stroke:currentColor;stroke-linecap:round;stroke-linejoin:round;stroke-width:1.5px;}</style></defs><title>soccer-player-ball</title><circle class="cls-1" cx="12.75" cy="3.375" r="2.625"/><path class="cls-1" d="M18,9H15.333a4.489,4.489,0,0,1-1.574-.284L10.792,7.608a10.7,10.7,0,0,0-9.314.856,1.5,1.5,0,0,0,1.544,2.572,7.728,7.728,0,0,1,5.4-.972L5.088,16.5H2.25a1.5,1.5,0,0,0,0,3H6a1.5,1.5,0,0,0,1.332-.81l1.076-2.079,3.116,1.612.489,3.722a1.5,1.5,0,0,0,1.486,1.3,1.455,1.455,0,0,0,.2-.013,1.5,1.5,0,0,0,1.292-1.682L14.5,17.836a3,3,0,0,0-1.6-2.279l-3.114-1.61L11.311,11l1.4.522A7.458,7.458,0,0,0,15.333,12H18a1.5,1.5,0,0,0,0-3Z"/><circle class="cls-1" cx="21" cy="21" r="2.25"/></svg>