<svg id="Regular" xmlns="http://www.w3.org/2000/svg" viewBox="0 0 24 24"><defs><style>.cls-1{fill:none;stroke:currentColor;stroke-linecap:round;stroke-linejoin:round;stroke-width:1.5px;}</style></defs><title>soccer-goal-net</title><path class="cls-1" d="M22.167,20.347a.66.66,0,0,0,1.083-.507V7a3,3,0,0,0-3-3H3.75a3,3,0,0,0-3,3V19.84a.66.66,0,0,0,1.083.507L5.25,17.5v-9h13.5v9Z"/><line class="cls-1" x1="1.629" y1="4.879" x2="5.25" y2="8.5"/><line class="cls-1" x1="22.371" y1="4.879" x2="18.75" y2="8.5"/><line class="cls-1" x1="5.25" y1="17.5" x2="18.75" y2="17.5"/><line class="cls-1" x1="5.25" y1="11.5" x2="18.75" y2="11.5"/><line class="cls-1" x1="5.25" y1="14.5" x2="18.75" y2="14.5"/><line class="cls-1" x1="9.75" y1="17.5" x2="9.75" y2="8.5"/><line class="cls-1" x1="14.25" y1="17.5" x2="14.25" y2="8.5"/></svg>