<svg id="Regular" xmlns="http://www.w3.org/2000/svg" viewBox="0 0 24 24"><defs><style>.cls-1{fill:none;stroke:currentColor;stroke-linecap:round;stroke-linejoin:round;stroke-width:1.5px;}</style></defs><title>soccer-player-kick</title><path class="cls-1" d="M14.712,9.75A5.969,5.969,0,0,0,19.4,7.5l1.648-2.061A1.5,1.5,0,1,0,18.7,3.563L17.055,5.624A2.983,2.983,0,0,1,14.712,6.75H8.875a4.523,4.523,0,0,0-2.7.9L3.975,9.3a1.5,1.5,0,1,0,1.8,2.4l2.2-1.65a1.507,1.507,0,0,1,.9-.3H10.3l.433,3.466-2.291.764a1.516,1.516,0,0,1-1.031-.03l-2.73-1.092a1.5,1.5,0,0,0-1.114,2.784L6.3,16.734a4.5,4.5,0,0,0,3.1.092l2.983-1,2.668.889a1.494,1.494,0,0,1,.93.9l1.747,4.66a1.5,1.5,0,0,0,1.405.974,1.526,1.526,0,0,0,.527-.1,1.5,1.5,0,0,0,.878-1.932l-1.748-4.659a4.482,4.482,0,0,0-2.79-2.69l-2.246-.748L13.324,9.75Z"/><circle class="cls-1" cx="12.375" cy="3.375" r="2.625"/><circle class="cls-1" cx="11.625" cy="21" r="2.25"/></svg>