<svg id="Regular" xmlns="http://www.w3.org/2000/svg" viewBox="0 0 24 24"><defs><style>.cls-1{fill:none;stroke:currentColor;stroke-linecap:round;stroke-linejoin:round;stroke-width:1.5px;}</style></defs><title>soccer-kick-ball</title><circle class="cls-1" cx="6.375" cy="6.375" r="5.625"/><path class="cls-1" d="M14.443,14.563l-7.81,0a2.24,2.24,0,0,0-.677,4.375l11.621,3.691a.75.75,0,0,0,.942-.487l1.814-5.711-.706.365C18.178,17.55,15.64,16.87,14.443,14.563Z"/><line class="cls-1" x1="15.81" y1="23.25" x2="16.15" y2="22.179"/><line class="cls-1" x1="12.597" y1="22.229" x2="12.937" y2="21.158"/><line class="cls-1" x1="6.171" y1="20.188" x2="6.511" y2="19.117"/><line class="cls-1" x1="9.384" y1="21.209" x2="9.724" y2="20.138"/><path class="cls-1" d="M14.443,14.563l1.47-9.213a.562.562,0,0,1,.719-.449c2.2.668,4.007,1.051,6.22,1.726a.563.563,0,0,1,.372.707l-2.891,9.1"/><line class="cls-1" x1="15.476" y1="8.087" x2="22.333" y2="10.139"/><line class="cls-1" x1="10.16" y1="14.567" x2="11.41" y2="20.673"/></svg>