<svg id="Regular" xmlns="http://www.w3.org/2000/svg" viewBox="0 0 24 24"><defs><style>.cls-1{fill:none;stroke:#000;stroke-linecap:round;stroke-linejoin:round;stroke-width:1.5px;}</style></defs><title>social-media-iwiw</title><path class="cls-1" d="M5.15,8l6.66-4L15,5.85a1.54,1.54,0,0,0,2.09-.55,1.52,1.52,0,0,0-.57-2.08l-3.28-1.9c-1.27-.73-1.48-.75-2.77,0L3.63,5.44h0c-1.32.76-1.4,1-1.4,2.43v8.27c0,1.48.08,1.66,1.42,2.44l6.83,4.14c1.28.73,1.49.71,2.75,0l3.38-1.94a1.53,1.53,0,0,0-1.6-2.6L11.82,20,5.15,16V8Z"/><path class="cls-1" d="M18.85,15.88a1,1,0,0,0,1,.93h1a.93.93,0,0,0,.93-.93V7.94A.9.9,0,0,0,20.85,7h-1a1,1,0,0,0-1,.89Z"/><path class="cls-1" d="M11.57,7.83l-3.48,2v3.91"/></svg>