<svg id="Regular" xmlns="http://www.w3.org/2000/svg" viewBox="0 0 24 24"><defs><style>.cls-1{fill:none;stroke:#000;stroke-linecap:round;stroke-linejoin:round;stroke-width:1.5px;}</style></defs><title>social-media-diingo</title><path class="cls-1" d="M7,22.88V6.63c3.11,2.64,6.44,2.69,10,0V22.88"/><path class="cls-1" d="M9.5,2.63A1.5,1.5,0,0,1,8,4.13H8a1.5,1.5,0,0,1-1.5-1.5h0A1.5,1.5,0,0,1,8,1.13H8a1.5,1.5,0,0,1,1.5,1.5h0"/><path class="cls-1" d="M17.5,2.63A1.5,1.5,0,0,1,16,4.13h0a1.5,1.5,0,0,1-1.5-1.5h0A1.5,1.5,0,0,1,16,1.13h0a1.5,1.5,0,0,1,1.5,1.5h0"/></svg>