<svg id="Regular" xmlns="http://www.w3.org/2000/svg" viewBox="0 0 24 24"><defs><style>.cls-1{fill:none;stroke:#000;stroke-linecap:round;stroke-linejoin:round;stroke-width:1.5px;}</style></defs><title>social-media-hyves</title><path class="cls-1" d="M21.22,3c-.14.45-1.32.65-1.58,1-.45.57-.28,2.34-.28,3.53v9a5.58,5.58,0,0,0,.09,1.76c.17.17.78.06,1,.14,4.94,1.59-6.8,5.79-6.16,1.39,0-.35.34-.53.74-.7s.88,0,1.11-.28a31.52,31.52,0,0,0,0-4.5c-.41-.53-7.53.73-8.09,1.58a15,15,0,0,0,.05,3.85c.19.3,1,.17,1.15.23a1.68,1.68,0,0,1,1,1.53c-.19,1.52-7.19,2.94-6.88,0,.05-.5.76-.8,1.26-1,.16-.06.46-.08.55-.18s.08-1.19,0-1.76A51.56,51.56,0,0,1,5,13.39c0-2.09-.14-3.3-.14-5.46a6.35,6.35,0,0,0-.09-1.81C4.55,5.9,4,5.94,3.66,5.79c-5.74-2.47,9-5.63,6.28-1.16-.34.55-1.63.43-1.91.89A4.83,4.83,0,0,0,7.93,7a41.55,41.55,0,0,0-.09,4.17c0,.27.11,1.12.28,1.2l8-1.3c.38-.32.15-1.26.09-1.72a9.76,9.76,0,0,1,0-3c.06-.51.22-1.49,0-1.76s-.83-.19-1-.28C9.29,1.9,22.79-1.62,21.22,3Z"/></svg>