<svg id="Regular" xmlns="http://www.w3.org/2000/svg" viewBox="0 0 24 24"><defs><style>.cls-1{fill:none;stroke:#000;stroke-linecap:round;stroke-linejoin:round;stroke-width:1.5px;}</style></defs><title>social-media-gowalla-1</title><path class="cls-1" d="M3.63,16C3,14.81,4.28,14,4.69,13.65c1.28-1.21,2.1-2.17,1-4.45-.41,1-1.66,2.9-3.09,3.39C.83,13.2.16,11.1,1.35,9.82A16.56,16.56,0,0,1,4.07,7.54,10.34,10.34,0,0,1,1.38,4.67,1.27,1.27,0,0,1,3.29,3C4.69,4,4.9,4.7,4.59,4.84c-.75.34-.73-3.62,1.1-3.32.9.15,1.94,1,1.22,5.37,0,0,7.68.81,7.59,8.22,0,1.34-2.05,2.25-2.42,2.25a2.47,2.47,0,0,1-1,3.84c-2.47,1.28-5.81,2-6.31.41s2.78-3.37,4.69-2.87a3.69,3.69,0,0,1,.19-4.87c1.81-1.78,5.19.75,6.65,1.69s1.56,1.06,3.19.44,2-.69,2.72-.94,1.69.12.31,1.44-4.75,3.68-11.31,4.08c-2.87.09-5.18-2.24-5.37-3.93a8.49,8.49,0,0,1-.06-1"/></svg>