<svg id="Regular" xmlns="http://www.w3.org/2000/svg" viewBox="0 0 24 24"><defs><style>.cls-1{fill:none;stroke:#000;stroke-linecap:round;stroke-linejoin:round;stroke-width:1.5px;}</style></defs><title>social-video-youtube</title><rect class="cls-1" x="1" y="12.25" width="22" height="11" rx="4" ry="4"/><polyline class="cls-1" points="4 0.75 7 4.75 7 9.25"/><polyline class="cls-1" points="10 0.75 7 4.75 7 9.25"/><path class="cls-1" d="M13,7.75a1.5,1.5,0,0,1-3,0v-3a1.5,1.5,0,1,1,3,0Z"/><path class="cls-1" d="M19,3.25v4a2,2,0,0,1-4,0v-4"/><line class="cls-1" x1="19" y1="3.25" x2="19" y2="9.25"/><line class="cls-1" x1="11" y1="17" x2="11" y2="20.25"/><line class="cls-1" x1="3.98" y1="15.25" x2="8.02" y2="15.25"/><line class="cls-1" x1="6" y1="15.25" x2="6" y2="20.23"/><line class="cls-1" x1="13.5" y1="14.25" x2="13.5" y2="20.23"/><path class="cls-1" d="M15.5,19.25a1,1,0,0,1-2,0V18a1,1,0,0,1,2,0Z"/><path class="cls-1" d="M9,17v2.25a1,1,0,0,0,2,0V17"/><path class="cls-1" d="M18.83,16.75a1,1,0,0,1,1,1h-2"/><path class="cls-1" d="M19.83,19.86a1.14,1.14,0,0,1-2-.74V17.75a1,1,0,0,1,1-1"/></svg>