<svg id="Regular" xmlns="http://www.w3.org/2000/svg" viewBox="0 0 24 24"><defs><style>.cls-1{fill:none;stroke:#000;stroke-linecap:round;stroke-linejoin:round;stroke-width:1.5px;}</style></defs><title>social-media-google-plus</title><path class="cls-1" d="M11.62,13.1a4.07,4.07,0,0,1-1.4-1.5c0-.43,0-.63,1-1.37a4.43,4.43,0,0,0,1.91-3.56,3.76,3.76,0,0,0-.87-2.54l.66,0A.49.49,0,0,0,13.18,4l1.11-1.47c.14-.22.19-.34.13-.54A.48.48,0,0,0,14,1.67H7.86a6.17,6.17,0,0,0-2,.35,5.24,5.24,0,0,0-3.78,4.6,4.9,4.9,0,0,0,5,4.91,2.44,2.44,0,0,0,.25,1.86H7.22c-2.72,0-5.17,1.33-6.11,3.32a3.64,3.64,0,0,0-.37,1.55,2.92,2.92,0,0,0,.38,1.44A5.43,5.43,0,0,0,4.68,22a11.4,11.4,0,0,0,2.8.34A9,9,0,0,0,10,22c2.42-.7,4-2.48,4-4.54A4.72,4.72,0,0,0,11.62,13.1ZM4.82,17.73c0-1,1.29-1.81,2.76-1.81h0c1.07,0,2.52.91,2.52,1.87,0,1.2-.94,1.81-2.8,1.81C5.93,19.59,4.82,18.77,4.82,17.73ZM6.31,4.82a1.14,1.14,0,0,1,.88-.4h0A2.57,2.57,0,0,1,9.28,6.81a2.33,2.33,0,0,1-.43,1.82A1.14,1.14,0,0,1,8,9h0C7,9,6.07,7.89,5.9,6.6A2.25,2.25,0,0,1,6.31,4.82Z"/><polygon class="cls-1" points="23.25 9.42 20.5 9.42 20.5 6.67 18 6.67 18 9.42 15.25 9.42 15.25 11.92 18 11.92 18 14.67 20.5 14.67 20.5 11.92 23.25 11.92 23.25 9.42"/></svg>