<svg id="Regular" xmlns="http://www.w3.org/2000/svg" viewBox="0 0 24 24"><defs><style>.cls-1{fill:none;stroke:#000;stroke-linecap:round;stroke-linejoin:round;stroke-width:1.5px;}</style></defs><title>social-media-slide-share</title><path class="cls-1" d="M12,18c-1.55,0,.45,5.22-3.55,5.22A4.2,4.2,0,0,1,5,16.7c.71-1.28-3.85-1.14-3.85-4.89a20.15,20.15,0,0,0,8.12,1.82c2.3,0,2.77,1.09,2.77,1.09s.47-1.09,2.77-1.09a20.15,20.15,0,0,0,8.12-1.82c0,3.75-4.57,3.61-3.85,4.89a4.2,4.2,0,0,1-3.49,6.53C11.55,23.23,13.55,18,12,18Z"/><path class="cls-1" d="M21,12.58V2.77a2,2,0,0,0-2-2H5a2,2,0,0,0-2,2v9.78"/><circle class="cls-1" cx="15.45" cy="9.17" r="2.5"/><circle class="cls-1" cx="8.45" cy="9.17" r="2.5"/></svg>