<svg id="Regular" xmlns="http://www.w3.org/2000/svg" viewBox="0 0 24 24"><defs><style>.cls-1{fill:none;stroke:#000;stroke-linecap:round;stroke-linejoin:round;stroke-width:1.5px;}</style></defs><title>social-media-odnoklassniki</title><circle class="cls-1" cx="12.01" cy="5.86" r="5.11"/><circle class="cls-1" cx="12.01" cy="5.86" r="1.79"/><path class="cls-1" d="M14.91,16.73a10.57,10.57,0,0,0,3.74-1.92,1.47,1.47,0,0,0,.1-2.16l-.12-.12a1.5,1.5,0,0,0-2-.09,7.5,7.5,0,0,1-9.23,0,1.5,1.5,0,0,0-2,.09l-.13.13a1.46,1.46,0,0,0,.09,2.15,10.58,10.58,0,0,0,3.8,2L5.85,20A1.87,1.87,0,0,0,8.5,22.7L12,19.17l3.53,3.54A1.87,1.87,0,0,0,18.22,20Z"/></svg>