<svg id="Regular" xmlns="http://www.w3.org/2000/svg" viewBox="0 0 24 24"><defs><style>.cls-1{fill:none;stroke:#000;stroke-linecap:round;stroke-linejoin:round;stroke-width:1.5px;}</style></defs><title>social-media-food-spotting</title><path class="cls-1" d="M19.5,3.5h-2l-1-2h-3l-1,2h-2a2,2,0,0,0-2,2v6a2,2,0,0,0,2,2h9a2,2,0,0,0,2-2v-6A2,2,0,0,0,19.5,3.5Z"/><path class="cls-1" d="M17.75,8.5A2.75,2.75,0,1,1,15,5.75,2.75,2.75,0,0,1,17.75,8.5"/><path class="cls-1" d="M15.25,8.5A.25.25,0,1,1,15,8.25a.25.25,0,0,1,.25.25"/><rect class="cls-1" x="2.5" y="3.5" width="3" height="10"/><polyline class="cls-1" points="3.4 22.5 3.4 16.5 6.01 16.5"/><line class="cls-1" x1="3.4" y1="19.5" x2="5.3" y2="19.5"/><line class="cls-1" x1="19.9" y1="22.5" x2="19.9" y2="16.5"/><path class="cls-1" d="M19.9,20.72c0,1-.28,1.78-1.18,1.78s-1.17-.8-1.17-1.78.28-1.78,1.17-1.78S19.9,19.74,19.9,20.72Z"/><path class="cls-1" d="M7.87,20.72c0,1,.28,1.78,1.17,1.78s1.17-.8,1.17-1.78S9.94,18.95,9,18.95,7.87,19.74,7.87,20.72Z"/><path class="cls-1" d="M12.71,20.72c0,1,.28,1.78,1.18,1.78s1.17-.8,1.17-1.78-.28-1.78-1.17-1.78S12.71,19.74,12.71,20.72Z"/></svg>