<svg id="Regular" xmlns="http://www.w3.org/2000/svg" viewBox="0 0 24 24"><defs><style>.cls-1{fill:none;stroke:#000;stroke-linecap:round;stroke-linejoin:round;stroke-width:1.5px;}</style></defs><title>social-music-spotify</title><path class="cls-1" d="M20.4,4.52a17.24,17.24,0,0,0-16.79,0"/><path class="cls-1" d="M7.26,10.29a7.28,7.28,0,0,1,9.49,0"/><path class="cls-1" d="M18.73,7.45a12.26,12.26,0,0,0-13.32-.1"/><path class="cls-1" d="M16.74,10.29a7.28,7.28,0,0,0-9.49,0"/><path class="cls-1" d="M6.87,21.65A5.24,5.24,0,0,1,12,17.47a5.67,5.67,0,0,1,5.13,4.17h4.82a10,10,0,0,0-19.9,0Z"/></svg>