<svg id="Regular" xmlns="http://www.w3.org/2000/svg" viewBox="0 0 24 24"><defs><style>.cls-1{fill:none;stroke:#000;stroke-linecap:round;stroke-linejoin:round;stroke-width:1.5px;}</style></defs><title>social-media-brightkite</title><path class="cls-1" d="M13.28,11.43V10.29s.14-.26.69-.19c.37,0,.48,1.3.08,1.45a1,1,0,0,1-.77-.11M22.5.75V14.91a1.54,1.54,0,0,1-1,1.33c-1.44.67-20,7-20,7L5.63,2.08A2,2,0,0,1,7.75.75Zm-5.3,7c-1.22-2.94-4.43-1.42-4.43-.6V2.87l-3,.43V14.09A6.16,6.16,0,0,0,14.3,15.2a3.58,3.58,0,0,0,3.1-2.69,7.89,7.89,0,0,0-.21-4.78"/></svg>