<svg id="Regular" xmlns="http://www.w3.org/2000/svg" viewBox="0 0 24 24"><defs><style>.cls-1{fill:none;stroke:#000;stroke-linecap:round;stroke-linejoin:round;stroke-width:1.5px;}</style></defs><title>social-media-irc-galleria</title><path class="cls-1" d="M6.5,13.42c1.18,0,2.68-.28,3.27-1.33a.21.21,0,0,0-.07-.32C8.61,10.89,8.2,9.55,6.5,9.4A2.46,2.46,0,0,0,4,10.95a3,3,0,0,0,.65,3,2.23,2.23,0,0,0,2.25.54c.14,0,.23-.09.08-.23s-.48-.38-.55-.59,0-.21.09-.21Z"/><path class="cls-1" d="M11.66,13.87c1.6,2.24,3.75,3.43,6.06,3.23,3-.42,5.23-2.15,5.51-5.39C23.37,10,22.89,7,18.57,7a8.75,8.75,0,0,0-6.23,3.13c-1.6-2.24-3.77-3.41-6.06-3.21C3.29,7.33,1,9.06.77,12.28.63,14,1.11,17,5.41,17a8.76,8.76,0,0,0,6.25-3.13Z"/><path class="cls-1" d="M14.54,12c.48.85,1.73.9,2.68.57a.15.15,0,0,1,.23.11,12,12,0,0,1,0,1.34c0,.15.19.19.33.22a2.06,2.06,0,0,0,1.87-.56,2.52,2.52,0,0,0,.7-2.61A2.25,2.25,0,0,0,18,9.67c-1.85.13-2.19,1.37-3.43,2.06-.11.09-.14.16-.06.29Z"/></svg>