<svg id="Regular" xmlns="http://www.w3.org/2000/svg" viewBox="0 0 24 24"><defs><style>.cls-1{fill:none;stroke:#000;stroke-linecap:round;stroke-linejoin:round;stroke-width:1.5px;}</style></defs><title>social-media-snapchat</title><path class="cls-1" d="M12,23.25a4.8,4.8,0,0,1-3-1.67,2.91,2.91,0,0,0-2.54-.81l-.64.11A1.31,1.31,0,0,1,4.3,19.26a.84.84,0,0,0-.58-1l-2-.41a.85.85,0,0,1-.11-1.59,12.2,12.2,0,0,0,2.57-1.44,1.36,1.36,0,0,0-.09-2.24l-1.23-.78a1.52,1.52,0,0,1-.46-2.1,1.6,1.6,0,0,1,2.17-.45l1.32.84V6.89a6.14,6.14,0,0,1,12.27,0v3.19l1.32-.84a1.6,1.6,0,0,1,2.17.45,1.52,1.52,0,0,1-.46,2.1l-1.23.78a1.36,1.36,0,0,0-.09,2.24,12.2,12.2,0,0,0,2.57,1.44.85.85,0,0,1-.11,1.59l-2,.41a.84.84,0,0,0-.58,1,1.31,1.31,0,0,1-1.49,1.61l-.64-.11a2.91,2.91,0,0,0-2.54.81A4.8,4.8,0,0,1,12,23.25Z"/></svg>