<svg id="Regular" xmlns="http://www.w3.org/2000/svg" viewBox="0 0 24 24"><defs><style>.cls-1{fill:none;stroke:#000;stroke-linecap:round;stroke-linejoin:round;stroke-width:1.5px;}</style></defs><title>social-media-yammer</title><path class="cls-1" d="M23.22,12.38c0,2.81-6.65.63-6.75.6-.49-.19-.82-.34-.84-.6s.35-.43.84-.6S23.22,9.27,23.22,12.38Z"/><path class="cls-1" d="M21.23,5.21c1.43,2.42-5.4,3.93-5.51,3.95-.52.08-.87.13-1-.09s.08-.55.42-.94S19.65,2.54,21.23,5.21Z"/><path class="cls-1" d="M15.11,16.62c-.34-.39-.53-.7-.42-.94s.5-.17,1-.09c7.32,1.56,5.41,3.95,5.51,3.95C19.65,22.21,15.52,17.1,15.11,16.62Z"/><path class="cls-1" d="M13.92,4.16A1.5,1.5,0,1,0,11.15,3L7.38,12.09,3.67,3A1.5,1.5,0,0,0,.89,4.15L5.75,16l-.81,2a1.5,1.5,0,0,1-1.39.93H2.28a1.5,1.5,0,0,0,0,3H3.55a4.49,4.49,0,0,0,4.16-2.78l1-2.53h0Z"/></svg>