<svg id="Regular" xmlns="http://www.w3.org/2000/svg" viewBox="0 0 24 24"><defs><style>.cls-1{fill:none;stroke:#000;stroke-linecap:round;stroke-linejoin:round;stroke-width:1.5px;}</style></defs><title>social-music-rdio</title><path class="cls-1" d="M22.85,6.82c-3.09.08-4.44-1.2-8.41-3.15v8a4.37,4.37,0,0,1-4.29,4.25A3.94,3.94,0,0,1,6,12C6,9.66,8.2,7.67,11.71,8.12V2.66c-.39,0-.78,0-1.19,0A9.58,9.58,0,0,0,.75,12a9.58,9.58,0,0,0,9.76,9.37A9.58,9.58,0,0,0,20.28,12a9.1,9.1,0,0,0-.09-1.3,5.22,5.22,0,0,0,2.48-1.8,2,2,0,0,0,.58-1.38C23.25,6.74,22.85,6.82,22.85,6.82Z"/></svg>