<svg id="Regular" xmlns="http://www.w3.org/2000/svg" viewBox="0 0 24 24"><defs><style>.cls-1{fill:none;stroke:#000;stroke-linecap:round;stroke-linejoin:round;stroke-width:1.5px;}</style></defs><title>social-media-tuenti</title><path class="cls-1" d="M20.83,3.43ZM.75,9.45v5.1A8.65,8.65,0,0,0,3.68,21a8.56,8.56,0,0,0,5.76,2.2H21.31a1.94,1.94,0,0,0,1.94-1.94V9.45a8.69,8.69,0,0,0-2.42-6h0A8.66,8.66,0,0,0,14.55.75H9.44a8.72,8.72,0,0,0-8.7,8.7Z"/><path class="cls-1" d="M14,6.53a9.36,9.36,0,0,1,.46,11.32"/><line class="cls-1" x1="7.31" y1="17.85" x2="9.8" y2="13.75"/><path class="cls-1" d="M8.55,8.64A.74.74,0,0,1,9.3,7.9h0a.74.74,0,0,1,.75.75.75.75,0,1,1-1.5,0"/></svg>