<svg id="Regular" xmlns="http://www.w3.org/2000/svg" viewBox="0 0 24 24"><defs><style>.cls-1{fill:none;stroke:#000;stroke-linecap:round;stroke-linejoin:round;stroke-width:1.5px;}</style></defs><title>social-video-viddler</title><path id="Viddler" class="cls-1" d="M18,13A5.18,5.18,0,1,0,18,2.66a5.45,5.45,0,0,0-5.39,4.42s-.86-4.42-5.1-4.42A5.18,5.18,0,1,0,7.6,13v2.57L.75,14v6.24L7.6,18.42v2.92h9.31L13.83,13H18ZM8.78,7.84A1.24,1.24,0,0,1,7.53,9.08h0A1.24,1.24,0,1,1,8.78,7.84m10.61,0A1.25,1.25,0,1,1,18.13,6.6a1.25,1.25,0,0,1,1.25,1.24"/></svg>