<svg id="Regular" xmlns="http://www.w3.org/2000/svg" viewBox="0 0 24 24"><defs><style>.cls-1{fill:none;stroke:#000;stroke-linecap:round;stroke-linejoin:round;stroke-width:1.5px;}</style></defs><title>social-media-iwiw-1</title><polygon class="cls-1" points="7.6 15.57 10.53 13.61 10.53 10.67 7.6 8.72 4.66 10.67 4.66 13.61 7.6 15.57"/><line class="cls-1" x1="4.66" y1="10.67" x2="3.24" y2="9.96"/><line class="cls-1" x1="13.47" y1="18.01" x2="13.47" y2="15.57"/><polygon class="cls-1" points="13.47 15.57 16.4 13.61 16.4 10.67 13.47 8.72 10.53 10.67 10.53 13.61 13.47 15.57"/><polygon class="cls-1" points="16.4 10.67 19.34 8.72 19.34 5.78 16.4 3.83 13.47 5.78 13.47 8.72 16.4 10.67"/><line class="cls-1" x1="20.94" y1="4.98" x2="19.34" y2="5.78"/><path class="cls-1" d="M13.47,20.67a.25.25,0,0,1,0-.5"/><path class="cls-1" d="M13.47,20.17a.25.25,0,0,1,0,.5"/><path class="cls-1" d="M1.24,8.47A.25.25,0,1,1,1,8.22"/><path class="cls-1" d="M1,8.22a.25.25,0,0,1,.25.25"/><path class="cls-1" d="M23.26,3.58A.25.25,0,1,1,23,3.33"/><path class="cls-1" d="M23,3.33a.25.25,0,0,1,.25.25"/></svg>