<svg id="Regular" xmlns="http://www.w3.org/2000/svg" viewBox="0 0 24 24"><defs><style>.cls-1{fill:none;stroke:#000;stroke-linecap:round;stroke-linejoin:round;stroke-width:1.5px;}</style></defs><title>social-bookmark-stumble-upon-1</title><path class="cls-1" d="M5.75,20.5a5,5,0,0,1-5-5v-3H4.5v3a1.25,1.25,0,1,0,2.5,0v-7a5,5,0,0,1,10,0v1L15,11,13.25,9.5v-1a1.25,1.25,0,0,0-2.5,0v7A5,5,0,0,1,5.75,20.5Z"/><path class="cls-1" d="M18.25,20.5a5,5,0,0,1-5-5V12.75L15,14.25l2-1.5v2.73a1.25,1.25,0,0,0,2.5,0v-3h3.75v3A5,5,0,0,1,18.25,20.5Z"/></svg>