<svg id="Regular" xmlns="http://www.w3.org/2000/svg" viewBox="0 0 24 24"><defs><style>.cls-1{fill:none;stroke:#000;stroke-linecap:round;stroke-linejoin:round;stroke-width:1.5px;}</style></defs><title>social-music-spotify-2</title><circle class="cls-1" cx="11.99" cy="12" r="11.25"/><path class="cls-1" d="M6.94,7.09A1.53,1.53,0,0,1,8.29,5.41a19,19,0,0,1,9.49,1.38,1.54,1.54,0,0,1,.74,2.15,1.34,1.34,0,0,1-1.72.57,15.68,15.68,0,0,0-4.17-1.17,15.71,15.71,0,0,0-4.16,0A1.36,1.36,0,0,1,6.94,7.09Z"/><path class="cls-1" d="M7.36,12.12a1.29,1.29,0,0,1,1.17-1.32,16.51,16.51,0,0,1,3.72.11,16.27,16.27,0,0,1,4,1.06,1.29,1.29,0,0,1,.76,1.5,1.24,1.24,0,0,1-1.69.84,14.12,14.12,0,0,0-6.57-1,1.24,1.24,0,0,1-1.35-1.19Z"/><path class="cls-1" d="M15.72,18.35a1.18,1.18,0,0,1-1.6.82,12.38,12.38,0,0,0-2.93-.78,12.63,12.63,0,0,0-2.43-.11,1.18,1.18,0,0,1-1.24-1.18,1.08,1.08,0,0,1,1-1.08,14.86,14.86,0,0,1,3,.12,14.55,14.55,0,0,1,3.59,1A1.06,1.06,0,0,1,15.72,18.35Z"/></svg>