<svg id="Regular" xmlns="http://www.w3.org/2000/svg" viewBox="0 0 24 24"><defs><style>.cls-1{fill:none;stroke:#000;stroke-linecap:round;stroke-linejoin:round;stroke-width:1.5px;}</style></defs><title>social-media-students-circle-network</title><path id="Simplenote" class="cls-1" d="M3.92,19.82A11.48,11.48,0,0,1,.76,12.48v-.92a11.64,11.64,0,0,1,.83-3.65A9.27,9.27,0,0,1,4,4.27,12.21,12.21,0,0,0,4.09,6,7,7,0,0,0,5.9,9.58,10.81,10.81,0,0,0,8.53,11.3c2,1,3.81,2,5.76,3,1.25.67,2.54,1.49,2.9,2.81a5,5,0,0,1-1.45,4.53,5.39,5.39,0,0,1-3.12,1.63H11.13a11.27,11.27,0,0,1-7.21-3.43Zm7.43-11.3,5.49,2.86A8.77,8.77,0,0,1,19.3,13.1a7,7,0,0,1,1.8,5.45,4.7,4.7,0,0,0,.79-1.1A11.17,11.17,0,0,0,23.21,13c0-.05,0-.08,0-.09V11.12c-.77-6.18-5-9.89-10.9-10.37h-.57A5,5,0,0,0,8.84,2,4.15,4.15,0,0,0,8,4.09c-.21,2.59,1.65,3.53,3.38,4.44Z"/></svg>