<svg id="Regular" xmlns="http://www.w3.org/2000/svg" viewBox="0 0 24 24"><defs><style>.cls-1{fill:none;stroke:#000;stroke-linecap:round;stroke-linejoin:round;stroke-width:1.5px;}</style></defs><title>social-media-vk</title><path class="cls-1" d="M9.13,11.83c-1,.57-3.19-4-3.63-5.08a1,1,0,0,0-.28-.38,1.42,1.42,0,0,0-.52-.21l-3.21,0S1,6.19.82,6.4.81,7,.81,7s2.52,5.69,5.37,8.66A7.06,7.06,0,0,0,11.76,18a11.44,11.44,0,0,0,2-.07c.54-.58-.14-2.15,1-2.51.83-.26,1.89,1.77,3,2.54a2.19,2.19,0,0,0,1.5.47l3,0s1.57-.09.83-1.33a10.07,10.07,0,0,0-2.23-2.58C18.93,12.7,19.18,13,21.45,10c1.38-1.84,1.93-3,1.76-3.45S22,6.18,22,6.18l-3.38,0a.77.77,0,0,0-.44.08.94.94,0,0,0-.3.36c-.47,1.24-2.69,5.76-3.61,5.17-1.22-.79.61-5.63-1.16-6.06a5.77,5.77,0,0,0-1.58-.16,7.31,7.31,0,0,0-2.81.29c-.38.19-.68.61-.5.63a1.52,1.52,0,0,1,1,.5C9.73,7.65,9.82,11.45,9.13,11.83Z"/></svg>