<svg id="Regular" xmlns="http://www.w3.org/2000/svg" viewBox="0 0 24 24"><defs><style>.cls-1{fill:none;stroke:#000;stroke-linecap:round;stroke-linejoin:round;stroke-width:1.5px;}</style></defs><title>social-media-meetup-alternate</title><path class="cls-1" d="M11.2,21.33a3.66,3.66,0,0,1-1.11.63,4.14,4.14,0,0,1-5.43-2.76,6.34,6.34,0,0,1-.15-.86c0-.22,0-.17-.2-.22a3.64,3.64,0,0,1-2.79-2.36,3.75,3.75,0,0,1,.9-4.14.16.16,0,0,0,0-.23A3.58,3.58,0,0,1,3.82,6.48a3.21,3.21,0,0,1,1.09-.37.25.25,0,0,0,.22-.17A5.21,5.21,0,0,1,9.22,2.7a5.19,5.19,0,0,1,3.66.73.25.25,0,0,0,.23,0A4.74,4.74,0,0,1,18.33,5a4.63,4.63,0,0,1,1,3.19.15.15,0,0,0,.13.19A2.6,2.6,0,0,1,21,11.9a2.55,2.55,0,0,1-.63.85.11.11,0,0,0,0,.17,4.51,4.51,0,0,1-3.53,6.83h-.42c-.09,0-.12,0-.14.11a3,3,0,0,1-.72,1.29,3,3,0,0,1-1.83.94,3.09,3.09,0,0,1-2.41-.71l-.06,0Z"/><path class="cls-1" d="M3,4.08a.5.5,0,0,1-.49.49.49.49,0,0,1-.48-.49.48.48,0,0,1,.49-.48A.49.49,0,0,1,3,4.08"/><path class="cls-1" d="M19.72,22.27a.49.49,0,1,1-.49-.49.49.49,0,0,1,.49.49"/><path class="cls-1" d="M22.75,6.15a.49.49,0,1,1-.48-.48.48.48,0,0,1,.48.48"/><path class="cls-1" d="M6.34,1.48a.24.24,0,0,1-.49,0,.24.24,0,0,1,.49,0"/><path class="cls-1" d="M17.11,1.48a.24.24,0,0,1-.49,0,.24.24,0,0,1,.49,0"/><path class="cls-1" d="M2.32,20.43a.24.24,0,1,1-.49,0,.24.24,0,0,1,.49,0"/><path class="cls-1" d="M16.29,16.76a.56.56,0,0,0,.33-.57c0-.64-.6-.62-1.26-.75-.48-.1-.82-.69-.54-1.51s.5-1.37.74-2,.53-1.28.78-1.93a1.76,1.76,0,0,0,.11-1,1.29,1.29,0,0,0-.8-1,2,2,0,0,0-1.74.1A.34.34,0,0,1,13.42,8c-.13-.12-.26-.25-.4-.36a1,1,0,0,0-.35-.18,1.23,1.23,0,0,0-1.15.25L11.2,8a3.18,3.18,0,0,1-.36.26.48.48,0,0,1-.48,0l-.92-.43a1.38,1.38,0,0,0-.84-.13A2,2,0,0,0,7.07,8.76,8.18,8.18,0,0,0,6.58,10q-.71,2.2-1.39,4.41a1.48,1.48,0,0,0,.38,1.56,1.72,1.72,0,0,0,1.36.48A1.25,1.25,0,0,0,8,15.7a2.44,2.44,0,0,0,.13-.27C8.7,14,10,10.95,10,10.95s-.78,1.84-1.22,2.94c-.3.76.3,1.33,1,1.51a1.48,1.48,0,0,0,1.6-.8c0-.11,1.38-3,1.87-4,0,0-.67,1.53-1.22,2.66C10.6,16,13.89,17.9,16.29,16.76Z"/></svg>