<svg id="Regular" xmlns="http://www.w3.org/2000/svg" viewBox="0 0 24 24"><defs><style>.cls-1{fill:none;stroke:#000;stroke-linecap:round;stroke-linejoin:round;stroke-width:1.5px;}</style></defs><title>social-media-facebook-1</title><path class="cls-1" d="M12.15,23.25H1.75a1,1,0,0,1-1-1V1.75a1,1,0,0,1,1-1h20.5a1,1,0,0,1,1,1v20.5a1,1,0,0,1-1,1h-6.1v-8.5h2.56a.5.5,0,0,0,.5-.44l.38-3a.5.5,0,0,0-.5-.56H16.15V9.69A1.69,1.69,0,0,1,17.84,8h1.81a.5.5,0,0,0,.5-.5v-3a.5.5,0,0,0-.5-.5H17.84a5.69,5.69,0,0,0-5.69,5.69v1.06H9.65a.5.5,0,0,0-.5.5v3a.5.5,0,0,0,.5.5h2.5v8.5Z"/></svg>