<svg id="Regular" xmlns="http://www.w3.org/2000/svg" viewBox="0 0 24 24"><defs><style>.cls-1{fill:none;stroke:currentColor;stroke-linecap:round;stroke-linejoin:round;stroke-width:1.5px;}</style></defs><title>sofa-double-modern</title><path class="cls-1" d="M16.5,19.875h-9a6.757,6.757,0,0,1-6.75-6.75,2.25,2.25,0,0,1,4.5,0,2.252,2.252,0,0,0,2.25,2.25h9a2.252,2.252,0,0,0,2.25-2.25,2.25,2.25,0,0,1,4.5,0A6.757,6.757,0,0,1,16.5,19.875Z"/><line class="cls-1" x1="3.75" y1="21.375" x2="4.786" y2="19.304"/><line class="cls-1" x1="20.25" y1="21.375" x2="19.214" y2="19.304"/><path class="cls-1" d="M19.944,11.139l-.8-5.97a3,3,0,0,0-2.966-2.544H7.824A3,3,0,0,0,4.859,5.169l-.8,5.97"/><path class="cls-1" d="M15.75,12.375v-1.5a1.5,1.5,0,0,0-1.5-1.5H9.75a1.5,1.5,0,0,0-1.5,1.5v1.5"/></svg>