<svg id="Regular" xmlns="http://www.w3.org/2000/svg" viewBox="0 0 24 24"><defs><style>.cls-1{fill:none;stroke:currentColor;stroke-linecap:round;stroke-linejoin:round;stroke-width:1.5px;}</style></defs><title>sofa-double</title><path class="cls-1" d="M21.75,9.375a1.5,1.5,0,0,0-1.5,1.5v1.5a.75.75,0,0,1-.75.75H4.5a.75.75,0,0,1-.75-.75v-1.5a1.5,1.5,0,0,0-3,0v3a3,3,0,0,0,3,3h16.5a3,3,0,0,0,3-3v-3A1.5,1.5,0,0,0,21.75,9.375Z"/><line class="cls-1" x1="3.75" y1="16.875" x2="3.75" y2="19.125"/><line class="cls-1" x1="20.25" y1="16.875" x2="20.25" y2="19.125"/><path class="cls-1" d="M2.25,9.375a4.5,4.5,0,0,1,4.5-4.5h10.5a4.5,4.5,0,0,1,4.5,4.5"/><line class="cls-1" x1="12" y1="13.125" x2="12" y2="4.875"/></svg>