<svg id="Regular" xmlns="http://www.w3.org/2000/svg" viewBox="0 0 24 24"><defs><style>.cls-1{fill:none;stroke:currentColor;stroke-linecap:round;stroke-linejoin:round;stroke-width:1.5px;}</style></defs><title>soft-drinks-juice</title><path class="cls-1" d="M17.25,14.486a6,6,0,0,0-1.757-4.243l-.8-.8a1.5,1.5,0,0,1-.439-1.06V1.5A.75.75,0,0,0,13.5.75h-3a.75.75,0,0,0-.75.75V8.379a1.5,1.5,0,0,1-.439,1.06l-.8.8A6,6,0,0,0,6.75,14.486V21.75a1.5,1.5,0,0,0,1.5,1.5h7.5a1.5,1.5,0,0,0,1.5-1.5Z"/><line class="cls-1" x1="9.75" y1="3.75" x2="14.25" y2="3.75"/><line class="cls-1" x1="6.755" y1="14.25" x2="17.245" y2="14.25"/><line class="cls-1" x1="6.797" y1="18.75" x2="17.25" y2="18.75"/></svg>