<svg id="Regular" xmlns="http://www.w3.org/2000/svg" viewBox="0 0 24 24"><defs><style>.cls-1{fill:none;stroke:currentColor;stroke-linecap:round;stroke-linejoin:round;stroke-width:1.5px;}</style></defs><title>soft-drinks-bottle-1</title><line class="cls-1" x1="6" y1="18.75" x2="18" y2="18.75"/><path class="cls-1" d="M15.87,10.583A5.28,5.28,0,0,1,13.5,6.319V3.75h-3V6.319a5.28,5.28,0,0,1-2.37,4.264A5.051,5.051,0,0,0,6,14.7V21.75a1.5,1.5,0,0,0,1.5,1.5h9a1.5,1.5,0,0,0,1.5-1.5V14.7A5.051,5.051,0,0,0,15.87,10.583Z"/><rect class="cls-1" x="9" y="0.75" width="6" height="3" rx="1" ry="1"/><line class="cls-1" x1="6.02" y1="14.25" x2="17.98" y2="14.25"/></svg>