<svg id="Regular" xmlns="http://www.w3.org/2000/svg" viewBox="0 0 24 24"><defs><style>.cls-1{fill:none;stroke:currentColor;stroke-linecap:round;stroke-linejoin:round;stroke-width:1.5px;}</style></defs><title>soft-drinks-glass</title><path class="cls-1" d="M13.908,2.25a.375.375,0,1,1-.375.375.375.375,0,0,1,.375-.375"/><path class="cls-1" d="M16.908,12a.375.375,0,1,1-.375.375A.375.375,0,0,1,16.908,12"/><path class="cls-1" d="M14.658,15a.375.375,0,1,1-.375.375A.375.375,0,0,1,14.658,15"/><path class="cls-1" d="M16.158,18.75a.375.375,0,1,1-.375.375.375.375,0,0,1,.375-.375"/><path class="cls-1" d="M19.533.75a.375.375,0,1,1-.375.375A.375.375,0,0,1,19.533.75"/><path class="cls-1" d="M19.647,21.875a1.5,1.5,0,0,1-1.494,1.375H9.663a1.5,1.5,0,0,1-1.5-1.375L6.851,6.062A.752.752,0,0,1,7.6,5.25h12.62a.75.75,0,0,1,.747.812Z"/><path class="cls-1" d="M3.033.75l3.78.473A3,3,0,0,1,9.4,3.706L12.033,19.5"/><line class="cls-1" x1="7.158" y1="9.75" x2="20.658" y2="9.75"/></svg>