<svg id="Regular" xmlns="http://www.w3.org/2000/svg" viewBox="0 0 24 24"><defs><style>.cls-1{fill:none;stroke:currentColor;stroke-linecap:round;stroke-linejoin:round;stroke-width:1.5px;}</style></defs><title>soft-drinks-can-energy</title><line class="cls-1" x1="6.75" y1="6.75" x2="17.25" y2="6.75"/><line class="cls-1" x1="10.5" y1="6.75" x2="8.25" y2="3.75"/><path class="cls-1" d="M13.875,3.75a.375.375,0,1,1-.375.375.375.375,0,0,1,.375-.375"/><path class="cls-1" d="M16.125,1.5a.375.375,0,1,1-.375.375.375.375,0,0,1,.375-.375"/><path class="cls-1" d="M11.625.75a.375.375,0,1,1-.375.375A.375.375,0,0,1,11.625.75"/><path class="cls-1" d="M9,6.75,6.329,10.089A1.5,1.5,0,0,0,6,11.026v9.52a1.5,1.5,0,0,0,.252.832l.8,1.2A1.5,1.5,0,0,0,8.3,23.25H15.7a1.5,1.5,0,0,0,1.248-.668l.8-1.2A1.5,1.5,0,0,0,18,20.546v-9.52a1.5,1.5,0,0,0-.329-.937L15,6.75"/><polyline class="cls-1" points="12.75 12 9.75 15.75 14.25 15.75 12 19.5"/></svg>