<svg id="Regular" xmlns="http://www.w3.org/2000/svg" viewBox="0 0 24 24"><defs><style>.cls-1{fill:none;stroke:currentColor;stroke-linecap:round;stroke-linejoin:round;stroke-width:1.5px;}</style></defs><title>soft-drinks-milk</title><path class="cls-1" d="M15,8.25V3.75H9v4.5H9a6.582,6.582,0,0,0-4.5,6.243V21.75A1.5,1.5,0,0,0,6,23.25H18a1.5,1.5,0,0,0,1.5-1.5V14.493A6.582,6.582,0,0,0,15,8.25Z"/><path class="cls-1" d="M16.5,2.25A1.5,1.5,0,0,1,15,3.75H9a1.5,1.5,0,0,1,0-3h6A1.5,1.5,0,0,1,16.5,2.25Z"/><rect class="cls-1" x="9" y="12.75" width="6" height="4.5" rx="0.75" ry="0.75"/></svg>