<svg xmlns="http://www.w3.org/2000/svg" viewBox="0 0 24 24"><defs><style>.a{fill:none;stroke:currentColor;stroke-linecap:round;stroke-linejoin:round;stroke-width:1.5px;}</style></defs><title>spa-hand-flower</title><path class="a" d="M23.248,6.806A2.985,2.985,0,0,0,18.7,4.246a2.89,2.89,0,0,0,.045-.44,3,3,0,0,0-6,0,2.89,2.89,0,0,0,.044.44A2.993,2.993,0,1,0,11.167,9.8a2.989,2.989,0,1,0,4.581,3.682A2.99,2.99,0,1,0,20.328,9.8,3,3,0,0,0,23.248,6.806Z"/><line class="a" x1="0.748" y1="14.194" x2="0.748" y2="23.194"/><path class="a" d="M15.748,21.694a3,3,0,0,0-3-3H9a3,3,0,0,0-3-3H.748v6Z"/><line class="a" x1="5.998" y1="18.694" x2="8.998" y2="18.694"/><circle class="a" cx="15.748" cy="8.194" r="2.25"/></svg>