<svg xmlns="http://www.w3.org/2000/svg" viewBox="0 0 24 24"><defs><style>.a{fill:none;stroke:currentColor;stroke-linecap:round;stroke-linejoin:round;stroke-width:1.5px;}</style></defs><title>spa-towel</title><path class="a" d="M4.5,22.5a3.75,3.75,0,0,1,0-7.5h15a3.75,3.75,0,1,1,0,7.5Z"/><path class="a" d="M23.127,17.8C22.756,14.926,21.619,6.365,21,4.5a4.315,4.315,0,0,0-3.75-3H6.748A4.314,4.314,0,0,0,3,4.5C2.376,6.364,1.24,14.923.869,17.8"/><path class="a" d="M6.748,15a2.25,2.25,0,0,0,0,4.5h12"/><line class="a" x1="14.998" y1="6" x2="14.998" y2="4.5"/><line class="a" x1="16.498" y1="5.25" x2="14.998" y2="6"/><line class="a" x1="13.498" y1="5.25" x2="14.998" y2="6"/><line class="a" x1="13.498" y1="7.5" x2="14.998" y2="6"/><line class="a" x1="16.498" y1="7.5" x2="14.998" y2="6"/><line class="a" x1="7.498" y1="9.75" x2="7.498" y2="8.25"/><line class="a" x1="8.998" y1="9" x2="7.498" y2="9.75"/><line class="a" x1="5.998" y1="9" x2="7.498" y2="9.75"/><line class="a" x1="5.998" y1="11.25" x2="7.498" y2="9.75"/><line class="a" x1="8.998" y1="11.25" x2="7.498" y2="9.75"/></svg>