<svg xmlns="http://www.w3.org/2000/svg" viewBox="0 0 24 24"><defs><style>.a{fill:none;stroke:currentColor;stroke-linecap:round;stroke-linejoin:round;stroke-width:1.5px;}</style></defs><title>spa-stone</title><path class="a" d="M17.8,14.336a4.111,4.111,0,0,1,1.326,2.914c0,2.9-3.694,5.25-8.25,5.25s-8.25-2.351-8.25-5.25c0-1.843,1.492-3.464,3.75-4.4l.812-.311"/><path class="a" d="M7.91,7.757A3.64,3.64,0,0,0,6.373,10.5c0,2.485,3.358,4.5,7.5,4.5s7.5-2.015,7.5-4.5c0-1.471-1.176-2.777-3-3.6l-.473-.2"/><ellipse class="a" cx="12.373" cy="5.25" rx="6" ry="3.75"/><path class="a" d="M9.373,5.25s.75.75,3,.75"/><path class="a" d="M6.373,17.25a3.25,3.25,0,0,0,3,1.5"/><path class="a" d="M10.126,11.325A3.693,3.693,0,0,0,12.373,12"/></svg>