<svg xmlns="http://www.w3.org/2000/svg" viewBox="0 0 24 24"><defs><style>.a{fill:none;stroke:currentColor;stroke-linecap:round;stroke-linejoin:round;stroke-width:1.5px;}</style></defs><title>spa-lotus-1</title><path class="a" d="M12.019,13.631a8.1,8.1,0,0,1-3-6,7.913,7.913,0,0,1,2.486-5.546.735.735,0,0,1,1.029,0,7.917,7.917,0,0,1,2.485,5.546A8.1,8.1,0,0,1,12.019,13.631Z"/><path class="a" d="M14.94,6.581A8.555,8.555,0,0,1,19.8,5.1a.748.748,0,0,1,.747.744,7.906,7.906,0,0,1-2.164,5.663,8.1,8.1,0,0,1-6.364,2.121"/><path class="a" d="M9.1,6.592A8.484,8.484,0,0,0,4.2,5.1a.749.749,0,0,0-.749.744A7.906,7.906,0,0,0,5.612,11.51a8.182,8.182,0,0,0,6.407,2.121"/><path class="a" d="M19.5,14.625c0,2.071-3.358,3.75-7.5,3.75S4.5,16.7,4.5,14.625"/><path class="a" d="M22.31,11.622a5.437,5.437,0,0,1,.938,3c0,4.142-5.037,7.5-11.25,7.5S.748,18.767.748,14.625a5.439,5.439,0,0,1,.936-3"/></svg>