<svg xmlns="http://www.w3.org/2000/svg" viewBox="0 0 24 24"><defs><style>.a{fill:none;stroke:currentColor;stroke-linecap:round;stroke-linejoin:round;stroke-width:1.5px;}</style></defs><title>spa-sign</title><line class="a" x1="9.748" y1="19.5" x2="9.748" y2="12"/><path class="a" d="M9.748,12h.75a2.25,2.25,0,0,1,0,4.5h-.75"/><path class="a" d="M6.748,12h-1.5a1.5,1.5,0,0,0-1.5,1.5c0,2.25,3,2.25,3,4.5a1.5,1.5,0,0,1-1.5,1.5h-1.5"/><path class="a" d="M15.748,19.5v-6a1.5,1.5,0,0,1,3,0v6"/><line class="a" x1="15.748" y1="16.5" x2="18.748" y2="16.5"/><rect class="a" x="0.748" y="9" width="22.5" height="13.5" rx="1" ry="1"/><line class="a" x1="5.248" y1="9" x2="5.248" y2="1.5"/><line class="a" x1="18.748" y1="9" x2="18.748" y2="1.5"/><line class="a" x1="0.748" y1="1.5" x2="23.248" y2="1.5"/></svg>