<svg xmlns="http://www.w3.org/2000/svg" viewBox="0 0 24 24"><defs><style>.a{fill:none;stroke:currentColor;stroke-linecap:round;stroke-linejoin:round;stroke-width:1.5px;}</style></defs><title>spa-candle</title><path class="a" d="M21.75,17.475a2.089,2.089,0,0,0-3.181-1.792,2.073,2.073,0,0,0,.031-.308,2.1,2.1,0,0,0-4.2,0,2.073,2.073,0,0,0,.031.308,2.1,2.1,0,1,0-1.137,3.886A2.093,2.093,0,1,0,16.5,22.147a2.093,2.093,0,1,0,3.206-2.578A2.1,2.1,0,0,0,21.75,17.475Z"/><path class="a" d="M16.5,18.15a.375.375,0,1,1-.375.375.375.375,0,0,1,.375-.375"/><path class="a" d="M7.056.75a2.991,2.991,0,0,1,.3,3.409A1.065,1.065,0,0,1,6.223,3.25a2.412,2.412,0,0,0-1.25,2.273A2.727,2.727,0,0,0,7.7,8.25a2.764,2.764,0,0,0,2.727-2.727A4.534,4.534,0,0,0,7.056.75Z"/><path class="a" d="M9,20.25H3.746a1.5,1.5,0,0,1-1.5-1.5v-9a1.5,1.5,0,0,1,1.5-1.5h7.5a1.5,1.5,0,0,1,1.5,1.5v3"/><path class="a" d="M2.246,11.25h1.5a1.5,1.5,0,0,1,1.5,1.5v1.5a1.5,1.5,0,0,0,3,0v-1.5a1.5,1.5,0,0,1,1.5-1.5h3"/></svg>