<svg xmlns="http://www.w3.org/2000/svg" viewBox="0 0 24 24"><defs><style>.a{fill:none;stroke:currentColor;stroke-linecap:round;stroke-linejoin:round;stroke-width:1.5px;}</style></defs><title>spa-board</title><line class="a" x1="10.498" y1="18.375" x2="10.498" y2="10.875"/><path class="a" d="M10.5,10.875h.75a2.25,2.25,0,0,1,0,4.5H10.5"/><path class="a" d="M7.5,10.875H6a1.5,1.5,0,0,0-1.5,1.5c0,2.25,3,2.25,3,4.5a1.5,1.5,0,0,1-1.5,1.5H4.5"/><path class="a" d="M16.5,18.375v-6a1.5,1.5,0,0,1,3,0v6"/><line class="a" x1="16.498" y1="15.375" x2="19.498" y2="15.375"/><rect class="a" x="1.498" y="7.875" width="21" height="13.5" rx="1" ry="1"/><path class="a" d="M6.614,7.875,10.343,3.4a2.154,2.154,0,0,1,3.309,0l3.729,4.475"/></svg>