<svg xmlns="http://www.w3.org/2000/svg" viewBox="0 0 24 24"><defs><style>.a{fill:none;stroke:currentColor;stroke-linecap:round;stroke-linejoin:round;stroke-width:1.5px;}</style></defs><title>spa-soap</title><path class="a" d="M8.487,20.25H4.737a3,3,0,0,1-3-3V9.75a3,3,0,0,1,3-3h6a3,3,0,0,1,3,3v.75"/><path class="a" d="M1.737,2.25l.622-.621A3,3,0,0,1,4.48.75h7.007"/><path class="a" d="M10.737,6.75h-6V5.25a1.5,1.5,0,0,1,1.5-1.5h3a1.5,1.5,0,0,1,1.5,1.5Z"/><line class="a" x1="7.737" y1="3.75" x2="7.737" y2="0.75"/><circle class="a" cx="16.737" cy="17.25" r="2.25"/><line class="a" x1="16.737" y1="21.75" x2="16.737" y2="23.25"/><line class="a" x1="16.737" y1="10.5" x2="16.737" y2="12"/><line class="a" x1="16.737" y1="21.75" x2="16.737" y2="23.25"/><line class="a" x1="16.737" y1="10.5" x2="16.737" y2="12"/><line class="a" x1="20.959" y1="19.312" x2="22.258" y2="20.062"/><line class="a" x1="11.216" y1="13.687" x2="12.515" y2="14.437"/><line class="a" x1="20.959" y1="14.437" x2="22.258" y2="13.687"/><line class="a" x1="11.216" y1="20.062" x2="12.515" y2="19.312"/></svg>