<svg xmlns="http://www.w3.org/2000/svg" viewBox="0 0 24 24"><defs><style>.a{fill:none;stroke:currentColor;stroke-linecap:round;stroke-linejoin:round;stroke-width:1.5px;}</style></defs><title>spa-stone-1</title><path class="a" d="M3.189,23.221A2.369,2.369,0,0,1,.918,21.507C.15,18.844,1.673,14.368,12,14.368c10.409,0,11.872,4.549,11.061,7.205A2.368,2.368,0,0,1,20.79,23.25Z"/><path class="a" d="M13.075,14.385c6.384-.023,8.1-.716,8.1-2.6,0-1.913-1.776-4.329-8.437-4.329S4.3,9.876,4.3,11.789c0,1.772,1.526,2.49,7.046,2.586"/><path class="a" d="M13.1,7.463c4.269-.111,5.465-.732,5.465-2.2,0-1.635-1.48-3.7-7.031-3.7S4.5,3.626,4.5,5.261s1.48,2.221,7.031,2.221h.177"/></svg>