<svg xmlns="http://www.w3.org/2000/svg" viewBox="0 0 24 24"><defs><style>.a{fill:none;stroke:currentColor;stroke-linecap:round;stroke-linejoin:round;stroke-width:1.5px;}</style></defs><title>space-science</title><path class="a" d="M4.75,16.5h10a1,1,0,0,1,1,1v5.75a0,0,0,0,1,0,0h-12a0,0,0,0,1,0,0V17.5A1,1,0,0,1,4.75,16.5Z"/><path class="a" d="M.89,12.633,11.934.9a.479.479,0,0,1,.814.409A13.219,13.219,0,0,1,1.275,13.5.51.51,0,0,1,.89,12.633Z"/><line class="a" x1="12" y1="16.5" x2="12" y2="11.473"/><line class="a" x1="0.75" y1="23.25" x2="23.25" y2="23.25"/><rect class="a" x="8.25" y="19.5" width="3" height="3.75"/><path class="a" d="M11.21,6.553A3.357,3.357,0,1,1,6.787,11.5"/><path class="a" d="M21.75,23.25h-6V14.761a.5.5,0,0,1,.658-.484l5,1.7a.51.51,0,0,1,.342.485Z"/><line class="a" x1="20.25" y1="15.587" x2="20.25" y2="12"/><line class="a" x1="17.25" y1="12.75" x2="17.25" y2="14.563"/><path class="a" d="M4.37,8.935,3.264,6.168A1.5,1.5,0,0,1,3.6,4.551L4.447,3.7a1.5,1.5,0,0,1,1.618-.332L8.641,4.4"/><line class="a" x1="4.022" y1="4.125" x2="2.147" y2="2.25"/></svg>