<svg xmlns="http://www.w3.org/2000/svg" viewBox="0 0 24 24"><defs><style>.a{fill:none;stroke:currentColor;stroke-linecap:round;stroke-linejoin:round;stroke-width:1.5px;}</style></defs><title>space-moon-flag</title><path class="a" d="M14.993,21.682a39.339,39.339,0,0,1,8.257,1.483"/><path class="a" d="M.75,23.25a39.356,39.356,0,0,1,8.912-1.592"/><polyline class="a" points="12 23.25 12 12 21 12 21 18 12 18"/><line class="a" x1="12" y1="15" x2="21" y2="15"/><path class="a" d="M8.206,12.572A6,6,0,1,1,12.52,8.4"/><path class="a" d="M1.552,3.751H3a1.5,1.5,0,0,1,1.5,1.5v.7A1.5,1.5,0,0,0,5.168,7.2l.958.639a1.4,1.4,0,0,1,0,2.332L3.6,11.854"/><path class="a" d="M11.948,3.751h-.7A1.5,1.5,0,0,0,9.908,5.922c.427.854.525.9.789,1.054l1.9,1.138"/><line class="a" x1="15.75" y1="12" x2="15.75" y2="15"/></svg>