<svg xmlns="http://www.w3.org/2000/svg" viewBox="0 0 24 24"><defs><style>.a{fill:none;stroke:currentColor;stroke-linecap:round;stroke-linejoin:round;stroke-width:1.5px;}</style></defs><title>space-earth</title><circle class="a" cx="3" cy="21" r="2.25"/><circle class="a" cx="17.25" cy="21" r="2.25"/><line class="a" x1="5.25" y1="21" x2="15" y2="21"/><path class="a" d="M9,21V19.5A1.5,1.5,0,0,1,10.5,18h2.98l.879-4.681a1.418,1.418,0,0,1,2.8.454l-.638,5.1"/><line class="a" x1="3" y1="18.75" x2="3" y2="11.642"/><path class="a" d="M8.022,9.989A3.875,3.875,0,0,1,1.228,6.261Z"/><line class="a" x1="4.595" y1="8.108" x2="6.099" y2="5.851"/><circle class="a" cx="6.75" cy="4.5" r="1.5"/><path class="a" d="M12.04,9.728a6,6,0,1,1,7.9,2.389"/><path class="a" d="M12.052,3.751H13.5a1.5,1.5,0,0,1,1.5,1.5v.7A1.5,1.5,0,0,0,15.668,7.2l.958.639a1.4,1.4,0,0,1,.458.5"/><path class="a" d="M22.448,3.751h-.7a1.5,1.5,0,0,0-1.342,2.171c.427.854.525.9.789,1.054l1.9,1.138"/></svg>