<svg xmlns="http://www.w3.org/2000/svg" viewBox="0 0 24 24"><defs><style>.a{fill:none;stroke:currentColor;stroke-linecap:round;stroke-linejoin:round;stroke-width:1.5px;}</style></defs><title>space-truck-satelite</title><path class="a" d="M.75,21.75V18l2.641-7.263A1.5,1.5,0,0,1,4.8,9.75H11.25v12"/><circle class="a" cx="6" cy="21" r="2.25"/><circle class="a" cx="18" cy="21" r="2.25"/><line class="a" x1="11.25" y1="21.75" x2="12.75" y2="21.75"/><path class="a" d="M14.528,11.946l1.222,3.8h6a1.5,1.5,0,0,1,1.5,1.5v4.5"/><path class="a" d="M22.5,10.773a6.75,6.75,0,0,1-9.546-9.546Z"/><circle class="a" cx="21.75" cy="2.25" r="1.5"/><line class="a" x1="20.689" y1="3.311" x2="17.864" y2="6.136"/><path class="a" d="M8.25,9.75v4.5a1.5,1.5,0,0,1-1.5,1.5H1.65"/></svg>