<svg xmlns="http://www.w3.org/2000/svg" viewBox="0 0 24 24"><defs><style>.a{fill:none;stroke:currentColor;stroke-linecap:round;stroke-linejoin:round;stroke-width:1.5px;}</style></defs><title>space-rocket-launch</title><polyline class="a" points="0.75 23.25 0.75 3.75 5.25 0.75 5.25 23.25"/><line class="a" x1="0.75" y1="14.25" x2="5.25" y2="14.25"/><line class="a" x1="0.75" y1="9.75" x2="6.75" y2="9.75"/><line class="a" x1="0.75" y1="18.75" x2="9.03" y2="18.75"/><path class="a" d="M15.75,1.5,14.393,3.2A7.5,7.5,0,0,0,12.75,7.881V21.75h6V7.881A7.5,7.5,0,0,0,17.107,3.2Z"/><path class="a" d="M12.75,21.75l-3.415.957a.75.75,0,0,1-1.085-.671v-.328a6,6,0,0,1,3.317-5.366l1.183-.592Z"/><path class="a" d="M12.75,21.75l-3.415.957a.75.75,0,0,1-1.085-.671v-.328a6,6,0,0,1,3.317-5.366l1.183-.592Z"/><path class="a" d="M18.75,21.75l3.415.957a.75.75,0,0,0,1.085-.671v-.328a6,6,0,0,0-3.317-5.366L18.75,15.75Z"/><path class="a" d="M18.75,21.75l3.415.957a.75.75,0,0,0,1.085-.671v-.328a6,6,0,0,0-3.317-5.366L18.75,15.75Z"/></svg>