<svg xmlns="http://www.w3.org/2000/svg" viewBox="0 0 24 24"><defs><style>.a{fill:none;stroke:currentColor;stroke-linecap:round;stroke-linejoin:round;stroke-width:1.5px;}</style></defs><title>space-astronaut</title><line class="a" x1="5.962" y1="10.425" x2="8.614" y2="7.773"/><circle class="a" cx="17.364" cy="5.386" r="4.125"/><path class="a" d="M5.432,19.44l2.652-2.651a1.5,1.5,0,0,0-2.122-2.122L3.311,17.319A1.5,1.5,0,0,1,1.189,15.2l4.773-4.773A1.5,1.5,0,0,1,3.841,8.3L7.023,5.121a3,3,0,0,1,4.243,0l6.364,6.364a3,3,0,0,1,0,4.243L14.448,18.91a1.5,1.5,0,0,1-2.122-2.121L7.553,21.562A1.5,1.5,0,1,1,5.432,19.44Z"/><line class="a" x1="14.978" y1="14.137" x2="12.326" y2="16.789"/><path class="a" d="M7.023,5.121l3.712-3.712a2.249,2.249,0,0,1,3.182,0l.808.807"/><path class="a" d="M17.63,15.728l3.712-3.712a2.249,2.249,0,0,0,0-3.182l-.808-.808"/><rect class="a" x="9.766" y="9.985" width="3" height="3" rx="0.5" ry="0.5" transform="translate(11.421 -4.602) rotate(45)"/><path class="a" d="M20,8.557A7.363,7.363,0,0,0,18.16,4.591a7.363,7.363,0,0,0-3.966-1.844"/><path class="a" d="M9.545,19.57l.569.654A8.815,8.815,0,0,0,23.25,20.4"/></svg>