<svg xmlns="http://www.w3.org/2000/svg" viewBox="0 0 24 24"><defs><style>.a{fill:none;stroke:currentColor;stroke-linecap:round;stroke-linejoin:round;stroke-width:1.5px;}</style></defs><title>space-base</title><path class="a" d="M3.25,12.75h14.5a1,1,0,0,1,1,1v9.5a0,0,0,0,1,0,0H2.25a0,0,0,0,1,0,0v-9.5A1,1,0,0,1,3.25,12.75Z"/><path class="a" d="M16.5,12.75a6,6,0,0,0-12,0"/><path class="a" d="M10.5,6.75V4.743a.917.917,0,0,1,.346-.709,1.1,1.1,0,0,1,.806-.233,9.436,9.436,0,0,1,8.575,7.889.9.9,0,0,1-.254.741,1.075,1.075,0,0,1-.77.319H17.25"/><polyline class="a" points="15.975 5.258 17.879 3.336 20.688 6.171 18.845 8.031"/><path class="a" d="M19.707,5.18,18.83,4.3a2.37,2.37,0,0,1,0-3.336l.033-.033a.591.591,0,0,1,.842,0l3.37,3.4a.605.605,0,0,1,0,.851h0A2.37,2.37,0,0,1,19.707,5.18Z"/><path class="a" d="M8.75,16.5h3.5a.5.5,0,0,1,.5.5v6.25a0,0,0,0,1,0,0H8.25a0,0,0,0,1,0,0V17A.5.5,0,0,1,8.75,16.5Z"/><line class="a" x1="0.75" y1="23.25" x2="20.25" y2="23.25"/></svg>