<svg xmlns="http://www.w3.org/2000/svg" viewBox="0 0 24 24"><defs><style>.a{fill:none;stroke:currentColor;stroke-linecap:round;stroke-linejoin:round;stroke-width:1.5px;}</style></defs><title>space-ship-1</title><path class="a" d="M1.626,11.5h15a0,0,0,0,1,0,0v4.75a2,2,0,0,1-2,2h-11a2,2,0,0,1-2-2V11.5a0,0,0,0,1,0,0Z" transform="translate(13.191 -2.096) rotate(45)"/><path class="a" d="M16.816,17.791,6.209,7.184l4.072-2.768a6.8,6.8,0,0,1,8.656.647,6.8,6.8,0,0,1,.647,8.656Z"/><circle class="a" cx="15.225" cy="8.775" r="2.25"/><path class="a" d="M6.209,7.184,3.765,6.907A3.511,3.511,0,0,0,1.222,7.929l-.216.216a.905.905,0,0,0,.019,1.28l1.517,1.517"/><path class="a" d="M16.816,17.791l.277,2.444a3.511,3.511,0,0,1-1.022,2.543l-.216.216a.905.905,0,0,1-1.28-.019l-1.517-1.517"/><line class="a" x1="2.25" y1="21.75" x2="5.25" y2="21.75"/><line class="a" x1="3.75" y1="20.25" x2="3.75" y2="23.25"/><line class="a" x1="1.5" y1="2.25" x2="4.5" y2="2.25"/><line class="a" x1="3" y1="0.75" x2="3" y2="3.75"/><line class="a" x1="20.25" y1="17.25" x2="23.25" y2="17.25"/><line class="a" x1="21.75" y1="15.75" x2="21.75" y2="18.75"/><path class="a" d="M20.625,21.75a.375.375,0,0,1,.375.375"/><path class="a" d="M20.25,22.125a.375.375,0,0,1,.375-.375"/><path class="a" d="M20.625,22.5a.375.375,0,0,1-.375-.375"/><path class="a" d="M21,22.125a.375.375,0,0,1-.375.375"/><path class="a" d="M1.125,16.5a.375.375,0,0,1,.375.375"/><path class="a" d="M.75,16.875a.375.375,0,0,1,.375-.375"/><path class="a" d="M1.125,17.25a.375.375,0,0,1-.375-.375"/><path class="a" d="M1.5,16.875a.375.375,0,0,1-.375.375"/><path class="a" d="M9.361.75a.376.376,0,0,1,.389.361"/><path class="a" d="M9,1.139A.376.376,0,0,1,9.361.75"/><path class="a" d="M9.389,1.5A.376.376,0,0,1,9,1.139"/><path class="a" d="M9.75,1.111a.376.376,0,0,1-.361.389"/></svg>