<svg xmlns="http://www.w3.org/2000/svg" viewBox="0 0 24 24"><defs><style>.a{fill:none;stroke:currentColor;stroke-linecap:round;stroke-linejoin:round;stroke-width:1.5px;}</style></defs><title>space-antenna-satelite</title><circle class="a" cx="6" cy="21" r="2.25"/><circle class="a" cx="21" cy="21" r="2.25"/><line class="a" x1="8.25" y1="21" x2="18.75" y2="21"/><path class="a" d="M20.9,18.752l.757-5.47a1.808,1.808,0,0,0-3.567-.579L16.965,17.25H14.25a1.5,1.5,0,0,0-1.5,1.5v.75a1.5,1.5,0,0,0,1.5,1.5h1.5"/><line class="a" x1="8.25" y1="21" x2="8.25" y2="11.903"/><path class="a" d="M1.2,4.792A4.187,4.187,0,0,1,3.71,1.047a4.184,4.184,0,0,1,4.421.875"/><path class="a" d="M6.765,3.841a1.915,1.915,0,0,0-2.1-.484A1.915,1.915,0,0,0,3.525,5.183"/><path class="a" d="M11.837,4.987c1.268,3.062-.569,5.648-3.63,6.916S2.018,12.641.75,9.579Z"/></svg>