<svg xmlns="http://www.w3.org/2000/svg" viewBox="0 0 24 24"><defs><style>.a{fill:none;stroke:currentColor;stroke-linecap:round;stroke-linejoin:round;stroke-width:1.5px;}</style></defs><title>space-rocket-2</title><path class="a" d="M22.5,11.25V7.062a4.506,4.506,0,0,0-.475-2.012l-.857-1.715a.189.189,0,0,0-.336,0L19.975,5.05A4.506,4.506,0,0,0,19.5,7.062V8.25"/><path class="a" d="M1.5,11.25V7.062A4.506,4.506,0,0,1,1.975,5.05l.857-1.715a.189.189,0,0,1,.336,0L4.025,5.05A4.506,4.506,0,0,1,4.5,7.062V8.25"/><path class="a" d="M10.494,7.356a2,2,0,0,1,2.994.138"/><line class="a" x1="8.514" y1="3.75" x2="15.486" y2="3.75"/><line class="a" x1="12" y1="18" x2="12" y2="23.25"/><path class="a" d="M15.75,23.25H8.25L7.5,7.5C7.5,5.015,9.515.75,12,.75s4.5,4.265,4.5,6.75Z"/><path class="a" d="M16.363,10.38l5.113,4.474A3,3,0,0,1,22.5,17.111V20.25a1.5,1.5,0,0,1-1.5,1.5H15.821"/><path class="a" d="M7.637,10.38,2.524,14.854A3,3,0,0,0,1.5,17.111V20.25A1.5,1.5,0,0,0,3,21.75H8.179"/></svg>