<svg xmlns="http://www.w3.org/2000/svg" viewBox="0 0 24 24"><defs><style>.a{fill:none;stroke:currentColor;stroke-linecap:round;stroke-linejoin:round;stroke-width:1.5px;}</style></defs><title>space-explore</title><path class="a" d="M.75,23.25V15.69a6,6,0,0,1,12,0v7.56"/><line class="a" x1="9.75" y1="0.75" x2="9.75" y2="3.75"/><line class="a" x1="8.25" y1="2.25" x2="11.25" y2="2.25"/><line class="a" x1="20.25" y1="10.5" x2="20.25" y2="13.5"/><line class="a" x1="18.75" y1="12" x2="21.75" y2="12"/><path class="a" d="M20.25.75a3.024,3.024,0,0,1-3,3,3.024,3.024,0,0,1,3,3,3.024,3.024,0,0,1,3-3,3.024,3.024,0,0,1-3-3"/><path class="a" d="M11.523,7.792,13.3,5.465a.548.548,0,0,1,.822-.055L16.34,7.625a.548.548,0,0,1-.055.822L14.163,10.07"/><path class="a" d="M15.75,15.925V14.847A8.257,8.257,0,0,0,4.322,7.37"/><line class="a" x1="0.75" y1="15.75" x2="12.75" y2="15.75"/><path class="a" d="M5.25,23.25V21a1.5,1.5,0,0,1,1.5-1.5h0A1.5,1.5,0,0,1,8.25,21v2.25"/></svg>