<svg xmlns="http://www.w3.org/2000/svg" viewBox="0 0 24 24"><defs><style>.a{fill:none;stroke:currentColor;stroke-linecap:round;stroke-linejoin:round;stroke-width:1.5px;}</style></defs><title>space-astronaut-alternate</title><rect class="a" x="6.75" y="19.5" width="6" height="3.75" rx="1" ry="1"/><path class="a" d="M18.75,23.25v-3a4.5,4.5,0,0,0-3.239-4.32A1.748,1.748,0,0,1,14.25,14.25v-3a4.5,4.5,0,0,0-9,0v3a1.748,1.748,0,0,1-1.261,1.679A4.5,4.5,0,0,0,.75,20.249v3"/><path class="a" d="M5.25,11.25l1.658-.829a6.354,6.354,0,0,1,5.684,0l1.658.829"/><path class="a" d="M5.25,14.25l1.658.829a6.354,6.354,0,0,0,5.684,0l1.658-.829"/><path class="a" d="M.75,20.25V13.5A2.25,2.25,0,0,1,3,11.25"/><path class="a" d="M18.75,20.25V13.5a2.25,2.25,0,0,0-2.25-2.25"/><line class="a" x1="11.25" y1="0.75" x2="11.25" y2="3.75"/><line class="a" x1="9.75" y1="2.25" x2="12.75" y2="2.25"/><line class="a" x1="21.75" y1="8.25" x2="21.75" y2="11.25"/><line class="a" x1="20.25" y1="9.75" x2="23.25" y2="9.75"/><path class="a" d="M18.75.75a3.024,3.024,0,0,1-3,3,3.024,3.024,0,0,1,3,3,3.024,3.024,0,0,1,3-3,3.024,3.024,0,0,1-3-3"/></svg>