<svg xmlns="http://www.w3.org/2000/svg" viewBox="0 0 24 24"><defs><style>.a{fill:none;stroke:currentColor;stroke-linecap:round;stroke-linejoin:round;stroke-width:1.5px;}</style></defs><title>space-rocket-base</title><path class="a" d="M1.5,17.25V7.5A2.25,2.25,0,0,1,6,7.5v5.25"/><path class="a" d="M18,12.75V7.5a2.25,2.25,0,0,1,4.5,0v9.75"/><path class="a" d="M6,7.5V6.75a6,6,0,0,1,12,0V7.5"/><path class="a" d="M21,21.75a1.5,1.5,0,0,1-1.5,1.5H4.5A1.5,1.5,0,0,1,3,21.75v-1.5a1.5,1.5,0,0,1,.6-1.2L7.8,15.9A3,3,0,0,0,9,13.5V8.41a3.071,3.071,0,0,1,3-3.16,3,3,0,0,1,3,3V13.5a3,3,0,0,0,1.2,2.4l4.2,3.15a1.5,1.5,0,0,1,.6,1.2Z"/><line class="a" x1="11.25" y1="9" x2="12.75" y2="9"/><line class="a" x1="12" y1="18.75" x2="12" y2="23.25"/></svg>