<svg xmlns="http://www.w3.org/2000/svg" viewBox="0 0 24 24"><defs><style>.a{fill:none;stroke:currentColor;stroke-linecap:round;stroke-linejoin:round;stroke-width:1.5px;}</style></defs><title>space-ship</title><line class="a" x1="12" y1="16.5" x2="12" y2="21"/><path class="a" d="M5.25,23.25a2.25,2.25,0,0,0-4.5,0h4.5Z"/><path class="a" d="M14.25,23.25a2.25,2.25,0,0,0-4.5,0Z"/><path class="a" d="M23.25,23.25a2.25,2.25,0,0,0-4.5,0Z"/><path class="a" d="M18,18l-1.061-1.061a1.5,1.5,0,0,0-1.06-.439H8.121a1.5,1.5,0,0,0-1.06.439L6,18"/><path class="a" d="M21,21V17.121a1.5,1.5,0,0,0-.439-1.06l-2.122-2.122a1.5,1.5,0,0,0-1.06-.439H6.618a1.5,1.5,0,0,0-1.057.436l-2.118,2.1A1.5,1.5,0,0,0,3,17.1V21"/><rect class="a" x="7.5" y="10.5" width="9" height="3"/><path class="a" d="M7.5,10.5A4.7,4.7,0,0,1,6,7.1C6,4.132,8.686.75,12,.75S18,4.132,18,7.1a4.7,4.7,0,0,1-1.5,3.4"/><path class="a" d="M13.5,10.5h-3V7.483A1.483,1.483,0,0,1,11.983,6h.034A1.483,1.483,0,0,1,13.5,7.483Z"/><line class="a" x1="10.5" y1="10.5" x2="10.5" y2="13.5"/><line class="a" x1="13.5" y1="10.5" x2="13.5" y2="13.5"/></svg>