<svg xmlns="http://www.w3.org/2000/svg" viewBox="0 0 24 24"><defs><style>.a{fill:none;stroke:currentColor;stroke-linecap:round;stroke-linejoin:round;stroke-width:1.5px;}</style></defs><title>space-rocket-1</title><polyline class="a" points="7 20.25 8.5 8.25 14.499 8.25 16 20.25"/><path class="a" d="M14.5,8.25h-6V6.93a6.007,6.007,0,0,1,.633-2.683L10.606,1.3a1,1,0,0,1,1.788,0l1.473,2.944A6.007,6.007,0,0,1,14.5,6.93Z"/><path class="a" d="M12.737,22.131a1.243,1.243,0,0,1-2.474,0l-.451-4.515a1.7,1.7,0,1,1,3.376,0Z"/><path class="a" d="M7.556,15.8A3,3,0,0,0,4,18.75l.58,3.482a1.218,1.218,0,0,0,2.42-.2V20.25h3.075"/><path class="a" d="M15.444,15.8A3,3,0,0,1,19,18.75l-.58,3.482a1.218,1.218,0,0,1-2.42-.2V20.25H12.925"/></svg>