<svg xmlns="http://www.w3.org/2000/svg" viewBox="0 0 24 24"><defs><style>.a{fill:none;stroke:currentColor;stroke-linecap:round;stroke-linejoin:round;stroke-width:1.5px;}</style></defs><title>speech-translate-1</title><path class="a" d="M3.75,9A5.251,5.251,0,0,1,9,3.75"/><path class="a" d="M20.25,9A5.25,5.25,0,0,0,15,3.75"/><path class="a" d="M15,.75A8.25,8.25,0,0,1,23.25,9"/><path class="a" d="M.75,9A8.25,8.25,0,0,1,9,.75"/><line class="a" x1="5.25" y1="12.75" x2="18.75" y2="12.75"/><line class="a" x1="12" y1="9.75" x2="12" y2="12.75"/><path class="a" d="M15.75,12.75c0,3.75-5.25,10.5-9,10.5"/><path class="a" d="M8.25,12.75c0,3.75,5.25,10.5,9,10.5"/></svg>