<svg id="Regular" xmlns="http://www.w3.org/2000/svg" viewBox="0 0 24 24"><defs><style>.cls-1{fill:none;stroke:currentColor;stroke-linecap:round;stroke-linejoin:round;stroke-width:1.5px;}</style></defs><title>spider-hang</title><path class="cls-1" d="M9.157,13.6a5.084,5.084,0,0,1-.907-3.1A5.131,5.131,0,0,1,12,5.25a5.131,5.131,0,0,1,3.75,5.25,5.084,5.084,0,0,1-.907,3.1"/><path class="cls-1" d="M13.126,15a3.2,3.2,0,0,1,1.124,2.551c0,1.768-.562,2.947-2.25,2.947s-2.25-1.179-2.25-2.947A3.2,3.2,0,0,1,10.874,15"/><path class="cls-1" d="M13.914,19.416l2,.5a3,3,0,0,1,1.956,1.569l.883,1.766"/><path class="cls-1" d="M14.237,18l3.192-.532a3,3,0,0,1,2.367.617l2.7,2.163"/><path class="cls-1" d="M14.118,16.556l3.775-1.617a3,3,0,0,0,1.8-2.426L20.25,7.5"/><path class="cls-1" d="M10.086,19.416l-2,.5a3,3,0,0,0-1.956,1.569L5.25,23.25"/><path class="cls-1" d="M9.763,18,6.571,17.47a3,3,0,0,0-2.367.617L1.5,20.25"/><path class="cls-1" d="M9.882,16.556,6.107,14.939a3,3,0,0,1-1.8-2.426L3.75,7.5"/><line class="cls-1" x1="12" y1="0.75" x2="12" y2="5.25"/><path class="cls-1" d="M13.061,9.439a1.5,1.5,0,1,1-2.122,0"/></svg>