<svg id="Regular" xmlns="http://www.w3.org/2000/svg" viewBox="0 0 24 24"><defs><style>.cls-1{fill:none;stroke:currentColor;stroke-linecap:round;stroke-linejoin:round;stroke-width:1.5px;}</style></defs><title>spider</title><path class="cls-1" d="M14.976,12.75a6.979,6.979,0,0,1,1.524,4.5c0,3.314-2.015,6-4.5,6s-4.5-2.686-4.5-6a6.979,6.979,0,0,1,1.524-4.5"/><path class="cls-1" d="M10.4,11.244A3.619,3.619,0,0,1,9.75,9c0-1.657,0-3,2.25-3s2.25,1.343,2.25,3a3.615,3.615,0,0,1-.658,2.25"/><path class="cls-1" d="M10.5,18.75a2.121,2.121,0,1,1,3,0"/><path class="cls-1" d="M10.643,6.263C9.662,4.588,10.5,3.75,10.5,3.75"/><path class="cls-1" d="M13.357,6.263c.981-1.675.143-2.513.143-2.513"/><path class="cls-1" d="M14.2,9.721l3.789,2.165A3,3,0,0,1,19.5,14.493V21.75c0,1.5-.75,1.5-.75,1.5"/><path class="cls-1" d="M14.241,8.249l4.636.662a3.012,3.012,0,0,1,1.177.432c1.044.66,3.2,2.089,3.2,2.657"/><path class="cls-1" d="M14.173,7.519,20.25,6S22.5,3,22.5,1.5"/><path class="cls-1" d="M14.006,6.954,17.54,4.009a2.062,2.062,0,0,0,.3-2.865A.849.849,0,0,0,17.25.75"/><path class="cls-1" d="M9.8,9.721,6.012,11.886A3,3,0,0,0,4.5,14.493V21.75c0,1.5.75,1.5.75,1.5"/><path class="cls-1" d="M9.759,8.249l-4.636.662a3.012,3.012,0,0,0-1.177.432C2.9,10,.75,11.432.75,12"/><path class="cls-1" d="M9.827,7.519,4.843,6.273A3,3,0,0,1,3.061,5.007,8.563,8.563,0,0,1,1.5,1.5"/><path class="cls-1" d="M9.994,6.954,6.46,4.009a2.062,2.062,0,0,1-.3-2.864A.847.847,0,0,1,6.75.75"/></svg>