<svg id="Regular" xmlns="http://www.w3.org/2000/svg" viewBox="0 0 24 24"><defs><style>.cls-1{fill:none;stroke:currentColor;stroke-linecap:round;stroke-linejoin:round;stroke-width:1.5px;}</style></defs><title>spirits-glass</title><path class="cls-1" d="M13.106,11.25h9a.75.75,0,0,1,.75.75v9.75a1.5,1.5,0,0,1-1.5,1.5h-7.5a1.5,1.5,0,0,1-1.5-1.5V12A.75.75,0,0,1,13.106,11.25Z"/><path class="cls-1" d="M15.731,18a.375.375,0,1,1-.375.375A.375.375,0,0,1,15.731,18"/><path class="cls-1" d="M19.481,19.5a.375.375,0,1,1-.375.375.375.375,0,0,1,.375-.375"/><line class="cls-1" x1="12.356" y1="15.75" x2="22.856" y2="15.75"/><path class="cls-1" d="M10.068,9.065l-.342-.391a1.5,1.5,0,0,1-.37-.987V1.5a.75.75,0,0,0-.75-.75h-3a.75.75,0,0,0-.75.75V7.687a1.5,1.5,0,0,1-.371.987L1.8,11.789a3,3,0,0,0-.626,2.3l1.267,7.9A1.5,1.5,0,0,0,3.923,23.25H8.644"/><line class="cls-1" x1="4.856" y1="5.25" x2="9.356" y2="5.25"/><polyline class="cls-1" points="9.356 18.75 5.606 18.75 4.856 14.25 9.356 14.25"/></svg>