<svg id="Regular" xmlns="http://www.w3.org/2000/svg" viewBox="0 0 24 24"><defs><style>.cls-1{fill:none;stroke:currentColor;stroke-linecap:round;stroke-linejoin:round;stroke-width:1.5px;}</style></defs><title>spirits</title><path class="cls-1" d="M19.871,8.8,15.183,6.841a1.686,1.686,0,0,1-.933-1.509V3.75H9.75V5.332a1.686,1.686,0,0,1-.933,1.509L4.129,8.8A3.37,3.37,0,0,0,2.255,11.98,20.173,20.173,0,0,0,5.918,22.472a1.691,1.691,0,0,0,1.421.778h9.322a1.691,1.691,0,0,0,1.421-.778A20.173,20.173,0,0,0,21.745,11.98,3.37,3.37,0,0,0,19.871,8.8Z"/><polyline class="cls-1" points="4.322 19.714 12 9.75 19.678 19.714"/><polyline class="cls-1" points="3.697 9.75 12 20.25 20.258 9.804"/><line class="cls-1" x1="2.964" y1="9.75" x2="21" y2="9.75"/><line class="cls-1" x1="4.603" y1="20.25" x2="19.397" y2="20.25"/><path class="cls-1" d="M14.893.75H9.107c-.541,0-.946.346-.84.718l.514,1.8a.838.838,0,0,0,.84.482h4.758a.838.838,0,0,0,.84-.482l.514-1.8C15.839,1.1,15.434.75,14.893.75Z"/></svg>