<svg id="Regular" xmlns="http://www.w3.org/2000/svg" viewBox="0 0 24 24"><defs><style>.cls-1{fill:none;stroke:currentColor;stroke-linecap:round;stroke-linejoin:round;stroke-width:1.5px;}</style></defs><title>sport-curling-1</title><circle class="cls-1" cx="13.5" cy="3.5" r="2.625"/><path class="cls-1" d="M19.84,8.735a4.64,4.64,0,0,0-4.683-.19L8.282,12.3a1.5,1.5,0,1,0,1.436,2.634L15,12.047V14.78l-2.414,1.931a6.063,6.063,0,0,0-1.62,2L9.908,20.829a1.5,1.5,0,0,0,2.684,1.342l1.056-2.115a3.048,3.048,0,0,1,.811-1l1.2-.958a5.926,5.926,0,0,0,.734,1.114L19.1,22.459a1.5,1.5,0,1,0,2.3-1.918L18.7,17.29a3,3,0,0,1-.7-1.919V11.158a2.561,2.561,0,0,1,.308.157,4.3,4.3,0,0,1,1.942,3.51v.287a1.5,1.5,0,1,0,3,0v-.287A7.282,7.282,0,0,0,19.84,8.735Z"/><ellipse class="cls-1" cx="3.75" cy="21.5" rx="3" ry="1.5"/><line class="cls-1" x1="4.92" y1="20.12" x2="8.358" y2="14.963"/><line class="cls-1" x1="0.75" y1="14" x2="3.75" y2="14"/><line class="cls-1" x1="2.25" y1="17" x2="3.75" y2="17"/></svg>