<svg id="Regular" xmlns="http://www.w3.org/2000/svg" viewBox="0 0 24 24"><defs><style>.cls-1{fill:none;stroke:currentColor;stroke-linecap:round;stroke-linejoin:round;stroke-width:1.5px;}</style></defs><title>sport-paragliding</title><path class="cls-1" d="M2.25,23.25a1.5,1.5,0,0,1-1.139-2.476l3.6-4.2A4.493,4.493,0,0,1,8.13,15h6.378a4.476,4.476,0,0,1,3.182,1.318l1.356,1.357,2.033-1.017a1.5,1.5,0,0,1,1.342,2.684l-2.033,1.016a3,3,0,0,1-3.463-.562l-1.356-1.357A1.515,1.515,0,0,0,14.508,18H8.13a1.492,1.492,0,0,0-1.138.523l-3.6,4.2A1.5,1.5,0,0,1,2.25,23.25Z"/><circle class="cls-1" cx="17.25" cy="11.25" r="2.625"/><path class="cls-1" d="M.75.75S18,.75,23.25,4.5L2.25,9A9.37,9.37,0,0,0,.75.75Z"/><line class="cls-1" x1="10.5" y1="12" x2="11.613" y2="6.994"/></svg>