<svg xmlns="http://www.w3.org/2000/svg" viewBox="0 0 24 24"><defs><style>.a{fill:none;stroke:currentColor;stroke-linecap:round;stroke-linejoin:round;stroke-width:1.5px;}</style></defs><title>sports-car-convertible-1</title><circle class="a" cx="18.75" cy="15.5" r="1.5"/><circle class="a" cx="5.25" cy="15.5" r="1.5"/><path class="a" d="M3.75,15.5H2.25A1.5,1.5,0,0,1,.75,14a4.5,4.5,0,0,1,4.5-4.5,1.5,1.5,0,0,1,1.5,1.5H13.5A1.5,1.5,0,0,0,15,9.5h3.75a4.5,4.5,0,0,1,4.5,4.5,1.5,1.5,0,0,1-1.5,1.5h-1.5"/><line class="a" x1="17.25" y1="15.5" x2="6.75" y2="15.5"/><line class="a" x1="15" y1="9.5" x2="12.75" y2="6.5"/><line class="a" x1="9.75" y1="11" x2="8.25" y2="7.25"/></svg>