<svg xmlns="http://www.w3.org/2000/svg" viewBox="0 0 24 24"><defs><style>.a{fill:none;stroke:currentColor;stroke-linecap:round;stroke-linejoin:round;stroke-width:1.5px;}</style></defs><title>sports-car-1</title><circle class="a" cx="18.795" cy="15.75" r="1.5"/><circle class="a" cx="6.795" cy="15.75" r="1.5"/><line class="a" x1="17.295" y1="15.75" x2="8.295" y2="15.75"/><path class="a" d="M20.3,15.75h1.5a1.5,1.5,0,0,0,1.5-1.5V12.642A3,3,0,0,0,21.2,9.78,14.668,14.668,0,0,0,17.641,9H9.8c-3,0-3-1.5-9-1.5v3.75a4.5,4.5,0,0,0,4.5,4.5"/><path class="a" d="M20.3,9.513s-3.75-4.263-9-4.263c-6.75,0-6,2.25-9.75,2.25H.8"/><line class="a" x1="14.295" y1="12.75" x2="9.795" y2="12.75"/><line class="a" x1="0.795" y1="10.5" x2="3.045" y2="10.5"/></svg>