<svg xmlns="http://www.w3.org/2000/svg" viewBox="0 0 24 24"><defs><style>.a{fill:none;stroke:currentColor;stroke-linecap:round;stroke-linejoin:round;stroke-width:1.5px;}</style></defs><title>sports-car</title><circle class="a" cx="18.75" cy="15.75" r="1.5"/><circle class="a" cx="6.75" cy="15.75" r="1.5"/><line class="a" x1="17.25" y1="15.75" x2="8.25" y2="15.75"/><path class="a" d="M5.25,15.75h-3a1.5,1.5,0,0,1-1.5-1.5v-1.5a1.5,1.5,0,0,1,1.5-1.5H3c2.25,0,5.25-4.5,8.25-4.5H15a2.426,2.426,0,0,1,2.171,1.342L18.75,11.25h1.5a3,3,0,0,1,3,3,1.5,1.5,0,0,1-1.5,1.5h-1.5"/><polyline class="a" points="2.25 11.25 2.25 9 0.75 8.25"/><line class="a" x1="18.75" y1="11.25" x2="3" y2="11.25"/></svg>