<svg id="Regular" xmlns="http://www.w3.org/2000/svg" viewBox="0 0 24 24"><defs><style>.cls-1{fill:none;stroke:currentColor;stroke-linecap:round;stroke-linejoin:round;stroke-width:1.5px;}</style></defs><title>sport-horse-riding</title><path class="cls-1" d="M15.75,3.75h-1.5V4.5a3,3,0,0,1-6,0V3.75"/><path class="cls-1" d="M8.25.75h6a0,0,0,0,1,0,0v1a2,2,0,0,1-2,2h-2a2,2,0,0,1-2-2v-1A0,0,0,0,1,8.25.75Z" transform="translate(22.5 4.5) rotate(-180)"/><path class="cls-1" d="M14.784,9.58c1.39-1.775,3.477-4.33,3.966-4.33l.75,3,3.75,2.25-.408,1.224a1.5,1.5,0,0,1-1.423,1.026H18.75a32.7,32.7,0,0,0-1.5,9"/><path class="cls-1" d="M5.249,23.25a1.5,1.5,0,0,1-1.341-2.171l.981-1.961a1.5,1.5,0,0,0-.6-1.973L1.506,15.552a1.5,1.5,0,0,1-.156-2.5l6-4.5a1.5,1.5,0,0,1,2.186.428l1.73,2.883a1.5,1.5,0,0,0,.729.621l2.812,1.125a1.5,1.5,0,0,1-1.114,2.786l-2.812-1.125a4.533,4.533,0,0,1-2.187-1.863l-.875-1.458L4.976,14.08l.8.46a4.5,4.5,0,0,1,1.793,5.919l-.981,1.962A1.5,1.5,0,0,1,5.249,23.25Z"/></svg>