<svg xmlns="http://www.w3.org/2000/svg" viewBox="0 0 24 24"><defs><style>.a{fill:none;stroke:currentColor;stroke-linecap:round;stroke-linejoin:round;stroke-width:1.5px;}</style></defs><title>sports-car-2</title><path class="a" d="M19.69,9.1,18,4.886A3,3,0,0,0,15.219,3H8.781A3,3,0,0,0,6,4.886L4.31,9.1"/><path class="a" d="M2.25,16.854V19.5a1.5,1.5,0,0,0,3,0V18"/><path class="a" d="M21.75,16.854V19.5a1.5,1.5,0,0,1-3,0V18"/><path class="a" d="M23.25,13.5a4.5,4.5,0,0,1-4.5,4.5H5.25a4.5,4.5,0,0,1,0-9h13.5A4.5,4.5,0,0,1,23.25,13.5Z"/><line class="a" x1="3.75" y1="13.5" x2="20.25" y2="13.5"/><line class="a" x1="9.75" y1="9" x2="7.5" y2="13.5"/><line class="a" x1="14.25" y1="9" x2="16.5" y2="13.5"/><line class="a" x1="9.75" y1="13.5" x2="9.75" y2="18"/><line class="a" x1="14.25" y1="13.5" x2="14.25" y2="18"/><polyline class="a" points="0.75 7.5 3 7.5 4.311 9.099"/><polyline class="a" points="23.25 7.5 21 7.5 19.689 9.099"/></svg>