<svg id="Regular" xmlns="http://www.w3.org/2000/svg" viewBox="0 0 24 24"><defs><style>.cls-1{fill:none;stroke:currentColor;stroke-linecap:round;stroke-linejoin:round;stroke-width:1.5px;}</style></defs><title>sport-hockey</title><circle class="cls-1" cx="12.625" cy="3.375" r="2.625"/><path class="cls-1" d="M16.325,13.954l-5.84-6a1.471,1.471,0,0,0-1.291-.438A1.5,1.5,0,0,0,8.083,8.3l-3.16,6a1.5,1.5,0,0,0-.173.7v3a1.5,1.5,0,0,1-.6,1.2l-1.8,1.35a1.5,1.5,0,0,0,1.8,2.4L5.95,21.6A4.515,4.515,0,0,0,7.75,18V16.917l2.524,1.306.489,3.722a1.5,1.5,0,0,0,1.486,1.3,1.455,1.455,0,0,0,.2-.013,1.5,1.5,0,0,0,1.292-1.682l-.488-3.719a3,3,0,0,0-1.6-2.279L8.508,13.931l1.266-2.406,4.4,4.521a1.5,1.5,0,0,0,2.15-2.092Z"/><path class="cls-1" d="M15.892,16.356l3.152,4.2a1.5,1.5,0,0,0,2.541-.229L22,19.5"/><line class="cls-1" x1="18.25" y1="23.25" x2="22" y2="23.25"/></svg>