<svg id="Regular" xmlns="http://www.w3.org/2000/svg" viewBox="0 0 24 24"><defs><style>.cls-1{fill:none;stroke:currentColor;stroke-linecap:round;stroke-linejoin:round;stroke-width:1.5px;}</style></defs><title>squid-shell</title><path class="cls-1" d="M18.307,8.153a2.87,2.87,0,0,0-2.87-2.87,3.587,3.587,0,0,0-3.588,3.588,4.485,4.485,0,0,0,4.485,4.485A5.606,5.606,0,0,0,21.94,7.75,7.009,7.009,0,0,0,14.932.742,8.76,8.76,0,0,0,6.173,9.5H11.9"/><path class="cls-1" d="M6.915,9.5a5.676,5.676,0,0,0-1.484,3.709c0,2.226,1.484,5.194.742,7.42s-3.71,2.968-4.452.742a2.3,2.3,0,0,1,1.484-2.968"/><path class="cls-1" d="M10.625,14.7a6.229,6.229,0,0,0,5.935,2.226c3.71-.742,5.194.742,5.194,2.968s-2.968,2.968-3.71,1.484"/><path class="cls-1" d="M9.141,16.921s0,2.226,2.968,2.968,1.484,4.452-1.484,2.968"/><circle class="cls-1" cx="8.77" cy="12.098" r="0.375"/></svg>