<svg id="Regular" xmlns="http://www.w3.org/2000/svg" viewBox="0 0 24 24"><defs><style>.cls-1{fill:none;stroke:currentColor;stroke-linecap:round;stroke-linejoin:round;stroke-width:1.5px;}</style></defs><title>squid</title><path class="cls-1" d="M11.554,9.474c1.361-5.547,9.616-7.78,9.616-7.78s.132,8.55-4.823,11.39"/><path class="cls-1" d="M15.19,4.579l-.6-2.881s3.581-2.26,6.576,0,1.812,6.321,1.812,6.321l-2.934.224"/><circle class="cls-1" cx="10.873" cy="12.248" r="0.375"/><circle class="cls-1" cx="13.869" cy="14.504" r="0.375"/><path class="cls-1" d="M12.359,16.947a3.28,3.28,0,0,1-2.25,3c-1.591.53-4.5,1.5-4.5,3"/><path class="cls-1" d="M15.359,16.947c.75,1.5-.75,3.75,0,5.25s3.75,1.5,4.5-.75"/><path class="cls-1" d="M9.359,14.7s-1.5,0-3,2.25-2.25,3-4.5,3"/><path class="cls-1" d="M7.859,11.7a3.923,3.923,0,0,0-3.75.75c-1.5,1.5-4.5-.75-2.25-3"/></svg>