<svg id="Regular" xmlns="http://www.w3.org/2000/svg" viewBox="0 0 24 24"><defs><style>.cls-1{fill:none;stroke:currentColor;stroke-linecap:round;stroke-linejoin:round;stroke-width:1.5px;}</style></defs><title>squirrel</title><path class="cls-1" d="M16.834,15.75a3.75,3.75,0,1,1,0,7.5h-3c-2.25,0-3-2.25-3-8.25,0-4.562,2.25-6.75,2.25-6.75a9.17,9.17,0,0,1-.724-2.29,2.621,2.621,0,1,1-.4-5.21,2.615,2.615,0,0,1,2.276,1.339c3.1-1.145,8.6.911,8.6.911s1.5,5.25-4.5,6A24.848,24.848,0,0,1,19.6,13.74"/><path class="cls-1" d="M19.455,12.939l.379-.189a2.646,2.646,0,0,1,3,.75"/><line class="cls-1" x1="16.834" y1="23.25" x2="22.084" y2="23.25"/><path class="cls-1" d="M17.209,4.5a.375.375,0,0,0-.375.375"/><path class="cls-1" d="M17.584,4.875a.375.375,0,0,0-.375-.375"/><path class="cls-1" d="M17.209,5.25a.375.375,0,0,0,.375-.375"/><path class="cls-1" d="M16.834,4.875a.375.375,0,0,0,.375.375"/><path class="cls-1" d="M4.079,9.754a7.5,7.5,0,0,0,4.505,13.5h5.25"/><path class="cls-1" d="M2.811,10.962A6,6,0,0,1,6.171.819"/></svg>