<svg id="Regular" xmlns="http://www.w3.org/2000/svg" viewBox="0 0 24 24"><defs><style>.cls-1{fill:none;stroke:currentColor;stroke-linecap:round;stroke-linejoin:round;stroke-width:1.5px;}</style></defs><title>stairs</title><polyline class="cls-1" points="23.25 23.25 18.75 23.25 6.75 14.25 0.75 14.25 0.75 8.25 6.75 8.25 18.75 17.25 23.25 17.25"/><line class="cls-1" x1="2.25" y1="14.25" x2="2.25" y2="23.25"/><line class="cls-1" x1="0.75" y1="23.25" x2="6.75" y2="23.25"/><line class="cls-1" x1="5.25" y1="14.25" x2="5.25" y2="23.25"/><polyline class="cls-1" points="23.25 0.75 17.25 0.75 10.5 6"/><polyline class="cls-1" points="14.25 9.001 17.25 6.75 23.25 6.75"/><line class="cls-1" x1="20.25" y1="0.75" x2="20.25" y2="6.75"/><line class="cls-1" x1="17.25" y1="0.75" x2="17.25" y2="6.75"/><line class="cls-1" x1="6.75" y1="8.25" x2="6.75" y2="14.25"/><line class="cls-1" x1="18.75" y1="17.25" x2="18.75" y2="23.25"/><line class="cls-1" x1="3.75" y1="8.25" x2="3.75" y2="14.25"/><line class="cls-1" x1="9.75" y1="10.501" x2="9.75" y2="16.501"/><line class="cls-1" x1="12.75" y1="12.751" x2="12.75" y2="18.751"/><line class="cls-1" x1="15.75" y1="15.001" x2="15.75" y2="21.001"/><line class="cls-1" x1="21.75" y1="17.25" x2="21.75" y2="23.25"/><line class="cls-1" x1="14.25" y1="9" x2="14.25" y2="3.084"/></svg>