<svg xmlns="http://www.w3.org/2000/svg" viewBox="0 0 24 24"><defs><style>.a{fill:none;stroke:currentColor;stroke-linecap:round;stroke-linejoin:round;stroke-width:1.5px;}</style></defs><title>stairs-person-descend</title><circle class="a" cx="7.5" cy="3.559" r="2.625"/><path class="a" d="M14.552,11.153c-2.453,0-2.552-3.094-7.8-3.094a6.006,6.006,0,0,0-6,6,1.5,1.5,0,0,0,3,0A3.006,3.006,0,0,1,6,11.155v.5a16.317,16.317,0,0,1-2.748,9.076,1.5,1.5,0,1,0,2.5,1.664,19.355,19.355,0,0,0,2.207-4.462l2.2,1.191,1.2,2.246a1.519,1.519,0,0,0,1.95.836,1.5,1.5,0,0,0,.836-1.949c-2.372-4.449-1.031-2.741-5.454-5.236A17.85,17.85,0,0,0,9,11.651v-.026c3.116,1.68,3.288,2.528,5.552,2.528a1.5,1.5,0,0,0,0-3Z"/><polyline class="a" points="23.25 17.059 20.25 17.059 20.25 20.059 17.25 20.059 17.25 23.059 15.75 23.059"/></svg>