<svg id="Regular" xmlns="http://www.w3.org/2000/svg" viewBox="0 0 24 24"><defs><style>.cls-1{fill:none;stroke:currentColor;stroke-linecap:round;stroke-linejoin:round;stroke-width:1.5px;}</style></defs><title>standing-lamp-double</title><line class="cls-1" x1="11.253" y1="0.75" x2="11.253" y2="23.25"/><line class="cls-1" x1="4.503" y1="23.25" x2="18.003" y2="23.25"/><path class="cls-1" d="M5.016,14.727l-3.99-3.99A.932.932,0,0,1,1.3,9.228L4.977,7.587a.932.932,0,0,1,1.038.192l1.9,1.9a.931.931,0,0,1,.2,1.02L6.532,14.431A.931.931,0,0,1,5.016,14.727Z"/><path class="cls-1" d="M22.977,6.429l-3.945,3.945a.922.922,0,0,1-1.5-.288L15.979,6.469a.92.92,0,0,1,.2-1.016l1.882-1.882a.924.924,0,0,1,1.017-.2L22.689,4.93A.922.922,0,0,1,22.977,6.429Z"/><path class="cls-1" d="M11.253,2.25h3.129a1.5,1.5,0,0,1,1.06.439L17.1,4.5"/><path class="cls-1" d="M11.253,6.75H9.624a1.5,1.5,0,0,0-1.06.439L7,8.765"/></svg>