<svg xmlns="http://www.w3.org/2000/svg" viewBox="0 0 24 24"><defs><style>.a{fill:none;stroke:currentColor;stroke-linecap:round;stroke-linejoin:round;stroke-width:1.5px;}</style></defs><title>startup-launch</title><path class="a" d="M17.25,5.25h1.5a1.5,1.5,0,0,1,1.5,1.5v7.5a1.5,1.5,0,0,1-1.5,1.5H16.5"/><path class="a" d="M7.5,15.75H5.25a1.5,1.5,0,0,1-1.5-1.5V6.75a1.5,1.5,0,0,1,1.5-1.5h1.5"/><path class="a" d="M18.571,15.75a3,3,0,0,1,2.683,1.658l1.836,3.671a1.5,1.5,0,0,1-1.342,2.171H2.252A1.5,1.5,0,0,1,.91,21.079l1.836-3.671A3,3,0,0,1,5.429,15.75"/><path class="a" d="M14.25,3.956C14.25,2.185,12,.75,12,.75S9.75,2.185,9.75,3.956v7.481h4.5Z"/><path class="a" d="M9.75,11.437H7.012a.6.6,0,0,1-.445-.186.432.432,0,0,1-.1-.416A5.118,5.118,0,0,1,9.75,7.687"/><path class="a" d="M14.25,11.437h2.738a.6.6,0,0,0,.444-.186.43.43,0,0,0,.1-.416A5.129,5.129,0,0,0,14.25,7.687"/><line class="a" x1="10.5" y1="14.25" x2="10.5" y2="16.5"/><line class="a" x1="13.5" y1="14.25" x2="13.5" y2="18.75"/></svg>