<svg id="Regular" xmlns="http://www.w3.org/2000/svg" viewBox="0 0 24 24"><defs><style>.cls-1{fill:none;stroke:#000;stroke-linecap:round;stroke-linejoin:round;stroke-width:1.5px;}</style></defs><title>statistics-feed-burner</title><path class="cls-1" d="M19.9,15.82c.26-5.49-3-6.86-5-7.9.31,3.42-2,3.64-3.64,3.82C14,5.78,10,5.38,10,.8,4.06,4.86,4,12.28,4.31,15.72c-1.9.79-3.07,1.88-3.07,3.07,0,2.43,4.82,4.4,10.76,4.4s10.76-2,10.76-4.4C22.76,17.65,21.67,16.61,19.9,15.82Z"/><path class="cls-1" d="M15.69,13C15,15.66,13,17.43,11,17a4,4,0,0,1-2.87-3.64,4.81,4.81,0,0,0-.66,2.43A4.65,4.65,0,0,0,12,20.55a4.65,4.65,0,0,0,4.57-4.73A4.81,4.81,0,0,0,15.69,13Z"/></svg>