<svg id="Regular" xmlns="http://www.w3.org/2000/svg" viewBox="0 0 24 24"><defs><style>.cls-1{fill:none;stroke:currentColor;stroke-linecap:round;stroke-linejoin:round;stroke-width:1.5px;}</style></defs><title>steampunk-decoration</title><circle class="cls-1" cx="12" cy="12" r="11.25"/><path class="cls-1" d="M12.087,5.816a1.5,1.5,0,1,1-2.92.687c-.19-.806.945-2.534.945-2.534S11.9,5.01,12.087,5.816Z"/><circle class="cls-1" cx="12" cy="12" r="1.5"/><line class="cls-1" x1="11.657" y1="10.54" x2="10.97" y2="7.62"/><path class="cls-1" d="M14.972,17.424a1.5,1.5,0,1,1,2.2-2.037c.562.608.426,2.67.426,2.67S15.535,18.032,14.972,17.424Z"/><line class="cls-1" x1="13.018" y1="13.102" x2="15.055" y2="15.304"/><path class="cls-1" d="M12,18.75A6.75,6.75,0,0,1,6.969,7.5"/><path class="cls-1" d="M15.74,6.381A6.742,6.742,0,0,1,18.75,12"/></svg>