<svg id="Regular" xmlns="http://www.w3.org/2000/svg" viewBox="0 0 24 24"><defs><style>.cls-1{fill:none;stroke:currentColor;stroke-linecap:round;stroke-linejoin:round;stroke-width:1.5px;}</style></defs><title>steampunk-decoration-dia-de-los-muertos</title><path class="cls-1" d="M21.851,10.5a9.75,9.75,0,1,0-16.5,7.026V21a2.25,2.25,0,0,0,4.5,0,2.25,2.25,0,0,0,4.5,0,2.25,2.25,0,0,0,4.5,0V17.526A9.714,9.714,0,0,0,21.851,10.5Z"/><circle class="cls-1" cx="7.601" cy="10.5" r="2.25"/><line class="cls-1" x1="12.101" y1="15.75" x2="12.101" y2="17.25"/><line class="cls-1" x1="2.351" y1="0.75" x2="0.851" y2="2.25"/><line class="cls-1" x1="1.601" y1="1.5" x2="4.502" y2="4.401"/><rect class="cls-1" x="14.351" y="8.25" width="4.5" height="4.5" rx="0.75" ry="0.75" transform="translate(-2.563 14.814) rotate(-45)"/><line class="cls-1" x1="18.851" y1="0.75" x2="17.651" y2="2.484"/><line class="cls-1" x1="23.149" y1="6.189" x2="21.184" y2="6.956"/><line class="cls-1" x1="21.396" y1="3.136" x2="19.743" y2="4.445"/></svg>