<svg id="Regular" xmlns="http://www.w3.org/2000/svg" viewBox="0 0 24 24"><defs><style>.cls-1{fill:none;stroke:currentColor;stroke-linecap:round;stroke-linejoin:round;stroke-width:1.5px;}</style></defs><title>stove-pan</title><path class="cls-1" d="M.75,4.5h22.5V9a1.5,1.5,0,0,1-1.5,1.5h-12A1.5,1.5,0,0,1,8.25,9V4.5"/><path class="cls-1" d="M21.75,19.5l-1.121-2.021a.837.837,0,0,0-.691-.413.865.865,0,0,0-.744.332l-.073.1a.865.865,0,0,1-.744.332.838.838,0,0,1-.692-.413l-1.11-2a1.024,1.024,0,0,0-1.65,0l-1.11,2a.84.84,0,0,1-.692.413.865.865,0,0,1-.744-.332l-.073-.1a.865.865,0,0,0-.744-.332.835.835,0,0,0-.691.413L9.75,19.5"/></svg>