<svg id="Regular" xmlns="http://www.w3.org/2000/svg" viewBox="0 0 24 24"><defs><style>.cls-1{fill:none;stroke:currentColor;stroke-linecap:round;stroke-linejoin:round;stroke-width:1.5px;}</style></defs><title>stove-induction</title><path class="cls-1" d="M.75,13.5h22.5a0,0,0,0,1,0,0v5a1,1,0,0,1-1,1H1.75a1,1,0,0,1-1-1v-5a0,0,0,0,1,0,0Z"/><path class="cls-1" d="M20.534,2.636A1.5,1.5,0,0,0,19.079,1.5H4.921A1.5,1.5,0,0,0,3.466,2.636L.75,13.5h22.5Z"/><ellipse class="cls-1" cx="12" cy="7.5" rx="6" ry="3"/><path class="cls-1" d="M12,7.25c.207,0,.375.112.375.25s-.168.25-.375.25-.375-.112-.375-.25.168-.25.375-.25"/><path class="cls-1" d="M20.665,21.671a1.5,1.5,0,0,1-1.342.829H4.677a1.5,1.5,0,0,1-1.342-.829L2.25,19.5h19.5Z"/><line class="cls-1" x1="3.75" y1="16.5" x2="5.25" y2="16.5"/><line class="cls-1" x1="18.75" y1="16.5" x2="20.25" y2="16.5"/><rect class="cls-1" x="8.25" y="13.5" width="7.5" height="6"/></svg>