<svg id="Regular" xmlns="http://www.w3.org/2000/svg" viewBox="0 0 24 24"><defs><style>.cls-1{fill:none;stroke:currentColor;stroke-linecap:round;stroke-linejoin:round;stroke-width:1.5px;}</style></defs><title>stove-steamer-induction</title><line class="cls-1" x1="6" y1="20.25" x2="6" y2="21"/><line class="cls-1" x1="9" y1="21" x2="9" y2="18.75"/><line class="cls-1" x1="12" y1="20.25" x2="12" y2="21"/><line class="cls-1" x1="18" y1="20.25" x2="18" y2="21"/><line class="cls-1" x1="15" y1="21" x2="15" y2="18.75"/><line class="cls-1" x1="4.5" y1="23.25" x2="19.5" y2="23.25"/><path class="cls-1" d="M16.5,15.75h-9A1.5,1.5,0,0,1,6,14.25V3.75H18v10.5A1.5,1.5,0,0,1,16.5,15.75Z"/><line class="cls-1" x1="4.5" y1="3.75" x2="19.5" y2="3.75"/><line class="cls-1" x1="3" y1="6.75" x2="6" y2="6.75"/><line class="cls-1" x1="3" y1="11.25" x2="6" y2="11.25"/><line class="cls-1" x1="21" y1="6.75" x2="18" y2="6.75"/><line class="cls-1" x1="21" y1="11.25" x2="18" y2="11.25"/><line class="cls-1" x1="6" y1="8.25" x2="18" y2="8.25"/><path class="cls-1" d="M9,3.75a3,3,0,0,1,6,0"/></svg>