<svg id="Regular" xmlns="http://www.w3.org/2000/svg" viewBox="0 0 24 24"><defs><style>.cls-1{fill:none;stroke:currentColor;stroke-linecap:round;stroke-linejoin:round;stroke-width:1.5px;}</style></defs><title>stove-gas-1</title><path class="cls-1" d="M5.535.75a3.891,3.891,0,0,1,.394,4.432A1.385,1.385,0,0,1,4.452,4,3.134,3.134,0,0,0,2.827,6.955,3.545,3.545,0,0,0,6.372,10.5,3.6,3.6,0,0,0,9.918,6.955,5.9,5.9,0,0,0,5.535.75Z"/><path class="cls-1" d="M16.208.75A3.887,3.887,0,0,1,16.6,5.182,1.386,1.386,0,0,1,15.125,4,3.134,3.134,0,0,0,13.5,6.955,3.545,3.545,0,0,0,17.045,10.5a3.6,3.6,0,0,0,3.546-3.545A5.9,5.9,0,0,0,16.208.75Z"/><rect class="cls-1" x="0.75" y="14.25" width="22.5" height="9" rx="1" ry="1"/><circle class="cls-1" cx="6.75" cy="18.75" r="1.5"/><circle class="cls-1" cx="17.25" cy="18.75" r="1.5"/><line class="cls-1" x1="6.75" y1="12.75" x2="6.75" y2="14.25"/><line class="cls-1" x1="17.25" y1="12.75" x2="17.25" y2="14.25"/></svg>