<svg xmlns="http://www.w3.org/2000/svg" viewBox="0 0 24 24"><defs><style>.a{fill:none;stroke:currentColor;stroke-linecap:round;stroke-linejoin:round;stroke-width:1.5px;}</style></defs><title>strategy-split</title><path class="a" d="M9.651,6a.553.553,0,0,1-.476-.834L11.524,1a.553.553,0,0,1,.952,0l2.35,4.165A.554.554,0,0,1,14.349,6Z"/><path class="a" d="M6.412,10.94a.555.555,0,0,0-.589-.761l-4.6.647a.553.553,0,0,0-.365.882l2.792,3.707a.555.555,0,0,0,.955-.122l.9-2.176Z"/><path class="a" d="M5.38,13.432c4.149,1.3,6.62,3.8,6.62,8.519v1.3"/><path class="a" d="M17.588,10.94a.555.555,0,0,1,.589-.761l4.6.647a.553.553,0,0,1,.365.882l-2.792,3.707a.555.555,0,0,1-.955-.122l-.9-2.176Z"/><path class="a" d="M18.62,13.432c-4.149,1.3-6.62,3.8-6.62,8.519v1.3"/><line class="a" x1="12" y1="6" x2="12" y2="21.951"/></svg>