<svg xmlns="http://www.w3.org/2000/svg" viewBox="0 0 24 24"><defs><style>.a{fill:none;stroke:currentColor;stroke-linecap:round;stroke-linejoin:round;stroke-width:1.5px;}</style></defs><title>street-light</title><line class="a" x1="0.75" y1="23.25" x2="23.25" y2="23.25"/><path class="a" d="M7.5,3.75H3A.75.75,0,0,1,2.25,3V1.5A.75.75,0,0,1,3,.75H8.25V3A.75.75,0,0,1,7.5,3.75Z"/><line class="a" x1="12" y1="17.25" x2="12" y2="4.5"/><path class="a" d="M12,4.5A3.75,3.75,0,0,0,8.25.75"/><path class="a" d="M16.5,3.75H21A.75.75,0,0,0,21.75,3V1.5A.75.75,0,0,0,21,.75H15.75V3A.75.75,0,0,0,16.5,3.75Z"/><path class="a" d="M12,4.5A3.75,3.75,0,0,1,15.75.75"/><line class="a" x1="6.75" y1="6.75" x2="6.75" y2="8.25"/><line class="a" x1="2.25" y1="6.75" x2="0.75" y2="8.25"/><line class="a" x1="17.25" y1="6.75" x2="17.25" y2="8.25"/><line class="a" x1="21.75" y1="6.75" x2="23.25" y2="8.25"/><polygon class="a" points="15.75 23.25 8.25 23.25 9.75 17.25 14.25 17.25 15.75 23.25"/></svg>