<svg xmlns="http://www.w3.org/2000/svg" viewBox="0 0 24 24"><defs><style>.a{fill:none;stroke:currentColor;stroke-linecap:round;stroke-linejoin:round;stroke-width:1.5px;}</style></defs><title>study-notebook-maths</title><path class="a" d="M22.822,13.387l-6.51,8.606L12.7,23.251l.228-3.817,6.51-8.606a2.115,2.115,0,0,1,2.963-.411l.01.007A2.116,2.116,0,0,1,22.822,13.387Z"/><path class="a" d="M9,23.251H2.25a1.556,1.556,0,0,1-1.5-1.607V5.359a1.557,1.557,0,0,1,1.5-1.608h19.5a1.557,1.557,0,0,1,1.5,1.608V6.751"/><line class="a" x1="5.25" y1="0.751" x2="5.25" y2="5.251"/><line class="a" x1="9.75" y1="0.751" x2="9.75" y2="5.251"/><line class="a" x1="14.25" y1="0.751" x2="14.25" y2="5.251"/><line class="a" x1="18.75" y1="0.751" x2="18.75" y2="5.251"/><path class="a" d="M3.75,9.376A1.125,1.125,0,0,1,4.875,8.251h0A1.125,1.125,0,0,1,6,9.376H6a1.6,1.6,0,0,1-.351,1l-1.9,2.373H6"/><path class="a" d="M12.75,8.251h.75a.75.75,0,0,1,.75.75v3.75"/><line class="a" x1="12.75" y1="12.751" x2="15" y2="12.751"/><line class="a" x1="9.75" y1="9.001" x2="9.75" y2="12.001"/><line class="a" x1="8.25" y1="10.501" x2="11.25" y2="10.501"/></svg>