<svg xmlns="http://www.w3.org/2000/svg" viewBox="0 0 24 24"><defs><style>.a{fill:none;stroke:currentColor;stroke-linecap:round;stroke-linejoin:round;stroke-width:1.5px;}</style></defs><title>study-desk</title><path class="a" d="M22.125,15.789H1.875a.749.749,0,0,1-.727-.568l-.375-1.5a.749.749,0,0,1,.727-.932h21a.749.749,0,0,1,.727.932l-.375,1.5A.749.749,0,0,1,22.125,15.789Z"/><line class="a" x1="3" y1="15.789" x2="1.5" y2="23.289"/><line class="a" x1="21" y1="15.789" x2="22.5" y2="23.289"/><path class="a" d="M14.25,12.789a3,3,0,0,1,6,0"/><path class="a" d="M15,2.289a2.25,2.25,0,0,1,2.25,2.25v5.25"/><path class="a" d="M10.824,1.539A3,3,0,0,1,14.25,6.465Z"/><path class="a" d="M10.473,12.789H3.75a1.5,1.5,0,0,1,0-3h6.723"/><line class="a" x1="8.973" y1="9.789" x2="8.973" y2="12.789"/><path class="a" d="M10.473,9.789H3.75a1.5,1.5,0,0,1,0-3h6.723"/><line class="a" x1="8.973" y1="6.789" x2="8.973" y2="9.789"/></svg>