<svg xmlns="http://www.w3.org/2000/svg" viewBox="0 0 24 24"><defs><style>.a{fill:none;stroke:currentColor;stroke-linecap:round;stroke-linejoin:round;stroke-width:1.5px;}</style></defs><title>study-book</title><path class="a" d="M8.173,18.219a21.108,21.108,0,0,0-6.014-1.06A1.491,1.491,0,0,1,.75,15.664V2.3A1.5,1.5,0,0,1,2.354.8C8.678,1.131,12,3.388,12,5.114,12,3.4,15.715,1.157,21.641.806a1.5,1.5,0,0,1,1.609,1.5v12.6"/><line class="a" x1="12" y1="5.114" x2="12" y2="9.001"/><path class="a" d="M9.342,6.548a24.432,24.432,0,0,0-5.574-1.3"/><path class="a" d="M19.414,9.221q.519-.084,1.063-.155"/><path class="a" d="M9.342,10.363a25.012,25.012,0,0,0-5.574-1.3"/><path class="a" d="M9.342,14.406a25.247,25.247,0,0,0-5.625-1.3"/><path class="a" d="M14.9,6.555a25.221,25.221,0,0,1,5.628-1.3"/><path class="a" d="M23.136,23.251l.1-1.122a3,3,0,0,0-2.337-3.2l-3.651-.811V12.376a1.875,1.875,0,1,0-3.75,0v9.205l-1.477-1.108a1.533,1.533,0,0,0-2.146,2.146l.474.632"/></svg>