<svg xmlns="http://www.w3.org/2000/svg" viewBox="0 0 24 24"><defs><style>.a{fill:none;stroke:currentColor;stroke-linecap:round;stroke-linejoin:round;stroke-width:1.5px;}</style></defs><title>study-maths-brain</title><path class="a" d="M5.475,3.93c-1.853,2.333-2.94,5.71-4.325,9.3a.751.751,0,0,0,.7,1.02h1.9v3a3,3,0,0,0,3,3h1.5v3"/><path class="a" d="M18.75,23.251V16.986a9.379,9.379,0,0,0,2.787-4.868"/><line class="a" x1="21" y1="1.501" x2="21" y2="6.001"/><line class="a" x1="18.75" y1="3.751" x2="23.25" y2="3.751"/><line class="a" x1="12.75" y1="9.751" x2="18" y2="9.751"/><path class="a" d="M15.375,6.751a.375.375,0,0,1,.375.375"/><path class="a" d="M15,7.126a.375.375,0,0,1,.375-.375"/><path class="a" d="M15.375,7.5A.374.374,0,0,1,15,7.126"/><path class="a" d="M15.75,7.126a.374.374,0,0,1-.375.375"/><path class="a" d="M15.375,12a.375.375,0,0,1,.375.375"/><path class="a" d="M15,12.376A.375.375,0,0,1,15.375,12"/><path class="a" d="M15.375,12.751A.374.374,0,0,1,15,12.376"/><path class="a" d="M15.75,12.376a.374.374,0,0,1-.375.375"/><polyline class="a" points="9 3.001 9.75 3.751 10.5 0.751 15 0.751"/></svg>