<svg xmlns="http://www.w3.org/2000/svg" viewBox="0 0 24 24"><defs><style>.a{fill:none;stroke:currentColor;stroke-linecap:round;stroke-linejoin:round;stroke-width:1.5px;}</style></defs><title>study-exam-math</title><line class="a" x1="7.5" y1="3.751" x2="7.5" y2="9.751"/><line class="a" x1="4.5" y1="6.751" x2="10.5" y2="6.751"/><line class="a" x1="18.75" y1="10.501" x2="14.25" y2="15.001"/><line class="a" x1="14.25" y1="10.501" x2="18.75" y2="15.001"/><line class="a" x1="5.25" y1="17.251" x2="10.5" y2="17.251"/><path class="a" d="M7.875,14.251a.375.375,0,0,1,.375.375"/><path class="a" d="M7.5,14.626a.375.375,0,0,1,.375-.375"/><path class="a" d="M7.875,15a.374.374,0,0,1-.375-.375"/><path class="a" d="M8.25,14.626A.374.374,0,0,1,7.875,15"/><path class="a" d="M7.875,19.5a.375.375,0,0,1,.375.375"/><path class="a" d="M7.5,19.876a.375.375,0,0,1,.375-.375"/><path class="a" d="M7.875,20.251a.374.374,0,0,1-.375-.375"/><path class="a" d="M8.25,19.876a.374.374,0,0,1-.375.375"/><path class="a" d="M22.5,21.751a1.5,1.5,0,0,1-1.5,1.5H3a1.5,1.5,0,0,1-1.5-1.5V2.251A1.5,1.5,0,0,1,3,.751H18.036a1.5,1.5,0,0,1,1.049.427L22.047,4.06A1.5,1.5,0,0,1,22.5,5.134Z"/></svg>