<svg xmlns="http://www.w3.org/2000/svg" viewBox="0 0 24 24"><defs><style>.a{fill:none;stroke:currentColor;stroke-linecap:round;stroke-linejoin:round;stroke-width:1.5px;}</style></defs><title>style-three-pin-islam</title><path class="a" d="M12,.8a9,9,0,0,1,9,9c0,7.9-6.932,12.331-8.629,13.3a.751.751,0,0,1-.743,0C9.931,22.132,3,17.7,3,9.8A9,9,0,0,1,12,.8Z"/><path class="a" d="M12.325,12.751A4.491,4.491,0,0,1,13.052,5.8a4.491,4.491,0,1,0,1.2,8.069A4.446,4.446,0,0,1,12.325,12.751Z"/><line class="a" x1="14.25" y1="9.802" x2="17.25" y2="9.802"/><line class="a" x1="15.75" y1="8.302" x2="15.75" y2="11.302"/></svg>