<svg xmlns="http://www.w3.org/2000/svg" viewBox="0 0 24 24"><defs><style>.a{fill:none;stroke:currentColor;stroke-linecap:round;stroke-linejoin:round;stroke-width:1.5px;}</style></defs><title>style-three-pin-drink-food</title><path class="a" d="M12,.8a9,9,0,0,1,9,9c0,7.9-6.932,12.331-8.629,13.3a.751.751,0,0,1-.743,0C9.931,22.132,3,17.7,3,9.8A9,9,0,0,1,12,.8Z"/><circle class="a" cx="12" cy="9.802" r="2.7"/><line class="a" x1="12" y1="7.102" x2="12" y2="5.302"/><line class="a" x1="12" y1="14.302" x2="12" y2="12.502"/><line class="a" x1="14.7" y1="9.802" x2="16.5" y2="9.802"/><line class="a" x1="7.5" y1="9.802" x2="9.3" y2="9.802"/><line class="a" x1="9.236" y1="12.984" x2="10.311" y2="11.909"/><line class="a" x1="9.236" y1="6.62" x2="10.311" y2="7.695"/><line class="a" x1="14.764" y1="12.984" x2="13.689" y2="11.909"/><line class="a" x1="14.764" y1="6.62" x2="13.689" y2="7.695"/></svg>