<svg xmlns="http://www.w3.org/2000/svg" viewBox="0 0 24 24"><defs><style>.a{fill:none;stroke:currentColor;stroke-linecap:round;stroke-linejoin:round;stroke-width:1.5px;}</style></defs><title>style-three-pin-note</title><path class="a" d="M12,.8a9,9,0,0,1,9,9c0,7.9-6.932,12.331-8.629,13.3a.751.751,0,0,1-.743,0C9.931,22.132,3,17.7,3,9.8A9,9,0,0,1,12,.8Z"/><circle class="a" cx="8.25" cy="13.131" r="1.5"/><circle class="a" cx="14.25" cy="11.631" r="1.5"/><path class="a" d="M15.75,11.631V6.8a1.5,1.5,0,0,0-1.864-1.455l-3,.75A1.5,1.5,0,0,0,9.75,7.552v5.579"/></svg>