<svg xmlns="http://www.w3.org/2000/svg" viewBox="0 0 24 24"><defs><style>.a{fill:none;stroke:currentColor;stroke-linecap:round;stroke-linejoin:round;stroke-width:1.5px;}</style></defs><title>style-three-pin-chemistry-epruvette</title><path class="a" d="M12,.8a9,9,0,0,1,9,9c0,7.9-6.932,12.331-8.629,13.3a.751.751,0,0,1-.743,0C9.931,22.132,3,17.7,3,9.8A9,9,0,0,1,12,.8Z"/><path class="a" d="M14.25,14.3a2.25,2.25,0,0,1-4.5,0V7.552h4.5Z"/><line class="a" x1="9.75" y1="10.552" x2="14.25" y2="10.552"/><path class="a" d="M13.039,3.812a.376.376,0,0,1,.451.279"/><path class="a" d="M12.76,4.263a.374.374,0,0,1,.279-.451"/><path class="a" d="M13.211,4.542a.374.374,0,0,1-.451-.279"/><path class="a" d="M13.49,4.091a.375.375,0,0,1-.279.451"/></svg>