<svg xmlns="http://www.w3.org/2000/svg" viewBox="0 0 24 24"><defs><style>.a{fill:none;stroke:currentColor;stroke-linecap:round;stroke-linejoin:round;stroke-width:1.5px;}</style></defs><title>style-three-pin-fire</title><path class="a" d="M12,.8a9,9,0,0,1,9,9c0,7.9-6.932,12.331-8.629,13.3a.751.751,0,0,1-.743,0C9.931,22.132,3,17.7,3,9.8A9,9,0,0,1,12,.8Z"/><path class="a" d="M11.25,5.3c1.7,1.251.949,3.863.281,4.874a2.16,2.16,0,0,1-.937-1.406A3.425,3.425,0,0,0,8.25,12.052a3.75,3.75,0,0,0,7.5,0C15.75,9.026,14.228,5.986,11.25,5.3Z"/></svg>