<svg xmlns="http://www.w3.org/2000/svg" viewBox="0 0 24 24"><defs><style>.a{fill:none;stroke:currentColor;stroke-linecap:round;stroke-linejoin:round;stroke-width:1.5px;}</style></defs><title>style-one-pin-car</title><path class="a" d="M21.25,9.75a9,9,0,1,0-10.8,8.819l1.8,4.681,1.8-4.681A9,9,0,0,0,21.25,9.75Z"/><line class="a" x1="9.25" y1="11.25" x2="9.25" y2="12.75"/><line class="a" x1="15.25" y1="11.25" x2="15.25" y2="12.75"/><path class="a" d="M16.75,9.75a1.5,1.5,0,0,1-1.5,1.5h-6a1.5,1.5,0,0,1,0-3h6A1.5,1.5,0,0,1,16.75,9.75Z"/><path class="a" d="M10.25,5.25h4a1,1,0,0,1,1,1v2a0,0,0,0,1,0,0h-6a0,0,0,0,1,0,0v-2A1,1,0,0,1,10.25,5.25Z"/></svg>