<svg xmlns="http://www.w3.org/2000/svg" viewBox="0 0 24 24"><defs><style>.a{fill:none;stroke:currentColor;stroke-linecap:round;stroke-linejoin:round;stroke-width:1.5px;}</style></defs><title>style-one-pin-information</title><line class="a" x1="12" y1="13.5" x2="12" y2="10.5"/><path class="a" d="M12,8.311a.375.375,0,0,0,.375-.375"/><path class="a" d="M11.625,7.936A.375.375,0,0,0,12,8.311"/><path class="a" d="M12,7.561a.375.375,0,0,0-.375.375"/><path class="a" d="M12.375,7.936A.375.375,0,0,0,12,7.561"/><path class="a" d="M21,9.75a9,9,0,1,0-10.8,8.82L12,23.25l1.8-4.68A9,9,0,0,0,21,9.75Z"/></svg>