<svg xmlns="http://www.w3.org/2000/svg" viewBox="0 0 24 24"><defs><style>.a{fill:none;stroke:currentColor;stroke-linecap:round;stroke-linejoin:round;stroke-width:1.5px;}</style></defs><title>style-three-pin-camera</title><path class="a" d="M12,.8a9,9,0,0,1,9,9c0,7.9-6.932,12.331-8.629,13.3a.751.751,0,0,1-.743,0C9.931,22.132,3,17.7,3,9.8A9,9,0,0,1,12,.8Z"/><path class="a" d="M18,7.552l-3,.6V6.8a.75.75,0,0,0-.75-.75h-6a.75.75,0,0,0-.75.75v6a.75.75,0,0,0,.75.75h6A.75.75,0,0,0,15,12.8v-1.35l3,.6Z"/></svg>