<svg xmlns="http://www.w3.org/2000/svg" viewBox="0 0 24 24"><defs><style>.a{fill:none;stroke:currentColor;stroke-linecap:round;stroke-linejoin:round;stroke-width:1.5px;}</style></defs><title>style-three-pin-braille</title><path class="a" d="M12,.8a9,9,0,0,1,9,9c0,7.9-6.932,12.331-8.629,13.3a.751.751,0,0,1-.743,0C9.931,22.132,3,17.7,3,9.8A9,9,0,0,1,12,.8Z"/><path class="a" d="M9.375,9.7a.375.375,0,0,1,.375.375"/><path class="a" d="M9,10.073A.375.375,0,0,1,9.375,9.7"/><path class="a" d="M9.375,10.448A.375.375,0,0,1,9,10.073"/><path class="a" d="M9.75,10.073a.375.375,0,0,1-.375.375"/><path class="a" d="M13.875,5.2a.375.375,0,0,1,.375.375"/><path class="a" d="M13.5,5.573a.375.375,0,0,1,.375-.375"/><path class="a" d="M13.875,5.948a.375.375,0,0,1-.375-.375"/><path class="a" d="M14.25,5.573a.375.375,0,0,1-.375.375"/><path class="a" d="M13.875,9.7a.375.375,0,0,1,.375.375"/><path class="a" d="M13.5,10.073a.375.375,0,0,1,.375-.375"/><path class="a" d="M13.875,10.448a.375.375,0,0,1-.375-.375"/><path class="a" d="M14.25,10.073a.375.375,0,0,1-.375.375"/><path class="a" d="M9.375,14.2a.375.375,0,0,1,.375.375"/><path class="a" d="M9,14.573a.375.375,0,0,1,.375-.375"/><path class="a" d="M9.375,14.948A.375.375,0,0,1,9,14.573"/><path class="a" d="M9.75,14.573a.375.375,0,0,1-.375.375"/></svg>