<svg xmlns="http://www.w3.org/2000/svg" viewBox="0 0 24 24"><defs><style>.a{fill:none;stroke:currentColor;stroke-linecap:round;stroke-linejoin:round;stroke-width:1.5px;}</style></defs><title>style-three-pin-arrow-all-direction</title><path class="a" d="M12,.8a9,9,0,0,1,9,9c0,7.9-6.932,12.331-8.629,13.3a.751.751,0,0,1-.743,0C9.931,22.132,3,17.7,3,9.8A9,9,0,0,1,12,.8Z"/><line class="a" x1="7.492" y1="5.565" x2="10.674" y2="8.747"/><polyline class="a" points="7.492 8.747 7.492 5.565 10.674 5.565"/><line class="a" x1="16.508" y1="14.581" x2="13.326" y2="11.399"/><polyline class="a" points="16.508 11.399 16.508 14.581 13.326 14.581"/><line class="a" x1="16.508" y1="5.565" x2="13.326" y2="8.747"/><polyline class="a" points="13.326 5.565 16.508 5.565 16.508 8.747"/><line class="a" x1="7.492" y1="14.581" x2="10.674" y2="11.399"/><polyline class="a" points="10.674 14.581 7.492 14.581 7.492 11.399"/></svg>