<svg xmlns="http://www.w3.org/2000/svg" viewBox="0 0 24 24"><defs><style>.a{fill:none;stroke:currentColor;stroke-linecap:round;stroke-linejoin:round;stroke-width:1.5px;}</style></defs><title>style-two-pin-skull</title><path class="a" d="M16.875,10.129A4.875,4.875,0,1,0,9,13.945v.309a1.5,1.5,0,0,0,1.5,1.5h3a1.5,1.5,0,0,0,1.5-1.5v-.309A4.845,4.845,0,0,0,16.875,10.129Z"/><path class="a" d="M10.125,10.129a.375.375,0,0,1,.375.375"/><path class="a" d="M9.75,10.5a.375.375,0,0,1,.375-.375"/><path class="a" d="M10.125,10.879A.375.375,0,0,1,9.75,10.5"/><path class="a" d="M10.5,10.5a.375.375,0,0,1-.375.375"/><path class="a" d="M13.875,10.129a.375.375,0,0,1,.375.375"/><path class="a" d="M13.5,10.5a.375.375,0,0,1,.375-.375"/><path class="a" d="M13.875,10.879A.375.375,0,0,1,13.5,10.5"/><path class="a" d="M14.25,10.5a.375.375,0,0,1-.375.375"/><line class="a" x1="12" y1="14.254" x2="12" y2="15.754"/><path class="a" d="M21,9.754c0,7.9-6.932,12.331-8.629,13.3a.749.749,0,0,1-.743,0C9.931,22.084,3,17.652,3,9.754a9,9,0,0,1,18,0Z"/></svg>