<svg xmlns="http://www.w3.org/2000/svg" viewBox="0 0 24 24"><defs><style>.a{fill:none;stroke:currentColor;stroke-linecap:round;stroke-linejoin:round;stroke-width:1.5px;}</style></defs><title>style-three-pin-skate</title><path class="a" d="M12,.8a9,9,0,0,1,9,9c0,7.9-6.932,12.331-8.629,13.3a.751.751,0,0,1-.743,0C9.931,22.132,3,17.7,3,9.8A9,9,0,0,1,12,.8Z"/><path class="a" d="M15.482,10.949a.376.376,0,0,1,.451.28"/><path class="a" d="M15.2,11.4a.375.375,0,0,1,.279-.451"/><path class="a" d="M15.654,11.679A.374.374,0,0,1,15.2,11.4"/><path class="a" d="M15.933,11.229a.375.375,0,0,1-.279.45"/><path class="a" d="M9.641,12.322a.375.375,0,0,1,.451.28"/><path class="a" d="M9.362,12.773a.376.376,0,0,1,.279-.451"/><path class="a" d="M9.813,13.052a.374.374,0,0,1-.451-.279"/><path class="a" d="M10.092,12.6a.375.375,0,0,1-.279.45"/><path class="a" d="M6.228,9.273,7,10.205a.751.751,0,0,0,.748.25l8.589-2.019a.749.749,0,0,0,.558-.557l.28-1.181"/></svg>