<svg xmlns="http://www.w3.org/2000/svg" viewBox="0 0 24 24"><defs><style>.a{fill:none;stroke:currentColor;stroke-linecap:round;stroke-linejoin:round;stroke-width:1.5px;}</style></defs><title>style-three-pin-microphone</title><path class="a" d="M12,.8a9,9,0,0,1,9,9c0,7.9-6.932,12.331-8.629,13.3a.751.751,0,0,1-.743,0C9.931,22.132,3,17.7,3,9.8A9,9,0,0,1,12,.8Z"/><path class="a" d="M17.25,8.3a5.25,5.25,0,0,1-10.5,0"/><line class="a" x1="12" y1="13.552" x2="12" y2="16.552"/><path class="a" d="M14.25,8.3a2.25,2.25,0,0,1-4.5,0V6.8a2.25,2.25,0,0,1,4.5,0Z"/></svg>