<svg xmlns="http://www.w3.org/2000/svg" viewBox="0 0 24 24"><defs><style>.a{fill:none;stroke:currentColor;stroke-linecap:round;stroke-linejoin:round;stroke-width:1.5px;}</style></defs><title>style-three-pin-paw</title><path class="a" d="M12,.8a9,9,0,0,1,9,9c0,7.9-6.932,12.331-8.629,13.3a.751.751,0,0,1-.743,0C9.931,22.132,3,17.7,3,9.8A9,9,0,0,1,12,.8Z"/><path class="a" d="M7.125,8.3a.375.375,0,0,1,.375.375"/><path class="a" d="M6.75,8.677A.375.375,0,0,1,7.125,8.3"/><path class="a" d="M7.125,9.052a.375.375,0,0,1-.375-.375"/><path class="a" d="M7.5,8.677a.375.375,0,0,1-.375.375"/><path class="a" d="M16.875,8.3a.375.375,0,0,0-.375.375"/><path class="a" d="M17.25,8.677a.375.375,0,0,0-.375-.375"/><path class="a" d="M16.875,9.052a.375.375,0,0,0,.375-.375"/><path class="a" d="M16.5,8.677a.375.375,0,0,0,.375.375"/><path class="a" d="M10.125,6.052a.375.375,0,0,1,.375.375"/><path class="a" d="M9.75,6.427a.375.375,0,0,1,.375-.375"/><path class="a" d="M10.125,6.8a.375.375,0,0,1-.375-.375"/><path class="a" d="M10.5,6.427a.375.375,0,0,1-.375.375"/><path class="a" d="M13.875,6.052a.375.375,0,0,1,.375.375"/><path class="a" d="M13.5,6.427a.375.375,0,0,1,.375-.375"/><path class="a" d="M13.875,6.8a.375.375,0,0,1-.375-.375"/><path class="a" d="M14.25,6.427a.375.375,0,0,1-.375.375"/><circle class="a" cx="12" cy="11.677" r="2.625"/></svg>