<svg xmlns="http://www.w3.org/2000/svg" viewBox="0 0 24 24"><defs><style>.a{fill:none;stroke:currentColor;stroke-linecap:round;stroke-linejoin:round;stroke-width:1.5px;}</style></defs><title>style-three-pin-volcano</title><path class="a" d="M12,.8a9,9,0,0,1,9,9c0,7.9-6.932,12.331-8.629,13.3a.751.751,0,0,1-.743,0C9.931,22.132,3,17.7,3,9.8A9,9,0,0,1,12,.8Z"/><path class="a" d="M16.5,14.2h-9s3-2.25,3-4.5h3C13.5,11.948,16.5,14.2,16.5,14.2Z"/><line class="a" x1="10.5" y1="7.448" x2="9" y2="5.198"/><line class="a" x1="13.5" y1="7.448" x2="15" y2="5.198"/><line class="a" x1="12" y1="3.698" x2="12" y2="5.198"/></svg>