<svg xmlns="http://www.w3.org/2000/svg" viewBox="0 0 24 24"><defs><style>.a{fill:none;stroke:currentColor;stroke-linecap:round;stroke-linejoin:round;stroke-width:1.5px;}</style></defs><title>style-three-pin-ice-skating</title><path class="a" d="M12,.8a9,9,0,0,1,9,9c0,7.9-6.932,12.331-8.629,13.3a.751.751,0,0,1-.743,0C9.931,22.132,3,17.7,3,9.8A9,9,0,0,1,12,.8Z"/><path class="a" d="M8.25,6.584a.75.75,0,0,1,.513-.711l3-1a.749.749,0,0,1,.987.711v2.71a3.75,3.75,0,0,1,3.75,3.75H9a.75.75,0,0,1-.75-.75Z"/><line class="a" x1="7.5" y1="15.044" x2="15.75" y2="15.044"/><line class="a" x1="9" y1="12.044" x2="9" y2="15.044"/><line class="a" x1="14.25" y1="12.044" x2="14.25" y2="15.044"/></svg>