<svg xmlns="http://www.w3.org/2000/svg" viewBox="0 0 24 24"><defs><style>.a{fill:none;stroke:currentColor;stroke-linecap:round;stroke-linejoin:round;stroke-width:1.5px;}</style></defs><title>style-two-pin-wifi</title><path class="a" d="M12,15a.374.374,0,0,1,.375.375"/><path class="a" d="M11.628,15.379A.375.375,0,0,1,12,15"/><path class="a" d="M12,15.754a.375.375,0,0,1-.375-.375"/><path class="a" d="M12.378,15.379a.374.374,0,0,1-.375.375"/><path class="a" d="M8.719,12.234a6,6,0,0,1,6.569,0"/><path class="a" d="M17.111,9.864a8.981,8.981,0,0,0-10.215,0"/><path class="a" d="M21,9.754c0,7.9-6.932,12.331-8.629,13.3a.749.749,0,0,1-.743,0C9.931,22.084,3,17.652,3,9.754a9,9,0,0,1,18,0Z"/></svg>