<svg xmlns="http://www.w3.org/2000/svg" viewBox="0 0 24 24"><defs><style>.a{fill:none;stroke:currentColor;stroke-linecap:round;stroke-linejoin:round;stroke-width:1.5px;}</style></defs><title>style-two-pin-star</title><path class="a" d="M11.564,6.272a.489.489,0,0,1,.872,0l1.012,2.042a.488.488,0,0,0,.366.263l2.271.328a.483.483,0,0,1,.391.325.474.474,0,0,1-.121.489l-1.65,1.6a.476.476,0,0,0-.138.421L14.956,14a.473.473,0,0,1-.194.467.488.488,0,0,1-.511.035l-2.024-1.058a.486.486,0,0,0-.454,0L9.749,14.5a.488.488,0,0,1-.511-.035A.473.473,0,0,1,9.044,14l.389-2.255a.476.476,0,0,0-.138-.421l-1.65-1.6a.474.474,0,0,1-.121-.489A.483.483,0,0,1,7.915,8.9l2.271-.328a.488.488,0,0,0,.366-.263Z"/><path class="a" d="M21,9.754c0,7.9-6.932,12.331-8.629,13.3a.749.749,0,0,1-.743,0C9.931,22.084,3,17.652,3,9.754a9,9,0,0,1,18,0Z"/></svg>