<svg xmlns="http://www.w3.org/2000/svg" viewBox="0 0 24 24"><defs><style>.a{fill:none;stroke:currentColor;stroke-linecap:round;stroke-linejoin:round;stroke-width:1.5px;}</style></defs><title>style-one-pin-question</title><path class="a" d="M10.125,8.25A1.875,1.875,0,1,1,12,10.125"/><path class="a" d="M12,13.125a.375.375,0,0,1,.375.375"/><path class="a" d="M11.625,13.5A.375.375,0,0,1,12,13.125"/><path class="a" d="M12,13.875a.375.375,0,0,1-.375-.375"/><path class="a" d="M12.375,13.5a.375.375,0,0,1-.375.375"/><path class="a" d="M21,9.75a9,9,0,1,0-10.8,8.82L12,23.25l1.8-4.68A9,9,0,0,0,21,9.75Z"/></svg>