<svg xmlns="http://www.w3.org/2000/svg" viewBox="0 0 24 24"><defs><style>.a{fill:none;stroke:currentColor;stroke-linecap:round;stroke-linejoin:round;stroke-width:1.5px;}</style></defs><title>style-two-pin-information</title><line class="a" x1="12" y1="12.754" x2="12" y2="9.754"/><path class="a" d="M12,7.565a.375.375,0,0,0,.375-.375"/><path class="a" d="M11.625,7.19A.375.375,0,0,0,12,7.565"/><path class="a" d="M12,6.815a.374.374,0,0,0-.375.375"/><path class="a" d="M12.375,7.19A.374.374,0,0,0,12,6.815"/><path class="a" d="M21,9.754c0,7.9-6.932,12.331-8.629,13.3a.749.749,0,0,1-.743,0C9.931,22.084,3,17.652,3,9.754a9,9,0,0,1,18,0Z"/></svg>