<svg xmlns="http://www.w3.org/2000/svg" viewBox="0 0 24 24"><defs><style>.a{fill:none;stroke:currentColor;stroke-linecap:round;stroke-linejoin:round;stroke-width:1.5px;}</style></defs><title>style-one-pin-cart</title><polyline class="a" points="17 5.25 14.75 12.75 8.75 12.75 7.25 8.25 16.1 8.25"/><path class="a" d="M9.125,15a.375.375,0,0,1,.375.375"/><path class="a" d="M8.75,15.375A.375.375,0,0,1,9.125,15"/><path class="a" d="M9.125,15.75a.375.375,0,0,1-.375-.375"/><path class="a" d="M9.5,15.375a.375.375,0,0,1-.375.375"/><path class="a" d="M14.375,15a.375.375,0,0,1,.375.375"/><path class="a" d="M14,15.375A.375.375,0,0,1,14.375,15"/><path class="a" d="M14.375,15.75A.375.375,0,0,1,14,15.375"/><path class="a" d="M14.75,15.375a.375.375,0,0,1-.375.375"/><path class="a" d="M20.75,9.75a9,9,0,1,0-10.8,8.82l1.8,4.68,1.8-4.68A9,9,0,0,0,20.75,9.75Z"/></svg>