<svg xmlns="http://www.w3.org/2000/svg" viewBox="0 0 24 24"><defs><style>.a{fill:none;stroke:currentColor;stroke-linecap:round;stroke-linejoin:round;stroke-width:1.5px;}</style></defs><title>style-two-pin-warning</title><path class="a" d="M12.359,12.493a.375.375,0,0,1-.469.248"/><path class="a" d="M12.11,12.024a.377.377,0,0,1,.249.469"/><path class="a" d="M11.641,12.273a.377.377,0,0,1,.469-.249"/><path class="a" d="M11.89,12.741a.375.375,0,0,1-.249-.468"/><line class="a" x1="12" y1="9.758" x2="12" y2="6.758"/><path class="a" d="M21,9.758c0,7.9-6.932,12.331-8.629,13.3a.749.749,0,0,1-.743,0C9.931,22.088,3,17.656,3,9.758a9,9,0,0,1,18,0Z"/></svg>