<svg xmlns="http://www.w3.org/2000/svg" viewBox="0 0 24 24"><defs><style>.a{fill:none;stroke:currentColor;stroke-linecap:round;stroke-linejoin:round;stroke-width:1.5px;}</style></defs><title>style-one-pin-drink</title><path class="a" d="M15.25,9.75a3,3,0,0,1-6,0V8.25h6Z"/><line class="a" x1="12.25" y1="12.75" x2="12.25" y2="15.75"/><line class="a" x1="10.75" y1="15.75" x2="13.75" y2="15.75"/><path class="a" d="M11.125,5.25a.375.375,0,0,1,.375.375"/><path class="a" d="M10.75,5.625a.375.375,0,0,1,.375-.375"/><path class="a" d="M11.125,6a.375.375,0,0,1-.375-.375"/><path class="a" d="M11.5,5.625A.375.375,0,0,1,11.125,6"/><path class="a" d="M14.125,3.75a.375.375,0,0,1,.375.375"/><path class="a" d="M13.75,4.125a.375.375,0,0,1,.375-.375"/><path class="a" d="M14.125,4.5a.375.375,0,0,1-.375-.375"/><path class="a" d="M14.5,4.125a.375.375,0,0,1-.375.375"/><path class="a" d="M21.25,9.75a9,9,0,1,0-10.8,8.82l1.8,4.68,1.8-4.68A9,9,0,0,0,21.25,9.75Z"/></svg>