<svg xmlns="http://www.w3.org/2000/svg" viewBox="0 0 24 24"><defs><style>.a{fill:none;stroke:currentColor;stroke-linecap:round;stroke-linejoin:round;stroke-width:1.5px;}</style></defs><title>style-three-pin-cart</title><path class="a" d="M15.835,8.3H8.165a1.5,1.5,0,0,0-1.4,2.027l1.308,3.486a.748.748,0,0,0,.7.487h6.46a.748.748,0,0,0,.7-.487l1.308-3.486A1.5,1.5,0,0,0,15.835,8.3Z"/><line class="a" x1="8.25" y1="8.302" x2="9.75" y2="4.552"/><line class="a" x1="15.75" y1="8.302" x2="14.25" y2="4.552"/><path class="a" d="M21,9.8c0,7.9-6.932,12.331-8.629,13.3a.751.751,0,0,1-.743,0C9.931,22.132,3,17.7,3,9.8a9,9,0,0,1,18,0Z"/></svg>