<svg xmlns="http://www.w3.org/2000/svg" viewBox="0 0 24 24"><defs><style>.a{fill:none;stroke:currentColor;stroke-linecap:round;stroke-linejoin:round;stroke-width:1.5px;}</style></defs><title>style-three-pin-hair-dryer</title><path class="a" d="M12,.8a9,9,0,0,1,9,9c0,7.9-6.932,12.331-8.629,13.3a.749.749,0,0,1-.743,0C9.931,22.134,3,17.7,3,9.8A9,9,0,0,1,12,.8Z"/><path class="a" d="M16.5,9.325a2.4,2.4,0,0,1-2.614,2.387L8.25,11.2V7.45l5.636-.512A2.4,2.4,0,0,1,16.5,9.325Z"/><path class="a" d="M15.617,11.184s.346,4.134-3.678,4.48"/></svg>