<svg xmlns="http://www.w3.org/2000/svg" viewBox="0 0 24 24"><defs><style>.a{fill:none;stroke:currentColor;stroke-linecap:round;stroke-linejoin:round;stroke-width:1.5px;}</style></defs><title>style-two-pin-car</title><line class="a" x1="9.25" y1="12.754" x2="9.25" y2="14.254"/><line class="a" x1="15.25" y1="12.754" x2="15.25" y2="14.254"/><path class="a" d="M16.75,11.254a1.5,1.5,0,0,1-1.5,1.5h-6a1.5,1.5,0,0,1,0-3h6A1.5,1.5,0,0,1,16.75,11.254Z"/><path class="a" d="M10.25,6.754h4a1,1,0,0,1,1,1v2a0,0,0,0,1,0,0h-6a0,0,0,0,1,0,0v-2A1,1,0,0,1,10.25,6.754Z"/><path class="a" d="M21.25,9.754c0,7.9-6.932,12.331-8.629,13.3a.749.749,0,0,1-.743,0c-1.7-.967-8.628-5.4-8.628-13.3a9,9,0,0,1,18,0Z"/></svg>