<svg xmlns="http://www.w3.org/2000/svg" viewBox="0 0 24 24"><defs><style>.a{fill:none;stroke:currentColor;stroke-linecap:round;stroke-linejoin:round;stroke-width:1.5px;}</style></defs><title>style-one-pin-skull</title><path class="a" d="M17.125,8.625A4.875,4.875,0,1,0,9.25,12.441v.309a1.5,1.5,0,0,0,1.5,1.5h3a1.5,1.5,0,0,0,1.5-1.5v-.309A4.845,4.845,0,0,0,17.125,8.625Z"/><path class="a" d="M10.375,8.625A.375.375,0,0,1,10.75,9"/><path class="a" d="M10,9a.375.375,0,0,1,.375-.375"/><path class="a" d="M10.375,9.375A.375.375,0,0,1,10,9"/><path class="a" d="M10.75,9a.375.375,0,0,1-.375.375"/><path class="a" d="M14.125,8.625A.375.375,0,0,1,14.5,9"/><path class="a" d="M13.75,9a.375.375,0,0,1,.375-.375"/><path class="a" d="M14.125,9.375A.375.375,0,0,1,13.75,9"/><path class="a" d="M14.5,9a.375.375,0,0,1-.375.375"/><line class="a" x1="12.25" y1="12.75" x2="12.25" y2="14.25"/><path class="a" d="M21.25,9.75a9,9,0,1,0-10.8,8.82l1.8,4.68,1.8-4.68A9,9,0,0,0,21.25,9.75Z"/></svg>