<svg xmlns="http://www.w3.org/2000/svg" viewBox="0 0 24 24"><defs><style>.a{fill:none;stroke:currentColor;stroke-linecap:round;stroke-linejoin:round;stroke-width:1.5px;}</style></defs><title>style-three-pin-skating</title><path class="a" d="M12,.8a9,9,0,0,1,9,9c0,7.9-6.932,12.331-8.629,13.3a.751.751,0,0,1-.743,0C9.931,22.132,3,17.7,3,9.8A9,9,0,0,1,12,.8Z"/><path class="a" d="M8.25,7.239a.751.751,0,0,1,.513-.712l3-1a.749.749,0,0,1,.987.712V8.948A3.75,3.75,0,0,1,16.5,12.7H9a.75.75,0,0,1-.75-.75Z"/><path class="a" d="M9.375,14.948a.375.375,0,0,1,.375.375"/><path class="a" d="M9,15.323a.375.375,0,0,1,.375-.375"/><path class="a" d="M9.375,15.7A.375.375,0,0,1,9,15.323"/><path class="a" d="M9.75,15.323a.375.375,0,0,1-.375.375"/><path class="a" d="M12.375,14.948a.375.375,0,0,1,.375.375"/><path class="a" d="M12,15.323a.375.375,0,0,1,.375-.375"/><path class="a" d="M12.375,15.7A.375.375,0,0,1,12,15.323"/><path class="a" d="M12.75,15.323a.375.375,0,0,1-.375.375"/><path class="a" d="M15.375,14.948a.375.375,0,0,1,.375.375"/><path class="a" d="M15,15.323a.375.375,0,0,1,.375-.375"/><path class="a" d="M15.375,15.7A.375.375,0,0,1,15,15.323"/><path class="a" d="M15.75,15.323a.375.375,0,0,1-.375.375"/></svg>