<svg xmlns="http://www.w3.org/2000/svg" viewBox="0 0 24 24"><defs><style>.a{fill:none;stroke:currentColor;stroke-linecap:round;stroke-linejoin:round;stroke-width:1.5px;}</style></defs><title>style-one-pin-warning</title><path class="a" d="M12.25,12a.375.375,0,0,1,.375.375"/><path class="a" d="M11.875,12.375A.375.375,0,0,1,12.25,12"/><path class="a" d="M12.25,12.75a.375.375,0,0,1-.375-.375"/><path class="a" d="M12.625,12.375a.375.375,0,0,1-.375.375"/><line class="a" x1="12.25" y1="9.75" x2="12.25" y2="6.75"/><path class="a" d="M21.25,9.75a9,9,0,1,0-10.8,8.82l1.8,4.68,1.8-4.68A9,9,0,0,0,21.25,9.75Z"/></svg>