<svg xmlns="http://www.w3.org/2000/svg" viewBox="0 0 24 24"><defs><style>.a{fill:none;stroke:currentColor;stroke-linecap:round;stroke-linejoin:round;stroke-width:1.5px;}</style></defs><title>style-two-pin-drink</title><path class="a" d="M14.75,9.754a3,3,0,0,1-6,0v-1.5h6Z"/><line class="a" x1="11.75" y1="12.754" x2="11.75" y2="15.754"/><line class="a" x1="10.25" y1="15.754" x2="13.25" y2="15.754"/><path class="a" d="M10.625,5.254A.375.375,0,0,1,11,5.629"/><path class="a" d="M10.25,5.629a.375.375,0,0,1,.375-.375"/><path class="a" d="M10.625,6a.375.375,0,0,1-.375-.375"/><path class="a" d="M11,5.629A.375.375,0,0,1,10.625,6"/><path class="a" d="M13.625,3.754A.375.375,0,0,1,14,4.129"/><path class="a" d="M13.25,4.129a.375.375,0,0,1,.375-.375"/><path class="a" d="M13.625,4.5a.375.375,0,0,1-.375-.375"/><path class="a" d="M14,4.129a.375.375,0,0,1-.375.375"/><path class="a" d="M20.75,9.754c0,7.9-6.932,12.331-8.629,13.3a.749.749,0,0,1-.743,0c-1.7-.967-8.628-5.4-8.628-13.3a9,9,0,0,1,18,0Z"/></svg>