<svg xmlns="http://www.w3.org/2000/svg" viewBox="0 0 24 24"><defs><style>.a{fill:none;stroke:currentColor;stroke-linecap:round;stroke-linejoin:round;stroke-width:1.5px;}</style></defs><title>style-three-pin-call</title><path class="a" d="M12,.8a9,9,0,0,1,9,9c0,7.9-6.932,12.331-8.629,13.3a.751.751,0,0,1-.743,0C9.931,22.132,3,17.7,3,9.8A9,9,0,0,1,12,.8Z"/><path class="a" d="M7.188,12.388l3-3L8.068,7.266a4.5,4.5,0,0,0,6.364,6.364l-2.121-2.121-3,3"/><path class="a" d="M12,7.448A2.25,2.25,0,0,1,14.25,9.7"/><path class="a" d="M12,4.448A5.251,5.251,0,0,1,17.25,9.7"/></svg>