<svg xmlns="http://www.w3.org/2000/svg" viewBox="0 0 24 24"><defs><style>.a{fill:none;stroke:currentColor;stroke-linecap:round;stroke-linejoin:round;stroke-width:1.5px;}</style></defs><title>style-two-pin-question</title><path class="a" d="M10.125,8.629A1.875,1.875,0,1,1,12,10.5"/><path class="a" d="M12,13.5a.375.375,0,0,1,.375.375"/><path class="a" d="M11.625,13.879A.375.375,0,0,1,12,13.5"/><path class="a" d="M12,14.254a.375.375,0,0,1-.375-.375"/><path class="a" d="M12.375,13.879a.375.375,0,0,1-.375.375"/><path class="a" d="M21,9.754c0,7.9-6.932,12.331-8.629,13.3a.749.749,0,0,1-.743,0C9.931,22.084,3,17.652,3,9.754a9,9,0,0,1,18,0Z"/></svg>