<svg xmlns="http://www.w3.org/2000/svg" viewBox="0 0 24 24"><defs><style>.a{fill:none;stroke:currentColor;stroke-linecap:round;stroke-linejoin:round;stroke-width:1.5px;}</style></defs><title>style-three-pin-signal-antenna</title><path class="a" d="M12,.8a9,9,0,0,1,9,9c0,7.9-6.932,12.331-8.629,13.3a.751.751,0,0,1-.743,0C9.931,22.132,3,17.7,3,9.8A9,9,0,0,1,12,.8Z"/><line class="a" x1="12" y1="9.052" x2="12" y2="15.802"/><path class="a" d="M9.75,10.351a1.5,1.5,0,0,1,0-2.6"/><path class="a" d="M7.146,12.052a4.5,4.5,0,0,1,0-6"/><path class="a" d="M14.25,10.351a1.5,1.5,0,0,0,0-2.6"/><path class="a" d="M16.854,12.052a4.5,4.5,0,0,0,0-6"/></svg>