<svg xmlns="http://www.w3.org/2000/svg" viewBox="0 0 24 24"><defs><style>.a{fill:none;stroke:currentColor;stroke-linecap:round;stroke-linejoin:round;stroke-width:1.5px;}</style></defs><title>style-two-pin-plane</title><line class="a" x1="5.609" y1="12.433" x2="6.991" y2="13.383"/><path class="a" d="M15.524,8.665,13.555,9.754,9.408,6.905,7.439,7.993l3.49,3.213L6.991,13.383l2,1.375a1.5,1.5,0,0,0,1.575.076l6.409-3.543a1.5,1.5,0,0,0-1.452-2.626Z"/><path class="a" d="M20.75,9.754c0,7.9-6.932,12.331-8.629,13.3a.749.749,0,0,1-.743,0c-1.7-.967-8.628-5.4-8.628-13.3a9,9,0,0,1,18,0Z"/></svg>