<svg xmlns="http://www.w3.org/2000/svg" viewBox="0 0 24 24"><defs><style>.a{fill:none;stroke:currentColor;stroke-linecap:round;stroke-linejoin:round;stroke-width:1.5px;}</style></defs><title>style-three-pin-boat</title><path class="a" d="M12,.8a9,9,0,0,1,9,9c0,7.9-6.932,12.331-8.629,13.3a.751.751,0,0,1-.743,0C9.931,22.132,3,17.7,3,9.8A9,9,0,0,1,12,.8Z"/><path class="a" d="M9,12.75c-2.25,0-2.25-3-2.25-3h10.5s-.75,3-2.25,3"/><polyline class="a" points="8.25 9.75 8.25 6.75 12.75 6.75 15.75 9.75"/><line class="a" x1="9.75" y1="6.75" x2="9.75" y2="4.5"/><polyline class="a" points="6.75 14.25 9 12.75 12 14.25 15 12.75 17.25 14.25"/></svg>