<svg xmlns="http://www.w3.org/2000/svg" viewBox="0 0 24 24"><defs><style>.a{fill:none;stroke:currentColor;stroke-linecap:round;stroke-linejoin:round;stroke-width:1.5px;}</style></defs><title>style-two-pin-world</title><circle class="a" cx="12" cy="9.755" r="6"/><line class="a" x1="6" y1="9.754" x2="18" y2="9.754"/><path class="a" d="M10.706,3.9a19.432,19.432,0,0,0,.453,11.8"/><path class="a" d="M13.3,3.9A19.376,19.376,0,0,1,14,9.088,19.288,19.288,0,0,1,12.841,15.7"/><path class="a" d="M21,9.754c0,7.9-6.932,12.331-8.629,13.3a.749.749,0,0,1-.743,0C9.931,22.084,3,17.652,3,9.754a9,9,0,0,1,18,0Z"/></svg>