<svg xmlns="http://www.w3.org/2000/svg" viewBox="0 0 24 24"><defs><style>.a{fill:none;stroke:currentColor;stroke-linecap:round;stroke-linejoin:round;stroke-width:1.5px;}</style></defs><title>style-three-pin-oc</title><path class="a" d="M12,.8a9,9,0,0,1,9,9c0,7.9-6.932,12.331-8.629,13.3a.751.751,0,0,1-.743,0C9.931,22.132,3,17.7,3,9.8A9,9,0,0,1,12,.8Z"/><path class="a" d="M17.25,13.448a3.75,3.75,0,0,1,0-7.5"/><path class="a" d="M10.5,11.573a1.875,1.875,0,0,1-3.75,0V7.823a1.875,1.875,0,0,1,3.75,0Z"/></svg>