<svg xmlns="http://www.w3.org/2000/svg" viewBox="0 0 24 24"><defs><style>.a{fill:none;stroke:currentColor;stroke-linecap:round;stroke-linejoin:round;stroke-width:1.5px;}</style></defs><title>style-three-pin-plane-fly</title><path class="a" d="M12,.8a9,9,0,0,1,9,9c0,7.9-6.932,12.331-8.629,13.3a.751.751,0,0,1-.743,0C9.931,22.132,3,17.7,3,9.8A9,9,0,0,1,12,.8Z"/><polygon class="a" points="6.75 11.302 12 4.552 17.25 11.302 17.25 12.802 12 11.302 6.75 12.802 6.75 11.302"/><path class="a" d="M9,12.159V14.3a.75.75,0,0,0,.75.75h4.5A.75.75,0,0,0,15,14.3V12.159"/></svg>