<svg xmlns="http://www.w3.org/2000/svg" viewBox="0 0 24 24"><defs><style>.a{fill:none;stroke:currentColor;stroke-linecap:round;stroke-linejoin:round;stroke-width:1.5px;}</style></defs><title>style-three-pin-burger</title><path class="a" d="M12,.8a9,9,0,0,1,9,9c0,7.9-6.932,12.331-8.629,13.3a.751.751,0,0,1-.743,0C9.931,22.132,3,17.7,3,9.8A9,9,0,0,1,12,.8Z"/><path class="a" d="M9.25,6.8h5.5a1,1,0,0,1,1,1v2a0,0,0,0,1,0,0H8.25a0,0,0,0,1,0,0v-2A1,1,0,0,1,9.25,6.8Z"/><path class="a" d="M8.25,9.8h7.5a0,0,0,0,1,0,0v2a1,1,0,0,1-1,1H9.25a1,1,0,0,1-1-1v-2A0,0,0,0,1,8.25,9.8Z"/><line class="a" x1="6.75" y1="9.802" x2="17.25" y2="9.802"/></svg>