<svg xmlns="http://www.w3.org/2000/svg" viewBox="0 0 24 24"><defs><style>.a{fill:none;stroke:currentColor;stroke-linecap:round;stroke-linejoin:round;stroke-width:1.5px;}</style></defs><title>style-three-pin-flower</title><path class="a" d="M12,.8a9,9,0,0,1,9,9c0,7.9-6.932,12.331-8.629,13.3a.751.751,0,0,1-.743,0C9.931,22.132,3,17.7,3,9.8A9,9,0,0,1,12,.8Z"/><path class="a" d="M14.625,7.073a2.625,2.625,0,0,0-5.25,0,2.625,2.625,0,0,0,0,5.25,2.625,2.625,0,0,0,5.25,0,2.625,2.625,0,0,0,0-5.25Z"/><path class="a" d="M12,9.323a.375.375,0,0,1,.375.375"/><path class="a" d="M11.625,9.7A.375.375,0,0,1,12,9.323"/><path class="a" d="M12,10.073a.375.375,0,0,1-.375-.375"/><path class="a" d="M12.375,9.7a.375.375,0,0,1-.375.375"/></svg>