<svg xmlns="http://www.w3.org/2000/svg" viewBox="0 0 24 24"><defs><style>.a{fill:none;stroke:currentColor;stroke-linecap:round;stroke-linejoin:round;stroke-width:1.5px;}</style></defs><title>style-three-pin-dentist</title><path class="a" d="M12,.8a9,9,0,0,1,9,9c0,7.9-6.932,12.331-8.629,13.3a.751.751,0,0,1-.743,0C9.931,22.132,3,17.7,3,9.8A9,9,0,0,1,12,.8Z"/><path class="a" d="M16.223,8.425A2.348,2.348,0,0,0,12,6.886,2.348,2.348,0,0,0,7.777,8.425a3.845,3.845,0,0,0,1.252,3.068,5.683,5.683,0,0,0-.548,2.474,5.947,5.947,0,0,0,.158,1.372.451.451,0,0,0,.452.322.463.463,0,0,0,.479-.376,2.774,2.774,0,0,1,2.43-2.7A2.781,2.781,0,0,1,14.432,15.3a.445.445,0,0,0,.461.364.473.473,0,0,0,.472-.338,5.975,5.975,0,0,0,.154-1.356,5.683,5.683,0,0,0-.548-2.474A3.848,3.848,0,0,0,16.223,8.425Z"/></svg>