<svg xmlns="http://www.w3.org/2000/svg" viewBox="0 0 24 24"><defs><style>.a{fill:none;stroke:currentColor;stroke-linecap:round;stroke-linejoin:round;stroke-width:1.5px;}</style></defs><title>style-one-pin-photography</title><path class="a" d="M12,9a.375.375,0,0,1,.375.375"/><path class="a" d="M11.625,9.375A.375.375,0,0,1,12,9"/><path class="a" d="M12,9.75a.375.375,0,0,1-.375-.375"/><path class="a" d="M12.375,9.375A.375.375,0,0,1,12,9.75"/><path class="a" d="M16.5,8.25A1.5,1.5,0,0,0,15,6.75h-.75V6.386A1.5,1.5,0,0,0,12.8,5.25H10.921c-.688,0-1,.468-1.171,1.136V6.75H9a1.5,1.5,0,0,0-1.5,1.5v3A1.5,1.5,0,0,0,9,12.75h6a1.5,1.5,0,0,0,1.5-1.5Z"/><path class="a" d="M21,9.75a9,9,0,1,0-10.8,8.82L12,23.25l1.8-4.68A9,9,0,0,0,21,9.75Z"/></svg>