<svg xmlns="http://www.w3.org/2000/svg" viewBox="0 0 24 24"><defs><style>.a{fill:none;stroke:currentColor;stroke-linecap:round;stroke-linejoin:round;stroke-width:1.5px;}</style></defs><title>style-one-pin-cross</title><path class="a" d="M16.5,9a.75.75,0,0,0-.75-.75H13.5V6a.75.75,0,0,0-.75-.75h-1.5A.75.75,0,0,0,10.5,6V8.25H8.25A.75.75,0,0,0,7.5,9v1.5a.75.75,0,0,0,.75.75H10.5V13.5a.75.75,0,0,0,.75.75h1.5a.75.75,0,0,0,.75-.75V11.25h2.25a.75.75,0,0,0,.75-.75Z"/><path class="a" d="M21,9.75a9,9,0,1,0-10.8,8.82L12,23.25l1.8-4.68A9,9,0,0,0,21,9.75Z"/></svg>