<svg xmlns="http://www.w3.org/2000/svg" viewBox="0 0 24 24"><defs><style>.a{fill:none;stroke:currentColor;stroke-linecap:round;stroke-linejoin:round;stroke-width:1.5px;}</style></defs><title>style-one-pin-wifi</title><path class="a" d="M12.253,13.5a.374.374,0,0,1,.375.375"/><path class="a" d="M11.878,13.875a.375.375,0,0,1,.375-.375"/><path class="a" d="M12.253,14.25a.375.375,0,0,1-.375-.375"/><path class="a" d="M12.628,13.875a.374.374,0,0,1-.375.375"/><path class="a" d="M8.969,10.73a6,6,0,0,1,6.569,0"/><path class="a" d="M17.361,8.36a8.981,8.981,0,0,0-10.215,0"/><path class="a" d="M21.25,9.75a9,9,0,1,0-10.8,8.82l1.8,4.68,1.8-4.68A9,9,0,0,0,21.25,9.75Z"/></svg>