<svg xmlns="http://www.w3.org/2000/svg" viewBox="0 0 24 24"><defs><style>.a{fill:none;stroke:currentColor;stroke-linecap:round;stroke-linejoin:round;stroke-width:1.5px;}</style></defs><title>style-three-pin-sailing-boat</title><path class="a" d="M12,.8a9,9,0,0,1,9,9c0,7.9-6.932,12.331-8.629,13.3a.751.751,0,0,1-.743,0C9.931,22.132,3,17.7,3,9.8A9,9,0,0,1,12,.8Z"/><path class="a" d="M9,12.052c-1.5,0-2.25-2.25-2.25-2.25h10.5s-1.5,2.25-2.25,2.25"/><polyline class="a" points="6.75 13.552 9 12.052 12 13.552 15 12.052 17.25 13.552"/><polygon class="a" points="12 9.052 12 3.802 15.75 6.052 12 9.052"/></svg>