<svg xmlns="http://www.w3.org/2000/svg" viewBox="0 0 24 24"><defs><style>.a{fill:none;stroke:currentColor;stroke-linecap:round;stroke-linejoin:round;stroke-width:1.5px;}</style></defs><title>style-three-pin-palette</title><path class="a" d="M11.75.8a9,9,0,0,1,9,9c0,7.9-6.932,12.331-8.629,13.3a.749.749,0,0,1-.743,0c-1.7-.967-8.628-5.4-8.628-13.3A9,9,0,0,1,11.75.8Z"/><path class="a" d="M13.25,13.825c0-.654.6-3.487,3.448-3.361a.279.279,0,0,0,.211-.082.283.283,0,0,0,.082-.21C16.825,5.961,12.72,5.2,11.75,5.2a5.25,5.25,0,0,0,0,10.5,4.993,4.993,0,0,0,1.045-.112.749.749,0,0,0,.566-.929A3.227,3.227,0,0,1,13.25,13.825Z"/><path class="a" d="M12.875,8.2a.375.375,0,0,1,.375.375"/><path class="a" d="M12.5,8.575a.375.375,0,0,1,.375-.375"/><path class="a" d="M12.875,8.95a.375.375,0,0,1-.375-.375"/><path class="a" d="M13.25,8.575a.375.375,0,0,1-.375.375"/><path class="a" d="M9.875,9.7a.375.375,0,0,1,.375.375"/><path class="a" d="M9.5,10.075A.375.375,0,0,1,9.875,9.7"/><path class="a" d="M9.875,10.45a.375.375,0,0,1-.375-.375"/><path class="a" d="M10.25,10.075a.375.375,0,0,1-.375.375"/></svg>