<svg xmlns="http://www.w3.org/2000/svg" viewBox="0 0 24 24"><defs><style>.a{fill:none;stroke:currentColor;stroke-linecap:round;stroke-linejoin:round;stroke-width:1.5px;}</style></defs><title>style-three-pin-shop</title><path class="a" d="M12,.8a9,9,0,0,1,9,9c0,7.9-6.932,12.331-8.629,13.3a.751.751,0,0,1-.743,0C9.931,22.132,3,17.7,3,9.8A9,9,0,0,1,12,.8Z"/><rect class="a" x="8.25" y="9.802" width="7.5" height="5.25"/><path class="a" d="M8.758,6.052a.751.751,0,0,0-.7.471l-.9,2.25a.751.751,0,0,0,.7,1.029h8.284a.751.751,0,0,0,.7-1.029l-.9-2.25a.751.751,0,0,0-.7-.471Z"/><line class="a" x1="12" y1="12.802" x2="12" y2="15.052"/></svg>