<svg xmlns="http://www.w3.org/2000/svg" viewBox="0 0 24 24"><defs><style>.a{fill:none;stroke:currentColor;stroke-linecap:round;stroke-linejoin:round;stroke-width:1.5px;}</style></defs><title>style-three-pin-target-arrow</title><path class="a" d="M12,.8a9,9,0,0,1,9,9c0,7.9-6.932,12.331-8.629,13.3a.751.751,0,0,1-.743,0C9.931,22.132,3,17.7,3,9.8A9,9,0,0,1,12,.8Z"/><path class="a" d="M15.75,9.8A3.75,3.75,0,1,1,12,6.052"/><line class="a" x1="12" y1="9.802" x2="15" y2="6.802"/><polyline class="a" points="17.25 6.802 15 6.802 15 4.552"/><line class="a" x1="8.25" y1="14.302" x2="9.75" y2="12.802"/><line class="a" x1="15.75" y1="14.302" x2="14.25" y2="12.802"/></svg>