<svg xmlns="http://www.w3.org/2000/svg" viewBox="0 0 24 24"><defs><style>.a{fill:none;stroke:currentColor;stroke-linecap:round;stroke-linejoin:round;stroke-width:1.5px;}</style></defs><title>style-two-pin-cross</title><path class="a" d="M16.5,9a.75.75,0,0,0-.75-.75H13.5V6a.75.75,0,0,0-.75-.75h-1.5A.75.75,0,0,0,10.5,6v2.25H8.25A.75.75,0,0,0,7.5,9v1.5a.75.75,0,0,0,.75.75H10.5V13.5a.75.75,0,0,0,.75.75h1.5a.75.75,0,0,0,.75-.75v-2.25h2.25a.75.75,0,0,0,.75-.75Z"/><path class="a" d="M21,9.754c0,7.9-6.932,12.331-8.629,13.3a.749.749,0,0,1-.743,0C9.931,22.084,3,17.652,3,9.754a9,9,0,0,1,18,0Z"/></svg>