<svg xmlns="http://www.w3.org/2000/svg" viewBox="0 0 24 24"><defs><style>.a{fill:none;stroke:currentColor;stroke-linecap:round;stroke-linejoin:round;stroke-width:1.5px;}</style></defs><title>style-three-pin-gym</title><path class="a" d="M12,.8a9,9,0,0,1,9,9c0,7.9-6.932,12.331-8.629,13.3a.751.751,0,0,1-.743,0C9.931,22.132,3,17.7,3,9.8A9,9,0,0,1,12,.8Z"/><line class="a" x1="10.5" y1="9.698" x2="13.5" y2="9.698"/><path class="a" d="M16.5,11.2a1.5,1.5,0,0,1-3,0v-3a1.5,1.5,0,0,1,3,0Z"/><path class="a" d="M10.5,11.2a1.5,1.5,0,0,1-3,0v-3a1.5,1.5,0,0,1,3,0Z"/><line class="a" x1="16.5" y1="9.698" x2="18" y2="9.698"/><line class="a" x1="6" y1="9.698" x2="7.5" y2="9.698"/></svg>