<svg xmlns="http://www.w3.org/2000/svg" viewBox="0 0 24 24"><defs><style>.a{fill:none;stroke:currentColor;stroke-linecap:round;stroke-linejoin:round;stroke-width:1.5px;}</style></defs><title>style-one-pin-tunnel</title><path class="a" d="M12,3.75a.375.375,0,0,1,.375.375"/><path class="a" d="M11.625,4.125A.375.375,0,0,1,12,3.75"/><path class="a" d="M12,4.5a.375.375,0,0,1-.375-.375"/><path class="a" d="M12.375,4.125A.375.375,0,0,1,12,4.5"/><path class="a" d="M7.5,11.25a4.5,4.5,0,0,1,9,0"/><line class="a" x1="6" y1="11.25" x2="18" y2="11.25"/><path class="a" d="M21,9.75a9,9,0,1,0-10.8,8.82L12,23.25l1.8-4.68A9,9,0,0,0,21,9.75Z"/></svg>