<svg xmlns="http://www.w3.org/2000/svg" viewBox="0 0 24 24"><defs><style>.a{fill:none;stroke:currentColor;stroke-linecap:round;stroke-linejoin:round;stroke-width:1.5px;}</style></defs><title>style-three-pin-snowflake</title><path class="a" d="M12,.8a9,9,0,0,1,9,9c0,7.9-6.932,12.331-8.629,13.3a.751.751,0,0,1-.743,0C9.931,22.132,3,17.7,3,9.8A9,9,0,0,1,12,.8Z"/><line class="a" x1="6.75" y1="9.802" x2="17.25" y2="9.802"/><line class="a" x1="12" y1="4.552" x2="12" y2="15.052"/><polyline class="a" points="9.75 5.302 12 7.552 14.25 5.302"/><polyline class="a" points="16.5 7.552 14.25 9.802 16.5 12.052"/><polyline class="a" points="14.25 14.302 12 12.052 9.75 14.302"/><polyline class="a" points="7.5 12.052 9.75 9.802 7.5 7.552"/></svg>