<svg xmlns="http://www.w3.org/2000/svg" viewBox="0 0 24 24"><defs><style>.a{fill:none;stroke:currentColor;stroke-linecap:round;stroke-linejoin:round;stroke-width:1.5px;}</style></defs><title>style-one-pin-star</title><path class="a" d="M11.564,5.219a.489.489,0,0,1,.872,0l1.012,2.042a.485.485,0,0,0,.366.263l2.271.328a.483.483,0,0,1,.391.325.474.474,0,0,1-.121.489l-1.65,1.6a.476.476,0,0,0-.138.421l.389,2.255a.473.473,0,0,1-.194.467.488.488,0,0,1-.511.035l-2.024-1.058a.486.486,0,0,0-.454,0L9.749,13.444a.488.488,0,0,1-.511-.035.473.473,0,0,1-.194-.467l.389-2.255a.476.476,0,0,0-.138-.421l-1.65-1.6a.474.474,0,0,1-.121-.489.483.483,0,0,1,.391-.325l2.271-.328a.485.485,0,0,0,.366-.263Z"/><path class="a" d="M21,9.75a9,9,0,1,0-10.8,8.82L12,23.25l1.8-4.68A9,9,0,0,0,21,9.75Z"/></svg>