<svg xmlns="http://www.w3.org/2000/svg" viewBox="0 0 24 24"><defs><style>.a{fill:none;stroke:currentColor;stroke-linecap:round;stroke-linejoin:round;stroke-width:1.5px;}</style></defs><title>style-three-pin-dam</title><path class="a" d="M12,.8a9,9,0,0,1,9,9c0,7.9-6.932,12.331-8.629,13.3a.751.751,0,0,1-.743,0C9.931,22.132,3,17.7,3,9.8A9,9,0,0,1,12,.8Z"/><polygon class="a" points="7.5 6.802 7.5 15.052 12.75 15.052 9.75 6.802 7.5 6.802"/><path class="a" d="M10.568,9.052l1.366-.7a3,3,0,0,1,3.03.175l.03.02a3,3,0,0,0,1.664.5h.592"/><path class="a" d="M11.945,12.839l.758-.506a2.791,2.791,0,0,1,3.094,0,2.787,2.787,0,0,0,1.548.469H18"/></svg>