<svg xmlns="http://www.w3.org/2000/svg" viewBox="0 0 24 24"><defs><style>.a{fill:none;stroke:currentColor;stroke-linecap:round;stroke-linejoin:round;stroke-width:1.5px;}</style></defs><title>style-three-pin-bow</title><path class="a" d="M12,.8a9,9,0,0,1,9,9c0,7.9-6.932,12.331-8.629,13.3a.751.751,0,0,1-.743,0C9.931,22.132,3,17.7,3,9.8A9,9,0,0,1,12,.8Z"/><path class="a" d="M9.187,5.3a4.5,4.5,0,1,1,0,9"/><line class="a" x1="6.937" y1="9.802" x2="13.688" y2="9.802"/><line class="a" x1="15.958" y1="10.294" x2="15.958" y2="9.31"/><path class="a" d="M16.187,10.677a.434.434,0,0,1-.229-.383"/><path class="a" d="M16.634,10.656a.435.435,0,0,1-.447.021"/><line class="a" x1="17.372" y1="10.164" x2="16.634" y2="10.656"/><path class="a" d="M17.565,9.8a.435.435,0,0,1-.193.362"/><path class="a" d="M17.372,9.44a.435.435,0,0,1,.193.362"/><line class="a" x1="16.634" y1="8.948" x2="17.372" y2="9.44"/><path class="a" d="M16.187,8.927a.435.435,0,0,1,.447.021"/><path class="a" d="M15.958,9.31a.434.434,0,0,1,.229-.383"/><polyline class="a" points="10.404 5.468 6.937 9.802 10.404 14.135"/></svg>