<svg xmlns="http://www.w3.org/2000/svg" viewBox="0 0 24 24"><defs><style>.a{fill:none;stroke:currentColor;stroke-linecap:round;stroke-linejoin:round;stroke-width:1.5px;}</style></defs><title>supermarket-1</title><rect class="a" x="12" y="0.75" width="4.5" height="3"/><line class="a" x1="12" y1="3.75" x2="12" y2="6.75"/><path class="a" d="M9.25,17.25h5.5a1,1,0,0,1,1,1v5a0,0,0,0,1,0,0H8.25a0,0,0,0,1,0,0v-5a1,1,0,0,1,1-1Z"/><line class="a" x1="12" y1="17.25" x2="12" y2="23.25"/><line class="a" x1="2.25" y1="13.5" x2="3.75" y2="13.5"/><line class="a" x1="20.25" y1="13.5" x2="21.75" y2="13.5"/><polyline class="a" points="3 10.5 3.75 13.5 20.25 13.5 21 10.5"/><path class="a" d="M21.75,10.5H16.424a4.485,4.485,0,0,0-8.848,0H2.25"/><rect class="a" x="3.75" y="13.5" width="16.5" height="9.75"/><line class="a" x1="0.75" y1="23.25" x2="23.25" y2="23.25"/></svg>