<svg xmlns="http://www.w3.org/2000/svg" viewBox="0 0 24 24"><defs><style>.a{fill:none;stroke:currentColor;stroke-linecap:round;stroke-linejoin:round;stroke-width:1.5px;}</style></defs><title>surveillance-camera-moving</title><path class="a" d="M12.58,14.588,9.412,11.42.9,19.935a.5.5,0,0,0,0,.708l2.46,2.46a.5.5,0,0,0,.708,0Z"/><path class="a" d="M9.847,19.338A1.494,1.494,0,0,0,12,19.291L23.251,7.085,22.5,1.5,16.915.75,4.709,12a1.494,1.494,0,0,0-.047,2.157Z"/><path class="a" d="M3.909,8.191A11.221,11.221,0,0,1,11.3.8"/><path class="a" d="M15.809,20.091A11.221,11.221,0,0,0,23.2,12.7"/></svg>