<svg xmlns="http://www.w3.org/2000/svg" viewBox="0 0 24 24"><defs><style>.a{fill:none;stroke:currentColor;stroke-linecap:round;stroke-linejoin:round;stroke-width:1.5px;}</style></defs><title>surveillance-360-camera</title><circle class="a" cx="11.5" cy="7.5" r="6.75"/><circle class="a" cx="11.5" cy="7.5" r="3"/><path class="a" d="M10,17.25h0A2.25,2.25,0,0,0,7.75,19.5v2.25"/><circle class="a" cx="9.25" cy="21.75" r="1.5"/><path class="a" d="M2.5,18.362A1.5,1.5,0,1,1,3.949,20.25a1.5,1.5,0,1,1-1.445,1.9"/><path class="a" d="M16,21.75a1.5,1.5,0,0,1-3,0v-3a1.5,1.5,0,0,1,3,0Z"/><polyline class="a" points="19.75 17.25 19.75 20.25 22.75 20.25"/><path class="a" d="M19.75,19.926A5.457,5.457,0,0,0,22,15.75a5.245,5.245,0,0,0-1.822-3.8"/><path class="a" d="M2.822,11.949A5.245,5.245,0,0,0,1,15.75"/></svg>