<svg xmlns="http://www.w3.org/2000/svg" viewBox="0 0 24 24"><defs><style>.a{fill:none;stroke:currentColor;stroke-linecap:round;stroke-linejoin:round;stroke-width:1.5px;}</style></defs><title>surveillance-target</title><circle class="a" cx="12" cy="12" r="11.25"/><circle class="a" cx="12" cy="12" r="6.75"/><circle class="a" cx="12" cy="12" r="2.25"/><line class="a" x1="13.584" y1="10.403" x2="20.026" y2="4.117"/><path class="a" d="M19.875,17.25a.375.375,0,0,1,.375.375"/><path class="a" d="M19.5,17.625a.375.375,0,0,1,.375-.375"/><path class="a" d="M19.875,18a.375.375,0,0,1-.375-.375"/><path class="a" d="M20.25,17.625a.375.375,0,0,1-.375.375"/><path class="a" d="M7.125,13.5a.375.375,0,0,1,.375.375"/><path class="a" d="M6.75,13.875a.375.375,0,0,1,.375-.375"/><path class="a" d="M7.125,14.25a.375.375,0,0,1-.375-.375"/><path class="a" d="M7.5,13.875a.375.375,0,0,1-.375.375"/><path class="a" d="M13.125,2.25a.375.375,0,0,1,.375.375"/><path class="a" d="M12.75,2.625a.375.375,0,0,1,.375-.375"/><path class="a" d="M13.125,3a.375.375,0,0,1-.375-.375"/><path class="a" d="M13.5,2.625A.375.375,0,0,1,13.125,3"/><path class="a" d="M3.75,7.125a.375.375,0,0,1,.375.375"/><path class="a" d="M3.375,7.5a.375.375,0,0,1,.375-.375"/><path class="a" d="M3.75,7.875A.375.375,0,0,1,3.375,7.5"/><path class="a" d="M4.125,7.5a.375.375,0,0,1-.375.375"/></svg>