<svg xmlns="http://www.w3.org/2000/svg" viewBox="0 0 24 24"><defs><style>.a{fill:none;stroke:currentColor;stroke-linecap:round;stroke-linejoin:round;stroke-width:1.5px;}</style></defs><title>surveillance-cctv-wifi</title><path class="a" d="M17.25,22.424a.375.375,0,0,1,.375.375"/><path class="a" d="M16.875,22.8a.375.375,0,0,1,.375-.375"/><path class="a" d="M17.25,23.174a.375.375,0,0,1-.375-.375"/><path class="a" d="M17.625,22.8a.375.375,0,0,1-.375.375"/><path class="a" d="M23.25,15.623a9.539,9.539,0,0,0-12,0"/><path class="a" d="M13.75,19.238a5.566,5.566,0,0,1,7,0"/><path class="a" d="M17.25,3.75l-16.5,3v-3a3,3,0,0,1,3-3H17.536a.75.75,0,0,1,.671,1.085Z"/><path class="a" d="M15.75,4.023V7.5A2.25,2.25,0,0,1,13.5,9.75h-9A2.25,2.25,0,0,1,2.25,7.5V6.477"/><path class="a" d="M6.75,9.75v1.5a3,3,0,0,1-3,3h-3"/><line class="a" x1="0.75" y1="12.75" x2="0.75" y2="15.75"/><line class="a" x1="18.75" y1="5.25" x2="18.75" y2="8.25"/></svg>