<svg xmlns="http://www.w3.org/2000/svg" viewBox="0 0 24 24"><defs><style>.a{fill:none;stroke:currentColor;stroke-linecap:round;stroke-linejoin:round;stroke-width:1.5px;}</style></defs><title>surveillance-camera-smartphone</title><path class="a" d="M1.25.75h11a.5.5,0,0,1,.5.5v3a1,1,0,0,1-1,1h-10a1,1,0,0,1-1-1v-3A.5.5,0,0,1,1.25.75Z"/><path class="a" d="M6.75,7.875a.375.375,0,0,1,.375.375"/><path class="a" d="M6.375,8.25a.375.375,0,0,1,.375-.375"/><path class="a" d="M6.75,8.625a.375.375,0,0,1-.375-.375"/><path class="a" d="M7.125,8.25a.375.375,0,0,1-.375.375"/><line class="a" x1="2.25" y1="14.25" x2="2.25" y2="17.25"/><path class="a" d="M2.25,20.25v1.5a1.5,1.5,0,0,0,1.5,1.5h1.5"/><line class="a" x1="8.25" y1="23.25" x2="11.25" y2="23.25"/><rect class="a" x="15.75" y="11.25" width="7.5" height="12" rx="1.5" ry="1.5"/><line class="a" x1="19.5" y1="19.875" x2="19.5" y2="19.875"/><path class="a" d="M19.875,20.25a.375.375,0,0,0-.375-.375"/><path class="a" d="M19.5,20.625a.375.375,0,0,0,.375-.375"/><path class="a" d="M19.125,20.25a.375.375,0,0,0,.375.375"/><path class="a" d="M19.5,19.875a.375.375,0,0,0-.375.375"/><path class="a" d="M17.379,7.629a3,3,0,0,1,4.242,0"/><path class="a" d="M16.5,4.451a6.768,6.768,0,0,1,6,0"/><path class="a" d="M2.014,5.231a5.25,5.25,0,1,0,9.472,0"/></svg>