<svg xmlns="http://www.w3.org/2000/svg" viewBox="0 0 24 24"><defs><style>.a{fill:none;stroke:currentColor;stroke-linecap:round;stroke-linejoin:round;stroke-width:1.5px;}</style></defs><title>surveillance-location-1</title><path class="a" d="M23.25,12a11.25,11.25,0,1,1-3.3-7.955"/><line class="a" x1="0.75" y1="12" x2="23.25" y2="12"/><line class="a" x1="12" y1="0.75" x2="12" y2="23.25"/><line class="a" x1="12" y1="12" x2="21" y2="3"/><path class="a" d="M17.625,15.75a.375.375,0,0,1,.375.375"/><path class="a" d="M17.25,16.125a.375.375,0,0,1,.375-.375"/><path class="a" d="M17.625,16.5a.375.375,0,0,1-.375-.375"/><path class="a" d="M18,16.125a.375.375,0,0,1-.375.375"/><path class="a" d="M6.375,6.75a.375.375,0,0,1,.375.375"/><path class="a" d="M6,7.125a.375.375,0,0,1,.375-.375"/><path class="a" d="M6.375,7.5A.375.375,0,0,1,6,7.125"/><path class="a" d="M6.75,7.125a.375.375,0,0,1-.375.375"/><path class="a" d="M9,5.952a6.754,6.754,0,0,1,7.773,1.275"/><path class="a" d="M15.1,18A6.754,6.754,0,0,1,5.634,9.75"/><path class="a" d="M18.75,12a6.794,6.794,0,0,1-.167,1.5"/></svg>