<svg xmlns="http://www.w3.org/2000/svg" viewBox="0 0 24 24"><defs><style>.a{fill:none;stroke:currentColor;stroke-linecap:round;stroke-linejoin:round;stroke-width:1.5px;}</style></defs><title>surveillance-camera-1</title><line class="a" x1="0.75" y1="5" x2="23.25" y2="5"/><path class="a" d="M10-1.75h5a0,0,0,0,1,0,0v19.5a0,0,0,0,1,0,0H10a1,1,0,0,1-1-1V-.75A1,1,0,0,1,10-1.75Z" transform="translate(4 20) rotate(-90)"/><path class="a" d="M20.25,11a8.25,8.25,0,0,1-16.5,0"/><line class="a" x1="18.75" y1="8" x2="14.25" y2="8"/><path class="a" d="M12,14.375a.375.375,0,0,1,.375.375"/><path class="a" d="M11.625,14.75A.375.375,0,0,1,12,14.375"/><path class="a" d="M12,15.125a.375.375,0,0,1-.375-.375"/><path class="a" d="M12.375,14.75a.375.375,0,0,1-.375.375"/></svg>