<svg xmlns="http://www.w3.org/2000/svg" viewBox="0 0 24 24"><defs><style>.a{fill:none;stroke:currentColor;stroke-linecap:round;stroke-linejoin:round;stroke-width:1.5px;}</style></defs><title>surveillance-camera</title><path class="a" d="M22.562,5.838A3,3,0,0,1,19.62,8.25H4.38A3,3,0,0,1,1.438,5.838L.779,2.544A1.5,1.5,0,0,1,2.25.75h19.5a1.5,1.5,0,0,1,1.471,1.794Z"/><path class="a" d="M3.818,8.2a9.75,9.75,0,1,0,16.364,0"/><path class="a" d="M8.25,22.5v-6a3.75,3.75,0,0,1,7.5,0v6"/><path class="a" d="M12,18.375a.375.375,0,0,1,.375.375"/><path class="a" d="M11.625,18.75A.375.375,0,0,1,12,18.375"/><path class="a" d="M12,19.125a.375.375,0,0,1-.375-.375"/><path class="a" d="M12.375,18.75a.375.375,0,0,1-.375.375"/></svg>