<svg xmlns="http://www.w3.org/2000/svg" viewBox="0 0 24 24"><defs><style>.a{fill:none;stroke:currentColor;stroke-linecap:round;stroke-linejoin:round;stroke-width:1.5px;}</style></defs><title>surveillance-cctv</title><path class="a" d="M6.75,1.75a6,6,0,0,0,0,12h9a3,3,0,0,0,3-3V8.5l3.671-1.835a1.5,1.5,0,0,0,.829-1.342V2.5a.75.75,0,0,0-.75-.75Z"/><path class="a" d="M21.75,7v3.75a1.5,1.5,0,0,1-1.5,1.5h-1.9"/><path class="a" d="M8.25,13.75v3.333a2.848,2.848,0,0,1-3,2.667H.75"/><line class="a" x1="0.75" y1="17.5" x2="0.75" y2="22"/><path class="a" d="M8.25,7.75a.375.375,0,0,1,.375.375"/><path class="a" d="M7.875,8.125A.375.375,0,0,1,8.25,7.75"/><path class="a" d="M8.25,8.5a.375.375,0,0,1-.375-.375"/><path class="a" d="M8.625,8.125A.375.375,0,0,1,8.25,8.5"/><line class="a" x1="0.75" y1="7.75" x2="4.5" y2="7.75"/></svg>