<svg id="Regular" xmlns="http://www.w3.org/2000/svg" viewBox="0 0 24 24"><defs><style>.cls-1{fill:none;stroke:currentColor;stroke-linecap:round;stroke-linejoin:round;stroke-width:1.5px;}</style></defs><title>swan-water</title><path class="cls-1" d="M22.75,21.668A4.417,4.417,0,0,1,20.5,20.26a4.17,4.17,0,0,1-3,1.5,4.17,4.17,0,0,1-3-1.5,4.17,4.17,0,0,1-3,1.5,4.17,4.17,0,0,1-3-1.5,4.17,4.17,0,0,1-3,1.5,4.17,4.17,0,0,1-3-1.5A4.417,4.417,0,0,1,.25,21.668"/><line class="cls-1" x1="17.928" y1="8.067" x2="21.865" y2="12.004"/><path class="cls-1" d="M20.5,17.26A5.743,5.743,0,0,0,18.818,13.2L13.439,7.82a1.5,1.5,0,0,1,0-2.12,1.5,1.5,0,0,1,2.122,0l2.367,2.367A2.25,2.25,0,0,0,21.11,4.885a2.2,2.2,0,0,0-1.688-.642,2.274,2.274,0,0,1-1.74-.665,4.5,4.5,0,0,0-6.364,6.364l1.924,1.924a1.4,1.4,0,0,1-.992,2.394h-3c-2.7,0-6.172-2.329-7.909-3.636a.682.682,0,0,0-1.091.545,11.934,11.934,0,0,0,1.5,6.091"/></svg>