<svg id="Regular" xmlns="http://www.w3.org/2000/svg" viewBox="0 0 24 24"><defs><style>.cls-1{fill:none;stroke:currentColor;stroke-linecap:round;stroke-linejoin:round;stroke-width:1.5px;}</style></defs><title>sweater-1</title><line class="cls-1" x1="18" y1="23.25" x2="18" y2="8.25"/><line class="cls-1" x1="6" y1="8.25" x2="6" y2="23.25"/><path class="cls-1" d="M18,18.75h3.75A.75.75,0,0,0,22.5,18V6.75a6,6,0,0,0-6-6H15a3,3,0,0,1-6,0H7.5a6,6,0,0,0-6,6V18a.75.75,0,0,0,.75.75H6"/><line class="cls-1" x1="6" y1="11.25" x2="18" y2="11.25"/><line class="cls-1" x1="6" y1="14.25" x2="18" y2="14.25"/><line class="cls-1" x1="6" y1="17.25" x2="18" y2="17.25"/></svg>