<svg id="Regular" xmlns="http://www.w3.org/2000/svg" viewBox="0 0 24 24"><defs><style>.cls-1{fill:none;stroke:currentColor;stroke-linecap:round;stroke-linejoin:round;stroke-width:1.5px;}</style></defs><title>swimming-cap-1</title><path class="cls-1" d="M14.625,12.75a.375.375,0,0,1,.375.375"/><path class="cls-1" d="M14.25,13.125a.375.375,0,0,1,.375-.375"/><path class="cls-1" d="M14.625,13.5a.375.375,0,0,1-.375-.375"/><path class="cls-1" d="M15,13.125a.375.375,0,0,1-.375.375"/><path class="cls-1" d="M9.375,12.75a.375.375,0,0,1,.375.375"/><path class="cls-1" d="M9,13.125a.375.375,0,0,1,.375-.375"/><path class="cls-1" d="M9.375,13.5A.375.375,0,0,1,9,13.125"/><path class="cls-1" d="M9.75,13.125a.375.375,0,0,1-.375.375"/><circle class="cls-1" cx="12" cy="14.25" r="6.75"/><path class="cls-1" d="M6.537,18.249A10.032,10.032,0,0,1,3,10.5C3,5.115,7.029.75,12,.75s9,4.365,9,9.75a10.032,10.032,0,0,1-3.537,7.749"/><path class="cls-1" d="M8.275,8.621C8.49,4.19,10.076.75,12,.75s3.51,3.44,3.725,7.871"/><line class="cls-1" x1="12" y1="15" x2="12" y2="16.5"/><line class="cls-1" x1="9.75" y1="23.25" x2="12" y2="21"/><line class="cls-1" x1="14.25" y1="23.25" x2="12" y2="21"/><path class="cls-1" d="M21,10.594a3,3,0,1,1-1.778,5.725"/><path class="cls-1" d="M3,10.594a3,3,0,1,0,1.778,5.725"/></svg>