<svg id="Regular" xmlns="http://www.w3.org/2000/svg" viewBox="0 0 24 24"><defs><style>.cls-1{fill:none;stroke:currentColor;stroke-linecap:round;stroke-linejoin:round;stroke-width:1.5px;}</style></defs><title>swimming-diving</title><circle class="cls-1" cx="18.423" cy="7.721" r="2.25"/><path class="cls-1" d="M4.831,3.428a.746.746,0,0,1,.368.3L7.743,7.714l5.851,2.2a1.515,1.515,0,0,1,.627.447l3.86,4.655a1.5,1.5,0,0,1-2.31,1.915L12.166,12.58,6.22,10.347a1.5,1.5,0,0,1-.736-.6L1.6,3.653a.75.75,0,0,1,.9-1.1Z"/><line class="cls-1" x1="9.163" y1="8.247" x2="8.108" y2="11.056"/><line class="cls-1" x1="7.173" y1="6.821" x2="4.414" y2="8.073"/><path class="cls-1" d="M.75,21.672a4.668,4.668,0,0,0,3.75-1.9,4.649,4.649,0,0,0,7.5,0,4.649,4.649,0,0,0,7.5,0,4.668,4.668,0,0,0,3.75,1.9"/></svg>