<svg id="Regular" xmlns="http://www.w3.org/2000/svg" viewBox="0 0 24 24"><defs><style>.cls-1{fill:none;stroke:currentColor;stroke-linecap:round;stroke-linejoin:round;stroke-width:1.5px;}</style></defs><title>swimming-cap</title><path class="cls-1" d="M14.625,13.5a.375.375,0,0,1,.375.375"/><path class="cls-1" d="M14.25,13.875a.375.375,0,0,1,.375-.375"/><path class="cls-1" d="M14.625,14.25a.375.375,0,0,1-.375-.375"/><path class="cls-1" d="M15,13.875a.375.375,0,0,1-.375.375"/><path class="cls-1" d="M9.375,13.5a.375.375,0,0,1,.375.375"/><path class="cls-1" d="M9,13.875a.375.375,0,0,1,.375-.375"/><path class="cls-1" d="M9.375,14.25A.375.375,0,0,1,9,13.875"/><path class="cls-1" d="M9.75,13.875a.375.375,0,0,1-.375.375"/><circle class="cls-1" cx="12" cy="15.75" r="6.75"/><path class="cls-1" d="M19.855,5.505a9.89,9.89,0,0,1-2.086,13.752"/><ellipse class="cls-1" cx="6.75" cy="4.5" rx="3.75" ry="2.25"/><ellipse class="cls-1" cx="16.5" cy="4.5" rx="3.75" ry="2.25"/><line class="cls-1" x1="12.75" y1="4.5" x2="10.5" y2="4.5"/><path class="cls-1" d="M6.231,19.256A9.888,9.888,0,0,1,3.847,5.938"/><path class="cls-1" d="M7.976,2.373a9.71,9.71,0,0,1,7.851-.087"/><line class="cls-1" x1="12" y1="16.5" x2="12" y2="18"/></svg>