<svg id="Regular" xmlns="http://www.w3.org/2000/svg" viewBox="0 0 24 24"><defs><style>.cls-1{fill:none;stroke:currentColor;stroke-linecap:round;stroke-linejoin:round;stroke-width:1.5px;}</style></defs><title>swimming-jump</title><polyline class="cls-1" points="0.75 18 11.25 18 11.25 23.25"/><circle class="cls-1" cx="13.5" cy="4.875" r="2.625"/><path class="cls-1" d="M3.214,14.978l1.648-2.745L1.19,8.561A1.5,1.5,0,0,1,2.25,6H5.335L3.28,3.122A1.5,1.5,0,0,1,5.721,1.378l3.75,5.25A1.5,1.5,0,0,1,8.25,9H5.871l1.94,1.939a1.5,1.5,0,0,1,.225,1.833L6.713,14.978"/><path class="cls-1" d="M11.25,23.25a3.732,3.732,0,0,0,3-1.521,3.719,3.719,0,0,0,6,0,3.735,3.735,0,0,0,3,1.521"/></svg>