<svg id="Regular" xmlns="http://www.w3.org/2000/svg" viewBox="0 0 24 24"><defs><style>.cls-1{fill:none;stroke:currentColor;stroke-linecap:round;stroke-linejoin:round;stroke-width:1.5px;}</style></defs><title>swimming-lifeguard</title><circle class="cls-1" cx="5.249" cy="3.375" r="2.625"/><path class="cls-1" d="M10.5,18.75a1.5,1.5,0,0,1-1.343-.829L8.073,15.75H5.25a1.5,1.5,0,0,1-1.5-1.5V9.75a1.5,1.5,0,0,1,3,0v3H9a1.5,1.5,0,0,1,1.342.829l1.5,3A1.5,1.5,0,0,1,10.5,18.75Z"/><polyline class="cls-1" points="7.5 15.75 0.75 15.75 0.75 10.5"/><line class="cls-1" x1="6" y1="15.75" x2="6.75" y2="23.25"/><line class="cls-1" x1="1.5" y1="15.75" x2="0.75" y2="23.25"/><line class="cls-1" x1="1.05" y1="20.25" x2="6.45" y2="20.25"/><path class="cls-1" d="M11.25,23.25a3.735,3.735,0,0,0,3-1.521,3.719,3.719,0,0,0,6,0,3.735,3.735,0,0,0,3,1.521"/><path class="cls-1" d="M17.25,19.5a3.735,3.735,0,0,0,3-1.521,3.735,3.735,0,0,0,3,1.521"/></svg>