<svg id="Regular" xmlns="http://www.w3.org/2000/svg" viewBox="0 0 24 24"><defs><style>.cls-1{fill:none;stroke:currentColor;stroke-linecap:round;stroke-linejoin:round;stroke-width:1.5px;}</style></defs><title>swimming-waterpolo</title><circle class="cls-1" cx="9" cy="8.625" r="2.625"/><circle class="cls-1" cx="20.25" cy="3.75" r="3"/><path class="cls-1" d="M5.779,17.382,6,16.5H5.6a1.491,1.491,0,0,0-1.341.829l-.671,1.342A1.5,1.5,0,1,1,.908,17.329l.671-1.342A4.479,4.479,0,0,1,5.6,13.5H9.778l.819-1.024L12.778,9.75l2.55-3.187a1.5,1.5,0,1,1,2.344,1.875l-5.318,6.647-.575,2.3"/><path class="cls-1" d="M.75,23.25a4.666,4.666,0,0,0,3.75-1.9,4.649,4.649,0,0,0,7.5,0,4.649,4.649,0,0,0,7.5,0,4.666,4.666,0,0,0,3.75,1.9"/></svg>