<svg id="Regular" xmlns="http://www.w3.org/2000/svg" viewBox="0 0 24 24"><defs><style>.cls-1{fill:none;stroke:currentColor;stroke-linecap:round;stroke-linejoin:round;stroke-width:1.5px;}</style></defs><title>swimming-diving-board</title><path class="cls-1" d="M.75,5.25H13.5A8.25,8.25,0,0,0,5.25,13.5v6.75"/><line class="cls-1" x1="13.5" y1="5.25" x2="18" y2="5.25"/><line class="cls-1" x1="5.25" y1="14.25" x2="12.75" y2="14.25"/><path class="cls-1" d="M.75,5.25V3a.75.75,0,0,1,.75-.75H8.25A.75.75,0,0,1,9,3V5.25"/><path class="cls-1" d="M.75,21.75a5.511,5.511,0,0,0,4.5-1.5,4.547,4.547,0,0,0,6.75,0,4.547,4.547,0,0,0,6.75,0,5.511,5.511,0,0,0,4.5,1.5"/></svg>