<svg xmlns="http://www.w3.org/2000/svg" viewBox="0 0 24 24"><defs><style>.a{fill:none;stroke:currentColor;stroke-linecap:round;stroke-linejoin:round;stroke-width:1.5px;}</style></defs><title>swimming-pool-person</title><path class="a" d="M23.25,22.445c-2.451.51-3.972-1.936-3.972-1.936h0a4.307,4.307,0,0,1-3.542,2.011,3.74,3.74,0,0,1-3.242-2.011h0A5.168,5.168,0,0,1,8.649,22.52a4.507,4.507,0,0,1-3.537-2.011h0S3.148,23,.75,22.485"/><path class="a" d="M23.25,17.945c-2.451.51-3.972-1.936-3.972-1.936h0a4.307,4.307,0,0,1-3.542,2.011,3.74,3.74,0,0,1-3.242-2.011h0A5.168,5.168,0,0,1,8.649,18.02a4.507,4.507,0,0,1-3.537-2.011h0S3.148,18.5.75,17.985"/><circle class="a" cx="19.5" cy="8.57" r="2.625"/><path class="a" d="M7.379,14l3.831-2.4L8.4,8.394a3,3,0,0,1,.916-4.659L13.579,1.6a1.5,1.5,0,1,1,1.342,2.683l-3.4,1.7A.751.751,0,0,0,11.3,7.149l5.377,6.145"/></svg>