<svg xmlns="http://www.w3.org/2000/svg" viewBox="0 0 24 24"><defs><style>.a{fill:none;stroke:currentColor;stroke-linecap:round;stroke-linejoin:round;stroke-width:1.5px;}</style></defs><title>sync-location-refresh</title><path class="a" d="M12,9.625a.375.375,0,0,1,.375.375"/><path class="a" d="M11.625,10A.375.375,0,0,1,12,9.625"/><path class="a" d="M12,10.375A.375.375,0,0,1,11.625,10"/><path class="a" d="M12.375,10a.375.375,0,0,1-.375.375"/><path class="a" d="M12,5.5A4.5,4.5,0,0,1,16.5,10c0,1.921-2.688,5.577-3.909,7.138a.75.75,0,0,1-1.182,0C10.188,15.576,7.5,11.921,7.5,10A4.5,4.5,0,0,1,12,5.5Z"/><polyline class="a" points="23.25 10 21 12.25 18.75 10"/><path class="a" d="M4.532,6.475A9.02,9.02,0,0,1,21,12.25"/><polyline class="a" points="0.75 13 3 10.75 5.25 13"/><path class="a" d="M19.468,16.525A9.02,9.02,0,0,1,3,10.75"/></svg>