<svg id="Regular" xmlns="http://www.w3.org/2000/svg" viewBox="0 0 24 24"><defs><style>.cls-1{fill:none;stroke:currentColor;stroke-linecap:round;stroke-linejoin:round;stroke-width:1.5px;}</style></defs><title>table-restaurant-beach</title><path class="cls-1" d="M1.5,15.75,3,20.25H6a1.5,1.5,0,0,1,1.5,1.5v1.5"/><line class="cls-1" x1="3" y1="20.25" x2="3" y2="23.25"/><path class="cls-1" d="M22.5,15.75,21,20.25H18a1.5,1.5,0,0,0-1.5,1.5v1.5"/><line class="cls-1" x1="21" y1="20.25" x2="21" y2="23.25"/><line class="cls-1" x1="12" y1="11.716" x2="12" y2="23.25"/><path class="cls-1" d="M22.06,9.216a1.5,1.5,0,0,1,.344,1.589,3.129,3.129,0,0,1-2.9,1.945,2.987,2.987,0,0,1-2.625-1.575A2.971,2.971,0,0,1,12,11.716a2.971,2.971,0,0,1-4.875-.541A2.987,2.987,0,0,1,4.5,12.75a3.13,3.13,0,0,1-2.9-1.945A1.5,1.5,0,0,1,1.94,9.216l9-8.026a1.5,1.5,0,0,1,2.122,0Z"/><line class="cls-1" x1="7.125" y1="11.175" x2="12" y2="0.75"/><line class="cls-1" x1="16.875" y1="11.175" x2="12" y2="0.75"/></svg>