<svg id="Regular" xmlns="http://www.w3.org/2000/svg" viewBox="0 0 24 24"><defs><style>.cls-1{fill:none;stroke:currentColor;stroke-linecap:round;stroke-linejoin:round;stroke-width:1.5px;}</style></defs><title>table-restaurant-beach-1</title><line class="cls-1" x1="1.5" y1="11.25" x2="3" y2="18"/><path class="cls-1" d="M1.5,23.25,3,18H6a1.5,1.5,0,0,1,1.5,1.5v3.75"/><line class="cls-1" x1="22.5" y1="11.25" x2="21" y2="18"/><path class="cls-1" d="M22.5,23.25,21,18H18a1.5,1.5,0,0,0-1.5,1.5v3.75"/><line class="cls-1" x1="12" y1="6.75" x2="12" y2="23.25"/><line class="cls-1" x1="6.75" y1="13.5" x2="17.25" y2="13.5"/><path class="cls-1" d="M1.5,6.75a.75.75,0,0,1-.344-1.416L11.265.943a1.5,1.5,0,0,1,1.47,0L22.844,5.334A.75.75,0,0,1,22.5,6.75Z"/></svg>