<svg id="Regular" xmlns="http://www.w3.org/2000/svg" viewBox="0 0 24 24"><defs><style>.cls-1{fill:none;stroke:currentColor;stroke-linecap:round;stroke-linejoin:round;stroke-width:1.5px;}</style></defs><title>table-candelabra</title><polygon class="cls-1" points="20.25 14.323 3.75 14.323 1.5 10.573 22.5 10.573 20.25 14.323"/><line class="cls-1" x1="0.75" y1="10.573" x2="23.25" y2="10.573"/><path class="cls-1" d="M3.75,14.323l-1.866,7.93a.75.75,0,0,0,1.377.552L8.25,14.323"/><path class="cls-1" d="M20.25,14.323l1.866,7.93a.75.75,0,0,1-1.377.552L15.75,14.323"/><line class="cls-1" x1="17.25" y1="4.573" x2="17.25" y2="10.573"/><path class="cls-1" d="M20.25,4.573a3,3,0,0,1-6,0"/><line class="cls-1" x1="14.25" y1="0.823" x2="14.25" y2="2.323"/><line class="cls-1" x1="17.25" y1="0.823" x2="17.25" y2="2.323"/><line class="cls-1" x1="20.25" y1="0.823" x2="20.25" y2="2.323"/><polygon class="cls-1" points="4.5 10.573 2.25 7.573 12 7.573 9.75 10.573 4.5 10.573"/></svg>