<svg id="Regular" xmlns="http://www.w3.org/2000/svg" viewBox="0 0 24 24"><defs><style>.cls-1{fill:none;stroke:currentColor;stroke-linecap:round;stroke-linejoin:round;stroke-width:1.5px;}</style></defs><title>table-lamp-retro-1</title><path class="cls-1" d="M21.75,12.75A9.75,9.75,0,0,0,11.7,3.005,10.02,10.02,0,0,0,2.25,13.159v.822a.75.75,0,0,0,1.136.643L6,13.055,8.1,14.63a1.5,1.5,0,0,0,1.8,0L12,13.055,14.193,14.7a1.5,1.5,0,0,0,1.672.086l2.885-1.731,1.8,1.35a.75.75,0,0,0,1.2-.6Z"/><line class="cls-1" x1="12" y1="13.055" x2="12" y2="23.25"/><line class="cls-1" x1="8.25" y1="23.25" x2="15.75" y2="23.25"/><line class="cls-1" x1="15" y1="15" x2="15" y2="18"/><line class="cls-1" x1="12" y1="3" x2="12" y2="0.75"/></svg>