<svg id="Regular" xmlns="http://www.w3.org/2000/svg" viewBox="0 0 24 24"><defs><style>.cls-1{fill:none;stroke:currentColor;stroke-linecap:round;stroke-linejoin:round;stroke-width:1.5px;}</style></defs><title>table-retro</title><path class="cls-1" d="M21.75,6a1.5,1.5,0,0,0,0-3H2.25a1.5,1.5,0,0,0,0,3Z"/><path class="cls-1" d="M21.75,6v4.5H19.5A9.507,9.507,0,0,0,15,9a3.25,3.25,0,0,0-3,1.5A3.25,3.25,0,0,0,9,9a9.507,9.507,0,0,0-4.5,1.5H2.25V6"/><path class="cls-1" d="M2.25,10.5a5.738,5.738,0,0,0-1.5,3.75c0,2.25,1.5,3.75,1.5,5.25A1.469,1.469,0,0,1,.75,21"/><path class="cls-1" d="M21.75,10.5a5.738,5.738,0,0,1,1.5,3.75c0,2.25-1.5,3.75-1.5,5.25a1.469,1.469,0,0,0,1.5,1.5"/></svg>