<svg id="Regular" xmlns="http://www.w3.org/2000/svg" viewBox="0 0 24 24"><defs><style>.cls-1{fill:none;stroke:currentColor;stroke-linecap:round;stroke-linejoin:round;stroke-width:1.5px;}</style></defs><title>table-lamp-square</title><path class="cls-1" d="M7,.75H17a1,1,0,0,1,1,1v15.5a0,0,0,0,1,0,0H6a0,0,0,0,1,0,0V1.75A1,1,0,0,1,7,.75Z"/><path class="cls-1" d="M5.25,23.25s1.5-3,6.75-3,6.75,3,6.75,3Z"/><line class="cls-1" x1="12" y1="17.25" x2="12" y2="20.25"/><line class="cls-1" x1="21" y1="6" x2="23.25" y2="5.25"/><line class="cls-1" x1="21" y1="9.75" x2="23.25" y2="9.75"/><line class="cls-1" x1="21" y1="13.5" x2="23.25" y2="14.25"/><line class="cls-1" x1="0.75" y1="9.75" x2="3" y2="9.75"/><line class="cls-1" x1="3" y1="6" x2="0.75" y2="5.25"/><line class="cls-1" x1="3" y1="13.5" x2="0.75" y2="14.25"/></svg>