<svg id="Regular" xmlns="http://www.w3.org/2000/svg" viewBox="0 0 24 24"><defs><style>.cls-1{fill:none;stroke:currentColor;stroke-linecap:round;stroke-linejoin:round;stroke-width:1.5px;}</style></defs><title>table-lamp-3</title><path class="cls-1" d="M5.25,23.25s1.5-3,6.75-3,6.75,3,6.75,3Z"/><line class="cls-1" x1="12" y1="13.666" x2="12" y2="20.25"/><path class="cls-1" d="M4.5,12A2.384,2.384,0,0,0,7,14.25a2.642,2.642,0,0,0,1.667-.584,2.67,2.67,0,0,0,3.333,0,2.67,2.67,0,0,0,3.333,0A2.642,2.642,0,0,0,17,14.25,2.384,2.384,0,0,0,19.5,12L18.026,2.052A1.619,1.619,0,0,0,16.374.75H7.626a1.619,1.619,0,0,0-1.652,1.3Z"/><line class="cls-1" x1="16.5" y1="14.206" x2="16.5" y2="16.5"/></svg>