<svg id="Regular" xmlns="http://www.w3.org/2000/svg" viewBox="0 0 24 24"><defs><style>.cls-1{fill:none;stroke:currentColor;stroke-linecap:round;stroke-linejoin:round;stroke-width:1.5px;}</style></defs><title>table-lamp-colorful</title><path class="cls-1" d="M18.639,22.107C17.25,21,17.1,19.343,18.4,17.769a1.5,1.5,0,0,0,.309-1.292L15.265,1.917A1.5,1.5,0,0,0,13.8.75H10.2A1.5,1.5,0,0,0,8.735,1.917L5.287,16.477A1.5,1.5,0,0,0,5.6,17.769C6.9,19.343,6.75,21,5.361,22.107c-.212.17-.148.522-.016.76A.751.751,0,0,0,6,23.25H18a.751.751,0,0,0,.655-.383C18.787,22.629,18.851,22.277,18.639,22.107Z"/><circle class="cls-1" cx="10.875" cy="11.625" r="1.875"/><path class="cls-1" d="M14.625,14.25a.375.375,0,1,1-.375.375.375.375,0,0,1,.375-.375"/><path class="cls-1" d="M13.125,6.75a.375.375,0,1,1-.375.375.375.375,0,0,1,.375-.375"/><path class="cls-1" d="M10.875,3.75a.375.375,0,1,1-.375.375.375.375,0,0,1,.375-.375"/><line class="cls-1" x1="5.317" y1="17.25" x2="18.684" y2="17.25"/></svg>