<svg id="Regular" xmlns="http://www.w3.org/2000/svg" viewBox="0 0 24 24"><defs><style>.cls-1{fill:none;stroke:currentColor;stroke-linecap:round;stroke-linejoin:round;stroke-width:1.5px;}</style></defs><title>table-lamp-retro</title><path class="cls-1" d="M21.75,12.75a.739.739,0,0,0,.75-.79c-.466-4.6-5.011-8.21-10.5-8.21S1.966,7.36,1.5,11.96a.739.739,0,0,0,.75.79Z"/><path class="cls-1" d="M9.75,3.957V3a2.25,2.25,0,0,1,4.5,0v.957"/><rect class="cls-1" x="10.5" y="12.75" width="3" height="7.5"/><path class="cls-1" d="M18,23.25H6a3,3,0,0,1,3-3h6a3,3,0,0,1,3,3Z"/><line class="cls-1" x1="7.5" y1="20.652" x2="7.5" y2="18.75"/><line class="cls-1" x1="2.873" y1="8.25" x2="21.127" y2="8.25"/></svg>