<svg id="Regular" xmlns="http://www.w3.org/2000/svg" viewBox="0 0 24 24"><defs><style>.cls-1{fill:none;stroke:currentColor;stroke-linecap:round;stroke-linejoin:round;stroke-width:1.5px;}</style></defs><title>table-lamp-4</title><path class="cls-1" d="M19.829,12.75H4.171a1.5,1.5,0,0,1-1.455-1.864l2.25-9A1.5,1.5,0,0,1,6.421.75H17.579a1.5,1.5,0,0,1,1.455,1.136l2.25,9A1.5,1.5,0,0,1,19.829,12.75Z"/><path class="cls-1" d="M9.155,12.75C7.92,14.3,6.75,16.24,6.75,18c0,3.728,2.351,5.25,5.25,5.25s5.25-1.522,5.25-5.25c0-1.76-1.17-3.7-2.4-5.25"/></svg>