<svg id="Regular" xmlns="http://www.w3.org/2000/svg" viewBox="0 0 24 24"><defs><style>.cls-1{fill:none;stroke:currentColor;stroke-linecap:round;stroke-linejoin:round;stroke-width:1.5px;}</style></defs><title>table-candles</title><line class="cls-1" x1="12" y1="7.875" x2="12" y2="22.875"/><path class="cls-1" d="M14.25,5.175A2.506,2.506,0,0,1,12,7.875a2.506,2.506,0,0,1-2.25-2.7C9.75,3.15,12,1.125,12,1.125S14.25,3.15,14.25,5.175Z"/><path class="cls-1" d="M6,7.425a2.506,2.506,0,0,1-2.25,2.7,2.506,2.506,0,0,1-2.25-2.7c0-2.025,2.25-4.05,2.25-4.05S6,5.4,6,7.425Z"/><path class="cls-1" d="M22.5,7.425a2.506,2.506,0,0,1-2.25,2.7A2.506,2.506,0,0,1,18,7.425c0-2.025,2.25-4.05,2.25-4.05S22.5,5.4,22.5,7.425Z"/><path class="cls-1" d="M20.25,10.125a8.25,8.25,0,0,1-16.5,0"/><line class="cls-1" x1="8.25" y1="22.875" x2="15.75" y2="22.875"/></svg>