<svg xmlns="http://www.w3.org/2000/svg" viewBox="0 0 24 24"><defs><style>.a{fill:none;stroke:currentColor;stroke-linecap:round;stroke-linejoin:round;stroke-width:1.5px;}</style></defs><title>tag-dollar-1</title><path class="a" d="M13.354,11.233l-1.438,1.438a1.342,1.342,0,0,0,1.478,2.182l2.042-.876a1.342,1.342,0,0,1,1.477,2.182L15.476,17.6"/><line class="a" x1="12.294" y1="12.294" x2="11.763" y2="11.763"/><line class="a" x1="17.067" y1="17.066" x2="16.536" y2="16.536"/><path class="a" d="M4.183,7.605l-.546,3.888a1.5,1.5,0,0,0,.439,1.068l9.5,9.5a1.5,1.5,0,0,0,2.122,0L22.061,15.7a1.5,1.5,0,0,0,0-2.121L12.438,3.953a1.5,1.5,0,0,0-1.1-.439L7.5,4.122"/><circle class="a" cx="8.442" cy="8.442" r="1.5"/><line class="a" x1="7.382" y1="7.382" x2="1.5" y2="1.5"/></svg>