<svg xmlns="http://www.w3.org/2000/svg" viewBox="0 0 24 24"><defs><style>.a{fill:none;stroke:currentColor;stroke-linecap:round;stroke-linejoin:round;stroke-width:1.5px;}</style></defs><title>tag-hot-price</title><line class="a" x1="12" y1="22.875" x2="12" y2="15.375"/><line class="a" x1="20.25" y1="10.875" x2="20.25" y2="3.375"/><line class="a" x1="18.75" y1="3.375" x2="21.75" y2="3.375"/><line class="a" x1="3" y1="10.875" x2="3" y2="3.375"/><line class="a" x1="6" y1="10.875" x2="6" y2="3.375"/><line class="a" x1="3" y1="7.875" x2="6" y2="7.875"/><line class="a" x1="6" y1="22.875" x2="6" y2="15.375"/><path class="a" d="M6,15.375H7.125a1.875,1.875,0,0,1,0,3.75H6"/><line class="a" x1="9" y1="22.875" x2="6.75" y2="19.125"/><path class="a" d="M18,15.375a3,3,0,0,0-3,3v1.5a3,3,0,0,0,3,3"/><line class="a" x1="0.75" y1="22.875" x2="0.75" y2="15.375"/><path class="a" d="M.75,15.375H1.5a2.25,2.25,0,0,1,0,4.5H.75"/><path class="a" d="M23.25,22.875h-1.5a1.5,1.5,0,0,1-1.5-1.5v-4.5a1.5,1.5,0,0,1,1.5-1.5h1.5"/><line class="a" x1="20.25" y1="19.875" x2="23.25" y2="19.875"/><path class="a" d="M11.708,1.125A3.887,3.887,0,0,1,12.1,5.557a1.386,1.386,0,0,1-1.477-1.182A3.134,3.134,0,0,0,9,7.329a3.546,3.546,0,0,0,3.545,3.546,3.6,3.6,0,0,0,3.546-3.546A5.894,5.894,0,0,0,11.708,1.125Z"/></svg>