<svg xmlns="http://www.w3.org/2000/svg" viewBox="0 0 24 24"><defs><style>.a{fill:none;stroke:currentColor;stroke-linecap:round;stroke-linejoin:round;stroke-width:1.5px;}</style></defs><title>tag-free-circle</title><path class="a" d="M3.218,4.937a11.252,11.252,0,0,1,17.569.068"/><path class="a" d="M3,18.75a11.225,11.225,0,0,0,17.958.023"/><path class="a" d="M1.5,15.75v-6A1.5,1.5,0,0,1,3,8.25H4.5"/><line class="a" x1="1.5" y1="12.75" x2="3.75" y2="12.75"/><line class="a" x1="7.5" y1="15.75" x2="7.5" y2="8.25"/><path class="a" d="M7.5,8.25H8.625a1.875,1.875,0,0,1,0,3.75H7.5"/><line class="a" x1="10.5" y1="15.75" x2="8.25" y2="12"/><path class="a" d="M16.5,15.75H15a1.5,1.5,0,0,1-1.5-1.5V9.75A1.5,1.5,0,0,1,15,8.25h1.5"/><line class="a" x1="13.5" y1="12.75" x2="16.5" y2="12.75"/><path class="a" d="M22.5,15.75H21a1.5,1.5,0,0,1-1.5-1.5V9.75A1.5,1.5,0,0,1,21,8.25h1.5"/><line class="a" x1="19.5" y1="12.75" x2="22.5" y2="12.75"/></svg>