<svg xmlns="http://www.w3.org/2000/svg" viewBox="0 0 24 24"><defs><style>.a{fill:none;stroke:currentColor;stroke-linecap:round;stroke-linejoin:round;stroke-width:1.5px;}</style></defs><title>tag-new-circle</title><polyline class="a" points="3 15.75 3 8.25 6 15.75 6 8.25"/><path class="a" d="M12,15.75H10.5A1.5,1.5,0,0,1,9,14.25V9.75a1.5,1.5,0,0,1,1.5-1.5H12"/><line class="a" x1="9" y1="12.75" x2="12" y2="12.75"/><path class="a" d="M15,8.25v2.017a8.982,8.982,0,0,0,.644,3.342L16.5,15.75,18,10.5l1.5,5.25.856-2.141A9,9,0,0,0,21,10.267V8.25"/><path class="a" d="M23.25,18.75v3a1.5,1.5,0,0,1-1.5,1.5H2.25a1.5,1.5,0,0,1-1.5-1.5v-3"/><path class="a" d="M.75,5.25v-3A1.5,1.5,0,0,1,2.25.75h19.5a1.5,1.5,0,0,1,1.5,1.5v3"/></svg>