<svg xmlns="http://www.w3.org/2000/svg" viewBox="0 0 24 24"><defs><style>.a{fill:none;stroke:currentColor;stroke-linecap:round;stroke-linejoin:round;stroke-width:1.5px;}</style></defs><title>tag-new</title><path class="a" d="M2.855,4.937a11.252,11.252,0,0,1,17.569.068"/><polyline class="a" points="3.362 15.75 3.362 8.25 6.362 15.75 6.362 8.25"/><path class="a" d="M12.362,15.75h-1.5a1.5,1.5,0,0,1-1.5-1.5V9.75a1.5,1.5,0,0,1,1.5-1.5h1.5"/><line class="a" x1="9.362" y1="12.75" x2="12.362" y2="12.75"/><path class="a" d="M15.362,8.25v2.017a9,9,0,0,0,.644,3.342l.856,2.141,1.5-5.25,1.5,5.25.857-2.141a9,9,0,0,0,.643-3.342V8.25"/><path class="a" d="M2.637,18.75a11.226,11.226,0,0,0,17.959.023"/></svg>