<svg xmlns="http://www.w3.org/2000/svg" viewBox="0 0 24 24"><defs><style>.a{fill:none;stroke:currentColor;stroke-linecap:round;stroke-linejoin:round;stroke-width:1.5px;}</style></defs><title>tag-yuan</title><path class="a" d="M12.751,7.454,11.719,8.486a3,3,0,0,0,4.242,4.243l1.267-1.267"/><line class="a" x1="11.719" y1="12.729" x2="8.333" y2="16.114"/><line class="a" x1="8.537" y1="12.729" x2="11.719" y2="15.911"/><circle class="a" cx="18.244" cy="5.45" r="1.445"/><path class="a" d="M21.705.75H12.331a1.546,1.546,0,0,0-1.127.487L1.168,11.908a1.536,1.536,0,0,0,.11,2.212l10.031,8.749a1.549,1.549,0,0,0,2.146-.108l9.379-10.017a1.538,1.538,0,0,0,.416-1.051V2.29A1.542,1.542,0,0,0,21.705.75Z"/></svg>