<svg id="Regular" xmlns="http://www.w3.org/2000/svg" viewBox="0 0 24 24"><defs><style>.cls-1{fill:none;stroke:currentColor;stroke-linecap:round;stroke-linejoin:round;stroke-width:1.5px;}</style></defs><title>tank-top-female-1</title><path class="cls-1" d="M19.735,5.484c-1.036-.994-1-2.039-1.283-4.306A.49.49,0,0,0,17.967.75H16.429a.489.489,0,0,0-.489.489c0,4.723-1.275,3.985-3.913,9.261C9.389,5.224,8.114,5.962,8.114,1.239A.489.489,0,0,0,7.625.75H6.087a.49.49,0,0,0-.485.428c-.28,2.225-.239,3.3-1.283,4.306C1.176,8.5,5.975,10.53,5.473,13.405L4.2,22.724a.489.489,0,0,0,.488.526H19.366a.489.489,0,0,0,.488-.526l-1.631-9.319C17.72,10.532,22.877,8.5,19.735,5.484Z"/></svg>