<svg id="Regular" xmlns="http://www.w3.org/2000/svg" viewBox="0 0 24 24"><defs><style>.cls-1{fill:none;stroke:currentColor;stroke-linecap:round;stroke-linejoin:round;stroke-width:1.5px;}</style></defs><title>tank-top</title><path class="cls-1" d="M20.25,10.994a1.5,1.5,0,0,0-1-1.415,3,3,0,0,1-2-2.829V1.5A.75.75,0,0,0,16.5.75H15a.75.75,0,0,0-.75.75V3a2.25,2.25,0,0,1-4.5,0V1.5A.75.75,0,0,0,9,.75H7.5a.75.75,0,0,0-.75.75V6.75a3,3,0,0,1-2,2.829,1.5,1.5,0,0,0-1,1.415V22.5a.75.75,0,0,0,.75.75h15a.75.75,0,0,0,.75-.75Z"/></svg>