<svg id="Regular" xmlns="http://www.w3.org/2000/svg" viewBox="0 0 24 24"><defs><style>.cls-1{fill:none;stroke:currentColor;stroke-linecap:round;stroke-linejoin:round;stroke-width:1.5px;}</style></defs><title>tank-top-female</title><path class="cls-1" d="M20.25,23.25a1.5,1.5,0,0,0,1.5-1.5V13.412a1.5,1.5,0,0,0-.429-1.051c-2.65-2.7-2.65-8.693-2.571-10.833A.752.752,0,0,0,18,.75H15.75s0,9-3.75,9-3.75-9-3.75-9H6a.752.752,0,0,0-.75.778c.079,2.14.079,8.133-2.571,10.833a1.5,1.5,0,0,0-.429,1.051V21.75a1.5,1.5,0,0,0,1.5,1.5Z"/><line class="cls-1" x1="2.25" y1="20.25" x2="21.75" y2="20.25"/><line class="cls-1" x1="8.25" y1="0.75" x2="15.75" y2="0.75"/></svg>