<svg xmlns="http://www.w3.org/2000/svg" viewBox="0 0 24 24"><defs><style>.a{fill:none;stroke:currentColor;stroke-linecap:round;stroke-linejoin:round;stroke-width:1.5px;}</style></defs><title>target-center-phone</title><path class="a" d="M17,14.979v5.25a3,3,0,0,1-3,3H6.5a3,3,0,0,1-3-3V3.729a3,3,0,0,1,3-3h6.75"/><line class="a" x1="3.5" y1="17.229" x2="17" y2="17.229"/><path class="a" d="M10.25,19.854a.375.375,0,1,0,.375.375.375.375,0,0,0-.375-.375h0"/><line class="a" x1="11.123" y1="10.356" x2="15.5" y2="5.979"/><polygon class="a" points="15.5 5.979 15.913 3.252 18.275 0.931 18.64 2.839 20.549 3.204 18.227 5.566 15.5 5.979"/><path class="a" d="M14.872,10.479a3.75,3.75,0,1,1-3.75-3.75"/></svg>