<svg xmlns="http://www.w3.org/2000/svg" viewBox="0 0 24 24"><defs><style>.a{fill:none;stroke:currentColor;stroke-linecap:round;stroke-linejoin:round;stroke-width:1.5px;}</style></defs><title>target-path</title><path class="a" d="M20.25,12.216a5.279,5.279,0,0,0,1.819-1.425"/><path class="a" d="M23.223,7.957a5.3,5.3,0,0,0-.3-2.291"/><path class="a" d="M21.07,3.228a5.1,5.1,0,0,0-2.123-.908"/><path class="a" d="M3.642,13.292A5.151,5.151,0,0,0,1.789,14.85"/><path class="a" d="M.752,17.883a5.146,5.146,0,0,0,.516,2.364"/><path class="a" d="M3.468,22.579a5.261,5.261,0,0,0,2.335.638"/><line class="a" x1="11.247" y1="8.229" x2="11.247" y2="23.229"/><polyline class="a" points="8.384 11.093 11.247 8.229 14.111 11.093"/><circle class="a" cx="11.247" cy="2.979" r="2.25"/></svg>