<svg xmlns="http://www.w3.org/2000/svg" viewBox="0 0 24 24"><defs><style>.a{fill:none;stroke:currentColor;stroke-linecap:round;stroke-linejoin:round;stroke-width:1.5px;}</style></defs><title>target-miss</title><path class="a" d="M8.261,16.49a5.21,5.21,0,0,1,.86-9.979,5.337,5.337,0,0,1,2.044.009"/><path class="a" d="M8.222,20.807A9.377,9.377,0,0,1,8.873,2.331a9.553,9.553,0,0,1,2.748.038"/><path class="a" d="M11.323,18.2A6,6,0,1,1,16.3,23.177,6.006,6.006,0,0,1,11.323,18.2Z"/><line class="a" x1="19.5" y1="15" x2="15" y2="19.5"/><line class="a" x1="15" y1="15" x2="19.5" y2="19.5"/><line class="a" x1="9.75" y1="11.859" x2="13.917" y2="7.692"/><polygon class="a" points="13.917 7.692 14.485 3.942 17.733 0.75 18.235 3.374 20.859 3.876 17.667 7.124 13.917 7.692"/></svg>