<svg xmlns="http://www.w3.org/2000/svg" viewBox="0 0 24 24"><defs><style>.a{fill:none;stroke:currentColor;stroke-linecap:round;stroke-linejoin:round;stroke-width:1.5px;}</style></defs><title>target-center-monitor</title><polygon class="a" points="15.75 23.229 8.25 23.229 9 18.729 15 18.729 15.75 23.229"/><line class="a" x1="6" y1="23.229" x2="18" y2="23.229"/><line class="a" x1="0.75" y1="15.729" x2="23.25" y2="15.729"/><path class="a" d="M22.919,5.358a2.981,2.981,0,0,1,.331,1.371v9a3,3,0,0,1-3,3H3.75a3,3,0,0,1-3-3v-9a3,3,0,0,1,3-3h6"/><line class="a" x1="11.252" y1="9.606" x2="15.08" y2="5.778"/><polygon class="a" points="15.08 5.778 15.493 3.051 17.855 0.729 18.22 2.637 20.128 3.003 17.807 5.365 15.08 5.778"/><path class="a" d="M15,9.729a3.75,3.75,0,1,1-3.75-3.75"/></svg>