<svg xmlns="http://www.w3.org/2000/svg" viewBox="0 0 24 24"><defs><style>.a{fill:none;stroke:currentColor;stroke-linecap:round;stroke-linejoin:round;stroke-width:1.5px;}</style></defs><title>task-list-sync</title><polyline class="a" points="15 18.761 11.25 18.761 11.25 22.511"/><path class="a" d="M22.667,19.494a5.572,5.572,0,0,1-10.74-.733"/><polyline class="a" points="19.5 15.761 23.25 15.761 23.25 12.011"/><path class="a" d="M11.833,15.028a5.572,5.572,0,0,1,10.74.733"/><line class="a" x1="5.25" y1="10.511" x2="9.75" y2="10.511"/><line class="a" x1="5.25" y1="14.261" x2="8.25" y2="14.261"/><line class="a" x1="5.25" y1="18.011" x2="8.25" y2="18.011"/><path class="a" d="M7.5,23.261H2.25a1.5,1.5,0,0,1-1.5-1.5V6.011a1.5,1.5,0,0,1,1.5-1.5H6a3.75,3.75,0,0,1,7.5,0h3.75a1.5,1.5,0,0,1,1.5,1.5v2.25"/><path class="a" d="M9.75,3.761a.375.375,0,1,1-.375.375.375.375,0,0,1,.375-.375"/></svg>