<svg xmlns="http://www.w3.org/2000/svg" viewBox="0 0 24 24"><defs><style>.a{fill:none;stroke:currentColor;stroke-linecap:round;stroke-linejoin:round;stroke-width:1.5px;}</style></defs><title>task-list-star</title><path class="a" d="M17.947,11.691l1.541,4.07h3a.735.735,0,0,1,.518,1.283l-2.6,1.815,1.442,3.314a.786.786,0,0,1-1.119.982L17.24,21.194l-3.487,1.961a.786.786,0,0,1-1.119-.982l1.443-3.314-2.6-1.815a.734.734,0,0,1,.515-1.283h3l1.544-4.07A.8.8,0,0,1,17.947,11.691Z"/><line class="a" x1="5.25" y1="10.511" x2="12" y2="10.511"/><line class="a" x1="5.25" y1="14.261" x2="7.5" y2="14.261"/><line class="a" x1="5.25" y1="18.011" x2="7.5" y2="18.011"/><path class="a" d="M9,23.261H2.25a1.5,1.5,0,0,1-1.5-1.5V6.011a1.5,1.5,0,0,1,1.5-1.5H6a3.75,3.75,0,0,1,7.5,0h3.75a1.5,1.5,0,0,1,1.5,1.5v2.25"/><path class="a" d="M9.75,3.761a.375.375,0,1,1-.375.375.375.375,0,0,1,.375-.375"/></svg>