<svg xmlns="http://www.w3.org/2000/svg" viewBox="0 0 24 24"><defs><style>.a{fill:none;stroke:currentColor;stroke-linecap:round;stroke-linejoin:round;stroke-width:1.5px;}</style></defs><title>task-list-add-1</title><path class="a" d="M22.371,17.389l-4.992,4.992a3,3,0,0,1-2.122.879H3.75a3,3,0,0,1-3-3V3.76a3,3,0,0,1,3-3h16.5a3,3,0,0,1,3,3V15.267A3,3,0,0,1,22.371,17.389Z"/><path class="a" d="M15.75,23.219V18.76a3,3,0,0,1,3-3h4.459"/><line class="a" x1="15.75" y1="9.76" x2="8.25" y2="9.76"/><line class="a" x1="12" y1="6.01" x2="12" y2="13.51"/></svg>