<svg xmlns="http://www.w3.org/2000/svg" viewBox="0 0 24 24"><defs><style>.a{fill:none;stroke:currentColor;stroke-linecap:round;stroke-linejoin:round;stroke-width:1.5px;}</style></defs><title>task-list-check_1</title><path class="a" d="M16.313,7.68l-5.592,5.592a.82.82,0,0,1-1.158,0L7.688,11.4"/><path class="a" d="M22.371,17.39l-4.992,4.993a3,3,0,0,1-2.122.878H3.75a3,3,0,0,1-3-3V3.761a3,3,0,0,1,3-3h16.5a3,3,0,0,1,3,3V15.269A3,3,0,0,1,22.371,17.39Z"/><path class="a" d="M15.75,23.22V18.761a3,3,0,0,1,3-3h4.459"/></svg>