<svg xmlns="http://www.w3.org/2000/svg" viewBox="0 0 24 24"><defs><style>.a{fill:none;stroke:currentColor;stroke-linecap:round;stroke-linejoin:round;stroke-width:1.5px;}</style></defs><title>task-list-settings</title><circle class="a" cx="17.25" cy="16.511" r="1.5"/><path class="a" d="M18.524,10.708l.442,1.453a.994.994,0,0,0,1.174.681l1.472-.341a1.339,1.339,0,0,1,1.275,2.218L21.856,15.83a1,1,0,0,0,0,1.362L22.887,18.3a1.339,1.339,0,0,1-1.275,2.218L20.14,20.18a.994.994,0,0,0-1.174.681l-.442,1.453a1.33,1.33,0,0,1-2.548,0l-.442-1.453a.994.994,0,0,0-1.174-.681l-1.472.341A1.339,1.339,0,0,1,11.613,18.3l1.031-1.111a1,1,0,0,0,0-1.362l-1.031-1.111A1.339,1.339,0,0,1,12.888,12.5l1.472.341a.994.994,0,0,0,1.174-.681l.442-1.453A1.33,1.33,0,0,1,18.524,10.708Z"/><line class="a" x1="5.25" y1="10.511" x2="9.75" y2="10.511"/><line class="a" x1="5.25" y1="14.261" x2="7.5" y2="14.261"/><line class="a" x1="5.25" y1="18.011" x2="7.5" y2="18.011"/><path class="a" d="M9.75,23.261H2.25a1.5,1.5,0,0,1-1.5-1.5V6.011a1.5,1.5,0,0,1,1.5-1.5H6a3.75,3.75,0,0,1,7.5,0h3.75a1.5,1.5,0,0,1,1.5,1.5v.75"/><path class="a" d="M9.75,3.761a.375.375,0,1,1-.375.375.375.375,0,0,1,.375-.375"/></svg>