<svg xmlns="http://www.w3.org/2000/svg" viewBox="0 0 24 24"><defs><style>.a{fill:none;stroke:currentColor;stroke-linecap:round;stroke-linejoin:round;stroke-width:1.5px;}</style></defs><title>task-list-lock</title><rect class="a" x="14.25" y="15.761" width="9" height="7.5" rx="1" ry="1"/><path class="a" d="M21.75,15.761v-1.5a3,3,0,0,0-3-3h0a3,3,0,0,0-3,3v1.5"/><path class="a" d="M18.75,19.165a.375.375,0,1,1-.375.375.375.375,0,0,1,.375-.375"/><line class="a" x1="5.25" y1="10.511" x2="12.75" y2="10.511"/><line class="a" x1="5.25" y1="14.261" x2="9.75" y2="14.261"/><line class="a" x1="5.25" y1="18.011" x2="9.75" y2="18.011"/><path class="a" d="M11.25,23.261h-9a1.5,1.5,0,0,1-1.5-1.5V6.011a1.5,1.5,0,0,1,1.5-1.5H6a3.75,3.75,0,0,1,7.5,0h3.75a1.5,1.5,0,0,1,1.5,1.5v2.25"/><path class="a" d="M9.75,3.761a.375.375,0,1,1-.375.375.375.375,0,0,1,.375-.375"/></svg>