<svg xmlns="http://www.w3.org/2000/svg" viewBox="0 0 24 24"><defs><style>.a{fill:none;stroke:currentColor;stroke-linecap:round;stroke-linejoin:round;stroke-width:1.5px;}</style></defs><title>task-finger-show</title><path class="a" d="M20.674,23.26l-2.96-1.753a1.705,1.705,0,0,1-.692-1.671V18.012l-1.106-1.107a1.326,1.326,0,0,1,.2-2.041h0a1.327,1.327,0,0,1,1.673.166l1.56,1.561"/><path class="a" d="M17.272,9.4l4.162,3.683a4.5,4.5,0,0,1,.838,2.616V17.88a2.362,2.362,0,0,0,.692,1.67l.286.286"/><path class="a" d="M8.564,23.26l2.426-2.982a1.27,1.27,0,0,0-.159-1.76,1.2,1.2,0,0,0-1.722.162l-.837.716V13.51a1.5,1.5,0,0,0-3,0v3.75H4.033A3.3,3.3,0,0,0,.772,20.592v2.667"/><path class="a" d="M17.272,14.713V4.511a.75.75,0,0,0-.75-.75h-4.5a3,3,0,0,0-6,0h-4.5a.75.75,0,0,0-.75.75V14.26"/><path class="a" d="M9.022,3.386a.375.375,0,1,1-.375.375.374.374,0,0,1,.375-.375"/></svg>