<svg xmlns="http://www.w3.org/2000/svg" viewBox="0 0 24 24"><defs><style>.a{fill:none;stroke:currentColor;stroke-linecap:round;stroke-linejoin:round;stroke-width:1.5px;}</style></defs><title>task-list-text</title><path class="a" d="M22.371,17.38l-4.992,4.992a3,3,0,0,1-2.122.879H3.75a3,3,0,0,1-3-3V3.751a3,3,0,0,1,3-3h16.5a3,3,0,0,1,3,3V15.258A3,3,0,0,1,22.371,17.38Z"/><path class="a" d="M15.75,23.21V18.751a3,3,0,0,1,3-3h4.459"/><line class="a" x1="7" y1="5" x2="7" y2="19"/><line class="a" x1="4" y1="7.5" x2="18" y2="7.5"/><line class="a" x1="4" y1="12" x2="18" y2="12"/><line class="a" x1="4" y1="16.5" x2="12" y2="16.5"/></svg>