<svg xmlns="http://www.w3.org/2000/svg" viewBox="0 0 24 24"><defs><style>.a{fill:none;stroke:currentColor;stroke-linecap:round;stroke-linejoin:round;stroke-width:1.5px;}</style></defs><title>task-list-approve</title><line class="a" x1="11.25" y1="14.261" x2="16.5" y2="14.261"/><line class="a" x1="11.25" y1="18.761" x2="16.5" y2="18.761"/><path class="a" d="M8.25,13.886a.375.375,0,1,1-.375.375.375.375,0,0,1,.375-.375"/><line class="a" x1="11.25" y1="9.761" x2="16.5" y2="9.761"/><path class="a" d="M8.25,9.386a.375.375,0,1,1-.375.375.375.375,0,0,1,.375-.375"/><path class="a" d="M8.25,18.386a.375.375,0,1,1-.375.375.375.375,0,0,1,.375-.375"/><path class="a" d="M15.75,4.511H19.5a1.5,1.5,0,0,1,1.5,1.5v15.75a1.5,1.5,0,0,1-1.5,1.5H4.5a1.5,1.5,0,0,1-1.5-1.5V6.011a1.5,1.5,0,0,1,1.5-1.5H8.25a3.75,3.75,0,0,1,7.5,0Z"/><path class="a" d="M12,3.761a.375.375,0,1,1-.375.375A.375.375,0,0,1,12,3.761"/></svg>