<svg xmlns="http://www.w3.org/2000/svg" viewBox="0 0 24 24"><defs><style>.a{fill:none;stroke:currentColor;stroke-linecap:round;stroke-linejoin:round;stroke-width:1.5px;}</style></defs><title>taxi-driver</title><circle class="a" cx="19.5" cy="6.75" r="3"/><path class="a" d="M23.25,17.25V15a3.75,3.75,0,0,0-7.5,0v2.25h1.5l.75,6h3l.75-6Z"/><line class="a" x1="12.75" y1="0.75" x2="10.5" y2="0.75"/><path class="a" d="M7.5.75A1.5,1.5,0,0,0,6,2.25"/><line class="a" x1="15.75" y1="0.75" x2="17.25" y2="0.75"/><line class="a" x1="3.75" y1="12.75" x2="5.25" y2="12.75"/><line class="a" x1="9.75" y1="12.75" x2="11.25" y2="12.75"/><line class="a" x1="2.25" y1="15.75" x2="2.25" y2="17.25"/><line class="a" x1="12.75" y1="15.75" x2="12.75" y2="17.25"/><line class="a" x1="2.25" y1="9.75" x2="12.75" y2="9.75"/><path class="a" d="M13.819,11.353,12.75,9.75,11.592,6.276A1.5,1.5,0,0,0,10.169,5.25H4.831A1.5,1.5,0,0,0,3.408,6.276L2.25,9.75,1,11.622a1.5,1.5,0,0,0-.252.832v1.8a1.5,1.5,0,0,0,1.5,1.5h10.5"/></svg>