<svg xmlns="http://www.w3.org/2000/svg" viewBox="0 0 24 24"><defs><style>.a{fill:none;stroke:currentColor;stroke-linecap:round;stroke-linejoin:round;stroke-width:1.5px;}</style></defs><title>taxi-van</title><circle class="a" cx="6.75" cy="17.75" r="1.5"/><circle class="a" cx="18.75" cy="17.75" r="1.5"/><line class="a" x1="8.25" y1="17.75" x2="17.25" y2="17.75"/><path class="a" d="M23.25,6.5H11.294A3,3,0,0,0,8.853,7.756L6,11.75H4.041a3,3,0,0,0-2.959,2.507L.75,16.25a1.5,1.5,0,0,0,1.5,1.5h3"/><line class="a" x1="20.25" y1="17.75" x2="23.25" y2="17.75"/><line class="a" x1="6" y1="11.75" x2="23.25" y2="11.75"/><line class="a" x1="12.75" y1="6.5" x2="12.75" y2="17.75"/><line class="a" x1="18" y1="11.75" x2="18" y2="6.5"/><line class="a" x1="23.25" y1="11.75" x2="23.25" y2="6.5"/></svg>