<svg xmlns="http://www.w3.org/2000/svg" viewBox="0 0 24 24"><defs><style>.a{fill:none;stroke:currentColor;stroke-linecap:round;stroke-linejoin:round;stroke-width:1.5px;}</style></defs><title>taxi-1</title><circle class="a" cx="5.25" cy="19" r="1.5"/><circle class="a" cx="18.75" cy="19" r="1.5"/><path class="a" d="M20.25,19h1.5a1.5,1.5,0,0,0,1.5-1.5v-3a1.5,1.5,0,0,0-1.5-1.5h-3a6,6,0,0,0-6-6h-3A1.921,1.921,0,0,0,7.886,8.455L6.75,13h-3a3,3,0,0,0-3,3v1.5A1.5,1.5,0,0,0,2.25,19h1.5"/><line class="a" x1="6.75" y1="19" x2="17.25" y2="19"/><line class="a" x1="6.75" y1="13" x2="18.75" y2="13"/><line class="a" x1="8.25" y1="16" x2="9" y2="16"/><line class="a" x1="12" y1="16" x2="12.75" y2="16"/><line class="a" x1="15.75" y1="16" x2="16.5" y2="16"/><path class="a" d="M9.75,7V5.5A1.5,1.5,0,0,1,11.25,4H12a1.5,1.5,0,0,1,1.5,1.5V7.047"/></svg>