<svg xmlns="http://www.w3.org/2000/svg" viewBox="0 0 24 24"><defs><style>.a{fill:none;stroke:currentColor;stroke-linecap:round;stroke-linejoin:round;stroke-width:1.5px;}</style></defs><title>taxi-station</title><line class="a" x1="3.75" y1="10.5" x2="3.75" y2="23.25"/><rect class="a" x="0.75" y="0.75" width="6" height="9.75" rx="0.5" ry="0.5"/><line class="a" x1="11.25" y1="18.75" x2="12.75" y2="18.75"/><line class="a" x1="18.75" y1="18.75" x2="20.25" y2="18.75"/><line class="a" x1="9.75" y1="21.75" x2="9.75" y2="23.25"/><line class="a" x1="21.75" y1="21.75" x2="21.75" y2="23.25"/><path class="a" d="M19.169,11.25a1.5,1.5,0,0,1,1.423,1.026L21.75,15.75,23,17.622a1.5,1.5,0,0,1,.252.832v1.8a1.5,1.5,0,0,1-1.5,1.5h-12a1.5,1.5,0,0,1-1.5-1.5v-1.8a1.5,1.5,0,0,1,.252-.832L9.75,15.75l1.158-3.474a1.5,1.5,0,0,1,1.423-1.026Z"/><line class="a" x1="9.75" y1="15.75" x2="21.75" y2="15.75"/></svg>