<svg id="Regular" xmlns="http://www.w3.org/2000/svg" viewBox="0 0 24 24"><defs><style>.cls-1{fill:none;stroke:currentColor;stroke-linecap:round;stroke-linejoin:round;stroke-width:1.5px;}</style></defs><title>tea-herbal-to-go</title><rect class="cls-1" x="0.75" y="5.25" width="18" height="3" rx="1.5" ry="1.5"/><path class="cls-1" d="M7.5,23.25H5.093A1.5,1.5,0,0,1,3.6,21.916L2.25,8.25h15"/><path class="cls-1" d="M2.715,12.947a3.865,3.865,0,0,1,1.035-.2,3,3,0,0,1,0,6c-.1,0-.363-.024-.465-.035"/><line class="cls-1" x1="0.75" y1="0.75" x2="5.25" y2="5.25"/><line class="cls-1" x1="10.558" y1="23.25" x2="21.901" y2="11.907"/><polyline class="cls-1" points="16.287 13.74 16.586 17.221 20.068 17.521"/><polyline class="cls-1" points="13.105 16.922 13.404 20.403 16.886 20.703"/><polyline class="cls-1" points="19.469 10.558 19.768 14.039 23.25 14.339"/></svg>