<svg id="Regular" xmlns="http://www.w3.org/2000/svg" viewBox="0 0 24 24"><defs><style>.cls-1{fill:none;stroke:currentColor;stroke-linecap:round;stroke-linejoin:round;stroke-width:1.5px;}</style></defs><title>tea-cup-herbal</title><line class="cls-1" x1="10.526" y1="21.75" x2="21.84" y2="10.349"/><polyline class="cls-1" points="16.226 12.182 16.525 15.664 20.007 15.963"/><polyline class="cls-1" points="13.044 15.364 13.343 18.846 16.825 19.145"/><polyline class="cls-1" points="19.408 9 19.707 12.482 23.189 12.781"/><path class="cls-1" d="M7.451,21.75A8.039,8.039,0,0,1,.775,13.829V3.857A1.608,1.608,0,0,1,2.383,2.25H14.168a1.608,1.608,0,0,1,1.608,1.607V6.75"/><line class="cls-1" x1="0.775" y1="21.75" x2="22.525" y2="21.75"/><path class="cls-1" d="M15.772,3.75h3a4.518,4.518,0,0,1,4.45,3.826"/><line class="cls-1" x1="6.775" y1="2.25" x2="6.775" y2="6.75"/><rect class="cls-1" x="3.775" y="6.75" width="6" height="6" rx="1.5" ry="1.5"/></svg>