<svg id="Regular" xmlns="http://www.w3.org/2000/svg" viewBox="0 0 24 24"><defs><style>.cls-1{fill:none;stroke:currentColor;stroke-linecap:round;stroke-linejoin:round;stroke-width:1.5px;}</style></defs><title>tea-kettle-1</title><line class="cls-1" x1="0.867" y1="20.25" x2="18.682" y2="20.25"/><line class="cls-1" x1="3.48" y1="8.25" x2="16.065" y2="8.25"/><line class="cls-1" x1="9.773" y1="2.25" x2="9.773" y2="0.75"/><path class="cls-1" d="M18.749,21.7C18.41,10.827,14.521,2.25,9.773,2.25c-2.452,0-4.675,2.288-6.3,6H.75L2.1,12.287A42.656,42.656,0,0,0,.8,21.7,1.5,1.5,0,0,0,2.3,23.25H17.25A1.5,1.5,0,0,0,18.749,21.7Z"/><circle class="cls-1" cx="9.75" cy="14.25" r="3"/><path class="cls-1" d="M18.4,17.235a5.25,5.25,0,1,0-2.765-9.922"/></svg>