<svg id="Regular" xmlns="http://www.w3.org/2000/svg" viewBox="0 0 24 24"><defs><style>.cls-1{fill:none;stroke:currentColor;stroke-linecap:round;stroke-linejoin:round;stroke-width:1.5px;}</style></defs><title>tea-box-herbal</title><line class="cls-1" x1="10.529" y1="23.192" x2="21.872" y2="11.849"/><polyline class="cls-1" points="16.258 13.682 16.558 17.164 20.039 17.463"/><polyline class="cls-1" points="13.076 16.864 13.376 20.346 16.857 20.645"/><polyline class="cls-1" points="19.44 10.5 19.74 13.982 23.221 14.281"/><path class="cls-1" d="M17.312,7.507,15.779,5.25h-12L.937,9.433a1.5,1.5,0,0,0-.158.671V21.75a1.5,1.5,0,0,0,1.5,1.5h3.75"/><path class="cls-1" d="M15.779,2.25a1.5,1.5,0,0,0-1.5-1.5h-9a1.5,1.5,0,0,0-1.5,1.5v3h12Z"/><line class="cls-1" x1="4.529" y1="9.75" x2="15.029" y2="9.75"/><path class="cls-1" d="M9.779,19.5a3,3,0,1,1,1.43-5.638"/></svg>