<svg id="Regular" xmlns="http://www.w3.org/2000/svg" viewBox="0 0 24 24"><defs><style>.cls-1{fill:none;stroke:currentColor;stroke-linecap:round;stroke-linejoin:round;stroke-width:1.5px;}</style></defs><title>tea-bottle-herbal</title><path class="cls-1" d="M14.83,11.138A6.574,6.574,0,0,0,11.25,8.25h0V3.75h-6v4.5h0a6.582,6.582,0,0,0-4.5,6.243V21.75a1.5,1.5,0,0,0,1.5,1.5H7.5"/><path class="cls-1" d="M12.75,2.25a1.5,1.5,0,0,1-1.5,1.5h-6a1.5,1.5,0,0,1,0-3h6A1.5,1.5,0,0,1,12.75,2.25Z"/><line class="cls-1" x1="10.558" y1="23.25" x2="21.901" y2="11.907"/><polyline class="cls-1" points="16.287 13.74 16.586 17.221 20.068 17.521"/><polyline class="cls-1" points="13.105 16.922 13.404 20.403 16.886 20.703"/><polyline class="cls-1" points="19.469 10.558 19.768 14.039 23.25 14.339"/><path class="cls-1" d="M10.5,15A2.25,2.25,0,0,1,6,15c0-1.243,2.25-3.75,2.25-3.75S10.5,13.757,10.5,15Z"/></svg>