<svg xmlns="http://www.w3.org/2000/svg" viewBox="0 0 24 24"><defs><style>.a{fill:none;stroke:currentColor;stroke-linecap:round;stroke-linejoin:round;stroke-width:1.5px;}</style></defs><title>team-meeting-message-lock-1</title><circle class="a" cx="4.974" cy="15.75" r="3"/><path class="a" d="M9.2,23.25a4.474,4.474,0,0,0-8.449,0"/><path class="a" d="M21.241,14.589a3,3,0,0,1-5.193,2.927"/><path class="a" d="M22.7,23.25a4.474,4.474,0,0,0-8.449,0"/><path class="a" d="M21,.75h.75a1.5,1.5,0,0,1,1.5,1.5V10.5a1.5,1.5,0,0,1-1.5,1.5h-4.5l-4.5,4.5V12h-3a1.5,1.5,0,0,1-1.5-1.5V2.25a1.5,1.5,0,0,1,1.5-1.5h1.5"/><path class="a" d="M15.749,6.375a.375.375,0,1,1-.375.375.375.375,0,0,1,.375-.375"/><rect class="a" x="11.999" y="3.75" width="7.5" height="6" rx="0.25" ry="0.25"/><path class="a" d="M13.749,3.75v-1a2,2,0,1,1,4,0v1"/></svg>