<svg xmlns="http://www.w3.org/2000/svg" viewBox="0 0 24 24"><defs><style>.a{fill:none;stroke:currentColor;stroke-linecap:round;stroke-linejoin:round;stroke-width:1.5px;}</style></defs><title>team-meeting-chat</title><path class="a" d="M22.749,23.25a6.73,6.73,0,0,0-6.337-4.5h-.006a6.728,6.728,0,0,0-6.336,4.5"/><path class="a" d="M12.851,11.031a6.858,6.858,0,0,0,7.643,1.536"/><circle class="a" cx="16.406" cy="13.125" r="4.125"/><path class="a" d="M11.156,8.25h-1.5V10.5l-3-2.25h-4.5a1.5,1.5,0,0,1-1.5-1.5V2.25a1.5,1.5,0,0,1,1.5-1.5h9a1.5,1.5,0,0,1,1.5,1.5v4.5A1.5,1.5,0,0,1,11.156,8.25Z"/><line class="a" x1="7.406" y1="3" x2="3.656" y2="3"/><line class="a" x1="9.656" y1="5.25" x2="3.656" y2="5.25"/><circle class="a" cx="5.499" cy="15.75" r="3"/><path class="a" d="M8.162,21.132A4.436,4.436,0,0,0,5.5,20.25a4.487,4.487,0,0,0-4.225,3"/><line class="a" x1="16.406" y1="18.75" x2="16.406" y2="23.25"/></svg>