<svg xmlns="http://www.w3.org/2000/svg" viewBox="0 0 24 24"><defs><style>.a{fill:none;stroke:currentColor;stroke-linecap:round;stroke-linejoin:round;stroke-width:1.5px;}</style></defs><title>team-meeting-message-question_1</title><circle class="a" cx="5.249" cy="15.75" r="3"/><path class="a" d="M9.473,23.25a4.474,4.474,0,0,0-8.449,0"/><path class="a" d="M21.516,14.589a3,3,0,0,1-5.192,2.927"/><path class="a" d="M22.973,23.25a4.474,4.474,0,0,0-8.449,0"/><path class="a" d="M21,.75h.75a1.5,1.5,0,0,1,1.5,1.5V10.5a1.5,1.5,0,0,1-1.5,1.5h-4.5l-4.5,4.5V12h-3a1.5,1.5,0,0,1-1.5-1.5V2.25a1.5,1.5,0,0,1,1.5-1.5h1.5"/><path class="a" d="M13.874,3.375A1.875,1.875,0,1,1,15.749,5.25"/><path class="a" d="M15.749,8.25a.375.375,0,1,1-.375.375.375.375,0,0,1,.375-.375"/></svg>