<svg xmlns="http://www.w3.org/2000/svg" viewBox="0 0 24 24"><defs><style>.a{fill:none;stroke:currentColor;stroke-linecap:round;stroke-linejoin:round;stroke-width:1.5px;}</style></defs><title>team-approve-disapprove</title><circle class="a" cx="4.973" cy="16.875" r="2.625"/><path class="a" d="M9.2,23.25a4.474,4.474,0,0,0-8.449,0"/><path class="a" d="M9,9.75V12L6,9.75H2.249a1.5,1.5,0,0,1-1.5-1.5v-6a1.5,1.5,0,0,1,1.5-1.5H10.5"/><polyline class="a" points="3.749 5.25 5.249 6.75 8.999 3.75"/><circle class="a" cx="19.025" cy="16.875" r="2.625"/><path class="a" d="M14.8,23.25a4.474,4.474,0,0,1,8.449,0"/><path class="a" d="M13.5,12h.75v2.25l3-2.25h4.5a1.5,1.5,0,0,0,1.5-1.5v-6a1.5,1.5,0,0,0-1.5-1.5H13.5A1.5,1.5,0,0,0,12,4.5v6A1.5,1.5,0,0,0,13.5,12Z"/><line class="a" x1="19.499" y1="9" x2="15.749" y2="6"/><line class="a" x1="15.749" y1="9" x2="19.499" y2="6"/></svg>