<svg xmlns="http://www.w3.org/2000/svg" viewBox="0 0 24 24"><defs><style>.a{fill:none;stroke:currentColor;stroke-linecap:round;stroke-linejoin:round;stroke-width:1.5px;}</style></defs><title>team-meeting-flash</title><circle class="a" cx="4.499" cy="5.25" r="3"/><path class="a" d="M5.825,9.991A3.753,3.753,0,0,0,.749,13.5v2.25h1.5l.75,6H6l.75-6h1.5"/><circle class="a" cx="19.499" cy="5.25" r="3"/><path class="a" d="M19.019,9.78a3.8,3.8,0,0,1,.48-.03,3.75,3.75,0,0,1,3.75,3.75v2.25h-1.5l-.75,6H18l-.75-6h-1.5"/><path class="a" d="M14.029,6l-5.36,5.36a.375.375,0,0,0,.266.64h2.094v4.5l5.36-5.36a.375.375,0,0,0-.265-.64H14.029Z"/></svg>