<svg id="Regular" xmlns="http://www.w3.org/2000/svg" viewBox="0 0 24 24"><defs><style>.cls-1{fill:none;stroke:currentColor;stroke-linecap:round;stroke-linejoin:round;stroke-width:1.5px;}</style></defs><title>technology-bandage-chip</title><rect class="cls-1" x="8.25" y="8.25" width="7.5" height="7.5" rx="1" ry="1" transform="translate(12 -4.971) rotate(45)"/><line class="cls-1" x1="13.061" y1="7.757" x2="14.652" y2="6.166"/><line class="cls-1" x1="16.243" y1="10.939" x2="17.834" y2="9.348"/><line class="cls-1" x1="6.166" y1="14.652" x2="7.757" y2="13.061"/><line class="cls-1" x1="9.348" y1="17.834" x2="10.939" y2="16.243"/><line class="cls-1" x1="16.243" y1="13.061" x2="17.834" y2="14.652"/><line class="cls-1" x1="13.061" y1="16.243" x2="14.652" y2="17.834"/><line class="cls-1" x1="9.348" y1="6.166" x2="10.939" y2="7.757"/><line class="cls-1" x1="6.166" y1="9.348" x2="7.757" y2="10.939"/><path class="cls-1" d="M4.007,11.507l-1.5,1.5a6,6,0,0,0,8.486,8.486l1.5-1.5"/><path class="cls-1" d="M11.507,4.007l1.5-1.5a6,6,0,0,1,8.486,8.486l-1.5,1.5"/></svg>