<svg id="Regular" xmlns="http://www.w3.org/2000/svg" viewBox="0 0 24 24"><defs><style>.cls-1{fill:none;stroke:currentColor;stroke-linecap:round;stroke-linejoin:round;stroke-width:1.5px;}</style></defs><title>technology-prosthetic-leg</title><path class="cls-1" d="M13.578,10.249a4.488,4.488,0,0,0,1.672-3.5v-3a3,3,0,0,0-6,0H7.75a1.5,1.5,0,0,0-1.5,1.5v1.5a4.488,4.488,0,0,0,1.672,3.5"/><circle class="cls-1" cx="10.75" cy="11.25" r="3"/><line class="cls-1" x1="10.75" y1="14.25" x2="10.75" y2="19.179"/><path class="cls-1" d="M18.25,21.75a1.5,1.5,0,0,1-1.5,1.5H9.25a1.5,1.5,0,0,1-1.5-1.5V20.479A1.5,1.5,0,0,1,9.462,19l7.5,1.071a1.5,1.5,0,0,1,1.288,1.485Z"/></svg>