<svg id="Regular" xmlns="http://www.w3.org/2000/svg" viewBox="0 0 24 24"><defs><style>.cls-1{fill:none;stroke:currentColor;stroke-linecap:round;stroke-linejoin:round;stroke-width:1.5px;}</style></defs><title>technology-hand-chip</title><rect class="cls-1" x="15.75" y="13.5" width="6" height="6" rx="1" ry="1"/><line class="cls-1" x1="17.25" y1="13.5" x2="17.25" y2="12"/><line class="cls-1" x1="20.25" y1="13.5" x2="20.25" y2="12"/><line class="cls-1" x1="17.25" y1="21" x2="17.25" y2="19.5"/><line class="cls-1" x1="20.25" y1="21" x2="20.25" y2="19.5"/><line class="cls-1" x1="21.75" y1="15" x2="23.25" y2="15"/><line class="cls-1" x1="21.75" y1="18" x2="23.25" y2="18"/><line class="cls-1" x1="14.25" y1="15" x2="15.75" y2="15"/><line class="cls-1" x1="14.25" y1="18" x2="15.75" y2="18"/><path class="cls-1" d="M12.75,10.5a1.5,1.5,0,0,0-3,0v-6a1.5,1.5,0,0,0-3,0V3a1.5,1.5,0,0,0-3,0V6a1.5,1.5,0,0,0-3,0V22.5"/><line class="cls-1" x1="3.75" y1="6" x2="3.75" y2="10.5"/><line class="cls-1" x1="6.75" y1="4.5" x2="6.75" y2="10.5"/><line class="cls-1" x1="9.75" y1="10.5" x2="9.75" y2="13.5"/><path class="cls-1" d="M9.75,22.5s0-3,2.25-3"/><line class="cls-1" x1="11.25" y1="16.5" x2="6.694" y2="16.5"/><path class="cls-1" d="M5.25,13.5a5.738,5.738,0,0,1,1.5,3.75A5.738,5.738,0,0,1,5.25,21a5.738,5.738,0,0,1-1.5-3.75A5.738,5.738,0,0,1,5.25,13.5Z"/></svg>