<svg id="Regular" xmlns="http://www.w3.org/2000/svg" viewBox="0 0 24 24"><defs><style>.cls-1{fill:none;stroke:currentColor;stroke-linecap:round;stroke-linejoin:round;stroke-width:1.5px;}</style></defs><title>technology-pill</title><path class="cls-1" d="M15.788,22.152a3.75,3.75,0,0,1-5.3-5.3l6.364-6.364a3.75,3.75,0,1,1,5.3,5.3Z"/><line class="cls-1" x1="13.666" y1="13.666" x2="18.97" y2="18.97"/><rect class="cls-1" x="3" y="3" width="7.5" height="7.5" rx="1" ry="1"/><line class="cls-1" x1="4.5" y1="3" x2="4.5" y2="0.75"/><line class="cls-1" x1="9" y1="3" x2="9" y2="0.75"/><line class="cls-1" x1="4.5" y1="12.75" x2="4.5" y2="10.5"/><line class="cls-1" x1="9" y1="12.75" x2="9" y2="10.5"/><line class="cls-1" x1="10.5" y1="4.5" x2="12.75" y2="4.5"/><line class="cls-1" x1="10.5" y1="9" x2="12.75" y2="9"/><line class="cls-1" x1="0.75" y1="4.5" x2="3" y2="4.5"/><line class="cls-1" x1="0.75" y1="9" x2="3" y2="9"/></svg>