<svg id="Regular" xmlns="http://www.w3.org/2000/svg" viewBox="0 0 24 24"><defs><style>.cls-1{fill:none;stroke:#000;stroke-linecap:round;stroke-linejoin:round;stroke-width:1.5px;}</style></defs><title>technology-fitbit</title><circle class="cls-1" cx="20.69" cy="12" r="1.96"/><circle class="cls-1" cx="10.42" cy="12" r="1.47"/><path class="cls-1" d="M6,12.75A.75.75,0,1,1,6.77,12a.75.75,0,0,1-.75.75"/><path class="cls-1" d="M2.1,12.75A.75.75,0,1,1,2.85,12a.75.75,0,0,1-.75.75"/><circle class="cls-1" cx="10.42" cy="16.89" r="1.47"/><path class="cls-1" d="M6,17.64a.75.75,0,1,1,.75-.75.75.75,0,0,1-.75.75"/><circle class="cls-1" cx="10.42" cy="7.11" r="1.47"/><circle class="cls-1" cx="15.31" cy="12" r="1.47"/><circle class="cls-1" cx="15.31" cy="16.89" r="1.47"/><circle class="cls-1" cx="15.31" cy="7.11" r="1.47"/><circle class="cls-1" cx="10.42" cy="2.22" r="1.47"/><circle class="cls-1" cx="10.42" cy="21.78" r="1.47"/><path class="cls-1" d="M6,7.86a.75.75,0,1,1,.75-.75A.75.75,0,0,1,6,7.86"/></svg>