<svg id="Regular" xmlns="http://www.w3.org/2000/svg" viewBox="0 0 24 24"><defs><style>.cls-1{fill:none;stroke:currentColor;stroke-linecap:round;stroke-linejoin:round;stroke-width:1.5px;}</style></defs><title>technology-chip-hold</title><rect class="cls-1" x="2.25" y="8.25" width="6" height="6" rx="1" ry="1"/><line class="cls-1" x1="3.75" y1="8.25" x2="3.75" y2="6.75"/><line class="cls-1" x1="6.75" y1="8.25" x2="6.75" y2="6.75"/><line class="cls-1" x1="3.75" y1="15.75" x2="3.75" y2="14.25"/><line class="cls-1" x1="6.75" y1="15.75" x2="6.75" y2="14.25"/><line class="cls-1" x1="8.25" y1="9.75" x2="9.75" y2="9.75"/><line class="cls-1" x1="8.25" y1="12.75" x2="9.75" y2="12.75"/><line class="cls-1" x1="0.75" y1="9.75" x2="2.25" y2="9.75"/><line class="cls-1" x1="0.75" y1="12.75" x2="2.25" y2="12.75"/><path class="cls-1" d="M11.25,23.25a1.5,1.5,0,0,0-1.5-1.5h-3a2.25,2.25,0,0,1,0-4.5h3a4.5,4.5,0,0,0,4.5-4.5h0a7.5,7.5,0,0,0-7.5-7.5H4.5a2.25,2.25,0,0,1,0-4.5H9.75a9.01,9.01,0,0,1,9,9"/><path class="cls-1" d="M14.72,2.25H16.5A6.75,6.75,0,0,1,23.25,9V23.25"/></svg>