<svg id="Regular" xmlns="http://www.w3.org/2000/svg" viewBox="0 0 24 24"><defs><style>.cls-1{fill:none;stroke:currentColor;stroke-linecap:round;stroke-linejoin:round;stroke-width:1.5px;}</style></defs><title>temperature-celsius-low</title><polyline class="cls-1" points="0.75 16.5 3 18.75 5.25 16.5"/><line class="cls-1" x1="3" y1="18.75" x2="3" y2="6"/><line class="cls-1" x1="0.75" y1="20.25" x2="5.25" y2="20.25"/><circle class="cls-1" cx="15" cy="12" r="8.25"/><path class="cls-1" d="M11.625,8.25A.375.375,0,0,1,12,8.625"/><path class="cls-1" d="M11.25,8.625a.375.375,0,0,1,.375-.375"/><path class="cls-1" d="M11.625,9a.375.375,0,0,1-.375-.375"/><path class="cls-1" d="M12,8.625A.375.375,0,0,1,11.625,9"/><path class="cls-1" d="M17.25,9a3,3,0,0,0-3,3v1.5a3,3,0,0,0,3,3"/></svg>