<svg id="Regular" xmlns="http://www.w3.org/2000/svg" viewBox="0 0 24 24"><defs><style>.cls-1{fill:none;stroke:currentColor;stroke-linecap:round;stroke-linejoin:round;stroke-width:1.5px;}</style></defs><title>temperature-down</title><line class="cls-1" x1="12.75" y1="18.75" x2="14.25" y2="18.75"/><line class="cls-1" x1="17.25" y1="18.75" x2="18.75" y2="18.75"/><line class="cls-1" x1="21.75" y1="18.75" x2="23.25" y2="18.75"/><path class="cls-1" d="M11.25,6.163l3.094,3.106a.773.773,0,0,0,.728.223l3.4-.781a.786.786,0,0,1,.77.268l3.94,4.521"/><path class="cls-1" d="M8.25,15.418V3.75a3,3,0,0,0-6,0V15.418a4.493,4.493,0,1,0,7.5,3.332A4.472,4.472,0,0,0,8.25,15.418Z"/><line class="cls-1" x1="5.25" y1="3.75" x2="5.25" y2="17.25"/><circle class="cls-1" cx="5.25" cy="18.75" r="1.5"/></svg>