<svg id="Regular" xmlns="http://www.w3.org/2000/svg" viewBox="0 0 24 24"><defs><style>.cls-1{fill:none;stroke:currentColor;stroke-linecap:round;stroke-linejoin:round;stroke-width:1.5px;}</style></defs><title>temperature-celsius-fahrenheit-convert</title><path class="cls-1" d="M10.5,20.25H6.75a3,3,0,0,1-3-3V13.5"/><polyline class="cls-1" points="8.25 18 10.5 20.25 8.25 22.5"/><path class="cls-1" d="M14.283,3.75h3.75A2.945,2.945,0,0,1,21,6.717V10.5"/><polyline class="cls-1" points="16.5 6 14.283 3.75 16.5 1.5"/><circle class="cls-1" cx="15.75" cy="14.25" r="1.5"/><path class="cls-1" d="M20.25,23.25v-6a1.5,1.5,0,0,1,1.5-1.5h1.5"/><line class="cls-1" x1="20.25" y1="20.25" x2="22.5" y2="20.25"/><circle class="cls-1" cx="2.25" cy="2.25" r="1.5"/><path class="cls-1" d="M9,2.25a3,3,0,0,0-3,3v1.5a3,3,0,0,0,3,3"/></svg>