<svg id="Regular" xmlns="http://www.w3.org/2000/svg" viewBox="0 0 24 24"><defs><style>.cls-1{fill:none;stroke:currentColor;stroke-linecap:round;stroke-linejoin:round;stroke-width:1.5px;}</style></defs><title>temperature-up</title><path class="cls-1" d="M23.185,6.163,20.091,9.269a.773.773,0,0,1-.728.223l-3.4-.781a.784.784,0,0,0-.77.268L11.25,13.5"/><path class="cls-1" d="M8.25,15.418V3.75a3,3,0,0,0-6,0V15.418a4.493,4.493,0,1,0,7.5,3.332A4.472,4.472,0,0,0,8.25,15.418Z"/><line class="cls-1" x1="5.25" y1="3.75" x2="5.25" y2="17.25"/><circle class="cls-1" cx="5.25" cy="18.75" r="1.5"/><line class="cls-1" x1="12.75" y1="18.75" x2="14.25" y2="18.75"/><line class="cls-1" x1="17.25" y1="18.75" x2="18.75" y2="18.75"/><line class="cls-1" x1="21.75" y1="18.75" x2="23.25" y2="18.75"/></svg>