<svg id="Regular" xmlns="http://www.w3.org/2000/svg" viewBox="0 0 24 24"><defs><style>.cls-1{fill:none;stroke:currentColor;stroke-linecap:round;stroke-linejoin:round;stroke-width:1.5px;}</style></defs><title>temperature-celsius-high</title><polyline class="cls-1" points="1 7 3.25 4.75 5.5 7"/><line class="cls-1" x1="3.25" y1="4.75" x2="3.25" y2="17.5"/><line class="cls-1" x1="1" y1="3.25" x2="5.5" y2="3.25"/><circle class="cls-1" cx="15.25" cy="12.25" r="8.25"/><path class="cls-1" d="M11.875,8.5a.375.375,0,0,1,.375.375"/><path class="cls-1" d="M11.5,8.875a.375.375,0,0,1,.375-.375"/><path class="cls-1" d="M11.875,9.25a.375.375,0,0,1-.375-.375"/><path class="cls-1" d="M12.25,8.875a.375.375,0,0,1-.375.375"/><path class="cls-1" d="M17.5,9.25a3,3,0,0,0-3,3v1.5a3,3,0,0,0,3,3"/></svg>