<svg id="Regular" xmlns="http://www.w3.org/2000/svg" viewBox="0 0 24 24"><defs><style>.cls-1{fill:none;stroke:currentColor;stroke-linecap:round;stroke-linejoin:round;stroke-width:1.5px;}</style></defs><title>temperature-thermometer-snow</title><path class="cls-1" d="M8.5,15.418V3.75a3,3,0,0,0-6,0V15.418A4.493,4.493,0,1,0,10,18.75,4.472,4.472,0,0,0,8.5,15.418Z"/><line class="cls-1" x1="5.5" y1="5.25" x2="5.5" y2="17.25"/><circle class="cls-1" cx="5.5" cy="18.75" r="1.5"/><circle class="cls-1" cx="14.5" cy="11.25" r="3"/><line class="cls-1" x1="14.5" y1="3" x2="14.5" y2="8.25"/><polyline class="cls-1" points="12.25 4.5 14.5 6 16.75 4.5"/><line class="cls-1" x1="22.75" y1="11.25" x2="17.5" y2="11.25"/><polyline class="cls-1" points="21.25 9 19.75 11.25 21.25 13.5"/><line class="cls-1" x1="14.5" y1="19.5" x2="14.5" y2="14.25"/><polyline class="cls-1" points="16.75 18 14.5 16.5 12.25 18"/></svg>