<svg id="Regular" xmlns="http://www.w3.org/2000/svg" viewBox="0 0 24 24"><defs><style>.cls-1{fill:none;stroke:currentColor;stroke-linecap:round;stroke-linejoin:round;stroke-width:1.5px;}</style></defs><title>temperature-fahrenheit-high</title><polyline class="cls-1" points="1 6.75 3.25 4.5 5.5 6.75"/><line class="cls-1" x1="3.25" y1="4.5" x2="3.25" y2="17.25"/><line class="cls-1" x1="1" y1="3" x2="5.5" y2="3"/><circle class="cls-1" cx="15.25" cy="12" r="8.25"/><path class="cls-1" d="M11.875,8.25a.375.375,0,0,1,.375.375"/><path class="cls-1" d="M11.5,8.625a.375.375,0,0,1,.375-.375"/><path class="cls-1" d="M11.875,9a.375.375,0,0,1-.375-.375"/><path class="cls-1" d="M12.25,8.625A.375.375,0,0,1,11.875,9"/><path class="cls-1" d="M14.5,16.5v-6A1.5,1.5,0,0,1,16,9h1.5"/><line class="cls-1" x1="14.5" y1="13.5" x2="16.75" y2="13.5"/></svg>