<svg id="Regular" xmlns="http://www.w3.org/2000/svg" viewBox="0 0 24 24"><defs><style>.cls-1{fill:none;stroke:currentColor;stroke-linecap:round;stroke-linejoin:round;stroke-width:1.5px;}</style></defs><title>tennis-player</title><circle class="cls-1" cx="14.25" cy="3.75" r="2.625"/><path class="cls-1" d="M22.306,8.357l-2.28-.913a5.28,5.28,0,0,0-4.081.078L11.8,9.365a1.519,1.519,0,0,1-1.169.022L8.056,8.357a1.5,1.5,0,0,0-1.113,2.786l2.575,1.03a4.529,4.529,0,0,0,3.232.041V14.25l-1.8,1.349A3.012,3.012,0,0,0,9.75,18v3.75a1.5,1.5,0,0,0,3,0V18L15,16.313V18a1.49,1.49,0,0,0,.214.772l2.25,3.75a1.5,1.5,0,1,0,2.572-1.544L18,17.584V10.072a2.235,2.235,0,0,1,.912.158l2.281.913a1.5,1.5,0,1,0,1.113-2.786Z"/><ellipse class="cls-1" cx="3.149" cy="3.633" rx="2.25" ry="3" transform="translate(-1.235 1.659) rotate(-24.836)"/><line class="cls-1" x1="4.773" y1="6.126" x2="6.441" y2="8.687"/><circle class="cls-1" cx="2.25" cy="13.5" r="1.5"/></svg>