<svg id="Regular" xmlns="http://www.w3.org/2000/svg" viewBox="0 0 24 24"><defs><style>.cls-1{fill:none;stroke:currentColor;stroke-linecap:round;stroke-linejoin:round;stroke-width:1.5px;}</style></defs><title>tennis-backhand</title><circle class="cls-1" cx="10.501" cy="3.375" r="2.625"/><path class="cls-1" d="M21,17.624a.375.375,0,0,1,.375.375"/><path class="cls-1" d="M20.626,18A.375.375,0,0,1,21,17.624"/><path class="cls-1" d="M21,18.374A.375.375,0,0,1,20.626,18"/><path class="cls-1" d="M21.376,18a.375.375,0,0,1-.375.375"/><ellipse class="cls-1" cx="20.167" cy="6.148" rx="3.75" ry="2.813" transform="translate(4.607 20.374) rotate(-59.388)"/><line class="cls-1" x1="16.859" y1="11.738" x2="18.257" y2="9.375"/><path class="cls-1" d="M11.352,13.876a1.5,1.5,0,0,0,.99.373h3.409a1.5,1.5,0,1,0,0-3H12.526L9.674,8.112a1.5,1.5,0,0,0-2.452.338l-3,5.994a4.526,4.526,0,0,0-.476,2.014v2.291l-2.4,1.8a1.5,1.5,0,0,0,1.8,2.4l2.4-1.8a3.011,3.011,0,0,0,1.2-2.4v-.725l2.589,1.11,1.269,3.173a1.5,1.5,0,1,0,2.785-1.115l-1.269-3.173a2.978,2.978,0,0,0-1.6-1.643L7.3,15l1.625-3.25Z"/></svg>