<svg id="Regular" xmlns="http://www.w3.org/2000/svg" viewBox="0 0 24 24"><defs><style>.cls-1{fill:none;stroke:currentColor;stroke-linecap:round;stroke-linejoin:round;stroke-width:1.5px;}</style></defs><title>tennis-net</title><path class="cls-1" d="M1.25,9.75h21.5a.5.5,0,0,1,.5.5v2.5a0,0,0,0,1,0,0H.75a0,0,0,0,1,0,0v-2.5A.5.5,0,0,1,1.25,9.75Z"/><line class="cls-1" x1="0.75" y1="12.75" x2="0.75" y2="15.75"/><line class="cls-1" x1="23.25" y1="12.75" x2="23.25" y2="15.75"/><path class="cls-1" d="M19.5,15.75v6a1.5,1.5,0,0,1-1.5,1.5H6a1.5,1.5,0,0,1-1.5-1.5v-6"/><path class="cls-1" d="M4.5,6.75V2.25A1.5,1.5,0,0,1,6,.75H18a1.5,1.5,0,0,1,1.5,1.5v4.5"/><line class="cls-1" x1="7.5" y1="0.75" x2="7.5" y2="6.75"/><line class="cls-1" x1="7.5" y1="15.75" x2="7.5" y2="23.25"/><line class="cls-1" x1="16.5" y1="0.75" x2="16.5" y2="6.75"/><line class="cls-1" x1="16.5" y1="15.75" x2="16.5" y2="23.25"/><line class="cls-1" x1="16.5" y1="18.75" x2="7.5" y2="18.75"/><line class="cls-1" x1="7.5" y1="5.25" x2="16.5" y2="5.25"/><line class="cls-1" x1="12" y1="18.75" x2="12" y2="23.25"/><line class="cls-1" x1="12" y1="0.75" x2="12" y2="5.25"/></svg>