<svg id="Regular" xmlns="http://www.w3.org/2000/svg" viewBox="0 0 24 24"><defs><style>.cls-1{fill:none;stroke:currentColor;stroke-linecap:round;stroke-linejoin:round;stroke-width:1.5px;}</style></defs><title>tennis-forehand</title><circle class="cls-1" cx="10.5" cy="3.375" r="2.625"/><circle class="cls-1" cx="20.25" cy="7.5" r="3"/><path class="cls-1" d="M17.23,12.189l-8.091-4.5A1.5,1.5,0,0,0,7.083,8.3l-3.16,6a1.5,1.5,0,0,0-.173.7v3.75l-2.4,1.8a1.5,1.5,0,1,0,1.8,2.4l3-2.25a1.5,1.5,0,0,0,.6-1.2V16.917l2.524,1.306.489,3.722a1.5,1.5,0,0,0,1.486,1.3,1.455,1.455,0,0,0,.2-.013,1.5,1.5,0,0,0,1.292-1.682l-.488-3.719a3,3,0,0,0-1.6-2.279L7.508,13.931l1.514-2.874,6.749,3.754a1.5,1.5,0,0,0,1.459-2.622Z"/></svg>