<svg xmlns="http://www.w3.org/2000/svg" viewBox="0 0 24 24"><defs><style>.a{fill:none;stroke:currentColor;stroke-linecap:round;stroke-linejoin:round;stroke-width:1.5px;}</style></defs><title>ticket-two</title><path class="a" d="M6.75,11.25a1.5,1.5,0,0,1,1.5-1.5h0a1.5,1.5,0,0,1,1.5,1.5h0a2.134,2.134,0,0,1-.469,1.336L6.75,15.75h3"/><rect class="a" x="0.75" y="6.75" width="12" height="16.5" rx="1" ry="1"/><line class="a" x1="3.75" y1="18.75" x2="5.25" y2="18.75"/><line class="a" x1="8.25" y1="18.75" x2="9.75" y2="18.75"/><path class="a" d="M18,3.75h.75a.75.75,0,0,1,.75.75V9.75"/><line class="a" x1="18" y1="9.75" x2="21" y2="9.75"/><path class="a" d="M15.75,17.25h6a1.5,1.5,0,0,0,1.5-1.5V2.25a1.5,1.5,0,0,0-1.5-1.5h-9a1.5,1.5,0,0,0-1.5,1.5v1.5"/><line class="a" x1="15.75" y1="12.75" x2="16.5" y2="12.75"/><line class="a" x1="18.75" y1="12.75" x2="20.25" y2="12.75"/></svg>