<svg xmlns="http://www.w3.org/2000/svg" viewBox="0 0 24 24"><defs><style>.a{fill:none;stroke:currentColor;stroke-linecap:round;stroke-linejoin:round;stroke-width:1.5px;}</style></defs><title>ticket</title><path class="a" d="M19.5,12a3.751,3.751,0,0,1,3.124-3.7.749.749,0,0,0,.626-.739V5.25a1.5,1.5,0,0,0-1.5-1.5H2.25a1.5,1.5,0,0,0-1.5,1.5V7.563a.749.749,0,0,0,.626.739,3.751,3.751,0,0,1,0,7.4.75.75,0,0,0-.626.739V18.75a1.5,1.5,0,0,0,1.5,1.5h19.5a1.5,1.5,0,0,0,1.5-1.5V16.437a.749.749,0,0,0-.626-.739A3.751,3.751,0,0,1,19.5,12Z"/><line class="a" x1="12" y1="9" x2="17.25" y2="9"/><circle class="a" cx="15.375" cy="14.625" r="1.875"/><path class="a" d="M7.5,7.875a.375.375,0,1,1,.375.375A.375.375,0,0,1,7.5,7.875"/><path class="a" d="M7.5,12.375a.375.375,0,1,1,.375.375.375.375,0,0,1-.375-.375"/><path class="a" d="M7.5,16.875a.375.375,0,1,1,.375.375.375.375,0,0,1-.375-.375"/></svg>