<svg id="Regular" xmlns="http://www.w3.org/2000/svg" viewBox="0 0 24 24"><defs><style>.cls-1{fill:none;stroke:currentColor;stroke-linecap:round;stroke-linejoin:round;stroke-width:1.5px;}</style></defs><title>ticket-concert</title><path class="cls-1" d="M23.189,20.25a1.5,1.5,0,0,1,0-3V15a.75.75,0,0,0-.75-.75h-10.5a.75.75,0,0,0-.75.75v2.25a1.5,1.5,0,0,1,0,3V22.5a.75.75,0,0,0,.75.75h10.5a.75.75,0,0,0,.75-.75Z"/><path class="cls-1" d="M17.939,11.25v-6a1.5,1.5,0,0,0-1.5-1.5h0a1.5,1.5,0,0,0-1.5,1.5V9"/><path class="cls-1" d="M8.939,9V2.25a1.5,1.5,0,0,0-1.5-1.5h0a1.5,1.5,0,0,0-1.5,1.5V13.5L3.5,11.549a1.539,1.539,0,0,0-2.242.348h0a1.541,1.541,0,0,0,0,1.707l3.65,5.474c.1.146.2.287.309.422h0a6,6,0,0,0,2.972,2"/><path class="cls-1" d="M11.939,11.25V9a1.5,1.5,0,0,0-1.5-1.5h0A1.5,1.5,0,0,0,8.939,9v2.25"/><path class="cls-1" d="M14.939,11.25V9a1.5,1.5,0,0,0-1.5-1.5h0a1.5,1.5,0,0,0-1.5,1.5v2.25"/></svg>