<svg xmlns="http://www.w3.org/2000/svg" viewBox="0 0 24 24"><defs><style>.a{fill:none;stroke:currentColor;stroke-linecap:round;stroke-linejoin:round;stroke-width:1.5px;}</style></defs><title>ticket-remove</title><circle class="a" cx="17.25" cy="17.25" r="6"/><line class="a" x1="14.25" y1="17.25" x2="20.25" y2="17.25"/><path class="a" d="M19.575,8.25A3.755,3.755,0,0,1,22.624,5.3a.749.749,0,0,0,.626-.738V2.25a1.5,1.5,0,0,0-1.5-1.5H2.25a1.5,1.5,0,0,0-1.5,1.5V4.564a.747.747,0,0,0,.626.738,3.751,3.751,0,0,1,0,7.4.75.75,0,0,0-.626.739V15.75a1.5,1.5,0,0,0,1.5,1.5h6"/><line class="a" x1="8.25" y1="14.25" x2="8.25" y2="12.75"/><line class="a" x1="8.25" y1="9.75" x2="8.25" y2="8.25"/><line class="a" x1="8.25" y1="5.25" x2="8.25" y2="3.75"/></svg>