<svg id="Regular" xmlns="http://www.w3.org/2000/svg" viewBox="0 0 24 24"><defs><style>.cls-1{fill:none;stroke:currentColor;stroke-linecap:round;stroke-linejoin:round;stroke-width:1.5px;}</style></defs><title>ticket-1</title><path class="cls-1" d="M11.479,23.1a.814.814,0,0,0,1.05-.089L23.01,12.529a.815.815,0,0,0,.089-1.05,4.081,4.081,0,0,1,0-4.728A.814.814,0,0,0,23.01,5.7L18.3.989A.815.815,0,0,0,17.248.9a4.081,4.081,0,0,1-4.727,0,.816.816,0,0,0-1.05.089L.99,11.471A.816.816,0,0,0,.9,12.521a4.081,4.081,0,0,1,0,4.728A.814.814,0,0,0,.99,18.3L5.7,23.011a.814.814,0,0,0,1.05.087A4.081,4.081,0,0,1,11.479,23.1Z"/><rect class="cls-1" x="7.104" y="6.288" width="9.792" height="11.424" rx="1" ry="1" transform="translate(12 -4.971) rotate(45)"/><line class="cls-1" x1="12.577" y1="9.115" x2="9.115" y2="12.577"/><line class="cls-1" x1="13.779" y1="12.529" x2="12.701" y2="13.607"/></svg>