<svg xmlns="http://www.w3.org/2000/svg" viewBox="0 0 24 24"><defs><style>.a{fill:none;stroke:currentColor;stroke-linecap:round;stroke-linejoin:round;stroke-width:1.5px;}</style></defs><title>ticket-pass</title><path class="a" d="M6.75,14.25a3,3,0,0,0-6,0v9h6Z"/><line class="a" x1="3.75" y1="15.75" x2="3.75" y2="17.25"/><path class="a" d="M23.25,14.25a3,3,0,0,0-6,0v9h6Z"/><line class="a" x1="20.25" y1="15.75" x2="20.25" y2="17.25"/><path class="a" d="M6.75,19.5A5.25,5.25,0,0,0,12,14.25H6.75Z"/><path class="a" d="M17.25,19.5A5.25,5.25,0,0,1,12,14.25h5.25Z"/><rect class="a" x="6.75" y="0.75" width="10.5" height="7.5" rx="1.5" ry="1.5"/><path class="a" d="M12,4.125a.375.375,0,1,1-.375.375A.375.375,0,0,1,12,4.125"/></svg>