<svg xmlns="http://www.w3.org/2000/svg" viewBox="0 0 24 24"><defs><style>.a{fill:none;stroke:currentColor;stroke-linecap:round;stroke-linejoin:round;stroke-width:1.5px;}</style></defs><title>ticket-hold</title><path class="a" d="M7.5,15l1.673-1.255a1.57,1.57,0,0,1,2.247.385h0a1.569,1.569,0,0,1,0,1.74L9.775,18.337A4.5,4.5,0,0,1,7.7,20.019L5.25,21"/><path class="a" d="M8.25,9.75,4.655,11.291a4.5,4.5,0,0,0-2.364,2.364L1.114,16.4A4.5,4.5,0,0,0,.75,18.174V23.25"/><path class="a" d="M8.25,19.755V21a2.25,2.25,0,0,0,2.25,2.25H21A2.25,2.25,0,0,0,23.25,21V3A2.25,2.25,0,0,0,21,.75H18.75a3,3,0,0,1-6,0H10.5A2.25,2.25,0,0,0,8.25,3V14.438"/><line class="a" x1="11.25" y1="7.5" x2="20.25" y2="7.5"/><line class="a" x1="19.5" y1="10.5" x2="19.5" y2="20.25"/><path class="a" d="M14.25,15.75a2.25,2.25,0,1,1-1.5,3.925"/></svg>