<svg xmlns="http://www.w3.org/2000/svg" viewBox="0 0 24 24"><defs><style>.a{fill:none;stroke:currentColor;stroke-linecap:round;stroke-linejoin:round;stroke-width:1.5px;}</style></defs><title>ticket-day-7</title><path class="a" d="M20.25,12a3.009,3.009,0,0,0,3,3v3.75a3.009,3.009,0,0,1-3,3H3.75a3.009,3.009,0,0,1-3-3V15a3,3,0,0,0,0-6V5.25a3.009,3.009,0,0,1,3-3h16.5a3.009,3.009,0,0,1,3,3V9A3.009,3.009,0,0,0,20.25,12Z"/><path class="a" d="M10.5,18.75v-4.5a1.5,1.5,0,0,1,3,0v4.5"/><line class="a" x1="10.5" y1="17.25" x2="13.5" y2="17.25"/><path class="a" d="M15.75,12.75v1.5a1.5,1.5,0,0,0,3,0v-1.5"/><line class="a" x1="17.25" y1="15.75" x2="17.25" y2="18.75"/><path class="a" d="M5.25,18.75c4.008,0,3.922-6,0-6Z"/><path class="a" d="M11.25,5.25h1.918a.751.751,0,0,1,.7,1.014L12.586,9.689"/></svg>