<svg id="Regular" xmlns="http://www.w3.org/2000/svg" viewBox="0 0 24 24"><defs><style>.cls-1{fill:none;stroke:currentColor;stroke-linecap:round;stroke-linejoin:round;stroke-width:1.5px;}</style></defs><title>ticket-movie</title><path class="cls-1" d="M19.5,11.75a3.751,3.751,0,0,1,3.124-3.7.75.75,0,0,0,.626-.739V5a1.5,1.5,0,0,0-1.5-1.5H2.25A1.5,1.5,0,0,0,.75,5V7.313a.749.749,0,0,0,.626.739,3.751,3.751,0,0,1,0,7.4.75.75,0,0,0-.626.739V18.5A1.5,1.5,0,0,0,2.25,20h19.5a1.5,1.5,0,0,0,1.5-1.5V16.187a.749.749,0,0,0-.626-.739A3.751,3.751,0,0,1,19.5,11.75Z"/><line class="cls-1" x1="4.5" y1="6.5" x2="6.75" y2="6.5"/><line class="cls-1" x1="10.5" y1="6.5" x2="13.5" y2="6.5"/><line class="cls-1" x1="17.25" y1="6.5" x2="19.5" y2="6.5"/><line class="cls-1" x1="4.5" y1="17" x2="6.75" y2="17"/><line class="cls-1" x1="10.5" y1="17" x2="13.5" y2="17"/><line class="cls-1" x1="17.25" y1="17" x2="19.5" y2="17"/><path class="cls-1" d="M12.624,10.436a.75.75,0,0,0-1.248,0l-1.6,2.4A.75.75,0,0,0,10.4,14h3.2a.75.75,0,0,0,.624-1.166Z"/></svg>