<svg xmlns="http://www.w3.org/2000/svg" viewBox="0 0 24 24"><defs><style>.a{fill:none;stroke:currentColor;stroke-linecap:round;stroke-linejoin:round;stroke-width:1.5px;}</style></defs><title>ticket-exchange</title><path class="a" d="M15.75,15.75V13.5a.75.75,0,0,0-.75-.75H1.5a.75.75,0,0,0-.75.75v2.25a1.5,1.5,0,0,1,0,3V21a.75.75,0,0,0,.75.75H15a.75.75,0,0,0,.75-.75V18.75a1.5,1.5,0,0,1,0-3Z"/><line class="a" x1="5.25" y1="15.75" x2="5.25" y2="18.75"/><path class="a" d="M8.25,9.75V8.25a1.5,1.5,0,0,0,0-3V3A.75.75,0,0,1,9,2.25H22.5a.75.75,0,0,1,.75.75V5.25a1.5,1.5,0,0,0,0,3V10.5a.75.75,0,0,1-.75.75H18.75"/><line class="a" x1="12.75" y1="5.25" x2="12.75" y2="8.25"/><path class="a" d="M23.25,15a3,3,0,0,1-3,3h-1.5"/><path class="a" d="M.75,9a3,3,0,0,1,3-3h1.5"/><polyline class="a" points="3.75 4.5 5.25 6 3.75 7.5"/><polyline class="a" points="20.25 16.5 18.75 18 20.25 19.5"/></svg>