<svg id="Regular" xmlns="http://www.w3.org/2000/svg" viewBox="0 0 24 24"><defs><style>.cls-1{fill:none;stroke:currentColor;stroke-linecap:round;stroke-linejoin:round;stroke-width:1.5px;}</style></defs><title>ticket-basketball-game</title><path class="cls-1" d="M23.25,20.25a1.5,1.5,0,0,1,0-3V15a.75.75,0,0,0-.75-.75H12a.75.75,0,0,0-.75.75v2.25a1.5,1.5,0,0,1,0,3V22.5a.75.75,0,0,0,.75.75H22.5a.75.75,0,0,0,.75-.75Z"/><path class="cls-1" d="M8.25,18.626A9,9,0,1,1,18.75,9.75a9.155,9.155,0,0,1-.124,1.5"/><path class="cls-1" d="M3.169,15.89c1.1-3.326,4.452-10.552,13.222-12.215"/><path class="cls-1" d="M3.027,3.766a18.5,18.5,0,0,1,9.53,7.483"/><path class="cls-1" d="M8.569.827a6.653,6.653,0,0,1-7.591,6.9"/><path class="cls-1" d="M8.612,14.25A6.7,6.7,0,0,1,18.749,9.583"/></svg>