<svg xmlns="http://www.w3.org/2000/svg" viewBox="0 0 24 24"><defs><style>.a{fill:none;stroke:currentColor;stroke-linecap:round;stroke-linejoin:round;stroke-width:1.5px;}</style></defs><title>ticket-buy</title><path class="a" d="M17.25,5.25v9a1.5,1.5,0,0,1-1.5,1.5h-1.5a2.25,2.25,0,0,0-4.5,0H8.25a1.5,1.5,0,0,1-1.5-1.5v-9Z"/><path class="a" d="M12,9.375a.375.375,0,1,1-.375.375A.375.375,0,0,1,12,9.375"/><path class="a" d="M9,9.375a.375.375,0,1,1-.375.375A.375.375,0,0,1,9,9.375"/><path class="a" d="M15,9.375a.375.375,0,1,1-.375.375A.375.375,0,0,1,15,9.375"/><line class="a" x1="4.5" y1="5.25" x2="19.5" y2="5.25"/><polygon class="a" points="9 21.75 15 21.75 12 18.75 9 21.75"/><path class="a" d="M3.75,8.25H2.25a1.5,1.5,0,0,1-1.5-1.5v-3a1.5,1.5,0,0,1,1.5-1.5h19.5a1.5,1.5,0,0,1,1.5,1.5v3a1.5,1.5,0,0,1-1.5,1.5h-1.5"/></svg>