<svg id="Regular" xmlns="http://www.w3.org/2000/svg" viewBox="0 0 24 24"><defs><style>.cls-1{fill:none;stroke:currentColor;stroke-linecap:round;stroke-linejoin:round;stroke-width:1.5px;}</style></defs><title>tiger</title><path class="cls-1" d="M11.958,16.876a1.875,1.875,0,0,1-3.75,0"/><path class="cls-1" d="M15.708,16.876a1.875,1.875,0,0,1-3.75,0V14.251"/><line class="cls-1" x1="10.458" y1="14.251" x2="13.458" y2="14.251"/><path class="cls-1" d="M7.833,8.251a.374.374,0,0,1,.375.375"/><path class="cls-1" d="M7.458,8.626a.375.375,0,0,1,.375-.375"/><path class="cls-1" d="M7.833,9a.375.375,0,0,1-.375-.375"/><path class="cls-1" d="M8.208,8.626A.374.374,0,0,1,7.833,9"/><path class="cls-1" d="M16.083,8.251a.374.374,0,0,1,.375.375"/><path class="cls-1" d="M15.708,8.626a.375.375,0,0,1,.375-.375"/><path class="cls-1" d="M16.083,9a.375.375,0,0,1-.375-.375"/><path class="cls-1" d="M16.458,8.626A.374.374,0,0,1,16.083,9"/><path class="cls-1" d="M3.481,5.765A18.98,18.98,0,0,0,1.458,10.5c-1.743,6.1,1.784,9.919,7.31,10.954a3.624,3.624,0,0,0,3.19,1.8,3.624,3.624,0,0,0,3.191-1.8C20.675,20.42,24.2,16.6,22.458,10.5a18.941,18.941,0,0,0-2.022-4.736"/><path class="cls-1" d="M17.185,2.28A9.2,9.2,0,0,0,11.958.751,9.2,9.2,0,0,0,6.732,2.28"/><line class="cls-1" x1="20.208" y1="13.501" x2="22.907" y2="13.501"/><line class="cls-1" x1="1.01" y1="13.501" x2="3.708" y2="13.501"/><line class="cls-1" x1="20.208" y1="16.501" x2="22.316" y2="16.501"/><line class="cls-1" x1="1.612" y1="16.501" x2="3.708" y2="16.501"/><line class="cls-1" x1="11.958" y1="0.751" x2="11.958" y2="6.001"/><path class="cls-1" d="M8.958,4.5s.75-.75,3-.75,3,.75,3,.75"/><path class="cls-1" d="M17.185,2.28l.023-.029s2-2.414,4.5-.75c2.25,1.5,0,5.25,0,5.25l-.392.654"/><path class="cls-1" d="M6.732,2.28l-.024-.029s-2-2.414-4.5-.75c-2.25,1.5,0,5.25,0,5.25l.393.654"/></svg>