<svg id="Regular" xmlns="http://www.w3.org/2000/svg" viewBox="0 0 24 24"><defs><style>.cls-1{fill:none;stroke:currentColor;stroke-linecap:round;stroke-linejoin:round;stroke-width:1.5px;}</style></defs><title>tiger-footprint</title><path class="cls-1" d="M13.308,8.3a5.868,5.868,0,0,0-11.735,0c0,3.157.954,4.885,3.214,5.547A3.516,3.516,0,0,0,7.441,15,3.516,3.516,0,0,0,10.1,13.844C12.355,13.182,13.308,11.454,13.308,8.3Z"/><path class="cls-1" d="M2.271,5.52a2.515,2.515,0,1,1,3.56-2.866"/><path class="cls-1" d="M12.609,5.518A2.515,2.515,0,1,0,9.05,2.653"/><path class="cls-1" d="M4.875,8.253a.375.375,0,0,1,.375.375"/><path class="cls-1" d="M4.5,8.628a.375.375,0,0,1,.375-.375"/><path class="cls-1" d="M4.875,9A.375.375,0,0,1,4.5,8.628"/><path class="cls-1" d="M5.25,8.628A.375.375,0,0,1,4.875,9"/><path class="cls-1" d="M10.125,8.253a.375.375,0,0,1,.375.375"/><path class="cls-1" d="M9.75,8.628a.375.375,0,0,1,.375-.375"/><path class="cls-1" d="M10.125,9a.375.375,0,0,1-.375-.375"/><path class="cls-1" d="M10.5,8.628A.375.375,0,0,1,10.125,9"/><line class="cls-1" x1="7.5" y1="2.43" x2="7.5" y2="6.753"/><line class="cls-1" x1="6" y1="5.253" x2="9" y2="5.253"/><line class="cls-1" x1="6.75" y1="11.253" x2="8.25" y2="11.253"/><path class="cls-1" d="M17.6,22.5c1.132,0,1.51.761,2.643.761a1.383,1.383,0,0,0,1.51-1.511c0-1.51-1.649-1.549-1.888-2.265-.377-1.133-.755-2.266-2.265-2.266s-1.888,1.133-2.266,2.266c-.238.716-1.887.755-1.887,2.265a1.383,1.383,0,0,0,1.51,1.511C16.087,23.264,16.464,22.5,17.6,22.5Z"/><path class="cls-1" d="M15.375,14.253a.375.375,0,0,1,.375.375"/><path class="cls-1" d="M15,14.628a.375.375,0,0,1,.375-.375"/><path class="cls-1" d="M15.375,15A.375.375,0,0,1,15,14.628"/><path class="cls-1" d="M15.75,14.628a.375.375,0,0,1-.375.375"/><path class="cls-1" d="M12.375,17.253a.375.375,0,0,1,.375.375"/><path class="cls-1" d="M12,17.628a.375.375,0,0,1,.375-.375"/><path class="cls-1" d="M12.375,18A.375.375,0,0,1,12,17.628"/><path class="cls-1" d="M12.75,17.628a.375.375,0,0,1-.375.375"/><path class="cls-1" d="M22.875,17.253a.375.375,0,0,1,.375.375"/><path class="cls-1" d="M22.5,17.628a.375.375,0,0,1,.375-.375"/><path class="cls-1" d="M22.875,18a.375.375,0,0,1-.375-.375"/><path class="cls-1" d="M23.25,17.628a.375.375,0,0,1-.375.375"/><path class="cls-1" d="M19.875,14.253a.375.375,0,0,1,.375.375"/><path class="cls-1" d="M19.5,14.628a.375.375,0,0,1,.375-.375"/><path class="cls-1" d="M19.875,15a.375.375,0,0,1-.375-.375"/><path class="cls-1" d="M20.25,14.628a.375.375,0,0,1-.375.375"/></svg>