<svg id="Regular" xmlns="http://www.w3.org/2000/svg" viewBox="0 0 24 24"><defs><style>.cls-1{fill:none;stroke:currentColor;stroke-linecap:round;stroke-linejoin:round;stroke-width:1.5px;}</style></defs><title>tiger-bengal</title><path class="cls-1" d="M20.977,6.665a25.258,25.258,0,0,1,1.533,8.261c0,5.012-4.7,8.325-10.5,8.325s-10.5-3.313-10.5-8.325A25.258,25.258,0,0,1,3.043,6.665"/><path class="cls-1" d="M3.76,6.751a3,3,0,1,1,3-3"/><path class="cls-1" d="M17.26,3.751a3,3,0,1,1,3,3"/><path class="cls-1" d="M6.679,3.055,6.76,3a10.376,10.376,0,0,1,5.25-1.5A10.376,10.376,0,0,1,17.26,3l.081.054"/><path class="cls-1" d="M7.51,9a3.344,3.344,0,0,1,3,2.25,16.349,16.349,0,0,0-.75,4.5c0,.828,1.007,1.5,2.25,1.5s2.25-.672,2.25-1.5a16.349,16.349,0,0,0-.75-4.5,3.344,3.344,0,0,1,3-2.25"/><path class="cls-1" d="M9.01,20.251a2.938,2.938,0,0,0,3-3,2.938,2.938,0,0,0,3,3"/><path class="cls-1" d="M7.135,12a.375.375,0,0,1,.375.375"/><path class="cls-1" d="M6.76,12.376A.375.375,0,0,1,7.135,12"/><path class="cls-1" d="M7.135,12.751a.375.375,0,0,1-.375-.375"/><path class="cls-1" d="M7.51,12.376a.375.375,0,0,1-.375.375"/><path class="cls-1" d="M16.885,12a.375.375,0,0,1,.375.375"/><path class="cls-1" d="M16.51,12.376A.375.375,0,0,1,16.885,12"/><path class="cls-1" d="M16.885,12.751a.375.375,0,0,1-.375-.375"/><path class="cls-1" d="M17.26,12.376a.375.375,0,0,1-.375.375"/><line class="cls-1" x1="19.51" y1="15.751" x2="22.466" y2="15.751"/><line class="cls-1" x1="18.76" y1="18.751" x2="21.453" y2="18.751"/><line class="cls-1" x1="4.51" y1="15.751" x2="1.553" y2="15.751"/><line class="cls-1" x1="5.26" y1="18.751" x2="2.567" y2="18.751"/><line class="cls-1" x1="12.01" y1="1.501" x2="12.01" y2="6.001"/><line class="cls-1" x1="9.76" y1="4.501" x2="14.26" y2="4.501"/></svg>