<svg id="Regular" xmlns="http://www.w3.org/2000/svg" viewBox="0 0 24 24"><defs><style>.cls-1,.cls-2{fill:none;stroke:currentColor;stroke-linecap:round;stroke-linejoin:round;stroke-width:1.5px;}.cls-1{fill-rule:evenodd;}</style></defs><title>tiger-head</title><path class="cls-1" d="M9.66,19.21a10.532,10.532,0,0,1,3-.459c5.25,0,7.5,2.25,7.5,2.25s3.75-5.25,3-9.75"/><path class="cls-1" d="M20.911,7.5a3.917,3.917,0,0,0,2.237-3.389,3.043,3.043,0,0,0-2-3.2,3.01,3.01,0,0,0-3.988,2.842C10.384,4.367,3.607,9.032,1.4,10.678A1.489,1.489,0,0,0,.83,12.154l1.2,6.4a3,3,0,0,0,4.419,2.063c.233-.13.506-.283.835-.461"/><path class="cls-1" d="M2.088,18.8l.073-.052s5.25-3.75,9-3.75"/><path class="cls-1" d="M6.661,16.189V16.5s0,5.25,3,6.75V15.17"/><path class="cls-1" d="M1.245,14.366l.166-.115s9.75-6.75,15-6.75"/><line class="cls-2" x1="3.484" y1="9.221" x2="4.503" y2="12.277"/><path class="cls-2" d="M14.161,10.5a.375.375,0,0,1,.375.375"/><path class="cls-2" d="M13.786,10.876a.375.375,0,0,1,.375-.375"/><path class="cls-2" d="M14.161,11.251a.375.375,0,0,1-.375-.375"/><path class="cls-2" d="M14.536,10.876a.375.375,0,0,1-.375.375"/><line class="cls-2" x1="20.911" y1="13.501" x2="23.032" y2="14.562"/><line class="cls-2" x1="19.411" y1="16.501" x2="21.81" y2="18.101"/></svg>