<svg xmlns="http://www.w3.org/2000/svg" viewBox="0 0 24 24"><defs><style>.a{fill:none;stroke:currentColor;stroke-linecap:round;stroke-linejoin:round;stroke-width:1.5px;}</style></defs><title>toilet-unclog</title><line class="a" x1="12" y1="15.003" x2="12" y2="8.253"/><path class="a" d="M13.5,6.753a1.5,1.5,0,0,1-3,0v-4.5a1.5,1.5,0,0,1,3,0Z"/><line class="a" x1="3.75" y1="23.253" x2="20.25" y2="23.253"/><path class="a" d="M13.466,16.673a1.42,1.42,0,0,0,.034-.17,1.5,1.5,0,0,0-3,0,1.42,1.42,0,0,0,.034.17,6.746,6.746,0,0,0-5.284,6.58h13.5A6.746,6.746,0,0,0,13.466,16.673Z"/></svg>