<svg xmlns="http://www.w3.org/2000/svg" viewBox="0 0 24 24"><defs><style>.a{fill:none;stroke:currentColor;stroke-linecap:round;stroke-linejoin:round;stroke-width:1.5px;}</style></defs><title>toilet-use-wrong</title><circle class="a" cx="11.625" cy="3.378" r="2.625"/><path class="a" d="M9.75,23.253a4.5,4.5,0,0,0,4.5-4.5h-9V13.5A1.5,1.5,0,0,0,3.75,12H2.25a1.5,1.5,0,0,0-1.5,1.5v9.75"/><line class="a" x1="0.75" y1="16.503" x2="5.25" y2="16.503"/><line class="a" x1="23.25" y1="0.753" x2="18" y2="6.003"/><line class="a" x1="18" y1="0.753" x2="23.25" y2="6.003"/><path class="a" d="M11.356,15.744l.213-1.282L8.84,15.631A1.5,1.5,0,0,1,6.8,13.889l1.5-6a1.5,1.5,0,0,1,2.91.727l-.767,3.067,2.472-1.059a1.5,1.5,0,0,1,2.069,1.625l-.587,3.527"/></svg>