<svg xmlns="http://www.w3.org/2000/svg" viewBox="0 0 24 24"><defs><style>.a{fill:none;stroke:currentColor;stroke-linecap:round;stroke-linejoin:round;stroke-width:1.5px;}</style></defs><title>toilet-seat-1</title><polyline class="a" points="6.001 11.265 5.25 3.753 18.75 3.753 17.999 11.265"/><path class="a" d="M20.25,2.253a1.5,1.5,0,0,1-1.5,1.5H5.25a1.5,1.5,0,0,1,0-3h13.5A1.5,1.5,0,0,1,20.25,2.253Z"/><path class="a" d="M19.264,13.127a1.5,1.5,0,0,0-1.454-1.874H6.19a1.5,1.5,0,0,0-1.454,1.874,7.505,7.505,0,0,0,2.9,4.223,3,3,0,0,1,1.193,3.027L8.25,23.253h7.5l-.575-2.876a3,3,0,0,1,1.193-3.027A7.505,7.505,0,0,0,19.264,13.127Z"/></svg>