<svg xmlns="http://www.w3.org/2000/svg" viewBox="0 0 24 24"><defs><style>.a{fill:none;stroke:currentColor;stroke-linecap:round;stroke-linejoin:round;stroke-width:1.5px;}</style></defs><title>toilet-need</title><circle class="a" cx="12.006" cy="3.378" r="2.625"/><path class="a" d="M15,12a1.5,1.5,0,0,1-.6,1.2l-1.8,1.351a1.5,1.5,0,1,0,1.8,2.4l1.8-1.35A4.507,4.507,0,0,0,18,12v-.747a3,3,0,0,0-3-3H9a3,3,0,0,0-3,3V12a4.5,4.5,0,0,0,1.8,3.6l1.8,1.35a1.5,1.5,0,1,0,1.8-2.4L9.6,13.2A1.5,1.5,0,0,1,9,12"/><path class="a" d="M15.564,16.079l-.437,2.182,2.434,2.431a1.5,1.5,0,0,1-2.122,2.121l-2.431-2.431a2.991,2.991,0,0,1-.822-2.71l.186-.93"/><path class="a" d="M11.628,16.742l.186.93a2.991,2.991,0,0,1-.822,2.71L8.561,22.813a1.5,1.5,0,0,1-2.122-2.121l2.432-2.431L8.436,16.08"/></svg>