<svg xmlns="http://www.w3.org/2000/svg" viewBox="0 0 24 24"><defs><style>.a{fill:none;stroke:currentColor;stroke-linecap:round;stroke-linejoin:round;stroke-width:1.5px;}</style></defs><title>toilet-use-right</title><circle class="a" cx="9" cy="3.375" r="2.625"/><path class="a" d="M9.75,23.25a4.5,4.5,0,0,0,4.5-4.5h-9V13.5A1.5,1.5,0,0,0,3.75,12H2.25a1.5,1.5,0,0,0-1.5,1.5v9.75"/><line class="a" x1="0.75" y1="16.5" x2="5.25" y2="16.5"/><path class="a" d="M9.892,15.75H15.75a1.5,1.5,0,0,1,1.342.829l3.338,6.676"/><path class="a" d="M17.067,23.24l-2.244-4.49H8.25a1.5,1.5,0,0,1-1.494-1.636l.75-8.25a1.5,1.5,0,0,1,2.555-.924l5.25,5.25a1.5,1.5,0,0,1-2.122,2.121L10.2,12.325"/><path class="a" d="M16.5,3.75l1.105,1.105a1.5,1.5,0,0,0,2.2-.085L23.25.75"/></svg>