<svg xmlns="http://www.w3.org/2000/svg" viewBox="0 0 24 24"><defs><style>.a{fill:none;stroke:currentColor;stroke-linecap:round;stroke-linejoin:round;stroke-width:1.5px;}</style></defs><title>toilet-need-1</title><circle class="a" cx="12.003" cy="3.378" r="2.625"/><path class="a" d="M15,12a1.5,1.5,0,0,1-.6,1.2l-1.8,1.351a1.5,1.5,0,1,0,1.8,2.4l1.8-1.35A4.5,4.5,0,0,0,18,12v-.747a3,3,0,0,0-3-3H9a3,3,0,0,0-3,3V12a4.5,4.5,0,0,0,1.8,3.6l1.8,1.35a1.5,1.5,0,0,0,1.8-2.4L9.6,13.2A1.5,1.5,0,0,1,9,12"/><path class="a" d="M16.135,15.639,18,18.753H15.617l1.94,1.939a1.5,1.5,0,0,1-2.121,2.121L12,19.374h0l-3.44,3.439a1.5,1.5,0,0,1-2.121-2.121l1.94-1.939H6l1.859-3.1"/><line class="a" x1="12.003" y1="19.374" x2="12.003" y2="15.897"/></svg>