<svg id="Regular" xmlns="http://www.w3.org/2000/svg" viewBox="0 0 24 24"><defs><style>.cls-1{fill:none;stroke:currentColor;stroke-linecap:round;stroke-linejoin:round;stroke-width:1.5px;}</style></defs><title>tools-kitchen-basket</title><rect class="cls-1" x="9" y="0.75" width="6" height="3" rx="1.125" ry="1.125"/><path class="cls-1" d="M14.25,23.25H9.75a9,9,0,0,1-9-9h0a1.5,1.5,0,0,1,1.5-1.5h19.5a1.5,1.5,0,0,1,1.5,1.5h0A9,9,0,0,1,14.25,23.25Z"/><path class="cls-1" d="M9.02,1.939a9.951,9.951,0,0,0-6.77,9.51v1.3"/><path class="cls-1" d="M21.75,12.75v-1.3A9.951,9.951,0,0,0,15,1.946"/><line class="cls-1" x1="0.875" y1="15.75" x2="23.125" y2="15.75"/><line class="cls-1" x1="12" y1="15.75" x2="14.25" y2="23.25"/><line class="cls-1" x1="12" y1="15.75" x2="9.75" y2="23.25"/><line class="cls-1" x1="18" y1="15.75" x2="20.048" y2="21.134"/><line class="cls-1" x1="18" y1="15.75" x2="15" y2="23.219"/><line class="cls-1" x1="6" y1="15.75" x2="3.952" y2="21.134"/><line class="cls-1" x1="6" y1="15.75" x2="9" y2="23.219"/></svg>