<svg xmlns="http://www.w3.org/2000/svg" viewBox="0 0 24 24"><defs><style>.a{fill:none;stroke:currentColor;stroke-linecap:round;stroke-linejoin:round;stroke-width:1.5px;}</style></defs><title>tools-palette-spatula</title><path class="a" d="M6.659,14.159l-5.25,5.25a2.25,2.25,0,0,0,3.182,3.182l5.25-5.25Z"/><line class="a" x1="21.941" y1="6.301" x2="16.638" y2="3.119"/><line class="a" x1="18.759" y1="9.483" x2="13.456" y2="6.301"/><line class="a" x1="15.577" y1="12.665" x2="10.274" y2="9.483"/><path class="a" d="M23.08,3.675a6.622,6.622,0,0,0-1.139-1.616A6.622,6.622,0,0,0,20.325.92a1.5,1.5,0,0,0-1.757.27L9.744,10.014a1.5,1.5,0,0,0-.026,2.094L7.163,14.663l2.121,2.121,2.554-2.554.027.026a1.5,1.5,0,0,0,2.121,0L22.81,5.432A1.5,1.5,0,0,0,23.08,3.675Z"/></svg>