<svg xmlns="http://www.w3.org/2000/svg" viewBox="0 0 24 24"><defs><style>.a{fill:none;stroke:currentColor;stroke-linecap:round;stroke-linejoin:round;stroke-width:1.5px;}</style></defs><title>tools-slip-joint-pliers</title><path class="a" d="M18.75,4.2H9.737a3.1,3.1,0,0,1-1.829-.632,4.5,4.5,0,0,0-5.84,6.813L4.189,8.257a1.5,1.5,0,0,1,2.122,0l2.121,2.121A4.489,4.489,0,0,0,9.493,8.7H18.75a1.5,1.5,0,0,0,1.5-1.5V5.7A1.5,1.5,0,0,0,18.75,4.2Z"/><line class="a" x1="23.25" y1="4.197" x2="23.25" y2="8.697"/><line class="a" x1="20.25" y1="6.447" x2="23.25" y2="6.447"/><path class="a" d="M8.25,10.2v3s10.5,3.75,12,7.5c0,0-2.883,1.365-4.5,0-2.488-2.1-6.994-4.065-8.25-3.75A3.029,3.029,0,0,1,3.75,14.7Z"/><line class="a" x1="15.75" y1="8.697" x2="10.403" y2="14.043"/></svg>