<svg xmlns="http://www.w3.org/2000/svg" viewBox="0 0 24 24"><defs><style>.a{fill:none;stroke:currentColor;stroke-linecap:round;stroke-linejoin:round;stroke-width:1.5px;}</style></defs><title>tool-helmet-unlock</title><path class="a" d="M6.374,21.777A11.25,11.25,0,1,1,22.8,8.933"/><path class="a" d="M14.25,7.7a1.5,1.5,0,0,1-.325,1.635L8.364,14.9a3,3,0,0,1-2.121.879H1.376a11.271,11.271,0,0,1,.658-9h10.83A1.5,1.5,0,0,1,14.25,7.7Z"/><rect class="a" x="9.733" y="15.774" width="9" height="7.5" rx="1" ry="1" transform="translate(28.466 39.048) rotate(180)"/><path class="a" d="M23.233,15.774v-1.5a3,3,0,0,0-3-3h0a3,3,0,0,0-3,3v1.5"/><path class="a" d="M14.233,19.178a.375.375,0,0,0-.375.375"/><path class="a" d="M14.608,19.553a.375.375,0,0,0-.375-.375"/><path class="a" d="M14.233,19.928a.374.374,0,0,0,.375-.375"/><path class="a" d="M13.858,19.553a.374.374,0,0,0,.375.375"/></svg>