<svg id="Regular" xmlns="http://www.w3.org/2000/svg" viewBox="0 0 24 24"><defs><style>.cls-1{fill:none;stroke:currentColor;stroke-linecap:round;stroke-linejoin:round;stroke-width:1.5px;}</style></defs><title>tools-kitchen-scale-1</title><path class="cls-1" d="M20.491,22a1.614,1.614,0,0,1-1.629,1.253H5.138A1.614,1.614,0,0,1,3.509,22L1.645,11.847C.579,6.038,5.513.75,12,.75h0c6.487,0,11.421,5.288,10.355,11.1Z"/><circle class="cls-1" cx="12" cy="12" r="3.75"/><line class="cls-1" x1="12" y1="8.25" x2="12" y2="12"/><path class="cls-1" d="M12,4.875a.375.375,0,1,1-.375.375A.375.375,0,0,1,12,4.875"/><path class="cls-1" d="M6.962,6.962a.375.375,0,1,1,0,.53.374.374,0,0,1,0-.53"/><path class="cls-1" d="M5.25,11.625A.375.375,0,1,1,4.875,12a.375.375,0,0,1,.375-.375"/><path class="cls-1" d="M6.962,16.508a.375.375,0,1,1,0,.53.374.374,0,0,1,0-.53"/><path class="cls-1" d="M12,18.375a.375.375,0,1,1-.375.375A.375.375,0,0,1,12,18.375"/><path class="cls-1" d="M16.508,16.508a.375.375,0,1,1,0,.53.374.374,0,0,1,0-.53"/><path class="cls-1" d="M18.75,11.625a.375.375,0,1,1-.375.375.375.375,0,0,1,.375-.375"/><path class="cls-1" d="M16.508,6.962a.375.375,0,1,1,0,.53.374.374,0,0,1,0-.53"/></svg>