<svg xmlns="http://www.w3.org/2000/svg" viewBox="0 0 24 24"><defs><style>.a{fill:none;stroke:currentColor;stroke-linecap:round;stroke-linejoin:round;stroke-width:1.5px;}</style></defs><title>tools-hammer</title><path class="a" d="M19.58,6.542,20.662,5.46a1.5,1.5,0,1,0-2.121-2.122L17.458,4.421"/><path class="a" d="M11.137,10.741,1.57,20.309A1.5,1.5,0,1,0,3.691,22.43l9.568-9.567"/><path class="a" d="M18.893,15.714a1.5,1.5,0,0,1-1.932.158A37.752,37.752,0,0,1,8.128,7.039a1.5,1.5,0,0,1,.158-1.931l3.538-3.539a1.5,1.5,0,0,1,1.932-.158,37.757,37.757,0,0,1,8.834,8.833,1.5,1.5,0,0,1-.159,1.932Z"/></svg>