<svg xmlns="http://www.w3.org/2000/svg" viewBox="0 0 24 24"><defs><style>.a{fill:none;stroke:currentColor;stroke-linecap:round;stroke-linejoin:round;stroke-width:1.5px;}</style></defs><title>tools-hammer-hold</title><rect class="a" x="14.689" y="0.825" width="6.364" height="10.607" rx="1.5" ry="1.5" transform="translate(0.901 14.432) rotate(-45)"/><line class="a" x1="15.621" y1="8.379" x2="11.25" y2="12.75"/><path class="a" d="M12.129,17.871a3,3,0,0,0,0-4.242l-2.068-2.068a1.5,1.5,0,0,0-2.122,0L3.311,16.189a1.5,1.5,0,0,0,0,2.122l2.068,2.068a3,3,0,0,0,4.242,0Z"/><path class="a" d="M10.5,12a2.493,2.493,0,0,1,0-3,1.511,1.511,0,0,1,2.25,0l4.061,4.061a2.742,2.742,0,0,1,0,3.878,1.5,1.5,0,0,0,0,2.122L21,23.25"/><line class="a" x1="4.5" y1="19.5" x2="0.75" y2="23.25"/><line class="a" x1="7.746" y1="21.246" x2="9.75" y2="23.25"/></svg>