<svg xmlns="http://www.w3.org/2000/svg" viewBox="0 0 24 24"><defs><style>.a{fill:none;stroke:currentColor;stroke-linecap:round;stroke-linejoin:round;stroke-width:1.5px;}</style></defs><title>tools-saw</title><polygon class="a" points="9.937 18.571 10.997 15.389 14.179 14.328 15.24 11.146 18.422 10.086 19.483 6.904 22.134 6.373 23.195 3.191 21.604 1.601 4.633 13.268 9.937 18.571"/><path class="a" d="M3.164,14.291h5a0,0,0,0,1,0,0v7.5a0,0,0,0,1,0,0h-5a1,1,0,0,1-1-1v-5.5a1,1,0,0,1,1-1Z" transform="translate(-11.244 8.935) rotate(-45)"/><line class="a" x1="4.103" y1="16.98" x2="6.224" y2="19.101"/></svg>