<svg xmlns="http://www.w3.org/2000/svg" viewBox="0 0 24 24"><defs><style>.a{fill:none;stroke:currentColor;stroke-linecap:round;stroke-linejoin:round;stroke-width:1.5px;}</style></defs><title>tools-gasket-1</title><path class="a" d="M15,23.25H9a.75.75,0,0,1-.75-.75V18.751l1.5-3h4.5l1.5,3V22.5A.75.75,0,0,1,15,23.25Z"/><path class="a" d="M21,.75H3a.75.75,0,0,0-.75.75V3A.75.75,0,0,0,3,3.75H9a.75.75,0,0,1,.75.75V15.75h4.5V4.5A.75.75,0,0,1,15,3.75h6A.75.75,0,0,0,21.75,3V1.5A.75.75,0,0,0,21,.75Z"/><line class="a" x1="9.75" y1="12.75" x2="14.25" y2="12.75"/></svg>