<svg xmlns="http://www.w3.org/2000/svg" viewBox="0 0 24 24"><defs><style>.a{fill:none;stroke:currentColor;stroke-linecap:round;stroke-linejoin:round;stroke-width:1.5px;}</style></defs><title>tools-box</title><rect class="a" x="0.75" y="5.25" width="22.5" height="18" rx="3" ry="3"/><path class="a" d="M14.25.75H9.75a1.5,1.5,0,0,0-1.5,1.5v3h7.5v-3A1.5,1.5,0,0,0,14.25.75Z"/><circle class="a" cx="12" cy="14.25" r="1.5"/><path class="a" d="M13.274,8.447,13.716,9.9a.994.994,0,0,0,1.174.681l1.472-.341a1.339,1.339,0,0,1,1.275,2.218l-1.031,1.111a1,1,0,0,0,0,1.362l1.031,1.111a1.339,1.339,0,0,1-1.275,2.218l-1.472-.341a.994.994,0,0,0-1.174.681l-.442,1.453a1.33,1.33,0,0,1-2.548,0L10.284,18.6a.994.994,0,0,0-1.174-.681l-1.472.341a1.339,1.339,0,0,1-1.275-2.218l1.031-1.111a1,1,0,0,0,0-1.362L6.363,12.458A1.339,1.339,0,0,1,7.638,10.24l1.472.341A.994.994,0,0,0,10.284,9.9l.442-1.453A1.33,1.33,0,0,1,13.274,8.447Z"/></svg>