<svg xmlns="http://www.w3.org/2000/svg" viewBox="0 0 24 24"><defs><style>.a{fill:none;stroke:currentColor;stroke-linecap:round;stroke-linejoin:round;stroke-width:1.5px;}</style></defs><title>tools-axe-hold</title><path class="a" d="M10.693,19.371a3,3,0,0,0,0-4.242L8.625,13.061a1.5,1.5,0,0,0-2.121,0L1.875,17.689a1.5,1.5,0,0,0,0,2.122l2.068,2.068a3,3,0,0,0,4.242,0Z"/><path class="a" d="M9.064,13.5a2.493,2.493,0,0,1,0-3,1.511,1.511,0,0,1,2.25,0l4.061,4.061a2.742,2.742,0,0,1,0,3.878,1.5,1.5,0,0,0,0,2.122l2.689,2.689"/><path class="a" d="M16.124.75A6.968,6.968,0,0,0,11.624,3a6.968,6.968,0,0,0-2.25,4.5l4.5,2.249,3.75,3.75a1.5,1.5,0,0,0,2.121,0l2.379-2.379a1.5,1.5,0,0,0,0-2.121l-3.75-3.75Z"/><line class="a" x1="19.72" y1="6.594" x2="21.064" y2="5.25"/><line class="a" x1="10.922" y1="15.393" x2="15.22" y2="11.094"/></svg>