<svg xmlns="http://www.w3.org/2000/svg" viewBox="0 0 24 24"><defs><style>.a{fill:none;stroke:currentColor;stroke-linecap:round;stroke-linejoin:round;stroke-width:1.5px;}</style></defs><title>tools-nail-gun</title><path class="a" d="M11.25,21.75h-6a1.5,1.5,0,0,1-1.5-1.5V3.75a1.5,1.5,0,0,1,1.5-1.5h15a1.5,1.5,0,0,1,1.5,1.5v6a1.5,1.5,0,0,1-1.5,1.5h-4.5v6A4.5,4.5,0,0,1,11.25,21.75Z"/><path class="a" d="M23.25,21.75s-3-10.5-7.5-10.5"/><line class="a" x1="3.75" y1="3.75" x2="0.75" y2="3.75"/><line class="a" x1="3.75" y1="6.75" x2="0.75" y2="6.75"/><path class="a" d="M3.75,8.25H9.969a4.5,4.5,0,0,0,4.025-2.488L15.75,2.25"/><path class="a" d="M11.25,18.75h-3v-7.5h3a1.5,1.5,0,0,1,1.5,1.5v4.5A1.5,1.5,0,0,1,11.25,18.75Z"/><path class="a" d="M18,7.125a.375.375,0,1,1-.375.375A.375.375,0,0,1,18,7.125"/></svg>