<svg xmlns="http://www.w3.org/2000/svg" viewBox="0 0 24 24"><defs><style>.a{fill:none;stroke:currentColor;stroke-linecap:round;stroke-linejoin:round;stroke-width:1.5px;}</style></defs><title>tools-pliers</title><path class="a" d="M13.061,8.22a5.113,5.113,0,0,1,2.719,2.718,5.225,5.225,0,0,0,6.689-7.285l-3.54,3.54a1.5,1.5,0,0,1-2.122-2.122l3.54-3.54A5.226,5.226,0,0,0,13.061,8.22Z"/><path class="a" d="M14.686,9.314a5.251,5.251,0,0,0-7.425,0L.9,15.678a3,3,0,0,0,4.242,0l4.243-4.243a2.25,2.25,0,1,1,3.182,3.182L8.322,18.86a3,3,0,0,0,0,4.242l6.364-6.363A5.251,5.251,0,0,0,14.686,9.314Z"/><line class="a" x1="14.686" y1="9.314" x2="12.565" y2="11.435"/></svg>