<svg xmlns="http://www.w3.org/2000/svg" viewBox="0 0 24 24"><defs><style>.a{fill:none;stroke:currentColor;stroke-linecap:round;stroke-linejoin:round;stroke-width:1.5px;}</style></defs><title>tools-glue-gun</title><path class="a" d="M16.414,5.578,12.7,9.29a.749.749,0,0,1-1.06,0L10.58,8.23a.75.75,0,0,1,0-1.061l2.652-2.652Z"/><polyline class="a" points="5.478 11.539 2.625 17.245 8.331 14.392"/><line class="a" x1="17.474" y1="2.396" x2="19.122" y2="0.748"/><path class="a" d="M13.762,17.775a3.749,3.749,0,0,0,.065-5.235"/><path class="a" d="M22.125,9.168l-.408-.408a3,3,0,0,1,0-4.243L15.166,1.242A3,3,0,0,0,11.7,1.8l-5.9,5.9a3,3,0,0,0,0,4.243l2.121,2.121a3,3,0,0,0,4.243,0L13.231,13a3,3,0,0,1,4.243,0l4.651,4.651"/><path class="a" d="M1.875,21.153l1.3,1.559a1.5,1.5,0,0,0,2.3,0l1.446-1.734a1.5,1.5,0,0,1,2.3,0l1.446,1.734a1.5,1.5,0,0,0,2.3,0l1.446-1.734a1.5,1.5,0,0,1,2.3,0l1.446,1.734a1.5,1.5,0,0,0,2.3,0l1.3-1.559"/></svg>