<svg xmlns="http://www.w3.org/2000/svg" viewBox="0 0 24 24"><defs><style>.a{fill:none;stroke:currentColor;stroke-linecap:round;stroke-linejoin:round;stroke-width:1.5px;}</style></defs><title>tool-helmet-lock</title><path class="a" d="M10.5,20.811l-4.109.942A11.25,11.25,0,1,1,22.968,9.489"/><path class="a" d="M14.267,7.679a1.5,1.5,0,0,1-.325,1.634L8.381,14.874a3,3,0,0,1-2.121.879H1.393a11.271,11.271,0,0,1,.658-9h10.83A1.5,1.5,0,0,1,14.267,7.679Z"/><rect class="a" x="14.25" y="15.75" width="9" height="7.5" rx="1" ry="1"/><path class="a" d="M18.75,11.25h0a3,3,0,0,0-3,3v1.5h6v-1.5A3,3,0,0,0,18.75,11.25Z"/><path class="a" d="M18.75,19.154a.375.375,0,0,1,.375.375"/><path class="a" d="M18.375,19.529a.375.375,0,0,1,.375-.375"/><path class="a" d="M18.75,19.9a.375.375,0,0,1-.375-.375"/><path class="a" d="M19.125,19.529a.375.375,0,0,1-.375.375"/></svg>