<svg xmlns="http://www.w3.org/2000/svg" viewBox="0 0 24 24"><defs><style>.a{fill:none;stroke:currentColor;stroke-linecap:round;stroke-linejoin:round;stroke-width:1.5px;}</style></defs><title>tools-wench-screwdriver</title><path class="a" d="M4.591,22.542A2.25,2.25,0,0,1,1.409,19.36L7.773,13l3.182,3.182Z"/><line class="a" x1="18.379" y1="5.572" x2="9.364" y2="14.587"/><path class="a" d="M20.5,5.572A1.5,1.5,0,0,1,18.379,3.45L21.031.8,23.152,2.92Z"/><path class="a" d="M10.49,8.32,8.2,6.025a3.748,3.748,0,0,0-.837-4.019A3.708,3.708,0,0,0,5.123.948,2.993,2.993,0,0,1,1,5.074,3.721,3.721,0,0,0,6.073,8.146L7.649,9.722"/><path class="a" d="M14.237,16.31l1.775,1.774a3.75,3.75,0,1,0,2.121-2.121l-2.511-2.511"/><path class="a" d="M19.235,19.186a.375.375,0,1,1,0,.53.375.375,0,0,1,0-.53"/></svg>