<svg id="Regular" xmlns="http://www.w3.org/2000/svg" viewBox="0 0 24 24"><defs><style>.cls-1{fill:none;stroke:currentColor;stroke-linecap:round;stroke-linejoin:round;stroke-width:1.5px;}</style></defs><title>torch</title><path class="cls-1" d="M11.471.75a3.739,3.739,0,0,1,.379,4.263,1.333,1.333,0,0,1-1.421-1.137A3.017,3.017,0,0,0,8.866,6.718a3.411,3.411,0,0,0,3.411,3.411,3.458,3.458,0,0,0,3.41-3.411A5.671,5.671,0,0,0,11.471.75Z"/><path class="cls-1" d="M13.542,23.25h-3.2a.749.749,0,0,1-.742-.644l-1.286-9a.75.75,0,0,1,.742-.856h5.771a.75.75,0,0,1,.742.856l-1.285,9A.75.75,0,0,1,13.542,23.25Z"/></svg>