<svg xmlns="http://www.w3.org/2000/svg" viewBox="0 0 24 24"><defs><style>.a{fill:none;stroke:currentColor;stroke-linecap:round;stroke-linejoin:round;stroke-width:1.5px;}</style></defs><title>toys-train</title><circle class="a" cx="16.499" cy="19.5" r="3"/><circle class="a" cx="5.999" cy="19.5" r="3"/><line class="a" x1="8.999" y1="19.5" x2="13.499" y2="19.5"/><path class="a" d="M19.5,19.5h.75a1.5,1.5,0,0,0,1.5-1.5l0-13.5H11.252V12h-9a1.5,1.5,0,0,0-1.5,1.5V18a1.5,1.5,0,0,0,1.5,1.5H3"/><path class="a" d="M23.251,3a1.5,1.5,0,0,1-1.5,1.5h-10.5a1.5,1.5,0,0,1,0-3h10.5A1.5,1.5,0,0,1,23.251,3Z"/><rect class="a" x="3.752" y="7.5" width="3" height="4.5"/><line class="a" x1="2.252" y1="7.5" x2="8.252" y2="7.5"/><circle class="a" cx="16.499" cy="9.75" r="2.25"/><line class="a" x1="11.249" y1="12" x2="11.249" y2="19.5"/></svg>