<svg xmlns="http://www.w3.org/2000/svg" viewBox="0 0 24 24"><defs><style>.a{fill:none;stroke:currentColor;stroke-linecap:round;stroke-linejoin:round;stroke-width:1.5px;}</style></defs><title>toys-caterpillar</title><path class="a" d="M5.625,6.75A.375.375,0,0,1,6,7.125"/><path class="a" d="M5.25,7.125a.375.375,0,0,1,.375-.375"/><path class="a" d="M5.625,7.5a.375.375,0,0,1-.375-.375"/><path class="a" d="M6,7.125a.375.375,0,0,1-.375.375"/><path class="a" d="M9.375,6.75a.375.375,0,0,1,.375.375"/><path class="a" d="M9,7.125a.375.375,0,0,1,.375-.375"/><path class="a" d="M9.375,7.5A.375.375,0,0,1,9,7.125"/><path class="a" d="M9.75,7.125a.375.375,0,0,1-.375.375"/><path class="a" d="M6.638,13.43a5.252,5.252,0,1,1,4.574-1.468"/><line class="a" x1="10.026" y1="3.647" x2="12" y2="0.75"/><line class="a" x1="4.974" y1="3.647" x2="3" y2="0.75"/><path class="a" d="M17.234,17.66a3,3,0,1,1-1.405,3.279"/><path class="a" d="M12.023,10.917a4.5,4.5,0,1,1-7.26,1.814"/><path class="a" d="M13.5,14.25a3.75,3.75,0,1,1-3.689,4.427"/></svg>