<svg xmlns="http://www.w3.org/2000/svg" viewBox="0 0 24 24"><defs><style>.a{fill:none;stroke:currentColor;stroke-linecap:round;stroke-linejoin:round;stroke-width:1.5px;}</style></defs><title>toys-propeller-hat</title><path class="a" d="M2.366,22.5A1.5,1.5,0,0,1,.882,20.771a11.252,11.252,0,0,1,22.236,0A1.5,1.5,0,0,1,21.634,22.5Z"/><line class="a" x1="12" y1="11.25" x2="12" y2="1.5"/><path class="a" d="M23.25,3.75c0,1.243-1.343,2.25-3,2.25S12,3.75,12,3.75,18.593,1.5,20.25,1.5,23.25,2.507,23.25,3.75Z"/><path class="a" d="M.75,3.75C.75,4.993,2.093,6,3.75,6S12,3.75,12,3.75,5.407,1.5,3.75,1.5.75,2.507.75,3.75Z"/><line class="a" x1="22.845" y1="19.5" x2="1.155" y2="19.5"/></svg>