<svg xmlns="http://www.w3.org/2000/svg" viewBox="0 0 24 24"><defs><style>.a{fill:none;stroke:currentColor;stroke-linecap:round;stroke-linejoin:round;stroke-width:1.5px;}</style></defs><title>toys-car-push</title><path class="a" d="M4.5,8.25,5.658,4.776A1.5,1.5,0,0,1,7.081,3.75H12.75v4.5h9v6H19.5a2.25,2.25,0,0,0-4.5,0H7.5a2.25,2.25,0,0,0-4.5,0H.75V9.75a1.5,1.5,0,0,1,1.5-1.5Z"/><circle class="a" cx="3.75" cy="20.25" r="3"/><circle class="a" cx="18.75" cy="20.25" r="3"/><path class="a" d="M17.314,8.25A7.852,7.852,0,0,1,20.4,2.894"/><circle class="a" cx="21.75" cy="2.25" r="1.5"/><path class="a" d="M9.75,3.75v3a1.5,1.5,0,0,1-1.5,1.5H4.5"/><line class="a" x1="5.579" y1="17.872" x2="7.499" y2="14.19"/><line class="a" x1="16.985" y1="17.824" x2="15.002" y2="14.146"/><line class="a" x1="6.75" y1="20.25" x2="15.75" y2="20.25"/><path class="a" d="M18.75,19.875a.375.375,0,1,1-.375.375.375.375,0,0,1,.375-.375"/><path class="a" d="M3.75,19.875a.375.375,0,1,1-.375.375.375.375,0,0,1,.375-.375"/></svg>