<svg xmlns="http://www.w3.org/2000/svg" viewBox="0 0 24 24"><defs><style>.a{fill:none;stroke:currentColor;stroke-linecap:round;stroke-linejoin:round;stroke-width:1.5px;}</style></defs><title>toys-teddy-bear</title><path class="a" d="M19.5,3a2.248,2.248,0,0,0-4.44-.5,5.182,5.182,0,0,0-6.12,0A2.248,2.248,0,1,0,6.75,5.25,2.337,2.337,0,0,0,7,5.225,5.166,5.166,0,0,0,6.75,6.75a5.25,5.25,0,0,0,10.5,0A5.166,5.166,0,0,0,17,5.225a2.337,2.337,0,0,0,.252.025A2.25,2.25,0,0,0,19.5,3Z"/><path class="a" d="M9.75,5.625A.375.375,0,0,1,10.125,6"/><path class="a" d="M9.375,6a.375.375,0,0,1,.375-.375"/><path class="a" d="M9.75,6.375A.375.375,0,0,1,9.375,6"/><path class="a" d="M10.125,6a.375.375,0,0,1-.375.375"/><path class="a" d="M14.25,5.625A.375.375,0,0,1,14.625,6"/><path class="a" d="M13.875,6a.375.375,0,0,1,.375-.375"/><path class="a" d="M14.25,6.375A.375.375,0,0,1,13.875,6"/><path class="a" d="M14.625,6a.375.375,0,0,1-.375.375"/><path class="a" d="M7.277,17.3A5.239,5.239,0,0,1,6.75,15a6.427,6.427,0,0,1,.059-.845"/><path class="a" d="M14.3,19.723a5.265,5.265,0,0,1-4.592,0"/><path class="a" d="M17.19,14.147a6.564,6.564,0,0,1,.06.853,5.239,5.239,0,0,1-.527,2.3"/><circle class="a" cx="6.75" cy="20.25" r="3"/><circle class="a" cx="17.25" cy="20.25" r="3"/><path class="a" d="M6.809,14.155,2.474,12.224A2.25,2.25,0,0,1,4.305,8.113"/><path class="a" d="M17.191,14.155l4.335-1.931A2.25,2.25,0,1,0,19.7,8.113"/></svg>