<svg xmlns="http://www.w3.org/2000/svg" viewBox="0 0 24 24"><defs><style>.a{fill:none;stroke:currentColor;stroke-linecap:round;stroke-linejoin:round;stroke-width:1.5px;}</style></defs><title>toys-rocking-horse-1</title><path class="a" d="M17.884,10.419c1.364,1.246,3.509,2.794,5.366,2.33"/><path class="a" d="M21.238,17.249a9.02,9.02,0,0,0-2.7-3.895A1.5,1.5,0,0,1,18,12.205v-.956a3,3,0,0,0-3-3H11.106a1.5,1.5,0,0,1-1.384-.924L7.558,2.133A1.5,1.5,0,0,0,5.6,1.325L2.135,2.768A2.25,2.25,0,0,0,3.866,6.922a.75.75,0,0,1,.981.4c.479,1.151,1.442,3.463,2,4.791A1.5,1.5,0,0,1,6.5,13.773a9.006,9.006,0,0,0-2.238,3.475l2.875,1.5a6.752,6.752,0,0,1,11.226,0Z"/><path class="a" d="M6.043,1.215C8.074.263,9.919.855,10.5,2.249l3,6"/><path class="a" d="M5.25,3.874a.375.375,0,0,1,.375.375"/><path class="a" d="M4.875,4.249a.375.375,0,0,1,.375-.375"/><path class="a" d="M5.25,4.624a.375.375,0,0,1-.375-.375"/><path class="a" d="M5.625,4.249a.375.375,0,0,1-.375.375"/><path class="a" d="M15.75,8.343v2.906a1.5,1.5,0,0,1-1.5,1.5h-1.5a1.5,1.5,0,0,1-1.5-1.5v-3"/><line class="a" x1="10.5" y1="20.248" x2="15" y2="20.248"/><line class="a" x1="10.5" y1="23.248" x2="15" y2="23.248"/></svg>