<svg xmlns="http://www.w3.org/2000/svg" viewBox="0 0 24 24"><defs><style>.a{fill:none;stroke:currentColor;stroke-linecap:round;stroke-linejoin:round;stroke-width:1.5px;}</style></defs><title>toys-furby</title><path class="a" d="M9,10.065a.375.375,0,0,1,.375.375"/><path class="a" d="M8.625,10.44A.375.375,0,0,1,9,10.065"/><path class="a" d="M9,10.815a.375.375,0,0,1-.375-.375"/><path class="a" d="M9.375,10.44A.375.375,0,0,1,9,10.815"/><path class="a" d="M15,10.065a.375.375,0,0,1,.375.375"/><path class="a" d="M14.625,10.44A.375.375,0,0,1,15,10.065"/><path class="a" d="M15,10.815a.375.375,0,0,1-.375-.375"/><path class="a" d="M15.375,10.44a.375.375,0,0,1-.375.375"/><path class="a" d="M9,15.69a3,3,0,1,1,6,0Z"/><path class="a" d="M3,23.19a3,3,0,0,1,6,0Z"/><path class="a" d="M15,23.19a3,3,0,1,1,6,0Z"/><path class="a" d="M5.811,8.168A5.213,5.213,0,0,1,2.437,5.94,7.045,7.045,0,0,1,1.6,1.127a.375.375,0,0,1,.5-.3c2.905,1.033,5.041,2.5,5.665,4.83"/><path class="a" d="M18.189,8.168A5.208,5.208,0,0,0,21.562,5.94,7.04,7.04,0,0,0,22.4,1.127a.375.375,0,0,0-.5-.3c-2.9,1.033-5.041,2.5-5.665,4.83"/><path class="a" d="M5.655,20.2A8.231,8.231,0,0,1,3.75,14.94C3.75,10.38,7.44,3.69,12,3.69s8.25,6.69,8.25,11.25A8.231,8.231,0,0,1,18.345,20.2"/><path class="a" d="M15.06,22.59v.015a8.3,8.3,0,0,1-6.12,0V22.59"/></svg>