<svg xmlns="http://www.w3.org/2000/svg" viewBox="0 0 24 24"><defs><style>.a{fill:none;stroke:currentColor;stroke-linecap:round;stroke-linejoin:round;stroke-width:1.5px;}</style></defs><title>toys-duck</title><circle class="a" cx="7.5" cy="6.75" r="4.5"/><line class="a" x1="3" y1="6.75" x2="0.75" y2="6.75"/><line class="a" x1="23.25" y1="0.75" x2="15" y2="11.25"/><circle class="a" cx="16.125" cy="19.875" r="3.375"/><path class="a" d="M7.125,5.25a.375.375,0,0,1,.375.375"/><path class="a" d="M6.75,5.625a.375.375,0,0,1,.375-.375"/><path class="a" d="M7.125,6a.375.375,0,0,1-.375-.375"/><path class="a" d="M7.5,5.625A.375.375,0,0,1,7.125,6"/><path class="a" d="M12.75,11.25h10.5a8.246,8.246,0,0,1-4.1,7.131"/><path class="a" d="M12.816,19.208a8.255,8.255,0,0,1-6.066-8.02"/></svg>