<svg xmlns="http://www.w3.org/2000/svg" viewBox="0 0 24 24"><defs><style>.a{fill:none;stroke:currentColor;stroke-linecap:round;stroke-linejoin:round;stroke-width:1.5px;}</style></defs><title>toys-balloon</title><path class="a" d="M9,5.25a.375.375,0,0,1,.375.375"/><path class="a" d="M8.625,5.625A.375.375,0,0,1,9,5.25"/><path class="a" d="M9,6a.375.375,0,0,1-.375-.375"/><path class="a" d="M9.375,5.625A.375.375,0,0,1,9,6"/><path class="a" d="M14.25,5.25a.375.375,0,0,1,.375.375"/><path class="a" d="M13.875,5.625a.375.375,0,0,1,.375-.375"/><path class="a" d="M14.25,6a.375.375,0,0,1-.375-.375"/><path class="a" d="M14.625,5.625A.375.375,0,0,1,14.25,6"/><ellipse class="a" cx="11.625" cy="8.25" rx="6.75" ry="7.5"/><path class="a" d="M14.223,10.5a3,3,0,0,1-5.2,0"/><path class="a" d="M11.625,15.75v1.6a3,3,0,0,0,3.3,2.907,3.5,3.5,0,0,1,3,1.395l1.2,1.6"/></svg>