<svg xmlns="http://www.w3.org/2000/svg" viewBox="0 0 24 24"><defs><style>.a{fill:none;stroke:currentColor;stroke-linecap:round;stroke-linejoin:round;stroke-width:1.5px;}</style></defs><title>toys-dinosaur</title><path class="a" d="M17.25,12v-.75a1.474,1.474,0,0,1,1.444-1.5,4.5,4.5,0,0,0,4.532-4.972A4.643,4.643,0,0,0,18.541.75H12.75a6,6,0,0,0-6,6v4.5a6,6,0,0,1-6,6,6,6,0,0,0,6,6"/><path class="a" d="M11.408,17.566A3,3,0,0,0,12.75,23.25H19.5a.75.75,0,0,0,.75-.75,3,3,0,0,0-3-3V15.75"/><path class="a" d="M7.592,3.683,3.761,6.243A.75.75,0,0,0,3.647,7.4l3.1,3.1L3.27,11.66a.75.75,0,0,0-.348,1.18l2.1,2.624"/><path class="a" d="M15,12h3a3.751,3.751,0,0,1,3.632,2.813.75.75,0,0,1-.727.937H15"/><path class="a" d="M13.085,3.752a.376.376,0,0,1,.413.334"/><path class="a" d="M12.752,4.165a.375.375,0,0,1,.333-.413"/><path class="a" d="M13.164,4.5a.375.375,0,0,1-.412-.333"/><path class="a" d="M13.5,4.086a.375.375,0,0,1-.334.412"/><line class="a" x1="22.992" y1="6.75" x2="18.75" y2="6.75"/></svg>