<svg xmlns="http://www.w3.org/2000/svg" viewBox="0 0 24 24"><defs><style>.a{fill:none;stroke:currentColor;stroke-linecap:round;stroke-linejoin:round;stroke-width:1.5px;}</style></defs><title>toys-clown</title><path class="a" d="M17.25,22.5a.75.75,0,0,1-.75.75h-9a.75.75,0,0,1-.75-.75v-6h10.5Z"/><circle class="a" cx="12" cy="6" r="5.25"/><circle class="a" cx="12" cy="7.5" r="1.5"/><path class="a" d="M16.535,8.646A2.25,2.25,0,0,0,21,8.25c0-.042,0-.085,0-.127a2.25,2.25,0,0,0,0-4.246c0-.042,0-.085,0-.127a2.25,2.25,0,0,0-4.465-.4"/><path class="a" d="M7.465,8.646A2.25,2.25,0,0,1,3,8.25c0-.042,0-.085,0-.127A2.25,2.25,0,0,1,3,3.877c0-.042,0-.085,0-.127a2.25,2.25,0,0,1,4.465-.4"/><line class="a" x1="9.75" y1="10.744" x2="9.75" y2="16.5"/><line class="a" x1="14.25" y1="10.744" x2="14.25" y2="16.5"/><line class="a" x1="17.25" y1="16.5" x2="23.25" y2="21"/><line class="a" x1="6.75" y1="16.5" x2="0.75" y2="21"/></svg>