<svg xmlns="http://www.w3.org/2000/svg" viewBox="0 0 24 24"><defs><style>.a{fill:none;stroke:currentColor;stroke-linecap:round;stroke-linejoin:round;stroke-width:1.5px;}</style></defs><title>toys-fidget-spinner</title><path class="a" d="M22.009,16.712l-5.266-4.739a3,3,0,0,1-.993-2.23V4.5a3.75,3.75,0,0,0-7.5,0V9.743a3,3,0,0,1-.993,2.23L1.991,16.712a3.751,3.751,0,0,0,5.018,5.576L9.993,19.6a3,3,0,0,1,4.014,0l2.984,2.686a3.751,3.751,0,0,0,5.018-5.576Z"/><circle class="a" cx="12" cy="13.5" r="2.25"/><path class="a" d="M12,4.125a.375.375,0,0,1,.375.375"/><path class="a" d="M11.625,4.5A.375.375,0,0,1,12,4.125"/><path class="a" d="M12,4.875a.375.375,0,0,1-.375-.375"/><path class="a" d="M12.375,4.5A.375.375,0,0,1,12,4.875"/><path class="a" d="M19.5,19.125a.375.375,0,0,1,.375.375"/><path class="a" d="M19.125,19.5a.375.375,0,0,1,.375-.375"/><path class="a" d="M19.5,19.875a.375.375,0,0,1-.375-.375"/><path class="a" d="M19.875,19.5a.375.375,0,0,1-.375.375"/><path class="a" d="M4.5,19.125a.375.375,0,0,1,.375.375"/><path class="a" d="M4.125,19.5a.375.375,0,0,1,.375-.375"/><path class="a" d="M4.5,19.875a.375.375,0,0,1-.375-.375"/><path class="a" d="M4.875,19.5a.375.375,0,0,1-.375.375"/></svg>