<svg xmlns="http://www.w3.org/2000/svg" viewBox="0 0 24 24"><defs><style>.a{fill:none;stroke:currentColor;stroke-linecap:round;stroke-linejoin:round;stroke-width:1.5px;}</style></defs><title>toys-castle</title><line class="a" x1="8.25" y1="7.875" x2="8.25" y2="14.625"/><rect class="a" x="0.75" y="2.625" width="9" height="5.25" rx="1.5" ry="1.5"/><line class="a" x1="15.75" y1="14.625" x2="15.75" y2="7.875"/><rect class="a" x="14.25" y="2.625" width="9" height="5.25" rx="1.5" ry="1.5"/><line class="a" x1="8.25" y1="11.625" x2="15.75" y2="11.625"/><path class="a" d="M21.75,7.875v12.75a.75.75,0,0,1-.75.75H3a.75.75,0,0,1-.75-.75V7.875"/><line class="a" x1="5.25" y1="2.625" x2="5.25" y2="4.875"/><line class="a" x1="18.75" y1="2.625" x2="18.75" y2="4.875"/><path class="a" d="M9.75,21.375v-3a2.25,2.25,0,0,1,4.5,0v3"/></svg>