<svg xmlns="http://www.w3.org/2000/svg" viewBox="0 0 24 24"><defs><style>.a{fill:none;stroke:currentColor;stroke-linecap:round;stroke-linejoin:round;stroke-width:1.5px;}</style></defs><title>toys-lego</title><path class="a" d="M8.25,23.25H1.5a.75.75,0,0,1-.75-.75V17.25"/><polyline class="a" points="8.25 17.25 0.75 17.25 0.75 11.25"/><path class="a" d="M12.75,11.25H.75V6a.75.75,0,0,1,.75-.75H12a.75.75,0,0,1,.75.75v5.25"/><path class="a" d="M1.5,5.25V3a.75.75,0,0,1,.75-.75H4.5A.75.75,0,0,1,5.25,3V5.25"/><path class="a" d="M8.25,5.25V3A.75.75,0,0,1,9,2.25h2.25A.75.75,0,0,1,12,3V5.25"/><path class="a" d="M12,17.25V15a.75.75,0,0,1,.75-.75H15a.75.75,0,0,1,.75.75v2.25"/><path class="a" d="M18.75,17.25V15a.75.75,0,0,1,.75-.75h2.25a.75.75,0,0,1,.75.75v2.25"/><rect class="a" x="11.25" y="17.25" width="12" height="6" rx="0.75" ry="0.75"/></svg>