<svg xmlns="http://www.w3.org/2000/svg" viewBox="0 0 24 24"><defs><style>.a{fill:none;stroke:currentColor;stroke-linecap:round;stroke-linejoin:round;stroke-width:1.5px;}</style></defs><title>traffic-light</title><rect class="a" x="9.75" y="0.75" width="13.5" height="6" rx="1.5" ry="1.5"/><path class="a" d="M16.5,3.375a.375.375,0,0,1,.375.375"/><path class="a" d="M16.125,3.75a.375.375,0,0,1,.375-.375"/><path class="a" d="M16.5,4.125a.375.375,0,0,1-.375-.375"/><path class="a" d="M16.875,3.75a.375.375,0,0,1-.375.375"/><path class="a" d="M20.25,3.375a.375.375,0,0,1,.375.375"/><path class="a" d="M19.875,3.75a.375.375,0,0,1,.375-.375"/><path class="a" d="M20.25,4.125a.375.375,0,0,1-.375-.375"/><path class="a" d="M20.625,3.75a.375.375,0,0,1-.375.375"/><path class="a" d="M12.75,3.375a.375.375,0,0,1,.375.375"/><path class="a" d="M12.375,3.75a.375.375,0,0,1,.375-.375"/><path class="a" d="M12.75,4.125a.375.375,0,0,1-.375-.375"/><path class="a" d="M13.125,3.75a.375.375,0,0,1-.375.375"/><path class="a" d="M9.75,3.75h-3a3,3,0,0,0-3,3v16.5"/><line class="a" x1="0.75" y1="23.25" x2="6.75" y2="23.25"/></svg>