<svg xmlns="http://www.w3.org/2000/svg" viewBox="0 0 24 24"><defs><style>.a{fill:none;stroke:currentColor;stroke-linecap:round;stroke-linejoin:round;stroke-width:1.5px;}</style></defs><title>transform-left</title><line class="a" x1="9.747" y1="22.828" x2="9.747" y2="18.75"/><line class="a" x1="23.247" y1="14.25" x2="23.247" y2="15.75"/><line class="a" x1="9.747" y1="14.25" x2="9.747" y2="15.75"/><line class="a" x1="9.747" y1="9.75" x2="9.747" y2="11.25"/><line class="a" x1="23.247" y1="18.75" x2="23.247" y2="22.422"/><path class="a" d="M23.247,11.25a1.5,1.5,0,0,0-1.5-1.5"/><line class="a" x1="17.247" y1="9.75" x2="18.747" y2="9.75"/><path class="a" d="M.9,11A.788.788,0,0,1,1.538,9.75H12.716a3,3,0,0,1,2.432,1.244L23.1,22a.788.788,0,0,1-.639,1.249H11.281a3,3,0,0,1-2.432-1.244Z"/><line class="a" x1="7.058" y1="3.75" x2="18.747" y2="3.75"/><path class="a" d="M9.747,6.75,7.277,4.28a.749.749,0,0,1,0-1.06L9.747.75"/></svg>