<svg id="Regular" xmlns="http://www.w3.org/2000/svg" viewBox="0 0 24 24"><defs><style>.cls-1{fill:none;stroke:currentColor;stroke-linecap:round;stroke-linejoin:round;stroke-width:1.5px;}</style></defs><title>transfusion-bag</title><line class="cls-1" x1="15.75" y1="9.75" x2="20.25" y2="9.75"/><line class="cls-1" x1="15.75" y1="6.75" x2="20.25" y2="6.75"/><path class="cls-1" d="M5.25,21a2.25,2.25,0,0,1-4.5,0C.75,19.757,3,17.25,3,17.25S5.25,19.757,5.25,21Z"/><path class="cls-1" d="M3,12.75A5.25,5.25,0,0,1,8.25,18a5.25,5.25,0,0,0,5.25,5.25,4.5,4.5,0,0,0,4.5-4.5v-3"/><path class="cls-1" d="M20.25.75h-4.5a3,3,0,0,0-3,3v7.5a3,3,0,0,0,3,3v1.5h4.5v-1.5a3,3,0,0,0,3-3V3.75A3,3,0,0,0,20.25.75Z"/></svg>