<svg xmlns="http://www.w3.org/2000/svg" viewBox="0 0 24 24"><defs><style>.a{fill:none;stroke:currentColor;stroke-linecap:round;stroke-linejoin:round;stroke-width:1.5px;}</style></defs><title>transportation-ticket-car-transfer-bus</title><polyline class="a" points="21.75 6.013 19.5 8.263 17.25 6.013"/><path class="a" d="M16.5,2.263a3,3,0,0,1,3,3v3"/><polyline class="a" points="1.5 18.013 3.75 15.763 6 18.013"/><path class="a" d="M6.75,21.763a3,3,0,0,1-3-3v-3"/><path class="a" d="M23.25,20.263V18.634a1.5,1.5,0,0,0-.439-1.06L21.75,15.763H11.25l-1.061,1.811a1.5,1.5,0,0,0-.439,1.06v1.629a1.5,1.5,0,0,0,1.5,1.5h10.5A1.5,1.5,0,0,0,23.25,20.263Z"/><path class="a" d="M19.169,11.263a1.528,1.528,0,0,1,1.423.769l1.158,3.731H11.25l1.158-3.731a1.528,1.528,0,0,1,1.423-.769Z"/><line class="a" x1="12.75" y1="18.763" x2="14.25" y2="18.763"/><line class="a" x1="18.75" y1="18.763" x2="20.25" y2="18.763"/><line class="a" x1="11.25" y1="21.763" x2="11.25" y2="23.263"/><line class="a" x1="21.75" y1="21.763" x2="21.75" y2="23.263"/><rect class="a" x="0.75" y="0.763" width="9.75" height="9.75" rx="1" ry="1"/><line class="a" x1="2.25" y1="10.513" x2="2.25" y2="12.013"/><line class="a" x1="9" y1="10.513" x2="9" y2="12.013"/><line class="a" x1="0.75" y1="5.263" x2="10.5" y2="5.263"/><path class="a" d="M3.375,7.513a.375.375,0,0,1,.375.375"/><path class="a" d="M3,7.888a.375.375,0,0,1,.375-.375"/><path class="a" d="M3.375,8.263A.375.375,0,0,1,3,7.888"/><path class="a" d="M3.75,7.888a.375.375,0,0,1-.375.375"/><path class="a" d="M7.875,7.513a.375.375,0,0,1,.375.375"/><path class="a" d="M7.5,7.888a.375.375,0,0,1,.375-.375"/><path class="a" d="M7.875,8.263A.375.375,0,0,1,7.5,7.888"/><path class="a" d="M8.25,7.888a.375.375,0,0,1-.375.375"/></svg>