<svg xmlns="http://www.w3.org/2000/svg" viewBox="0 0 24 24"><defs><style>.a{fill:none;stroke:currentColor;stroke-linecap:round;stroke-linejoin:round;stroke-width:1.5px;}</style></defs><title>transportation-ticket-car-transfer-1</title><polyline class="a" points="23.25 6.013 21 8.263 18.75 6.013"/><path class="a" d="M18,2.263a3,3,0,0,1,3,3v3"/><polyline class="a" points="0.75 18.013 3 15.763 5.25 18.013"/><path class="a" d="M6,21.763a3,3,0,0,1-3-3v-3"/><path class="a" d="M23.25,20.263V18.634a1.5,1.5,0,0,0-.439-1.06L21.75,15.763H11.25l-1.061,1.811a1.5,1.5,0,0,0-.439,1.06v1.629a1.5,1.5,0,0,0,1.5,1.5h10.5A1.5,1.5,0,0,0,23.25,20.263Z"/><path class="a" d="M16.5,11.263h2.669a1.528,1.528,0,0,1,1.423.769l1.158,3.731H11.25l.233-.75"/><line class="a" x1="12.75" y1="18.763" x2="14.25" y2="18.763"/><line class="a" x1="18.75" y1="18.763" x2="20.25" y2="18.763"/><line class="a" x1="11.25" y1="21.763" x2="11.25" y2="23.263"/><line class="a" x1="21.75" y1="21.763" x2="21.75" y2="23.263"/><path class="a" d="M14.25,9.763V8.134a1.5,1.5,0,0,0-.439-1.06L12.75,5.263H2.25L1.189,7.074A1.5,1.5,0,0,0,.75,8.134V9.763a1.5,1.5,0,0,0,1.5,1.5h10.5A1.5,1.5,0,0,0,14.25,9.763Z"/><path class="a" d="M10.169.763a1.528,1.528,0,0,1,1.423.769L12.75,5.263H2.25L3.408,1.532A1.528,1.528,0,0,1,4.831.763Z"/><line class="a" x1="3.75" y1="8.263" x2="5.25" y2="8.263"/><line class="a" x1="9.75" y1="8.263" x2="11.25" y2="8.263"/><line class="a" x1="2.25" y1="11.263" x2="2.25" y2="12.763"/><line class="a" x1="12.75" y1="11.263" x2="12.75" y2="12.763"/></svg>