<svg xmlns="http://www.w3.org/2000/svg" viewBox="0 0 24 24"><defs><style>.a{fill:none;stroke:currentColor;stroke-linecap:round;stroke-linejoin:round;stroke-width:1.5px;}</style></defs><title>transform-right</title><line class="a" x1="14.25" y1="22.828" x2="14.25" y2="18.75"/><line class="a" x1="0.75" y1="14.25" x2="0.75" y2="15.75"/><line class="a" x1="14.25" y1="14.25" x2="14.25" y2="15.75"/><line class="a" x1="14.25" y1="9.75" x2="14.25" y2="11.25"/><line class="a" x1="0.75" y1="18.75" x2="0.75" y2="22.422"/><path class="a" d="M.75,11.25a1.5,1.5,0,0,1,1.5-1.5"/><line class="a" x1="6.75" y1="9.75" x2="5.25" y2="9.75"/><path class="a" d="M23.1,11a.788.788,0,0,0-.639-1.249H11.281a3,3,0,0,0-2.432,1.244L.9,22a.788.788,0,0,0,.639,1.249H12.716a3,3,0,0,0,2.432-1.244Z"/><line class="a" x1="16.939" y1="3.75" x2="5.25" y2="3.75"/><path class="a" d="M14.25,6.75l2.47-2.47a.749.749,0,0,0,0-1.06L14.25.75"/></svg>