<svg xmlns="http://www.w3.org/2000/svg" viewBox="0 0 24 24"><defs><style>.a{fill:none;stroke:currentColor;stroke-linecap:round;stroke-linejoin:round;stroke-width:1.5px;}</style></defs><title>transportation-ticket-boat-train-transfer</title><rect class="a" x="13.5" y="12.013" width="9" height="9" rx="1" ry="1"/><line class="a" x1="13.5" y1="18.013" x2="22.5" y2="18.013"/><line class="a" x1="15" y1="21.013" x2="12.75" y2="23.263"/><line class="a" x1="21" y1="21.013" x2="23.25" y2="23.263"/><polyline class="a" points="22.5 6.763 20.25 9.013 18 6.763"/><path class="a" d="M17.25,3.013a3,3,0,0,1,3,3v3"/><polyline class="a" points="2.25 17.263 4.5 15.013 6.75 17.263"/><path class="a" d="M7.5,21.013a3,3,0,0,1-3-3v-3"/><polyline class="a" points="3.077 9.141 0.75 5.263 14.25 5.263 11.923 9.141"/><polygon class="a" points="11.25 5.263 3.75 5.263 4.5 2.263 10.5 2.263 11.25 5.263"/><line class="a" x1="9" y1="2.263" x2="9" y2="0.763"/><path class="a" d="M14.25,9.763a4.349,4.349,0,0,1-3.375-1.5A4.349,4.349,0,0,1,7.5,9.763a4.349,4.349,0,0,1-3.375-1.5A4.349,4.349,0,0,1,.75,9.763"/></svg>