<svg xmlns="http://www.w3.org/2000/svg" viewBox="0 0 24 24"><defs><style>.a{fill:none;stroke:currentColor;stroke-linecap:round;stroke-linejoin:round;stroke-width:1.5px;}</style></defs><title>transportation-ticket-plane-transfer</title><polyline class="a" points="22.49 7.518 20.242 9.765 17.994 7.518"/><path class="a" d="M17.245,3.771a3,3,0,0,1,3,3v3"/><polyline class="a" points="1.51 16.508 3.758 14.261 6.006 16.508"/><path class="a" d="M6.755,20.255a3,3,0,0,1-3-3v-3"/><line class="a" x1="0.761" y1="6.975" x2="2.124" y2="8.198"/><path class="a" d="M12.03,4.293l-2.286.9L5.655,1.524l-2.286.9L6.7,6.4,2.124,8.2,4.1,9.969a1.636,1.636,0,0,0,1.7.3l7.441-2.933a1.638,1.638,0,0,0-1.2-3.048Z"/><line class="a" x1="9.752" y1="19.089" x2="11.115" y2="20.312"/><path class="a" d="M21.021,16.407l-2.286.9-4.089-3.67-2.286.9,3.327,3.971-4.572,1.8,1.973,1.771a1.636,1.636,0,0,0,1.7.305l7.44-2.933a1.638,1.638,0,0,0-1.2-3.048Z"/></svg>