<svg xmlns="http://www.w3.org/2000/svg" viewBox="0 0 24 24"><defs><style>.a{fill:none;stroke:currentColor;stroke-linecap:round;stroke-linejoin:round;stroke-width:1.5px;}</style></defs><title>transportation-ticket-plane-transfer-bus</title><polyline class="a" points="21.75 7.389 19.5 9.639 17.25 7.389"/><path class="a" d="M16.5,3.639a3,3,0,0,1,3,3v3"/><polyline class="a" points="2.25 17.889 4.5 15.639 6.75 17.889"/><path class="a" d="M7.5,21.639a3,3,0,0,1-3-3v-3"/><line class="a" x1="9.729" y1="19.596" x2="11.093" y2="20.821"/><path class="a" d="M21.008,16.911l-2.288.9-4.093-3.674-2.288.9,3.33,3.974-4.576,1.805,1.974,1.772a1.642,1.642,0,0,0,1.7.306l7.447-2.937a1.64,1.64,0,0,0-1.2-3.051Z"/><rect class="a" x="0.75" y="1.389" width="9.75" height="9.75" rx="1" ry="1"/><line class="a" x1="2.25" y1="11.139" x2="2.25" y2="12.639"/><line class="a" x1="9" y1="11.139" x2="9" y2="12.639"/><line class="a" x1="0.75" y1="5.889" x2="10.5" y2="5.889"/><path class="a" d="M3.375,8.139a.375.375,0,0,1,.375.375"/><path class="a" d="M3,8.514a.375.375,0,0,1,.375-.375"/><path class="a" d="M3.375,8.889A.375.375,0,0,1,3,8.514"/><path class="a" d="M3.75,8.514a.375.375,0,0,1-.375.375"/><path class="a" d="M7.875,8.139a.375.375,0,0,1,.375.375"/><path class="a" d="M7.5,8.514a.375.375,0,0,1,.375-.375"/><path class="a" d="M7.875,8.889A.375.375,0,0,1,7.5,8.514"/><path class="a" d="M8.25,8.514a.375.375,0,0,1-.375.375"/></svg>