<svg xmlns="http://www.w3.org/2000/svg" viewBox="0 0 24 24"><defs><style>.a{fill:none;stroke:currentColor;stroke-linecap:round;stroke-linejoin:round;stroke-width:1.5px;}</style></defs><title>transportation-ticket-boat-transfer</title><polyline class="a" points="23.25 9.013 21 11.263 18.75 9.013"/><path class="a" d="M18,5.263a3,3,0,0,1,3,3v3"/><polyline class="a" points="0.75 15.013 3 12.763 5.25 15.013"/><path class="a" d="M6,18.763a3,3,0,0,1-3-3v-3"/><polyline class="a" points="3.077 9.141 0.75 5.263 14.25 5.263 11.923 9.141"/><polygon class="a" points="11.25 5.263 3.75 5.263 4.5 2.263 10.5 2.263 11.25 5.263"/><line class="a" x1="9" y1="2.263" x2="9" y2="0.763"/><path class="a" d="M14.25,9.763a4.349,4.349,0,0,1-3.375-1.5A4.349,4.349,0,0,1,7.5,9.763a4.349,4.349,0,0,1-3.375-1.5A4.349,4.349,0,0,1,.75,9.763"/><polyline class="a" points="12.077 22.641 9.75 18.763 23.25 18.763 20.923 22.641"/><polygon class="a" points="20.25 18.763 12.75 18.763 13.5 15.763 19.5 15.763 20.25 18.763"/><line class="a" x1="18" y1="15.763" x2="18" y2="14.263"/><path class="a" d="M23.25,23.263a4.349,4.349,0,0,1-3.375-1.5,4.349,4.349,0,0,1-3.375,1.5,4.349,4.349,0,0,1-3.375-1.5,4.349,4.349,0,0,1-3.375,1.5"/></svg>