<svg xmlns="http://www.w3.org/2000/svg" viewBox="0 0 24 24"><defs><style>.a{fill:none;stroke:currentColor;stroke-linecap:round;stroke-linejoin:round;stroke-width:1.5px;}</style></defs><title>transportation-ticket-plane</title><path class="a" d="M20.25,12.263a3,3,0,0,1,3-3V5.513a1.5,1.5,0,0,0-1.5-1.5H2.25a1.5,1.5,0,0,0-1.5,1.5v3.75a3,3,0,0,1,0,6v3.75a1.5,1.5,0,0,0,1.5,1.5h19.5a1.5,1.5,0,0,0,1.5-1.5v-3.75A3,3,0,0,1,20.25,12.263Z"/><line class="a" x1="18" y1="13.013" x2="16.752" y2="14.133"/><path class="a" d="M8.8,11.049l1.724.825,3.744-3.361,2.093.825-3.046,3.636,3.436,1.159-1.806,1.622a1.5,1.5,0,0,1-1.552.279L7.7,13.839a1.5,1.5,0,1,1,1.1-2.79Z"/></svg>