<svg xmlns="http://www.w3.org/2000/svg" viewBox="0 0 24 24"><defs><style>.a{fill:none;stroke:currentColor;stroke-linecap:round;stroke-linejoin:round;stroke-width:1.5px;}</style></defs><title>transportation-ticket-bus</title><path class="a" d="M20.25,11.763a3,3,0,0,1,3-3V5.013a1.5,1.5,0,0,0-1.5-1.5H2.25a1.5,1.5,0,0,0-1.5,1.5v3.75a3,3,0,0,1,0,6v3.75a1.5,1.5,0,0,0,1.5,1.5h19.5a1.5,1.5,0,0,0,1.5-1.5v-3.75A3,3,0,0,1,20.25,11.763Z"/><rect class="a" x="7.5" y="6.513" width="9.75" height="9.75" rx="1" ry="1"/><line class="a" x1="9" y1="16.263" x2="9" y2="17.763"/><line class="a" x1="15.75" y1="16.263" x2="15.75" y2="17.763"/><line class="a" x1="7.5" y1="11.013" x2="17.25" y2="11.013"/><path class="a" d="M10.125,13.263a.375.375,0,0,1,.375.375"/><path class="a" d="M9.75,13.638a.375.375,0,0,1,.375-.375"/><path class="a" d="M10.125,14.013a.375.375,0,0,1-.375-.375"/><path class="a" d="M10.5,13.638a.375.375,0,0,1-.375.375"/><path class="a" d="M14.625,13.263a.375.375,0,0,1,.375.375"/><path class="a" d="M14.25,13.638a.375.375,0,0,1,.375-.375"/><path class="a" d="M14.625,14.013a.375.375,0,0,1-.375-.375"/><path class="a" d="M15,13.638a.375.375,0,0,1-.375.375"/></svg>