<svg xmlns="http://www.w3.org/2000/svg" viewBox="0 0 24 24"><defs><style>.a{fill:none;stroke:currentColor;stroke-linecap:round;stroke-linejoin:round;stroke-width:1.5px;}</style></defs><title>transportation-ticket-boat</title><path class="a" d="M20.25,12.263a3,3,0,0,1,3-3V5.513a1.5,1.5,0,0,0-1.5-1.5H2.25a1.5,1.5,0,0,0-1.5,1.5v3.75a3,3,0,0,1,0,6v3.75a1.5,1.5,0,0,0,1.5,1.5h19.5a1.5,1.5,0,0,0,1.5-1.5v-3.75A3,3,0,0,1,20.25,12.263Z"/><path class="a" d="M6.169,16.763a4.375,4.375,0,0,0,2.456.75A4.638,4.638,0,0,0,12,16.013a4.638,4.638,0,0,0,3.375,1.5,4.375,4.375,0,0,0,2.456-.75"/><polyline class="a" points="8.25 15.263 6.75 13.013 17.25 13.013 15.75 15.263"/><polyline class="a" points="11.25 13.013 11.25 7.013 15.75 10.013 12 13.013"/></svg>