<svg xmlns="http://www.w3.org/2000/svg" viewBox="0 0 24 24"><defs><style>.a{fill:none;stroke:currentColor;stroke-linecap:round;stroke-linejoin:round;stroke-width:1.5px;}</style></defs><title>transportation-ticket-car-transfer-plane</title><line class="a" x1="0.75" y1="6.47" x2="2.114" y2="7.695"/><path class="a" d="M12.03,3.785l-2.288.9L5.649,1.013l-2.288.9L6.691,5.89,2.114,7.7,4.089,9.467a1.638,1.638,0,0,0,1.7.3l7.448-2.936a1.64,1.64,0,1,0-1.2-3.051Z"/><polyline class="a" points="22.5 6.263 20.25 8.513 18 6.263"/><path class="a" d="M17.25,2.513a3,3,0,0,1,3,3v3"/><polyline class="a" points="1.5 16.763 3.75 14.513 6 16.763"/><path class="a" d="M6.75,20.513a3,3,0,0,1-3-3v-3"/><line class="a" x1="12.75" y1="18.263" x2="14.25" y2="18.263"/><line class="a" x1="18.75" y1="18.263" x2="20.25" y2="18.263"/><line class="a" x1="11.25" y1="21.263" x2="11.25" y2="22.763"/><line class="a" x1="21.75" y1="21.263" x2="21.75" y2="22.763"/><line class="a" x1="11.25" y1="15.263" x2="21.75" y2="15.263"/><path class="a" d="M23,17.135,21.75,15.263l-1.158-3.474a1.5,1.5,0,0,0-1.423-1.026H13.831a1.5,1.5,0,0,0-1.423,1.026L11.25,15.263,10,17.135a1.5,1.5,0,0,0-.252.832v1.8a1.5,1.5,0,0,0,1.5,1.5h10.5a1.5,1.5,0,0,0,1.5-1.5v-1.8A1.5,1.5,0,0,0,23,17.135Z"/></svg>