<svg xmlns="http://www.w3.org/2000/svg" viewBox="0 0 24 24"><defs><style>.a{fill:none;stroke:currentColor;stroke-linecap:round;stroke-linejoin:round;stroke-width:1.5px;}</style></defs><title>transportation-ticket-boat-plane-transfer</title><polyline class="a" points="22.5 6.889 20.25 9.139 18 6.889"/><path class="a" d="M17.25,3.139a3,3,0,0,1,3,3v3"/><polyline class="a" points="1.5 17.389 3.75 15.139 6 17.389"/><path class="a" d="M6.75,21.139a3,3,0,0,1-3-3v-3"/><line class="a" x1="9.729" y1="19.846" x2="11.093" y2="21.071"/><path class="a" d="M21.008,17.161l-2.288.9-4.093-3.674-2.288.9,3.33,3.974-4.576,1.805,1.974,1.772a1.642,1.642,0,0,0,1.7.306l7.447-2.937a1.64,1.64,0,0,0-1.2-3.051Z"/><polyline class="a" points="3.077 9.268 0.75 5.389 14.25 5.389 11.923 9.268"/><polygon class="a" points="11.25 5.389 3.75 5.389 4.5 2.389 10.5 2.389 11.25 5.389"/><line class="a" x1="9" y1="2.389" x2="9" y2="0.889"/><path class="a" d="M14.25,9.889a4.349,4.349,0,0,1-3.375-1.5A4.349,4.349,0,0,1,7.5,9.889a4.349,4.349,0,0,1-3.375-1.5A4.349,4.349,0,0,1,.75,9.889"/></svg>