<svg xmlns="http://www.w3.org/2000/svg" viewBox="0 0 24 24"><defs><style>.a{fill:none;stroke:currentColor;stroke-linecap:round;stroke-linejoin:round;stroke-width:1.5px;}</style></defs><title>transportation-ticket-train-transfer</title><rect class="a" x="1.5" y="0.763" width="9" height="9" rx="1" ry="1"/><line class="a" x1="1.5" y1="6.763" x2="10.5" y2="6.763"/><line class="a" x1="3" y1="9.763" x2="0.75" y2="12.013"/><line class="a" x1="9" y1="9.763" x2="11.25" y2="12.013"/><rect class="a" x="13.5" y="12.013" width="9" height="9" rx="1" ry="1"/><line class="a" x1="13.5" y1="18.013" x2="22.5" y2="18.013"/><line class="a" x1="15" y1="21.013" x2="12.75" y2="23.263"/><line class="a" x1="21" y1="21.013" x2="23.25" y2="23.263"/><polyline class="a" points="21.75 6.763 19.5 9.013 17.25 6.763"/><path class="a" d="M14.25,3.013H16.5a3,3,0,0,1,3,3v3"/><polyline class="a" points="2.25 17.263 4.5 15.013 6.75 17.263"/><path class="a" d="M9.75,21.013H7.5a3,3,0,0,1-3-3v-3"/></svg>