<svg xmlns="http://www.w3.org/2000/svg" viewBox="0 0 24 24"><defs><style>.a{fill:none;stroke:currentColor;stroke-linecap:round;stroke-linejoin:round;stroke-width:1.5px;}</style></defs><title>transportation-ticket-train</title><rect class="a" x="8.25" y="7.263" width="7.5" height="7.5" rx="1" ry="1"/><line class="a" x1="8.25" y1="11.763" x2="15.75" y2="11.763"/><line class="a" x1="9.75" y1="14.763" x2="8.25" y2="16.263"/><line class="a" x1="14.25" y1="14.763" x2="15.75" y2="16.263"/><path class="a" d="M20.25,11.763a3,3,0,0,1,3-3V5.013a1.5,1.5,0,0,0-1.5-1.5H2.25a1.5,1.5,0,0,0-1.5,1.5v3.75a3,3,0,0,1,0,6v3.75a1.5,1.5,0,0,0,1.5,1.5h19.5a1.5,1.5,0,0,0,1.5-1.5v-3.75A3,3,0,0,1,20.25,11.763Z"/></svg>