<svg xmlns="http://www.w3.org/2000/svg" viewBox="0 0 24 24"><defs><style>.a{fill:none;stroke:currentColor;stroke-linecap:round;stroke-linejoin:round;stroke-width:1.5px;}</style></defs><title>transportation-ticket-car-transfer</title><rect class="a" x="1.5" y="0.763" width="9" height="9" rx="1" ry="1"/><line class="a" x1="1.5" y1="6.763" x2="10.5" y2="6.763"/><line class="a" x1="3" y1="9.763" x2="0.75" y2="12.013"/><line class="a" x1="9" y1="9.763" x2="11.25" y2="12.013"/><polyline class="a" points="21.75 6.013 19.5 8.263 17.25 6.013"/><path class="a" d="M16.5,2.263a3,3,0,0,1,3,3v3"/><polyline class="a" points="1.5 18.013 3.75 15.763 6 18.013"/><path class="a" d="M6.75,21.763a3,3,0,0,1-3-3v-3"/><line class="a" x1="12.75" y1="18.763" x2="14.25" y2="18.763"/><line class="a" x1="18.75" y1="18.763" x2="20.25" y2="18.763"/><line class="a" x1="11.25" y1="21.763" x2="11.25" y2="23.263"/><line class="a" x1="21.75" y1="21.763" x2="21.75" y2="23.263"/><line class="a" x1="11.25" y1="15.763" x2="21.75" y2="15.763"/><path class="a" d="M11.75,14.263l-.5,1.5L10,17.635a1.5,1.5,0,0,0-.252.832v1.8a1.5,1.5,0,0,0,1.5,1.5h10.5a1.5,1.5,0,0,0,1.5-1.5v-1.8A1.5,1.5,0,0,0,23,17.635L21.75,15.763l-1.158-3.474a1.5,1.5,0,0,0-1.423-1.026H14.25"/></svg>