<svg id="Regular" xmlns="http://www.w3.org/2000/svg" viewBox="0 0 24 24"><defs><style>.cls-1{fill:none;stroke:currentColor;stroke-linecap:round;stroke-linejoin:round;stroke-width:1.5px;}</style></defs><title>transfusion-bag-1</title><path class="cls-1" d="M7.652,20.964a10.26,10.26,0,0,1-1.265-.721"/><path class="cls-1" d="M4.26,18.263a9.349,9.349,0,0,1-.819-1.2"/><path class="cls-1" d="M2.379,14.356a9.457,9.457,0,0,1-.214-1.44"/><path class="cls-1" d="M7.652,3.412A10.39,10.39,0,0,1,9,2.87"/><path class="cls-1" d="M11.878,2.438a11.006,11.006,0,0,1,1.452.12"/><path class="cls-1" d="M16.1,3.412a10.346,10.346,0,0,1,1.266.721"/><path class="cls-1" d="M19.5,6.112a9.641,9.641,0,0,1,.819,1.205"/><path class="cls-1" d="M6.75,6.938a3,3,0,0,1-6,0c0-1.657,3-6,3-6S6.75,5.281,6.75,6.938Z"/><rect class="cls-1" x="13.186" y="11.93" width="9" height="10.5" rx="1" ry="1" transform="translate(5.617 -4.321) rotate(16.524)"/><line class="cls-1" x1="19.179" y1="12.147" x2="19.819" y2="9.99"/><line class="cls-1" x1="22.055" y1="13" x2="22.695" y2="10.843"/><line class="cls-1" x1="16.303" y1="11.293" x2="16.942" y2="9.136"/><line class="cls-1" x1="16.461" y1="16.034" x2="19.337" y2="16.887"/><line class="cls-1" x1="15.607" y1="18.91" x2="18.484" y2="19.764"/></svg>