<svg xmlns="http://www.w3.org/2000/svg" viewBox="0 0 24 24"><defs><style>.a{fill:none;stroke:currentColor;stroke-linecap:round;stroke-linejoin:round;stroke-width:1.5px;}</style></defs><title>transportation-ticket-boat-bus-transfer</title><polyline class="a" points="23.25 6.763 21 9.013 18.75 6.763"/><path class="a" d="M15.75,3.013H18a3,3,0,0,1,3,3v3"/><polyline class="a" points="0.75 17.263 3 15.013 5.25 17.263"/><path class="a" d="M8.25,21.013H6a3,3,0,0,1-3-3v-3"/><rect class="a" x="13.5" y="12.013" width="9.75" height="9.75" rx="1" ry="1"/><line class="a" x1="15" y1="21.763" x2="15" y2="23.263"/><line class="a" x1="21.75" y1="21.763" x2="21.75" y2="23.263"/><line class="a" x1="13.5" y1="16.513" x2="23.25" y2="16.513"/><path class="a" d="M16.125,18.763a.375.375,0,0,1,.375.375"/><path class="a" d="M15.75,19.138a.375.375,0,0,1,.375-.375"/><path class="a" d="M16.125,19.513a.375.375,0,0,1-.375-.375"/><path class="a" d="M16.5,19.138a.375.375,0,0,1-.375.375"/><path class="a" d="M20.625,18.763a.375.375,0,0,1,.375.375"/><path class="a" d="M20.25,19.138a.375.375,0,0,1,.375-.375"/><path class="a" d="M20.625,19.513a.375.375,0,0,1-.375-.375"/><path class="a" d="M21,19.138a.375.375,0,0,1-.375.375"/><polyline class="a" points="3.077 9.141 0.75 5.263 14.25 5.263 11.923 9.141"/><polygon class="a" points="11.25 5.263 3.75 5.263 4.5 2.263 10.5 2.263 11.25 5.263"/><line class="a" x1="9" y1="2.263" x2="9" y2="0.763"/><path class="a" d="M14.25,9.763a4.349,4.349,0,0,1-3.375-1.5A4.349,4.349,0,0,1,7.5,9.763a4.349,4.349,0,0,1-3.375-1.5A4.349,4.349,0,0,1,.75,9.763"/></svg>