<svg xmlns="http://www.w3.org/2000/svg" viewBox="0 0 24 24"><defs><style>.a{fill:none;stroke:currentColor;stroke-linecap:round;stroke-linejoin:round;stroke-width:1.5px;}</style></defs><title>transportation-ticket-plane-transfer-train</title><rect class="a" x="1.5" y="0.952" width="9" height="9" rx="1" ry="1"/><line class="a" x1="1.5" y1="6.952" x2="10.5" y2="6.952"/><line class="a" x1="3" y1="9.952" x2="0.75" y2="12.202"/><line class="a" x1="9" y1="9.952" x2="11.25" y2="12.202"/><polyline class="a" points="21.75 6.952 19.5 9.202 17.25 6.952"/><path class="a" d="M16.5,3.2a3,3,0,0,1,3,3v3"/><polyline class="a" points="2.25 17.452 4.5 15.202 6.75 17.452"/><path class="a" d="M7.5,21.2a3,3,0,0,1-3-3v-3"/><line class="a" x1="9.729" y1="19.596" x2="11.093" y2="20.821"/><path class="a" d="M21.008,16.911l-2.288.9-4.093-3.674-2.288.9,3.33,3.975-4.576,1.805,1.974,1.772a1.642,1.642,0,0,0,1.7.306l7.447-2.937a1.64,1.64,0,0,0-1.2-3.051Z"/></svg>