<svg id="Regular" xmlns="http://www.w3.org/2000/svg" viewBox="0 0 24 24"><defs><style>.cls-1{fill:none;stroke:#000;stroke-linecap:round;stroke-linejoin:round;stroke-width:1.5px;}</style></defs><title>travel-tripit</title><ellipse class="cls-1" cx="11.51" cy="14.41" rx="2.45" ry="1.96"/><line class="cls-1" x1="11.51" y1="8.61" x2="11.51" y2="10.19"/><circle class="cls-1" cx="11.51" cy="6.65" r="1.96"/><line class="cls-1" x1="20.32" y1="14.41" x2="15.93" y2="14.41"/><circle class="cls-1" cx="21.78" cy="14.41" r="1.47"/><line class="cls-1" x1="16.3" y1="18.1" x2="15.16" y2="17.22"/><path class="cls-1" d="M17.49,19A.75.75,0,1,1,17.35,18,.75.75,0,0,1,17.49,19"/><line class="cls-1" x1="6.73" y1="18.1" x2="7.86" y2="17.22"/><path class="cls-1" d="M6.58,19.16A.75.75,0,1,0,5.53,19a.75.75,0,0,0,1.05.15"/><line class="cls-1" x1="19.66" y1="9.48" x2="15.71" y2="11.87"/><path class="cls-1" d="M20.69,9.74a.75.75,0,1,1,.25-1,.75.75,0,0,1-.25,1"/><line class="cls-1" x1="3.68" y1="14.42" x2="7.09" y2="14.4"/><circle class="cls-1" cx="2.22" cy="14.42" r="1.47" transform="translate(-0.04 0.01) rotate(-0.15)"/><line class="cls-1" x1="4.45" y1="9.61" x2="7.79" y2="11.87"/><path class="cls-1" d="M3.4,9.81a.75.75,0,1,1,1-.2.75.75,0,0,1-1,.2"/></svg>