<svg xmlns="http://www.w3.org/2000/svg" viewBox="0 0 24 24"><defs><style>.a{fill:none;stroke:currentColor;stroke-linecap:round;stroke-linejoin:round;stroke-width:1.5px;}</style></defs><title>travel-luggage-1</title><path class="a" d="M5.993,17.931A9,9,0,1,1,18.746,9.748"/><path class="a" d="M4.022,2.8l5.28,2a1.5,1.5,0,0,1,.944,1.7L9.933,8.068A1.5,1.5,0,0,1,8.825,9.229l-2.079.519L5.592,12.633a2.991,2.991,0,0,1-1.121,1.382l-1.83,1.257"/><path class="a" d="M15.991,3.268,14.524,6.193a1.5,1.5,0,0,0-.081,1.145L15,9"/><rect class="a" x="9.746" y="14.998" width="13.5" height="8.25" rx="1.5" ry="1.5"/><line class="a" x1="12.746" y1="14.998" x2="12.746" y2="23.248"/><line class="a" x1="20.246" y1="14.998" x2="20.246" y2="23.248"/><path class="a" d="M14.246,15v-.75a2.25,2.25,0,0,1,4.5,0V15"/></svg>