<svg xmlns="http://www.w3.org/2000/svg" viewBox="0 0 24 24"><defs><style>.a{fill:none;stroke:currentColor;stroke-linecap:round;stroke-linejoin:round;stroke-width:1.5px;}</style></defs><title>travel-suitcase</title><path class="a" d="M6.433,15.749a6,6,0,1,1,11.127,0"/><path class="a" d="M10.155,7.786l1.691,2.262a1.5,1.5,0,0,1-.3,2.1l-1.8,1.35v.75a1.5,1.5,0,0,1-1.5,1.5"/><path class="a" d="M17.629,11.427l-2.306,1.16a1.5,1.5,0,0,0-.785,1.706l.372,1.456"/><line class="a" x1="6.746" y1="2.248" x2="6.746" y2="0.748"/><line class="a" x1="17.246" y1="2.248" x2="17.246" y2="0.748"/><path class="a" d="M7.5,18.748a1.5,1.5,0,0,0,1.5,1.5h6a1.5,1.5,0,0,0,1.5-1.5"/><rect class="a" x="0.746" y="15.748" width="22.5" height="7.5" rx="1" ry="1"/><path class="a" d="M3,15.748v-12a1.5,1.5,0,0,1,1.5-1.5h15a1.5,1.5,0,0,1,1.5,1.5v12"/></svg>