<svg xmlns="http://www.w3.org/2000/svg" viewBox="0 0 24 24"><defs><style>.a{fill:none;stroke:currentColor;stroke-linecap:round;stroke-linejoin:round;stroke-width:1.5px;}</style></defs><title>travel-insurance-shield</title><path class="a" d="M16.663,6.509,7.955,9.982,6.7,8.866l-1.73.69a.751.751,0,0,0-.253,1.227L7.252,13.32a1.5,1.5,0,0,0,1.617.334l2.565-1.023-.321,3.805a.749.749,0,0,0,1.025.759l1.333-.531a.751.751,0,0,0,.435-.465l1.708-5.235,2.438-.972a1.875,1.875,0,0,0-1.389-3.483Z"/><path class="a" d="M14.225,7.481,11.343,5.723a.753.753,0,0,0-.668-.056L9.364,6.19a.75.75,0,0,0-.221,1.257l1.6,1.423"/><path class="a" d="M2.25,3.922v7.615A11.905,11.905,0,0,0,9.882,22.649l1.041.4a3.007,3.007,0,0,0,2.154,0l1.041-.4A11.905,11.905,0,0,0,21.75,11.537V3.922a1.485,1.485,0,0,0-.868-1.361A21.7,21.7,0,0,0,12,.75,21.7,21.7,0,0,0,3.118,2.561,1.485,1.485,0,0,0,2.25,3.922Z"/></svg>