<svg xmlns="http://www.w3.org/2000/svg" viewBox="0 0 24 24"><defs><style>.a{fill:none;stroke:currentColor;stroke-linecap:round;stroke-linejoin:round;stroke-width:1.5px;}</style></defs><title>travel-paper-plane</title><path class="a" d="M4.084,2.753,9.473,4.8a1.5,1.5,0,0,1,.944,1.7L10.1,8.068A1.5,1.5,0,0,1,9,9.229l-2.079.519L5.763,12.633a2.991,2.991,0,0,1-1.121,1.382L2.663,15.3"/><path class="a" d="M16.155,3.429l-.977,1.315a3,3,0,0,0-.437,2.737L15,8.248"/><path class="a" d="M8.25,18.625A9,9,0,1,1,18.62,8.239"/><path class="a" d="M10.851,16.815a.75.75,0,0,1-.046-1.406L23.246,10.34,18.178,22.781a.75.75,0,0,1-1.406-.045L15.291,18.3Z"/><line class="a" x1="15.291" y1="18.295" x2="18.042" y2="15.544"/></svg>