<svg xmlns="http://www.w3.org/2000/svg" viewBox="0 0 24 24"><defs><style>.a{fill:none;stroke:currentColor;stroke-linecap:round;stroke-linejoin:round;stroke-width:1.5px;}</style></defs><title>travel-insurance-plane</title><path class="a" d="M18.055,1.645,9.347,5.118,8.1,4l-1.731.69a.75.75,0,0,0-.253,1.226L8.644,8.456a1.5,1.5,0,0,0,1.617.334l2.565-1.023-.321,3.8a.75.75,0,0,0,1.025.76l1.333-.532a.748.748,0,0,0,.436-.464L17.006,6.1l2.438-.972a1.875,1.875,0,0,0-1.389-3.483Z"/><path class="a" d="M15.617,2.617,12.736.859A.749.749,0,0,0,12.067.8l-1.311.523a.749.749,0,0,0-.221,1.256l1.6,1.424"/><line class="a" x1="3.375" y1="14.25" x2="3.375" y2="23.25"/><path class="a" d="M18.375,21.75a3,3,0,0,0-3-3h-3.75a3,3,0,0,0-3-3H3.375v6Z"/><line class="a" x1="8.625" y1="18.75" x2="11.625" y2="18.75"/></svg>