<svg xmlns="http://www.w3.org/2000/svg" viewBox="0 0 24 24"><defs><style>.a{fill:none;stroke:currentColor;stroke-linecap:round;stroke-linejoin:round;stroke-width:1.5px;}</style></defs><title>travel-user-pin</title><circle class="a" cx="5.996" cy="3.748" r="3"/><path class="a" d="M11.246,13.5a5.25,5.25,0,0,0-10.5,0v2.25H3l.75,7.5h4.5l.75-7.5h2.25Z"/><path class="a" d="M18.746,15.373a.375.375,0,1,1-.375.375.375.375,0,0,1,.375-.375"/><path class="a" d="M18.746,11.248a4.5,4.5,0,0,1,4.5,4.5c0,1.921-2.688,5.577-3.909,7.139a.75.75,0,0,1-1.182,0c-1.221-1.561-3.909-5.217-3.909-7.138A4.5,4.5,0,0,1,18.746,11.248Z"/><path class="a" d="M12,.748h3.75a3,3,0,0,1,3,3v4.5"/><polyline class="a" points="15.746 5.248 18.746 8.248 21.746 5.248"/></svg>