<svg xmlns="http://www.w3.org/2000/svg" viewBox="0 0 24 24"><defs><style>.a{fill:none;stroke:currentColor;stroke-linecap:round;stroke-linejoin:round;stroke-width:1.5px;}</style></defs><title>travel-crossroad-direction-board</title><path class="a" d="M.746,23.247a11.25,11.25,0,1,1,22.5,0"/><path class="a" d="M8.058,23.242,7.78,22.134A1.5,1.5,0,0,0,6.325,21H.972"/><path class="a" d="M20.981,16.5H16.918a1.5,1.5,0,0,0-1.456,1.137l-.75,3A1.5,1.5,0,0,0,16.168,22.5h1.578l.126.753"/><line class="a" x1="11.996" y1="3.747" x2="11.996" y2="0.747"/><polygon class="a" points="7.496 3.747 17.246 3.747 17.246 8.247 7.496 8.247 5.246 5.997 7.496 3.747"/><line class="a" x1="11.996" y1="11.997" x2="11.996" y2="8.247"/></svg>