<svg xmlns="http://www.w3.org/2000/svg" viewBox="0 0 24 24"><defs><style>.a{fill:none;stroke:currentColor;stroke-linecap:round;stroke-linejoin:round;stroke-width:1.5px;}</style></defs><title>travel-luggage</title><path class="a" d="M9,20.248H3.746a3,3,0,0,1-3-3v-9a3,3,0,0,1,3-3h13.5a3,3,0,0,1,3,3V9"/><line class="a" x1="5.996" y1="5.248" x2="5.996" y2="20.248"/><line class="a" x1="14.996" y1="5.248" x2="14.996" y2="8.999"/><path class="a" d="M13.5,5.248v-3A1.5,1.5,0,0,0,12,.748H9a1.5,1.5,0,0,0-1.5,1.5v3"/><circle class="a" cx="17.246" cy="17.248" r="6"/><path class="a" d="M15.405,11.536,17.1,13.8a1.5,1.5,0,0,1-.3,2.1L15,17.248V18a1.5,1.5,0,0,1-1.5,1.5H11.683"/><path class="a" d="M23.234,16.871,20.573,18.21a1.5,1.5,0,0,0-.785,1.706l.621,2.431"/></svg>