<svg xmlns="http://www.w3.org/2000/svg" viewBox="0 0 24 24"><defs><style>.a{fill:none;stroke:currentColor;stroke-linecap:round;stroke-linejoin:round;stroke-width:1.5px;}</style></defs><title>treasure-chest</title><path class="a" d="M.75,9.75h22.5a0,0,0,0,1,0,0v11a1,1,0,0,1-1,1H1.75a1,1,0,0,1-1-1v-11A0,0,0,0,1,.75,9.75Z"/><path class="a" d="M2.75,2.25h18.5a2,2,0,0,1,2,2v5.5a0,0,0,0,1,0,0H.75a0,0,0,0,1,0,0V4.25A2,2,0,0,1,2.75,2.25Z"/><line class="a" x1="5.25" y1="12.75" x2="5.25" y2="21.75"/><line class="a" x1="5.25" y1="2.25" x2="5.25" y2="9.75"/><line class="a" x1="9.75" y1="15" x2="9.75" y2="21.75"/><line class="a" x1="9.75" y1="2.25" x2="9.75" y2="9.75"/><line class="a" x1="14.25" y1="15" x2="14.25" y2="21.75"/><line class="a" x1="14.25" y1="2.25" x2="14.25" y2="9.75"/><line class="a" x1="18.75" y1="12.75" x2="18.75" y2="21.75"/><line class="a" x1="18.75" y1="2.25" x2="18.75" y2="9.75"/><line class="a" x1="0.75" y1="12.75" x2="8.325" y2="12.75"/><line class="a" x1="15.675" y1="12.75" x2="23.25" y2="12.75"/><path class="a" d="M15.75,12a3.75,3.75,0,0,1-7.5,0V9.75h7.5Z"/><path class="a" d="M12,12.375a.375.375,0,1,1-.375.375A.375.375,0,0,1,12,12.375"/></svg>