<svg id="Regular" xmlns="http://www.w3.org/2000/svg" viewBox="0 0 24 24"><defs><style>.cls-1{fill:none;stroke:currentColor;stroke-linecap:round;stroke-linejoin:round;stroke-width:1.5px;}</style></defs><title>tree-two</title><path class="cls-1" d="M5.251.75.811,16.83a1.5,1.5,0,0,0,1.44,1.92h6a1.5,1.5,0,0,0,1.44-1.92Z"/><path class="cls-1" d="M5.251,17.25c0-2.25-1.5-4.5-3-4.5H1.938"/><path class="cls-1" d="M5.251,17.25c0-2.25,1.5-4.5,3-4.5h.313"/><line class="cls-1" x1="5.251" y1="10.5" x2="5.251" y2="23.25"/><circle class="cls-1" cx="17.251" cy="9.75" r="6"/><line class="cls-1" x1="17.251" y1="23.25" x2="17.251" y2="8.25"/><path class="cls-1" d="M17.251,13.5c0-2.25,1.5-3,2.25-3"/><path class="cls-1" d="M17.251,13.5c0-2.25-1.5-3-2.25-3"/></svg>