<svg id="Regular" xmlns="http://www.w3.org/2000/svg" viewBox="0 0 24 24"><defs><style>.cls-1{fill:none;stroke:currentColor;stroke-linecap:round;stroke-linejoin:round;stroke-width:1.5px;}</style></defs><title>trees-hive</title><path class="cls-1" d="M20,5.25V3.75a1.5,1.5,0,0,0-1.5-1.5H12.739a1.5,1.5,0,0,0-1.379.909L9.5,7.5,7.64,3.159A1.5,1.5,0,0,0,6.261,2.25H5a1.5,1.5,0,0,0-1.5,1.5V14.331a7.046,7.046,0,0,1-2.064,4.983h0a.548.548,0,0,0,.388.936H21.676a.548.548,0,0,0,.388-.936h0A7.046,7.046,0,0,1,20,14.331V12.75"/><line class="cls-1" x1="20" y1="9.75" x2="23" y2="6.75"/><line class="cls-1" x1="17" y1="9.75" x2="23" y2="9.75"/></svg>