<svg id="Regular" xmlns="http://www.w3.org/2000/svg" viewBox="0 0 24 24"><defs><style>.cls-1{fill:none;stroke:currentColor;stroke-linecap:round;stroke-linejoin:round;stroke-width:1.5px;}</style></defs><title>tree-log</title><circle class="cls-1" cx="7.5" cy="11.75" r="6.75"/><path class="cls-1" d="M7.5,18.5h9A6.75,6.75,0,0,0,16.5,5h-9"/><path class="cls-1" d="M4.39,9.653A3.749,3.749,0,0,1,7.5,8"/><path class="cls-1" d="M11.25,11.75A3.75,3.75,0,0,1,4.5,14"/><path class="cls-1" d="M7.5,11.375a.375.375,0,0,1,.375.375"/><path class="cls-1" d="M7.125,11.75a.375.375,0,0,1,.375-.375"/><path class="cls-1" d="M7.5,12.125a.375.375,0,0,1-.375-.375"/><path class="cls-1" d="M7.875,11.75a.375.375,0,0,1-.375.375"/><line class="cls-1" x1="17.25" y1="9.5" x2="22.866" y2="9.5"/><line class="cls-1" x1="21" y1="12.5" x2="23.209" y2="12.5"/></svg>