<svg id="Regular" xmlns="http://www.w3.org/2000/svg" viewBox="0 0 24 24"><defs><style>.cls-1{fill:none;stroke:currentColor;stroke-linecap:round;stroke-linejoin:round;stroke-width:1.5px;}</style></defs><title>trees-camp-fire</title><path class="cls-1" d="M11.166,18.4a.75.75,0,0,0,.652-1.122L9.459,12.4h2.25l-3-5.25h2.25L7.083,1.334a.75.75,0,0,0-1.248,0L1.959,7.148h2.25l-3,5.25h2.25L1.1,17.276A.75.75,0,0,0,1.751,18.4Z"/><path class="cls-1" d="M17.923,10.149l-1.714-3h2.25L14.583,1.334a.75.75,0,0,0-1.248,0L11.959,3.4"/><line class="cls-1" x1="6.459" y1="18.398" x2="6.459" y2="22.898"/><path class="cls-1" d="M19.454,13.156a.375.375,0,0,0-.508.489,4.218,4.218,0,0,1-.209,3.69A1.459,1.459,0,0,1,17.176,16.1a3.272,3.272,0,0,0-1.717,3.09A3.728,3.728,0,0,0,19.206,22.9a3.779,3.779,0,0,0,3.746-3.709A6.022,6.022,0,0,0,19.454,13.156Z"/></svg>