<svg id="Regular" xmlns="http://www.w3.org/2000/svg" viewBox="0 0 24 24"><defs><style>.cls-1{fill:none;stroke:currentColor;stroke-linecap:round;stroke-linejoin:round;stroke-width:1.5px;}</style></defs><title>trees-log</title><circle class="cls-1" cx="4.5" cy="15.75" r="3.75"/><circle class="cls-1" cx="12" cy="15.75" r="3.75"/><path class="cls-1" d="M12,12h7.5a3.75,3.75,0,0,1,0,7.5H12"/><path class="cls-1" d="M4.5,15.375a.375.375,0,0,1,.375.375"/><path class="cls-1" d="M4.125,15.75a.375.375,0,0,1,.375-.375"/><path class="cls-1" d="M4.5,16.125a.375.375,0,0,1-.375-.375"/><path class="cls-1" d="M4.875,15.75a.375.375,0,0,1-.375.375"/><path class="cls-1" d="M12,15.375a.375.375,0,0,1,.375.375"/><path class="cls-1" d="M11.625,15.75A.375.375,0,0,1,12,15.375"/><path class="cls-1" d="M12,16.125a.375.375,0,0,1-.375-.375"/><path class="cls-1" d="M12.375,15.75a.375.375,0,0,1-.375.375"/><path class="cls-1" d="M5.56,9.745a3.75,3.75,0,1,1,6.878.005"/><path class="cls-1" d="M9,4.5h7.5a3.752,3.752,0,0,1,3.438,5.25"/><path class="cls-1" d="M9,7.875a.375.375,0,0,1,.375.375"/><path class="cls-1" d="M8.625,8.25A.375.375,0,0,1,9,7.875"/><path class="cls-1" d="M9,8.625a.375.375,0,0,1-.375-.375"/><path class="cls-1" d="M9.375,8.25A.375.375,0,0,1,9,8.625"/></svg>