<svg id="Regular" xmlns="http://www.w3.org/2000/svg" viewBox="0 0 24 24"><defs><style>.cls-1{fill:none;stroke:currentColor;stroke-linecap:round;stroke-linejoin:round;stroke-width:1.5px;}</style></defs><title>trees-chop</title><path class="cls-1" d="M19.671,23.25H4.329a.537.537,0,0,1-.5-.8l.3-.5a10.043,10.043,0,0,0,1.512-5.278v-.389a.558.558,0,0,1,.578-.536H17.778a.558.558,0,0,1,.578.536v.389a10.043,10.043,0,0,0,1.512,5.278l.3.5A.537.537,0,0,1,19.671,23.25Z"/><path class="cls-1" d="M12.235,15.75,17.3,10.682c-3.712-.53-6.364-4.243-6.364-4.243L6.7,10.682a12.046,12.046,0,0,1,3.922,5.065"/><line class="cls-1" x1="7.84" y1="11.66" x2="6.697" y2="12.803"/><line class="cls-1" x1="11.917" y1="7.583" x2="18.75" y2="0.75"/><line class="cls-1" x1="9.75" y1="23.25" x2="9.75" y2="20.25"/><line class="cls-1" x1="14.25" y1="23.25" x2="14.25" y2="20.25"/></svg>