<svg id="Regular" xmlns="http://www.w3.org/2000/svg" viewBox="0 0 24 24"><defs><style>.cls-1{fill:none;stroke:currentColor;stroke-linecap:round;stroke-linejoin:round;stroke-width:1.5px;}</style></defs><title>trees</title><path class="cls-1" d="M11.166,20.4a.75.75,0,0,0,.652-1.122L9.459,15.148h1.5l-3-5.25h1.5L7.083,6.334a.75.75,0,0,0-1.248,0L3.459,9.9h1.5l-3,5.25h1.5L1.1,19.276A.75.75,0,0,0,1.751,20.4Z"/><line class="cls-1" x1="6.459" y1="20.398" x2="6.459" y2="23.25"/><path class="cls-1" d="M22.286,12.9a.671.671,0,0,0,.583-1l-1.7-3.5h1.343L19.83,3.9h1.344L19.045,1.049a.672.672,0,0,0-1.118,0L15.8,3.9h1.343L14.455,8.4H15.8l-1.751,3.5a.672.672,0,0,0,.584,1Z"/><line class="cls-1" x1="18.459" y1="12.898" x2="18.459" y2="16.648"/></svg>