<svg id="Regular" xmlns="http://www.w3.org/2000/svg" viewBox="0 0 24 24"><defs><style>.cls-1{fill:none;stroke:currentColor;stroke-linecap:round;stroke-linejoin:round;stroke-width:1.5px;}</style></defs><title>trekking-map</title><line class="cls-1" x1="6.75" y1="17.25" x2="6.75" y2="21.75"/><circle class="cls-1" cx="6.75" cy="3.75" r="2.625"/><path class="cls-1" d="M3.75,17.25H2.25a1.5,1.5,0,0,1-1.5-1.5v-4.5a3,3,0,0,1,3-3H13.5a1.5,1.5,0,0,1,0,3H9.75v10.5a1.5,1.5,0,0,1-3,0,1.5,1.5,0,0,1-3,0L3.743,12"/><path class="cls-1" d="M12.75,3V2.25a1.5,1.5,0,0,1,1.5-1.5h7.5a1.5,1.5,0,0,1,1.5,1.5v9a1.5,1.5,0,0,1-1.5,1.5h-4.5"/><path class="cls-1" d="M20.25,3.375a.375.375,0,0,1,.375.375"/><path class="cls-1" d="M19.875,3.75a.375.375,0,0,1,.375-.375"/><path class="cls-1" d="M20.25,4.125a.375.375,0,0,1-.375-.375"/><path class="cls-1" d="M20.625,3.75a.375.375,0,0,1-.375.375"/><path class="cls-1" d="M19.5,6.75A2.25,2.25,0,0,1,17.25,9"/><line class="cls-1" x1="21.75" y1="12.75" x2="21.75" y2="18.75"/></svg>