<svg id="Regular" xmlns="http://www.w3.org/2000/svg" viewBox="0 0 24 24"><defs><style>.cls-1{fill:none;stroke:currentColor;stroke-linecap:round;stroke-linejoin:round;stroke-width:1.5px;}</style></defs><title>trekking-stick</title><path class="cls-1" d="M12.751,12A4.545,4.545,0,0,1,8.665,9.475L8.093,8.329A1.525,1.525,0,0,0,6.657,7.5a1.5,1.5,0,0,0-1.321,1L.836,21.25a1.5,1.5,0,0,0,.915,1.915,1.536,1.536,0,0,0,.5.085,1.5,1.5,0,0,0,1.415-1l1.623-4.6A5.732,5.732,0,0,1,7.5,21.75a1.5,1.5,0,0,0,3,0c0-3.883-3.133-6.368-4.161-7.079l.771-2.186A7.52,7.52,0,0,0,12.751,15a1.5,1.5,0,0,0,0-3Z"/><circle class="cls-1" cx="9.751" cy="3.75" r="2.625"/><line class="cls-1" x1="0.751" y1="12.75" x2="3.001" y2="7.5"/><line class="cls-1" x1="15.001" y1="19.5" x2="19.501" y2="17.25"/><line class="cls-1" x1="17.251" y1="18.375" x2="17.251" y2="23.25"/><polyline class="cls-1" points="18.001 0.75 15.751 3 18.001 5.25"/><line class="cls-1" x1="15.751" y1="3" x2="19.501" y2="3"/><line class="cls-1" x1="20.251" y1="21" x2="23.251" y2="21"/><line class="cls-1" x1="23.251" y1="3" x2="23.251" y2="5.25"/><line class="cls-1" x1="23.251" y1="9" x2="23.251" y2="11.25"/><line class="cls-1" x1="23.251" y1="15" x2="23.251" y2="17.25"/></svg>