<svg id="Regular" xmlns="http://www.w3.org/2000/svg" viewBox="0 0 24 24"><defs><style>.cls-1{fill:none;stroke:currentColor;stroke-linecap:round;stroke-linejoin:round;stroke-width:1.5px;}</style></defs><title>trekking-person</title><line class="cls-1" x1="22.25" y1="9" x2="18.5" y2="23.25"/><path class="cls-1" d="M2.887,13.158a1.134,1.134,0,0,1-.853-1.382l1.2-4.786a1.134,1.134,0,0,1,1.347-.832l1.142.255A1.134,1.134,0,0,1,6.573,7.8l-1.2,4.787a1.135,1.135,0,0,1-1.348.832Z"/><line class="cls-1" x1="2.754" y1="9.001" x2="6.101" y2="9.749"/><path class="cls-1" d="M17,10.5a6.661,6.661,0,0,1-4.8-2.4,1.5,1.5,0,0,0-2.66.555l-3,12.75a1.5,1.5,0,0,0,1.116,1.8A1.517,1.517,0,0,0,8,23.25,1.5,1.5,0,0,0,9.46,22.094L10.6,17.271l.066.082a4.454,4.454,0,0,1,.754,1.387l1.162,3.485a1.5,1.5,0,0,0,2.846-.95l-1.162-3.484A7.489,7.489,0,0,0,13,15.479l-1.535-1.92.408-1.732A8.9,8.9,0,0,0,17,13.5a1.5,1.5,0,0,0,0-3Z"/><circle class="cls-1" cx="12.5" cy="3" r="2.25"/></svg>