<svg id="Regular" xmlns="http://www.w3.org/2000/svg" viewBox="0 0 24 24"><defs><style>.cls-1{fill:none;stroke:currentColor;stroke-linecap:round;stroke-linejoin:round;stroke-width:1.5px;}</style></defs><title>trekking-mountain</title><polyline class="cls-1" points="6.75 23.125 11.25 23.125 15 20.125 18 20.125 21 14.125 23.25 14.125"/><path class="cls-1" d="M10.5,20.125c0-3.883-3.75-5.25-4.16-5.579l.771-2.186c1.412,1.585,3.44,1.765,5.639,1.765"/><path class="cls-1" d="M12.75,11.125c-1.742,0-3.3-.218-4.085-1.775L8.093,8.2a1.525,1.525,0,0,0-1.436-.826,1.5,1.5,0,0,0-1.321,1l-4.5,12.75a1.5,1.5,0,0,0,.915,1.915,1.536,1.536,0,0,0,.5.085,1.5,1.5,0,0,0,1.415-1l1.623-4.6c.711.35,2.211.728,2.211,2.6"/><circle class="cls-1" cx="9.751" cy="3.625" r="2.625"/><line class="cls-1" x1="0.751" y1="12.625" x2="3.001" y2="7.375"/><line class="cls-1" x1="16.5" y1="20.125" x2="14.25" y2="7.375"/></svg>