<svg xmlns="http://www.w3.org/2000/svg" viewBox="0 0 24 24"><defs><style>.a{fill:none;stroke:currentColor;stroke-linecap:round;stroke-linejoin:round;stroke-width:1.5px;}</style></defs><title>trip-pin-multiple</title><path class="a" d="M12,13.875a.375.375,0,0,1,.375.375"/><path class="a" d="M11.625,14.25A.375.375,0,0,1,12,13.875"/><path class="a" d="M12,14.625a.375.375,0,0,1-.375-.375"/><path class="a" d="M12.375,14.25a.375.375,0,0,1-.375.375"/><path class="a" d="M12,9.75a4.5,4.5,0,0,1,4.5,4.5c0,1.921-2.688,5.576-3.909,7.138a.75.75,0,0,1-1.182,0C10.188,19.827,7.5,16.171,7.5,14.25A4.5,4.5,0,0,1,12,9.75Z"/><path class="a" d="M5.25,6.375a.375.375,0,0,1,.375.375"/><path class="a" d="M4.875,6.75a.375.375,0,0,1,.375-.375"/><path class="a" d="M5.25,7.125a.375.375,0,0,1-.375-.375"/><path class="a" d="M5.625,6.75a.375.375,0,0,1-.375.375"/><path class="a" d="M4.512,13.7C3.235,12.047.75,8.6.75,6.75a4.5,4.5,0,0,1,9,0"/><path class="a" d="M18.75,6.375a.375.375,0,0,1,.375.375"/><path class="a" d="M18.375,6.75a.375.375,0,0,1,.375-.375"/><path class="a" d="M18.75,7.125a.375.375,0,0,1-.375-.375"/><path class="a" d="M19.125,6.75a.375.375,0,0,1-.375.375"/><path class="a" d="M14.25,6.75a4.5,4.5,0,0,1,9,0c0,1.841-2.471,5.278-3.751,6.934"/></svg>