<svg xmlns="http://www.w3.org/2000/svg" viewBox="0 0 24 24"><defs><style>.a{fill:none;stroke:currentColor;stroke-linecap:round;stroke-linejoin:round;stroke-width:1.5px;}</style></defs><title>trip-pins</title><path class="a" d="M5.25,4.875a.375.375,0,0,1,.375.375"/><path class="a" d="M4.875,5.25a.375.375,0,0,1,.375-.375"/><path class="a" d="M5.25,5.625a.375.375,0,0,1-.375-.375"/><path class="a" d="M5.625,5.25a.375.375,0,0,1-.375.375"/><path class="a" d="M5.25.75a4.5,4.5,0,0,1,4.5,4.5c0,1.921-2.688,5.576-3.909,7.138a.75.75,0,0,1-1.182,0C3.438,10.827.75,7.171.75,5.25A4.5,4.5,0,0,1,5.25.75Z"/><path class="a" d="M18.75,15.449a.375.375,0,0,1,.375.375"/><path class="a" d="M18.375,15.824a.375.375,0,0,1,.375-.375"/><path class="a" d="M18.75,16.2a.375.375,0,0,1-.375-.375"/><path class="a" d="M19.125,15.824a.375.375,0,0,1-.375.375"/><path class="a" d="M18.75,11.324a4.5,4.5,0,0,1,4.5,4.5c0,1.921-2.688,5.576-3.909,7.138a.75.75,0,0,1-1.182,0c-1.221-1.562-3.909-5.217-3.909-7.138A4.5,4.5,0,0,1,18.75,11.324Z"/><line class="a" x1="5.25" y1="15.75" x2="5.25" y2="18.75"/><path class="a" d="M5.25,21.75a1.5,1.5,0,0,0,1.5,1.5h1.5"/><line class="a" x1="11.25" y1="23.25" x2="12.75" y2="23.25"/></svg>