<svg xmlns="http://www.w3.org/2000/svg" viewBox="0 0 24 24"><defs><style>.a{fill:none;stroke:currentColor;stroke-linecap:round;stroke-linejoin:round;stroke-width:1.5px;}</style></defs><title>trip-road</title><path class="a" d="M18.75,4.875a.375.375,0,0,1,.375.375"/><path class="a" d="M18.375,5.25a.375.375,0,0,1,.375-.375"/><path class="a" d="M18.75,5.625a.375.375,0,0,1-.375-.375"/><path class="a" d="M19.125,5.25a.375.375,0,0,1-.375.375"/><path class="a" d="M18.75.75a4.5,4.5,0,0,1,4.5,4.5c0,1.921-2.688,5.577-3.909,7.138a.75.75,0,0,1-1.182,0C16.938,10.826,14.25,7.171,14.25,5.25A4.5,4.5,0,0,1,18.75.75Z"/><line class="a" x1="0.75" y1="23.25" x2="6.75" y2="8.25"/><line class="a" x1="21.75" y1="23.25" x2="18.75" y2="15.75"/><line class="a" x1="11.25" y1="23.25" x2="11.25" y2="21.75"/><line class="a" x1="11.25" y1="17.25" x2="11.25" y2="15.75"/><line class="a" x1="11.25" y1="11.25" x2="11.25" y2="9.75"/></svg>