<svg xmlns="http://www.w3.org/2000/svg" viewBox="0 0 24 24"><defs><style>.a{fill:none;stroke:currentColor;stroke-linecap:round;stroke-linejoin:round;stroke-width:1.5px;}</style></defs><title>trip-distance</title><path class="a" d="M23.25,4.5c0,1.7-2.537,5.678-3.437,7.036a.375.375,0,0,1-.625,0C18.287,10.179,15.75,6.2,15.75,4.5a3.75,3.75,0,0,1,7.5,0Z"/><path class="a" d="M19.5,4.125a.375.375,0,0,1,.375.375"/><path class="a" d="M19.125,4.5a.375.375,0,0,1,.375-.375"/><path class="a" d="M19.5,4.875a.375.375,0,0,1-.375-.375"/><path class="a" d="M19.875,4.5a.375.375,0,0,1-.375.375"/><path class="a" d="M5.25,12.375a.375.375,0,0,1,.375.375"/><path class="a" d="M4.875,12.75a.375.375,0,0,1,.375-.375"/><path class="a" d="M5.25,13.125a.375.375,0,0,1-.375-.375"/><path class="a" d="M5.625,12.75a.375.375,0,0,1-.375.375"/><path class="a" d="M5.25,8.25a4.5,4.5,0,0,1,4.5,4.5c0,1.921-2.688,5.577-3.909,7.138a.75.75,0,0,1-1.182,0C3.438,18.326.75,14.671.75,12.75A4.5,4.5,0,0,1,5.25,8.25Z"/><line class="a" x1="6.75" y1="23.25" x2="19.5" y2="15"/></svg>