<svg id="Regular" xmlns="http://www.w3.org/2000/svg" viewBox="0 0 24 24"><defs><style>.cls-1{fill:none;stroke:currentColor;stroke-linecap:round;stroke-linejoin:round;stroke-width:1.5px;}</style></defs><title>trousers-jeans</title><rect class="cls-1" x="8.171" y="0.75" width="12" height="3"/><polyline class="cls-1" points="19.635 11.25 20.171 7.5 20.171 3.75"/><polyline class="cls-1" points="13.421 16.066 13.421 23.25 17.921 23.25 19.075 15.173"/><line class="cls-1" x1="13.421" y1="3.75" x2="13.421" y2="11.25"/><path class="cls-1" d="M8.171,3.75,4.043,10.629a1.5,1.5,0,0,0-.118,1.3L5.491,16.1a1.5,1.5,0,0,0,1.638.955L20.171,15V11.25H7.421"/><line class="cls-1" x1="11.921" y1="0.75" x2="11.921" y2="3.75"/><line class="cls-1" x1="15.671" y1="0.75" x2="15.671" y2="3.75"/><line class="cls-1" x1="5.921" y1="7.5" x2="9.671" y2="6.75"/><line class="cls-1" x1="17.921" y1="6.75" x2="20.073" y2="8.185"/></svg>