<svg id="Regular" xmlns="http://www.w3.org/2000/svg" viewBox="0 0 24 24"><defs><style>.cls-1{fill:none;stroke:currentColor;stroke-linecap:round;stroke-linejoin:round;stroke-width:1.5px;}</style></defs><title>trousers-calves-2</title><path class="cls-1" d="M4,.75H20a1,1,0,0,1,1,1v2a0,0,0,0,1,0,0H3a0,0,0,0,1,0,0v-2A1,1,0,0,1,4,.75Z"/><path class="cls-1" d="M21,8.25a4.5,4.5,0,0,1-4.5-4.5"/><path class="cls-1" d="M3,8.25a4.5,4.5,0,0,0,4.5-4.5"/><path class="cls-1" d="M10.314,11.238a1.7,1.7,0,0,1,3.372,0l.736,10.742A1.5,1.5,0,0,0,15.9,23.25h3.6a1.5,1.5,0,0,0,1.5-1.5v-18H3v18a1.5,1.5,0,0,0,1.5,1.5H8.1a1.5,1.5,0,0,0,1.483-1.27Z"/></svg>