<svg id="Regular" xmlns="http://www.w3.org/2000/svg" viewBox="0 0 24 24"><defs><style>.cls-1{fill:none;stroke:currentColor;stroke-linecap:round;stroke-linejoin:round;stroke-width:1.5px;}</style></defs><title>trousers-calves</title><path class="cls-1" d="M4.25.75h15.5a.5.5,0,0,1,.5.5v2.5a0,0,0,0,1,0,0H3.75a0,0,0,0,1,0,0V1.25A.5.5,0,0,1,4.25.75Z"/><path class="cls-1" d="M20.25,3.75H3.75L2.312,22.442a.75.75,0,0,0,.748.808H8.333a.751.751,0,0,0,.745-.662l1.247-10.6a1.686,1.686,0,0,1,3.35,0l1.247,10.6a.751.751,0,0,0,.745.662H20.94a.75.75,0,0,0,.748-.808Z"/><path class="cls-1" d="M3.348,8.97a2.68,2.68,0,0,0,.4.03C5.821,9,7.5,6.649,7.5,3.75H3.75Z"/><path class="cls-1" d="M20.652,8.97a2.68,2.68,0,0,1-.4.03C18.179,9,16.5,6.649,16.5,3.75h3.75Z"/><path class="cls-1" d="M11.25,3.75v3A.75.75,0,0,0,12,7.5h.75"/></svg>