<svg id="Regular" xmlns="http://www.w3.org/2000/svg" viewBox="0 0 24 24"><defs><style>.cls-1{fill:none;stroke:currentColor;stroke-linecap:round;stroke-linejoin:round;stroke-width:1.5px;}</style></defs><title>trousers-calves-1</title><path class="cls-1" d="M3.75.75a1.5,1.5,0,0,0-1.5,1.5v16.5a1.5,1.5,0,0,0,1.5,1.5h4.5a1.5,1.5,0,0,0,1.5-1.5V12a2.25,2.25,0,0,1,4.5,0v6.75a1.5,1.5,0,0,0,1.5,1.5h4.5a1.5,1.5,0,0,0,1.5-1.5V2.25a1.5,1.5,0,0,0-1.5-1.5Z"/><line class="cls-1" x1="8.25" y1="23.25" x2="3.75" y2="23.25"/><line class="cls-1" x1="20.25" y1="23.25" x2="15.75" y2="23.25"/><line class="cls-1" x1="2.25" y1="3.75" x2="21.75" y2="3.75"/><polyline class="cls-1" points="13.5 6 12 3.75 10.5 6"/><path class="cls-1" d="M6.75,3.75C6.75,6.649,4.735,9,2.25,9"/><path class="cls-1" d="M17.25,3.75c0,2.9,2.015,5.25,4.5,5.25"/></svg>