<svg xmlns="http://www.w3.org/2000/svg" viewBox="0 0 24 24"><defs><style>.a{fill:none;stroke:currentColor;stroke-linecap:round;stroke-linejoin:round;stroke-width:1.5px;}</style></defs><title>truck</title><path class="a" d="M2.25,20.263v1.5a1.5,1.5,0,0,0,3,0v-1.5"/><line class="a" x1="0.75" y1="17.263" x2="5.25" y2="17.263"/><path class="a" d="M21.75,20.263v1.5a1.5,1.5,0,1,1-3,0v-1.5"/><path class="a" d="M23.25,15.763a3,3,0,0,0-3-3h-1.5v-9a3,3,0,0,0-3-3H8.25a3,3,0,0,0-3,3v9H3.75a3,3,0,0,0-3,3v3a1.5,1.5,0,0,0,1.5,1.5h19.5a1.5,1.5,0,0,0,1.5-1.5Z"/><line class="a" x1="23.25" y1="17.263" x2="18.75" y2="17.263"/><rect class="a" x="5.25" y="3.763" width="13.5" height="6"/><path class="a" d="M14.421,16.75a.751.751,0,0,1-.712.513H10.291a.751.751,0,0,1-.712-.513l-1-3a.749.749,0,0,1,.712-.987h5.418a.749.749,0,0,1,.712.987Z"/><path class="a" d="M.75,5.263a1.5,1.5,0,0,1,1.5,1.5v6.4"/><path class="a" d="M23.25,5.263a1.5,1.5,0,0,0-1.5,1.5v6.4"/></svg>