<svg xmlns="http://www.w3.org/2000/svg" viewBox="0 0 24 24"><defs><style>.a{fill:none;stroke:currentColor;stroke-linecap:round;stroke-linejoin:round;stroke-width:1.5px;}</style></defs><title>truck-animal</title><path class="a" d="M.75,14.25V13.5A1.5,1.5,0,0,1,2.25,12h13.5V6.75A.75.75,0,0,1,16.5,6h2.25a4.5,4.5,0,0,1,4.5,4.5v6a1.5,1.5,0,0,1-1.5,1.5H21"/><path class="a" d="M23.25,12h-3a1.5,1.5,0,0,1-1.5-1.5V6"/><circle class="a" cx="16.5" cy="17.25" r="2.25"/><circle class="a" cx="4.5" cy="17.25" r="2.25"/><line class="a" x1="12" y1="18" x2="9" y2="18"/><line class="a" x1="3" y1="12" x2="3" y2="4.5"/><line class="a" x1="11.25" y1="12" x2="11.25" y2="4.5"/><line class="a" x1="1.5" y1="6" x2="12.75" y2="6"/><line class="a" x1="1.5" y1="9" x2="12.75" y2="9"/></svg>