<svg xmlns="http://www.w3.org/2000/svg" viewBox="0 0 24 24"><defs><style>.a{fill:none;stroke:currentColor;stroke-linecap:round;stroke-linejoin:round;stroke-width:1.5px;}</style></defs><title>truck-1</title><circle class="a" cx="18.75" cy="17.25" r="1.5"/><circle class="a" cx="5.25" cy="17.25" r="1.5"/><line class="a" x1="19.5" y1="11.25" x2="13.5" y2="11.25"/><path class="a" d="M20.25,17.25h1.5a1.5,1.5,0,0,0,1.5-1.5v-1.5c0-1.441-.492-1.388-3.75-3l-.932-3.728a3,3,0,0,0-2.91-2.272H2.25a1.5,1.5,0,0,0-1.5,1.5v9a1.5,1.5,0,0,0,1.5,1.5h1.5"/><line class="a" x1="17.25" y1="17.25" x2="6.75" y2="17.25"/><line class="a" x1="13.5" y1="5.25" x2="13.5" y2="17.25"/><rect class="a" x="3.75" y="8.25" width="6.75" height="3" rx="0.5" ry="0.5" transform="translate(14.25 19.5) rotate(-180)"/></svg>