<svg xmlns="http://www.w3.org/2000/svg" viewBox="0 0 24 24"><defs><style>.a{fill:none;stroke:currentColor;stroke-linecap:round;stroke-linejoin:round;stroke-width:1.5px;}</style></defs><title>truck-2</title><circle class="a" cx="18" cy="18" r="2.25"/><circle class="a" cx="5.25" cy="18" r="2.25"/><line class="a" x1="15.75" y1="18" x2="7.5" y2="18"/><path class="a" d="M3,18H2.25a1.5,1.5,0,0,1-1.5-1.5V5.25a1.5,1.5,0,0,1,1.5-1.5H17.735a3,3,0,0,1,2.622,1.543l2.232,4.018a5.241,5.241,0,0,1,.661,2.549V16.5a1.5,1.5,0,0,1-1.5,1.5h-1.5"/><path class="a" d="M.75,13.5h18.8A3,3,0,0,1,21.9,14.639l1.349,1.706"/><line class="a" x1="0.75" y1="6.75" x2="21.166" y2="6.75"/><line class="a" x1="16.5" y1="6.75" x2="16.5" y2="10.5"/><line class="a" x1="9" y1="6.75" x2="9" y2="10.5"/><line class="a" x1="0.75" y1="10.5" x2="23.071" y2="10.5"/></svg>