<svg xmlns="http://www.w3.org/2000/svg" viewBox="0 0 24 24"><defs><style>.a{fill:none;stroke:currentColor;stroke-linecap:round;stroke-linejoin:round;stroke-width:1.5px;}</style></defs><title>truck-moving</title><path class="a" d="M.75,14.463v-.75a1.5,1.5,0,0,1,1.5-1.5h13.5V6.963a.75.75,0,0,1,.75-.75h2.25a4.5,4.5,0,0,1,4.5,4.5v6a1.5,1.5,0,0,1-1.5,1.5H21"/><path class="a" d="M23.25,12.213h-3a1.5,1.5,0,0,1-1.5-1.5v-4.5"/><circle class="a" cx="16.5" cy="17.463" r="2.25"/><circle class="a" cx="4.5" cy="17.463" r="2.25"/><line class="a" x1="12" y1="18.213" x2="9" y2="18.213"/><line class="a" x1="11.25" y1="4.584" x2="11.25" y2="12.213"/><polyline class="a" points="13.25 5.891 7.75 2.296 2.054 5.891"/><line class="a" x1="4.25" y1="12.213" x2="4.25" y2="4.505"/></svg>