<svg xmlns="http://www.w3.org/2000/svg" viewBox="0 0 24 24"><defs><style>.a{fill:none;stroke:currentColor;stroke-linecap:round;stroke-linejoin:round;stroke-width:1.5px;}</style></defs><title>truck-cargo-1</title><circle class="a" cx="18.375" cy="20.588" r="1.875"/><circle class="a" cx="2.625" cy="20.588" r="1.875"/><circle class="a" cx="6.375" cy="20.588" r="1.875"/><path class="a" d="M12,20.213v-3h9.75a1.5,1.5,0,0,1,0,3H20.213"/><path class="a" d="M22.5,17.414v-6.2a4.5,4.5,0,0,0-4.5-4.5H12v10.5"/><path class="a" d="M12,6.713V3.272a1.5,1.5,0,0,1,1.83-1.464c1.592.357,3.714.992,4.17,1.905a8.636,8.636,0,0,1,.75,3l0,.063"/><line class="a" x1="9" y1="15.713" x2="0.75" y2="15.713"/><line class="a" x1="22.5" y1="13.463" x2="12" y2="13.463"/><line class="a" x1="16.5" y1="6.713" x2="16.5" y2="13.463"/><path class="a" d="M9,17.213V2.963a1.5,1.5,0,0,0-1.5-1.5H.75"/><polyline class="a" points="16.538 20.213 12 20.213 8.211 20.213"/></svg>