<svg xmlns="http://www.w3.org/2000/svg" viewBox="0 0 24 24"><defs><style>.a{fill:none;stroke:currentColor;stroke-linecap:round;stroke-linejoin:round;stroke-width:1.5px;}</style></defs><title>truck-rv</title><circle class="a" cx="18.75" cy="19.5" r="1.5"/><circle class="a" cx="5.25" cy="19.5" r="1.5"/><path class="a" d="M20.25,19.5h1.5a1.5,1.5,0,0,0,1.5-1.5V15a2.336,2.336,0,0,0-.436-1.36L19.5,9H14.25V19.5"/><line class="a" x1="23.25" y1="15" x2="14.25" y2="15"/><path class="a" d="M14.25,19.5V12H.75v6a1.5,1.5,0,0,0,1.5,1.5h1.5"/><line class="a" x1="17.25" y1="19.5" x2="6.75" y2="19.5"/><path class="a" d="M23.25,6a3,3,0,0,1-3,3h-6v3H.75V6a3,3,0,0,1,3-3h16.5A3,3,0,0,1,23.25,6Z"/><line class="a" x1="20.25" y1="6" x2="18.75" y2="6"/><line class="a" x1="12.75" y1="6" x2="3.75" y2="6"/></svg>