<svg xmlns="http://www.w3.org/2000/svg" viewBox="0 0 24 24"><defs><style>.a{fill:none;stroke:currentColor;stroke-linecap:round;stroke-linejoin:round;stroke-width:1.5px;}</style></defs><title>truck-3</title><path class="a" d="M4.5,20.263v1.5a1.5,1.5,0,0,0,3,0v-1.5Z"/><path class="a" d="M16.5,20.263v1.5a1.5,1.5,0,1,0,3,0v-1.5Z"/><line class="a" x1="3" y1="11.263" x2="21" y2="11.263"/><line class="a" x1="3.518" y1="5.263" x2="20.482" y2="5.263"/><line class="a" x1="12" y1="11.263" x2="12" y2="5.263"/><path class="a" d="M12,.763c-4.142,0-9,2.608-9,6.75v11.25a1.5,1.5,0,0,0,1.5,1.5h15a1.5,1.5,0,0,0,1.5-1.5V7.513C21,3.371,16.142.763,12,.763Z"/><path class="a" d="M6,16.888a.375.375,0,0,1,.375.375"/><path class="a" d="M5.625,17.263A.375.375,0,0,1,6,16.888"/><path class="a" d="M6,17.638a.375.375,0,0,1-.375-.375"/><path class="a" d="M6.375,17.263A.375.375,0,0,1,6,17.638"/><path class="a" d="M18,16.888a.375.375,0,0,1,.375.375"/><path class="a" d="M17.625,17.263A.375.375,0,0,1,18,16.888"/><path class="a" d="M18,17.638a.375.375,0,0,1-.375-.375"/><path class="a" d="M18.375,17.263a.375.375,0,0,1-.375.375"/><path class="a" d="M12,20.263c0-2.25-3-7.5-9-9"/><path class="a" d="M12,20.263c0-2.25,3-7.5,9-9"/><line class="a" x1="3" y1="9.763" x2="1.5" y2="9.763"/><line class="a" x1="22.5" y1="9.763" x2="21" y2="9.763"/></svg>