<svg xmlns="http://www.w3.org/2000/svg" viewBox="0 0 24 24"><defs><style>.a{fill:none;stroke:currentColor;stroke-linecap:round;stroke-linejoin:round;stroke-width:1.5px;}</style></defs><title>tuk-tuk-1</title><path class="a" d="M1.5,18.763v3a1.5,1.5,0,0,0,3,0v-3"/><path class="a" d="M3.75,14.263a2.25,2.25,0,0,0-2.25,2.25v2.25H6v-2.25A2.25,2.25,0,0,0,3.75,14.263Z"/><path class="a" d="M22.5,18.763v3a1.5,1.5,0,1,1-3,0v-3"/><path class="a" d="M20.25,14.263a2.25,2.25,0,0,1,2.25,2.25v2.25H18v-2.25A2.25,2.25,0,0,1,20.25,14.263Z"/><path class="a" d="M10.5,20.263h-3a1.5,1.5,0,0,1-1.5-1.5v-7.5l2.25-7.5h7.5l2.25,7.5v7.5a1.5,1.5,0,0,1-1.5,1.5h-3"/><line class="a" x1="6" y1="11.263" x2="18" y2="11.263"/><path class="a" d="M12,17.263a1.5,1.5,0,0,0-1.5,1.5v3a1.5,1.5,0,1,0,3,0v-3A1.5,1.5,0,0,0,12,17.263Z"/><path class="a" d="M9,13.888a.375.375,0,0,1,.375.375"/><path class="a" d="M8.625,14.263A.375.375,0,0,1,9,13.888"/><path class="a" d="M9,14.638a.375.375,0,0,1-.375-.375"/><path class="a" d="M9.375,14.263A.375.375,0,0,1,9,14.638"/><path class="a" d="M15,13.888a.375.375,0,0,0-.375.375"/><path class="a" d="M15.375,14.263A.375.375,0,0,0,15,13.888"/><path class="a" d="M15,14.638a.375.375,0,0,0,.375-.375"/><path class="a" d="M14.625,14.263a.375.375,0,0,0,.375.375"/><line class="a" x1="18" y1="3.763" x2="6" y2="3.763"/><path class="a" d="M10.75.763h2.5a1,1,0,0,1,1,1v2a0,0,0,0,1,0,0H9.75a0,0,0,0,1,0,0v-2A1,1,0,0,1,10.75.763Z"/></svg>