<svg xmlns="http://www.w3.org/2000/svg" viewBox="0 0 24 24"><defs><style>.a{fill:none;stroke:currentColor;stroke-linecap:round;stroke-linejoin:round;stroke-width:1.5px;}</style></defs><title>tuk-tuk</title><circle class="a" cx="6.75" cy="18.763" r="2.25"/><path class="a" d="M18.753,18.64a2.249,2.249,0,1,0,.951-1.717"/><path class="a" d="M23.25,14.018A5.23,5.23,0,0,0,21,13.513a5.333,5.333,0,0,0-.926.081"/><path class="a" d="M4.5,18.763H3.75a1.5,1.5,0,0,1-1.5-1.5V4.628"/><line class="a" x1="0.75" y1="4.513" x2="20.25" y2="6.013"/><path class="a" d="M18,5.84l2.25,6.173-.6,5.415a1.5,1.5,0,0,1-1.49,1.335H9"/><polyline class="a" points="2.25 13.513 9.75 13.513 12.75 18.763"/><line class="a" x1="9.75" y1="5.263" x2="9.75" y2="13.513"/><path class="a" d="M12.75,11.263l.75,3.75h.75a1.5,1.5,0,0,1,1.5,1.5v2.25"/><path class="a" d="M18,5.84V4.513a1.5,1.5,0,1,0-3,0v1.1"/></svg>