<svg id="Regular" xmlns="http://www.w3.org/2000/svg" viewBox="0 0 24 24"><defs><style>.cls-1{fill:none;stroke:currentColor;stroke-linecap:round;stroke-linejoin:round;stroke-width:1.5px;}</style></defs><title>tux</title><line class="cls-1" x1="0.893" y1="15.75" x2="5.25" y2="15.75"/><path class="cls-1" d="M20.889,2.758C18.357,5.234,18.75,11.25,18.75,11.25v10.5s-1.5,1.5-6.75,1.5-6.75-1.5-6.75-1.5V11.25s.393-6.016-2.139-8.492"/><path class="cls-1" d="M18.75,18.75h4.5l-.571-12a6,6,0,0,0-3.63-5.229L17.25.75S15.75,9,12,12C8.25,9,6.75.75,6.75.75l-1.8.771A6,6,0,0,0,1.321,6.75l-.571,12h4.5"/><line class="cls-1" x1="23.107" y1="15.75" x2="18.75" y2="15.75"/><line class="cls-1" x1="12" y1="12" x2="12" y2="23.25"/><path class="cls-1" d="M6.75.75A10.376,10.376,0,0,0,12,2.25,10.376,10.376,0,0,0,17.25.75"/><line class="cls-1" x1="11.25" y1="5.25" x2="12.75" y2="5.25"/></svg>