<svg id="Regular" xmlns="http://www.w3.org/2000/svg" viewBox="0 0 24 24"><defs><style>.cls-1{fill:none;stroke:currentColor;stroke-linecap:round;stroke-linejoin:round;stroke-width:1.5px;}</style></defs><title>underwear-bikini-bottom</title><path class="cls-1" d="M12,7.95A60.055,60.055,0,0,1,.75,6.45c4.522,4.38,7.925,8.435,9.388,13.528a2.033,2.033,0,0,0,1.953,1.472,1.79,1.79,0,0,0,1.725-1.311c1.438-5.169,4.865-9.263,9.434-13.689A60.055,60.055,0,0,1,12,7.95Z"/><path class="cls-1" d="M22.65,3.15c.5.663.6,3.3.6,3.3s-2.5-.837-3-1.5a1.5,1.5,0,1,1,2.4-1.8Z"/><line class="cls-1" x1="23.25" y1="6.45" x2="23.25" y2="10.95"/><path class="cls-1" d="M1.35,3.15c-.5.663-.6,3.3-.6,3.3s2.5-.837,3-1.5a1.5,1.5,0,0,0-2.4-1.8Z"/><line class="cls-1" x1="0.75" y1="6.45" x2="0.75" y2="10.95"/></svg>