<svg id="Regular" xmlns="http://www.w3.org/2000/svg" viewBox="0 0 24 24"><defs><style>.cls-1{fill:none;stroke:currentColor;stroke-linecap:round;stroke-linejoin:round;stroke-width:1.5px;}</style></defs><title>underwear-bra-lace</title><line class="cls-1" x1="2.25" y1="11.767" x2="2.25" y2="2.917"/><path class="cls-1" d="M4.605,10.814a1.5,1.5,0,0,0-1.641.207C.2,13.393.372,18.288,2.25,20.167c1.7,1.7,6.5.931,8.487-1.47a1.5,1.5,0,0,0,.23-1.536A12.611,12.611,0,0,0,4.605,10.814Z"/><line class="cls-1" x1="21.75" y1="11.767" x2="21.75" y2="2.917"/><path class="cls-1" d="M19.4,10.814a1.5,1.5,0,0,1,1.641.207c2.765,2.372,2.592,7.267.714,9.146-1.7,1.7-6.5.931-8.487-1.47a1.5,1.5,0,0,1-.23-1.536A12.611,12.611,0,0,1,19.4,10.814Z"/></svg>