<svg id="Regular" xmlns="http://www.w3.org/2000/svg" viewBox="0 0 24 24"><defs><style>.cls-1{fill:none;stroke:currentColor;stroke-linecap:round;stroke-linejoin:round;stroke-width:1.5px;}</style></defs><title>underwear-female-set</title><line class="cls-1" x1="3.751" y1="4.669" x2="3.751" y2="0.75"/><path class="cls-1" d="M5.618,4.057a1.306,1.306,0,0,0-1.427.18c-2.4,2.062-2.254,6.32-.621,7.953,1.48,1.481,5.65.811,7.381-1.278a1.307,1.307,0,0,0,.2-1.335A10.964,10.964,0,0,0,5.618,4.057Z"/><path class="cls-1" d="M3.877,4.533a6.949,6.949,0,0,0,2.3,4.4,7.117,7.117,0,0,0,4.46,2.32"/><line class="cls-1" x1="20.251" y1="4.669" x2="20.251" y2="0.75"/><path class="cls-1" d="M18.384,4.057a1.306,1.306,0,0,1,1.427.18c2.405,2.062,2.254,6.32.621,7.953-1.481,1.481-5.65.811-7.381-1.278a1.3,1.3,0,0,1-.2-1.335A10.956,10.956,0,0,1,18.384,4.057Z"/><path class="cls-1" d="M20.124,4.533a6.944,6.944,0,0,1-2.3,4.4,7.117,7.117,0,0,1-4.46,2.32"/><line class="cls-1" x1="11.181" y1="10.5" x2="12.82" y2="10.5"/><path class="cls-1" d="M2.249,16.5A42.173,42.173,0,0,0,12,18a42.146,42.146,0,0,0,9.75-1.5"/><polyline class="cls-1" points="17.9 17.378 14.251 23.25 9.751 23.25 6.1 17.378"/></svg>