<svg id="Regular" xmlns="http://www.w3.org/2000/svg" viewBox="0 0 24 24"><defs><style>.cls-1{fill:none;stroke:currentColor;stroke-linecap:round;stroke-linejoin:round;stroke-width:1.5px;}</style></defs><title>underwear-corset-1</title><path class="cls-1" d="M12,23.25c5.25,0,10.5-3,10.5-3,0-3.75-3-4.5-3-6.75s3.75-4.125,3.75-7.125A5.694,5.694,0,0,0,17.625.75C14.518.75,12,3,12,5.25,12,3,9.482.75,6.375.75A5.694,5.694,0,0,0,.75,6.375c0,3,3.75,4.875,3.75,7.125s-3,3-3,6.75C1.5,20.25,6.75,23.25,12,23.25Z"/><path class="cls-1" d="M22.706,8.357c-.841-.924-1.837-2.577-3.956-3.107-2.6-.649-6.1,4.058-6.75,4.5-.653-.442-4.154-5.149-6.75-4.5-2.12.53-3.115,2.183-3.956,3.107"/><line class="cls-1" x1="12" y1="9.75" x2="12" y2="23.25"/></svg>