<svg id="Regular" xmlns="http://www.w3.org/2000/svg" viewBox="0 0 24 24"><defs><style>.cls-1{fill:none;stroke:currentColor;stroke-linecap:round;stroke-linejoin:round;stroke-width:1.5px;}</style></defs><title>underwear-bikini</title><path class="cls-1" d="M12,9c-2.25,2.25-5.346,2.476-8.25,1.091a6.382,6.382,0,0,1,0-4.5A8.361,8.361,0,0,1,12,6Z"/><line class="cls-1" x1="9.302" y1="4.904" x2="6.75" y2="0.75"/><path class="cls-1" d="M12,9c2.25,2.25,5.346,2.476,8.25,1.091a6.382,6.382,0,0,0,0-4.5A8.361,8.361,0,0,0,12,6Z"/><line class="cls-1" x1="14.698" y1="4.904" x2="17.25" y2="0.75"/><path class="cls-1" d="M18.75,20.25c.093,0,.186,0,.277.011.473-1.511.367-4.9-1.027-6.011H6c-1.394,1.106-1.5,4.5-1.027,6.011.091-.007.184-.011.277-.011a3.752,3.752,0,0,1,3.675,3h6.15A3.752,3.752,0,0,1,18.75,20.25Z"/></svg>