<svg id="Regular" xmlns="http://www.w3.org/2000/svg" viewBox="0 0 24 24"><defs><style>.cls-1{fill:none;stroke:currentColor;stroke-linecap:round;stroke-linejoin:round;stroke-width:1.5px;}</style></defs><title>underwear-bra</title><path class="cls-1" d="M2.415,12.133A1.5,1.5,0,0,0,.75,13.624V16.5a6,6,0,0,0,6,6,5.917,5.917,0,0,0,5.25-3C10.658,14.48,7.322,12.669,2.415,12.133Z"/><path class="cls-1" d="M21.585,12.133a1.5,1.5,0,0,1,1.665,1.491V16.5a6,6,0,0,1-6,6,5.917,5.917,0,0,1-5.25-3C13.342,14.48,16.678,12.669,21.585,12.133Z"/><line class="cls-1" x1="2.214" y1="12.124" x2="5.25" y2="1.5"/><line class="cls-1" x1="21.785" y1="12.124" x2="18.75" y2="1.5"/></svg>