<svg id="Regular" xmlns="http://www.w3.org/2000/svg" viewBox="0 0 24 24"><defs><style>.cls-1{fill:none;stroke:currentColor;stroke-linecap:round;stroke-linejoin:round;stroke-width:1.5px;}</style></defs><title>underwear-bra-1</title><line class="cls-1" x1="2.25" y1="9.555" x2="2.25" y2="0.75"/><path class="cls-1" d="M4.631,8.674a1.5,1.5,0,0,0-1.68.192C.2,11.242.419,14.15,1.5,17.25a7.44,7.44,0,0,0,8.059-.781,1.5,1.5,0,0,0,.523-1.821A11.755,11.755,0,0,0,4.631,8.674Z"/><line class="cls-1" x1="21.75" y1="9.555" x2="21.75" y2="0.75"/><path class="cls-1" d="M19.369,8.674a1.5,1.5,0,0,1,1.68.192C23.8,11.242,23.581,14.15,22.5,17.25a7.44,7.44,0,0,1-8.059-.781,1.5,1.5,0,0,1-.523-1.821A11.755,11.755,0,0,1,19.369,8.674Z"/><line class="cls-1" x1="8.25" y1="17.25" x2="15.75" y2="17.25"/><line class="cls-1" x1="9.084" y1="12.75" x2="14.916" y2="12.75"/><path class="cls-1" d="M21,23.25a40.99,40.99,0,0,0-9-1.5,40.99,40.99,0,0,0-9,1.5l-1.5-6"/><line class="cls-1" x1="22.5" y1="17.25" x2="21" y2="23.25"/></svg>