<svg id="Regular" xmlns="http://www.w3.org/2000/svg" viewBox="0 0 24 24"><defs><style>.cls-1{fill:none;stroke:currentColor;stroke-linecap:round;stroke-linejoin:round;stroke-width:1.5px;}</style></defs><title>underwear-boxers</title><path class="cls-1" d="M9.75,15.481V18.75a1.5,1.5,0,0,1-1.5,1.5h-6a1.5,1.5,0,0,1-1.5-1.5V4.5a.75.75,0,0,1,.75-.75h21a.75.75,0,0,1,.75.75V18.75a1.5,1.5,0,0,1-1.5,1.5h-6a1.5,1.5,0,0,1-1.5-1.5V15.481"/><line class="cls-1" x1="0.75" y1="6.75" x2="23.25" y2="6.75"/><path class="cls-1" d="M9,6.75V13.5a3,3,0,0,0,6,0V6.75"/></svg>