<svg id="Regular" xmlns="http://www.w3.org/2000/svg" viewBox="0 0 24 24"><defs><style>.cls-1{fill:none;stroke:currentColor;stroke-linecap:round;stroke-linejoin:round;stroke-width:1.5px;}</style></defs><title>underwear-shorts-male</title><path class="cls-1" d="M21.75,23.25H15.421a1.5,1.5,0,0,1-1.456-1.136L12,15l-1.966,7.114A1.5,1.5,0,0,1,8.579,23.25H2.25a1.5,1.5,0,0,1-1.5-1.5V2.25A1.5,1.5,0,0,1,2.25.75h19.5a1.5,1.5,0,0,1,1.5,1.5v19.5A1.5,1.5,0,0,1,21.75,23.25Z"/><line class="cls-1" x1="0.75" y1="6" x2="23.25" y2="6"/><path class="cls-1" d="M9,6v5.25a3,3,0,0,0,1.2,2.4L12,15l1.8-1.35a3,3,0,0,0,1.2-2.4V6"/></svg>