<svg id="Regular" xmlns="http://www.w3.org/2000/svg" viewBox="0 0 24 24"><defs><style>.cls-1{fill:none;stroke:currentColor;stroke-linecap:round;stroke-linejoin:round;stroke-width:1.5px;}</style></defs><title>underwear-shorts-male-1</title><path class="cls-1" d="M4,.75H20a1,1,0,0,1,1,1v2a0,0,0,0,1,0,0H3a0,0,0,0,1,0,0v-2A1,1,0,0,1,4,.75Z"/><path class="cls-1" d="M21,8.25a4.5,4.5,0,0,1-4.5-4.5"/><path class="cls-1" d="M3,8.25a4.5,4.5,0,0,0,4.5-4.5"/><path class="cls-1" d="M9.8,18.75l.515-7.512a1.7,1.7,0,0,1,3.372,0L14.2,18.75H21v-15H3v15Z"/><path class="cls-1" d="M3,18.75H9a0,0,0,0,1,0,0v3.5a1,1,0,0,1-1,1H4a1,1,0,0,1-1-1v-3.5A0,0,0,0,1,3,18.75Z"/><line class="cls-1" x1="6" y1="18.75" x2="6" y2="23.25"/><path class="cls-1" d="M15,18.75h6a0,0,0,0,1,0,0v3.5a1,1,0,0,1-1,1H16a1,1,0,0,1-1-1v-3.5A0,0,0,0,1,15,18.75Z"/><line class="cls-1" x1="18" y1="18.75" x2="18" y2="23.25"/></svg>