<svg xmlns="http://www.w3.org/2000/svg" viewBox="0 0 24 24"><defs><style>.a{fill:none;stroke:currentColor;stroke-linecap:round;stroke-linejoin:round;stroke-width:1.5px;}</style></defs><title>unicycle</title><line class="a" x1="12" y1="8.25" x2="12" y2="5.25"/><circle class="a" cx="12" cy="15.75" r="7.5"/><path class="a" d="M18,3.75a1.5,1.5,0,0,0-1.5-1.5H13.372a2.564,2.564,0,0,1-1.811-.75A2.562,2.562,0,0,0,9.75.75H7.5A1.5,1.5,0,0,0,6,2.25a3,3,0,0,0,3,3h7.5A1.5,1.5,0,0,0,18,3.75Z"/><circle class="a" cx="12" cy="15.75" r="4.5"/><circle class="a" cx="12" cy="15.75" r="1.5"/><line class="a" x1="12" y1="14.25" x2="12" y2="11.25"/><line class="a" x1="10.573" y1="15.286" x2="7.72" y2="14.359"/><line class="a" x1="11.118" y1="16.964" x2="9.355" y2="19.391"/><line class="a" x1="12.882" y1="16.964" x2="14.645" y2="19.391"/><line class="a" x1="13.427" y1="15.286" x2="16.28" y2="14.359"/></svg>