<svg xmlns="http://www.w3.org/2000/svg" viewBox="0 0 24 24"><defs><style>.a{fill:none;stroke:currentColor;stroke-linecap:round;stroke-linejoin:round;stroke-width:1.5px;}</style></defs><title>user-cash-scale</title><path class="a" d="M18.75,6.75H16.717a1.342,1.342,0,0,0-.5,2.587l2.064.825a1.342,1.342,0,0,1-.5,2.588H15.75"/><line class="a" x1="17.25" y1="6.75" x2="17.25" y2="6"/><line class="a" x1="17.25" y1="13.5" x2="17.25" y2="12.75"/><circle class="a" cx="17.25" cy="9.75" r="6"/><circle class="a" cx="4.5" cy="3.375" r="2.625"/><path class="a" d="M6.375,15.75l.375-3h1.5V10.5a3.75,3.75,0,0,0-7.5,0v2.25h1.5l.375,3"/><line class="a" x1="0.75" y1="18.75" x2="23.25" y2="18.75"/><polygon class="a" points="15 23.25 9 23.25 12 19.5 15 23.25"/></svg>