<svg xmlns="http://www.w3.org/2000/svg" viewBox="0 0 24 24"><defs><style>.a{fill:none;stroke:currentColor;stroke-linecap:round;stroke-linejoin:round;stroke-width:1.5px;}</style></defs><title>user-woman-stress</title><polyline class="a" points="20.249 1.25 18.28 3.218 19.264 4.695 17.296 6.172"/><polyline class="a" points="3.749 1.242 5.718 3.211 4.733 4.687 6.702 6.164"/><polyline class="a" points="12.327 0.75 11.343 2.226 12.327 3.211"/><path class="a" d="M7.828,10.986v1a5.906,5.906,0,0,1-.859,3.272"/><path class="a" d="M16.075,10.986v1a5.905,5.905,0,0,0,.86,3.272"/><path class="a" d="M7.84,11.2a5.486,5.486,0,0,0,4.112-1.9,5.486,5.486,0,0,0,4.112,1.9"/><circle class="a" cx="11.952" cy="10.875" r="4.125"/><path class="a" d="M18.7,23.25a6.741,6.741,0,0,0-4.243-6.257L11.952,19.5,9.445,16.993A6.741,6.741,0,0,0,5.2,23.25"/></svg>