<svg xmlns="http://www.w3.org/2000/svg" viewBox="0 0 24 24"><defs><style>.a{fill:none;stroke:currentColor;stroke-linecap:round;stroke-linejoin:round;stroke-width:1.5px;}</style></defs><title>user-polaroid</title><circle class="a" cx="12" cy="6.75" r="3"/><path class="a" d="M15.75,17.25V15a3.75,3.75,0,0,0-7.5,0v2.25h1.5l.75,6h3l.75-6Z"/><line class="a" x1="0.75" y1="0.75" x2="23.25" y2="0.75"/><line class="a" x1="0.75" y1="23.25" x2="23.25" y2="23.25"/><rect class="a" x="2.25" y="0.75" width="19.5" height="22.5"/><path class="a" d="M5.25,3.375a.375.375,0,1,1-.375.375.375.375,0,0,1,.375-.375"/><path class="a" d="M5.625,9.75a.375.375,0,1,1-.375.375.375.375,0,0,1,.375-.375"/><path class="a" d="M5.625,19.5a.375.375,0,1,1-.375.375.375.375,0,0,1,.375-.375"/><path class="a" d="M17.625,20.25a.375.375,0,1,1-.375.375.375.375,0,0,1,.375-.375"/><path class="a" d="M19.125,13.5a.375.375,0,1,1-.375.375.375.375,0,0,1,.375-.375"/><path class="a" d="M18.375,6A.375.375,0,1,1,18,6.375.375.375,0,0,1,18.375,6"/></svg>