<svg id="Regular" xmlns="http://www.w3.org/2000/svg" viewBox="0 0 24 24"><defs><style>.cls-1{fill:none;stroke:currentColor;stroke-linecap:round;stroke-linejoin:round;stroke-width:1.5px;}</style></defs><title>uv-low-1</title><path class="cls-1" d="M8.25.75h-6a1.5,1.5,0,0,0-1.5,1.5v19.5a1.5,1.5,0,0,0,1.5,1.5h6a1.5,1.5,0,0,0,1.5-1.5v-4.5"/><circle class="cls-1" cx="15.75" cy="8.25" r="7.5"/><path class="cls-1" d="M11.25,6V9.75a1.5,1.5,0,0,0,3,0V6"/><path class="cls-1" d="M17.25,6v.3a8.932,8.932,0,0,0,1.5,4.954A8.932,8.932,0,0,0,20.25,6.3V6"/><line class="cls-1" x1="3.75" y1="20.25" x2="6.75" y2="20.25"/></svg>