<svg id="Regular" xmlns="http://www.w3.org/2000/svg" viewBox="0 0 24 24"><defs><style>.cls-1{fill:none;stroke:currentColor;stroke-linecap:round;stroke-linejoin:round;stroke-width:1.5px;}</style></defs><title>uv-sun</title><line class="cls-1" x1="12" y1="2.25" x2="12" y2="0.75"/><line class="cls-1" x1="18.894" y1="5.106" x2="19.955" y2="4.045"/><line class="cls-1" x1="5.106" y1="18.894" x2="4.045" y2="19.955"/><line class="cls-1" x1="2.25" y1="12" x2="0.75" y2="12"/><line class="cls-1" x1="21.75" y1="12" x2="23.25" y2="12"/><line class="cls-1" x1="5.106" y1="5.106" x2="4.045" y2="4.045"/><path class="cls-1" d="M18.337,14.25A6.737,6.737,0,1,0,10.5,18.57"/><path class="cls-1" d="M14.25,18v3.75a1.5,1.5,0,0,0,3,0V18"/><path class="cls-1" d="M20.25,18v.3a8.932,8.932,0,0,0,1.5,4.954,8.932,8.932,0,0,0,1.5-4.954V18"/></svg>