<svg xmlns="http://www.w3.org/2000/svg" viewBox="0 0 24 24"><defs><style>.a{fill:none;stroke:currentColor;stroke-linecap:round;stroke-linejoin:round;stroke-width:1.5px;}</style></defs><title>vectors-pen-draw</title><path class="a" d="M15.246,16.692,21.6,10.359A5.626,5.626,0,0,0,22.66,3.868h0a5.625,5.625,0,0,0-7.543-2.527h0a5.626,5.626,0,0,0-3.061,5.823l1.255,8.88A1.141,1.141,0,0,0,15.246,16.692Z"/><line class="a" x1="14.079" y1="16.965" x2="16.96" y2="8.36"/><path class="a" d="M.75,11.257c3.1-3.939,6.037-2.119,6.037-.145,0,2.121-3.892,5.039-3.892,8.185A4.071,4.071,0,0,0,7.212,23.25a8.327,8.327,0,0,0,5.49-2.529"/><circle class="a" cx="17.51" cy="6.719" r="1.731"/></svg>