<svg xmlns="http://www.w3.org/2000/svg" viewBox="0 0 24 24"><defs><style>.a{fill:none;stroke:currentColor;stroke-linecap:round;stroke-linejoin:round;stroke-width:1.5px;}</style></defs><title>vectors-square-link-broken</title><rect class="a" x="0.75" y="0.75" width="4.5" height="4.5" rx="0.563" ry="0.563"/><rect class="a" x="18.75" y="0.75" width="4.5" height="4.5" rx="0.563" ry="0.563"/><line class="a" x1="5.25" y1="3" x2="18.75" y2="3"/><line class="a" x1="5.25" y1="19.5" x2="10.5" y2="19.5"/><rect class="a" x="0.75" y="17.25" width="4.5" height="4.5" rx="0.563" ry="0.563"/><line class="a" x1="3" y1="17.25" x2="3" y2="5.25"/><line class="a" x1="21" y1="10.5" x2="21" y2="5.25"/><path class="a" d="M17.416,15.314l1.51-1.509a1.562,1.562,0,0,1,2.2-.082l1.06,1.061a1.561,1.561,0,0,1-.081,2.2L20.6,18.5"/><path class="a" d="M18.477,20.618l-1.509,1.509a1.562,1.562,0,0,1-2.2.082L13.7,21.148a1.561,1.561,0,0,1,.082-2.2h0L15.3,17.436"/><line class="a" x1="15.75" y1="13.723" x2="15.75" y2="12.663"/><line class="a" x1="13.704" y1="15.769" x2="12.643" y2="15.769"/><line class="a" x1="22.189" y1="20.269" x2="23.25" y2="20.269"/><line class="a" x1="20.25" y1="22.209" x2="20.25" y2="23.25"/></svg>