<svg xmlns="http://www.w3.org/2000/svg" viewBox="0 0 24 24"><defs><style>.a{fill:none;stroke:currentColor;stroke-linecap:round;stroke-linejoin:round;stroke-width:1.5px;}</style></defs><title>vectors-pen-new-anchor</title><path class="a" d="M13.5,16.564a10.215,10.215,0,0,1,6.761,3.686"/><path class="a" d="M10.5,16.564A10.215,10.215,0,0,0,3.739,20.25"/><rect class="a" x="10.5" y="15" width="3" height="3"/><rect class="a" x="19.5" y="20.25" width="3" height="3"/><rect class="a" x="1.5" y="20.25" width="3" height="3"/><path class="a" d="M9.688,3.181h0A3.274,3.274,0,0,0,9.07,6.96L11.4,11.632a.664.664,0,0,0,1.188,0l2.341-4.666a3.274,3.274,0,0,0-.608-3.78h0"/><line class="a" x1="15" y1="0.75" x2="9" y2="0.75"/></svg>