<svg xmlns="http://www.w3.org/2000/svg" viewBox="0 0 24 24"><defs><style>.a{fill:none;stroke:currentColor;stroke-linecap:round;stroke-linejoin:round;stroke-width:1.5px;}</style></defs><title>vectors-pen-anchor</title><rect class="a" x="9.75" y="1.371" width="4.5" height="4.5" rx="0.75" ry="0.75" transform="translate(0.954 9.546) rotate(-45)"/><rect class="a" x="1.371" y="9.75" width="4.5" height="4.5" rx="0.75" ry="0.75" transform="translate(-7.425 6.075) rotate(-45)"/><rect class="a" x="18.129" y="9.75" width="4.5" height="4.5" rx="0.75" ry="0.75" transform="translate(-2.517 17.925) rotate(-45)"/><line class="a" x1="10.409" y1="5.212" x2="5.212" y2="10.409"/><line class="a" x1="13.591" y1="5.212" x2="18.788" y2="10.409"/><path class="a" d="M11.292,9.721l-2.985,5.97a4.187,4.187,0,0,0,.784,4.833h0a4.187,4.187,0,0,0,5.921,0h0a4.187,4.187,0,0,0,.784-4.833l-2.985-5.97A.849.849,0,0,0,11.292,9.721Z"/><line class="a" x1="12.052" y1="9.252" x2="12.052" y2="16.469"/><line class="a" x1="7.5" y1="23.25" x2="16.5" y2="23.25"/></svg>