<svg xmlns="http://www.w3.org/2000/svg" viewBox="0 0 24 24"><defs><style>.a{fill:none;stroke:currentColor;stroke-linecap:round;stroke-linejoin:round;stroke-width:1.5px;}</style></defs><title>vectors-pen-flat</title><path class="a" d="M9.688,3.181h0A3.274,3.274,0,0,0,9.07,6.96L11.4,11.632a.664.664,0,0,0,1.188,0l2.341-4.666a3.274,3.274,0,0,0-.608-3.78h0"/><line class="a" x1="15" y1="0.75" x2="9" y2="0.75"/><path class="a" d="M13.5,16.6a11.265,11.265,0,0,1,8.814,6.651"/><path class="a" d="M1.686,23.25A11.265,11.265,0,0,1,10.5,16.6"/><line class="a" x1="1.5" y1="16.5" x2="10.5" y2="16.5"/><line class="a" x1="13.5" y1="16.5" x2="22.5" y2="16.5"/><rect class="a" x="10.5" y="15" width="3" height="3"/></svg>