<svg xmlns="http://www.w3.org/2000/svg" viewBox="0 0 24 24"><defs><style>.a{fill:none;stroke:currentColor;stroke-linecap:round;stroke-linejoin:round;stroke-width:1.5px;}</style></defs><title>vectors-pen-subtract-1</title><line class="a" x1="0.75" y1="2.625" x2="8.25" y2="2.625"/><path class="a" d="M20.147,11.026l-4.7-4.7L17.972,3.8a1.968,1.968,0,0,1,2.784,0l1.918,1.918a1.969,1.969,0,0,1,0,2.783Z"/><path class="a" d="M20.147,11.026l-4.7-4.7L9.375,8.873A2.216,2.216,0,0,0,7.853,10.4L5.119,20.669a.554.554,0,0,0,.685.685L16.077,18.62A2.219,2.219,0,0,0,17.6,17.1Z"/><line class="a" x1="5.26" y1="21.213" x2="12.726" y2="13.746"/></svg>