<svg xmlns="http://www.w3.org/2000/svg" viewBox="0 0 24 24"><defs><style>.a{fill:none;stroke:currentColor;stroke-linecap:round;stroke-linejoin:round;stroke-width:1.5px;}</style></defs><title>vectors-pen-add-1</title><line class="a" x1="0.75" y1="4.5" x2="8.25" y2="4.5"/><line class="a" x1="4.5" y1="0.75" x2="4.5" y2="8.25"/><path class="a" d="M20.147,12.9l-4.7-4.7,2.526-2.526a1.968,1.968,0,0,1,2.784,0l1.918,1.918a1.969,1.969,0,0,1,0,2.783Z"/><path class="a" d="M20.147,12.9l-4.7-4.7L9.375,10.748A2.216,2.216,0,0,0,7.853,12.27L5.119,22.544a.554.554,0,0,0,.685.685L16.077,20.5A2.219,2.219,0,0,0,17.6,18.973Z"/><line class="a" x1="5.26" y1="23.088" x2="12.726" y2="15.621"/></svg>