<svg xmlns="http://www.w3.org/2000/svg" viewBox="0 0 24 24"><defs><style>.a{fill:none;stroke:currentColor;stroke-linecap:round;stroke-linejoin:round;stroke-width:1.5px;}</style></defs><title>vectors-square-link</title><path class="a" d="M17.553,21.791l-.959.958a1.854,1.854,0,0,1-2.618-.064l-.671-.671a1.854,1.854,0,0,1-.064-2.618l2.738-2.738a1.588,1.588,0,0,1,2.244.055l.527.527"/><path class="a" d="M18.335,14.3,19.341,13.3a1.9,1.9,0,0,1,2.683,0l.67.67a1.9,1.9,0,0,1,0,2.683L19.82,19.523a1.625,1.625,0,0,1-2.3,0L16.994,19"/><rect class="a" x="0.75" y="0.74" width="4.5" height="4.5" rx="0.563" ry="0.563"/><rect class="a" x="18.75" y="0.74" width="4.5" height="4.5" rx="0.563" ry="0.563"/><line class="a" x1="5.25" y1="2.99" x2="18.75" y2="2.99"/><line class="a" x1="5.25" y1="19.49" x2="10.5" y2="19.49"/><rect class="a" x="0.75" y="17.24" width="4.5" height="4.5" rx="0.563" ry="0.563"/><line class="a" x1="3" y1="17.24" x2="3" y2="5.24"/><line class="a" x1="21" y1="10.49" x2="21" y2="5.24"/></svg>