<svg xmlns="http://www.w3.org/2000/svg" viewBox="0 0 24 24"><defs><style>.a{fill:none;stroke:currentColor;stroke-linecap:round;stroke-linejoin:round;stroke-width:1.5px;}</style></defs><title>vectors-pen-1</title><path class="a" d="M9.04,7.505A5.986,5.986,0,0,0,6.6,10.059h0a5.989,5.989,0,0,0,.011,5.376l3.26,6.456A2.355,2.355,0,0,0,12,23.25h0a2.355,2.355,0,0,0,2.134-1.359l3.26-6.456a5.989,5.989,0,0,0,.011-5.376h0a5.991,5.991,0,0,0-2.373-2.514Z"/><line class="a" x1="12" y1="19.5" x2="12" y2="14.25"/><circle class="a" cx="12" cy="12.75" r="1.5"/><polyline class="a" points="9.036 7.497 8.287 0.75 15.787 0.75 15.032 7.545"/></svg>