<svg id="Regular" xmlns="http://www.w3.org/2000/svg" viewBox="0 0 24 24"><defs><style>.cls-1{fill:none;stroke:currentColor;stroke-linecap:round;stroke-linejoin:round;stroke-width:1.5px;}</style></defs><title>vegetables-broccoli</title><path class="cls-1" d="M15.68,13.774a13.115,13.115,0,0,0-5.452-5.456"/><path class="cls-1" d="M7.879,8.319c-.579,3.734-2.963,6.65-6.537,9.365a1.511,1.511,0,0,0-.149,2.269l2.854,2.854a1.511,1.511,0,0,0,2.269-.15c2.715-3.573,5.631-5.958,9.364-6.536"/><path class="cls-1" d="M11.6,17.616a4.534,4.534,0,0,0,8.934-.66,4.5,4.5,0,0,0,1.387-.937,4.529,4.529,0,0,0-1.412-7.382,4.511,4.511,0,0,0-5.143-5.144,4.527,4.527,0,0,0-8.32-.024A4.538,4.538,0,0,0,6.384,12.4"/><path class="cls-1" d="M11.31,6.649a2.275,2.275,0,0,1-4.427.405"/><line class="cls-1" x1="10.124" y1="11.731" x2="12.231" y2="9.624"/><line class="cls-1" x1="12.269" y1="13.875" x2="14.374" y2="11.769"/><path class="cls-1" d="M17.351,12.69a2.275,2.275,0,0,0-.406,4.427"/></svg>