<svg id="Regular" xmlns="http://www.w3.org/2000/svg" viewBox="0 0 24 24"><defs><style>.cls-1{fill:none;stroke:currentColor;stroke-linecap:round;stroke-linejoin:round;stroke-width:1.5px;}</style></defs><title>vegetables-mushroom-soup</title><ellipse class="cls-1" cx="11.999" cy="5.25" rx="11.25" ry="4.5"/><path class="cls-1" d="M21.744,12a9.925,9.925,0,0,0,1.5-5.25V5.25"/><path class="cls-1" d="M.749,5.25v1.5A10.049,10.049,0,0,0,3.382,13.5"/><path class="cls-1" d="M20,8.412a1.872,1.872,0,0,0,.246-.912c0-2.071-3.693-3.75-8.25-3.75S3.749,5.429,3.749,7.5A1.873,1.873,0,0,0,4,8.412"/><line class="cls-1" x1="9.749" y1="6.75" x2="11.249" y2="6.75"/><line class="cls-1" x1="14.249" y1="6.75" x2="15.749" y2="6.75"/><path class="cls-1" d="M15.4,18.75A1.5,1.5,0,0,1,14.1,16.5a4.5,4.5,0,0,1,7.795,0,1.5,1.5,0,0,1-1.3,2.25Z"/><path class="cls-1" d="M20.249,21a2.25,2.25,0,0,1-4.5,0V18.75h4.5Z"/><path class="cls-1" d="M6.5,21.407a1.5,1.5,0,0,1-2.538-.558,4.5,4.5,0,0,1,5.251-5.761A1.5,1.5,0,0,1,10,17.564Z"/><path class="cls-1" d="M11.428,19.337A2.25,2.25,0,1,1,8.4,22.663L6.734,21.148l3.031-3.326Z"/></svg>