<svg id="Regular" xmlns="http://www.w3.org/2000/svg" viewBox="0 0 24 24"><defs><style>.cls-1{fill:none;stroke:currentColor;stroke-linecap:round;stroke-linejoin:round;stroke-width:1.5px;}</style></defs><title>vegetables-beet-1</title><path class="cls-1" d="M18.463,8.574a7.447,7.447,0,0,0,2.33-5.906.758.758,0,0,0-.738-.772l-1.333-.033a.756.756,0,0,0-.775.741c-.033,1.619-.158,2.7-1.438,3.9"/><path class="cls-1" d="M20.526,5.1a4.917,4.917,0,0,1,2.153.225.767.767,0,0,1,.549.915l-.321,1.3a.756.756,0,0,1-.92.551,3.735,3.735,0,0,0-3.521.495"/><path class="cls-1" d="M17.6,19.287c3.545-3.546,3.278-8.492-.268-12.037S8.843,3.437,5.3,6.982c-2.7,2.7-2.853,5.661-1.582,9.12a6.923,6.923,0,0,1,.512,4.255,6.9,6.9,0,0,1,4.255.512C11.942,22.141,14.9,21.99,17.6,19.287Z"/><path class="cls-1" d="M4.227,20.357,2.89,21.694a1.513,1.513,0,0,1-2.14,0"/></svg>