<svg id="Regular" xmlns="http://www.w3.org/2000/svg" viewBox="0 0 24 24"><defs><style>.cls-1{fill:none;stroke:currentColor;stroke-linecap:round;stroke-linejoin:round;stroke-width:1.5px;}</style></defs><title>vegetables-plate</title><circle class="cls-1" cx="11.999" cy="12" r="11.25"/><path class="cls-1" d="M14.735,16.851a2.4,2.4,0,0,1-4.134,2.4l-4.541-6.8a1.5,1.5,0,0,1,.494-2.13L8.98,8.914a1.5,1.5,0,0,1,2.095.625Z"/><line class="cls-1" x1="7.677" y1="14.875" x2="10.028" y2="13.509"/><line class="cls-1" x1="7.767" y1="9.619" x2="4.314" y2="8.155"/><line class="cls-1" x1="7.767" y1="9.619" x2="8.205" y2="5.894"/><path class="cls-1" d="M12.374,6.8a3,3,0,0,1,5.25,2.9Z"/><path class="cls-1" d="M16.418,9.036a3,3,0,0,0-2.169,1.512l5.25,2.9a3,3,0,0,0-1.643-4.287"/></svg>