<svg id="Regular" xmlns="http://www.w3.org/2000/svg" viewBox="0 0 24 24"><defs><style>.cls-1{fill:none;stroke:currentColor;stroke-linecap:round;stroke-linejoin:round;stroke-width:1.5px;}</style></defs><title>vegetables-corn</title><path class="cls-1" d="M13.769,16.428a13.347,13.347,0,0,0-2.422,6.822h.2a7.88,7.88,0,0,0,7.857-7.277h0a8.054,8.054,0,0,1,1.74-4.41l.416-.519a.415.415,0,0,0-.488-.641A16.3,16.3,0,0,0,13.769,16.428Z"/><path class="cls-1" d="M11.347,23.25h0a6.689,6.689,0,0,1-6.669-6.176l-.085-1.1a8.046,8.046,0,0,0-1.74-4.41l-.415-.519a.415.415,0,0,1,.488-.641,15.623,15.623,0,0,1,9.012,9.7"/><path class="cls-1" d="M7.274,13.081l.748-8.595A4.09,4.09,0,0,1,12.1.75h0a4.091,4.091,0,0,1,4.075,3.736l.734,8.444"/><line class="cls-1" x1="7.955" y1="5.25" x2="11.347" y2="5.25"/><line class="cls-1" x1="12.847" y1="8.25" x2="16.499" y2="8.25"/><line class="cls-1" x1="7.434" y1="11.25" x2="10.597" y2="11.25"/></svg>