<svg id="Regular" xmlns="http://www.w3.org/2000/svg" viewBox="0 0 24 24"><defs><style>.cls-1{fill:none;stroke:currentColor;stroke-linecap:round;stroke-linejoin:round;stroke-width:1.5px;}</style></defs><title>vegetables-bean-soup</title><path class="cls-1" d="M18.749,5.625a3.25,3.25,0,0,1-3,1.5,3.25,3.25,0,0,1-3-1.5c0-1.243,1.343-2.25,3-2.25S18.749,4.382,18.749,5.625Z"/><path class="cls-1" d="M12.749,5.625H10.5a2.25,2.25,0,0,0-2.25,2.25A3.75,3.75,0,0,0,12,11.625h4.5a2.25,2.25,0,0,0,2.25,2.25,2.25,2.25,0,0,0,4.5,0v-3.75a4.5,4.5,0,0,0-4.5-4.5"/><path class="cls-1" d="M8.249,7.875c-1.5,0-2.25.75-3,.75-1.5,0-4.5.75-4.5,3s2.25,3,4.5,3c4.5,0,4.5,1.5,9.75,1.5"/><path class="cls-1" d="M19.5,18.333A12.917,12.917,0,0,1,12,20.625c-6.213,0-11.25-4.029-11.25-9"/></svg>