<svg id="Regular" xmlns="http://www.w3.org/2000/svg" viewBox="0 0 24 24"><defs><style>.cls-1{fill:none;stroke:currentColor;stroke-linecap:round;stroke-linejoin:round;stroke-width:1.5px;}</style></defs><title>vegetables-pumpkin</title><path class="cls-1" d="M12.166,23.25h0a3.12,3.12,0,0,1-3.248-2.616L7.845,9.361C7.635,7.148,9.629,5.25,12.166,5.25h0c2.536,0,4.53,1.9,4.32,4.111L15.413,20.634A3.119,3.119,0,0,1,12.166,23.25Z"/><line class="cls-1" x1="12.166" y1="5.25" x2="12.166" y2="0.75"/><path class="cls-1" d="M8.41,7.149a3.382,3.382,0,0,0-1.592-.4h0A3.79,3.79,0,0,0,3.2,10.1,21.79,21.79,0,0,0,4.84,21.361a2.828,2.828,0,0,0,2.6,1.889h0A2.71,2.71,0,0,0,9.59,22.145"/><path class="cls-1" d="M15.839,7.029a3.363,3.363,0,0,1,1.343-.279h0A3.79,3.79,0,0,1,20.8,10.1,21.79,21.79,0,0,1,19.16,21.361a2.828,2.828,0,0,1-2.6,1.889h0a2.681,2.681,0,0,1-2-.92"/></svg>