<svg id="Regular" xmlns="http://www.w3.org/2000/svg" viewBox="0 0 24 24"><defs><style>.cls-1{fill:none;stroke:currentColor;stroke-linecap:round;stroke-linejoin:round;stroke-width:1.5px;}</style></defs><title>vegetables-carrot</title><path class="cls-1" d="M19.631,10.483a8.94,8.94,0,0,0-2.511-3.6,8.937,8.937,0,0,0-3.6-2.511A2.993,2.993,0,0,0,9.842,5.91S3.355,16.147.946,21.049a1.5,1.5,0,0,0,2,2c4.9-2.41,15.139-8.9,15.139-8.9A3,3,0,0,0,19.631,10.483Z"/><line class="cls-1" x1="17.12" y1="6.88" x2="20.322" y2="3.678"/><line class="cls-1" x1="18.541" y1="8.443" x2="23.213" y2="7.63"/><line class="cls-1" x1="15.556" y1="5.459" x2="16.37" y2="0.786"/><line class="cls-1" x1="9.836" y1="5.92" x2="13.427" y2="9.511"/><line class="cls-1" x1="4.208" y1="15.141" x2="7.064" y2="17.997"/><line class="cls-1" x1="10.776" y1="13.224" x2="14.157" y2="16.605"/></svg>