<svg id="Regular" xmlns="http://www.w3.org/2000/svg" viewBox="0 0 24 24"><defs><style>.cls-1{fill:none;stroke:currentColor;stroke-linecap:round;stroke-linejoin:round;stroke-width:1.5px;}</style></defs><title>vest-1</title><ellipse class="cls-1" cx="12" cy="2.25" rx="3.75" ry="1.5"/><path class="cls-1" d="M8.25,2.25v3c0,.828,1.679,1.5,3.75,1.5s3.75-.672,3.75-1.5v-3"/><line class="cls-1" x1="12" y1="3.75" x2="12" y2="23.25"/><line class="cls-1" x1="8.25" y1="17.25" x2="6.75" y2="18.75"/><path class="cls-1" d="M15.75,5.25l3.75,1.5v1.8a5.052,5.052,0,0,0,2.25,4.2l-1.5,9A24.756,24.756,0,0,1,12,23.25a24.756,24.756,0,0,1-8.25-1.5l-1.5-9a5.052,5.052,0,0,0,2.25-4.2V6.75l3.75-1.5"/><line class="cls-1" x1="15.75" y1="17.25" x2="17.25" y2="18.75"/></svg>