<svg id="Regular" xmlns="http://www.w3.org/2000/svg" viewBox="0 0 24 24"><defs><style>.cls-1{fill:none;stroke:currentColor;stroke-linecap:round;stroke-linejoin:round;stroke-width:1.5px;}</style></defs><title>vest-male</title><line class="cls-1" x1="8.25" y1="0.75" x2="15.75" y2="0.75"/><path class="cls-1" d="M15.75.75l4.5,1.5v4.5a3,3,0,0,0,2,2.829,1.5,1.5,0,0,1,1,1.415V19.44a1.5,1.5,0,0,1-.943,1.393l-5.774,2.31a1.5,1.5,0,0,1-1.457-.193L9.75,18.75v-9C15.75,7.5,15.75.75,15.75.75Z"/><path class="cls-1" d="M12,8.521C8.251,5.684,8.25.75,8.25.75l-4.5,1.5v4.5a3,3,0,0,1-2,2.829,1.5,1.5,0,0,0-1,1.415V19.44a1.5,1.5,0,0,0,.943,1.393l5.774,2.31a1.5,1.5,0,0,0,1.457-.193L12,20.525"/><line class="cls-1" x1="0.75" y1="15.75" x2="5.25" y2="15.75"/><line class="cls-1" x1="18.75" y1="15.75" x2="23.25" y2="15.75"/><path class="cls-1" d="M12.375,12.75a.375.375,0,1,1,.375.375.375.375,0,0,1-.375-.375"/><path class="cls-1" d="M12.375,16.5a.375.375,0,1,1,.375.375.375.375,0,0,1-.375-.375"/></svg>