<svg id="Regular" xmlns="http://www.w3.org/2000/svg" viewBox="0 0 24 24"><defs><style>.cls-1{fill:none;stroke:currentColor;stroke-linecap:round;stroke-linejoin:round;stroke-width:1.5px;}</style></defs><title>video-game-gamasutra-2</title><path class="cls-1" d="M18.2,22.59l-3.671-4.368a6.173,6.173,0,0,1-1.448-3.972,1.5,1.5,0,0,0-3,0,6.173,6.173,0,0,1-1.448,3.972L4.958,22.59a.375.375,0,0,0,.244.66h12.75a.376.376,0,0,0,.244-.66Z"/><line class="cls-1" x1="11.577" y1="8.25" x2="11.577" y2="9.75"/><line class="cls-1" x1="11.577" y1="3.75" x2="11.577" y2="5.25"/><path class="cls-1" d="M2.737,3.039a.75.75,0,0,0-.861,1.127L4.539,8.161a.75.75,0,0,0,1.248,0L8.451,4.166A.75.75,0,0,0,7.59,3.039L5.4,3.768a.743.743,0,0,1-.475,0Z"/><path class="cls-1" d="M16.237.789a.75.75,0,0,0-.861,1.127l2.663,3.995a.75.75,0,0,0,1.248,0l2.664-3.995A.75.75,0,0,0,21.09.789L18.9,1.518a.743.743,0,0,1-.475,0Z"/><line class="cls-1" x1="10.827" y1="20.25" x2="12.327" y2="20.25"/></svg>