<svg id="Regular" xmlns="http://www.w3.org/2000/svg" viewBox="0 0 24 24"><defs><style>.cls-1{fill:none;stroke:currentColor;stroke-linecap:round;stroke-linejoin:round;stroke-width:1.5px;}</style></defs><title>video-game-mario-3</title><line class="cls-1" x1="7.5" y1="12.75" x2="7.5" y2="13.5"/><line class="cls-1" x1="16.5" y1="12.75" x2="16.5" y2="13.5"/><path class="cls-1" d="M21,11.25c0-2-18-2-18,0V9.75c0-4,18-4,18,0Z"/><path class="cls-1" d="M16.505,1.665c3.545,1.471,6,4.419,6,6.585a6.674,6.674,0,0,1-1.084,3.808"/><path class="cls-1" d="M2.417,12.117A7.551,7.551,0,0,1,1.5,8.25c0-1.622,2.444-4.8,5.982-6.454"/><polyline class="cls-1" points="9.75 3.75 10.5 0.75 12 2.25 13.5 0.75 14.25 3.75"/><path class="cls-1" d="M12,18.62c.811.811,2.61.879,3.889.809.137-.007,1.253-.311.092-1.472-1.362-2.724-6.453-3.017-7.961,0-1.075,1.075-.18,1.457.092,1.472C9.391,19.5,11.19,19.431,12,18.62Z"/><path class="cls-1" d="M3,11.25V12a1.5,1.5,0,0,0,0,3c.013,0,.024-.007.038-.008a8.992,8.992,0,0,0,17.924,0c.014,0,.025.008.038.008a1.5,1.5,0,0,0,0-3v-.75"/></svg>