<svg id="Regular" xmlns="http://www.w3.org/2000/svg" viewBox="0 0 24 24"><defs><style>.cls-1{fill:none;stroke:currentColor;stroke-linecap:round;stroke-linejoin:round;stroke-width:1.5px;}</style></defs><title>video-game-controller-wifi</title><path class="cls-1" d="M18.75,14.25H5.25a4.5,4.5,0,1,0,3.332,7.5h6.836a4.493,4.493,0,1,0,3.332-7.5Z"/><line class="cls-1" x1="5.25" y1="17.25" x2="5.25" y2="20.25"/><line class="cls-1" x1="3.75" y1="18.75" x2="6.75" y2="18.75"/><path class="cls-1" d="M17.25,19.125a.375.375,0,0,1,.375.375"/><path class="cls-1" d="M16.875,19.5a.375.375,0,0,1,.375-.375"/><path class="cls-1" d="M17.25,19.875a.375.375,0,0,1-.375-.375"/><path class="cls-1" d="M17.625,19.5a.375.375,0,0,1-.375.375"/><path class="cls-1" d="M19.5,16.875a.375.375,0,0,1,.375.375"/><path class="cls-1" d="M19.125,17.25a.375.375,0,0,1,.375-.375"/><path class="cls-1" d="M19.5,17.625a.375.375,0,0,1-.375-.375"/><path class="cls-1" d="M19.875,17.25a.375.375,0,0,1-.375.375"/><path class="cls-1" d="M8.818,9.568a4.5,4.5,0,0,1,6.364,0"/><path class="cls-1" d="M6.166,6.916a8.252,8.252,0,0,1,11.668,0"/><path class="cls-1" d="M3.515,4.265a12,12,0,0,1,16.97,0"/></svg>