<svg id="Regular" xmlns="http://www.w3.org/2000/svg" viewBox="0 0 24 24"><defs><style>.cls-1{fill:none;stroke:currentColor;stroke-linecap:round;stroke-linejoin:round;stroke-width:1.5px;}</style></defs><title>video-game-controller-person</title><rect class="cls-1" x="8.25" y="14.25" width="15" height="9" rx="1.5" ry="1.5"/><line class="cls-1" x1="10.5" y1="18.75" x2="13.5" y2="18.75"/><line class="cls-1" x1="12" y1="17.25" x2="12" y2="20.25"/><path class="cls-1" d="M19.875,17.25a.375.375,0,0,1,.375.375"/><path class="cls-1" d="M19.5,17.625a.375.375,0,0,1,.375-.375"/><path class="cls-1" d="M19.875,18a.375.375,0,0,1-.375-.375"/><path class="cls-1" d="M20.25,17.625a.375.375,0,0,1-.375.375"/><path class="cls-1" d="M16.125,20.25a.375.375,0,0,1,.375.375"/><path class="cls-1" d="M15.75,20.625a.375.375,0,0,1,.375-.375"/><path class="cls-1" d="M16.125,21a.375.375,0,0,1-.375-.375"/><path class="cls-1" d="M16.5,20.625a.375.375,0,0,1-.375.375"/><path class="cls-1" d="M10.5,10.2a1.633,1.633,0,0,1,2.25,0"/><path class="cls-1" d="M6,10.2a1.633,1.633,0,0,0-2.25,0"/><path class="cls-1" d="M15.713,7.5C6.552,7.5,6,4.432,6,4.432,4.982,7.5,1.5,7.5,1.5,7.5H.787"/><path class="cls-1" d="M4.5,17A7.5,7.5,0,0,1,.75,10.5V8.25a7.5,7.5,0,0,1,15,0V10.5c0,.253-.013.5-.037.75"/></svg>