<svg id="Regular" xmlns="http://www.w3.org/2000/svg" viewBox="0 0 24 24"><defs><style>.cls-1{fill:none;stroke:currentColor;stroke-linecap:round;stroke-linejoin:round;stroke-width:1.5px;}</style></defs><title>video-game-logo-gears</title><path class="cls-1" d="M2.9,3.125a.473.473,0,0,1,.136-.784L6.331.8a.551.551,0,0,1,.494.013L9.986,2.5a.485.485,0,0,1,.264.425v19.83a.528.528,0,0,1-.858.378,16.6,16.6,0,0,1-4.261-4.548.928.928,0,0,1-.121-.458V5.3a.473.473,0,0,0-.154-.346Z"/><path class="cls-1" d="M20.6,3.126a.474.474,0,0,0-.136-.785L17.169.8a.554.554,0,0,0-.494.013L13.514,2.5a.485.485,0,0,0-.264.425v19.83a.528.528,0,0,0,.858.378,16.6,16.6,0,0,0,4.261-4.548.928.928,0,0,0,.121-.458V5.3a.473.473,0,0,1,.154-.346Z"/></svg>