<svg id="Regular" xmlns="http://www.w3.org/2000/svg" viewBox="0 0 24 24"><defs><style>.cls-1{fill:none;stroke:currentColor;stroke-linecap:round;stroke-linejoin:round;stroke-width:1.5px;}</style></defs><title>video-game-character</title><path class="cls-1" d="M5.878,8.25A8.74,8.74,0,0,1,6,6.75a6,6,0,0,1,12,0,8.74,8.74,0,0,1,.122,1.5"/><path class="cls-1" d="M17.618,11.673A10.473,10.473,0,0,1,12,18a10.473,10.473,0,0,1-5.618-6.327"/><path class="cls-1" d="M18.122,8.25,20.866,10.6a.75.75,0,0,1-.534,1.318A34.948,34.948,0,0,1,12,10.5a34.948,34.948,0,0,1-8.332,1.419A.75.75,0,0,1,3.134,10.6L5.878,8.25Z"/><path class="cls-1" d="M9.75,5.625A.375.375,0,0,1,10.125,6"/><path class="cls-1" d="M9.375,6a.375.375,0,0,1,.375-.375"/><path class="cls-1" d="M9.75,6.375A.375.375,0,0,1,9.375,6"/><path class="cls-1" d="M10.125,6a.375.375,0,0,1-.375.375"/><path class="cls-1" d="M14.25,5.625A.375.375,0,0,1,14.625,6"/><path class="cls-1" d="M13.875,6a.375.375,0,0,1,.375-.375"/><path class="cls-1" d="M14.25,6.375A.375.375,0,0,1,13.875,6"/><path class="cls-1" d="M14.625,6a.375.375,0,0,1-.375.375"/><path class="cls-1" d="M8.162,15H6.794a3,3,0,0,0-2.441,1.256L1.5,20.25"/><polyline class="cls-1" points="5.25 23.25 7.5 19.5 7.5 23.25"/><path class="cls-1" d="M15.838,15h1.368a3,3,0,0,1,2.441,1.256L22.5,20.25"/><polyline class="cls-1" points="18.75 23.25 16.5 19.5 16.5 23.25"/></svg>