<svg id="Regular" xmlns="http://www.w3.org/2000/svg" viewBox="0 0 24 24"><defs><style>.cls-1{fill:none;stroke:currentColor;stroke-linecap:round;stroke-linejoin:round;stroke-width:1.5px;}</style></defs><title>video-game-flower-enemy</title><path class="cls-1" d="M14.376,8.274a3,3,0,0,1-3.929,0L6.009,4.428A2.1,2.1,0,1,1,8.965,1.473L11.845,4.8a.749.749,0,0,0,1.134,0l2.879-3.322a2.1,2.1,0,1,1,2.956,2.955Z"/><path class="cls-1" d="M18.084,5.059l-1.479,5.917a4.323,4.323,0,0,1-8.387,0L6.739,5.059"/><line class="cls-1" x1="12.786" y1="14.25" x2="10.536" y2="23.25"/><path class="cls-1" d="M9.036,20.25H5.464a1.5,1.5,0,0,1-1.342-.829L2.829,16.835A.75.75,0,0,1,3.5,15.75H5.859a1.5,1.5,0,0,1,1.342.829Z"/><path class="cls-1" d="M21.244,16.835a.75.75,0,0,0-.671-1.085H18.214a1.5,1.5,0,0,0-1.342.829L15.036,20.25h3.573a1.5,1.5,0,0,0,1.342-.829Z"/></svg>