<svg id="Regular" xmlns="http://www.w3.org/2000/svg" viewBox="0 0 24 24"><defs><style>.cls-1{fill:none;stroke:currentColor;stroke-linecap:round;stroke-linejoin:round;stroke-width:1.5px;}</style></defs><title>video-game-mario-plant-maneater</title><path class="cls-1" d="M8.587,5.25a6.78,6.78,0,1,1,2.739,7.914"/><path class="cls-1" d="M12,8.25H8.25a1.5,1.5,0,0,1,0-3h4.628a2.636,2.636,0,0,1,1.864,4.5l-3.363,3.364a1.5,1.5,0,0,1-2.122-2.121Z"/><path class="cls-1" d="M18.6,13.213a3,3,0,0,1,3.1-4.874"/><path class="cls-1" d="M18.348,1.637a2.982,2.982,0,0,1-.7,1.09,3,3,0,0,1-5.064-1.533"/><path class="cls-1" d="M21.736,7.931a4.45,4.45,0,0,1-.286,6.919l-7.2,5.4"/><path class="cls-1" d="M4.5,23.25v-1.5A1.5,1.5,0,0,1,6,20.25H18a1.5,1.5,0,0,1,1.5,1.5v1.5"/><line class="cls-1" x1="14.25" y1="20.25" x2="9.75" y2="17.25"/><line class="cls-1" x1="18" y1="20.25" x2="22.5" y2="18.75"/><line class="cls-1" x1="0.75" y1="10.5" x2="3.75" y2="13.5"/><line class="cls-1" x1="3.75" y1="10.5" x2="0.75" y2="13.5"/></svg>