<svg id="Regular" xmlns="http://www.w3.org/2000/svg" viewBox="0 0 24 24"><defs><style>.cls-1{fill:none;stroke:currentColor;stroke-linecap:round;stroke-linejoin:round;stroke-width:1.5px;}</style></defs><title>video-game-pacman</title><path class="cls-1" d="M13.5,12l7.42,7.42a.751.751,0,0,1-.04,1.1A11.272,11.272,0,0,1,5.529,4.029a11.328,11.328,0,0,1,15.942,0l0,.008,0,.008Z"/><path class="cls-1" d="M10.5,7.125a.375.375,0,0,1,.375.375"/><path class="cls-1" d="M10.122,7.5a.375.375,0,0,1,.375-.375"/><path class="cls-1" d="M10.5,7.875a.375.375,0,0,1-.375-.375"/><path class="cls-1" d="M10.872,7.5a.375.375,0,0,1-.375.375"/></svg>