<svg id="Regular" xmlns="http://www.w3.org/2000/svg" viewBox="0 0 24 24"><defs><style>.cls-1{fill:none;stroke:currentColor;stroke-linecap:round;stroke-linejoin:round;stroke-width:1.5px;}</style></defs><title>video-game-mario</title><path class="cls-1" d="M17.439,6.83a3.745,3.745,0,0,0-1.662-2.976,3.239,3.239,0,0,1-1.623-2,.375.375,0,0,0-.687-.122,3.525,3.525,0,0,0,.087,3.663s-1.565-3.723-5.3-2.908c-2.22.485-3.4-.108-3.991-.67a.376.376,0,0,0-.633.255A7.582,7.582,0,0,0,4.909,7.031"/><line class="cls-1" x1="2.25" y1="13.5" x2="2.25" y2="16.5"/><line class="cls-1" x1="3.75" y1="15" x2="0.75" y2="15"/><line class="cls-1" x1="21.75" y1="0.75" x2="21.75" y2="3.75"/><line class="cls-1" x1="23.25" y1="2.25" x2="20.25" y2="2.25"/><rect class="cls-1" x="6.75" y="9.75" width="10.5" height="13.5"/><line class="cls-1" x1="5.25" y1="9.75" x2="18.75" y2="9.75"/><line class="cls-1" x1="5.25" y1="23.25" x2="18.75" y2="23.25"/><line class="cls-1" x1="6.75" y1="14.25" x2="17.25" y2="14.25"/><line class="cls-1" x1="6.75" y1="18.75" x2="17.25" y2="18.75"/></svg>