<svg id="Regular" xmlns="http://www.w3.org/2000/svg" viewBox="0 0 24 24"><defs><style>.cls-1{fill:none;stroke:currentColor;stroke-linecap:round;stroke-linejoin:round;stroke-width:1.5px;}</style></defs><title>video-game-boo</title><path class="cls-1" d="M13.417,5.25A2.409,2.409,0,0,1,10.876,7.5,2.639,2.639,0,0,1,8.758,6.494,2.639,2.639,0,0,1,6.64,7.5,2.42,2.42,0,0,1,4.1,5.316"/><line class="cls-1" x1="6.508" y1="7.5" x2="6.508" y2="9.75"/><line class="cls-1" x1="11.008" y1="7.5" x2="11.008" y2="9.75"/><line class="cls-1" x1="5.758" y1="12.75" x2="13.258" y2="12.75"/><path class="cls-1" d="M12.508,12.75l-1.252,3.13a4.5,4.5,0,0,0-.278,1.044A3,3,0,0,1,8.008,19.5a2.843,2.843,0,0,1-2.64-3.9l1.14-2.85"/><line class="cls-1" x1="9.508" y1="12.75" x2="8.008" y2="15.75"/><path class="cls-1" d="M2.876,14.319a10.146,10.146,0,0,1-2.1-3.776.749.749,0,0,1,1.055-.879l1.673.836V8.25a7.5,7.5,0,0,1,15,0v1.5l3.28-.547a.751.751,0,0,1,.817,1.026c-.536,1.294-1.707,4.087-4.1,5.521h4.5s-3.75,7.5-11.25,7.5a12.445,12.445,0,0,1-5.3-1.281"/></svg>