<svg id="Regular" xmlns="http://www.w3.org/2000/svg" viewBox="0 0 24 24"><defs><style>.cls-1{fill:none;stroke:currentColor;stroke-linecap:round;stroke-linejoin:round;stroke-width:1.5px;}</style></defs><title>video-game-bottle</title><polygon class="cls-1" points="12.25 18.429 8.5 20.357 8.5 12.643 12.25 14.571 12.25 18.429"/><polygon class="cls-1" points="16 20.357 12.25 18.429 12.25 14.571 16 12.643 16 20.357"/><polyline class="cls-1" points="8.5 12.643 12.25 9.75 16 12.643"/><polyline class="cls-1" points="8.5 20.357 12.25 23.25 16 20.357"/><path class="cls-1" d="M17.5,23.25H19a3.047,3.047,0,0,0,3-3c0-7.5-3.666-13.5-6.75-13.5h-6c-3.084,0-6.75,6-6.75,13.5a3.046,3.046,0,0,0,3,3H7"/><path class="cls-1" d="M9.25,6.75,7.76,2.777A1.5,1.5,0,0,1,9.164.75H12.25a1.5,1.5,0,0,1,1.5,1.5h1.388A1.5,1.5,0,0,1,16.5,4.388L15.385,6.75"/><line class="cls-1" x1="13.75" y1="3.75" x2="13.75" y2="2.25"/></svg>