<svg id="Regular" xmlns="http://www.w3.org/2000/svg" viewBox="0 0 24 24"><defs><style>.cls-1{fill:none;stroke:currentColor;stroke-linecap:round;stroke-linejoin:round;stroke-width:1.5px;}</style></defs><title>video-game-mario-flower</title><circle class="cls-1" cx="12" cy="12" r="8.25"/><circle class="cls-1" cx="7.875" cy="12" r="4.125"/><path class="cls-1" d="M7.875,11.625A.375.375,0,0,1,8.25,12"/><path class="cls-1" d="M7.5,12a.375.375,0,0,1,.375-.375"/><path class="cls-1" d="M7.875,12.375A.375.375,0,0,1,7.5,12"/><path class="cls-1" d="M8.25,12a.375.375,0,0,1-.375.375"/><circle class="cls-1" cx="16.125" cy="12" r="4.125"/><path class="cls-1" d="M16.125,11.625A.375.375,0,0,0,15.75,12"/><path class="cls-1" d="M16.5,12a.375.375,0,0,0-.375-.375"/><path class="cls-1" d="M16.125,12.375A.375.375,0,0,0,16.5,12"/><path class="cls-1" d="M15.75,12a.375.375,0,0,0,.375.375"/><line class="cls-1" x1="0.75" y1="12" x2="3.75" y2="12"/><line class="cls-1" x1="23.25" y1="12" x2="20.25" y2="12"/><line class="cls-1" x1="12" y1="1.5" x2="12" y2="3.75"/><line class="cls-1" x1="12" y1="22.5" x2="12" y2="20.25"/><path class="cls-1" d="M8.89,4.356,1.835.829A.75.75,0,0,0,.829,1.835L4.356,8.89"/><path class="cls-1" d="M15.11,4.356,22.165.829a.75.75,0,0,1,1.006,1.006L19.644,8.89"/><path class="cls-1" d="M8.89,19.644,1.835,23.171A.75.75,0,0,1,.829,22.165L4.356,15.11"/><path class="cls-1" d="M15.11,19.644l7.055,3.527a.75.75,0,0,0,1.006-1.006L19.644,15.11"/></svg>