<svg id="Regular" xmlns="http://www.w3.org/2000/svg" viewBox="0 0 24 24"><defs><style>.cls-1{fill:none;stroke:currentColor;stroke-linecap:round;stroke-linejoin:round;stroke-width:1.5px;}</style></defs><title>video-game-monitor</title><path class="cls-1" d="M16.125,9.75a.375.375,0,0,1,.375.375"/><path class="cls-1" d="M15.75,10.125a.375.375,0,0,1,.375-.375"/><path class="cls-1" d="M16.125,10.5a.375.375,0,0,1-.375-.375"/><path class="cls-1" d="M16.5,10.125a.375.375,0,0,1-.375.375"/><path class="cls-1" d="M19.875,9.75a.375.375,0,0,1,.375.375"/><path class="cls-1" d="M19.5,10.125a.375.375,0,0,1,.375-.375"/><path class="cls-1" d="M19.875,10.5a.375.375,0,0,1-.375-.375"/><path class="cls-1" d="M20.25,10.125a.375.375,0,0,1-.375.375"/><polygon class="cls-1" points="15 23.25 9 23.25 9.75 18.75 14.25 18.75 15 23.25"/><line class="cls-1" x1="6.75" y1="23.25" x2="17.25" y2="23.25"/><rect class="cls-1" x="0.75" y="0.75" width="22.5" height="18" rx="3" ry="3"/><path class="cls-1" d="M13.5,13.222a5.25,5.25,0,1,1,0-6.944L8.906,9.75Z"/></svg>