<svg id="Regular" xmlns="http://www.w3.org/2000/svg" viewBox="0 0 24 24"><defs><style>.cls-1{fill:none;stroke:currentColor;stroke-linecap:round;stroke-linejoin:round;stroke-width:1.5px;}</style></defs><title>video-game-logo-deep-silver</title><circle class="cls-1" cx="12" cy="12" r="11.25"/><path class="cls-1" d="M19.138,15.979c-.414-5.762-8.02-2.267-4.253,1.475a.435.435,0,0,1,0,.546c-2.249,2.55-7.744,1.067-9.631-1.634,5.931,2.2,7-4.47,2.261-5.525a.439.439,0,0,1-.468-.272c-.309-.892-.576-6.466,4.67-6.819-3.7,3.938.608,7.784,3.473,4.858a.438.438,0,0,1,.468-.268A5.162,5.162,0,0,1,19.138,15.979Z"/></svg>