<svg id="Regular" xmlns="http://www.w3.org/2000/svg" viewBox="0 0 24 24"><defs><style>.cls-1{fill:none;stroke:currentColor;stroke-linecap:round;stroke-linejoin:round;stroke-width:1.5px;}</style></defs><title>video-game-mario-mushroom</title><path class="cls-1" d="M12,.75a5.958,5.958,0,0,1,5.25,3c1.5,2.25,5.25,1.5,5.25,4.5a3,3,0,0,1-3,3H4.5a3,3,0,0,1-3-3c0-3,3.75-2.25,5.25-4.5,0,0,2.25-3,5.25-3"/><path class="cls-1" d="M7.5,11.25s0,11.25-3.75,12"/><path class="cls-1" d="M16.5,11.25s0,11.25,3.75,12"/><line class="cls-1" x1="1.5" y1="23.25" x2="22.5" y2="23.25"/><line class="cls-1" x1="10.5" y1="14.25" x2="10.5" y2="15.75"/><line class="cls-1" x1="13.5" y1="14.25" x2="13.5" y2="15.75"/><path class="cls-1" d="M13.591,19.591a2.249,2.249,0,0,1-3.182,0"/><path class="cls-1" d="M10.115,1.134a3.75,3.75,0,1,1-6,4.365"/><path class="cls-1" d="M15.75,11.25a3,3,0,0,1,5.87-.877"/></svg>