<svg id="Regular" xmlns="http://www.w3.org/2000/svg" viewBox="0 0 24 24"><defs><style>.cls-1{fill:none;stroke:#000;stroke-linecap:round;stroke-linejoin:round;stroke-width:1.5px;}</style></defs><title>video-meeting-skype</title><path class="cls-1" d="M1.49,12A10.49,10.49,0,0,0,13.76,22.4a.53.53,0,0,1,.35.06,6.08,6.08,0,0,0,3,.79A6.16,6.16,0,0,0,22.42,14a.54.54,0,0,1-.07-.35A10.65,10.65,0,0,0,22.48,12,10.49,10.49,0,0,0,10.24,1.61a.53.53,0,0,1-.35-.06,6.07,6.07,0,0,0-3-.8A6.16,6.16,0,0,0,1.56,10a.54.54,0,0,1,.06.35A10.57,10.57,0,0,0,1.49,12ZM12.1,5c3.17.19,5,1.59,5.21,2.9A1.34,1.34,0,0,1,15.85,9.4c-1.43,0-1.58-1.92-4.05-1.92-1.11,0-2.06.47-2.06,1.47,0,2.11,7.92.88,7.92,5.53,0,2.68-2.13,4.43-5.32,4.43-2.8,0-5.62-1.28-5.6-3.47a1.23,1.23,0,0,1,1.15-1.27c1.65,0,1.63,2.46,4.26,2.46,1.84,0,2.47-1,2.47-1.71,0-2.54-8-1-8-5.76C6.66,6.57,8.78,4.79,12.1,5Z"/></svg>