<svg id="Regular" xmlns="http://www.w3.org/2000/svg" viewBox="0 0 24 24"><defs><style>.cls-1{fill:none;stroke:currentColor;stroke-linecap:round;stroke-linejoin:round;stroke-width:1.5px;}</style></defs><title>video-game-mario-2</title><line class="cls-1" x1="7.5" y1="12.75" x2="7.5" y2="14.25"/><line class="cls-1" x1="16.5" y1="12.75" x2="16.5" y2="14.25"/><path class="cls-1" d="M21,11.25c0-2-18-2-18,0V9.75c0-4,18-4,18,0Z"/><path class="cls-1" d="M17.253,2.005C20.39,3.557,22.5,6.24,22.5,8.25A6.694,6.694,0,0,1,21.454,12"/><path class="cls-1" d="M2.351,12A7.636,7.636,0,0,1,1.5,8.25c0-1.5,2.1-4.353,5.233-6.074"/><polyline class="cls-1" points="14.25 0.75 13.5 3.75 12 2.25 10.5 3.75 9.75 0.75"/><path class="cls-1" d="M20.962,14.992c.014,0,.025.008.038.008l2.25-3H21v-.75"/><path class="cls-1" d="M5.3,20.252a8.989,8.989,0,0,0,13.405,0"/><path class="cls-1" d="M3,11.25V12H.75L3,15c.013,0,.024-.007.038-.008"/><path class="cls-1" d="M14.114,16.523a2.251,2.251,0,0,1-4.238-.029"/><polyline class="cls-1" points="1.5 18 3 18.75 5.25 16.5 8.25 18 10.02 16.82"/><polyline class="cls-1" points="22.5 18 21 18.75 18.75 16.5 15.75 18 13.98 16.82"/><line class="cls-1" x1="13.897" y1="13.618" x2="18.75" y2="12"/><line class="cls-1" x1="5.25" y1="12" x2="10.103" y2="13.618"/></svg>