<svg id="Regular" xmlns="http://www.w3.org/2000/svg" viewBox="0 0 24 24"><defs><style>.cls-1{fill:none;stroke:currentColor;stroke-linecap:round;stroke-linejoin:round;stroke-width:1.5px;}</style></defs><title>video-game-mario-1</title><line class="cls-1" x1="9" y1="11.25" x2="9" y2="13.049"/><line class="cls-1" x1="15" y1="11.25" x2="15" y2="13.049"/><ellipse class="cls-1" cx="12" cy="18" rx="9" ry="5.25"/><path class="cls-1" d="M18.687,14.488C23.993,8.323,14.434,1.912,10.164.75c0,0,1.756,1.423-1.643,3.6-5.031,2.035-6.1,6.9-3.2,10.131"/><path class="cls-1" d="M3.188,16.926a16.371,16.371,0,0,0,17.624,0"/><line class="cls-1" x1="12" y1="19.503" x2="12" y2="23.249"/><line class="cls-1" x1="16.5" y1="18.829" x2="16.5" y2="22.548"/><line class="cls-1" x1="7.5" y1="18.829" x2="7.5" y2="22.548"/><path class="cls-1" d="M3.914,15.692a3,3,0,0,1-.141-5.853"/><path class="cls-1" d="M20.183,9.828a3,3,0,0,1-.1,5.864"/><polyline class="cls-1" points="10.5 15.75 12 16.5 13.5 15.75"/><path class="cls-1" d="M19.542,7.918A4.045,4.045,0,0,0,16.5,6.75c-3,0-2.25,3-4.5,3s-1.5-3-4.5-3A3.968,3.968,0,0,0,4.244,8.16"/></svg>