<svg id="Regular" xmlns="http://www.w3.org/2000/svg" viewBox="0 0 24 24"><defs><style>.cls-1{fill:none;stroke:currentColor;stroke-linecap:round;stroke-linejoin:round;stroke-width:1.5px;}</style></defs><title>video-game-wii</title><rect class="cls-1" x="0.75" y="9" width="22.5" height="14.25" rx="0.75" ry="0.75"/><rect class="cls-1" x="6.75" y="0.75" width="10.5" height="5.25" rx="1" ry="1"/><path class="cls-1" d="M13.875,3a.375.375,0,0,1,.375.375"/><path class="cls-1" d="M13.5,3.375A.375.375,0,0,1,13.875,3"/><path class="cls-1" d="M13.875,3.75a.375.375,0,0,1-.375-.375"/><path class="cls-1" d="M14.25,3.375a.375.375,0,0,1-.375.375"/><line class="cls-1" x1="12" y1="6" x2="12" y2="9"/><circle class="cls-1" cx="12" cy="13.5" r="1.5"/><line class="cls-1" x1="9" y1="15.75" x2="15" y2="15.75"/><line class="cls-1" x1="12" y1="18" x2="12" y2="15.75"/><polyline class="cls-1" points="9.75 20.25 12 18 14.25 20.25"/></svg>