<svg id="Regular" xmlns="http://www.w3.org/2000/svg" viewBox="0 0 24 24"><defs><style>.cls-1{fill:none;stroke:currentColor;stroke-linecap:round;stroke-linejoin:round;stroke-width:1.5px;}</style></defs><title>video-game-disk-controller</title><rect class="cls-1" x="8.25" y="14.25" width="15" height="9" rx="1.5" ry="1.5"/><line class="cls-1" x1="10.5" y1="18.75" x2="13.5" y2="18.75"/><line class="cls-1" x1="12" y1="17.25" x2="12" y2="20.25"/><path class="cls-1" d="M19.875,17.25a.375.375,0,0,1,.375.375"/><path class="cls-1" d="M19.5,17.625a.375.375,0,0,1,.375-.375"/><path class="cls-1" d="M19.875,18a.375.375,0,0,1-.375-.375"/><path class="cls-1" d="M20.25,17.625a.375.375,0,0,1-.375.375"/><path class="cls-1" d="M18.375,19.5a.375.375,0,0,1,.375.375"/><path class="cls-1" d="M18,19.875a.375.375,0,0,1,.375-.375"/><path class="cls-1" d="M18.375,20.25A.375.375,0,0,1,18,19.875"/><path class="cls-1" d="M18.75,19.875a.375.375,0,0,1-.375.375"/><path class="cls-1" d="M5.25,19.3A10.125,10.125,0,1,1,21,10.875c0,.126,0,.251-.007.375"/><path class="cls-1" d="M8.277,11.25a2.576,2.576,0,0,1-.027-.375,2.625,2.625,0,0,1,5.25,0,2.576,2.576,0,0,1-.027.375"/></svg>