<svg id="Regular" xmlns="http://www.w3.org/2000/svg" viewBox="0 0 24 24"><defs><style>.cls-1{fill:none;stroke:currentColor;stroke-linecap:round;stroke-linejoin:round;stroke-width:1.5px;}</style></defs><title>video-game-angry-birds</title><path class="cls-1" d="M21.75,13.5a9.75,9.75,0,0,1-19.5,0C2.25,8.115,6.615,2.25,12,2.25S21.75,8.115,21.75,13.5Z"/><polyline class="cls-1" points="2.25 4.5 12 9.75 21.75 4.5"/><path class="cls-1" d="M14.625,9.75a.375.375,0,0,1,.375.375"/><path class="cls-1" d="M14.25,10.125a.375.375,0,0,1,.375-.375"/><path class="cls-1" d="M14.625,10.5a.375.375,0,0,1-.375-.375"/><path class="cls-1" d="M15,10.125a.375.375,0,0,1-.375.375"/><path class="cls-1" d="M9.375,9.75A.375.375,0,0,0,9,10.125"/><path class="cls-1" d="M9.75,10.125a.375.375,0,0,0-.375-.375"/><path class="cls-1" d="M9.375,10.5a.375.375,0,0,0,.375-.375"/><path class="cls-1" d="M9,10.125a.375.375,0,0,0,.375.375"/><path class="cls-1" d="M13.114,15.446a3,3,0,0,0-2.228,0L8.25,16.5l2.689,2.689a1.5,1.5,0,0,0,2.122,0L15.75,16.5Z"/><polyline class="cls-1" points="12 0.75 12 2.25 8.25 0.75"/><path class="cls-1" d="M8.086,7.642A3,3,0,1,0,12,10.5V9.75"/><path class="cls-1" d="M15.914,7.642A3,3,0,1,1,12,10.5V9.75"/></svg>