<svg id="Regular" xmlns="http://www.w3.org/2000/svg" viewBox="0 0 24 24"><defs><style>.cls-1{fill:none;stroke:currentColor;stroke-linecap:round;stroke-linejoin:round;stroke-width:1.5px;}</style></defs><title>video-game-mario-tree</title><path class="cls-1" d="M18.75,7.849v12.4a3,3,0,0,0,3,3h1.5"/><path class="cls-1" d="M.75,23.25h4.5a3,3,0,0,0,3-3v-12"/><line class="cls-1" x1="5.25" y1="14.25" x2="11.25" y2="14.25"/><line class="cls-1" x1="11.25" y1="9.75" x2="11.25" y2="11.25"/><line class="cls-1" x1="14.25" y1="9.75" x2="14.25" y2="11.25"/><path class="cls-1" d="M17.25,5.25a3,3,0,0,1-6,0"/><path class="cls-1" d="M11.25,5.25a3,3,0,0,1-3,3H6.75"/><path class="cls-1" d="M17.25,5.25a3,3,0,0,0,3,3h1.5"/><path class="cls-1" d="M14.25,18.75a1.5,1.5,0,0,1-3,0v-1.5h3Z"/><line class="cls-1" x1="2.25" y1="0.75" x2="2.25" y2="2.25"/><line class="cls-1" x1="5.25" y1="3" x2="5.25" y2="4.5"/><line class="cls-1" x1="9.75" y1="0.75" x2="9.75" y2="2.25"/><line class="cls-1" x1="20.25" y1="3" x2="20.25" y2="4.5"/><line class="cls-1" x1="23.25" y1="0.75" x2="23.25" y2="2.25"/><path class="cls-1" d="M.75,5.25a4.5,4.5,0,0,0,4.5,4.5,1.5,1.5,0,0,0,1.5,1.5h1.5"/><path class="cls-1" d="M18.75,11.25h3a1.5,1.5,0,0,0,1.5-1.5"/></svg>