<svg id="Regular" xmlns="http://www.w3.org/2000/svg" viewBox="0 0 24 24"><defs><style>.cls-1{fill:none;stroke:currentColor;stroke-linecap:round;stroke-linejoin:round;stroke-width:1.5px;}</style></defs><title>video-game-pacman-enemy</title><ellipse class="cls-1" cx="7.5" cy="12" rx="2.25" ry="3.75"/><ellipse class="cls-1" cx="15" cy="12" rx="2.25" ry="3.75"/><path class="cls-1" d="M6.75,11.625A.375.375,0,0,1,7.125,12"/><path class="cls-1" d="M6.375,12a.375.375,0,0,1,.375-.375"/><path class="cls-1" d="M6.75,12.375A.375.375,0,0,1,6.375,12"/><path class="cls-1" d="M7.125,12a.375.375,0,0,1-.375.375"/><path class="cls-1" d="M14.25,11.625a.375.375,0,0,1,.375.375"/><path class="cls-1" d="M13.875,12a.375.375,0,0,1,.375-.375"/><path class="cls-1" d="M14.25,12.375A.375.375,0,0,1,13.875,12"/><path class="cls-1" d="M14.625,12a.375.375,0,0,1-.375.375"/><path class="cls-1" d="M2.25,10.5a9.75,9.75,0,0,1,19.5,0v9c0,2.071-1.343,3.75-3,3.75s-3-1.679-3-3.75a3.75,3.75,0,0,1-7.5,0c0,2.071-1.343,3.75-3,3.75s-3-1.679-3-3.75Z"/></svg>