<svg id="Regular" xmlns="http://www.w3.org/2000/svg" viewBox="0 0 24 24"><defs><style>.cls-1{fill:none;stroke:currentColor;stroke-linecap:round;stroke-linejoin:round;stroke-width:1.5px;}</style></defs><title>video-game-frog</title><path class="cls-1" d="M21.105,7.168a3.7,3.7,0,0,1,2.136,3.591,3.157,3.157,0,0,1-3.2,2.848H3.957a3.159,3.159,0,0,1-3.2-2.848A3.688,3.688,0,0,1,2.838,7.2"/><path class="cls-1" d="M20.036,3.964C20.036,2.189,19.4.75,17.625.75,15.214.75,13.607,4.768,12,4.768S8.786.75,6.375.75C4.6.75,3.964,2.189,3.964,3.964"/><line class="cls-1" x1="8.786" y1="7.179" x2="8.786" y2="8.786"/><line class="cls-1" x1="15.214" y1="7.179" x2="15.214" y2="8.786"/><path class="cls-1" d="M9.107,13.607c-2.732,3.214-2.732,4.822-.787,7.133"/><path class="cls-1" d="M14.893,13.607c2.732,3.214,2.732,4.822.787,7.133"/><path class="cls-1" d="M3.161,23.25a3.214,3.214,0,0,1,3.214-3.214c2.411,0,4.018,3.214,4.018,3.214Z"/><path class="cls-1" d="M20.839,23.25a3.214,3.214,0,0,0-3.214-3.214c-2.411,0-4.018,3.214-4.018,3.214Z"/><path class="cls-1" d="M15.567,1.69a7.238,7.238,0,0,0-7.134,0"/></svg>