<svg xmlns="http://www.w3.org/2000/svg" viewBox="0 0 24 24"><defs><style>.a{fill:none;stroke:currentColor;stroke-linecap:round;stroke-linejoin:round;stroke-width:1.5px;}</style></defs><title>video-game-logo-smash-bros</title><path class="a" d="M5.977,2.567a.531.531,0,0,1,.511-.019.462.462,0,0,1,.262.409V15.284a.484.484,0,0,1-.5.466H2a.5.5,0,0,1-.466-.3,10.163,10.163,0,0,1-.781-3.9A10.543,10.543,0,0,1,5.977,2.567Z"/><path class="a" d="M11.022,18.75h9.265a.452.452,0,0,1,.377.744A11.605,11.605,0,0,1,12,23.25c-.348,0-.691-.013-1.03-.043a.466.466,0,0,1-.437-.453V19.2A.47.47,0,0,1,11.022,18.75Z"/><path class="a" d="M10.533,15.281a.479.479,0,0,0,.489.469h11a.491.491,0,0,0,.456-.3,10.363,10.363,0,0,0,.768-3.921A11.023,11.023,0,0,0,12,.75c-.347,0-.69.02-1.028.053a.476.476,0,0,0-.439.466Z"/><path class="a" d="M5.863,21.44a.548.548,0,0,0,.5.018.424.424,0,0,0,.257-.377v-1.9a.462.462,0,0,0-.49-.428H3.7A.5.5,0,0,0,3.257,19a.386.386,0,0,0,.065.455A10.953,10.953,0,0,0,5.863,21.44Z"/></svg>