<svg xmlns="http://www.w3.org/2000/svg" viewBox="0 0 24 24"><defs><style>.a{fill:none;stroke:currentColor;stroke-linecap:round;stroke-linejoin:round;stroke-width:1.5px;}</style></defs><title>video-game-logo-companion-cube</title><path class="a" d="M12,17s4.4-3.2,4.4-5.569c0-2.736-3.6-3.6-4.4-.275-.8-3.325-4.4-2.461-4.4.275C7.6,13.8,12,17,12,17Z"/><path class="a" d="M6.75.75a1,1,0,0,1,1,1V6.27A6.5,6.5,0,0,0,6.27,7.75H1.75a1,1,0,0,1-1-1v-5a1,1,0,0,1,1-1Z"/><path class="a" d="M22.25.75a1,1,0,0,1,1,1v5a1,1,0,0,1-1,1H17.73a6.5,6.5,0,0,0-1.48-1.48V1.75a1,1,0,0,1,1-1Z"/><path class="a" d="M7.75,17.73v4.52a1,1,0,0,1-1,1h-5a1,1,0,0,1-1-1v-5a1,1,0,0,1,1-1H6.27A6.5,6.5,0,0,0,7.75,17.73Z"/><path class="a" d="M22.25,16.25a1,1,0,0,1,1,1v5a1,1,0,0,1-1,1h-5a1,1,0,0,1-1-1V17.73a6.5,6.5,0,0,0,1.48-1.48Z"/><line class="a" x1="2.75" y1="7.75" x2="2.75" y2="16.25"/><line class="a" x1="7.75" y1="2.75" x2="16.25" y2="2.75"/><line class="a" x1="21.25" y1="7.75" x2="21.25" y2="16.25"/><line class="a" x1="7.75" y1="21.25" x2="16.25" y2="21.25"/></svg>