<svg id="Regular" xmlns="http://www.w3.org/2000/svg" viewBox="0 0 24 24"><defs><style>.cls-1{fill:none;stroke:currentColor;stroke-linecap:round;stroke-linejoin:round;stroke-width:1.5px;}</style></defs><title>video-game-mario-mushroom-1</title><path class="cls-1" d="M6.75,19.471c-3.568-.725-6-2.526-6-6.534C.75,7.168,5.787.75,12,.75S23.25,7.168,23.25,12.937c0,4.008-2.432,5.809-6,6.534"/><circle class="cls-1" cx="12" cy="9" r="3.75"/><path class="cls-1" d="M4.5,13.807a8.137,8.137,0,0,1-1.144,4.37A5.736,5.736,0,0,1,.75,12.937,11.835,11.835,0,0,1,1.894,8.01C3.412,8.794,4.5,11.091,4.5,13.807Z"/><path class="cls-1" d="M23.25,12.937a5.736,5.736,0,0,1-2.606,5.24,8.137,8.137,0,0,1-1.144-4.37c0-2.716,1.088-5.013,2.606-5.8A11.835,11.835,0,0,1,23.25,12.937Z"/><path class="cls-1" d="M15.788,16.521l-.911-.131a20.389,20.389,0,0,0-5.754,0l-.911.131A1.588,1.588,0,0,0,6.75,18v2.25a3.279,3.279,0,0,0,3.5,3h3.5a3.279,3.279,0,0,0,3.5-3V18A1.588,1.588,0,0,0,15.788,16.521Z"/><line class="cls-1" x1="9.75" y1="18.75" x2="9.75" y2="19.5"/><line class="cls-1" x1="14.25" y1="18.75" x2="14.25" y2="19.5"/></svg>