<svg id="Regular" xmlns="http://www.w3.org/2000/svg" viewBox="0 0 24 24"><defs><style>.cls-1{fill:none;stroke:currentColor;stroke-linecap:round;stroke-linejoin:round;stroke-width:1.5px;}</style></defs><title>video-game-controller</title><path class="cls-1" d="M6,4.25H7.5A4.5,4.5,0,0,1,12,8.75v1.5"/><path class="cls-1" d="M18.75,10.25H5.25a4.5,4.5,0,1,0,3.332,7.5h6.836a4.493,4.493,0,1,0,3.332-7.5Z"/><line class="cls-1" x1="5.25" y1="13.25" x2="5.25" y2="16.25"/><line class="cls-1" x1="3.75" y1="14.75" x2="6.75" y2="14.75"/><path class="cls-1" d="M17.25,15.125a.375.375,0,0,1,.375.375"/><path class="cls-1" d="M16.875,15.5a.375.375,0,0,1,.375-.375"/><path class="cls-1" d="M17.25,15.875a.375.375,0,0,1-.375-.375"/><path class="cls-1" d="M17.625,15.5a.375.375,0,0,1-.375.375"/><path class="cls-1" d="M19.5,12.875a.375.375,0,0,1,.375.375"/><path class="cls-1" d="M19.125,13.25a.375.375,0,0,1,.375-.375"/><path class="cls-1" d="M19.5,13.625a.375.375,0,0,1-.375-.375"/><path class="cls-1" d="M19.875,13.25a.375.375,0,0,1-.375.375"/></svg>