<svg xmlns="http://www.w3.org/2000/svg" viewBox="0 0 24 24"><defs><style>.a{fill:none;stroke:currentColor;stroke-linecap:round;stroke-linejoin:round;stroke-width:1.5px;}</style></defs><title>video-game-logo-streamplay</title><path class="a" d="M21,5a11.254,11.254,0,0,1,0,13.5"/><path class="a" d="M18.916,7.251a8.257,8.257,0,0,1,0,9"/><path class="a" d="M3,5A11.254,11.254,0,0,0,3,18.5"/><path class="a" d="M5.084,7.251a8.257,8.257,0,0,0,0,9"/><path class="a" d="M10.886,7.932a.75.75,0,0,0-1.136.643v6.351a.749.749,0,0,0,1.136.643l5.25-3.175a.75.75,0,0,0,0-1.286Z"/></svg>