<svg id="Regular" xmlns="http://www.w3.org/2000/svg" viewBox="0 0 24 24"><defs><style>.cls-1{fill:none;stroke:currentColor;stroke-linecap:round;stroke-linejoin:round;stroke-width:1.5px;}</style></defs><title>video-game-mario-character</title><path class="cls-1" d="M20.25,17.25a6,6,0,0,1-6,6H6.75a6,6,0,0,1-6-6v-3.7c0-5.411,3.589-9.8,9-9.8v6c0-4.142,3.358-6,7.5-6V12a3,3,0,0,1,3-3Z"/><path class="cls-1" d="M20.25,3.75a3,3,0,0,1,3-3"/><path class="cls-1" d="M12.729,1.789A3,3,0,0,1,15,.75"/><path class="cls-1" d="M9.75,17.25a3,3,0,0,1-6,0Z"/><line class="cls-1" x1="3.75" y1="12.75" x2="3.75" y2="14.25"/><line class="cls-1" x1="9.75" y1="12.75" x2="9.75" y2="14.25"/></svg>