<svg id="Regular" xmlns="http://www.w3.org/2000/svg" viewBox="0 0 24 24"><defs><style>.cls-1{fill:none;stroke:currentColor;stroke-linecap:round;stroke-linejoin:round;stroke-width:1.5px;}</style></defs><title>video-game-wii-rating</title><line class="cls-1" x1="5.25" y1="17.25" x2="5.25" y2="20.25"/><line class="cls-1" x1="3.75" y1="18.75" x2="6.75" y2="18.75"/><path class="cls-1" d="M17.25,19.5a.375.375,0,0,1,.375.375"/><path class="cls-1" d="M16.875,19.875a.375.375,0,0,1,.375-.375"/><path class="cls-1" d="M17.25,20.25a.375.375,0,0,1-.375-.375"/><path class="cls-1" d="M17.625,19.875a.375.375,0,0,1-.375.375"/><path class="cls-1" d="M19.5,17.25a.375.375,0,0,1,.375.375"/><path class="cls-1" d="M19.125,17.625a.375.375,0,0,1,.375-.375"/><path class="cls-1" d="M19.5,18a.375.375,0,0,1-.375-.375"/><path class="cls-1" d="M19.875,17.625A.375.375,0,0,1,19.5,18"/><rect class="cls-1" x="0.75" y="14.25" width="22.5" height="9" rx="1" ry="1"/><path class="cls-1" d="M19.5,3l1.033,2.033h2.127a.583.583,0,0,1,.419,1L21.122,7.952,22.2,10.437a.589.589,0,0,1-.839.736L18.75,9.7"/><path class="cls-1" d="M4.5,3,3.471,5.033H1.344a.583.583,0,0,0-.419,1L2.878,7.952,1.8,10.437a.589.589,0,0,0,.839.736L5.25,9.7"/><path class="cls-1" d="M12.53,1.075l1.249,2.458h2.127a.583.583,0,0,1,.419,1L14.372,6.452l1.082,2.485a.589.589,0,0,1-.839.736L12,8.2,9.385,9.673a.589.589,0,0,1-.839-.736L9.628,6.452,7.675,4.53a.583.583,0,0,1,.419-1h2.127L11.47,1.075A.6.6,0,0,1,12.53,1.075Z"/></svg>