<svg id="Regular" xmlns="http://www.w3.org/2000/svg" viewBox="0 0 24 24"><defs><style>.cls-1{fill:none;stroke:currentColor;stroke-linecap:round;stroke-linejoin:round;stroke-width:1.5px;}</style></defs><title>video-game-cat</title><path class="cls-1" d="M21.75,11.961a7.908,7.908,0,0,1,1.5,4.569c0,5.012-5.037,5.775-11.25,5.775S.75,21.542.75,16.53a7.908,7.908,0,0,1,1.5-4.569"/><path class="cls-1" d="M9.178,7.6A13.416,13.416,0,0,1,12,7.305a12.932,12.932,0,0,1,6,1.44"/><line class="cls-1" x1="12.75" y1="13.305" x2="12.75" y2="14.805"/><line class="cls-1" x1="17.25" y1="13.305" x2="17.25" y2="14.805"/><path class="cls-1" d="M17.25,19.305a1.5,1.5,0,0,1-3,0v-1.5h3Z"/><line class="cls-1" x1="8.25" y1="16.305" x2="9.75" y2="16.305"/><line class="cls-1" x1="20.25" y1="16.305" x2="21.75" y2="16.305"/><path class="cls-1" d="M2.25,11.961V3a.75.75,0,0,1,1.255-.555L9.178,7.6"/><path class="cls-1" d="M21.75,11.961l.568-8.323a.75.75,0,0,0-1.166-.624L14.621,7.561"/></svg>