<svg xmlns="http://www.w3.org/2000/svg" viewBox="0 0 24 24"><defs><style>.a{fill:none;stroke:currentColor;stroke-linecap:round;stroke-linejoin:round;stroke-width:1.5px;}</style></defs><title>video-projector</title><path class="a" d="M11.506,14.25H3.75a3,3,0,0,0-3,3v4.5a1.5,1.5,0,0,0,1.5,1.5h19.5a1.5,1.5,0,0,0,1.5-1.5v-4.5a3,3,0,0,0-3-3h-.256"/><circle class="a" cx="15.75" cy="15.75" r="4.5"/><line class="a" x1="3.75" y1="18" x2="3.75" y2="19.5"/><line class="a" x1="6.75" y1="18" x2="6.75" y2="19.5"/><path class="a" d="M15.75,14.25a1.5,1.5,0,1,0,1.5,1.5,1.5,1.5,0,0,0-1.5-1.5Z"/><path class="a" d="M9,7.4a.856.856,0,0,0,1.239.765l5.788-2.894a.856.856,0,0,0,0-1.531L10.239.841A.856.856,0,0,0,9,1.606Z"/><path class="a" d="M23.065.759a.25.25,0,1,1-.307.177.25.25,0,0,1,.307-.177"/><path class="a" d="M22.1,4.819A.25.25,0,1,1,21.79,5a.251.251,0,0,1,.306-.177"/><path class="a" d="M20.735,9.452a.25.25,0,1,1-.306.177.25.25,0,0,1,.306-.177"/><path class="a" d="M.935.759a.25.25,0,1,0,.307.177A.25.25,0,0,0,.935.759"/><path class="a" d="M1.9,4.819A.25.25,0,1,0,2.21,5,.251.251,0,0,0,1.9,4.819"/><path class="a" d="M3.265,9.452a.25.25,0,1,0,.306.177.25.25,0,0,0-.306-.177"/></svg>