<svg id="Regular" xmlns="http://www.w3.org/2000/svg" viewBox="0 0 24 24"><defs><style>.cls-1{fill:none;stroke:currentColor;stroke-linecap:round;stroke-linejoin:round;stroke-width:1.5px;}</style></defs><title>video-game-ping-pong</title><path class="cls-1" d="M14.625,9A.375.375,0,0,1,15,9.375"/><path class="cls-1" d="M14.25,9.375A.375.375,0,0,1,14.625,9"/><path class="cls-1" d="M14.625,9.75a.375.375,0,0,1-.375-.375"/><path class="cls-1" d="M15,9.375a.375.375,0,0,1-.375.375"/><path class="cls-1" d="M17.25,21.75H3.75a1.5,1.5,0,0,1-1.5-1.5V9.75"/><path class="cls-1" d="M6.75,2.25h13.5a1.5,1.5,0,0,1,1.5,1.5v10.5"/><line class="cls-1" x1="18.75" y1="5.25" x2="18.75" y2="10.5"/><line class="cls-1" x1="5.25" y1="13.5" x2="5.25" y2="18.75"/><path class="cls-1" d="M.75,2.25A1.5,1.5,0,0,1,2.25.75h0a1.5,1.5,0,0,1,1.5,1.5h0a2.134,2.134,0,0,1-.469,1.336L.75,6.75h3"/><path class="cls-1" d="M23.25,21.75a1.5,1.5,0,0,1-3,0v-3a1.5,1.5,0,0,1,3,0Z"/></svg>