<svg id="Regular" xmlns="http://www.w3.org/2000/svg" viewBox="0 0 24 24"><defs><style>.cls-1{fill:none;stroke:currentColor;stroke-linecap:round;stroke-linejoin:round;stroke-width:1.5px;}</style></defs><title>video-game-mario-flower-2</title><path class="cls-1" d="M23.1,7.5a6.75,6.75,0,0,1-6.75,6.75h-4.5a6.75,6.75,0,0,1,0-13.5h4.5A6.75,6.75,0,0,1,23.1,7.5Z"/><path class="cls-1" d="M20.1,7.5a3.75,3.75,0,0,1-3.75,3.75h-4.5a3.75,3.75,0,0,1,0-7.5h4.5A3.75,3.75,0,0,1,20.1,7.5Z"/><line class="cls-1" x1="17.099" y1="6.75" x2="17.099" y2="8.25"/><line class="cls-1" x1="11.099" y1="6.75" x2="11.099" y2="8.25"/><line class="cls-1" x1="14.099" y1="14.25" x2="10.349" y2="23.25"/><path class="cls-1" d="M8.1,23.25H5.2a3,3,0,0,1-2.5-1.336l-1.332-2A.75.75,0,0,1,2,18.75H3.493a3,3,0,0,1,2.5,1.336Z"/><path class="cls-1" d="M14.1,23.25h2.894a3,3,0,0,0,2.5-1.336l1.332-2A.75.75,0,0,0,20.2,18.75H18.7a3,3,0,0,0-2.5,1.336Z"/></svg>