<svg xmlns="http://www.w3.org/2000/svg" viewBox="0 0 24 24"><defs><style>.a{fill:none;stroke:currentColor;stroke-linecap:round;stroke-linejoin:round;stroke-width:1.5px;}</style></defs><title>video-game-logo-playstation</title><path class="a" d="M10.533,1.935v18.1a.488.488,0,0,0,.27.438L13.542,22.2a.49.49,0,0,0,.708-.438V3.01L11.24,1.5A.489.489,0,0,0,10.533,1.935Z"/><path class="a" d="M17.385,4.582l-.135,6.575a.481.481,0,0,0,.283.45c.648.26.562.112,1.176-.244a2.286,2.286,0,0,0,1.14-1.979V8.829a4.892,4.892,0,0,0-2.464-4.247Z"/><line class="a" x1="14.25" y1="3.01" x2="17.385" y2="4.582"/><path class="a" d="M21.705,14.5l.169.063a2.122,2.122,0,0,1,.361,3.8L18,21.01a.489.489,0,0,1-.723-.429V19.056a.489.489,0,0,1,.27-.438L19.584,17.3S22.235,16.1,21.705,14.5Z"/><path class="a" d="M21.705,14.5a6.416,6.416,0,0,0-2.368-.342"/><path class="a" d="M6.755,15.935a.489.489,0,0,1,.661.458v1.5a.489.489,0,0,1-.322.46l-1.229.584a4,4,0,0,1-4.647-1.467,2.585,2.585,0,0,1,1.068-3.847l4.443-2.2a.489.489,0,0,1,.687.447v1.46a.488.488,0,0,1-.307.454L4.524,14.988a.906.906,0,0,0,.654,1.689Z"/></svg>