<svg id="Regular" xmlns="http://www.w3.org/2000/svg" viewBox="0 0 24 24"><defs><style>.cls-1{fill:none;stroke:currentColor;stroke-linecap:round;stroke-linejoin:round;stroke-width:1.5px;}</style></defs><title>video-game-control-directions</title><line class="cls-1" x1="9" y1="8.25" x2="9" y2="0.75"/><path class="cls-1" d="M9,.75h1.5A1.5,1.5,0,0,1,12,2.25V3a1.5,1.5,0,0,1-1.5,1.5H9"/><path class="cls-1" d="M9,4.5h1.5A1.5,1.5,0,0,1,12,6v.75a1.5,1.5,0,0,1-1.5,1.5H9"/><path class="cls-1" d="M1.5,14.25v-6a1.5,1.5,0,0,1,3,0v6"/><line class="cls-1" x1="1.5" y1="11.25" x2="4.5" y2="11.25"/><path class="cls-1" d="M22.5,15.75a.75.75,0,0,0-.75-.75h-3V12a.75.75,0,0,0-.75-.75H15a.75.75,0,0,0-.75.75v3h-3a.75.75,0,0,0-.75.75v3a.75.75,0,0,0,.75.75h3v3a.75.75,0,0,0,.75.75h3a.75.75,0,0,0,.75-.75v-3h3a.75.75,0,0,0,.75-.75Z"/></svg>