<svg id="Regular" xmlns="http://www.w3.org/2000/svg" viewBox="0 0 24 24"><defs><style>.cls-1{fill:none;stroke:currentColor;stroke-linecap:round;stroke-linejoin:round;stroke-width:1.5px;}</style></defs><title>video-game-mario-flower-1</title><path class="cls-1" d="M8.05,8.439a1.5,1.5,0,0,1,2.121,0"/><path class="cls-1" d="M14.05,8.439a1.5,1.5,0,0,1,2.121,0"/><line class="cls-1" x1="12.111" y1="15.5" x2="12.111" y2="23"/><path class="cls-1" d="M4.611,3.325a.749.749,0,0,1,1.135-.643L8.361,4.25,11.58,1.03a.75.75,0,0,1,1.061,0l3.22,3.22,2.614-1.568a.75.75,0,0,1,1.136.643V8a7.5,7.5,0,0,1-15,0Z"/><path class="cls-1" d="M3.25,23a.75.75,0,0,1-.55-1.26c1.237-1.332,3.292-3.24,4.911-3.24a4.5,4.5,0,0,1,4.5,4.5Z"/><path class="cls-1" d="M20.971,23a.75.75,0,0,0,.55-1.26c-1.237-1.332-3.292-3.24-4.91-3.24a4.5,4.5,0,0,0-4.5,4.5Z"/></svg>