<svg id="Regular" xmlns="http://www.w3.org/2000/svg" viewBox="0 0 24 24"><defs><style>.cls-1{fill:none;stroke:currentColor;stroke-linecap:round;stroke-linejoin:round;stroke-width:1.5px;}</style></defs><title>video-game-kirby-1</title><line class="cls-1" x1="9.621" y1="7.684" x2="9.621" y2="9.27"/><line class="cls-1" x1="14.379" y1="7.684" x2="14.379" y2="9.27"/><path class="cls-1" d="M9.547,13.161a.478.478,0,0,1,.073-.735l2.115-1.41a.478.478,0,0,1,.53,0l2.115,1.41a.478.478,0,0,1,.073.735L12,15.613Z"/><path class="cls-1" d="M4.863,10.856.909,16.128A.793.793,0,0,0,1.535,17.4a5.843,5.843,0,0,0,3.328-.991"/><path class="cls-1" d="M23.168,9.514a.791.791,0,0,0-.7-.442,5.835,5.835,0,0,0-3.328.991V8.477a7.137,7.137,0,0,0-14.274,0v7.929a3.172,3.172,0,0,0,3.172,3.172h7.93a3.172,3.172,0,0,0,3.172-3.172v-.793l3.954-5.273A.791.791,0,0,0,23.168,9.514Z"/><path class="cls-1" d="M6.132,18.944,2.505,22.052a.4.4,0,0,0,.258.7H8.035a1.586,1.586,0,0,0,1.586-1.586V19.578"/><path class="cls-1" d="M6.132,18.944,2.505,22.052a.4.4,0,0,0,.258.7H8.035a1.586,1.586,0,0,0,1.586-1.586V19.578"/><path class="cls-1" d="M17.868,18.944,21.5,22.052a.4.4,0,0,1-.258.7H15.965a1.586,1.586,0,0,1-1.586-1.586V19.578"/></svg>