<svg id="Regular" xmlns="http://www.w3.org/2000/svg" viewBox="0 0 24 24"><defs><style>.cls-1{fill:none;stroke:currentColor;stroke-linecap:round;stroke-linejoin:round;stroke-width:1.5px;}</style></defs><title>video-game-mario-flame</title><ellipse class="cls-1" cx="14.106" cy="14.103" rx="5.615" ry="5.639"/><line class="cls-1" x1="12.702" y1="13.399" x2="12.702" y2="14.808"/><line class="cls-1" x1="15.51" y1="13.399" x2="15.51" y2="14.808"/><line class="cls-1" x1="2.875" y1="1.415" x2="2.875" y2="4.235"/><line class="cls-1" x1="1.471" y1="2.825" x2="4.279" y2="2.825"/><path class="cls-1" d="M22.529,14.1V5a.7.7,0,0,0-1.141-.55l-2.369,1.9s-1.165-1.17-.841-4.045a.708.708,0,0,0-.222-.6.7.7,0,0,0-.611-.174A9.641,9.641,0,0,0,10.6,7.054a6.221,6.221,0,0,1-.847-2.289.7.7,0,0,0-1.267-.3,16.494,16.494,0,0,0-2.8,9.641,8.423,8.423,0,1,0,16.846,0Z"/><path class="cls-1" d="M2.875,10.226a.352.352,0,0,1,.351.353"/><path class="cls-1" d="M2.524,10.579a.352.352,0,0,1,.351-.353"/><path class="cls-1" d="M2.875,10.931a.351.351,0,0,1-.351-.352"/><path class="cls-1" d="M3.226,10.579a.351.351,0,0,1-.351.352"/><path class="cls-1" d="M7.087,1.063a.352.352,0,0,1,.351.352"/><path class="cls-1" d="M6.736,1.415a.351.351,0,0,1,.351-.352"/><path class="cls-1" d="M7.087,1.767a.351.351,0,0,1-.351-.352"/><path class="cls-1" d="M7.438,1.415a.352.352,0,0,1-.351.352"/></svg>