<svg id="Regular" xmlns="http://www.w3.org/2000/svg" viewBox="0 0 24 24"><defs><style>.cls-1{fill:none;stroke:currentColor;stroke-linecap:round;stroke-linejoin:round;stroke-width:1.5px;}</style></defs><title>video-game-console</title><path class="cls-1" d="M23.25,6.75V2.25a1.5,1.5,0,0,0-1.5-1.5H2.25a1.5,1.5,0,0,0-1.5,1.5v4.5"/><polyline class="cls-1" points="15.75 11.25 15.75 0.75 18.75 0.75 18.75 11.25"/><line class="cls-1" x1="5.25" y1="17.25" x2="5.25" y2="20.25"/><line class="cls-1" x1="3.75" y1="18.75" x2="6.75" y2="18.75"/><path class="cls-1" d="M13.875,19.5a.375.375,0,0,1,.375.375"/><path class="cls-1" d="M13.5,19.875a.375.375,0,0,1,.375-.375"/><path class="cls-1" d="M13.875,20.25a.375.375,0,0,1-.375-.375"/><path class="cls-1" d="M14.25,19.875a.375.375,0,0,1-.375.375"/><path class="cls-1" d="M10.5,19.5a.375.375,0,0,1,.375.375"/><path class="cls-1" d="M10.125,19.875A.375.375,0,0,1,10.5,19.5"/><path class="cls-1" d="M10.5,20.25a.375.375,0,0,1-.375-.375"/><path class="cls-1" d="M10.875,19.875a.375.375,0,0,1-.375.375"/><rect class="cls-1" x="0.75" y="14.25" width="16.5" height="9" rx="1" ry="1"/><path class="cls-1" d="M.75,6.75l1.158,3.474A1.5,1.5,0,0,0,3.331,11.25H20.669a1.5,1.5,0,0,0,1.423-1.026L23.25,6.75Z"/><path class="cls-1" d="M15.75,3.75h-9a1.5,1.5,0,0,1-1.5-1.5V.75"/><path class="cls-1" d="M20.25,11.25V18a1.5,1.5,0,0,1-1.5,1.5h-1.5"/></svg>