<svg id="Regular" xmlns="http://www.w3.org/2000/svg" viewBox="0 0 24 24"><defs><style>.cls-1{fill:none;stroke:currentColor;stroke-linecap:round;stroke-linejoin:round;stroke-width:1.5px;}</style></defs><title>video-game-shwings</title><path class="cls-1" d="M16.16,13.461a1.943,1.943,0,0,1,3.169-2.249,3.263,3.263,0,0,1-.79,4.532,3.858,3.858,0,0,1-5.379-.914,5.211,5.211,0,0,1,1.234-7.264,4.895,4.895,0,0,1,1.883-.938A4.539,4.539,0,0,0,19.63,3.672L20.643.75l1.5,2.113a4.535,4.535,0,0,1-1.074,6.322"/><path class="cls-1" d="M19.761,14.083l2.124-1.507a3.239,3.239,0,0,0,.767-4.516L22.4,7.7"/><path class="cls-1" d="M17.178,16.357l-7.164,6.5A1.5,1.5,0,0,1,9,23.25H2.25a1.5,1.5,0,0,1-1.5-1.5,4.5,4.5,0,0,1,4.5-4.5l3-3-5.267-7.6a1.5,1.5,0,0,1,.373-2.082L8.428,1.021a1.5,1.5,0,0,1,2.072.345l4.339,5.892"/><line class="cls-1" x1="4.523" y1="8.876" x2="7.5" y2="6.75"/><line class="cls-1" x1="6.513" y1="11.748" x2="9.49" y2="9.622"/><polyline class="cls-1" points="1.006 20.25 8.25 20.25 13.5 15.245"/></svg>