<svg id="Regular" xmlns="http://www.w3.org/2000/svg" viewBox="0 0 24 24"><defs><style>.cls-1{fill:none;stroke:currentColor;stroke-linecap:round;stroke-linejoin:round;stroke-width:1.5px;}</style></defs><title>video-game-gamasutra-1</title><rect class="cls-1" x="10.5" y="20.25" width="3" height="3" rx="0.5" ry="0.5"/><path class="cls-1" d="M21,6.75A.75.75,0,0,1,20.25,6V4.5a.75.75,0,0,0-.75-.75H18A.75.75,0,0,1,17.25,3V1.5A.75.75,0,0,0,16.5.75h-9a.75.75,0,0,0-.75.75V3A.75.75,0,0,1,6,3.75H4.5a.75.75,0,0,0-.75.75V6A.75.75,0,0,1,3,6.75H1.5a.75.75,0,0,0-.75.75V15a.75.75,0,0,0,.75.75H3A.75.75,0,0,0,3.75,15V13.5a.75.75,0,0,1,.75-.75H9.75a.75.75,0,0,1,.75.75V15a.75.75,0,0,0,.75.75h1.5A.75.75,0,0,0,13.5,15V13.5a.75.75,0,0,1,.75-.75H19.5a.75.75,0,0,1,.75.75V15a.75.75,0,0,0,.75.75h1.5a.75.75,0,0,0,.75-.75V7.5a.75.75,0,0,0-.75-.75Z"/><rect class="cls-1" x="6.75" y="6.75" width="3" height="3" rx="0.75" ry="0.75"/><rect class="cls-1" x="14.25" y="6.75" width="3" height="3" rx="0.75" ry="0.75"/></svg>