<svg id="Regular" xmlns="http://www.w3.org/2000/svg" viewBox="0 0 24 24"><defs><style>.cls-1{fill:none;stroke:currentColor;stroke-linecap:round;stroke-linejoin:round;stroke-width:1.5px;}</style></defs><title>video-game-logo-heart-1</title><path class="cls-1" d="M1,7.406a.491.491,0,0,0-.255.43v5.555a.491.491,0,0,0,.255.43L11.766,19.69a.486.486,0,0,0,.468,0L23,13.821a.491.491,0,0,0,.255-.43V7.836A.491.491,0,0,0,23,7.406l-5.136-2.8a.486.486,0,0,0-.468,0L12.234,7.418a.492.492,0,0,1-.468,0L6.609,4.605a.486.486,0,0,0-.468,0Z"/><path class="cls-1" d="M17.625,4.545V9.789a.489.489,0,0,0,.723.43L23.18,7.584"/></svg>