<svg xmlns="http://www.w3.org/2000/svg" viewBox="0 0 24 24"><defs><style>.a{fill:none;stroke:currentColor;stroke-linecap:round;stroke-linejoin:round;stroke-width:1.5px;}</style></defs><title>video-game-logo-overwatch</title><path class="a" d="M8.091,4.112a.753.753,0,0,0,.865.228,8.147,8.147,0,0,1,6.088,0,.753.753,0,0,0,.865-.228l.976-1.221a.749.749,0,0,0-.278-1.152,11.225,11.225,0,0,0-9.214,0,.75.75,0,0,0-.278,1.152Z"/><path class="a" d="M20.994,5.26a.751.751,0,0,0-1.186-.018l-.97,1.212a.751.751,0,0,0-.032.893A8.238,8.238,0,0,1,18.85,16.6l-2.882-2.882a1.489,1.489,0,0,1-.332-.5l-1.274-3.183a.447.447,0,0,0-.862.166v4.26a1.5,1.5,0,0,0,.348.96l2.82,3.385a8.248,8.248,0,0,1-9.336,0l2.82-3.385a1.5,1.5,0,0,0,.348-.96V10.2a.447.447,0,0,0-.862-.166L8.364,13.214a1.489,1.489,0,0,1-.332.5L5.15,16.6a8.238,8.238,0,0,1,.044-9.253.751.751,0,0,0-.032-.893l-.97-1.212a.751.751,0,0,0-1.186.018A11.246,11.246,0,1,0,23.25,12,11.168,11.168,0,0,0,20.994,5.26Z"/></svg>