<svg id="Regular" xmlns="http://www.w3.org/2000/svg" viewBox="0 0 24 24"><defs><style>.cls-1{fill:none;stroke:currentColor;stroke-linecap:round;stroke-linejoin:round;stroke-width:1.5px;}</style></defs><title>video-game-the-sims</title><path class="cls-1" d="M10.342,22.77,3.192,12.62a1.1,1.1,0,0,1,0-1.24l7.15-10.15a1.1,1.1,0,0,1,1.818,0l7.15,10.15a1.1,1.1,0,0,1,0,1.24L12.16,22.77A1.1,1.1,0,0,1,10.342,22.77Z"/><line class="cls-1" x1="19.501" y1="12" x2="3.001" y2="12"/><polyline class="cls-1" points="11.251 0.75 7.501 12 11.251 23.25"/><polyline class="cls-1" points="11.251 0.75 15.001 12 11.251 23.25"/><line class="cls-1" x1="19.501" y1="3" x2="22.501" y2="3"/><line class="cls-1" x1="21.001" y1="1.5" x2="21.001" y2="4.5"/><line class="cls-1" x1="0.751" y1="21" x2="3.751" y2="21"/><line class="cls-1" x1="2.251" y1="19.5" x2="2.251" y2="22.5"/></svg>