<svg id="Regular" xmlns="http://www.w3.org/2000/svg" viewBox="0 0 24 24"><defs><style>.cls-1{fill:none;stroke:currentColor;stroke-linecap:round;stroke-linejoin:round;stroke-width:1.5px;}</style></defs><title>video-game-tetris</title><path class="cls-1" d="M.75,23.25v-21A1.5,1.5,0,0,1,2.25.75h19.5a1.5,1.5,0,0,1,1.5,1.5v21"/><rect class="cls-1" x="3.75" y="3.75" width="16.5" height="13.5"/><path class="cls-1" d="M10.5,7.875a.375.375,0,0,1,.375.375"/><path class="cls-1" d="M10.125,8.25a.375.375,0,0,1,.375-.375"/><path class="cls-1" d="M10.5,8.625a.375.375,0,0,1-.375-.375"/><path class="cls-1" d="M10.875,8.25a.375.375,0,0,1-.375.375"/><path class="cls-1" d="M14.25,8.25h1.5a1.5,1.5,0,0,1,1.5,1.5v3a1.5,1.5,0,0,1-1.5,1.5h-6a1.5,1.5,0,0,0-1.5,1.5v1.5"/><line class="cls-1" x1="5.25" y1="20.25" x2="5.25" y2="23.25"/><line class="cls-1" x1="3.75" y1="21.75" x2="6.75" y2="21.75"/><path class="cls-1" d="M18.75,21.375a.375.375,0,0,1,.375.375"/><path class="cls-1" d="M18.375,21.75a.375.375,0,0,1,.375-.375"/><path class="cls-1" d="M18.75,22.125a.375.375,0,0,1-.375-.375"/><path class="cls-1" d="M19.125,21.75a.375.375,0,0,1-.375.375"/><path class="cls-1" d="M13.5,21.375a.375.375,0,0,1,.375.375"/><path class="cls-1" d="M13.125,21.75a.375.375,0,0,1,.375-.375"/><path class="cls-1" d="M13.5,22.125a.375.375,0,0,1-.375-.375"/><path class="cls-1" d="M13.875,21.75a.375.375,0,0,1-.375.375"/></svg>