<svg id="Regular" xmlns="http://www.w3.org/2000/svg" viewBox="0 0 24 24"><defs><style>.cls-1{fill:none;stroke:currentColor;stroke-linecap:round;stroke-linejoin:round;stroke-width:1.5px;}</style></defs><title>video-game-nintendo</title><path class="cls-1" d="M4.5.75H19a1,1,0,0,1,1,1v18.5a3,3,0,0,1-3,3H4.5a1,1,0,0,1-1-1V1.75A1,1,0,0,1,4.5.75Z"/><rect class="cls-1" x="6.5" y="3.75" width="10.5" height="7.5" rx="0.5" ry="0.5"/><line class="cls-1" x1="8" y1="14.25" x2="8" y2="17.25"/><line class="cls-1" x1="9.5" y1="15.75" x2="6.5" y2="15.75"/><path class="cls-1" d="M16.25,14.625a.375.375,0,0,1,.375.375"/><path class="cls-1" d="M15.875,15a.375.375,0,0,1,.375-.375"/><path class="cls-1" d="M16.25,15.375A.375.375,0,0,1,15.875,15"/><path class="cls-1" d="M16.625,15a.375.375,0,0,1-.375.375"/><path class="cls-1" d="M13.25,16.875a.375.375,0,0,1,.375.375"/><path class="cls-1" d="M12.875,17.25a.375.375,0,0,1,.375-.375"/><path class="cls-1" d="M13.25,17.625a.375.375,0,0,1-.375-.375"/><path class="cls-1" d="M13.625,17.25a.375.375,0,0,1-.375.375"/></svg>