<svg id="Regular" xmlns="http://www.w3.org/2000/svg" viewBox="0 0 24 24"><defs><style>.cls-1{fill:none;stroke:currentColor;stroke-linecap:round;stroke-linejoin:round;stroke-width:1.5px;}</style></defs><title>video-game-flappy-bird</title><path class="cls-1" d="M20.25,13.5a1.5,1.5,0,0,1,0,3h-4.5a3,3,0,0,1,0-6h6a1.5,1.5,0,0,1,0,3h-6"/><path class="cls-1" d="M20.241,10.5c.148-2.859-1.584-6-3.741-6-2.563,0-4.525,4.076-3.449,7.689"/><line class="cls-1" x1="17.25" y1="7.624" x2="17.25" y2="9.124"/><path class="cls-1" d="M8.388,17.627A5.987,5.987,0,0,0,10.47,18H13.5a7.019,7.019,0,0,0,3.729-1.5"/><path class="cls-1" d="M15.433,4.742A2.989,2.989,0,0,0,14.25,4.5H9A6,6,0,0,0,3.892,7.35"/><path class="cls-1" d="M9.9,11.99c-.234,2.691-3.257,3.878-5.923,2.681C1.712,13.653.089,10.1,1.015,8.25c.75-1.5,5.25-.75,6.036-.421"/></svg>