<svg id="Regular" xmlns="http://www.w3.org/2000/svg" viewBox="0 0 24 24"><defs><style>.cls-1{fill:none;stroke:currentColor;stroke-linecap:round;stroke-linejoin:round;stroke-width:1.5px;}</style></defs><title>video-game-360-vr</title><path class="cls-1" d="M12.75,2h0A2.25,2.25,0,0,0,10.5,4.25V6.5"/><circle class="cls-1" cx="12" cy="6.5" r="1.5"/><path class="cls-1" d="M5.25,3.112A1.5,1.5,0,1,1,6.7,5,1.5,1.5,0,1,1,5.254,6.9"/><path class="cls-1" d="M18.75,6.5a1.5,1.5,0,0,1-3,0v-3a1.5,1.5,0,0,1,3,0Z"/><path class="cls-1" d="M15.75,19.226a4.5,4.5,0,1,1,0-5.952L12.044,16.25Z"/><path class="cls-1" d="M19.5,22.234c1.71-1.08,3.751-3.752,3.751-6.1A6.091,6.091,0,0,0,20.436,11"/><polyline class="cls-1" points="19.499 18.482 19.499 22.234 23.25 22.234"/><path class="cls-1" d="M4.5,11C2.791,12.08.75,14.751.75,17.1a6.093,6.093,0,0,0,2.814,5.138"/><polyline class="cls-1" points="4.501 14.751 4.501 11 0.75 11"/></svg>