<svg id="Regular" xmlns="http://www.w3.org/2000/svg" viewBox="0 0 24 24"><defs><style>.cls-1{fill:none;stroke:currentColor;stroke-linecap:round;stroke-linejoin:round;stroke-width:1.5px;}</style></defs><title>video-game-gamasutra</title><path class="cls-1" d="M.75,22.5a.75.75,0,0,0,.75.75H3a.75.75,0,0,0,.75-.75V20.25H1.5A.75.75,0,0,0,.75,21Z"/><path class="cls-1" d="M22.5,23.25a.75.75,0,0,0,.75-.75V21a.75.75,0,0,0-.75-.75H20.25V22.5a.75.75,0,0,0,.75.75Z"/><rect class="cls-1" x="10.5" y="20.25" width="3" height="3" rx="0.75" ry="0.75"/><path class="cls-1" d="M21,6.75A.75.75,0,0,1,20.25,6V4.5a.75.75,0,0,0-.75-.75H18A.75.75,0,0,1,17.25,3V1.5A.75.75,0,0,0,16.5.75h-9a.75.75,0,0,0-.75.75V3A.75.75,0,0,1,6,3.75H4.5a.75.75,0,0,0-.75.75V6A.75.75,0,0,1,3,6.75H1.5a.75.75,0,0,0-.75.75v9a.75.75,0,0,0,.75.75H3a.75.75,0,0,1,.75.75v2.25H6a.75.75,0,0,0,.75-.75V18a.75.75,0,0,1,.75-.75h9a.75.75,0,0,1,.75.75v1.5a.75.75,0,0,0,.75.75h2.25V18a.75.75,0,0,1,.75-.75h1.5a.75.75,0,0,0,.75-.75v-9a.75.75,0,0,0-.75-.75Zm-16.5,6A.75.75,0,0,1,3.75,12V10.5a.75.75,0,0,1,.75-.75H9a.75.75,0,0,1,.75.75V12a.75.75,0,0,1-.75.75ZM20.25,12a.75.75,0,0,1-.75.75H15a.75.75,0,0,1-.75-.75V10.5A.75.75,0,0,1,15,9.75h4.5a.75.75,0,0,1,.75.75Z"/></svg>