<svg id="Regular" xmlns="http://www.w3.org/2000/svg" viewBox="0 0 24 24"><defs><style>.cls-1{fill:none;stroke:currentColor;stroke-linecap:round;stroke-linejoin:round;stroke-width:1.5px;}</style></defs><title>video-game-boxing</title><path class="cls-1" d="M7.932,18.75h10.5a0,0,0,0,1,0,0v3.5a1,1,0,0,1-1,1h-8.5a1,1,0,0,1-1-1v-3.5A0,0,0,0,1,7.932,18.75Z"/><path class="cls-1" d="M3.4,7.681a3,3,0,0,0-.78,2.963l1.694,5.93A3,3,0,0,0,7.2,18.75H18.432a3,3,0,0,0,3-3V5.25a4.5,4.5,0,0,0-4.5-4.5H10.421A4.5,4.5,0,0,0,6.008,6.133L7.182,12"/></svg>