<svg xmlns="http://www.w3.org/2000/svg" viewBox="0 0 24 24"><defs><style>.a{fill:none;stroke:currentColor;stroke-linecap:round;stroke-linejoin:round;stroke-width:1.5px;}</style></defs><title>video-game-logo-creeper</title><rect class="a" x="0.75" y="0.75" width="22.5" height="22.5" rx="1" ry="1"/><path class="a" d="M15,17.25V19.5a.75.75,0,0,0,.75.75h1.5A.75.75,0,0,0,18,19.5V12.75a.75.75,0,0,0-.75-.75H15a.75.75,0,0,1-.75-.75V4.5A.75.75,0,0,1,15,3.75h4.5a.75.75,0,0,1,.75.75V8.25A.75.75,0,0,1,19.5,9H4.5a.75.75,0,0,1-.75-.75V4.5a.75.75,0,0,1,.75-.75H9a.75.75,0,0,1,.75.75v6.75A.75.75,0,0,1,9,12H6.75a.75.75,0,0,0-.75.75V19.5a.75.75,0,0,0,.75.75h1.5A.75.75,0,0,0,9,19.5V17.25Z"/></svg>