<svg xmlns="http://www.w3.org/2000/svg" viewBox="0 0 24 24"><defs><style>.a{fill:none;stroke:currentColor;stroke-linecap:round;stroke-linejoin:round;stroke-width:1.5px;}</style></defs><title>video-game-logo-xbox-1</title><path class="a" d="M16.928,1.883a.489.489,0,0,1-.158.926,17.177,17.177,0,0,0-4.582,1.226.49.49,0,0,1-.376,0A17.184,17.184,0,0,0,7.229,2.809a.489.489,0,0,1-.157-.926,11.284,11.284,0,0,1,9.856,0Z"/><path class="a" d="M22.572,15.863a.489.489,0,0,1-.946-.114A13.631,13.631,0,0,0,16.3,6.679a.489.489,0,0,1,.093-.823A13.363,13.363,0,0,1,20.179,4.6a.491.491,0,0,1,.443.17,11.293,11.293,0,0,1,1.95,11.1Z"/><path class="a" d="M20.26,19.377a.49.49,0,0,1-.131.4,11.246,11.246,0,0,1-16.258,0,.49.49,0,0,1-.131-.4c.418-3.349,3.936-7.528,7.964-10.591a.489.489,0,0,1,.592,0C16.324,11.848,19.842,16.028,20.26,19.377Z"/><path class="a" d="M2.374,15.749a.489.489,0,0,1-.946.114,11.293,11.293,0,0,1,1.95-11.1.493.493,0,0,1,.443-.17A13.363,13.363,0,0,1,7.612,5.856a.489.489,0,0,1,.093.823A13.631,13.631,0,0,0,2.374,15.749Z"/></svg>