<svg id="Regular" xmlns="http://www.w3.org/2000/svg" viewBox="0 0 24 24"><defs><style>.cls-1{fill:none;stroke:currentColor;stroke-linecap:round;stroke-linejoin:round;stroke-width:1.5px;}</style></defs><title>video-game-logo-circle-controller</title><circle class="cls-1" cx="12" cy="12" r="5.25"/><path class="cls-1" d="M9.184,4.179,11.609.946a.488.488,0,0,1,.782,0l2.425,3.233"/><path class="cls-1" d="M19.821,9.184l3.233,2.425a.488.488,0,0,1,0,.782l-3.233,2.425"/><path class="cls-1" d="M14.816,19.821l-2.425,3.233a.488.488,0,0,1-.782,0L9.184,19.821"/><path class="cls-1" d="M4.179,14.816.946,12.391a.488.488,0,0,1,0-.782L4.179,9.184"/><path class="cls-1" d="M18.724,16.878a8.273,8.273,0,0,0,0-9.756l.807-2.017a.489.489,0,0,0-.636-.636l-2.017.807a8.273,8.273,0,0,0-9.756,0L5.105,4.469a.489.489,0,0,0-.636.636l.807,2.017a8.273,8.273,0,0,0,0,9.756L4.469,18.9a.489.489,0,0,0,.636.636l2.017-.807a8.273,8.273,0,0,0,9.756,0l2.017.807a.489.489,0,0,0,.636-.636Z"/><path class="cls-1" d="M10.5,14.25a2.648,2.648,0,0,0,3.75-.75c1.5-2.25-1.838-5.662-3.75-3.75C8.25,12,12,12.75,12,12"/></svg>