<svg id="Regular" xmlns="http://www.w3.org/2000/svg" viewBox="0 0 24 24"><defs><style>.cls-1{fill:none;stroke:currentColor;stroke-linecap:round;stroke-linejoin:round;stroke-width:1.5px;}</style></defs><title>video-game-sonic</title><path class="cls-1" d="M2.581,15C2.581,7.877,6.64,2.107,19.9,1.545a.75.75,0,0,1,.567,1.275A6.774,6.774,0,0,0,18.331,7.5a15.645,15.645,0,0,1,4.562,1.7.752.752,0,0,1,.147,1.129,28.471,28.471,0,0,0-2.459,3.17,4.908,4.908,0,0,1,2.6,2.6.75.75,0,0,1-.685,1.064,12.408,12.408,0,0,0-5.918,1.583"/><path class="cls-1" d="M17.581,15a7.5,7.5,0,0,1-7.5,7.5c-4.556,0-8.25-2.3-8.25-3.75,0-1.49,3.9-1.5,8.633-1.5,3.678,0,1.57-4.5,4.867-4.5A2.25,2.25,0,0,1,17.581,15"/><path class="cls-1" d="M2.581,15c0-2.071,1.343-5.25,3-5.25,2.626,0,4.463,4.216,1.417,7.527"/><polyline class="cls-1" points="10.081 8.25 10.081 3.449 14.581 8.25"/><line class="cls-1" x1="5.581" y1="12.75" x2="5.581" y2="14.25"/><circle class="cls-1" cx="1.291" cy="18.75" r="0.541"/></svg>