<svg id="Regular" xmlns="http://www.w3.org/2000/svg" viewBox="0 0 24 24"><defs><style>.cls-1{fill:none;stroke:currentColor;stroke-linecap:round;stroke-linejoin:round;stroke-width:1.5px;}</style></defs><title>video-game-knight</title><path class="cls-1" d="M8.75,18.587C8.75,20.694,5.9,23.25,5,23.25s-3.75-2.556-3.75-4.663V13.924a.448.448,0,0,1,.469-.424H8.281a.448.448,0,0,1,.469.424Z"/><path class="cls-1" d="M21.5,5.036c0-.711-.672-3-1.5-3s-1.5,2.289-1.5,3V17.464a1.518,1.518,0,0,0,3,0Z"/><line class="cls-1" x1="17" y1="13.5" x2="23" y2="13.5"/><path class="cls-1" d="M12.607,9.643a.378.378,0,0,0-.11.251A3.75,3.75,0,0,1,5,9.894a.378.378,0,0,0-.11-.251l-1.5-1.5a.375.375,0,0,1,.265-.64h.97A.375.375,0,0,0,5,7.125v-.75A.375.375,0,0,1,5.375,6h6.75a.375.375,0,0,1,.375.375v.75a.375.375,0,0,0,.375.375h.97a.375.375,0,0,1,.265.64Z"/><path class="cls-1" d="M12.5,6A5.857,5.857,0,0,0,11,2.25,4.767,4.767,0,0,0,8.062.753a.374.374,0,0,0-.115.01l-5.183,1.3a.375.375,0,0,0-.134.664L4.85,4.388a.374.374,0,0,1,.15.3V6"/><path class="cls-1" d="M10.776,12.906A5.253,5.253,0,0,1,14.75,18v5.25"/></svg>