<svg id="Regular" xmlns="http://www.w3.org/2000/svg" viewBox="0 0 24 24"><defs><style>.cls-1{fill:none;stroke:currentColor;stroke-linecap:round;stroke-linejoin:round;stroke-width:1.5px;}</style></defs><title>video-game-control-gear-1</title><path class="cls-1" d="M1.75,14.25h20.5a1,1,0,0,1,1,1v5a0,0,0,0,1,0,0H.75a0,0,0,0,1,0,0v-5a1,1,0,0,1,1-1Z"/><path class="cls-1" d="M15.25,11.25h4a1,1,0,0,1,1,1v2a0,0,0,0,1,0,0h-6a0,0,0,0,1,0,0v-2A1,1,0,0,1,15.25,11.25Z"/><line class="cls-1" x1="6.75" y1="14.25" x2="6.75" y2="8.25"/><circle class="cls-1" cx="6.75" cy="4.5" r="3.75"/><line class="cls-1" x1="8.25" y1="23.25" x2="2.25" y2="23.25"/><line class="cls-1" x1="21.75" y1="23.25" x2="15.75" y2="23.25"/></svg>