<svg id="Regular" xmlns="http://www.w3.org/2000/svg" viewBox="0 0 24 24"><defs><style>.cls-1{fill:none;stroke:currentColor;stroke-linecap:round;stroke-linejoin:round;stroke-width:1.5px;}</style></defs><title>video-game-smartphone-portrait</title><path class="cls-1" d="M15,15v5.25a3,3,0,0,1-3,3H4.5a3,3,0,0,1-3-3V3.75a3,3,0,0,1,3-3H12a3,3,0,0,1,2.6,1.5"/><line class="cls-1" x1="1.5" y1="18.75" x2="15" y2="18.75"/><path class="cls-1" d="M17.625,9A.375.375,0,0,1,18,9.375"/><path class="cls-1" d="M17.25,9.375A.375.375,0,0,1,17.625,9"/><path class="cls-1" d="M17.625,9.75a.375.375,0,0,1-.375-.375"/><path class="cls-1" d="M18,9.375a.375.375,0,0,1-.375.375"/><path class="cls-1" d="M21.375,9a.375.375,0,0,1,.375.375"/><path class="cls-1" d="M21,9.375A.375.375,0,0,1,21.375,9"/><path class="cls-1" d="M21.375,9.75A.375.375,0,0,1,21,9.375"/><path class="cls-1" d="M21.75,9.375a.375.375,0,0,1-.375.375"/><path class="cls-1" d="M13.875,11.976a4.5,4.5,0,1,1,0-5.952L9.938,9Z"/></svg>