<svg id="Regular" xmlns="http://www.w3.org/2000/svg" viewBox="0 0 24 24"><defs><style>.cls-1{fill:none;stroke:currentColor;stroke-linecap:round;stroke-linejoin:round;stroke-width:1.5px;}</style></defs><title>video-game-breakout</title><path class="cls-1" d="M19.5,21.75a1.5,1.5,0,0,1-1.5,1.5H6a1.5,1.5,0,0,1,0-3H18A1.5,1.5,0,0,1,19.5,21.75Z"/><circle class="cls-1" cx="21.375" cy="7.875" r="1.875"/><line class="cls-1" x1="0.75" y1="0.75" x2="5.25" y2="0.75"/><line class="cls-1" x1="0.75" y1="3.75" x2="5.25" y2="3.75"/><line class="cls-1" x1="9.75" y1="0.75" x2="14.25" y2="0.75"/><line class="cls-1" x1="9.75" y1="3.75" x2="14.25" y2="3.75"/><line class="cls-1" x1="9.75" y1="6.75" x2="14.25" y2="6.75"/><line class="cls-1" x1="18.75" y1="0.75" x2="23.25" y2="0.75"/><line class="cls-1" x1="10.5" y1="18" x2="12.75" y2="15.75"/><line class="cls-1" x1="15" y1="13.5" x2="17.25" y2="11.25"/></svg>