<svg id="Regular" xmlns="http://www.w3.org/2000/svg" viewBox="0 0 24 24"><defs><style>.cls-1{fill:none;stroke:currentColor;stroke-linecap:round;stroke-linejoin:round;stroke-width:1.5px;}</style></defs><title>video-game-controller-team</title><line class="cls-1" x1="5.25" y1="14.25" x2="5.25" y2="17.25"/><line class="cls-1" x1="3.75" y1="15.75" x2="6.75" y2="15.75"/><path class="cls-1" d="M17.25,16.5a.375.375,0,0,1,.375.375"/><path class="cls-1" d="M16.875,16.875a.375.375,0,0,1,.375-.375"/><path class="cls-1" d="M17.25,17.25a.375.375,0,0,1-.375-.375"/><path class="cls-1" d="M17.625,16.875a.375.375,0,0,1-.375.375"/><path class="cls-1" d="M19.5,14.25a.375.375,0,0,1,.375.375"/><path class="cls-1" d="M19.125,14.625a.375.375,0,0,1,.375-.375"/><path class="cls-1" d="M19.5,15a.375.375,0,0,1-.375-.375"/><path class="cls-1" d="M19.875,14.625A.375.375,0,0,1,19.5,15"/><path class="cls-1" d="M15.029,19.5a1.5,1.5,0,0,1,1.171.563l1.637,2.046a3.039,3.039,0,0,0,5.413-1.9V14.25a3,3,0,0,0-3-3H3.75a3,3,0,0,0-3,3v5.961a3.039,3.039,0,0,0,5.413,1.9L7.8,20.063A1.5,1.5,0,0,1,8.972,19.5Z"/><circle class="cls-1" cx="4.5" cy="3.375" r="2.625"/><path class="cls-1" d="M8.25,9A4.25,4.25,0,0,0,.75,9"/><circle class="cls-1" cx="12" cy="3.375" r="2.625"/><path class="cls-1" d="M15.75,9a4.25,4.25,0,0,0-7.5,0"/><circle class="cls-1" cx="19.5" cy="3.375" r="2.625"/><path class="cls-1" d="M23.25,9a4.25,4.25,0,0,0-7.5,0"/></svg>