<svg id="Regular" xmlns="http://www.w3.org/2000/svg" viewBox="0 0 24 24"><defs><style>.cls-1{fill:none;stroke:currentColor;stroke-linecap:round;stroke-linejoin:round;stroke-width:1.5px;}</style></defs><title>video-game-mario-enemy</title><path class="cls-1" d="M13.813,16.256A8.031,8.031,0,0,1,7.5,19.5,6.75,6.75,0,0,1,7.5,6C11.228,6,15,9.022,15,12.75"/><path class="cls-1" d="M18.725,7.331a7.513,7.513,0,1,1-8.278,12.222c-.159-.158-.309-.323-.451-.491"/><path class="cls-1" d="M17.121,15.621a3,3,0,0,1-4.242,0"/><line class="cls-1" x1="4.5" y1="9.75" x2="4.5" y2="11.25"/><path class="cls-1" d="M12.9,8.208c-.652-3.1.875-5.958,2.847-5.958,1.657,0,3,2.015,3,4.5,0,2.988-1.941,5.3-4.035,4.24"/><path class="cls-1" d="M9.025,6.164C9.217,3.956,10.475,2.25,12,2.25a2.463,2.463,0,0,1,1.875.987"/><path class="cls-1" d="M14.25,5.625A.375.375,0,0,1,14.625,6"/><path class="cls-1" d="M13.875,6a.375.375,0,0,1,.375-.375"/><path class="cls-1" d="M14.25,6.375A.375.375,0,0,1,13.875,6"/><path class="cls-1" d="M14.625,6a.375.375,0,0,1-.375.375"/><path class="cls-1" d="M18.778,13.05a3.753,3.753,0,0,1,4.472,1.2"/><line class="cls-1" x1="22.5" y1="6" x2="20.602" y2="8.53"/></svg>