<svg id="Regular" xmlns="http://www.w3.org/2000/svg" viewBox="0 0 24 24"><defs><style>.cls-1{fill:none;stroke:currentColor;stroke-linecap:round;stroke-linejoin:round;stroke-width:1.5px;}</style></defs><title>video-game-mario-plant</title><path class="cls-1" d="M10.049,6.668l3.86-5.575a.8.8,0,0,1,1.447.366l.258,2.321a.8.8,0,0,0,.7.7l2.321.258a.8.8,0,0,1,.366,1.448L13.43,10.049"/><path class="cls-1" d="M6.668,10.049,1.093,6.19a.8.8,0,0,1,.366-1.448L3.78,4.484a.8.8,0,0,0,.7-.7l.258-2.321A.8.8,0,0,1,6.19,1.093l3.859,5.575"/><path class="cls-1" d="M10.049,13.43,6.19,19.005a.8.8,0,0,1-1.448-.366l-.258-2.321a.8.8,0,0,0-.7-.7l-2.321-.258a.8.8,0,0,1-.366-1.447l5.575-3.86"/><path class="cls-1" d="M13.43,10.049l5.575,3.86a.8.8,0,0,1-.366,1.447l-2.321.258a.8.8,0,0,0-.7.7l-.258,2.321a.8.8,0,0,1-1.447.366l-3.86-5.575"/><line class="cls-1" x1="11.176" y1="8.922" x2="8.922" y2="11.176"/><line class="cls-1" x1="8.922" y1="8.922" x2="11.176" y2="11.176"/><line class="cls-1" x1="9.735" y1="13.884" x2="11.296" y2="23.25"/><path class="cls-1" d="M19.8,20.062H23.25a0,0,0,0,1,0,0v1.063a2.125,2.125,0,0,1-2.125,2.125H17.672a0,0,0,0,1,0,0V22.187A2.125,2.125,0,0,1,19.8,20.062Z" transform="translate(40.922 43.312) rotate(-180)"/></svg>