<svg id="Regular" xmlns="http://www.w3.org/2000/svg" viewBox="0 0 24 24"><defs><style>.cls-1{fill:none;stroke:currentColor;stroke-linecap:round;stroke-linejoin:round;stroke-width:1.5px;}</style></defs><title>video-game-mario-turtle</title><path class="cls-1" d="M14.881,18h.869a4.5,4.5,0,0,0,4.5-4.5V9h1.5a1.5,1.5,0,0,0,1.5-1.5v-3a3,3,0,0,0-3-3H16.5a3.113,3.113,0,0,0-2.25,3V6"/><path class="cls-1" d="M12.945,9.151A7.468,7.468,0,0,0,8.25,7.5c-4.142,0-6,3.358-6,7.5v1.5"/><path class="cls-1" d="M2.25,16.5a1.5,1.5,0,0,0,0,3H12c3,0,3.75-3,3.75-4.5a7.489,7.489,0,0,0-2.8-5.85A7.537,7.537,0,0,1,13.5,12c0,1.5-.75,4.5-3.75,4.5Z"/><line class="cls-1" x1="11.518" y1="8.247" x2="3.265" y2="16.5"/><line class="cls-1" x1="5.751" y1="8.001" x2="12.678" y2="14.928"/><line class="cls-1" x1="3.136" y1="10.636" x2="8.999" y2="16.499"/><path class="cls-1" d="M6.75,19.5V21a1.5,1.5,0,0,1-1.5,1.5H2.888a.75.75,0,0,1-.468-1.336L4.5,19.5Z"/><path class="cls-1" d="M11.25,19.5V21a1.5,1.5,0,0,0,1.5,1.5h2.362a.75.75,0,0,0,.468-1.336L13.253,19.3"/><path class="cls-1" d="M18.75,4.125a.375.375,0,0,1,.375.375"/><path class="cls-1" d="M18.375,4.5a.375.375,0,0,1,.375-.375"/><path class="cls-1" d="M18.75,4.875a.375.375,0,0,1-.375-.375"/><path class="cls-1" d="M19.125,4.5a.375.375,0,0,1-.375.375"/></svg>