<svg id="Regular" xmlns="http://www.w3.org/2000/svg" viewBox="0 0 24 24"><defs><style>.cls-1{fill:none;stroke:currentColor;stroke-linecap:round;stroke-linejoin:round;stroke-width:1.5px;}</style></defs><title>video-game-hatchi</title><path class="cls-1" d="M21,14.25a9,9,0,0,1-18,0C3,9.279,7.029.75,12,.75S21,9.279,21,14.25Z"/><path class="cls-1" d="M12,18.375a.375.375,0,0,1,.375.375"/><path class="cls-1" d="M11.625,18.75A.375.375,0,0,1,12,18.375"/><path class="cls-1" d="M12,19.125a.375.375,0,0,1-.375-.375"/><path class="cls-1" d="M12.375,18.75a.375.375,0,0,1-.375.375"/><path class="cls-1" d="M7.5,17.625A.375.375,0,0,1,7.875,18"/><path class="cls-1" d="M7.125,18a.375.375,0,0,1,.375-.375"/><path class="cls-1" d="M7.5,18.375A.375.375,0,0,1,7.125,18"/><path class="cls-1" d="M7.875,18a.375.375,0,0,1-.375.375"/><path class="cls-1" d="M16.5,17.625a.375.375,0,0,1,.375.375"/><path class="cls-1" d="M16.125,18a.375.375,0,0,1,.375-.375"/><path class="cls-1" d="M16.5,18.375A.375.375,0,0,1,16.125,18"/><path class="cls-1" d="M16.875,18a.375.375,0,0,1-.375.375"/><rect class="cls-1" x="7.5" y="6.75" width="9" height="7.5" rx="1" ry="1"/></svg>