<svg id="Regular" xmlns="http://www.w3.org/2000/svg" viewBox="0 0 24 24"><defs><style>.cls-1{fill:none;stroke:currentColor;stroke-linecap:round;stroke-linejoin:round;stroke-width:1.5px;}</style></defs><title>video-game-nintendo-1</title><path class="cls-1" d="M19.875,15.75a.375.375,0,0,1,.375.375"/><path class="cls-1" d="M19.5,16.125a.375.375,0,0,1,.375-.375"/><path class="cls-1" d="M19.875,16.5a.375.375,0,0,1-.375-.375"/><path class="cls-1" d="M20.25,16.125a.375.375,0,0,1-.375.375"/><path class="cls-1" d="M19.875,19.5a.375.375,0,0,1,.375.375"/><path class="cls-1" d="M19.5,19.875a.375.375,0,0,1,.375-.375"/><path class="cls-1" d="M19.875,20.25a.375.375,0,0,1-.375-.375"/><path class="cls-1" d="M20.25,19.875a.375.375,0,0,1-.375.375"/><path class="cls-1" d="M1.75.75h20.5a1,1,0,0,1,1,1V12a0,0,0,0,1,0,0H.75a0,0,0,0,1,0,0V1.75A1,1,0,0,1,1.75.75Z"/><path class="cls-1" d="M.75,12h22.5a0,0,0,0,1,0,0V22.25a1,1,0,0,1-1,1H1.75a1,1,0,0,1-1-1V12A0,0,0,0,1,.75,12Z"/><rect class="cls-1" x="7.5" y="3.75" width="9" height="5.25" rx="0.5" ry="0.5"/><rect class="cls-1" x="7.5" y="15" width="9" height="5.25" rx="0.5" ry="0.5"/><line class="cls-1" x1="3" y1="16.5" x2="4.5" y2="16.5"/><line class="cls-1" x1="3" y1="19.5" x2="4.5" y2="19.5"/></svg>