<svg id="Regular" xmlns="http://www.w3.org/2000/svg" viewBox="0 0 24 24"><defs><style>.cls-1{fill:none;stroke:currentColor;stroke-linecap:round;stroke-linejoin:round;stroke-width:1.5px;}</style></defs><title>video-game-potion</title><path class="cls-1" d="M17.25,12.375A.375.375,0,0,1,17.625,12"/><path class="cls-1" d="M17.625,12.75a.375.375,0,0,1-.375-.375"/><path class="cls-1" d="M18,12.375a.375.375,0,0,1-.375.375"/><path class="cls-1" d="M17.625,12a.375.375,0,0,1,.375.375"/><path class="cls-1" d="M13.5,10.125a.375.375,0,0,1,.375-.375"/><path class="cls-1" d="M13.875,10.5a.375.375,0,0,1-.375-.375"/><path class="cls-1" d="M14.25,10.125a.375.375,0,0,1-.375.375"/><path class="cls-1" d="M13.875,9.75a.375.375,0,0,1,.375.375"/><path class="cls-1" d="M11.115,5.812,10.007,4.7a1.5,1.5,0,0,0-2.121,0L4.7,7.886a1.5,1.5,0,0,0,0,2.121l1.108,1.108a9,9,0,1,0,5.3-5.3Z"/><path class="cls-1" d="M4.7,7.886,1.793,6.165a1.5,1.5,0,0,1-.39-2.4L3.763,1.4a1.5,1.5,0,0,1,2.4.39L7.886,4.7"/><line class="cls-1" x1="5.376" y1="15.75" x2="23.125" y2="15.75"/><line class="cls-1" x1="20.25" y1="2.25" x2="23.25" y2="2.25"/><line class="cls-1" x1="21.75" y1="0.75" x2="21.75" y2="3.75"/><line class="cls-1" x1="0.75" y1="19.5" x2="3.75" y2="19.5"/><line class="cls-1" x1="2.25" y1="18" x2="2.25" y2="21"/></svg>