<svg id="Regular" xmlns="http://www.w3.org/2000/svg" viewBox="0 0 24 24"><defs><style>.cls-1{fill:none;stroke:currentColor;stroke-linecap:round;stroke-linejoin:round;stroke-width:1.5px;}</style></defs><title>video-game-kirby-enemy-kracko</title><path class="cls-1" d="M23.25,12a3.753,3.753,0,0,0-2.278-3.45,3.748,3.748,0,0,0-6.347-2.227,3.747,3.747,0,0,0-5.25,0A3.748,3.748,0,0,0,3.028,8.55a3.751,3.751,0,0,0,0,6.9,3.748,3.748,0,0,0,6.347,2.227,3.747,3.747,0,0,0,5.25,0,3.748,3.748,0,0,0,6.347-2.227A3.753,3.753,0,0,0,23.25,12Z"/><circle class="cls-1" cx="8.25" cy="12" r="3"/><path class="cls-1" d="M8.25,11.625A.375.375,0,0,1,8.625,12"/><path class="cls-1" d="M7.875,12a.375.375,0,0,1,.375-.375"/><path class="cls-1" d="M8.25,12.375A.375.375,0,0,1,7.875,12"/><path class="cls-1" d="M8.625,12a.375.375,0,0,1-.375.375"/><line class="cls-1" x1="6.75" y1="5.25" x2="6.75" y2="0.75"/><line class="cls-1" x1="12" y1="5.25" x2="12" y2="0.75"/><line class="cls-1" x1="17.25" y1="5.25" x2="17.25" y2="0.75"/><line class="cls-1" x1="6.75" y1="18.75" x2="6.75" y2="23.25"/><line class="cls-1" x1="12" y1="18.75" x2="12" y2="23.25"/><line class="cls-1" x1="17.25" y1="18.75" x2="17.25" y2="23.25"/></svg>