<svg id="Regular" xmlns="http://www.w3.org/2000/svg" viewBox="0 0 24 24"><defs><style>.cls-1{fill:none;stroke:#000;stroke-linecap:round;stroke-linejoin:round;stroke-width:1.5px;}</style></defs><title>video-game-friend-ster</title><path class="cls-1" d="M12.28,10.59C10,10.67,10,6.41,11.47,6,13.77,5.33,14.07,10.53,12.28,10.59Z"/><path class="cls-1" d="M13.87,19.76C4.29,19.76,9.79,9.84.75,9.84V6.35c12.07,0,5.44,9.4,13.24,9.83,4.85.27,5.07-4.89,5.61-7.05a2.07,2.07,0,0,1,2.29-1.78c1.14.17,1.33,1.16,1.36,2.12C23.4,14.72,20.54,19.76,13.87,19.76Z"/><path class="cls-1" d="M16.56,4.24c2.07.15,2,5.06.25,5S14.91,4.13,16.56,4.24Z"/></svg>