<svg id="Regular" xmlns="http://www.w3.org/2000/svg" viewBox="0 0 24 24"><defs><style>.cls-1{fill:none;stroke:currentColor;stroke-linecap:round;stroke-linejoin:round;stroke-width:1.5px;}</style></defs><title>video-game-mario-question-box</title><rect class="cls-1" x="1.5" y="0.75" width="21" height="22.5" rx="1" ry="1"/><path class="cls-1" d="M9,9a3,3,0,1,1,4,2.829,1.5,1.5,0,0,0-1,1.414V14.25"/><circle class="cls-1" cx="12" cy="17.625" r="0.375"/><path class="cls-1" d="M5.25,4.125a.375.375,0,0,1,.375.375"/><path class="cls-1" d="M4.875,4.5a.375.375,0,0,1,.375-.375"/><path class="cls-1" d="M5.25,4.875A.375.375,0,0,1,4.875,4.5"/><path class="cls-1" d="M5.625,4.5a.375.375,0,0,1-.375.375"/><path class="cls-1" d="M18.75,4.125a.375.375,0,0,1,.375.375"/><path class="cls-1" d="M18.375,4.5a.375.375,0,0,1,.375-.375"/><path class="cls-1" d="M18.75,4.875a.375.375,0,0,1-.375-.375"/><path class="cls-1" d="M19.125,4.5a.375.375,0,0,1-.375.375"/><path class="cls-1" d="M5.25,19.125a.375.375,0,0,1,.375.375"/><path class="cls-1" d="M4.875,19.5a.375.375,0,0,1,.375-.375"/><path class="cls-1" d="M5.25,19.875a.375.375,0,0,1-.375-.375"/><path class="cls-1" d="M5.625,19.5a.375.375,0,0,1-.375.375"/><path class="cls-1" d="M18.75,19.125a.375.375,0,0,1,.375.375"/><path class="cls-1" d="M18.375,19.5a.375.375,0,0,1,.375-.375"/><path class="cls-1" d="M18.75,19.875a.375.375,0,0,1-.375-.375"/><path class="cls-1" d="M19.125,19.5a.375.375,0,0,1-.375.375"/></svg>