<svg id="Regular" xmlns="http://www.w3.org/2000/svg" viewBox="0 0 24 24"><defs><style>.cls-1{fill:none;stroke:currentColor;stroke-linecap:round;stroke-linejoin:round;stroke-width:1.5px;}</style></defs><title>video-game-pinball</title><circle class="cls-1" cx="12" cy="12" r="3"/><path class="cls-1" d="M1.936,21.069a2.176,2.176,0,0,1-.961-2.921,2.175,2.175,0,0,1,2.868-1.109,49.594,49.594,0,0,1,6.319,4.278,1.128,1.128,0,0,1-.912,1.924A49.576,49.576,0,0,1,1.936,21.069Z"/><path class="cls-1" d="M22.064,21.069a2.232,2.232,0,0,0-1.907-4.03,49.594,49.594,0,0,0-6.319,4.278,1.128,1.128,0,0,0,.912,1.924A49.576,49.576,0,0,0,22.064,21.069Z"/><line class="cls-1" x1="12" y1="0.75" x2="12" y2="3.75"/><line class="cls-1" x1="15" y1="3" x2="15" y2="6"/><line class="cls-1" x1="9" y1="3" x2="9" y2="6"/></svg>