<svg id="Regular" xmlns="http://www.w3.org/2000/svg" viewBox="0 0 24 24"><defs><style>.cls-1{fill:none;stroke:currentColor;stroke-linecap:round;stroke-linejoin:round;stroke-width:1.5px;}</style></defs><title>video-game-pc</title><path class="cls-1" d="M12.686,19.334a.374.374,0,0,1-.52.1"/><path class="cls-1" d="M12.584,18.814a.374.374,0,0,1,.1.52"/><path class="cls-1" d="M12.064,18.916a.374.374,0,0,1,.52-.1"/><path class="cls-1" d="M12.166,19.436a.374.374,0,0,1-.1-.52"/><path class="cls-1" d="M3,12.75V2.25A1.5,1.5,0,0,1,4.5.75h15A1.5,1.5,0,0,1,21,2.25v10.5"/><path class="cls-1" d="M15.75,11.226a4.5,4.5,0,1,1,0-5.952L11.812,8.25Z"/><line class="cls-1" x1="20.25" y1="18.75" x2="15.75" y2="18.75"/><rect class="cls-1" x="0.75" y="15.75" width="22.5" height="7.5" rx="1" ry="1"/><line class="cls-1" x1="3.75" y1="18.75" x2="3.75" y2="20.25"/><line class="cls-1" x1="6.75" y1="18.75" x2="6.75" y2="20.25"/></svg>