<svg id="Regular" xmlns="http://www.w3.org/2000/svg" viewBox="0 0 24 24"><defs><style>.cls-1{fill:none;stroke:currentColor;stroke-linecap:round;stroke-linejoin:round;stroke-width:1.5px;}</style></defs><title>video-game-logo-l</title><path class="cls-1" d="M5.16.75a.489.489,0,0,0-.346.835L6.424,3.2v18.1L5.3,22.415a.489.489,0,0,0,.346.835H18.431a.49.49,0,0,0,.368-.167l2.568-2.935A.489.489,0,0,0,21,19.337H11.316V1.239A.489.489,0,0,0,10.827.75Z"/><path class="cls-1" d="M18.646,19.337a9.374,9.374,0,0,0-7.33-15.581"/><path class="cls-1" d="M6.424,5.324a9.377,9.377,0,0,0,0,15.6"/><path class="cls-1" d="M13.064,19.337A6.376,6.376,0,0,0,11.625,6.75c-.1,0-.207,0-.309.008"/></svg>