<svg id="Regular" xmlns="http://www.w3.org/2000/svg" viewBox="0 0 24 24"><defs><style>.cls-1{fill:none;stroke:currentColor;stroke-linecap:round;stroke-linejoin:round;stroke-width:1.5px;}</style></defs><title>video-game-kirby-2</title><path class="cls-1" d="M6.01,6.236A7.5,7.5,0,0,1,18,6.249"/><path class="cls-1" d="M19.272,8.908a7.5,7.5,0,1,1-14.544,0"/><line class="cls-1" x1="7.5" y1="10.75" x2="8.25" y2="10.75"/><line class="cls-1" x1="15.75" y1="10.75" x2="16.5" y2="10.75"/><line class="cls-1" x1="9.75" y1="7.75" x2="9.75" y2="9.25"/><line class="cls-1" x1="14.25" y1="7.75" x2="14.25" y2="9.25"/><path class="cls-1" d="M4.728,8.908C1.367,7.3-.132,3.691,1.279,2.279,2.557,1,5.634,2.109,7.4,4.825"/><path class="cls-1" d="M19.272,8.908c3.361-1.611,4.86-5.217,3.449-6.629C21.443,1,18.366,2.109,16.6,4.825"/><path class="cls-1" d="M9.76,17.91a3.477,3.477,0,0,1-.425,2.516C8.472,21.92,6.8,22.572,5.608,21.882s-1.466-2.462-.6-3.956A3.477,3.477,0,0,1,6.959,16.3"/><path class="cls-1" d="M14.24,17.91a3.477,3.477,0,0,0,.425,2.516c.863,1.494,2.532,2.146,3.727,1.456s1.466-2.462.6-3.956A3.477,3.477,0,0,0,17.041,16.3"/><path class="cls-1" d="M12,12.625a.375.375,0,0,1,.375.375"/><path class="cls-1" d="M11.625,13A.375.375,0,0,1,12,12.625"/><path class="cls-1" d="M12,13.375A.375.375,0,0,1,11.625,13"/><path class="cls-1" d="M12.375,13a.375.375,0,0,1-.375.375"/></svg>