<svg id="Regular" xmlns="http://www.w3.org/2000/svg" viewBox="0 0 24 24"><defs><style>.cls-1{fill:none;stroke:currentColor;stroke-linecap:round;stroke-linejoin:round;stroke-width:1.5px;}</style></defs><title>video-game-xbox-controller</title><path class="cls-1" d="M6,.75H7.5C9.985.75,12,3.515,12,6v.75"/><line class="cls-1" x1="5.25" y1="11.25" x2="5.25" y2="14.25"/><line class="cls-1" x1="3.75" y1="12.75" x2="6.75" y2="12.75"/><path class="cls-1" d="M17.25,12.75a.375.375,0,0,1,.375.375"/><path class="cls-1" d="M16.875,13.125a.375.375,0,0,1,.375-.375"/><path class="cls-1" d="M17.25,13.5a.375.375,0,0,1-.375-.375"/><path class="cls-1" d="M17.625,13.125a.375.375,0,0,1-.375.375"/><path class="cls-1" d="M19.5,10.5a.375.375,0,0,1,.375.375"/><path class="cls-1" d="M19.125,10.875A.375.375,0,0,1,19.5,10.5"/><path class="cls-1" d="M19.5,11.25a.375.375,0,0,1-.375-.375"/><path class="cls-1" d="M19.875,10.875a.375.375,0,0,1-.375.375"/><path class="cls-1" d="M23.25,15V11.25a4.5,4.5,0,0,0-4.5-4.5H5.25a4.5,4.5,0,0,0-4.5,4.5v8.622a3.332,3.332,0,0,0,2.374,3.273,3.2,3.2,0,0,0,3.727-1.767L9.068,17.25h5.864l2.155,3.991A3.336,3.336,0,0,0,19.5,23.2a3.2,3.2,0,0,0,3.752-3.147Z"/></svg>