<svg id="Regular" xmlns="http://www.w3.org/2000/svg" viewBox="0 0 24 24"><defs><style>.cls-1{fill:none;stroke:currentColor;stroke-linecap:round;stroke-linejoin:round;stroke-width:1.5px;}</style></defs><title>video-game-sling</title><path class="cls-1" d="M15,1.5a2.251,2.251,0,0,0-2.25,2.25V4.5a3.75,3.75,0,0,1-7.5,0V3.75a2.25,2.25,0,0,0-4.5,0V4.5a8.265,8.265,0,0,0,6,7.938V20.25a2.25,2.25,0,0,0,4.5,0V12.438a8.266,8.266,0,0,0,6-7.938V3.75A2.251,2.251,0,0,0,15,1.5Z"/><line class="cls-1" x1="14.25" y1="15" x2="18.9" y2="19.56"/><circle class="cls-1" cx="21" cy="18.75" r="2.25"/><line class="cls-1" x1="17.25" y1="3.75" x2="22.604" y2="17.173"/></svg>