<svg id="Regular" xmlns="http://www.w3.org/2000/svg" viewBox="0 0 24 24"><defs><style>.cls-1{fill:none;stroke:currentColor;stroke-linecap:round;stroke-linejoin:round;stroke-width:1.5px;}</style></defs><title>video-game-bowl-ghost</title><path class="cls-1" d="M8.5.75V4.5a9.75,9.75,0,1,0,7.5,0V.75"/><line class="cls-1" x1="6.25" y1="0.75" x2="18.25" y2="0.75"/><path class="cls-1" d="M15.442,18a1.307,1.307,0,0,0,1.308-1.308V12a4.5,4.5,0,0,0-9,0v4.692a1.308,1.308,0,0,0,2.548.414l.452-1.356.513,1.538a1.04,1.04,0,0,0,1.974,0l.513-1.538.452,1.356A1.308,1.308,0,0,0,15.442,18Z"/><path class="cls-1" d="M10.375,11.25a.375.375,0,0,1,.375.375"/><path class="cls-1" d="M10,11.625a.375.375,0,0,1,.375-.375"/><path class="cls-1" d="M10.375,12A.375.375,0,0,1,10,11.625"/><path class="cls-1" d="M10.75,11.625a.375.375,0,0,1-.375.375"/><path class="cls-1" d="M14.125,11.25a.375.375,0,0,1,.375.375"/><path class="cls-1" d="M13.75,11.625a.375.375,0,0,1,.375-.375"/><path class="cls-1" d="M14.125,12a.375.375,0,0,1-.375-.375"/><path class="cls-1" d="M14.5,11.625a.375.375,0,0,1-.375.375"/></svg>