<svg id="Regular" xmlns="http://www.w3.org/2000/svg" viewBox="0 0 24 24"><defs><style>.cls-1{fill:none;stroke:currentColor;stroke-linecap:round;stroke-linejoin:round;stroke-width:1.5px;}</style></defs><title>video-game-flower-3</title><path class="cls-1" d="M21.5,13.5A9.75,9.75,0,0,1,2,13.5v-3a9.75,9.75,0,0,1,19.5,0Z"/><path class="cls-1" d="M6.5,13.5a5.25,5.25,0,0,0,10.5,0v-3a5.25,5.25,0,0,0-10.5,0Z"/><line class="cls-1" x1="11.75" y1="5.25" x2="11.75" y2="0.75"/><line class="cls-1" x1="11.75" y1="18.75" x2="11.75" y2="23.25"/><line class="cls-1" x1="6.5" y1="12" x2="2" y2="12"/><line class="cls-1" x1="17" y1="12" x2="21.5" y2="12"/><line class="cls-1" x1="4.512" y1="3.968" x2="7.974" y2="6.853"/><line class="cls-1" x1="18.988" y1="3.968" x2="15.526" y2="6.853"/><line class="cls-1" x1="4.512" y1="20.032" x2="7.974" y2="17.147"/><line class="cls-1" x1="18.988" y1="20.032" x2="15.526" y2="17.147"/><line class="cls-1" x1="9.5" y1="10.5" x2="9.5" y2="12"/><line class="cls-1" x1="14" y1="10.5" x2="14" y2="12"/><path class="cls-1" d="M12.811,15.311a1.5,1.5,0,0,1-2.122,0"/><path class="cls-1" d="M11.75,5.25c.5.161,1.838,2.021,0,3"/></svg>