<svg xmlns="http://www.w3.org/2000/svg" viewBox="0 0 24 24"><defs><style>.a{fill:none;stroke:currentColor;stroke-linecap:round;stroke-linejoin:round;stroke-width:1.5px;}</style></defs><title>vintage-car-carriage</title><circle class="a" cx="5.25" cy="18" r="4.5"/><circle class="a" cx="5.25" cy="18" r="1.5"/><circle class="a" cx="18.75" cy="19.5" r="3"/><path class="a" d="M9.75,16.5h9a4.5,4.5,0,0,0,4.5-4.5"/><path class="a" d="M9.493,16.5H13.5L15.417,5.636a3,3,0,0,0-1.878-3.323A14.815,14.815,0,0,0,8.25,1.5a14.815,14.815,0,0,0-5.289.813A3,3,0,0,0,1.083,5.636L2.62,14.349"/><line class="a" x1="1.941" y1="10.5" x2="14.559" y2="10.5"/><line class="a" x1="5.25" y1="1.72" x2="5.25" y2="10.5"/><line class="a" x1="11.25" y1="1.72" x2="11.25" y2="10.5"/></svg>