<svg xmlns="http://www.w3.org/2000/svg" viewBox="0 0 24 24"><defs><style>.a{fill:none;stroke:currentColor;stroke-linecap:round;stroke-linejoin:round;stroke-width:1.5px;}</style></defs><title>vintage-car-luggage</title><circle class="a" cx="18.751" cy="20.75" r="1.5"/><circle class="a" cx="5.25" cy="20.75" r="1.5"/><line class="a" x1="17.251" y1="20.75" x2="6.75" y2="20.75"/><path class="a" d="M20.251,20.75s1.406-.7,1.921-.961c.845-.431,1.078-.539,1.078-2.039s-.367-2.2-1.224-2.309L16.5,14.75l-3.3-3.96a1.5,1.5,0,0,0-1.153-.54H5.871a1.5,1.5,0,0,0-1.06.439L1.189,14.311a1.5,1.5,0,0,0-.439,1.06V17.75a3,3,0,0,0,3,3h0"/><line class="a" x1="16.5" y1="14.75" x2="14.25" y2="20.75"/><polyline class="a" points="7.5 10.1 7.5 15.5 9.75 20.75"/><line class="a" x1="0.75" y1="15.5" x2="7.5" y2="15.5"/><path class="a" d="M18.59,3.737l-.75,1.35A1.575,1.575,0,0,1,16.5,5.75h-9A1.375,1.375,0,0,1,6,4.55V3.2A1.375,1.375,0,0,1,7.5,2h9.748C18.363,2,19.088,2.939,18.59,3.737Z"/><line class="a" x1="7.5" y1="5.75" x2="7.5" y2="10.1"/><line class="a" x1="12.75" y1="10.25" x2="14.25" y2="5.75"/></svg>