<svg xmlns="http://www.w3.org/2000/svg" viewBox="0 0 24 24"><defs><style>.a{fill:none;stroke:currentColor;stroke-linecap:round;stroke-linejoin:round;stroke-width:1.5px;}</style></defs><title>vintage-car-6</title><circle class="a" cx="18.751" cy="15.875" r="1.5"/><circle class="a" cx="5.25" cy="15.875" r="1.5"/><line class="a" x1="17.251" y1="15.875" x2="6.75" y2="15.875"/><path class="a" d="M20.251,15.875s1.406-.7,1.921-.961c.845-.431,1.078-.539,1.078-2.039s-.367-2.2-1.224-2.309L16.5,9.875l-3.3-3.96a1.5,1.5,0,0,0-1.153-.54H5.871a1.5,1.5,0,0,0-1.06.439L1.189,9.436A1.5,1.5,0,0,0,.75,10.5v2.379a3,3,0,0,0,3,3h0"/><line class="a" x1="16.5" y1="9.875" x2="14.25" y2="15.875"/><polyline class="a" points="7.5 5.375 7.5 10.625 9.75 15.875"/><line class="a" x1="0.75" y1="10.625" x2="16.219" y2="10.625"/></svg>