<svg xmlns="http://www.w3.org/2000/svg" viewBox="0 0 24 24"><defs><style>.a{fill:none;stroke:currentColor;stroke-linecap:round;stroke-linejoin:round;stroke-width:1.5px;}</style></defs><title>vintage-car-7</title><rect class="a" x="9.75" y="16.5" width="4.5" height="3"/><path class="a" d="M2.25,17.25V19.5a1.5,1.5,0,0,0,3,0V18"/><path class="a" d="M4.5,13.875a.375.375,0,0,1,.375.375"/><path class="a" d="M4.125,14.25a.375.375,0,0,1,.375-.375"/><path class="a" d="M4.5,14.625a.375.375,0,0,1-.375-.375"/><path class="a" d="M4.875,14.25a.375.375,0,0,1-.375.375"/><path class="a" d="M21.75,17.25V19.5a1.5,1.5,0,0,1-3,0V18"/><path class="a" d="M14.25,18H19.5a3.75,3.75,0,0,0,0-7.5c-2.071,0-5.25,3-7.5,3s-5.429-3-7.5-3a3.75,3.75,0,0,0,0,7.5H9.75"/><path class="a" d="M19.5,13.875a.375.375,0,0,0-.375.375"/><path class="a" d="M19.875,14.25a.375.375,0,0,0-.375-.375"/><path class="a" d="M19.5,14.625a.375.375,0,0,0,.375-.375"/><path class="a" d="M19.125,14.25a.375.375,0,0,0,.375.375"/><path class="a" d="M18.105,10.826C17.25,9,14.709,7.5,12,7.5S6.75,9,5.9,10.826"/><path class="a" d="M19.5,10.5,17.891,5.138A3,3,0,0,0,15.018,3H8.982A3,3,0,0,0,6.109,5.138L4.5,10.5"/></svg>