<svg xmlns="http://www.w3.org/2000/svg" viewBox="0 0 24 24"><defs><style>.a{fill:none;stroke:currentColor;stroke-linecap:round;stroke-linejoin:round;stroke-width:1.5px;}</style></defs><title>vintage-man-moustache-1</title><path class="a" d="M2.25,23.25a10.669,10.669,0,0,1,19.5,0"/><path class="a" d="M17.25,9.162a5.23,5.23,0,0,1-.941,3"/><path class="a" d="M7.691,12.163a5.23,5.23,0,0,1-.941-3"/><path class="a" d="M11.25,12.162c1.1,2.344-2.968,3.412-5.4,2.531C6.729,12.26,10.152,9.819,11.25,12.162Z"/><path class="a" d="M12.75,12.162c-1.1,2.344,2.968,3.412,5.4,2.531C17.271,12.26,13.848,9.819,12.75,12.162Z"/><path class="a" d="M3,6.75a54.753,54.753,0,0,0,18,0"/><polyline class="a" points="12 23.25 8.663 17.446 6.75 21.75 9 23.25"/><polyline class="a" points="12 23.25 15.337 17.446 17.25 21.75 15 23.25"/><path class="a" d="M6.75,7.242V6a5.25,5.25,0,0,1,10.5,0V7.242"/></svg>