<svg xmlns="http://www.w3.org/2000/svg" viewBox="0 0 24 24"><defs><style>.a{fill:none;stroke:currentColor;stroke-linecap:round;stroke-linejoin:round;stroke-width:1.5px;}</style></defs><title>vintage-car-8</title><line class="a" x1="3.75" y1="8.25" x2="0.75" y2="8.25"/><line class="a" x1="20.25" y1="8.25" x2="23.25" y2="8.25"/><path class="a" d="M20.25,11.25V6.75a4.5,4.5,0,0,0-4.5-4.5H8.25a4.5,4.5,0,0,0-4.5,4.5v4.5"/><path class="a" d="M20.25,11.25s-.75-3-5.25-3H9c-4.5,0-5.25,3-5.25,3"/><path class="a" d="M2.25,17.784V20.25a1.5,1.5,0,0,0,3,0v-1.5"/><path class="a" d="M4.125,14.25a.375.375,0,0,0-.375.375"/><path class="a" d="M4.5,14.625a.375.375,0,0,0-.375-.375"/><path class="a" d="M4.125,15a.375.375,0,0,0,.375-.375"/><path class="a" d="M3.75,14.625A.375.375,0,0,0,4.125,15"/><path class="a" d="M8.25,18.75V13.5a5.625,5.625,0,0,0-4.5-2.25,2.938,2.938,0,0,0-3,3,4.247,4.247,0,0,0,4.5,4.5Z"/><path class="a" d="M21.75,17.784V20.25a1.5,1.5,0,0,1-3,0v-1.5"/><path class="a" d="M19.875,14.25a.375.375,0,0,1,.375.375"/><path class="a" d="M19.5,14.625a.375.375,0,0,1,.375-.375"/><path class="a" d="M19.875,15a.375.375,0,0,1-.375-.375"/><path class="a" d="M20.25,14.625a.375.375,0,0,1-.375.375"/><path class="a" d="M15.75,18.75V13.5a5.625,5.625,0,0,1,4.5-2.25,2.938,2.938,0,0,1,3,3,4.247,4.247,0,0,1-4.5,4.5Z"/><path class="a" d="M15.75,18.75H8.25V13.5l2.89-2.023a1.5,1.5,0,0,1,1.72,0L15.75,13.5Z"/></svg>