<svg xmlns="http://www.w3.org/2000/svg" viewBox="0 0 24 24"><defs><style>.a{fill:none;stroke:currentColor;stroke-linecap:round;stroke-linejoin:round;stroke-width:1.5px;}</style></defs><title>vintage-woman-1</title><line class="a" x1="3.723" y1="6.75" x2="20.223" y2="6.75"/><path class="a" d="M17.223,6a5.25,5.25,0,1,1-10.5,0L7.6,2.925A3,3,0,0,1,10.486.75H13.46a3,3,0,0,1,2.885,2.175Z"/><path class="a" d="M6.776,6.75S6.723,10.5,3.723,12"/><path class="a" d="M17.17,6.75s.053,3.75,3.053,5.25"/><path class="a" d="M8.826,13.982a10.407,10.407,0,0,0-2.747,1.334L8.223,19.5l3.75-3Z"/><path class="a" d="M15.121,13.982,11.973,16.5l3.75,3,2.145-4.184A10.407,10.407,0,0,0,15.121,13.982Z"/><path class="a" d="M22.446,23.25a10.507,10.507,0,0,0-7.325-9.27v0L11.973,16.5,8.826,13.982v0A10.509,10.509,0,0,0,1.5,23.25"/><line class="a" x1="8.223" y1="19.5" x2="9.723" y2="23.25"/><line class="a" x1="15.723" y1="19.5" x2="14.223" y2="23.25"/></svg>