<svg xmlns="http://www.w3.org/2000/svg" viewBox="0 0 24 24"><defs><style>.a{fill:none;stroke:currentColor;stroke-linecap:round;stroke-linejoin:round;stroke-width:1.5px;}</style></defs><title>virtual-tap-finger</title><path class="a" d="M9.128,18.75H7.961A2.121,2.121,0,0,0,6,21v1.125a1.06,1.06,0,0,0,.98,1.125H17.769a1.061,1.061,0,0,0,.981-1.125V21a2.122,2.122,0,0,0-1.962-2.25H13.371"/><circle class="a" cx="11.25" cy="18" r="2.25"/><path class="a" d="M5.26,5.621V1.5A.749.749,0,0,1,6.009.75H17.991a.75.75,0,0,1,.749.749V5.621"/><path class="a" d="M9,11.25l-.75-.75a1.059,1.059,0,0,1,0-1.5h0a1.061,1.061,0,0,1,1.5,0l.75.75V5.625A1.125,1.125,0,0,1,11.625,4.5h0A1.125,1.125,0,0,1,12.75,5.625V7.5H15A1.5,1.5,0,0,1,16.5,9v1.5"/><path class="a" d="M23.065,7.765a.25.25,0,1,1-.306.177.25.25,0,0,1,.306-.177"/><path class="a" d="M22.083,11.825a.25.25,0,1,1-.306.177.25.25,0,0,1,.306-.177"/><path class="a" d="M20.722,16.458a.25.25,0,1,1-.129.483.25.25,0,1,1,.129-.483"/><path class="a" d="M.935,7.765a.25.25,0,1,0,.306.177.25.25,0,0,0-.306-.177"/><path class="a" d="M1.917,11.825A.25.25,0,1,0,2.223,12a.25.25,0,0,0-.306-.177"/><path class="a" d="M3.278,16.458a.25.25,0,1,0,.129.483.25.25,0,0,0-.129-.483"/></svg>