<svg xmlns="http://www.w3.org/2000/svg" viewBox="0 0 24 24"><defs><style>.a{fill:none;stroke:currentColor;stroke-linecap:round;stroke-linejoin:round;stroke-width:1.5px;}</style></defs><title>virtual-box</title><path class="a" d="M9.128,18.75H7.961A2.121,2.121,0,0,0,6,21v1.125a1.06,1.06,0,0,0,.98,1.125H17.769a1.061,1.061,0,0,0,.981-1.125V21a2.122,2.122,0,0,0-1.962-2.25H13.371"/><circle class="a" cx="11.25" cy="18" r="2.25"/><line class="a" x1="16.585" y1="4.5" x2="12.085" y2="6.75"/><line class="a" x1="12.085" y1="6.75" x2="7.017" y2="3.854"/><line class="a" x1="12.085" y1="7.083" x2="12.085" y2="12.75"/><path class="a" d="M12.731.94a1.245,1.245,0,0,0-1.324,0l-4.068,2.6a1.059,1.059,0,0,0-.5.888V9.369a1.066,1.066,0,0,0,.558.921l4.069,2.3a1.246,1.246,0,0,0,1.214,0l4.1-2.3a1.062,1.062,0,0,0,.561-.922V4.434a1.06,1.06,0,0,0-.506-.89Z"/><path class="a" d="M23.065,7.765a.25.25,0,1,1-.306.177.25.25,0,0,1,.306-.177"/><path class="a" d="M22.083,11.825a.25.25,0,1,1-.306.177.25.25,0,0,1,.306-.177"/><path class="a" d="M20.722,16.458a.25.25,0,1,1-.129.483.25.25,0,1,1,.129-.483"/><path class="a" d="M.935,7.765a.25.25,0,1,0,.306.177.25.25,0,0,0-.306-.177"/><path class="a" d="M1.917,11.825A.25.25,0,1,0,2.223,12a.25.25,0,0,0-.306-.177"/><path class="a" d="M3.278,16.458a.25.25,0,1,0,.129.483.25.25,0,0,0-.129-.483"/></svg>