<svg xmlns="http://www.w3.org/2000/svg" viewBox="0 0 24 24"><defs><style>.a{fill:none;stroke:currentColor;stroke-linecap:round;stroke-linejoin:round;stroke-width:1.5px;}</style></defs><title>virtual-touch-board</title><path class="a" d="M14.252,21.75h6.519a1.06,1.06,0,0,0,.98-1.125V19.5a2.121,2.121,0,0,0-1.961-2.25H14.252"/><path class="a" d="M8.251,17.25H4.213A2.122,2.122,0,0,0,2.251,19.5v1.125a1.061,1.061,0,0,0,.981,1.125H8.251"/><circle class="a" cx="11.251" cy="19.5" r="3.75"/><path class="a" d="M11.253,19.142a.375.375,0,1,1-.392.357.376.376,0,0,1,.392-.357"/><line class="a" x1="4.501" y1="21.75" x2="4.501" y2="23.25"/><line class="a" x1="19.501" y1="21.75" x2="19.501" y2="23.25"/><path class="a" d="M19.484,6.75V1.5A.749.749,0,0,0,18.735.75h-15a.75.75,0,0,0-.749.749V9a.75.75,0,0,0,.75.75h2.25"/><path class="a" d="M9.735,12.75,8.985,12a1.061,1.061,0,0,1,0-1.5h0a1.061,1.061,0,0,1,1.5,0l.75.75V7.125A1.125,1.125,0,0,1,12.36,6h0a1.125,1.125,0,0,1,1.125,1.125V9h2.25a1.5,1.5,0,0,1,1.5,1.5V12"/></svg>