<svg id="Regular" xmlns="http://www.w3.org/2000/svg" viewBox="0 0 24 24"><defs><style>.cls-1{fill:none;stroke:currentColor;stroke-linecap:round;stroke-linejoin:round;stroke-width:1.5px;}</style></defs><title>visibility-rain</title><polyline class="cls-1" points="7.5 9.75 0.75 16.5 7.5 23.25"/><path class="cls-1" d="M5.63,11.62c.323.242,1.87,1.574,1.87,4.88s-1.547,4.638-1.87,4.88"/><line class="cls-1" x1="10.5" y1="16.5" x2="12" y2="16.5"/><line class="cls-1" x1="15" y1="16.5" x2="16.5" y2="16.5"/><line class="cls-1" x1="19.5" y1="16.5" x2="21" y2="16.5"/><line class="cls-1" x1="14.063" y1="11.25" x2="15.482" y2="8.917"/><line class="cls-1" x1="17.063" y1="11.25" x2="18.563" y2="8.958"/><path class="cls-1" d="M14.25,5.25a4.523,4.523,0,0,0,.035.562,4.523,4.523,0,0,1-.035-.562,4.411,4.411,0,0,1,.085-.842"/><path class="cls-1" d="M21.066,9.109a4.5,4.5,0,1,0-6.731-4.7,2.808,2.808,0,0,0-2.756,4.879"/></svg>