<svg id="Regular" xmlns="http://www.w3.org/2000/svg" viewBox="0 0 24 24"><defs><style>.cls-1{fill:none;stroke:currentColor;stroke-linecap:round;stroke-linejoin:round;stroke-width:1.5px;}</style></defs><title>visibility-100</title><polyline class="cls-1" points="8.75 0.75 2 7.5 8.75 14.25"/><path class="cls-1" d="M6.88,2.62C7.2,2.862,8.75,4.194,8.75,7.5S7.2,12.138,6.88,12.38"/><line class="cls-1" x1="11.75" y1="7.5" x2="13.25" y2="7.5"/><line class="cls-1" x1="16.25" y1="7.5" x2="17.75" y2="7.5"/><line class="cls-1" x1="20.75" y1="7.5" x2="22.25" y2="7.5"/><path class="cls-1" d="M5.75,17.25H6.5a.75.75,0,0,1,.75.75v5.25"/><line class="cls-1" x1="5.75" y1="23.25" x2="8.75" y2="23.25"/><path class="cls-1" d="M14.75,21.75a1.5,1.5,0,0,1-3,0v-3a1.5,1.5,0,0,1,3,0Z"/><path class="cls-1" d="M20.75,21.75a1.5,1.5,0,0,1-3,0v-3a1.5,1.5,0,0,1,3,0Z"/></svg>