<svg id="Regular" xmlns="http://www.w3.org/2000/svg" viewBox="0 0 24 24"><defs><style>.cls-1{fill:none;stroke:currentColor;stroke-linecap:round;stroke-linejoin:round;stroke-width:1.5px;}</style></defs><title>volleyball-smash</title><circle class="cls-1" cx="13.499" cy="6" r="2.625"/><path class="cls-1" d="M16.5,23.25v-3.8a14.176,14.176,0,0,0,4.58,3.647,1.5,1.5,0,0,0,1.341-2.684c-.7-.349-5.171-2.785-5.171-6.731l3.122-1.56a4.512,4.512,0,0,0,2.4-4.909L21.749,3.161a1.5,1.5,0,1,0-2.941.589L19.829,7.8a1.5,1.5,0,0,1-.8,1.637L15.275,11.31A20.839,20.839,0,0,1,6,13.5a1.5,1.5,0,1,0,0,3,23.849,23.849,0,0,0,7.5-1.219V23.25"/><circle class="cls-1" cx="3.749" cy="3.75" r="3"/></svg>