<svg id="Regular" xmlns="http://www.w3.org/2000/svg" viewBox="0 0 24 24"><defs><style>.cls-1{fill:none;stroke:currentColor;stroke-linecap:round;stroke-linejoin:round;stroke-width:1.5px;}</style></defs><title>volleyball-net</title><path class="cls-1" d="M1.75,8.25h20.5a1,1,0,0,1,1,1v8a0,0,0,0,1,0,0H.75a0,0,0,0,1,0,0v-8A1,1,0,0,1,1.75,8.25Z"/><line class="cls-1" x1="0.75" y1="17.25" x2="0.75" y2="23.25"/><line class="cls-1" x1="23.25" y1="17.25" x2="23.25" y2="23.25"/><circle class="cls-1" cx="18.75" cy="3" r="2.25"/><line class="cls-1" x1="23.25" y1="12.75" x2="0.75" y2="12.75"/><line class="cls-1" x1="6" y1="8.25" x2="6" y2="17.25"/><line class="cls-1" x1="12" y1="8.25" x2="12" y2="17.25"/><line class="cls-1" x1="18" y1="8.25" x2="18" y2="17.25"/></svg>