<svg id="Regular" xmlns="http://www.w3.org/2000/svg" viewBox="0 0 24 24"><defs><style>.cls-1{fill:none;stroke:currentColor;stroke-linecap:round;stroke-linejoin:round;stroke-width:1.5px;}</style></defs><title>volleyball-ball</title><circle class="cls-1" cx="12" cy="12" r="11.25"/><path class="cls-1" d="M20.611,19.24A11.332,11.332,0,0,0,12,12"/><path class="cls-1" d="M1.365,15.679A11.159,11.159,0,0,0,12,12"/><path class="cls-1" d="M13.889.908A11.166,11.166,0,0,0,12,12"/><path class="cls-1" d="M4.942,15.8A11.254,11.254,0,0,1,3.729,4.374"/><path class="cls-1" d="M8.707,14.617a11.252,11.252,0,0,1,.3-13.466"/><path class="cls-1" d="M12.075,3.955a11.256,11.256,0,0,1,10.5,4.207"/><path class="cls-1" d="M11.3,7.861a11.314,11.314,0,0,1,11.73,6.38"/><path class="cls-1" d="M18.831,16.075A11.261,11.261,0,0,1,9.7,23.018"/><path class="cls-1" d="M15.851,13.461A11.251,11.251,0,0,1,4.268,20.174"/></svg>