<svg xmlns="http://www.w3.org/2000/svg" viewBox="0 0 24 24"><defs><style>.a{fill:none;stroke:currentColor;stroke-linecap:round;stroke-linejoin:round;stroke-width:1.5px;}</style></defs><title>vr-360-remote-controller</title><path class="a" d="M17.25.75h0A2.251,2.251,0,0,0,15,3V5.25"/><circle class="a" cx="16.5" cy="5.25" r="1.5"/><path class="a" d="M9.75,1.862A1.5,1.5,0,1,1,11.2,3.75a1.5,1.5,0,1,1-1.445,1.9"/><path class="a" d="M23.25,5.25a1.5,1.5,0,0,1-3,0v-3a1.5,1.5,0,0,1,3,0Z"/><rect class="a" x="6.75" y="9.75" width="6" height="13.5" rx="1.5" ry="1.5"/><line class="a" x1="9.75" y1="13.875" x2="9.75" y2="13.875"/><path class="a" d="M9.75,13.875a.375.375,0,1,0,.375.375.375.375,0,0,0-.375-.375"/><line class="a" x1="9.75" y1="17.25" x2="9.75" y2="20.25"/><path class="a" d="M15.75,19.458A9.008,9.008,0,0,0,17.934,9"/><path class="a" d="M6.75,4.263a9,9,0,0,0-3,15.195"/><line class="a" x1="0.75" y1="12.75" x2="3.75" y2="12.75"/><line class="a" x1="15.75" y1="12.75" x2="18.75" y2="12.75"/></svg>