<svg xmlns="http://www.w3.org/2000/svg" viewBox="0 0 24 24"><defs><style>.a{fill:none;stroke:currentColor;stroke-linecap:round;stroke-linejoin:round;stroke-width:1.5px;}</style></defs><title>vr-controller-1</title><path class="a" d="M21.75,11.25V19.5a2.25,2.25,0,0,1-4.5,0v-.75a1.5,1.5,0,0,0-1.5-1.5h-3"/><path class="a" d="M9.75,14.25h-6a3,3,0,0,0-3,3v4.609A1.391,1.391,0,0,0,2.141,23.25h0a1.39,1.39,0,0,0,1.244-.769L4.5,20.25H9l1.116,2.232a1.391,1.391,0,0,0,2.634-.623V17.25A3,3,0,0,0,9.75,14.25Z"/><line class="a" x1="3.75" y1="16.875" x2="3.75" y2="16.875"/><path class="a" d="M3.75,16.875a.375.375,0,1,0,.375.375.375.375,0,0,0-.375-.375"/><line class="a" x1="9.75" y1="16.875" x2="9.75" y2="16.875"/><path class="a" d="M9.75,16.875a.375.375,0,1,0,.375.375.375.375,0,0,0-.375-.375"/><rect class="a" x="11.25" y="5.25" width="12" height="6" rx="1.5" ry="1.5"/><polyline class="a" points="23.178 6.289 21.75 0.75 20.25 0.75 19.5 2.25 15 2.25 14.25 0.75 12.75 0.75 11.322 6.289"/><line class="a" x1="14.25" y1="7.875" x2="14.25" y2="7.875"/><path class="a" d="M14.25,7.875a.375.375,0,1,0,.375.375.375.375,0,0,0-.375-.375"/><line class="a" x1="20.25" y1="7.875" x2="20.25" y2="7.875"/><path class="a" d="M20.25,7.875a.375.375,0,1,0,.375.375.375.375,0,0,0-.375-.375"/></svg>