<svg xmlns="http://www.w3.org/2000/svg" viewBox="0 0 24 24"><defs><style>.a{fill:none;stroke:currentColor;stroke-linecap:round;stroke-linejoin:round;stroke-width:1.5px;}</style></defs><title>vr-globe</title><path class="a" d="M2.2,13.181A3,3,0,0,0,.75,15.75v4.5a3,3,0,0,0,3,3H6.141a2.942,2.942,0,0,0,2.127-.885c.85-.885,2.291-2.115,3.732-2.115s2.882,1.23,3.732,2.115a2.942,2.942,0,0,0,2.127.885H20.25a3,3,0,0,0,3-3v-4.5a3,3,0,0,0-1.51-2.6"/><path class="a" d="M10.193,15.531A13.8,13.8,0,0,1,8.5,8.25,13.807,13.807,0,0,1,10.193.969"/><path class="a" d="M13.807,15.531A13.8,13.8,0,0,0,15.5,8.25,13.807,13.807,0,0,0,13.807.969"/><circle class="a" cx="12" cy="8.25" r="7.5"/><line class="a" x1="4.5" y1="8.25" x2="19.5" y2="8.25"/><line class="a" x1="5.506" y1="4.5" x2="18.492" y2="4.5"/><line class="a" x1="5.506" y1="12" x2="18.492" y2="12"/></svg>