<svg xmlns="http://www.w3.org/2000/svg" viewBox="0 0 24 24"><defs><style>.a{fill:none;stroke:currentColor;stroke-linecap:round;stroke-linejoin:round;stroke-width:1.5px;}</style></defs><title>vr-headphones</title><rect class="a" x="0.75" y="17.25" width="12" height="6" rx="1.5" ry="1.5"/><polyline class="a" points="12.678 18.289 11.25 12.75 9.75 12.75 9 14.25 4.5 14.25 3.75 12.75 2.25 12.75 0.822 18.289"/><line class="a" x1="0.75" y1="20.25" x2="3.75" y2="20.25"/><line class="a" x1="9.75" y1="20.25" x2="12.75" y2="20.25"/><path class="a" d="M20.25,5.25V4.5a3.75,3.75,0,0,0-7.5,0v.75"/><path class="a" d="M21.75,9.75h-1.5V5.25h1.5a1.5,1.5,0,0,1,1.5,1.5v1.5A1.5,1.5,0,0,1,21.75,9.75Z"/><path class="a" d="M11.25,9.75h1.5V5.25h-1.5a1.5,1.5,0,0,0-1.5,1.5v1.5A1.5,1.5,0,0,0,11.25,9.75Z"/><path class="a" d="M15.75,17.25a1.5,1.5,0,0,1,1.5,1.5v.75a2.25,2.25,0,0,0,4.5,0V9.75"/></svg>