<svg xmlns="http://www.w3.org/2000/svg" viewBox="0 0 24 24"><defs><style>.a{fill:none;stroke:currentColor;stroke-linecap:round;stroke-linejoin:round;stroke-width:1.5px;}</style></defs><title>vr-laptop-1</title><rect class="a" x="11.25" y="5.25" width="12" height="6" rx="1.5" ry="1.5"/><polyline class="a" points="23.178 6.289 21.75 0.75 20.25 0.75 19.5 2.25 15 2.25 14.25 0.75 12.75 0.75 11.322 6.289"/><path class="a" d="M14.25,7.875a.375.375,0,1,0,.375.375.375.375,0,0,0-.375-.375"/><path class="a" d="M20.25,7.875a.375.375,0,1,0,.375.375.375.375,0,0,0-.375-.375"/><path class="a" d="M21.75,11.25V19.5a2.25,2.25,0,0,1-4.5,0v-.75a1.5,1.5,0,0,0-1.5-1.5H12"/><path class="a" d="M.75,20.25a3,3,0,0,0,3,3h6a3,3,0,0,0,3-3Z"/><path class="a" d="M10.5,14.25H3a1.5,1.5,0,0,0-1.5,1.5v4.5H12v-4.5A1.5,1.5,0,0,0,10.5,14.25Z"/></svg>