<svg xmlns="http://www.w3.org/2000/svg" viewBox="0 0 24 24"><defs><style>.a{fill:none;stroke:currentColor;stroke-linecap:round;stroke-linejoin:round;stroke-width:1.5px;}</style></defs><title>vr-play-device</title><rect class="a" x="0.75" y="17.25" width="12" height="6" rx="1.5" ry="1.5"/><polyline class="a" points="12.678 18.29 11.25 12.75 9.75 12.75 9 14.25 4.5 14.25 3.75 12.75 2.25 12.75 0.822 18.29"/><line class="a" x1="0.75" y1="20.25" x2="3.75" y2="20.25"/><line class="a" x1="9.75" y1="20.25" x2="12.75" y2="20.25"/><path class="a" d="M15.75,17.25h6a1.5,1.5,0,0,0,1.5-1.5V2.25a1.5,1.5,0,0,0-1.5-1.5H8.25a1.5,1.5,0,0,0-1.5,1.5V10.5"/><path class="a" d="M11.25,9.75V6.106a.856.856,0,0,1,1.239-.765l5.788,2.894a.856.856,0,0,1,0,1.531L14.32,11.744"/></svg>