<svg xmlns="http://www.w3.org/2000/svg" viewBox="0 0 24 24"><defs><style>.a{fill:none;stroke:currentColor;stroke-linecap:round;stroke-linejoin:round;stroke-width:1.5px;}</style></defs><title>vr-phone</title><rect class="a" x="5.25" y="0.75" width="13.5" height="7.5" rx="1.5" ry="1.5"/><line class="a" x1="8.25" y1="8.25" x2="8.25" y2="0.75"/><line class="a" x1="15.75" y1="0.75" x2="15.75" y2="8.25"/><path class="a" d="M6,12.75H3.75a3,3,0,0,0-3,3v4.5a3,3,0,0,0,3,3H6.141a2.946,2.946,0,0,0,2.128-.885c.849-.885,2.29-2.115,3.731-2.115s2.882,1.23,3.732,2.115a2.942,2.942,0,0,0,2.127.885H20.25a3,3,0,0,0,3-3v-4.5a3,3,0,0,0-3-3H18"/><line class="a" x1="12" y1="11.25" x2="12" y2="17.25"/><polyline class="a" points="15 14.25 12 17.25 9 14.25"/></svg>