<svg xmlns="http://www.w3.org/2000/svg" viewBox="0 0 24 24"><defs><style>.a{fill:none;stroke:currentColor;stroke-linecap:round;stroke-linejoin:round;stroke-width:1.5px;}</style></defs><title>vr-user-box-human</title><polygon class="a" points="6.75 12.75 0.75 10.5 0.75 3 6.75 5.25 6.75 12.75"/><polygon class="a" points="6.75 12.75 12.75 10.5 12.75 3 6.75 5.25 6.75 12.75"/><polyline class="a" points="12.75 3 6.75 0.75 0.75 3"/><path class="a" d="M15.357,15.115C15,16.056,14.641,17.023,14.25,18h3v1.5a3,3,0,0,0,3,3h1.5v.75"/><path class="a" d="M23.25,4.816A7.667,7.667,0,0,0,21,5.8"/><path class="a" d="M17.25,6.75a6.226,6.226,0,0,0-2.25,6h8.25V9Z"/></svg>