<svg xmlns="http://www.w3.org/2000/svg" viewBox="0 0 24 24"><defs><style>.a{fill:none;stroke:currentColor;stroke-linecap:round;stroke-linejoin:round;stroke-width:1.5px;}</style></defs><title>vr-user-play</title><polyline class="a" points="10.459 11.359 12.75 10.5 12.75 3 6.75 5.25 6.75 9"/><polyline class="a" points="3.041 11.359 0.75 10.5 0.75 3 6.75 5.25 6.75 9"/><polyline class="a" points="12.75 3 6.75 0.75 0.75 3"/><path class="a" d="M15.357,15.115C15,16.056,14.641,17.023,14.25,18h3v1.5a3,3,0,0,0,3,3h1.5v.75"/><path class="a" d="M23.25,4.816A7.667,7.667,0,0,0,21,5.8"/><path class="a" d="M17.25,6.75a6.226,6.226,0,0,0-2.25,6h8.25V9Z"/><path class="a" d="M8.25,23.25l2.929-2.343a1.639,1.639,0,0,0,.566-1.676h0a1.638,1.638,0,0,0-2.321-1.068L8.25,18.75V13.5A1.5,1.5,0,0,0,6.75,12h0a1.5,1.5,0,0,0-1.5,1.5v3l-1.993.333A3,3,0,0,0,.75,19.792V23.25"/></svg>