<svg xmlns="http://www.w3.org/2000/svg" viewBox="0 0 24 24"><defs><style>.a{fill:none;stroke:currentColor;stroke-linecap:round;stroke-linejoin:round;stroke-width:1.5px;}</style></defs><title>vr-user-laptop</title><path class="a" d="M6.75,14.25v-1.5a1.5,1.5,0,0,0-1.5-1.5H3a2.25,2.25,0,0,1,0-4.5h8.25"/><path class="a" d="M.75,20.25a3,3,0,0,0,3,3h6a3,3,0,0,0,3-3Z"/><path class="a" d="M10.5,14.25H3a1.5,1.5,0,0,0-1.5,1.5v4.5H12v-4.5A1.5,1.5,0,0,0,10.5,14.25Z"/><rect class="a" x="11.25" y="4.5" width="12" height="6" rx="1.5" ry="1.5"/><line class="a" x1="15.75" y1="7.5" x2="18.75" y2="7.5"/><path class="a" d="M12.122,4.638C12.6,2.162,14.421.75,17.25.75s4.655,1.412,5.128,3.888"/><path class="a" d="M21.643,10.5C20.773,12.9,19.266,15,17.25,15s-3.522-2.105-4.393-4.5"/></svg>