<svg xmlns="http://www.w3.org/2000/svg" viewBox="0 0 24 24"><defs><style>.a{fill:none;stroke:currentColor;stroke-linecap:round;stroke-linejoin:round;stroke-width:1.5px;}</style></defs><title>vr-user-box</title><rect class="a" x="11.25" y="17.25" width="12" height="6" rx="1.5" ry="1.5"/><polyline class="a" points="23.178 18.289 21.75 12.75 20.25 12.75 19.5 14.25 15 14.25 14.25 12.75 12.75 12.75 11.322 18.289"/><line class="a" x1="11.25" y1="20.25" x2="14.25" y2="20.25"/><line class="a" x1="20.25" y1="20.25" x2="23.25" y2="20.25"/><path class="a" d="M1.189,1.19a1.5,1.5,0,0,0,0,2.121L4.371,6.493,7.553,7.554,6.493,4.372,3.311,1.19A1.5,1.5,0,0,0,1.189,1.19Z"/><polygon class="a" points="6.75 18.75 0.75 16.5 0.75 9 6.75 11.25 6.75 18.75"/><polyline class="a" points="8.999 17.907 6.75 18.75 6.75 11.25 12.75 9"/></svg>