<svg xmlns="http://www.w3.org/2000/svg" viewBox="0 0 24 24"><defs><style>.a{fill:none;stroke:currentColor;stroke-linecap:round;stroke-linejoin:round;stroke-width:1.5px;}</style></defs><title>vr-user-play-1</title><path class="a" d="M15.75,17.25h6a1.5,1.5,0,0,0,1.5-1.5V2.25a1.5,1.5,0,0,0-1.5-1.5H8.25a1.5,1.5,0,0,0-1.5,1.5V6"/><path class="a" d="M11.25,7.5V6.106a.856.856,0,0,1,1.239-.765l5.788,2.894a.856.856,0,0,1,0,1.531L14.32,11.744"/><rect class="a" x="0.75" y="12.75" width="12" height="6" rx="1.5" ry="1.5"/><line class="a" x1="5.25" y1="15.75" x2="8.25" y2="15.75"/><path class="a" d="M1.622,12.888C2.1,10.412,3.921,9,6.75,9s4.655,1.412,5.128,3.888"/><path class="a" d="M11.143,18.75c-.87,2.395-2.377,4.5-4.393,4.5s-3.522-2.105-4.393-4.5"/></svg>