<svg xmlns="http://www.w3.org/2000/svg" viewBox="0 0 24 24"><defs><style>.a{fill:none;stroke:currentColor;stroke-linecap:round;stroke-linejoin:round;stroke-width:1.5px;}</style></defs><title>vr-user-globe-human</title><path class="a" d="M15.357,15.115C15,16.056,14.641,17.023,14.25,18h3v1.5a3,3,0,0,0,3,3h1.5v.75"/><path class="a" d="M23.25,4.816A7.667,7.667,0,0,0,21,5.8"/><path class="a" d="M17.25,6.75a6.226,6.226,0,0,0-2.25,6h8.25V9Z"/><circle class="a" cx="6.75" cy="6.75" r="6"/><path class="a" d="M5.114,12.525A6.015,6.015,0,0,0,5.25,11.25,6,6,0,0,0,.886,5.476"/><path class="a" d="M5.277.933c-.018.186-.027.376-.027.567a6.006,6.006,0,0,0,7.473,5.818"/></svg>