<svg xmlns="http://www.w3.org/2000/svg" viewBox="0 0 24 24"><defs><style>.a{fill:none;stroke:currentColor;stroke-linecap:round;stroke-linejoin:round;stroke-width:1.5px;}</style></defs><title>vr-user-controller</title><path class="a" d="M9.75,14.25h-6a3,3,0,0,0-3,3v4.609A1.391,1.391,0,0,0,2.141,23.25h0a1.39,1.39,0,0,0,1.244-.769L4.5,20.25H9l1.116,2.232a1.391,1.391,0,0,0,2.634-.623V17.25A3,3,0,0,0,9.75,14.25Z"/><line class="a" x1="3.75" y1="16.875" x2="3.75" y2="16.875"/><path class="a" d="M3.75,16.875a.375.375,0,1,0,.375.375.375.375,0,0,0-.375-.375"/><line class="a" x1="9.75" y1="16.875" x2="9.75" y2="16.875"/><path class="a" d="M9.75,16.875a.375.375,0,1,0,.375.375.375.375,0,0,0-.375-.375"/><path class="a" d="M6.75,14.25v-1.5a1.5,1.5,0,0,0-1.5-1.5H3a2.25,2.25,0,0,1,0-4.5h8.25"/><rect class="a" x="11.25" y="4.5" width="12" height="6" rx="1.5" ry="1.5"/><line class="a" x1="15.75" y1="7.5" x2="18.75" y2="7.5"/><path class="a" d="M12.122,4.638C12.6,2.162,14.421.75,17.25.75s4.655,1.412,5.128,3.888"/><path class="a" d="M21.643,10.5C20.773,12.9,19.266,15,17.25,15s-3.522-2.105-4.393-4.5"/></svg>