<svg xmlns="http://www.w3.org/2000/svg" viewBox="0 0 24 24"><defs><style>.a{fill:none;stroke:currentColor;stroke-linecap:round;stroke-linejoin:round;stroke-width:1.5px;}</style></defs><title>vr-user-box-1</title><rect class="a" x="11.25" y="14.25" width="12" height="6" rx="1.5" ry="1.5"/><line class="a" x1="14.25" y1="17.25" x2="20.25" y2="17.25"/><path class="a" d="M22.586,14.505a6,6,0,0,0-10.672,0"/><path class="a" d="M11.914,20a6,6,0,0,0,10.672,0"/><path class="a" d="M1.189,1.19a1.5,1.5,0,0,0,0,2.121L4.371,6.493,7.553,7.554,6.493,4.372,3.311,1.19A1.5,1.5,0,0,0,1.189,1.19Z"/><polygon class="a" points="6.75 18.75 0.75 16.5 0.75 9 6.75 11.25 6.75 18.75"/><polyline class="a" points="8.999 17.907 6.75 18.75 6.75 11.25 12.75 9"/></svg>