<svg xmlns="http://www.w3.org/2000/svg" viewBox="0 0 24 24"><defs><style>.a{fill:none;stroke:currentColor;stroke-linecap:round;stroke-linejoin:round;stroke-width:1.5px;}</style></defs><title>waiting-room-couple</title><circle class="a" cx="10.501" cy="7.125" r="2.625"/><circle class="a" cx="18.001" cy="7.125" r="2.625"/><path class="a" d="M20.25,21.75a1.5,1.5,0,0,0,3,0v-3a3,3,0,0,0-3-3h-1.5V13.125a1.5,1.5,0,0,0-3,0V17.25a1.5,1.5,0,0,0,1.5,1.5h3Z"/><path class="a" d="M11.251,11.625a1.5,1.5,0,0,0-1.5,1.5V15.75H4.5a1.5,1.5,0,0,0-1.342.829l-2.25,4.5a1.5,1.5,0,1,0,2.683,1.342L5.428,18.75H6.75v3a1.5,1.5,0,0,0,3,0v-3h1.5a1.5,1.5,0,0,0,1.5-1.5V13.125A1.5,1.5,0,0,0,11.251,11.625Z"/><path class="a" d="M5.25,9.75a4.5,4.5,0,1,1,2.25-8.4"/><polyline class="a" points="3.75 5.25 5.25 5.25 5.25 3.75"/></svg>