<svg xmlns="http://www.w3.org/2000/svg" viewBox="0 0 24 24"><defs><style>.a{fill:none;stroke:currentColor;stroke-linecap:round;stroke-linejoin:round;stroke-width:1.5px;}</style></defs><title>waiting-room-clock</title><circle class="a" cx="18.75" cy="5.253" r="4.5"/><polyline class="a" points="18.75 3.003 18.75 5.253 20.25 5.253"/><circle class="a" cx="6.75" cy="4.878" r="2.625"/><path class="a" d="M14.417,23.244a1.5,1.5,0,0,1-1.658-1.324l-.38-3.4a1.49,1.49,0,0,0-1.481-1.27H8.77a2.993,2.993,0,0,1-2.959-2.505L5.271,11.5a1.5,1.5,0,1,1,2.958-.492l.541,3.246H10.9a4.476,4.476,0,0,1,4.446,3.807c.006.042.021.152.024.2l.373,3.33A1.5,1.5,0,0,1,14.417,23.244Z"/><path class="a" d="M.75,23.253H8.882a.9.9,0,0,0,.9-1l-.136-1.219a.877.877,0,0,0-.872-.78,5.986,5.986,0,0,1-5.918-5.009l-.33-1.987A1.5,1.5,0,0,0,1.042,12H.75"/></svg>