<svg xmlns="http://www.w3.org/2000/svg" viewBox="0 0 24 24"><defs><style>.a{fill:none;stroke:currentColor;stroke-linecap:round;stroke-linejoin:round;stroke-width:1.5px;}</style></defs><title>waiting-room-read</title><circle class="a" cx="14.25" cy="7.128" r="2.625"/><path class="a" d="M9.365,12.788a4.49,4.49,0,0,1,3.385-1.535h3a4.49,4.49,0,0,1,3.385,1.535"/><polyline class="a" points="6.75 17.253 6.75 12.003 14.25 14.253 14.25 23.253 6.75 21.003 6.75 20.253"/><polyline class="a" points="21.75 17.253 21.75 12.003 14.25 14.253 14.25 23.253 21.75 21.003 21.75 20.253"/><path class="a" d="M6.75,20.253a1.5,1.5,0,0,1,0-3H7.5a.75.75,0,0,1,.75.75v1.5a.75.75,0,0,1-.75.75Z"/><path class="a" d="M21.75,20.253a1.5,1.5,0,0,0,0-3H21a.75.75,0,0,0-.75.75v1.5a.75.75,0,0,0,.75.75Z"/><circle class="a" cx="5.25" cy="5.253" r="4.5"/><polyline class="a" points="5.25 3.003 5.25 5.253 6.75 5.253"/></svg>