<svg xmlns="http://www.w3.org/2000/svg" viewBox="0 0 24 24"><defs><style>.a{fill:none;stroke:currentColor;stroke-linecap:round;stroke-linejoin:round;stroke-width:1.5px;}</style></defs><title>walking-fast</title><circle class="a" cx="14.655" cy="2.991" r="2.25"/><path class="a" d="M18.99,14.117a1.5,1.5,0,0,0-.459-1.726,1.606,1.606,0,0,1-.579-.991,4.633,4.633,0,0,0-3.217-3.651l-3.281-.985A4.68,4.68,0,0,0,6.1,8.839l-.977,1.63a1.5,1.5,0,1,0,2.572,1.543l.978-1.63a1.682,1.682,0,0,1,1.917-.745l-4.1,11.6a1.5,1.5,0,1,0,2.829,1L11.3,16.634l2.754,5.754a1.5,1.5,0,1,0,2.705-1.3l-4.048-8.457.754-2.136.409.123a1.613,1.613,0,0,1,1.121,1.27,4.588,4.588,0,0,0,1.665,2.845,1.5,1.5,0,0,0,2.332-.621Z"/></svg>