<svg xmlns="http://www.w3.org/2000/svg" viewBox="0 0 24 24"><defs><style>.a{fill:none;stroke:currentColor;stroke-linecap:round;stroke-linejoin:round;stroke-width:1.5px;}</style></defs><title>warehouse-1</title><path class="a" d="M.755,5V6.75a.75.75,0,0,0,.75.75h21a.75.75,0,0,0,.75-.75V5C18.912.349,5.127.32.755,5Z"/><line class="a" x1="1.505" y1="22.5" x2="1.505" y2="7.5"/><line class="a" x1="22.505" y1="22.5" x2="22.505" y2="7.5"/><path class="a" d="M4.505,22.5V12.75a1.5,1.5,0,0,1,1.5-1.5h12a1.5,1.5,0,0,1,1.5,1.5V22.5"/><line class="a" x1="4.668" y1="15" x2="19.342" y2="15"/><line class="a" x1="4.668" y1="18.75" x2="19.342" y2="18.75"/><line class="a" x1="0.755" y1="22.5" x2="23.255" y2="22.5"/><line class="a" x1="10.293" y1="4.5" x2="13.717" y2="4.5"/></svg>