<svg xmlns="http://www.w3.org/2000/svg" viewBox="0 0 24 24"><defs><style>.a{fill:none;stroke:currentColor;stroke-linecap:round;stroke-linejoin:round;stroke-width:1.5px;}</style></defs><title>warehouse-cart-worker</title><path class="a" d="M19.119,9.769a3.9,3.9,0,0,0-3.363,3.945V17.25h1.5V22.5a.75.75,0,0,0,.75.75h3a.75.75,0,0,0,.75-.75V17.25h1.5V13.5A3.752,3.752,0,0,0,19.119,9.769Z"/><circle class="a" cx="19.506" cy="3.75" r="3"/><path class="a" d="M13.506,9.75H12.468A1.5,1.5,0,0,0,11,10.936L9.26,19.064A1.5,1.5,0,0,1,7.793,20.25H.756"/><path class="a" d="M1.881,22.5a.375.375,0,1,1-.375.375.375.375,0,0,1,.375-.375"/><path class="a" d="M7.881,22.5a.375.375,0,1,1-.375.375.375.375,0,0,1,.375-.375"/><rect class="a" x="0.756" y="11.25" width="6" height="6" rx="0.75" ry="0.75"/><line class="a" x1="22.506" y1="3.75" x2="15.006" y2="3.75"/></svg>