<svg xmlns="http://www.w3.org/2000/svg" viewBox="0 0 24 24"><defs><style>.a{fill:none;stroke:currentColor;stroke-linecap:round;stroke-linejoin:round;stroke-width:1.5px;}</style></defs><title>warehouse-cart-packages-3</title><circle class="a" cx="5.256" cy="20.25" r="3"/><path class="a" d="M7.854,21.75h10.28a1.5,1.5,0,0,1,1.061.439l1.061,1.061"/><path class="a" d="M3.756.75h1.5a1.5,1.5,0,0,1,1.5,1.5v15.4"/><path class="a" d="M12.756,18.75h7.5a1.5,1.5,0,0,0,1.5-1.5v-6a1.5,1.5,0,0,0-1.5-1.5h-9v7.5A1.5,1.5,0,0,0,12.756,18.75Z"/><path class="a" d="M11.256,9.75h7.5V3.321A1.072,1.072,0,0,0,17.684,2.25H12.327a1.071,1.071,0,0,0-1.071,1.071Z"/><line class="a" x1="17.256" y1="15.75" x2="18.756" y2="15.75"/><line class="a" x1="14.256" y1="6.75" x2="15.756" y2="6.75"/></svg>