<svg xmlns="http://www.w3.org/2000/svg" viewBox="0 0 24 24"><defs><style>.a{fill:none;stroke:currentColor;stroke-linecap:round;stroke-linejoin:round;stroke-width:1.5px;}</style></defs><title>warehouse-packages</title><line class="a" x1="1.506" y1="22.5" x2="22.506" y2="22.5"/><line class="a" x1="1.506" y1="19.5" x2="22.506" y2="19.5"/><line class="a" x1="3.006" y1="19.5" x2="3.006" y2="22.5"/><line class="a" x1="21.006" y1="19.5" x2="21.006" y2="22.5"/><line class="a" x1="9.006" y1="19.5" x2="9.006" y2="22.5"/><line class="a" x1="15.006" y1="19.5" x2="15.006" y2="22.5"/><path class="a" d="M12.006,9h-7.5a1.5,1.5,0,0,0-1.5,1.5V15a1.5,1.5,0,0,0,1.5,1.5h6a1.5,1.5,0,0,0,1.5-1.5Z"/><path class="a" d="M19.506,9h-7.5v6a1.5,1.5,0,0,0,1.5,1.5h6a1.5,1.5,0,0,0,1.5-1.5V10.5A1.5,1.5,0,0,0,19.506,9Z"/><path class="a" d="M15.006,1.5h-6A1.5,1.5,0,0,0,7.506,3V9h9V3A1.5,1.5,0,0,0,15.006,1.5Z"/><line class="a" x1="12.006" y1="1.5" x2="12.006" y2="4.5"/><line class="a" x1="7.506" y1="9" x2="7.506" y2="12"/><line class="a" x1="16.506" y1="9" x2="16.506" y2="12"/></svg>