<svg xmlns="http://www.w3.org/2000/svg" viewBox="0 0 24 24"><defs><style>.a{fill:none;stroke:currentColor;stroke-linecap:round;stroke-linejoin:round;stroke-width:1.5px;}</style></defs><title>warehouse-cart-package-ribbon-1</title><path class="a" d="M12,20.774,3.762,19.038a1.954,1.954,0,0,0-1.784.531l-.717.717"/><path class="a" d="M15.646,17.335,18.992,2.28A1.954,1.954,0,0,1,20.9.75h1.852"/><circle class="a" cx="14.936" cy="20.25" r="3"/><path class="a" d="M9.115,16.823,3.163,15.4a1.5,1.5,0,0,1-1.11-1.807L4.666,2.652A1.5,1.5,0,0,1,6.474,1.541l7.3,1.743a1.5,1.5,0,0,1,1.11,1.807L12.961,13.12"/><rect class="a" x="8.099" y="2.351" width="3" height="4.5" transform="translate(1.332 -2.104) rotate(13.434)"/></svg>