<svg xmlns="http://www.w3.org/2000/svg" viewBox="0 0 24 24"><defs><style>.a{fill:none;stroke:currentColor;stroke-linecap:round;stroke-linejoin:round;stroke-width:1.5px;}</style></defs><title>warehouse-truck-delivery-1</title><path class="a" d="M14.658,20.25H13.506a1.5,1.5,0,0,1-1.5-1.5V13.663A8.418,8.418,0,0,1,13.284,9.2h0A8.414,8.414,0,0,1,20.418,5.25h0a1.338,1.338,0,0,1,1.338,1.337V12.75"/><circle class="a" cx="17.256" cy="18.75" r="3"/><path class="a" d="M9.006,2.25v18a1.5,1.5,0,0,1-1.5,1.5h-4.5"/><line class="a" x1="19.854" y1="20.25" x2="23.256" y2="20.25"/><line class="a" x1="9.006" y1="18.75" x2="12.006" y2="18.75"/><path class="a" d="M23.256,12.75h-1.5a3,3,0,0,0-3,3h0v.4"/><rect class="a" x="0.756" y="13.5" width="5.25" height="5.25" rx="0.5" ry="0.5"/></svg>