<svg xmlns="http://www.w3.org/2000/svg" viewBox="0 0 24 24"><defs><style>.a{fill:none;stroke:currentColor;stroke-linecap:round;stroke-linejoin:round;stroke-width:1.5px;}</style></defs><title>warehouse-delivery</title><line class="a" x1="18.957" y1="21" x2="15.554" y2="21"/><polyline class="a" points="12.957 21 11.255 21 11.255 14.25 20.255 14.25 20.255 20.25"/><path class="a" d="M20.255,20.25V15.959l1.622.5a1.883,1.883,0,0,1,1.378,1.769v2.311a.482.482,0,0,1-.5.462h-1.2"/><path class="a" d="M9.755,10.533V6.489A.489.489,0,0,0,9.266,6H5.745a.489.489,0,0,0-.49.489v4.044"/><polyline class="a" points="0.755 5.25 7.505 0.75 14.255 5.25"/><line class="a" x1="12.755" y1="10.532" x2="12.755" y2="4.25"/><line class="a" x1="2.255" y1="4.25" x2="2.258" y2="10.533"/><circle class="a" cx="14.255" cy="21.75" r="1.5"/><circle class="a" cx="20.255" cy="21.75" r="1.5"/><line class="a" x1="6.755" y1="12.75" x2="6.755" y2="13.5"/><line class="a" x1="6.755" y1="16.5" x2="6.755" y2="17.25"/><path class="a" d="M6.755,20.25a1.5,1.5,0,0,0,1.5,1.5"/></svg>