<svg xmlns="http://www.w3.org/2000/svg" viewBox="0 0 24 24"><defs><style>.a{fill:none;stroke:currentColor;stroke-linecap:round;stroke-linejoin:round;stroke-width:1.5px;}</style></defs><title>warehouse-storage-1</title><path class="a" d="M2.255,20.8H1.245a.489.489,0,0,1-.49-.489V14.446a11.25,11.25,0,1,1,22.5,0v5.869a.489.489,0,0,1-.489.489h-.978"/><path class="a" d="M12.005,14.8H6.755a.75.75,0,0,0-.75.75v4.5a.75.75,0,0,0,.75.75h5.25Z"/><path class="a" d="M17.255,14.8h-5.25v6h5.25a.749.749,0,0,0,.75-.75v-4.5A.75.75,0,0,0,17.255,14.8Z"/><path class="a" d="M14.255,8.8h-4.5a.75.75,0,0,0-.75.75V14.8h6V9.554A.75.75,0,0,0,14.255,8.8Z"/></svg>