<svg xmlns="http://www.w3.org/2000/svg" viewBox="0 0 24 24"><defs><style>.a{fill:none;stroke:currentColor;stroke-linecap:round;stroke-linejoin:round;stroke-width:1.5px;}</style></defs><title>warehouse-truck-delivery</title><path class="a" d="M23.256,19.5V14.25a1.5,1.5,0,0,0-1.5-1.5h-1.5v-6a1.5,1.5,0,0,0-1.5-1.5h-.889a9.609,9.609,0,0,0-7.233,3.282h0a9.611,9.611,0,0,0-2.378,6.329V18.75a1.5,1.5,0,0,0,1.5,1.5h1.152"/><circle class="a" cx="13.506" cy="18.75" r="3"/><circle class="a" cx="21.006" cy="19.5" r="2.25"/><path class="a" d="M5.256,2.25v18a1.5,1.5,0,0,1-1.5,1.5h-3"/><line class="a" x1="16.104" y1="20.25" x2="18.884" y2="20.25"/><line class="a" x1="5.256" y1="18.75" x2="8.256" y2="18.75"/><line class="a" x1="5.256" y1="15.75" x2="3.006" y2="15.75"/><path class="a" d="M20.256,12.75h-2.25a3,3,0,0,0-3,3h0v.4"/></svg>