<svg xmlns="http://www.w3.org/2000/svg" viewBox="0 0 24 24"><defs><style>.a{fill:none;stroke:currentColor;stroke-linecap:round;stroke-linejoin:round;stroke-width:1.5px;}</style></defs><title>warehouse-package-box</title><line class="a" x1="13.881" y1="2.25" x2="19.881" y2="4.5"/><path class="a" d="M9.385,7.682l5.063,2.587a1.728,1.728,0,0,1,.933,1.542v5.628a1.728,1.728,0,0,1-.933,1.542L9.385,21.568a1.653,1.653,0,0,1-1.509,0L2.813,18.981a1.729,1.729,0,0,1-.932-1.542V11.811a1.728,1.728,0,0,1,.933-1.542L7.876,7.682A1.653,1.653,0,0,1,9.385,7.682Z"/><polyline class="a" points="2.147 10.881 8.631 14.194 15.114 10.881"/><line class="a" x1="8.631" y1="14.194" x2="8.631" y2="21.75"/><path class="a" d="M13.131,23.25l5.207-2.893a3,3,0,0,0,1.543-2.622V4.5L22.131,3"/><polyline class="a" points="13.881 6.75 13.881 2.25 16.131 0.75"/></svg>