<svg xmlns="http://www.w3.org/2000/svg" viewBox="0 0 24 24"><defs><style>.a{fill:none;stroke:currentColor;stroke-linecap:round;stroke-linejoin:round;stroke-width:1.5px;}</style></defs><title>warehouse-settings</title><path class="a" d="M21.006,12v9.75a1.5,1.5,0,0,1-1.5,1.5H6.006a1.5,1.5,0,0,1-1.5-1.5v-9a1.5,1.5,0,0,1,1.5-1.5h2.25"/><circle class="a" cx="18.006" cy="5.25" r="2.7"/><line class="a" x1="18.006" y1="2.55" x2="18.006" y2="0.75"/><line class="a" x1="18.006" y1="9.75" x2="18.006" y2="7.95"/><line class="a" x1="20.706" y1="5.25" x2="22.506" y2="5.25"/><line class="a" x1="13.506" y1="5.25" x2="15.306" y2="5.25"/><line class="a" x1="15.242" y1="8.432" x2="16.317" y2="7.357"/><line class="a" x1="15.242" y1="2.068" x2="16.317" y2="3.143"/><line class="a" x1="20.77" y1="8.432" x2="19.695" y2="7.357"/><line class="a" x1="20.77" y1="2.068" x2="19.695" y2="3.143"/><circle class="a" cx="6.456" cy="4.8" r="3.3"/><line class="a" x1="4.123" y1="7.133" x2="1.506" y2="9.75"/><line class="a" x1="14.256" y1="20.25" x2="18.006" y2="20.25"/></svg>