<svg xmlns="http://www.w3.org/2000/svg" viewBox="0 0 24 24"><defs><style>.a{fill:none;stroke:currentColor;stroke-linecap:round;stroke-linejoin:round;stroke-width:1.5px;}</style></defs><title>warehouse-package</title><path class="a" d="M5.255,5.213v6a.75.75,0,0,0,.75.75h12a.75.75,0,0,0,.75-.75v-6"/><path class="a" d="M18.755,5.213H5.255s0-4.425,6.75-4.425C18.273.788,18.755,5.213,18.755,5.213Z"/><path class="a" d="M8.255,22.763a.477.477,0,0,1-.5.45h-5a.477.477,0,0,1-.5-.45v-3.6a.477.477,0,0,1,.5-.45h5a.476.476,0,0,1,.5.45Z"/><line class="a" x1="5.255" y1="18.713" x2="5.255" y2="20.213"/><path class="a" d="M21.755,22.763a.477.477,0,0,1-.5.45h-5a.477.477,0,0,1-.5-.45v-3.6a.477.477,0,0,1,.5-.45h5a.476.476,0,0,1,.5.45Z"/><line class="a" x1="18.755" y1="18.713" x2="18.755" y2="20.213"/><rect class="a" x="9.005" y="8.213" width="6" height="3.75"/><path class="a" d="M5.255,16.425V15.45a.488.488,0,0,1,.488-.487H18.268a.487.487,0,0,1,.487.487v.975"/><line class="a" x1="12.005" y1="14.963" x2="12.005" y2="11.963"/></svg>