<svg xmlns="http://www.w3.org/2000/svg" viewBox="0 0 24 24"><defs><style>.a{fill:none;stroke:currentColor;stroke-linecap:round;stroke-linejoin:round;stroke-width:1.5px;}</style></defs><title>warehouse-cart</title><circle class="a" cx="3.006" cy="21" r="2.25"/><path class="a" d="M5.127,20.25H9.756l-1.1-5.512A2.472,2.472,0,0,0,6.229,12.75h0a2.473,2.473,0,0,0-2.472,2.473v3.656"/><path class="a" d="M9.756,20.25h12a1.5,1.5,0,0,0,0-3H9.156"/><path class="a" d="M15.884,20.25a2.251,2.251,0,1,0,4.243,0"/><line class="a" x1="6.006" y1="12.75" x2="6.006" y2="0.75"/><path class="a" d="M8.254,6.75h-4.5a1.5,1.5,0,0,1-1.342-.829l-1.5-3A1.5,1.5,0,0,1,2.258.75h7.5A1.5,1.5,0,0,1,11.1,2.921l-1.5,3A1.5,1.5,0,0,1,8.254,6.75Z"/></svg>