<svg xmlns="http://www.w3.org/2000/svg" viewBox="0 0 24 24"><defs><style>.a{fill:none;stroke:currentColor;stroke-linecap:round;stroke-linejoin:round;stroke-width:1.5px;}</style></defs><title>warehouse</title><path class="a" d="M.755,6.75h22.5a0,0,0,0,1,0,0v15.5a1,1,0,0,1-1,1H1.755a1,1,0,0,1-1-1V6.75A0,0,0,0,1,.755,6.75Z"/><path class="a" d="M.755,6.75c0-3.314,5.037-6,11.25-6s11.25,2.686,11.25,6"/><line class="a" x1="10.505" y1="3.75" x2="13.505" y2="3.75"/><path class="a" d="M5.005,11.25h14a.5.5,0,0,1,.5.5v11.5a0,0,0,0,1,0,0h-15a0,0,0,0,1,0,0V11.75A.5.5,0,0,1,5.005,11.25Z"/><line class="a" x1="7.505" y1="15.75" x2="16.505" y2="15.75"/><line class="a" x1="7.505" y1="19.5" x2="16.505" y2="19.5"/></svg>