<svg xmlns="http://www.w3.org/2000/svg" viewBox="0 0 24 24"><defs><style>.a{fill:none;stroke:currentColor;stroke-linecap:round;stroke-linejoin:round;stroke-width:1.5px;}</style></defs><title>warehouse-cart-packages-1</title><circle class="a" cx="3.006" cy="21.75" r="1.5"/><circle class="a" cx="19.506" cy="21.75" r="1.5"/><path class="a" d="M3.756,3l.372-1.118A1.657,1.657,0,0,1,5.7.75h0a1.656,1.656,0,0,1,1.65,1.8L3.006,18h19.5V6a1.5,1.5,0,0,0-1.5-1.5H6.806"/><path class="a" d="M8.256,18h7.5V12H9.327a1.071,1.071,0,0,0-1.071,1.071Z"/><line class="a" x1="11.256" y1="15" x2="12.756" y2="15"/><path class="a" d="M15.756,9.75H18.97a.535.535,0,0,1,.535.535V18a0,0,0,0,1,0,0h-3.75a0,0,0,0,1,0,0V9.75A0,0,0,0,1,15.756,9.75Z"/><path class="a" d="M10.256,7.5h5a.5.5,0,0,1,.5.5v4a0,0,0,0,1,0,0h-6a0,0,0,0,1,0,0V8A.5.5,0,0,1,10.256,7.5Z"/></svg>