<svg xmlns="http://www.w3.org/2000/svg" viewBox="0 0 24 24"><defs><style>.a{fill:none;stroke:currentColor;stroke-linecap:round;stroke-linejoin:round;stroke-width:1.5px;}</style></defs><title>warehouse-package-search</title><path class="a" d="M12.756,6.26a.484.484,0,0,1-.3.426.717.717,0,0,1-.6-.006L9.756,5.654,7.664,6.68a.717.717,0,0,1-.6.006.483.483,0,0,1-.3-.426V.75h6Z"/><path class="a" d="M6.006,17.25H1.714a.965.965,0,0,1-.958-.971V1.721A.965.965,0,0,1,1.714.75H17.8a.965.965,0,0,1,.959.971V6"/><circle class="a" cx="15.006" cy="15" r="6"/><line class="a" x1="23.256" y1="23.25" x2="19.248" y2="19.242"/><line class="a" x1="18.006" y1="12.75" x2="18.006" y2="16.5"/><line class="a" x1="15.006" y1="12.75" x2="15.006" y2="16.5"/><line class="a" x1="12.006" y1="12.75" x2="12.006" y2="13.5"/><line class="a" x1="12.006" y1="15.75" x2="12.006" y2="16.5"/></svg>