<svg xmlns="http://www.w3.org/2000/svg" viewBox="0 0 24 24"><defs><style>.a{fill:none;stroke:currentColor;stroke-linecap:round;stroke-linejoin:round;stroke-width:1.5px;}</style></defs><title>warehouse-storage</title><path class="a" d="M12.005,17.25H6.755a.75.75,0,0,0-.75.75v4.5a.75.75,0,0,0,.75.75h5.25Z"/><path class="a" d="M17.255,17.25h-5.25v6h5.25a.75.75,0,0,0,.75-.75V18A.75.75,0,0,0,17.255,17.25Z"/><path class="a" d="M14.255,11.25h-4.5a.75.75,0,0,0-.75.75v5.25h6V12A.75.75,0,0,0,14.255,11.25Z"/><path class="a" d="M.755,6.75h22.5a0,0,0,0,1,0,0v15.5a1,1,0,0,1-1,1H1.755a1,1,0,0,1-1-1V6.75A0,0,0,0,1,.755,6.75Z"/><path class="a" d="M.755,6.75c0-3.314,5.037-6,11.25-6s11.25,2.686,11.25,6"/></svg>