<svg id="Regular" xmlns="http://www.w3.org/2000/svg" viewBox="0 0 24 24"><defs><style>.cls-1{fill:none;stroke:currentColor;stroke-linecap:round;stroke-linejoin:round;stroke-width:1.5px;}</style></defs><title>water-protection-drop-hold</title><path class="cls-1" d="M3.751,23.25,1.737,20.869a4.5,4.5,0,0,1-.986-2.811V12.886a1.5,1.5,0,0,1,1.5-1.5h0a1.5,1.5,0,0,1,1.5,1.5v3.75"/><path class="cls-1" d="M8.251,23.25v-3a4.506,4.506,0,0,0-.757-2.5L6.351,16.04A1.4,1.4,0,0,0,4.374,15.6h0A1.4,1.4,0,0,0,3.9,17.386l1.352,2.25"/><path class="cls-1" d="M20.251,23.25l2.014-2.381a4.5,4.5,0,0,0,.986-2.811V12.886a1.5,1.5,0,0,0-1.5-1.5h0a1.5,1.5,0,0,0-1.5,1.5v3.75"/><path class="cls-1" d="M15.751,23.25v-3a4.5,4.5,0,0,1,.757-2.5L17.65,16.04a1.4,1.4,0,0,1,1.977-.445h0a1.4,1.4,0,0,1,.476,1.791l-1.352,2.25"/><path class="cls-1" d="M16.463,9.037a4.463,4.463,0,1,1-8.925,0C7.538,5.212,11.363.75,12,.75S16.463,5.212,16.463,9.037Z"/><path class="cls-1" d="M12,10.5A1.5,1.5,0,0,1,10.5,9"/></svg>