<svg id="Regular" xmlns="http://www.w3.org/2000/svg" viewBox="0 0 24 24"><defs><style>.cls-1{fill:none;stroke:currentColor;stroke-linecap:round;stroke-linejoin:round;stroke-width:1.5px;}</style></defs><title>water-pitcher</title><path class="cls-1" d="M2.25,15V9.75a1.5,1.5,0,0,1,1.5-1.5H8.069"/><path class="cls-1" d="M19.671,4.016l0-.517.371-1.873A.767.767,0,0,0,18.789.933L15.431,3.441a1.556,1.556,0,0,1-.934.309H10.175A1.527,1.527,0,0,0,8.659,5L7.034,13.944a17.579,17.579,0,0,0-.171,5.135l.019.168a4.57,4.57,0,0,0,4.58,4h5.575a4.57,4.57,0,0,0,4.58-4l.02-.175a17.58,17.58,0,0,0-.168-5.12Z"/><line class="cls-1" x1="6.751" y1="17.25" x2="21.749" y2="17.25"/></svg>