<svg xmlns="http://www.w3.org/2000/svg" viewBox="0 0 24 24"><defs><style>.a{fill:none;stroke:currentColor;stroke-linecap:round;stroke-linejoin:round;stroke-width:1.5px;}</style></defs><title>water-fountain-drink</title><path class="a" d="M23.25,18.75a6,6,0,0,1-6-6h6"/><path class="a" d="M21.75,12.75v-.427h0Zm0-3.427V8.25a3.033,3.033,0,0,0-.03-.427h0a3.033,3.033,0,0,1,.03.427Zm-6-1.073h0a3.013,3.013,0,0,1,.366-1.438A3.013,3.013,0,0,0,15.75,8.25ZM20,5.521A2.984,2.984,0,0,0,18.75,5.25c-.082,0-.15,0-.214.008h0c.064,0,.132-.007.214-.008A2.968,2.968,0,0,1,20,5.521Z"/><circle class="a" cx="11.25" cy="3.375" r="2.625"/><path class="a" d="M2.25,23.25a1.5,1.5,0,0,1-1.5-1.5V15.378a4.5,4.5,0,0,1,1.115-2.965l4.506-5.15A1.5,1.5,0,0,1,8.979,8l.453,2.719A1.5,1.5,0,0,0,10.438,11.9l2.787.929a1.5,1.5,0,0,1-.95,2.845l-2.786-.929a4.491,4.491,0,0,1-2.932-3.136L4.122,14.389a1.5,1.5,0,0,0-.372.989V21.75A1.5,1.5,0,0,1,2.25,23.25Z"/></svg>