<svg id="Regular" xmlns="http://www.w3.org/2000/svg" viewBox="0 0 24 24"><defs><style>.cls-1{fill:none;stroke:currentColor;stroke-linecap:round;stroke-linejoin:round;stroke-width:1.5px;}</style></defs><title>water-protection-fish</title><path class="cls-1" d="M.75,4.8a5.511,5.511,0,0,0,4.5-1.5A4.547,4.547,0,0,0,12,3.3a4.547,4.547,0,0,0,6.75,0,5.511,5.511,0,0,0,4.5,1.5"/><path class="cls-1" d="M2.329,19.879C7.148,15.06,8.7,12.7,13.053,12.7a8.783,8.783,0,0,1,7.2,3.776,8.78,8.78,0,0,1-7.2,3.776c-4.227,0-5.675-2.132-10.773-7.229"/><path class="cls-1" d="M15,15.676a.375.375,0,0,1-.375.375"/><path class="cls-1" d="M14.625,15.3a.375.375,0,0,1,.375.375"/><path class="cls-1" d="M14.25,15.676a.375.375,0,0,1,.375-.375"/><path class="cls-1" d="M14.625,16.051a.375.375,0,0,1-.375-.375"/><path class="cls-1" d="M21.375,13.051A.375.375,0,0,1,21,12.676"/><path class="cls-1" d="M21.75,12.676a.375.375,0,0,1-.375.375"/><path class="cls-1" d="M21.375,12.3a.375.375,0,0,1,.375.375"/><path class="cls-1" d="M21,12.676a.375.375,0,0,1,.375-.375"/><path class="cls-1" d="M19.875,8.551a.375.375,0,0,1-.375-.375"/><path class="cls-1" d="M20.25,8.176a.375.375,0,0,1-.375.375"/><path class="cls-1" d="M19.875,7.8a.375.375,0,0,1,.375.375"/><path class="cls-1" d="M19.5,8.176a.375.375,0,0,1,.375-.375"/></svg>