<svg id="Regular" xmlns="http://www.w3.org/2000/svg" viewBox="0 0 24 24"><defs><style>.cls-1{fill:none;stroke:currentColor;stroke-linecap:round;stroke-linejoin:round;stroke-width:1.5px;}</style></defs><title>water-container</title><rect class="cls-1" x="6.75" y="12.75" width="10.5" height="10.5" rx="0.5" ry="0.5"/><rect class="cls-1" x="9.75" y="9.75" width="4.5" height="3"/><path class="cls-1" d="M8.75.75h6.5a.5.5,0,0,1,.5.5v7.5a1,1,0,0,1-1,1H9.25a1,1,0,0,1-1-1V1.25A.5.5,0,0,1,8.75.75Z"/><line class="cls-1" x1="6.75" y1="15.75" x2="17.25" y2="15.75"/><polygon class="cls-1" points="14.25 18.75 9.75 18.75 10.5 23.25 13.5 23.25 14.25 18.75"/><line class="cls-1" x1="8.25" y1="6.75" x2="11.25" y2="6.75"/><line class="cls-1" x1="8.25" y1="3.75" x2="11.25" y2="3.75"/></svg>