<svg xmlns="http://www.w3.org/2000/svg" viewBox="0 0 24 24"><defs><style>.a{fill:none;stroke:currentColor;stroke-linecap:round;stroke-linejoin:round;stroke-width:1.5px;}</style></defs><title>water-dam</title><path class="a" d="M15,13.5l4.915-2.457A.75.75,0,0,1,21,11.714V21.75a1.5,1.5,0,0,1-1.5,1.5H3a1.5,1.5,0,0,1-1.5-1.5V13.5L3.623,3.593A.75.75,0,0,1,4.356,3H6.144a.75.75,0,0,1,.733.593L9,13.5l4.915-2.457A.75.75,0,0,1,15,11.714V13.5"/><line class="a" x1="9" y1="17.25" x2="12" y2="17.25"/><line class="a" x1="9" y1="20.25" x2="12" y2="20.25"/><line class="a" x1="15" y1="17.25" x2="18" y2="17.25"/><line class="a" x1="15" y1="20.25" x2="18" y2="20.25"/><path class="a" d="M9.005.869A6.954,6.954,0,0,1,12,1.491C19.429,4.662,22.5.75,22.5.75"/></svg>