<svg id="Regular" xmlns="http://www.w3.org/2000/svg" viewBox="0 0 24 24"><defs><style>.cls-1{fill:none;stroke:currentColor;stroke-linecap:round;stroke-linejoin:round;stroke-width:1.5px;}</style></defs><title>water-pitcher-2</title><path class="cls-1" d="M16.5,21.75H8.864a1.5,1.5,0,0,1-1.493-1.358L6,6,3,2.25l15,1.5v16.5A1.5,1.5,0,0,1,16.5,21.75Z"/><path class="cls-1" d="M18,3.75h2.25a3,3,0,0,1,3,3V9a6,6,0,0,1-1.485,3.951L18,17.25"/><line class="cls-1" x1="7.5" y1="18" x2="18" y2="18"/><path class="cls-1" d="M3.75,10.5a1.5,1.5,0,0,1-3,0,17.382,17.382,0,0,1,1.5-3.75A17.382,17.382,0,0,1,3.75,10.5Z"/></svg>