<svg xmlns="http://www.w3.org/2000/svg" viewBox="0 0 24 24"><defs><style>.a{fill:none;stroke:currentColor;stroke-linecap:round;stroke-linejoin:round;stroke-width:1.5px;}</style></defs><title>water-fountain-jet</title><path class="a" d="M21,9.75a1.5,1.5,0,0,0-1.5-1.5H1.5v15H6v-7.5a3,3,0,0,1,3-3H19.5a1.5,1.5,0,0,0,1.5-1.5Z"/><path class="a" d="M1.5,8.25A7.5,7.5,0,0,1,9,.75h6a3,3,0,0,1-3,3H10.5A4.5,4.5,0,0,0,6,8.25Z"/><line class="a" x1="15.75" y1="15.75" x2="19.5" y2="15.75"/><line class="a" x1="18" y1="18.75" x2="18" y2="23.25"/><line class="a" x1="21" y1="18.75" x2="22.5" y2="22.5"/><line class="a" x1="15" y1="18.75" x2="13.5" y2="22.5"/></svg>