<svg id="Regular" xmlns="http://www.w3.org/2000/svg" viewBox="0 0 24 24"><defs><style>.cls-1{fill:none;stroke:currentColor;stroke-linecap:round;stroke-linejoin:round;stroke-width:1.5px;}</style></defs><title>water-glass-half-full</title><path class="cls-1" d="M18.75,21a2.25,2.25,0,0,1-4.5,0,2.25,2.25,0,0,1-4.5,0,2.25,2.25,0,0,1-4.5,0V17.25a6.066,6.066,0,0,0,0-6V9.75c0-2.9,2.35-6,5.25-6h3c2.9,0,5.25,3.1,5.25,6v1.5a6.059,6.059,0,0,0,0,6Z"/><rect class="cls-1" x="10.5" y="0.75" width="3" height="3"/><line class="cls-1" x1="5.25" y1="11.25" x2="18.75" y2="11.25"/><line class="cls-1" x1="5.25" y1="17.25" x2="18.75" y2="17.25"/></svg>