<svg xmlns="http://www.w3.org/2000/svg" viewBox="0 0 24 24"><defs><style>.a{fill:none;stroke:currentColor;stroke-linecap:round;stroke-linejoin:round;stroke-width:1.5px;}</style></defs><title>water-fountain-drop</title><path class="a" d="M13.125.75a7.509,7.509,0,0,0-7.5,7.5V19.007a4.5,4.5,0,0,0-3,4.243h9a4.5,4.5,0,0,0-3-4.243V8.25a4.5,4.5,0,0,1,9,0V9a1.5,1.5,0,0,0,3,0V8.25A7.509,7.509,0,0,0,13.125.75Z"/><line class="a" x1="8.625" y1="17.25" x2="11.625" y2="17.25"/><path class="a" d="M21.375,18a2.25,2.25,0,0,1-4.5,0c0-1.242,2.25-4.5,2.25-4.5S21.375,16.758,21.375,18Z"/></svg>