<svg xmlns="http://www.w3.org/2000/svg" viewBox="0 0 24 24"><defs><style>.a{fill:none;stroke:currentColor;stroke-linecap:round;stroke-linejoin:round;stroke-width:1.5px;}</style></defs><title>water-fountain-fill</title><path class="a" d="M23.25,5.25h-18v-3A1.5,1.5,0,0,1,6.75.75h16.5"/><path class="a" d="M5.25,5.25h6a0,0,0,0,1,0,0v2a1,1,0,0,1-1,1h-4a1,1,0,0,1-1-1v-2A0,0,0,0,1,5.25,5.25Z"/><path class="a" d="M14.25,11.25,12.914,21.936a1.5,1.5,0,0,1-1.488,1.314H3.574a1.5,1.5,0,0,1-1.488-1.314L.75,11.25"/><path class="a" d="M5.25,17.625A.375.375,0,1,1,4.875,18a.375.375,0,0,1,.375-.375"/><path class="a" d="M9.75,17.625A.375.375,0,1,1,9.375,18a.375.375,0,0,1,.375-.375"/><path class="a" d="M7.5,13.125a.375.375,0,1,1-.375.375.375.375,0,0,1,.375-.375"/></svg>