<svg id="Regular" xmlns="http://www.w3.org/2000/svg" viewBox="0 0 24 24"><defs><style>.cls-1{fill:none;stroke:currentColor;stroke-linecap:round;stroke-linejoin:round;stroke-width:1.5px;}</style></defs><title>water-bottle</title><path class="cls-1" d="M14.25,3.875V2.25a1.5,1.5,0,0,0-1.5-1.5h-1.5a1.5,1.5,0,0,0-1.5,1.5V3.875"/><path class="cls-1" d="M10.939,3.75A5.689,5.689,0,0,0,5.25,9.439a.751.751,0,0,0,.22.531l.75.75a.749.749,0,0,1,0,1.06l-.75.75a.751.751,0,0,0-.22.531v2.378a.751.751,0,0,0,.22.531l.75.75a.749.749,0,0,1,0,1.06l-.75.75a.751.751,0,0,0-.22.531V21.75a1.5,1.5,0,0,0,1.5,1.5h10.5a1.5,1.5,0,0,0,1.5-1.5V19.061a.751.751,0,0,0-.22-.531l-.75-.75a.749.749,0,0,1,0-1.06l.75-.75a.751.751,0,0,0,.22-.531V13.061a.751.751,0,0,0-.22-.531l-.75-.75a.749.749,0,0,1,0-1.06l.75-.75a.751.751,0,0,0,.22-.531A5.689,5.689,0,0,0,13.061,3.75Z"/><line class="cls-1" x1="6.439" y1="11.25" x2="17.561" y2="11.25"/><line class="cls-1" x1="6.439" y1="17.25" x2="17.561" y2="17.25"/></svg>