<svg id="Regular" xmlns="http://www.w3.org/2000/svg" viewBox="0 0 24 24"><defs><style>.cls-1{fill:none;stroke:currentColor;stroke-linecap:round;stroke-linejoin:round;stroke-width:1.5px;}</style></defs><title>water-bottle-1</title><path class="cls-1" d="M14.441,4.97a1.5,1.5,0,0,1-.191-.732V1.5A.75.75,0,0,0,13.5.75h-3a.75.75,0,0,0-.75.75V4.238a1.5,1.5,0,0,1-.191.732L7.95,7.847A7.785,7.785,0,0,0,6.75,12h0v9.333a1.481,1.481,0,0,0,1.132,1.455,18.584,18.584,0,0,0,8.236,0,1.481,1.481,0,0,0,1.132-1.455V12h0a7.785,7.785,0,0,0-1.2-4.153Z"/><line class="cls-1" x1="9.75" y1="3.75" x2="14.25" y2="3.75"/></svg>