<svg id="Regular" xmlns="http://www.w3.org/2000/svg" viewBox="0 0 24 24"><defs><style>.cls-1{fill:none;stroke:currentColor;stroke-linecap:round;stroke-linejoin:round;stroke-width:1.5px;}</style></defs><title>weather-app-sun-location</title><path class="cls-1" d="M11.585,18.737A6.75,6.75,0,1,1,17.554,8.162"/><line class="cls-1" x1="12" y1="2.25" x2="12" y2="0.75"/><line class="cls-1" x1="18.894" y1="5.106" x2="19.955" y2="4.045"/><line class="cls-1" x1="12" y1="21.75" x2="12" y2="23.25"/><line class="cls-1" x1="5.106" y1="18.894" x2="4.045" y2="19.955"/><line class="cls-1" x1="2.25" y1="12" x2="0.75" y2="12"/><line class="cls-1" x1="5.106" y1="5.106" x2="4.045" y2="4.045"/><path class="cls-1" d="M18.75,15.449a.375.375,0,0,1,.375.375"/><path class="cls-1" d="M18.375,15.824a.375.375,0,0,1,.375-.375"/><path class="cls-1" d="M18.75,16.2a.375.375,0,0,1-.375-.375"/><path class="cls-1" d="M19.125,15.824a.375.375,0,0,1-.375.375"/><path class="cls-1" d="M18.75,11.324a4.5,4.5,0,0,1,4.5,4.5c0,1.921-2.688,5.576-3.909,7.138a.751.751,0,0,1-1.182,0c-1.221-1.562-3.909-5.217-3.909-7.138A4.5,4.5,0,0,1,18.75,11.324Z"/></svg>