<svg id="Regular" xmlns="http://www.w3.org/2000/svg" viewBox="0 0 24 24"><defs><style>.cls-1,.cls-2{fill:none;stroke:currentColor;stroke-linecap:round;stroke-linejoin:round;stroke-width:1.5px;}.cls-1{fill-rule:evenodd;}</style></defs><title>weather-cloud-thunder-rain</title><polyline class="cls-1" points="13.409 14.684 10.409 17.684 14.909 17.684 11.159 21.434"/><circle class="cls-2" cx="4.409" cy="21.434" r="0.375"/><circle class="cls-2" cx="16.409" cy="21.434" r="0.375"/><path class="cls-2" d="M10.409,8.684a5.993,5.993,0,0,0,.047.75,5.993,5.993,0,0,1-.047-.75,5.848,5.848,0,0,1,.113-1.122"/><path class="cls-2" d="M16.409,14.684a6,6,0,1,0-5.887-7.122,3.745,3.745,0,1,0-1.613,7.122Z"/><line class="cls-2" x1="8.159" y1="17.684" x2="4.674" y2="21.169"/><line class="cls-2" x1="20.159" y1="17.684" x2="16.674" y2="21.169"/></svg>