<svg id="Regular" xmlns="http://www.w3.org/2000/svg" viewBox="0 0 24 24"><defs><style>.cls-1{fill:none;stroke:currentColor;stroke-linecap:round;stroke-linejoin:round;stroke-width:1.5px;}</style></defs><title>weather-cloud-wind-4</title><path class="cls-1" d="M8.641,8.508A6.871,6.871,0,0,0,8.7,9.4a6.687,6.687,0,0,1,.081-2.223"/><path class="cls-1" d="M18.2,15.287A7.148,7.148,0,0,0,23.25,8.508,7.317,7.317,0,0,0,8.779,7.175a4.62,4.62,0,0,0-1.964-.448A4.51,4.51,0,0,0,2.25,11.18a4.38,4.38,0,0,0,.065.755"/><path class="cls-1" d="M.75,18.287h12a1.5,1.5,0,0,1,1.5,1.5h0a1.5,1.5,0,0,1-1.5,1.5H12"/><path class="cls-1" d="M.75,15.287H9a1.5,1.5,0,0,0,1.5-1.5h0a1.5,1.5,0,0,0-1.5-1.5H8.25"/></svg>