<svg id="Regular" xmlns="http://www.w3.org/2000/svg" viewBox="0 0 24 24"><defs><style>.cls-1,.cls-2{fill:none;stroke:currentColor;stroke-linecap:round;stroke-linejoin:round;stroke-width:1.5px;}.cls-2{fill-rule:evenodd;}</style></defs><title>weather-snow-thunder</title><path class="cls-1" d="M20.25,17.96a6,6,0,1,0-8.887-6.32A3.745,3.745,0,1,0,9.75,18.763"/><line class="cls-1" x1="8.25" y1="3.762" x2="8.25" y2="0.762"/><line class="cls-1" x1="3.75" y1="8.262" x2="0.75" y2="8.262"/><line class="cls-1" x1="11.432" y1="5.081" x2="13.553" y2="2.959"/><line class="cls-1" x1="5.068" y1="5.081" x2="2.947" y2="2.959"/><path class="cls-1" d="M4.5,10.747a4.5,4.5,0,1,1,7.65-4.736"/><polyline class="cls-2" points="16.5 15.013 12.75 18.763 17.25 18.763 12.75 23.263"/><path class="cls-1" d="M9,22.138a.374.374,0,0,1,.375.375"/><path class="cls-1" d="M8.625,22.513A.374.374,0,0,1,9,22.138"/><path class="cls-1" d="M9,22.888a.375.375,0,0,1-.375-.375"/><path class="cls-1" d="M9.375,22.513A.375.375,0,0,1,9,22.888"/><path class="cls-1" d="M18.75,22.138a.374.374,0,0,1,.375.375"/><path class="cls-1" d="M18.375,22.513a.374.374,0,0,1,.375-.375"/><path class="cls-1" d="M18.75,22.888a.375.375,0,0,1-.375-.375"/><path class="cls-1" d="M19.125,22.513a.375.375,0,0,1-.375.375"/><path class="cls-1" d="M11.25,12.763a5.993,5.993,0,0,0,.047.75,5.993,5.993,0,0,1-.047-.75,5.85,5.85,0,0,1,.113-1.123"/></svg>