<svg id="Regular" xmlns="http://www.w3.org/2000/svg" viewBox="0 0 24 24"><defs><style>.cls-1{fill:none;stroke:currentColor;stroke-linecap:round;stroke-linejoin:round;stroke-width:1.5px;}</style></defs><title>weather-wind-1</title><line class="cls-1" x1="15.75" y1="3.75" x2="15.75" y2="0.75"/><line class="cls-1" x1="20.25" y1="8.25" x2="23.25" y2="8.25"/><line class="cls-1" x1="12.568" y1="5.068" x2="10.447" y2="2.947"/><line class="cls-1" x1="18.932" y1="5.068" x2="21.053" y2="2.947"/><path class="cls-1" d="M19.5,10.734A4.5,4.5,0,1,0,11.853,6"/><path class="cls-1" d="M.853,13.841a6,6,0,0,1,11.784-2.233,3.744,3.744,0,0,1,5.02,4.941"/><path class="cls-1" d="M12.75,12.73a5.993,5.993,0,0,1-.047.75,5.993,5.993,0,0,0,.047-.75,5.832,5.832,0,0,0-.113-1.122"/><path class="cls-1" d="M.75,20.25h12a1.5,1.5,0,0,1,1.5,1.5h0a1.5,1.5,0,0,1-1.5,1.5H12"/><path class="cls-1" d="M.75,17.25H9a1.5,1.5,0,0,0,1.5-1.5h0A1.5,1.5,0,0,0,9,14.25H8.25"/></svg>