<svg id="Regular" xmlns="http://www.w3.org/2000/svg" viewBox="0 0 24 24"><defs><style>.cls-1{fill:none;stroke:currentColor;stroke-linecap:round;stroke-linejoin:round;stroke-width:1.5px;}</style></defs><title>weather-app-rain-location</title><path class="cls-1" d="M18.75,15.449a.375.375,0,0,1,.375.375"/><path class="cls-1" d="M18.375,15.824a.375.375,0,0,1,.375-.375"/><path class="cls-1" d="M18.75,16.2a.375.375,0,0,1-.375-.375"/><path class="cls-1" d="M19.125,15.824a.375.375,0,0,1-.375.375"/><path class="cls-1" d="M18.75,11.324a4.5,4.5,0,0,1,4.5,4.5c0,1.921-2.688,5.576-3.909,7.138a.751.751,0,0,1-1.182,0c-1.221-1.561-3.909-5.217-3.909-7.138A4.5,4.5,0,0,1,18.75,11.324Z"/><line class="cls-1" x1="6.75" y1="15.75" x2="4.5" y2="18"/><line class="cls-1" x1="10.5" y1="15.75" x2="8.25" y2="18"/><line class="cls-1" x1="3" y1="15.75" x2="0.75" y2="18"/><path class="cls-1" d="M6.75,6.75A5.993,5.993,0,0,0,6.8,7.5a5.993,5.993,0,0,1-.047-.75,5.848,5.848,0,0,1,.113-1.122"/><path class="cls-1" d="M18.555,8.273A6,6,0,1,0,6.863,5.628,3.745,3.745,0,1,0,5.25,12.75h5.219"/></svg>