<svg id="Regular" xmlns="http://www.w3.org/2000/svg" viewBox="0 0 24 24"><defs><style>.cls-1{fill:none;stroke:currentColor;stroke-linecap:round;stroke-linejoin:round;stroke-width:1.5px;}</style></defs><title>weather-clouds</title><path class="cls-1" d="M11.276,16.184a5.993,5.993,0,0,0,.047.75,5.993,5.993,0,0,1-.047-.75,5.929,5.929,0,0,1,.113-1.122"/><path class="cls-1" d="M17.276,22.184a6,6,0,1,0-5.887-7.122,3.745,3.745,0,1,0-1.613,7.122Z"/><path class="cls-1" d="M6.026,8.684a5.993,5.993,0,0,0,.047.75,5.993,5.993,0,0,1-.047-.75,5.929,5.929,0,0,1,.113-1.122"/><path class="cls-1" d="M17.835,7.176a6,6,0,0,0-11.7.386,3.745,3.745,0,1,0-1.613,7.122"/></svg>