<svg id="Regular" xmlns="http://www.w3.org/2000/svg" viewBox="0 0 24 24"><defs><style>.cls-1{fill:none;stroke:currentColor;stroke-linecap:round;stroke-linejoin:round;stroke-width:1.5px;}</style></defs><title>weather-night-cloudy</title><path class="cls-1" d="M3.29,14.791A5.982,5.982,0,0,1,.735,12.825a5.579,5.579,0,0,0,3.391-.441A5.625,5.625,0,0,0,6.808,4.895a5.586,5.586,0,0,0-1.2-1.645,5.977,5.977,0,0,1,5.886,5.23"/><path class="cls-1" d="M11.235,15.23a6.19,6.19,0,0,0,.046.75,6.19,6.19,0,0,1-.046-.75,5.832,5.832,0,0,1,.113-1.122"/><path class="cls-1" d="M17.235,21.23a6,6,0,1,0-5.887-7.122A3.745,3.745,0,1,0,9.735,21.23Z"/></svg>