<svg id="Regular" xmlns="http://www.w3.org/2000/svg" viewBox="0 0 24 24"><defs><style>.cls-1,.cls-2{fill:none;stroke:currentColor;stroke-linecap:round;stroke-linejoin:round;stroke-width:1.5px;}.cls-1{fill-rule:evenodd;}</style></defs><title>weather-cloud-hail</title><path class="cls-1" d="M5.232,20.739a.375.375,0,0,1,.375.375"/><path class="cls-1" d="M4.857,21.114a.375.375,0,0,1,.375-.375"/><path class="cls-1" d="M5.232,21.489a.375.375,0,0,1-.375-.375"/><path class="cls-1" d="M5.607,21.114a.375.375,0,0,1-.375.375"/><path class="cls-2" d="M9.732,8.364a5.993,5.993,0,0,0,.047.75,5.993,5.993,0,0,1-.047-.75,5.921,5.921,0,0,1,.113-1.122"/><path class="cls-2" d="M15.732,14.364A6,6,0,1,0,9.845,7.242a3.745,3.745,0,1,0-1.613,7.122Z"/><line class="cls-2" x1="8.982" y1="17.364" x2="5.497" y2="20.849"/><path class="cls-1" d="M9.732,20.739a.375.375,0,0,1,.375.375"/><path class="cls-1" d="M9.357,21.114a.375.375,0,0,1,.375-.375"/><path class="cls-1" d="M9.732,21.489a.375.375,0,0,1-.375-.375"/><path class="cls-1" d="M10.107,21.114a.375.375,0,0,1-.375.375"/><line class="cls-2" x1="13.482" y1="17.364" x2="9.997" y2="20.849"/><path class="cls-1" d="M14.232,20.739a.375.375,0,0,1,.375.375"/><path class="cls-1" d="M13.857,21.114a.375.375,0,0,1,.375-.375"/><path class="cls-1" d="M14.232,21.489a.375.375,0,0,1-.375-.375"/><path class="cls-1" d="M14.607,21.114a.375.375,0,0,1-.375.375"/><line class="cls-2" x1="17.982" y1="17.364" x2="14.497" y2="20.849"/></svg>