<svg id="Regular" xmlns="http://www.w3.org/2000/svg" viewBox="0 0 24 24"><defs><style>.cls-1{fill:none;stroke:currentColor;stroke-linecap:round;stroke-linejoin:round;stroke-width:1.5px;}</style></defs><title>weather-app-sun-coudy</title><path class="cls-1" d="M12.75,15.75v4.767a2.732,2.732,0,0,1-2.733,2.733H3.483A2.732,2.732,0,0,1,.75,20.517V4.983A2.732,2.732,0,0,1,3.483,2.25H6"/><line class="cls-1" x1="0.75" y1="18.75" x2="12.75" y2="18.75"/><path class="cls-1" d="M15.424,8.269a3.665,3.665,0,0,0,.03.471,3.665,3.665,0,0,1-.03-.471,3.564,3.564,0,0,1,.074-.7"/><path class="cls-1" d="M19.337,12A3.834,3.834,0,0,0,23.25,8.25a3.928,3.928,0,0,0-7.752-.7,2.511,2.511,0,0,0-1.052-.237A2.4,2.4,0,0,0,12,9.656,2.4,2.4,0,0,0,14.446,12Z"/><path class="cls-1" d="M10.564,6.835a2.7,2.7,0,0,1,4.1-3.494"/><line class="cls-1" x1="12.75" y1="2.55" x2="12.75" y2="0.75"/><line class="cls-1" x1="10.05" y1="5.25" x2="8.25" y2="5.25"/><line class="cls-1" x1="10.841" y1="3.341" x2="9.15" y2="1.65"/></svg>