<svg id="Regular" xmlns="http://www.w3.org/2000/svg" viewBox="0 0 24 24"><defs><style>.cls-1{fill:none;stroke:currentColor;stroke-linecap:round;stroke-linejoin:round;stroke-width:1.5px;}</style></defs><title>weather-night-windy</title><path class="cls-1" d="M20.677,12.285a5.982,5.982,0,0,0,2.555-1.966A5.6,5.6,0,0,1,18.361.744a5.977,5.977,0,0,0-5.886,5.23"/><path class="cls-1" d="M.835,13.836a6.084,6.084,0,0,1-.1-1.112A6,6,0,0,1,12.619,11.6a3.723,3.723,0,0,1,5.229,2.374"/><path class="cls-1" d="M12.732,12.724a5.993,5.993,0,0,1-.046.75,5.993,5.993,0,0,0,.046-.75,5.848,5.848,0,0,0-.113-1.122"/><line class="cls-1" x1="5.232" y1="20.224" x2="23.119" y2="20.224"/><line class="cls-1" x1="0.732" y1="17.224" x2="18.619" y2="17.224"/><line class="cls-1" x1="0.732" y1="23.224" x2="18.619" y2="23.224"/></svg>