<svg id="Regular" xmlns="http://www.w3.org/2000/svg" viewBox="0 0 24 24"><defs><style>.cls-1,.cls-2{fill:none;stroke:currentColor;stroke-linejoin:round;stroke-width:1.5px;}.cls-1{stroke-linecap:round;}</style></defs><title>weather-app-rain-umbrella</title><path class="cls-1" d="M12.75,13.5v7.017a2.732,2.732,0,0,1-2.733,2.733H3.483A2.732,2.732,0,0,1,.75,20.517V4.983A2.732,2.732,0,0,1,3.483,2.25H8.25"/><line class="cls-1" x1="0.75" y1="18.75" x2="12.75" y2="18.75"/><path class="cls-2" d="M16.5,9.75c.409-1.669,3.268-1.669,3.677,0,.013-1.682,3.076-1.669,3.065,0A6.892,6.892,0,0,0,16.5,2.25a6.892,6.892,0,0,0-6.742,7.5c-.011-1.669,3.052-1.682,3.065,0C13.232,8.081,16.091,8.081,16.5,9.75Z"/><line class="cls-1" x1="16.5" y1="2.25" x2="16.5" y2="0.75"/><path class="cls-1" d="M16.5,9.75V15a1.5,1.5,0,0,0,3,0"/></svg>