<svg id="Regular" xmlns="http://www.w3.org/2000/svg" viewBox="0 0 24 24"><defs><style>.cls-1{fill:none;stroke:currentColor;stroke-linecap:round;stroke-linejoin:round;stroke-width:1.5px;}</style></defs><title>weather-app-sunny</title><circle class="cls-1" cx="15.75" cy="6.75" r="2.25"/><line class="cls-1" x1="15.75" y1="2.25" x2="15.75" y2="0.75"/><line class="cls-1" x1="20.25" y1="6.75" x2="21.75" y2="6.75"/><line class="cls-1" x1="15.75" y1="11.25" x2="15.75" y2="12.75"/><line class="cls-1" x1="11.25" y1="6.75" x2="9.75" y2="6.75"/><line class="cls-1" x1="12.568" y1="3.568" x2="11.507" y2="2.507"/><line class="cls-1" x1="18.932" y1="3.568" x2="19.993" y2="2.507"/><line class="cls-1" x1="18.932" y1="9.932" x2="19.993" y2="10.993"/><line class="cls-1" x1="12.568" y1="9.932" x2="11.507" y2="10.993"/><path class="cls-1" d="M14.25,15.75v4.767a2.732,2.732,0,0,1-2.733,2.733H4.983A2.732,2.732,0,0,1,2.25,20.517V4.983A2.732,2.732,0,0,1,4.983,2.25H8.25"/><line class="cls-1" x1="2.25" y1="18.75" x2="14.25" y2="18.75"/></svg>