<svg id="Regular" xmlns="http://www.w3.org/2000/svg" viewBox="0 0 24 24"><defs><style>.cls-1,.cls-2{fill:none;stroke:currentColor;stroke-linecap:round;stroke-linejoin:round;stroke-width:1.5px;}.cls-2{fill-rule:evenodd;}</style></defs><title>weather-night-snow-thunder</title><path class="cls-1" d="M3.29,12.311A5.982,5.982,0,0,1,.735,10.345,5.586,5.586,0,0,0,4.126,9.9a5.626,5.626,0,0,0,2.682-7.49A5.586,5.586,0,0,0,5.606.77,5.977,5.977,0,0,1,11.492,6"/><path class="cls-1" d="M20.235,17.947a6,6,0,1,0-8.887-6.319A3.745,3.745,0,1,0,9.735,18.75"/><polyline class="cls-2" points="16.485 15 12.735 18.75 17.235 18.75 13.485 22.5"/><path class="cls-1" d="M8.61,22.5a.375.375,0,0,1,.375.375"/><path class="cls-1" d="M8.235,22.875A.375.375,0,0,1,8.61,22.5"/><path class="cls-1" d="M8.61,23.25a.375.375,0,0,1-.375-.375"/><path class="cls-1" d="M8.985,22.875a.375.375,0,0,1-.375.375"/><path class="cls-1" d="M18.36,22.5a.375.375,0,0,1,.375.375"/><path class="cls-1" d="M17.985,22.875a.375.375,0,0,1,.375-.375"/><path class="cls-1" d="M18.36,23.25a.375.375,0,0,1-.375-.375"/><path class="cls-1" d="M18.735,22.875a.375.375,0,0,1-.375.375"/><path class="cls-1" d="M11.235,12.75a6.19,6.19,0,0,0,.046.75,6.19,6.19,0,0,1-.046-.75,5.848,5.848,0,0,1,.113-1.122"/></svg>