<svg id="Regular" xmlns="http://www.w3.org/2000/svg" viewBox="0 0 24 24"><defs><style>.cls-1,.cls-2{fill:none;stroke:currentColor;stroke-linecap:round;stroke-linejoin:round;stroke-width:1.5px;}.cls-2{fill-rule:evenodd;}</style></defs><title>weather-night-thunder-rain</title><line class="cls-1" x1="19.235" y1="20.98" x2="16.985" y2="23.23"/><line class="cls-1" x1="10.235" y1="20.98" x2="7.985" y2="23.23"/><polyline class="cls-2" points="16.235 14.98 12.485 18.73 16.985 18.73 13.235 22.48"/><path class="cls-1" d="M3.486,12.291A5.991,5.991,0,0,1,.93,10.325a5.579,5.579,0,0,0,3.391-.441A5.625,5.625,0,0,0,7,2.4,5.6,5.6,0,0,0,5.8.75a5.977,5.977,0,0,1,5.886,5.23"/><path class="cls-1" d="M19.985,17.927A6,6,0,1,0,11.1,11.608,3.745,3.745,0,1,0,9.485,18.73"/><path class="cls-1" d="M10.985,12.73a6.19,6.19,0,0,0,.046.75,6.19,6.19,0,0,1-.046-.75,5.832,5.832,0,0,1,.113-1.122"/></svg>