<svg id="Regular" xmlns="http://www.w3.org/2000/svg" viewBox="0 0 24 24"><defs><style>.cls-1{fill:none;stroke:currentColor;stroke-linecap:round;stroke-linejoin:round;stroke-width:1.5px;}</style></defs><title>weather-cloud-hurricane</title><path class="cls-1" d="M17.787,10.684a6,6,0,1,0-11.7-2.622,3.745,3.745,0,1,0-1.613,7.122"/><path class="cls-1" d="M8.976,14.111c8.25,3.75,6.75-3,14.25.75"/><path class="cls-1" d="M8.976,17.111c8.25,3.75,6.75-3,14.25.75"/><path class="cls-1" d="M8.976,20.111c8.25,3.75,6.75-3,14.25.75"/><path class="cls-1" d="M5.976,9.184a5.993,5.993,0,0,0,.047.75,5.993,5.993,0,0,1-.047-.75,5.848,5.848,0,0,1,.113-1.122"/></svg>