<svg id="Regular" xmlns="http://www.w3.org/2000/svg" viewBox="0 0 24 24"><defs><style>.cls-1{fill:none;stroke:currentColor;stroke-linecap:round;stroke-linejoin:round;stroke-width:1.5px;}</style></defs><title>weather-cloud-wind</title><path class="cls-1" d="M8.641,10.309A6.9,6.9,0,0,0,8.7,11.2a6.9,6.9,0,0,1-.057-.891,6.808,6.808,0,0,1,.138-1.332"/><path class="cls-1" d="M18.2,17.089a7.15,7.15,0,0,0,5.051-6.78A7.317,7.317,0,0,0,8.779,8.977a4.621,4.621,0,0,0-1.964-.449A4.51,4.51,0,0,0,2.25,12.981a4.371,4.371,0,0,0,.065.755"/><line class="cls-1" x1="0.75" y1="16.684" x2="12" y2="16.684"/><line class="cls-1" x1="5.25" y1="19.684" x2="16.5" y2="19.684"/><line class="cls-1" x1="0.75" y1="22.684" x2="12" y2="22.684"/></svg>