<svg id="Regular" xmlns="http://www.w3.org/2000/svg" viewBox="0 0 24 24"><defs><style>.cls-1{fill:none;stroke:currentColor;stroke-linecap:round;stroke-linejoin:round;stroke-width:1.5px;}</style></defs><title>weather-night-wind-1</title><path class="cls-1" d="M20.677,12.275a5.982,5.982,0,0,0,2.555-1.966A5.6,5.6,0,0,1,18.361.734a5.977,5.977,0,0,0-5.886,5.23"/><path class="cls-1" d="M.835,13.826a6.084,6.084,0,0,1-.1-1.112,6,6,0,0,1,11.887-1.122,3.744,3.744,0,0,1,5.02,4.941"/><path class="cls-1" d="M12.732,12.714a5.993,5.993,0,0,1-.046.75,5.993,5.993,0,0,0,.046-.75,5.848,5.848,0,0,0-.113-1.122"/><path class="cls-1" d="M.732,20.234h12a1.5,1.5,0,0,1,1.5,1.5h0a1.5,1.5,0,0,1-1.5,1.5h-.75"/><path class="cls-1" d="M.732,17.234h8.25a1.5,1.5,0,0,0,1.5-1.5h0a1.5,1.5,0,0,0-1.5-1.5h-.75"/></svg>