<svg id="Regular" xmlns="http://www.w3.org/2000/svg" viewBox="0 0 24 24"><defs><style>.cls-1,.cls-2{fill:none;stroke:currentColor;stroke-linecap:round;stroke-linejoin:round;stroke-width:1.5px;}.cls-2{fill-rule:evenodd;}</style></defs><title>weather-rain</title><line class="cls-1" x1="8.25" y1="3.775" x2="8.25" y2="0.775"/><line class="cls-1" x1="3.75" y1="8.275" x2="0.75" y2="8.275"/><line class="cls-1" x1="11.432" y1="5.093" x2="13.553" y2="2.972"/><line class="cls-1" x1="5.068" y1="5.093" x2="2.947" y2="2.972"/><path class="cls-1" d="M4.5,10.759a4.5,4.5,0,1,1,7.65-4.736"/><path class="cls-2" d="M9.375,22.525a.375.375,0,0,1,.375.375"/><path class="cls-2" d="M9,22.9a.375.375,0,0,1,.375-.375"/><path class="cls-2" d="M9.375,23.275A.375.375,0,0,1,9,22.9"/><path class="cls-2" d="M9.75,22.9a.375.375,0,0,1-.375.375"/><path class="cls-2" d="M13.875,22.525a.375.375,0,0,1,.375.375"/><path class="cls-2" d="M13.5,22.9a.375.375,0,0,1,.375-.375"/><path class="cls-2" d="M13.875,23.275A.375.375,0,0,1,13.5,22.9"/><path class="cls-2" d="M14.25,22.9a.375.375,0,0,1-.375.375"/><path class="cls-1" d="M20.25,17.972a6,6,0,1,0-8.887-6.319A3.745,3.745,0,1,0,9.75,18.775"/><path class="cls-1" d="M11.25,12.775a5.993,5.993,0,0,0,.047.75,5.993,5.993,0,0,1-.047-.75,5.848,5.848,0,0,1,.113-1.122"/><line class="cls-1" x1="13.5" y1="18.775" x2="9.64" y2="22.635"/><line class="cls-1" x1="18" y1="18.775" x2="14.14" y2="22.635"/></svg>