<svg id="Regular" xmlns="http://www.w3.org/2000/svg" viewBox="0 0 24 24"><defs><style>.cls-1{fill:none;stroke:currentColor;stroke-linecap:round;stroke-linejoin:round;stroke-width:1.5px;}</style></defs><title>weather-app-rain</title><path class="cls-1" d="M14,15.75v4.767a2.732,2.732,0,0,1-2.733,2.733H4.733A2.732,2.732,0,0,1,2,20.517V4.983A2.732,2.732,0,0,1,4.733,2.25H8"/><line class="cls-1" x1="2" y1="18.75" x2="14" y2="18.75"/><line class="cls-1" x1="13.25" y1="11.25" x2="14.669" y2="8.917"/><line class="cls-1" x1="16.25" y1="11.25" x2="17.75" y2="8.958"/><path class="cls-1" d="M13.438,5.25a4.524,4.524,0,0,0,.034.562,4.524,4.524,0,0,1-.034-.562,4.411,4.411,0,0,1,.084-.842"/><path class="cls-1" d="M20.253,9.109a4.5,4.5,0,1,0-6.731-4.7,2.808,2.808,0,0,0-2.755,4.879"/></svg>