<svg id="Regular" xmlns="http://www.w3.org/2000/svg" viewBox="0 0 24 24"><defs><style>.cls-1{fill:none;stroke:currentColor;stroke-linecap:round;stroke-linejoin:round;stroke-width:1.5px;}</style></defs><title>weather-night-wind</title><path class="cls-1" d="M20.7,12.291a5.982,5.982,0,0,0,2.555-1.966A5.6,5.6,0,0,1,18.379.75a5.977,5.977,0,0,0-5.887,5.23"/><path class="cls-1" d="M.853,13.841a6,6,0,0,1,11.784-2.233,3.744,3.744,0,0,1,5.02,4.941"/><path class="cls-1" d="M12.75,12.73a5.993,5.993,0,0,1-.047.75,5.993,5.993,0,0,0,.047-.75,5.832,5.832,0,0,0-.113-1.122"/><line class="cls-1" x1="5.25" y1="20.23" x2="16.5" y2="20.23"/><line class="cls-1" x1="0.75" y1="17.23" x2="12" y2="17.23"/><line class="cls-1" x1="0.75" y1="23.23" x2="12" y2="23.23"/></svg>