<svg id="Regular" xmlns="http://www.w3.org/2000/svg" viewBox="0 0 24 24"><defs><style>.cls-1{fill:none;stroke:currentColor;stroke-linecap:round;stroke-linejoin:round;stroke-width:1.5px;}</style></defs><title>weather-app-sun-cloud-location</title><path class="cls-1" d="M8.25,9.75a5.993,5.993,0,0,0,.047.75,5.993,5.993,0,0,1-.047-.75,5.848,5.848,0,0,1,.113-1.122"/><path class="cls-1" d="M20.144,8.62a6,6,0,0,0-11.781.008A3.745,3.745,0,1,0,6.75,15.75h4.5"/><path class="cls-1" d="M18.75,15.449a.375.375,0,0,1,.375.375"/><path class="cls-1" d="M18.375,15.824a.375.375,0,0,1,.375-.375"/><path class="cls-1" d="M18.75,16.2a.374.374,0,0,1-.375-.375"/><path class="cls-1" d="M19.125,15.824a.374.374,0,0,1-.375.375"/><path class="cls-1" d="M18.75,11.324a4.5,4.5,0,0,1,4.5,4.5c0,1.921-2.688,5.576-3.909,7.138a.751.751,0,0,1-1.182,0c-1.221-1.562-3.909-5.218-3.909-7.139A4.5,4.5,0,0,1,18.75,11.324Z"/><path class="cls-1" d="M3.064,6.836a2.7,2.7,0,0,1,4.1-3.495"/><line class="cls-1" x1="5.25" y1="2.55" x2="5.25" y2="0.75"/><line class="cls-1" x1="2.55" y1="5.25" x2="0.75" y2="5.25"/><line class="cls-1" x1="3.341" y1="3.341" x2="1.65" y2="1.65"/></svg>