<svg id="Regular" xmlns="http://www.w3.org/2000/svg" viewBox="0 0 24 24"><defs><style>.cls-1{fill:none;stroke:currentColor;stroke-linecap:round;stroke-linejoin:round;stroke-width:1.5px;}</style></defs><title>weather-cloud-rainbow</title><path class="cls-1" d="M.776,2.684A12.369,12.369,0,0,1,11.4,8.705"/><path class="cls-1" d="M.776,5.684a9.372,9.372,0,0,1,8.117,4.681"/><path class="cls-1" d="M.776,8.684A6.375,6.375,0,0,1,6.4,12.055"/><path class="cls-1" d="M11.276,16.184a5.993,5.993,0,0,0,.047.75,5.993,5.993,0,0,1-.047-.75,5.929,5.929,0,0,1,.113-1.122"/><path class="cls-1" d="M17.276,22.184a6,6,0,1,0-5.887-7.122,3.745,3.745,0,1,0-1.613,7.122Z"/></svg>