<svg id="Regular" xmlns="http://www.w3.org/2000/svg" viewBox="0 0 24 24"><defs><style>.cls-1{fill:none;stroke:currentColor;stroke-linecap:round;stroke-linejoin:round;stroke-width:1.5px;}</style></defs><title>weather-app-snow</title><path class="cls-1" d="M14.25,15.75v4.767a2.732,2.732,0,0,1-2.733,2.733H4.983A2.732,2.732,0,0,1,2.25,20.517V4.983A2.732,2.732,0,0,1,4.983,2.25H8.25"/><line class="cls-1" x1="2.25" y1="18.75" x2="14.25" y2="18.75"/><polyline class="cls-1" points="13.5 2.25 15.75 3.75 18 2.25"/><line class="cls-1" x1="15.75" y1="12.75" x2="15.75" y2="0.75"/><polyline class="cls-1" points="13.5 11.25 15.75 9.75 18 11.25"/><polyline class="cls-1" points="20.25 4.5 18.75 6.75 20.25 9"/><line class="cls-1" x1="9.75" y1="6.75" x2="21.75" y2="6.75"/><polyline class="cls-1" points="11.25 4.5 12.75 6.75 11.25 9"/></svg>