<svg id="Regular" xmlns="http://www.w3.org/2000/svg" viewBox="0 0 24 24"><defs><style>.cls-1,.cls-2{fill:none;stroke:currentColor;stroke-linecap:round;stroke-linejoin:round;stroke-width:1.5px;}.cls-2{fill-rule:evenodd;}</style></defs><title>weather-cloud-snow-thunder</title><path class="cls-1" d="M9.159,8.309a5.993,5.993,0,0,0,.047.75,5.993,5.993,0,0,1-.047-.75,5.848,5.848,0,0,1,.113-1.122"/><path class="cls-1" d="M15.159,14.309A6,6,0,1,0,9.272,7.187a3.745,3.745,0,1,0-1.613,7.122Z"/><polyline class="cls-2" points="12.159 14.309 9.159 17.309 13.659 17.309 9.909 21.059"/><path class="cls-1" d="M5.784,20.684a.375.375,0,0,1,.375.375"/><path class="cls-1" d="M5.409,21.059a.375.375,0,0,1,.375-.375"/><path class="cls-1" d="M5.784,21.434a.375.375,0,0,1-.375-.375"/><path class="cls-1" d="M6.159,21.059a.375.375,0,0,1-.375.375"/><path class="cls-1" d="M15.534,20.684a.375.375,0,0,1,.375.375"/><path class="cls-1" d="M15.159,21.059a.375.375,0,0,1,.375-.375"/><path class="cls-1" d="M15.534,21.434a.375.375,0,0,1-.375-.375"/><path class="cls-1" d="M15.909,21.059a.375.375,0,0,1-.375.375"/></svg>