<svg id="Regular" xmlns="http://www.w3.org/2000/svg" viewBox="0 0 24 24"><defs><style>.cls-1{fill:none;stroke:currentColor;stroke-linecap:round;stroke-linejoin:round;stroke-width:1.5px;}</style></defs><title>weather-cloud-thunder</title><path class="cls-1" d="M8.658,6.75A5.993,5.993,0,0,0,8.7,7.5a5.993,5.993,0,0,1-.046-.75,5.848,5.848,0,0,1,.113-1.122"/><path class="cls-1" d="M15.568,12.681a6,6,0,1,0-6.8-7.053A3.745,3.745,0,1,0,7.158,12.75h1.5"/><path class="cls-1" d="M12.408,12.75l-5.36,5.36a.375.375,0,0,0,.265.64H9.408v4.5l5.359-5.36a.375.375,0,0,0-.265-.64H12.408Z"/></svg>