<svg id="Regular" xmlns="http://www.w3.org/2000/svg" viewBox="0 0 24 24"><defs><style>.cls-1{fill:none;stroke:currentColor;stroke-linecap:round;stroke-linejoin:round;stroke-width:1.5px;}</style></defs><title>weather-clouds-rainbow</title><path class="cls-1" d="M22.149,7.947a12.367,12.367,0,0,0-20.246,0"/><path class="cls-1" d="M19.974,10.122a9.336,9.336,0,0,0-15.9,0"/><path class="cls-1" d="M17.421,11.676a6.359,6.359,0,0,0-10.794.008"/><path class="cls-1" d="M20.276,16.184a5.993,5.993,0,0,0,.047.75,5.993,5.993,0,0,1-.047-.75,5.929,5.929,0,0,1,.113-1.122"/><path class="cls-1" d="M23.276,10.989a6.015,6.015,0,0,0-2.887,4.073,3.745,3.745,0,1,0-1.613,7.122h4.5"/><path class="cls-1" d="M3.776,16.184a5.993,5.993,0,0,1-.046.75,5.993,5.993,0,0,0,.046-.75,5.848,5.848,0,0,0-.113-1.122"/><path class="cls-1" d="M.776,10.989a6.009,6.009,0,0,1,2.887,4.073,3.745,3.745,0,1,1,1.613,7.122H.776"/></svg>