<svg id="Regular" xmlns="http://www.w3.org/2000/svg" viewBox="0 0 24 24"><defs><style>.cls-1,.cls-2{fill:none;stroke:currentColor;stroke-linecap:round;stroke-linejoin:round;stroke-width:1.5px;}.cls-2{fill-rule:evenodd;}</style></defs><title>weather-rain-thunder</title><line class="cls-1" x1="19.5" y1="21" x2="17.25" y2="23.25"/><line class="cls-1" x1="10.5" y1="21" x2="8.25" y2="23.25"/><line class="cls-1" x1="8.25" y1="3.75" x2="8.25" y2="0.75"/><line class="cls-1" x1="3.75" y1="8.25" x2="0.75" y2="8.25"/><line class="cls-1" x1="11.432" y1="5.068" x2="13.553" y2="2.947"/><line class="cls-1" x1="5.068" y1="5.068" x2="2.947" y2="2.947"/><path class="cls-1" d="M4.5,10.734A4.5,4.5,0,1,1,12.147,6"/><polyline class="cls-2" points="16.5 15 12.75 18.75 17.25 18.75 13.5 22.5"/><path class="cls-1" d="M20.25,17.947a6,6,0,1,0-8.887-6.319A3.745,3.745,0,1,0,9.75,18.75"/><path class="cls-1" d="M11.25,12.75a5.993,5.993,0,0,0,.047.75,5.993,5.993,0,0,1-.047-.75,5.848,5.848,0,0,1,.113-1.122"/></svg>