<svg id="Regular" xmlns="http://www.w3.org/2000/svg" viewBox="0 0 24 24"><defs><style>.cls-1{fill:none;stroke:#000;stroke-linecap:round;stroke-linejoin:round;stroke-width:1.5px;}</style></defs><title>web-service-baidu</title><path class="cls-1" d="M6.27,8.85c.12,1.67-.79,3.1-2,3.19s-2.33-1.2-2.45-2.87.79-3.1,2-3.19,2.33,1.2,2.45,2.87m10.2-7.63C15.27.91,14,2,13.55,3.6S13.78,6.79,15,7.1s2.51-.76,2.92-2.38a3.13,3.13,0,0,0-1.42-3.49M19.9,7.63c-1.25,0-2.25,1.21-2.22,3.06s1.06,2.69,2.32,2.67,2.25-.89,2.22-2.74a2.89,2.89,0,0,0-2.32-3M9.19.75C8,.75,7,2.1,7,3.76s1,3,2.17,3,2.17-1.35,2.17-3-1-3-2.17-3M9.06,11.92c-2.75,3.95-5.68,4.46-5.68,7.34,0,1.42.81,3.79,3.12,3.79s3.43-.51,5.25-.51,3,.71,5.35.71a3.39,3.39,0,0,0,3.27-3.61c-.2-3-3.09-2.76-6-7.93a2.83,2.83,0,0,0-2.61-1.22,3.12,3.12,0,0,0-2.69,1.42"/></svg>