<svg id="Regular" xmlns="http://www.w3.org/2000/svg" viewBox="0 0 24 24"><defs><style>.cls-1{fill:none;stroke:#000;stroke-linecap:round;stroke-linejoin:round;stroke-width:1.5px;}</style></defs><title>web-service-ning</title><path class="cls-1" d="M14,7.19a.75.75,0,1,1,.75-.75.75.75,0,0,1-.75.75"/><path class="cls-1" d="M9.55,7.19a.75.75,0,1,1,.75-.75.75.75,0,0,1-.75.75"/><path class="cls-1" d="M16.4,2.48a.75.75,0,1,1,.75-.75.75.75,0,0,1-.75.75"/><path class="cls-1" d="M7.59,2.48a.75.75,0,1,1,.75-.75.75.75,0,0,1-.75.75"/><path class="cls-1" d="M16.4,23a.75.75,0,1,1,.75-.75.75.75,0,0,1-.75.75"/><path class="cls-1" d="M7.59,23a.75.75,0,1,1,.75-.75.75.75,0,0,1-.75.75"/><path class="cls-1" d="M22.27,17.15A.75.75,0,1,1,23,16.4a.75.75,0,0,1-.75.75"/><path class="cls-1" d="M22.27,8.35A.75.75,0,1,1,23,7.6a.75.75,0,0,1-.75.75"/><path class="cls-1" d="M1.72,17.15a.75.75,0,1,1,.75-.75.75.75,0,0,1-.75.75"/><path class="cls-1" d="M1.72,8.35a.75.75,0,1,1,.75-.75.75.75,0,0,1-.75.75"/><path class="cls-1" d="M14,17.95a.75.75,0,1,1,.75-.75.75.75,0,0,1-.75.75"/><path class="cls-1" d="M9.55,17.95a.75.75,0,1,1,.75-.75.75.75,0,0,1-.75.75"/><path class="cls-1" d="M17.13,14.77a.75.75,0,1,1,.75-.75.75.75,0,0,1-.75.75"/><path class="cls-1" d="M17.13,10.37a.75.75,0,1,1,.75-.75.75.75,0,0,1-.75.75"/><path class="cls-1" d="M6.37,14.77A.75.75,0,1,1,7.12,14a.75.75,0,0,1-.75.75"/><path class="cls-1" d="M6.37,10.37a.75.75,0,1,1,.75-.75.75.75,0,0,1-.75.75"/></svg>