<svg id="Regular" xmlns="http://www.w3.org/2000/svg" viewBox="0 0 24 24"><defs><style>.cls-1{fill:none;stroke:#000;stroke-linecap:round;stroke-linejoin:round;stroke-width:1.5px;}</style></defs><title>web-service-treehouse</title><path id="Oval-1" class="cls-1" d="M15.54,8.65c-.46.95.07,1.92.66,2.79.82,1.2,2,2.21,2.09,2.68a1.8,1.8,0,0,1-1.19,2c-.76.22-1.87-.24-1.87-1.13a3.6,3.6,0,0,0-.55-2c-.17-.17-1.15.45-1.45,1.46a5.84,5.84,0,0,0-.32,2,1.71,1.71,0,0,1-.58,2.43,2.35,2.35,0,0,1-2.79-.64A1.7,1.7,0,0,1,10.3,16a44.39,44.39,0,0,0,1.85-4.93c-1.46,2.88-2.38,1.33-3.38,3.32a1.47,1.47,0,0,1-.37.46,1.39,1.39,0,0,1-2-.22,1.51,1.51,0,0,1,.21-2.08,1.39,1.39,0,0,1,.59-.3A6.89,6.89,0,0,0,10.09,10,4.58,4.58,0,0,1,8,10.4a1.25,1.25,0,0,1-1.78-.3,1.43,1.43,0,0,1,.35-1.9A1.24,1.24,0,0,1,7.34,8c1,0,4.22.74,5.65-1.77L14,4.26c.58-1.06.54-2.22-.1-2.59L12.79,1a2.31,2.31,0,0,0-2.11,0L2.78,5.62A2.39,2.39,0,0,0,1.73,7.49v9a2.39,2.39,0,0,0,1.05,1.87L10.69,23a2.3,2.3,0,0,0,2.11,0l8.33-4.63a2.49,2.49,0,0,0,1.14-1.87v-9A2.49,2.49,0,0,0,21.13,5.6l-1.3-.76C18.24,3.91,16.24,7.38,15.54,8.65Z"/></svg>