<svg id="Regular" xmlns="http://www.w3.org/2000/svg" viewBox="0 0 24 24"><defs><style>.cls-1{fill:none;stroke:#000;stroke-linecap:round;stroke-linejoin:round;stroke-width:1.5px;}</style></defs><title>web-service-squarespace</title><path class="cls-1" d="M14.94,6.48,7.08,14.34a3.56,3.56,0,0,1-5-5L7.8,3.56a3.56,3.56,0,0,1,5,0l.23.23"/><path class="cls-1" d="M4.37,12.07l7.5-7.49a3.56,3.56,0,0,1,5,0"/><path class="cls-1" d="M9,17.56l7.9-7.9a3.56,3.56,0,0,1,5,5L16.2,20.45a3.56,3.56,0,0,1-5,0l-.23-.23"/><path class="cls-1" d="M19.57,12l-7.43,7.43a3.56,3.56,0,0,1-5,0"/></svg>