<svg id="Regular" xmlns="http://www.w3.org/2000/svg" viewBox="0 0 24 24"><defs><style>.cls-1{fill:none;stroke:#000;stroke-linecap:round;stroke-linejoin:round;stroke-width:1.5px;}</style></defs><title>web-service-dzone</title><circle class="cls-1" cx="21.78" cy="7.6" r="1.47"/><circle class="cls-1" cx="11.02" cy="4.66" r="0.98"/><circle class="cls-1" cx="19.83" cy="14.93" r="0.98"/><circle class="cls-1" cx="1.73" cy="15.91" r="0.98"/><circle class="cls-1" cx="7.77" cy="12.77" r="0.98"/><circle class="cls-1" cx="11.51" cy="18.85" r="1.47"/><line class="cls-1" x1="11.02" y1="5.64" x2="11.52" y2="15.19"/><line class="cls-1" x1="8.73" y1="12.74" x2="18.21" y2="8.88"/><line class="cls-1" x1="2.52" y1="15.34" x2="7.05" y2="13.43"/><line class="cls-1" x1="12" y1="4.66" x2="18.33" y2="6.74"/><line class="cls-1" x1="21.04" y1="11.22" x2="20.4" y2="14.15"/><line class="cls-1" x1="10.18" y1="5.29" x2="1.98" y2="14.92"/><line class="cls-1" x1="2.59" y1="16.37" x2="7.91" y2="17.73"/><line class="cls-1" x1="15.13" y1="17.34" x2="19.08" y2="15.56"/><line class="cls-1" x1="11.81" y1="5.24" x2="19.08" y2="14.31"/><line class="cls-1" x1="10.6" y1="5.56" x2="8.2" y2="11.9"/><line class="cls-1" x1="8.21" y1="13.64" x2="9.67" y2="15.7"/><line class="cls-1" x1="14.15" y1="15.91" x2="19.35" y2="10.21"/></svg>