<svg xmlns="http://www.w3.org/2000/svg" viewBox="0 0 24 24"><defs><style>.a{fill:none;stroke:currentColor;stroke-linecap:round;stroke-linejoin:round;stroke-width:1.5px;}</style></defs><title>wedding-couple-dance</title><path class="a" d="M12,22.5,7.525,17.928a2.557,2.557,0,0,1-.5-2.994h0a2.677,2.677,0,0,1,4.24-.674l.731.716.731-.716a2.677,2.677,0,0,1,4.24.674h0a2.557,2.557,0,0,1-.5,2.994Z"/><path class="a" d="M22.68,5.839a1.9,1.9,0,0,0-2.751,0L18.75,7.058,17.571,5.839a1.9,1.9,0,0,0-2.751,0,2.06,2.06,0,0,0,0,2.845l3.511,3.631a.579.579,0,0,0,.838,0L22.68,8.684A2.06,2.06,0,0,0,22.68,5.839Z"/><line class="a" x1="12" y1="1.5" x2="12" y2="15"/><line class="a" x1="18.75" y1="7.058" x2="18.75" y2="1.5"/><path class="a" d="M9.18,5.839a1.9,1.9,0,0,0-2.751,0L5.25,7.058,4.071,5.839a1.9,1.9,0,0,0-2.751,0,2.06,2.06,0,0,0,0,2.845l3.511,3.631a.579.579,0,0,0,.838,0L9.18,8.684A2.06,2.06,0,0,0,9.18,5.839Z"/><line class="a" x1="5.25" y1="7.058" x2="5.25" y2="1.5"/></svg>