<svg xmlns="http://www.w3.org/2000/svg" viewBox="0 0 24 24"><defs><style>.a{fill:none;stroke:currentColor;stroke-linecap:round;stroke-linejoin:round;stroke-width:1.5px;}</style></defs><title>wedding-dress</title><path class="a" d="M15.442,8.481l1.714-3.315A3.084,3.084,0,0,0,17.5,3.75a3,3,0,0,0-6,0,3,3,0,0,0-6,0,3.084,3.084,0,0,0,.344,1.416L7.558,8.481C6.121,9.717,4.75,11.5,4.75,13.5v3.256a.751.751,0,0,0,.463.693,15.838,15.838,0,0,0,12.574,0,.751.751,0,0,0,.463-.693V13.5C18.25,11.5,16.879,9.717,15.442,8.481Z"/><path class="a" d="M4.75,14.25a15.938,15.938,0,0,0,13.5,0"/><line class="a" x1="11.5" y1="23.25" x2="11.5" y2="18.75"/><line class="a" x1="8.5" y1="23.25" x2="14.5" y2="23.25"/></svg>