<svg xmlns="http://www.w3.org/2000/svg" viewBox="0 0 24 24"><defs><style>.a{fill:none;stroke:currentColor;stroke-linecap:round;stroke-linejoin:round;stroke-width:1.5px;}</style></defs><title>wedding-car-heart-balloon</title><circle class="a" cx="5.25" cy="21.75" r="1.5"/><circle class="a" cx="14.25" cy="21.75" r="1.5"/><line class="a" x1="6.782" y1="21.75" x2="12.75" y2="21.75"/><path class="a" d="M3.75,21.75H2.25a1.5,1.5,0,0,1-1.5-1.5V19.5a3,3,0,0,1,3-3h12.4a3,3,0,0,1,2.97,2.576l.137.962A1.5,1.5,0,0,1,17.77,21.75H15.75"/><line class="a" x1="11.25" y1="16.5" x2="11.25" y2="10.5"/><path class="a" d="M5.25,16.5a6,6,0,0,1,12,0v.21"/><path class="a" d="M17.77,21.75h2.48a3,3,0,0,0,3-3V16.016A4.07,4.07,0,0,0,21,12.375a4.07,4.07,0,0,1-2.25-3.641V7.5"/><path class="a" d="M22.68,1.339a1.9,1.9,0,0,0-2.751,0L18.75,2.558,17.571,1.339a1.9,1.9,0,0,0-2.751,0,2.06,2.06,0,0,0,0,2.845l3.511,3.137a.579.579,0,0,0,.838,0L22.68,4.184A2.06,2.06,0,0,0,22.68,1.339Z"/></svg>