<svg xmlns="http://www.w3.org/2000/svg" viewBox="0 0 24 24"><defs><style>.a{fill:none;stroke:currentColor;stroke-linecap:round;stroke-linejoin:round;stroke-width:1.5px;}</style></defs><title>wedding-car</title><path class="a" d="M21,9,19.071,2.569A1.5,1.5,0,0,0,17.634,1.5H6.366A1.5,1.5,0,0,0,4.929,2.569L3,9,.964,12.394a1.5,1.5,0,0,0-.214.771V18a1.5,1.5,0,0,0,1.5,1.5h19.5a1.5,1.5,0,0,0,1.5-1.5V13.165a1.5,1.5,0,0,0-.214-.771Z"/><line class="a" x1="3.9" y1="6" x2="20.1" y2="6"/><path class="a" d="M6.75,21a1.5,1.5,0,0,1-1.5,1.5H3.75A1.5,1.5,0,0,1,2.25,21V19.5h4.5Z"/><path class="a" d="M21.75,21a1.5,1.5,0,0,1-1.5,1.5h-1.5a1.5,1.5,0,0,1-1.5-1.5V19.5h4.5Z"/><line class="a" x1="15.74" y1="13.598" x2="22.286" y2="11.143"/><line class="a" x1="1.839" y1="10.935" x2="8.009" y2="13.404"/><line class="a" x1="0.75" y1="16.5" x2="4.5" y2="16.5"/><line class="a" x1="19.5" y1="16.5" x2="23.25" y2="16.5"/><path class="a" d="M16.422,9.668a2.153,2.153,0,0,0-3.118,0l-1.336,1.381L10.632,9.668a2.153,2.153,0,0,0-3.118,0,2.335,2.335,0,0,0,0,3.224l3.98,4.114a.656.656,0,0,0,.949,0l3.979-4.114A2.335,2.335,0,0,0,16.422,9.668Z"/></svg>