<svg xmlns="http://www.w3.org/2000/svg" viewBox="0 0 24 24"><defs><style>.a{fill:none;stroke:currentColor;stroke-linecap:round;stroke-linejoin:round;stroke-width:1.5px;}</style></defs><title>wedding-celebration</title><path class="a" d="M15.5,15.9c-.379-2.761-3.522-2.518-3.944-.177-.306,1.7,1.872,4.338,2.717,5.285a.486.486,0,0,0,.594.108c1.122-.593,4.085-2.3,4.391-4C19.678,14.767,16.817,13.443,15.5,15.9Z"/><path class="a" d="M13.623,13.9a3.613,3.613,0,0,0,.069-1.876c-.843-2.889-4.951-2.682-4.78,1.081C7.033,9.837,3.458,11.871,4.3,14.76c.622,2.133,4.831,3.907,6.07,4.388a.477.477,0,0,0,.563-.164c.218-.3.577-.8.967-1.425"/><path class="a" d="M.75.75A68.534,68.534,0,0,0,23.25,3"/><path class="a" d="M6.577,2.03l-2.2,2.761a.75.75,0,0,1-1.312-.279L2.175,1.1"/><path class="a" d="M11.689,2.787l-2.012,2.9A.75.75,0,0,1,8.349,5.5L7.235,2.147"/><path class="a" d="M16.969,3.157,15.194,6.21a.75.75,0,0,1-1.339-.085L12.478,2.873"/><path class="a" d="M22,3.082,20.482,6.271A.751.751,0,0,1,19.14,6.3L17.5,3.17"/><line class="a" x1="3" y1="21.75" x2="6" y2="21.75"/><line class="a" x1="4.5" y1="20.25" x2="4.5" y2="23.25"/><line class="a" x1="20.25" y1="21.75" x2="23.25" y2="21.75"/><line class="a" x1="21.75" y1="20.25" x2="21.75" y2="23.25"/><line class="a" x1="19.5" y1="11.25" x2="22.5" y2="11.25"/><line class="a" x1="21" y1="9.75" x2="21" y2="12.75"/><line class="a" x1="0.75" y1="9" x2="3.75" y2="9"/><line class="a" x1="2.25" y1="7.5" x2="2.25" y2="10.5"/></svg>