<svg xmlns="http://www.w3.org/2000/svg" viewBox="0 0 24 24"><defs><style>.a{fill:none;stroke:currentColor;stroke-linecap:round;stroke-linejoin:round;stroke-width:1.5px;}</style></defs><title>wedding-couple</title><path class="a" d="M23.25,23.25V15A11.227,11.227,0,0,0,19.2,6.357"/><path class="a" d="M4.432,6.676A11.22,11.22,0,0,0,.75,15v8.25"/><path class="a" d="M16.883,1.482a2.361,2.361,0,0,0-3.418,0L12,3,10.535,1.482a2.361,2.361,0,0,0-3.418,0,2.559,2.559,0,0,0,0,3.534L11.48,9.527a.718.718,0,0,0,1.04,0l4.363-4.511A2.559,2.559,0,0,0,16.883,1.482Z"/><line class="a" x1="15.75" y1="16.5" x2="18.75" y2="16.5"/><line class="a" x1="17.25" y1="15" x2="17.25" y2="18"/><line class="a" x1="20.25" y1="2.25" x2="23.25" y2="2.25"/><line class="a" x1="21.75" y1="0.75" x2="21.75" y2="3.75"/><line class="a" x1="4.5" y1="13.5" x2="7.5" y2="13.5"/><line class="a" x1="6" y1="12" x2="6" y2="15"/></svg>