<svg xmlns="http://www.w3.org/2000/svg" viewBox="0 0 24 24"><defs><style>.a{fill:none;stroke:currentColor;stroke-linecap:round;stroke-linejoin:round;stroke-width:1.5px;}</style></defs><title>wedding-fireworks</title><path class="a" d="M6.03,1.076,7.279,3.533H9.406a.583.583,0,0,1,.419,1L7.872,6.452,8.954,8.937a.589.589,0,0,1-.839.737L5.5,8.2,2.885,9.674a.589.589,0,0,1-.839-.737L3.128,6.452,1.175,4.53a.583.583,0,0,1,.419-1H3.721L4.969,1.076A.594.594,0,0,1,6.03,1.076Z"/><path class="a" d="M18.78,4.823,20.029,7.28h2.127a.583.583,0,0,1,.419,1L20.622,10.2,21.7,12.684a.589.589,0,0,1-.839.737L18.25,11.95l-2.615,1.471a.589.589,0,0,1-.839-.737L15.878,10.2,13.925,8.277a.583.583,0,0,1,.419-1h2.127l1.248-2.457A.594.594,0,0,1,18.78,4.823Z"/><path class="a" d="M6.25,11.25a19.859,19.859,0,0,1,3.75,12"/><path class="a" d="M16,23.25A19.9,19.9,0,0,1,17.5,15"/></svg>