<svg xmlns="http://www.w3.org/2000/svg" viewBox="0 0 24 24"><defs><style>.a{fill:none;stroke:currentColor;stroke-linecap:round;stroke-linejoin:round;stroke-width:1.5px;}</style></defs><title>wedding-luggage</title><rect class="a" x="0.75" y="6" width="22.5" height="16.5" rx="3" ry="3"/><path class="a" d="M8.25,6V3a1.5,1.5,0,0,1,1.5-1.5h4.5A1.5,1.5,0,0,1,15.75,3V6"/><path class="a" d="M12,18.75,7.617,14.178a2.594,2.594,0,0,1-.486-2.994h0a2.593,2.593,0,0,1,4.153-.674l.716.716.716-.716a2.593,2.593,0,0,1,4.153.674h0a2.594,2.594,0,0,1-.486,2.994Z"/></svg>