<svg xmlns="http://www.w3.org/2000/svg" viewBox="0 0 24 24"><defs><style>.a{fill:none;stroke:currentColor;stroke-linecap:round;stroke-linejoin:round;stroke-width:1.5px;}</style></defs><title>wedding-cake</title><line class="a" x1="1.5" y1="23" x2="22.5" y2="23"/><rect class="a" x="3" y="11" width="18" height="9" rx="1.5" ry="1.5"/><path class="a" d="M3,12.875a2.618,2.618,0,0,0,4.875,1.333,2.375,2.375,0,0,0,2.1,1.292A2.263,2.263,0,0,0,12,14.208,2.263,2.263,0,0,0,14.025,15.5a2.375,2.375,0,0,0,2.1-1.292A2.618,2.618,0,0,0,21,12.875"/><path class="a" d="M17.272,2a2.429,2.429,0,0,0-3.516,0L12.25,3.56,10.744,2A2.429,2.429,0,0,0,7.228,2a2.632,2.632,0,0,0,0,3.635l4.487,4.639a.74.74,0,0,0,1.07,0l4.487-4.639A2.632,2.632,0,0,0,17.272,2Z"/></svg>