<svg xmlns="http://www.w3.org/2000/svg" viewBox="0 0 24 24"><defs><style>.a{fill:none;stroke:currentColor;stroke-linecap:round;stroke-linejoin:round;stroke-width:1.5px;}</style></defs><title>wedding-cake-heart</title><path class="a" d="M16.5,6.026a5.465,5.465,0,0,1,4.731,1.955h0a2.861,2.861,0,0,1-.921,4.1l-7.516,4.692a1.5,1.5,0,0,1-1.588,0L3.69,12.08a2.861,2.861,0,0,1-.921-4.1h0A5.465,5.465,0,0,1,7.5,6.026"/><path class="a" d="M2.25,9.768l0,5.947A3.191,3.191,0,0,0,3.69,18.08l7.516,4.692a1.5,1.5,0,0,0,1.588,0L20.31,18.08a3.191,3.191,0,0,0,1.436-2.365l0-5.947"/><line class="a" x1="12" y1="6.018" x2="12" y2="12.018"/><path class="a" d="M14.25,3.768a2.25,2.25,0,1,1-4.5,0c0-1.242,2.25-3,2.25-3S14.25,2.526,14.25,3.768Z"/></svg>