<svg xmlns="http://www.w3.org/2000/svg" viewBox="0 0 24 24"><defs><style>.a{fill:none;stroke:currentColor;stroke-linecap:round;stroke-linejoin:round;stroke-width:1.5px;}</style></defs><title>wedding-certificate</title><line class="a" x1="3.75" y1="6.75" x2="13.5" y2="6.75"/><line class="a" x1="3.75" y1="11.25" x2="9.75" y2="11.25"/><line class="a" x1="3.75" y1="15.75" x2="9.75" y2="15.75"/><polyline class="a" points="15.154 15.94 14.45 23.25 18.1 21.75 21.75 23.25 21.055 16.034"/><path class="a" d="M11.25,20.25h-9a1.5,1.5,0,0,1-1.5-1.5V2.25A1.5,1.5,0,0,1,2.25.75H12.8a1.5,1.5,0,0,1,1.153.54L16.9,4.833a1.5,1.5,0,0,1,.348.96V8.25"/><path class="a" d="M22.6,11.208a2.154,2.154,0,0,0-3.118,0L18.15,12.589l-1.336-1.381a2.154,2.154,0,0,0-3.118,0,2.335,2.335,0,0,0,0,3.224l3.98,4.115a.654.654,0,0,0,.948,0l3.98-4.115A2.335,2.335,0,0,0,22.6,11.208Z"/></svg>