<svg xmlns="http://www.w3.org/2000/svg" viewBox="0 0 24 24"><defs><style>.a{fill:none;stroke:currentColor;stroke-linecap:round;stroke-linejoin:round;stroke-width:1.5px;}</style></defs><title>wedding-bride-groom</title><path class="a" d="M2.665,5.227A4.986,4.986,0,0,0,8.223,6.344"/><path class="a" d="M5.25,11.25a4.5,4.5,0,0,0-4.5,4.5v3H3l.75,4.5h3l.75-4.5H9.75v-3A4.5,4.5,0,0,0,5.25,11.25Z"/><line class="a" x1="5.25" y1="11.25" x2="5.25" y2="16.5"/><circle class="a" cx="5.25" cy="6.75" r="3"/><path class="a" d="M19.835,5.227a4.986,4.986,0,0,1-5.558,1.117"/><circle class="a" cx="17.25" cy="6.75" r="3"/><path class="a" d="M19.86,12.75h1.89a1.5,1.5,0,0,0,1.5-1.5V6.75a6,6,0,0,0-12,0v4.5a1.5,1.5,0,0,0,1.5,1.5h1.89"/><path class="a" d="M17.25,11.25a3.024,3.024,0,0,0-2.9,2.155l-1.6,5.345H15l.75,4.5h3l.75-4.5h2.25l-1.6-5.345A3.024,3.024,0,0,0,17.25,11.25Z"/><path class="a" d="M19.472,12.223,17.25,17.25s-1.873-4.591-2.222-5.027"/></svg>