<svg xmlns="http://www.w3.org/2000/svg" viewBox="0 0 24 24"><defs><style>.a{fill:none;stroke:currentColor;stroke-linecap:round;stroke-linejoin:round;stroke-width:1.5px;}</style></defs><title>wedding-altar</title><path class="a" d="M15.93,5.839a1.9,1.9,0,0,0-2.751,0L12,7.058,10.821,5.839a1.9,1.9,0,0,0-2.751,0,2.06,2.06,0,0,0,0,2.845l3.511,3.631a.579.579,0,0,0,.838,0L15.93,8.684A2.06,2.06,0,0,0,15.93,5.839Z"/><path class="a" d="M23.25,23.25H.75V12a11.25,11.25,0,0,1,22.5,0Z"/><line class="a" x1="12" y1="0.75" x2="12" y2="7.058"/><path class="a" d="M19.5,3.75V12a3.75,3.75,0,0,0,3.75,3.75"/><path class="a" d="M23.25,15.75A5.251,5.251,0,0,0,18,21v2.25"/><path class="a" d="M4.5,3.75V12A3.75,3.75,0,0,1,.75,15.75"/><path class="a" d="M.75,15.75A5.251,5.251,0,0,1,6,21v2.25"/></svg>