<svg xmlns="http://www.w3.org/2000/svg" viewBox="0 0 24 24"><defs><style>.a{fill:none;stroke:currentColor;stroke-linecap:round;stroke-linejoin:round;stroke-width:1.5px;}</style></defs><title>wedding-groom-cake</title><circle class="a" cx="4.5" cy="7.5" r="3"/><rect class="a" x="12" y="11.25" width="10.5" height="6" rx="0.75" ry="0.75"/><path class="a" d="M20.25,11.25h-6V7.5A.75.75,0,0,1,15,6.75h4.5a.75.75,0,0,1,.75.75Z"/><line class="a" x1="17.25" y1="17.25" x2="17.25" y2="23.25"/><line class="a" x1="22.5" y1="23.25" x2="12" y2="23.25"/><path class="a" d="M5.984,23.25H3.016L1.567,15.667a3.053,3.053,0,0,1,.6-2.541,2.98,2.98,0,0,1,4.666,0,3.053,3.053,0,0,1,.6,2.541Z"/><path class="a" d="M20.744,1.274a1.689,1.689,0,0,0-2.446,0L17.25,2.357,16.2,1.274a1.688,1.688,0,0,0-2.445,0,1.829,1.829,0,0,0,0,2.528l3.121,2.789a.515.515,0,0,0,.744,0L20.744,3.8A1.831,1.831,0,0,0,20.744,1.274Z"/></svg>