<svg xmlns="http://www.w3.org/2000/svg" viewBox="0 0 24 24"><defs><style>.a{fill:none;stroke:currentColor;stroke-linecap:round;stroke-linejoin:round;stroke-width:1.5px;}</style></defs><title>wedding-bride-cake</title><rect class="a" x="12.75" y="11.25" width="10.5" height="6" rx="0.75" ry="0.75"/><path class="a" d="M21,11.25H15V7.5a.75.75,0,0,1,.75-.75h4.5A.75.75,0,0,1,21,7.5Z"/><line class="a" x1="18" y1="17.25" x2="18" y2="23.25"/><line class="a" x1="23.25" y1="23.25" x2="12.75" y2="23.25"/><circle class="a" cx="6" cy="7.5" r="3"/><path class="a" d="M3,7.5S3,11.25.75,11.25"/><path class="a" d="M9,7.5s0,3.75,2.25,3.75"/><path class="a" d="M4.206,13.471a1.829,1.829,0,0,1,3.588,0l2.18,7.879a1.5,1.5,0,0,1-1.445,1.9H3.471a1.5,1.5,0,0,1-1.445-1.9Z"/><path class="a" d="M21.494,1.274a1.689,1.689,0,0,0-2.446,0L18,2.357,16.952,1.274a1.688,1.688,0,0,0-2.445,0,1.829,1.829,0,0,0,0,2.528l3.121,2.789a.515.515,0,0,0,.744,0L21.494,3.8A1.831,1.831,0,0,0,21.494,1.274Z"/></svg>