<svg id="Regular" xmlns="http://www.w3.org/2000/svg" viewBox="0 0 24 24"><defs><style>.cls-1{fill:none;stroke:currentColor;stroke-linecap:round;stroke-linejoin:round;stroke-width:1.5px;}</style></defs><title>whale-tail</title><path class="cls-1" d="M.75,21.586c1.5,0,2.25,1.5,3.75,1.5s2.25-1.5,3.75-1.5,2.25,1.5,3.75,1.5,2.25-1.5,3.75-1.5,2.25,1.5,3.75,1.5,2.25-1.5,3.75-1.5"/><path class="cls-1" d="M17.25,19.336a20.773,20.773,0,0,1-3-6.176,21.541,21.541,0,0,1-.75-4.324,5.919,5.919,0,0,0,5.25-3.75,6.374,6.374,0,0,0,.269-3.47A.75.75,0,0,0,17.9,1.1,21.124,21.124,0,0,1,14.25,2.836C12,3.586,12,5.086,12,5.086s0-1.5-2.25-2.25A21.124,21.124,0,0,1,6.1,1.1a.751.751,0,0,0-1.116.513,6.374,6.374,0,0,0,.269,3.47,5.919,5.919,0,0,0,5.25,3.75,21.541,21.541,0,0,1-.75,4.324,20.773,20.773,0,0,1-3,6.176"/></svg>