<svg id="Regular" xmlns="http://www.w3.org/2000/svg" viewBox="0 0 24 24"><defs><style>.cls-1{fill:none;stroke:currentColor;stroke-linecap:round;stroke-linejoin:round;stroke-width:1.5px;}</style></defs><title>whale</title><path class="cls-1" d="M21,17.114c0,4.142-4.029,6.136-9,6.136s-9-1.994-9-6.136a9,9,0,0,1,18,0Z"/><path class="cls-1" d="M3,17.25a26.559,26.559,0,0,1,9-1.5,26.559,26.559,0,0,1,9,1.5"/><line class="cls-1" x1="12" y1="18.818" x2="12" y2="23.25"/><line class="cls-1" x1="7.5" y1="19.5" x2="7.5" y2="22.568"/><line class="cls-1" x1="16.5" y1="19.5" x2="16.5" y2="22.568"/><path class="cls-1" d="M7.875,12a.375.375,0,0,1,.375.375"/><path class="cls-1" d="M7.5,12.375A.375.375,0,0,1,7.875,12"/><path class="cls-1" d="M7.875,12.75a.375.375,0,0,1-.375-.375"/><path class="cls-1" d="M8.25,12.375a.375.375,0,0,1-.375.375"/><path class="cls-1" d="M16.125,12a.375.375,0,0,1,.375.375"/><path class="cls-1" d="M15.75,12.375A.375.375,0,0,1,16.125,12"/><path class="cls-1" d="M16.125,12.75a.375.375,0,0,1-.375-.375"/><path class="cls-1" d="M16.5,12.375a.375.375,0,0,1-.375.375"/><path class="cls-1" d="M16.5,3A2.25,2.25,0,0,0,12,3"/><path class="cls-1" d="M7.5,3A2.25,2.25,0,0,1,12,3V5.25"/></svg>