<svg id="Regular" xmlns="http://www.w3.org/2000/svg" viewBox="0 0 24 24"><defs><style>.cls-1{fill:none;stroke:currentColor;stroke-linecap:round;stroke-linejoin:round;stroke-width:1.5px;}</style></defs><title>whale-water</title><path class="cls-1" d="M.75,21C2.25,21,3,22.5,4.5,22.5S6.75,21,8.25,21,10.5,22.5,12,22.5,14.25,21,15.75,21,18,22.5,19.5,22.5,21.75,21,23.25,21"/><path class="cls-1" d="M1.5,18c0-7.5,7.067-5.762,9.75-3.75C14.25,16.5,15,18,15,18"/><path class="cls-1" d="M23.25,18a11.541,11.541,0,0,0-1.5-6,3.133,3.133,0,0,0,1.336-2.17.751.751,0,0,0-1.117-.811L19.5,10.5a11.637,11.637,0,0,1-2.637-.42.751.751,0,0,0-.894.98A4.263,4.263,0,0,0,18.75,13.5a7.92,7.92,0,0,1,0,4.5"/><path class="cls-1" d="M6.375,15.75a.375.375,0,0,1,.375.375"/><path class="cls-1" d="M6,16.125a.375.375,0,0,1,.375-.375"/><path class="cls-1" d="M6.375,16.5A.375.375,0,0,1,6,16.125"/><path class="cls-1" d="M6.75,16.125a.375.375,0,0,1-.375.375"/><path class="cls-1" d="M1.5,4.5a3,3,0,0,1,6,0"/><path class="cls-1" d="M13.5,4.5a3,3,0,0,0-6,0V9.75"/></svg>