<svg id="Regular" xmlns="http://www.w3.org/2000/svg" viewBox="0 0 24 24"><defs><style>.cls-1{fill:none;stroke:currentColor;stroke-linecap:round;stroke-linejoin:round;stroke-width:1.5px;}</style></defs><title>wildlife-protection-shield</title><path class="cls-1" d="M18.751,8.357a2.245,2.245,0,0,0-4.486-.137,5.5,5.5,0,0,0-4.528,0,2.245,2.245,0,1,0-2.519,2.359,4.439,4.439,0,0,0-.467,1.965A5.046,5.046,0,0,0,12,17.357a5.046,5.046,0,0,0,5.25-4.813,4.44,4.44,0,0,0-.468-1.965A2.244,2.244,0,0,0,18.751,8.357Z"/><path class="cls-1" d="M9.751,11.732a.375.375,0,0,1,.375.375"/><path class="cls-1" d="M9.376,12.107a.375.375,0,0,1,.375-.375"/><path class="cls-1" d="M9.751,12.482a.375.375,0,0,1-.375-.375"/><path class="cls-1" d="M10.126,12.107a.375.375,0,0,1-.375.375"/><path class="cls-1" d="M14.251,11.732a.375.375,0,0,1,.375.375"/><path class="cls-1" d="M13.876,12.107a.375.375,0,0,1,.375-.375"/><path class="cls-1" d="M14.251,12.482a.375.375,0,0,1-.375-.375"/><path class="cls-1" d="M14.626,12.107a.375.375,0,0,1-.375.375"/><path class="cls-1" d="M2.25,3.923v7.614A11.907,11.907,0,0,0,9.882,22.65l1.041.4a3,3,0,0,0,2.154,0l1.041-.4A11.907,11.907,0,0,0,21.75,11.537V3.923a1.487,1.487,0,0,0-.868-1.362A21.7,21.7,0,0,0,12,.75,21.7,21.7,0,0,0,3.118,2.561,1.487,1.487,0,0,0,2.25,3.923Z"/></svg>