<svg id="Regular" xmlns="http://www.w3.org/2000/svg" viewBox="0 0 24 24"><defs><style>.cls-1{fill:none;stroke:currentColor;stroke-linecap:round;stroke-linejoin:round;stroke-width:1.5px;}</style></defs><title>wild-bird-head</title><path class="cls-1" d="M.8,23.258C.8,12.033.605,1.91,10.55.808c6.75-.748,9,5.987,9,5.987s-4.5.748-4.5,7.483v8.98"/><path class="cls-1" d="M19.55,6.8s3.308,0,3.71,4.959a.749.749,0,0,1-.9.792c-4.429-.943-7.034.792-7.286.969"/><path class="cls-1" d="M15.924,9.852c0,.748-4.624,1.433-6.635-.3a3.282,3.282,0,0,1,0-4.762,3.379,3.379,0,0,1,4.773,0C15.38,6.1,15.924,9.1,15.924,9.852Z"/><path class="cls-1" d="M11.675,6.8a.374.374,0,0,1,.375.374"/><path class="cls-1" d="M11.3,7.169a.374.374,0,0,1,.375-.374"/><path class="cls-1" d="M11.675,7.543a.375.375,0,0,1-.375-.374"/><path class="cls-1" d="M12.05,7.169a.375.375,0,0,1-.375.374"/><path class="cls-1" d="M8.566,5.841C4.55,8.831,4.55,13.461,4.55,16.523v4.49H8.3c2.25,0,3.75-2.245,3.75-4.49"/><path class="cls-1" d="M5.065,11.108l.235.177a13.471,13.471,0,0,0,7.5,2.245"/></svg>