<svg id="Regular" xmlns="http://www.w3.org/2000/svg" viewBox="0 0 24 24"><defs><style>.cls-1{fill:none;stroke:currentColor;stroke-linecap:round;stroke-linejoin:round;stroke-width:1.5px;}</style></defs><title>wildlife-protection-tree-shield</title><path class="cls-1" d="M23.251,15.75a7.669,7.669,0,0,1-6,7.5,7.668,7.668,0,0,1-6-7.5V13.5a1.5,1.5,0,0,1,1.5-1.5h9a1.5,1.5,0,0,1,1.5,1.5Z"/><line class="cls-1" x1="17.251" y1="15" x2="17.251" y2="19.5"/><line class="cls-1" x1="15.001" y1="17.25" x2="19.501" y2="17.25"/><path class="cls-1" d="M6.751,8.25A5.25,5.25,0,0,1,1.5,3"/><line class="cls-1" x1="6.751" y1="18.75" x2="6.751" y2="0.75"/><path class="cls-1" d="M6.751,5.25A3.75,3.75,0,0,0,10.5,1.5"/><path class="cls-1" d="M6.751,11.25H7.5A4.5,4.5,0,0,0,12,6.75"/><path class="cls-1" d="M6.751,13.5a4.5,4.5,0,0,1-5.613-3"/><path class="cls-1" d="M13.876,2.25a.375.375,0,0,1,.375.375"/><path class="cls-1" d="M13.5,2.625a.375.375,0,0,1,.375-.375"/><path class="cls-1" d="M13.876,3a.375.375,0,0,1-.375-.375"/><path class="cls-1" d="M14.251,2.625A.375.375,0,0,1,13.876,3"/><path class="cls-1" d="M15.376,6.75a.375.375,0,0,1,.375.375"/><path class="cls-1" d="M15,7.125a.375.375,0,0,1,.375-.375"/><path class="cls-1" d="M15.376,7.5A.375.375,0,0,1,15,7.125"/><path class="cls-1" d="M15.751,7.125a.375.375,0,0,1-.375.375"/><path class="cls-1" d="M8.994,19.156a6.367,6.367,0,0,0-2.243-.406,6.814,6.814,0,0,0-5.913,3.4.751.751,0,0,0,.663,1.1h9.75"/></svg>