<svg id="Regular" xmlns="http://www.w3.org/2000/svg" viewBox="0 0 24 24"><defs><style>.cls-1{fill:none;stroke:currentColor;stroke-linecap:round;stroke-linejoin:round;stroke-width:1.5px;}</style></defs><title>wild-bird-owl</title><path class="cls-1" d="M5.625,18A4.875,4.875,0,1,1,10.5,13.123"/><path class="cls-1" d="M13.5,13.123A4.875,4.875,0,1,1,18.375,18"/><path class="cls-1" d="M21.6,5.248a10.654,10.654,0,0,1,1.646,6v12"/><path class="cls-1" d="M5.281,2.227C6.8,1.211,9.515.748,12,.748s5.2.462,6.719,1.479"/><path class="cls-1" d="M.75,23.248v-12a10.655,10.655,0,0,1,1.645-6"/><path class="cls-1" d="M5.625,12.748A.375.375,0,0,1,6,13.123"/><path class="cls-1" d="M5.25,13.123a.375.375,0,0,1,.375-.375"/><path class="cls-1" d="M5.625,13.5a.375.375,0,0,1-.375-.375"/><path class="cls-1" d="M6,13.123a.375.375,0,0,1-.375.375"/><path class="cls-1" d="M18.375,12.748a.375.375,0,0,1,.375.375"/><path class="cls-1" d="M18,13.123a.375.375,0,0,1,.375-.375"/><path class="cls-1" d="M18.375,13.5A.375.375,0,0,1,18,13.123"/><path class="cls-1" d="M18.75,13.123a.375.375,0,0,1-.375.375"/><path class="cls-1" d="M14.25,18.748l-2.25,3-2.25-3S10.5,16.5,12,16.5,14.25,18.748,14.25,18.748Z"/><path class="cls-1" d="M14.25,6s4.5-5.25,9-5.25"/><path class="cls-1" d="M9.75,6S5.25.748.75.748"/></svg>