<svg id="Regular" xmlns="http://www.w3.org/2000/svg" viewBox="0 0 24 24"><defs><style>.cls-1{fill:none;stroke:currentColor;stroke-linecap:round;stroke-linejoin:round;stroke-width:1.5px;}</style></defs><title>wild-bird-footstep</title><line class="cls-1" x1="18" y1="11.75" x2="18" y2="17"/><line class="cls-1" x1="18" y1="20" x2="18" y2="23"/><line class="cls-1" x1="15.75" y1="17.75" x2="12.75" y2="14"/><line class="cls-1" x1="20.25" y1="17.75" x2="23.25" y2="14"/><path class="cls-1" d="M.75,3.5A8.282,8.282,0,0,1,6,1.25c3,0,6.75,10.5,6.75,10.5"/><path class="cls-1" d="M2.245,2.378l0,.372S2.337,9.378,4.5,11c3,2.25,7.5-.75,7.5-.75l.137-.091"/><path class="cls-1" d="M6,7.25s.817,4.087,5.013.314"/><path class="cls-1" d="M5.625,3.5A.375.375,0,0,1,6,3.875"/><path class="cls-1" d="M5.25,3.875A.375.375,0,0,1,5.625,3.5"/><path class="cls-1" d="M5.625,4.25a.375.375,0,0,1-.375-.375"/><path class="cls-1" d="M6,3.875a.375.375,0,0,1-.375.375"/><line class="cls-1" x1="4.5" y1="11" x2="3.75" y2="13.25"/><line class="cls-1" x1="7.5" y1="11.827" x2="7.5" y2="13.25"/></svg>