<svg id="Regular" xmlns="http://www.w3.org/2000/svg" viewBox="0 0 24 24"><defs><style>.cls-1{fill:none;stroke:currentColor;stroke-linecap:round;stroke-linejoin:round;stroke-width:1.5px;}</style></defs><title>wildlife-protection-tree-shield-1</title><path class="cls-1" d="M2.251,3.923v7.614A11.907,11.907,0,0,0,9.883,22.65l1.041.4a3,3,0,0,0,2.154,0l1.041-.4a11.907,11.907,0,0,0,7.632-11.113V3.923a1.487,1.487,0,0,0-.868-1.362A21.7,21.7,0,0,0,12,.75,21.7,21.7,0,0,0,3.118,2.561,1.488,1.488,0,0,0,2.251,3.923Z"/><line class="cls-1" x1="12.001" y1="15.773" x2="12.001" y2="4.523"/><path class="cls-1" d="M12,9.773a3.75,3.75,0,0,0,3.75-3.75"/><path class="cls-1" d="M17.626,9A.375.375,0,0,1,18,9.375"/><path class="cls-1" d="M17.251,9.375A.375.375,0,0,1,17.626,9"/><path class="cls-1" d="M17.626,9.75a.375.375,0,0,1-.375-.375"/><path class="cls-1" d="M18,9.375a.375.375,0,0,1-.375.375"/><path class="cls-1" d="M6.376,12.75a.375.375,0,0,1,.375.375"/><path class="cls-1" d="M6,13.125a.375.375,0,0,1,.375-.375"/><path class="cls-1" d="M6.376,13.5A.375.375,0,0,1,6,13.125"/><path class="cls-1" d="M6.751,13.125a.375.375,0,0,1-.375.375"/><line class="cls-1" x1="12.001" y1="13.523" x2="15.001" y2="12"/><path class="cls-1" d="M12,8.273a3.75,3.75,0,0,1-3.75-3.75"/><line class="cls-1" x1="12.001" y1="12.773" x2="9.001" y2="11.25"/><path class="cls-1" d="M7.5,16.5a11.618,11.618,0,0,1,4.5-.727,11.64,11.64,0,0,1,4.5.726"/></svg>