<svg id="Regular" xmlns="http://www.w3.org/2000/svg" viewBox="0 0 24 24"><defs><style>.cls-1{fill:none;stroke:currentColor;stroke-linecap:round;stroke-linejoin:round;stroke-width:1.5px;}</style></defs><title>wild-pig-body</title><path class="cls-1" d="M23.156,14.808A11.2,11.2,0,0,0,23.25,13.5S21,12.75,21,11.25c0-2.9-2.351-6-5.25-6v-3s-3.75,3-5.25,3H6c-2.9,0-5.25,3.1-5.25,6s1.5,5.25,3,6c1.048.524,1.364,2.146,1.459,3.076A.749.749,0,0,0,5.954,21h.96a.749.749,0,0,0,.728-.568L8.25,18h4.5l.608,2.432a.749.749,0,0,0,.728.568h1.078a.749.749,0,0,0,.728-.568l.683-2.734"/><path class="cls-1" d="M17.743,13.949s2.065,3.75,5.507,3.75c-4.818,2.25-7.571,0-8.26-2.25S17.055,13.2,17.743,13.949Z"/><path class="cls-1" d="M16.875,9.75a.375.375,0,0,1,.375.375"/><path class="cls-1" d="M16.5,10.125a.375.375,0,0,1,.375-.375"/><path class="cls-1" d="M16.875,10.5a.375.375,0,0,1-.375-.375"/><path class="cls-1" d="M17.25,10.125a.375.375,0,0,1-.375.375"/><path class="cls-1" d="M1.76,7.89,1.5,7.5A4.233,4.233,0,0,1,1.5,3"/></svg>