<svg id="Regular" xmlns="http://www.w3.org/2000/svg" viewBox="0 0 24 24"><defs><style>.cls-1{fill:none;stroke:currentColor;stroke-linecap:round;stroke-linejoin:round;stroke-width:1.5px;}</style></defs><title>wild-bird-fly</title><path class="cls-1" d="M12.233,13.708s.731,0,2.193-2.193a4.125,4.125,0,0,0,0-4.387h3.656c.731,0,2.193,0,2.193,1.462v5.118a9.5,9.5,0,1,1-19.009,0"/><path class="cls-1" d="M20.275,10.052s2.925,0,2.925,2.194l-2.925,1.462"/><path class="cls-1" d="M17.716,9.312a.375.375,0,0,0-.375.375"/><path class="cls-1" d="M18.091,9.687a.374.374,0,0,0-.375-.375"/><path class="cls-1" d="M17.716,10.062a.374.374,0,0,0,.375-.375"/><path class="cls-1" d="M17.341,9.687a.375.375,0,0,0,.375.375"/><path class="cls-1" d="M10.039,16.633a6.408,6.408,0,0,1-1.462-4.387,6.4,6.4,0,0,1,1.462-4.387L4.19,1.279s-1.462,4.387,0,6.58A13.639,13.639,0,0,1,1.266,5.666S-.2,9.321,2.728,11.515"/></svg>