<svg id="Regular" xmlns="http://www.w3.org/2000/svg" viewBox="0 0 24 24"><defs><style>.cls-1{fill:none;stroke:currentColor;stroke-linecap:round;stroke-linejoin:round;stroke-width:1.5px;}</style></defs><title>wild-bird-nest</title><path class="cls-1" d="M23.25,16.5c0,3.314-5.037,6.75-11.25,6.75S.75,19.814.75,16.5c0-1.5.75-2.25,3.75-2.25h15C22.5,14.25,23.25,15,23.25,16.5Z"/><path class="cls-1" d="M11.034,11.25A7.321,7.321,0,0,0,9.4,7.714a3.75,3.75,0,1,0-3.808,0,7.321,7.321,0,0,0-1.63,3.536"/><path class="cls-1" d="M20.487,11.25a4.951,4.951,0,0,0-.964-1.629,3,3,0,1,0-3.046,0,4.951,4.951,0,0,0-.964,1.629"/><polyline class="cls-1" points="11.449 1.042 10.699 2.542 12.199 3.292"/><polyline class="cls-1" points="21.334 4.024 20.584 5.524 22.084 6.274"/><path class="cls-1" d="M7.875,3.75a.375.375,0,0,1,.375.375"/><path class="cls-1" d="M7.5,4.125a.375.375,0,0,1,.375-.375"/><path class="cls-1" d="M7.875,4.5A.375.375,0,0,1,7.5,4.125"/><path class="cls-1" d="M8.25,4.125a.375.375,0,0,1-.375.375"/><path class="cls-1" d="M18,6.375a.375.375,0,0,1,.375.375"/><path class="cls-1" d="M17.625,6.75A.375.375,0,0,1,18,6.375"/><path class="cls-1" d="M18,7.125a.375.375,0,0,1-.375-.375"/><path class="cls-1" d="M18.375,6.75A.375.375,0,0,1,18,7.125"/></svg>