<svg id="Regular" xmlns="http://www.w3.org/2000/svg" viewBox="0 0 24 24"><defs><style>.cls-1{fill:none;stroke:currentColor;stroke-linecap:round;stroke-linejoin:round;stroke-width:1.5px;}</style></defs><title>wild-bird-eagle-head</title><path class="cls-1" d="M12.05.75c5.385,0,9.254,3.347,9.75,9,.3,3.468.75,9.375.75,9.375,0,2.25-2.25,2.25-3,.75.75,3-3.75,3.75-4.5.75a2.7,2.7,0,0,1-3,2.625,2.7,2.7,0,0,1-3-2.625c-.75,3-5.25,2.25-4.5-.75-.75,1.5-3,1.5-3-.75,0,0,.446-5.907.75-9.375C2.8,4.1,6.665.75,12.05.75Z"/><path class="cls-1" d="M15.05,12.029c0,4.644-1.5,4.644-3,5.971-1.5-1.327-3-1.327-3-5.971a2.843,2.843,0,0,1,3-2.654A2.843,2.843,0,0,1,15.05,12.029Z"/><path class="cls-1" d="M16.175,7.125a.375.375,0,0,1,.375.375"/><path class="cls-1" d="M15.8,7.5a.375.375,0,0,1,.375-.375"/><path class="cls-1" d="M16.175,7.875A.375.375,0,0,1,15.8,7.5"/><path class="cls-1" d="M16.55,7.5a.375.375,0,0,1-.375.375"/><path class="cls-1" d="M7.925,7.125A.375.375,0,0,1,8.3,7.5"/><path class="cls-1" d="M7.55,7.5a.375.375,0,0,1,.375-.375"/><path class="cls-1" d="M7.925,7.875A.375.375,0,0,1,7.55,7.5"/><path class="cls-1" d="M8.3,7.5a.375.375,0,0,1-.375.375"/><line class="cls-1" x1="13.55" y1="6.375" x2="15.8" y2="4.875"/><line class="cls-1" x1="10.55" y1="6.375" x2="8.3" y2="4.875"/></svg>