<svg id="Regular" xmlns="http://www.w3.org/2000/svg" viewBox="0 0 24 24"><defs><style>.cls-1{fill:none;stroke:currentColor;stroke-linecap:round;stroke-linejoin:round;stroke-width:1.5px;}</style></defs><title>wild-bird-fly-1</title><path class="cls-1" d="M5.05,23.25a25.538,25.538,0,0,1,5.59-10.733C2.25,8.25.75,1.5.75,1.5s5.25,0,9,2.25c1.289.773,3.537,4.652,3.933,5.927C19.343,5.338,21.3,8.95,21.3,8.95,18.012,19.471,8.072,22.009,5.612,21.276"/><path class="cls-1" d="M17.387,7.7l.013-.05s1.15-4.3-.15-6.9a9.672,9.672,0,0,0-3,3.75"/><path class="cls-1" d="M21.3,8.95a1.423,1.423,0,0,1,1.95.65"/></svg>