<svg id="Regular" xmlns="http://www.w3.org/2000/svg" viewBox="0 0 24 24"><defs><style>.cls-1{fill:none;stroke:currentColor;stroke-linecap:round;stroke-linejoin:round;stroke-width:1.5px;}</style></defs><title>wild-bird-eggs</title><path class="cls-1" d="M9.526,23h0a11.139,11.139,0,0,1-3.932-1.729A11.139,11.139,0,0,0,9.526,23Zm5.7-.194a11.186,11.186,0,0,0,3.8-2h0A11.169,11.169,0,0,1,15.221,22.806ZM1.882,16.947h0a11.141,11.141,0,0,1-1.1-4.15,11.141,11.141,0,0,0,1.1,4.15Zm20.551-.707a11.194,11.194,0,0,0,.817-4.217v-.107h0v.107A11.194,11.194,0,0,1,22.433,16.24ZM1.835,7.2h0A11.208,11.208,0,0,1,4.387,3.74,11.208,11.208,0,0,0,1.835,7.2Zm19.922-.78A11.255,11.255,0,0,0,18.943,3.17h0A11.255,11.255,0,0,1,21.757,6.416ZM9.422,1.07h0A11.348,11.348,0,0,1,13.714.9a11.348,11.348,0,0,0-4.292.167Z"/><path class="cls-1" d="M14.053,14A4.027,4.027,0,0,1,6,14c0-2.224,1.8-7.382,4.027-7.382S14.053,11.773,14.053,14Z"/><path class="cls-1" d="M13.26,16.4a4.01,4.01,0,0,0,5.49-3.743c0-2.224-1.8-7.382-4.026-7.382-1.063,0-2.026,1.181-2.746,2.654"/></svg>