<svg id="Regular" xmlns="http://www.w3.org/2000/svg" viewBox="0 0 24 24"><defs><style>.cls-1,.cls-2{fill:none;stroke:currentColor;stroke-linecap:round;stroke-linejoin:round;stroke-width:1.5px;}.cls-2{fill-rule:evenodd;}</style></defs><title>wild-bird-eagle</title><line class="cls-1" x1="16.55" y1="10.725" x2="16.55" y2="7.5"/><path class="cls-2" d="M7.55,14.953V19.5a1.5,1.5,0,0,0,3,0h3a1.5,1.5,0,0,0,3,0V15.141"/><path class="cls-2" d="M16.5,4.581A4.5,4.5,0,0,0,7.55,5.25v5.475"/><line class="cls-1" x1="9.05" y1="21" x2="9.05" y2="23.25"/><line class="cls-1" x1="7.55" y1="23.25" x2="9.8" y2="23.25"/><line class="cls-1" x1="15.05" y1="21" x2="15.05" y2="23.25"/><line class="cls-1" x1="14.3" y1="23.25" x2="16.55" y2="23.25"/><path class="cls-1" d="M14.3,7.5h6a3,3,0,0,0-6,0Z"/><path class="cls-1" d="M16.55,10.725s2.929-.9,3.9.9C23,16.307,16.55,19.5,16.55,19.5"/><path class="cls-1" d="M7.55,10.725s-2.929-.9-3.9.9C1.1,16.307,7.55,19.5,7.55,19.5"/><polyline class="cls-1" points="7.55 9.75 9.8 12.75 12.05 10.5 14.3 12.75 16.55 9.75"/><path class="cls-1" d="M11.675,4.5a.375.375,0,0,1,.375.375"/><path class="cls-1" d="M11.3,4.875a.375.375,0,0,1,.375-.375"/><path class="cls-1" d="M11.675,5.25a.375.375,0,0,1-.375-.375"/><path class="cls-1" d="M12.05,4.875a.375.375,0,0,1-.375.375"/></svg>