<svg id="Regular" xmlns="http://www.w3.org/2000/svg" viewBox="0 0 24 24"><defs><style>.cls-1{fill:none;stroke:currentColor;stroke-linecap:round;stroke-linejoin:round;stroke-width:1.5px;}</style></defs><title>wild-bird-woodpecker</title><line class="cls-1" x1="22.3" y1="23.25" x2="22.3" y2="0.75"/><line class="cls-1" x1="14.8" y1="0.75" x2="14.8" y2="2.25"/><line class="cls-1" x1="14.8" y1="12.75" x2="14.8" y2="23.25"/><path class="cls-1" d="M11.95,6.469a.75.75,0,0,0-.585-1.219H7.3A6.991,6.991,0,0,0,2.379,7.644a.75.75,0,0,0,.464,1.262C5.266,9.167,5.8,11.6,5.8,13.5c0,2.25,0,6.75-2.25,8.25,3.75,0,8.25-2.25,8.25-7.5S8.8,9,8.8,9Z"/><line class="cls-1" x1="11.778" y1="13.5" x2="14.8" y2="13.5"/><ellipse class="cls-1" cx="16.3" cy="7.5" rx="1.5" ry="3"/><line class="cls-1" x1="11.673" y1="15.718" x2="14.8" y2="16.5"/><path class="cls-1" d="M8.8,12.75c0,2.25,0,3-.75,3.75"/></svg>