<svg id="Regular" xmlns="http://www.w3.org/2000/svg" viewBox="0 0 24 24"><defs><style>.cls-1{fill:none;stroke:currentColor;stroke-linecap:round;stroke-linejoin:round;stroke-width:1.5px;}</style></defs><title>wild-bird</title><path class="cls-1" d="M1.875,4.875a12.25,12.25,0,0,1,8.25-3c5.25,0,12,16.5,12,16.5"/><path class="cls-1" d="M4.125,3.326v.8s0,11.439,4.5,14.25c6,3.75,12-2.25,12-2.25l.352-.352"/><path class="cls-1" d="M10.875,10.125a4.658,4.658,0,0,0,3.75,4.5c3.75.75,4.5-1.5,4.5-1.5l.226-.678"/><path class="cls-1" d="M9,4.875a.375.375,0,0,1,.375.375"/><path class="cls-1" d="M8.625,5.25A.375.375,0,0,1,9,4.875"/><path class="cls-1" d="M9,5.625a.375.375,0,0,1-.375-.375"/><path class="cls-1" d="M9.375,5.25A.375.375,0,0,1,9,5.625"/><line class="cls-1" x1="8.788" y1="18.474" x2="7.875" y2="22.125"/><line class="cls-1" x1="13.875" y1="19.541" x2="13.875" y2="22.125"/></svg>