<svg id="Regular" xmlns="http://www.w3.org/2000/svg" viewBox="0 0 24 24"><defs><style>.cls-1{fill:none;stroke:currentColor;stroke-linecap:round;stroke-linejoin:round;stroke-width:1.5px;fill-rule:evenodd;}</style></defs><title>wild-bird-flock</title><path class="cls-1" d="M12.493,19.138l-.335.671a7.266,7.266,0,0,1-5.369,3.355C2.109,23.945.75,19.138.75,19.138s.671.671,3.355,0a10.451,10.451,0,0,0,1.174-.371c-1.7-.912-3.187-2.878-3.187-6.339,2.013.671,4.026.671,4.7,2.013a19.416,19.416,0,0,1,1.076,3.483A9.224,9.224,0,0,1,9.474,17.8c2.684,0,4.026,2.684,4.026,2.684"/><path class="cls-1" d="M10.142,17.853l.023-.057s1.017-2.542.508-3.559S9.148,12.712,8.64,12.2"/><path class="cls-1" d="M22.243,7.684l-.335.671a7.269,7.269,0,0,1-5.369,3.356c-4.68.78-6.039-4.027-6.039-4.027s.671.671,3.355,0a10.451,10.451,0,0,0,1.174-.371c-1.7-.912-3.187-2.878-3.187-6.339,2.013.671,4.026.671,4.7,2.013A19.467,19.467,0,0,1,17.615,6.47a9.224,9.224,0,0,1,1.609-.128c2.684,0,4.026,2.684,4.026,2.684"/><path class="cls-1" d="M19.892,6.4l.023-.057s1.017-2.542.508-3.559S18.9,1.258,18.39.75"/></svg>