<svg id="Regular" xmlns="http://www.w3.org/2000/svg" viewBox="0 0 24 24"><defs><style>.cls-1{fill:none;stroke:currentColor;stroke-linecap:round;stroke-linejoin:round;stroke-width:1.5px;}</style></defs><title>wild-bird-owl-body</title><path class="cls-1" d="M6.05,10.5A10.569,10.569,0,0,1,9.3,7.517,5.216,5.216,0,0,1,9.05,6a5.25,5.25,0,1,1,9.731,2.7c.543,1.33.842,3.732-1.481,7.05-4.326,6.18-11.2,7.268-13.483,7.459A.751.751,0,0,1,3,22.49C2.928,20.453,3.02,14.742,6.05,10.5Z"/><line class="cls-1" x1="14.3" y1="6.75" x2="14.3" y2="8.25"/><path class="cls-1" d="M20.3.75c-3,0-6,3.75-6,3.75S10.55.75,7.55.75"/><path class="cls-1" d="M11.3,12.75s-3.156,2.367-2.994,9.53"/><line class="cls-1" x1="13.413" y1="19.701" x2="14.3" y2="23.25"/><line class="cls-1" x1="12.8" y1="23.25" x2="16.55" y2="23.25"/></svg>