<svg id="Regular" xmlns="http://www.w3.org/2000/svg" viewBox="0 0 24 24"><defs><style>.cls-1{fill:none;stroke:currentColor;stroke-linecap:round;stroke-linejoin:round;stroke-width:1.5px;}</style></defs><title>wild-bird-sing</title><path class="cls-1" d="M12.658,4.218a6.752,6.752,0,0,0-2.11-.336,6.9,6.9,0,0,0-6.72,7.387,6.624,6.624,0,0,0,1.288,3.34,5.081,5.081,0,0,1,.907,4.547,21.907,21.907,0,0,1-1.475,3.476"/><path class="cls-1" d="M15.8,22.632A14.809,14.809,0,0,1,14.691,19.4,5.751,5.751,0,0,1,15.9,14.72a6.652,6.652,0,0,0,1.362-4.826"/><path class="cls-1" d="M12.8,3.882l1.361-2.268a.75.75,0,0,1,1.364.18l1.025,3.588,3.58.511A.751.751,0,0,1,20.5,7.212l-3.2,2.67a3.923,3.923,0,0,1-3.75-.75C11.3,6.882,12.8,3.882,12.8,3.882Z"/><path class="cls-1" d="M8.673,8.382a.375.375,0,0,1,.375.375"/><path class="cls-1" d="M8.3,8.757a.375.375,0,0,1,.375-.375"/><path class="cls-1" d="M8.673,9.132A.375.375,0,0,1,8.3,8.757"/><path class="cls-1" d="M9.048,8.757a.375.375,0,0,1-.375.375"/></svg>