<svg id="Regular" xmlns="http://www.w3.org/2000/svg" viewBox="0 0 24 24"><defs><style>.cls-1{fill:none;stroke:currentColor;stroke-linecap:round;stroke-linejoin:round;stroke-width:1.5px;}</style></defs><title>wild-bird-2</title><path class="cls-1" d="M2.55,12c1.209,2.419,3,4.5,7.5,4.5,5.25,0,5.25-5.25,4.5-8.25C13.622,4.54,13.8.75,16.8.75A5.625,5.625,0,0,1,21.3,3s-3.75,3-6.75,1.5"/><path class="cls-1" d="M14.9,10.718c-4.952-3.224-9.245-.576-9.057.739"/><path class="cls-1" d="M7.8,12.75a5.122,5.122,0,0,1-3-3"/><polyline class="cls-1" points="8.55 16.414 8.55 23.25 10.05 23.25"/><polyline class="cls-1" points="12.3 16.079 12.3 23.25 13.8 23.25"/></svg>