<svg id="Regular" xmlns="http://www.w3.org/2000/svg" viewBox="0 0 24 24"><defs><style>.cls-1,.cls-2{fill:none;stroke:currentColor;stroke-linecap:round;stroke-linejoin:round;stroke-width:1.5px;}.cls-1{fill-rule:evenodd;}</style></defs><title>wild-bird-parrot</title><path class="cls-1" d="M2.3,23.25A97.4,97.4,0,0,1,.8,9.75c0-5.25,1.5-9,9-9,7.414,0,12.15,4.77,13.407,7.056a.749.749,0,0,1-.7,1.11C19.946,8.773,13.025,8.6,11.3,9.75c1.5,3.75,3.75,15-5.25,12.75"/><path class="cls-1" d="M11.3,9.75A9.069,9.069,0,0,1,10.543.766"/><path class="cls-1" d="M11.882,11.493,11.3,12s-3,2.618-6,.838S3.8,7.5,3.8,7.5"/><path class="cls-1" d="M6.425,4.5a.375.375,0,0,0-.375.375"/><path class="cls-1" d="M6.8,4.875A.375.375,0,0,0,6.425,4.5"/><path class="cls-1" d="M6.425,5.25A.375.375,0,0,0,6.8,4.875"/><path class="cls-1" d="M6.05,4.875a.375.375,0,0,0,.375.375"/><line class="cls-2" x1="13.55" y1="5.25" x2="13.55" y2="9.095"/><line class="cls-2" x1="16.55" y1="6.75" x2="16.55" y2="8.849"/><path class="cls-1" d="M4.55,15.75s.847,4.235-2.86,3.7"/></svg>