<svg id="Regular" xmlns="http://www.w3.org/2000/svg" viewBox="0 0 24 24"><defs><style>.cls-1{fill:none;stroke:currentColor;stroke-linecap:round;stroke-linejoin:round;stroke-width:1.5px;}</style></defs><title>wild-pig</title><path class="cls-1" d="M15.75,16.45c0,1.657-1.679,2.25-3.75,2.25s-3.75-.593-3.75-2.25A4.046,4.046,0,0,1,12,12.7,4.046,4.046,0,0,1,15.75,16.45Z"/><line class="cls-1" x1="10.5" y1="15.7" x2="10.5" y2="16.45"/><line class="cls-1" x1="13.5" y1="15.7" x2="13.5" y2="16.45"/><path class="cls-1" d="M15.615,17.2l3-3s2.25,3,0,4.5C16.642,20.016,15.615,17.2,15.615,17.2Z"/><path class="cls-1" d="M8.386,17.2l-3-3s-2.25,3,0,4.5C7.359,20.016,8.386,17.2,8.386,17.2Z"/><path class="cls-1" d="M7.5,21.7A6.57,6.57,0,0,0,12,23.2a6.57,6.57,0,0,0,4.5-1.5"/><path class="cls-1" d="M4.5,23.247C1.5,20.95.75,18.215.75,14.95A15,15,0,0,1,2.192,8.724c-.249-.992-1.181-4.986-.461-6.468.7-1.446,3.936.8,5.019,1.444l1.5-1.5,1.5.75L12,.75l2.25,2.2,1.5-.75,1.5,1.5c1.1-.658,4.285-2.882,4.983-1.444.71,1.463-.188,5.369-.45,6.423A15,15,0,0,1,23.25,14.95c0,3.266-.75,6-3.749,8.3"/><path class="cls-1" d="M7.125,8.95a.375.375,0,0,1,.375.375"/><path class="cls-1" d="M6.75,9.325a.375.375,0,0,1,.375-.375"/><path class="cls-1" d="M7.125,9.7a.375.375,0,0,1-.375-.375"/><path class="cls-1" d="M7.5,9.325a.375.375,0,0,1-.375.375"/><path class="cls-1" d="M16.875,8.95a.375.375,0,0,1,.375.375"/><path class="cls-1" d="M16.5,9.325a.375.375,0,0,1,.375-.375"/><path class="cls-1" d="M16.875,9.7a.375.375,0,0,1-.375-.375"/><path class="cls-1" d="M17.25,9.325a.375.375,0,0,1-.375.375"/></svg>