<svg id="Regular" xmlns="http://www.w3.org/2000/svg" viewBox="0 0 24 24"><defs><style>.cls-1{fill:none;stroke:currentColor;stroke-linecap:round;stroke-linejoin:round;stroke-width:1.5px;}</style></defs><title>wildlife-protection-hold</title><path class="cls-1" d="M18.751,3a2.245,2.245,0,0,0-4.486-.137,5.5,5.5,0,0,0-4.528,0A2.245,2.245,0,1,0,7.218,5.221a4.446,4.446,0,0,0-.467,1.966A5.046,5.046,0,0,0,12,12a5.046,5.046,0,0,0,5.25-4.813,4.447,4.447,0,0,0-.468-1.966A2.242,2.242,0,0,0,18.751,3Z"/><path class="cls-1" d="M9.751,6.375a.375.375,0,0,1,.375.375"/><path class="cls-1" d="M9.376,6.75a.375.375,0,0,1,.375-.375"/><path class="cls-1" d="M9.751,7.125a.375.375,0,0,1-.375-.375"/><path class="cls-1" d="M10.126,6.75a.375.375,0,0,1-.375.375"/><path class="cls-1" d="M14.251,6.375a.375.375,0,0,1,.375.375"/><path class="cls-1" d="M13.876,6.75a.375.375,0,0,1,.375-.375"/><path class="cls-1" d="M14.251,7.125a.375.375,0,0,1-.375-.375"/><path class="cls-1" d="M14.626,6.75a.375.375,0,0,1-.375.375"/><path class="cls-1" d="M3.751,23.25,1.737,20.733a4.5,4.5,0,0,1-.986-2.812V12.75a1.5,1.5,0,0,1,1.5-1.5h0a1.5,1.5,0,0,1,1.5,1.5V16.5"/><path class="cls-1" d="M8.251,23.114v-3a4.5,4.5,0,0,0-.757-2.5L6.351,15.9a1.4,1.4,0,0,0-1.977-.445h0A1.4,1.4,0,0,0,3.9,17.25L5.251,19.5"/><path class="cls-1" d="M20.251,23.25l2.014-2.517a4.5,4.5,0,0,0,.986-2.812V12.75a1.5,1.5,0,0,0-1.5-1.5h0a1.5,1.5,0,0,0-1.5,1.5V16.5"/><path class="cls-1" d="M15.751,23.114v-3a4.493,4.493,0,0,1,.757-2.5L17.65,15.9a1.4,1.4,0,0,1,1.977-.445h0A1.4,1.4,0,0,1,20.1,17.25L18.751,19.5"/></svg>