<svg id="Regular" xmlns="http://www.w3.org/2000/svg" viewBox="0 0 24 24"><defs><style>.cls-1{fill:none;stroke:currentColor;stroke-linecap:round;stroke-linejoin:round;stroke-width:1.5px;}</style></defs><title>wind-south</title><polygon class="cls-1" points="14.25 15.477 10.5 5.25 14.25 7.5 18 5.25 14.25 15.477"/><path class="cls-1" d="M.75,20.25h10.5a1.5,1.5,0,0,1,1.5,1.5h0a1.5,1.5,0,0,1-1.5,1.5H10.5"/><path class="cls-1" d="M.75,17.25H6a1.5,1.5,0,0,0,1.5-1.5h0A1.5,1.5,0,0,0,6,14.25H5.25"/><path class="cls-1" d="M16.578,18.446A9,9,0,1,0,5.25,9.75a9.1,9.1,0,0,0,.131,1.541"/></svg>