<svg id="Regular" xmlns="http://www.w3.org/2000/svg" viewBox="0 0 24 24"><defs><style>.cls-1{fill:none;stroke:currentColor;stroke-linecap:round;stroke-linejoin:round;stroke-width:1.5px;}</style></defs><title>wine-barrel-1</title><ellipse class="cls-1" cx="12" cy="4.125" rx="7.549" ry="3.375"/><path class="cls-1" d="M20.884,9.485A14.753,14.753,0,0,1,12,12.116,14.753,14.753,0,0,1,3.116,9.485"/><path class="cls-1" d="M20.7,15.51A14.942,14.942,0,0,1,12,18a14.942,14.942,0,0,1-8.7-2.49"/><path class="cls-1" d="M8.625,3.75a.375.375,0,1,1-.375.375.375.375,0,0,1,.375-.375"/><path class="cls-1" d="M4.5,3.75a23.433,23.433,0,0,0,0,16.5c.75,1.5,3.358,3,7.5,3s6.75-1.5,7.5-3a23.433,23.433,0,0,0,0-16.5"/></svg>