<svg id="Regular" xmlns="http://www.w3.org/2000/svg" viewBox="0 0 24 24"><defs><style>.cls-1{fill:none;stroke:currentColor;stroke-linecap:round;stroke-linejoin:round;stroke-width:1.5px;}</style></defs><title>wine-glass-bottle</title><path class="cls-1" d="M13.811,9.311,11.25,6.75V1.5A.75.75,0,0,0,10.5.75H9a.75.75,0,0,0-.75.75V6.75L5.689,9.311a1.5,1.5,0,0,0-.439,1.06V21.75a1.5,1.5,0,0,0,1.5,1.5H10.5"/><line class="cls-1" x1="8.25" y1="4.5" x2="11.25" y2="4.5"/><path class="cls-1" d="M18.75,15.682a3,3,0,1,1-6,0V12h6Z"/><line class="cls-1" x1="15.75" y1="18.75" x2="15.75" y2="23.25"/><line class="cls-1" x1="18" y1="23.25" x2="13.5" y2="23.25"/></svg>