<svg id="Regular" xmlns="http://www.w3.org/2000/svg" viewBox="0 0 24 24"><defs><style>.cls-1{fill:none;stroke:currentColor;stroke-linecap:round;stroke-linejoin:round;stroke-width:1.5px;}</style></defs><title>wine-opener</title><rect class="cls-1" x="14.069" y="-1.21" width="4.456" height="17.826" rx="2.228" ry="2.228" transform="translate(-0.673 13.78) rotate(-45)"/><path class="cls-1" d="M15.772,10.329l-1.05,1.05a1.486,1.486,0,0,1-2.1,0h0a1.486,1.486,0,0,1,0-2.1l1.05-1.05"/><path class="cls-1" d="M12.621,11.379l-1.514,1.514a.742.742,0,0,1-.86.138L7.975,12.4A.742.742,0,0,0,7.1,13.49l2.627,3.052a.743.743,0,0,1-1.019,1.019L5,15.771a.743.743,0,0,0-.987,1.069l2.425,3a.743.743,0,0,1-.937,1.1L4.41,20.46a.742.742,0,0,0-.952.082l-2.71,2.71"/></svg>