<svg id="Regular" xmlns="http://www.w3.org/2000/svg" viewBox="0 0 24 24"><defs><style>.cls-1{fill:none;stroke:currentColor;stroke-linecap:round;stroke-linejoin:round;stroke-width:1.5px;}</style></defs><title>wine-barrel</title><path class="cls-1" d="M1.634,4.385a1.786,1.786,0,0,0-.884,1.6v7.538a1.784,1.784,0,0,0,.884,1.6,16.494,16.494,0,0,0,16.232,0,1.786,1.786,0,0,0,.884-1.6V5.981a1.784,1.784,0,0,0-.884-1.6A16.494,16.494,0,0,0,1.634,4.385Z"/><path class="cls-1" d="M18.75,8.25a29.293,29.293,0,0,0-9-1.5,28.711,28.711,0,0,0-9,1.5"/><path class="cls-1" d="M18.75,11.25a29.293,29.293,0,0,1-9,1.5,28.711,28.711,0,0,1-9-1.5"/><line class="cls-1" x1="14.25" y1="2.906" x2="14.25" y2="16.593"/><line class="cls-1" x1="5.25" y1="2.906" x2="5.25" y2="16.593"/><line class="cls-1" x1="5.25" y1="16.593" x2="2.25" y2="21.75"/><line class="cls-1" x1="14.25" y1="16.593" x2="17.25" y2="21.75"/><path class="cls-1" d="M18.75,12.75h3a1.5,1.5,0,0,1,1.5,1.5v1.5"/><line class="cls-1" x1="21.75" y1="9.75" x2="22.5" y2="9.75"/></svg>