<svg xmlns="http://www.w3.org/2000/svg" viewBox="0 0 24 24"><defs><style>.a{fill:none;stroke:currentColor;stroke-linecap:round;stroke-linejoin:round;stroke-width:1.5px;}</style></defs><title>wireless-payment-smartphone-1</title><line class="a" x1="10.125" y1="20.25" x2="1.875" y2="20.25"/><path class="a" d="M1.875,12.75h3.75a1.373,1.373,0,0,0,.879-.461L10.554,8.3l3.829.766a.963.963,0,0,1,.747,1.179l-.08.318a.963.963,0,0,1-.8.721l-1.876.272a.842.842,0,0,0-.75.955v2.557a1.4,1.4,0,0,1-.44.753L9.107,17.464"/><path class="a" d="M22.125,18.5a.983.983,0,0,1-.964,1H19.714c-.7,0-1.141-.051-1.446-1a59.368,59.368,0,0,1-.964-7c0-.5.482-1,1.446-1h2.411a.983.983,0,0,1,.964,1Z"/><path class="a" d="M20.625,19.5v2.25a1.5,1.5,0,0,1-1.5,1.5h-7.5a1.5,1.5,0,0,1-1.5-1.5v-1.5"/><path class="a" d="M10.125,8.725V6a1.5,1.5,0,0,1,1.5-1.5h7.5a1.5,1.5,0,0,1,1.5,1.5v4.5"/><path class="a" d="M6.032.75A6.262,6.262,0,0,0,2.758,6.883"/><path class="a" d="M7.606,2.8A4.334,4.334,0,0,0,5.339,7.048"/></svg>