<svg xmlns="http://www.w3.org/2000/svg" viewBox="0 0 24 24"><defs><style>.a{fill:none;stroke:currentColor;stroke-linecap:round;stroke-linejoin:round;stroke-width:1.5px;}</style></defs><title>wireless-payment-smartphone</title><path class="a" d="M9,13.5H.75l.842-5.164A.986.986,0,0,1,2.557,7.5H7.193a.986.986,0,0,1,.965.836Z"/><path class="a" d="M10.5,22.984V15A1.5,1.5,0,0,0,9,13.5"/><line class="a" x1="4.109" y1="10.496" x2="6.065" y2="10.496"/><line class="a" x1="5.25" y1="7.504" x2="5.25" y2="5.254"/><rect class="a" x="2.25" y="2.246" width="6" height="3" rx="1" ry="1"/><path class="a" d="M22.5,2.138a6.222,6.222,0,0,0-7.826,0"/><path class="a" d="M16.3,4.5a3.633,3.633,0,0,1,4.566,0"/><path class="a" d="M16.329,16.09a2.225,2.225,0,0,0,1.859.875c1.138,0,2.062-.692,2.062-1.547s-.924-1.546-2.062-1.546-2.063-.693-2.063-1.548.924-1.547,2.063-1.547a2.224,2.224,0,0,1,1.858.875"/><line class="a" x1="18.188" y1="16.965" x2="18.188" y2="17.996"/><line class="a" x1="18.188" y1="9.746" x2="18.188" y2="10.777"/><path class="a" d="M21.3,23.246H15.45a1.959,1.959,0,0,1-1.95-1.969V9.465A1.96,1.96,0,0,1,15.45,7.5H21.3a1.96,1.96,0,0,1,1.95,1.969V21.277A1.959,1.959,0,0,1,21.3,23.246Z"/><line class="a" x1="13.5" y1="20.246" x2="23.25" y2="20.246"/></svg>