<svg id="Regular" xmlns="http://www.w3.org/2000/svg" viewBox="0 0 24 24"><defs><style>.cls-1{fill:none;stroke:currentColor;stroke-linecap:round;stroke-linejoin:round;stroke-width:1.5px;fill-rule:evenodd;}</style></defs><title>wolf-howl</title><path class="cls-1" d="M17.01,22.839c2.956-2.957,2.217-8.13,2.217-8.13a28.135,28.135,0,0,0,3.7-4.434,4.565,4.565,0,0,0,.241-2.657.739.739,0,0,0-1.11-.517L19.227,8.8s2.522-3.784,1.16-7.274A.74.74,0,0,0,19.254,1.2l-5.2,3.9A7.25,7.25,0,0,0,8.88,5.84C6.663,7.319,2.968,10.275.751,11.014c2.217,2.217,5.912,2.217,6.651,1.478"/><path class="cls-1" d="M5.262,12.924l-.077.307A9.437,9.437,0,0,1,.751,18.4"/><path class="cls-1" d="M8.88,5.84a4.173,4.173,0,0,0,0,4.435c1.478,2.217,5.174,2.217,5.174,2.217a6.256,6.256,0,0,0-.739,3.7c.723,2.893,4.278,3.663,4.429,5.773"/><path class="cls-1" d="M12.206,8.052a.375.375,0,0,1,.375.375"/><path class="cls-1" d="M11.831,8.427a.375.375,0,0,1,.375-.375"/><path class="cls-1" d="M12.206,8.8a.375.375,0,0,1-.375-.375"/><path class="cls-1" d="M12.581,8.427a.375.375,0,0,1-.375.375"/></svg>