<svg id="Regular" xmlns="http://www.w3.org/2000/svg" viewBox="0 0 24 24"><defs><style>.cls-1{fill:none;stroke:currentColor;stroke-linecap:round;stroke-linejoin:round;stroke-width:1.5px;}</style></defs><title>wolf-sit-1</title><path class="cls-1" d="M2.251,23.25V18c0-2.25-1.5-3.75-1.5-6.75V.75s3,.75,3,2.25H7.2a.751.751,0,0,1,.511.2,9.278,9.278,0,0,0,2.92,1.944.749.749,0,0,1,.5.9,2.75,2.75,0,0,1-2.884,2.2H6.5"/><path class="cls-1" d="M7.5,8.25s1.331,3.946,3.75,5.155c3,1.5,5.25,3.1,4.5,6.845A3.684,3.684,0,0,1,12,23.155l-3.75.095"/><line class="cls-1" x1="5.251" y1="17.25" x2="5.251" y2="23.25"/><path class="cls-1" d="M10.458,23.194c-.352-.474-2.689-3.855.793-5.944"/><path class="cls-1" d="M18.277,15.9c.149-.264.307-.561.474-.895a7.244,7.244,0,0,0,0-6s6.75,2.25,3.75,9.75c-1.625,4.06-6.75,3-6.75,3l-.564-.117"/></svg>