<svg id="Regular" xmlns="http://www.w3.org/2000/svg" viewBox="0 0 24 24"><defs><style>.cls-1{fill:none;stroke:currentColor;stroke-linecap:round;stroke-linejoin:round;stroke-width:1.5px;fill-rule:evenodd;}</style></defs><title>wolf-2</title><path class="cls-1" d="M16.5,23.25a5.454,5.454,0,0,1-3.75-3.75C11.477,14.407,16.5,15,18,15c2.108,0,4.874-1.317,5.215-5.183A.752.752,0,0,0,22.469,9H18a4,4,0,0,0-3.75-3h-3V.75S7.5,2.25,6,5.25,4.5,9,4.5,9s-3.75,3-3.75,9.75"/><path class="cls-1" d="M13.126,9a.375.375,0,0,1,.375.375"/><path class="cls-1" d="M12.751,9.375A.375.375,0,0,1,13.126,9"/><path class="cls-1" d="M13.126,9.75a.375.375,0,0,1-.375-.375"/><path class="cls-1" d="M13.5,9.375a.375.375,0,0,1-.375.375"/></svg>