<svg id="Regular" xmlns="http://www.w3.org/2000/svg" viewBox="0 0 24 24"><defs><style>.cls-1,.cls-2{fill:none;stroke:currentColor;stroke-linecap:round;stroke-linejoin:round;stroke-width:1.5px;}.cls-1{fill-rule:evenodd;}</style></defs><title>wolf</title><path class="cls-1" d="M14.24,5.345s.086-1.37,2.238-2.984C19.462.123,21.7.869,21.7.869s0,5.223-2.238,6.715a10.524,10.524,0,0,0,2.81,5.129,1.492,1.492,0,0,1,.076,1.994c-.915,1.095-2.5,2.575-4.378,2.575,0,0-2.238,5.968-5.968,5.968s-5.968-5.968-5.968-5.968c-1.88,0-3.463-1.48-4.378-2.575a1.488,1.488,0,0,1,.076-1.994,10.524,10.524,0,0,0,2.81-5.129C2.3,6.092,2.3.869,2.3.869S4.542.123,7.526,2.361C9.678,3.975,9.764,5.345,9.764,5.345A4.036,4.036,0,0,1,14.24,5.345Z"/><line class="cls-2" x1="11.256" y1="19.52" x2="12.748" y2="19.52"/><path class="cls-2" d="M8.645,12.058a.375.375,0,0,1,.375.375"/><path class="cls-2" d="M8.27,12.433a.375.375,0,0,1,.375-.375"/><path class="cls-2" d="M8.645,12.808a.375.375,0,0,1-.375-.375"/><path class="cls-2" d="M9.02,12.433a.375.375,0,0,1-.375.375"/><path class="cls-2" d="M15.359,12.058a.375.375,0,0,1,.375.375"/><path class="cls-2" d="M14.984,12.433a.375.375,0,0,1,.375-.375"/><path class="cls-2" d="M15.359,12.808a.375.375,0,0,1-.375-.375"/><path class="cls-2" d="M15.734,12.433a.375.375,0,0,1-.375.375"/><line class="cls-2" x1="13.494" y1="10.568" x2="15.732" y2="9.076"/><line class="cls-2" x1="10.51" y1="10.568" x2="8.272" y2="9.076"/></svg>