<svg id="Regular" xmlns="http://www.w3.org/2000/svg" viewBox="0 0 24 24"><defs><style>.cls-1{fill:none;stroke:currentColor;stroke-linecap:round;stroke-linejoin:round;stroke-width:1.5px;}</style></defs><title>wolf-3</title><path class="cls-1" d="M8.9,3.891A15.607,15.607,0,0,0,4.251,7.5S5.751,9,6.5,9l-3.75,3.75A3.285,3.285,0,0,0,5,13.5c-3,3-1.5,6-3.75,9"/><path class="cls-1" d="M17.751,23.25a16.513,16.513,0,0,0-2.25-9c-.75-1.5,3-.75,4.5-.75s3-3.75,3-3.75A11.6,11.6,0,0,1,18.5,7.5C16.968,5.967,17,2.869,12.2,3"/><path class="cls-1" d="M12.5,4.5,11.751.75a4.36,4.36,0,0,0-3,4.5"/><path class="cls-1" d="M14.376,7.5A.375.375,0,0,0,14,7.875"/><path class="cls-1" d="M14.751,7.875a.375.375,0,0,0-.375-.375"/><path class="cls-1" d="M14.376,8.25a.375.375,0,0,0,.375-.375"/><path class="cls-1" d="M14,7.875a.375.375,0,0,0,.375.375"/></svg>