<svg id="Regular" xmlns="http://www.w3.org/2000/svg" viewBox="0 0 24 24"><defs><style>.cls-1{fill:none;stroke:currentColor;stroke-linecap:round;stroke-linejoin:round;stroke-width:1.5px;}</style></defs><title>wolf-sit</title><path class="cls-1" d="M19.668,23.25c-1.5-3-2.375-13.062,0-14.25a7.518,7.518,0,0,1,2.525-.719.751.751,0,0,0,.634-.509l.385-1.155a.75.75,0,0,0-.376-.908L20.418,4.5a3.742,3.742,0,0,0-3.75-2.25l-1.5-1.5c-1.5,1.5-1.5,3.75-1.5,6.75s-2.374,5.024-5.25,6.75c-3.75,2.25-3,9,1.5,9h2.25"/><path class="cls-1" d="M15.168,15a23.431,23.431,0,0,0,1.409,8l.091.248"/><path class="cls-1" d="M10.668,17.25a5.548,5.548,0,0,1-.431,6"/><path class="cls-1" d="M4.5,14.783c-1.051-1.53-.334-5.292.17-5.783,0,0-3.75.75-3.75,6,0,5.719,4.5,4.5,4.5,4.5l.625-.169"/></svg>