<svg id="Regular" xmlns="http://www.w3.org/2000/svg" viewBox="0 0 24 24"><defs><style>.cls-1{fill:none;stroke:currentColor;stroke-linecap:round;stroke-linejoin:round;stroke-width:1.5px;}</style></defs><title>wolf-howl-1</title><path class="cls-1" d="M13.926,23.25s-.575-.575-.575-3.45a8.292,8.292,0,0,1,2.35-6.3c1.15-1.15-.05-3.475-.05-3.475l-3.45,2.3s1.725-3.45,1.725-4.6A2.127,2.127,0,0,0,12.776,6L9.326,9.45c-1.725,1.725-2.3.575-4.6,2.875s-2.3,5.75-4.025,6.9c2.3.575,4.025,0,4.6-1.15"/><path class="cls-1" d="M4.174,19.107l-.023.118A23.437,23.437,0,0,1,3,23.25"/><path class="cls-1" d="M8.626,12.75A.375.375,0,0,1,9,13.125"/><path class="cls-1" d="M8.251,13.125a.375.375,0,0,1,.375-.375"/><path class="cls-1" d="M8.626,13.5a.375.375,0,0,1-.375-.375"/><path class="cls-1" d="M9,13.125a.375.375,0,0,1-.375.375"/><path class="cls-1" d="M16.5,4.5a3,3,0,0,1,3,3"/><path class="cls-1" d="M17.251.75a6,6,0,0,1,6,6"/></svg>