<svg id="Regular" xmlns="http://www.w3.org/2000/svg" viewBox="0 0 24 24"><defs><style>.cls-1{fill:none;stroke:currentColor;stroke-linecap:round;stroke-linejoin:round;stroke-width:1.5px;}</style></defs><title>yoga-meditate</title><circle class="cls-1" cx="12.009" cy="3.75" r="3"/><path class="cls-1" d="M11.7,19.238l2.44,1.156a1.5,1.5,0,0,1-1.285,2.711l-6.1-2.891A1.5,1.5,0,1,1,8.043,17.5L9,17.957H9V13.449a4.489,4.489,0,0,1-2.625.8A4.49,4.49,0,0,1,2.5,12.573a1.5,1.5,0,0,1,2.46-1.716,1.987,1.987,0,0,0,1.419.393c1.508,0,1.93-2.3,5.634-2.25,3.705-.051,4.126,2.25,5.634,2.25a1.991,1.991,0,0,0,1.42-.393,1.5,1.5,0,0,1,2.459,1.716,4.488,4.488,0,0,1-3.879,1.677,4.551,4.551,0,0,1-2.643-.8v4.132l.7-.256a1.5,1.5,0,0,1,.937,2.85"/></svg>