<svg id="Regular" xmlns="http://www.w3.org/2000/svg" viewBox="0 0 24 24"><defs><style>.cls-1{fill:none;stroke:currentColor;stroke-linecap:round;stroke-linejoin:round;stroke-width:1.5px;}</style></defs><title>yoga-shoulder-stretch</title><circle class="cls-1" cx="12" cy="4.125" r="2.625"/><path class="cls-1" d="M21,9H3a1.5,1.5,0,0,0,0,3h7.5v3H9a4.505,4.505,0,0,0-4.5,4.5V21a1.5,1.5,0,0,0,3,0V19.5A1.5,1.5,0,0,1,9,18h2.073l1.006,2.013A4.479,4.479,0,0,0,16.1,22.5H18a1.5,1.5,0,0,0,0-3H16.1a1.491,1.491,0,0,1-1.341-.829L13.5,16.146V12H21a1.5,1.5,0,0,0,0-3Z"/><line class="cls-1" x1="10.5" y1="15" x2="13.5" y2="15"/></svg>