<svg id="Regular" xmlns="http://www.w3.org/2000/svg" viewBox="0 0 24 24"><defs><style>.cls-1{fill:none;stroke:currentColor;stroke-linecap:round;stroke-linejoin:round;stroke-width:1.5px;}</style></defs><title>yoga-mat</title><circle class="cls-1" cx="4.5" cy="19.5" r="3.75"/><path class="cls-1" d="M.75,19.5V4.5a3.75,3.75,0,0,1,7.5,0v15"/><path class="cls-1" d="M11.25,4.5h10.5A1.5,1.5,0,0,1,23.25,6V21.75a1.5,1.5,0,0,1-1.5,1.5H4.5"/><path class="cls-1" d="M4.5,19.125a.375.375,0,0,1,.375.375"/><path class="cls-1" d="M4.125,19.5a.375.375,0,0,1,.375-.375"/><path class="cls-1" d="M4.5,19.875a.375.375,0,0,1-.375-.375"/><path class="cls-1" d="M4.875,19.5a.375.375,0,0,1-.375.375"/></svg>