<svg id="Regular" xmlns="http://www.w3.org/2000/svg" viewBox="0 0 24 24"><defs><style>.cls-1{fill:none;stroke:currentColor;stroke-linecap:round;stroke-linejoin:round;stroke-width:1.5px;}</style></defs><title>yoga-leg-grab-stretch</title><circle class="cls-1" cx="6.074" cy="3.375" r="2.625"/><path class="cls-1" d="M19.372,8.978,19.75,12H16.07L12.7,8.625,15.32,6h3.129a1.5,1.5,0,0,0,0-3H15.32a3.021,3.021,0,0,0-2.121.879L7.328,9.75H2.7a1.5,1.5,0,0,0,0,3H7.328a3.023,3.023,0,0,0,2.121-.879l1.125-1.125,3.375,3.375V21.75a1.5,1.5,0,0,0,3,0V15h2.8a3,3,0,0,0,2.976-3.372l-.539-4.314"/><line class="cls-1" x1="13.949" y1="14.121" x2="16.07" y2="12"/></svg>