<svg id="Regular" xmlns="http://www.w3.org/2000/svg" viewBox="0 0 24 24"><defs><style>.cls-1{fill:none;stroke:currentColor;stroke-linecap:round;stroke-linejoin:round;stroke-width:1.5px;}</style></defs><title>yoga-back-stretch</title><circle class="cls-1" cx="5.625" cy="20.625" r="2.625"/><path class="cls-1" d="M18.168,23.25H12a1.5,1.5,0,0,1-1.462-1.837l2.095-9.075a1.513,1.513,0,0,0,0-.676L10.538,2.587a1.5,1.5,0,1,1,2.924-.674l2.1,9.075a4.52,4.52,0,0,1,0,2.024L13.885,20.25h4.283l-.841-2.525a1.5,1.5,0,0,1,2.845-.95l.843,2.526a3,3,0,0,1-2.847,3.949Z"/><line class="cls-1" x1="15.75" y1="20.25" x2="15.75" y2="23.25"/><line class="cls-1" x1="12.304" y1="13.763" x2="15.215" y2="14.491"/></svg>