<svg id="Regular" xmlns="http://www.w3.org/2000/svg" viewBox="0 0 24 24"><defs><style>.cls-1{fill:none;stroke:currentColor;stroke-linecap:round;stroke-linejoin:round;stroke-width:1.5px;}</style></defs><title>yoga-bridge</title><circle class="cls-1" cx="10.125" cy="12" r="2.625"/><path class="cls-1" d="M2.251,20.25A1.5,1.5,0,0,1,.762,18.564L2.155,7.418a3.009,3.009,0,0,1,1.8-2.385l.879-.378A17.611,17.611,0,0,1,22.006,6.561,3.01,3.01,0,0,1,23.25,8.993V18.75a1.5,1.5,0,0,1-3,0V8.993A14.609,14.609,0,0,0,6.012,7.412l-.879.378L3.738,18.936A1.5,1.5,0,0,1,2.251,20.25Z"/><line class="cls-1" x1="16.234" y1="6.959" x2="17.288" y2="4.148"/><line class="cls-1" x1="1.749" y1="10.666" x2="4.711" y2="11.16"/></svg>