<svg id="Regular" xmlns="http://www.w3.org/2000/svg" viewBox="0 0 24 24"><defs><style>.cls-1{fill:none;stroke:currentColor;stroke-linecap:round;stroke-linejoin:round;stroke-width:1.5px;}</style></defs><title>yoga-full-body-stretch</title><circle class="cls-1" cx="12" cy="7.272" r="2.25"/><path class="cls-1" d="M19.365,23.016,15.75,19.4V14.564a8.018,8.018,0,0,0,2.083-1.459,8.247,8.247,0,0,0,0-11.666,1.5,1.5,0,0,0-2.121,2.122,5.247,5.247,0,0,1,0,7.423,5.374,5.374,0,0,1-7.424,0,5.247,5.247,0,0,1,0-7.423A1.5,1.5,0,0,0,6.167,1.439a8.247,8.247,0,0,0,0,11.666A8.018,8.018,0,0,0,8.25,14.564v8.458"/><path class="cls-1" d="M15.116,23.01l-1.3-1.306a1.5,1.5,0,0,0-2.561,1.061v.257"/></svg>