<svg id="Regular" xmlns="http://www.w3.org/2000/svg" viewBox="0 0 24 24"><defs><style>.cls-1{fill:none;stroke:currentColor;stroke-linecap:round;stroke-linejoin:round;stroke-width:1.5px;}</style></defs><title>yoga-stretch</title><circle class="cls-1" cx="15" cy="3.375" r="2.625"/><path class="cls-1" d="M18,23.25l.006-12A8.264,8.264,0,0,0,23.25,3.563a1.5,1.5,0,1,0-3,0,5.25,5.25,0,0,1-10.5,0,1.5,1.5,0,0,0-3,0A8.294,8.294,0,0,0,6.9,5.109"/><circle class="cls-1" cx="7.5" cy="10.688" r="2.625"/><path class="cls-1" d="M9.75,23.25V18.007c1.406.207,2.618.507,2.637.512a1.56,1.56,0,0,0,.363.044,1.5,1.5,0,0,0,.363-2.955A27.726,27.726,0,0,0,7.5,14.813a27.726,27.726,0,0,0-5.613.8,1.5,1.5,0,0,0,.726,2.911c.019,0,1.231-.3,2.637-.512V23.25"/></svg>