<svg id="Regular" xmlns="http://www.w3.org/2000/svg" viewBox="0 0 24 24"><defs><style>.cls-1{fill:none;stroke:currentColor;stroke-linecap:round;stroke-linejoin:round;stroke-width:1.5px;}</style></defs><title>yoga-down-stretch</title><path class="cls-1" d="M7.5,7.253a2.625,2.625,0,0,0-2.983,4.226"/><path class="cls-1" d="M21.751,19a1.5,1.5,0,0,1-1.237-.65L13.5,8.147,6.933,17.7A3,3,0,0,1,4.46,19H2.25a1.5,1.5,0,0,1,0-3H4.46l6.567-9.552a3,3,0,0,1,4.944,0l7.015,10.2A1.5,1.5,0,0,1,21.751,19Z"/><line class="cls-1" x1="10.002" y1="7.939" x2="12.404" y2="9.741"/><line class="cls-1" x1="6.345" y1="13.259" x2="8.747" y2="15.06"/></svg>