<svg id="Regular" xmlns="http://www.w3.org/2000/svg" viewBox="0 0 24 24"><defs><style>.cls-1{fill:none;stroke:currentColor;stroke-linecap:round;stroke-linejoin:round;stroke-width:1.5px;}</style></defs><title>yoga-stretch-1</title><circle class="cls-1" cx="3.375" cy="12.125" r="2.625"/><path class="cls-1" d="M18.03,5.716l3.845,3.466a4.161,4.161,0,0,1,.8,5.206L21.05,17.135a4.471,4.471,0,0,1-3.814,2.115H13.251a4.475,4.475,0,0,1-4.024-2.487L7.056,12.421a1.5,1.5,0,0,1,.281-1.732l5.25-5.25a1.5,1.5,0,1,1,2.121,2.122l-4.485,4.485,1.687,3.375a1.491,1.491,0,0,0,1.341.829h3.984a1.489,1.489,0,0,0,1.27-.7l1.518-2.424a1.5,1.5,0,0,0-.286-1.925L17.116,8.9"/><line class="cls-1" x1="9.138" y1="8.888" x2="11.259" y2="11.01"/><line class="cls-1" x1="16.5" y1="16.25" x2="16.5" y2="19.25"/></svg>