<svg width="195" height="109" xmlns="http://www.w3.org/2000/svg" xmlns:xlink="http://www.w3.org/1999/xlink"><defs><filter x="-5%" y="-8.3%" width="111%" height="120.8%" filterUnits="objectBoundingBox" id="a"><feOffset dx="1" dy="2" in="SourceAlpha" result="shadowOffsetOuter1"/><feGaussianBlur stdDeviation="3" in="shadowOffsetOuter1" result="shadowBlurOuter1"/><feColorMatrix values="0 0 0 0 0 0 0 0 0 0 0 0 0 0 0 0 0 0 0.5 0" in="shadowBlurOuter1"/></filter><path id="b" d="M95.134 10.465L66.63 3.792 25.771 7.907 4.621 99.832l53.213-9.51 37.3 6.417 37.556-6.672 52.957 9.765-21.151-91.925-40.859-4.115-28.503 6.673"/></defs><g fill="none" fill-rule="evenodd"><g transform="translate(1.355 1.17)"><use fill="#000" filter="url(#a)" xlink:href="#b"/><use fill="#FFFFFE" xlink:href="#b"/></g><path fill="#E3E999" d="M161.503 15.4L126.4 11.893l-28.916 6.714v72.031l36.78-13.105 44.782 13.568-17.542-75.7"/><path fill="#B2B772" d="M161.48 15.4l-35.152-3.507 7.874 65.64 44.843 13.568-17.566-75.7"/><path fill="#90918D" d="M33.463 15.4l35.08-3.507 28.94 6.714v72.031L60.355 84.34 15.922 91.1l17.54-75.7"/><path fill="#E3E999" d="M33.494 15.4l35.144-3.507-7.854 65.617L15.922 91.1l17.572-75.7"/><path fill="#E5E5E0" d="M28.852 32.97l34.224 11.775 31.89 20.613 3.512-5.526L66.24 38.986l-.693-.327-34.616-11.915-2.08 6.226"/><path fill="#8AC6CA" d="M64.66 40.629l-4.765 44.635-43.973 6.827 13.951-61.386 34.787 9.924"/><path fill="#6E9AA0" d="M64.267 42.586L93.505 60.37 61.397 82.957l-1.687 2.087-.024.116 4.58-42.574"/><path fill="#B2B772" d="M68.192 11.916l.187-.023 29.104 6.766v42.739L64.66 42.958l3.532-31.042"/><path fill="#FFFFFE" d="M28.852 32.213L64.07 44.528l30.896 19.84 3.513-5.486L64.9 37.63 30.054 25.754l-1.202 6.459"/><path fill="#C8C7C2" d="M97.483 62.927v28.698l37.384-6.604 44.178 7.07-12.307-53.466-41.433 12.652-27.822 11.65"/><path fill="#ADADAA" d="M130.307 49.579l4.068 35.442 44.67 7.07L166.6 38.625 130.307 49.58"/><path fill="#FFFFFE" d="M165.803 34.665l-36.526 9.093-.07.093-2.007.837-31.554 14.278-.14.07-58.697 29.907 6.278 4.138 55.43-28.231 31.927-14.487 36.665-9.28-1.306-6.418"/><path fill="#FFFFFE" d="M63.665 45.523l31.259 19.835 3.554-5.485-33.995-21.248-.818 6.898"/><path fill="#FFFFFE" d="M62.67 40.528l32.543-28.635 5.254 3.99-33.556 29.673-4.24-5.028M42.281 44.566c6.317 0 11.437 5.098 11.437 11.386 0 6.289-5.12 11.386-11.437 11.386-6.318 0-11.44-5.097-11.44-11.386 0-6.288 5.122-11.386 11.44-11.386M154.18 42.586c4.943 0 8.95 4.654 8.95 10.396 0 5.741-4.007 10.396-8.95 10.396-4.946 0-8.954-4.655-8.954-10.396 0-5.742 4.008-10.396 8.953-10.396"/><path d="M42.132 42.52c-9.358-.243-15.823 9.72-12.587 18.647 1.429 3.918 8.988 14.114 11.583 18.103.786 1.158 1.212 1.158 1.997 0 2.604-3.99 10.155-14.185 11.583-18.103 3.246-8.927-3.219-18.89-12.576-18.648zm-9.595 13.785c0 5.312 4.394 9.62 9.812 9.62 5.404 0 9.797-4.308 9.797-9.62 0-5.313-4.393-9.61-9.797-9.61-5.418 0-9.812 4.297-9.812 9.61zM153.53 40.537c-7.971-.203-13.478 8.186-10.721 15.704 1.217 3.3 7.656 11.885 9.867 15.245.67.975 1.032.975 1.7 0 2.219-3.36 8.651-11.946 9.867-15.245 2.765-7.518-2.741-15.907-10.713-15.704zm-7.988 11.61c0 4.55 3.676 8.242 8.208 8.242 4.52 0 8.195-3.691 8.195-8.243 0-4.551-3.675-8.233-8.195-8.233-4.532 0-8.208 3.682-8.208 8.233z" fill="#D8272D"/><path d="M32.703 56.338c0 5.33 4.512 9.654 10.074 9.655V80.21c-.313.002-.629-.288-1.036-.868-2.692-3.99-10.531-14.186-12.013-18.103-3.356-8.928 3.347-18.889 13.05-18.649v4.104c-5.563.002-10.075 4.314-10.075 9.644" fill="#B0252A"/><path d="M99.97 4.962c4.669 0 8.454 3.768 8.454 8.416 0 4.649-3.785 8.416-8.454 8.416-4.669 0-8.455-3.767-8.455-8.416 0-4.648 3.786-8.416 8.455-8.416" fill="#FFFFFE"/><path d="M100.03 5.314c-4.05.083-7.31 3.376-7.31 7.427 0 4.05 3.26 7.342 7.31 7.425 4.054-.083 7.311-3.376 7.311-7.425 0-4.051-3.257-7.344-7.31-7.427zm-.21 29.279c-5.458-8.137-8.783-14.443-9.978-18.92a10.718 10.718 0 01-.464-3.125c0-5.818 4.66-10.543 10.443-10.628 5.782.085 10.444 4.81 10.444 10.628a10.72 10.72 0 01-.466 3.126c-1.193 4.476-4.52 10.782-9.978 18.919z" fill="#D8272D"/><path d="M100.467 34.665c-5.719-8.137-9.202-14.443-10.454-18.92a10.268 10.268 0 01-.487-3.125c0-5.818 4.883-10.543 10.941-10.628v3.106c-4.265.084-7.696 3.419-7.696 7.522 0 4.102 3.431 7.437 7.696 7.52v14.525" fill="#B0252A"/></g></svg>
