<?xml version="1.0" encoding="UTF-8"?>
<svg width="54px" height="22px" viewBox="0 0 54 22" version="1.1" xmlns="http://www.w3.org/2000/svg" xmlns:xlink="http://www.w3.org/1999/xlink">
    <!-- Generator: Sketch 52.3 (67297) - http://www.bohemiancoding.com/sketch -->
    <title>Shape</title>
    <desc>Created with Sketch.</desc>
    <g id="2018-Aut" stroke="none" stroke-width="1" fill="none" fill-rule="evenodd">
        <g id="Car-Index-\-≥1440px" transform="translate(-848.000000, -628.000000)" fill="#979797" fill-rule="nonzero">
            <g id="Body-Styles" transform="translate(815.000000, 550.000000)">
                <g id="Сonvertible" transform="translate(7.000000, 61.000000)">
                    <path d="M42.989171,33.6682791 C46.8375615,33.8364171 50.4743869,33.9950849 52.4803175,34.0806633 C53.5444168,34.1260607 54.5846514,34.1701633 55.6023454,34.2130126 C58.2510949,34.3245363 60.728718,34.4268125 63.0266411,34.5192964 C63.1024977,35.25441 63.3376193,35.9422743 63.6969167,36.5478 C61.1891044,36.4474954 58.4590221,36.3350629 55.5182114,36.2112422 C54.5001369,36.1683769 53.4595318,36.1242586 52.3950696,36.0788457 C50.2920225,35.989124 46.5915301,35.8277279 42.7183865,35.6584501 C42.0343178,37.6047282 40.1801005,39 38,39 C35.2385763,39 33,36.7614237 33,34 C33,31.2385763 35.2385763,29 38,29 C40.6499606,29 42.8184307,31.0615061 42.989171,33.6682791 Z M74.9073856,34.9627994 C75.3127422,34.9760549 75.704011,34.9885311 76.0810285,35.0002178 C76.2140341,35.0043406 76.803163,34.8801652 77.236593,34.706098 C77.677409,34.5290646 77.8580743,34.3649305 77.8580743,34.3671148 C77.8580743,33.8875206 77.8749315,33.4843074 77.9304201,32.4303214 C77.9367573,32.3098625 77.9367573,32.3098625 77.9430125,32.1896529 C78.0261068,30.5850969 78.0198942,29.7501825 77.9101408,29.423497 C77.7239494,28.8692908 77.2346148,28.5568683 76.0423486,28.1864964 C75.9346902,28.1530529 75.8264268,28.1202246 75.6036574,28.0529406 C75.3754692,27.9837337 75.2215205,27.9355011 75.0662795,27.8834968 C73.5742211,27.383671 71.454658,26.8664398 68.3208609,26.2012002 C67.4384828,26.0138898 64.5272287,25.410997 64.175766,25.337158 C63.5365888,25.2028727 62.8890275,24.8444433 61.8354793,24.1239827 C61.5581108,23.9343064 60.4641363,23.1668289 60.5174001,23.2039612 C59.9498745,22.808316 59.4930116,22.4998112 59.026069,22.2012619 C57.2077211,21.038664 55.5327771,20.2353895 53.747152,19.766131 C53.2130042,19.625758 52.8937866,19.0789509 53.0341595,18.5448031 C53.1745324,18.0106553 53.7213395,17.6914377 54.2554873,17.8318106 C56.2689776,18.3609516 58.1235998,19.2503967 60.1034237,20.5162376 C60.5962458,20.8313335 61.0736392,21.1537019 61.6611744,21.5632966 C61.6173561,21.5327491 62.6986889,22.2913579 62.9644327,22.4730847 C63.7979077,23.0430499 64.2960266,23.318762 64.5869707,23.3798867 C64.9337492,23.4527417 67.8478435,24.0562226 68.7361649,24.2447947 C71.9424101,24.9254135 74.1149278,25.455567 75.7015632,25.9870752 C75.83442,26.031581 75.9728638,26.0749559 76.184125,26.1390291 C76.4046054,26.205611 76.5204574,26.2407403 76.6356704,26.2765307 C78.3943949,26.8228701 79.351606,27.4340149 79.8060079,28.7865606 C80.0350096,29.4681937 80.0414946,30.3397094 79.940336,32.2930874 C79.9340143,32.4145747 79.9340143,32.4145747 79.9276542,32.5354687 C79.8742432,33.5499914 79.8580743,33.9367409 79.8580743,34.3671148 C79.8580743,36.107312 77.5211753,37.0458196 76.0190629,36.9992576 C75.4000452,36.9800695 74.7428209,36.9587623 74.0480987,36.9353816 C73.1393033,38.186509 71.6646521,39 70,39 C67.2385763,39 65,36.7614237 65,34 C65,31.2385763 67.2385763,29 70,29 C72.7614237,29 75,31.2385763 75,34 C75,34.3293404 74.9681583,34.6512437 74.9073856,34.9627994 Z M31.0721054,33.1491353 C31.0246979,33.4256628 31,33.7099472 31,34 C31,34.3968162 31.0462258,34.7828358 31.1335863,35.1529676 C29.5135991,35.0828953 28.4841446,35.0391994 28.4320505,35.0391994 C26.7915967,35.0391994 26,32.8020783 26,29.9505158 C26,26.0785242 27.2793474,22.5939446 30.0761447,22.5804264 C30.2177078,22.5797421 30.5682888,22.5829741 31.5887012,22.5930629 C31.9410564,22.5963409 32.2459271,22.5988997 32.5363624,22.6009247 C33.8214684,22.6098847 34.7617252,22.604836 34.8530743,22.5912672 C35.0961696,22.5551584 35.2016429,22.5390479 35.3132898,22.520466 C35.6762811,22.4600517 35.8245326,22.4156411 35.9558275,22.3384886 C36.1144453,22.2452805 36.3175904,22.0679219 36.7195769,21.6625954 C36.6874097,21.6950299 37.9898145,20.358314 38.5783619,19.7710973 C39.7808988,18.5712794 41.6081603,17.7989708 43.9702148,17.7989708 C44.894797,18.2318703 44.894797,18.2318703 44.9413344,18.551606 C44.9722603,18.711782 44.9722603,18.711782 44.9745744,18.7827916 C44.9748376,18.8836078 44.9748376,18.8836078 44.9705356,18.9447919 C44.9660443,19.0067434 44.958528,19.0795582 44.9456018,19.1926431 C44.928652,19.3385549 44.928652,19.3385549 44.9083882,19.5124144 C44.8917862,19.6563318 44.8778564,19.782286 44.8645593,19.9107415 C44.8015053,20.5198696 44.7656226,21.0682459 44.7644673,21.5809997 C44.7629329,22.2619933 44.8263254,22.807402 44.9499433,23.1533417 C45.0231769,23.3582828 45.0234368,23.3585223 45.0148926,23.3585223 C46.3957662,23.3585223 50.7260978,23.5720381 58.0583334,24.0004821 C58.6096777,24.0326988 59.0305138,24.5057684 58.9982972,25.0571127 C58.9660805,25.608457 58.4930109,26.0292931 57.9416666,25.9970765 C50.6644027,25.5718446 46.337996,25.3585223 45.0148926,25.3585223 C43.2969746,25.3585223 42.7593409,23.8539766 42.7644724,21.5764934 C42.7656894,21.0363682 42.7992848,20.4787309 42.8581775,19.8740782 C41.596174,20.0525618 40.6430274,20.5363314 39.990974,21.1869105 C39.4147541,21.7618276 38.1173879,23.0933721 38.1396292,23.070946 C37.6219168,23.59296 37.3197985,23.8567284 36.9690888,24.062815 C36.5854053,24.2882779 36.2250354,24.3962313 35.6416422,24.4933281 C35.5144231,24.5145017 35.4019107,24.5316874 35.1469257,24.5695622 C34.8911502,24.6075545 34.0941128,24.6118343 32.5224183,24.6008761 C32.2302283,24.5988389 31.9238821,24.5962677 31.5700955,24.5929763 C30.5451963,24.5828791 30.2109806,24.579798 30.0858115,24.580403 C28.9313693,24.585983 28,27.1227688 28,29.9505158 C28,30.9813111 28.1343154,31.9022983 28.3594075,32.5384281 C28.441317,32.7699114 28.5285536,32.9428243 28.6043266,33.0450803 C28.9607792,33.0588682 29.8416174,33.096164 31.0721054,33.1491353 Z M70,37 C71.6568542,37 73,35.6568542 73,34 C73,32.3431458 71.6568542,31 70,31 C68.3431458,31 67,32.3431458 67,34 C67,35.6568542 68.3431458,37 70,37 Z M38,37 C39.6568542,37 41,35.6568542 41,34 C41,32.3431458 39.6568542,31 38,31 C36.3431458,31 35,32.3431458 35,34 C35,35.6568542 36.3431458,37 38,37 Z" id="Shape"></path>
                </g>
            </g>
        </g>
    </g>
</svg>