<svg width="51" height="23" xmlns="http://www.w3.org/2000/svg"><g fill="none" fill-rule="evenodd"><path d="M15.716 19.666A5.002 5.002 0 0 1 6 18a5 5 0 0 1 9.99-.324 3654.435 3654.435 0 0 0 18.035.823c.073.736.305 1.424.661 2.03a2676.954 2676.954 0 0 1-10.176-.45c-2.115-.097-5.4-.252-8.794-.413zm29.333 1.269a5 5 0 1 1 .859-1.972L47.08 19c.133.004.722-.12 1.156-.294.44-.177.621-.341.621-.339 0-.48.017-.883.072-1.937l.013-.24c.083-1.605.077-2.44-.033-2.767-.242-.72-.583-.979-1.696-1.396.036.013-.396-.147-.521-.195-2.269-.867-4.203-1.42-8.553-2.503-.6-.15-1.21-.5-2.262-1.222-.23-.158-1.12-.781-1.308-.91a42.331 42.331 0 0 0-1.49-.993c-1.83-1.157-3.532-1.965-5.333-2.438-5.033-1.323-12.726-1.296-18.505.098C6.377 4.554 2 11.352 2 13.95c0 1.03.134 1.951.36 2.587.081.232.169.406.245.508.251.01.764.034 1.473.067a5.03 5.03 0 0 0 .047 2.003c-1.03-.048-1.656-.077-1.693-.077C.792 19.04 0 16.802 0 13.951 0 10.495 4.924 2.848 8.773 1.919 14.865.45 22.893.423 28.255 1.832c2.025.532 3.904 1.424 5.893 2.682-.085-.054 4.009 2.758 4.475 2.874 4.425 1.103 6.418 1.672 8.784 2.576.115.044.537.2.51.19 1.62.608 2.41 1.209 2.889 2.633.229.681.235 1.553.134 3.506l-.012.242c-.054 1.015-.07 1.402-.07 1.832 0 1.74-2.337 2.679-3.839 2.632-.624-.02-1.28-.04-1.97-.064zM41 21a3 3 0 1 0 0-6 3 3 0 0 0 0 6zm-30 0a3 3 0 1 0 0-6 3 3 0 0 0 0 6z" fill="#979797" fill-rule="nonzero"/><path d="M26.129 6.871a.2.2 0 0 1 .32.231l-1.304 2.609a.2.2 0 0 0 .179.289h2.193a.2.2 0 0 1 .142.341L22.87 15.13a.2.2 0 0 1-.32-.231l1.304-2.609a.2.2 0 0 0-.179-.289h-2.193a.2.2 0 0 1-.142-.341L26.13 6.87z" fill="#47D700"/></g></svg>
