<svg width="53" height="25" xmlns="http://www.w3.org/2000/svg"><path d="M17 20a5 5 0 1 1-.416-2h20.832A4.983 4.983 0 0 0 37 20H17zm32 0a5 5 0 1 1-.416-2h1.488c.296 0 .847-.349.847-.633 0-2.224-.734-6.324-1.314-6.798-.694-.566-2.785-.958-6.895-1.38-.184-.02-.311-.032-.623-.064l-.62-.063c-2.765-.28-4.085-.454-5.202-.733-.64-.161-1.189-.624-1.873-1.427-.234-.274-.476-.58-.806-1.012.037.049-.637-.839-.829-1.086C31.267 2.88 30.236 2 29.359 2H4.324c-1.09 0-1.971 4.03-1.971 7.95 0 .671-.028 1.165-.179 3.452a256 256 0 0 0-.048.74c-.095 1.512-.137 2.53-.124 3.303.004.213.012.399.024.555h3.39A4.983 4.983 0 0 0 5 20H1.353c-1.177 0-1.32-.69-1.35-2.521-.015-.842.029-1.9.127-3.463l.049-.745c.145-2.216.174-2.717.174-3.32C.353 4.549 1.347 0 4.324 0H29.36c1.749 0 3.1 1.155 4.979 3.578 2.054 2.65 2.13 2.74 2.413 2.81.985.247 2.261.415 4.918.685l.62.062.625.064c4.696.483 6.8.877 7.956 1.82 1.255 1.026 2.05 5.46 2.05 8.348 0 1.63-1.586 2.633-2.848 2.633H49zm-5 3a3 3 0 1 0 0-6 3 3 0 0 0 0 6zm-32 0a3 3 0 1 0 0-6 3 3 0 0 0 0 6z" fill="#979797" fill-rule="nonzero"/></svg>
