<svg width="62" height="22" xmlns="http://www.w3.org/2000/svg"><path d="M18.732 18.62A5.002 5.002 0 0 1 9 17a5 5 0 0 1 9.986-.372l1.933.07a34180.38 34180.38 0 0 0 22.105.793c.071.733.3 1.42.654 2.024-3.27-.114-6.939-.245-11.005-.39l-1.253-.046c-3.197-.115-6.479-.233-10.574-.382l-2.114-.077zm35.36 1.253a5 5 0 1 1 .827-1.974l3.162.101c.133.004.722-.12 1.156-.294.44-.177.621-.341.621-.339 0-.48.017-.883.072-1.937l.013-.24c.083-1.605.077-2.44-.033-2.767-.186-.554-.675-.866-1.868-1.237a58.511 58.511 0 0 0-.438-.133c-.229-.07-.382-.117-.538-.17-1.248-.418-3.292-.836-6.933-1.47-.06-.01-2.517-.434-3.187-.552a89.392 89.392 0 0 1-2.77-.524c-.64-.134-1.287-.493-2.34-1.213-.278-.19-1.372-.957-1.319-.92a43.878 43.878 0 0 0-1.49-1.003c-1.82-1.162-3.494-1.966-5.28-2.435-5.46-1.435-13.18-.868-17.911 1.65C11.153 6.907 8.54 7.564 5.086 7.58 3.702 7.587 2 10.628 2 12.95c0 1.031.134 1.952.36 2.588.08.23.167.402.243.505.472.013 1.865.06 4.461.154a5.036 5.036 0 0 0 .081 2.004c-3.087-.11-4.578-.162-4.713-.162C.792 18.04 0 15.802 0 12.951c0-3.278 2.283-7.357 5.076-7.37 3.13-.016 5.425-.592 9.82-2.931C20.1-.12 28.334-.724 34.256.832c2.013.529 3.868 1.418 5.847 2.684.493.315.97.638 1.558 1.047-.044-.03 1.038.728 1.303.91.834.57 1.332.846 1.623.907.706.148 1.564.31 2.707.511.665.118 3.119.541 3.182.552 3.756.653 5.842 1.08 7.226 1.544.132.045.27.088.482.152l.452.138c1.758.546 2.716 1.157 3.17 2.51.229.681.235 1.553.134 3.506l-.012.242c-.054 1.015-.07 1.402-.07 1.832 0 1.74-2.337 2.679-3.839 2.632-1.136-.035-2.445-.077-3.926-.126zM50 20a3 3 0 1 0 0-6 3 3 0 0 0 0 6zm-36 0a3 3 0 1 0 0-6 3 3 0 0 0 0 6z" fill="#979797" fill-rule="nonzero"/></svg>
